%TF.GenerationSoftware,KiCad,Pcbnew,7.0.8*%
%TF.CreationDate,2023-10-19T22:48:26-06:00*%
%TF.ProjectId,RP2040-Breadstick,52503230-3430-42d4-9272-656164737469,0.2*%
%TF.SameCoordinates,Original*%
%TF.FileFunction,Copper,L1,Top*%
%TF.FilePolarity,Positive*%
%FSLAX46Y46*%
G04 Gerber Fmt 4.6, Leading zero omitted, Abs format (unit mm)*
G04 Created by KiCad (PCBNEW 7.0.8) date 2023-10-19 22:48:26*
%MOMM*%
%LPD*%
G01*
G04 APERTURE LIST*
G04 Aperture macros list*
%AMRoundRect*
0 Rectangle with rounded corners*
0 $1 Rounding radius*
0 $2 $3 $4 $5 $6 $7 $8 $9 X,Y pos of 4 corners*
0 Add a 4 corners polygon primitive as box body*
4,1,4,$2,$3,$4,$5,$6,$7,$8,$9,$2,$3,0*
0 Add four circle primitives for the rounded corners*
1,1,$1+$1,$2,$3*
1,1,$1+$1,$4,$5*
1,1,$1+$1,$6,$7*
1,1,$1+$1,$8,$9*
0 Add four rect primitives between the rounded corners*
20,1,$1+$1,$2,$3,$4,$5,0*
20,1,$1+$1,$4,$5,$6,$7,0*
20,1,$1+$1,$6,$7,$8,$9,0*
20,1,$1+$1,$8,$9,$2,$3,0*%
G04 Aperture macros list end*
%TA.AperFunction,SMDPad,CuDef*%
%ADD10R,0.600000X0.350000*%
%TD*%
%TA.AperFunction,SMDPad,CuDef*%
%ADD11R,0.350000X0.600000*%
%TD*%
%TA.AperFunction,SMDPad,CuDef*%
%ADD12R,0.609600X1.143000*%
%TD*%
%TA.AperFunction,SMDPad,CuDef*%
%ADD13R,0.304800X1.143000*%
%TD*%
%TA.AperFunction,ComponentPad*%
%ADD14O,1.000000X1.800000*%
%TD*%
%TA.AperFunction,ComponentPad*%
%ADD15O,1.000000X2.200000*%
%TD*%
%TA.AperFunction,SMDPad,CuDef*%
%ADD16RoundRect,0.250000X-0.650000X0.325000X-0.650000X-0.325000X0.650000X-0.325000X0.650000X0.325000X0*%
%TD*%
%TA.AperFunction,SMDPad,CuDef*%
%ADD17RoundRect,0.200000X-0.275000X0.200000X-0.275000X-0.200000X0.275000X-0.200000X0.275000X0.200000X0*%
%TD*%
%TA.AperFunction,SMDPad,CuDef*%
%ADD18R,0.700000X0.400000*%
%TD*%
%TA.AperFunction,SMDPad,CuDef*%
%ADD19RoundRect,0.200000X0.200000X0.275000X-0.200000X0.275000X-0.200000X-0.275000X0.200000X-0.275000X0*%
%TD*%
%TA.AperFunction,SMDPad,CuDef*%
%ADD20RoundRect,0.200000X0.275000X-0.200000X0.275000X0.200000X-0.275000X0.200000X-0.275000X-0.200000X0*%
%TD*%
%TA.AperFunction,SMDPad,CuDef*%
%ADD21R,0.500000X0.600000*%
%TD*%
%TA.AperFunction,SMDPad,CuDef*%
%ADD22RoundRect,0.250000X0.325000X0.650000X-0.325000X0.650000X-0.325000X-0.650000X0.325000X-0.650000X0*%
%TD*%
%TA.AperFunction,SMDPad,CuDef*%
%ADD23RoundRect,0.225000X-0.250000X0.225000X-0.250000X-0.225000X0.250000X-0.225000X0.250000X0.225000X0*%
%TD*%
%TA.AperFunction,SMDPad,CuDef*%
%ADD24RoundRect,0.250000X-0.325000X-0.650000X0.325000X-0.650000X0.325000X0.650000X-0.325000X0.650000X0*%
%TD*%
%TA.AperFunction,SMDPad,CuDef*%
%ADD25RoundRect,0.225000X0.250000X-0.225000X0.250000X0.225000X-0.250000X0.225000X-0.250000X-0.225000X0*%
%TD*%
%TA.AperFunction,SMDPad,CuDef*%
%ADD26RoundRect,0.060000X-0.615000X0.240000X-0.615000X-0.240000X0.615000X-0.240000X0.615000X0.240000X0*%
%TD*%
%TA.AperFunction,SMDPad,CuDef*%
%ADD27R,0.375000X0.300000*%
%TD*%
%TA.AperFunction,SMDPad,CuDef*%
%ADD28RoundRect,0.150000X-0.150000X0.587500X-0.150000X-0.587500X0.150000X-0.587500X0.150000X0.587500X0*%
%TD*%
%TA.AperFunction,SMDPad,CuDef*%
%ADD29RoundRect,0.200000X-0.200000X-0.275000X0.200000X-0.275000X0.200000X0.275000X-0.200000X0.275000X0*%
%TD*%
%TA.AperFunction,SMDPad,CuDef*%
%ADD30R,0.900000X1.000000*%
%TD*%
%TA.AperFunction,SMDPad,CuDef*%
%ADD31RoundRect,0.250000X-0.375000X-0.625000X0.375000X-0.625000X0.375000X0.625000X-0.375000X0.625000X0*%
%TD*%
%TA.AperFunction,SMDPad,CuDef*%
%ADD32RoundRect,0.026400X0.193600X-0.493600X0.193600X0.493600X-0.193600X0.493600X-0.193600X-0.493600X0*%
%TD*%
%TA.AperFunction,SMDPad,CuDef*%
%ADD33R,4.300000X3.400000*%
%TD*%
%TA.AperFunction,SMDPad,CuDef*%
%ADD34R,1.200000X1.000000*%
%TD*%
%TA.AperFunction,SMDPad,CuDef*%
%ADD35RoundRect,0.006000X-0.414000X-0.094000X0.414000X-0.094000X0.414000X0.094000X-0.414000X0.094000X0*%
%TD*%
%TA.AperFunction,SMDPad,CuDef*%
%ADD36RoundRect,0.020000X-0.080000X-0.400000X0.080000X-0.400000X0.080000X0.400000X-0.080000X0.400000X0*%
%TD*%
%TA.AperFunction,SMDPad,CuDef*%
%ADD37R,3.100000X3.100000*%
%TD*%
%TA.AperFunction,ComponentPad*%
%ADD38R,1.700000X1.700000*%
%TD*%
%TA.AperFunction,ViaPad*%
%ADD39C,0.700000*%
%TD*%
%TA.AperFunction,Conductor*%
%ADD40C,0.152400*%
%TD*%
%TA.AperFunction,Conductor*%
%ADD41C,0.228600*%
%TD*%
%TA.AperFunction,Conductor*%
%ADD42C,0.508000*%
%TD*%
%TA.AperFunction,Conductor*%
%ADD43C,0.200000*%
%TD*%
G04 APERTURE END LIST*
D10*
X82101200Y-82612800D03*
X82101200Y-83112800D03*
X82101200Y-83612800D03*
X82101200Y-84112800D03*
D11*
X82761200Y-84272800D03*
X83261200Y-84272800D03*
X83761200Y-84272800D03*
D10*
X84421200Y-84112800D03*
X84421200Y-83612800D03*
X84421200Y-83112800D03*
X84421200Y-82612800D03*
D11*
X83761200Y-82452800D03*
X83261200Y-82452800D03*
X82761200Y-82452800D03*
D12*
X89560001Y-23623199D03*
X88760000Y-23623199D03*
D13*
X87610000Y-23623199D03*
X86610000Y-23623199D03*
X86110000Y-23623199D03*
X85110000Y-23623199D03*
D12*
X83160001Y-23623199D03*
X83960000Y-23623199D03*
D13*
X84609940Y-23623199D03*
X85609941Y-23623199D03*
X87109940Y-23623199D03*
X88109941Y-23623199D03*
D14*
X90680000Y-23048200D03*
D15*
X90680000Y-19048199D03*
D14*
X82040000Y-23048200D03*
D15*
X82040000Y-19048199D03*
D16*
X82600800Y-85799400D03*
X82600800Y-88749400D03*
D17*
X87122000Y-39815000D03*
X87122000Y-41465000D03*
D18*
X87010000Y-133547602D03*
X87010000Y-132747602D03*
X87010000Y-131947602D03*
X85710000Y-131947602D03*
X85710000Y-132747602D03*
X85710000Y-133547602D03*
D19*
X90614000Y-85090000D03*
X88964000Y-85090000D03*
D18*
X87010000Y-171095422D03*
X87010000Y-170295422D03*
X87010000Y-169495422D03*
X85710000Y-169495422D03*
X85710000Y-170295422D03*
X85710000Y-171095422D03*
X87010000Y-167340640D03*
X87010000Y-166540640D03*
X87010000Y-165740640D03*
X85710000Y-165740640D03*
X85710000Y-166540640D03*
X85710000Y-167340640D03*
D20*
X83972400Y-81089000D03*
X83972400Y-79439000D03*
X82143600Y-81089000D03*
X82143600Y-79439000D03*
D18*
X87010000Y-156076294D03*
X87010000Y-155276294D03*
X87010000Y-154476294D03*
X85710000Y-154476294D03*
X85710000Y-155276294D03*
X85710000Y-156076294D03*
D21*
X90416000Y-86599000D03*
X89416000Y-86599000D03*
X89916000Y-87899000D03*
D20*
X88450000Y-61285000D03*
X88450000Y-59635000D03*
D22*
X90375000Y-43434000D03*
X87425000Y-43434000D03*
D23*
X88646000Y-39865000D03*
X88646000Y-41415000D03*
D18*
X87010000Y-95999782D03*
X87010000Y-95199782D03*
X87010000Y-94399782D03*
X85710000Y-94399782D03*
X85710000Y-95199782D03*
X85710000Y-95999782D03*
D24*
X82345000Y-43434000D03*
X85295000Y-43434000D03*
D17*
X88138000Y-87313000D03*
X88138000Y-88963000D03*
D18*
X87010000Y-152321512D03*
X87010000Y-151521512D03*
X87010000Y-150721512D03*
X85710000Y-150721512D03*
X85710000Y-151521512D03*
X85710000Y-152321512D03*
D20*
X90170000Y-50863000D03*
X90170000Y-49213000D03*
D25*
X82550000Y-50813000D03*
X82550000Y-49263000D03*
D26*
X85302000Y-45201800D03*
X85302000Y-46151800D03*
X85302000Y-47101800D03*
X87672000Y-47101800D03*
X87672000Y-45201800D03*
D20*
X82550000Y-57340000D03*
X82550000Y-55690000D03*
D27*
X87148000Y-33770000D03*
X87148000Y-33270000D03*
X87148000Y-32770000D03*
X87148000Y-32270000D03*
X85572000Y-32270000D03*
X85572000Y-32770000D03*
X85572000Y-33270000D03*
X85572000Y-33770000D03*
D28*
X87310000Y-25529300D03*
X85410000Y-25529300D03*
X86360000Y-27404300D03*
D16*
X82550000Y-158545000D03*
X82550000Y-161495000D03*
D18*
X87010000Y-148566730D03*
X87010000Y-147766730D03*
X87010000Y-146966730D03*
X85710000Y-146966730D03*
X85710000Y-147766730D03*
X85710000Y-148566730D03*
X87010000Y-122283256D03*
X87010000Y-121483256D03*
X87010000Y-120683256D03*
X85710000Y-120683256D03*
X85710000Y-121483256D03*
X85710000Y-122283256D03*
D19*
X87566000Y-85090000D03*
X85916000Y-85090000D03*
D18*
X87010000Y-159831076D03*
X87010000Y-159031076D03*
X87010000Y-158231076D03*
X85710000Y-158231076D03*
X85710000Y-159031076D03*
X85710000Y-159831076D03*
X87010000Y-99754564D03*
X87010000Y-98954564D03*
X87010000Y-98154564D03*
X85710000Y-98154564D03*
X85710000Y-98954564D03*
X85710000Y-99754564D03*
X87010000Y-163585858D03*
X87010000Y-162785858D03*
X87010000Y-161985858D03*
X85710000Y-161985858D03*
X85710000Y-162785858D03*
X85710000Y-163585858D03*
D29*
X89091000Y-26162000D03*
X90741000Y-26162000D03*
D19*
X87185000Y-75946000D03*
X85535000Y-75946000D03*
D20*
X86990000Y-61285000D03*
X86990000Y-59635000D03*
D21*
X86860000Y-86599000D03*
X85860000Y-86599000D03*
X86360000Y-87899000D03*
D30*
X88410000Y-48730000D03*
X84310000Y-48730000D03*
X84310000Y-50330000D03*
X88410000Y-50330000D03*
D18*
X87010000Y-129792820D03*
X87010000Y-128992820D03*
X87010000Y-128192820D03*
X85710000Y-128192820D03*
X85710000Y-128992820D03*
X85710000Y-129792820D03*
D23*
X86106000Y-80911400D03*
X86106000Y-82461400D03*
D18*
X87010000Y-174850204D03*
X87010000Y-174050204D03*
X87010000Y-173250204D03*
X85710000Y-173250204D03*
X85710000Y-174050204D03*
X85710000Y-174850204D03*
D17*
X82550000Y-52515000D03*
X82550000Y-54165000D03*
X82550000Y-39815000D03*
X82550000Y-41465000D03*
D18*
X87010011Y-111018904D03*
X87010011Y-110218904D03*
X87010011Y-109418904D03*
X85710011Y-109418904D03*
X85710011Y-110218904D03*
X85710011Y-111018904D03*
D23*
X87680800Y-80911400D03*
X87680800Y-82461400D03*
D18*
X87010000Y-178604986D03*
X87010000Y-177804986D03*
X87010000Y-177004986D03*
X85710000Y-177004986D03*
X85710000Y-177804986D03*
X85710000Y-178604986D03*
D16*
X82550000Y-128065000D03*
X82550000Y-131015000D03*
D31*
X84960000Y-29464000D03*
X87760000Y-29464000D03*
D22*
X89613000Y-63119000D03*
X86663000Y-63119000D03*
D18*
X87010000Y-141057166D03*
X87010000Y-140257166D03*
X87010000Y-139457166D03*
X85710000Y-139457166D03*
X85710000Y-140257166D03*
X85710000Y-141057166D03*
D29*
X81979000Y-26162000D03*
X83629000Y-26162000D03*
D18*
X87010011Y-107264124D03*
X87010011Y-106464124D03*
X87010011Y-105664124D03*
X85710011Y-105664124D03*
X85710011Y-106464124D03*
X85710011Y-107264124D03*
D32*
X84455000Y-57709000D03*
X85725000Y-57709000D03*
X86995000Y-57709000D03*
X88265000Y-57709000D03*
X88265000Y-52019000D03*
X86995000Y-52019000D03*
X85725000Y-52019000D03*
X84455000Y-52019000D03*
D33*
X86360000Y-54864000D03*
D20*
X90170000Y-41465000D03*
X90170000Y-39815000D03*
D18*
X87010000Y-144811948D03*
X87010000Y-144011948D03*
X87010000Y-143211948D03*
X85710000Y-143211948D03*
X85710000Y-144011948D03*
X85710000Y-144811948D03*
X87010000Y-137302384D03*
X87010000Y-136502384D03*
X87010000Y-135702384D03*
X85710000Y-135702384D03*
X85710000Y-136502384D03*
X85710000Y-137302384D03*
D34*
X85586200Y-78907400D03*
X87286200Y-78907400D03*
X87286200Y-77607400D03*
X85586200Y-77607400D03*
D17*
X84582000Y-87313000D03*
X84582000Y-88963000D03*
D18*
X87010000Y-126038038D03*
X87010000Y-125238038D03*
X87010000Y-124438038D03*
X85710000Y-124438038D03*
X85710000Y-125238038D03*
X85710000Y-126038038D03*
X87010000Y-92245000D03*
X87010000Y-91445000D03*
X87010000Y-90645000D03*
X85710000Y-90645000D03*
X85710000Y-91445000D03*
X85710000Y-92245000D03*
D35*
X82925000Y-65980000D03*
X82925000Y-66380000D03*
X82925000Y-66780000D03*
X82925000Y-67180000D03*
X82925000Y-67580000D03*
X82925000Y-67980000D03*
X82925000Y-68380000D03*
X82925000Y-68780000D03*
X82925000Y-69180000D03*
X82925000Y-69580000D03*
X82925000Y-69980000D03*
X82925000Y-70380000D03*
X82925000Y-70780000D03*
X82925000Y-71180000D03*
D36*
X83760000Y-72015000D03*
X84160000Y-72015000D03*
X84560000Y-72015000D03*
X84960000Y-72015000D03*
X85360000Y-72015000D03*
X85760000Y-72015000D03*
X86160000Y-72015000D03*
X86560000Y-72015000D03*
X86960000Y-72015000D03*
X87360000Y-72015000D03*
X87760000Y-72015000D03*
X88160000Y-72015000D03*
X88560000Y-72015000D03*
X88960000Y-72015000D03*
D35*
X89795000Y-71180000D03*
X89795000Y-70780000D03*
X89795000Y-70380000D03*
X89795000Y-69980000D03*
X89795000Y-69580000D03*
X89795000Y-69180000D03*
X89795000Y-68780000D03*
X89795000Y-68380000D03*
X89795000Y-67980000D03*
X89795000Y-67580000D03*
X89795000Y-67180000D03*
X89795000Y-66780000D03*
X89795000Y-66380000D03*
X89795000Y-65980000D03*
D36*
X88960000Y-65145000D03*
X88560000Y-65145000D03*
X88160000Y-65145000D03*
X87760000Y-65145000D03*
X87360000Y-65145000D03*
X86960000Y-65145000D03*
X86560000Y-65145000D03*
X86160000Y-65145000D03*
X85760000Y-65145000D03*
X85360000Y-65145000D03*
X84960000Y-65145000D03*
X84560000Y-65145000D03*
X84160000Y-65145000D03*
X83760000Y-65145000D03*
D37*
X86360000Y-68580000D03*
D18*
X87010000Y-118528474D03*
X87010000Y-117728474D03*
X87010000Y-116928474D03*
X85710000Y-116928474D03*
X85710000Y-117728474D03*
X85710000Y-118528474D03*
X87010000Y-103509346D03*
X87010000Y-102709346D03*
X87010000Y-101909346D03*
X85710000Y-101909346D03*
X85710000Y-102709346D03*
X85710000Y-103509346D03*
D16*
X82550000Y-97585000D03*
X82550000Y-100535000D03*
D18*
X87010000Y-114773692D03*
X87010000Y-113973692D03*
X87010000Y-113173692D03*
X85710000Y-113173692D03*
X85710000Y-113973692D03*
X85710000Y-114773692D03*
D24*
X87628200Y-74041000D03*
X90578200Y-74041000D03*
D30*
X88410000Y-36665000D03*
X84310000Y-36665000D03*
X84310000Y-38265000D03*
X88410000Y-38265000D03*
D38*
X82550000Y-152400000D03*
X82550000Y-76200000D03*
X90170000Y-152400000D03*
X82550000Y-177800000D03*
X82550000Y-175260000D03*
X82550000Y-45720000D03*
X90170000Y-167640000D03*
X90170000Y-45720000D03*
X82550000Y-137160000D03*
X82550000Y-167640000D03*
X82550000Y-91440000D03*
X90170000Y-60960000D03*
X82550000Y-60960000D03*
X90170000Y-76200000D03*
X90170000Y-27940000D03*
X90170000Y-30480000D03*
X90170000Y-33020000D03*
X90170000Y-35560000D03*
X90170000Y-38100000D03*
X90170000Y-177800000D03*
X90170000Y-175260000D03*
X82550000Y-27940000D03*
X82550000Y-30480000D03*
X82550000Y-33020000D03*
X82550000Y-35560000D03*
X82550000Y-38100000D03*
X82550000Y-106680000D03*
X90170000Y-106680000D03*
X90170000Y-91440000D03*
X90170000Y-137160000D03*
X90170000Y-121920000D03*
X82550000Y-121920000D03*
D39*
X86360000Y-119253000D03*
X86360000Y-26314400D03*
X83160001Y-22554799D03*
X86359989Y-126655205D03*
X86360000Y-101092000D03*
X86360000Y-112395000D03*
X87477600Y-69621400D03*
X83058000Y-132054600D03*
X87376000Y-67818000D03*
X89560001Y-22555599D03*
X86360000Y-108585000D03*
X83843100Y-84961933D03*
X86360011Y-96824800D03*
X86360439Y-79878086D03*
X86360000Y-146050000D03*
X86360000Y-161163000D03*
X90678000Y-73025000D03*
X83083400Y-101600000D03*
X86360000Y-138430000D03*
X88284300Y-81940400D03*
X86360000Y-172339000D03*
X90525600Y-25146000D03*
X86156800Y-62001400D03*
X90049100Y-51562000D03*
X86360011Y-149352000D03*
X86360000Y-134620000D03*
X83108800Y-40589200D03*
X87122000Y-53594000D03*
X86360011Y-131191000D03*
X89550000Y-24810000D03*
X86360000Y-164846000D03*
X83160001Y-25196399D03*
X86487000Y-66395600D03*
X82042000Y-162534600D03*
X83439000Y-48768000D03*
X86360000Y-123063000D03*
X86360000Y-153670000D03*
X86227777Y-76903063D03*
X86360000Y-43688000D03*
X83846437Y-66895685D03*
X86360000Y-115570000D03*
X83083400Y-162534600D03*
X82016600Y-132054600D03*
X88773000Y-67056000D03*
X82804000Y-87858600D03*
X86360000Y-104521000D03*
X86360000Y-168656000D03*
X86360000Y-157099000D03*
X82003310Y-67288648D03*
X86360000Y-142494000D03*
X87122000Y-56134000D03*
X82042000Y-101600000D03*
X86360000Y-176149000D03*
X86360000Y-42799000D03*
X89516200Y-57429400D03*
X87505892Y-66062725D03*
X87178878Y-72966251D03*
X84133900Y-67697620D03*
X82009339Y-68153367D03*
X83944621Y-69039579D03*
X89008237Y-56648535D03*
X85955669Y-25476772D03*
X89958237Y-56648535D03*
X86807546Y-25470197D03*
X87347767Y-71103250D03*
X88873071Y-66066855D03*
X87833200Y-40620713D03*
X88750921Y-73660948D03*
X90709595Y-67009238D03*
X90716395Y-67861113D03*
X88199607Y-71092861D03*
X81991200Y-25196800D03*
X84633903Y-24586097D03*
X83502750Y-49834800D03*
X83335255Y-58117163D03*
X88873100Y-67970000D03*
X90718100Y-69564917D03*
X90716900Y-68713015D03*
X88779481Y-68817922D03*
X90718100Y-70416819D03*
X85938111Y-70950000D03*
X83972400Y-78714600D03*
X89408000Y-43688000D03*
X81965800Y-69291200D03*
X82042000Y-78232000D03*
X89408000Y-42799000D03*
X82550000Y-64643000D03*
X88750000Y-64520000D03*
X86758100Y-64520900D03*
X83388200Y-51511200D03*
X88816066Y-69669039D03*
X82118200Y-96494600D03*
X82118200Y-95631000D03*
X83312000Y-43688000D03*
X83312000Y-42799000D03*
X85806286Y-64300634D03*
X85092620Y-51239135D03*
X85547518Y-63488984D03*
X86360000Y-51231800D03*
X85490000Y-62620000D03*
X87630000Y-51231800D03*
X83921600Y-70713600D03*
X81990000Y-70205600D03*
X82014265Y-71379914D03*
X90424000Y-72110600D03*
X90716900Y-71268721D03*
D40*
X87833200Y-40620713D02*
X87833200Y-40741600D01*
X87833200Y-40741600D02*
X87122000Y-41452800D01*
X87122000Y-41452800D02*
X87122000Y-41465000D01*
X87833200Y-40620713D02*
X87890287Y-40620713D01*
X87890287Y-40620713D02*
X88646000Y-39865000D01*
X83261200Y-84380033D02*
X83261200Y-84272800D01*
X83843100Y-84961933D02*
X83261200Y-84380033D01*
X83843100Y-84961933D02*
X83761200Y-84880033D01*
X83761200Y-84880033D02*
X83761200Y-84272800D01*
D41*
X88366600Y-33553400D02*
X88366600Y-33020000D01*
D42*
X89550000Y-24810000D02*
X89560001Y-24799999D01*
D40*
X86741000Y-54864000D02*
X86360000Y-54864000D01*
D41*
X85572000Y-32270000D02*
X84570000Y-32270000D01*
D40*
X89814400Y-51218600D02*
X90170000Y-50863000D01*
X83261200Y-83413600D02*
X83261200Y-84272800D01*
X86156800Y-62001400D02*
X86663000Y-62507600D01*
X90678000Y-73025000D02*
X90578200Y-73124800D01*
D42*
X83160001Y-25693001D02*
X83160001Y-25196399D01*
D40*
X88646000Y-41415000D02*
X87884000Y-42177000D01*
D41*
X83820000Y-33020000D02*
X82550000Y-33020000D01*
D40*
X90170000Y-50490000D02*
X88410000Y-48730000D01*
X87680800Y-82461400D02*
X87763300Y-82461400D01*
D42*
X89550000Y-24810000D02*
X90189600Y-24810000D01*
D40*
X86663000Y-62507600D02*
X86663000Y-63119000D01*
X84675685Y-66895685D02*
X86360000Y-68580000D01*
X88265000Y-57709000D02*
X88265000Y-56388000D01*
D41*
X84570000Y-32270000D02*
X83820000Y-33020000D01*
X87148000Y-32270000D02*
X88200800Y-32270000D01*
D40*
X88410000Y-36665000D02*
X88410000Y-33510000D01*
X82101200Y-82612800D02*
X82101200Y-83112800D01*
X88265000Y-56388000D02*
X86741000Y-54864000D01*
D42*
X83629000Y-26162000D02*
X83160001Y-25693001D01*
X90189600Y-24810000D02*
X90525600Y-25146000D01*
X90741000Y-25361400D02*
X90741000Y-26162000D01*
D40*
X83108800Y-40589200D02*
X83108800Y-40373800D01*
D41*
X88366600Y-33020000D02*
X90170000Y-33020000D01*
D40*
X83108800Y-40373800D02*
X82550000Y-39815000D01*
D41*
X88200800Y-32270000D02*
X88366600Y-32435800D01*
D42*
X83160001Y-23623199D02*
X83160001Y-22554799D01*
D40*
X82600800Y-88061800D02*
X82600800Y-88749400D01*
D42*
X89560001Y-24799999D02*
X89560001Y-23623199D01*
D40*
X88410000Y-33510000D02*
X88900000Y-33020000D01*
X87425000Y-43434000D02*
X87425000Y-43307000D01*
X82101200Y-83112800D02*
X82960400Y-83112800D01*
X90578200Y-73124800D02*
X90578200Y-74041000D01*
D41*
X88366600Y-32435800D02*
X88366600Y-33020000D01*
D40*
X82804000Y-87858600D02*
X82600800Y-88061800D01*
D42*
X90525600Y-25146000D02*
X90741000Y-25361400D01*
D40*
X86360000Y-27404300D02*
X86360000Y-26314400D01*
X89814400Y-51327300D02*
X89814400Y-51218600D01*
X82960400Y-83112800D02*
X83261200Y-83413600D01*
D42*
X83160001Y-22554799D02*
X83160001Y-21487999D01*
D40*
X85360000Y-72015000D02*
X85360000Y-69580000D01*
X83846437Y-66895685D02*
X84675685Y-66895685D01*
D41*
X87148000Y-33770000D02*
X88150000Y-33770000D01*
D42*
X89560001Y-22555599D02*
X89560001Y-23623199D01*
D40*
X87763300Y-82461400D02*
X88284300Y-81940400D01*
D41*
X88150000Y-33770000D02*
X88366600Y-33553400D01*
D42*
X89560400Y-21082000D02*
X89560001Y-21082399D01*
X83160001Y-21487999D02*
X84124800Y-20523200D01*
D40*
X87884000Y-42177000D02*
X87884000Y-42975000D01*
D42*
X83160001Y-25196399D02*
X83160001Y-23623199D01*
D40*
X90049100Y-51562000D02*
X89814400Y-51327300D01*
D42*
X89560001Y-21082399D02*
X89560001Y-22555599D01*
D40*
X87884000Y-42975000D02*
X87425000Y-43434000D01*
X88900000Y-33020000D02*
X90170000Y-33020000D01*
X84310000Y-36665000D02*
X84310000Y-33510000D01*
X82101200Y-83612800D02*
X82101200Y-83112800D01*
D42*
X89001600Y-20523200D02*
X89560400Y-21082000D01*
D40*
X90170000Y-50863000D02*
X90170000Y-50490000D01*
X84310000Y-33510000D02*
X83820000Y-33020000D01*
D42*
X84124800Y-20523200D02*
X89001600Y-20523200D01*
D40*
X88160000Y-66700000D02*
X87522725Y-66062725D01*
X87632675Y-66062725D02*
X87505892Y-66062725D01*
X88081111Y-70389489D02*
X88160000Y-70310600D01*
X88009400Y-65860600D02*
X87834800Y-65860600D01*
X86960000Y-72015000D02*
X86960000Y-72990000D01*
X86960000Y-72015000D02*
X86960000Y-71533057D01*
X86960000Y-72990000D02*
X87628200Y-73658200D01*
X88160000Y-65710000D02*
X88009400Y-65860600D01*
X86160000Y-65145000D02*
X86160000Y-65575894D01*
X86960000Y-71533057D02*
X86690000Y-71263057D01*
X87522725Y-66062725D02*
X87505892Y-66062725D01*
X88160000Y-70310600D02*
X88160000Y-66700000D01*
X87178878Y-72966251D02*
X87178878Y-73591678D01*
X87178878Y-73591678D02*
X87628200Y-74041000D01*
X87628200Y-73658200D02*
X87628200Y-74041000D01*
X86690000Y-71263057D02*
X86690000Y-70409000D01*
X86690000Y-70409000D02*
X86709511Y-70389489D01*
X87424125Y-66062725D02*
X87505892Y-66062725D01*
X86377226Y-65793120D02*
X87154520Y-65793120D01*
X88160000Y-65145000D02*
X88160000Y-65710000D01*
X87834800Y-65860600D02*
X87632675Y-66062725D01*
X86160000Y-65575894D02*
X86377226Y-65793120D01*
X87154520Y-65793120D02*
X87424125Y-66062725D01*
X86709511Y-70389489D02*
X88081111Y-70389489D01*
X88188800Y-79908400D02*
X87680800Y-80416400D01*
X87680800Y-80416400D02*
X87680800Y-80911400D01*
X87286200Y-76047200D02*
X87185000Y-75946000D01*
X87615000Y-77607400D02*
X88188800Y-78181200D01*
X88188800Y-78181200D02*
X88188800Y-79908400D01*
X87286200Y-77607400D02*
X87615000Y-77607400D01*
X87286200Y-77607400D02*
X87286200Y-76047200D01*
X84758089Y-75544486D02*
X84758089Y-78831689D01*
X85760000Y-72015000D02*
X85760000Y-72609000D01*
X85586200Y-80391600D02*
X85586200Y-78907400D01*
X84833800Y-78907400D02*
X85586200Y-78907400D01*
X84758089Y-78831689D02*
X84833800Y-78907400D01*
X85090000Y-73279000D02*
X85090000Y-75212575D01*
X86106000Y-80911400D02*
X85586200Y-80391600D01*
X85090000Y-75212575D02*
X84758089Y-75544486D01*
X85760000Y-72609000D02*
X85090000Y-73279000D01*
X84062380Y-67697620D02*
X84133900Y-67697620D01*
X83380000Y-68380000D02*
X84062380Y-67697620D01*
X82925000Y-68380000D02*
X83380000Y-68380000D01*
X82009339Y-68153367D02*
X82276880Y-68420908D01*
X82276880Y-68570975D02*
X82485905Y-68780000D01*
X82276880Y-68420908D02*
X82276880Y-68570975D01*
X82485905Y-68780000D02*
X82925000Y-68780000D01*
X83804200Y-69180000D02*
X82925000Y-69180000D01*
X83944621Y-69039579D02*
X83804200Y-69180000D01*
D41*
X85903141Y-25529300D02*
X85410000Y-25529300D01*
X85410000Y-25529300D02*
X85410000Y-24902200D01*
X85826600Y-24485600D02*
X86444306Y-24485600D01*
X85410000Y-24902200D02*
X85826600Y-24485600D01*
X85609941Y-24268941D02*
X85826600Y-24485600D01*
X88585960Y-58691829D02*
X88900000Y-58377789D01*
X85955669Y-25476772D02*
X85903141Y-25529300D01*
X88900000Y-58377789D02*
X88900000Y-56756772D01*
X86990000Y-59635000D02*
X86990000Y-59060000D01*
X88900000Y-56756772D02*
X89008237Y-56648535D01*
X86444306Y-24485600D02*
X86610000Y-24319906D01*
X87358171Y-58691829D02*
X88585960Y-58691829D01*
X85609941Y-23623199D02*
X85609941Y-24268941D01*
X86610000Y-24319906D02*
X86610000Y-23623199D01*
X86990000Y-59060000D02*
X87358171Y-58691829D01*
X90132411Y-58000389D02*
X90132411Y-56822709D01*
X90132411Y-56822709D02*
X89958237Y-56648535D01*
D43*
X86110000Y-22805200D02*
X86110000Y-23623199D01*
D41*
X88747600Y-59385200D02*
X90132411Y-58000389D01*
X88747600Y-59639200D02*
X88747600Y-59385200D01*
D43*
X87109940Y-23623199D02*
X87109940Y-22847940D01*
X87109940Y-22847940D02*
X86969600Y-22707600D01*
X88454200Y-59639200D02*
X88450000Y-59635000D01*
D41*
X86866649Y-25529300D02*
X87310000Y-25529300D01*
X87109940Y-24473540D02*
X87109940Y-23623199D01*
X86807546Y-25470197D02*
X86866649Y-25529300D01*
X87310000Y-25529300D02*
X87310000Y-24673600D01*
D43*
X86207600Y-22707600D02*
X86110000Y-22805200D01*
X88747600Y-59639200D02*
X88454200Y-59639200D01*
D41*
X87310000Y-24673600D02*
X87109940Y-24473540D01*
D43*
X86969600Y-22707600D02*
X86207600Y-22707600D01*
D40*
X87360000Y-71115483D02*
X87360000Y-72015000D01*
X87347767Y-71103250D02*
X87360000Y-71115483D01*
X90450000Y-61240000D02*
X90170000Y-60960000D01*
X89795000Y-66380000D02*
X90338000Y-66380000D01*
X90338000Y-66380000D02*
X90450000Y-66268000D01*
X90450000Y-66268000D02*
X90450000Y-61240000D01*
X89355905Y-66780000D02*
X89795000Y-66780000D01*
X89146880Y-66340664D02*
X89146880Y-66570975D01*
X88873071Y-66066855D02*
X89146880Y-66340664D01*
X89146880Y-66570975D02*
X89355905Y-66780000D01*
X90120000Y-39865000D02*
X90170000Y-39815000D01*
X88646000Y-39865000D02*
X90120000Y-39865000D01*
X88160000Y-72015000D02*
X88160000Y-72869200D01*
X88750921Y-73460121D02*
X88750921Y-73660948D01*
X88160000Y-72869200D02*
X88750921Y-73460121D01*
X89266000Y-87899000D02*
X90043000Y-87899000D01*
X88298000Y-90645000D02*
X89266000Y-89677000D01*
X88138000Y-87313000D02*
X88252800Y-87313000D01*
X88838800Y-87899000D02*
X89266000Y-87899000D01*
X89266000Y-89677000D02*
X89266000Y-87899000D01*
X87010000Y-90645000D02*
X88298000Y-90645000D01*
X88252800Y-87313000D02*
X88838800Y-87899000D01*
X84582000Y-87313000D02*
X85168000Y-87899000D01*
X85710000Y-90645000D02*
X85710000Y-87899000D01*
X85710000Y-87899000D02*
X86360000Y-87899000D01*
X85168000Y-87899000D02*
X85710000Y-87899000D01*
X87010000Y-92245000D02*
X87010000Y-94399782D01*
X85710000Y-92245000D02*
X85710000Y-94399782D01*
X87010000Y-95999782D02*
X87010000Y-98154564D01*
X85710000Y-95999782D02*
X85710000Y-98154564D01*
X87010000Y-99754564D02*
X87010000Y-101909346D01*
X85710000Y-99754564D02*
X85710000Y-101909346D01*
X87010000Y-103509346D02*
X87010000Y-105664113D01*
X87010000Y-105664113D02*
X87010011Y-105664124D01*
X85710000Y-105664113D02*
X85710011Y-105664124D01*
X85710000Y-103509346D02*
X85710000Y-105664113D01*
X87010011Y-107264124D02*
X87010011Y-109418904D01*
X85710011Y-107264124D02*
X85710011Y-109418904D01*
X87010011Y-111018904D02*
X87010011Y-113173681D01*
X87010011Y-113173681D02*
X87010000Y-113173692D01*
X85710011Y-113173681D02*
X85710000Y-113173692D01*
X85710011Y-111018904D02*
X85710011Y-113173681D01*
X87010000Y-114773692D02*
X87010000Y-116928474D01*
X85710000Y-114773692D02*
X85710000Y-116928474D01*
X87010000Y-118528474D02*
X87010000Y-120683256D01*
X85710000Y-118528474D02*
X85710000Y-120683256D01*
X87010000Y-122283256D02*
X87010000Y-124438038D01*
X85710000Y-122283256D02*
X85710000Y-124438038D01*
X87010000Y-126038038D02*
X87010000Y-128192820D01*
X85710000Y-126038038D02*
X85710000Y-128192820D01*
X87010000Y-129792820D02*
X87010000Y-131947602D01*
X85710000Y-129792820D02*
X85710000Y-131947602D01*
X87010000Y-133547602D02*
X87010000Y-135702384D01*
X85710000Y-133547602D02*
X85710000Y-135702384D01*
X87010000Y-137302384D02*
X87010000Y-139457166D01*
X85710000Y-137302384D02*
X85710000Y-139457166D01*
X87010000Y-141057166D02*
X87010000Y-143211948D01*
X85710000Y-141057166D02*
X85710000Y-143211948D01*
X87010000Y-144811948D02*
X87010000Y-146966730D01*
X85710000Y-144811948D02*
X85710000Y-146966730D01*
X87010000Y-148566730D02*
X87010000Y-150721512D01*
X85710000Y-148566730D02*
X85710000Y-150721512D01*
X87010000Y-152321512D02*
X87010000Y-154476294D01*
X85710000Y-152321512D02*
X85710000Y-154476294D01*
X87010000Y-156076294D02*
X87010000Y-158231076D01*
X85710000Y-156076294D02*
X85710000Y-158231076D01*
X87010000Y-159831076D02*
X87010000Y-161985858D01*
X85710000Y-159831076D02*
X85710000Y-161985858D01*
X87010000Y-163585858D02*
X87010000Y-165740640D01*
X85710000Y-163585858D02*
X85710000Y-165740640D01*
X86995000Y-167355640D02*
X86995000Y-169480422D01*
X86995000Y-169480422D02*
X87010000Y-169495422D01*
X87010000Y-167340640D02*
X86995000Y-167355640D01*
X85710000Y-167340640D02*
X85710000Y-169495422D01*
X87010000Y-171095422D02*
X87010000Y-173250204D01*
X85710000Y-171095422D02*
X85710000Y-173250204D01*
X90568142Y-67009238D02*
X90397380Y-67180000D01*
X90397380Y-67180000D02*
X89795000Y-67180000D01*
X90709595Y-67009238D02*
X90568142Y-67009238D01*
X90435282Y-67580000D02*
X89795000Y-67580000D01*
X90716395Y-67861113D02*
X90435282Y-67580000D01*
X87807800Y-64490600D02*
X87807800Y-61849000D01*
X87760000Y-64538400D02*
X87807800Y-64490600D01*
X88371800Y-61285000D02*
X88450000Y-61285000D01*
X87807800Y-61849000D02*
X88371800Y-61285000D01*
X87760000Y-65145000D02*
X87760000Y-64538400D01*
X87360000Y-64481200D02*
X87503000Y-64338200D01*
X87503000Y-64338200D02*
X87503000Y-61798000D01*
X87503000Y-61798000D02*
X86990000Y-61285000D01*
X87360000Y-65145000D02*
X87360000Y-64481200D01*
X87010000Y-174850204D02*
X87010000Y-177004986D01*
X87760000Y-72015000D02*
X87760000Y-71532468D01*
X87760000Y-71532468D02*
X88199607Y-71092861D01*
X87610000Y-23623199D02*
X87610000Y-24414800D01*
X88971400Y-26042400D02*
X89091000Y-26162000D01*
X88971400Y-25776200D02*
X88971400Y-26042400D01*
X87610000Y-24414800D02*
X88971400Y-25776200D01*
D41*
X81979000Y-25209000D02*
X81991200Y-25196800D01*
X81979000Y-26162000D02*
X81979000Y-25209000D01*
X84609940Y-24562134D02*
X84633903Y-24586097D01*
X84609940Y-23623199D02*
X84609940Y-24562134D01*
D40*
X85710000Y-174850204D02*
X85710000Y-177004986D01*
X83814800Y-49834800D02*
X84310000Y-50330000D01*
X83502750Y-49834800D02*
X83814800Y-49834800D01*
X84310000Y-50330000D02*
X88410000Y-50330000D01*
X83335255Y-58117163D02*
X82558092Y-57340000D01*
X82558092Y-57340000D02*
X82550000Y-57340000D01*
X86160000Y-75321000D02*
X85535000Y-75946000D01*
X86160000Y-72015000D02*
X86160000Y-75321000D01*
X88575000Y-38100000D02*
X88410000Y-38265000D01*
X87122000Y-39815000D02*
X87185000Y-39815000D01*
X90170000Y-38100000D02*
X88575000Y-38100000D01*
X87185000Y-39815000D02*
X87731600Y-39268400D01*
X84310000Y-38265000D02*
X82715000Y-38265000D01*
X87731600Y-39268400D02*
X87731600Y-39014400D01*
X88410000Y-38336000D02*
X88410000Y-38265000D01*
X82715000Y-38265000D02*
X82550000Y-38100000D01*
X87731600Y-39014400D02*
X88410000Y-38336000D01*
X88873100Y-67970000D02*
X89283100Y-68380000D01*
X89283100Y-68380000D02*
X89795000Y-68380000D01*
X90303017Y-69980000D02*
X89795000Y-69980000D01*
X90718100Y-69564917D02*
X90303017Y-69980000D01*
X90249915Y-69180000D02*
X89795000Y-69180000D01*
X90716900Y-68713015D02*
X90249915Y-69180000D01*
X88817403Y-68780000D02*
X89795000Y-68780000D01*
X88779481Y-68817922D02*
X88817403Y-68780000D01*
X90681281Y-70380000D02*
X89795000Y-70380000D01*
X90718100Y-70416819D02*
X90681281Y-70380000D01*
D42*
X83960000Y-22466000D02*
X83960000Y-23623199D01*
X83877992Y-24899192D02*
X84632800Y-25654000D01*
X83877992Y-23705207D02*
X83877992Y-24899192D01*
X84632800Y-25654000D02*
X84632800Y-29136800D01*
X83960000Y-23623199D02*
X83877992Y-23705207D01*
X88760000Y-23623199D02*
X88760000Y-22466000D01*
X84836000Y-21590000D02*
X83960000Y-22466000D01*
X88760000Y-22466000D02*
X87884000Y-21590000D01*
X87884000Y-21590000D02*
X84836000Y-21590000D01*
X84632800Y-29136800D02*
X84960000Y-29464000D01*
D40*
X83761200Y-82452800D02*
X83761200Y-82151600D01*
X89613000Y-63119000D02*
X89613000Y-63657000D01*
X90170000Y-43102000D02*
X90375000Y-43307000D01*
X85938111Y-70950000D02*
X85940000Y-70950000D01*
X85293200Y-86969600D02*
X85293200Y-86173600D01*
X86758100Y-64520900D02*
X86560000Y-64719000D01*
X83388200Y-51511200D02*
X82690000Y-50813000D01*
X84455000Y-52019000D02*
X83896000Y-52019000D01*
X89355905Y-69580000D02*
X89795000Y-69580000D01*
X83972400Y-79439000D02*
X83972400Y-79552800D01*
X87566000Y-85154000D02*
X87566000Y-85090000D01*
X89103200Y-87325200D02*
X89839800Y-87325200D01*
X89839800Y-87325200D02*
X90424000Y-86741000D01*
X82143600Y-78333600D02*
X82143600Y-79439000D01*
X82042000Y-78232000D02*
X82143600Y-78333600D01*
X83972400Y-79552800D02*
X84734400Y-80314800D01*
X81965800Y-69291200D02*
X82254600Y-69580000D01*
X83388200Y-51536600D02*
X82550000Y-52374800D01*
X84734400Y-81991200D02*
X85191600Y-82448400D01*
X82254600Y-69580000D02*
X82925000Y-69580000D01*
X90424000Y-86741000D02*
X90424000Y-85280000D01*
X88900000Y-87122000D02*
X89103200Y-87325200D01*
X83972400Y-78714600D02*
X83972400Y-79439000D01*
X88816066Y-69669039D02*
X89266866Y-69669039D01*
X86860000Y-86599000D02*
X86860000Y-86672800D01*
X85191600Y-82448400D02*
X85191600Y-83642400D01*
X90424000Y-85280000D02*
X90614000Y-85090000D01*
X90170000Y-41465000D02*
X90170000Y-43102000D01*
X82761200Y-85639000D02*
X82600800Y-85799400D01*
X84721200Y-84112800D02*
X84421200Y-84112800D01*
X85547200Y-87223600D02*
X85293200Y-86969600D01*
X88773000Y-47816000D02*
X90170000Y-49213000D01*
X88508800Y-45201800D02*
X88773000Y-45466000D01*
X84421200Y-85301600D02*
X83923400Y-85799400D01*
X86860000Y-86599000D02*
X88656400Y-86599000D01*
X82690000Y-50813000D02*
X82550000Y-50813000D01*
X83896000Y-52019000D02*
X83388200Y-51511200D01*
X86860000Y-85860000D02*
X87566000Y-85154000D01*
X86860000Y-86672800D02*
X86309200Y-87223600D01*
X85191600Y-83642400D02*
X84721200Y-84112800D01*
X82550000Y-52374800D02*
X82550000Y-52515000D01*
X83388200Y-51511200D02*
X83388200Y-51536600D01*
X82925000Y-65980000D02*
X82925000Y-65018000D01*
X82925000Y-65018000D02*
X82550000Y-64643000D01*
X89613000Y-63657000D02*
X88750000Y-64520000D01*
X87672000Y-45201800D02*
X88508800Y-45201800D01*
X86560000Y-64719000D02*
X86560000Y-65145000D01*
X84421200Y-84112800D02*
X84421200Y-85301600D01*
X82761200Y-84272800D02*
X82761200Y-85639000D01*
X86960000Y-64722800D02*
X86960000Y-65145000D01*
X83761200Y-82151600D02*
X83921600Y-81991200D01*
X86560000Y-71570000D02*
X86560000Y-72015000D01*
X89266866Y-69669039D02*
X89355905Y-69580000D01*
X83923400Y-85799400D02*
X82600800Y-85799400D01*
X88900000Y-86842600D02*
X88900000Y-87122000D01*
X88656400Y-86599000D02*
X88900000Y-86842600D01*
X86309200Y-87223600D02*
X85547200Y-87223600D01*
X88773000Y-45466000D02*
X88773000Y-47816000D01*
X85940000Y-70950000D02*
X86560000Y-71570000D01*
X85293200Y-86173600D02*
X84421200Y-85301600D01*
X86860000Y-86599000D02*
X86860000Y-85860000D01*
X83921600Y-81991200D02*
X84734400Y-81991200D01*
X86758100Y-64520900D02*
X86960000Y-64722800D01*
X84734400Y-80314800D02*
X84734400Y-81991200D01*
X84582000Y-91313000D02*
X84714000Y-91445000D01*
X84714000Y-91445000D02*
X85710000Y-91445000D01*
X86360000Y-91033600D02*
X86360000Y-89789000D01*
X87186000Y-88963000D02*
X88138000Y-88963000D01*
X86360000Y-89789000D02*
X87186000Y-88963000D01*
X85948600Y-91445000D02*
X86360000Y-91033600D01*
X84582000Y-88963000D02*
X84582000Y-91313000D01*
X82550000Y-41465000D02*
X82550000Y-43102000D01*
X85710000Y-91445000D02*
X85948600Y-91445000D01*
X82550000Y-43102000D02*
X82345000Y-43307000D01*
X83439000Y-56769000D02*
X83820000Y-56769000D01*
X83760000Y-65145000D02*
X83760000Y-60960000D01*
X83760000Y-60960000D02*
X84455000Y-60265000D01*
X82550000Y-55690000D02*
X82550000Y-55880000D01*
X82550000Y-55690000D02*
X82550000Y-54165000D01*
X84455000Y-60265000D02*
X84455000Y-57709000D01*
X83820000Y-56769000D02*
X84455000Y-57404000D01*
X82550000Y-55880000D02*
X83439000Y-56769000D01*
X84455000Y-57404000D02*
X84455000Y-57709000D01*
X85760000Y-64346920D02*
X85806286Y-64300634D01*
X85092620Y-51239135D02*
X85198935Y-51239135D01*
X85198935Y-51239135D02*
X85725000Y-51765200D01*
X85725000Y-51765200D02*
X85725000Y-52019000D01*
X85760000Y-65145000D02*
X85760000Y-64346920D01*
X86995000Y-51739800D02*
X86995000Y-52019000D01*
X85228175Y-64540097D02*
X85228175Y-63808327D01*
X86487000Y-51231800D02*
X86995000Y-51739800D01*
X85294039Y-64605961D02*
X85228175Y-64540097D01*
X85360000Y-65145000D02*
X85360000Y-64671922D01*
X86360000Y-51231800D02*
X86487000Y-51231800D01*
X85360000Y-64671922D02*
X85294039Y-64605961D01*
X85228175Y-63808327D02*
X85547518Y-63488984D01*
X87757000Y-51231800D02*
X88265000Y-51739800D01*
X84923855Y-63186145D02*
X85490000Y-62620000D01*
X84960000Y-64702296D02*
X84923855Y-64666150D01*
X84923855Y-64666150D02*
X84923855Y-63186145D01*
X84960000Y-65145000D02*
X84960000Y-64702296D01*
X87630000Y-51231800D02*
X87757000Y-51231800D01*
X88265000Y-51739800D02*
X88265000Y-52019000D01*
X86070000Y-58840000D02*
X86995000Y-57915000D01*
X84560000Y-62730000D02*
X86070000Y-61220000D01*
X86995000Y-57915000D02*
X86995000Y-57709000D01*
X84560000Y-65145000D02*
X84560000Y-62730000D01*
X86070000Y-61220000D02*
X86070000Y-58840000D01*
X85180000Y-60850000D02*
X85180000Y-58600000D01*
X85180000Y-58600000D02*
X85725000Y-58055000D01*
X85725000Y-58055000D02*
X85725000Y-57709000D01*
X84160000Y-65145000D02*
X84160000Y-61870000D01*
X84160000Y-61870000D02*
X85180000Y-60850000D01*
X83921600Y-70536824D02*
X83364776Y-69980000D01*
X83364776Y-69980000D02*
X82925000Y-69980000D01*
X83921600Y-70713600D02*
X83921600Y-70536824D01*
X82164400Y-70380000D02*
X82925000Y-70380000D01*
X81990000Y-70205600D02*
X82164400Y-70380000D01*
X82229600Y-70780000D02*
X82092800Y-70916800D01*
X82092800Y-70916800D02*
X82014265Y-70995335D01*
X82925000Y-70780000D02*
X82229600Y-70780000D01*
X82014265Y-70995335D02*
X82014265Y-71379914D01*
X82925000Y-73835000D02*
X82550000Y-74210000D01*
X82550000Y-74210000D02*
X82550000Y-76200000D01*
X82925000Y-71180000D02*
X82925000Y-73835000D01*
X82850000Y-77937656D02*
X82850000Y-80382600D01*
X83760000Y-72015000D02*
X83760000Y-72627800D01*
X82761200Y-81706600D02*
X82143600Y-81089000D01*
X83628111Y-77159545D02*
X82850000Y-77937656D01*
X82850000Y-80382600D02*
X82143600Y-81089000D01*
X83760000Y-72627800D02*
X83628111Y-72759689D01*
X83628111Y-72759689D02*
X83628111Y-77159545D01*
X82761200Y-82452800D02*
X82761200Y-81706600D01*
X83261200Y-82452800D02*
X83261200Y-81800200D01*
X83268800Y-80385400D02*
X83972400Y-81089000D01*
X84160000Y-72837400D02*
X84074000Y-72923400D01*
X84074000Y-77520800D02*
X83268800Y-78326000D01*
X84160000Y-72015000D02*
X84160000Y-72837400D01*
X83268800Y-78326000D02*
X83268800Y-80385400D01*
X83261200Y-81800200D02*
X83972400Y-81089000D01*
X84074000Y-72923400D02*
X84074000Y-77520800D01*
X86029800Y-83947000D02*
X85916000Y-84060800D01*
X88265000Y-75055363D02*
X88265000Y-77216000D01*
X85860000Y-85869400D02*
X85860000Y-86599000D01*
X87909400Y-83947000D02*
X86029800Y-83947000D01*
X88560000Y-72015000D02*
X88560000Y-72652437D01*
X88976200Y-82880200D02*
X87909400Y-83947000D01*
X85916000Y-84060800D02*
X85916000Y-85090000D01*
X88560000Y-72652437D02*
X89329048Y-73421485D01*
X88976200Y-77927200D02*
X88976200Y-82880200D01*
X85916000Y-85813400D02*
X85860000Y-85869400D01*
X88265000Y-77216000D02*
X88976200Y-77927200D01*
X89329048Y-73991315D02*
X88265000Y-75055363D01*
X85916000Y-85090000D02*
X85916000Y-85813400D01*
X89329048Y-73421485D02*
X89329048Y-73991315D01*
X89408000Y-85572600D02*
X89408000Y-86464000D01*
X88960000Y-72220000D02*
X89775080Y-73035080D01*
X89408000Y-86464000D02*
X89543000Y-86599000D01*
X88960000Y-72015000D02*
X88960000Y-72220000D01*
X88964000Y-85128600D02*
X89408000Y-85572600D01*
X89775080Y-73035080D02*
X89775080Y-74438698D01*
X88964000Y-85090000D02*
X88964000Y-85128600D01*
X89916000Y-77978000D02*
X89916000Y-84138000D01*
X89775080Y-74438698D02*
X89091889Y-75121889D01*
X89091889Y-75121889D02*
X89091889Y-77153889D01*
X89916000Y-84138000D02*
X88964000Y-85090000D01*
X89091889Y-77153889D02*
X89916000Y-77978000D01*
X90424000Y-72110600D02*
X90246200Y-72110600D01*
X89795000Y-71659400D02*
X89795000Y-71180000D01*
X90246200Y-72110600D02*
X89795000Y-71659400D01*
X90716900Y-71268721D02*
X90716900Y-71233883D01*
X90716900Y-71233883D02*
X90263017Y-70780000D01*
X90263017Y-70780000D02*
X89795000Y-70780000D01*
D42*
X90170000Y-30480000D02*
X88776000Y-30480000D01*
D41*
X87760000Y-29715000D02*
X87760000Y-29464000D01*
D42*
X88776000Y-30480000D02*
X87760000Y-29464000D01*
D41*
X87148000Y-32770000D02*
X86745000Y-32770000D01*
X86614000Y-30861000D02*
X87760000Y-29715000D01*
X86614000Y-32639000D02*
X86614000Y-30861000D01*
X86745000Y-32770000D02*
X86614000Y-32639000D01*
X86106000Y-32664400D02*
X86106000Y-29210000D01*
X85572000Y-32770000D02*
X86000400Y-32770000D01*
X86000400Y-32770000D02*
X86106000Y-32664400D01*
X86106000Y-29210000D02*
X87376000Y-27940000D01*
X87376000Y-27940000D02*
X90170000Y-27940000D01*
%TA.AperFunction,Conductor*%
G36*
X87984138Y-82058193D02*
G01*
X88009858Y-82102742D01*
X88011000Y-82115800D01*
X88011000Y-82830400D01*
X87993407Y-82878738D01*
X87948858Y-82904458D01*
X87935800Y-82905600D01*
X85952600Y-82905600D01*
X85904262Y-82888007D01*
X85878542Y-82843458D01*
X85877400Y-82830400D01*
X85877400Y-82115800D01*
X85894993Y-82067462D01*
X85939542Y-82041742D01*
X85952600Y-82040600D01*
X86690200Y-82040600D01*
X87071200Y-82040600D01*
X87935800Y-82040600D01*
X87984138Y-82058193D01*
G37*
%TD.AperFunction*%
%TA.AperFunction,Conductor*%
G36*
X86233000Y-46431200D02*
G01*
X84987400Y-46431200D01*
X84939062Y-46413607D01*
X84913342Y-46369058D01*
X84912200Y-46356000D01*
X84912200Y-45947600D01*
X84929793Y-45899262D01*
X84974342Y-45873542D01*
X84987400Y-45872400D01*
X86233000Y-45872400D01*
X86233000Y-46431200D01*
G37*
%TD.AperFunction*%
%TA.AperFunction,Conductor*%
G36*
X86334600Y-37769798D02*
G01*
X86334600Y-41834800D01*
X86317007Y-41883138D01*
X86272458Y-41908858D01*
X86259400Y-41910000D01*
X85502150Y-41910000D01*
X85502147Y-41909999D01*
X85471000Y-41909999D01*
X85471000Y-37693600D01*
X86334600Y-37693600D01*
X86334600Y-37769798D01*
G37*
%TD.AperFunction*%
%TA.AperFunction,Conductor*%
G36*
X87044338Y-79570393D02*
G01*
X87070058Y-79614942D01*
X87071200Y-79628000D01*
X87071200Y-80214600D01*
X85901800Y-80214600D01*
X85853462Y-80197007D01*
X85827742Y-80152458D01*
X85826600Y-80139400D01*
X85826600Y-79635499D01*
X85844193Y-79587161D01*
X85888742Y-79561441D01*
X85901800Y-79560299D01*
X86201256Y-79560299D01*
X86238960Y-79552800D01*
X86614000Y-79552800D01*
X86996000Y-79552800D01*
X87044338Y-79570393D01*
G37*
%TD.AperFunction*%
%TA.AperFunction,Conductor*%
G36*
X83642200Y-44170600D02*
G01*
X83642199Y-44170600D01*
X83638825Y-44173974D01*
X83592205Y-44195714D01*
X83585651Y-44196000D01*
X81837800Y-44196000D01*
X81789462Y-44178407D01*
X81763742Y-44133858D01*
X81762600Y-44120800D01*
X81762600Y-44095400D01*
X81762600Y-42467797D01*
X81780193Y-42419462D01*
X81824742Y-42393742D01*
X81837789Y-42392600D01*
X83642201Y-42392600D01*
X83642200Y-44170600D01*
G37*
%TD.AperFunction*%
%TA.AperFunction,Conductor*%
G36*
X90930538Y-42410192D02*
G01*
X90956258Y-42454741D01*
X90957400Y-42467799D01*
X90957400Y-44120799D01*
X90939807Y-44169137D01*
X90895258Y-44194857D01*
X90882200Y-44195999D01*
X89001600Y-44195999D01*
X88442800Y-44196000D01*
X88442800Y-42467797D01*
X88460393Y-42419462D01*
X88504942Y-42393742D01*
X88517989Y-42392600D01*
X90882200Y-42392599D01*
X90930538Y-42410192D01*
G37*
%TD.AperFunction*%
%TA.AperFunction,Conductor*%
G36*
X84556600Y-98171000D02*
G01*
X84353400Y-98171000D01*
X81710799Y-98171000D01*
X81662461Y-98153407D01*
X81636741Y-98108858D01*
X81635600Y-98095812D01*
X81635601Y-97002602D01*
X84556601Y-97002600D01*
X84556600Y-98171000D01*
G37*
%TD.AperFunction*%
%TA.AperFunction,Conductor*%
G36*
X90095959Y-62228860D02*
G01*
X90144018Y-62247195D01*
X90169050Y-62292133D01*
X90170000Y-62304051D01*
X90170000Y-65964800D01*
X90152407Y-66013138D01*
X90107858Y-66038858D01*
X90094800Y-66040000D01*
X89442442Y-66040000D01*
X89394104Y-66022407D01*
X89368384Y-65977858D01*
X89368013Y-65975544D01*
X89360562Y-65923715D01*
X89360560Y-65923710D01*
X89360560Y-65923709D01*
X89300489Y-65792173D01*
X89300488Y-65792172D01*
X89300488Y-65792171D01*
X89205787Y-65682881D01*
X89084131Y-65604697D01*
X89084130Y-65604696D01*
X89084129Y-65604696D01*
X88945379Y-65563955D01*
X88945377Y-65563955D01*
X88800765Y-65563955D01*
X88800762Y-65563955D01*
X88662011Y-65604696D01*
X88634855Y-65622148D01*
X88584679Y-65633480D01*
X88538958Y-65609908D01*
X88519085Y-65562462D01*
X88519000Y-65558885D01*
X88519000Y-62280965D01*
X88536593Y-62232627D01*
X88581142Y-62206907D01*
X88595349Y-62205774D01*
X90095959Y-62228860D01*
G37*
%TD.AperFunction*%
%TA.AperFunction,Conductor*%
G36*
X83412137Y-100017392D02*
G01*
X83437857Y-100061941D01*
X83438999Y-100074999D01*
X83438999Y-101880399D01*
X83421406Y-101928737D01*
X83376857Y-101954457D01*
X83363799Y-101955599D01*
X81761602Y-101955599D01*
X81713264Y-101938006D01*
X81687544Y-101893457D01*
X81686402Y-101880399D01*
X81686398Y-100074999D01*
X81703991Y-100026661D01*
X81748539Y-100000941D01*
X81761597Y-99999799D01*
X83363801Y-99999799D01*
X83412137Y-100017392D01*
G37*
%TD.AperFunction*%
%TA.AperFunction,Conductor*%
G36*
X85977538Y-44899392D02*
G01*
X86003258Y-44943941D01*
X86004400Y-44956999D01*
X86004400Y-45441599D01*
X85986807Y-45489937D01*
X85942258Y-45515657D01*
X85929200Y-45516799D01*
X84277200Y-45516799D01*
X83820000Y-45516799D01*
X83820000Y-45466573D01*
X83819999Y-45466551D01*
X83820000Y-44881799D01*
X85929202Y-44881799D01*
X85977538Y-44899392D01*
G37*
%TD.AperFunction*%
%TA.AperFunction,Conductor*%
G36*
X87958738Y-42435593D02*
G01*
X87984458Y-42480142D01*
X87985600Y-42493200D01*
X87985600Y-44273200D01*
X87968007Y-44321538D01*
X87923458Y-44347258D01*
X87910400Y-44348400D01*
X84809600Y-44348400D01*
X84761262Y-44330807D01*
X84735542Y-44286258D01*
X84734400Y-44273200D01*
X84734400Y-42493200D01*
X84751993Y-42444862D01*
X84796542Y-42419142D01*
X84809600Y-42418000D01*
X87910400Y-42418000D01*
X87958738Y-42435593D01*
G37*
%TD.AperFunction*%
%TA.AperFunction,Conductor*%
G36*
X91006738Y-32199393D02*
G01*
X91032458Y-32243942D01*
X91033600Y-32257000D01*
X91033600Y-33783000D01*
X91016007Y-33831338D01*
X90971458Y-33857058D01*
X90958400Y-33858200D01*
X88213200Y-33858200D01*
X88164862Y-33840607D01*
X88139142Y-33796058D01*
X88138000Y-33783000D01*
X88138000Y-32257000D01*
X88155593Y-32208662D01*
X88200142Y-32182942D01*
X88213200Y-32181800D01*
X90958400Y-32181800D01*
X91006738Y-32199393D01*
G37*
%TD.AperFunction*%
%TA.AperFunction,Conductor*%
G36*
X87044338Y-79570393D02*
G01*
X87070058Y-79614942D01*
X87071200Y-79628000D01*
X87071200Y-80544141D01*
X87064901Y-80571366D01*
X87065327Y-80571498D01*
X87063601Y-80577081D01*
X87052900Y-80650526D01*
X87052900Y-81172258D01*
X87052901Y-81172263D01*
X87063602Y-81245722D01*
X87065326Y-81251300D01*
X87064900Y-81251431D01*
X87071200Y-81278659D01*
X87071200Y-82449800D01*
X86690200Y-82449800D01*
X86690200Y-81330615D01*
X86697841Y-81297587D01*
X86723198Y-81245719D01*
X86733900Y-81172263D01*
X86733899Y-80650538D01*
X86723198Y-80577081D01*
X86697841Y-80525212D01*
X86690200Y-80492185D01*
X86690200Y-80214600D01*
X86690200Y-79552800D01*
X86996000Y-79552800D01*
X87044338Y-79570393D01*
G37*
%TD.AperFunction*%
%TA.AperFunction,Conductor*%
G36*
X87857138Y-78425993D02*
G01*
X87882858Y-78470542D01*
X87884000Y-78483600D01*
X87884000Y-79325200D01*
X87866407Y-79373538D01*
X87821858Y-79399258D01*
X87808800Y-79400400D01*
X86360000Y-79400400D01*
X86360000Y-78408400D01*
X86614000Y-78408400D01*
X87808800Y-78408400D01*
X87857138Y-78425993D01*
G37*
%TD.AperFunction*%
%TA.AperFunction,Conductor*%
G36*
X86485538Y-76673393D02*
G01*
X86511258Y-76717942D01*
X86512400Y-76731000D01*
X86512400Y-78105000D01*
X86028800Y-78105000D01*
X85980462Y-78087407D01*
X85954742Y-78042858D01*
X85953600Y-78029800D01*
X85953600Y-76731000D01*
X85971193Y-76682662D01*
X86015742Y-76656942D01*
X86028800Y-76655800D01*
X86437200Y-76655800D01*
X86485538Y-76673393D01*
G37*
%TD.AperFunction*%
%TA.AperFunction,Conductor*%
G36*
X88873138Y-48277593D02*
G01*
X88898858Y-48322142D01*
X88900000Y-48335200D01*
X88900000Y-49200800D01*
X88882407Y-49249138D01*
X88837858Y-49274858D01*
X88824800Y-49276000D01*
X86741000Y-49276000D01*
X86233000Y-49276000D01*
X82117200Y-49276000D01*
X82068862Y-49258407D01*
X82043142Y-49213858D01*
X82042000Y-49200800D01*
X82042000Y-48335200D01*
X82059593Y-48286862D01*
X82104142Y-48261142D01*
X82117200Y-48260000D01*
X86233000Y-48260000D01*
X86741000Y-48260000D01*
X88824800Y-48260000D01*
X88873138Y-48277593D01*
G37*
%TD.AperFunction*%
%TA.AperFunction,Conductor*%
G36*
X89001600Y-44881800D02*
G01*
X89001600Y-45441600D01*
X88984007Y-45489938D01*
X88939458Y-45515658D01*
X88926411Y-45516799D01*
X88442800Y-45516799D01*
X87070199Y-45516799D01*
X87021861Y-45499206D01*
X86996141Y-45454657D01*
X86994999Y-45441599D01*
X86995000Y-44956999D01*
X87012594Y-44908661D01*
X87057142Y-44882941D01*
X87070199Y-44881799D01*
X89001600Y-44881800D01*
G37*
%TD.AperFunction*%
%TA.AperFunction,Conductor*%
G36*
X85977538Y-46804393D02*
G01*
X86003258Y-46848942D01*
X86004400Y-46862000D01*
X86004400Y-47346600D01*
X85986807Y-47394938D01*
X85942258Y-47420658D01*
X85929200Y-47421800D01*
X83895199Y-47421800D01*
X83846861Y-47404207D01*
X83821141Y-47359658D01*
X83819999Y-47346600D01*
X83820000Y-46786800D01*
X85929202Y-46786800D01*
X85977538Y-46804393D01*
G37*
%TD.AperFunction*%
%TA.AperFunction,Conductor*%
G36*
X86791800Y-37694598D02*
G01*
X86774207Y-37742936D01*
X86729658Y-37768656D01*
X86716600Y-37769798D01*
X86334600Y-37769798D01*
X86334600Y-37769799D01*
X85471000Y-37769801D01*
X85471000Y-37235398D01*
X85488593Y-37187063D01*
X85533142Y-37161343D01*
X85546191Y-37160201D01*
X86791800Y-37160198D01*
X86791800Y-37694598D01*
G37*
%TD.AperFunction*%
%TA.AperFunction,Conductor*%
G36*
X84580538Y-32199393D02*
G01*
X84606258Y-32243942D01*
X84607400Y-32257000D01*
X84607400Y-33783000D01*
X84589807Y-33831338D01*
X84545258Y-33857058D01*
X84532200Y-33858200D01*
X81787000Y-33858200D01*
X81738662Y-33840607D01*
X81712942Y-33796058D01*
X81711800Y-33783000D01*
X81711800Y-32257000D01*
X81729393Y-32208662D01*
X81773942Y-32182942D01*
X81787000Y-32181800D01*
X84532200Y-32181800D01*
X84580538Y-32199393D01*
G37*
%TD.AperFunction*%
%TA.AperFunction,Conductor*%
G36*
X86741000Y-49276000D02*
G01*
X86233000Y-49276000D01*
X86233000Y-42519600D01*
X86741000Y-42519600D01*
X86741000Y-49276000D01*
G37*
%TD.AperFunction*%
%TA.AperFunction,Conductor*%
G36*
X88466738Y-91101993D02*
G01*
X88492458Y-91146542D01*
X88493600Y-91159600D01*
X88493600Y-178740800D01*
X88476007Y-178789138D01*
X88431458Y-178814858D01*
X88418400Y-178816000D01*
X87588100Y-178816000D01*
X87539762Y-178798407D01*
X87514042Y-178753858D01*
X87512900Y-178740800D01*
X87512899Y-178389930D01*
X87512899Y-178389929D01*
X87504028Y-178345328D01*
X87470234Y-178294752D01*
X87419658Y-178260958D01*
X87419656Y-178260957D01*
X87375057Y-178252086D01*
X86644944Y-178252086D01*
X86644942Y-178252087D01*
X86600340Y-178260958D01*
X86549767Y-178294750D01*
X86515972Y-178345328D01*
X86515971Y-178345329D01*
X86507100Y-178389928D01*
X86507101Y-178740800D01*
X86489508Y-178789137D01*
X86444960Y-178814858D01*
X86431901Y-178816000D01*
X86308200Y-178816000D01*
X86259862Y-178798407D01*
X86234142Y-178753858D01*
X86233000Y-178740800D01*
X86233000Y-177220041D01*
X86507100Y-177220041D01*
X86507101Y-177220043D01*
X86515972Y-177264645D01*
X86549764Y-177315218D01*
X86549765Y-177315218D01*
X86549766Y-177315220D01*
X86600342Y-177349014D01*
X86644943Y-177357886D01*
X87375056Y-177357885D01*
X87419658Y-177349014D01*
X87470234Y-177315220D01*
X87504028Y-177264644D01*
X87512900Y-177220043D01*
X87512899Y-176789930D01*
X87504028Y-176745328D01*
X87470234Y-176694752D01*
X87419658Y-176660958D01*
X87419656Y-176660957D01*
X87375057Y-176652086D01*
X87314300Y-176652086D01*
X87265962Y-176634493D01*
X87240242Y-176589944D01*
X87239100Y-176576886D01*
X87239100Y-175278303D01*
X87256693Y-175229965D01*
X87301242Y-175204245D01*
X87314300Y-175203103D01*
X87375056Y-175203103D01*
X87419658Y-175194232D01*
X87470234Y-175160438D01*
X87504028Y-175109862D01*
X87512900Y-175065261D01*
X87512899Y-174635148D01*
X87504028Y-174590546D01*
X87470234Y-174539970D01*
X87419658Y-174506176D01*
X87419656Y-174506175D01*
X87375057Y-174497304D01*
X86644944Y-174497304D01*
X86644942Y-174497305D01*
X86600340Y-174506176D01*
X86549767Y-174539968D01*
X86515972Y-174590546D01*
X86515971Y-174590547D01*
X86507100Y-174635146D01*
X86507100Y-175065259D01*
X86507101Y-175065261D01*
X86515972Y-175109863D01*
X86549764Y-175160436D01*
X86549765Y-175160436D01*
X86549766Y-175160438D01*
X86600342Y-175194232D01*
X86644943Y-175203104D01*
X86705700Y-175203103D01*
X86754037Y-175220696D01*
X86779757Y-175265244D01*
X86780900Y-175278303D01*
X86780900Y-176576886D01*
X86763307Y-176625224D01*
X86718758Y-176650944D01*
X86705701Y-176652086D01*
X86644943Y-176652086D01*
X86644941Y-176652087D01*
X86600340Y-176660958D01*
X86549767Y-176694750D01*
X86515972Y-176745328D01*
X86515971Y-176745329D01*
X86507100Y-176789928D01*
X86507100Y-177220041D01*
X86233000Y-177220041D01*
X86233000Y-173465259D01*
X86507100Y-173465259D01*
X86507101Y-173465261D01*
X86515972Y-173509863D01*
X86549764Y-173560436D01*
X86549765Y-173560436D01*
X86549766Y-173560438D01*
X86600342Y-173594232D01*
X86644943Y-173603104D01*
X87375056Y-173603103D01*
X87419658Y-173594232D01*
X87470234Y-173560438D01*
X87504028Y-173509862D01*
X87512900Y-173465261D01*
X87512899Y-173035148D01*
X87504028Y-172990546D01*
X87470234Y-172939970D01*
X87419658Y-172906176D01*
X87419656Y-172906175D01*
X87375057Y-172897304D01*
X87314300Y-172897304D01*
X87265962Y-172879711D01*
X87240242Y-172835162D01*
X87239100Y-172822104D01*
X87239100Y-171523521D01*
X87256693Y-171475183D01*
X87301242Y-171449463D01*
X87314300Y-171448321D01*
X87375056Y-171448321D01*
X87419658Y-171439450D01*
X87470234Y-171405656D01*
X87504028Y-171355080D01*
X87512900Y-171310479D01*
X87512899Y-170880366D01*
X87504028Y-170835764D01*
X87470234Y-170785188D01*
X87419658Y-170751394D01*
X87419656Y-170751393D01*
X87375057Y-170742522D01*
X86644944Y-170742522D01*
X86644942Y-170742523D01*
X86600340Y-170751394D01*
X86549767Y-170785186D01*
X86515972Y-170835764D01*
X86515971Y-170835765D01*
X86507100Y-170880364D01*
X86507100Y-171310477D01*
X86507101Y-171310479D01*
X86515972Y-171355081D01*
X86549764Y-171405654D01*
X86549765Y-171405654D01*
X86549766Y-171405656D01*
X86600342Y-171439450D01*
X86644943Y-171448322D01*
X86705700Y-171448321D01*
X86754037Y-171465914D01*
X86779757Y-171510462D01*
X86780900Y-171523521D01*
X86780900Y-172822104D01*
X86763307Y-172870442D01*
X86718758Y-172896162D01*
X86705701Y-172897304D01*
X86644943Y-172897304D01*
X86644941Y-172897305D01*
X86600340Y-172906176D01*
X86549767Y-172939968D01*
X86515972Y-172990546D01*
X86515971Y-172990547D01*
X86507100Y-173035146D01*
X86507100Y-173465259D01*
X86233000Y-173465259D01*
X86233000Y-169710477D01*
X86507100Y-169710477D01*
X86507101Y-169710479D01*
X86515972Y-169755081D01*
X86549764Y-169805654D01*
X86549765Y-169805654D01*
X86549766Y-169805656D01*
X86600342Y-169839450D01*
X86644943Y-169848322D01*
X87375056Y-169848321D01*
X87419658Y-169839450D01*
X87470234Y-169805656D01*
X87504028Y-169755080D01*
X87512900Y-169710479D01*
X87512899Y-169280366D01*
X87504028Y-169235764D01*
X87470234Y-169185188D01*
X87419658Y-169151394D01*
X87419656Y-169151393D01*
X87375057Y-169142522D01*
X87299300Y-169142522D01*
X87250962Y-169124929D01*
X87225242Y-169080380D01*
X87224100Y-169067322D01*
X87224100Y-167768739D01*
X87241693Y-167720401D01*
X87286242Y-167694681D01*
X87299300Y-167693539D01*
X87375056Y-167693539D01*
X87419658Y-167684668D01*
X87470234Y-167650874D01*
X87504028Y-167600298D01*
X87512900Y-167555697D01*
X87512899Y-167125584D01*
X87504028Y-167080982D01*
X87470234Y-167030406D01*
X87419658Y-166996612D01*
X87419656Y-166996611D01*
X87375057Y-166987740D01*
X86644944Y-166987740D01*
X86644942Y-166987741D01*
X86600340Y-166996612D01*
X86549767Y-167030404D01*
X86515972Y-167080982D01*
X86515971Y-167080983D01*
X86507100Y-167125582D01*
X86507100Y-167555695D01*
X86507101Y-167555697D01*
X86515972Y-167600299D01*
X86549764Y-167650872D01*
X86549765Y-167650872D01*
X86549766Y-167650874D01*
X86600342Y-167684668D01*
X86644943Y-167693540D01*
X86690699Y-167693539D01*
X86739036Y-167711131D01*
X86764757Y-167755679D01*
X86765900Y-167768739D01*
X86765900Y-169067322D01*
X86748307Y-169115660D01*
X86703758Y-169141380D01*
X86690702Y-169142522D01*
X86644943Y-169142522D01*
X86644941Y-169142523D01*
X86600340Y-169151394D01*
X86549767Y-169185186D01*
X86515972Y-169235764D01*
X86515971Y-169235765D01*
X86507100Y-169280364D01*
X86507100Y-169710477D01*
X86233000Y-169710477D01*
X86233000Y-165955695D01*
X86507100Y-165955695D01*
X86507101Y-165955697D01*
X86515972Y-166000299D01*
X86549764Y-166050872D01*
X86549765Y-166050872D01*
X86549766Y-166050874D01*
X86600342Y-166084668D01*
X86644943Y-166093540D01*
X87375056Y-166093539D01*
X87419658Y-166084668D01*
X87470234Y-166050874D01*
X87504028Y-166000298D01*
X87512900Y-165955697D01*
X87512899Y-165525584D01*
X87504028Y-165480982D01*
X87470234Y-165430406D01*
X87419658Y-165396612D01*
X87419656Y-165396611D01*
X87375057Y-165387740D01*
X87314300Y-165387740D01*
X87265962Y-165370147D01*
X87240242Y-165325598D01*
X87239100Y-165312540D01*
X87239100Y-164013957D01*
X87256693Y-163965619D01*
X87301242Y-163939899D01*
X87314300Y-163938757D01*
X87375056Y-163938757D01*
X87419658Y-163929886D01*
X87470234Y-163896092D01*
X87504028Y-163845516D01*
X87512900Y-163800915D01*
X87512899Y-163370802D01*
X87504028Y-163326200D01*
X87470234Y-163275624D01*
X87419658Y-163241830D01*
X87419656Y-163241829D01*
X87375057Y-163232958D01*
X86644944Y-163232958D01*
X86644942Y-163232959D01*
X86600340Y-163241830D01*
X86549767Y-163275622D01*
X86515972Y-163326200D01*
X86515971Y-163326201D01*
X86507100Y-163370800D01*
X86507100Y-163800913D01*
X86507101Y-163800915D01*
X86515972Y-163845517D01*
X86549764Y-163896090D01*
X86549765Y-163896090D01*
X86549766Y-163896092D01*
X86600342Y-163929886D01*
X86644943Y-163938758D01*
X86705700Y-163938757D01*
X86754037Y-163956350D01*
X86779757Y-164000898D01*
X86780900Y-164013957D01*
X86780900Y-165312540D01*
X86763307Y-165360878D01*
X86718758Y-165386598D01*
X86705701Y-165387740D01*
X86644943Y-165387740D01*
X86644941Y-165387741D01*
X86600340Y-165396612D01*
X86549767Y-165430404D01*
X86515972Y-165480982D01*
X86515971Y-165480983D01*
X86507100Y-165525582D01*
X86507100Y-165955695D01*
X86233000Y-165955695D01*
X86233000Y-162200913D01*
X86507100Y-162200913D01*
X86507101Y-162200915D01*
X86515972Y-162245517D01*
X86549764Y-162296090D01*
X86549765Y-162296090D01*
X86549766Y-162296092D01*
X86600342Y-162329886D01*
X86644943Y-162338758D01*
X87375056Y-162338757D01*
X87419658Y-162329886D01*
X87470234Y-162296092D01*
X87504028Y-162245516D01*
X87512900Y-162200915D01*
X87512899Y-161770802D01*
X87504028Y-161726200D01*
X87470234Y-161675624D01*
X87419658Y-161641830D01*
X87419656Y-161641829D01*
X87375057Y-161632958D01*
X87314300Y-161632958D01*
X87265962Y-161615365D01*
X87240242Y-161570816D01*
X87239100Y-161557758D01*
X87239100Y-160259175D01*
X87256693Y-160210837D01*
X87301242Y-160185117D01*
X87314300Y-160183975D01*
X87375056Y-160183975D01*
X87419658Y-160175104D01*
X87470234Y-160141310D01*
X87504028Y-160090734D01*
X87512900Y-160046133D01*
X87512899Y-159616020D01*
X87504028Y-159571418D01*
X87470234Y-159520842D01*
X87419658Y-159487048D01*
X87419656Y-159487047D01*
X87375057Y-159478176D01*
X86644944Y-159478176D01*
X86644942Y-159478177D01*
X86600340Y-159487048D01*
X86549767Y-159520840D01*
X86515972Y-159571418D01*
X86515971Y-159571419D01*
X86507100Y-159616018D01*
X86507100Y-160046131D01*
X86507101Y-160046133D01*
X86515972Y-160090735D01*
X86549764Y-160141308D01*
X86549765Y-160141308D01*
X86549766Y-160141310D01*
X86600342Y-160175104D01*
X86644943Y-160183976D01*
X86705700Y-160183975D01*
X86754037Y-160201568D01*
X86779757Y-160246116D01*
X86780900Y-160259175D01*
X86780900Y-161557758D01*
X86763307Y-161606096D01*
X86718758Y-161631816D01*
X86705701Y-161632958D01*
X86644943Y-161632958D01*
X86644941Y-161632959D01*
X86600340Y-161641830D01*
X86549767Y-161675622D01*
X86515972Y-161726200D01*
X86515971Y-161726201D01*
X86507100Y-161770800D01*
X86507100Y-162200913D01*
X86233000Y-162200913D01*
X86233000Y-158446131D01*
X86507100Y-158446131D01*
X86507101Y-158446133D01*
X86515972Y-158490735D01*
X86549764Y-158541308D01*
X86549765Y-158541308D01*
X86549766Y-158541310D01*
X86600342Y-158575104D01*
X86644943Y-158583976D01*
X87375056Y-158583975D01*
X87419658Y-158575104D01*
X87470234Y-158541310D01*
X87504028Y-158490734D01*
X87512900Y-158446133D01*
X87512899Y-158016020D01*
X87504028Y-157971418D01*
X87470234Y-157920842D01*
X87419658Y-157887048D01*
X87419656Y-157887047D01*
X87375057Y-157878176D01*
X87314300Y-157878176D01*
X87265962Y-157860583D01*
X87240242Y-157816034D01*
X87239100Y-157802976D01*
X87239100Y-156504393D01*
X87256693Y-156456055D01*
X87301242Y-156430335D01*
X87314300Y-156429193D01*
X87375056Y-156429193D01*
X87419658Y-156420322D01*
X87470234Y-156386528D01*
X87504028Y-156335952D01*
X87512900Y-156291351D01*
X87512899Y-155861238D01*
X87504028Y-155816636D01*
X87470234Y-155766060D01*
X87419658Y-155732266D01*
X87419656Y-155732265D01*
X87375057Y-155723394D01*
X86644944Y-155723394D01*
X86644942Y-155723395D01*
X86600340Y-155732266D01*
X86549767Y-155766058D01*
X86515972Y-155816636D01*
X86515971Y-155816637D01*
X86507100Y-155861236D01*
X86507100Y-156291349D01*
X86507101Y-156291351D01*
X86515972Y-156335953D01*
X86549764Y-156386526D01*
X86549765Y-156386526D01*
X86549766Y-156386528D01*
X86600342Y-156420322D01*
X86644943Y-156429194D01*
X86705700Y-156429193D01*
X86754037Y-156446786D01*
X86779757Y-156491334D01*
X86780900Y-156504393D01*
X86780900Y-157802976D01*
X86763307Y-157851314D01*
X86718758Y-157877034D01*
X86705701Y-157878176D01*
X86644943Y-157878176D01*
X86644941Y-157878177D01*
X86600340Y-157887048D01*
X86549767Y-157920840D01*
X86515972Y-157971418D01*
X86515971Y-157971419D01*
X86507100Y-158016018D01*
X86507100Y-158446131D01*
X86233000Y-158446131D01*
X86233000Y-154691349D01*
X86507100Y-154691349D01*
X86507101Y-154691351D01*
X86515972Y-154735953D01*
X86549764Y-154786526D01*
X86549765Y-154786526D01*
X86549766Y-154786528D01*
X86600342Y-154820322D01*
X86644943Y-154829194D01*
X87375056Y-154829193D01*
X87419658Y-154820322D01*
X87470234Y-154786528D01*
X87504028Y-154735952D01*
X87512900Y-154691351D01*
X87512899Y-154261238D01*
X87504028Y-154216636D01*
X87470234Y-154166060D01*
X87419658Y-154132266D01*
X87419656Y-154132265D01*
X87375057Y-154123394D01*
X87314300Y-154123394D01*
X87265962Y-154105801D01*
X87240242Y-154061252D01*
X87239100Y-154048194D01*
X87239100Y-152749611D01*
X87256693Y-152701273D01*
X87301242Y-152675553D01*
X87314300Y-152674411D01*
X87375056Y-152674411D01*
X87419658Y-152665540D01*
X87470234Y-152631746D01*
X87504028Y-152581170D01*
X87512900Y-152536569D01*
X87512899Y-152106456D01*
X87504028Y-152061854D01*
X87470234Y-152011278D01*
X87419658Y-151977484D01*
X87419656Y-151977483D01*
X87375057Y-151968612D01*
X86644944Y-151968612D01*
X86644942Y-151968613D01*
X86600340Y-151977484D01*
X86549767Y-152011276D01*
X86515972Y-152061854D01*
X86515971Y-152061855D01*
X86507100Y-152106454D01*
X86507100Y-152536567D01*
X86507101Y-152536569D01*
X86515972Y-152581171D01*
X86549764Y-152631744D01*
X86549765Y-152631744D01*
X86549766Y-152631746D01*
X86600342Y-152665540D01*
X86644943Y-152674412D01*
X86705700Y-152674411D01*
X86754037Y-152692004D01*
X86779757Y-152736552D01*
X86780900Y-152749611D01*
X86780900Y-154048194D01*
X86763307Y-154096532D01*
X86718758Y-154122252D01*
X86705701Y-154123394D01*
X86644943Y-154123394D01*
X86644941Y-154123395D01*
X86600340Y-154132266D01*
X86549767Y-154166058D01*
X86515972Y-154216636D01*
X86515971Y-154216637D01*
X86507100Y-154261236D01*
X86507100Y-154691349D01*
X86233000Y-154691349D01*
X86233000Y-150936567D01*
X86507100Y-150936567D01*
X86507101Y-150936569D01*
X86515972Y-150981171D01*
X86549764Y-151031744D01*
X86549765Y-151031744D01*
X86549766Y-151031746D01*
X86600342Y-151065540D01*
X86644943Y-151074412D01*
X87375056Y-151074411D01*
X87419658Y-151065540D01*
X87470234Y-151031746D01*
X87504028Y-150981170D01*
X87512900Y-150936569D01*
X87512899Y-150506456D01*
X87504028Y-150461854D01*
X87470234Y-150411278D01*
X87419658Y-150377484D01*
X87419656Y-150377483D01*
X87375057Y-150368612D01*
X87314300Y-150368612D01*
X87265962Y-150351019D01*
X87240242Y-150306470D01*
X87239100Y-150293412D01*
X87239100Y-148994829D01*
X87256693Y-148946491D01*
X87301242Y-148920771D01*
X87314300Y-148919629D01*
X87375056Y-148919629D01*
X87419658Y-148910758D01*
X87470234Y-148876964D01*
X87504028Y-148826388D01*
X87512900Y-148781787D01*
X87512899Y-148351674D01*
X87504028Y-148307072D01*
X87470234Y-148256496D01*
X87419658Y-148222702D01*
X87419656Y-148222701D01*
X87375057Y-148213830D01*
X86644944Y-148213830D01*
X86644942Y-148213831D01*
X86600340Y-148222702D01*
X86549767Y-148256494D01*
X86515972Y-148307072D01*
X86515971Y-148307073D01*
X86507100Y-148351672D01*
X86507100Y-148781785D01*
X86507101Y-148781787D01*
X86515972Y-148826389D01*
X86549764Y-148876962D01*
X86549765Y-148876962D01*
X86549766Y-148876964D01*
X86600342Y-148910758D01*
X86644943Y-148919630D01*
X86705700Y-148919629D01*
X86754037Y-148937222D01*
X86779757Y-148981770D01*
X86780900Y-148994829D01*
X86780900Y-150293412D01*
X86763307Y-150341750D01*
X86718758Y-150367470D01*
X86705701Y-150368612D01*
X86644943Y-150368612D01*
X86644941Y-150368613D01*
X86600340Y-150377484D01*
X86549767Y-150411276D01*
X86515972Y-150461854D01*
X86515971Y-150461855D01*
X86507100Y-150506454D01*
X86507100Y-150936567D01*
X86233000Y-150936567D01*
X86233000Y-147181785D01*
X86507100Y-147181785D01*
X86507101Y-147181787D01*
X86515972Y-147226389D01*
X86549764Y-147276962D01*
X86549765Y-147276962D01*
X86549766Y-147276964D01*
X86600342Y-147310758D01*
X86644943Y-147319630D01*
X87375056Y-147319629D01*
X87419658Y-147310758D01*
X87470234Y-147276964D01*
X87504028Y-147226388D01*
X87512900Y-147181787D01*
X87512899Y-146751674D01*
X87504028Y-146707072D01*
X87470234Y-146656496D01*
X87419658Y-146622702D01*
X87419656Y-146622701D01*
X87375057Y-146613830D01*
X87314300Y-146613830D01*
X87265962Y-146596237D01*
X87240242Y-146551688D01*
X87239100Y-146538630D01*
X87239100Y-145240047D01*
X87256693Y-145191709D01*
X87301242Y-145165989D01*
X87314300Y-145164847D01*
X87375056Y-145164847D01*
X87419658Y-145155976D01*
X87470234Y-145122182D01*
X87504028Y-145071606D01*
X87512900Y-145027005D01*
X87512899Y-144596892D01*
X87504028Y-144552290D01*
X87470234Y-144501714D01*
X87419658Y-144467920D01*
X87419656Y-144467919D01*
X87375057Y-144459048D01*
X86644944Y-144459048D01*
X86644942Y-144459049D01*
X86600340Y-144467920D01*
X86549767Y-144501712D01*
X86515972Y-144552290D01*
X86515971Y-144552291D01*
X86507100Y-144596890D01*
X86507100Y-145027003D01*
X86507101Y-145027005D01*
X86515972Y-145071607D01*
X86549764Y-145122180D01*
X86549765Y-145122180D01*
X86549766Y-145122182D01*
X86600342Y-145155976D01*
X86644943Y-145164848D01*
X86705700Y-145164847D01*
X86754037Y-145182440D01*
X86779757Y-145226988D01*
X86780900Y-145240047D01*
X86780900Y-146538630D01*
X86763307Y-146586968D01*
X86718758Y-146612688D01*
X86705701Y-146613830D01*
X86644943Y-146613830D01*
X86644941Y-146613831D01*
X86600340Y-146622702D01*
X86549767Y-146656494D01*
X86515972Y-146707072D01*
X86515971Y-146707073D01*
X86507100Y-146751672D01*
X86507100Y-147181785D01*
X86233000Y-147181785D01*
X86233000Y-143427003D01*
X86507100Y-143427003D01*
X86507101Y-143427005D01*
X86515972Y-143471607D01*
X86549764Y-143522180D01*
X86549765Y-143522180D01*
X86549766Y-143522182D01*
X86600342Y-143555976D01*
X86644943Y-143564848D01*
X87375056Y-143564847D01*
X87419658Y-143555976D01*
X87470234Y-143522182D01*
X87504028Y-143471606D01*
X87512900Y-143427005D01*
X87512899Y-142996892D01*
X87504028Y-142952290D01*
X87470234Y-142901714D01*
X87419658Y-142867920D01*
X87419656Y-142867919D01*
X87375057Y-142859048D01*
X87314300Y-142859048D01*
X87265962Y-142841455D01*
X87240242Y-142796906D01*
X87239100Y-142783848D01*
X87239100Y-141485265D01*
X87256693Y-141436927D01*
X87301242Y-141411207D01*
X87314300Y-141410065D01*
X87375056Y-141410065D01*
X87419658Y-141401194D01*
X87470234Y-141367400D01*
X87504028Y-141316824D01*
X87512900Y-141272223D01*
X87512899Y-140842110D01*
X87504028Y-140797508D01*
X87470234Y-140746932D01*
X87419658Y-140713138D01*
X87419656Y-140713137D01*
X87375057Y-140704266D01*
X86644944Y-140704266D01*
X86644942Y-140704267D01*
X86600340Y-140713138D01*
X86549767Y-140746930D01*
X86515972Y-140797508D01*
X86515971Y-140797509D01*
X86507100Y-140842108D01*
X86507100Y-141272221D01*
X86507101Y-141272223D01*
X86515972Y-141316825D01*
X86549764Y-141367398D01*
X86549765Y-141367398D01*
X86549766Y-141367400D01*
X86600342Y-141401194D01*
X86644943Y-141410066D01*
X86705700Y-141410065D01*
X86754037Y-141427658D01*
X86779757Y-141472206D01*
X86780900Y-141485265D01*
X86780900Y-142783848D01*
X86763307Y-142832186D01*
X86718758Y-142857906D01*
X86705701Y-142859048D01*
X86644943Y-142859048D01*
X86644941Y-142859049D01*
X86600340Y-142867920D01*
X86549767Y-142901712D01*
X86515972Y-142952290D01*
X86515971Y-142952291D01*
X86507100Y-142996890D01*
X86507100Y-143427003D01*
X86233000Y-143427003D01*
X86233000Y-139672221D01*
X86507100Y-139672221D01*
X86507101Y-139672223D01*
X86515972Y-139716825D01*
X86549764Y-139767398D01*
X86549765Y-139767398D01*
X86549766Y-139767400D01*
X86600342Y-139801194D01*
X86644943Y-139810066D01*
X87375056Y-139810065D01*
X87419658Y-139801194D01*
X87470234Y-139767400D01*
X87504028Y-139716824D01*
X87512900Y-139672223D01*
X87512899Y-139242110D01*
X87504028Y-139197508D01*
X87470234Y-139146932D01*
X87419658Y-139113138D01*
X87419656Y-139113137D01*
X87375057Y-139104266D01*
X87314300Y-139104266D01*
X87265962Y-139086673D01*
X87240242Y-139042124D01*
X87239100Y-139029066D01*
X87239100Y-137730483D01*
X87256693Y-137682145D01*
X87301242Y-137656425D01*
X87314300Y-137655283D01*
X87375056Y-137655283D01*
X87419658Y-137646412D01*
X87470234Y-137612618D01*
X87504028Y-137562042D01*
X87512900Y-137517441D01*
X87512899Y-137087328D01*
X87504028Y-137042726D01*
X87470234Y-136992150D01*
X87419658Y-136958356D01*
X87419656Y-136958355D01*
X87375057Y-136949484D01*
X86644944Y-136949484D01*
X86644942Y-136949485D01*
X86600340Y-136958356D01*
X86549767Y-136992148D01*
X86515972Y-137042726D01*
X86515971Y-137042727D01*
X86507100Y-137087326D01*
X86507100Y-137517439D01*
X86507101Y-137517441D01*
X86515972Y-137562043D01*
X86549764Y-137612616D01*
X86549765Y-137612616D01*
X86549766Y-137612618D01*
X86600342Y-137646412D01*
X86644943Y-137655284D01*
X86705700Y-137655283D01*
X86754037Y-137672876D01*
X86779757Y-137717424D01*
X86780900Y-137730483D01*
X86780900Y-139029066D01*
X86763307Y-139077404D01*
X86718758Y-139103124D01*
X86705701Y-139104266D01*
X86644943Y-139104266D01*
X86644941Y-139104267D01*
X86600340Y-139113138D01*
X86549767Y-139146930D01*
X86515972Y-139197508D01*
X86515971Y-139197509D01*
X86507100Y-139242108D01*
X86507100Y-139672221D01*
X86233000Y-139672221D01*
X86233000Y-135917439D01*
X86507100Y-135917439D01*
X86507101Y-135917441D01*
X86515972Y-135962043D01*
X86549764Y-136012616D01*
X86549765Y-136012616D01*
X86549766Y-136012618D01*
X86600342Y-136046412D01*
X86644943Y-136055284D01*
X87375056Y-136055283D01*
X87419658Y-136046412D01*
X87470234Y-136012618D01*
X87504028Y-135962042D01*
X87512900Y-135917441D01*
X87512899Y-135487328D01*
X87504028Y-135442726D01*
X87470234Y-135392150D01*
X87419658Y-135358356D01*
X87419656Y-135358355D01*
X87375057Y-135349484D01*
X87314300Y-135349484D01*
X87265962Y-135331891D01*
X87240242Y-135287342D01*
X87239100Y-135274284D01*
X87239100Y-133975701D01*
X87256693Y-133927363D01*
X87301242Y-133901643D01*
X87314300Y-133900501D01*
X87375056Y-133900501D01*
X87419658Y-133891630D01*
X87470234Y-133857836D01*
X87504028Y-133807260D01*
X87512900Y-133762659D01*
X87512899Y-133332546D01*
X87504028Y-133287944D01*
X87470234Y-133237368D01*
X87419658Y-133203574D01*
X87419656Y-133203573D01*
X87375057Y-133194702D01*
X86644944Y-133194702D01*
X86644942Y-133194703D01*
X86600340Y-133203574D01*
X86549767Y-133237366D01*
X86515972Y-133287944D01*
X86515971Y-133287945D01*
X86507100Y-133332544D01*
X86507100Y-133762657D01*
X86507101Y-133762659D01*
X86515972Y-133807261D01*
X86549764Y-133857834D01*
X86549765Y-133857834D01*
X86549766Y-133857836D01*
X86600342Y-133891630D01*
X86644943Y-133900502D01*
X86705700Y-133900501D01*
X86754037Y-133918094D01*
X86779757Y-133962642D01*
X86780900Y-133975701D01*
X86780900Y-135274284D01*
X86763307Y-135322622D01*
X86718758Y-135348342D01*
X86705701Y-135349484D01*
X86644943Y-135349484D01*
X86644941Y-135349485D01*
X86600340Y-135358356D01*
X86549767Y-135392148D01*
X86515972Y-135442726D01*
X86515971Y-135442727D01*
X86507100Y-135487326D01*
X86507100Y-135917439D01*
X86233000Y-135917439D01*
X86233000Y-132162657D01*
X86507100Y-132162657D01*
X86507101Y-132162659D01*
X86515972Y-132207261D01*
X86549764Y-132257834D01*
X86549765Y-132257834D01*
X86549766Y-132257836D01*
X86600342Y-132291630D01*
X86644943Y-132300502D01*
X87375056Y-132300501D01*
X87419658Y-132291630D01*
X87470234Y-132257836D01*
X87504028Y-132207260D01*
X87512900Y-132162659D01*
X87512899Y-131732546D01*
X87504028Y-131687944D01*
X87470234Y-131637368D01*
X87419658Y-131603574D01*
X87419656Y-131603573D01*
X87375057Y-131594702D01*
X87314300Y-131594702D01*
X87265962Y-131577109D01*
X87240242Y-131532560D01*
X87239100Y-131519502D01*
X87239100Y-130220919D01*
X87256693Y-130172581D01*
X87301242Y-130146861D01*
X87314300Y-130145719D01*
X87375056Y-130145719D01*
X87419658Y-130136848D01*
X87470234Y-130103054D01*
X87504028Y-130052478D01*
X87512900Y-130007877D01*
X87512899Y-129577764D01*
X87504028Y-129533162D01*
X87470234Y-129482586D01*
X87419658Y-129448792D01*
X87419656Y-129448791D01*
X87375057Y-129439920D01*
X86644944Y-129439920D01*
X86644942Y-129439921D01*
X86600340Y-129448792D01*
X86549767Y-129482584D01*
X86515972Y-129533162D01*
X86515971Y-129533163D01*
X86507100Y-129577762D01*
X86507100Y-130007875D01*
X86507101Y-130007877D01*
X86515972Y-130052479D01*
X86549764Y-130103052D01*
X86549765Y-130103052D01*
X86549766Y-130103054D01*
X86600342Y-130136848D01*
X86644943Y-130145720D01*
X86705700Y-130145719D01*
X86754037Y-130163312D01*
X86779757Y-130207860D01*
X86780900Y-130220919D01*
X86780900Y-131519502D01*
X86763307Y-131567840D01*
X86718758Y-131593560D01*
X86705701Y-131594702D01*
X86644943Y-131594702D01*
X86644941Y-131594703D01*
X86600340Y-131603574D01*
X86549767Y-131637366D01*
X86515972Y-131687944D01*
X86515971Y-131687945D01*
X86507100Y-131732544D01*
X86507100Y-132162657D01*
X86233000Y-132162657D01*
X86233000Y-128407875D01*
X86507100Y-128407875D01*
X86507101Y-128407877D01*
X86515972Y-128452479D01*
X86549764Y-128503052D01*
X86549765Y-128503052D01*
X86549766Y-128503054D01*
X86600342Y-128536848D01*
X86644943Y-128545720D01*
X87375056Y-128545719D01*
X87419658Y-128536848D01*
X87470234Y-128503054D01*
X87504028Y-128452478D01*
X87512900Y-128407877D01*
X87512899Y-127977764D01*
X87504028Y-127933162D01*
X87470234Y-127882586D01*
X87419658Y-127848792D01*
X87419656Y-127848791D01*
X87375057Y-127839920D01*
X87314300Y-127839920D01*
X87265962Y-127822327D01*
X87240242Y-127777778D01*
X87239100Y-127764720D01*
X87239100Y-126466137D01*
X87256693Y-126417799D01*
X87301242Y-126392079D01*
X87314300Y-126390937D01*
X87375056Y-126390937D01*
X87419658Y-126382066D01*
X87470234Y-126348272D01*
X87504028Y-126297696D01*
X87512900Y-126253095D01*
X87512899Y-125822982D01*
X87504028Y-125778380D01*
X87470234Y-125727804D01*
X87419658Y-125694010D01*
X87419656Y-125694009D01*
X87375057Y-125685138D01*
X86644944Y-125685138D01*
X86644942Y-125685139D01*
X86600340Y-125694010D01*
X86549767Y-125727802D01*
X86515972Y-125778380D01*
X86515971Y-125778381D01*
X86507100Y-125822980D01*
X86507100Y-126253093D01*
X86507101Y-126253095D01*
X86515972Y-126297697D01*
X86549764Y-126348270D01*
X86549765Y-126348270D01*
X86549766Y-126348272D01*
X86600342Y-126382066D01*
X86644943Y-126390938D01*
X86705700Y-126390937D01*
X86754037Y-126408530D01*
X86779757Y-126453078D01*
X86780900Y-126466137D01*
X86780900Y-127764720D01*
X86763307Y-127813058D01*
X86718758Y-127838778D01*
X86705701Y-127839920D01*
X86644943Y-127839920D01*
X86644941Y-127839921D01*
X86600340Y-127848792D01*
X86549767Y-127882584D01*
X86515972Y-127933162D01*
X86515971Y-127933163D01*
X86507100Y-127977762D01*
X86507100Y-128407875D01*
X86233000Y-128407875D01*
X86233000Y-124653093D01*
X86507100Y-124653093D01*
X86507101Y-124653095D01*
X86515972Y-124697697D01*
X86549764Y-124748270D01*
X86549765Y-124748270D01*
X86549766Y-124748272D01*
X86600342Y-124782066D01*
X86644943Y-124790938D01*
X87375056Y-124790937D01*
X87419658Y-124782066D01*
X87470234Y-124748272D01*
X87504028Y-124697696D01*
X87512900Y-124653095D01*
X87512899Y-124222982D01*
X87504028Y-124178380D01*
X87470234Y-124127804D01*
X87419658Y-124094010D01*
X87419656Y-124094009D01*
X87375057Y-124085138D01*
X87314300Y-124085138D01*
X87265962Y-124067545D01*
X87240242Y-124022996D01*
X87239100Y-124009938D01*
X87239100Y-122711355D01*
X87256693Y-122663017D01*
X87301242Y-122637297D01*
X87314300Y-122636155D01*
X87375056Y-122636155D01*
X87419658Y-122627284D01*
X87470234Y-122593490D01*
X87504028Y-122542914D01*
X87512900Y-122498313D01*
X87512899Y-122068200D01*
X87504028Y-122023598D01*
X87470234Y-121973022D01*
X87419658Y-121939228D01*
X87419656Y-121939227D01*
X87375057Y-121930356D01*
X86644944Y-121930356D01*
X86644942Y-121930357D01*
X86600340Y-121939228D01*
X86549767Y-121973020D01*
X86515972Y-122023598D01*
X86515971Y-122023599D01*
X86507100Y-122068198D01*
X86507100Y-122498311D01*
X86507101Y-122498313D01*
X86515972Y-122542915D01*
X86549764Y-122593488D01*
X86549765Y-122593488D01*
X86549766Y-122593490D01*
X86600342Y-122627284D01*
X86644943Y-122636156D01*
X86705700Y-122636155D01*
X86754037Y-122653748D01*
X86779757Y-122698296D01*
X86780900Y-122711355D01*
X86780900Y-124009938D01*
X86763307Y-124058276D01*
X86718758Y-124083996D01*
X86705701Y-124085138D01*
X86644943Y-124085138D01*
X86644941Y-124085139D01*
X86600340Y-124094010D01*
X86549767Y-124127802D01*
X86515972Y-124178380D01*
X86515971Y-124178381D01*
X86507100Y-124222980D01*
X86507100Y-124653093D01*
X86233000Y-124653093D01*
X86233000Y-120898311D01*
X86507100Y-120898311D01*
X86507101Y-120898313D01*
X86515972Y-120942915D01*
X86549764Y-120993488D01*
X86549765Y-120993488D01*
X86549766Y-120993490D01*
X86600342Y-121027284D01*
X86644943Y-121036156D01*
X87375056Y-121036155D01*
X87419658Y-121027284D01*
X87470234Y-120993490D01*
X87504028Y-120942914D01*
X87512900Y-120898313D01*
X87512899Y-120468200D01*
X87504028Y-120423598D01*
X87470234Y-120373022D01*
X87419658Y-120339228D01*
X87419656Y-120339227D01*
X87375057Y-120330356D01*
X87314300Y-120330356D01*
X87265962Y-120312763D01*
X87240242Y-120268214D01*
X87239100Y-120255156D01*
X87239100Y-118956573D01*
X87256693Y-118908235D01*
X87301242Y-118882515D01*
X87314300Y-118881373D01*
X87375056Y-118881373D01*
X87419658Y-118872502D01*
X87470234Y-118838708D01*
X87504028Y-118788132D01*
X87512900Y-118743531D01*
X87512899Y-118313418D01*
X87504028Y-118268816D01*
X87470234Y-118218240D01*
X87419658Y-118184446D01*
X87419656Y-118184445D01*
X87375057Y-118175574D01*
X86644944Y-118175574D01*
X86644942Y-118175575D01*
X86600340Y-118184446D01*
X86549767Y-118218238D01*
X86515972Y-118268816D01*
X86515971Y-118268817D01*
X86507100Y-118313416D01*
X86507100Y-118743529D01*
X86507101Y-118743531D01*
X86515972Y-118788133D01*
X86549764Y-118838706D01*
X86549765Y-118838706D01*
X86549766Y-118838708D01*
X86600342Y-118872502D01*
X86644943Y-118881374D01*
X86705700Y-118881373D01*
X86754037Y-118898966D01*
X86779757Y-118943514D01*
X86780900Y-118956573D01*
X86780900Y-120255156D01*
X86763307Y-120303494D01*
X86718758Y-120329214D01*
X86705701Y-120330356D01*
X86644943Y-120330356D01*
X86644941Y-120330357D01*
X86600340Y-120339228D01*
X86549767Y-120373020D01*
X86515972Y-120423598D01*
X86515971Y-120423599D01*
X86507100Y-120468198D01*
X86507100Y-120898311D01*
X86233000Y-120898311D01*
X86233000Y-117143529D01*
X86507100Y-117143529D01*
X86507101Y-117143531D01*
X86515972Y-117188133D01*
X86549764Y-117238706D01*
X86549765Y-117238706D01*
X86549766Y-117238708D01*
X86600342Y-117272502D01*
X86644943Y-117281374D01*
X87375056Y-117281373D01*
X87419658Y-117272502D01*
X87470234Y-117238708D01*
X87504028Y-117188132D01*
X87512900Y-117143531D01*
X87512899Y-116713418D01*
X87504028Y-116668816D01*
X87470234Y-116618240D01*
X87419658Y-116584446D01*
X87419656Y-116584445D01*
X87375057Y-116575574D01*
X87314300Y-116575574D01*
X87265962Y-116557981D01*
X87240242Y-116513432D01*
X87239100Y-116500374D01*
X87239100Y-115201791D01*
X87256693Y-115153453D01*
X87301242Y-115127733D01*
X87314300Y-115126591D01*
X87375056Y-115126591D01*
X87419658Y-115117720D01*
X87470234Y-115083926D01*
X87504028Y-115033350D01*
X87512900Y-114988749D01*
X87512899Y-114558636D01*
X87504028Y-114514034D01*
X87470234Y-114463458D01*
X87419658Y-114429664D01*
X87419656Y-114429663D01*
X87375057Y-114420792D01*
X86644944Y-114420792D01*
X86644942Y-114420793D01*
X86600340Y-114429664D01*
X86549767Y-114463456D01*
X86515972Y-114514034D01*
X86515971Y-114514035D01*
X86507100Y-114558634D01*
X86507100Y-114988747D01*
X86507101Y-114988749D01*
X86515972Y-115033351D01*
X86549764Y-115083924D01*
X86549765Y-115083924D01*
X86549766Y-115083926D01*
X86600342Y-115117720D01*
X86644943Y-115126592D01*
X86705700Y-115126591D01*
X86754037Y-115144184D01*
X86779757Y-115188732D01*
X86780900Y-115201791D01*
X86780900Y-116500374D01*
X86763307Y-116548712D01*
X86718758Y-116574432D01*
X86705701Y-116575574D01*
X86644943Y-116575574D01*
X86644941Y-116575575D01*
X86600340Y-116584446D01*
X86549767Y-116618238D01*
X86515972Y-116668816D01*
X86515971Y-116668817D01*
X86507100Y-116713416D01*
X86507100Y-117143529D01*
X86233000Y-117143529D01*
X86233000Y-113388747D01*
X86507100Y-113388747D01*
X86507101Y-113388749D01*
X86515972Y-113433351D01*
X86549764Y-113483924D01*
X86549765Y-113483924D01*
X86549766Y-113483926D01*
X86600342Y-113517720D01*
X86644943Y-113526592D01*
X87375056Y-113526591D01*
X87419658Y-113517720D01*
X87470234Y-113483926D01*
X87504028Y-113433350D01*
X87512900Y-113388749D01*
X87512899Y-112958636D01*
X87504028Y-112914034D01*
X87470234Y-112863458D01*
X87419658Y-112829664D01*
X87419656Y-112829663D01*
X87375057Y-112820792D01*
X87314311Y-112820792D01*
X87265973Y-112803199D01*
X87240253Y-112758650D01*
X87239111Y-112745592D01*
X87239111Y-111447003D01*
X87256704Y-111398665D01*
X87301253Y-111372945D01*
X87314311Y-111371803D01*
X87375067Y-111371803D01*
X87419669Y-111362932D01*
X87470245Y-111329138D01*
X87504039Y-111278562D01*
X87512911Y-111233961D01*
X87512910Y-110803848D01*
X87504039Y-110759246D01*
X87470245Y-110708670D01*
X87419669Y-110674876D01*
X87419667Y-110674875D01*
X87375068Y-110666004D01*
X86644955Y-110666004D01*
X86644953Y-110666005D01*
X86600351Y-110674876D01*
X86549778Y-110708668D01*
X86515983Y-110759246D01*
X86515982Y-110759247D01*
X86507111Y-110803846D01*
X86507111Y-111233959D01*
X86507112Y-111233961D01*
X86515983Y-111278563D01*
X86549775Y-111329136D01*
X86549776Y-111329136D01*
X86549777Y-111329138D01*
X86600353Y-111362932D01*
X86644954Y-111371804D01*
X86705711Y-111371803D01*
X86754048Y-111389396D01*
X86779768Y-111433944D01*
X86780911Y-111447003D01*
X86780911Y-112745592D01*
X86763318Y-112793930D01*
X86718769Y-112819650D01*
X86705712Y-112820792D01*
X86644943Y-112820792D01*
X86644941Y-112820793D01*
X86600340Y-112829664D01*
X86549767Y-112863456D01*
X86515972Y-112914034D01*
X86515971Y-112914035D01*
X86507100Y-112958634D01*
X86507100Y-113388747D01*
X86233000Y-113388747D01*
X86233000Y-109633959D01*
X86507111Y-109633959D01*
X86507112Y-109633961D01*
X86515983Y-109678563D01*
X86549775Y-109729136D01*
X86549776Y-109729136D01*
X86549777Y-109729138D01*
X86600353Y-109762932D01*
X86644954Y-109771804D01*
X87375067Y-109771803D01*
X87419669Y-109762932D01*
X87470245Y-109729138D01*
X87504039Y-109678562D01*
X87512911Y-109633961D01*
X87512910Y-109203848D01*
X87504039Y-109159246D01*
X87470245Y-109108670D01*
X87419669Y-109074876D01*
X87419667Y-109074875D01*
X87375068Y-109066004D01*
X87314311Y-109066004D01*
X87265973Y-109048411D01*
X87240253Y-109003862D01*
X87239111Y-108990804D01*
X87239111Y-107692223D01*
X87256704Y-107643885D01*
X87301253Y-107618165D01*
X87314311Y-107617023D01*
X87375067Y-107617023D01*
X87419669Y-107608152D01*
X87470245Y-107574358D01*
X87504039Y-107523782D01*
X87512911Y-107479181D01*
X87512910Y-107049068D01*
X87504039Y-107004466D01*
X87470245Y-106953890D01*
X87419669Y-106920096D01*
X87419667Y-106920095D01*
X87375068Y-106911224D01*
X86644955Y-106911224D01*
X86644953Y-106911225D01*
X86600351Y-106920096D01*
X86549778Y-106953888D01*
X86515983Y-107004466D01*
X86515982Y-107004467D01*
X86507111Y-107049066D01*
X86507111Y-107479179D01*
X86507112Y-107479181D01*
X86515983Y-107523783D01*
X86549775Y-107574356D01*
X86549776Y-107574356D01*
X86549777Y-107574358D01*
X86600353Y-107608152D01*
X86644954Y-107617024D01*
X86705711Y-107617023D01*
X86754048Y-107634616D01*
X86779768Y-107679164D01*
X86780911Y-107692223D01*
X86780911Y-108990804D01*
X86763318Y-109039142D01*
X86718769Y-109064862D01*
X86705712Y-109066004D01*
X86644954Y-109066004D01*
X86644952Y-109066005D01*
X86600351Y-109074876D01*
X86549778Y-109108668D01*
X86515983Y-109159246D01*
X86515982Y-109159247D01*
X86507111Y-109203846D01*
X86507111Y-109633959D01*
X86233000Y-109633959D01*
X86233000Y-103724401D01*
X86507100Y-103724401D01*
X86507101Y-103724403D01*
X86515972Y-103769005D01*
X86549764Y-103819578D01*
X86549765Y-103819578D01*
X86549766Y-103819580D01*
X86600342Y-103853374D01*
X86644943Y-103862246D01*
X86705700Y-103862245D01*
X86754037Y-103879838D01*
X86779757Y-103924386D01*
X86780900Y-103937445D01*
X86780900Y-105236024D01*
X86763307Y-105284362D01*
X86718758Y-105310082D01*
X86705701Y-105311224D01*
X86644954Y-105311224D01*
X86644952Y-105311225D01*
X86600351Y-105320096D01*
X86549778Y-105353888D01*
X86515983Y-105404466D01*
X86515982Y-105404467D01*
X86507111Y-105449066D01*
X86507111Y-105879179D01*
X86507112Y-105879181D01*
X86515983Y-105923783D01*
X86549775Y-105974356D01*
X86549776Y-105974356D01*
X86549777Y-105974358D01*
X86600353Y-106008152D01*
X86644954Y-106017024D01*
X87375067Y-106017023D01*
X87419669Y-106008152D01*
X87470245Y-105974358D01*
X87504039Y-105923782D01*
X87512911Y-105879181D01*
X87512910Y-105449068D01*
X87504039Y-105404466D01*
X87470245Y-105353890D01*
X87419669Y-105320096D01*
X87419667Y-105320095D01*
X87375068Y-105311224D01*
X87314300Y-105311224D01*
X87265962Y-105293631D01*
X87240242Y-105249082D01*
X87239100Y-105236024D01*
X87239100Y-103937445D01*
X87256693Y-103889107D01*
X87301242Y-103863387D01*
X87314300Y-103862245D01*
X87375056Y-103862245D01*
X87419658Y-103853374D01*
X87470234Y-103819580D01*
X87504028Y-103769004D01*
X87512900Y-103724403D01*
X87512899Y-103294290D01*
X87504028Y-103249688D01*
X87470234Y-103199112D01*
X87419658Y-103165318D01*
X87419656Y-103165317D01*
X87375057Y-103156446D01*
X86644944Y-103156446D01*
X86644942Y-103156447D01*
X86600340Y-103165318D01*
X86549767Y-103199110D01*
X86515972Y-103249688D01*
X86515971Y-103249689D01*
X86507100Y-103294288D01*
X86507100Y-103724401D01*
X86233000Y-103724401D01*
X86233000Y-102124401D01*
X86507100Y-102124401D01*
X86507101Y-102124403D01*
X86515972Y-102169005D01*
X86549764Y-102219578D01*
X86549765Y-102219578D01*
X86549766Y-102219580D01*
X86600342Y-102253374D01*
X86644943Y-102262246D01*
X87375056Y-102262245D01*
X87419658Y-102253374D01*
X87470234Y-102219580D01*
X87504028Y-102169004D01*
X87512900Y-102124403D01*
X87512899Y-101694290D01*
X87504028Y-101649688D01*
X87470234Y-101599112D01*
X87419658Y-101565318D01*
X87419656Y-101565317D01*
X87375057Y-101556446D01*
X87314300Y-101556446D01*
X87265962Y-101538853D01*
X87240242Y-101494304D01*
X87239100Y-101481246D01*
X87239100Y-100182663D01*
X87256693Y-100134325D01*
X87301242Y-100108605D01*
X87314300Y-100107463D01*
X87375056Y-100107463D01*
X87419658Y-100098592D01*
X87470234Y-100064798D01*
X87504028Y-100014222D01*
X87512900Y-99969621D01*
X87512899Y-99539508D01*
X87504028Y-99494906D01*
X87470234Y-99444330D01*
X87419658Y-99410536D01*
X87419656Y-99410535D01*
X87375057Y-99401664D01*
X86644944Y-99401664D01*
X86644942Y-99401665D01*
X86600340Y-99410536D01*
X86549767Y-99444328D01*
X86515972Y-99494906D01*
X86515971Y-99494907D01*
X86507100Y-99539506D01*
X86507100Y-99969619D01*
X86507101Y-99969621D01*
X86515972Y-100014223D01*
X86549764Y-100064796D01*
X86549765Y-100064796D01*
X86549766Y-100064798D01*
X86600342Y-100098592D01*
X86644943Y-100107464D01*
X86705700Y-100107463D01*
X86754037Y-100125056D01*
X86779757Y-100169604D01*
X86780900Y-100182663D01*
X86780900Y-101481246D01*
X86763307Y-101529584D01*
X86718758Y-101555304D01*
X86705701Y-101556446D01*
X86644943Y-101556446D01*
X86644941Y-101556447D01*
X86600340Y-101565318D01*
X86549767Y-101599110D01*
X86515972Y-101649688D01*
X86515971Y-101649689D01*
X86507100Y-101694288D01*
X86507100Y-102124401D01*
X86233000Y-102124401D01*
X86233000Y-98369619D01*
X86507100Y-98369619D01*
X86507101Y-98369621D01*
X86515972Y-98414223D01*
X86549764Y-98464796D01*
X86549765Y-98464796D01*
X86549766Y-98464798D01*
X86600342Y-98498592D01*
X86644943Y-98507464D01*
X87375056Y-98507463D01*
X87419658Y-98498592D01*
X87470234Y-98464798D01*
X87504028Y-98414222D01*
X87512900Y-98369621D01*
X87512899Y-97939508D01*
X87504028Y-97894906D01*
X87470234Y-97844330D01*
X87419658Y-97810536D01*
X87419656Y-97810535D01*
X87375057Y-97801664D01*
X87314300Y-97801664D01*
X87265962Y-97784071D01*
X87240242Y-97739522D01*
X87239100Y-97726464D01*
X87239100Y-96427881D01*
X87256693Y-96379543D01*
X87301242Y-96353823D01*
X87314300Y-96352681D01*
X87375056Y-96352681D01*
X87419658Y-96343810D01*
X87470234Y-96310016D01*
X87504028Y-96259440D01*
X87512900Y-96214839D01*
X87512899Y-95784726D01*
X87504028Y-95740124D01*
X87470234Y-95689548D01*
X87419658Y-95655754D01*
X87419656Y-95655753D01*
X87375057Y-95646882D01*
X86644944Y-95646882D01*
X86644942Y-95646883D01*
X86600340Y-95655754D01*
X86549767Y-95689546D01*
X86515972Y-95740124D01*
X86515971Y-95740125D01*
X86507100Y-95784724D01*
X86507100Y-96214837D01*
X86507101Y-96214839D01*
X86515972Y-96259441D01*
X86549764Y-96310014D01*
X86549765Y-96310014D01*
X86549766Y-96310016D01*
X86600342Y-96343810D01*
X86644943Y-96352682D01*
X86705700Y-96352681D01*
X86754037Y-96370274D01*
X86779757Y-96414822D01*
X86780900Y-96427881D01*
X86780900Y-97726464D01*
X86763307Y-97774802D01*
X86718758Y-97800522D01*
X86705701Y-97801664D01*
X86644943Y-97801664D01*
X86644941Y-97801665D01*
X86600340Y-97810536D01*
X86549767Y-97844328D01*
X86515972Y-97894906D01*
X86515971Y-97894907D01*
X86507100Y-97939506D01*
X86507100Y-98369619D01*
X86233000Y-98369619D01*
X86233000Y-94614837D01*
X86507100Y-94614837D01*
X86507101Y-94614839D01*
X86515972Y-94659441D01*
X86549764Y-94710014D01*
X86549765Y-94710014D01*
X86549766Y-94710016D01*
X86600342Y-94743810D01*
X86644943Y-94752682D01*
X87375056Y-94752681D01*
X87419658Y-94743810D01*
X87470234Y-94710016D01*
X87504028Y-94659440D01*
X87512900Y-94614839D01*
X87512899Y-94184726D01*
X87504028Y-94140124D01*
X87470234Y-94089548D01*
X87419658Y-94055754D01*
X87419656Y-94055753D01*
X87375057Y-94046882D01*
X87314300Y-94046882D01*
X87265962Y-94029289D01*
X87240242Y-93984740D01*
X87239100Y-93971682D01*
X87239100Y-92673099D01*
X87256693Y-92624761D01*
X87301242Y-92599041D01*
X87314300Y-92597899D01*
X87375056Y-92597899D01*
X87419658Y-92589028D01*
X87470234Y-92555234D01*
X87504028Y-92504658D01*
X87512900Y-92460057D01*
X87512899Y-92029944D01*
X87504028Y-91985342D01*
X87470234Y-91934766D01*
X87419658Y-91900972D01*
X87419656Y-91900971D01*
X87375057Y-91892100D01*
X86644944Y-91892100D01*
X86644942Y-91892101D01*
X86600340Y-91900972D01*
X86549767Y-91934764D01*
X86515972Y-91985342D01*
X86515971Y-91985343D01*
X86507100Y-92029942D01*
X86507100Y-92460055D01*
X86507101Y-92460057D01*
X86515972Y-92504659D01*
X86549764Y-92555232D01*
X86549765Y-92555232D01*
X86549766Y-92555234D01*
X86600342Y-92589028D01*
X86644943Y-92597900D01*
X86705700Y-92597899D01*
X86754037Y-92615492D01*
X86779757Y-92660040D01*
X86780900Y-92673099D01*
X86780900Y-93971682D01*
X86763307Y-94020020D01*
X86718758Y-94045740D01*
X86705701Y-94046882D01*
X86644943Y-94046882D01*
X86644941Y-94046883D01*
X86600340Y-94055754D01*
X86549767Y-94089546D01*
X86515972Y-94140124D01*
X86515971Y-94140125D01*
X86507100Y-94184724D01*
X86507100Y-94614837D01*
X86233000Y-94614837D01*
X86233000Y-91515743D01*
X86250593Y-91467405D01*
X86255014Y-91462580D01*
X86517089Y-91200505D01*
X86518455Y-91199208D01*
X86549486Y-91171270D01*
X86559556Y-91148650D01*
X86565176Y-91138300D01*
X86577946Y-91118638D01*
X86619030Y-91087684D01*
X86641011Y-91084400D01*
X88418400Y-91084400D01*
X88466738Y-91101993D01*
G37*
%TD.AperFunction*%
%TA.AperFunction,Conductor*%
G36*
X84353400Y-159105599D02*
G01*
X81710800Y-159105599D01*
X81662462Y-159088006D01*
X81636742Y-159043457D01*
X81635600Y-159030399D01*
X81635600Y-157936197D01*
X81653193Y-157887862D01*
X81697742Y-157862142D01*
X81710789Y-157861000D01*
X84353400Y-157860999D01*
X84353400Y-159105599D01*
G37*
%TD.AperFunction*%
%TA.AperFunction,Conductor*%
G36*
X86791800Y-33426393D02*
G01*
X86791800Y-37694598D01*
X86782919Y-37719000D01*
X85928200Y-37719000D01*
X85928200Y-33121600D01*
X86791800Y-33121600D01*
X86791800Y-33426393D01*
G37*
%TD.AperFunction*%
%TA.AperFunction,Conductor*%
G36*
X86581088Y-76877993D02*
G01*
X86606808Y-76922542D01*
X86597875Y-76973200D01*
X86580753Y-76991480D01*
X86581202Y-76991929D01*
X86575969Y-76997161D01*
X86542172Y-77047742D01*
X86542171Y-77047743D01*
X86533300Y-77092342D01*
X86533300Y-78122455D01*
X86533301Y-78122456D01*
X86542172Y-78167058D01*
X86575966Y-78217634D01*
X86580575Y-78220714D01*
X86610994Y-78262194D01*
X86614000Y-78283242D01*
X86614000Y-79757400D01*
X86233000Y-79757400D01*
X86233000Y-79553985D01*
X86245858Y-79551428D01*
X86296434Y-79517634D01*
X86330228Y-79467058D01*
X86339100Y-79422457D01*
X86339099Y-78392344D01*
X86330228Y-78347742D01*
X86330227Y-78347740D01*
X86296434Y-78297165D01*
X86266421Y-78277111D01*
X86236004Y-78235628D01*
X86233000Y-78214585D01*
X86233000Y-78105000D01*
X86233000Y-76860400D01*
X86512400Y-76860400D01*
X86532750Y-76860400D01*
X86581088Y-76877993D01*
G37*
%TD.AperFunction*%
%TA.AperFunction,Conductor*%
G36*
X83386737Y-130471992D02*
G01*
X83412457Y-130516541D01*
X83413599Y-130529599D01*
X83413599Y-132334999D01*
X83396006Y-132383337D01*
X83351457Y-132409057D01*
X83338399Y-132410199D01*
X81736202Y-132410199D01*
X81687864Y-132392606D01*
X81662144Y-132348057D01*
X81661002Y-132334999D01*
X81660998Y-130529599D01*
X81678591Y-130481261D01*
X81723139Y-130455541D01*
X81736197Y-130454399D01*
X83338401Y-130454399D01*
X83386737Y-130471992D01*
G37*
%TD.AperFunction*%
%TA.AperFunction,Conductor*%
G36*
X84353400Y-128625599D02*
G01*
X81710800Y-128625599D01*
X81662462Y-128608006D01*
X81636742Y-128563457D01*
X81635600Y-128550399D01*
X81635600Y-127456197D01*
X81653193Y-127407862D01*
X81697742Y-127382142D01*
X81710789Y-127381000D01*
X84353400Y-127380999D01*
X84353400Y-128625599D01*
G37*
%TD.AperFunction*%
%TA.AperFunction,Conductor*%
G36*
X85571138Y-91101993D02*
G01*
X85596858Y-91146542D01*
X85598000Y-91159600D01*
X85598000Y-91816900D01*
X85580407Y-91865238D01*
X85535858Y-91890958D01*
X85522800Y-91892100D01*
X85344944Y-91892100D01*
X85344942Y-91892101D01*
X85300340Y-91900972D01*
X85249767Y-91934764D01*
X85215972Y-91985342D01*
X85215971Y-91985343D01*
X85207100Y-92029942D01*
X85207100Y-92460055D01*
X85207101Y-92460057D01*
X85215972Y-92504659D01*
X85249764Y-92555232D01*
X85249765Y-92555232D01*
X85249766Y-92555234D01*
X85300342Y-92589028D01*
X85344943Y-92597900D01*
X85405700Y-92597899D01*
X85454037Y-92615492D01*
X85479757Y-92660040D01*
X85480900Y-92673099D01*
X85480900Y-93971682D01*
X85463307Y-94020020D01*
X85418758Y-94045740D01*
X85405701Y-94046882D01*
X85344943Y-94046882D01*
X85344941Y-94046883D01*
X85300340Y-94055754D01*
X85249767Y-94089546D01*
X85215972Y-94140124D01*
X85215971Y-94140125D01*
X85207100Y-94184724D01*
X85207100Y-94614837D01*
X85207101Y-94614839D01*
X85215972Y-94659441D01*
X85249764Y-94710014D01*
X85249765Y-94710014D01*
X85249766Y-94710016D01*
X85300342Y-94743810D01*
X85344943Y-94752682D01*
X85522802Y-94752681D01*
X85571137Y-94770274D01*
X85596857Y-94814822D01*
X85598000Y-94827881D01*
X85598000Y-95571682D01*
X85580407Y-95620020D01*
X85535858Y-95645740D01*
X85522800Y-95646882D01*
X85344944Y-95646882D01*
X85344942Y-95646883D01*
X85300340Y-95655754D01*
X85249767Y-95689546D01*
X85215972Y-95740124D01*
X85215971Y-95740125D01*
X85207100Y-95784724D01*
X85207100Y-96214837D01*
X85207101Y-96214839D01*
X85215972Y-96259441D01*
X85249764Y-96310014D01*
X85249765Y-96310014D01*
X85249766Y-96310016D01*
X85300342Y-96343810D01*
X85344943Y-96352682D01*
X85405700Y-96352681D01*
X85454037Y-96370274D01*
X85479757Y-96414822D01*
X85480900Y-96427881D01*
X85480900Y-97726464D01*
X85463307Y-97774802D01*
X85418758Y-97800522D01*
X85405701Y-97801664D01*
X85344943Y-97801664D01*
X85344941Y-97801665D01*
X85300340Y-97810536D01*
X85249767Y-97844328D01*
X85215972Y-97894906D01*
X85215971Y-97894907D01*
X85207100Y-97939506D01*
X85207100Y-98369619D01*
X85207101Y-98369621D01*
X85215972Y-98414223D01*
X85249764Y-98464796D01*
X85249765Y-98464796D01*
X85249766Y-98464798D01*
X85300342Y-98498592D01*
X85344943Y-98507464D01*
X85522802Y-98507463D01*
X85571137Y-98525056D01*
X85596857Y-98569604D01*
X85598000Y-98582663D01*
X85598000Y-99326464D01*
X85580407Y-99374802D01*
X85535858Y-99400522D01*
X85522800Y-99401664D01*
X85344944Y-99401664D01*
X85344942Y-99401665D01*
X85300340Y-99410536D01*
X85249767Y-99444328D01*
X85215972Y-99494906D01*
X85215971Y-99494907D01*
X85207100Y-99539506D01*
X85207100Y-99969619D01*
X85207101Y-99969621D01*
X85215972Y-100014223D01*
X85249764Y-100064796D01*
X85249765Y-100064796D01*
X85249766Y-100064798D01*
X85300342Y-100098592D01*
X85344943Y-100107464D01*
X85405700Y-100107463D01*
X85454037Y-100125056D01*
X85479757Y-100169604D01*
X85480900Y-100182663D01*
X85480900Y-101481246D01*
X85463307Y-101529584D01*
X85418758Y-101555304D01*
X85405701Y-101556446D01*
X85344943Y-101556446D01*
X85344941Y-101556447D01*
X85300340Y-101565318D01*
X85249767Y-101599110D01*
X85215972Y-101649688D01*
X85215971Y-101649689D01*
X85207100Y-101694288D01*
X85207100Y-102124401D01*
X85207101Y-102124403D01*
X85215972Y-102169005D01*
X85249764Y-102219578D01*
X85249765Y-102219578D01*
X85249766Y-102219580D01*
X85300342Y-102253374D01*
X85344943Y-102262246D01*
X85522802Y-102262245D01*
X85571137Y-102279838D01*
X85596857Y-102324386D01*
X85598000Y-102337445D01*
X85598000Y-103081246D01*
X85580407Y-103129584D01*
X85535858Y-103155304D01*
X85522800Y-103156446D01*
X85344944Y-103156446D01*
X85344942Y-103156447D01*
X85300340Y-103165318D01*
X85249767Y-103199110D01*
X85215972Y-103249688D01*
X85215971Y-103249689D01*
X85207100Y-103294288D01*
X85207100Y-103724401D01*
X85207101Y-103724403D01*
X85215972Y-103769005D01*
X85249764Y-103819578D01*
X85249765Y-103819578D01*
X85249766Y-103819580D01*
X85300342Y-103853374D01*
X85344943Y-103862246D01*
X85405700Y-103862245D01*
X85454037Y-103879838D01*
X85479757Y-103924386D01*
X85480900Y-103937445D01*
X85480900Y-105236024D01*
X85463307Y-105284362D01*
X85418758Y-105310082D01*
X85405701Y-105311224D01*
X85344954Y-105311224D01*
X85344952Y-105311225D01*
X85300351Y-105320096D01*
X85249778Y-105353888D01*
X85215983Y-105404466D01*
X85215982Y-105404467D01*
X85207111Y-105449066D01*
X85207111Y-105879179D01*
X85207112Y-105879181D01*
X85215983Y-105923783D01*
X85249775Y-105974356D01*
X85249776Y-105974356D01*
X85249777Y-105974358D01*
X85300353Y-106008152D01*
X85344954Y-106017024D01*
X85522802Y-106017023D01*
X85571137Y-106034616D01*
X85596857Y-106079164D01*
X85598000Y-106092223D01*
X85598000Y-106836024D01*
X85580407Y-106884362D01*
X85535858Y-106910082D01*
X85522800Y-106911224D01*
X85344955Y-106911224D01*
X85344953Y-106911225D01*
X85300351Y-106920096D01*
X85249778Y-106953888D01*
X85215983Y-107004466D01*
X85215982Y-107004467D01*
X85207111Y-107049066D01*
X85207111Y-107479179D01*
X85207112Y-107479181D01*
X85215983Y-107523783D01*
X85249775Y-107574356D01*
X85249776Y-107574356D01*
X85249777Y-107574358D01*
X85300353Y-107608152D01*
X85344954Y-107617024D01*
X85405711Y-107617023D01*
X85454048Y-107634616D01*
X85479768Y-107679164D01*
X85480911Y-107692223D01*
X85480911Y-108990804D01*
X85463318Y-109039142D01*
X85418769Y-109064862D01*
X85405712Y-109066004D01*
X85344954Y-109066004D01*
X85344952Y-109066005D01*
X85300351Y-109074876D01*
X85249778Y-109108668D01*
X85215983Y-109159246D01*
X85215982Y-109159247D01*
X85207111Y-109203846D01*
X85207111Y-109633959D01*
X85207112Y-109633961D01*
X85215983Y-109678563D01*
X85249775Y-109729136D01*
X85249776Y-109729136D01*
X85249777Y-109729138D01*
X85300353Y-109762932D01*
X85344954Y-109771804D01*
X85522802Y-109771803D01*
X85571137Y-109789396D01*
X85596857Y-109833944D01*
X85598000Y-109847003D01*
X85598000Y-110590804D01*
X85580407Y-110639142D01*
X85535858Y-110664862D01*
X85522800Y-110666004D01*
X85344955Y-110666004D01*
X85344953Y-110666005D01*
X85300351Y-110674876D01*
X85249778Y-110708668D01*
X85215983Y-110759246D01*
X85215982Y-110759247D01*
X85207111Y-110803846D01*
X85207111Y-111233959D01*
X85207112Y-111233961D01*
X85215983Y-111278563D01*
X85249775Y-111329136D01*
X85249776Y-111329136D01*
X85249777Y-111329138D01*
X85300353Y-111362932D01*
X85344954Y-111371804D01*
X85405711Y-111371803D01*
X85454048Y-111389396D01*
X85479768Y-111433944D01*
X85480911Y-111447003D01*
X85480911Y-112745592D01*
X85463318Y-112793930D01*
X85418769Y-112819650D01*
X85405712Y-112820792D01*
X85344943Y-112820792D01*
X85344941Y-112820793D01*
X85300340Y-112829664D01*
X85249767Y-112863456D01*
X85215972Y-112914034D01*
X85215971Y-112914035D01*
X85207100Y-112958634D01*
X85207100Y-113388747D01*
X85207101Y-113388749D01*
X85215972Y-113433351D01*
X85249764Y-113483924D01*
X85249765Y-113483924D01*
X85249766Y-113483926D01*
X85300342Y-113517720D01*
X85344943Y-113526592D01*
X85522802Y-113526591D01*
X85571137Y-113544184D01*
X85596857Y-113588732D01*
X85598000Y-113601791D01*
X85598000Y-114345592D01*
X85580407Y-114393930D01*
X85535858Y-114419650D01*
X85522800Y-114420792D01*
X85344944Y-114420792D01*
X85344942Y-114420793D01*
X85300340Y-114429664D01*
X85249767Y-114463456D01*
X85215972Y-114514034D01*
X85215971Y-114514035D01*
X85207100Y-114558634D01*
X85207100Y-114988747D01*
X85207101Y-114988749D01*
X85215972Y-115033351D01*
X85249764Y-115083924D01*
X85249765Y-115083924D01*
X85249766Y-115083926D01*
X85300342Y-115117720D01*
X85344943Y-115126592D01*
X85405700Y-115126591D01*
X85454037Y-115144184D01*
X85479757Y-115188732D01*
X85480900Y-115201791D01*
X85480900Y-116500374D01*
X85463307Y-116548712D01*
X85418758Y-116574432D01*
X85405701Y-116575574D01*
X85344943Y-116575574D01*
X85344941Y-116575575D01*
X85300340Y-116584446D01*
X85249767Y-116618238D01*
X85215972Y-116668816D01*
X85215971Y-116668817D01*
X85207100Y-116713416D01*
X85207100Y-117143529D01*
X85207101Y-117143531D01*
X85215972Y-117188133D01*
X85249764Y-117238706D01*
X85249765Y-117238706D01*
X85249766Y-117238708D01*
X85300342Y-117272502D01*
X85344943Y-117281374D01*
X85522802Y-117281373D01*
X85571137Y-117298966D01*
X85596857Y-117343514D01*
X85598000Y-117356573D01*
X85598000Y-118100374D01*
X85580407Y-118148712D01*
X85535858Y-118174432D01*
X85522800Y-118175574D01*
X85344944Y-118175574D01*
X85344942Y-118175575D01*
X85300340Y-118184446D01*
X85249767Y-118218238D01*
X85215972Y-118268816D01*
X85215971Y-118268817D01*
X85207100Y-118313416D01*
X85207100Y-118743529D01*
X85207101Y-118743531D01*
X85215972Y-118788133D01*
X85249764Y-118838706D01*
X85249765Y-118838706D01*
X85249766Y-118838708D01*
X85300342Y-118872502D01*
X85344943Y-118881374D01*
X85405700Y-118881373D01*
X85454037Y-118898966D01*
X85479757Y-118943514D01*
X85480900Y-118956573D01*
X85480900Y-120255156D01*
X85463307Y-120303494D01*
X85418758Y-120329214D01*
X85405701Y-120330356D01*
X85344943Y-120330356D01*
X85344941Y-120330357D01*
X85300340Y-120339228D01*
X85249767Y-120373020D01*
X85215972Y-120423598D01*
X85215971Y-120423599D01*
X85207100Y-120468198D01*
X85207100Y-120898311D01*
X85207101Y-120898313D01*
X85215972Y-120942915D01*
X85249764Y-120993488D01*
X85249765Y-120993488D01*
X85249766Y-120993490D01*
X85300342Y-121027284D01*
X85344943Y-121036156D01*
X85522802Y-121036155D01*
X85571137Y-121053748D01*
X85596857Y-121098296D01*
X85598000Y-121111355D01*
X85598000Y-121855156D01*
X85580407Y-121903494D01*
X85535858Y-121929214D01*
X85522800Y-121930356D01*
X85344944Y-121930356D01*
X85344942Y-121930357D01*
X85300340Y-121939228D01*
X85249767Y-121973020D01*
X85215972Y-122023598D01*
X85215971Y-122023599D01*
X85207100Y-122068198D01*
X85207100Y-122498311D01*
X85207101Y-122498313D01*
X85215972Y-122542915D01*
X85249764Y-122593488D01*
X85249765Y-122593488D01*
X85249766Y-122593490D01*
X85300342Y-122627284D01*
X85344943Y-122636156D01*
X85405700Y-122636155D01*
X85454037Y-122653748D01*
X85479757Y-122698296D01*
X85480900Y-122711355D01*
X85480900Y-124009938D01*
X85463307Y-124058276D01*
X85418758Y-124083996D01*
X85405701Y-124085138D01*
X85344943Y-124085138D01*
X85344941Y-124085139D01*
X85300340Y-124094010D01*
X85249767Y-124127802D01*
X85215972Y-124178380D01*
X85215971Y-124178381D01*
X85207100Y-124222980D01*
X85207100Y-124653093D01*
X85207101Y-124653095D01*
X85215972Y-124697697D01*
X85249764Y-124748270D01*
X85249765Y-124748270D01*
X85249766Y-124748272D01*
X85300342Y-124782066D01*
X85344943Y-124790938D01*
X85522802Y-124790937D01*
X85571137Y-124808530D01*
X85596857Y-124853078D01*
X85598000Y-124866137D01*
X85598000Y-125609938D01*
X85580407Y-125658276D01*
X85535858Y-125683996D01*
X85522800Y-125685138D01*
X85344944Y-125685138D01*
X85344942Y-125685139D01*
X85300340Y-125694010D01*
X85249767Y-125727802D01*
X85215972Y-125778380D01*
X85215971Y-125778381D01*
X85207100Y-125822980D01*
X85207100Y-126253093D01*
X85207101Y-126253095D01*
X85215972Y-126297697D01*
X85249764Y-126348270D01*
X85249765Y-126348270D01*
X85249766Y-126348272D01*
X85300342Y-126382066D01*
X85344943Y-126390938D01*
X85405700Y-126390937D01*
X85454037Y-126408530D01*
X85479757Y-126453078D01*
X85480900Y-126466137D01*
X85480900Y-127764720D01*
X85463307Y-127813058D01*
X85418758Y-127838778D01*
X85405701Y-127839920D01*
X85344943Y-127839920D01*
X85344941Y-127839921D01*
X85300340Y-127848792D01*
X85249767Y-127882584D01*
X85215972Y-127933162D01*
X85215971Y-127933163D01*
X85207100Y-127977762D01*
X85207100Y-128407875D01*
X85207101Y-128407877D01*
X85215972Y-128452479D01*
X85249764Y-128503052D01*
X85249765Y-128503052D01*
X85249766Y-128503054D01*
X85300342Y-128536848D01*
X85344943Y-128545720D01*
X85522802Y-128545719D01*
X85571137Y-128563312D01*
X85596857Y-128607860D01*
X85598000Y-128620919D01*
X85598000Y-129364720D01*
X85580407Y-129413058D01*
X85535858Y-129438778D01*
X85522800Y-129439920D01*
X85344944Y-129439920D01*
X85344942Y-129439921D01*
X85300340Y-129448792D01*
X85249767Y-129482584D01*
X85215972Y-129533162D01*
X85215971Y-129533163D01*
X85207100Y-129577762D01*
X85207100Y-130007875D01*
X85207101Y-130007877D01*
X85215972Y-130052479D01*
X85249764Y-130103052D01*
X85249765Y-130103052D01*
X85249766Y-130103054D01*
X85300342Y-130136848D01*
X85344943Y-130145720D01*
X85405700Y-130145719D01*
X85454037Y-130163312D01*
X85479757Y-130207860D01*
X85480900Y-130220919D01*
X85480900Y-131519502D01*
X85463307Y-131567840D01*
X85418758Y-131593560D01*
X85405701Y-131594702D01*
X85344943Y-131594702D01*
X85344941Y-131594703D01*
X85300340Y-131603574D01*
X85249767Y-131637366D01*
X85215972Y-131687944D01*
X85215971Y-131687945D01*
X85207100Y-131732544D01*
X85207100Y-132162657D01*
X85207101Y-132162659D01*
X85215972Y-132207261D01*
X85249764Y-132257834D01*
X85249765Y-132257834D01*
X85249766Y-132257836D01*
X85300342Y-132291630D01*
X85344943Y-132300502D01*
X85522802Y-132300501D01*
X85571137Y-132318094D01*
X85596857Y-132362642D01*
X85598000Y-132375701D01*
X85598000Y-133119502D01*
X85580407Y-133167840D01*
X85535858Y-133193560D01*
X85522800Y-133194702D01*
X85344944Y-133194702D01*
X85344942Y-133194703D01*
X85300340Y-133203574D01*
X85249767Y-133237366D01*
X85215972Y-133287944D01*
X85215971Y-133287945D01*
X85207100Y-133332544D01*
X85207100Y-133762657D01*
X85207101Y-133762659D01*
X85215972Y-133807261D01*
X85249764Y-133857834D01*
X85249765Y-133857834D01*
X85249766Y-133857836D01*
X85300342Y-133891630D01*
X85344943Y-133900502D01*
X85405700Y-133900501D01*
X85454037Y-133918094D01*
X85479757Y-133962642D01*
X85480900Y-133975701D01*
X85480900Y-135274284D01*
X85463307Y-135322622D01*
X85418758Y-135348342D01*
X85405701Y-135349484D01*
X85344943Y-135349484D01*
X85344941Y-135349485D01*
X85300340Y-135358356D01*
X85249767Y-135392148D01*
X85215972Y-135442726D01*
X85215971Y-135442727D01*
X85207100Y-135487326D01*
X85207100Y-135917439D01*
X85207101Y-135917441D01*
X85215972Y-135962043D01*
X85249764Y-136012616D01*
X85249765Y-136012616D01*
X85249766Y-136012618D01*
X85300342Y-136046412D01*
X85344943Y-136055284D01*
X85522802Y-136055283D01*
X85571137Y-136072876D01*
X85596857Y-136117424D01*
X85598000Y-136130483D01*
X85598000Y-136874284D01*
X85580407Y-136922622D01*
X85535858Y-136948342D01*
X85522800Y-136949484D01*
X85344944Y-136949484D01*
X85344942Y-136949485D01*
X85300340Y-136958356D01*
X85249767Y-136992148D01*
X85215972Y-137042726D01*
X85215971Y-137042727D01*
X85207100Y-137087326D01*
X85207100Y-137517439D01*
X85207101Y-137517441D01*
X85215972Y-137562043D01*
X85249764Y-137612616D01*
X85249765Y-137612616D01*
X85249766Y-137612618D01*
X85300342Y-137646412D01*
X85344943Y-137655284D01*
X85405700Y-137655283D01*
X85454037Y-137672876D01*
X85479757Y-137717424D01*
X85480900Y-137730483D01*
X85480900Y-139029066D01*
X85463307Y-139077404D01*
X85418758Y-139103124D01*
X85405701Y-139104266D01*
X85344943Y-139104266D01*
X85344941Y-139104267D01*
X85300340Y-139113138D01*
X85249767Y-139146930D01*
X85215972Y-139197508D01*
X85215971Y-139197509D01*
X85207100Y-139242108D01*
X85207100Y-139672221D01*
X85207101Y-139672223D01*
X85215972Y-139716825D01*
X85249764Y-139767398D01*
X85249765Y-139767398D01*
X85249766Y-139767400D01*
X85300342Y-139801194D01*
X85344943Y-139810066D01*
X85522802Y-139810065D01*
X85571137Y-139827658D01*
X85596857Y-139872206D01*
X85598000Y-139885265D01*
X85598000Y-140629066D01*
X85580407Y-140677404D01*
X85535858Y-140703124D01*
X85522800Y-140704266D01*
X85344944Y-140704266D01*
X85344942Y-140704267D01*
X85300340Y-140713138D01*
X85249767Y-140746930D01*
X85215972Y-140797508D01*
X85215971Y-140797509D01*
X85207100Y-140842108D01*
X85207100Y-141272221D01*
X85207101Y-141272223D01*
X85215972Y-141316825D01*
X85249764Y-141367398D01*
X85249765Y-141367398D01*
X85249766Y-141367400D01*
X85300342Y-141401194D01*
X85344943Y-141410066D01*
X85405700Y-141410065D01*
X85454037Y-141427658D01*
X85479757Y-141472206D01*
X85480900Y-141485265D01*
X85480900Y-142783848D01*
X85463307Y-142832186D01*
X85418758Y-142857906D01*
X85405701Y-142859048D01*
X85344943Y-142859048D01*
X85344941Y-142859049D01*
X85300340Y-142867920D01*
X85249767Y-142901712D01*
X85215972Y-142952290D01*
X85215971Y-142952291D01*
X85207100Y-142996890D01*
X85207100Y-143427003D01*
X85207101Y-143427005D01*
X85215972Y-143471607D01*
X85249764Y-143522180D01*
X85249765Y-143522180D01*
X85249766Y-143522182D01*
X85300342Y-143555976D01*
X85344943Y-143564848D01*
X85522802Y-143564847D01*
X85571137Y-143582440D01*
X85596857Y-143626988D01*
X85598000Y-143640047D01*
X85598000Y-144383848D01*
X85580407Y-144432186D01*
X85535858Y-144457906D01*
X85522800Y-144459048D01*
X85344944Y-144459048D01*
X85344942Y-144459049D01*
X85300340Y-144467920D01*
X85249767Y-144501712D01*
X85215972Y-144552290D01*
X85215971Y-144552291D01*
X85207100Y-144596890D01*
X85207100Y-145027003D01*
X85207101Y-145027005D01*
X85215972Y-145071607D01*
X85249764Y-145122180D01*
X85249765Y-145122180D01*
X85249766Y-145122182D01*
X85300342Y-145155976D01*
X85344943Y-145164848D01*
X85405700Y-145164847D01*
X85454037Y-145182440D01*
X85479757Y-145226988D01*
X85480900Y-145240047D01*
X85480900Y-146538630D01*
X85463307Y-146586968D01*
X85418758Y-146612688D01*
X85405701Y-146613830D01*
X85344943Y-146613830D01*
X85344941Y-146613831D01*
X85300340Y-146622702D01*
X85249767Y-146656494D01*
X85215972Y-146707072D01*
X85215971Y-146707073D01*
X85207100Y-146751672D01*
X85207100Y-147181785D01*
X85207101Y-147181787D01*
X85215972Y-147226389D01*
X85249764Y-147276962D01*
X85249765Y-147276962D01*
X85249766Y-147276964D01*
X85300342Y-147310758D01*
X85344943Y-147319630D01*
X85522802Y-147319629D01*
X85571137Y-147337222D01*
X85596857Y-147381770D01*
X85598000Y-147394829D01*
X85598000Y-148138630D01*
X85580407Y-148186968D01*
X85535858Y-148212688D01*
X85522800Y-148213830D01*
X85344944Y-148213830D01*
X85344942Y-148213831D01*
X85300340Y-148222702D01*
X85249767Y-148256494D01*
X85215972Y-148307072D01*
X85215971Y-148307073D01*
X85207100Y-148351672D01*
X85207100Y-148781785D01*
X85207101Y-148781787D01*
X85215972Y-148826389D01*
X85249764Y-148876962D01*
X85249765Y-148876962D01*
X85249766Y-148876964D01*
X85300342Y-148910758D01*
X85344943Y-148919630D01*
X85405700Y-148919629D01*
X85454037Y-148937222D01*
X85479757Y-148981770D01*
X85480900Y-148994829D01*
X85480900Y-150293412D01*
X85463307Y-150341750D01*
X85418758Y-150367470D01*
X85405701Y-150368612D01*
X85344943Y-150368612D01*
X85344941Y-150368613D01*
X85300340Y-150377484D01*
X85249767Y-150411276D01*
X85215972Y-150461854D01*
X85215971Y-150461855D01*
X85207100Y-150506454D01*
X85207100Y-150936567D01*
X85207101Y-150936569D01*
X85215972Y-150981171D01*
X85249764Y-151031744D01*
X85249765Y-151031744D01*
X85249766Y-151031746D01*
X85300342Y-151065540D01*
X85344943Y-151074412D01*
X85522802Y-151074411D01*
X85571137Y-151092004D01*
X85596857Y-151136552D01*
X85598000Y-151149611D01*
X85598000Y-151893412D01*
X85580407Y-151941750D01*
X85535858Y-151967470D01*
X85522800Y-151968612D01*
X85344944Y-151968612D01*
X85344942Y-151968613D01*
X85300340Y-151977484D01*
X85249767Y-152011276D01*
X85215972Y-152061854D01*
X85215971Y-152061855D01*
X85207100Y-152106454D01*
X85207100Y-152536567D01*
X85207101Y-152536569D01*
X85215972Y-152581171D01*
X85249764Y-152631744D01*
X85249765Y-152631744D01*
X85249766Y-152631746D01*
X85300342Y-152665540D01*
X85344943Y-152674412D01*
X85405700Y-152674411D01*
X85454037Y-152692004D01*
X85479757Y-152736552D01*
X85480900Y-152749611D01*
X85480900Y-154048194D01*
X85463307Y-154096532D01*
X85418758Y-154122252D01*
X85405701Y-154123394D01*
X85344943Y-154123394D01*
X85344941Y-154123395D01*
X85300340Y-154132266D01*
X85249767Y-154166058D01*
X85215972Y-154216636D01*
X85215971Y-154216637D01*
X85207100Y-154261236D01*
X85207100Y-154691349D01*
X85207101Y-154691351D01*
X85215972Y-154735953D01*
X85249764Y-154786526D01*
X85249765Y-154786526D01*
X85249766Y-154786528D01*
X85300342Y-154820322D01*
X85344943Y-154829194D01*
X85522802Y-154829193D01*
X85571137Y-154846786D01*
X85596857Y-154891334D01*
X85598000Y-154904393D01*
X85598000Y-155648194D01*
X85580407Y-155696532D01*
X85535858Y-155722252D01*
X85522800Y-155723394D01*
X85344944Y-155723394D01*
X85344942Y-155723395D01*
X85300340Y-155732266D01*
X85249767Y-155766058D01*
X85215972Y-155816636D01*
X85215971Y-155816637D01*
X85207100Y-155861236D01*
X85207100Y-156291349D01*
X85207101Y-156291351D01*
X85215972Y-156335953D01*
X85249764Y-156386526D01*
X85249765Y-156386526D01*
X85249766Y-156386528D01*
X85300342Y-156420322D01*
X85344943Y-156429194D01*
X85405700Y-156429193D01*
X85454037Y-156446786D01*
X85479757Y-156491334D01*
X85480900Y-156504393D01*
X85480900Y-157802976D01*
X85463307Y-157851314D01*
X85418758Y-157877034D01*
X85405701Y-157878176D01*
X85344943Y-157878176D01*
X85344941Y-157878177D01*
X85300340Y-157887048D01*
X85249767Y-157920840D01*
X85215972Y-157971418D01*
X85215971Y-157971419D01*
X85207100Y-158016018D01*
X85207100Y-158446131D01*
X85207101Y-158446133D01*
X85215972Y-158490735D01*
X85249764Y-158541308D01*
X85249765Y-158541308D01*
X85249766Y-158541310D01*
X85300342Y-158575104D01*
X85344943Y-158583976D01*
X85522802Y-158583975D01*
X85571137Y-158601568D01*
X85596857Y-158646116D01*
X85598000Y-158659175D01*
X85598000Y-159402976D01*
X85580407Y-159451314D01*
X85535858Y-159477034D01*
X85522800Y-159478176D01*
X85344944Y-159478176D01*
X85344942Y-159478177D01*
X85300340Y-159487048D01*
X85249767Y-159520840D01*
X85215972Y-159571418D01*
X85215971Y-159571419D01*
X85207100Y-159616018D01*
X85207100Y-160046131D01*
X85207101Y-160046133D01*
X85215972Y-160090735D01*
X85249764Y-160141308D01*
X85249765Y-160141308D01*
X85249766Y-160141310D01*
X85300342Y-160175104D01*
X85344943Y-160183976D01*
X85405700Y-160183975D01*
X85454037Y-160201568D01*
X85479757Y-160246116D01*
X85480900Y-160259175D01*
X85480900Y-161557758D01*
X85463307Y-161606096D01*
X85418758Y-161631816D01*
X85405701Y-161632958D01*
X85344943Y-161632958D01*
X85344941Y-161632959D01*
X85300340Y-161641830D01*
X85249767Y-161675622D01*
X85215972Y-161726200D01*
X85215971Y-161726201D01*
X85207100Y-161770800D01*
X85207100Y-162200913D01*
X85207101Y-162200915D01*
X85215972Y-162245517D01*
X85249764Y-162296090D01*
X85249765Y-162296090D01*
X85249766Y-162296092D01*
X85300342Y-162329886D01*
X85344943Y-162338758D01*
X85522802Y-162338757D01*
X85571137Y-162356350D01*
X85596857Y-162400898D01*
X85598000Y-162413957D01*
X85598000Y-163157758D01*
X85580407Y-163206096D01*
X85535858Y-163231816D01*
X85522800Y-163232958D01*
X85344944Y-163232958D01*
X85344942Y-163232959D01*
X85300340Y-163241830D01*
X85249767Y-163275622D01*
X85215972Y-163326200D01*
X85215971Y-163326201D01*
X85207100Y-163370800D01*
X85207100Y-163800913D01*
X85207101Y-163800915D01*
X85215972Y-163845517D01*
X85249764Y-163896090D01*
X85249765Y-163896090D01*
X85249766Y-163896092D01*
X85300342Y-163929886D01*
X85344943Y-163938758D01*
X85405700Y-163938757D01*
X85454037Y-163956350D01*
X85479757Y-164000898D01*
X85480900Y-164013957D01*
X85480900Y-165312540D01*
X85463307Y-165360878D01*
X85418758Y-165386598D01*
X85405701Y-165387740D01*
X85344943Y-165387740D01*
X85344941Y-165387741D01*
X85300340Y-165396612D01*
X85249767Y-165430404D01*
X85215972Y-165480982D01*
X85215971Y-165480983D01*
X85207100Y-165525582D01*
X85207100Y-165955695D01*
X85207101Y-165955697D01*
X85215972Y-166000299D01*
X85249764Y-166050872D01*
X85249765Y-166050872D01*
X85249766Y-166050874D01*
X85300342Y-166084668D01*
X85344943Y-166093540D01*
X85522802Y-166093539D01*
X85571137Y-166111132D01*
X85596857Y-166155680D01*
X85598000Y-166168739D01*
X85598000Y-166912540D01*
X85580407Y-166960878D01*
X85535858Y-166986598D01*
X85522800Y-166987740D01*
X85344944Y-166987740D01*
X85344942Y-166987741D01*
X85300340Y-166996612D01*
X85249767Y-167030404D01*
X85215972Y-167080982D01*
X85215971Y-167080983D01*
X85207100Y-167125582D01*
X85207100Y-167555695D01*
X85207101Y-167555697D01*
X85215972Y-167600299D01*
X85249764Y-167650872D01*
X85249765Y-167650872D01*
X85249766Y-167650874D01*
X85300342Y-167684668D01*
X85344943Y-167693540D01*
X85405700Y-167693539D01*
X85454037Y-167711132D01*
X85479757Y-167755680D01*
X85480900Y-167768739D01*
X85480900Y-169067322D01*
X85463307Y-169115660D01*
X85418758Y-169141380D01*
X85405701Y-169142522D01*
X85344943Y-169142522D01*
X85344941Y-169142523D01*
X85300340Y-169151394D01*
X85249767Y-169185186D01*
X85215972Y-169235764D01*
X85215971Y-169235765D01*
X85207100Y-169280364D01*
X85207100Y-169710477D01*
X85207101Y-169710479D01*
X85215972Y-169755081D01*
X85249764Y-169805654D01*
X85249765Y-169805654D01*
X85249766Y-169805656D01*
X85300342Y-169839450D01*
X85344943Y-169848322D01*
X85522802Y-169848321D01*
X85571137Y-169865914D01*
X85596857Y-169910462D01*
X85598000Y-169923521D01*
X85598000Y-170667322D01*
X85580407Y-170715660D01*
X85535858Y-170741380D01*
X85522800Y-170742522D01*
X85344944Y-170742522D01*
X85344942Y-170742523D01*
X85300340Y-170751394D01*
X85249767Y-170785186D01*
X85215972Y-170835764D01*
X85215971Y-170835765D01*
X85207100Y-170880364D01*
X85207100Y-171310477D01*
X85207101Y-171310479D01*
X85215972Y-171355081D01*
X85249764Y-171405654D01*
X85249765Y-171405654D01*
X85249766Y-171405656D01*
X85300342Y-171439450D01*
X85344943Y-171448322D01*
X85405700Y-171448321D01*
X85454037Y-171465914D01*
X85479757Y-171510462D01*
X85480900Y-171523521D01*
X85480900Y-172822104D01*
X85463307Y-172870442D01*
X85418758Y-172896162D01*
X85405701Y-172897304D01*
X85344943Y-172897304D01*
X85344941Y-172897305D01*
X85300340Y-172906176D01*
X85249767Y-172939968D01*
X85215972Y-172990546D01*
X85215971Y-172990547D01*
X85207100Y-173035146D01*
X85207100Y-173465259D01*
X85207101Y-173465261D01*
X85215972Y-173509863D01*
X85249764Y-173560436D01*
X85249765Y-173560436D01*
X85249766Y-173560438D01*
X85300342Y-173594232D01*
X85344943Y-173603104D01*
X85522802Y-173603103D01*
X85571137Y-173620696D01*
X85596857Y-173665244D01*
X85598000Y-173678303D01*
X85598000Y-174422104D01*
X85580407Y-174470442D01*
X85535858Y-174496162D01*
X85522800Y-174497304D01*
X85344944Y-174497304D01*
X85344942Y-174497305D01*
X85300340Y-174506176D01*
X85249767Y-174539968D01*
X85215972Y-174590546D01*
X85215971Y-174590547D01*
X85207100Y-174635146D01*
X85207100Y-175065259D01*
X85207101Y-175065261D01*
X85215972Y-175109863D01*
X85249764Y-175160436D01*
X85249765Y-175160436D01*
X85249766Y-175160438D01*
X85300342Y-175194232D01*
X85344943Y-175203104D01*
X85405700Y-175203103D01*
X85454037Y-175220696D01*
X85479757Y-175265244D01*
X85480900Y-175278303D01*
X85480900Y-176576886D01*
X85463307Y-176625224D01*
X85418758Y-176650944D01*
X85405701Y-176652086D01*
X85344943Y-176652086D01*
X85344941Y-176652087D01*
X85300340Y-176660958D01*
X85249767Y-176694750D01*
X85215972Y-176745328D01*
X85215971Y-176745329D01*
X85207100Y-176789928D01*
X85207100Y-177220041D01*
X85207101Y-177220043D01*
X85215972Y-177264645D01*
X85249764Y-177315218D01*
X85249765Y-177315218D01*
X85249766Y-177315220D01*
X85300342Y-177349014D01*
X85344943Y-177357886D01*
X85522802Y-177357885D01*
X85571137Y-177375478D01*
X85596857Y-177420026D01*
X85598000Y-177433085D01*
X85598000Y-178176886D01*
X85580407Y-178225224D01*
X85535858Y-178250944D01*
X85522800Y-178252086D01*
X85344944Y-178252086D01*
X85344942Y-178252087D01*
X85300340Y-178260958D01*
X85249767Y-178294750D01*
X85215972Y-178345328D01*
X85215971Y-178345329D01*
X85207100Y-178389928D01*
X85207101Y-178740800D01*
X85189508Y-178789137D01*
X85144960Y-178814858D01*
X85131901Y-178816000D01*
X84428600Y-178816000D01*
X84380262Y-178798407D01*
X84354542Y-178753858D01*
X84353400Y-178740800D01*
X84353400Y-159105599D01*
X84353400Y-91159600D01*
X84370993Y-91111262D01*
X84415542Y-91085542D01*
X84428600Y-91084400D01*
X85522800Y-91084400D01*
X85571138Y-91101993D01*
G37*
%TD.AperFunction*%
%TA.AperFunction,Conductor*%
G36*
X84277200Y-44170600D02*
G01*
X83413600Y-44170600D01*
X83413600Y-41121599D01*
X83431193Y-41073262D01*
X83475742Y-41047542D01*
X83488800Y-41046400D01*
X84277200Y-41046400D01*
X84277200Y-44170600D01*
G37*
%TD.AperFunction*%
%TA.AperFunction,Conductor*%
G36*
X84277200Y-47396400D02*
G01*
X83842354Y-47396400D01*
X83821141Y-47359658D01*
X83820000Y-47346611D01*
X83820000Y-42443400D01*
X84277200Y-42443400D01*
X84277200Y-47396400D01*
G37*
%TD.AperFunction*%
%TA.AperFunction,Conductor*%
G36*
X87250000Y-33121596D02*
G01*
X87298336Y-33139190D01*
X87324056Y-33183738D01*
X87325198Y-33196795D01*
X87325201Y-33351195D01*
X87307608Y-33399533D01*
X87263061Y-33425253D01*
X87250001Y-33426396D01*
X86791800Y-33426393D01*
X85928200Y-33426386D01*
X85928200Y-33426385D01*
X85470001Y-33426383D01*
X85421663Y-33408789D01*
X85395943Y-33364241D01*
X85394801Y-33351189D01*
X85394798Y-33196783D01*
X85412391Y-33148447D01*
X85456938Y-33122727D01*
X85469993Y-33121584D01*
X87250000Y-33121596D01*
G37*
%TD.AperFunction*%
%TA.AperFunction,Conductor*%
G36*
X86334600Y-41834800D02*
G01*
X86317007Y-41883138D01*
X86272458Y-41908858D01*
X86259411Y-41909999D01*
X85471000Y-41909999D01*
X84277200Y-41909999D01*
X83413600Y-41910000D01*
X83413600Y-41121597D01*
X83431193Y-41073262D01*
X83475742Y-41047542D01*
X83488789Y-41046400D01*
X86334600Y-41046399D01*
X86334600Y-41834800D01*
G37*
%TD.AperFunction*%
%TA.AperFunction,Conductor*%
G36*
X89001600Y-44195999D02*
G01*
X89001600Y-45441600D01*
X88984007Y-45489938D01*
X88939458Y-45515658D01*
X88926400Y-45516800D01*
X88473950Y-45516800D01*
X88473947Y-45516799D01*
X88442800Y-45516799D01*
X88442800Y-42467799D01*
X88460393Y-42419462D01*
X88504942Y-42393742D01*
X88518000Y-42392600D01*
X89001600Y-42392600D01*
X89001600Y-44195999D01*
G37*
%TD.AperFunction*%
%TA.AperFunction,Conductor*%
G36*
X83412137Y-160951992D02*
G01*
X83437857Y-160996541D01*
X83438999Y-161009599D01*
X83438999Y-162814999D01*
X83421406Y-162863337D01*
X83376857Y-162889057D01*
X83363799Y-162890199D01*
X81761602Y-162890199D01*
X81713264Y-162872606D01*
X81687544Y-162828057D01*
X81686402Y-162814999D01*
X81686398Y-161009599D01*
X81703991Y-160961261D01*
X81748539Y-160935541D01*
X81761597Y-160934399D01*
X83363801Y-160934399D01*
X83412137Y-160951992D01*
G37*
%TD.AperFunction*%
%TA.AperFunction,NonConductor*%
G36*
X90175506Y-16760982D02*
G01*
X90221906Y-16765041D01*
X90324988Y-16774059D01*
X90368402Y-16781713D01*
X90497311Y-16816254D01*
X90538746Y-16831336D01*
X90614094Y-16866471D01*
X90659693Y-16887734D01*
X90697874Y-16909777D01*
X90793162Y-16976499D01*
X90861423Y-17047806D01*
X90897201Y-17139810D01*
X90895047Y-17238502D01*
X90855289Y-17328858D01*
X90783980Y-17397121D01*
X90691976Y-17432899D01*
X90672845Y-17435523D01*
X90627766Y-17439963D01*
X90482296Y-17454291D01*
X90482294Y-17454292D01*
X90292195Y-17511958D01*
X90292194Y-17511958D01*
X90116998Y-17605602D01*
X90116990Y-17605607D01*
X89963433Y-17731629D01*
X89963430Y-17731632D01*
X89837408Y-17885189D01*
X89837403Y-17885197D01*
X89743759Y-18060393D01*
X89743759Y-18060394D01*
X89686093Y-18250493D01*
X89686092Y-18250496D01*
X89671500Y-18398656D01*
X89671500Y-19596201D01*
X89652242Y-19693020D01*
X89597398Y-19775099D01*
X89515319Y-19829943D01*
X89418500Y-19849201D01*
X89321681Y-19829943D01*
X89304956Y-19822291D01*
X89264170Y-19801808D01*
X89264169Y-19801807D01*
X89264166Y-19801806D01*
X89264161Y-19801804D01*
X89253668Y-19797985D01*
X89243073Y-19794475D01*
X89166665Y-19778698D01*
X89090723Y-19760700D01*
X89079638Y-19759404D01*
X89068506Y-19758430D01*
X88990524Y-19760700D01*
X84198783Y-19760700D01*
X84162113Y-19758028D01*
X84147130Y-19755833D01*
X84147123Y-19755833D01*
X84097008Y-19760218D01*
X84085976Y-19760700D01*
X84080386Y-19760700D01*
X84047300Y-19764566D01*
X83969562Y-19771368D01*
X83958598Y-19773632D01*
X83947760Y-19776201D01*
X83874429Y-19802890D01*
X83800362Y-19827433D01*
X83790266Y-19832141D01*
X83780253Y-19837169D01*
X83715076Y-19880038D01*
X83648651Y-19921010D01*
X83639893Y-19927934D01*
X83631336Y-19935115D01*
X83577794Y-19991867D01*
X83447722Y-20121938D01*
X83365643Y-20176781D01*
X83268824Y-20196039D01*
X83172005Y-20176780D01*
X83089926Y-20121936D01*
X83035083Y-20039857D01*
X83015825Y-19943038D01*
X83026719Y-19869598D01*
X83033908Y-19845900D01*
X83048500Y-19697746D01*
X83048500Y-18398652D01*
X83033908Y-18250498D01*
X82976241Y-18060395D01*
X82882595Y-17885195D01*
X82882593Y-17885193D01*
X82882591Y-17885189D01*
X82756569Y-17731632D01*
X82756566Y-17731629D01*
X82603009Y-17605607D01*
X82603001Y-17605602D01*
X82427805Y-17511958D01*
X82237705Y-17454292D01*
X82237703Y-17454291D01*
X82140722Y-17444739D01*
X82047155Y-17435523D01*
X81952691Y-17406868D01*
X81876383Y-17344243D01*
X81829849Y-17257183D01*
X81820173Y-17158943D01*
X81848829Y-17064478D01*
X81911454Y-16988170D01*
X81926812Y-16976516D01*
X82022130Y-16909774D01*
X82060301Y-16887736D01*
X82181253Y-16831336D01*
X82222684Y-16816255D01*
X82351599Y-16781713D01*
X82395009Y-16774059D01*
X82544509Y-16760980D01*
X82555523Y-16760500D01*
X82594170Y-16760500D01*
X90125830Y-16760500D01*
X90164477Y-16760500D01*
X90175506Y-16760982D01*
G37*
%TD.AperFunction*%
%TA.AperFunction,NonConductor*%
G36*
X82470452Y-20648939D02*
G01*
X82546760Y-20711563D01*
X82593295Y-20798622D01*
X82602971Y-20896863D01*
X82574315Y-20991328D01*
X82545002Y-21034686D01*
X82532449Y-21049647D01*
X82518605Y-21066146D01*
X82518602Y-21066150D01*
X82512434Y-21075528D01*
X82506605Y-21084979D01*
X82473625Y-21155704D01*
X82438606Y-21225434D01*
X82434795Y-21235905D01*
X82431274Y-21246530D01*
X82415499Y-21322933D01*
X82397501Y-21398873D01*
X82396204Y-21409975D01*
X82395946Y-21412920D01*
X82395802Y-21413412D01*
X82395791Y-21413510D01*
X82395774Y-21413508D01*
X82393855Y-21420089D01*
X82392317Y-21435207D01*
X82392295Y-21435314D01*
X82389577Y-21434755D01*
X82368307Y-21507688D01*
X82306506Y-21584665D01*
X82219952Y-21632132D01*
X82121822Y-21642864D01*
X82119114Y-21642612D01*
X82040000Y-21634820D01*
X81842289Y-21654293D01*
X81832850Y-21656171D01*
X81734135Y-21656168D01*
X81642934Y-21618389D01*
X81573134Y-21548584D01*
X81535360Y-21457381D01*
X81530500Y-21408031D01*
X81530500Y-20888367D01*
X81549758Y-20791548D01*
X81604602Y-20709469D01*
X81686681Y-20654625D01*
X81783500Y-20635367D01*
X81832861Y-20640229D01*
X81842295Y-20642105D01*
X81842299Y-20642107D01*
X82040000Y-20661579D01*
X82237701Y-20642107D01*
X82277748Y-20629958D01*
X82375987Y-20620283D01*
X82470452Y-20648939D01*
G37*
%TD.AperFunction*%
%TA.AperFunction,NonConductor*%
G36*
X91077056Y-20678003D02*
G01*
X91146860Y-20747805D01*
X91184638Y-20839006D01*
X91189500Y-20888367D01*
X91189500Y-21408031D01*
X91170242Y-21504850D01*
X91115398Y-21586929D01*
X91033319Y-21641773D01*
X90936500Y-21661031D01*
X90887150Y-21656171D01*
X90877710Y-21654293D01*
X90877701Y-21654292D01*
X90680000Y-21634820D01*
X90679999Y-21634820D01*
X90634950Y-21639257D01*
X90600298Y-21642669D01*
X90502059Y-21632994D01*
X90414999Y-21586459D01*
X90352375Y-21510151D01*
X90323719Y-21415686D01*
X90322501Y-21390888D01*
X90322501Y-21187676D01*
X90324953Y-21163679D01*
X90323885Y-21163586D01*
X90325168Y-21148913D01*
X90325169Y-21148909D01*
X90325161Y-21148642D01*
X90327727Y-21104600D01*
X90327767Y-21104328D01*
X90322983Y-21049647D01*
X90322501Y-21038615D01*
X90322501Y-21038005D01*
X90322501Y-21037987D01*
X90322397Y-21037097D01*
X90321596Y-21026122D01*
X90319985Y-20970737D01*
X90319914Y-20970473D01*
X90312273Y-20927240D01*
X90312221Y-20926651D01*
X90322891Y-20828513D01*
X90370303Y-20741929D01*
X90447241Y-20680080D01*
X90541991Y-20652381D01*
X90589027Y-20652618D01*
X90680000Y-20661579D01*
X90877701Y-20642107D01*
X90877706Y-20642105D01*
X90887139Y-20640229D01*
X90985854Y-20640228D01*
X91077056Y-20678003D01*
G37*
%TD.AperFunction*%
%TA.AperFunction,NonConductor*%
G36*
X88140481Y-26626605D02*
G01*
X88215044Y-26691297D01*
X88230882Y-26717645D01*
X88232255Y-26716816D01*
X88329183Y-26877153D01*
X88329186Y-26877157D01*
X88337331Y-26885302D01*
X88392175Y-26967381D01*
X88411433Y-27064200D01*
X88392175Y-27161019D01*
X88337331Y-27243098D01*
X88255252Y-27297942D01*
X88158433Y-27317200D01*
X87463936Y-27317200D01*
X87452025Y-27316638D01*
X87435068Y-27315035D01*
X87429437Y-27315212D01*
X87419582Y-27313571D01*
X87419229Y-27313538D01*
X87419231Y-27313512D01*
X87332061Y-27299001D01*
X87248302Y-27246759D01*
X87190911Y-27166441D01*
X87168625Y-27070274D01*
X87168500Y-27062337D01*
X87168500Y-27028300D01*
X87187758Y-26931481D01*
X87242602Y-26849402D01*
X87324681Y-26794558D01*
X87421500Y-26775300D01*
X87526504Y-26775300D01*
X87541433Y-26774124D01*
X87563831Y-26772362D01*
X87723601Y-26725945D01*
X87866807Y-26641253D01*
X87866809Y-26641250D01*
X87880507Y-26633150D01*
X87881928Y-26635554D01*
X87948368Y-26602350D01*
X88046837Y-26595371D01*
X88140481Y-26626605D01*
G37*
%TD.AperFunction*%
%TA.AperFunction,NonConductor*%
G36*
X88057184Y-30866757D02*
G01*
X88139263Y-30921601D01*
X88184517Y-30966855D01*
X88208552Y-30994666D01*
X88217600Y-31006820D01*
X88217605Y-31006825D01*
X88225302Y-31013283D01*
X88256143Y-31039162D01*
X88264277Y-31046615D01*
X88268235Y-31050573D01*
X88290522Y-31068195D01*
X88294380Y-31071246D01*
X88354145Y-31121395D01*
X88363504Y-31127550D01*
X88372980Y-31133395D01*
X88443705Y-31166375D01*
X88470360Y-31179762D01*
X88548237Y-31240424D01*
X88596972Y-31326271D01*
X88609144Y-31424234D01*
X88582901Y-31519397D01*
X88522239Y-31597274D01*
X88436392Y-31646009D01*
X88338429Y-31658181D01*
X88293893Y-31650901D01*
X88279479Y-31647200D01*
X88279478Y-31647200D01*
X88269724Y-31647200D01*
X88230147Y-31644085D01*
X88220518Y-31642560D01*
X88220517Y-31642560D01*
X88177375Y-31646638D01*
X88165464Y-31647200D01*
X87568605Y-31647200D01*
X87480191Y-31631248D01*
X87444701Y-31618011D01*
X87444700Y-31618010D01*
X87444695Y-31618009D01*
X87431614Y-31614918D01*
X87341820Y-31573909D01*
X87274554Y-31501659D01*
X87240057Y-31409167D01*
X87236800Y-31368700D01*
X87236800Y-31223767D01*
X87256058Y-31126948D01*
X87310900Y-31044871D01*
X87434170Y-30921600D01*
X87516249Y-30866757D01*
X87613068Y-30847499D01*
X87960365Y-30847499D01*
X88057184Y-30866757D01*
G37*
%TD.AperFunction*%
%TA.AperFunction,NonConductor*%
G36*
X84247943Y-30777477D02*
G01*
X84248274Y-30776480D01*
X84256299Y-30779139D01*
X84258319Y-30779541D01*
X84260778Y-30780623D01*
X84262261Y-30781114D01*
X84262262Y-30781115D01*
X84430574Y-30836887D01*
X84534455Y-30847500D01*
X85230200Y-30847499D01*
X85327019Y-30866757D01*
X85409098Y-30921601D01*
X85463941Y-31003680D01*
X85483200Y-31100499D01*
X85483200Y-31368700D01*
X85463942Y-31465519D01*
X85409098Y-31547598D01*
X85327019Y-31602442D01*
X85288386Y-31614918D01*
X85275304Y-31618009D01*
X85275299Y-31618011D01*
X85239808Y-31631248D01*
X85151395Y-31647200D01*
X84657937Y-31647200D01*
X84646026Y-31646638D01*
X84629077Y-31645035D01*
X84560221Y-31647200D01*
X84530816Y-31647200D01*
X84530792Y-31647201D01*
X84526966Y-31647684D01*
X84515104Y-31648617D01*
X84471804Y-31649978D01*
X84471798Y-31649979D01*
X84462424Y-31652702D01*
X84423566Y-31660748D01*
X84413885Y-31661972D01*
X84413884Y-31661972D01*
X84398096Y-31663967D01*
X84397993Y-31663155D01*
X84357278Y-31668300D01*
X84159017Y-31668300D01*
X84062198Y-31649042D01*
X83980119Y-31594198D01*
X83925275Y-31512119D01*
X83906017Y-31415300D01*
X83907466Y-31388261D01*
X83908499Y-31378648D01*
X83908500Y-31378634D01*
X83908500Y-31013283D01*
X83927758Y-30916464D01*
X83982602Y-30834385D01*
X84064681Y-30779541D01*
X84161500Y-30760283D01*
X84247943Y-30777477D01*
G37*
%TD.AperFunction*%
%TA.AperFunction,NonConductor*%
G36*
X87669119Y-34412058D02*
G01*
X87751198Y-34466902D01*
X87806042Y-34548981D01*
X87825300Y-34645800D01*
X87825300Y-35503997D01*
X87806042Y-35600816D01*
X87751198Y-35682895D01*
X87723924Y-35706529D01*
X87713796Y-35714110D01*
X87713796Y-35714111D01*
X87709922Y-35717010D01*
X87620877Y-35759617D01*
X87522303Y-35764904D01*
X87429209Y-35732066D01*
X87355768Y-35666102D01*
X87313161Y-35577055D01*
X87305300Y-35514478D01*
X87305300Y-34649643D01*
X87324558Y-34552824D01*
X87379402Y-34470745D01*
X87461481Y-34415901D01*
X87469833Y-34412614D01*
X87480205Y-34408746D01*
X87568605Y-34392800D01*
X87572300Y-34392800D01*
X87669119Y-34412058D01*
G37*
%TD.AperFunction*%
%TA.AperFunction,NonConductor*%
G36*
X85236112Y-34407372D02*
G01*
X85250121Y-34412598D01*
X85334102Y-34464477D01*
X85391839Y-34544547D01*
X85414539Y-34640617D01*
X85414700Y-34649643D01*
X85414700Y-35514478D01*
X85395442Y-35611297D01*
X85340598Y-35693376D01*
X85258519Y-35748220D01*
X85161700Y-35767478D01*
X85064881Y-35748220D01*
X85010078Y-35717011D01*
X85006204Y-35714111D01*
X85006203Y-35714110D01*
X84996076Y-35706529D01*
X84930112Y-35633088D01*
X84897274Y-35539994D01*
X84894700Y-35503997D01*
X84894700Y-34644421D01*
X84913958Y-34547602D01*
X84968802Y-34465523D01*
X85050881Y-34410679D01*
X85147700Y-34391421D01*
X85236112Y-34407372D01*
G37*
%TD.AperFunction*%
%TA.AperFunction,NonConductor*%
G36*
X84801319Y-39292758D02*
G01*
X84883398Y-39347602D01*
X84938242Y-39429681D01*
X84957500Y-39526500D01*
X84957500Y-40279899D01*
X84938242Y-40376718D01*
X84883398Y-40458797D01*
X84801319Y-40513641D01*
X84704500Y-40532899D01*
X84177002Y-40532899D01*
X84080183Y-40513641D01*
X83998104Y-40458797D01*
X83943260Y-40376718D01*
X83936385Y-40358080D01*
X83897400Y-40238096D01*
X83897399Y-40238095D01*
X83897399Y-40238093D01*
X83807167Y-40081807D01*
X83807163Y-40081803D01*
X83807163Y-40081802D01*
X83686415Y-39947697D01*
X83686413Y-39947695D01*
X83637787Y-39912366D01*
X83570780Y-39839876D01*
X83536613Y-39747261D01*
X83533499Y-39707686D01*
X83533499Y-39611902D01*
X83552757Y-39515083D01*
X83607601Y-39433004D01*
X83634881Y-39409366D01*
X83748964Y-39323964D01*
X83838013Y-39281359D01*
X83900582Y-39273500D01*
X84704500Y-39273500D01*
X84801319Y-39292758D01*
G37*
%TD.AperFunction*%
%TA.AperFunction,NonConductor*%
G36*
X83150318Y-47097758D02*
G01*
X83232397Y-47152602D01*
X83287241Y-47234681D01*
X83306499Y-47331500D01*
X83306499Y-47357802D01*
X83307474Y-47380158D01*
X83307476Y-47380178D01*
X83309593Y-47404391D01*
X83316725Y-47447865D01*
X83317492Y-47452539D01*
X83314163Y-47551199D01*
X83273331Y-47641074D01*
X83201214Y-47708483D01*
X83108791Y-47743162D01*
X83067830Y-47746500D01*
X82105998Y-47746500D01*
X82094810Y-47746988D01*
X82083620Y-47747477D01*
X82059404Y-47749595D01*
X81983083Y-47762116D01*
X81983082Y-47762116D01*
X81983078Y-47762117D01*
X81877528Y-47804372D01*
X81780486Y-47822476D01*
X81683903Y-47802066D01*
X81602484Y-47746248D01*
X81548622Y-47663522D01*
X81530500Y-47569494D01*
X81530500Y-47331500D01*
X81549758Y-47234681D01*
X81604602Y-47152602D01*
X81686681Y-47097758D01*
X81783500Y-47078500D01*
X83053499Y-47078500D01*
X83150318Y-47097758D01*
G37*
%TD.AperFunction*%
%TA.AperFunction,NonConductor*%
G36*
X91033319Y-47097758D02*
G01*
X91115398Y-47152602D01*
X91170242Y-47234681D01*
X91189500Y-47331500D01*
X91189500Y-48186586D01*
X91170242Y-48283405D01*
X91115398Y-48365484D01*
X91033319Y-48420328D01*
X90936500Y-48439586D01*
X90839681Y-48420328D01*
X90805614Y-48403099D01*
X90737914Y-48362173D01*
X90573650Y-48310987D01*
X90502265Y-48304500D01*
X90193187Y-48304500D01*
X90096368Y-48285242D01*
X90014289Y-48230398D01*
X89431802Y-47647911D01*
X89376958Y-47565832D01*
X89357700Y-47469013D01*
X89357700Y-47331500D01*
X89376958Y-47234681D01*
X89431802Y-47152602D01*
X89513881Y-47097758D01*
X89610700Y-47078500D01*
X90936500Y-47078500D01*
X91033319Y-47097758D01*
G37*
%TD.AperFunction*%
%TA.AperFunction,NonConductor*%
G36*
X91020953Y-51999065D02*
G01*
X91105790Y-52049537D01*
X91164854Y-52128633D01*
X91189153Y-52224312D01*
X91189500Y-52237553D01*
X91189500Y-56119935D01*
X91170242Y-56216754D01*
X91115398Y-56298833D01*
X91033319Y-56353677D01*
X90936500Y-56372935D01*
X90839681Y-56353677D01*
X90757602Y-56298833D01*
X90717396Y-56246435D01*
X90656603Y-56141140D01*
X90535852Y-56007032D01*
X90535848Y-56007029D01*
X90389853Y-55900957D01*
X90224989Y-55827555D01*
X90224975Y-55827552D01*
X90048469Y-55790035D01*
X89868005Y-55790035D01*
X89747579Y-55815632D01*
X89691484Y-55827555D01*
X89586142Y-55874457D01*
X89489860Y-55896243D01*
X89392570Y-55879526D01*
X89380332Y-55874457D01*
X89274988Y-55827554D01*
X89274981Y-55827552D01*
X89218899Y-55815632D01*
X89128200Y-55776665D01*
X89059317Y-55705955D01*
X89022737Y-55614267D01*
X89018500Y-55568161D01*
X89018500Y-53115365D01*
X89018498Y-53115345D01*
X89011990Y-53054803D01*
X88994501Y-53007913D01*
X88960889Y-52917796D01*
X88960887Y-52917793D01*
X88954565Y-52900843D01*
X88957831Y-52899624D01*
X88937564Y-52834878D01*
X88946371Y-52736556D01*
X88953752Y-52715052D01*
X88983177Y-52640436D01*
X88993500Y-52554476D01*
X88993500Y-52331733D01*
X89012758Y-52234914D01*
X89067602Y-52152835D01*
X89149681Y-52097991D01*
X89246500Y-52078733D01*
X89343319Y-52097991D01*
X89425398Y-52152835D01*
X89434506Y-52162433D01*
X89471487Y-52203504D01*
X89471489Y-52203506D01*
X89617483Y-52309577D01*
X89617484Y-52309577D01*
X89617485Y-52309578D01*
X89782348Y-52382980D01*
X89958868Y-52420500D01*
X89958871Y-52420500D01*
X90139329Y-52420500D01*
X90139332Y-52420500D01*
X90315852Y-52382980D01*
X90480715Y-52309578D01*
X90626713Y-52203504D01*
X90747467Y-52069393D01*
X90747467Y-52069391D01*
X90748484Y-52068263D01*
X90827580Y-52009199D01*
X90923259Y-51984900D01*
X91020953Y-51999065D01*
G37*
%TD.AperFunction*%
%TA.AperFunction,NonConductor*%
G36*
X91058391Y-58133995D02*
G01*
X91133954Y-58197517D01*
X91179457Y-58285120D01*
X91189500Y-58355697D01*
X91189500Y-59348500D01*
X91170242Y-59445319D01*
X91115398Y-59527398D01*
X91033319Y-59582242D01*
X90936500Y-59601500D01*
X90022867Y-59601500D01*
X89926048Y-59582242D01*
X89843969Y-59527398D01*
X89789125Y-59445319D01*
X89769867Y-59348500D01*
X89789125Y-59251681D01*
X89843969Y-59169602D01*
X90148831Y-58864740D01*
X90510618Y-58502952D01*
X90519430Y-58494935D01*
X90532547Y-58484082D01*
X90532554Y-58484079D01*
X90556135Y-58458966D01*
X90579716Y-58433856D01*
X90590108Y-58423462D01*
X90600503Y-58413069D01*
X90602859Y-58410030D01*
X90610591Y-58400976D01*
X90640271Y-58369371D01*
X90644966Y-58360829D01*
X90666771Y-58327636D01*
X90670678Y-58322599D01*
X90672741Y-58319940D01*
X90682824Y-58296638D01*
X90689954Y-58280162D01*
X90695195Y-58269462D01*
X90714799Y-58233803D01*
X90778320Y-58158243D01*
X90865923Y-58112740D01*
X90964271Y-58104226D01*
X91058391Y-58133995D01*
G37*
%TD.AperFunction*%
%TA.AperFunction,NonConductor*%
G36*
X81880319Y-58132671D02*
G01*
X81914387Y-58149901D01*
X81982084Y-58190826D01*
X81982086Y-58190826D01*
X81982087Y-58190827D01*
X82146351Y-58242013D01*
X82217735Y-58248500D01*
X82291433Y-58248499D01*
X82388249Y-58267756D01*
X82470329Y-58322599D01*
X82525173Y-58404677D01*
X82532050Y-58423318D01*
X82546654Y-58468266D01*
X82546655Y-58468268D01*
X82546656Y-58468270D01*
X82636888Y-58624556D01*
X82636889Y-58624558D01*
X82636891Y-58624560D01*
X82757639Y-58758665D01*
X82757643Y-58758668D01*
X82903638Y-58864740D01*
X82903639Y-58864740D01*
X82903640Y-58864741D01*
X83068503Y-58938143D01*
X83245023Y-58975663D01*
X83245026Y-58975663D01*
X83425485Y-58975663D01*
X83425487Y-58975663D01*
X83564698Y-58946072D01*
X83663406Y-58944781D01*
X83755094Y-58981360D01*
X83825804Y-59050243D01*
X83864771Y-59140942D01*
X83870300Y-59193544D01*
X83870300Y-59378304D01*
X83851042Y-59475123D01*
X83796198Y-59557202D01*
X83714119Y-59612046D01*
X83617300Y-59631304D01*
X83528890Y-59615354D01*
X83509200Y-59608010D01*
X83509197Y-59608009D01*
X83448654Y-59601501D01*
X83448640Y-59601500D01*
X83448638Y-59601500D01*
X81783500Y-59601500D01*
X81686681Y-59582242D01*
X81604602Y-59527398D01*
X81549758Y-59445319D01*
X81530500Y-59348500D01*
X81530500Y-58366413D01*
X81549758Y-58269594D01*
X81604602Y-58187515D01*
X81686681Y-58132671D01*
X81783500Y-58113413D01*
X81880319Y-58132671D01*
G37*
%TD.AperFunction*%
%TA.AperFunction,NonConductor*%
G36*
X83019119Y-62337758D02*
G01*
X83101198Y-62392602D01*
X83156042Y-62474681D01*
X83175300Y-62571500D01*
X83175300Y-63592069D01*
X83156042Y-63688888D01*
X83101198Y-63770967D01*
X83019119Y-63825811D01*
X82922300Y-63845069D01*
X82825481Y-63825811D01*
X82819406Y-63823201D01*
X82816756Y-63822021D01*
X82816753Y-63822020D01*
X82772622Y-63812640D01*
X82640232Y-63784500D01*
X82459768Y-63784500D01*
X82327378Y-63812640D01*
X82283247Y-63822020D01*
X82118385Y-63895422D01*
X82118384Y-63895422D01*
X81972389Y-64001494D01*
X81972379Y-64001503D01*
X81971509Y-64002470D01*
X81970319Y-64003358D01*
X81962533Y-64010369D01*
X81961888Y-64009653D01*
X81892411Y-64061531D01*
X81796732Y-64085827D01*
X81699038Y-64071658D01*
X81614203Y-64021182D01*
X81555142Y-63942084D01*
X81530846Y-63846405D01*
X81530500Y-63833173D01*
X81530500Y-62571500D01*
X81549758Y-62474681D01*
X81604602Y-62392602D01*
X81686681Y-62337758D01*
X81783500Y-62318500D01*
X82922300Y-62318500D01*
X83019119Y-62337758D01*
G37*
%TD.AperFunction*%
%TA.AperFunction,NonConductor*%
G36*
X81836101Y-72219724D02*
G01*
X81924028Y-72238413D01*
X81924033Y-72238414D01*
X81924035Y-72238414D01*
X82087300Y-72238414D01*
X82184119Y-72257672D01*
X82266198Y-72312516D01*
X82321042Y-72394595D01*
X82340300Y-72491414D01*
X82340300Y-73488012D01*
X82321042Y-73584831D01*
X82266198Y-73666910D01*
X82266197Y-73666911D01*
X82169517Y-73763590D01*
X82157065Y-73774510D01*
X82132991Y-73792982D01*
X82132986Y-73792987D01*
X82074856Y-73868746D01*
X82039267Y-73915124D01*
X82039264Y-73915129D01*
X82023549Y-73953073D01*
X82017241Y-73968302D01*
X81962396Y-74050381D01*
X81880316Y-74105224D01*
X81783497Y-74124481D01*
X81686679Y-74105222D01*
X81604600Y-74050377D01*
X81549757Y-73968297D01*
X81530500Y-73871481D01*
X81530500Y-72467195D01*
X81549758Y-72370376D01*
X81604602Y-72288297D01*
X81686681Y-72233453D01*
X81783500Y-72214195D01*
X81836101Y-72219724D01*
G37*
%TD.AperFunction*%
%TA.AperFunction,NonConductor*%
G36*
X91033319Y-77577758D02*
G01*
X91115398Y-77632602D01*
X91170242Y-77714681D01*
X91189500Y-77811500D01*
X91189500Y-83858385D01*
X91170242Y-83955204D01*
X91115398Y-84037283D01*
X91033319Y-84092127D01*
X90936500Y-84111385D01*
X90913605Y-84110347D01*
X90871275Y-84106500D01*
X90871265Y-84106500D01*
X90753700Y-84106500D01*
X90656881Y-84087242D01*
X90574802Y-84032398D01*
X90519958Y-83950319D01*
X90500700Y-83853500D01*
X90500700Y-78024616D01*
X90501784Y-78008084D01*
X90505745Y-77978000D01*
X90500454Y-77937813D01*
X90488172Y-77844520D01*
X90494629Y-77746017D01*
X90538291Y-77657482D01*
X90612510Y-77592395D01*
X90705987Y-77560664D01*
X90739008Y-77558500D01*
X90936500Y-77558500D01*
X91033319Y-77577758D01*
G37*
%TD.AperFunction*%
%TA.AperFunction,NonConductor*%
G36*
X81809195Y-86873596D02*
G01*
X81900255Y-86882900D01*
X81959050Y-86882899D01*
X82055865Y-86902156D01*
X82137945Y-86956998D01*
X82192790Y-87039077D01*
X82212050Y-87135895D01*
X82192793Y-87232714D01*
X82147068Y-87305186D01*
X82105633Y-87351205D01*
X82015400Y-87507492D01*
X82014626Y-87509232D01*
X82013370Y-87511008D01*
X82008771Y-87518975D01*
X82008038Y-87518552D01*
X81957652Y-87589847D01*
X81874165Y-87642523D01*
X81776875Y-87659239D01*
X81680594Y-87637452D01*
X81599979Y-87580478D01*
X81547303Y-87496991D01*
X81530500Y-87406326D01*
X81530500Y-87125288D01*
X81549758Y-87028469D01*
X81604602Y-86946390D01*
X81686681Y-86891546D01*
X81783500Y-86872288D01*
X81809195Y-86873596D01*
G37*
%TD.AperFunction*%
%TA.AperFunction,NonConductor*%
G36*
X91041596Y-87380713D02*
G01*
X91121666Y-87438450D01*
X91173547Y-87522434D01*
X91189500Y-87610852D01*
X91189500Y-89828500D01*
X91170242Y-89925319D01*
X91115398Y-90007398D01*
X91033319Y-90062242D01*
X90936500Y-90081500D01*
X90090983Y-90081500D01*
X89994164Y-90062242D01*
X89912085Y-90007398D01*
X89857241Y-89925319D01*
X89837983Y-89828500D01*
X89840148Y-89795475D01*
X89855746Y-89677002D01*
X89855746Y-89676998D01*
X89851784Y-89646906D01*
X89850700Y-89630375D01*
X89850700Y-88960500D01*
X89869958Y-88863681D01*
X89924802Y-88781602D01*
X90006881Y-88726758D01*
X90103700Y-88707500D01*
X90214635Y-88707500D01*
X90214638Y-88707500D01*
X90237479Y-88705044D01*
X90275196Y-88700990D01*
X90275197Y-88700989D01*
X90275201Y-88700989D01*
X90412204Y-88649889D01*
X90529261Y-88562261D01*
X90616889Y-88445204D01*
X90667989Y-88308201D01*
X90674500Y-88247638D01*
X90674500Y-87614209D01*
X90693758Y-87517390D01*
X90748602Y-87435311D01*
X90830681Y-87380467D01*
X90839063Y-87377169D01*
X90848084Y-87373804D01*
X90945526Y-87358013D01*
X91041596Y-87380713D01*
G37*
%TD.AperFunction*%
%TA.AperFunction,NonConductor*%
G36*
X83691954Y-92802875D02*
G01*
X83772035Y-92860597D01*
X83823931Y-92944571D01*
X83839900Y-93033033D01*
X83839900Y-94518451D01*
X83820642Y-94615270D01*
X83765798Y-94697349D01*
X83683719Y-94752193D01*
X83586900Y-94771451D01*
X83490081Y-94752193D01*
X83467419Y-94741461D01*
X83359159Y-94683459D01*
X83310820Y-94665865D01*
X83279869Y-94655700D01*
X83135204Y-94634900D01*
X81783500Y-94634900D01*
X81686681Y-94615642D01*
X81604602Y-94560798D01*
X81549758Y-94478719D01*
X81530500Y-94381900D01*
X81530500Y-93051500D01*
X81549758Y-92954681D01*
X81604602Y-92872602D01*
X81686681Y-92817758D01*
X81783500Y-92798500D01*
X83448635Y-92798500D01*
X83448638Y-92798500D01*
X83468592Y-92796354D01*
X83509197Y-92791990D01*
X83524601Y-92788350D01*
X83525376Y-92791631D01*
X83595880Y-92780192D01*
X83691954Y-92802875D01*
G37*
%TD.AperFunction*%
%TA.AperFunction,NonConductor*%
G36*
X83683719Y-98703758D02*
G01*
X83765798Y-98758602D01*
X83820642Y-98840681D01*
X83839900Y-98937500D01*
X83839900Y-99266561D01*
X83820642Y-99363380D01*
X83765798Y-99445459D01*
X83683719Y-99500303D01*
X83586900Y-99519561D01*
X83519436Y-99508766D01*
X83519237Y-99509620D01*
X83508473Y-99507099D01*
X83498403Y-99505651D01*
X83454847Y-99495387D01*
X83354432Y-99462114D01*
X83354427Y-99462113D01*
X83354426Y-99462113D01*
X83290794Y-99455612D01*
X83250547Y-99451500D01*
X81849458Y-99451500D01*
X81849453Y-99451501D01*
X81809207Y-99455612D01*
X81710933Y-99446291D01*
X81623706Y-99400071D01*
X81560806Y-99323989D01*
X81531809Y-99229628D01*
X81530500Y-99203921D01*
X81530500Y-98937500D01*
X81549758Y-98840681D01*
X81604602Y-98758602D01*
X81686681Y-98703758D01*
X81783500Y-98684500D01*
X83210400Y-98684500D01*
X83586900Y-98684500D01*
X83683719Y-98703758D01*
G37*
%TD.AperFunction*%
%TA.AperFunction,NonConductor*%
G36*
X89269084Y-92798500D02*
G01*
X90936500Y-92798500D01*
X91033319Y-92817758D01*
X91115398Y-92872602D01*
X91170242Y-92954681D01*
X91189500Y-93051500D01*
X91189500Y-105068500D01*
X91170242Y-105165319D01*
X91115398Y-105247398D01*
X91033319Y-105302242D01*
X90936500Y-105321500D01*
X89264587Y-105321500D01*
X89264587Y-105320080D01*
X89175904Y-105307319D01*
X89091013Y-105256938D01*
X89031863Y-105177905D01*
X89007461Y-105082253D01*
X89007100Y-105068740D01*
X89007100Y-93051259D01*
X89026358Y-92954440D01*
X89081202Y-92872361D01*
X89163281Y-92817517D01*
X89260100Y-92798259D01*
X89269084Y-92798500D01*
G37*
%TD.AperFunction*%
%TA.AperFunction,NonConductor*%
G36*
X83686484Y-102457803D02*
G01*
X83767907Y-102513616D01*
X83821773Y-102596340D01*
X83839900Y-102690380D01*
X83839900Y-105086966D01*
X83820642Y-105183785D01*
X83765798Y-105265864D01*
X83683719Y-105320708D01*
X83586900Y-105339966D01*
X83525263Y-105328846D01*
X83524601Y-105331650D01*
X83509197Y-105328009D01*
X83448654Y-105321501D01*
X83448640Y-105321500D01*
X83448638Y-105321500D01*
X81783500Y-105321500D01*
X81686681Y-105302242D01*
X81604602Y-105247398D01*
X81549758Y-105165319D01*
X81530500Y-105068500D01*
X81530500Y-102722099D01*
X81549758Y-102625280D01*
X81604602Y-102543201D01*
X81686681Y-102488357D01*
X81783500Y-102469099D01*
X83375001Y-102469099D01*
X83386189Y-102468610D01*
X83397379Y-102468122D01*
X83421595Y-102466004D01*
X83497916Y-102453483D01*
X83497921Y-102453481D01*
X83511226Y-102449775D01*
X83511836Y-102451965D01*
X83589901Y-102437398D01*
X83686484Y-102457803D01*
G37*
%TD.AperFunction*%
%TA.AperFunction,NonConductor*%
G36*
X89269084Y-108038500D02*
G01*
X90936500Y-108038500D01*
X91033319Y-108057758D01*
X91115398Y-108112602D01*
X91170242Y-108194681D01*
X91189500Y-108291500D01*
X91189500Y-120308500D01*
X91170242Y-120405319D01*
X91115398Y-120487398D01*
X91033319Y-120542242D01*
X90936500Y-120561500D01*
X89264587Y-120561500D01*
X89264587Y-120560080D01*
X89175904Y-120547319D01*
X89091013Y-120496938D01*
X89031863Y-120417905D01*
X89007461Y-120322253D01*
X89007100Y-120308740D01*
X89007100Y-108291259D01*
X89026358Y-108194440D01*
X89081202Y-108112361D01*
X89163281Y-108057517D01*
X89260100Y-108038259D01*
X89269084Y-108038500D01*
G37*
%TD.AperFunction*%
%TA.AperFunction,NonConductor*%
G36*
X83691954Y-108042875D02*
G01*
X83772035Y-108100597D01*
X83823931Y-108184571D01*
X83839900Y-108273033D01*
X83839900Y-120326966D01*
X83820642Y-120423785D01*
X83765798Y-120505864D01*
X83683719Y-120560708D01*
X83586900Y-120579966D01*
X83525263Y-120568846D01*
X83524601Y-120571650D01*
X83509197Y-120568009D01*
X83448654Y-120561501D01*
X83448640Y-120561500D01*
X83448638Y-120561500D01*
X81783500Y-120561500D01*
X81686681Y-120542242D01*
X81604602Y-120487398D01*
X81549758Y-120405319D01*
X81530500Y-120308500D01*
X81530500Y-108291500D01*
X81549758Y-108194681D01*
X81604602Y-108112602D01*
X81686681Y-108057758D01*
X81783500Y-108038500D01*
X83448635Y-108038500D01*
X83448638Y-108038500D01*
X83468592Y-108036354D01*
X83509197Y-108031990D01*
X83524601Y-108028350D01*
X83525376Y-108031631D01*
X83595880Y-108020192D01*
X83691954Y-108042875D01*
G37*
%TD.AperFunction*%
%TA.AperFunction,NonConductor*%
G36*
X83691954Y-123282875D02*
G01*
X83772035Y-123340597D01*
X83823931Y-123424571D01*
X83839900Y-123513033D01*
X83839900Y-126614499D01*
X83820642Y-126711318D01*
X83765798Y-126793397D01*
X83683719Y-126848241D01*
X83586900Y-126867499D01*
X81783500Y-126867499D01*
X81686681Y-126848241D01*
X81604602Y-126793397D01*
X81549758Y-126711318D01*
X81530500Y-126614499D01*
X81530500Y-123531500D01*
X81549758Y-123434681D01*
X81604602Y-123352602D01*
X81686681Y-123297758D01*
X81783500Y-123278500D01*
X83448635Y-123278500D01*
X83448638Y-123278500D01*
X83468592Y-123276354D01*
X83509197Y-123271990D01*
X83524601Y-123268350D01*
X83525376Y-123271631D01*
X83595880Y-123260192D01*
X83691954Y-123282875D01*
G37*
%TD.AperFunction*%
%TA.AperFunction,NonConductor*%
G36*
X83683719Y-129158357D02*
G01*
X83765798Y-129213201D01*
X83820642Y-129295280D01*
X83839900Y-129392099D01*
X83839900Y-129729504D01*
X83820642Y-129826323D01*
X83765798Y-129908402D01*
X83683719Y-129963246D01*
X83586900Y-129982504D01*
X83507953Y-129969871D01*
X83483074Y-129961699D01*
X83483070Y-129961698D01*
X83374196Y-129946044D01*
X83365724Y-129944530D01*
X83354435Y-129942114D01*
X83354426Y-129942113D01*
X83290794Y-129935612D01*
X83250546Y-129931500D01*
X81849458Y-129931500D01*
X81849453Y-129931501D01*
X81809207Y-129935612D01*
X81710933Y-129926291D01*
X81623706Y-129880071D01*
X81560806Y-129803989D01*
X81531809Y-129709628D01*
X81530500Y-129683921D01*
X81530500Y-129396078D01*
X81549758Y-129299259D01*
X81604602Y-129217180D01*
X81686681Y-129162336D01*
X81783500Y-129143078D01*
X81809212Y-129144388D01*
X81849455Y-129148500D01*
X83250544Y-129148499D01*
X83336155Y-129139753D01*
X83349009Y-129139099D01*
X83586900Y-129139099D01*
X83683719Y-129158357D01*
G37*
%TD.AperFunction*%
%TA.AperFunction,NonConductor*%
G36*
X89269084Y-123278500D02*
G01*
X90936500Y-123278500D01*
X91033319Y-123297758D01*
X91115398Y-123352602D01*
X91170242Y-123434681D01*
X91189500Y-123531500D01*
X91189500Y-135548500D01*
X91170242Y-135645319D01*
X91115398Y-135727398D01*
X91033319Y-135782242D01*
X90936500Y-135801500D01*
X89264587Y-135801500D01*
X89264587Y-135800080D01*
X89175904Y-135787319D01*
X89091013Y-135736938D01*
X89031863Y-135657905D01*
X89007461Y-135562253D01*
X89007100Y-135548740D01*
X89007100Y-123531259D01*
X89026358Y-123434440D01*
X89081202Y-123352361D01*
X89163281Y-123297517D01*
X89260100Y-123278259D01*
X89269084Y-123278500D01*
G37*
%TD.AperFunction*%
%TA.AperFunction,NonConductor*%
G36*
X83686495Y-132902240D02*
G01*
X83767915Y-132958057D01*
X83821778Y-133040783D01*
X83839900Y-133134812D01*
X83839900Y-135566966D01*
X83820642Y-135663785D01*
X83765798Y-135745864D01*
X83683719Y-135800708D01*
X83586900Y-135819966D01*
X83525263Y-135808846D01*
X83524601Y-135811650D01*
X83509197Y-135808009D01*
X83448654Y-135801501D01*
X83448640Y-135801500D01*
X83448638Y-135801500D01*
X81783500Y-135801500D01*
X81686681Y-135782242D01*
X81604602Y-135727398D01*
X81549758Y-135645319D01*
X81530500Y-135548500D01*
X81530500Y-133176699D01*
X81549758Y-133079880D01*
X81604602Y-132997801D01*
X81686681Y-132942957D01*
X81783500Y-132923699D01*
X83349601Y-132923699D01*
X83360789Y-132923210D01*
X83371979Y-132922722D01*
X83396195Y-132920604D01*
X83472516Y-132908083D01*
X83492872Y-132899933D01*
X83589912Y-132881830D01*
X83686495Y-132902240D01*
G37*
%TD.AperFunction*%
%TA.AperFunction,NonConductor*%
G36*
X89269084Y-138518500D02*
G01*
X90936500Y-138518500D01*
X91033319Y-138537758D01*
X91115398Y-138592602D01*
X91170242Y-138674681D01*
X91189500Y-138771500D01*
X91189500Y-150788500D01*
X91170242Y-150885319D01*
X91115398Y-150967398D01*
X91033319Y-151022242D01*
X90936500Y-151041500D01*
X89264587Y-151041500D01*
X89264587Y-151040080D01*
X89175904Y-151027319D01*
X89091013Y-150976938D01*
X89031863Y-150897905D01*
X89007461Y-150802253D01*
X89007100Y-150788740D01*
X89007100Y-138771259D01*
X89026358Y-138674440D01*
X89081202Y-138592361D01*
X89163281Y-138537517D01*
X89260100Y-138518259D01*
X89269084Y-138518500D01*
G37*
%TD.AperFunction*%
%TA.AperFunction,NonConductor*%
G36*
X83691954Y-138522875D02*
G01*
X83772035Y-138580597D01*
X83823931Y-138664571D01*
X83839900Y-138753033D01*
X83839900Y-150806966D01*
X83820642Y-150903785D01*
X83765798Y-150985864D01*
X83683719Y-151040708D01*
X83586900Y-151059966D01*
X83525263Y-151048846D01*
X83524601Y-151051650D01*
X83509197Y-151048009D01*
X83448654Y-151041501D01*
X83448640Y-151041500D01*
X83448638Y-151041500D01*
X81783500Y-151041500D01*
X81686681Y-151022242D01*
X81604602Y-150967398D01*
X81549758Y-150885319D01*
X81530500Y-150788500D01*
X81530500Y-138771500D01*
X81549758Y-138674681D01*
X81604602Y-138592602D01*
X81686681Y-138537758D01*
X81783500Y-138518500D01*
X83448635Y-138518500D01*
X83448638Y-138518500D01*
X83468592Y-138516354D01*
X83509197Y-138511990D01*
X83524601Y-138508350D01*
X83525376Y-138511631D01*
X83595880Y-138500192D01*
X83691954Y-138522875D01*
G37*
%TD.AperFunction*%
%TA.AperFunction,NonConductor*%
G36*
X83691954Y-153762875D02*
G01*
X83772035Y-153820597D01*
X83823931Y-153904571D01*
X83839900Y-153993033D01*
X83839900Y-157094499D01*
X83820642Y-157191318D01*
X83765798Y-157273397D01*
X83683719Y-157328241D01*
X83586900Y-157347499D01*
X81783500Y-157347499D01*
X81686681Y-157328241D01*
X81604602Y-157273397D01*
X81549758Y-157191318D01*
X81530500Y-157094499D01*
X81530500Y-154011500D01*
X81549758Y-153914681D01*
X81604602Y-153832602D01*
X81686681Y-153777758D01*
X81783500Y-153758500D01*
X83448635Y-153758500D01*
X83448638Y-153758500D01*
X83468592Y-153756354D01*
X83509197Y-153751990D01*
X83524601Y-153748350D01*
X83525376Y-153751631D01*
X83595880Y-153740192D01*
X83691954Y-153762875D01*
G37*
%TD.AperFunction*%
%TA.AperFunction,NonConductor*%
G36*
X83683719Y-159638357D02*
G01*
X83765798Y-159693201D01*
X83820642Y-159775280D01*
X83839900Y-159872099D01*
X83839900Y-160201161D01*
X83820642Y-160297980D01*
X83765798Y-160380059D01*
X83683719Y-160434903D01*
X83586900Y-160454161D01*
X83519427Y-160443365D01*
X83519228Y-160444218D01*
X83508474Y-160441699D01*
X83363806Y-160420899D01*
X83363801Y-160420899D01*
X83348994Y-160420899D01*
X83336128Y-160420243D01*
X83250547Y-160411500D01*
X81849458Y-160411500D01*
X81849453Y-160411501D01*
X81809207Y-160415612D01*
X81710933Y-160406291D01*
X81623706Y-160360071D01*
X81560806Y-160283989D01*
X81531809Y-160189628D01*
X81530500Y-160163921D01*
X81530500Y-159876078D01*
X81549758Y-159779259D01*
X81604602Y-159697180D01*
X81686681Y-159642336D01*
X81783500Y-159623078D01*
X81809212Y-159624388D01*
X81849455Y-159628500D01*
X83250544Y-159628499D01*
X83336155Y-159619753D01*
X83349009Y-159619099D01*
X83586900Y-159619099D01*
X83683719Y-159638357D01*
G37*
%TD.AperFunction*%
%TA.AperFunction,NonConductor*%
G36*
X89269084Y-153758500D02*
G01*
X90936500Y-153758500D01*
X91033319Y-153777758D01*
X91115398Y-153832602D01*
X91170242Y-153914681D01*
X91189500Y-154011500D01*
X91189500Y-166028500D01*
X91170242Y-166125319D01*
X91115398Y-166207398D01*
X91033319Y-166262242D01*
X90936500Y-166281500D01*
X89264587Y-166281500D01*
X89264587Y-166280080D01*
X89175904Y-166267319D01*
X89091013Y-166216938D01*
X89031863Y-166137905D01*
X89007461Y-166042253D01*
X89007100Y-166028740D01*
X89007100Y-154011259D01*
X89026358Y-153914440D01*
X89081202Y-153832361D01*
X89163281Y-153777517D01*
X89260100Y-153758259D01*
X89269084Y-153758500D01*
G37*
%TD.AperFunction*%
%TA.AperFunction,NonConductor*%
G36*
X83686484Y-163392403D02*
G01*
X83767907Y-163448216D01*
X83821773Y-163530940D01*
X83839900Y-163624980D01*
X83839900Y-166046966D01*
X83820642Y-166143785D01*
X83765798Y-166225864D01*
X83683719Y-166280708D01*
X83586900Y-166299966D01*
X83525263Y-166288846D01*
X83524601Y-166291650D01*
X83509197Y-166288009D01*
X83448654Y-166281501D01*
X83448640Y-166281500D01*
X83448638Y-166281500D01*
X81783500Y-166281500D01*
X81686681Y-166262242D01*
X81604602Y-166207398D01*
X81549758Y-166125319D01*
X81530500Y-166028500D01*
X81530500Y-163656699D01*
X81549758Y-163559880D01*
X81604602Y-163477801D01*
X81686681Y-163422957D01*
X81783500Y-163403699D01*
X83375001Y-163403699D01*
X83386189Y-163403210D01*
X83397379Y-163402722D01*
X83421595Y-163400604D01*
X83497916Y-163388083D01*
X83497921Y-163388081D01*
X83511226Y-163384375D01*
X83511836Y-163386565D01*
X83589901Y-163371998D01*
X83686484Y-163392403D01*
G37*
%TD.AperFunction*%
%TA.AperFunction,NonConductor*%
G36*
X89269084Y-168998500D02*
G01*
X90936500Y-168998500D01*
X91033319Y-169017758D01*
X91115398Y-169072602D01*
X91170242Y-169154681D01*
X91189500Y-169251500D01*
X91189500Y-173648500D01*
X91170242Y-173745319D01*
X91115398Y-173827398D01*
X91033319Y-173882242D01*
X90936500Y-173901500D01*
X89264587Y-173901500D01*
X89264587Y-173900080D01*
X89175904Y-173887319D01*
X89091013Y-173836938D01*
X89031863Y-173757905D01*
X89007461Y-173662253D01*
X89007100Y-173648740D01*
X89007100Y-169251259D01*
X89026358Y-169154440D01*
X89081202Y-169072361D01*
X89163281Y-169017517D01*
X89260100Y-168998259D01*
X89269084Y-168998500D01*
G37*
%TD.AperFunction*%
%TA.AperFunction,NonConductor*%
G36*
X83691954Y-169002875D02*
G01*
X83772035Y-169060597D01*
X83823931Y-169144571D01*
X83839900Y-169233033D01*
X83839900Y-173666966D01*
X83820642Y-173763785D01*
X83765798Y-173845864D01*
X83683719Y-173900708D01*
X83586900Y-173919966D01*
X83525263Y-173908846D01*
X83524601Y-173911650D01*
X83509197Y-173908009D01*
X83448654Y-173901501D01*
X83448640Y-173901500D01*
X83448638Y-173901500D01*
X81783500Y-173901500D01*
X81686681Y-173882242D01*
X81604602Y-173827398D01*
X81549758Y-173745319D01*
X81530500Y-173648500D01*
X81530500Y-169251500D01*
X81549758Y-169154681D01*
X81604602Y-169072602D01*
X81686681Y-169017758D01*
X81783500Y-168998500D01*
X83448635Y-168998500D01*
X83448638Y-168998500D01*
X83468592Y-168996354D01*
X83509197Y-168991990D01*
X83524601Y-168988350D01*
X83525376Y-168991631D01*
X83595880Y-168980192D01*
X83691954Y-169002875D01*
G37*
%TD.AperFunction*%
%TA.AperFunction,NonConductor*%
G36*
X83932756Y-179081462D02*
G01*
X83981132Y-179118733D01*
X84075808Y-179211917D01*
X84075810Y-179211918D01*
X84075814Y-179211921D01*
X84204635Y-179280939D01*
X84252977Y-179298534D01*
X84281369Y-179307859D01*
X84283930Y-179308700D01*
X84428600Y-179329500D01*
X84428604Y-179329500D01*
X85143102Y-179329500D01*
X85165478Y-179328523D01*
X85189694Y-179326406D01*
X85251925Y-179316195D01*
X85306435Y-179313221D01*
X85311350Y-179313484D01*
X85311362Y-179313486D01*
X85311374Y-179313486D01*
X86108637Y-179313486D01*
X86108638Y-179313486D01*
X86127488Y-179311459D01*
X86190536Y-179312582D01*
X86308200Y-179329500D01*
X86308204Y-179329500D01*
X86443102Y-179329500D01*
X86465478Y-179328523D01*
X86489694Y-179326406D01*
X86551925Y-179316195D01*
X86606435Y-179313221D01*
X86611350Y-179313484D01*
X86611362Y-179313486D01*
X86611374Y-179313486D01*
X87408636Y-179313486D01*
X87408638Y-179313486D01*
X87415985Y-179312696D01*
X87479041Y-179313819D01*
X87588100Y-179329500D01*
X87588104Y-179329500D01*
X88429602Y-179329500D01*
X88440790Y-179329011D01*
X88451980Y-179328523D01*
X88476196Y-179326405D01*
X88552517Y-179313884D01*
X88688205Y-179259564D01*
X88732754Y-179233844D01*
X88786992Y-179197758D01*
X88818696Y-179165545D01*
X88900333Y-179110055D01*
X88996995Y-179090027D01*
X89087419Y-179105970D01*
X89210799Y-179151989D01*
X89210802Y-179151989D01*
X89210804Y-179151990D01*
X89210802Y-179151990D01*
X89259065Y-179157178D01*
X89271362Y-179158500D01*
X89271365Y-179158500D01*
X90852214Y-179158500D01*
X90949033Y-179177758D01*
X91031112Y-179232602D01*
X91085956Y-179314681D01*
X91105214Y-179411500D01*
X91085956Y-179508319D01*
X91081510Y-179518422D01*
X91062266Y-179559691D01*
X91040215Y-179597885D01*
X90963678Y-179707190D01*
X90935331Y-179740972D01*
X90840972Y-179835331D01*
X90807190Y-179863678D01*
X90697885Y-179940215D01*
X90659691Y-179962266D01*
X90538746Y-180018663D01*
X90497307Y-180033746D01*
X90411946Y-180056618D01*
X90368412Y-180068283D01*
X90324983Y-180075941D01*
X90175508Y-180089018D01*
X90164477Y-180089500D01*
X82555523Y-180089500D01*
X82544493Y-180089018D01*
X82395016Y-180075941D01*
X82351588Y-180068284D01*
X82266222Y-180045410D01*
X82222692Y-180033746D01*
X82181253Y-180018663D01*
X82060308Y-179962266D01*
X82022122Y-179940219D01*
X81912805Y-179863675D01*
X81879027Y-179835331D01*
X81784668Y-179740972D01*
X81756325Y-179707195D01*
X81679777Y-179597874D01*
X81657731Y-179559687D01*
X81638488Y-179518418D01*
X81615027Y-179422530D01*
X81630046Y-179324964D01*
X81681258Y-179240572D01*
X81760868Y-179182202D01*
X81856756Y-179158741D01*
X81867786Y-179158500D01*
X83448635Y-179158500D01*
X83448638Y-179158500D01*
X83471479Y-179156044D01*
X83509196Y-179151990D01*
X83509197Y-179151989D01*
X83509201Y-179151989D01*
X83646204Y-179100889D01*
X83652042Y-179096518D01*
X83741089Y-179053911D01*
X83839663Y-179048624D01*
X83932756Y-179081462D01*
G37*
%TD.AperFunction*%
%TA.AperFunction,Conductor*%
G36*
X83183537Y-95165993D02*
G01*
X83209257Y-95210542D01*
X83210399Y-95223600D01*
X83210399Y-97002600D01*
X83210400Y-97002600D01*
X83210400Y-98171000D01*
X81710799Y-98171000D01*
X81662461Y-98153407D01*
X81636741Y-98108858D01*
X81635599Y-98095811D01*
X81635599Y-95223600D01*
X81653192Y-95175263D01*
X81697741Y-95149543D01*
X81710788Y-95148401D01*
X83135199Y-95148400D01*
X83183537Y-95165993D01*
G37*
%TD.AperFunction*%
M02*
