G04 #@! TF.GenerationSoftware,KiCad,Pcbnew,(6.0.4)*
G04 #@! TF.CreationDate,2023-09-17T11:04:34-06:00*
G04 #@! TF.ProjectId,RP2040-Breadstick,52503230-3430-42d4-9272-656164737469,0.2*
G04 #@! TF.SameCoordinates,Original*
G04 #@! TF.FileFunction,Copper,L5,Inr*
G04 #@! TF.FilePolarity,Positive*
%FSLAX46Y46*%
G04 Gerber Fmt 4.6, Leading zero omitted, Abs format (unit mm)*
G04 Created by KiCad (PCBNEW (6.0.4)) date 2023-09-17 11:04:34*
%MOMM*%
%LPD*%
G01*
G04 APERTURE LIST*
G04 #@! TA.AperFunction,ComponentPad*
%ADD10O,1.000000X2.200000*%
G04 #@! TD*
G04 #@! TA.AperFunction,ComponentPad*
%ADD11O,1.000000X1.800000*%
G04 #@! TD*
G04 #@! TA.AperFunction,ComponentPad*
%ADD12R,1.700000X1.700000*%
G04 #@! TD*
G04 #@! TA.AperFunction,ViaPad*
%ADD13C,0.700000*%
G04 #@! TD*
G04 APERTURE END LIST*
D10*
X90680000Y-19048199D03*
X82040000Y-19048199D03*
D11*
X90680000Y-23048200D03*
X82040000Y-23048200D03*
D12*
X82550000Y-152400000D03*
X90170000Y-38100000D03*
X82550000Y-27940000D03*
X82550000Y-76200000D03*
X90170000Y-152400000D03*
X90170000Y-175260000D03*
X82550000Y-177800000D03*
X82550000Y-45720000D03*
X90170000Y-35560000D03*
X90170000Y-167640000D03*
X90170000Y-45720000D03*
X82550000Y-137160000D03*
X82550000Y-30480000D03*
X82550000Y-167640000D03*
X82550000Y-35560000D03*
X90170000Y-33020000D03*
X82550000Y-91440000D03*
X90170000Y-60960000D03*
X82550000Y-60960000D03*
X90170000Y-30480000D03*
X90170000Y-27940000D03*
X90170000Y-76200000D03*
X82550000Y-33020000D03*
X90170000Y-177800000D03*
X82550000Y-38100000D03*
X82550000Y-106680000D03*
X90170000Y-106680000D03*
X90170000Y-91440000D03*
X90170000Y-137160000D03*
X90170000Y-121920000D03*
X82550000Y-121920000D03*
X82550000Y-175260000D03*
D13*
X90450503Y-78562200D03*
X90424000Y-80645000D03*
X86360000Y-119380000D03*
X86360000Y-26314400D03*
X83160001Y-22554799D03*
X86360000Y-127000000D03*
X86360000Y-100965000D03*
X86360000Y-111760000D03*
X87477600Y-69621400D03*
X83058000Y-132054600D03*
X87376000Y-67818000D03*
X89560001Y-22555599D03*
X86360000Y-108585000D03*
X86360000Y-97155000D03*
X86360000Y-146050000D03*
X86360000Y-160655000D03*
X90579989Y-73025000D03*
X83083400Y-101600000D03*
X86360000Y-138430000D03*
X86360000Y-172085000D03*
X86360000Y-81203800D03*
X90525600Y-25146000D03*
X87600000Y-63130000D03*
X89789000Y-51435000D03*
X86360000Y-149860000D03*
X86360000Y-134620000D03*
X83566000Y-40259000D03*
X83800199Y-85708587D03*
X87122000Y-53594000D03*
X86360000Y-130810000D03*
X89550000Y-24810000D03*
X86360000Y-164465000D03*
X83160001Y-25196399D03*
X86487000Y-66395600D03*
X82042000Y-162534600D03*
X83439000Y-48768000D03*
X86360000Y-123190000D03*
X86360000Y-153670000D03*
X86227777Y-76903063D03*
X86360000Y-43688000D03*
X83846437Y-66895685D03*
X82748979Y-88726421D03*
X86360000Y-115570000D03*
X83083400Y-162534600D03*
X82016600Y-132054600D03*
X88773000Y-67056000D03*
X86360000Y-104775000D03*
X86360000Y-168275000D03*
X86360000Y-156845000D03*
X82003310Y-67288648D03*
X86360000Y-142240000D03*
X87122000Y-56134000D03*
X82042000Y-101600000D03*
X86360000Y-175895000D03*
X86360000Y-42799000D03*
X89516200Y-57429400D03*
X87505892Y-66062725D03*
X87178889Y-72940000D03*
X84133900Y-67697620D03*
X82009339Y-68153367D03*
X83944621Y-69039579D03*
X89008237Y-56648535D03*
X85955669Y-25476772D03*
X89958237Y-56648535D03*
X86807546Y-25470197D03*
X87347767Y-71103250D03*
X88873071Y-66066855D03*
X90709595Y-67009238D03*
X90716395Y-67861113D03*
X88199607Y-71092861D03*
X81991200Y-25196800D03*
X84633903Y-24586097D03*
X83502739Y-49894143D03*
X82550000Y-58928000D03*
X88750937Y-73660948D03*
X88873100Y-67970000D03*
X90718100Y-69564917D03*
X90716900Y-68713015D03*
X88779481Y-68817922D03*
X90718100Y-70416819D03*
X85938111Y-70950000D03*
X83980000Y-79630000D03*
X82143611Y-79600000D03*
X89408000Y-43688000D03*
X81965800Y-69291200D03*
X89408000Y-42799000D03*
X82550000Y-64643000D03*
X82702400Y-87503000D03*
X88750000Y-64520000D03*
X86758100Y-64520900D03*
X83388200Y-51511200D03*
X88816066Y-69669039D03*
X83312000Y-43688000D03*
X83312000Y-42799000D03*
X90424000Y-79629000D03*
X85806286Y-64300634D03*
X85092620Y-51239135D03*
X85547518Y-63488984D03*
X86360000Y-51231800D03*
X85490000Y-62620000D03*
X87630000Y-51231800D03*
X84308098Y-69926200D03*
X81990000Y-70205600D03*
X82014265Y-71379914D03*
X90398600Y-72186800D03*
X90716900Y-71268721D03*
G04 #@! TA.AperFunction,Conductor*
G36*
X90152590Y-16761945D02*
G01*
X90162735Y-16763963D01*
X90162736Y-16763963D01*
X90170000Y-16765408D01*
X90177264Y-16763963D01*
X90178993Y-16763963D01*
X90197833Y-16762935D01*
X90340479Y-16775415D01*
X90353388Y-16777691D01*
X90512338Y-16820281D01*
X90524656Y-16824765D01*
X90673791Y-16894308D01*
X90685135Y-16900858D01*
X90763681Y-16955856D01*
X90819935Y-16995246D01*
X90829976Y-17003672D01*
X90946328Y-17120024D01*
X90954754Y-17130065D01*
X91049140Y-17264861D01*
X91055694Y-17276213D01*
X91125235Y-17425344D01*
X91129719Y-17437662D01*
X91172309Y-17596612D01*
X91174585Y-17609521D01*
X91187065Y-17752167D01*
X91186037Y-17771007D01*
X91186037Y-17772736D01*
X91184592Y-17780000D01*
X91186037Y-17787264D01*
X91186037Y-17787265D01*
X91188055Y-17797410D01*
X91189500Y-17812081D01*
X91189500Y-17862529D01*
X91171907Y-17910867D01*
X91127358Y-17936587D01*
X91076700Y-17927654D01*
X91066365Y-17920471D01*
X91036264Y-17895569D01*
X91032622Y-17892556D01*
X90883361Y-17822319D01*
X90878713Y-17821432D01*
X90878712Y-17821432D01*
X90725972Y-17792296D01*
X90721322Y-17791409D01*
X90716600Y-17791706D01*
X90716599Y-17791706D01*
X90561404Y-17801470D01*
X90561403Y-17801470D01*
X90556686Y-17801767D01*
X90513278Y-17815871D01*
X90404294Y-17851281D01*
X90404291Y-17851283D01*
X90399799Y-17852742D01*
X90260518Y-17941133D01*
X90147595Y-18061384D01*
X90068124Y-18205940D01*
X90027100Y-18365719D01*
X90027100Y-19689274D01*
X90042586Y-19811859D01*
X90103312Y-19965236D01*
X90106092Y-19969063D01*
X90106093Y-19969064D01*
X90154009Y-20035014D01*
X90200274Y-20098692D01*
X90327378Y-20203842D01*
X90476639Y-20274079D01*
X90481287Y-20274966D01*
X90481288Y-20274966D01*
X90576719Y-20293170D01*
X90638678Y-20304989D01*
X90643400Y-20304692D01*
X90643401Y-20304692D01*
X90798596Y-20294928D01*
X90798597Y-20294928D01*
X90803314Y-20294631D01*
X90846722Y-20280527D01*
X90955706Y-20245117D01*
X90955709Y-20245115D01*
X90960201Y-20243656D01*
X91053860Y-20184218D01*
X91074006Y-20171433D01*
X91124246Y-20160387D01*
X91169832Y-20184218D01*
X91189500Y-20234926D01*
X91189500Y-22062530D01*
X91171907Y-22110868D01*
X91127358Y-22136588D01*
X91076700Y-22127655D01*
X91066365Y-22120472D01*
X91036264Y-22095570D01*
X91032622Y-22092557D01*
X90883361Y-22022320D01*
X90878713Y-22021433D01*
X90878712Y-22021433D01*
X90725972Y-21992297D01*
X90721322Y-21991410D01*
X90716600Y-21991707D01*
X90716599Y-21991707D01*
X90561404Y-22001471D01*
X90561403Y-22001471D01*
X90556686Y-22001768D01*
X90513278Y-22015872D01*
X90404294Y-22051282D01*
X90404291Y-22051284D01*
X90399799Y-22052743D01*
X90260518Y-22141134D01*
X90147595Y-22261385D01*
X90068124Y-22405941D01*
X90027100Y-22565720D01*
X90027100Y-23489275D01*
X90042586Y-23611860D01*
X90103312Y-23765237D01*
X90106092Y-23769064D01*
X90106093Y-23769065D01*
X90154009Y-23835015D01*
X90200274Y-23898693D01*
X90327378Y-24003843D01*
X90476639Y-24074080D01*
X90481287Y-24074967D01*
X90481288Y-24074967D01*
X90534629Y-24085142D01*
X90638678Y-24104990D01*
X90643400Y-24104693D01*
X90643401Y-24104693D01*
X90798596Y-24094929D01*
X90798597Y-24094929D01*
X90803314Y-24094632D01*
X90846722Y-24080528D01*
X90955706Y-24045118D01*
X90955709Y-24045116D01*
X90960201Y-24043657D01*
X91053860Y-23984219D01*
X91074006Y-23971434D01*
X91124246Y-23960388D01*
X91169832Y-23984219D01*
X91189500Y-24034927D01*
X91189500Y-26880490D01*
X91171907Y-26928828D01*
X91127358Y-26954548D01*
X91085656Y-26949980D01*
X91079658Y-26945972D01*
X91035057Y-26937100D01*
X90170118Y-26937100D01*
X89304944Y-26937101D01*
X89260342Y-26945972D01*
X89209766Y-26979766D01*
X89175972Y-27030342D01*
X89167100Y-27074943D01*
X89167101Y-28805056D01*
X89175972Y-28849658D01*
X89209766Y-28900234D01*
X89215923Y-28904348D01*
X89254183Y-28929913D01*
X89254184Y-28929914D01*
X89260342Y-28934028D01*
X89304943Y-28942900D01*
X90169882Y-28942900D01*
X91035056Y-28942899D01*
X91059750Y-28937988D01*
X91072389Y-28935474D01*
X91072390Y-28935474D01*
X91079658Y-28934028D01*
X91085643Y-28930029D01*
X91136913Y-28927791D01*
X91177723Y-28959105D01*
X91189500Y-28999510D01*
X91189500Y-29420490D01*
X91171907Y-29468828D01*
X91127358Y-29494548D01*
X91085656Y-29489980D01*
X91079658Y-29485972D01*
X91035057Y-29477100D01*
X90170118Y-29477100D01*
X89304944Y-29477101D01*
X89260342Y-29485972D01*
X89209766Y-29519766D01*
X89175972Y-29570342D01*
X89167100Y-29614943D01*
X89167101Y-31345056D01*
X89175972Y-31389658D01*
X89209766Y-31440234D01*
X89215923Y-31444348D01*
X89254183Y-31469913D01*
X89254184Y-31469914D01*
X89260342Y-31474028D01*
X89304943Y-31482900D01*
X90169882Y-31482900D01*
X91035056Y-31482899D01*
X91059750Y-31477988D01*
X91072389Y-31475474D01*
X91072390Y-31475474D01*
X91079658Y-31474028D01*
X91085643Y-31470029D01*
X91136913Y-31467791D01*
X91177723Y-31499105D01*
X91189500Y-31539510D01*
X91189500Y-34500490D01*
X91171907Y-34548828D01*
X91127358Y-34574548D01*
X91085656Y-34569980D01*
X91079658Y-34565972D01*
X91035057Y-34557100D01*
X90170118Y-34557100D01*
X89304944Y-34557101D01*
X89260342Y-34565972D01*
X89209766Y-34599766D01*
X89175972Y-34650342D01*
X89167100Y-34694943D01*
X89167101Y-36425056D01*
X89175972Y-36469658D01*
X89209766Y-36520234D01*
X89215923Y-36524348D01*
X89254183Y-36549913D01*
X89254184Y-36549914D01*
X89260342Y-36554028D01*
X89304943Y-36562900D01*
X90169882Y-36562900D01*
X91035056Y-36562899D01*
X91059750Y-36557988D01*
X91072389Y-36555474D01*
X91072390Y-36555474D01*
X91079658Y-36554028D01*
X91085643Y-36550029D01*
X91136913Y-36547791D01*
X91177723Y-36579105D01*
X91189500Y-36619510D01*
X91189500Y-37040490D01*
X91171907Y-37088828D01*
X91127358Y-37114548D01*
X91085656Y-37109980D01*
X91079658Y-37105972D01*
X91035057Y-37097100D01*
X90170118Y-37097100D01*
X89304944Y-37097101D01*
X89260342Y-37105972D01*
X89209766Y-37139766D01*
X89175972Y-37190342D01*
X89167100Y-37234943D01*
X89167101Y-38965056D01*
X89175972Y-39009658D01*
X89209766Y-39060234D01*
X89215923Y-39064348D01*
X89254183Y-39089913D01*
X89254184Y-39089914D01*
X89260342Y-39094028D01*
X89304943Y-39102900D01*
X90169882Y-39102900D01*
X91035056Y-39102899D01*
X91059750Y-39097988D01*
X91072389Y-39095474D01*
X91072390Y-39095474D01*
X91079658Y-39094028D01*
X91085643Y-39090029D01*
X91136913Y-39087791D01*
X91177723Y-39119105D01*
X91189500Y-39159510D01*
X91189500Y-44660490D01*
X91171907Y-44708828D01*
X91127358Y-44734548D01*
X91085656Y-44729980D01*
X91079658Y-44725972D01*
X91035057Y-44717100D01*
X90170118Y-44717100D01*
X89304944Y-44717101D01*
X89260342Y-44725972D01*
X89209766Y-44759766D01*
X89175972Y-44810342D01*
X89167100Y-44854943D01*
X89167101Y-46585056D01*
X89175972Y-46629658D01*
X89209766Y-46680234D01*
X89215923Y-46684348D01*
X89254183Y-46709913D01*
X89254184Y-46709914D01*
X89260342Y-46714028D01*
X89304943Y-46722900D01*
X90169883Y-46722900D01*
X91035056Y-46722899D01*
X91059750Y-46717988D01*
X91072389Y-46715474D01*
X91072390Y-46715474D01*
X91079658Y-46714028D01*
X91085643Y-46710029D01*
X91136913Y-46707791D01*
X91177723Y-46739105D01*
X91189500Y-46779510D01*
X91189500Y-59900490D01*
X91171907Y-59948828D01*
X91127358Y-59974548D01*
X91085656Y-59969980D01*
X91079658Y-59965972D01*
X91035057Y-59957100D01*
X90170118Y-59957100D01*
X89304944Y-59957101D01*
X89260342Y-59965972D01*
X89209766Y-59999766D01*
X89175972Y-60050342D01*
X89167100Y-60094943D01*
X89167101Y-61825056D01*
X89175972Y-61869658D01*
X89209766Y-61920234D01*
X89215923Y-61924348D01*
X89254183Y-61949913D01*
X89254184Y-61949914D01*
X89260342Y-61954028D01*
X89304943Y-61962900D01*
X90169883Y-61962900D01*
X91035056Y-61962899D01*
X91059750Y-61957988D01*
X91072389Y-61955474D01*
X91072390Y-61955474D01*
X91079658Y-61954028D01*
X91085643Y-61950029D01*
X91136913Y-61947791D01*
X91177723Y-61979105D01*
X91189500Y-62019510D01*
X91189500Y-66593235D01*
X91171907Y-66641573D01*
X91127358Y-66667293D01*
X91076700Y-66658360D01*
X91057332Y-66642323D01*
X91047086Y-66630432D01*
X91047080Y-66630427D01*
X91043588Y-66626374D01*
X91039097Y-66623463D01*
X90927199Y-66550935D01*
X90927198Y-66550935D01*
X90922706Y-66548023D01*
X90846507Y-66525235D01*
X90789827Y-66508283D01*
X90789824Y-66508283D01*
X90784693Y-66506748D01*
X90779338Y-66506715D01*
X90779336Y-66506715D01*
X90714119Y-66506317D01*
X90640642Y-66505868D01*
X90635492Y-66507340D01*
X90635491Y-66507340D01*
X90581043Y-66522901D01*
X90502134Y-66545453D01*
X90497608Y-66548309D01*
X90497605Y-66548310D01*
X90426404Y-66593235D01*
X90380304Y-66622322D01*
X90373142Y-66630432D01*
X90288492Y-66726279D01*
X90288490Y-66726282D01*
X90284946Y-66730295D01*
X90223724Y-66860692D01*
X90201562Y-67003031D01*
X90220240Y-67145868D01*
X90278257Y-67277722D01*
X90281702Y-67281820D01*
X90281703Y-67281822D01*
X90370949Y-67387993D01*
X90370016Y-67388777D01*
X90391609Y-67429043D01*
X90381092Y-67479396D01*
X90373543Y-67489552D01*
X90295292Y-67578154D01*
X90295290Y-67578157D01*
X90291746Y-67582170D01*
X90287511Y-67591190D01*
X90237542Y-67697620D01*
X90230524Y-67712567D01*
X90208362Y-67854906D01*
X90209056Y-67860213D01*
X90209056Y-67860216D01*
X90217179Y-67922333D01*
X90227040Y-67997743D01*
X90285057Y-68129597D01*
X90288502Y-68133695D01*
X90288503Y-68133697D01*
X90377749Y-68239868D01*
X90375551Y-68241716D01*
X90394897Y-68277732D01*
X90384416Y-68328092D01*
X90376840Y-68338293D01*
X90363268Y-68353660D01*
X90295797Y-68430056D01*
X90295795Y-68430059D01*
X90292251Y-68434072D01*
X90288786Y-68441452D01*
X90240721Y-68543827D01*
X90231029Y-68564469D01*
X90230205Y-68569759D01*
X90230205Y-68569760D01*
X90228821Y-68578651D01*
X90208867Y-68706808D01*
X90227545Y-68849645D01*
X90269480Y-68944950D01*
X90275866Y-68959462D01*
X90285562Y-68981499D01*
X90289007Y-68985597D01*
X90289008Y-68985599D01*
X90378254Y-69091770D01*
X90376200Y-69093496D01*
X90395795Y-69130018D01*
X90385289Y-69180374D01*
X90377732Y-69190543D01*
X90296997Y-69281958D01*
X90296995Y-69281961D01*
X90293451Y-69285974D01*
X90283822Y-69306483D01*
X90242120Y-69395305D01*
X90232229Y-69416371D01*
X90210067Y-69558710D01*
X90210761Y-69564017D01*
X90210761Y-69564020D01*
X90212757Y-69579285D01*
X90228745Y-69701547D01*
X90267183Y-69788904D01*
X90280788Y-69819823D01*
X90286762Y-69833401D01*
X90290207Y-69837499D01*
X90290208Y-69837501D01*
X90379454Y-69943672D01*
X90376934Y-69945791D01*
X90396088Y-69979786D01*
X90386624Y-70030347D01*
X90378265Y-70041842D01*
X90293451Y-70137876D01*
X90232229Y-70268273D01*
X90231405Y-70273563D01*
X90231405Y-70273564D01*
X90225244Y-70313134D01*
X90210067Y-70410612D01*
X90210761Y-70415919D01*
X90210761Y-70415922D01*
X90214892Y-70447510D01*
X90228745Y-70553449D01*
X90263279Y-70631933D01*
X90282786Y-70676266D01*
X90286762Y-70685303D01*
X90290207Y-70689401D01*
X90290208Y-70689403D01*
X90310927Y-70714051D01*
X90376389Y-70791927D01*
X90378875Y-70794885D01*
X90396511Y-70843207D01*
X90377677Y-70893051D01*
X90292251Y-70989778D01*
X90278561Y-71018937D01*
X90236678Y-71108144D01*
X90231029Y-71120175D01*
X90208867Y-71262514D01*
X90227545Y-71405351D01*
X90285562Y-71537205D01*
X90318555Y-71576455D01*
X90336190Y-71624775D01*
X90318639Y-71673128D01*
X90281655Y-71697146D01*
X90191139Y-71723015D01*
X90186613Y-71725871D01*
X90186610Y-71725872D01*
X90112082Y-71772896D01*
X90069309Y-71799884D01*
X90052332Y-71819107D01*
X89977497Y-71903841D01*
X89977495Y-71903844D01*
X89973951Y-71907857D01*
X89912729Y-72038254D01*
X89890567Y-72180593D01*
X89891261Y-72185900D01*
X89891261Y-72185903D01*
X89891759Y-72189709D01*
X89909245Y-72323430D01*
X89951180Y-72418735D01*
X89959069Y-72436663D01*
X89967262Y-72455284D01*
X89970707Y-72459382D01*
X89970708Y-72459384D01*
X89987258Y-72479072D01*
X90059954Y-72565555D01*
X90179870Y-72645377D01*
X90317369Y-72688335D01*
X90391471Y-72689693D01*
X90456036Y-72690877D01*
X90456038Y-72690877D01*
X90461398Y-72690975D01*
X90466569Y-72689565D01*
X90466571Y-72689565D01*
X90566923Y-72662206D01*
X90600379Y-72653085D01*
X90653471Y-72620486D01*
X90718570Y-72580516D01*
X90718573Y-72580514D01*
X90723139Y-72577710D01*
X90745430Y-72553084D01*
X90816212Y-72474885D01*
X90819810Y-72470910D01*
X90825395Y-72459384D01*
X90880282Y-72346096D01*
X90880282Y-72346095D01*
X90882620Y-72341270D01*
X90906519Y-72199213D01*
X90906671Y-72186800D01*
X90906259Y-72183920D01*
X90887009Y-72049504D01*
X90887008Y-72049500D01*
X90886249Y-72044201D01*
X90826626Y-71913066D01*
X90823127Y-71909006D01*
X90823125Y-71909002D01*
X90797696Y-71879491D01*
X90779470Y-71831389D01*
X90796429Y-71782824D01*
X90834884Y-71757851D01*
X90885795Y-71743971D01*
X90918679Y-71735006D01*
X91002679Y-71683430D01*
X91036870Y-71662437D01*
X91036873Y-71662435D01*
X91041439Y-71659631D01*
X91058548Y-71640730D01*
X91104029Y-71616699D01*
X91154316Y-71627525D01*
X91185880Y-71668143D01*
X91189500Y-71691194D01*
X91189500Y-75140490D01*
X91171907Y-75188828D01*
X91127358Y-75214548D01*
X91085656Y-75209980D01*
X91079658Y-75205972D01*
X91035057Y-75197100D01*
X90170118Y-75197100D01*
X89304944Y-75197101D01*
X89260342Y-75205972D01*
X89209766Y-75239766D01*
X89175972Y-75290342D01*
X89167100Y-75334943D01*
X89167101Y-77065056D01*
X89175972Y-77109658D01*
X89209766Y-77160234D01*
X89215923Y-77164348D01*
X89254183Y-77189913D01*
X89254184Y-77189914D01*
X89260342Y-77194028D01*
X89304943Y-77202900D01*
X90169882Y-77202900D01*
X91035056Y-77202899D01*
X91059750Y-77197988D01*
X91072389Y-77195474D01*
X91072390Y-77195474D01*
X91079658Y-77194028D01*
X91085643Y-77190029D01*
X91136913Y-77187791D01*
X91177723Y-77219105D01*
X91189500Y-77259510D01*
X91189500Y-90380490D01*
X91171907Y-90428828D01*
X91127358Y-90454548D01*
X91085656Y-90449980D01*
X91079658Y-90445972D01*
X91035057Y-90437100D01*
X90170118Y-90437100D01*
X89304944Y-90437101D01*
X89260342Y-90445972D01*
X89209766Y-90479766D01*
X89175972Y-90530342D01*
X89167100Y-90574943D01*
X89167101Y-92305056D01*
X89175972Y-92349658D01*
X89209766Y-92400234D01*
X89215923Y-92404348D01*
X89254183Y-92429913D01*
X89254184Y-92429914D01*
X89260342Y-92434028D01*
X89304943Y-92442900D01*
X90169882Y-92442900D01*
X91035056Y-92442899D01*
X91059750Y-92437988D01*
X91072389Y-92435474D01*
X91072390Y-92435474D01*
X91079658Y-92434028D01*
X91085643Y-92430029D01*
X91136913Y-92427791D01*
X91177723Y-92459105D01*
X91189500Y-92499510D01*
X91189500Y-105620490D01*
X91171907Y-105668828D01*
X91127358Y-105694548D01*
X91085656Y-105689980D01*
X91079658Y-105685972D01*
X91035057Y-105677100D01*
X90170118Y-105677100D01*
X89304944Y-105677101D01*
X89260342Y-105685972D01*
X89209766Y-105719766D01*
X89175972Y-105770342D01*
X89167100Y-105814943D01*
X89167101Y-107545056D01*
X89175972Y-107589658D01*
X89209766Y-107640234D01*
X89215923Y-107644348D01*
X89254183Y-107669913D01*
X89254184Y-107669914D01*
X89260342Y-107674028D01*
X89304943Y-107682900D01*
X90169882Y-107682900D01*
X91035056Y-107682899D01*
X91059750Y-107677988D01*
X91072389Y-107675474D01*
X91072390Y-107675474D01*
X91079658Y-107674028D01*
X91085643Y-107670029D01*
X91136913Y-107667791D01*
X91177723Y-107699105D01*
X91189500Y-107739510D01*
X91189500Y-120860490D01*
X91171907Y-120908828D01*
X91127358Y-120934548D01*
X91085656Y-120929980D01*
X91079658Y-120925972D01*
X91035057Y-120917100D01*
X90170118Y-120917100D01*
X89304944Y-120917101D01*
X89260342Y-120925972D01*
X89209766Y-120959766D01*
X89175972Y-121010342D01*
X89167100Y-121054943D01*
X89167101Y-122785056D01*
X89175972Y-122829658D01*
X89209766Y-122880234D01*
X89215923Y-122884348D01*
X89254183Y-122909913D01*
X89254184Y-122909914D01*
X89260342Y-122914028D01*
X89304943Y-122922900D01*
X90169882Y-122922900D01*
X91035056Y-122922899D01*
X91059750Y-122917988D01*
X91072389Y-122915474D01*
X91072390Y-122915474D01*
X91079658Y-122914028D01*
X91085643Y-122910029D01*
X91136913Y-122907791D01*
X91177723Y-122939105D01*
X91189500Y-122979510D01*
X91189500Y-136100490D01*
X91171907Y-136148828D01*
X91127358Y-136174548D01*
X91085656Y-136169980D01*
X91079658Y-136165972D01*
X91035057Y-136157100D01*
X90170118Y-136157100D01*
X89304944Y-136157101D01*
X89260342Y-136165972D01*
X89209766Y-136199766D01*
X89175972Y-136250342D01*
X89167100Y-136294943D01*
X89167101Y-138025056D01*
X89175972Y-138069658D01*
X89209766Y-138120234D01*
X89215923Y-138124348D01*
X89254183Y-138149913D01*
X89254184Y-138149914D01*
X89260342Y-138154028D01*
X89304943Y-138162900D01*
X90169883Y-138162900D01*
X91035056Y-138162899D01*
X91059750Y-138157988D01*
X91072389Y-138155474D01*
X91072390Y-138155474D01*
X91079658Y-138154028D01*
X91085643Y-138150029D01*
X91136913Y-138147791D01*
X91177723Y-138179105D01*
X91189500Y-138219510D01*
X91189500Y-151340490D01*
X91171907Y-151388828D01*
X91127358Y-151414548D01*
X91085656Y-151409980D01*
X91079658Y-151405972D01*
X91035057Y-151397100D01*
X90170118Y-151397100D01*
X89304944Y-151397101D01*
X89260342Y-151405972D01*
X89209766Y-151439766D01*
X89175972Y-151490342D01*
X89167100Y-151534943D01*
X89167101Y-153265056D01*
X89175972Y-153309658D01*
X89209766Y-153360234D01*
X89215923Y-153364348D01*
X89254183Y-153389913D01*
X89254184Y-153389914D01*
X89260342Y-153394028D01*
X89304943Y-153402900D01*
X90169883Y-153402900D01*
X91035056Y-153402899D01*
X91059750Y-153397988D01*
X91072389Y-153395474D01*
X91072390Y-153395474D01*
X91079658Y-153394028D01*
X91085643Y-153390029D01*
X91136913Y-153387791D01*
X91177723Y-153419105D01*
X91189500Y-153459510D01*
X91189500Y-166580490D01*
X91171907Y-166628828D01*
X91127358Y-166654548D01*
X91085656Y-166649980D01*
X91079658Y-166645972D01*
X91035057Y-166637100D01*
X90170118Y-166637100D01*
X89304944Y-166637101D01*
X89260342Y-166645972D01*
X89209766Y-166679766D01*
X89175972Y-166730342D01*
X89167100Y-166774943D01*
X89167101Y-168505056D01*
X89175972Y-168549658D01*
X89209766Y-168600234D01*
X89215923Y-168604348D01*
X89254183Y-168629913D01*
X89254184Y-168629914D01*
X89260342Y-168634028D01*
X89304943Y-168642900D01*
X90169883Y-168642900D01*
X91035056Y-168642899D01*
X91059750Y-168637988D01*
X91072389Y-168635474D01*
X91072390Y-168635474D01*
X91079658Y-168634028D01*
X91085643Y-168630029D01*
X91136913Y-168627791D01*
X91177723Y-168659105D01*
X91189500Y-168699510D01*
X91189500Y-176740490D01*
X91171907Y-176788828D01*
X91127358Y-176814548D01*
X91085656Y-176809980D01*
X91079658Y-176805972D01*
X91035057Y-176797100D01*
X90170118Y-176797100D01*
X89304944Y-176797101D01*
X89260342Y-176805972D01*
X89209766Y-176839766D01*
X89175972Y-176890342D01*
X89167100Y-176934943D01*
X89167101Y-178665056D01*
X89175972Y-178709658D01*
X89209766Y-178760234D01*
X89215923Y-178764348D01*
X89254183Y-178789913D01*
X89254184Y-178789914D01*
X89260342Y-178794028D01*
X89304943Y-178802900D01*
X90169883Y-178802900D01*
X91035056Y-178802899D01*
X91059750Y-178797988D01*
X91072389Y-178795474D01*
X91072390Y-178795474D01*
X91079658Y-178794028D01*
X91085643Y-178790029D01*
X91136913Y-178787791D01*
X91177723Y-178819105D01*
X91189500Y-178859510D01*
X91189500Y-179037919D01*
X91188055Y-179052590D01*
X91184592Y-179070000D01*
X91186037Y-179077264D01*
X91186037Y-179078993D01*
X91187065Y-179097833D01*
X91174585Y-179240479D01*
X91172309Y-179253388D01*
X91129719Y-179412338D01*
X91125235Y-179424656D01*
X91055694Y-179573787D01*
X91049140Y-179585139D01*
X90954754Y-179719935D01*
X90946328Y-179729976D01*
X90829976Y-179846328D01*
X90819935Y-179854754D01*
X90685135Y-179949142D01*
X90673791Y-179955692D01*
X90524656Y-180025235D01*
X90512338Y-180029719D01*
X90353388Y-180072309D01*
X90340479Y-180074585D01*
X90197833Y-180087065D01*
X90178993Y-180086037D01*
X90177264Y-180086037D01*
X90170000Y-180084592D01*
X90162736Y-180086037D01*
X90162735Y-180086037D01*
X90152590Y-180088055D01*
X90137919Y-180089500D01*
X82582081Y-180089500D01*
X82567410Y-180088055D01*
X82557265Y-180086037D01*
X82557264Y-180086037D01*
X82550000Y-180084592D01*
X82542736Y-180086037D01*
X82541007Y-180086037D01*
X82522167Y-180087065D01*
X82379521Y-180074585D01*
X82366612Y-180072309D01*
X82207662Y-180029719D01*
X82195344Y-180025235D01*
X82046209Y-179955692D01*
X82034865Y-179949142D01*
X81900065Y-179854754D01*
X81890024Y-179846328D01*
X81773672Y-179729976D01*
X81765246Y-179719935D01*
X81670860Y-179585139D01*
X81664306Y-179573787D01*
X81594765Y-179424656D01*
X81590281Y-179412338D01*
X81547691Y-179253388D01*
X81545415Y-179240479D01*
X81532935Y-179097833D01*
X81533963Y-179078993D01*
X81533963Y-179077264D01*
X81535408Y-179070000D01*
X81531945Y-179052590D01*
X81530500Y-179037919D01*
X81530500Y-178859510D01*
X81548093Y-178811172D01*
X81592642Y-178785452D01*
X81634344Y-178790020D01*
X81640342Y-178794028D01*
X81684943Y-178802900D01*
X82549883Y-178802900D01*
X83415056Y-178802899D01*
X83459658Y-178794028D01*
X83510234Y-178760234D01*
X83544028Y-178709658D01*
X83552900Y-178665057D01*
X83552899Y-176934944D01*
X83544028Y-176890342D01*
X83510234Y-176839766D01*
X83472493Y-176814548D01*
X83465817Y-176810087D01*
X83465816Y-176810086D01*
X83459658Y-176805972D01*
X83415057Y-176797100D01*
X82550118Y-176797100D01*
X81684944Y-176797101D01*
X81660250Y-176802012D01*
X81647611Y-176804526D01*
X81647610Y-176804526D01*
X81640342Y-176805972D01*
X81634357Y-176809971D01*
X81583087Y-176812209D01*
X81542277Y-176780895D01*
X81530500Y-176740490D01*
X81530500Y-168699510D01*
X81548093Y-168651172D01*
X81592642Y-168625452D01*
X81634344Y-168630020D01*
X81640342Y-168634028D01*
X81684943Y-168642900D01*
X82549883Y-168642900D01*
X83415056Y-168642899D01*
X83459658Y-168634028D01*
X83510234Y-168600234D01*
X83544028Y-168549658D01*
X83552900Y-168505057D01*
X83552899Y-166774944D01*
X83544028Y-166730342D01*
X83510234Y-166679766D01*
X83472493Y-166654548D01*
X83465817Y-166650087D01*
X83465816Y-166650086D01*
X83459658Y-166645972D01*
X83415057Y-166637100D01*
X82550118Y-166637100D01*
X81684944Y-166637101D01*
X81660250Y-166642012D01*
X81647611Y-166644526D01*
X81647610Y-166644526D01*
X81640342Y-166645972D01*
X81634357Y-166649971D01*
X81583087Y-166652209D01*
X81542277Y-166620895D01*
X81530500Y-166580490D01*
X81530500Y-153459510D01*
X81548093Y-153411172D01*
X81592642Y-153385452D01*
X81634344Y-153390020D01*
X81640342Y-153394028D01*
X81684943Y-153402900D01*
X82549883Y-153402900D01*
X83415056Y-153402899D01*
X83459658Y-153394028D01*
X83510234Y-153360234D01*
X83544028Y-153309658D01*
X83552900Y-153265057D01*
X83552899Y-151534944D01*
X83544028Y-151490342D01*
X83510234Y-151439766D01*
X83472493Y-151414548D01*
X83465817Y-151410087D01*
X83465816Y-151410086D01*
X83459658Y-151405972D01*
X83415057Y-151397100D01*
X82550118Y-151397100D01*
X81684944Y-151397101D01*
X81660250Y-151402012D01*
X81647611Y-151404526D01*
X81647610Y-151404526D01*
X81640342Y-151405972D01*
X81634357Y-151409971D01*
X81583087Y-151412209D01*
X81542277Y-151380895D01*
X81530500Y-151340490D01*
X81530500Y-138219510D01*
X81548093Y-138171172D01*
X81592642Y-138145452D01*
X81634344Y-138150020D01*
X81640342Y-138154028D01*
X81684943Y-138162900D01*
X82549883Y-138162900D01*
X83415056Y-138162899D01*
X83459658Y-138154028D01*
X83510234Y-138120234D01*
X83544028Y-138069658D01*
X83552900Y-138025057D01*
X83552899Y-136294944D01*
X83544028Y-136250342D01*
X83510234Y-136199766D01*
X83472493Y-136174548D01*
X83465817Y-136170087D01*
X83465816Y-136170086D01*
X83459658Y-136165972D01*
X83415057Y-136157100D01*
X82550118Y-136157100D01*
X81684944Y-136157101D01*
X81660250Y-136162012D01*
X81647611Y-136164526D01*
X81647610Y-136164526D01*
X81640342Y-136165972D01*
X81634357Y-136169971D01*
X81583087Y-136172209D01*
X81542277Y-136140895D01*
X81530500Y-136100490D01*
X81530500Y-122979510D01*
X81548093Y-122931172D01*
X81592642Y-122905452D01*
X81634344Y-122910020D01*
X81640342Y-122914028D01*
X81684943Y-122922900D01*
X82549882Y-122922900D01*
X83415056Y-122922899D01*
X83459658Y-122914028D01*
X83510234Y-122880234D01*
X83544028Y-122829658D01*
X83552900Y-122785057D01*
X83552899Y-121054944D01*
X83544028Y-121010342D01*
X83510234Y-120959766D01*
X83472493Y-120934548D01*
X83465817Y-120930087D01*
X83465816Y-120930086D01*
X83459658Y-120925972D01*
X83415057Y-120917100D01*
X82550118Y-120917100D01*
X81684944Y-120917101D01*
X81660250Y-120922012D01*
X81647611Y-120924526D01*
X81647610Y-120924526D01*
X81640342Y-120925972D01*
X81634357Y-120929971D01*
X81583087Y-120932209D01*
X81542277Y-120900895D01*
X81530500Y-120860490D01*
X81530500Y-107739510D01*
X81548093Y-107691172D01*
X81592642Y-107665452D01*
X81634344Y-107670020D01*
X81640342Y-107674028D01*
X81684943Y-107682900D01*
X82549882Y-107682900D01*
X83415056Y-107682899D01*
X83459658Y-107674028D01*
X83510234Y-107640234D01*
X83544028Y-107589658D01*
X83552900Y-107545057D01*
X83552899Y-105814944D01*
X83544028Y-105770342D01*
X83510234Y-105719766D01*
X83472493Y-105694548D01*
X83465817Y-105690087D01*
X83465816Y-105690086D01*
X83459658Y-105685972D01*
X83415057Y-105677100D01*
X82550118Y-105677100D01*
X81684944Y-105677101D01*
X81660250Y-105682012D01*
X81647611Y-105684526D01*
X81647610Y-105684526D01*
X81640342Y-105685972D01*
X81634357Y-105689971D01*
X81583087Y-105692209D01*
X81542277Y-105660895D01*
X81530500Y-105620490D01*
X81530500Y-92499510D01*
X81548093Y-92451172D01*
X81592642Y-92425452D01*
X81634344Y-92430020D01*
X81640342Y-92434028D01*
X81684943Y-92442900D01*
X82549882Y-92442900D01*
X83415056Y-92442899D01*
X83459658Y-92434028D01*
X83510234Y-92400234D01*
X83544028Y-92349658D01*
X83552900Y-92305057D01*
X83552899Y-90574944D01*
X83544028Y-90530342D01*
X83510234Y-90479766D01*
X83472493Y-90454548D01*
X83465817Y-90450087D01*
X83465816Y-90450086D01*
X83459658Y-90445972D01*
X83415057Y-90437100D01*
X82550118Y-90437100D01*
X81684944Y-90437101D01*
X81660250Y-90442012D01*
X81647611Y-90444526D01*
X81647610Y-90444526D01*
X81640342Y-90445972D01*
X81634357Y-90449971D01*
X81583087Y-90452209D01*
X81542277Y-90420895D01*
X81530500Y-90380490D01*
X81530500Y-87496793D01*
X82194367Y-87496793D01*
X82195061Y-87502100D01*
X82195061Y-87502103D01*
X82195559Y-87505909D01*
X82213045Y-87639630D01*
X82271062Y-87771484D01*
X82363754Y-87881755D01*
X82483670Y-87961577D01*
X82621169Y-88004535D01*
X82695271Y-88005893D01*
X82759836Y-88007077D01*
X82759838Y-88007077D01*
X82765198Y-88007175D01*
X82770369Y-88005765D01*
X82770371Y-88005765D01*
X82846095Y-87985120D01*
X82904179Y-87969285D01*
X82957271Y-87936686D01*
X83022370Y-87896716D01*
X83022373Y-87896714D01*
X83026939Y-87893910D01*
X83123610Y-87787110D01*
X83129195Y-87775584D01*
X83184082Y-87662296D01*
X83184082Y-87662295D01*
X83186420Y-87657470D01*
X83210319Y-87515413D01*
X83210471Y-87503000D01*
X83210059Y-87500120D01*
X83190809Y-87365704D01*
X83190808Y-87365700D01*
X83190049Y-87360401D01*
X83130426Y-87229266D01*
X83125938Y-87224057D01*
X83039887Y-87124190D01*
X83039884Y-87124187D01*
X83036393Y-87120136D01*
X83031902Y-87117225D01*
X82920004Y-87044697D01*
X82920003Y-87044697D01*
X82915511Y-87041785D01*
X82839312Y-87018997D01*
X82782632Y-87002045D01*
X82782629Y-87002045D01*
X82777498Y-87000510D01*
X82772143Y-87000477D01*
X82772141Y-87000477D01*
X82706924Y-87000079D01*
X82633447Y-86999630D01*
X82628297Y-87001102D01*
X82628296Y-87001102D01*
X82564193Y-87019422D01*
X82494939Y-87039215D01*
X82490413Y-87042071D01*
X82490410Y-87042072D01*
X82377637Y-87113227D01*
X82373109Y-87116084D01*
X82365950Y-87124190D01*
X82281297Y-87220041D01*
X82281295Y-87220044D01*
X82277751Y-87224057D01*
X82216529Y-87354454D01*
X82194367Y-87496793D01*
X81530500Y-87496793D01*
X81530500Y-80638793D01*
X89915967Y-80638793D01*
X89916661Y-80644100D01*
X89916661Y-80644103D01*
X89917159Y-80647909D01*
X89934645Y-80781630D01*
X89992662Y-80913484D01*
X90085354Y-81023755D01*
X90205270Y-81103577D01*
X90342769Y-81146535D01*
X90416871Y-81147893D01*
X90481436Y-81149077D01*
X90481438Y-81149077D01*
X90486798Y-81149175D01*
X90491969Y-81147765D01*
X90491971Y-81147765D01*
X90567695Y-81127120D01*
X90625779Y-81111285D01*
X90678871Y-81078686D01*
X90743970Y-81038716D01*
X90743973Y-81038714D01*
X90748539Y-81035910D01*
X90845210Y-80929110D01*
X90850795Y-80917584D01*
X90905682Y-80804296D01*
X90905682Y-80804295D01*
X90908020Y-80799470D01*
X90931919Y-80657413D01*
X90932071Y-80645000D01*
X90931659Y-80642120D01*
X90912409Y-80507704D01*
X90912408Y-80507700D01*
X90911649Y-80502401D01*
X90852026Y-80371266D01*
X90847538Y-80366057D01*
X90761487Y-80266190D01*
X90761484Y-80266187D01*
X90757993Y-80262136D01*
X90753502Y-80259225D01*
X90661494Y-80199589D01*
X90630501Y-80158534D01*
X90633148Y-80107163D01*
X90663049Y-80072401D01*
X90743967Y-80022718D01*
X90743971Y-80022715D01*
X90748539Y-80019910D01*
X90845210Y-79913110D01*
X90850795Y-79901584D01*
X90905682Y-79788296D01*
X90905682Y-79788295D01*
X90908020Y-79783470D01*
X90931919Y-79641413D01*
X90932071Y-79629000D01*
X90931659Y-79626120D01*
X90912409Y-79491704D01*
X90912408Y-79491700D01*
X90911649Y-79486401D01*
X90907197Y-79476608D01*
X90854245Y-79360147D01*
X90852026Y-79355266D01*
X90848528Y-79351206D01*
X90761487Y-79250190D01*
X90761484Y-79250187D01*
X90757993Y-79246136D01*
X90753284Y-79243084D01*
X90641604Y-79170697D01*
X90641603Y-79170697D01*
X90637111Y-79167785D01*
X90560912Y-79144997D01*
X90504232Y-79128045D01*
X90504229Y-79128045D01*
X90499098Y-79126510D01*
X90493743Y-79126477D01*
X90493741Y-79126477D01*
X90428524Y-79126079D01*
X90355047Y-79125630D01*
X90349897Y-79127102D01*
X90349896Y-79127102D01*
X90285793Y-79145422D01*
X90216539Y-79165215D01*
X90212013Y-79168071D01*
X90212010Y-79168072D01*
X90134311Y-79217097D01*
X90094709Y-79242084D01*
X90090282Y-79247097D01*
X90002897Y-79346041D01*
X90002895Y-79346044D01*
X89999351Y-79350057D01*
X89996605Y-79355905D01*
X89951745Y-79451454D01*
X89938129Y-79480454D01*
X89915967Y-79622793D01*
X89916661Y-79628100D01*
X89916661Y-79628103D01*
X89918777Y-79644283D01*
X89934645Y-79765630D01*
X89992662Y-79897484D01*
X89996107Y-79901582D01*
X89996108Y-79901584D01*
X90009138Y-79917085D01*
X90085354Y-80007755D01*
X90182472Y-80072401D01*
X90186391Y-80075010D01*
X90216881Y-80116440D01*
X90213606Y-80167776D01*
X90184850Y-80201209D01*
X90094709Y-80258084D01*
X90087550Y-80266190D01*
X90002897Y-80362041D01*
X90002895Y-80362044D01*
X89999351Y-80366057D01*
X89938129Y-80496454D01*
X89915967Y-80638793D01*
X81530500Y-80638793D01*
X81530500Y-79812995D01*
X81548093Y-79764657D01*
X81592642Y-79738937D01*
X81643300Y-79747870D01*
X81674531Y-79782707D01*
X81712273Y-79868484D01*
X81715718Y-79872582D01*
X81715719Y-79872584D01*
X81749785Y-79913110D01*
X81804965Y-79978755D01*
X81924881Y-80058577D01*
X82062380Y-80101535D01*
X82136482Y-80102893D01*
X82201047Y-80104077D01*
X82201049Y-80104077D01*
X82206409Y-80104175D01*
X82211580Y-80102765D01*
X82211582Y-80102765D01*
X82287306Y-80082120D01*
X82345390Y-80066285D01*
X82398482Y-80033686D01*
X82463581Y-79993716D01*
X82463584Y-79993714D01*
X82468150Y-79990910D01*
X82564821Y-79884110D01*
X82570406Y-79872584D01*
X82625293Y-79759296D01*
X82625293Y-79759295D01*
X82627631Y-79754470D01*
X82649615Y-79623793D01*
X83471967Y-79623793D01*
X83472661Y-79629100D01*
X83472661Y-79629103D01*
X83473028Y-79631909D01*
X83490645Y-79766630D01*
X83548662Y-79898484D01*
X83552107Y-79902582D01*
X83552108Y-79902584D01*
X83565138Y-79918085D01*
X83641354Y-80008755D01*
X83761270Y-80088577D01*
X83898769Y-80131535D01*
X83972871Y-80132893D01*
X84037436Y-80134077D01*
X84037438Y-80134077D01*
X84042798Y-80134175D01*
X84047969Y-80132765D01*
X84047971Y-80132765D01*
X84152838Y-80104175D01*
X84181779Y-80096285D01*
X84240588Y-80060176D01*
X84299970Y-80023716D01*
X84299973Y-80023714D01*
X84304539Y-80020910D01*
X84320159Y-80003654D01*
X84397612Y-79918085D01*
X84401210Y-79914110D01*
X84406795Y-79902584D01*
X84461682Y-79789296D01*
X84461682Y-79789295D01*
X84464020Y-79784470D01*
X84487919Y-79642413D01*
X84488071Y-79630000D01*
X84487659Y-79627120D01*
X84468409Y-79492704D01*
X84468408Y-79492700D01*
X84467649Y-79487401D01*
X84464491Y-79480454D01*
X84430242Y-79405128D01*
X84408026Y-79356266D01*
X84402676Y-79350057D01*
X84317487Y-79251190D01*
X84317484Y-79251187D01*
X84313993Y-79247136D01*
X84307959Y-79243225D01*
X84197604Y-79171697D01*
X84197603Y-79171697D01*
X84193111Y-79168785D01*
X84102536Y-79141697D01*
X84060232Y-79129045D01*
X84060229Y-79129045D01*
X84055098Y-79127510D01*
X84049743Y-79127477D01*
X84049741Y-79127477D01*
X83984524Y-79127079D01*
X83911047Y-79126630D01*
X83905897Y-79128102D01*
X83905896Y-79128102D01*
X83841793Y-79146423D01*
X83772539Y-79166215D01*
X83768013Y-79169071D01*
X83768010Y-79169072D01*
X83691896Y-79217097D01*
X83650709Y-79243084D01*
X83644433Y-79250190D01*
X83558897Y-79347041D01*
X83558895Y-79347044D01*
X83555351Y-79351057D01*
X83494129Y-79481454D01*
X83471967Y-79623793D01*
X82649615Y-79623793D01*
X82651530Y-79612413D01*
X82651682Y-79600000D01*
X82651270Y-79597120D01*
X82632020Y-79462704D01*
X82632019Y-79462700D01*
X82631260Y-79457401D01*
X82618039Y-79428321D01*
X82573856Y-79331147D01*
X82571637Y-79326266D01*
X82567149Y-79321057D01*
X82481098Y-79221190D01*
X82481095Y-79221187D01*
X82477604Y-79217136D01*
X82473113Y-79214225D01*
X82361215Y-79141697D01*
X82361214Y-79141697D01*
X82356722Y-79138785D01*
X82280523Y-79115997D01*
X82223843Y-79099045D01*
X82223840Y-79099045D01*
X82218709Y-79097510D01*
X82213354Y-79097477D01*
X82213352Y-79097477D01*
X82148135Y-79097079D01*
X82074658Y-79096630D01*
X82069508Y-79098102D01*
X82069507Y-79098102D01*
X82005404Y-79116423D01*
X81936150Y-79136215D01*
X81931624Y-79139071D01*
X81931621Y-79139072D01*
X81881499Y-79170697D01*
X81814320Y-79213084D01*
X81807161Y-79221190D01*
X81722508Y-79317041D01*
X81722506Y-79317044D01*
X81718962Y-79321057D01*
X81716686Y-79325906D01*
X81716684Y-79325908D01*
X81673771Y-79417309D01*
X81637302Y-79453587D01*
X81586047Y-79457936D01*
X81543987Y-79428321D01*
X81530500Y-79385350D01*
X81530500Y-77259510D01*
X81548093Y-77211172D01*
X81592642Y-77185452D01*
X81634344Y-77190020D01*
X81640342Y-77194028D01*
X81684943Y-77202900D01*
X82549882Y-77202900D01*
X83415056Y-77202899D01*
X83459658Y-77194028D01*
X83510234Y-77160234D01*
X83544028Y-77109658D01*
X83552900Y-77065057D01*
X83552899Y-75334944D01*
X83544028Y-75290342D01*
X83510234Y-75239766D01*
X83472493Y-75214548D01*
X83465817Y-75210087D01*
X83465816Y-75210086D01*
X83459658Y-75205972D01*
X83415057Y-75197100D01*
X82550118Y-75197100D01*
X81684944Y-75197101D01*
X81660250Y-75202012D01*
X81647611Y-75204526D01*
X81647610Y-75204526D01*
X81640342Y-75205972D01*
X81634357Y-75209971D01*
X81583087Y-75212209D01*
X81542277Y-75180895D01*
X81530500Y-75140490D01*
X81530500Y-73654741D01*
X88242904Y-73654741D01*
X88243598Y-73660048D01*
X88243598Y-73660051D01*
X88244096Y-73663857D01*
X88261582Y-73797578D01*
X88319599Y-73929432D01*
X88412291Y-74039703D01*
X88532207Y-74119525D01*
X88669706Y-74162483D01*
X88743808Y-74163841D01*
X88808373Y-74165025D01*
X88808375Y-74165025D01*
X88813735Y-74165123D01*
X88818906Y-74163713D01*
X88818908Y-74163713D01*
X88894632Y-74143068D01*
X88952716Y-74127233D01*
X89005808Y-74094634D01*
X89070907Y-74054664D01*
X89070910Y-74054662D01*
X89075476Y-74051858D01*
X89172147Y-73945058D01*
X89177732Y-73933532D01*
X89232619Y-73820244D01*
X89232619Y-73820243D01*
X89234957Y-73815418D01*
X89258856Y-73673361D01*
X89259008Y-73660948D01*
X89258596Y-73658068D01*
X89239346Y-73523652D01*
X89239345Y-73523648D01*
X89238586Y-73518349D01*
X89178963Y-73387214D01*
X89174475Y-73382005D01*
X89088424Y-73282138D01*
X89088421Y-73282135D01*
X89084930Y-73278084D01*
X89080439Y-73275173D01*
X88968541Y-73202645D01*
X88968540Y-73202645D01*
X88964048Y-73199733D01*
X88887849Y-73176945D01*
X88831169Y-73159993D01*
X88831166Y-73159993D01*
X88826035Y-73158458D01*
X88820680Y-73158425D01*
X88820678Y-73158425D01*
X88755461Y-73158027D01*
X88681984Y-73157578D01*
X88676834Y-73159050D01*
X88676833Y-73159050D01*
X88612730Y-73177370D01*
X88543476Y-73197163D01*
X88538950Y-73200019D01*
X88538947Y-73200020D01*
X88426174Y-73271175D01*
X88421646Y-73274032D01*
X88414487Y-73282138D01*
X88329834Y-73377989D01*
X88329832Y-73377992D01*
X88326288Y-73382005D01*
X88265066Y-73512402D01*
X88242904Y-73654741D01*
X81530500Y-73654741D01*
X81530500Y-72933793D01*
X86670856Y-72933793D01*
X86671550Y-72939100D01*
X86671550Y-72939103D01*
X86672048Y-72942909D01*
X86689534Y-73076630D01*
X86725152Y-73157578D01*
X86743026Y-73198199D01*
X86747551Y-73208484D01*
X86840243Y-73318755D01*
X86960159Y-73398577D01*
X87097658Y-73441535D01*
X87171760Y-73442893D01*
X87236325Y-73444077D01*
X87236327Y-73444077D01*
X87241687Y-73444175D01*
X87246858Y-73442765D01*
X87246860Y-73442765D01*
X87322584Y-73422120D01*
X87380668Y-73406285D01*
X87433760Y-73373686D01*
X87498859Y-73333716D01*
X87498862Y-73333714D01*
X87503428Y-73330910D01*
X87600099Y-73224110D01*
X87605684Y-73212584D01*
X87660571Y-73099296D01*
X87660571Y-73099295D01*
X87662909Y-73094470D01*
X87686808Y-72952413D01*
X87686960Y-72940000D01*
X87686548Y-72937120D01*
X87667298Y-72802704D01*
X87667297Y-72802700D01*
X87666538Y-72797401D01*
X87606915Y-72666266D01*
X87602427Y-72661057D01*
X87516376Y-72561190D01*
X87516373Y-72561187D01*
X87512882Y-72557136D01*
X87508391Y-72554225D01*
X87396493Y-72481697D01*
X87396492Y-72481697D01*
X87392000Y-72478785D01*
X87297021Y-72450380D01*
X87259121Y-72439045D01*
X87259118Y-72439045D01*
X87253987Y-72437510D01*
X87248632Y-72437477D01*
X87248630Y-72437477D01*
X87183413Y-72437079D01*
X87109936Y-72436630D01*
X87104786Y-72438102D01*
X87104785Y-72438102D01*
X87061825Y-72450380D01*
X86971428Y-72476215D01*
X86966902Y-72479071D01*
X86966899Y-72479072D01*
X86854126Y-72550227D01*
X86849598Y-72553084D01*
X86842439Y-72561190D01*
X86757786Y-72657041D01*
X86757784Y-72657044D01*
X86754240Y-72661057D01*
X86693018Y-72791454D01*
X86670856Y-72933793D01*
X81530500Y-72933793D01*
X81530500Y-71792359D01*
X81548093Y-71744021D01*
X81592642Y-71718301D01*
X81643300Y-71727234D01*
X81663264Y-71743971D01*
X81675619Y-71758669D01*
X81795535Y-71838491D01*
X81933034Y-71881449D01*
X82007136Y-71882807D01*
X82071701Y-71883991D01*
X82071703Y-71883991D01*
X82077063Y-71884089D01*
X82082234Y-71882679D01*
X82082236Y-71882679D01*
X82157960Y-71862034D01*
X82216044Y-71846199D01*
X82284876Y-71803936D01*
X82334235Y-71773630D01*
X82334238Y-71773628D01*
X82338804Y-71770824D01*
X82417910Y-71683430D01*
X82431877Y-71667999D01*
X82435475Y-71664024D01*
X82439530Y-71655656D01*
X82495947Y-71539210D01*
X82495947Y-71539209D01*
X82498285Y-71534384D01*
X82522184Y-71392327D01*
X82522336Y-71379914D01*
X82521165Y-71371734D01*
X82502674Y-71242618D01*
X82502673Y-71242614D01*
X82501914Y-71237315D01*
X82497171Y-71226882D01*
X82444510Y-71111061D01*
X82442291Y-71106180D01*
X82433321Y-71095770D01*
X82351752Y-71001104D01*
X82351749Y-71001101D01*
X82348258Y-70997050D01*
X82342136Y-70993082D01*
X82266092Y-70943793D01*
X85430078Y-70943793D01*
X85430772Y-70949100D01*
X85430772Y-70949103D01*
X85432513Y-70962413D01*
X85448756Y-71086630D01*
X85506773Y-71218484D01*
X85510218Y-71222582D01*
X85510219Y-71222584D01*
X85528885Y-71244790D01*
X85599465Y-71328755D01*
X85621941Y-71343716D01*
X85714535Y-71405351D01*
X85719381Y-71408577D01*
X85856880Y-71451535D01*
X85930982Y-71452893D01*
X85995547Y-71454077D01*
X85995549Y-71454077D01*
X86000909Y-71454175D01*
X86006080Y-71452765D01*
X86006082Y-71452765D01*
X86104453Y-71425946D01*
X86139890Y-71416285D01*
X86199126Y-71379914D01*
X86258081Y-71343716D01*
X86258084Y-71343714D01*
X86262650Y-71340910D01*
X86359321Y-71234110D01*
X86364906Y-71222584D01*
X86419793Y-71109296D01*
X86419793Y-71109295D01*
X86422131Y-71104470D01*
X86423380Y-71097043D01*
X86839734Y-71097043D01*
X86840428Y-71102350D01*
X86840428Y-71102353D01*
X86848551Y-71164470D01*
X86858412Y-71239880D01*
X86916429Y-71371734D01*
X86919874Y-71375832D01*
X86919875Y-71375834D01*
X86953878Y-71416285D01*
X87009121Y-71482005D01*
X87031597Y-71496966D01*
X87092048Y-71537205D01*
X87129037Y-71561827D01*
X87266536Y-71604785D01*
X87340638Y-71606143D01*
X87405203Y-71607327D01*
X87405205Y-71607327D01*
X87410565Y-71607425D01*
X87415736Y-71606015D01*
X87415738Y-71606015D01*
X87491462Y-71585370D01*
X87549546Y-71569535D01*
X87606795Y-71534384D01*
X87667737Y-71496966D01*
X87667740Y-71496964D01*
X87672306Y-71494160D01*
X87687020Y-71477904D01*
X87722099Y-71439150D01*
X87767580Y-71415120D01*
X87817868Y-71425946D01*
X87835415Y-71441227D01*
X87857511Y-71467513D01*
X87857515Y-71467517D01*
X87860961Y-71471616D01*
X87980877Y-71551438D01*
X88118376Y-71594396D01*
X88192478Y-71595754D01*
X88257043Y-71596938D01*
X88257045Y-71596938D01*
X88262405Y-71597036D01*
X88267576Y-71595626D01*
X88267578Y-71595626D01*
X88373564Y-71566731D01*
X88401386Y-71559146D01*
X88454478Y-71526547D01*
X88519577Y-71486577D01*
X88519580Y-71486575D01*
X88524146Y-71483771D01*
X88620817Y-71376971D01*
X88623355Y-71371734D01*
X88681289Y-71252157D01*
X88681289Y-71252156D01*
X88683627Y-71247331D01*
X88707526Y-71105274D01*
X88707678Y-71092861D01*
X88706024Y-71081312D01*
X88688016Y-70955565D01*
X88688015Y-70955561D01*
X88687256Y-70950262D01*
X88674230Y-70921611D01*
X88649849Y-70867989D01*
X88627633Y-70819127D01*
X88617812Y-70807729D01*
X88537094Y-70714051D01*
X88537091Y-70714048D01*
X88533600Y-70709997D01*
X88529109Y-70707086D01*
X88417211Y-70634558D01*
X88417210Y-70634558D01*
X88412718Y-70631646D01*
X88311423Y-70601352D01*
X88279839Y-70591906D01*
X88279836Y-70591906D01*
X88274705Y-70590371D01*
X88269350Y-70590338D01*
X88269348Y-70590338D01*
X88204131Y-70589940D01*
X88130654Y-70589491D01*
X88125504Y-70590963D01*
X88125503Y-70590963D01*
X88103201Y-70597337D01*
X87992146Y-70629076D01*
X87987620Y-70631932D01*
X87987617Y-70631933D01*
X87896533Y-70689403D01*
X87870316Y-70705945D01*
X87863664Y-70713477D01*
X87825641Y-70756530D01*
X87780456Y-70781114D01*
X87730040Y-70770903D01*
X87712307Y-70755837D01*
X87685257Y-70724443D01*
X87685252Y-70724439D01*
X87681760Y-70720386D01*
X87677269Y-70717475D01*
X87565371Y-70644947D01*
X87565370Y-70644947D01*
X87560878Y-70642035D01*
X87484679Y-70619247D01*
X87427999Y-70602295D01*
X87427996Y-70602295D01*
X87422865Y-70600760D01*
X87417510Y-70600727D01*
X87417508Y-70600727D01*
X87352291Y-70600329D01*
X87278814Y-70599880D01*
X87273664Y-70601352D01*
X87273663Y-70601352D01*
X87209560Y-70619673D01*
X87140306Y-70639465D01*
X87135780Y-70642321D01*
X87135777Y-70642322D01*
X87023004Y-70713477D01*
X87018476Y-70716334D01*
X87001499Y-70735557D01*
X86926664Y-70820291D01*
X86926662Y-70820294D01*
X86923118Y-70824307D01*
X86920842Y-70829155D01*
X86864526Y-70949103D01*
X86861896Y-70954704D01*
X86861072Y-70959994D01*
X86861072Y-70959995D01*
X86855934Y-70992998D01*
X86839734Y-71097043D01*
X86423380Y-71097043D01*
X86446030Y-70962413D01*
X86446182Y-70950000D01*
X86445770Y-70947120D01*
X86426520Y-70812704D01*
X86426519Y-70812700D01*
X86425760Y-70807401D01*
X86420070Y-70794885D01*
X86368356Y-70681147D01*
X86366137Y-70676266D01*
X86359946Y-70669081D01*
X86275598Y-70571190D01*
X86275595Y-70571187D01*
X86272104Y-70567136D01*
X86267613Y-70564225D01*
X86155715Y-70491697D01*
X86155714Y-70491697D01*
X86151222Y-70488785D01*
X86075023Y-70465997D01*
X86018343Y-70449045D01*
X86018340Y-70449045D01*
X86013209Y-70447510D01*
X86007854Y-70447477D01*
X86007852Y-70447477D01*
X85942635Y-70447079D01*
X85869158Y-70446630D01*
X85864008Y-70448102D01*
X85864007Y-70448102D01*
X85799904Y-70466423D01*
X85730650Y-70486215D01*
X85726124Y-70489071D01*
X85726121Y-70489072D01*
X85616309Y-70558359D01*
X85608820Y-70563084D01*
X85603300Y-70569334D01*
X85517008Y-70667041D01*
X85517006Y-70667044D01*
X85513462Y-70671057D01*
X85493546Y-70713477D01*
X85455001Y-70795574D01*
X85452240Y-70801454D01*
X85451416Y-70806744D01*
X85451416Y-70806745D01*
X85445751Y-70843133D01*
X85430078Y-70943793D01*
X82266092Y-70943793D01*
X82231869Y-70921611D01*
X82231868Y-70921611D01*
X82227376Y-70918699D01*
X82142529Y-70893324D01*
X82094497Y-70878959D01*
X82094494Y-70878959D01*
X82089363Y-70877424D01*
X82084008Y-70877391D01*
X82084006Y-70877391D01*
X82018789Y-70876993D01*
X81945312Y-70876544D01*
X81940162Y-70878016D01*
X81940161Y-70878016D01*
X81887547Y-70893053D01*
X81806804Y-70916129D01*
X81802278Y-70918985D01*
X81802275Y-70918986D01*
X81722758Y-70969158D01*
X81684974Y-70992998D01*
X81681431Y-70997010D01*
X81681426Y-70997014D01*
X81662065Y-71018937D01*
X81616881Y-71043522D01*
X81566465Y-71033311D01*
X81534407Y-70993082D01*
X81530500Y-70969158D01*
X81530500Y-70643392D01*
X81548093Y-70595054D01*
X81592642Y-70569334D01*
X81643300Y-70578267D01*
X81650800Y-70583695D01*
X81651354Y-70584355D01*
X81771270Y-70664177D01*
X81908769Y-70707135D01*
X81982871Y-70708493D01*
X82047436Y-70709677D01*
X82047438Y-70709677D01*
X82052798Y-70709775D01*
X82057969Y-70708365D01*
X82057971Y-70708365D01*
X82133695Y-70687720D01*
X82191779Y-70671885D01*
X82263898Y-70627604D01*
X82309970Y-70599316D01*
X82309973Y-70599314D01*
X82314539Y-70596510D01*
X82320863Y-70589524D01*
X82407612Y-70493685D01*
X82411210Y-70489710D01*
X82413617Y-70484743D01*
X82471682Y-70364896D01*
X82471682Y-70364895D01*
X82474020Y-70360070D01*
X82497919Y-70218013D01*
X82498071Y-70205600D01*
X82496508Y-70194684D01*
X82478409Y-70068304D01*
X82478408Y-70068300D01*
X82477649Y-70063001D01*
X82475154Y-70057512D01*
X82422462Y-69941623D01*
X82418026Y-69931866D01*
X82412137Y-69925031D01*
X82327487Y-69826790D01*
X82327484Y-69826787D01*
X82323993Y-69822736D01*
X82319499Y-69819823D01*
X82295132Y-69804029D01*
X82264138Y-69762975D01*
X82266785Y-69711603D01*
X82287340Y-69683951D01*
X82290339Y-69682110D01*
X82387010Y-69575310D01*
X82402502Y-69543336D01*
X82447482Y-69450496D01*
X82447482Y-69450495D01*
X82449820Y-69445670D01*
X82473719Y-69303613D01*
X82473871Y-69291200D01*
X82473459Y-69288320D01*
X82454209Y-69153904D01*
X82454208Y-69153900D01*
X82453449Y-69148601D01*
X82448890Y-69138572D01*
X82403472Y-69038682D01*
X82401058Y-69033372D01*
X83436588Y-69033372D01*
X83437282Y-69038679D01*
X83437282Y-69038682D01*
X83441616Y-69071825D01*
X83455266Y-69176209D01*
X83479788Y-69231940D01*
X83501797Y-69281958D01*
X83513283Y-69308063D01*
X83605975Y-69418334D01*
X83725891Y-69498156D01*
X83731009Y-69499755D01*
X83843471Y-69534891D01*
X83884363Y-69566098D01*
X83895628Y-69616290D01*
X83884668Y-69645877D01*
X83883449Y-69647257D01*
X83881174Y-69652102D01*
X83881173Y-69652104D01*
X83835315Y-69749777D01*
X83822227Y-69777654D01*
X83800065Y-69919993D01*
X83800759Y-69925300D01*
X83800759Y-69925303D01*
X83804751Y-69955827D01*
X83818743Y-70062830D01*
X83876760Y-70194684D01*
X83880205Y-70198782D01*
X83880206Y-70198784D01*
X83888381Y-70208509D01*
X83969452Y-70304955D01*
X84089368Y-70384777D01*
X84226867Y-70427735D01*
X84300969Y-70429093D01*
X84365534Y-70430277D01*
X84365536Y-70430277D01*
X84370896Y-70430375D01*
X84376067Y-70428965D01*
X84376069Y-70428965D01*
X84462791Y-70405322D01*
X84509877Y-70392485D01*
X84571279Y-70354784D01*
X84628068Y-70319916D01*
X84628071Y-70319914D01*
X84632637Y-70317110D01*
X84729308Y-70210310D01*
X84732986Y-70202720D01*
X84789780Y-70085496D01*
X84789780Y-70085495D01*
X84792118Y-70080670D01*
X84816017Y-69938613D01*
X84816169Y-69926200D01*
X84815757Y-69923320D01*
X84796507Y-69788904D01*
X84796506Y-69788900D01*
X84795747Y-69783601D01*
X84782540Y-69754552D01*
X84749303Y-69681452D01*
X84736124Y-69652466D01*
X84704953Y-69616290D01*
X84645585Y-69547390D01*
X84645582Y-69547387D01*
X84642091Y-69543336D01*
X84624205Y-69531743D01*
X84525702Y-69467897D01*
X84525701Y-69467897D01*
X84521209Y-69464985D01*
X84438950Y-69440384D01*
X84409833Y-69431676D01*
X84368563Y-69400970D01*
X84356686Y-69350920D01*
X84366629Y-69324076D01*
X84365831Y-69323689D01*
X84426303Y-69198875D01*
X84426303Y-69198874D01*
X84428641Y-69194049D01*
X84452540Y-69051992D01*
X84452692Y-69039579D01*
X84452280Y-69036699D01*
X84433030Y-68902283D01*
X84433029Y-68902279D01*
X84432270Y-68896980D01*
X84403274Y-68833205D01*
X84393503Y-68811715D01*
X88271448Y-68811715D01*
X88272142Y-68817022D01*
X88272142Y-68817025D01*
X88273883Y-68830335D01*
X88290126Y-68954552D01*
X88348143Y-69086406D01*
X88351588Y-69090504D01*
X88351589Y-69090506D01*
X88391687Y-69138208D01*
X88440835Y-69196677D01*
X88445294Y-69199645D01*
X88445296Y-69199647D01*
X88445532Y-69199804D01*
X88445648Y-69199962D01*
X88449290Y-69203218D01*
X88448607Y-69203982D01*
X88476021Y-69241235D01*
X88472746Y-69292570D01*
X88460227Y-69312183D01*
X88394963Y-69386080D01*
X88394961Y-69386083D01*
X88391417Y-69390096D01*
X88386680Y-69400186D01*
X88339932Y-69499755D01*
X88330195Y-69520493D01*
X88329371Y-69525783D01*
X88329371Y-69525784D01*
X88326984Y-69541114D01*
X88308033Y-69662832D01*
X88308727Y-69668139D01*
X88308727Y-69668142D01*
X88316850Y-69730259D01*
X88326711Y-69805669D01*
X88343114Y-69842948D01*
X88378479Y-69923320D01*
X88384728Y-69937523D01*
X88388173Y-69941621D01*
X88388174Y-69941623D01*
X88429656Y-69990972D01*
X88477420Y-70047794D01*
X88597336Y-70127616D01*
X88734835Y-70170574D01*
X88808937Y-70171932D01*
X88873502Y-70173116D01*
X88873504Y-70173116D01*
X88878864Y-70173214D01*
X88884035Y-70171804D01*
X88884037Y-70171804D01*
X88959761Y-70151159D01*
X89017845Y-70135324D01*
X89126998Y-70068304D01*
X89136036Y-70062755D01*
X89136039Y-70062753D01*
X89140605Y-70059949D01*
X89237276Y-69953149D01*
X89242861Y-69941623D01*
X89297748Y-69828335D01*
X89297748Y-69828334D01*
X89300086Y-69823509D01*
X89323985Y-69681452D01*
X89324137Y-69669039D01*
X89323725Y-69666159D01*
X89304475Y-69531743D01*
X89304474Y-69531739D01*
X89303715Y-69526440D01*
X89244092Y-69395305D01*
X89150059Y-69286175D01*
X89145562Y-69283260D01*
X89142422Y-69280521D01*
X89117562Y-69235487D01*
X89127464Y-69185010D01*
X89136103Y-69173387D01*
X89200691Y-69102032D01*
X89206276Y-69090506D01*
X89261163Y-68977218D01*
X89261163Y-68977217D01*
X89263501Y-68972392D01*
X89287400Y-68830335D01*
X89287552Y-68817922D01*
X89287140Y-68815042D01*
X89267890Y-68680626D01*
X89267889Y-68680622D01*
X89267130Y-68675323D01*
X89258045Y-68655340D01*
X89209726Y-68549069D01*
X89207507Y-68544188D01*
X89204008Y-68540128D01*
X89204006Y-68540124D01*
X89158490Y-68487301D01*
X89140264Y-68439198D01*
X89157223Y-68390634D01*
X89176110Y-68374129D01*
X89193070Y-68363716D01*
X89193073Y-68363714D01*
X89197639Y-68360910D01*
X89229149Y-68326099D01*
X89290712Y-68258085D01*
X89294310Y-68254110D01*
X89299895Y-68242584D01*
X89354782Y-68129296D01*
X89354782Y-68129295D01*
X89357120Y-68124470D01*
X89381019Y-67982413D01*
X89381171Y-67970000D01*
X89380613Y-67966104D01*
X89361509Y-67832704D01*
X89361508Y-67832700D01*
X89360749Y-67827401D01*
X89353473Y-67811397D01*
X89308690Y-67712903D01*
X89301126Y-67696266D01*
X89297581Y-67692152D01*
X89210587Y-67591190D01*
X89210584Y-67591187D01*
X89207093Y-67587136D01*
X89202602Y-67584225D01*
X89090704Y-67511697D01*
X89090703Y-67511697D01*
X89086211Y-67508785D01*
X88987795Y-67479352D01*
X88953332Y-67469045D01*
X88953329Y-67469045D01*
X88948198Y-67467510D01*
X88942843Y-67467477D01*
X88942841Y-67467477D01*
X88877624Y-67467079D01*
X88804147Y-67466630D01*
X88798997Y-67468102D01*
X88798996Y-67468102D01*
X88777670Y-67474197D01*
X88665639Y-67506215D01*
X88661113Y-67509071D01*
X88661110Y-67509072D01*
X88548337Y-67580227D01*
X88543809Y-67583084D01*
X88540016Y-67587379D01*
X88451997Y-67687041D01*
X88451995Y-67687044D01*
X88448451Y-67691057D01*
X88445791Y-67696723D01*
X88414395Y-67763594D01*
X88387229Y-67821454D01*
X88386405Y-67826744D01*
X88386405Y-67826745D01*
X88381708Y-67856916D01*
X88365067Y-67963793D01*
X88365761Y-67969100D01*
X88365761Y-67969103D01*
X88370572Y-68005891D01*
X88383745Y-68106630D01*
X88441762Y-68238484D01*
X88445207Y-68242582D01*
X88445208Y-68242584D01*
X88494961Y-68301772D01*
X88512597Y-68350094D01*
X88495046Y-68398447D01*
X88477526Y-68413758D01*
X88450190Y-68431006D01*
X88433213Y-68450229D01*
X88358378Y-68534963D01*
X88358376Y-68534966D01*
X88354832Y-68538979D01*
X88338238Y-68574322D01*
X88300406Y-68654902D01*
X88293610Y-68669376D01*
X88292786Y-68674666D01*
X88292786Y-68674667D01*
X88287782Y-68706808D01*
X88271448Y-68811715D01*
X84393503Y-68811715D01*
X84374866Y-68770726D01*
X84372647Y-68765845D01*
X84368159Y-68760636D01*
X84282108Y-68660769D01*
X84282105Y-68660766D01*
X84278614Y-68656715D01*
X84274123Y-68653804D01*
X84162225Y-68581276D01*
X84162224Y-68581276D01*
X84157732Y-68578364D01*
X84081533Y-68555576D01*
X84024853Y-68538624D01*
X84024850Y-68538624D01*
X84019719Y-68537089D01*
X84014364Y-68537056D01*
X84014362Y-68537056D01*
X83949145Y-68536658D01*
X83875668Y-68536209D01*
X83870518Y-68537681D01*
X83870517Y-68537681D01*
X83847749Y-68544188D01*
X83737160Y-68575794D01*
X83732634Y-68578650D01*
X83732631Y-68578651D01*
X83677331Y-68613543D01*
X83615330Y-68652663D01*
X83600570Y-68669376D01*
X83523518Y-68756620D01*
X83523516Y-68756623D01*
X83519972Y-68760636D01*
X83515936Y-68769233D01*
X83475877Y-68854555D01*
X83458750Y-68891033D01*
X83436588Y-69033372D01*
X82401058Y-69033372D01*
X82393826Y-69017466D01*
X82376299Y-68997125D01*
X82303287Y-68912390D01*
X82303284Y-68912387D01*
X82299793Y-68908336D01*
X82295302Y-68905425D01*
X82183404Y-68832897D01*
X82183403Y-68832897D01*
X82178911Y-68829985D01*
X82116086Y-68811196D01*
X82078446Y-68799939D01*
X82037176Y-68769233D01*
X82025299Y-68719183D01*
X82048372Y-68673208D01*
X82080212Y-68655341D01*
X82211118Y-68619652D01*
X82278362Y-68578364D01*
X82329309Y-68547083D01*
X82329312Y-68547081D01*
X82333878Y-68544277D01*
X82339849Y-68537681D01*
X82426951Y-68441452D01*
X82430549Y-68437477D01*
X82434145Y-68430056D01*
X82491021Y-68312663D01*
X82491021Y-68312662D01*
X82493359Y-68307837D01*
X82517258Y-68165780D01*
X82517410Y-68153367D01*
X82510717Y-68106630D01*
X82497748Y-68016071D01*
X82497747Y-68016067D01*
X82496988Y-68010768D01*
X82493299Y-68002653D01*
X82439584Y-67884514D01*
X82437365Y-67879633D01*
X82432877Y-67874424D01*
X82346826Y-67774557D01*
X82346823Y-67774554D01*
X82343332Y-67770503D01*
X82338841Y-67767592D01*
X82226943Y-67695064D01*
X82226942Y-67695064D01*
X82222450Y-67692152D01*
X82219979Y-67691413D01*
X83625867Y-67691413D01*
X83626561Y-67696720D01*
X83626561Y-67696723D01*
X83628302Y-67710033D01*
X83644545Y-67834250D01*
X83702562Y-67966104D01*
X83706007Y-67970202D01*
X83706008Y-67970204D01*
X83719038Y-67985705D01*
X83795254Y-68076375D01*
X83915170Y-68156197D01*
X84052669Y-68199155D01*
X84126771Y-68200513D01*
X84191336Y-68201697D01*
X84191338Y-68201697D01*
X84196698Y-68201795D01*
X84201869Y-68200385D01*
X84201871Y-68200385D01*
X84328801Y-68165780D01*
X84335679Y-68163905D01*
X84420964Y-68111540D01*
X84453870Y-68091336D01*
X84453873Y-68091334D01*
X84458439Y-68088530D01*
X84555110Y-67981730D01*
X84560695Y-67970204D01*
X84615582Y-67856916D01*
X84615582Y-67856915D01*
X84617920Y-67852090D01*
X84641819Y-67710033D01*
X84641971Y-67697620D01*
X84641188Y-67692152D01*
X84622309Y-67560324D01*
X84622308Y-67560320D01*
X84621549Y-67555021D01*
X84600658Y-67509072D01*
X84567988Y-67437219D01*
X84561926Y-67423886D01*
X84557438Y-67418677D01*
X84471387Y-67318810D01*
X84471384Y-67318807D01*
X84467893Y-67314756D01*
X84463402Y-67311845D01*
X84351504Y-67239317D01*
X84351503Y-67239317D01*
X84347011Y-67236405D01*
X84270812Y-67213617D01*
X84214132Y-67196665D01*
X84214129Y-67196665D01*
X84208998Y-67195130D01*
X84203643Y-67195097D01*
X84203641Y-67195097D01*
X84138424Y-67194699D01*
X84064947Y-67194250D01*
X84059797Y-67195722D01*
X84059796Y-67195722D01*
X83995693Y-67214043D01*
X83926439Y-67233835D01*
X83921913Y-67236691D01*
X83921910Y-67236692D01*
X83809137Y-67307847D01*
X83804609Y-67310704D01*
X83797450Y-67318810D01*
X83712797Y-67414661D01*
X83712795Y-67414664D01*
X83709251Y-67418677D01*
X83686737Y-67466630D01*
X83668152Y-67506215D01*
X83648029Y-67549074D01*
X83647205Y-67554364D01*
X83647205Y-67554365D01*
X83642876Y-67582170D01*
X83625867Y-67691413D01*
X82219979Y-67691413D01*
X82146251Y-67669364D01*
X82089571Y-67652412D01*
X82089568Y-67652412D01*
X82084437Y-67650877D01*
X82079082Y-67650844D01*
X82079080Y-67650844D01*
X82013863Y-67650446D01*
X81940386Y-67649997D01*
X81935236Y-67651469D01*
X81935235Y-67651469D01*
X81871132Y-67669789D01*
X81801878Y-67689582D01*
X81797352Y-67692438D01*
X81797349Y-67692439D01*
X81688755Y-67760957D01*
X81680048Y-67766451D01*
X81672889Y-67774557D01*
X81662065Y-67786813D01*
X81616880Y-67811397D01*
X81566464Y-67801186D01*
X81534407Y-67760957D01*
X81530500Y-67737033D01*
X81530500Y-66056518D01*
X86997859Y-66056518D01*
X86998553Y-66061825D01*
X86998553Y-66061828D01*
X86999591Y-66069764D01*
X87016537Y-66199355D01*
X87074554Y-66331209D01*
X87077999Y-66335307D01*
X87078000Y-66335309D01*
X87094502Y-66354940D01*
X87167246Y-66441480D01*
X87185738Y-66453789D01*
X87263976Y-66505868D01*
X87287162Y-66521302D01*
X87424661Y-66564260D01*
X87498763Y-66565618D01*
X87563328Y-66566802D01*
X87563330Y-66566802D01*
X87568690Y-66566900D01*
X87573861Y-66565490D01*
X87573863Y-66565490D01*
X87652757Y-66543981D01*
X87707671Y-66529010D01*
X87760763Y-66496411D01*
X87825862Y-66456441D01*
X87825865Y-66456439D01*
X87830431Y-66453635D01*
X87927102Y-66346835D01*
X87930686Y-66339439D01*
X87987574Y-66222021D01*
X87987574Y-66222020D01*
X87989912Y-66217195D01*
X88013811Y-66075138D01*
X88013963Y-66062725D01*
X88013666Y-66060648D01*
X88365038Y-66060648D01*
X88365732Y-66065955D01*
X88365732Y-66065958D01*
X88367092Y-66076355D01*
X88383716Y-66203485D01*
X88441733Y-66335339D01*
X88445178Y-66339437D01*
X88445179Y-66339439D01*
X88454868Y-66350965D01*
X88534425Y-66445610D01*
X88556901Y-66460571D01*
X88648137Y-66521302D01*
X88654341Y-66525432D01*
X88791840Y-66568390D01*
X88865942Y-66569748D01*
X88930507Y-66570932D01*
X88930509Y-66570932D01*
X88935869Y-66571030D01*
X88941040Y-66569620D01*
X88941042Y-66569620D01*
X89035085Y-66543981D01*
X89074850Y-66533140D01*
X89127942Y-66500541D01*
X89193041Y-66460571D01*
X89193044Y-66460569D01*
X89197610Y-66457765D01*
X89294281Y-66350965D01*
X89299866Y-66339439D01*
X89354753Y-66226151D01*
X89354753Y-66226150D01*
X89357091Y-66221325D01*
X89380990Y-66079268D01*
X89381142Y-66066855D01*
X89380551Y-66062725D01*
X89361480Y-65929559D01*
X89361479Y-65929555D01*
X89360720Y-65924256D01*
X89356139Y-65914179D01*
X89303316Y-65798002D01*
X89301097Y-65793121D01*
X89297599Y-65789061D01*
X89210558Y-65688045D01*
X89210555Y-65688042D01*
X89207064Y-65683991D01*
X89202573Y-65681080D01*
X89090675Y-65608552D01*
X89090674Y-65608552D01*
X89086182Y-65605640D01*
X89009983Y-65582852D01*
X88953303Y-65565900D01*
X88953300Y-65565900D01*
X88948169Y-65564365D01*
X88942814Y-65564332D01*
X88942812Y-65564332D01*
X88877595Y-65563934D01*
X88804118Y-65563485D01*
X88798968Y-65564957D01*
X88798967Y-65564957D01*
X88734864Y-65583277D01*
X88665610Y-65603070D01*
X88661084Y-65605926D01*
X88661081Y-65605927D01*
X88554854Y-65672952D01*
X88543780Y-65679939D01*
X88536621Y-65688045D01*
X88451968Y-65783896D01*
X88451966Y-65783899D01*
X88448422Y-65787912D01*
X88387200Y-65918309D01*
X88365038Y-66060648D01*
X88013666Y-66060648D01*
X88013551Y-66059845D01*
X87994301Y-65925429D01*
X87994300Y-65925425D01*
X87993541Y-65920126D01*
X87933918Y-65788991D01*
X87929430Y-65783782D01*
X87843379Y-65683915D01*
X87843376Y-65683912D01*
X87839885Y-65679861D01*
X87835394Y-65676950D01*
X87723496Y-65604422D01*
X87723495Y-65604422D01*
X87719003Y-65601510D01*
X87642804Y-65578722D01*
X87586124Y-65561770D01*
X87586121Y-65561770D01*
X87580990Y-65560235D01*
X87575635Y-65560202D01*
X87575633Y-65560202D01*
X87510416Y-65559804D01*
X87436939Y-65559355D01*
X87431789Y-65560827D01*
X87431788Y-65560827D01*
X87414038Y-65565900D01*
X87298431Y-65598940D01*
X87293905Y-65601796D01*
X87293902Y-65601797D01*
X87181129Y-65672952D01*
X87176601Y-65675809D01*
X87172954Y-65679939D01*
X87084789Y-65779766D01*
X87084787Y-65779769D01*
X87081243Y-65783782D01*
X87020021Y-65914179D01*
X86997859Y-66056518D01*
X81530500Y-66056518D01*
X81530500Y-64636793D01*
X82041967Y-64636793D01*
X82042661Y-64642100D01*
X82042661Y-64642103D01*
X82049126Y-64691544D01*
X82060645Y-64779630D01*
X82118662Y-64911484D01*
X82211354Y-65021755D01*
X82331270Y-65101577D01*
X82468769Y-65144535D01*
X82542871Y-65145893D01*
X82607436Y-65147077D01*
X82607438Y-65147077D01*
X82612798Y-65147175D01*
X82617969Y-65145765D01*
X82617971Y-65145765D01*
X82693695Y-65125120D01*
X82751779Y-65109285D01*
X82804871Y-65076686D01*
X82869970Y-65036716D01*
X82869973Y-65036714D01*
X82874539Y-65033910D01*
X82883440Y-65024077D01*
X82967612Y-64931085D01*
X82971210Y-64927110D01*
X82976795Y-64915584D01*
X83031682Y-64802296D01*
X83031682Y-64802295D01*
X83034020Y-64797470D01*
X83057919Y-64655413D01*
X83058071Y-64643000D01*
X83057659Y-64640120D01*
X83038409Y-64505704D01*
X83038408Y-64505700D01*
X83037649Y-64500401D01*
X82978026Y-64369266D01*
X82973538Y-64364057D01*
X82887487Y-64264190D01*
X82887484Y-64264187D01*
X82883993Y-64260136D01*
X82879502Y-64257225D01*
X82767604Y-64184697D01*
X82767603Y-64184697D01*
X82763111Y-64181785D01*
X82663812Y-64152088D01*
X82630232Y-64142045D01*
X82630229Y-64142045D01*
X82625098Y-64140510D01*
X82619743Y-64140477D01*
X82619741Y-64140477D01*
X82554524Y-64140079D01*
X82481047Y-64139630D01*
X82475897Y-64141102D01*
X82475896Y-64141102D01*
X82472439Y-64142090D01*
X82342539Y-64179215D01*
X82338013Y-64182071D01*
X82338010Y-64182072D01*
X82234843Y-64247166D01*
X82220709Y-64256084D01*
X82213550Y-64264190D01*
X82128897Y-64360041D01*
X82128895Y-64360044D01*
X82125351Y-64364057D01*
X82064129Y-64494454D01*
X82063305Y-64499744D01*
X82063305Y-64499745D01*
X82059558Y-64523809D01*
X82041967Y-64636793D01*
X81530500Y-64636793D01*
X81530500Y-62613793D01*
X84981967Y-62613793D01*
X84982661Y-62619100D01*
X84982661Y-62619103D01*
X84983159Y-62622909D01*
X85000645Y-62756630D01*
X85058662Y-62888484D01*
X85151354Y-62998755D01*
X85169615Y-63010910D01*
X85179171Y-63017271D01*
X85209661Y-63058701D01*
X85206387Y-63110036D01*
X85193867Y-63129651D01*
X85126415Y-63206025D01*
X85126413Y-63206028D01*
X85122869Y-63210041D01*
X85061647Y-63340438D01*
X85039485Y-63482777D01*
X85040179Y-63488084D01*
X85040179Y-63488087D01*
X85040677Y-63491893D01*
X85058163Y-63625614D01*
X85116180Y-63757468D01*
X85208872Y-63867739D01*
X85328788Y-63947561D01*
X85333412Y-63949006D01*
X85369318Y-63985542D01*
X85373356Y-64036823D01*
X85368961Y-64048688D01*
X85322691Y-64147239D01*
X85322690Y-64147243D01*
X85320415Y-64152088D01*
X85319591Y-64157378D01*
X85319591Y-64157379D01*
X85315338Y-64184697D01*
X85298253Y-64294427D01*
X85316931Y-64437264D01*
X85374948Y-64569118D01*
X85467640Y-64679389D01*
X85587556Y-64759211D01*
X85725055Y-64802169D01*
X85799157Y-64803527D01*
X85863722Y-64804711D01*
X85863724Y-64804711D01*
X85869084Y-64804809D01*
X85874255Y-64803399D01*
X85874257Y-64803399D01*
X85980947Y-64774312D01*
X86008065Y-64766919D01*
X86061157Y-64734320D01*
X86126256Y-64694350D01*
X86126259Y-64694348D01*
X86130825Y-64691544D01*
X86141827Y-64679389D01*
X86155845Y-64663903D01*
X86201327Y-64639873D01*
X86251614Y-64650700D01*
X86280427Y-64684080D01*
X86326762Y-64789384D01*
X86330207Y-64793482D01*
X86330208Y-64793484D01*
X86343238Y-64808985D01*
X86419454Y-64899655D01*
X86539370Y-64979477D01*
X86676869Y-65022435D01*
X86750971Y-65023793D01*
X86815536Y-65024977D01*
X86815538Y-65024977D01*
X86820898Y-65025075D01*
X86826069Y-65023665D01*
X86826071Y-65023665D01*
X86901795Y-65003020D01*
X86959879Y-64987185D01*
X87057721Y-64927110D01*
X87078070Y-64914616D01*
X87078073Y-64914614D01*
X87082639Y-64911810D01*
X87179310Y-64805010D01*
X87184895Y-64793484D01*
X87239782Y-64680196D01*
X87239782Y-64680195D01*
X87242120Y-64675370D01*
X87266019Y-64533313D01*
X87266171Y-64520900D01*
X87265630Y-64517120D01*
X87265154Y-64513793D01*
X88241967Y-64513793D01*
X88242661Y-64519100D01*
X88242661Y-64519103D01*
X88249738Y-64573218D01*
X88260645Y-64656630D01*
X88318662Y-64788484D01*
X88322107Y-64792582D01*
X88322108Y-64792584D01*
X88332553Y-64805010D01*
X88411354Y-64898755D01*
X88531270Y-64978577D01*
X88668769Y-65021535D01*
X88742871Y-65022893D01*
X88807436Y-65024077D01*
X88807438Y-65024077D01*
X88812798Y-65024175D01*
X88817969Y-65022765D01*
X88817971Y-65022765D01*
X88893695Y-65002120D01*
X88951779Y-64986285D01*
X89048155Y-64927110D01*
X89069970Y-64913716D01*
X89069973Y-64913714D01*
X89074539Y-64910910D01*
X89171210Y-64804110D01*
X89176359Y-64793484D01*
X89231682Y-64679296D01*
X89231682Y-64679295D01*
X89234020Y-64674470D01*
X89257919Y-64532413D01*
X89258071Y-64520000D01*
X89257659Y-64517120D01*
X89238409Y-64382704D01*
X89238408Y-64382700D01*
X89237649Y-64377401D01*
X89233951Y-64369266D01*
X89184332Y-64260136D01*
X89178026Y-64246266D01*
X89173538Y-64241057D01*
X89087487Y-64141190D01*
X89087484Y-64141187D01*
X89083993Y-64137136D01*
X89079130Y-64133984D01*
X88967604Y-64061697D01*
X88967603Y-64061697D01*
X88963111Y-64058785D01*
X88856496Y-64026900D01*
X88830232Y-64019045D01*
X88830229Y-64019045D01*
X88825098Y-64017510D01*
X88819743Y-64017477D01*
X88819741Y-64017477D01*
X88754524Y-64017079D01*
X88681047Y-64016630D01*
X88675897Y-64018102D01*
X88675896Y-64018102D01*
X88611793Y-64036423D01*
X88542539Y-64056215D01*
X88538013Y-64059071D01*
X88538010Y-64059072D01*
X88425237Y-64130227D01*
X88420709Y-64133084D01*
X88416935Y-64137357D01*
X88328897Y-64237041D01*
X88328895Y-64237044D01*
X88325351Y-64241057D01*
X88264129Y-64371454D01*
X88241967Y-64513793D01*
X87265154Y-64513793D01*
X87246509Y-64383604D01*
X87246508Y-64383600D01*
X87245749Y-64378301D01*
X87243123Y-64372524D01*
X87192005Y-64260097D01*
X87186126Y-64247166D01*
X87182628Y-64243106D01*
X87095587Y-64142090D01*
X87095584Y-64142087D01*
X87092093Y-64138036D01*
X87086213Y-64134225D01*
X86975704Y-64062597D01*
X86975703Y-64062597D01*
X86971211Y-64059685D01*
X86894766Y-64036823D01*
X86838332Y-64019945D01*
X86838329Y-64019945D01*
X86833198Y-64018410D01*
X86827843Y-64018377D01*
X86827841Y-64018377D01*
X86762624Y-64017979D01*
X86689147Y-64017530D01*
X86683997Y-64019002D01*
X86683996Y-64019002D01*
X86670567Y-64022840D01*
X86550639Y-64057115D01*
X86546113Y-64059971D01*
X86546110Y-64059972D01*
X86434763Y-64130227D01*
X86428809Y-64133984D01*
X86425264Y-64137998D01*
X86409353Y-64156013D01*
X86364168Y-64180596D01*
X86313752Y-64170384D01*
X86284533Y-64137357D01*
X86283519Y-64135125D01*
X86234312Y-64026900D01*
X86229824Y-64021691D01*
X86143773Y-63921824D01*
X86143770Y-63921821D01*
X86140279Y-63917770D01*
X86019397Y-63839419D01*
X86019371Y-63839411D01*
X85984437Y-63804723D01*
X85979773Y-63753495D01*
X85984801Y-63739919D01*
X86031538Y-63643454D01*
X86055437Y-63501397D01*
X86055589Y-63488984D01*
X86055177Y-63486104D01*
X86035927Y-63351688D01*
X86035926Y-63351684D01*
X86035167Y-63346385D01*
X85975544Y-63215250D01*
X85881511Y-63106120D01*
X85859135Y-63091617D01*
X85828141Y-63050563D01*
X85830788Y-62999191D01*
X85844284Y-62978048D01*
X85907612Y-62908085D01*
X85911210Y-62904110D01*
X85916795Y-62892584D01*
X85971682Y-62779296D01*
X85971682Y-62779295D01*
X85974020Y-62774470D01*
X85997919Y-62632413D01*
X85998071Y-62620000D01*
X85997659Y-62617120D01*
X85978409Y-62482704D01*
X85978408Y-62482700D01*
X85977649Y-62477401D01*
X85918026Y-62346266D01*
X85913538Y-62341057D01*
X85827487Y-62241190D01*
X85827484Y-62241187D01*
X85823993Y-62237136D01*
X85819502Y-62234225D01*
X85707604Y-62161697D01*
X85707603Y-62161697D01*
X85703111Y-62158785D01*
X85626912Y-62135997D01*
X85570232Y-62119045D01*
X85570229Y-62119045D01*
X85565098Y-62117510D01*
X85559743Y-62117477D01*
X85559741Y-62117477D01*
X85494524Y-62117079D01*
X85421047Y-62116630D01*
X85415897Y-62118102D01*
X85415896Y-62118102D01*
X85351793Y-62136422D01*
X85282539Y-62156215D01*
X85278013Y-62159071D01*
X85278010Y-62159072D01*
X85165237Y-62230227D01*
X85160709Y-62233084D01*
X85153550Y-62241190D01*
X85068897Y-62337041D01*
X85068895Y-62337044D01*
X85065351Y-62341057D01*
X85004129Y-62471454D01*
X84981967Y-62613793D01*
X81530500Y-62613793D01*
X81530500Y-62019510D01*
X81548093Y-61971172D01*
X81592642Y-61945452D01*
X81634344Y-61950020D01*
X81640342Y-61954028D01*
X81684943Y-61962900D01*
X82549883Y-61962900D01*
X83415056Y-61962899D01*
X83459658Y-61954028D01*
X83510234Y-61920234D01*
X83544028Y-61869658D01*
X83552900Y-61825057D01*
X83552899Y-60094944D01*
X83544028Y-60050342D01*
X83510234Y-59999766D01*
X83472493Y-59974548D01*
X83465817Y-59970087D01*
X83465816Y-59970086D01*
X83459658Y-59965972D01*
X83415057Y-59957100D01*
X82550118Y-59957100D01*
X81684944Y-59957101D01*
X81660250Y-59962012D01*
X81647611Y-59964526D01*
X81647610Y-59964526D01*
X81640342Y-59965972D01*
X81634357Y-59969971D01*
X81583087Y-59972209D01*
X81542277Y-59940895D01*
X81530500Y-59900490D01*
X81530500Y-58921793D01*
X82041967Y-58921793D01*
X82042661Y-58927100D01*
X82042661Y-58927103D01*
X82043159Y-58930909D01*
X82060645Y-59064630D01*
X82118662Y-59196484D01*
X82211354Y-59306755D01*
X82331270Y-59386577D01*
X82468769Y-59429535D01*
X82542871Y-59430893D01*
X82607436Y-59432077D01*
X82607438Y-59432077D01*
X82612798Y-59432175D01*
X82617969Y-59430765D01*
X82617971Y-59430765D01*
X82693695Y-59410120D01*
X82751779Y-59394285D01*
X82804871Y-59361686D01*
X82869970Y-59321716D01*
X82869973Y-59321714D01*
X82874539Y-59318910D01*
X82971210Y-59212110D01*
X82976795Y-59200584D01*
X83031682Y-59087296D01*
X83031682Y-59087295D01*
X83034020Y-59082470D01*
X83057919Y-58940413D01*
X83058071Y-58928000D01*
X83057659Y-58925120D01*
X83038409Y-58790704D01*
X83038408Y-58790700D01*
X83037649Y-58785401D01*
X82978026Y-58654266D01*
X82973538Y-58649057D01*
X82887487Y-58549190D01*
X82887484Y-58549187D01*
X82883993Y-58545136D01*
X82879502Y-58542225D01*
X82767604Y-58469697D01*
X82767603Y-58469697D01*
X82763111Y-58466785D01*
X82686912Y-58443997D01*
X82630232Y-58427045D01*
X82630229Y-58427045D01*
X82625098Y-58425510D01*
X82619743Y-58425477D01*
X82619741Y-58425477D01*
X82554524Y-58425079D01*
X82481047Y-58424630D01*
X82475897Y-58426102D01*
X82475896Y-58426102D01*
X82411793Y-58444423D01*
X82342539Y-58464215D01*
X82338013Y-58467071D01*
X82338010Y-58467072D01*
X82225237Y-58538227D01*
X82220709Y-58541084D01*
X82213550Y-58549190D01*
X82128897Y-58645041D01*
X82128895Y-58645044D01*
X82125351Y-58649057D01*
X82064129Y-58779454D01*
X82041967Y-58921793D01*
X81530500Y-58921793D01*
X81530500Y-56642328D01*
X88500204Y-56642328D01*
X88500898Y-56647635D01*
X88500898Y-56647638D01*
X88501396Y-56651444D01*
X88518882Y-56785165D01*
X88576899Y-56917019D01*
X88669591Y-57027290D01*
X88789507Y-57107112D01*
X88927006Y-57150070D01*
X89001108Y-57151428D01*
X89065673Y-57152612D01*
X89065675Y-57152612D01*
X89071035Y-57152710D01*
X89076206Y-57151300D01*
X89076208Y-57151300D01*
X89151932Y-57130655D01*
X89210016Y-57114820D01*
X89263108Y-57082221D01*
X89328207Y-57042251D01*
X89328210Y-57042249D01*
X89332776Y-57039445D01*
X89428939Y-56933207D01*
X89474418Y-56909178D01*
X89524706Y-56920004D01*
X89542253Y-56935285D01*
X89619591Y-57027290D01*
X89739507Y-57107112D01*
X89877006Y-57150070D01*
X89951108Y-57151428D01*
X90015673Y-57152612D01*
X90015675Y-57152612D01*
X90021035Y-57152710D01*
X90026206Y-57151300D01*
X90026208Y-57151300D01*
X90101932Y-57130655D01*
X90160016Y-57114820D01*
X90213108Y-57082221D01*
X90278207Y-57042251D01*
X90278210Y-57042249D01*
X90282776Y-57039445D01*
X90379447Y-56932645D01*
X90385032Y-56921119D01*
X90439919Y-56807831D01*
X90439919Y-56807830D01*
X90442257Y-56803005D01*
X90466156Y-56660948D01*
X90466308Y-56648535D01*
X90465896Y-56645655D01*
X90446646Y-56511239D01*
X90446645Y-56511235D01*
X90445886Y-56505936D01*
X90386263Y-56374801D01*
X90381775Y-56369592D01*
X90295724Y-56269725D01*
X90295721Y-56269722D01*
X90292230Y-56265671D01*
X90287739Y-56262760D01*
X90175841Y-56190232D01*
X90175840Y-56190232D01*
X90171348Y-56187320D01*
X90095149Y-56164532D01*
X90038469Y-56147580D01*
X90038466Y-56147580D01*
X90033335Y-56146045D01*
X90027980Y-56146012D01*
X90027978Y-56146012D01*
X89962761Y-56145614D01*
X89889284Y-56145165D01*
X89884134Y-56146637D01*
X89884133Y-56146637D01*
X89820030Y-56164958D01*
X89750776Y-56184750D01*
X89746250Y-56187606D01*
X89746247Y-56187607D01*
X89633474Y-56258762D01*
X89628946Y-56261619D01*
X89621787Y-56269725D01*
X89539117Y-56363331D01*
X89493932Y-56387915D01*
X89443516Y-56377704D01*
X89425783Y-56362639D01*
X89345724Y-56269725D01*
X89345721Y-56269722D01*
X89342230Y-56265671D01*
X89337739Y-56262760D01*
X89225841Y-56190232D01*
X89225840Y-56190232D01*
X89221348Y-56187320D01*
X89145149Y-56164532D01*
X89088469Y-56147580D01*
X89088466Y-56147580D01*
X89083335Y-56146045D01*
X89077980Y-56146012D01*
X89077978Y-56146012D01*
X89012761Y-56145614D01*
X88939284Y-56145165D01*
X88934134Y-56146637D01*
X88934133Y-56146637D01*
X88870030Y-56164958D01*
X88800776Y-56184750D01*
X88796250Y-56187606D01*
X88796247Y-56187607D01*
X88683474Y-56258762D01*
X88678946Y-56261619D01*
X88671787Y-56269725D01*
X88587134Y-56365576D01*
X88587132Y-56365579D01*
X88583588Y-56369592D01*
X88522366Y-56499989D01*
X88500204Y-56642328D01*
X81530500Y-56642328D01*
X81530500Y-51504993D01*
X82880167Y-51504993D01*
X82880861Y-51510300D01*
X82880861Y-51510303D01*
X82888984Y-51572420D01*
X82898845Y-51647830D01*
X82956862Y-51779684D01*
X83049554Y-51889955D01*
X83169470Y-51969777D01*
X83306969Y-52012735D01*
X83381071Y-52014093D01*
X83445636Y-52015277D01*
X83445638Y-52015277D01*
X83450998Y-52015375D01*
X83456169Y-52013965D01*
X83456171Y-52013965D01*
X83531895Y-51993320D01*
X83589979Y-51977485D01*
X83643071Y-51944886D01*
X83708170Y-51904916D01*
X83708173Y-51904914D01*
X83712739Y-51902110D01*
X83809410Y-51795310D01*
X83814995Y-51783784D01*
X83869882Y-51670496D01*
X83869882Y-51670495D01*
X83872220Y-51665670D01*
X83896119Y-51523613D01*
X83896271Y-51511200D01*
X83895859Y-51508320D01*
X83876609Y-51373904D01*
X83876608Y-51373900D01*
X83875849Y-51368601D01*
X83873354Y-51363112D01*
X83838442Y-51286328D01*
X83816226Y-51237466D01*
X83812316Y-51232928D01*
X84584587Y-51232928D01*
X84585281Y-51238235D01*
X84585281Y-51238238D01*
X84586438Y-51247083D01*
X84603265Y-51375765D01*
X84645200Y-51471070D01*
X84658055Y-51500284D01*
X84661282Y-51507619D01*
X84664727Y-51511717D01*
X84664728Y-51511719D01*
X84677758Y-51527220D01*
X84753974Y-51617890D01*
X84873890Y-51697712D01*
X85011389Y-51740670D01*
X85085491Y-51742028D01*
X85150056Y-51743212D01*
X85150058Y-51743212D01*
X85155418Y-51743310D01*
X85160589Y-51741900D01*
X85160591Y-51741900D01*
X85236315Y-51721255D01*
X85294399Y-51705420D01*
X85380197Y-51652740D01*
X85412590Y-51632851D01*
X85412593Y-51632849D01*
X85417159Y-51630045D01*
X85421259Y-51625516D01*
X85510232Y-51527220D01*
X85513830Y-51523245D01*
X85518257Y-51514109D01*
X85574302Y-51398431D01*
X85574302Y-51398430D01*
X85576640Y-51393605D01*
X85600539Y-51251548D01*
X85600691Y-51239135D01*
X85600279Y-51236255D01*
X85598752Y-51225593D01*
X85851967Y-51225593D01*
X85852661Y-51230900D01*
X85852661Y-51230903D01*
X85853738Y-51239135D01*
X85870645Y-51368430D01*
X85928662Y-51500284D01*
X85932107Y-51504382D01*
X85932108Y-51504384D01*
X85948272Y-51523613D01*
X86021354Y-51610555D01*
X86141270Y-51690377D01*
X86278769Y-51733335D01*
X86352871Y-51734693D01*
X86417436Y-51735877D01*
X86417438Y-51735877D01*
X86422798Y-51735975D01*
X86427969Y-51734565D01*
X86427971Y-51734565D01*
X86545159Y-51702616D01*
X86561779Y-51698085D01*
X86623181Y-51660384D01*
X86679970Y-51625516D01*
X86679973Y-51625514D01*
X86684539Y-51622710D01*
X86781210Y-51515910D01*
X86784888Y-51508320D01*
X86841682Y-51391096D01*
X86841682Y-51391095D01*
X86844020Y-51386270D01*
X86867919Y-51244213D01*
X86868071Y-51231800D01*
X86867659Y-51228920D01*
X86867183Y-51225593D01*
X87121967Y-51225593D01*
X87122661Y-51230900D01*
X87122661Y-51230903D01*
X87123738Y-51239135D01*
X87140645Y-51368430D01*
X87198662Y-51500284D01*
X87202107Y-51504382D01*
X87202108Y-51504384D01*
X87218272Y-51523613D01*
X87291354Y-51610555D01*
X87411270Y-51690377D01*
X87548769Y-51733335D01*
X87622871Y-51734693D01*
X87687436Y-51735877D01*
X87687438Y-51735877D01*
X87692798Y-51735975D01*
X87697969Y-51734565D01*
X87697971Y-51734565D01*
X87815159Y-51702616D01*
X87831779Y-51698085D01*
X87893181Y-51660384D01*
X87949970Y-51625516D01*
X87949973Y-51625514D01*
X87954539Y-51622710D01*
X88051210Y-51515910D01*
X88054888Y-51508320D01*
X88111682Y-51391096D01*
X88111682Y-51391095D01*
X88114020Y-51386270D01*
X88137919Y-51244213D01*
X88138071Y-51231800D01*
X88137659Y-51228920D01*
X88118409Y-51094504D01*
X88118408Y-51094500D01*
X88117649Y-51089201D01*
X88058026Y-50958066D01*
X88053538Y-50952857D01*
X87967487Y-50852990D01*
X87967484Y-50852987D01*
X87963993Y-50848936D01*
X87959502Y-50846025D01*
X87847604Y-50773497D01*
X87847603Y-50773497D01*
X87843111Y-50770585D01*
X87766912Y-50747797D01*
X87710232Y-50730845D01*
X87710229Y-50730845D01*
X87705098Y-50729310D01*
X87699743Y-50729277D01*
X87699741Y-50729277D01*
X87634524Y-50728879D01*
X87561047Y-50728430D01*
X87555897Y-50729902D01*
X87555896Y-50729902D01*
X87491793Y-50748223D01*
X87422539Y-50768015D01*
X87418013Y-50770871D01*
X87418010Y-50770872D01*
X87305237Y-50842027D01*
X87300709Y-50844884D01*
X87296754Y-50849362D01*
X87208897Y-50948841D01*
X87208895Y-50948844D01*
X87205351Y-50952857D01*
X87201907Y-50960192D01*
X87160956Y-51047415D01*
X87144129Y-51083254D01*
X87143305Y-51088544D01*
X87143305Y-51088545D01*
X87137741Y-51124284D01*
X87121967Y-51225593D01*
X86867183Y-51225593D01*
X86848409Y-51094504D01*
X86848408Y-51094500D01*
X86847649Y-51089201D01*
X86788026Y-50958066D01*
X86783538Y-50952857D01*
X86697487Y-50852990D01*
X86697484Y-50852987D01*
X86693993Y-50848936D01*
X86689502Y-50846025D01*
X86577604Y-50773497D01*
X86577603Y-50773497D01*
X86573111Y-50770585D01*
X86496912Y-50747797D01*
X86440232Y-50730845D01*
X86440229Y-50730845D01*
X86435098Y-50729310D01*
X86429743Y-50729277D01*
X86429741Y-50729277D01*
X86364524Y-50728879D01*
X86291047Y-50728430D01*
X86285897Y-50729902D01*
X86285896Y-50729902D01*
X86221793Y-50748223D01*
X86152539Y-50768015D01*
X86148013Y-50770871D01*
X86148010Y-50770872D01*
X86035237Y-50842027D01*
X86030709Y-50844884D01*
X86026754Y-50849362D01*
X85938897Y-50948841D01*
X85938895Y-50948844D01*
X85935351Y-50952857D01*
X85931907Y-50960192D01*
X85890956Y-51047415D01*
X85874129Y-51083254D01*
X85873305Y-51088544D01*
X85873305Y-51088545D01*
X85867741Y-51124284D01*
X85851967Y-51225593D01*
X85598752Y-51225593D01*
X85581029Y-51101839D01*
X85581028Y-51101835D01*
X85580269Y-51096536D01*
X85520646Y-50965401D01*
X85514015Y-50957705D01*
X85430107Y-50860325D01*
X85430104Y-50860322D01*
X85426613Y-50856271D01*
X85421551Y-50852990D01*
X85310224Y-50780832D01*
X85310223Y-50780832D01*
X85305731Y-50777920D01*
X85229532Y-50755132D01*
X85172852Y-50738180D01*
X85172849Y-50738180D01*
X85167718Y-50736645D01*
X85162363Y-50736612D01*
X85162361Y-50736612D01*
X85097144Y-50736214D01*
X85023667Y-50735765D01*
X85018517Y-50737237D01*
X85018516Y-50737237D01*
X84954413Y-50755558D01*
X84885159Y-50775350D01*
X84880633Y-50778206D01*
X84880630Y-50778207D01*
X84779482Y-50842027D01*
X84763329Y-50852219D01*
X84756170Y-50860325D01*
X84671517Y-50956176D01*
X84671515Y-50956179D01*
X84667971Y-50960192D01*
X84663234Y-50970282D01*
X84624446Y-51052897D01*
X84606749Y-51090589D01*
X84605925Y-51095879D01*
X84605925Y-51095880D01*
X84601503Y-51124284D01*
X84584587Y-51232928D01*
X83812316Y-51232928D01*
X83810571Y-51230903D01*
X83725687Y-51132390D01*
X83725684Y-51132387D01*
X83722193Y-51128336D01*
X83717702Y-51125425D01*
X83605804Y-51052897D01*
X83605803Y-51052897D01*
X83601311Y-51049985D01*
X83525112Y-51027197D01*
X83468432Y-51010245D01*
X83468429Y-51010245D01*
X83463298Y-51008710D01*
X83457943Y-51008677D01*
X83457941Y-51008677D01*
X83392724Y-51008279D01*
X83319247Y-51007830D01*
X83314097Y-51009302D01*
X83314096Y-51009302D01*
X83249993Y-51027623D01*
X83180739Y-51047415D01*
X83176213Y-51050271D01*
X83176210Y-51050272D01*
X83102887Y-51096536D01*
X83058909Y-51124284D01*
X83051750Y-51132390D01*
X82967097Y-51228241D01*
X82967095Y-51228244D01*
X82963551Y-51232257D01*
X82902329Y-51362654D01*
X82901505Y-51367944D01*
X82901505Y-51367945D01*
X82894142Y-51415237D01*
X82880167Y-51504993D01*
X81530500Y-51504993D01*
X81530500Y-49887936D01*
X82994706Y-49887936D01*
X82995400Y-49893243D01*
X82995400Y-49893246D01*
X82995898Y-49897052D01*
X83013384Y-50030773D01*
X83071401Y-50162627D01*
X83164093Y-50272898D01*
X83284009Y-50352720D01*
X83421508Y-50395678D01*
X83495610Y-50397036D01*
X83560175Y-50398220D01*
X83560177Y-50398220D01*
X83565537Y-50398318D01*
X83570708Y-50396908D01*
X83570710Y-50396908D01*
X83646434Y-50376263D01*
X83704518Y-50360428D01*
X83757610Y-50327829D01*
X83822709Y-50287859D01*
X83822712Y-50287857D01*
X83827278Y-50285053D01*
X83923949Y-50178253D01*
X83929534Y-50166727D01*
X83984421Y-50053439D01*
X83984421Y-50053438D01*
X83986759Y-50048613D01*
X84010658Y-49906556D01*
X84010810Y-49894143D01*
X84010398Y-49891263D01*
X83991148Y-49756847D01*
X83991147Y-49756843D01*
X83990388Y-49751544D01*
X83930765Y-49620409D01*
X83926277Y-49615200D01*
X83840226Y-49515333D01*
X83840223Y-49515330D01*
X83836732Y-49511279D01*
X83832241Y-49508368D01*
X83720343Y-49435840D01*
X83720342Y-49435840D01*
X83715850Y-49432928D01*
X83639651Y-49410140D01*
X83582971Y-49393188D01*
X83582968Y-49393188D01*
X83577837Y-49391653D01*
X83572482Y-49391620D01*
X83572480Y-49391620D01*
X83507263Y-49391222D01*
X83433786Y-49390773D01*
X83428636Y-49392245D01*
X83428635Y-49392245D01*
X83364532Y-49410565D01*
X83295278Y-49430358D01*
X83290752Y-49433214D01*
X83290749Y-49433215D01*
X83177976Y-49504370D01*
X83173448Y-49507227D01*
X83166289Y-49515333D01*
X83081636Y-49611184D01*
X83081634Y-49611187D01*
X83078090Y-49615200D01*
X83016868Y-49745597D01*
X82994706Y-49887936D01*
X81530500Y-49887936D01*
X81530500Y-46779510D01*
X81548093Y-46731172D01*
X81592642Y-46705452D01*
X81634344Y-46710020D01*
X81640342Y-46714028D01*
X81684943Y-46722900D01*
X82549883Y-46722900D01*
X83415056Y-46722899D01*
X83459658Y-46714028D01*
X83510234Y-46680234D01*
X83544028Y-46629658D01*
X83552900Y-46585057D01*
X83552899Y-44854944D01*
X83544028Y-44810342D01*
X83510234Y-44759766D01*
X83472493Y-44734548D01*
X83465817Y-44730087D01*
X83465816Y-44730086D01*
X83459658Y-44725972D01*
X83415057Y-44717100D01*
X82550118Y-44717100D01*
X81684944Y-44717101D01*
X81660250Y-44722012D01*
X81647611Y-44724526D01*
X81647610Y-44724526D01*
X81640342Y-44725972D01*
X81634357Y-44729971D01*
X81583087Y-44732209D01*
X81542277Y-44700895D01*
X81530500Y-44660490D01*
X81530500Y-43681793D01*
X82803967Y-43681793D01*
X82804661Y-43687100D01*
X82804661Y-43687103D01*
X82805159Y-43690909D01*
X82822645Y-43824630D01*
X82880662Y-43956484D01*
X82973354Y-44066755D01*
X83093270Y-44146577D01*
X83230769Y-44189535D01*
X83304871Y-44190893D01*
X83369436Y-44192077D01*
X83369438Y-44192077D01*
X83374798Y-44192175D01*
X83379969Y-44190765D01*
X83379971Y-44190765D01*
X83455695Y-44170120D01*
X83513779Y-44154285D01*
X83566871Y-44121686D01*
X83631970Y-44081716D01*
X83631973Y-44081714D01*
X83636539Y-44078910D01*
X83733210Y-43972110D01*
X83738795Y-43960584D01*
X83793682Y-43847296D01*
X83793682Y-43847295D01*
X83796020Y-43842470D01*
X83819919Y-43700413D01*
X83820071Y-43688000D01*
X83819659Y-43685120D01*
X83819183Y-43681793D01*
X88899967Y-43681793D01*
X88900661Y-43687100D01*
X88900661Y-43687103D01*
X88901159Y-43690909D01*
X88918645Y-43824630D01*
X88976662Y-43956484D01*
X89069354Y-44066755D01*
X89189270Y-44146577D01*
X89326769Y-44189535D01*
X89400871Y-44190893D01*
X89465436Y-44192077D01*
X89465438Y-44192077D01*
X89470798Y-44192175D01*
X89475969Y-44190765D01*
X89475971Y-44190765D01*
X89551695Y-44170120D01*
X89609779Y-44154285D01*
X89662871Y-44121686D01*
X89727970Y-44081716D01*
X89727973Y-44081714D01*
X89732539Y-44078910D01*
X89829210Y-43972110D01*
X89834795Y-43960584D01*
X89889682Y-43847296D01*
X89889682Y-43847295D01*
X89892020Y-43842470D01*
X89915919Y-43700413D01*
X89916071Y-43688000D01*
X89915659Y-43685120D01*
X89896409Y-43550704D01*
X89896408Y-43550700D01*
X89895649Y-43545401D01*
X89836026Y-43414266D01*
X89741993Y-43305136D01*
X89737499Y-43302223D01*
X89735118Y-43300146D01*
X89710258Y-43255112D01*
X89720162Y-43204634D01*
X89732701Y-43190057D01*
X89732539Y-43189910D01*
X89825612Y-43087085D01*
X89829210Y-43083110D01*
X89834795Y-43071584D01*
X89889682Y-42958296D01*
X89889682Y-42958295D01*
X89892020Y-42953470D01*
X89915919Y-42811413D01*
X89916071Y-42799000D01*
X89915659Y-42796120D01*
X89896409Y-42661704D01*
X89896408Y-42661700D01*
X89895649Y-42656401D01*
X89836026Y-42525266D01*
X89831538Y-42520057D01*
X89745487Y-42420190D01*
X89745484Y-42420187D01*
X89741993Y-42416136D01*
X89737502Y-42413225D01*
X89625604Y-42340697D01*
X89625603Y-42340697D01*
X89621111Y-42337785D01*
X89544912Y-42314997D01*
X89488232Y-42298045D01*
X89488229Y-42298045D01*
X89483098Y-42296510D01*
X89477743Y-42296477D01*
X89477741Y-42296477D01*
X89412524Y-42296079D01*
X89339047Y-42295630D01*
X89333897Y-42297102D01*
X89333896Y-42297102D01*
X89269793Y-42315422D01*
X89200539Y-42335215D01*
X89196013Y-42338071D01*
X89196010Y-42338072D01*
X89083237Y-42409227D01*
X89078709Y-42412084D01*
X89071550Y-42420190D01*
X88986897Y-42516041D01*
X88986895Y-42516044D01*
X88983351Y-42520057D01*
X88922129Y-42650454D01*
X88899967Y-42792793D01*
X88900661Y-42798100D01*
X88900661Y-42798103D01*
X88901159Y-42801909D01*
X88918645Y-42935630D01*
X88976662Y-43067484D01*
X89069354Y-43177755D01*
X89073814Y-43180724D01*
X89077807Y-43184294D01*
X89076992Y-43185206D01*
X89104066Y-43221995D01*
X89100792Y-43273331D01*
X89081444Y-43299358D01*
X89078709Y-43301084D01*
X89071547Y-43309194D01*
X88986897Y-43405041D01*
X88986895Y-43405044D01*
X88983351Y-43409057D01*
X88922129Y-43539454D01*
X88899967Y-43681793D01*
X83819183Y-43681793D01*
X83800409Y-43550704D01*
X83800408Y-43550700D01*
X83799649Y-43545401D01*
X83740026Y-43414266D01*
X83645993Y-43305136D01*
X83641499Y-43302223D01*
X83639118Y-43300146D01*
X83614258Y-43255112D01*
X83624162Y-43204634D01*
X83636701Y-43190057D01*
X83636539Y-43189910D01*
X83729612Y-43087085D01*
X83733210Y-43083110D01*
X83738795Y-43071584D01*
X83793682Y-42958296D01*
X83793682Y-42958295D01*
X83796020Y-42953470D01*
X83819919Y-42811413D01*
X83820071Y-42799000D01*
X83819659Y-42796120D01*
X83800409Y-42661704D01*
X83800408Y-42661700D01*
X83799649Y-42656401D01*
X83740026Y-42525266D01*
X83735538Y-42520057D01*
X83649487Y-42420190D01*
X83649484Y-42420187D01*
X83645993Y-42416136D01*
X83641502Y-42413225D01*
X83529604Y-42340697D01*
X83529603Y-42340697D01*
X83525111Y-42337785D01*
X83448912Y-42314997D01*
X83392232Y-42298045D01*
X83392229Y-42298045D01*
X83387098Y-42296510D01*
X83381743Y-42296477D01*
X83381741Y-42296477D01*
X83316524Y-42296079D01*
X83243047Y-42295630D01*
X83237897Y-42297102D01*
X83237896Y-42297102D01*
X83173793Y-42315422D01*
X83104539Y-42335215D01*
X83100013Y-42338071D01*
X83100010Y-42338072D01*
X82987237Y-42409227D01*
X82982709Y-42412084D01*
X82975550Y-42420190D01*
X82890897Y-42516041D01*
X82890895Y-42516044D01*
X82887351Y-42520057D01*
X82826129Y-42650454D01*
X82803967Y-42792793D01*
X82804661Y-42798100D01*
X82804661Y-42798103D01*
X82805159Y-42801909D01*
X82822645Y-42935630D01*
X82880662Y-43067484D01*
X82973354Y-43177755D01*
X82977814Y-43180724D01*
X82981807Y-43184294D01*
X82980992Y-43185206D01*
X83008066Y-43221995D01*
X83004792Y-43273331D01*
X82985444Y-43299358D01*
X82982709Y-43301084D01*
X82975547Y-43309194D01*
X82890897Y-43405041D01*
X82890895Y-43405044D01*
X82887351Y-43409057D01*
X82826129Y-43539454D01*
X82803967Y-43681793D01*
X81530500Y-43681793D01*
X81530500Y-39159510D01*
X81548093Y-39111172D01*
X81592642Y-39085452D01*
X81634344Y-39090020D01*
X81640342Y-39094028D01*
X81684943Y-39102900D01*
X82549882Y-39102900D01*
X83415056Y-39102899D01*
X83459658Y-39094028D01*
X83510234Y-39060234D01*
X83544028Y-39009658D01*
X83552900Y-38965057D01*
X83552899Y-37234944D01*
X83544028Y-37190342D01*
X83510234Y-37139766D01*
X83472493Y-37114548D01*
X83465817Y-37110087D01*
X83465816Y-37110086D01*
X83459658Y-37105972D01*
X83415057Y-37097100D01*
X82550118Y-37097100D01*
X81684944Y-37097101D01*
X81660250Y-37102012D01*
X81647611Y-37104526D01*
X81647610Y-37104526D01*
X81640342Y-37105972D01*
X81634357Y-37109971D01*
X81583087Y-37112209D01*
X81542277Y-37080895D01*
X81530500Y-37040490D01*
X81530500Y-36619510D01*
X81548093Y-36571172D01*
X81592642Y-36545452D01*
X81634344Y-36550020D01*
X81640342Y-36554028D01*
X81684943Y-36562900D01*
X82549882Y-36562900D01*
X83415056Y-36562899D01*
X83459658Y-36554028D01*
X83510234Y-36520234D01*
X83544028Y-36469658D01*
X83552900Y-36425057D01*
X83552899Y-34694944D01*
X83544028Y-34650342D01*
X83510234Y-34599766D01*
X83472493Y-34574548D01*
X83465817Y-34570087D01*
X83465816Y-34570086D01*
X83459658Y-34565972D01*
X83415057Y-34557100D01*
X82550118Y-34557100D01*
X81684944Y-34557101D01*
X81660250Y-34562012D01*
X81647611Y-34564526D01*
X81647610Y-34564526D01*
X81640342Y-34565972D01*
X81634357Y-34569971D01*
X81583087Y-34572209D01*
X81542277Y-34540895D01*
X81530500Y-34500490D01*
X81530500Y-31539510D01*
X81548093Y-31491172D01*
X81592642Y-31465452D01*
X81634344Y-31470020D01*
X81640342Y-31474028D01*
X81684943Y-31482900D01*
X82549882Y-31482900D01*
X83415056Y-31482899D01*
X83459658Y-31474028D01*
X83510234Y-31440234D01*
X83544028Y-31389658D01*
X83552900Y-31345057D01*
X83552899Y-29614944D01*
X83544028Y-29570342D01*
X83510234Y-29519766D01*
X83472493Y-29494548D01*
X83465817Y-29490087D01*
X83465816Y-29490086D01*
X83459658Y-29485972D01*
X83415057Y-29477100D01*
X82550118Y-29477100D01*
X81684944Y-29477101D01*
X81660250Y-29482012D01*
X81647611Y-29484526D01*
X81647610Y-29484526D01*
X81640342Y-29485972D01*
X81634357Y-29489971D01*
X81583087Y-29492209D01*
X81542277Y-29460895D01*
X81530500Y-29420490D01*
X81530500Y-28999510D01*
X81548093Y-28951172D01*
X81592642Y-28925452D01*
X81634344Y-28930020D01*
X81640342Y-28934028D01*
X81684943Y-28942900D01*
X82549882Y-28942900D01*
X83415056Y-28942899D01*
X83459658Y-28934028D01*
X83510234Y-28900234D01*
X83544028Y-28849658D01*
X83552900Y-28805057D01*
X83552899Y-27074944D01*
X83544028Y-27030342D01*
X83510234Y-26979766D01*
X83472493Y-26954548D01*
X83465817Y-26950087D01*
X83465816Y-26950086D01*
X83459658Y-26945972D01*
X83415057Y-26937100D01*
X82550118Y-26937100D01*
X81684944Y-26937101D01*
X81660250Y-26942012D01*
X81647611Y-26944526D01*
X81647610Y-26944526D01*
X81640342Y-26945972D01*
X81634357Y-26949971D01*
X81583087Y-26952209D01*
X81542277Y-26920895D01*
X81530500Y-26880490D01*
X81530500Y-25633519D01*
X81548093Y-25585181D01*
X81592642Y-25559461D01*
X81643300Y-25568394D01*
X81651562Y-25574375D01*
X81652554Y-25575555D01*
X81772470Y-25655377D01*
X81909969Y-25698335D01*
X81984071Y-25699693D01*
X82048636Y-25700877D01*
X82048638Y-25700877D01*
X82053998Y-25700975D01*
X82059169Y-25699565D01*
X82059171Y-25699565D01*
X82134895Y-25678920D01*
X82192979Y-25663085D01*
X82282557Y-25608084D01*
X82311170Y-25590516D01*
X82311173Y-25590514D01*
X82315739Y-25587710D01*
X82412410Y-25480910D01*
X82414850Y-25475875D01*
X82417423Y-25470565D01*
X85447636Y-25470565D01*
X85448330Y-25475872D01*
X85448330Y-25475875D01*
X85449586Y-25485480D01*
X85466314Y-25613402D01*
X85524331Y-25745256D01*
X85527776Y-25749354D01*
X85527777Y-25749356D01*
X85581592Y-25813376D01*
X85617023Y-25855527D01*
X85639499Y-25870488D01*
X85729464Y-25930373D01*
X85736939Y-25935349D01*
X85874438Y-25978307D01*
X85948540Y-25979665D01*
X86013105Y-25980849D01*
X86013107Y-25980849D01*
X86018467Y-25980947D01*
X86023638Y-25979537D01*
X86023640Y-25979537D01*
X86099364Y-25958892D01*
X86157448Y-25943057D01*
X86210540Y-25910458D01*
X86275639Y-25870488D01*
X86275642Y-25870486D01*
X86280208Y-25867682D01*
X86283807Y-25863706D01*
X86328359Y-25814486D01*
X86373840Y-25790456D01*
X86424128Y-25801282D01*
X86441673Y-25816561D01*
X86468900Y-25848952D01*
X86588816Y-25928774D01*
X86726315Y-25971732D01*
X86800417Y-25973090D01*
X86864982Y-25974274D01*
X86864984Y-25974274D01*
X86870344Y-25974372D01*
X86875515Y-25972962D01*
X86875517Y-25972962D01*
X86951241Y-25952317D01*
X87009325Y-25936482D01*
X87121377Y-25867682D01*
X87127516Y-25863913D01*
X87127519Y-25863911D01*
X87132085Y-25861107D01*
X87228756Y-25754307D01*
X87232149Y-25747305D01*
X87289228Y-25629493D01*
X87289228Y-25629492D01*
X87291566Y-25624667D01*
X87315465Y-25482610D01*
X87315617Y-25470197D01*
X87315205Y-25467317D01*
X87295955Y-25332901D01*
X87295954Y-25332897D01*
X87295195Y-25327598D01*
X87235572Y-25196463D01*
X87231084Y-25191254D01*
X87145033Y-25091387D01*
X87145030Y-25091384D01*
X87141539Y-25087333D01*
X87137048Y-25084422D01*
X87025150Y-25011894D01*
X87025149Y-25011894D01*
X87020657Y-25008982D01*
X86944458Y-24986194D01*
X86887778Y-24969242D01*
X86887775Y-24969242D01*
X86882644Y-24967707D01*
X86877289Y-24967674D01*
X86877287Y-24967674D01*
X86812070Y-24967276D01*
X86738593Y-24966827D01*
X86733443Y-24968299D01*
X86733442Y-24968299D01*
X86707137Y-24975817D01*
X86600085Y-25006412D01*
X86595559Y-25009268D01*
X86595556Y-25009269D01*
X86524344Y-25054201D01*
X86478255Y-25083281D01*
X86471096Y-25091387D01*
X86435225Y-25132003D01*
X86390040Y-25156587D01*
X86339624Y-25146376D01*
X86321891Y-25131311D01*
X86293156Y-25097963D01*
X86289662Y-25093908D01*
X86283901Y-25090174D01*
X86173273Y-25018469D01*
X86173272Y-25018469D01*
X86168780Y-25015557D01*
X86092581Y-24992769D01*
X86035901Y-24975817D01*
X86035898Y-24975817D01*
X86030767Y-24974282D01*
X86025412Y-24974249D01*
X86025410Y-24974249D01*
X85960193Y-24973851D01*
X85886716Y-24973402D01*
X85881566Y-24974874D01*
X85881565Y-24974874D01*
X85874102Y-24977007D01*
X85748208Y-25012987D01*
X85743682Y-25015843D01*
X85743679Y-25015844D01*
X85674483Y-25059504D01*
X85626378Y-25089856D01*
X85619218Y-25097963D01*
X85534566Y-25193813D01*
X85534564Y-25193816D01*
X85531020Y-25197829D01*
X85528744Y-25202677D01*
X85472383Y-25322721D01*
X85469798Y-25328226D01*
X85447636Y-25470565D01*
X82417423Y-25470565D01*
X82472882Y-25356096D01*
X82472882Y-25356095D01*
X82475220Y-25351270D01*
X82499119Y-25209213D01*
X82499271Y-25196800D01*
X82498859Y-25193920D01*
X82479609Y-25059504D01*
X82479608Y-25059500D01*
X82478849Y-25054201D01*
X82475245Y-25046273D01*
X82421445Y-24927947D01*
X82419226Y-24923066D01*
X82377105Y-24874182D01*
X82328687Y-24817990D01*
X82328684Y-24817987D01*
X82325193Y-24813936D01*
X82320702Y-24811025D01*
X82208804Y-24738497D01*
X82208803Y-24738497D01*
X82204311Y-24735585D01*
X82128112Y-24712797D01*
X82071432Y-24695845D01*
X82071429Y-24695845D01*
X82066298Y-24694310D01*
X82060943Y-24694277D01*
X82060941Y-24694277D01*
X81995724Y-24693879D01*
X81922247Y-24693430D01*
X81917097Y-24694902D01*
X81917096Y-24694902D01*
X81852993Y-24713223D01*
X81783739Y-24733015D01*
X81779213Y-24735871D01*
X81779210Y-24735872D01*
X81741016Y-24759971D01*
X81661909Y-24809884D01*
X81658361Y-24813901D01*
X81654439Y-24817239D01*
X81606225Y-24835169D01*
X81557766Y-24817914D01*
X81531735Y-24773546D01*
X81530500Y-24759971D01*
X81530500Y-24579890D01*
X84125870Y-24579890D01*
X84126564Y-24585197D01*
X84126564Y-24585200D01*
X84127062Y-24589006D01*
X84144548Y-24722727D01*
X84160936Y-24759971D01*
X84194024Y-24835169D01*
X84202565Y-24854581D01*
X84295257Y-24964852D01*
X84415173Y-25044674D01*
X84552672Y-25087632D01*
X84626774Y-25088990D01*
X84691339Y-25090174D01*
X84691341Y-25090174D01*
X84696701Y-25090272D01*
X84701872Y-25088862D01*
X84701874Y-25088862D01*
X84809558Y-25059504D01*
X84835682Y-25052382D01*
X84901623Y-25011894D01*
X84953873Y-24979813D01*
X84953876Y-24979811D01*
X84958442Y-24977007D01*
X85055113Y-24870207D01*
X85060698Y-24858681D01*
X85115585Y-24745393D01*
X85115585Y-24745392D01*
X85117923Y-24740567D01*
X85141822Y-24598510D01*
X85141974Y-24586097D01*
X85141562Y-24583217D01*
X85122312Y-24448801D01*
X85122311Y-24448797D01*
X85121552Y-24443498D01*
X85061929Y-24312363D01*
X85057441Y-24307154D01*
X84971390Y-24207287D01*
X84971387Y-24207284D01*
X84967896Y-24203233D01*
X84963405Y-24200322D01*
X84851507Y-24127794D01*
X84851506Y-24127794D01*
X84847014Y-24124882D01*
X84740981Y-24093171D01*
X84714135Y-24085142D01*
X84714132Y-24085142D01*
X84709001Y-24083607D01*
X84703646Y-24083574D01*
X84703644Y-24083574D01*
X84638427Y-24083176D01*
X84564950Y-24082727D01*
X84559800Y-24084199D01*
X84559799Y-24084199D01*
X84528406Y-24093171D01*
X84426442Y-24122312D01*
X84421916Y-24125168D01*
X84421913Y-24125169D01*
X84309140Y-24196324D01*
X84304612Y-24199181D01*
X84297453Y-24207287D01*
X84212800Y-24303138D01*
X84212798Y-24303141D01*
X84209254Y-24307154D01*
X84148032Y-24437551D01*
X84125870Y-24579890D01*
X81530500Y-24579890D01*
X81530500Y-24033870D01*
X81548093Y-23985532D01*
X81592642Y-23959812D01*
X81643300Y-23968745D01*
X81653633Y-23975927D01*
X81687378Y-24003843D01*
X81836639Y-24074080D01*
X81841287Y-24074967D01*
X81841288Y-24074967D01*
X81894629Y-24085142D01*
X81998678Y-24104990D01*
X82003400Y-24104693D01*
X82003401Y-24104693D01*
X82158596Y-24094929D01*
X82158597Y-24094929D01*
X82163314Y-24094632D01*
X82206722Y-24080528D01*
X82315706Y-24045118D01*
X82315709Y-24045116D01*
X82320201Y-24043657D01*
X82459482Y-23955266D01*
X82572405Y-23835015D01*
X82651876Y-23690459D01*
X82692900Y-23530680D01*
X82692900Y-22607125D01*
X82677414Y-22484540D01*
X82616688Y-22331163D01*
X82569006Y-22265534D01*
X82522508Y-22201536D01*
X82519726Y-22197707D01*
X82392622Y-22092557D01*
X82243361Y-22022320D01*
X82238713Y-22021433D01*
X82238712Y-22021433D01*
X82085972Y-21992297D01*
X82081322Y-21991410D01*
X82076600Y-21991707D01*
X82076599Y-21991707D01*
X81921404Y-22001471D01*
X81921403Y-22001471D01*
X81916686Y-22001768D01*
X81873278Y-22015872D01*
X81764294Y-22051282D01*
X81764291Y-22051284D01*
X81759799Y-22052743D01*
X81702374Y-22089186D01*
X81645994Y-22124966D01*
X81595754Y-22136012D01*
X81550168Y-22112181D01*
X81530500Y-22061473D01*
X81530500Y-20233869D01*
X81548093Y-20185531D01*
X81592642Y-20159811D01*
X81643300Y-20168744D01*
X81653633Y-20175926D01*
X81687378Y-20203842D01*
X81836639Y-20274079D01*
X81841287Y-20274966D01*
X81841288Y-20274966D01*
X81936719Y-20293170D01*
X81998678Y-20304989D01*
X82003400Y-20304692D01*
X82003401Y-20304692D01*
X82158596Y-20294928D01*
X82158597Y-20294928D01*
X82163314Y-20294631D01*
X82206722Y-20280527D01*
X82315706Y-20245117D01*
X82315709Y-20245115D01*
X82320201Y-20243656D01*
X82459482Y-20155265D01*
X82572405Y-20035014D01*
X82651876Y-19890458D01*
X82692900Y-19730679D01*
X82692900Y-18407124D01*
X82677414Y-18284539D01*
X82616688Y-18131162D01*
X82569006Y-18065533D01*
X82522508Y-18001535D01*
X82519726Y-17997706D01*
X82392622Y-17892556D01*
X82243361Y-17822319D01*
X82238713Y-17821432D01*
X82238712Y-17821432D01*
X82085972Y-17792296D01*
X82081322Y-17791409D01*
X82076600Y-17791706D01*
X82076599Y-17791706D01*
X81921404Y-17801470D01*
X81921403Y-17801470D01*
X81916686Y-17801767D01*
X81873278Y-17815871D01*
X81764294Y-17851281D01*
X81764291Y-17851283D01*
X81759799Y-17852742D01*
X81702374Y-17889185D01*
X81645994Y-17924965D01*
X81595754Y-17936011D01*
X81550168Y-17912180D01*
X81530500Y-17861472D01*
X81530500Y-17812081D01*
X81531945Y-17797410D01*
X81533963Y-17787265D01*
X81533963Y-17787264D01*
X81535408Y-17780000D01*
X81533963Y-17772736D01*
X81533963Y-17771007D01*
X81532935Y-17752167D01*
X81545415Y-17609521D01*
X81547691Y-17596612D01*
X81590281Y-17437662D01*
X81594765Y-17425344D01*
X81664306Y-17276213D01*
X81670860Y-17264861D01*
X81765246Y-17130065D01*
X81773672Y-17120024D01*
X81890024Y-17003672D01*
X81900065Y-16995246D01*
X81956319Y-16955856D01*
X82034865Y-16900858D01*
X82046209Y-16894308D01*
X82195344Y-16824765D01*
X82207662Y-16820281D01*
X82366612Y-16777691D01*
X82379521Y-16775415D01*
X82522167Y-16762935D01*
X82541007Y-16763963D01*
X82542736Y-16763963D01*
X82550000Y-16765408D01*
X82557264Y-16763963D01*
X82557265Y-16763963D01*
X82567410Y-16761945D01*
X82582081Y-16760500D01*
X90137919Y-16760500D01*
X90152590Y-16761945D01*
G37*
G04 #@! TD.AperFunction*
M02*
