%TF.GenerationSoftware,KiCad,Pcbnew,7.0.8*%
%TF.CreationDate,2023-10-19T22:48:26-06:00*%
%TF.ProjectId,RP2040-Breadstick,52503230-3430-42d4-9272-656164737469,0.2*%
%TF.SameCoordinates,Original*%
%TF.FileFunction,Copper,L6,Bot*%
%TF.FilePolarity,Positive*%
%FSLAX46Y46*%
G04 Gerber Fmt 4.6, Leading zero omitted, Abs format (unit mm)*
G04 Created by KiCad (PCBNEW 7.0.8) date 2023-10-19 22:48:26*
%MOMM*%
%LPD*%
G01*
G04 APERTURE LIST*
%TA.AperFunction,ComponentPad*%
%ADD10O,1.000000X1.800000*%
%TD*%
%TA.AperFunction,ComponentPad*%
%ADD11O,1.000000X2.200000*%
%TD*%
%TA.AperFunction,ComponentPad*%
%ADD12R,1.700000X1.700000*%
%TD*%
%TA.AperFunction,ViaPad*%
%ADD13C,0.700000*%
%TD*%
%TA.AperFunction,Conductor*%
%ADD14C,0.152400*%
%TD*%
%TA.AperFunction,Conductor*%
%ADD15C,0.228600*%
%TD*%
%TA.AperFunction,Conductor*%
%ADD16C,0.508000*%
%TD*%
G04 APERTURE END LIST*
D10*
X90680000Y-23048200D03*
D11*
X90680000Y-19048199D03*
D10*
X82040000Y-23048200D03*
D11*
X82040000Y-19048199D03*
D12*
X82550000Y-152400000D03*
X82550000Y-76200000D03*
X90170000Y-152400000D03*
X82550000Y-177800000D03*
X82550000Y-175260000D03*
X82550000Y-45720000D03*
X90170000Y-167640000D03*
X90170000Y-45720000D03*
X82550000Y-137160000D03*
X82550000Y-167640000D03*
X82550000Y-91440000D03*
X90170000Y-60960000D03*
X82550000Y-60960000D03*
X90170000Y-76200000D03*
X90170000Y-27940000D03*
X90170000Y-30480000D03*
X90170000Y-33020000D03*
X90170000Y-35560000D03*
X90170000Y-38100000D03*
X90170000Y-177800000D03*
X90170000Y-175260000D03*
X82550000Y-27940000D03*
X82550000Y-30480000D03*
X82550000Y-33020000D03*
X82550000Y-35560000D03*
X82550000Y-38100000D03*
X82550000Y-106680000D03*
X90170000Y-106680000D03*
X90170000Y-91440000D03*
X90170000Y-137160000D03*
X90170000Y-121920000D03*
X82550000Y-121920000D03*
D13*
X86360000Y-119253000D03*
X86360000Y-26314400D03*
X83160001Y-22554799D03*
X86359989Y-126655205D03*
X86360000Y-101092000D03*
X86360000Y-112395000D03*
X87477600Y-69621400D03*
X83058000Y-132054600D03*
X87376000Y-67818000D03*
X89560001Y-22555599D03*
X86360000Y-108585000D03*
X83843100Y-84961933D03*
X86360011Y-96824800D03*
X86360439Y-79878086D03*
X86360000Y-146050000D03*
X86360000Y-161163000D03*
X90678000Y-73025000D03*
X83083400Y-101600000D03*
X86360000Y-138430000D03*
X88284300Y-81940400D03*
X86360000Y-172339000D03*
X90525600Y-25146000D03*
X86156800Y-62001400D03*
X90049100Y-51562000D03*
X86360011Y-149352000D03*
X86360000Y-134620000D03*
X83108800Y-40589200D03*
X87122000Y-53594000D03*
X86360011Y-131191000D03*
X89550000Y-24810000D03*
X86360000Y-164846000D03*
X83160001Y-25196399D03*
X86487000Y-66395600D03*
X82042000Y-162534600D03*
X83439000Y-48768000D03*
X86360000Y-123063000D03*
X86360000Y-153670000D03*
X86227777Y-76903063D03*
X86360000Y-43688000D03*
X83846437Y-66895685D03*
X86360000Y-115570000D03*
X83083400Y-162534600D03*
X82016600Y-132054600D03*
X88773000Y-67056000D03*
X82804000Y-87858600D03*
X86360000Y-104521000D03*
X86360000Y-168656000D03*
X86360000Y-157099000D03*
X82003310Y-67288648D03*
X86360000Y-142494000D03*
X87122000Y-56134000D03*
X82042000Y-101600000D03*
X86360000Y-176149000D03*
X86360000Y-42799000D03*
X89516200Y-57429400D03*
X87505892Y-66062725D03*
X87178878Y-72966251D03*
X84133900Y-67697620D03*
X82009339Y-68153367D03*
X83944621Y-69039579D03*
X89008237Y-56648535D03*
X85955669Y-25476772D03*
X89958237Y-56648535D03*
X86807546Y-25470197D03*
X87347767Y-71103250D03*
X88873071Y-66066855D03*
X87833200Y-40620713D03*
X88750921Y-73660948D03*
X90709595Y-67009238D03*
X90716395Y-67861113D03*
X88199607Y-71092861D03*
X81991200Y-25196800D03*
X84633903Y-24586097D03*
X83502750Y-49834800D03*
X83335255Y-58117163D03*
X88873100Y-67970000D03*
X90718100Y-69564917D03*
X90716900Y-68713015D03*
X88779481Y-68817922D03*
X90718100Y-70416819D03*
X85938111Y-70950000D03*
X83972400Y-78714600D03*
X89408000Y-43688000D03*
X81965800Y-69291200D03*
X82042000Y-78232000D03*
X89408000Y-42799000D03*
X82550000Y-64643000D03*
X88750000Y-64520000D03*
X86758100Y-64520900D03*
X83388200Y-51511200D03*
X88816066Y-69669039D03*
X82118200Y-96494600D03*
X82118200Y-95631000D03*
X83312000Y-43688000D03*
X83312000Y-42799000D03*
X85806286Y-64300634D03*
X85092620Y-51239135D03*
X85547518Y-63488984D03*
X86360000Y-51231800D03*
X85490000Y-62620000D03*
X87630000Y-51231800D03*
X83921600Y-70713600D03*
X81990000Y-70205600D03*
X82014265Y-71379914D03*
X90424000Y-72110600D03*
X90716900Y-71268721D03*
D14*
X88900000Y-93573600D02*
X90170000Y-94843600D01*
X88900000Y-81407000D02*
X88900000Y-93573600D01*
X88366600Y-80873600D02*
X88900000Y-81407000D01*
X88366600Y-74371200D02*
X88366600Y-80873600D01*
X88722200Y-72872111D02*
X88138000Y-73456311D01*
X88138000Y-73456311D02*
X88138000Y-74142600D01*
X88722200Y-72148700D02*
X88722200Y-72872111D01*
X89535000Y-70764400D02*
X89535000Y-71335900D01*
X88138000Y-74142600D02*
X88366600Y-74371200D01*
X90170000Y-94843600D02*
X90170000Y-106680000D01*
X89882581Y-70416819D02*
X89535000Y-70764400D01*
X89535000Y-71335900D02*
X88722200Y-72148700D01*
X90718100Y-70416819D02*
X89882581Y-70416819D01*
X90170000Y-109905800D02*
X90170000Y-121920000D01*
X88417400Y-108153200D02*
X90170000Y-109905800D01*
X88417400Y-94742000D02*
X88417400Y-108153200D01*
X87680800Y-94005400D02*
X88417400Y-94742000D01*
X87680800Y-75107800D02*
X87680800Y-94005400D01*
X87630000Y-75057000D02*
X87680800Y-75107800D01*
X87630000Y-73355200D02*
X87630000Y-75057000D01*
X87934800Y-73050400D02*
X87630000Y-73355200D01*
X87934800Y-72339200D02*
X87934800Y-73050400D01*
X88874600Y-70586600D02*
X88874600Y-71399400D01*
X88874600Y-71399400D02*
X87934800Y-72339200D01*
X89896283Y-69564917D02*
X88874600Y-70586600D01*
X90718100Y-69564917D02*
X89896283Y-69564917D01*
X83820000Y-105410000D02*
X82550000Y-106680000D01*
X83820000Y-86385400D02*
X83820000Y-105410000D01*
X84480400Y-85725000D02*
X83820000Y-86385400D01*
X84480400Y-83997800D02*
X84480400Y-85725000D01*
X84074000Y-83591400D02*
X84480400Y-83997800D01*
X84074000Y-80353574D02*
X84074000Y-83591400D01*
X84558111Y-78233511D02*
X84558111Y-79869463D01*
X84425854Y-78101254D02*
X84558111Y-78233511D01*
X83032600Y-71248200D02*
X83032600Y-72999600D01*
X83032600Y-72999600D02*
X84425854Y-74392854D01*
X81990000Y-70205600D02*
X83032600Y-71248200D01*
X84425854Y-74392854D02*
X84425854Y-78101254D01*
X84558111Y-79869463D02*
X84074000Y-80353574D01*
X85750400Y-174599600D02*
X82550000Y-177800000D01*
X86131400Y-80797400D02*
X86131400Y-95669100D01*
X85649666Y-80315666D02*
X86131400Y-80797400D01*
X85649666Y-75971400D02*
X85649666Y-80315666D01*
X85750400Y-96050100D02*
X85750400Y-174599600D01*
X87167500Y-71103250D02*
X85902800Y-72367950D01*
X86131400Y-95669100D02*
X85750400Y-96050100D01*
X87347767Y-71103250D02*
X87167500Y-71103250D01*
X85902800Y-72367950D02*
X85902800Y-75718266D01*
X85902800Y-75718266D02*
X85649666Y-75971400D01*
D15*
X85955669Y-25476772D02*
X86139020Y-25660123D01*
X86139020Y-26964875D02*
X86139020Y-27543158D01*
X85743789Y-26059156D02*
X85743789Y-26569644D01*
X84850700Y-28831478D02*
X84850700Y-44396722D01*
X89008237Y-55793259D02*
X89008237Y-56648535D01*
X86139020Y-25660123D02*
X86139020Y-25663925D01*
X85743789Y-26569644D02*
X86139020Y-26964875D01*
X88457500Y-48003522D02*
X88457500Y-55242522D01*
X88457500Y-55242522D02*
X89008237Y-55793259D01*
X86139020Y-25663925D02*
X85743789Y-26059156D01*
X86139020Y-27543158D02*
X84850700Y-28831478D01*
X84850700Y-44396722D02*
X88457500Y-48003522D01*
X86976211Y-26569644D02*
X86617620Y-26928235D01*
X88936100Y-55044278D02*
X89958237Y-56066415D01*
X86617620Y-26928235D02*
X86617620Y-27741402D01*
X85329300Y-29029722D02*
X85329300Y-44198478D01*
X85329300Y-44198478D02*
X88936100Y-47805278D01*
X86617620Y-25700565D02*
X86976211Y-26059156D01*
X86617620Y-25660123D02*
X86617620Y-25700565D01*
X86976211Y-26059156D02*
X86976211Y-26569644D01*
X89958237Y-56066415D02*
X89958237Y-56648535D01*
X88936100Y-47805278D02*
X88936100Y-55044278D01*
X86807546Y-25470197D02*
X86617620Y-25660123D01*
X86617620Y-27741402D02*
X85329300Y-29029722D01*
D14*
X90170000Y-47980600D02*
X90170000Y-45720000D01*
X88417400Y-61976000D02*
X88417400Y-59740800D01*
X88417400Y-59740800D02*
X90627200Y-57531000D01*
X89763600Y-65049400D02*
X89763600Y-63322200D01*
X88873071Y-66066855D02*
X88873071Y-65939929D01*
X90627200Y-48437800D02*
X90170000Y-47980600D01*
X88873071Y-65939929D02*
X89763600Y-65049400D01*
X89763600Y-63322200D02*
X88417400Y-61976000D01*
X90627200Y-57531000D02*
X90627200Y-48437800D01*
X88197139Y-71092861D02*
X86600778Y-72689222D01*
X87020400Y-174650400D02*
X90170000Y-177800000D01*
X86600778Y-72689222D02*
X86600778Y-73443578D01*
X87020400Y-73863200D02*
X87020400Y-174650400D01*
X88199607Y-71092861D02*
X88197139Y-71092861D01*
X86600778Y-73443578D02*
X87020400Y-73863200D01*
D15*
X84633903Y-25703697D02*
X84633903Y-24586097D01*
X81991200Y-25196800D02*
X81991200Y-25806400D01*
X81991200Y-25806400D02*
X82296000Y-26111200D01*
X82296000Y-26111200D02*
X84226400Y-26111200D01*
X84226400Y-26111200D02*
X84633903Y-25703697D01*
D14*
X83261200Y-49834800D02*
X83502750Y-49834800D01*
X82550000Y-57861200D02*
X82550000Y-50546000D01*
X82550000Y-50546000D02*
X83261200Y-49834800D01*
X83335255Y-58117163D02*
X82805963Y-58117163D01*
X82805963Y-58117163D02*
X82550000Y-57861200D01*
D16*
X82931000Y-65024000D02*
X82931000Y-65786000D01*
D14*
X88816066Y-69669039D02*
X88203305Y-70281800D01*
X88203305Y-70281800D02*
X86207600Y-70281800D01*
D16*
X85938100Y-70949989D02*
X85938100Y-70012300D01*
X85471000Y-65938400D02*
X86758100Y-64651300D01*
X85938100Y-67142100D02*
X85471000Y-66675000D01*
X88900000Y-35560000D02*
X88646000Y-35814000D01*
X90170000Y-35560000D02*
X88900000Y-35560000D01*
X85471000Y-66675000D02*
X85471000Y-65938400D01*
X82727800Y-69291200D02*
X82931000Y-69088000D01*
X81965800Y-69291200D02*
X82727800Y-69291200D01*
X82550000Y-64643000D02*
X82931000Y-65024000D01*
X86758100Y-64651300D02*
X86758100Y-64520900D01*
X82931000Y-65786000D02*
X84582000Y-65786000D01*
X89408000Y-43688000D02*
X89408000Y-42799000D01*
X84582000Y-65786000D02*
X85471000Y-66675000D01*
D14*
X86207600Y-70281800D02*
X85938100Y-70012300D01*
D16*
X88646000Y-35814000D02*
X88646000Y-41021000D01*
X85938100Y-70012300D02*
X85938100Y-67142100D01*
X88646000Y-41021000D02*
X89408000Y-41783000D01*
X85938111Y-70950000D02*
X85938100Y-70949989D01*
X82931000Y-69088000D02*
X82931000Y-65786000D01*
X89408000Y-41783000D02*
X89408000Y-42799000D01*
D14*
X85092620Y-51239135D02*
X84030000Y-52301755D01*
X84030000Y-63850000D02*
X84480634Y-64300634D01*
X84030000Y-52301755D02*
X84030000Y-63850000D01*
X84480634Y-64300634D02*
X85806286Y-64300634D01*
X85922111Y-51669689D02*
X85922111Y-52507889D01*
X84640000Y-53790000D02*
X84640000Y-63180000D01*
X86360000Y-51231800D02*
X85922111Y-51669689D01*
X84640000Y-63180000D02*
X84948984Y-63488984D01*
X84948984Y-63488984D02*
X85547518Y-63488984D01*
X85922111Y-52507889D02*
X84640000Y-53790000D01*
X87630000Y-51231800D02*
X87630000Y-52156900D01*
X85490000Y-54296900D02*
X85490000Y-62620000D01*
X87630000Y-52156900D02*
X85490000Y-54296900D01*
X84886800Y-119583200D02*
X82550000Y-121920000D01*
X85369400Y-82575400D02*
X85369400Y-88265000D01*
X83921600Y-72390000D02*
X85064600Y-73533000D01*
X84886800Y-88747600D02*
X84886800Y-119583200D01*
X85064600Y-82270600D02*
X85369400Y-82575400D01*
X83921600Y-70713600D02*
X83921600Y-72390000D01*
X85064600Y-73533000D02*
X85064600Y-82270600D01*
X85369400Y-88265000D02*
X84886800Y-88747600D01*
X83743800Y-75158600D02*
X83743800Y-77825600D01*
X82014265Y-71379914D02*
X82014265Y-73429065D01*
X82727800Y-78841600D02*
X82727800Y-86156800D01*
X83743800Y-77825600D02*
X82727800Y-78841600D01*
X82124289Y-91014289D02*
X82550000Y-91440000D01*
X82124289Y-86760311D02*
X82124289Y-91014289D01*
X82014265Y-73429065D02*
X83743800Y-75158600D01*
X82727800Y-86156800D02*
X82124289Y-86760311D01*
X90001889Y-72532711D02*
X90001889Y-76031889D01*
X90424000Y-72110600D02*
X90001889Y-72532711D01*
X90001889Y-76031889D02*
X90170000Y-76200000D01*
X89433400Y-74142600D02*
X89091889Y-74484111D01*
X90261385Y-71268721D02*
X89433400Y-72096706D01*
X89091889Y-74484111D02*
X89091889Y-80176489D01*
X90144600Y-91414600D02*
X90170000Y-91440000D01*
X90716900Y-71268721D02*
X90261385Y-71268721D01*
X90144600Y-81229200D02*
X90144600Y-91414600D01*
X89433400Y-72096706D02*
X89433400Y-74142600D01*
X89091889Y-80176489D02*
X90144600Y-81229200D01*
%TA.AperFunction,NonConductor*%
G36*
X84947612Y-26461468D02*
G01*
X85034490Y-26508341D01*
X85096816Y-26584893D01*
X85123111Y-26663700D01*
X85123767Y-26667846D01*
X85126487Y-26677206D01*
X85134538Y-26716077D01*
X85135760Y-26725756D01*
X85135760Y-26725757D01*
X85135761Y-26725759D01*
X85151721Y-26766070D01*
X85155575Y-26777329D01*
X85167669Y-26818955D01*
X85167669Y-26818956D01*
X85172632Y-26827348D01*
X85190095Y-26862994D01*
X85193685Y-26872062D01*
X85193687Y-26872065D01*
X85219164Y-26907131D01*
X85225711Y-26917098D01*
X85247768Y-26954395D01*
X85254662Y-26961289D01*
X85280443Y-26991475D01*
X85286173Y-26999362D01*
X85286180Y-26999369D01*
X85319568Y-27026990D01*
X85328389Y-27035016D01*
X85368490Y-27075117D01*
X85423334Y-27157196D01*
X85442592Y-27254015D01*
X85423334Y-27350834D01*
X85368490Y-27432913D01*
X84472488Y-28328915D01*
X84463671Y-28336938D01*
X84450558Y-28347786D01*
X84403408Y-28397996D01*
X84382606Y-28418798D01*
X84380230Y-28421861D01*
X84372505Y-28430903D01*
X84345936Y-28459199D01*
X84265623Y-28516597D01*
X84169457Y-28538891D01*
X84072081Y-28522687D01*
X83988317Y-28470452D01*
X83930919Y-28390139D01*
X83908625Y-28293973D01*
X83908500Y-28286016D01*
X83908500Y-27041365D01*
X83908499Y-27041353D01*
X83905816Y-27016397D01*
X83914613Y-26918074D01*
X83960368Y-26830603D01*
X84036114Y-26767299D01*
X84130319Y-26737800D01*
X84151445Y-26737666D01*
X84151414Y-26736664D01*
X84236179Y-26734000D01*
X84265575Y-26734000D01*
X84265583Y-26734000D01*
X84269400Y-26733517D01*
X84281257Y-26732582D01*
X84324602Y-26731221D01*
X84333955Y-26728503D01*
X84372843Y-26720449D01*
X84382515Y-26719228D01*
X84422817Y-26703271D01*
X84434094Y-26699409D01*
X84475710Y-26687320D01*
X84484097Y-26682359D01*
X84519752Y-26664892D01*
X84528821Y-26661302D01*
X84563907Y-26635809D01*
X84573828Y-26629292D01*
X84611152Y-26607220D01*
X84618040Y-26600331D01*
X84648239Y-26574539D01*
X84656118Y-26568814D01*
X84656124Y-26568810D01*
X84678286Y-26542018D01*
X84754834Y-26479697D01*
X84849410Y-26451410D01*
X84947612Y-26461468D01*
G37*
%TD.AperFunction*%
%TA.AperFunction,NonConductor*%
G36*
X84037467Y-39207578D02*
G01*
X84126516Y-39250181D01*
X84192483Y-39323620D01*
X84225325Y-39416712D01*
X84227900Y-39452719D01*
X84227900Y-39889990D01*
X84208642Y-39986809D01*
X84153798Y-40068888D01*
X84071719Y-40123732D01*
X83974900Y-40142990D01*
X83878081Y-40123732D01*
X83796002Y-40068888D01*
X83786885Y-40059281D01*
X83714786Y-39979207D01*
X83686413Y-39947696D01*
X83686412Y-39947695D01*
X83686410Y-39947693D01*
X83556753Y-39853492D01*
X83489745Y-39781003D01*
X83455578Y-39688389D01*
X83459453Y-39589749D01*
X83500782Y-39500101D01*
X83573271Y-39433093D01*
X83617037Y-39411767D01*
X83646204Y-39400889D01*
X83763261Y-39313261D01*
X83772363Y-39301101D01*
X83845801Y-39235136D01*
X83938893Y-39202294D01*
X84037467Y-39207578D01*
G37*
%TD.AperFunction*%
%TA.AperFunction,NonConductor*%
G36*
X91033319Y-39477758D02*
G01*
X91115398Y-39532602D01*
X91170242Y-39614681D01*
X91189500Y-39711500D01*
X91189500Y-44108500D01*
X91170242Y-44205319D01*
X91115398Y-44287398D01*
X91033319Y-44342242D01*
X90936500Y-44361500D01*
X90440072Y-44361500D01*
X90343253Y-44342242D01*
X90261174Y-44287398D01*
X90206330Y-44205319D01*
X90187072Y-44108500D01*
X90199455Y-44030319D01*
X90252364Y-43867478D01*
X90252363Y-43867478D01*
X90252365Y-43867475D01*
X90271229Y-43688000D01*
X90252365Y-43508525D01*
X90196599Y-43336893D01*
X90192502Y-43324283D01*
X90195600Y-43323276D01*
X90179047Y-43250127D01*
X90193981Y-43163197D01*
X90192502Y-43162717D01*
X90252364Y-42978478D01*
X90252363Y-42978478D01*
X90252365Y-42978475D01*
X90271229Y-42799000D01*
X90252365Y-42619525D01*
X90196599Y-42447893D01*
X90196596Y-42447887D01*
X90192372Y-42438400D01*
X90170587Y-42342118D01*
X90170500Y-42335497D01*
X90170500Y-41856982D01*
X90173172Y-41820311D01*
X90175367Y-41805328D01*
X90170982Y-41755207D01*
X90170500Y-41744175D01*
X90170500Y-41738588D01*
X90166633Y-41705503D01*
X90159831Y-41627760D01*
X90159828Y-41627753D01*
X90157568Y-41616802D01*
X90154998Y-41605959D01*
X90128309Y-41532630D01*
X90116990Y-41498471D01*
X90103765Y-41458560D01*
X90103760Y-41458553D01*
X90099040Y-41448430D01*
X90094034Y-41438462D01*
X90094034Y-41438461D01*
X90051160Y-41373275D01*
X90028648Y-41336777D01*
X90010189Y-41306850D01*
X90003279Y-41298112D01*
X89996082Y-41289535D01*
X89939332Y-41235994D01*
X89482602Y-40779264D01*
X89427758Y-40697185D01*
X89408500Y-40600366D01*
X89408500Y-39711500D01*
X89427758Y-39614681D01*
X89482602Y-39532602D01*
X89564681Y-39477758D01*
X89661500Y-39458500D01*
X90936500Y-39458500D01*
X91033319Y-39477758D01*
G37*
%TD.AperFunction*%
%TA.AperFunction,NonConductor*%
G36*
X82522673Y-39477758D02*
G01*
X82604752Y-39532602D01*
X82659596Y-39614681D01*
X82678854Y-39711500D01*
X82659596Y-39808319D01*
X82604752Y-39890398D01*
X82574565Y-39916179D01*
X82562956Y-39924614D01*
X82531187Y-39947695D01*
X82531181Y-39947701D01*
X82410436Y-40081802D01*
X82320199Y-40238096D01*
X82264435Y-40409721D01*
X82245571Y-40589200D01*
X82264435Y-40768678D01*
X82320199Y-40940303D01*
X82320200Y-40940305D01*
X82320201Y-40940307D01*
X82410433Y-41096593D01*
X82410434Y-41096595D01*
X82410436Y-41096597D01*
X82531184Y-41230702D01*
X82531188Y-41230705D01*
X82677183Y-41336777D01*
X82677184Y-41336777D01*
X82677185Y-41336778D01*
X82842048Y-41410180D01*
X83018568Y-41447700D01*
X83018571Y-41447700D01*
X83133075Y-41447700D01*
X83184626Y-41457953D01*
X83190906Y-41453758D01*
X83235121Y-41440028D01*
X83375552Y-41410180D01*
X83540415Y-41336778D01*
X83686413Y-41230704D01*
X83786885Y-41119117D01*
X83865980Y-41060055D01*
X83961659Y-41035756D01*
X84059353Y-41049921D01*
X84144190Y-41100393D01*
X84203254Y-41179489D01*
X84227553Y-41275168D01*
X84227900Y-41288409D01*
X84227900Y-41906734D01*
X84208642Y-42003553D01*
X84153798Y-42085632D01*
X84071719Y-42140476D01*
X83974900Y-42159734D01*
X83878081Y-42140476D01*
X83826192Y-42111416D01*
X83743619Y-42051424D01*
X83743616Y-42051422D01*
X83578752Y-41978020D01*
X83578747Y-41978019D01*
X83402232Y-41940500D01*
X83287725Y-41940500D01*
X83236173Y-41930246D01*
X83229894Y-41934442D01*
X83185678Y-41948171D01*
X83153682Y-41954971D01*
X83045248Y-41978019D01*
X82880385Y-42051422D01*
X82880384Y-42051422D01*
X82734389Y-42157494D01*
X82734381Y-42157501D01*
X82613636Y-42291602D01*
X82523399Y-42447896D01*
X82467635Y-42619521D01*
X82448771Y-42799000D01*
X82467635Y-42978478D01*
X82527498Y-43162717D01*
X82524403Y-43163722D01*
X82540953Y-43236917D01*
X82526010Y-43323799D01*
X82527498Y-43324283D01*
X82467635Y-43508521D01*
X82448771Y-43688000D01*
X82467635Y-43867478D01*
X82520545Y-44030319D01*
X82532148Y-44128351D01*
X82505352Y-44223360D01*
X82444238Y-44300883D01*
X82358109Y-44349117D01*
X82279928Y-44361500D01*
X81783500Y-44361500D01*
X81686681Y-44342242D01*
X81604602Y-44287398D01*
X81549758Y-44205319D01*
X81530500Y-44108500D01*
X81530500Y-39711500D01*
X81549758Y-39614681D01*
X81604602Y-39532602D01*
X81686681Y-39477758D01*
X81783500Y-39458500D01*
X82425854Y-39458500D01*
X82522673Y-39477758D01*
G37*
%TD.AperFunction*%
%TA.AperFunction,NonConductor*%
G36*
X90175506Y-16760982D02*
G01*
X90221906Y-16765041D01*
X90324988Y-16774059D01*
X90368402Y-16781713D01*
X90497311Y-16816254D01*
X90538746Y-16831336D01*
X90614094Y-16866471D01*
X90659693Y-16887734D01*
X90697874Y-16909777D01*
X90793162Y-16976499D01*
X90861423Y-17047806D01*
X90897201Y-17139810D01*
X90895047Y-17238502D01*
X90855289Y-17328858D01*
X90783980Y-17397121D01*
X90691976Y-17432899D01*
X90672845Y-17435523D01*
X90627766Y-17439963D01*
X90482296Y-17454291D01*
X90482294Y-17454292D01*
X90292195Y-17511958D01*
X90292194Y-17511958D01*
X90116998Y-17605602D01*
X90116990Y-17605607D01*
X89963433Y-17731629D01*
X89963430Y-17731632D01*
X89837408Y-17885189D01*
X89837403Y-17885197D01*
X89743759Y-18060393D01*
X89743759Y-18060394D01*
X89686093Y-18250493D01*
X89686092Y-18250496D01*
X89671500Y-18398656D01*
X89671500Y-19697741D01*
X89686092Y-19845901D01*
X89686093Y-19845904D01*
X89743759Y-20036003D01*
X89743759Y-20036004D01*
X89837403Y-20211200D01*
X89837408Y-20211208D01*
X89963430Y-20364765D01*
X89963433Y-20364768D01*
X90116990Y-20490790D01*
X90116994Y-20490792D01*
X90116996Y-20490794D01*
X90292196Y-20584440D01*
X90482299Y-20642107D01*
X90680000Y-20661579D01*
X90877701Y-20642107D01*
X90877706Y-20642105D01*
X90887139Y-20640229D01*
X90985854Y-20640228D01*
X91077056Y-20678003D01*
X91146860Y-20747805D01*
X91184638Y-20839006D01*
X91189500Y-20888367D01*
X91189500Y-21408031D01*
X91170242Y-21504850D01*
X91115398Y-21586929D01*
X91033319Y-21641773D01*
X90936500Y-21661031D01*
X90887150Y-21656171D01*
X90877710Y-21654293D01*
X90877701Y-21654292D01*
X90680000Y-21634820D01*
X90482296Y-21654292D01*
X90482294Y-21654293D01*
X90292196Y-21711958D01*
X90166678Y-21779049D01*
X90072213Y-21807704D01*
X89973973Y-21798027D01*
X89944518Y-21787051D01*
X89826753Y-21734619D01*
X89650233Y-21697099D01*
X89469769Y-21697099D01*
X89337379Y-21725239D01*
X89293248Y-21734619D01*
X89128386Y-21808021D01*
X89128385Y-21808021D01*
X88982390Y-21914093D01*
X88982382Y-21914100D01*
X88861637Y-22048201D01*
X88771400Y-22204495D01*
X88715636Y-22376120D01*
X88696772Y-22555599D01*
X88715636Y-22735077D01*
X88771400Y-22906702D01*
X88771401Y-22906704D01*
X88771402Y-22906706D01*
X88861634Y-23062992D01*
X88861635Y-23062994D01*
X88861637Y-23062996D01*
X88982385Y-23197101D01*
X88982389Y-23197104D01*
X89128384Y-23303176D01*
X89128385Y-23303176D01*
X89128386Y-23303177D01*
X89293249Y-23376579D01*
X89469769Y-23414099D01*
X89469772Y-23414099D01*
X89482738Y-23416855D01*
X89482090Y-23419901D01*
X89554405Y-23442343D01*
X89630312Y-23505453D01*
X89676290Y-23592808D01*
X89685500Y-23639895D01*
X89686092Y-23645901D01*
X89686093Y-23645903D01*
X89686900Y-23649961D01*
X89686899Y-23654095D01*
X89687311Y-23658269D01*
X89686899Y-23658309D01*
X89686898Y-23748677D01*
X89649119Y-23839877D01*
X89579315Y-23909679D01*
X89488113Y-23947454D01*
X89465213Y-23950927D01*
X89459778Y-23951498D01*
X89459769Y-23951500D01*
X89459768Y-23951500D01*
X89394229Y-23965430D01*
X89283247Y-23989020D01*
X89118385Y-24062422D01*
X89118384Y-24062422D01*
X88972389Y-24168494D01*
X88972381Y-24168501D01*
X88851636Y-24302602D01*
X88761399Y-24458896D01*
X88705635Y-24630521D01*
X88686771Y-24810000D01*
X88705635Y-24989478D01*
X88761399Y-25161103D01*
X88761400Y-25161105D01*
X88761401Y-25161107D01*
X88851633Y-25317393D01*
X88851634Y-25317395D01*
X88851636Y-25317397D01*
X88972384Y-25451502D01*
X88972388Y-25451505D01*
X89118383Y-25557577D01*
X89118384Y-25557577D01*
X89118385Y-25557578D01*
X89283248Y-25630980D01*
X89459768Y-25668500D01*
X89459771Y-25668500D01*
X89640229Y-25668500D01*
X89640232Y-25668500D01*
X89665731Y-25663079D01*
X89764431Y-25661785D01*
X89856121Y-25698362D01*
X89906349Y-25741260D01*
X89947989Y-25787506D01*
X90093983Y-25893577D01*
X90093984Y-25893577D01*
X90093985Y-25893578D01*
X90258848Y-25966980D01*
X90435368Y-26004500D01*
X90435371Y-26004500D01*
X90615829Y-26004500D01*
X90615832Y-26004500D01*
X90792352Y-25966980D01*
X90833594Y-25948618D01*
X90929876Y-25926831D01*
X91027166Y-25943548D01*
X91110653Y-25996223D01*
X91167626Y-26076838D01*
X91189413Y-26173120D01*
X91189500Y-26179744D01*
X91189500Y-26328500D01*
X91170242Y-26425319D01*
X91115398Y-26507398D01*
X91033319Y-26562242D01*
X90936500Y-26581500D01*
X89271362Y-26581500D01*
X89271359Y-26581500D01*
X89271345Y-26581501D01*
X89210803Y-26588009D01*
X89128884Y-26618564D01*
X89082604Y-26635826D01*
X89073791Y-26639113D01*
X88956740Y-26726737D01*
X88956737Y-26726740D01*
X88869113Y-26843791D01*
X88818009Y-26980803D01*
X88811501Y-27041345D01*
X88811500Y-27041365D01*
X88811500Y-28838634D01*
X88811501Y-28838654D01*
X88818009Y-28899196D01*
X88818011Y-28899201D01*
X88869111Y-29036204D01*
X88869112Y-29036206D01*
X88869113Y-29036207D01*
X88885714Y-29058384D01*
X88928317Y-29147433D01*
X88933601Y-29246007D01*
X88900759Y-29339100D01*
X88885714Y-29361616D01*
X88869113Y-29383792D01*
X88869112Y-29383794D01*
X88869111Y-29383796D01*
X88865869Y-29392489D01*
X88818009Y-29520803D01*
X88811501Y-29581345D01*
X88811500Y-29581365D01*
X88811500Y-31378634D01*
X88811501Y-31378654D01*
X88818009Y-31439196D01*
X88818011Y-31439201D01*
X88869111Y-31576204D01*
X88869112Y-31576206D01*
X88869113Y-31576207D01*
X88885714Y-31598384D01*
X88928317Y-31687433D01*
X88933601Y-31786007D01*
X88900759Y-31879100D01*
X88885714Y-31901616D01*
X88869113Y-31923792D01*
X88869112Y-31923794D01*
X88869111Y-31923796D01*
X88843561Y-31992297D01*
X88818009Y-32060803D01*
X88811501Y-32121345D01*
X88811500Y-32121365D01*
X88811500Y-33918634D01*
X88811501Y-33918654D01*
X88818009Y-33979196D01*
X88818011Y-33979201D01*
X88869111Y-34116204D01*
X88869112Y-34116206D01*
X88869113Y-34116207D01*
X88885714Y-34138384D01*
X88928317Y-34227433D01*
X88933601Y-34326007D01*
X88900759Y-34419100D01*
X88885714Y-34441616D01*
X88869113Y-34463792D01*
X88869112Y-34463794D01*
X88869111Y-34463796D01*
X88818011Y-34600799D01*
X88818010Y-34600802D01*
X88815003Y-34628767D01*
X88785503Y-34722972D01*
X88722199Y-34798717D01*
X88643032Y-34841877D01*
X88575553Y-34864236D01*
X88565497Y-34868925D01*
X88555457Y-34873967D01*
X88509009Y-34904517D01*
X88490276Y-34916838D01*
X88452481Y-34940150D01*
X88423846Y-34957814D01*
X88415108Y-34964722D01*
X88406536Y-34971915D01*
X88352994Y-35028667D01*
X88159139Y-35222521D01*
X88131333Y-35246552D01*
X88119181Y-35255599D01*
X88119173Y-35255606D01*
X88086839Y-35294141D01*
X88079389Y-35302271D01*
X88075432Y-35306228D01*
X88054754Y-35332379D01*
X88004605Y-35392146D01*
X87998433Y-35401529D01*
X87992604Y-35410980D01*
X87959624Y-35481705D01*
X87924605Y-35551435D01*
X87920794Y-35561906D01*
X87917273Y-35572531D01*
X87901498Y-35648934D01*
X87883500Y-35724874D01*
X87882204Y-35735961D01*
X87881230Y-35747093D01*
X87883500Y-35825075D01*
X87883500Y-39527466D01*
X87864242Y-39624285D01*
X87809398Y-39706364D01*
X87727319Y-39761208D01*
X87683101Y-39774937D01*
X87566455Y-39799730D01*
X87566448Y-39799732D01*
X87401585Y-39873135D01*
X87401584Y-39873135D01*
X87255589Y-39979207D01*
X87255581Y-39979214D01*
X87134836Y-40113315D01*
X87044599Y-40269609D01*
X86988835Y-40441234D01*
X86969971Y-40620713D01*
X86988835Y-40800191D01*
X87044599Y-40971816D01*
X87044600Y-40971818D01*
X87044601Y-40971820D01*
X87134833Y-41128106D01*
X87134834Y-41128108D01*
X87134836Y-41128110D01*
X87255584Y-41262215D01*
X87255588Y-41262218D01*
X87401583Y-41368290D01*
X87401584Y-41368290D01*
X87401585Y-41368291D01*
X87566448Y-41441693D01*
X87742968Y-41479213D01*
X87742971Y-41479213D01*
X87920043Y-41479213D01*
X88016862Y-41498471D01*
X88093662Y-41548187D01*
X88112688Y-41566138D01*
X88114684Y-41568021D01*
X88571398Y-42024735D01*
X88626242Y-42106814D01*
X88645500Y-42203633D01*
X88645500Y-42335497D01*
X88626242Y-42432316D01*
X88623628Y-42438400D01*
X88619398Y-42447899D01*
X88563635Y-42619521D01*
X88544771Y-42799000D01*
X88563635Y-42978478D01*
X88623498Y-43162717D01*
X88620399Y-43163723D01*
X88636952Y-43236879D01*
X88622015Y-43323801D01*
X88623498Y-43324283D01*
X88563635Y-43508521D01*
X88544771Y-43688000D01*
X88563635Y-43867478D01*
X88619399Y-44039103D01*
X88709634Y-44195395D01*
X88779948Y-44273486D01*
X88830387Y-44329504D01*
X88830388Y-44329505D01*
X88834579Y-44334159D01*
X88885052Y-44418996D01*
X88899217Y-44516690D01*
X88874918Y-44612369D01*
X88869200Y-44623557D01*
X88818009Y-44760803D01*
X88811501Y-44821345D01*
X88811500Y-44821365D01*
X88811500Y-46189109D01*
X88792242Y-46285928D01*
X88737398Y-46368007D01*
X88655319Y-46422851D01*
X88558500Y-46442109D01*
X88461681Y-46422851D01*
X88379602Y-46368007D01*
X86801579Y-44789984D01*
X86746735Y-44707905D01*
X86727477Y-44611086D01*
X86746735Y-44514267D01*
X86801579Y-44432188D01*
X86831769Y-44406404D01*
X86937609Y-44329507D01*
X86937615Y-44329502D01*
X87033185Y-44223360D01*
X87058367Y-44195393D01*
X87148599Y-44039107D01*
X87204365Y-43867475D01*
X87223229Y-43688000D01*
X87204365Y-43508525D01*
X87148599Y-43336893D01*
X87144502Y-43324283D01*
X87147603Y-43323275D01*
X87131048Y-43250165D01*
X87145976Y-43163196D01*
X87144502Y-43162717D01*
X87204364Y-42978478D01*
X87204363Y-42978478D01*
X87204365Y-42978475D01*
X87223229Y-42799000D01*
X87204365Y-42619525D01*
X87148599Y-42447893D01*
X87058367Y-42291607D01*
X87058363Y-42291603D01*
X87058363Y-42291602D01*
X86937615Y-42157497D01*
X86937611Y-42157494D01*
X86791616Y-42051422D01*
X86626752Y-41978020D01*
X86626747Y-41978019D01*
X86450232Y-41940500D01*
X86269768Y-41940500D01*
X86269767Y-41940500D01*
X86269759Y-41940501D01*
X86257696Y-41943065D01*
X86158989Y-41944355D01*
X86067302Y-41907774D01*
X85996593Y-41838889D01*
X85957628Y-41748189D01*
X85952100Y-41695593D01*
X85952100Y-29392489D01*
X85971358Y-29295670D01*
X86026200Y-29213593D01*
X86995827Y-28243965D01*
X87004640Y-28235948D01*
X87017763Y-28225092D01*
X87064925Y-28174869D01*
X87075319Y-28164474D01*
X87085713Y-28154081D01*
X87088059Y-28151055D01*
X87095809Y-28141978D01*
X87125480Y-28110384D01*
X87130176Y-28101840D01*
X87151979Y-28068651D01*
X87157949Y-28060954D01*
X87157951Y-28060952D01*
X87175168Y-28021165D01*
X87180403Y-28010478D01*
X87201287Y-27972492D01*
X87203711Y-27963049D01*
X87216572Y-27925487D01*
X87220445Y-27916539D01*
X87227224Y-27873726D01*
X87229639Y-27862061D01*
X87240420Y-27820080D01*
X87240420Y-27810326D01*
X87243535Y-27770747D01*
X87245060Y-27761120D01*
X87240982Y-27717977D01*
X87240420Y-27706066D01*
X87240420Y-27291002D01*
X87259678Y-27194183D01*
X87314516Y-27112110D01*
X87354418Y-27072207D01*
X87363232Y-27064188D01*
X87376347Y-27053338D01*
X87376354Y-27053334D01*
X87401092Y-27026990D01*
X87423516Y-27003111D01*
X87433909Y-26992716D01*
X87444303Y-26982324D01*
X87446649Y-26979298D01*
X87454399Y-26970221D01*
X87484071Y-26938626D01*
X87488764Y-26930088D01*
X87510570Y-26896893D01*
X87516542Y-26889195D01*
X87533764Y-26849393D01*
X87538990Y-26838726D01*
X87559878Y-26800734D01*
X87562301Y-26791297D01*
X87575167Y-26753720D01*
X87579036Y-26744781D01*
X87585819Y-26701950D01*
X87588227Y-26690321D01*
X87599011Y-26648322D01*
X87599011Y-26638569D01*
X87602126Y-26598992D01*
X87602230Y-26598330D01*
X87603651Y-26589363D01*
X87603356Y-26586245D01*
X87599573Y-26546221D01*
X87599011Y-26534309D01*
X87599011Y-26147092D01*
X87599573Y-26135181D01*
X87601175Y-26118232D01*
X87599011Y-26049376D01*
X87599011Y-26019983D01*
X87599011Y-26019973D01*
X87598527Y-26016150D01*
X87597593Y-26004302D01*
X87596232Y-25960954D01*
X87596231Y-25960950D01*
X87593741Y-25945224D01*
X87595031Y-25945019D01*
X87587967Y-25863487D01*
X87598821Y-25813065D01*
X87651911Y-25649672D01*
X87670775Y-25470197D01*
X87651911Y-25290722D01*
X87596145Y-25119090D01*
X87505913Y-24962804D01*
X87505909Y-24962800D01*
X87505909Y-24962799D01*
X87385161Y-24828694D01*
X87385157Y-24828691D01*
X87239162Y-24722619D01*
X87074298Y-24649217D01*
X86897778Y-24611697D01*
X86717314Y-24611697D01*
X86611402Y-24634209D01*
X86540792Y-24649217D01*
X86540790Y-24649218D01*
X86477130Y-24677562D01*
X86380848Y-24699349D01*
X86283558Y-24682632D01*
X86271321Y-24677563D01*
X86222427Y-24655794D01*
X86222421Y-24655792D01*
X86191492Y-24649218D01*
X86045901Y-24618272D01*
X85865437Y-24618272D01*
X85805409Y-24631031D01*
X85783330Y-24635724D01*
X85684622Y-24637015D01*
X85592935Y-24600435D01*
X85522225Y-24531551D01*
X85483258Y-24440852D01*
X85479117Y-24414705D01*
X85478268Y-24406622D01*
X85474161Y-24393983D01*
X85422503Y-24234993D01*
X85422502Y-24234992D01*
X85422502Y-24234990D01*
X85332270Y-24078704D01*
X85332266Y-24078700D01*
X85332266Y-24078699D01*
X85211518Y-23944594D01*
X85211514Y-23944591D01*
X85065519Y-23838519D01*
X84900655Y-23765117D01*
X84724135Y-23727597D01*
X84543671Y-23727597D01*
X84411281Y-23755737D01*
X84367150Y-23765117D01*
X84202288Y-23838519D01*
X84202287Y-23838519D01*
X84056292Y-23944591D01*
X84056284Y-23944598D01*
X83935539Y-24078699D01*
X83935536Y-24078703D01*
X83935536Y-24078704D01*
X83883695Y-24168496D01*
X83845303Y-24234992D01*
X83839373Y-24253243D01*
X83791137Y-24339371D01*
X83713612Y-24400484D01*
X83618603Y-24427277D01*
X83520571Y-24415673D01*
X83495852Y-24406184D01*
X83426753Y-24375419D01*
X83250233Y-24337899D01*
X83130078Y-24337899D01*
X83033259Y-24318641D01*
X82951180Y-24263797D01*
X82896336Y-24181718D01*
X82877078Y-24084899D01*
X82896336Y-23988080D01*
X82906952Y-23965636D01*
X82942408Y-23899300D01*
X82976241Y-23836004D01*
X83033908Y-23645901D01*
X83034577Y-23639100D01*
X83063230Y-23544637D01*
X83125853Y-23468327D01*
X83212911Y-23421791D01*
X83237429Y-23416831D01*
X83237264Y-23416055D01*
X83250230Y-23413299D01*
X83250233Y-23413299D01*
X83426753Y-23375779D01*
X83591616Y-23302377D01*
X83737614Y-23196303D01*
X83858368Y-23062192D01*
X83948600Y-22905906D01*
X84004366Y-22734274D01*
X84023230Y-22554799D01*
X84004366Y-22375324D01*
X83948600Y-22203692D01*
X83858368Y-22047406D01*
X83858364Y-22047402D01*
X83858364Y-22047401D01*
X83737616Y-21913296D01*
X83737612Y-21913293D01*
X83591617Y-21807221D01*
X83426753Y-21733819D01*
X83250233Y-21696299D01*
X83069769Y-21696299D01*
X82996094Y-21711959D01*
X82893247Y-21733819D01*
X82893245Y-21733819D01*
X82774671Y-21786613D01*
X82678390Y-21808399D01*
X82581100Y-21791682D01*
X82552504Y-21778612D01*
X82427805Y-21711959D01*
X82237705Y-21654293D01*
X82237703Y-21654292D01*
X82040000Y-21634820D01*
X81842289Y-21654293D01*
X81832850Y-21656171D01*
X81734135Y-21656168D01*
X81642934Y-21618389D01*
X81573134Y-21548584D01*
X81535360Y-21457381D01*
X81530500Y-21408031D01*
X81530500Y-20888367D01*
X81549758Y-20791548D01*
X81604602Y-20709469D01*
X81686681Y-20654625D01*
X81783500Y-20635367D01*
X81832861Y-20640229D01*
X81842295Y-20642105D01*
X81842299Y-20642107D01*
X82040000Y-20661579D01*
X82237701Y-20642107D01*
X82427804Y-20584440D01*
X82603004Y-20490794D01*
X82756568Y-20364767D01*
X82882595Y-20211203D01*
X82976241Y-20036003D01*
X83033908Y-19845900D01*
X83048500Y-19697746D01*
X83048500Y-18398652D01*
X83033908Y-18250498D01*
X82976241Y-18060395D01*
X82882595Y-17885195D01*
X82882593Y-17885193D01*
X82882591Y-17885189D01*
X82756569Y-17731632D01*
X82756566Y-17731629D01*
X82603009Y-17605607D01*
X82603001Y-17605602D01*
X82427805Y-17511958D01*
X82237705Y-17454292D01*
X82237703Y-17454291D01*
X82140722Y-17444739D01*
X82047155Y-17435523D01*
X81952691Y-17406868D01*
X81876383Y-17344243D01*
X81829849Y-17257183D01*
X81820173Y-17158943D01*
X81848829Y-17064478D01*
X81911454Y-16988170D01*
X81926812Y-16976516D01*
X82022130Y-16909774D01*
X82060301Y-16887736D01*
X82181253Y-16831336D01*
X82222684Y-16816255D01*
X82351599Y-16781713D01*
X82395009Y-16774059D01*
X82544509Y-16760980D01*
X82555523Y-16760500D01*
X82594170Y-16760500D01*
X90125830Y-16760500D01*
X90164477Y-16760500D01*
X90175506Y-16760982D01*
G37*
%TD.AperFunction*%
%TA.AperFunction,NonConductor*%
G36*
X84258319Y-44711472D02*
G01*
X84340398Y-44766316D01*
X84346916Y-44773710D01*
X84361574Y-44788368D01*
X84387355Y-44818554D01*
X84393085Y-44826441D01*
X84393092Y-44826448D01*
X84426486Y-44854074D01*
X84435305Y-44862099D01*
X87760598Y-48187392D01*
X87815442Y-48269471D01*
X87834700Y-48366290D01*
X87834700Y-50120300D01*
X87815442Y-50217119D01*
X87760598Y-50299198D01*
X87678519Y-50354042D01*
X87581700Y-50373300D01*
X87539768Y-50373300D01*
X87425303Y-50397630D01*
X87363247Y-50410820D01*
X87198385Y-50484222D01*
X87198382Y-50484223D01*
X87143707Y-50523947D01*
X87054059Y-50565274D01*
X86955419Y-50569149D01*
X86862806Y-50534981D01*
X86846291Y-50523946D01*
X86791615Y-50484222D01*
X86626752Y-50410820D01*
X86450232Y-50373300D01*
X86269768Y-50373300D01*
X86155303Y-50397630D01*
X86093247Y-50410820D01*
X85928386Y-50484221D01*
X85869970Y-50526663D01*
X85780322Y-50567990D01*
X85681682Y-50571865D01*
X85589068Y-50537697D01*
X85572552Y-50526661D01*
X85524236Y-50491557D01*
X85359372Y-50418155D01*
X85324863Y-50410820D01*
X85182852Y-50380635D01*
X85002388Y-50380635D01*
X84869998Y-50408775D01*
X84825867Y-50418155D01*
X84660996Y-50491561D01*
X84654527Y-50495296D01*
X84561049Y-50527025D01*
X84462545Y-50520565D01*
X84374011Y-50476902D01*
X84308926Y-50402681D01*
X84277197Y-50309203D01*
X84283657Y-50210699D01*
X84287417Y-50198006D01*
X84291347Y-50185910D01*
X84291349Y-50185907D01*
X84347115Y-50014275D01*
X84365979Y-49834800D01*
X84347115Y-49655325D01*
X84339604Y-49632207D01*
X84291349Y-49483692D01*
X84227262Y-49372691D01*
X84195531Y-49279215D01*
X84201987Y-49180710D01*
X84222441Y-49131330D01*
X84222204Y-49131225D01*
X84226250Y-49122136D01*
X84227267Y-49119682D01*
X84227599Y-49119107D01*
X84283365Y-48947475D01*
X84302229Y-48768000D01*
X84283365Y-48588525D01*
X84227599Y-48416893D01*
X84137367Y-48260607D01*
X84137363Y-48260603D01*
X84137363Y-48260602D01*
X84016615Y-48126497D01*
X84016611Y-48126494D01*
X83870616Y-48020422D01*
X83705752Y-47947020D01*
X83683456Y-47942281D01*
X83529232Y-47909500D01*
X83348768Y-47909500D01*
X83216378Y-47937640D01*
X83172247Y-47947020D01*
X83007385Y-48020422D01*
X83007384Y-48020422D01*
X82861389Y-48126494D01*
X82861381Y-48126501D01*
X82740636Y-48260602D01*
X82650399Y-48416896D01*
X82594635Y-48588521D01*
X82575771Y-48768000D01*
X82594635Y-48947478D01*
X82650400Y-49119105D01*
X82714488Y-49230110D01*
X82746219Y-49323587D01*
X82739762Y-49422091D01*
X82719307Y-49471479D01*
X82719543Y-49471584D01*
X82715545Y-49480562D01*
X82714499Y-49483089D01*
X82714155Y-49483683D01*
X82714150Y-49483695D01*
X82698620Y-49531492D01*
X82650384Y-49617621D01*
X82636901Y-49632207D01*
X82169522Y-50099586D01*
X82157070Y-50110507D01*
X82132986Y-50128987D01*
X82073422Y-50206613D01*
X82038982Y-50251496D01*
X82037675Y-50254970D01*
X82017241Y-50304301D01*
X81962397Y-50386380D01*
X81880318Y-50441223D01*
X81783499Y-50460481D01*
X81686680Y-50441222D01*
X81604601Y-50386378D01*
X81549758Y-50304299D01*
X81530500Y-50207481D01*
X81530500Y-47331500D01*
X81549758Y-47234681D01*
X81604602Y-47152602D01*
X81686681Y-47097758D01*
X81783500Y-47078500D01*
X83448635Y-47078500D01*
X83448638Y-47078500D01*
X83471479Y-47076044D01*
X83509196Y-47071990D01*
X83509197Y-47071989D01*
X83509201Y-47071989D01*
X83646204Y-47020889D01*
X83763261Y-46933261D01*
X83850889Y-46816204D01*
X83901989Y-46679201D01*
X83908500Y-46618638D01*
X83908500Y-44945214D01*
X83927758Y-44848395D01*
X83982602Y-44766316D01*
X84064681Y-44711472D01*
X84161500Y-44692214D01*
X84258319Y-44711472D01*
G37*
%TD.AperFunction*%
%TA.AperFunction,NonConductor*%
G36*
X86571104Y-54263556D02*
G01*
X86622996Y-54292617D01*
X86690384Y-54341577D01*
X86690385Y-54341578D01*
X86855248Y-54414980D01*
X87031768Y-54452500D01*
X87031771Y-54452500D01*
X87212229Y-54452500D01*
X87212232Y-54452500D01*
X87388752Y-54414980D01*
X87478795Y-54374889D01*
X87575077Y-54353104D01*
X87672367Y-54369821D01*
X87755853Y-54422497D01*
X87812827Y-54503112D01*
X87834613Y-54599394D01*
X87834700Y-54606017D01*
X87834700Y-55121982D01*
X87815442Y-55218801D01*
X87760598Y-55300880D01*
X87678519Y-55355724D01*
X87581700Y-55374982D01*
X87484881Y-55355724D01*
X87478797Y-55353110D01*
X87388752Y-55313020D01*
X87212232Y-55275500D01*
X87031768Y-55275500D01*
X86912363Y-55300880D01*
X86855247Y-55313020D01*
X86690385Y-55386422D01*
X86690384Y-55386422D01*
X86544389Y-55492494D01*
X86544384Y-55492498D01*
X86515714Y-55524340D01*
X86436617Y-55583403D01*
X86340938Y-55607701D01*
X86243244Y-55593535D01*
X86158408Y-55543062D01*
X86099345Y-55463965D01*
X86075047Y-55368286D01*
X86074700Y-55355048D01*
X86074700Y-54643885D01*
X86093958Y-54547066D01*
X86148799Y-54464990D01*
X86295391Y-54318398D01*
X86377466Y-54263557D01*
X86474285Y-54244298D01*
X86571104Y-54263556D01*
G37*
%TD.AperFunction*%
%TA.AperFunction,NonConductor*%
G36*
X91033319Y-58172643D02*
G01*
X91115398Y-58227487D01*
X91170241Y-58309566D01*
X91189500Y-58406385D01*
X91189500Y-59348500D01*
X91170242Y-59445319D01*
X91115398Y-59527398D01*
X91033319Y-59582242D01*
X90936500Y-59601500D01*
X89994386Y-59601500D01*
X89897567Y-59582242D01*
X89815488Y-59527398D01*
X89760644Y-59445319D01*
X89741386Y-59348500D01*
X89760644Y-59251681D01*
X89815488Y-59169602D01*
X90757602Y-58227487D01*
X90839681Y-58172644D01*
X90936500Y-58153385D01*
X91033319Y-58172643D01*
G37*
%TD.AperFunction*%
%TA.AperFunction,NonConductor*%
G36*
X81880319Y-57965978D02*
G01*
X81962398Y-58020822D01*
X82017242Y-58102901D01*
X82017242Y-58102902D01*
X82039265Y-58156072D01*
X82073422Y-58200586D01*
X82132987Y-58278213D01*
X82157070Y-58296693D01*
X82169517Y-58307607D01*
X82354323Y-58492414D01*
X82359549Y-58497640D01*
X82370471Y-58510095D01*
X82388948Y-58534174D01*
X82388950Y-58534176D01*
X82419614Y-58557705D01*
X82511090Y-58627897D01*
X82570006Y-58652300D01*
X82663618Y-58691076D01*
X82745697Y-58745920D01*
X82754813Y-58755526D01*
X82757639Y-58758665D01*
X82757643Y-58758668D01*
X82903638Y-58864740D01*
X82903639Y-58864740D01*
X82903640Y-58864741D01*
X83068503Y-58938143D01*
X83244903Y-58975637D01*
X83335599Y-59014603D01*
X83404483Y-59085313D01*
X83441063Y-59177001D01*
X83445300Y-59223108D01*
X83445300Y-59348500D01*
X83426042Y-59445319D01*
X83371198Y-59527398D01*
X83289119Y-59582242D01*
X83192300Y-59601500D01*
X81783500Y-59601500D01*
X81686681Y-59582242D01*
X81604602Y-59527398D01*
X81549758Y-59445319D01*
X81530500Y-59348500D01*
X81530500Y-58199720D01*
X81549758Y-58102901D01*
X81604602Y-58020822D01*
X81686681Y-57965978D01*
X81783500Y-57946720D01*
X81880319Y-57965978D01*
G37*
%TD.AperFunction*%
%TA.AperFunction,NonConductor*%
G36*
X83289119Y-62337758D02*
G01*
X83371198Y-62392602D01*
X83426042Y-62474681D01*
X83445300Y-62571500D01*
X83445300Y-63735768D01*
X83426042Y-63832587D01*
X83371198Y-63914666D01*
X83289119Y-63969510D01*
X83192300Y-63988768D01*
X83095481Y-63969510D01*
X83043591Y-63940449D01*
X82981621Y-63895425D01*
X82981616Y-63895422D01*
X82816752Y-63822020D01*
X82640232Y-63784500D01*
X82459768Y-63784500D01*
X82331890Y-63811681D01*
X82283247Y-63822020D01*
X82118385Y-63895422D01*
X82118384Y-63895422D01*
X81972389Y-64001494D01*
X81972379Y-64001503D01*
X81971509Y-64002470D01*
X81970319Y-64003358D01*
X81962533Y-64010369D01*
X81961888Y-64009653D01*
X81892411Y-64061531D01*
X81796732Y-64085827D01*
X81699038Y-64071658D01*
X81614203Y-64021182D01*
X81555142Y-63942084D01*
X81530846Y-63846405D01*
X81530500Y-63833173D01*
X81530500Y-62571500D01*
X81549758Y-62474681D01*
X81604602Y-62392602D01*
X81686681Y-62337758D01*
X81783500Y-62318500D01*
X83192300Y-62318500D01*
X83289119Y-62337758D01*
G37*
%TD.AperFunction*%
%TA.AperFunction,NonConductor*%
G36*
X88007476Y-56666994D02*
G01*
X88092313Y-56717466D01*
X88151378Y-56796563D01*
X88163641Y-56827302D01*
X88219636Y-56999638D01*
X88219637Y-56999640D01*
X88219638Y-56999642D01*
X88309870Y-57155928D01*
X88309871Y-57155930D01*
X88309873Y-57155932D01*
X88430621Y-57290037D01*
X88430625Y-57290040D01*
X88564365Y-57387208D01*
X88631373Y-57459697D01*
X88665540Y-57552311D01*
X88667269Y-57565438D01*
X88671835Y-57608878D01*
X88671836Y-57608880D01*
X88727599Y-57780503D01*
X88727600Y-57780505D01*
X88727601Y-57780507D01*
X88817833Y-57936793D01*
X88930413Y-58061826D01*
X88980885Y-58146661D01*
X88995050Y-58244355D01*
X88970752Y-58340033D01*
X88921295Y-58410013D01*
X88036922Y-59294386D01*
X88024470Y-59305307D01*
X88000386Y-59323787D01*
X87940822Y-59401413D01*
X87906382Y-59446296D01*
X87905075Y-59449770D01*
X87847750Y-59588161D01*
X87847749Y-59588163D01*
X87838410Y-59659111D01*
X87827655Y-59740801D01*
X87831616Y-59770886D01*
X87832700Y-59787417D01*
X87832700Y-61929383D01*
X87831615Y-61945914D01*
X87827655Y-61976000D01*
X87832184Y-62010403D01*
X87832188Y-62010443D01*
X87847748Y-62128630D01*
X87847751Y-62128640D01*
X87869078Y-62180128D01*
X87869389Y-62180878D01*
X87906666Y-62270873D01*
X87936435Y-62309668D01*
X87936436Y-62309669D01*
X88000384Y-62393010D01*
X88000386Y-62393012D01*
X88024471Y-62411493D01*
X88036925Y-62422415D01*
X88844112Y-63229602D01*
X88898956Y-63311681D01*
X88918214Y-63408500D01*
X88898956Y-63505319D01*
X88844112Y-63587398D01*
X88762033Y-63642242D01*
X88672940Y-63659963D01*
X88672956Y-63660114D01*
X88671314Y-63660286D01*
X88665214Y-63661500D01*
X88659768Y-63661500D01*
X88527378Y-63689640D01*
X88483247Y-63699020D01*
X88318385Y-63772422D01*
X88318384Y-63772422D01*
X88172389Y-63878494D01*
X88172381Y-63878501D01*
X88051633Y-64012605D01*
X87972894Y-64148985D01*
X87907806Y-64223204D01*
X87819271Y-64266864D01*
X87720766Y-64273320D01*
X87627290Y-64241589D01*
X87553071Y-64176501D01*
X87534686Y-64148985D01*
X87456466Y-64013505D01*
X87335715Y-63879397D01*
X87335711Y-63879394D01*
X87189716Y-63773322D01*
X87024852Y-63699920D01*
X87020618Y-63699020D01*
X86848332Y-63662400D01*
X86667868Y-63662400D01*
X86656776Y-63662400D01*
X86559957Y-63643142D01*
X86477878Y-63588298D01*
X86423034Y-63506219D01*
X86405162Y-63435847D01*
X86402288Y-63408500D01*
X86391883Y-63309509D01*
X86391882Y-63309506D01*
X86391882Y-63309504D01*
X86332020Y-63125267D01*
X86333241Y-63124869D01*
X86314470Y-63041905D01*
X86331188Y-62944616D01*
X86383865Y-62861129D01*
X86464479Y-62804158D01*
X86588413Y-62748979D01*
X86588416Y-62748977D01*
X86699432Y-62668319D01*
X86734413Y-62642904D01*
X86855167Y-62508793D01*
X86945399Y-62352507D01*
X87001165Y-62180875D01*
X87020029Y-62001400D01*
X87001165Y-61821925D01*
X86945399Y-61650293D01*
X86855167Y-61494007D01*
X86855163Y-61494003D01*
X86855163Y-61494002D01*
X86734415Y-61359897D01*
X86734411Y-61359894D01*
X86588416Y-61253822D01*
X86423552Y-61180420D01*
X86275097Y-61148865D01*
X86184400Y-61109898D01*
X86115517Y-61039188D01*
X86078937Y-60947500D01*
X86074700Y-60901394D01*
X86074700Y-56912951D01*
X86093958Y-56816132D01*
X86148802Y-56734053D01*
X86230881Y-56679209D01*
X86327700Y-56659951D01*
X86424519Y-56679209D01*
X86506598Y-56734053D01*
X86515716Y-56743662D01*
X86544385Y-56775503D01*
X86544388Y-56775505D01*
X86690383Y-56881577D01*
X86690384Y-56881577D01*
X86690385Y-56881578D01*
X86855248Y-56954980D01*
X87031768Y-56992500D01*
X87031771Y-56992500D01*
X87212229Y-56992500D01*
X87212232Y-56992500D01*
X87388752Y-56954980D01*
X87553615Y-56881578D01*
X87699613Y-56775504D01*
X87735009Y-56736192D01*
X87814104Y-56677129D01*
X87909782Y-56652830D01*
X88007476Y-56666994D01*
G37*
%TD.AperFunction*%
%TA.AperFunction,NonConductor*%
G36*
X91033319Y-62337758D02*
G01*
X91115398Y-62392602D01*
X91170242Y-62474681D01*
X91189500Y-62571500D01*
X91189500Y-65921136D01*
X91170242Y-66017955D01*
X91115398Y-66100034D01*
X91033319Y-66154878D01*
X90936500Y-66174136D01*
X90883900Y-66168608D01*
X90877141Y-66167171D01*
X90799827Y-66150738D01*
X90619363Y-66150738D01*
X90509283Y-66174136D01*
X90442842Y-66188258D01*
X90277980Y-66261660D01*
X90129069Y-66369850D01*
X90039421Y-66411178D01*
X89940781Y-66415053D01*
X89848167Y-66380886D01*
X89775678Y-66313877D01*
X89734350Y-66224229D01*
X89728746Y-66138721D01*
X89736300Y-66066855D01*
X89733386Y-66039135D01*
X89742415Y-65940837D01*
X89788376Y-65853473D01*
X89806091Y-65833797D01*
X90144082Y-65495806D01*
X90156523Y-65484896D01*
X90180613Y-65466413D01*
X90248070Y-65378500D01*
X90274334Y-65344273D01*
X90309581Y-65259178D01*
X90333250Y-65202037D01*
X90346733Y-65099625D01*
X90348298Y-65087741D01*
X90348298Y-65087730D01*
X90348300Y-65087721D01*
X90348300Y-65087719D01*
X90353345Y-65049400D01*
X90349383Y-65019303D01*
X90348300Y-65002776D01*
X90348300Y-63368817D01*
X90349384Y-63352285D01*
X90353345Y-63322200D01*
X90348300Y-63283878D01*
X90333251Y-63169568D01*
X90333249Y-63169561D01*
X90278347Y-63037014D01*
X90274335Y-63027330D01*
X90274334Y-63027327D01*
X90204142Y-62935851D01*
X90180613Y-62905187D01*
X90156530Y-62886708D01*
X90144078Y-62875787D01*
X90018689Y-62750398D01*
X89963845Y-62668319D01*
X89944587Y-62571500D01*
X89963845Y-62474681D01*
X90018689Y-62392602D01*
X90100768Y-62337758D01*
X90197587Y-62318500D01*
X90936500Y-62318500D01*
X91033319Y-62337758D01*
G37*
%TD.AperFunction*%
%TA.AperFunction,NonConductor*%
G36*
X81880319Y-65219084D02*
G01*
X81962398Y-65273928D01*
X81971518Y-65283539D01*
X81972387Y-65284505D01*
X81972390Y-65284507D01*
X82064208Y-65351216D01*
X82131217Y-65423705D01*
X82165385Y-65516319D01*
X82168500Y-65555898D01*
X82168500Y-65760131D01*
X82168286Y-65767488D01*
X82164608Y-65830634D01*
X82164608Y-65830635D01*
X82164656Y-65830907D01*
X82168500Y-65874843D01*
X82168500Y-66177148D01*
X82149242Y-66273967D01*
X82094398Y-66356046D01*
X82012319Y-66410890D01*
X81926188Y-66428022D01*
X81926266Y-66428762D01*
X81918212Y-66429608D01*
X81915500Y-66430148D01*
X81913078Y-66430148D01*
X81838123Y-66446080D01*
X81836100Y-66446510D01*
X81737393Y-66447801D01*
X81645705Y-66411221D01*
X81574995Y-66342337D01*
X81536028Y-66251638D01*
X81530500Y-66199038D01*
X81530500Y-65452826D01*
X81549758Y-65356007D01*
X81604602Y-65273928D01*
X81686681Y-65219084D01*
X81783500Y-65199826D01*
X81880319Y-65219084D01*
G37*
%TD.AperFunction*%
%TA.AperFunction,NonConductor*%
G36*
X85049100Y-69349565D02*
G01*
X85123318Y-69414653D01*
X85166979Y-69503189D01*
X85175600Y-69568670D01*
X85175600Y-70224382D01*
X85156342Y-70321201D01*
X85101498Y-70403280D01*
X85019419Y-70458124D01*
X84922600Y-70477382D01*
X84825781Y-70458124D01*
X84743702Y-70403280D01*
X84703496Y-70350882D01*
X84619966Y-70206205D01*
X84490342Y-70062243D01*
X84491662Y-70061054D01*
X84442268Y-69994900D01*
X84417974Y-69899220D01*
X84432144Y-69801527D01*
X84482622Y-69716693D01*
X84521929Y-69681304D01*
X84522234Y-69681083D01*
X84642988Y-69546972D01*
X84703496Y-69442167D01*
X84768583Y-69367952D01*
X84857119Y-69324291D01*
X84955623Y-69317834D01*
X85049100Y-69349565D01*
G37*
%TD.AperFunction*%
%TA.AperFunction,NonConductor*%
G36*
X85003636Y-71062450D02*
G01*
X85077855Y-71127537D01*
X85117756Y-71203373D01*
X85141049Y-71275061D01*
X85149512Y-71301107D01*
X85239744Y-71457393D01*
X85239745Y-71457395D01*
X85239747Y-71457397D01*
X85360495Y-71591502D01*
X85360497Y-71591503D01*
X85407909Y-71625950D01*
X85474917Y-71698439D01*
X85509085Y-71791053D01*
X85505210Y-71889692D01*
X85463882Y-71979341D01*
X85459928Y-71984636D01*
X85448034Y-72000139D01*
X85391781Y-72073448D01*
X85390476Y-72076915D01*
X85333149Y-72215316D01*
X85318742Y-72324750D01*
X85311773Y-72377679D01*
X85280040Y-72471156D01*
X85214951Y-72545373D01*
X85126415Y-72589032D01*
X85027911Y-72595487D01*
X84934434Y-72563754D01*
X84882040Y-72523550D01*
X84580402Y-72221912D01*
X84525558Y-72139833D01*
X84506300Y-72043014D01*
X84506300Y-71444351D01*
X84525558Y-71347532D01*
X84571285Y-71275061D01*
X84619965Y-71220996D01*
X84619967Y-71220993D01*
X84658036Y-71155055D01*
X84723120Y-71080840D01*
X84811654Y-71037178D01*
X84910159Y-71030720D01*
X85003636Y-71062450D01*
G37*
%TD.AperFunction*%
%TA.AperFunction,NonConductor*%
G36*
X91074296Y-73894204D02*
G01*
X91145005Y-73963087D01*
X91183972Y-74053787D01*
X91189500Y-74106386D01*
X91189500Y-74588500D01*
X91170242Y-74685319D01*
X91115398Y-74767398D01*
X91033319Y-74822242D01*
X90936500Y-74841500D01*
X90839589Y-74841500D01*
X90742770Y-74822242D01*
X90660691Y-74767398D01*
X90605847Y-74685319D01*
X90586589Y-74588500D01*
X90586589Y-74126984D01*
X90605847Y-74030165D01*
X90660691Y-73948086D01*
X90742770Y-73893242D01*
X90786980Y-73879514D01*
X90883901Y-73858913D01*
X90982608Y-73857623D01*
X91074296Y-73894204D01*
G37*
%TD.AperFunction*%
%TA.AperFunction,NonConductor*%
G36*
X91033319Y-77577758D02*
G01*
X91115398Y-77632602D01*
X91170242Y-77714681D01*
X91189500Y-77811500D01*
X91189500Y-80952001D01*
X91170242Y-81048820D01*
X91115398Y-81130899D01*
X91033319Y-81185743D01*
X90936500Y-81205001D01*
X90839681Y-81185743D01*
X90757602Y-81130899D01*
X90702758Y-81048820D01*
X90702758Y-81048818D01*
X90678389Y-80989986D01*
X90655335Y-80934328D01*
X90655333Y-80934324D01*
X90601606Y-80864308D01*
X90561612Y-80812186D01*
X90537527Y-80793705D01*
X90525073Y-80782783D01*
X89750691Y-80008401D01*
X89695847Y-79926322D01*
X89676589Y-79829503D01*
X89676589Y-77811500D01*
X89695847Y-77714681D01*
X89750691Y-77632602D01*
X89832770Y-77577758D01*
X89929589Y-77558500D01*
X90936500Y-77558500D01*
X91033319Y-77577758D01*
G37*
%TD.AperFunction*%
%TA.AperFunction,NonConductor*%
G36*
X81836096Y-79065913D02*
G01*
X81942702Y-79088573D01*
X82033400Y-79127539D01*
X82102283Y-79198249D01*
X82138863Y-79289937D01*
X82143100Y-79336044D01*
X82143100Y-85809813D01*
X82123842Y-85906632D01*
X82068998Y-85988711D01*
X81962398Y-86095311D01*
X81880319Y-86150155D01*
X81783500Y-86169413D01*
X81686681Y-86150155D01*
X81604602Y-86095311D01*
X81549758Y-86013232D01*
X81530500Y-85916413D01*
X81530500Y-79313386D01*
X81549758Y-79216567D01*
X81604602Y-79134488D01*
X81686681Y-79079644D01*
X81783500Y-79060386D01*
X81836096Y-79065913D01*
G37*
%TD.AperFunction*%
%TA.AperFunction,NonConductor*%
G36*
X83120096Y-88744850D02*
G01*
X83190806Y-88813734D01*
X83229772Y-88904433D01*
X83235300Y-88957032D01*
X83235300Y-89828500D01*
X83216042Y-89925319D01*
X83161198Y-90007398D01*
X83079119Y-90062242D01*
X82982300Y-90081500D01*
X82961989Y-90081500D01*
X82865170Y-90062242D01*
X82783091Y-90007398D01*
X82728247Y-89925319D01*
X82708989Y-89828500D01*
X82708989Y-88961349D01*
X82728247Y-88864530D01*
X82783091Y-88782451D01*
X82865170Y-88727607D01*
X82909378Y-88713880D01*
X82929705Y-88709559D01*
X83028408Y-88708269D01*
X83120096Y-88744850D01*
G37*
%TD.AperFunction*%
%TA.AperFunction,NonConductor*%
G36*
X91033319Y-92817758D02*
G01*
X91115398Y-92872602D01*
X91170242Y-92954681D01*
X91189500Y-93051500D01*
X91189500Y-94505081D01*
X91170242Y-94601900D01*
X91115398Y-94683979D01*
X91033319Y-94738823D01*
X90936500Y-94758081D01*
X90839681Y-94738823D01*
X90757602Y-94683979D01*
X90702760Y-94601904D01*
X90682316Y-94552549D01*
X90681017Y-94549097D01*
X90680734Y-94548728D01*
X90680734Y-94548727D01*
X90646577Y-94504213D01*
X90587013Y-94426587D01*
X90562927Y-94408105D01*
X90550473Y-94397183D01*
X89558802Y-93405512D01*
X89503958Y-93323433D01*
X89484700Y-93226614D01*
X89484700Y-93051500D01*
X89503958Y-92954681D01*
X89558802Y-92872602D01*
X89640881Y-92817758D01*
X89737700Y-92798500D01*
X90936500Y-92798500D01*
X91033319Y-92817758D01*
G37*
%TD.AperFunction*%
%TA.AperFunction,NonConductor*%
G36*
X83079119Y-92817758D02*
G01*
X83161198Y-92872602D01*
X83216042Y-92954681D01*
X83235300Y-93051500D01*
X83235300Y-94929569D01*
X83216042Y-95026388D01*
X83161198Y-95108467D01*
X83079119Y-95163311D01*
X82982300Y-95182569D01*
X82885481Y-95163311D01*
X82803402Y-95108467D01*
X82794285Y-95098859D01*
X82695815Y-94989497D01*
X82695811Y-94989494D01*
X82549816Y-94883422D01*
X82384952Y-94810020D01*
X82362647Y-94805279D01*
X82208432Y-94772500D01*
X82027968Y-94772500D01*
X81851448Y-94810020D01*
X81851447Y-94810020D01*
X81838478Y-94812777D01*
X81837786Y-94809525D01*
X81763618Y-94818295D01*
X81668612Y-94791487D01*
X81591096Y-94730363D01*
X81542873Y-94644228D01*
X81530500Y-94566077D01*
X81530500Y-93051500D01*
X81549758Y-92954681D01*
X81604602Y-92872602D01*
X81686681Y-92817758D01*
X81783500Y-92798500D01*
X82982300Y-92798500D01*
X83079119Y-92817758D01*
G37*
%TD.AperFunction*%
%TA.AperFunction,NonConductor*%
G36*
X83066753Y-96957542D02*
G01*
X83151590Y-97008014D01*
X83210654Y-97087110D01*
X83234953Y-97182788D01*
X83235300Y-97196030D01*
X83235300Y-100488500D01*
X83216042Y-100585319D01*
X83161198Y-100667398D01*
X83079119Y-100722242D01*
X83006006Y-100736784D01*
X83006356Y-100740114D01*
X82993171Y-100741499D01*
X82816647Y-100779020D01*
X82665605Y-100846269D01*
X82569323Y-100868055D01*
X82472033Y-100851338D01*
X82459795Y-100846269D01*
X82308752Y-100779020D01*
X82132232Y-100741500D01*
X81951768Y-100741500D01*
X81951767Y-100741500D01*
X81836099Y-100766085D01*
X81737392Y-100767376D01*
X81645704Y-100730795D01*
X81574995Y-100661912D01*
X81536028Y-100571212D01*
X81530500Y-100518613D01*
X81530500Y-97559522D01*
X81549758Y-97462703D01*
X81604602Y-97380624D01*
X81686681Y-97325780D01*
X81783500Y-97306522D01*
X81837981Y-97315158D01*
X81838478Y-97312823D01*
X81851447Y-97315579D01*
X81851448Y-97315580D01*
X82027968Y-97353100D01*
X82027971Y-97353100D01*
X82208429Y-97353100D01*
X82208432Y-97353100D01*
X82384952Y-97315580D01*
X82549815Y-97242178D01*
X82695813Y-97136104D01*
X82794286Y-97026738D01*
X82873380Y-96967676D01*
X82969058Y-96943377D01*
X83066753Y-96957542D01*
G37*
%TD.AperFunction*%
%TA.AperFunction,NonConductor*%
G36*
X82653367Y-102348662D02*
G01*
X82665602Y-102353729D01*
X82816648Y-102420980D01*
X82993168Y-102458500D01*
X82993171Y-102458500D01*
X83006356Y-102459886D01*
X83006006Y-102463215D01*
X83079119Y-102477758D01*
X83161198Y-102532602D01*
X83216042Y-102614681D01*
X83235300Y-102711500D01*
X83235300Y-105063014D01*
X83216042Y-105159833D01*
X83161198Y-105241912D01*
X83155712Y-105247398D01*
X83073633Y-105302242D01*
X82976814Y-105321500D01*
X81783500Y-105321500D01*
X81686681Y-105302242D01*
X81604602Y-105247398D01*
X81549758Y-105165319D01*
X81530500Y-105068500D01*
X81530500Y-102681386D01*
X81549758Y-102584567D01*
X81604602Y-102502488D01*
X81686681Y-102447644D01*
X81783500Y-102428386D01*
X81836095Y-102433913D01*
X81951768Y-102458500D01*
X81951771Y-102458500D01*
X82132229Y-102458500D01*
X82132232Y-102458500D01*
X82308752Y-102420980D01*
X82459795Y-102353730D01*
X82556077Y-102331945D01*
X82653367Y-102348662D01*
G37*
%TD.AperFunction*%
%TA.AperFunction,NonConductor*%
G36*
X89351919Y-94879644D02*
G01*
X89433998Y-94934488D01*
X89511198Y-95011688D01*
X89566042Y-95093767D01*
X89585300Y-95190586D01*
X89585300Y-105068500D01*
X89566042Y-105165319D01*
X89511198Y-105247398D01*
X89429119Y-105302242D01*
X89332300Y-105321500D01*
X89271355Y-105321500D01*
X89268628Y-105321646D01*
X89267613Y-105321500D01*
X89264587Y-105321500D01*
X89264587Y-105321064D01*
X89170918Y-105307592D01*
X89086024Y-105257216D01*
X89026870Y-105178187D01*
X89002462Y-105082536D01*
X89002100Y-105069008D01*
X89002100Y-95113386D01*
X89021358Y-95016567D01*
X89076202Y-94934488D01*
X89158281Y-94879644D01*
X89255100Y-94860386D01*
X89351919Y-94879644D01*
G37*
%TD.AperFunction*%
%TA.AperFunction,NonConductor*%
G36*
X91033319Y-108057758D02*
G01*
X91115398Y-108112602D01*
X91170242Y-108194681D01*
X91189500Y-108291500D01*
X91189500Y-109567279D01*
X91170242Y-109664098D01*
X91115398Y-109746177D01*
X91033319Y-109801021D01*
X90936500Y-109820279D01*
X90839681Y-109801021D01*
X90757602Y-109746177D01*
X90702759Y-109664098D01*
X90680735Y-109610929D01*
X90680734Y-109610928D01*
X90680734Y-109610927D01*
X90610543Y-109519452D01*
X90610542Y-109519451D01*
X90587013Y-109488787D01*
X90562930Y-109470308D01*
X90550478Y-109459387D01*
X90534591Y-109443500D01*
X89561487Y-108470396D01*
X89506645Y-108388319D01*
X89487386Y-108291500D01*
X89506644Y-108194681D01*
X89561488Y-108112602D01*
X89643567Y-108057759D01*
X89740386Y-108038500D01*
X90936500Y-108038500D01*
X91033319Y-108057758D01*
G37*
%TD.AperFunction*%
%TA.AperFunction,NonConductor*%
G36*
X84111669Y-107688459D02*
G01*
X84200718Y-107731063D01*
X84266684Y-107804502D01*
X84299525Y-107897595D01*
X84302100Y-107933600D01*
X84302100Y-119236214D01*
X84282842Y-119333033D01*
X84227998Y-119415112D01*
X83155712Y-120487398D01*
X83073633Y-120542242D01*
X82976814Y-120561500D01*
X81783500Y-120561500D01*
X81686681Y-120542242D01*
X81604602Y-120487398D01*
X81549758Y-120405319D01*
X81530500Y-120308500D01*
X81530500Y-108291500D01*
X81549758Y-108194681D01*
X81604602Y-108112602D01*
X81686681Y-108057758D01*
X81783500Y-108038500D01*
X83448635Y-108038500D01*
X83448638Y-108038500D01*
X83471479Y-108036044D01*
X83509196Y-108031990D01*
X83509197Y-108031989D01*
X83509201Y-108031989D01*
X83646204Y-107980889D01*
X83763261Y-107893261D01*
X83846564Y-107781980D01*
X83920002Y-107716016D01*
X84013095Y-107683175D01*
X84111669Y-107688459D01*
G37*
%TD.AperFunction*%
%TA.AperFunction,NonConductor*%
G36*
X87954919Y-108546189D02*
G01*
X88012130Y-108579223D01*
X88017883Y-108583638D01*
X88024484Y-108588704D01*
X88036929Y-108599619D01*
X89511198Y-110073888D01*
X89566042Y-110155967D01*
X89585300Y-110252786D01*
X89585300Y-120308500D01*
X89566042Y-120405319D01*
X89511198Y-120487398D01*
X89429119Y-120542242D01*
X89332300Y-120561500D01*
X89271362Y-120561500D01*
X89271359Y-120561500D01*
X89271345Y-120561501D01*
X89210803Y-120568009D01*
X89073791Y-120619113D01*
X88956740Y-120706737D01*
X88956737Y-120706740D01*
X88869113Y-120823791D01*
X88818009Y-120960803D01*
X88811501Y-121021345D01*
X88811500Y-121021365D01*
X88811500Y-122818634D01*
X88811501Y-122818654D01*
X88818009Y-122879196D01*
X88818011Y-122879201D01*
X88869111Y-123016204D01*
X88869112Y-123016205D01*
X88869113Y-123016208D01*
X88956737Y-123133259D01*
X88956740Y-123133262D01*
X89073791Y-123220886D01*
X89073792Y-123220886D01*
X89073796Y-123220889D01*
X89210799Y-123271989D01*
X89210802Y-123271989D01*
X89210804Y-123271990D01*
X89210802Y-123271990D01*
X89259065Y-123277178D01*
X89271362Y-123278500D01*
X89271365Y-123278500D01*
X90936500Y-123278500D01*
X91033319Y-123297758D01*
X91115398Y-123352602D01*
X91170242Y-123434681D01*
X91189500Y-123531500D01*
X91189500Y-135548500D01*
X91170242Y-135645319D01*
X91115398Y-135727398D01*
X91033319Y-135782242D01*
X90936500Y-135801500D01*
X89271362Y-135801500D01*
X89271359Y-135801500D01*
X89271345Y-135801501D01*
X89210803Y-135808009D01*
X89073791Y-135859113D01*
X88956740Y-135946737D01*
X88956737Y-135946740D01*
X88869113Y-136063791D01*
X88818009Y-136200803D01*
X88811501Y-136261345D01*
X88811500Y-136261365D01*
X88811500Y-138058634D01*
X88811501Y-138058654D01*
X88818009Y-138119196D01*
X88818011Y-138119201D01*
X88869111Y-138256204D01*
X88869112Y-138256205D01*
X88869113Y-138256208D01*
X88956737Y-138373259D01*
X88956740Y-138373262D01*
X89073791Y-138460886D01*
X89073792Y-138460886D01*
X89073796Y-138460889D01*
X89210799Y-138511989D01*
X89210802Y-138511989D01*
X89210804Y-138511990D01*
X89210802Y-138511990D01*
X89259065Y-138517178D01*
X89271362Y-138518500D01*
X89271365Y-138518500D01*
X90936500Y-138518500D01*
X91033319Y-138537758D01*
X91115398Y-138592602D01*
X91170242Y-138674681D01*
X91189500Y-138771500D01*
X91189500Y-150788500D01*
X91170242Y-150885319D01*
X91115398Y-150967398D01*
X91033319Y-151022242D01*
X90936500Y-151041500D01*
X89271362Y-151041500D01*
X89271359Y-151041500D01*
X89271345Y-151041501D01*
X89210803Y-151048009D01*
X89073791Y-151099113D01*
X88956740Y-151186737D01*
X88956737Y-151186740D01*
X88869113Y-151303791D01*
X88818009Y-151440803D01*
X88811501Y-151501345D01*
X88811500Y-151501365D01*
X88811500Y-153298634D01*
X88811501Y-153298654D01*
X88818009Y-153359196D01*
X88818011Y-153359201D01*
X88869111Y-153496204D01*
X88869112Y-153496205D01*
X88869113Y-153496208D01*
X88956737Y-153613259D01*
X88956740Y-153613262D01*
X89073791Y-153700886D01*
X89073792Y-153700886D01*
X89073796Y-153700889D01*
X89210799Y-153751989D01*
X89210802Y-153751989D01*
X89210804Y-153751990D01*
X89210802Y-153751990D01*
X89259065Y-153757178D01*
X89271362Y-153758500D01*
X89271365Y-153758500D01*
X90936500Y-153758500D01*
X91033319Y-153777758D01*
X91115398Y-153832602D01*
X91170242Y-153914681D01*
X91189500Y-154011500D01*
X91189500Y-166028500D01*
X91170242Y-166125319D01*
X91115398Y-166207398D01*
X91033319Y-166262242D01*
X90936500Y-166281500D01*
X89271362Y-166281500D01*
X89271359Y-166281500D01*
X89271345Y-166281501D01*
X89210803Y-166288009D01*
X89073791Y-166339113D01*
X88956740Y-166426737D01*
X88956737Y-166426740D01*
X88869113Y-166543791D01*
X88818009Y-166680803D01*
X88811501Y-166741345D01*
X88811500Y-166741365D01*
X88811500Y-168538634D01*
X88811501Y-168538654D01*
X88818009Y-168599196D01*
X88818011Y-168599201D01*
X88869111Y-168736204D01*
X88869112Y-168736205D01*
X88869113Y-168736208D01*
X88956737Y-168853259D01*
X88956740Y-168853262D01*
X89073791Y-168940886D01*
X89073792Y-168940886D01*
X89073796Y-168940889D01*
X89210799Y-168991989D01*
X89210802Y-168991989D01*
X89210804Y-168991990D01*
X89210802Y-168991990D01*
X89259065Y-168997178D01*
X89271362Y-168998500D01*
X89271365Y-168998500D01*
X90936500Y-168998500D01*
X91033319Y-169017758D01*
X91115398Y-169072602D01*
X91170242Y-169154681D01*
X91189500Y-169251500D01*
X91189500Y-173648500D01*
X91170242Y-173745319D01*
X91115398Y-173827398D01*
X91033319Y-173882242D01*
X90936500Y-173901500D01*
X89271362Y-173901500D01*
X89271359Y-173901500D01*
X89271345Y-173901501D01*
X89210803Y-173908009D01*
X89073791Y-173959113D01*
X88956740Y-174046737D01*
X88956737Y-174046740D01*
X88869113Y-174163791D01*
X88818009Y-174300803D01*
X88811501Y-174361345D01*
X88811500Y-174361365D01*
X88811500Y-175003814D01*
X88792242Y-175100633D01*
X88737398Y-175182712D01*
X88655319Y-175237556D01*
X88558500Y-175256814D01*
X88461681Y-175237556D01*
X88379602Y-175182712D01*
X87679202Y-174482312D01*
X87624358Y-174400233D01*
X87605100Y-174303414D01*
X87605100Y-108779931D01*
X87624358Y-108683112D01*
X87679202Y-108601033D01*
X87761281Y-108546189D01*
X87858100Y-108526931D01*
X87954919Y-108546189D01*
G37*
%TD.AperFunction*%
%TA.AperFunction,NonConductor*%
G36*
X85009519Y-120508244D02*
G01*
X85091598Y-120563088D01*
X85146442Y-120645167D01*
X85165700Y-120741986D01*
X85165700Y-174252614D01*
X85146442Y-174349433D01*
X85091598Y-174431512D01*
X84340398Y-175182712D01*
X84258319Y-175237556D01*
X84161500Y-175256814D01*
X84064681Y-175237556D01*
X83982602Y-175182712D01*
X83927758Y-175100633D01*
X83908500Y-175003814D01*
X83908500Y-174361365D01*
X83908498Y-174361345D01*
X83901990Y-174300803D01*
X83901989Y-174300799D01*
X83850889Y-174163796D01*
X83850886Y-174163792D01*
X83850886Y-174163791D01*
X83763262Y-174046740D01*
X83763259Y-174046737D01*
X83646208Y-173959113D01*
X83646205Y-173959112D01*
X83646204Y-173959111D01*
X83509201Y-173908011D01*
X83509200Y-173908010D01*
X83509195Y-173908009D01*
X83509197Y-173908009D01*
X83448654Y-173901501D01*
X83448640Y-173901500D01*
X83448638Y-173901500D01*
X81783500Y-173901500D01*
X81686681Y-173882242D01*
X81604602Y-173827398D01*
X81549758Y-173745319D01*
X81530500Y-173648500D01*
X81530500Y-169251500D01*
X81549758Y-169154681D01*
X81604602Y-169072602D01*
X81686681Y-169017758D01*
X81783500Y-168998500D01*
X83448635Y-168998500D01*
X83448638Y-168998500D01*
X83471479Y-168996044D01*
X83509196Y-168991990D01*
X83509197Y-168991989D01*
X83509201Y-168991989D01*
X83646204Y-168940889D01*
X83763261Y-168853261D01*
X83850889Y-168736204D01*
X83901989Y-168599201D01*
X83908500Y-168538638D01*
X83908500Y-166741362D01*
X83906986Y-166727287D01*
X83901990Y-166680803D01*
X83901989Y-166680799D01*
X83850889Y-166543796D01*
X83850886Y-166543792D01*
X83850886Y-166543791D01*
X83763262Y-166426740D01*
X83763259Y-166426737D01*
X83646208Y-166339113D01*
X83646205Y-166339112D01*
X83646204Y-166339111D01*
X83509201Y-166288011D01*
X83509200Y-166288010D01*
X83509195Y-166288009D01*
X83509197Y-166288009D01*
X83448654Y-166281501D01*
X83448640Y-166281500D01*
X83448638Y-166281500D01*
X81783500Y-166281500D01*
X81686681Y-166262242D01*
X81604602Y-166207398D01*
X81549758Y-166125319D01*
X81530500Y-166028500D01*
X81530500Y-163615986D01*
X81549758Y-163519167D01*
X81604602Y-163437088D01*
X81686681Y-163382244D01*
X81783500Y-163362986D01*
X81836095Y-163368513D01*
X81951768Y-163393100D01*
X81951771Y-163393100D01*
X82132229Y-163393100D01*
X82132232Y-163393100D01*
X82308752Y-163355580D01*
X82459795Y-163288330D01*
X82556077Y-163266545D01*
X82653367Y-163283262D01*
X82665602Y-163288329D01*
X82816648Y-163355580D01*
X82993168Y-163393100D01*
X82993171Y-163393100D01*
X83173629Y-163393100D01*
X83173632Y-163393100D01*
X83350152Y-163355580D01*
X83515015Y-163282178D01*
X83661013Y-163176104D01*
X83781767Y-163041993D01*
X83871999Y-162885707D01*
X83927765Y-162714075D01*
X83946629Y-162534600D01*
X83927765Y-162355125D01*
X83871999Y-162183493D01*
X83781767Y-162027207D01*
X83781763Y-162027203D01*
X83781763Y-162027202D01*
X83661015Y-161893097D01*
X83661011Y-161893094D01*
X83515016Y-161787022D01*
X83350152Y-161713620D01*
X83173632Y-161676100D01*
X82993168Y-161676100D01*
X82860778Y-161704240D01*
X82816647Y-161713620D01*
X82665605Y-161780869D01*
X82569323Y-161802655D01*
X82472033Y-161785938D01*
X82459795Y-161780869D01*
X82308752Y-161713620D01*
X82132232Y-161676100D01*
X81951768Y-161676100D01*
X81951767Y-161676100D01*
X81836099Y-161700685D01*
X81737392Y-161701976D01*
X81645704Y-161665395D01*
X81574995Y-161596512D01*
X81536028Y-161505812D01*
X81530500Y-161453213D01*
X81530500Y-154011500D01*
X81549758Y-153914681D01*
X81604602Y-153832602D01*
X81686681Y-153777758D01*
X81783500Y-153758500D01*
X83448635Y-153758500D01*
X83448638Y-153758500D01*
X83471479Y-153756044D01*
X83509196Y-153751990D01*
X83509197Y-153751989D01*
X83509201Y-153751989D01*
X83646204Y-153700889D01*
X83763261Y-153613261D01*
X83850889Y-153496204D01*
X83901989Y-153359201D01*
X83908500Y-153298638D01*
X83908500Y-151501362D01*
X83906986Y-151487287D01*
X83901990Y-151440803D01*
X83901989Y-151440799D01*
X83850889Y-151303796D01*
X83850886Y-151303792D01*
X83850886Y-151303791D01*
X83763262Y-151186740D01*
X83763259Y-151186737D01*
X83646208Y-151099113D01*
X83646205Y-151099112D01*
X83646204Y-151099111D01*
X83509201Y-151048011D01*
X83509200Y-151048010D01*
X83509195Y-151048009D01*
X83509197Y-151048009D01*
X83448654Y-151041501D01*
X83448640Y-151041500D01*
X83448638Y-151041500D01*
X81783500Y-151041500D01*
X81686681Y-151022242D01*
X81604602Y-150967398D01*
X81549758Y-150885319D01*
X81530500Y-150788500D01*
X81530500Y-138771500D01*
X81549758Y-138674681D01*
X81604602Y-138592602D01*
X81686681Y-138537758D01*
X81783500Y-138518500D01*
X83448635Y-138518500D01*
X83448638Y-138518500D01*
X83471479Y-138516044D01*
X83509196Y-138511990D01*
X83509197Y-138511989D01*
X83509201Y-138511989D01*
X83646204Y-138460889D01*
X83763261Y-138373261D01*
X83850889Y-138256204D01*
X83901989Y-138119201D01*
X83908500Y-138058638D01*
X83908500Y-136261362D01*
X83906986Y-136247287D01*
X83901990Y-136200803D01*
X83901989Y-136200799D01*
X83850889Y-136063796D01*
X83850886Y-136063792D01*
X83850886Y-136063791D01*
X83763262Y-135946740D01*
X83763259Y-135946737D01*
X83646208Y-135859113D01*
X83646205Y-135859112D01*
X83646204Y-135859111D01*
X83509201Y-135808011D01*
X83509200Y-135808010D01*
X83509195Y-135808009D01*
X83509197Y-135808009D01*
X83448654Y-135801501D01*
X83448640Y-135801500D01*
X83448638Y-135801500D01*
X81783500Y-135801500D01*
X81686681Y-135782242D01*
X81604602Y-135727398D01*
X81549758Y-135645319D01*
X81530500Y-135548500D01*
X81530500Y-133141385D01*
X81549758Y-133044566D01*
X81604602Y-132962487D01*
X81686681Y-132907643D01*
X81783500Y-132888385D01*
X81836097Y-132893912D01*
X81926368Y-132913100D01*
X81926371Y-132913100D01*
X82106829Y-132913100D01*
X82106832Y-132913100D01*
X82283352Y-132875580D01*
X82434395Y-132808330D01*
X82530677Y-132786545D01*
X82627967Y-132803262D01*
X82640202Y-132808329D01*
X82791248Y-132875580D01*
X82967768Y-132913100D01*
X82967771Y-132913100D01*
X83148229Y-132913100D01*
X83148232Y-132913100D01*
X83324752Y-132875580D01*
X83489615Y-132802178D01*
X83635613Y-132696104D01*
X83756367Y-132561993D01*
X83846599Y-132405707D01*
X83902365Y-132234075D01*
X83921229Y-132054600D01*
X83902365Y-131875125D01*
X83846599Y-131703493D01*
X83756367Y-131547207D01*
X83756363Y-131547203D01*
X83756363Y-131547202D01*
X83635615Y-131413097D01*
X83635611Y-131413094D01*
X83489616Y-131307022D01*
X83324752Y-131233620D01*
X83148232Y-131196100D01*
X82967768Y-131196100D01*
X82835378Y-131224240D01*
X82791247Y-131233620D01*
X82640205Y-131300869D01*
X82543923Y-131322655D01*
X82446633Y-131305938D01*
X82434395Y-131300869D01*
X82283352Y-131233620D01*
X82106832Y-131196100D01*
X81926368Y-131196100D01*
X81926364Y-131196100D01*
X81836098Y-131215286D01*
X81737391Y-131216577D01*
X81645703Y-131179996D01*
X81574994Y-131111112D01*
X81536028Y-131020412D01*
X81530500Y-130967814D01*
X81530500Y-123531500D01*
X81549758Y-123434681D01*
X81604602Y-123352602D01*
X81686681Y-123297758D01*
X81783500Y-123278500D01*
X83448635Y-123278500D01*
X83448638Y-123278500D01*
X83471479Y-123276044D01*
X83509196Y-123271990D01*
X83509197Y-123271989D01*
X83509201Y-123271989D01*
X83646204Y-123220889D01*
X83763261Y-123133261D01*
X83850889Y-123016204D01*
X83901989Y-122879201D01*
X83908500Y-122818638D01*
X83908500Y-121493186D01*
X83927758Y-121396367D01*
X83982602Y-121314288D01*
X84733802Y-120563088D01*
X84815881Y-120508244D01*
X84912700Y-120488986D01*
X85009519Y-120508244D01*
G37*
%TD.AperFunction*%
%TA.AperFunction,NonConductor*%
G36*
X85352826Y-176044936D02*
G01*
X85434905Y-176099780D01*
X85489749Y-176181859D01*
X85507621Y-176252231D01*
X85515635Y-176328478D01*
X85571399Y-176500103D01*
X85571400Y-176500105D01*
X85571401Y-176500107D01*
X85661633Y-176656393D01*
X85661634Y-176656395D01*
X85661636Y-176656397D01*
X85782384Y-176790502D01*
X85782388Y-176790505D01*
X85928383Y-176896577D01*
X85928384Y-176896577D01*
X85928385Y-176896578D01*
X86093248Y-176969980D01*
X86269768Y-177007500D01*
X86269771Y-177007500D01*
X86450229Y-177007500D01*
X86450232Y-177007500D01*
X86626752Y-176969980D01*
X86791615Y-176896578D01*
X86937613Y-176790504D01*
X87058367Y-176656393D01*
X87148599Y-176500107D01*
X87204365Y-176328475D01*
X87212378Y-176252230D01*
X87241651Y-176157958D01*
X87304773Y-176082061D01*
X87392135Y-176036097D01*
X87490437Y-176027064D01*
X87584712Y-176056337D01*
X87642890Y-176099780D01*
X88737398Y-177194288D01*
X88792242Y-177276367D01*
X88811500Y-177373186D01*
X88811500Y-178698634D01*
X88811501Y-178698654D01*
X88818009Y-178759196D01*
X88818011Y-178759201D01*
X88869111Y-178896204D01*
X88869112Y-178896205D01*
X88869113Y-178896208D01*
X88956737Y-179013259D01*
X88956740Y-179013262D01*
X89073791Y-179100886D01*
X89073792Y-179100886D01*
X89073796Y-179100889D01*
X89210799Y-179151989D01*
X89210802Y-179151989D01*
X89210804Y-179151990D01*
X89210802Y-179151990D01*
X89259065Y-179157178D01*
X89271362Y-179158500D01*
X89271365Y-179158500D01*
X90852214Y-179158500D01*
X90949033Y-179177758D01*
X91031112Y-179232602D01*
X91085956Y-179314681D01*
X91105214Y-179411500D01*
X91085956Y-179508319D01*
X91081510Y-179518422D01*
X91062266Y-179559691D01*
X91040215Y-179597885D01*
X90963678Y-179707190D01*
X90935331Y-179740972D01*
X90840972Y-179835331D01*
X90807190Y-179863678D01*
X90697885Y-179940215D01*
X90659691Y-179962266D01*
X90538746Y-180018663D01*
X90497307Y-180033746D01*
X90411946Y-180056618D01*
X90368412Y-180068283D01*
X90324983Y-180075941D01*
X90175508Y-180089018D01*
X90164477Y-180089500D01*
X82555523Y-180089500D01*
X82544493Y-180089018D01*
X82395016Y-180075941D01*
X82351588Y-180068284D01*
X82266222Y-180045410D01*
X82222692Y-180033746D01*
X82181253Y-180018663D01*
X82060308Y-179962266D01*
X82022122Y-179940219D01*
X81912805Y-179863675D01*
X81879027Y-179835331D01*
X81784668Y-179740972D01*
X81756325Y-179707195D01*
X81679777Y-179597874D01*
X81657731Y-179559687D01*
X81638488Y-179518418D01*
X81615027Y-179422530D01*
X81630046Y-179324964D01*
X81681258Y-179240572D01*
X81760868Y-179182202D01*
X81856756Y-179158741D01*
X81867786Y-179158500D01*
X83448635Y-179158500D01*
X83448638Y-179158500D01*
X83471479Y-179156044D01*
X83509196Y-179151990D01*
X83509197Y-179151989D01*
X83509201Y-179151989D01*
X83646204Y-179100889D01*
X83763261Y-179013261D01*
X83850889Y-178896204D01*
X83901989Y-178759201D01*
X83908500Y-178698638D01*
X83908500Y-177373185D01*
X83927758Y-177276366D01*
X83982600Y-177194289D01*
X85077110Y-176099779D01*
X85159188Y-176044936D01*
X85256007Y-176025678D01*
X85352826Y-176044936D01*
G37*
%TD.AperFunction*%
M02*
