M48
; DRILL file {KiCad 7.0.8} date Thu Oct 19 22:48:35 2023
; FORMAT={-:-/ absolute / inch / decimal}
; #@! TF.CreationDate,2023-10-19T22:48:35-06:00
; #@! TF.GenerationSoftware,Kicad,Pcbnew,7.0.8
; #@! TF.FileFunction,Plated,1,6,PTH
FMAT,2
INCH
; #@! TA.AperFunction,Plated,PTH,ViaDrill
T1C0.0118
; #@! TA.AperFunction,Plated,PTH,ComponentDrill
T2C0.0236
; #@! TA.AperFunction,Plated,PTH,ComponentDrill
T3C0.0394
%
G90
G05
T1
X3.227Y-2.728
X3.228Y-2.764
X3.228Y-0.992
X3.2285Y-2.6492
X3.2287Y-2.6832
X3.2289Y-2.8102
X3.229Y-5.199
X3.23Y-3.08
X3.23Y-4.0
X3.23Y-6.399
X3.233Y-3.765
X3.233Y-3.799
X3.25Y-2.545
X3.26Y-3.459
X3.27Y-5.199
X3.271Y-4.0
X3.271Y-6.399
X3.272Y-1.598
X3.274Y-0.888
X3.274Y-0.992
X3.28Y-1.685
X3.28Y-1.72
X3.2809Y-2.2881
X3.283Y-2.028
X3.285Y-1.92
X3.2875Y-1.962
X3.3009Y-3.345
X3.301Y-2.6337
X3.304Y-2.784
X3.3049Y-2.7181
X3.306Y-3.099
X3.3124Y-2.6653
X3.332Y-0.968
X3.3501Y-2.0173
X3.3657Y-2.4654
X3.368Y-2.4996
X3.3782Y-2.5315
X3.3834Y-2.7933
X3.3841Y-1.003
X3.392Y-2.441
X3.3948Y-3.0277
X3.4Y-4.9864
X3.4Y-1.036
X3.4Y-1.685
X3.4Y-1.72
X3.4Y-2.017
X3.4Y-3.98
X3.4Y-4.115
X3.4Y-4.275
X3.4Y-4.425
X3.4Y-4.55
X3.4Y-4.695
X3.4Y-4.845
X3.4Y-5.3
X3.4Y-5.45
X3.4Y-5.61
X3.4Y-5.75
X3.4Y-6.05
X3.4Y-6.185
X3.4Y-6.345
X3.4Y-6.49
X3.4Y-6.64
X3.4Y-6.785
X3.4Y-6.935
X3.4Y-3.812
X3.4Y-5.165
X3.4Y-5.88
X3.4Y-3.1448
X3.405Y-2.614
X3.4157Y-2.5402
X3.4176Y-1.0028
X3.43Y-2.11
X3.43Y-2.21
X3.4322Y-2.8727
X3.4389Y-2.7993
X3.44Y-2.67
X3.444Y-2.741
X3.4451Y-2.6009
X3.45Y-2.017
X3.458Y-1.5992
X3.4724Y-2.7989
X3.4758Y-3.226
X3.4941Y-2.5402
X3.4941Y-2.9
X3.495Y-2.64
X3.4953Y-2.7094
X3.4967Y-2.7429
X3.4989Y-2.6011
X3.4989Y-2.676
X3.5043Y-2.2303
X3.52Y-1.685
X3.52Y-1.72
X3.5243Y-2.261
X3.5256Y-0.9768
X3.526Y-0.888
X3.5417Y-2.2303
X3.5452Y-2.03
X3.56Y-2.839
X3.564Y-0.99
X3.57Y-2.875
X3.5712Y-2.6382
X3.5715Y-2.6717
X3.5715Y-2.7052
X3.5715Y-2.8059
X3.5716Y-2.7388
X3.5716Y-2.7723
T3
X3.25Y-1.1
X3.25Y-1.2
X3.25Y-1.3
X3.25Y-1.4
X3.25Y-1.5
X3.25Y-1.8
X3.25Y-2.4
X3.25Y-3.0
X3.25Y-3.6
X3.25Y-4.2
X3.25Y-4.8
X3.25Y-5.4
X3.25Y-6.0
X3.25Y-6.6
X3.25Y-6.9
X3.25Y-7.0
X3.55Y-1.1
X3.55Y-1.2
X3.55Y-1.3
X3.55Y-1.4
X3.55Y-1.5
X3.55Y-1.8
X3.55Y-2.4
X3.55Y-3.0
X3.55Y-3.6
X3.55Y-4.2
X3.55Y-4.8
X3.55Y-5.4
X3.55Y-6.0
X3.55Y-6.6
X3.55Y-6.9
X3.55Y-7.0
T2
G00X3.2299Y-0.7736
M15
G01X3.2299Y-0.7263
M16
G05
G00X3.2299Y-0.9232
M15
G01X3.2299Y-0.8917
M16
G05
G00X3.5701Y-0.7736
M15
G01X3.5701Y-0.7263
M16
G05
G00X3.5701Y-0.9232
M15
G01X3.5701Y-0.8917
M16
G05
T0
M30
