G04 #@! TF.GenerationSoftware,KiCad,Pcbnew,(6.0.6)*
G04 #@! TF.CreationDate,2023-02-28T19:21:44-07:00*
G04 #@! TF.ProjectId,RP2040-Breadstick,52503230-3430-42d4-9272-656164737469,0.1*
G04 #@! TF.SameCoordinates,Original*
G04 #@! TF.FileFunction,Legend,Bot*
G04 #@! TF.FilePolarity,Positive*
%FSLAX46Y46*%
G04 Gerber Fmt 4.6, Leading zero omitted, Abs format (unit mm)*
G04 Created by KiCad (PCBNEW (6.0.6)) date 2023-02-28 19:21:44*
%MOMM*%
%LPD*%
G01*
G04 APERTURE LIST*
%ADD10C,0.209164*%
%ADD11C,0.150000*%
%ADD12C,0.200000*%
%ADD13C,0.120000*%
%ADD14C,0.127000*%
G04 APERTURE END LIST*
D10*
X87444582Y-32710000D02*
G75*
G03*
X87444582Y-32710000I-104582J0D01*
G01*
D11*
X84369047Y-28808571D02*
X85130952Y-28808571D01*
X84750000Y-28427619D02*
X84750000Y-29189523D01*
D12*
X82502717Y-70541567D02*
G75*
G03*
X82502717Y-70541567I-100000J0D01*
G01*
D13*
X84843962Y-69374789D02*
X85042773Y-69175978D01*
X85565211Y-70096038D02*
X85764022Y-69897227D01*
X86870000Y-143866368D02*
X86870000Y-144147528D01*
X85850000Y-143866368D02*
X85850000Y-144147528D01*
X86870000Y-177659406D02*
X86870000Y-177940566D01*
X85850000Y-177659406D02*
X85850000Y-177940566D01*
X85850000Y-125092458D02*
X85850000Y-125373618D01*
X86870000Y-125092458D02*
X86870000Y-125373618D01*
X86219420Y-29335000D02*
X86500580Y-29335000D01*
X86219420Y-30355000D02*
X86500580Y-30355000D01*
D14*
X88150000Y-19855000D02*
X88150000Y-22055000D01*
X89650000Y-19855000D02*
X89650000Y-22055000D01*
D12*
X89000000Y-18455000D02*
G75*
G03*
X89000000Y-18455000I-100000J0D01*
G01*
D13*
X86870000Y-91299420D02*
X86870000Y-91580580D01*
X85850000Y-91299420D02*
X85850000Y-91580580D01*
X85850000Y-102563766D02*
X85850000Y-102844926D01*
X86870000Y-102563766D02*
X86870000Y-102844926D01*
X86642842Y-71173669D02*
X86841653Y-70974858D01*
X85921593Y-70452420D02*
X86120404Y-70253609D01*
X86870000Y-155130714D02*
X86870000Y-155411874D01*
X85850000Y-155130714D02*
X85850000Y-155411874D01*
D14*
X85610000Y-21420000D02*
X85610000Y-19220000D01*
X87110000Y-21420000D02*
X87110000Y-19220000D01*
D12*
X86460000Y-22820000D02*
G75*
G03*
X86460000Y-22820000I-100000J0D01*
G01*
D13*
X85850000Y-162640278D02*
X85850000Y-162921438D01*
X86870000Y-162640278D02*
X86870000Y-162921438D01*
X85850000Y-170149842D02*
X85850000Y-170431002D01*
X86870000Y-170149842D02*
X86870000Y-170431002D01*
X85850000Y-151375932D02*
X85850000Y-151657092D01*
X86870000Y-151375932D02*
X86870000Y-151657092D01*
X85850000Y-106318548D02*
X85850000Y-106599708D01*
X86870000Y-106318548D02*
X86870000Y-106599708D01*
X86500580Y-34165000D02*
X86219420Y-34165000D01*
X86500580Y-33145000D02*
X86219420Y-33145000D01*
X86870000Y-140111586D02*
X86870000Y-140392746D01*
X85850000Y-140111586D02*
X85850000Y-140392746D01*
D14*
X87180000Y-32375000D02*
X87180000Y-31125000D01*
X85540000Y-32375000D02*
X85540000Y-31125000D01*
D13*
X85850000Y-136356804D02*
X85850000Y-136637964D01*
X86870000Y-136356804D02*
X86870000Y-136637964D01*
X85850000Y-158885496D02*
X85850000Y-159166656D01*
X86870000Y-158885496D02*
X86870000Y-159166656D01*
X86870000Y-128847240D02*
X86870000Y-129128400D01*
X85850000Y-128847240D02*
X85850000Y-129128400D01*
X85850000Y-98808984D02*
X85850000Y-99090144D01*
X86870000Y-98808984D02*
X86870000Y-99090144D01*
X87180074Y-67038677D02*
X86981263Y-67237488D01*
X87901323Y-67759926D02*
X87702512Y-67958737D01*
X85850000Y-95054202D02*
X85850000Y-95335362D01*
X86870000Y-95054202D02*
X86870000Y-95335362D01*
X86870000Y-147621150D02*
X86870000Y-147902310D01*
X85850000Y-147621150D02*
X85850000Y-147902310D01*
X85850000Y-166395060D02*
X85850000Y-166676220D01*
X86870000Y-166395060D02*
X86870000Y-166676220D01*
D12*
X86360000Y-28490000D02*
X86360000Y-27390000D01*
D13*
X86855000Y-113828112D02*
X86855000Y-114109272D01*
X85835000Y-113828112D02*
X85835000Y-114109272D01*
X86870000Y-121337676D02*
X86870000Y-121618836D01*
X85850000Y-121337676D02*
X85850000Y-121618836D01*
X83769541Y-68291652D02*
X83968352Y-68092841D01*
X84490790Y-69012901D02*
X84689601Y-68814090D01*
X86855000Y-110073330D02*
X86855000Y-110354490D01*
X85835000Y-110073330D02*
X85835000Y-110354490D01*
X86102443Y-65961046D02*
X85903632Y-66159857D01*
X86823692Y-66682295D02*
X86624881Y-66881106D01*
X88257705Y-68116308D02*
X88058894Y-68315119D01*
X88978954Y-68837557D02*
X88780143Y-69036368D01*
X86870000Y-173904624D02*
X86870000Y-174185784D01*
X85850000Y-173904624D02*
X85850000Y-174185784D01*
X86870000Y-132602022D02*
X86870000Y-132883182D01*
X85850000Y-132602022D02*
X85850000Y-132883182D01*
X84530000Y-20578578D02*
X84530000Y-20061422D01*
X83110000Y-20578578D02*
X83110000Y-20061422D01*
X85850000Y-117582894D02*
X85850000Y-117864054D01*
X86870000Y-117582894D02*
X86870000Y-117864054D01*
M02*
