G04 #@! TF.GenerationSoftware,KiCad,Pcbnew,(6.0.4)*
G04 #@! TF.CreationDate,2023-09-16T16:58:06-06:00*
G04 #@! TF.ProjectId,RP2040-Breadstick,52503230-3430-42d4-9272-656164737469,0.2*
G04 #@! TF.SameCoordinates,Original*
G04 #@! TF.FileFunction,AssemblyDrawing,Bot*
%FSLAX46Y46*%
G04 Gerber Fmt 4.6, Leading zero omitted, Abs format (unit mm)*
G04 Created by KiCad (PCBNEW (6.0.4)) date 2023-09-16 16:58:06*
%MOMM*%
%LPD*%
G01*
G04 APERTURE LIST*
%ADD10C,0.150000*%
%ADD11C,0.100000*%
G04 APERTURE END LIST*
D10*
X86288095Y-155087142D02*
X86335714Y-155134761D01*
X86478571Y-155182380D01*
X86573809Y-155182380D01*
X86716666Y-155134761D01*
X86811904Y-155039523D01*
X86859523Y-154944285D01*
X86907142Y-154753809D01*
X86907142Y-154610952D01*
X86859523Y-154420476D01*
X86811904Y-154325238D01*
X86716666Y-154230000D01*
X86573809Y-154182380D01*
X86478571Y-154182380D01*
X86335714Y-154230000D01*
X86288095Y-154277619D01*
X85716666Y-155182380D02*
X85811904Y-155134761D01*
X85859523Y-155087142D01*
X85907142Y-154991904D01*
X85907142Y-154706190D01*
X85859523Y-154610952D01*
X85811904Y-154563333D01*
X85716666Y-154515714D01*
X85573809Y-154515714D01*
X85478571Y-154563333D01*
X85430952Y-154610952D01*
X85383333Y-154706190D01*
X85383333Y-154991904D01*
X85430952Y-155087142D01*
X85478571Y-155134761D01*
X85573809Y-155182380D01*
X85716666Y-155182380D01*
X84954761Y-154515714D02*
X84954761Y-155182380D01*
X84954761Y-154610952D02*
X84907142Y-154563333D01*
X84811904Y-154515714D01*
X84669047Y-154515714D01*
X84573809Y-154563333D01*
X84526190Y-154658571D01*
X84526190Y-155182380D01*
X84050000Y-154515714D02*
X84050000Y-155182380D01*
X84050000Y-154610952D02*
X84002380Y-154563333D01*
X83907142Y-154515714D01*
X83764285Y-154515714D01*
X83669047Y-154563333D01*
X83621428Y-154658571D01*
X83621428Y-155182380D01*
X83383333Y-155277619D02*
X82621428Y-155277619D01*
X82192857Y-154182380D02*
X82097619Y-154182380D01*
X82002380Y-154230000D01*
X81954761Y-154277619D01*
X81907142Y-154372857D01*
X81859523Y-154563333D01*
X81859523Y-154801428D01*
X81907142Y-154991904D01*
X81954761Y-155087142D01*
X82002380Y-155134761D01*
X82097619Y-155182380D01*
X82192857Y-155182380D01*
X82288095Y-155134761D01*
X82335714Y-155087142D01*
X82383333Y-154991904D01*
X82430952Y-154801428D01*
X82430952Y-154563333D01*
X82383333Y-154372857D01*
X82335714Y-154277619D01*
X82288095Y-154230000D01*
X82192857Y-154182380D01*
X80907142Y-155182380D02*
X81478571Y-155182380D01*
X81192857Y-155182380D02*
X81192857Y-154182380D01*
X81288095Y-154325238D01*
X81383333Y-154420476D01*
X81478571Y-154468095D01*
X80573809Y-155182380D02*
X80050000Y-154515714D01*
X80573809Y-154515714D02*
X80050000Y-155182380D01*
X79478571Y-154182380D02*
X79383333Y-154182380D01*
X79288095Y-154230000D01*
X79240476Y-154277619D01*
X79192857Y-154372857D01*
X79145238Y-154563333D01*
X79145238Y-154801428D01*
X79192857Y-154991904D01*
X79240476Y-155087142D01*
X79288095Y-155134761D01*
X79383333Y-155182380D01*
X79478571Y-155182380D01*
X79573809Y-155134761D01*
X79621428Y-155087142D01*
X79669047Y-154991904D01*
X79716666Y-154801428D01*
X79716666Y-154563333D01*
X79669047Y-154372857D01*
X79621428Y-154277619D01*
X79573809Y-154230000D01*
X79478571Y-154182380D01*
X78192857Y-155182380D02*
X78764285Y-155182380D01*
X78478571Y-155182380D02*
X78478571Y-154182380D01*
X78573809Y-154325238D01*
X78669047Y-154420476D01*
X78764285Y-154468095D01*
X82002380Y-151114285D02*
X82716666Y-151114285D01*
X82859523Y-151066666D01*
X82954761Y-150971428D01*
X83002380Y-150828571D01*
X83002380Y-150733333D01*
X83002380Y-152114285D02*
X83002380Y-151542857D01*
X83002380Y-151828571D02*
X82002380Y-151828571D01*
X82145238Y-151733333D01*
X82240476Y-151638095D01*
X82288095Y-151542857D01*
X83002380Y-153066666D02*
X83002380Y-152495238D01*
X83002380Y-152780952D02*
X82002380Y-152780952D01*
X82145238Y-152685714D01*
X82240476Y-152590476D01*
X82288095Y-152495238D01*
X82430952Y-153638095D02*
X82383333Y-153542857D01*
X82335714Y-153495238D01*
X82240476Y-153447619D01*
X82192857Y-153447619D01*
X82097619Y-153495238D01*
X82050000Y-153542857D01*
X82002380Y-153638095D01*
X82002380Y-153828571D01*
X82050000Y-153923809D01*
X82097619Y-153971428D01*
X82192857Y-154019047D01*
X82240476Y-154019047D01*
X82335714Y-153971428D01*
X82383333Y-153923809D01*
X82430952Y-153828571D01*
X82430952Y-153638095D01*
X82478571Y-153542857D01*
X82526190Y-153495238D01*
X82621428Y-153447619D01*
X82811904Y-153447619D01*
X82907142Y-153495238D01*
X82954761Y-153542857D01*
X83002380Y-153638095D01*
X83002380Y-153828571D01*
X82954761Y-153923809D01*
X82907142Y-153971428D01*
X82811904Y-154019047D01*
X82621428Y-154019047D01*
X82526190Y-153971428D01*
X82478571Y-153923809D01*
X82430952Y-153828571D01*
X93908095Y-40787142D02*
X93955714Y-40834761D01*
X94098571Y-40882380D01*
X94193809Y-40882380D01*
X94336666Y-40834761D01*
X94431904Y-40739523D01*
X94479523Y-40644285D01*
X94527142Y-40453809D01*
X94527142Y-40310952D01*
X94479523Y-40120476D01*
X94431904Y-40025238D01*
X94336666Y-39930000D01*
X94193809Y-39882380D01*
X94098571Y-39882380D01*
X93955714Y-39930000D01*
X93908095Y-39977619D01*
X93336666Y-40882380D02*
X93431904Y-40834761D01*
X93479523Y-40787142D01*
X93527142Y-40691904D01*
X93527142Y-40406190D01*
X93479523Y-40310952D01*
X93431904Y-40263333D01*
X93336666Y-40215714D01*
X93193809Y-40215714D01*
X93098571Y-40263333D01*
X93050952Y-40310952D01*
X93003333Y-40406190D01*
X93003333Y-40691904D01*
X93050952Y-40787142D01*
X93098571Y-40834761D01*
X93193809Y-40882380D01*
X93336666Y-40882380D01*
X92574761Y-40215714D02*
X92574761Y-40882380D01*
X92574761Y-40310952D02*
X92527142Y-40263333D01*
X92431904Y-40215714D01*
X92289047Y-40215714D01*
X92193809Y-40263333D01*
X92146190Y-40358571D01*
X92146190Y-40882380D01*
X91670000Y-40215714D02*
X91670000Y-40882380D01*
X91670000Y-40310952D02*
X91622380Y-40263333D01*
X91527142Y-40215714D01*
X91384285Y-40215714D01*
X91289047Y-40263333D01*
X91241428Y-40358571D01*
X91241428Y-40882380D01*
X91003333Y-40977619D02*
X90241428Y-40977619D01*
X89812857Y-39882380D02*
X89717619Y-39882380D01*
X89622380Y-39930000D01*
X89574761Y-39977619D01*
X89527142Y-40072857D01*
X89479523Y-40263333D01*
X89479523Y-40501428D01*
X89527142Y-40691904D01*
X89574761Y-40787142D01*
X89622380Y-40834761D01*
X89717619Y-40882380D01*
X89812857Y-40882380D01*
X89908095Y-40834761D01*
X89955714Y-40787142D01*
X90003333Y-40691904D01*
X90050952Y-40501428D01*
X90050952Y-40263333D01*
X90003333Y-40072857D01*
X89955714Y-39977619D01*
X89908095Y-39930000D01*
X89812857Y-39882380D01*
X88527142Y-40882380D02*
X89098571Y-40882380D01*
X88812857Y-40882380D02*
X88812857Y-39882380D01*
X88908095Y-40025238D01*
X89003333Y-40120476D01*
X89098571Y-40168095D01*
X88193809Y-40882380D02*
X87670000Y-40215714D01*
X88193809Y-40215714D02*
X87670000Y-40882380D01*
X87098571Y-39882380D02*
X87003333Y-39882380D01*
X86908095Y-39930000D01*
X86860476Y-39977619D01*
X86812857Y-40072857D01*
X86765238Y-40263333D01*
X86765238Y-40501428D01*
X86812857Y-40691904D01*
X86860476Y-40787142D01*
X86908095Y-40834761D01*
X87003333Y-40882380D01*
X87098571Y-40882380D01*
X87193809Y-40834761D01*
X87241428Y-40787142D01*
X87289047Y-40691904D01*
X87336666Y-40501428D01*
X87336666Y-40263333D01*
X87289047Y-40072857D01*
X87241428Y-39977619D01*
X87193809Y-39930000D01*
X87098571Y-39882380D01*
X85812857Y-40882380D02*
X86384285Y-40882380D01*
X86098571Y-40882380D02*
X86098571Y-39882380D01*
X86193809Y-40025238D01*
X86289047Y-40120476D01*
X86384285Y-40168095D01*
X89622380Y-36814285D02*
X90336666Y-36814285D01*
X90479523Y-36766666D01*
X90574761Y-36671428D01*
X90622380Y-36528571D01*
X90622380Y-36433333D01*
X90622380Y-37814285D02*
X90622380Y-37242857D01*
X90622380Y-37528571D02*
X89622380Y-37528571D01*
X89765238Y-37433333D01*
X89860476Y-37338095D01*
X89908095Y-37242857D01*
X89622380Y-38433333D02*
X89622380Y-38528571D01*
X89670000Y-38623809D01*
X89717619Y-38671428D01*
X89812857Y-38719047D01*
X90003333Y-38766666D01*
X90241428Y-38766666D01*
X90431904Y-38719047D01*
X90527142Y-38671428D01*
X90574761Y-38623809D01*
X90622380Y-38528571D01*
X90622380Y-38433333D01*
X90574761Y-38338095D01*
X90527142Y-38290476D01*
X90431904Y-38242857D01*
X90241428Y-38195238D01*
X90003333Y-38195238D01*
X89812857Y-38242857D01*
X89717619Y-38290476D01*
X89670000Y-38338095D01*
X89622380Y-38433333D01*
X90622380Y-39242857D02*
X90622380Y-39433333D01*
X90574761Y-39528571D01*
X90527142Y-39576190D01*
X90384285Y-39671428D01*
X90193809Y-39719047D01*
X89812857Y-39719047D01*
X89717619Y-39671428D01*
X89670000Y-39623809D01*
X89622380Y-39528571D01*
X89622380Y-39338095D01*
X89670000Y-39242857D01*
X89717619Y-39195238D01*
X89812857Y-39147619D01*
X90050952Y-39147619D01*
X90146190Y-39195238D01*
X90193809Y-39242857D01*
X90241428Y-39338095D01*
X90241428Y-39528571D01*
X90193809Y-39623809D01*
X90146190Y-39671428D01*
X90050952Y-39719047D01*
X86288095Y-30627142D02*
X86335714Y-30674761D01*
X86478571Y-30722380D01*
X86573809Y-30722380D01*
X86716666Y-30674761D01*
X86811904Y-30579523D01*
X86859523Y-30484285D01*
X86907142Y-30293809D01*
X86907142Y-30150952D01*
X86859523Y-29960476D01*
X86811904Y-29865238D01*
X86716666Y-29770000D01*
X86573809Y-29722380D01*
X86478571Y-29722380D01*
X86335714Y-29770000D01*
X86288095Y-29817619D01*
X85716666Y-30722380D02*
X85811904Y-30674761D01*
X85859523Y-30627142D01*
X85907142Y-30531904D01*
X85907142Y-30246190D01*
X85859523Y-30150952D01*
X85811904Y-30103333D01*
X85716666Y-30055714D01*
X85573809Y-30055714D01*
X85478571Y-30103333D01*
X85430952Y-30150952D01*
X85383333Y-30246190D01*
X85383333Y-30531904D01*
X85430952Y-30627142D01*
X85478571Y-30674761D01*
X85573809Y-30722380D01*
X85716666Y-30722380D01*
X84954761Y-30055714D02*
X84954761Y-30722380D01*
X84954761Y-30150952D02*
X84907142Y-30103333D01*
X84811904Y-30055714D01*
X84669047Y-30055714D01*
X84573809Y-30103333D01*
X84526190Y-30198571D01*
X84526190Y-30722380D01*
X84050000Y-30055714D02*
X84050000Y-30722380D01*
X84050000Y-30150952D02*
X84002380Y-30103333D01*
X83907142Y-30055714D01*
X83764285Y-30055714D01*
X83669047Y-30103333D01*
X83621428Y-30198571D01*
X83621428Y-30722380D01*
X83383333Y-30817619D02*
X82621428Y-30817619D01*
X82192857Y-29722380D02*
X82097619Y-29722380D01*
X82002380Y-29770000D01*
X81954761Y-29817619D01*
X81907142Y-29912857D01*
X81859523Y-30103333D01*
X81859523Y-30341428D01*
X81907142Y-30531904D01*
X81954761Y-30627142D01*
X82002380Y-30674761D01*
X82097619Y-30722380D01*
X82192857Y-30722380D01*
X82288095Y-30674761D01*
X82335714Y-30627142D01*
X82383333Y-30531904D01*
X82430952Y-30341428D01*
X82430952Y-30103333D01*
X82383333Y-29912857D01*
X82335714Y-29817619D01*
X82288095Y-29770000D01*
X82192857Y-29722380D01*
X80907142Y-30722380D02*
X81478571Y-30722380D01*
X81192857Y-30722380D02*
X81192857Y-29722380D01*
X81288095Y-29865238D01*
X81383333Y-29960476D01*
X81478571Y-30008095D01*
X80573809Y-30722380D02*
X80050000Y-30055714D01*
X80573809Y-30055714D02*
X80050000Y-30722380D01*
X79478571Y-29722380D02*
X79383333Y-29722380D01*
X79288095Y-29770000D01*
X79240476Y-29817619D01*
X79192857Y-29912857D01*
X79145238Y-30103333D01*
X79145238Y-30341428D01*
X79192857Y-30531904D01*
X79240476Y-30627142D01*
X79288095Y-30674761D01*
X79383333Y-30722380D01*
X79478571Y-30722380D01*
X79573809Y-30674761D01*
X79621428Y-30627142D01*
X79669047Y-30531904D01*
X79716666Y-30341428D01*
X79716666Y-30103333D01*
X79669047Y-29912857D01*
X79621428Y-29817619D01*
X79573809Y-29770000D01*
X79478571Y-29722380D01*
X78192857Y-30722380D02*
X78764285Y-30722380D01*
X78478571Y-30722380D02*
X78478571Y-29722380D01*
X78573809Y-29865238D01*
X78669047Y-29960476D01*
X78764285Y-30008095D01*
X82002380Y-26654285D02*
X82716666Y-26654285D01*
X82859523Y-26606666D01*
X82954761Y-26511428D01*
X83002380Y-26368571D01*
X83002380Y-26273333D01*
X83002380Y-27654285D02*
X83002380Y-27082857D01*
X83002380Y-27368571D02*
X82002380Y-27368571D01*
X82145238Y-27273333D01*
X82240476Y-27178095D01*
X82288095Y-27082857D01*
X82002380Y-28273333D02*
X82002380Y-28368571D01*
X82050000Y-28463809D01*
X82097619Y-28511428D01*
X82192857Y-28559047D01*
X82383333Y-28606666D01*
X82621428Y-28606666D01*
X82811904Y-28559047D01*
X82907142Y-28511428D01*
X82954761Y-28463809D01*
X83002380Y-28368571D01*
X83002380Y-28273333D01*
X82954761Y-28178095D01*
X82907142Y-28130476D01*
X82811904Y-28082857D01*
X82621428Y-28035238D01*
X82383333Y-28035238D01*
X82192857Y-28082857D01*
X82097619Y-28130476D01*
X82050000Y-28178095D01*
X82002380Y-28273333D01*
X82002380Y-29463809D02*
X82002380Y-29273333D01*
X82050000Y-29178095D01*
X82097619Y-29130476D01*
X82240476Y-29035238D01*
X82430952Y-28987619D01*
X82811904Y-28987619D01*
X82907142Y-29035238D01*
X82954761Y-29082857D01*
X83002380Y-29178095D01*
X83002380Y-29368571D01*
X82954761Y-29463809D01*
X82907142Y-29511428D01*
X82811904Y-29559047D01*
X82573809Y-29559047D01*
X82478571Y-29511428D01*
X82430952Y-29463809D01*
X82383333Y-29368571D01*
X82383333Y-29178095D01*
X82430952Y-29082857D01*
X82478571Y-29035238D01*
X82573809Y-28987619D01*
X86288095Y-78887142D02*
X86335714Y-78934761D01*
X86478571Y-78982380D01*
X86573809Y-78982380D01*
X86716666Y-78934761D01*
X86811904Y-78839523D01*
X86859523Y-78744285D01*
X86907142Y-78553809D01*
X86907142Y-78410952D01*
X86859523Y-78220476D01*
X86811904Y-78125238D01*
X86716666Y-78030000D01*
X86573809Y-77982380D01*
X86478571Y-77982380D01*
X86335714Y-78030000D01*
X86288095Y-78077619D01*
X85716666Y-78982380D02*
X85811904Y-78934761D01*
X85859523Y-78887142D01*
X85907142Y-78791904D01*
X85907142Y-78506190D01*
X85859523Y-78410952D01*
X85811904Y-78363333D01*
X85716666Y-78315714D01*
X85573809Y-78315714D01*
X85478571Y-78363333D01*
X85430952Y-78410952D01*
X85383333Y-78506190D01*
X85383333Y-78791904D01*
X85430952Y-78887142D01*
X85478571Y-78934761D01*
X85573809Y-78982380D01*
X85716666Y-78982380D01*
X84954761Y-78315714D02*
X84954761Y-78982380D01*
X84954761Y-78410952D02*
X84907142Y-78363333D01*
X84811904Y-78315714D01*
X84669047Y-78315714D01*
X84573809Y-78363333D01*
X84526190Y-78458571D01*
X84526190Y-78982380D01*
X84050000Y-78315714D02*
X84050000Y-78982380D01*
X84050000Y-78410952D02*
X84002380Y-78363333D01*
X83907142Y-78315714D01*
X83764285Y-78315714D01*
X83669047Y-78363333D01*
X83621428Y-78458571D01*
X83621428Y-78982380D01*
X83383333Y-79077619D02*
X82621428Y-79077619D01*
X82192857Y-77982380D02*
X82097619Y-77982380D01*
X82002380Y-78030000D01*
X81954761Y-78077619D01*
X81907142Y-78172857D01*
X81859523Y-78363333D01*
X81859523Y-78601428D01*
X81907142Y-78791904D01*
X81954761Y-78887142D01*
X82002380Y-78934761D01*
X82097619Y-78982380D01*
X82192857Y-78982380D01*
X82288095Y-78934761D01*
X82335714Y-78887142D01*
X82383333Y-78791904D01*
X82430952Y-78601428D01*
X82430952Y-78363333D01*
X82383333Y-78172857D01*
X82335714Y-78077619D01*
X82288095Y-78030000D01*
X82192857Y-77982380D01*
X80907142Y-78982380D02*
X81478571Y-78982380D01*
X81192857Y-78982380D02*
X81192857Y-77982380D01*
X81288095Y-78125238D01*
X81383333Y-78220476D01*
X81478571Y-78268095D01*
X80573809Y-78982380D02*
X80050000Y-78315714D01*
X80573809Y-78315714D02*
X80050000Y-78982380D01*
X79478571Y-77982380D02*
X79383333Y-77982380D01*
X79288095Y-78030000D01*
X79240476Y-78077619D01*
X79192857Y-78172857D01*
X79145238Y-78363333D01*
X79145238Y-78601428D01*
X79192857Y-78791904D01*
X79240476Y-78887142D01*
X79288095Y-78934761D01*
X79383333Y-78982380D01*
X79478571Y-78982380D01*
X79573809Y-78934761D01*
X79621428Y-78887142D01*
X79669047Y-78791904D01*
X79716666Y-78601428D01*
X79716666Y-78363333D01*
X79669047Y-78172857D01*
X79621428Y-78077619D01*
X79573809Y-78030000D01*
X79478571Y-77982380D01*
X78192857Y-78982380D02*
X78764285Y-78982380D01*
X78478571Y-78982380D02*
X78478571Y-77982380D01*
X78573809Y-78125238D01*
X78669047Y-78220476D01*
X78764285Y-78268095D01*
X82002380Y-74914285D02*
X82716666Y-74914285D01*
X82859523Y-74866666D01*
X82954761Y-74771428D01*
X83002380Y-74628571D01*
X83002380Y-74533333D01*
X83002380Y-75914285D02*
X83002380Y-75342857D01*
X83002380Y-75628571D02*
X82002380Y-75628571D01*
X82145238Y-75533333D01*
X82240476Y-75438095D01*
X82288095Y-75342857D01*
X83002380Y-76866666D02*
X83002380Y-76295238D01*
X83002380Y-76580952D02*
X82002380Y-76580952D01*
X82145238Y-76485714D01*
X82240476Y-76390476D01*
X82288095Y-76295238D01*
X82002380Y-77200000D02*
X82002380Y-77819047D01*
X82383333Y-77485714D01*
X82383333Y-77628571D01*
X82430952Y-77723809D01*
X82478571Y-77771428D01*
X82573809Y-77819047D01*
X82811904Y-77819047D01*
X82907142Y-77771428D01*
X82954761Y-77723809D01*
X83002380Y-77628571D01*
X83002380Y-77342857D01*
X82954761Y-77247619D01*
X82907142Y-77200000D01*
X93908095Y-155087142D02*
X93955714Y-155134761D01*
X94098571Y-155182380D01*
X94193809Y-155182380D01*
X94336666Y-155134761D01*
X94431904Y-155039523D01*
X94479523Y-154944285D01*
X94527142Y-154753809D01*
X94527142Y-154610952D01*
X94479523Y-154420476D01*
X94431904Y-154325238D01*
X94336666Y-154230000D01*
X94193809Y-154182380D01*
X94098571Y-154182380D01*
X93955714Y-154230000D01*
X93908095Y-154277619D01*
X93336666Y-155182380D02*
X93431904Y-155134761D01*
X93479523Y-155087142D01*
X93527142Y-154991904D01*
X93527142Y-154706190D01*
X93479523Y-154610952D01*
X93431904Y-154563333D01*
X93336666Y-154515714D01*
X93193809Y-154515714D01*
X93098571Y-154563333D01*
X93050952Y-154610952D01*
X93003333Y-154706190D01*
X93003333Y-154991904D01*
X93050952Y-155087142D01*
X93098571Y-155134761D01*
X93193809Y-155182380D01*
X93336666Y-155182380D01*
X92574761Y-154515714D02*
X92574761Y-155182380D01*
X92574761Y-154610952D02*
X92527142Y-154563333D01*
X92431904Y-154515714D01*
X92289047Y-154515714D01*
X92193809Y-154563333D01*
X92146190Y-154658571D01*
X92146190Y-155182380D01*
X91670000Y-154515714D02*
X91670000Y-155182380D01*
X91670000Y-154610952D02*
X91622380Y-154563333D01*
X91527142Y-154515714D01*
X91384285Y-154515714D01*
X91289047Y-154563333D01*
X91241428Y-154658571D01*
X91241428Y-155182380D01*
X91003333Y-155277619D02*
X90241428Y-155277619D01*
X89812857Y-154182380D02*
X89717619Y-154182380D01*
X89622380Y-154230000D01*
X89574761Y-154277619D01*
X89527142Y-154372857D01*
X89479523Y-154563333D01*
X89479523Y-154801428D01*
X89527142Y-154991904D01*
X89574761Y-155087142D01*
X89622380Y-155134761D01*
X89717619Y-155182380D01*
X89812857Y-155182380D01*
X89908095Y-155134761D01*
X89955714Y-155087142D01*
X90003333Y-154991904D01*
X90050952Y-154801428D01*
X90050952Y-154563333D01*
X90003333Y-154372857D01*
X89955714Y-154277619D01*
X89908095Y-154230000D01*
X89812857Y-154182380D01*
X88527142Y-155182380D02*
X89098571Y-155182380D01*
X88812857Y-155182380D02*
X88812857Y-154182380D01*
X88908095Y-154325238D01*
X89003333Y-154420476D01*
X89098571Y-154468095D01*
X88193809Y-155182380D02*
X87670000Y-154515714D01*
X88193809Y-154515714D02*
X87670000Y-155182380D01*
X87098571Y-154182380D02*
X87003333Y-154182380D01*
X86908095Y-154230000D01*
X86860476Y-154277619D01*
X86812857Y-154372857D01*
X86765238Y-154563333D01*
X86765238Y-154801428D01*
X86812857Y-154991904D01*
X86860476Y-155087142D01*
X86908095Y-155134761D01*
X87003333Y-155182380D01*
X87098571Y-155182380D01*
X87193809Y-155134761D01*
X87241428Y-155087142D01*
X87289047Y-154991904D01*
X87336666Y-154801428D01*
X87336666Y-154563333D01*
X87289047Y-154372857D01*
X87241428Y-154277619D01*
X87193809Y-154230000D01*
X87098571Y-154182380D01*
X85812857Y-155182380D02*
X86384285Y-155182380D01*
X86098571Y-155182380D02*
X86098571Y-154182380D01*
X86193809Y-154325238D01*
X86289047Y-154420476D01*
X86384285Y-154468095D01*
X89622380Y-151114285D02*
X90336666Y-151114285D01*
X90479523Y-151066666D01*
X90574761Y-150971428D01*
X90622380Y-150828571D01*
X90622380Y-150733333D01*
X90622380Y-152114285D02*
X90622380Y-151542857D01*
X90622380Y-151828571D02*
X89622380Y-151828571D01*
X89765238Y-151733333D01*
X89860476Y-151638095D01*
X89908095Y-151542857D01*
X89717619Y-152495238D02*
X89670000Y-152542857D01*
X89622380Y-152638095D01*
X89622380Y-152876190D01*
X89670000Y-152971428D01*
X89717619Y-153019047D01*
X89812857Y-153066666D01*
X89908095Y-153066666D01*
X90050952Y-153019047D01*
X90622380Y-152447619D01*
X90622380Y-153066666D01*
X90050952Y-153638095D02*
X90003333Y-153542857D01*
X89955714Y-153495238D01*
X89860476Y-153447619D01*
X89812857Y-153447619D01*
X89717619Y-153495238D01*
X89670000Y-153542857D01*
X89622380Y-153638095D01*
X89622380Y-153828571D01*
X89670000Y-153923809D01*
X89717619Y-153971428D01*
X89812857Y-154019047D01*
X89860476Y-154019047D01*
X89955714Y-153971428D01*
X90003333Y-153923809D01*
X90050952Y-153828571D01*
X90050952Y-153638095D01*
X90098571Y-153542857D01*
X90146190Y-153495238D01*
X90241428Y-153447619D01*
X90431904Y-153447619D01*
X90527142Y-153495238D01*
X90574761Y-153542857D01*
X90622380Y-153638095D01*
X90622380Y-153828571D01*
X90574761Y-153923809D01*
X90527142Y-153971428D01*
X90431904Y-154019047D01*
X90241428Y-154019047D01*
X90146190Y-153971428D01*
X90098571Y-153923809D01*
X90050952Y-153828571D01*
X93908095Y-177947142D02*
X93955714Y-177994761D01*
X94098571Y-178042380D01*
X94193809Y-178042380D01*
X94336666Y-177994761D01*
X94431904Y-177899523D01*
X94479523Y-177804285D01*
X94527142Y-177613809D01*
X94527142Y-177470952D01*
X94479523Y-177280476D01*
X94431904Y-177185238D01*
X94336666Y-177090000D01*
X94193809Y-177042380D01*
X94098571Y-177042380D01*
X93955714Y-177090000D01*
X93908095Y-177137619D01*
X93336666Y-178042380D02*
X93431904Y-177994761D01*
X93479523Y-177947142D01*
X93527142Y-177851904D01*
X93527142Y-177566190D01*
X93479523Y-177470952D01*
X93431904Y-177423333D01*
X93336666Y-177375714D01*
X93193809Y-177375714D01*
X93098571Y-177423333D01*
X93050952Y-177470952D01*
X93003333Y-177566190D01*
X93003333Y-177851904D01*
X93050952Y-177947142D01*
X93098571Y-177994761D01*
X93193809Y-178042380D01*
X93336666Y-178042380D01*
X92574761Y-177375714D02*
X92574761Y-178042380D01*
X92574761Y-177470952D02*
X92527142Y-177423333D01*
X92431904Y-177375714D01*
X92289047Y-177375714D01*
X92193809Y-177423333D01*
X92146190Y-177518571D01*
X92146190Y-178042380D01*
X91670000Y-177375714D02*
X91670000Y-178042380D01*
X91670000Y-177470952D02*
X91622380Y-177423333D01*
X91527142Y-177375714D01*
X91384285Y-177375714D01*
X91289047Y-177423333D01*
X91241428Y-177518571D01*
X91241428Y-178042380D01*
X91003333Y-178137619D02*
X90241428Y-178137619D01*
X89812857Y-177042380D02*
X89717619Y-177042380D01*
X89622380Y-177090000D01*
X89574761Y-177137619D01*
X89527142Y-177232857D01*
X89479523Y-177423333D01*
X89479523Y-177661428D01*
X89527142Y-177851904D01*
X89574761Y-177947142D01*
X89622380Y-177994761D01*
X89717619Y-178042380D01*
X89812857Y-178042380D01*
X89908095Y-177994761D01*
X89955714Y-177947142D01*
X90003333Y-177851904D01*
X90050952Y-177661428D01*
X90050952Y-177423333D01*
X90003333Y-177232857D01*
X89955714Y-177137619D01*
X89908095Y-177090000D01*
X89812857Y-177042380D01*
X88527142Y-178042380D02*
X89098571Y-178042380D01*
X88812857Y-178042380D02*
X88812857Y-177042380D01*
X88908095Y-177185238D01*
X89003333Y-177280476D01*
X89098571Y-177328095D01*
X88193809Y-178042380D02*
X87670000Y-177375714D01*
X88193809Y-177375714D02*
X87670000Y-178042380D01*
X87098571Y-177042380D02*
X87003333Y-177042380D01*
X86908095Y-177090000D01*
X86860476Y-177137619D01*
X86812857Y-177232857D01*
X86765238Y-177423333D01*
X86765238Y-177661428D01*
X86812857Y-177851904D01*
X86860476Y-177947142D01*
X86908095Y-177994761D01*
X87003333Y-178042380D01*
X87098571Y-178042380D01*
X87193809Y-177994761D01*
X87241428Y-177947142D01*
X87289047Y-177851904D01*
X87336666Y-177661428D01*
X87336666Y-177423333D01*
X87289047Y-177232857D01*
X87241428Y-177137619D01*
X87193809Y-177090000D01*
X87098571Y-177042380D01*
X85812857Y-178042380D02*
X86384285Y-178042380D01*
X86098571Y-178042380D02*
X86098571Y-177042380D01*
X86193809Y-177185238D01*
X86289047Y-177280476D01*
X86384285Y-177328095D01*
X89622380Y-173974285D02*
X90336666Y-173974285D01*
X90479523Y-173926666D01*
X90574761Y-173831428D01*
X90622380Y-173688571D01*
X90622380Y-173593333D01*
X90622380Y-174974285D02*
X90622380Y-174402857D01*
X90622380Y-174688571D02*
X89622380Y-174688571D01*
X89765238Y-174593333D01*
X89860476Y-174498095D01*
X89908095Y-174402857D01*
X89622380Y-175593333D02*
X89622380Y-175688571D01*
X89670000Y-175783809D01*
X89717619Y-175831428D01*
X89812857Y-175879047D01*
X90003333Y-175926666D01*
X90241428Y-175926666D01*
X90431904Y-175879047D01*
X90527142Y-175831428D01*
X90574761Y-175783809D01*
X90622380Y-175688571D01*
X90622380Y-175593333D01*
X90574761Y-175498095D01*
X90527142Y-175450476D01*
X90431904Y-175402857D01*
X90241428Y-175355238D01*
X90003333Y-175355238D01*
X89812857Y-175402857D01*
X89717619Y-175450476D01*
X89670000Y-175498095D01*
X89622380Y-175593333D01*
X89622380Y-176260000D02*
X89622380Y-176879047D01*
X90003333Y-176545714D01*
X90003333Y-176688571D01*
X90050952Y-176783809D01*
X90098571Y-176831428D01*
X90193809Y-176879047D01*
X90431904Y-176879047D01*
X90527142Y-176831428D01*
X90574761Y-176783809D01*
X90622380Y-176688571D01*
X90622380Y-176402857D01*
X90574761Y-176307619D01*
X90527142Y-176260000D01*
X86288095Y-180487142D02*
X86335714Y-180534761D01*
X86478571Y-180582380D01*
X86573809Y-180582380D01*
X86716666Y-180534761D01*
X86811904Y-180439523D01*
X86859523Y-180344285D01*
X86907142Y-180153809D01*
X86907142Y-180010952D01*
X86859523Y-179820476D01*
X86811904Y-179725238D01*
X86716666Y-179630000D01*
X86573809Y-179582380D01*
X86478571Y-179582380D01*
X86335714Y-179630000D01*
X86288095Y-179677619D01*
X85716666Y-180582380D02*
X85811904Y-180534761D01*
X85859523Y-180487142D01*
X85907142Y-180391904D01*
X85907142Y-180106190D01*
X85859523Y-180010952D01*
X85811904Y-179963333D01*
X85716666Y-179915714D01*
X85573809Y-179915714D01*
X85478571Y-179963333D01*
X85430952Y-180010952D01*
X85383333Y-180106190D01*
X85383333Y-180391904D01*
X85430952Y-180487142D01*
X85478571Y-180534761D01*
X85573809Y-180582380D01*
X85716666Y-180582380D01*
X84954761Y-179915714D02*
X84954761Y-180582380D01*
X84954761Y-180010952D02*
X84907142Y-179963333D01*
X84811904Y-179915714D01*
X84669047Y-179915714D01*
X84573809Y-179963333D01*
X84526190Y-180058571D01*
X84526190Y-180582380D01*
X84050000Y-179915714D02*
X84050000Y-180582380D01*
X84050000Y-180010952D02*
X84002380Y-179963333D01*
X83907142Y-179915714D01*
X83764285Y-179915714D01*
X83669047Y-179963333D01*
X83621428Y-180058571D01*
X83621428Y-180582380D01*
X83383333Y-180677619D02*
X82621428Y-180677619D01*
X82192857Y-179582380D02*
X82097619Y-179582380D01*
X82002380Y-179630000D01*
X81954761Y-179677619D01*
X81907142Y-179772857D01*
X81859523Y-179963333D01*
X81859523Y-180201428D01*
X81907142Y-180391904D01*
X81954761Y-180487142D01*
X82002380Y-180534761D01*
X82097619Y-180582380D01*
X82192857Y-180582380D01*
X82288095Y-180534761D01*
X82335714Y-180487142D01*
X82383333Y-180391904D01*
X82430952Y-180201428D01*
X82430952Y-179963333D01*
X82383333Y-179772857D01*
X82335714Y-179677619D01*
X82288095Y-179630000D01*
X82192857Y-179582380D01*
X80907142Y-180582380D02*
X81478571Y-180582380D01*
X81192857Y-180582380D02*
X81192857Y-179582380D01*
X81288095Y-179725238D01*
X81383333Y-179820476D01*
X81478571Y-179868095D01*
X80573809Y-180582380D02*
X80050000Y-179915714D01*
X80573809Y-179915714D02*
X80050000Y-180582380D01*
X79478571Y-179582380D02*
X79383333Y-179582380D01*
X79288095Y-179630000D01*
X79240476Y-179677619D01*
X79192857Y-179772857D01*
X79145238Y-179963333D01*
X79145238Y-180201428D01*
X79192857Y-180391904D01*
X79240476Y-180487142D01*
X79288095Y-180534761D01*
X79383333Y-180582380D01*
X79478571Y-180582380D01*
X79573809Y-180534761D01*
X79621428Y-180487142D01*
X79669047Y-180391904D01*
X79716666Y-180201428D01*
X79716666Y-179963333D01*
X79669047Y-179772857D01*
X79621428Y-179677619D01*
X79573809Y-179630000D01*
X79478571Y-179582380D01*
X78192857Y-180582380D02*
X78764285Y-180582380D01*
X78478571Y-180582380D02*
X78478571Y-179582380D01*
X78573809Y-179725238D01*
X78669047Y-179820476D01*
X78764285Y-179868095D01*
X82002380Y-176514285D02*
X82716666Y-176514285D01*
X82859523Y-176466666D01*
X82954761Y-176371428D01*
X83002380Y-176228571D01*
X83002380Y-176133333D01*
X83002380Y-177514285D02*
X83002380Y-176942857D01*
X83002380Y-177228571D02*
X82002380Y-177228571D01*
X82145238Y-177133333D01*
X82240476Y-177038095D01*
X82288095Y-176942857D01*
X82097619Y-177895238D02*
X82050000Y-177942857D01*
X82002380Y-178038095D01*
X82002380Y-178276190D01*
X82050000Y-178371428D01*
X82097619Y-178419047D01*
X82192857Y-178466666D01*
X82288095Y-178466666D01*
X82430952Y-178419047D01*
X83002380Y-177847619D01*
X83002380Y-178466666D01*
X82002380Y-179085714D02*
X82002380Y-179180952D01*
X82050000Y-179276190D01*
X82097619Y-179323809D01*
X82192857Y-179371428D01*
X82383333Y-179419047D01*
X82621428Y-179419047D01*
X82811904Y-179371428D01*
X82907142Y-179323809D01*
X82954761Y-179276190D01*
X83002380Y-179180952D01*
X83002380Y-179085714D01*
X82954761Y-178990476D01*
X82907142Y-178942857D01*
X82811904Y-178895238D01*
X82621428Y-178847619D01*
X82383333Y-178847619D01*
X82192857Y-178895238D01*
X82097619Y-178942857D01*
X82050000Y-178990476D01*
X82002380Y-179085714D01*
X86288095Y-48407142D02*
X86335714Y-48454761D01*
X86478571Y-48502380D01*
X86573809Y-48502380D01*
X86716666Y-48454761D01*
X86811904Y-48359523D01*
X86859523Y-48264285D01*
X86907142Y-48073809D01*
X86907142Y-47930952D01*
X86859523Y-47740476D01*
X86811904Y-47645238D01*
X86716666Y-47550000D01*
X86573809Y-47502380D01*
X86478571Y-47502380D01*
X86335714Y-47550000D01*
X86288095Y-47597619D01*
X85716666Y-48502380D02*
X85811904Y-48454761D01*
X85859523Y-48407142D01*
X85907142Y-48311904D01*
X85907142Y-48026190D01*
X85859523Y-47930952D01*
X85811904Y-47883333D01*
X85716666Y-47835714D01*
X85573809Y-47835714D01*
X85478571Y-47883333D01*
X85430952Y-47930952D01*
X85383333Y-48026190D01*
X85383333Y-48311904D01*
X85430952Y-48407142D01*
X85478571Y-48454761D01*
X85573809Y-48502380D01*
X85716666Y-48502380D01*
X84954761Y-47835714D02*
X84954761Y-48502380D01*
X84954761Y-47930952D02*
X84907142Y-47883333D01*
X84811904Y-47835714D01*
X84669047Y-47835714D01*
X84573809Y-47883333D01*
X84526190Y-47978571D01*
X84526190Y-48502380D01*
X84050000Y-47835714D02*
X84050000Y-48502380D01*
X84050000Y-47930952D02*
X84002380Y-47883333D01*
X83907142Y-47835714D01*
X83764285Y-47835714D01*
X83669047Y-47883333D01*
X83621428Y-47978571D01*
X83621428Y-48502380D01*
X83383333Y-48597619D02*
X82621428Y-48597619D01*
X82192857Y-47502380D02*
X82097619Y-47502380D01*
X82002380Y-47550000D01*
X81954761Y-47597619D01*
X81907142Y-47692857D01*
X81859523Y-47883333D01*
X81859523Y-48121428D01*
X81907142Y-48311904D01*
X81954761Y-48407142D01*
X82002380Y-48454761D01*
X82097619Y-48502380D01*
X82192857Y-48502380D01*
X82288095Y-48454761D01*
X82335714Y-48407142D01*
X82383333Y-48311904D01*
X82430952Y-48121428D01*
X82430952Y-47883333D01*
X82383333Y-47692857D01*
X82335714Y-47597619D01*
X82288095Y-47550000D01*
X82192857Y-47502380D01*
X80907142Y-48502380D02*
X81478571Y-48502380D01*
X81192857Y-48502380D02*
X81192857Y-47502380D01*
X81288095Y-47645238D01*
X81383333Y-47740476D01*
X81478571Y-47788095D01*
X80573809Y-48502380D02*
X80050000Y-47835714D01*
X80573809Y-47835714D02*
X80050000Y-48502380D01*
X79478571Y-47502380D02*
X79383333Y-47502380D01*
X79288095Y-47550000D01*
X79240476Y-47597619D01*
X79192857Y-47692857D01*
X79145238Y-47883333D01*
X79145238Y-48121428D01*
X79192857Y-48311904D01*
X79240476Y-48407142D01*
X79288095Y-48454761D01*
X79383333Y-48502380D01*
X79478571Y-48502380D01*
X79573809Y-48454761D01*
X79621428Y-48407142D01*
X79669047Y-48311904D01*
X79716666Y-48121428D01*
X79716666Y-47883333D01*
X79669047Y-47692857D01*
X79621428Y-47597619D01*
X79573809Y-47550000D01*
X79478571Y-47502380D01*
X78192857Y-48502380D02*
X78764285Y-48502380D01*
X78478571Y-48502380D02*
X78478571Y-47502380D01*
X78573809Y-47645238D01*
X78669047Y-47740476D01*
X78764285Y-47788095D01*
X82002380Y-44434285D02*
X82716666Y-44434285D01*
X82859523Y-44386666D01*
X82954761Y-44291428D01*
X83002380Y-44148571D01*
X83002380Y-44053333D01*
X83002380Y-45434285D02*
X83002380Y-44862857D01*
X83002380Y-45148571D02*
X82002380Y-45148571D01*
X82145238Y-45053333D01*
X82240476Y-44958095D01*
X82288095Y-44862857D01*
X83002380Y-46386666D02*
X83002380Y-45815238D01*
X83002380Y-46100952D02*
X82002380Y-46100952D01*
X82145238Y-46005714D01*
X82240476Y-45910476D01*
X82288095Y-45815238D01*
X83002380Y-47339047D02*
X83002380Y-46767619D01*
X83002380Y-47053333D02*
X82002380Y-47053333D01*
X82145238Y-46958095D01*
X82240476Y-46862857D01*
X82288095Y-46767619D01*
X93908095Y-38247142D02*
X93955714Y-38294761D01*
X94098571Y-38342380D01*
X94193809Y-38342380D01*
X94336666Y-38294761D01*
X94431904Y-38199523D01*
X94479523Y-38104285D01*
X94527142Y-37913809D01*
X94527142Y-37770952D01*
X94479523Y-37580476D01*
X94431904Y-37485238D01*
X94336666Y-37390000D01*
X94193809Y-37342380D01*
X94098571Y-37342380D01*
X93955714Y-37390000D01*
X93908095Y-37437619D01*
X93336666Y-38342380D02*
X93431904Y-38294761D01*
X93479523Y-38247142D01*
X93527142Y-38151904D01*
X93527142Y-37866190D01*
X93479523Y-37770952D01*
X93431904Y-37723333D01*
X93336666Y-37675714D01*
X93193809Y-37675714D01*
X93098571Y-37723333D01*
X93050952Y-37770952D01*
X93003333Y-37866190D01*
X93003333Y-38151904D01*
X93050952Y-38247142D01*
X93098571Y-38294761D01*
X93193809Y-38342380D01*
X93336666Y-38342380D01*
X92574761Y-37675714D02*
X92574761Y-38342380D01*
X92574761Y-37770952D02*
X92527142Y-37723333D01*
X92431904Y-37675714D01*
X92289047Y-37675714D01*
X92193809Y-37723333D01*
X92146190Y-37818571D01*
X92146190Y-38342380D01*
X91670000Y-37675714D02*
X91670000Y-38342380D01*
X91670000Y-37770952D02*
X91622380Y-37723333D01*
X91527142Y-37675714D01*
X91384285Y-37675714D01*
X91289047Y-37723333D01*
X91241428Y-37818571D01*
X91241428Y-38342380D01*
X91003333Y-38437619D02*
X90241428Y-38437619D01*
X89812857Y-37342380D02*
X89717619Y-37342380D01*
X89622380Y-37390000D01*
X89574761Y-37437619D01*
X89527142Y-37532857D01*
X89479523Y-37723333D01*
X89479523Y-37961428D01*
X89527142Y-38151904D01*
X89574761Y-38247142D01*
X89622380Y-38294761D01*
X89717619Y-38342380D01*
X89812857Y-38342380D01*
X89908095Y-38294761D01*
X89955714Y-38247142D01*
X90003333Y-38151904D01*
X90050952Y-37961428D01*
X90050952Y-37723333D01*
X90003333Y-37532857D01*
X89955714Y-37437619D01*
X89908095Y-37390000D01*
X89812857Y-37342380D01*
X88527142Y-38342380D02*
X89098571Y-38342380D01*
X88812857Y-38342380D02*
X88812857Y-37342380D01*
X88908095Y-37485238D01*
X89003333Y-37580476D01*
X89098571Y-37628095D01*
X88193809Y-38342380D02*
X87670000Y-37675714D01*
X88193809Y-37675714D02*
X87670000Y-38342380D01*
X87098571Y-37342380D02*
X87003333Y-37342380D01*
X86908095Y-37390000D01*
X86860476Y-37437619D01*
X86812857Y-37532857D01*
X86765238Y-37723333D01*
X86765238Y-37961428D01*
X86812857Y-38151904D01*
X86860476Y-38247142D01*
X86908095Y-38294761D01*
X87003333Y-38342380D01*
X87098571Y-38342380D01*
X87193809Y-38294761D01*
X87241428Y-38247142D01*
X87289047Y-38151904D01*
X87336666Y-37961428D01*
X87336666Y-37723333D01*
X87289047Y-37532857D01*
X87241428Y-37437619D01*
X87193809Y-37390000D01*
X87098571Y-37342380D01*
X85812857Y-38342380D02*
X86384285Y-38342380D01*
X86098571Y-38342380D02*
X86098571Y-37342380D01*
X86193809Y-37485238D01*
X86289047Y-37580476D01*
X86384285Y-37628095D01*
X89622380Y-34274285D02*
X90336666Y-34274285D01*
X90479523Y-34226666D01*
X90574761Y-34131428D01*
X90622380Y-33988571D01*
X90622380Y-33893333D01*
X90622380Y-35274285D02*
X90622380Y-34702857D01*
X90622380Y-34988571D02*
X89622380Y-34988571D01*
X89765238Y-34893333D01*
X89860476Y-34798095D01*
X89908095Y-34702857D01*
X89622380Y-35607619D02*
X89622380Y-36226666D01*
X90003333Y-35893333D01*
X90003333Y-36036190D01*
X90050952Y-36131428D01*
X90098571Y-36179047D01*
X90193809Y-36226666D01*
X90431904Y-36226666D01*
X90527142Y-36179047D01*
X90574761Y-36131428D01*
X90622380Y-36036190D01*
X90622380Y-35750476D01*
X90574761Y-35655238D01*
X90527142Y-35607619D01*
X89717619Y-36607619D02*
X89670000Y-36655238D01*
X89622380Y-36750476D01*
X89622380Y-36988571D01*
X89670000Y-37083809D01*
X89717619Y-37131428D01*
X89812857Y-37179047D01*
X89908095Y-37179047D01*
X90050952Y-37131428D01*
X90622380Y-36560000D01*
X90622380Y-37179047D01*
X93908095Y-170327142D02*
X93955714Y-170374761D01*
X94098571Y-170422380D01*
X94193809Y-170422380D01*
X94336666Y-170374761D01*
X94431904Y-170279523D01*
X94479523Y-170184285D01*
X94527142Y-169993809D01*
X94527142Y-169850952D01*
X94479523Y-169660476D01*
X94431904Y-169565238D01*
X94336666Y-169470000D01*
X94193809Y-169422380D01*
X94098571Y-169422380D01*
X93955714Y-169470000D01*
X93908095Y-169517619D01*
X93336666Y-170422380D02*
X93431904Y-170374761D01*
X93479523Y-170327142D01*
X93527142Y-170231904D01*
X93527142Y-169946190D01*
X93479523Y-169850952D01*
X93431904Y-169803333D01*
X93336666Y-169755714D01*
X93193809Y-169755714D01*
X93098571Y-169803333D01*
X93050952Y-169850952D01*
X93003333Y-169946190D01*
X93003333Y-170231904D01*
X93050952Y-170327142D01*
X93098571Y-170374761D01*
X93193809Y-170422380D01*
X93336666Y-170422380D01*
X92574761Y-169755714D02*
X92574761Y-170422380D01*
X92574761Y-169850952D02*
X92527142Y-169803333D01*
X92431904Y-169755714D01*
X92289047Y-169755714D01*
X92193809Y-169803333D01*
X92146190Y-169898571D01*
X92146190Y-170422380D01*
X91670000Y-169755714D02*
X91670000Y-170422380D01*
X91670000Y-169850952D02*
X91622380Y-169803333D01*
X91527142Y-169755714D01*
X91384285Y-169755714D01*
X91289047Y-169803333D01*
X91241428Y-169898571D01*
X91241428Y-170422380D01*
X91003333Y-170517619D02*
X90241428Y-170517619D01*
X89812857Y-169422380D02*
X89717619Y-169422380D01*
X89622380Y-169470000D01*
X89574761Y-169517619D01*
X89527142Y-169612857D01*
X89479523Y-169803333D01*
X89479523Y-170041428D01*
X89527142Y-170231904D01*
X89574761Y-170327142D01*
X89622380Y-170374761D01*
X89717619Y-170422380D01*
X89812857Y-170422380D01*
X89908095Y-170374761D01*
X89955714Y-170327142D01*
X90003333Y-170231904D01*
X90050952Y-170041428D01*
X90050952Y-169803333D01*
X90003333Y-169612857D01*
X89955714Y-169517619D01*
X89908095Y-169470000D01*
X89812857Y-169422380D01*
X88527142Y-170422380D02*
X89098571Y-170422380D01*
X88812857Y-170422380D02*
X88812857Y-169422380D01*
X88908095Y-169565238D01*
X89003333Y-169660476D01*
X89098571Y-169708095D01*
X88193809Y-170422380D02*
X87670000Y-169755714D01*
X88193809Y-169755714D02*
X87670000Y-170422380D01*
X87098571Y-169422380D02*
X87003333Y-169422380D01*
X86908095Y-169470000D01*
X86860476Y-169517619D01*
X86812857Y-169612857D01*
X86765238Y-169803333D01*
X86765238Y-170041428D01*
X86812857Y-170231904D01*
X86860476Y-170327142D01*
X86908095Y-170374761D01*
X87003333Y-170422380D01*
X87098571Y-170422380D01*
X87193809Y-170374761D01*
X87241428Y-170327142D01*
X87289047Y-170231904D01*
X87336666Y-170041428D01*
X87336666Y-169803333D01*
X87289047Y-169612857D01*
X87241428Y-169517619D01*
X87193809Y-169470000D01*
X87098571Y-169422380D01*
X85812857Y-170422380D02*
X86384285Y-170422380D01*
X86098571Y-170422380D02*
X86098571Y-169422380D01*
X86193809Y-169565238D01*
X86289047Y-169660476D01*
X86384285Y-169708095D01*
X89622380Y-166354285D02*
X90336666Y-166354285D01*
X90479523Y-166306666D01*
X90574761Y-166211428D01*
X90622380Y-166068571D01*
X90622380Y-165973333D01*
X90622380Y-167354285D02*
X90622380Y-166782857D01*
X90622380Y-167068571D02*
X89622380Y-167068571D01*
X89765238Y-166973333D01*
X89860476Y-166878095D01*
X89908095Y-166782857D01*
X89717619Y-167735238D02*
X89670000Y-167782857D01*
X89622380Y-167878095D01*
X89622380Y-168116190D01*
X89670000Y-168211428D01*
X89717619Y-168259047D01*
X89812857Y-168306666D01*
X89908095Y-168306666D01*
X90050952Y-168259047D01*
X90622380Y-167687619D01*
X90622380Y-168306666D01*
X90622380Y-168782857D02*
X90622380Y-168973333D01*
X90574761Y-169068571D01*
X90527142Y-169116190D01*
X90384285Y-169211428D01*
X90193809Y-169259047D01*
X89812857Y-169259047D01*
X89717619Y-169211428D01*
X89670000Y-169163809D01*
X89622380Y-169068571D01*
X89622380Y-168878095D01*
X89670000Y-168782857D01*
X89717619Y-168735238D01*
X89812857Y-168687619D01*
X90050952Y-168687619D01*
X90146190Y-168735238D01*
X90193809Y-168782857D01*
X90241428Y-168878095D01*
X90241428Y-169068571D01*
X90193809Y-169163809D01*
X90146190Y-169211428D01*
X90050952Y-169259047D01*
X93908095Y-48407142D02*
X93955714Y-48454761D01*
X94098571Y-48502380D01*
X94193809Y-48502380D01*
X94336666Y-48454761D01*
X94431904Y-48359523D01*
X94479523Y-48264285D01*
X94527142Y-48073809D01*
X94527142Y-47930952D01*
X94479523Y-47740476D01*
X94431904Y-47645238D01*
X94336666Y-47550000D01*
X94193809Y-47502380D01*
X94098571Y-47502380D01*
X93955714Y-47550000D01*
X93908095Y-47597619D01*
X93336666Y-48502380D02*
X93431904Y-48454761D01*
X93479523Y-48407142D01*
X93527142Y-48311904D01*
X93527142Y-48026190D01*
X93479523Y-47930952D01*
X93431904Y-47883333D01*
X93336666Y-47835714D01*
X93193809Y-47835714D01*
X93098571Y-47883333D01*
X93050952Y-47930952D01*
X93003333Y-48026190D01*
X93003333Y-48311904D01*
X93050952Y-48407142D01*
X93098571Y-48454761D01*
X93193809Y-48502380D01*
X93336666Y-48502380D01*
X92574761Y-47835714D02*
X92574761Y-48502380D01*
X92574761Y-47930952D02*
X92527142Y-47883333D01*
X92431904Y-47835714D01*
X92289047Y-47835714D01*
X92193809Y-47883333D01*
X92146190Y-47978571D01*
X92146190Y-48502380D01*
X91670000Y-47835714D02*
X91670000Y-48502380D01*
X91670000Y-47930952D02*
X91622380Y-47883333D01*
X91527142Y-47835714D01*
X91384285Y-47835714D01*
X91289047Y-47883333D01*
X91241428Y-47978571D01*
X91241428Y-48502380D01*
X91003333Y-48597619D02*
X90241428Y-48597619D01*
X89812857Y-47502380D02*
X89717619Y-47502380D01*
X89622380Y-47550000D01*
X89574761Y-47597619D01*
X89527142Y-47692857D01*
X89479523Y-47883333D01*
X89479523Y-48121428D01*
X89527142Y-48311904D01*
X89574761Y-48407142D01*
X89622380Y-48454761D01*
X89717619Y-48502380D01*
X89812857Y-48502380D01*
X89908095Y-48454761D01*
X89955714Y-48407142D01*
X90003333Y-48311904D01*
X90050952Y-48121428D01*
X90050952Y-47883333D01*
X90003333Y-47692857D01*
X89955714Y-47597619D01*
X89908095Y-47550000D01*
X89812857Y-47502380D01*
X88527142Y-48502380D02*
X89098571Y-48502380D01*
X88812857Y-48502380D02*
X88812857Y-47502380D01*
X88908095Y-47645238D01*
X89003333Y-47740476D01*
X89098571Y-47788095D01*
X88193809Y-48502380D02*
X87670000Y-47835714D01*
X88193809Y-47835714D02*
X87670000Y-48502380D01*
X87098571Y-47502380D02*
X87003333Y-47502380D01*
X86908095Y-47550000D01*
X86860476Y-47597619D01*
X86812857Y-47692857D01*
X86765238Y-47883333D01*
X86765238Y-48121428D01*
X86812857Y-48311904D01*
X86860476Y-48407142D01*
X86908095Y-48454761D01*
X87003333Y-48502380D01*
X87098571Y-48502380D01*
X87193809Y-48454761D01*
X87241428Y-48407142D01*
X87289047Y-48311904D01*
X87336666Y-48121428D01*
X87336666Y-47883333D01*
X87289047Y-47692857D01*
X87241428Y-47597619D01*
X87193809Y-47550000D01*
X87098571Y-47502380D01*
X85812857Y-48502380D02*
X86384285Y-48502380D01*
X86098571Y-48502380D02*
X86098571Y-47502380D01*
X86193809Y-47645238D01*
X86289047Y-47740476D01*
X86384285Y-47788095D01*
X89622380Y-44434285D02*
X90336666Y-44434285D01*
X90479523Y-44386666D01*
X90574761Y-44291428D01*
X90622380Y-44148571D01*
X90622380Y-44053333D01*
X90622380Y-45434285D02*
X90622380Y-44862857D01*
X90622380Y-45148571D02*
X89622380Y-45148571D01*
X89765238Y-45053333D01*
X89860476Y-44958095D01*
X89908095Y-44862857D01*
X89717619Y-45815238D02*
X89670000Y-45862857D01*
X89622380Y-45958095D01*
X89622380Y-46196190D01*
X89670000Y-46291428D01*
X89717619Y-46339047D01*
X89812857Y-46386666D01*
X89908095Y-46386666D01*
X90050952Y-46339047D01*
X90622380Y-45767619D01*
X90622380Y-46386666D01*
X90622380Y-47339047D02*
X90622380Y-46767619D01*
X90622380Y-47053333D02*
X89622380Y-47053333D01*
X89765238Y-46958095D01*
X89860476Y-46862857D01*
X89908095Y-46767619D01*
X86288095Y-139847142D02*
X86335714Y-139894761D01*
X86478571Y-139942380D01*
X86573809Y-139942380D01*
X86716666Y-139894761D01*
X86811904Y-139799523D01*
X86859523Y-139704285D01*
X86907142Y-139513809D01*
X86907142Y-139370952D01*
X86859523Y-139180476D01*
X86811904Y-139085238D01*
X86716666Y-138990000D01*
X86573809Y-138942380D01*
X86478571Y-138942380D01*
X86335714Y-138990000D01*
X86288095Y-139037619D01*
X85716666Y-139942380D02*
X85811904Y-139894761D01*
X85859523Y-139847142D01*
X85907142Y-139751904D01*
X85907142Y-139466190D01*
X85859523Y-139370952D01*
X85811904Y-139323333D01*
X85716666Y-139275714D01*
X85573809Y-139275714D01*
X85478571Y-139323333D01*
X85430952Y-139370952D01*
X85383333Y-139466190D01*
X85383333Y-139751904D01*
X85430952Y-139847142D01*
X85478571Y-139894761D01*
X85573809Y-139942380D01*
X85716666Y-139942380D01*
X84954761Y-139275714D02*
X84954761Y-139942380D01*
X84954761Y-139370952D02*
X84907142Y-139323333D01*
X84811904Y-139275714D01*
X84669047Y-139275714D01*
X84573809Y-139323333D01*
X84526190Y-139418571D01*
X84526190Y-139942380D01*
X84050000Y-139275714D02*
X84050000Y-139942380D01*
X84050000Y-139370952D02*
X84002380Y-139323333D01*
X83907142Y-139275714D01*
X83764285Y-139275714D01*
X83669047Y-139323333D01*
X83621428Y-139418571D01*
X83621428Y-139942380D01*
X83383333Y-140037619D02*
X82621428Y-140037619D01*
X82192857Y-138942380D02*
X82097619Y-138942380D01*
X82002380Y-138990000D01*
X81954761Y-139037619D01*
X81907142Y-139132857D01*
X81859523Y-139323333D01*
X81859523Y-139561428D01*
X81907142Y-139751904D01*
X81954761Y-139847142D01*
X82002380Y-139894761D01*
X82097619Y-139942380D01*
X82192857Y-139942380D01*
X82288095Y-139894761D01*
X82335714Y-139847142D01*
X82383333Y-139751904D01*
X82430952Y-139561428D01*
X82430952Y-139323333D01*
X82383333Y-139132857D01*
X82335714Y-139037619D01*
X82288095Y-138990000D01*
X82192857Y-138942380D01*
X80907142Y-139942380D02*
X81478571Y-139942380D01*
X81192857Y-139942380D02*
X81192857Y-138942380D01*
X81288095Y-139085238D01*
X81383333Y-139180476D01*
X81478571Y-139228095D01*
X80573809Y-139942380D02*
X80050000Y-139275714D01*
X80573809Y-139275714D02*
X80050000Y-139942380D01*
X79478571Y-138942380D02*
X79383333Y-138942380D01*
X79288095Y-138990000D01*
X79240476Y-139037619D01*
X79192857Y-139132857D01*
X79145238Y-139323333D01*
X79145238Y-139561428D01*
X79192857Y-139751904D01*
X79240476Y-139847142D01*
X79288095Y-139894761D01*
X79383333Y-139942380D01*
X79478571Y-139942380D01*
X79573809Y-139894761D01*
X79621428Y-139847142D01*
X79669047Y-139751904D01*
X79716666Y-139561428D01*
X79716666Y-139323333D01*
X79669047Y-139132857D01*
X79621428Y-139037619D01*
X79573809Y-138990000D01*
X79478571Y-138942380D01*
X78192857Y-139942380D02*
X78764285Y-139942380D01*
X78478571Y-139942380D02*
X78478571Y-138942380D01*
X78573809Y-139085238D01*
X78669047Y-139180476D01*
X78764285Y-139228095D01*
X82002380Y-135874285D02*
X82716666Y-135874285D01*
X82859523Y-135826666D01*
X82954761Y-135731428D01*
X83002380Y-135588571D01*
X83002380Y-135493333D01*
X83002380Y-136874285D02*
X83002380Y-136302857D01*
X83002380Y-136588571D02*
X82002380Y-136588571D01*
X82145238Y-136493333D01*
X82240476Y-136398095D01*
X82288095Y-136302857D01*
X83002380Y-137826666D02*
X83002380Y-137255238D01*
X83002380Y-137540952D02*
X82002380Y-137540952D01*
X82145238Y-137445714D01*
X82240476Y-137350476D01*
X82288095Y-137255238D01*
X82002380Y-138160000D02*
X82002380Y-138826666D01*
X83002380Y-138398095D01*
X86288095Y-33167142D02*
X86335714Y-33214761D01*
X86478571Y-33262380D01*
X86573809Y-33262380D01*
X86716666Y-33214761D01*
X86811904Y-33119523D01*
X86859523Y-33024285D01*
X86907142Y-32833809D01*
X86907142Y-32690952D01*
X86859523Y-32500476D01*
X86811904Y-32405238D01*
X86716666Y-32310000D01*
X86573809Y-32262380D01*
X86478571Y-32262380D01*
X86335714Y-32310000D01*
X86288095Y-32357619D01*
X85716666Y-33262380D02*
X85811904Y-33214761D01*
X85859523Y-33167142D01*
X85907142Y-33071904D01*
X85907142Y-32786190D01*
X85859523Y-32690952D01*
X85811904Y-32643333D01*
X85716666Y-32595714D01*
X85573809Y-32595714D01*
X85478571Y-32643333D01*
X85430952Y-32690952D01*
X85383333Y-32786190D01*
X85383333Y-33071904D01*
X85430952Y-33167142D01*
X85478571Y-33214761D01*
X85573809Y-33262380D01*
X85716666Y-33262380D01*
X84954761Y-32595714D02*
X84954761Y-33262380D01*
X84954761Y-32690952D02*
X84907142Y-32643333D01*
X84811904Y-32595714D01*
X84669047Y-32595714D01*
X84573809Y-32643333D01*
X84526190Y-32738571D01*
X84526190Y-33262380D01*
X84050000Y-32595714D02*
X84050000Y-33262380D01*
X84050000Y-32690952D02*
X84002380Y-32643333D01*
X83907142Y-32595714D01*
X83764285Y-32595714D01*
X83669047Y-32643333D01*
X83621428Y-32738571D01*
X83621428Y-33262380D01*
X83383333Y-33357619D02*
X82621428Y-33357619D01*
X82192857Y-32262380D02*
X82097619Y-32262380D01*
X82002380Y-32310000D01*
X81954761Y-32357619D01*
X81907142Y-32452857D01*
X81859523Y-32643333D01*
X81859523Y-32881428D01*
X81907142Y-33071904D01*
X81954761Y-33167142D01*
X82002380Y-33214761D01*
X82097619Y-33262380D01*
X82192857Y-33262380D01*
X82288095Y-33214761D01*
X82335714Y-33167142D01*
X82383333Y-33071904D01*
X82430952Y-32881428D01*
X82430952Y-32643333D01*
X82383333Y-32452857D01*
X82335714Y-32357619D01*
X82288095Y-32310000D01*
X82192857Y-32262380D01*
X80907142Y-33262380D02*
X81478571Y-33262380D01*
X81192857Y-33262380D02*
X81192857Y-32262380D01*
X81288095Y-32405238D01*
X81383333Y-32500476D01*
X81478571Y-32548095D01*
X80573809Y-33262380D02*
X80050000Y-32595714D01*
X80573809Y-32595714D02*
X80050000Y-33262380D01*
X79478571Y-32262380D02*
X79383333Y-32262380D01*
X79288095Y-32310000D01*
X79240476Y-32357619D01*
X79192857Y-32452857D01*
X79145238Y-32643333D01*
X79145238Y-32881428D01*
X79192857Y-33071904D01*
X79240476Y-33167142D01*
X79288095Y-33214761D01*
X79383333Y-33262380D01*
X79478571Y-33262380D01*
X79573809Y-33214761D01*
X79621428Y-33167142D01*
X79669047Y-33071904D01*
X79716666Y-32881428D01*
X79716666Y-32643333D01*
X79669047Y-32452857D01*
X79621428Y-32357619D01*
X79573809Y-32310000D01*
X79478571Y-32262380D01*
X78192857Y-33262380D02*
X78764285Y-33262380D01*
X78478571Y-33262380D02*
X78478571Y-32262380D01*
X78573809Y-32405238D01*
X78669047Y-32500476D01*
X78764285Y-32548095D01*
X82002380Y-29194285D02*
X82716666Y-29194285D01*
X82859523Y-29146666D01*
X82954761Y-29051428D01*
X83002380Y-28908571D01*
X83002380Y-28813333D01*
X83002380Y-30194285D02*
X83002380Y-29622857D01*
X83002380Y-29908571D02*
X82002380Y-29908571D01*
X82145238Y-29813333D01*
X82240476Y-29718095D01*
X82288095Y-29622857D01*
X82002380Y-30813333D02*
X82002380Y-30908571D01*
X82050000Y-31003809D01*
X82097619Y-31051428D01*
X82192857Y-31099047D01*
X82383333Y-31146666D01*
X82621428Y-31146666D01*
X82811904Y-31099047D01*
X82907142Y-31051428D01*
X82954761Y-31003809D01*
X83002380Y-30908571D01*
X83002380Y-30813333D01*
X82954761Y-30718095D01*
X82907142Y-30670476D01*
X82811904Y-30622857D01*
X82621428Y-30575238D01*
X82383333Y-30575238D01*
X82192857Y-30622857D01*
X82097619Y-30670476D01*
X82050000Y-30718095D01*
X82002380Y-30813333D01*
X82002380Y-31480000D02*
X82002380Y-32146666D01*
X83002380Y-31718095D01*
X86288095Y-170327142D02*
X86335714Y-170374761D01*
X86478571Y-170422380D01*
X86573809Y-170422380D01*
X86716666Y-170374761D01*
X86811904Y-170279523D01*
X86859523Y-170184285D01*
X86907142Y-169993809D01*
X86907142Y-169850952D01*
X86859523Y-169660476D01*
X86811904Y-169565238D01*
X86716666Y-169470000D01*
X86573809Y-169422380D01*
X86478571Y-169422380D01*
X86335714Y-169470000D01*
X86288095Y-169517619D01*
X85716666Y-170422380D02*
X85811904Y-170374761D01*
X85859523Y-170327142D01*
X85907142Y-170231904D01*
X85907142Y-169946190D01*
X85859523Y-169850952D01*
X85811904Y-169803333D01*
X85716666Y-169755714D01*
X85573809Y-169755714D01*
X85478571Y-169803333D01*
X85430952Y-169850952D01*
X85383333Y-169946190D01*
X85383333Y-170231904D01*
X85430952Y-170327142D01*
X85478571Y-170374761D01*
X85573809Y-170422380D01*
X85716666Y-170422380D01*
X84954761Y-169755714D02*
X84954761Y-170422380D01*
X84954761Y-169850952D02*
X84907142Y-169803333D01*
X84811904Y-169755714D01*
X84669047Y-169755714D01*
X84573809Y-169803333D01*
X84526190Y-169898571D01*
X84526190Y-170422380D01*
X84050000Y-169755714D02*
X84050000Y-170422380D01*
X84050000Y-169850952D02*
X84002380Y-169803333D01*
X83907142Y-169755714D01*
X83764285Y-169755714D01*
X83669047Y-169803333D01*
X83621428Y-169898571D01*
X83621428Y-170422380D01*
X83383333Y-170517619D02*
X82621428Y-170517619D01*
X82192857Y-169422380D02*
X82097619Y-169422380D01*
X82002380Y-169470000D01*
X81954761Y-169517619D01*
X81907142Y-169612857D01*
X81859523Y-169803333D01*
X81859523Y-170041428D01*
X81907142Y-170231904D01*
X81954761Y-170327142D01*
X82002380Y-170374761D01*
X82097619Y-170422380D01*
X82192857Y-170422380D01*
X82288095Y-170374761D01*
X82335714Y-170327142D01*
X82383333Y-170231904D01*
X82430952Y-170041428D01*
X82430952Y-169803333D01*
X82383333Y-169612857D01*
X82335714Y-169517619D01*
X82288095Y-169470000D01*
X82192857Y-169422380D01*
X80907142Y-170422380D02*
X81478571Y-170422380D01*
X81192857Y-170422380D02*
X81192857Y-169422380D01*
X81288095Y-169565238D01*
X81383333Y-169660476D01*
X81478571Y-169708095D01*
X80573809Y-170422380D02*
X80050000Y-169755714D01*
X80573809Y-169755714D02*
X80050000Y-170422380D01*
X79478571Y-169422380D02*
X79383333Y-169422380D01*
X79288095Y-169470000D01*
X79240476Y-169517619D01*
X79192857Y-169612857D01*
X79145238Y-169803333D01*
X79145238Y-170041428D01*
X79192857Y-170231904D01*
X79240476Y-170327142D01*
X79288095Y-170374761D01*
X79383333Y-170422380D01*
X79478571Y-170422380D01*
X79573809Y-170374761D01*
X79621428Y-170327142D01*
X79669047Y-170231904D01*
X79716666Y-170041428D01*
X79716666Y-169803333D01*
X79669047Y-169612857D01*
X79621428Y-169517619D01*
X79573809Y-169470000D01*
X79478571Y-169422380D01*
X78192857Y-170422380D02*
X78764285Y-170422380D01*
X78478571Y-170422380D02*
X78478571Y-169422380D01*
X78573809Y-169565238D01*
X78669047Y-169660476D01*
X78764285Y-169708095D01*
X82002380Y-166354285D02*
X82716666Y-166354285D01*
X82859523Y-166306666D01*
X82954761Y-166211428D01*
X83002380Y-166068571D01*
X83002380Y-165973333D01*
X83002380Y-167354285D02*
X83002380Y-166782857D01*
X83002380Y-167068571D02*
X82002380Y-167068571D01*
X82145238Y-166973333D01*
X82240476Y-166878095D01*
X82288095Y-166782857D01*
X83002380Y-168306666D02*
X83002380Y-167735238D01*
X83002380Y-168020952D02*
X82002380Y-168020952D01*
X82145238Y-167925714D01*
X82240476Y-167830476D01*
X82288095Y-167735238D01*
X83002380Y-168782857D02*
X83002380Y-168973333D01*
X82954761Y-169068571D01*
X82907142Y-169116190D01*
X82764285Y-169211428D01*
X82573809Y-169259047D01*
X82192857Y-169259047D01*
X82097619Y-169211428D01*
X82050000Y-169163809D01*
X82002380Y-169068571D01*
X82002380Y-168878095D01*
X82050000Y-168782857D01*
X82097619Y-168735238D01*
X82192857Y-168687619D01*
X82430952Y-168687619D01*
X82526190Y-168735238D01*
X82573809Y-168782857D01*
X82621428Y-168878095D01*
X82621428Y-169068571D01*
X82573809Y-169163809D01*
X82526190Y-169211428D01*
X82430952Y-169259047D01*
X86288095Y-38247142D02*
X86335714Y-38294761D01*
X86478571Y-38342380D01*
X86573809Y-38342380D01*
X86716666Y-38294761D01*
X86811904Y-38199523D01*
X86859523Y-38104285D01*
X86907142Y-37913809D01*
X86907142Y-37770952D01*
X86859523Y-37580476D01*
X86811904Y-37485238D01*
X86716666Y-37390000D01*
X86573809Y-37342380D01*
X86478571Y-37342380D01*
X86335714Y-37390000D01*
X86288095Y-37437619D01*
X85716666Y-38342380D02*
X85811904Y-38294761D01*
X85859523Y-38247142D01*
X85907142Y-38151904D01*
X85907142Y-37866190D01*
X85859523Y-37770952D01*
X85811904Y-37723333D01*
X85716666Y-37675714D01*
X85573809Y-37675714D01*
X85478571Y-37723333D01*
X85430952Y-37770952D01*
X85383333Y-37866190D01*
X85383333Y-38151904D01*
X85430952Y-38247142D01*
X85478571Y-38294761D01*
X85573809Y-38342380D01*
X85716666Y-38342380D01*
X84954761Y-37675714D02*
X84954761Y-38342380D01*
X84954761Y-37770952D02*
X84907142Y-37723333D01*
X84811904Y-37675714D01*
X84669047Y-37675714D01*
X84573809Y-37723333D01*
X84526190Y-37818571D01*
X84526190Y-38342380D01*
X84050000Y-37675714D02*
X84050000Y-38342380D01*
X84050000Y-37770952D02*
X84002380Y-37723333D01*
X83907142Y-37675714D01*
X83764285Y-37675714D01*
X83669047Y-37723333D01*
X83621428Y-37818571D01*
X83621428Y-38342380D01*
X83383333Y-38437619D02*
X82621428Y-38437619D01*
X82192857Y-37342380D02*
X82097619Y-37342380D01*
X82002380Y-37390000D01*
X81954761Y-37437619D01*
X81907142Y-37532857D01*
X81859523Y-37723333D01*
X81859523Y-37961428D01*
X81907142Y-38151904D01*
X81954761Y-38247142D01*
X82002380Y-38294761D01*
X82097619Y-38342380D01*
X82192857Y-38342380D01*
X82288095Y-38294761D01*
X82335714Y-38247142D01*
X82383333Y-38151904D01*
X82430952Y-37961428D01*
X82430952Y-37723333D01*
X82383333Y-37532857D01*
X82335714Y-37437619D01*
X82288095Y-37390000D01*
X82192857Y-37342380D01*
X80907142Y-38342380D02*
X81478571Y-38342380D01*
X81192857Y-38342380D02*
X81192857Y-37342380D01*
X81288095Y-37485238D01*
X81383333Y-37580476D01*
X81478571Y-37628095D01*
X80573809Y-38342380D02*
X80050000Y-37675714D01*
X80573809Y-37675714D02*
X80050000Y-38342380D01*
X79478571Y-37342380D02*
X79383333Y-37342380D01*
X79288095Y-37390000D01*
X79240476Y-37437619D01*
X79192857Y-37532857D01*
X79145238Y-37723333D01*
X79145238Y-37961428D01*
X79192857Y-38151904D01*
X79240476Y-38247142D01*
X79288095Y-38294761D01*
X79383333Y-38342380D01*
X79478571Y-38342380D01*
X79573809Y-38294761D01*
X79621428Y-38247142D01*
X79669047Y-38151904D01*
X79716666Y-37961428D01*
X79716666Y-37723333D01*
X79669047Y-37532857D01*
X79621428Y-37437619D01*
X79573809Y-37390000D01*
X79478571Y-37342380D01*
X78192857Y-38342380D02*
X78764285Y-38342380D01*
X78478571Y-38342380D02*
X78478571Y-37342380D01*
X78573809Y-37485238D01*
X78669047Y-37580476D01*
X78764285Y-37628095D01*
X82002380Y-34274285D02*
X82716666Y-34274285D01*
X82859523Y-34226666D01*
X82954761Y-34131428D01*
X83002380Y-33988571D01*
X83002380Y-33893333D01*
X83002380Y-35274285D02*
X83002380Y-34702857D01*
X83002380Y-34988571D02*
X82002380Y-34988571D01*
X82145238Y-34893333D01*
X82240476Y-34798095D01*
X82288095Y-34702857D01*
X82002380Y-35607619D02*
X82002380Y-36226666D01*
X82383333Y-35893333D01*
X82383333Y-36036190D01*
X82430952Y-36131428D01*
X82478571Y-36179047D01*
X82573809Y-36226666D01*
X82811904Y-36226666D01*
X82907142Y-36179047D01*
X82954761Y-36131428D01*
X83002380Y-36036190D01*
X83002380Y-35750476D01*
X82954761Y-35655238D01*
X82907142Y-35607619D01*
X83002380Y-37179047D02*
X83002380Y-36607619D01*
X83002380Y-36893333D02*
X82002380Y-36893333D01*
X82145238Y-36798095D01*
X82240476Y-36702857D01*
X82288095Y-36607619D01*
X93908095Y-35707142D02*
X93955714Y-35754761D01*
X94098571Y-35802380D01*
X94193809Y-35802380D01*
X94336666Y-35754761D01*
X94431904Y-35659523D01*
X94479523Y-35564285D01*
X94527142Y-35373809D01*
X94527142Y-35230952D01*
X94479523Y-35040476D01*
X94431904Y-34945238D01*
X94336666Y-34850000D01*
X94193809Y-34802380D01*
X94098571Y-34802380D01*
X93955714Y-34850000D01*
X93908095Y-34897619D01*
X93336666Y-35802380D02*
X93431904Y-35754761D01*
X93479523Y-35707142D01*
X93527142Y-35611904D01*
X93527142Y-35326190D01*
X93479523Y-35230952D01*
X93431904Y-35183333D01*
X93336666Y-35135714D01*
X93193809Y-35135714D01*
X93098571Y-35183333D01*
X93050952Y-35230952D01*
X93003333Y-35326190D01*
X93003333Y-35611904D01*
X93050952Y-35707142D01*
X93098571Y-35754761D01*
X93193809Y-35802380D01*
X93336666Y-35802380D01*
X92574761Y-35135714D02*
X92574761Y-35802380D01*
X92574761Y-35230952D02*
X92527142Y-35183333D01*
X92431904Y-35135714D01*
X92289047Y-35135714D01*
X92193809Y-35183333D01*
X92146190Y-35278571D01*
X92146190Y-35802380D01*
X91670000Y-35135714D02*
X91670000Y-35802380D01*
X91670000Y-35230952D02*
X91622380Y-35183333D01*
X91527142Y-35135714D01*
X91384285Y-35135714D01*
X91289047Y-35183333D01*
X91241428Y-35278571D01*
X91241428Y-35802380D01*
X91003333Y-35897619D02*
X90241428Y-35897619D01*
X89812857Y-34802380D02*
X89717619Y-34802380D01*
X89622380Y-34850000D01*
X89574761Y-34897619D01*
X89527142Y-34992857D01*
X89479523Y-35183333D01*
X89479523Y-35421428D01*
X89527142Y-35611904D01*
X89574761Y-35707142D01*
X89622380Y-35754761D01*
X89717619Y-35802380D01*
X89812857Y-35802380D01*
X89908095Y-35754761D01*
X89955714Y-35707142D01*
X90003333Y-35611904D01*
X90050952Y-35421428D01*
X90050952Y-35183333D01*
X90003333Y-34992857D01*
X89955714Y-34897619D01*
X89908095Y-34850000D01*
X89812857Y-34802380D01*
X88527142Y-35802380D02*
X89098571Y-35802380D01*
X88812857Y-35802380D02*
X88812857Y-34802380D01*
X88908095Y-34945238D01*
X89003333Y-35040476D01*
X89098571Y-35088095D01*
X88193809Y-35802380D02*
X87670000Y-35135714D01*
X88193809Y-35135714D02*
X87670000Y-35802380D01*
X87098571Y-34802380D02*
X87003333Y-34802380D01*
X86908095Y-34850000D01*
X86860476Y-34897619D01*
X86812857Y-34992857D01*
X86765238Y-35183333D01*
X86765238Y-35421428D01*
X86812857Y-35611904D01*
X86860476Y-35707142D01*
X86908095Y-35754761D01*
X87003333Y-35802380D01*
X87098571Y-35802380D01*
X87193809Y-35754761D01*
X87241428Y-35707142D01*
X87289047Y-35611904D01*
X87336666Y-35421428D01*
X87336666Y-35183333D01*
X87289047Y-34992857D01*
X87241428Y-34897619D01*
X87193809Y-34850000D01*
X87098571Y-34802380D01*
X85812857Y-35802380D02*
X86384285Y-35802380D01*
X86098571Y-35802380D02*
X86098571Y-34802380D01*
X86193809Y-34945238D01*
X86289047Y-35040476D01*
X86384285Y-35088095D01*
X89622380Y-31734285D02*
X90336666Y-31734285D01*
X90479523Y-31686666D01*
X90574761Y-31591428D01*
X90622380Y-31448571D01*
X90622380Y-31353333D01*
X90622380Y-32734285D02*
X90622380Y-32162857D01*
X90622380Y-32448571D02*
X89622380Y-32448571D01*
X89765238Y-32353333D01*
X89860476Y-32258095D01*
X89908095Y-32162857D01*
X89622380Y-33353333D02*
X89622380Y-33448571D01*
X89670000Y-33543809D01*
X89717619Y-33591428D01*
X89812857Y-33639047D01*
X90003333Y-33686666D01*
X90241428Y-33686666D01*
X90431904Y-33639047D01*
X90527142Y-33591428D01*
X90574761Y-33543809D01*
X90622380Y-33448571D01*
X90622380Y-33353333D01*
X90574761Y-33258095D01*
X90527142Y-33210476D01*
X90431904Y-33162857D01*
X90241428Y-33115238D01*
X90003333Y-33115238D01*
X89812857Y-33162857D01*
X89717619Y-33210476D01*
X89670000Y-33258095D01*
X89622380Y-33353333D01*
X90622380Y-34639047D02*
X90622380Y-34067619D01*
X90622380Y-34353333D02*
X89622380Y-34353333D01*
X89765238Y-34258095D01*
X89860476Y-34162857D01*
X89908095Y-34067619D01*
X86288095Y-94127142D02*
X86335714Y-94174761D01*
X86478571Y-94222380D01*
X86573809Y-94222380D01*
X86716666Y-94174761D01*
X86811904Y-94079523D01*
X86859523Y-93984285D01*
X86907142Y-93793809D01*
X86907142Y-93650952D01*
X86859523Y-93460476D01*
X86811904Y-93365238D01*
X86716666Y-93270000D01*
X86573809Y-93222380D01*
X86478571Y-93222380D01*
X86335714Y-93270000D01*
X86288095Y-93317619D01*
X85716666Y-94222380D02*
X85811904Y-94174761D01*
X85859523Y-94127142D01*
X85907142Y-94031904D01*
X85907142Y-93746190D01*
X85859523Y-93650952D01*
X85811904Y-93603333D01*
X85716666Y-93555714D01*
X85573809Y-93555714D01*
X85478571Y-93603333D01*
X85430952Y-93650952D01*
X85383333Y-93746190D01*
X85383333Y-94031904D01*
X85430952Y-94127142D01*
X85478571Y-94174761D01*
X85573809Y-94222380D01*
X85716666Y-94222380D01*
X84954761Y-93555714D02*
X84954761Y-94222380D01*
X84954761Y-93650952D02*
X84907142Y-93603333D01*
X84811904Y-93555714D01*
X84669047Y-93555714D01*
X84573809Y-93603333D01*
X84526190Y-93698571D01*
X84526190Y-94222380D01*
X84050000Y-93555714D02*
X84050000Y-94222380D01*
X84050000Y-93650952D02*
X84002380Y-93603333D01*
X83907142Y-93555714D01*
X83764285Y-93555714D01*
X83669047Y-93603333D01*
X83621428Y-93698571D01*
X83621428Y-94222380D01*
X83383333Y-94317619D02*
X82621428Y-94317619D01*
X82192857Y-93222380D02*
X82097619Y-93222380D01*
X82002380Y-93270000D01*
X81954761Y-93317619D01*
X81907142Y-93412857D01*
X81859523Y-93603333D01*
X81859523Y-93841428D01*
X81907142Y-94031904D01*
X81954761Y-94127142D01*
X82002380Y-94174761D01*
X82097619Y-94222380D01*
X82192857Y-94222380D01*
X82288095Y-94174761D01*
X82335714Y-94127142D01*
X82383333Y-94031904D01*
X82430952Y-93841428D01*
X82430952Y-93603333D01*
X82383333Y-93412857D01*
X82335714Y-93317619D01*
X82288095Y-93270000D01*
X82192857Y-93222380D01*
X80907142Y-94222380D02*
X81478571Y-94222380D01*
X81192857Y-94222380D02*
X81192857Y-93222380D01*
X81288095Y-93365238D01*
X81383333Y-93460476D01*
X81478571Y-93508095D01*
X80573809Y-94222380D02*
X80050000Y-93555714D01*
X80573809Y-93555714D02*
X80050000Y-94222380D01*
X79478571Y-93222380D02*
X79383333Y-93222380D01*
X79288095Y-93270000D01*
X79240476Y-93317619D01*
X79192857Y-93412857D01*
X79145238Y-93603333D01*
X79145238Y-93841428D01*
X79192857Y-94031904D01*
X79240476Y-94127142D01*
X79288095Y-94174761D01*
X79383333Y-94222380D01*
X79478571Y-94222380D01*
X79573809Y-94174761D01*
X79621428Y-94127142D01*
X79669047Y-94031904D01*
X79716666Y-93841428D01*
X79716666Y-93603333D01*
X79669047Y-93412857D01*
X79621428Y-93317619D01*
X79573809Y-93270000D01*
X79478571Y-93222380D01*
X78192857Y-94222380D02*
X78764285Y-94222380D01*
X78478571Y-94222380D02*
X78478571Y-93222380D01*
X78573809Y-93365238D01*
X78669047Y-93460476D01*
X78764285Y-93508095D01*
X82002380Y-90154285D02*
X82716666Y-90154285D01*
X82859523Y-90106666D01*
X82954761Y-90011428D01*
X83002380Y-89868571D01*
X83002380Y-89773333D01*
X83002380Y-91154285D02*
X83002380Y-90582857D01*
X83002380Y-90868571D02*
X82002380Y-90868571D01*
X82145238Y-90773333D01*
X82240476Y-90678095D01*
X82288095Y-90582857D01*
X83002380Y-92106666D02*
X83002380Y-91535238D01*
X83002380Y-91820952D02*
X82002380Y-91820952D01*
X82145238Y-91725714D01*
X82240476Y-91630476D01*
X82288095Y-91535238D01*
X82335714Y-92963809D02*
X83002380Y-92963809D01*
X81954761Y-92725714D02*
X82669047Y-92487619D01*
X82669047Y-93106666D01*
X93908095Y-63647142D02*
X93955714Y-63694761D01*
X94098571Y-63742380D01*
X94193809Y-63742380D01*
X94336666Y-63694761D01*
X94431904Y-63599523D01*
X94479523Y-63504285D01*
X94527142Y-63313809D01*
X94527142Y-63170952D01*
X94479523Y-62980476D01*
X94431904Y-62885238D01*
X94336666Y-62790000D01*
X94193809Y-62742380D01*
X94098571Y-62742380D01*
X93955714Y-62790000D01*
X93908095Y-62837619D01*
X93336666Y-63742380D02*
X93431904Y-63694761D01*
X93479523Y-63647142D01*
X93527142Y-63551904D01*
X93527142Y-63266190D01*
X93479523Y-63170952D01*
X93431904Y-63123333D01*
X93336666Y-63075714D01*
X93193809Y-63075714D01*
X93098571Y-63123333D01*
X93050952Y-63170952D01*
X93003333Y-63266190D01*
X93003333Y-63551904D01*
X93050952Y-63647142D01*
X93098571Y-63694761D01*
X93193809Y-63742380D01*
X93336666Y-63742380D01*
X92574761Y-63075714D02*
X92574761Y-63742380D01*
X92574761Y-63170952D02*
X92527142Y-63123333D01*
X92431904Y-63075714D01*
X92289047Y-63075714D01*
X92193809Y-63123333D01*
X92146190Y-63218571D01*
X92146190Y-63742380D01*
X91670000Y-63075714D02*
X91670000Y-63742380D01*
X91670000Y-63170952D02*
X91622380Y-63123333D01*
X91527142Y-63075714D01*
X91384285Y-63075714D01*
X91289047Y-63123333D01*
X91241428Y-63218571D01*
X91241428Y-63742380D01*
X91003333Y-63837619D02*
X90241428Y-63837619D01*
X89812857Y-62742380D02*
X89717619Y-62742380D01*
X89622380Y-62790000D01*
X89574761Y-62837619D01*
X89527142Y-62932857D01*
X89479523Y-63123333D01*
X89479523Y-63361428D01*
X89527142Y-63551904D01*
X89574761Y-63647142D01*
X89622380Y-63694761D01*
X89717619Y-63742380D01*
X89812857Y-63742380D01*
X89908095Y-63694761D01*
X89955714Y-63647142D01*
X90003333Y-63551904D01*
X90050952Y-63361428D01*
X90050952Y-63123333D01*
X90003333Y-62932857D01*
X89955714Y-62837619D01*
X89908095Y-62790000D01*
X89812857Y-62742380D01*
X88527142Y-63742380D02*
X89098571Y-63742380D01*
X88812857Y-63742380D02*
X88812857Y-62742380D01*
X88908095Y-62885238D01*
X89003333Y-62980476D01*
X89098571Y-63028095D01*
X88193809Y-63742380D02*
X87670000Y-63075714D01*
X88193809Y-63075714D02*
X87670000Y-63742380D01*
X87098571Y-62742380D02*
X87003333Y-62742380D01*
X86908095Y-62790000D01*
X86860476Y-62837619D01*
X86812857Y-62932857D01*
X86765238Y-63123333D01*
X86765238Y-63361428D01*
X86812857Y-63551904D01*
X86860476Y-63647142D01*
X86908095Y-63694761D01*
X87003333Y-63742380D01*
X87098571Y-63742380D01*
X87193809Y-63694761D01*
X87241428Y-63647142D01*
X87289047Y-63551904D01*
X87336666Y-63361428D01*
X87336666Y-63123333D01*
X87289047Y-62932857D01*
X87241428Y-62837619D01*
X87193809Y-62790000D01*
X87098571Y-62742380D01*
X85812857Y-63742380D02*
X86384285Y-63742380D01*
X86098571Y-63742380D02*
X86098571Y-62742380D01*
X86193809Y-62885238D01*
X86289047Y-62980476D01*
X86384285Y-63028095D01*
X89622380Y-59674285D02*
X90336666Y-59674285D01*
X90479523Y-59626666D01*
X90574761Y-59531428D01*
X90622380Y-59388571D01*
X90622380Y-59293333D01*
X90622380Y-60674285D02*
X90622380Y-60102857D01*
X90622380Y-60388571D02*
X89622380Y-60388571D01*
X89765238Y-60293333D01*
X89860476Y-60198095D01*
X89908095Y-60102857D01*
X89717619Y-61055238D02*
X89670000Y-61102857D01*
X89622380Y-61198095D01*
X89622380Y-61436190D01*
X89670000Y-61531428D01*
X89717619Y-61579047D01*
X89812857Y-61626666D01*
X89908095Y-61626666D01*
X90050952Y-61579047D01*
X90622380Y-61007619D01*
X90622380Y-61626666D01*
X89717619Y-62007619D02*
X89670000Y-62055238D01*
X89622380Y-62150476D01*
X89622380Y-62388571D01*
X89670000Y-62483809D01*
X89717619Y-62531428D01*
X89812857Y-62579047D01*
X89908095Y-62579047D01*
X90050952Y-62531428D01*
X90622380Y-61960000D01*
X90622380Y-62579047D01*
X86288095Y-63647142D02*
X86335714Y-63694761D01*
X86478571Y-63742380D01*
X86573809Y-63742380D01*
X86716666Y-63694761D01*
X86811904Y-63599523D01*
X86859523Y-63504285D01*
X86907142Y-63313809D01*
X86907142Y-63170952D01*
X86859523Y-62980476D01*
X86811904Y-62885238D01*
X86716666Y-62790000D01*
X86573809Y-62742380D01*
X86478571Y-62742380D01*
X86335714Y-62790000D01*
X86288095Y-62837619D01*
X85716666Y-63742380D02*
X85811904Y-63694761D01*
X85859523Y-63647142D01*
X85907142Y-63551904D01*
X85907142Y-63266190D01*
X85859523Y-63170952D01*
X85811904Y-63123333D01*
X85716666Y-63075714D01*
X85573809Y-63075714D01*
X85478571Y-63123333D01*
X85430952Y-63170952D01*
X85383333Y-63266190D01*
X85383333Y-63551904D01*
X85430952Y-63647142D01*
X85478571Y-63694761D01*
X85573809Y-63742380D01*
X85716666Y-63742380D01*
X84954761Y-63075714D02*
X84954761Y-63742380D01*
X84954761Y-63170952D02*
X84907142Y-63123333D01*
X84811904Y-63075714D01*
X84669047Y-63075714D01*
X84573809Y-63123333D01*
X84526190Y-63218571D01*
X84526190Y-63742380D01*
X84050000Y-63075714D02*
X84050000Y-63742380D01*
X84050000Y-63170952D02*
X84002380Y-63123333D01*
X83907142Y-63075714D01*
X83764285Y-63075714D01*
X83669047Y-63123333D01*
X83621428Y-63218571D01*
X83621428Y-63742380D01*
X83383333Y-63837619D02*
X82621428Y-63837619D01*
X82192857Y-62742380D02*
X82097619Y-62742380D01*
X82002380Y-62790000D01*
X81954761Y-62837619D01*
X81907142Y-62932857D01*
X81859523Y-63123333D01*
X81859523Y-63361428D01*
X81907142Y-63551904D01*
X81954761Y-63647142D01*
X82002380Y-63694761D01*
X82097619Y-63742380D01*
X82192857Y-63742380D01*
X82288095Y-63694761D01*
X82335714Y-63647142D01*
X82383333Y-63551904D01*
X82430952Y-63361428D01*
X82430952Y-63123333D01*
X82383333Y-62932857D01*
X82335714Y-62837619D01*
X82288095Y-62790000D01*
X82192857Y-62742380D01*
X80907142Y-63742380D02*
X81478571Y-63742380D01*
X81192857Y-63742380D02*
X81192857Y-62742380D01*
X81288095Y-62885238D01*
X81383333Y-62980476D01*
X81478571Y-63028095D01*
X80573809Y-63742380D02*
X80050000Y-63075714D01*
X80573809Y-63075714D02*
X80050000Y-63742380D01*
X79478571Y-62742380D02*
X79383333Y-62742380D01*
X79288095Y-62790000D01*
X79240476Y-62837619D01*
X79192857Y-62932857D01*
X79145238Y-63123333D01*
X79145238Y-63361428D01*
X79192857Y-63551904D01*
X79240476Y-63647142D01*
X79288095Y-63694761D01*
X79383333Y-63742380D01*
X79478571Y-63742380D01*
X79573809Y-63694761D01*
X79621428Y-63647142D01*
X79669047Y-63551904D01*
X79716666Y-63361428D01*
X79716666Y-63123333D01*
X79669047Y-62932857D01*
X79621428Y-62837619D01*
X79573809Y-62790000D01*
X79478571Y-62742380D01*
X78192857Y-63742380D02*
X78764285Y-63742380D01*
X78478571Y-63742380D02*
X78478571Y-62742380D01*
X78573809Y-62885238D01*
X78669047Y-62980476D01*
X78764285Y-63028095D01*
X82002380Y-59674285D02*
X82716666Y-59674285D01*
X82859523Y-59626666D01*
X82954761Y-59531428D01*
X83002380Y-59388571D01*
X83002380Y-59293333D01*
X83002380Y-60674285D02*
X83002380Y-60102857D01*
X83002380Y-60388571D02*
X82002380Y-60388571D01*
X82145238Y-60293333D01*
X82240476Y-60198095D01*
X82288095Y-60102857D01*
X83002380Y-61626666D02*
X83002380Y-61055238D01*
X83002380Y-61340952D02*
X82002380Y-61340952D01*
X82145238Y-61245714D01*
X82240476Y-61150476D01*
X82288095Y-61055238D01*
X82097619Y-62007619D02*
X82050000Y-62055238D01*
X82002380Y-62150476D01*
X82002380Y-62388571D01*
X82050000Y-62483809D01*
X82097619Y-62531428D01*
X82192857Y-62579047D01*
X82288095Y-62579047D01*
X82430952Y-62531428D01*
X83002380Y-61960000D01*
X83002380Y-62579047D01*
X93908095Y-33167142D02*
X93955714Y-33214761D01*
X94098571Y-33262380D01*
X94193809Y-33262380D01*
X94336666Y-33214761D01*
X94431904Y-33119523D01*
X94479523Y-33024285D01*
X94527142Y-32833809D01*
X94527142Y-32690952D01*
X94479523Y-32500476D01*
X94431904Y-32405238D01*
X94336666Y-32310000D01*
X94193809Y-32262380D01*
X94098571Y-32262380D01*
X93955714Y-32310000D01*
X93908095Y-32357619D01*
X93336666Y-33262380D02*
X93431904Y-33214761D01*
X93479523Y-33167142D01*
X93527142Y-33071904D01*
X93527142Y-32786190D01*
X93479523Y-32690952D01*
X93431904Y-32643333D01*
X93336666Y-32595714D01*
X93193809Y-32595714D01*
X93098571Y-32643333D01*
X93050952Y-32690952D01*
X93003333Y-32786190D01*
X93003333Y-33071904D01*
X93050952Y-33167142D01*
X93098571Y-33214761D01*
X93193809Y-33262380D01*
X93336666Y-33262380D01*
X92574761Y-32595714D02*
X92574761Y-33262380D01*
X92574761Y-32690952D02*
X92527142Y-32643333D01*
X92431904Y-32595714D01*
X92289047Y-32595714D01*
X92193809Y-32643333D01*
X92146190Y-32738571D01*
X92146190Y-33262380D01*
X91670000Y-32595714D02*
X91670000Y-33262380D01*
X91670000Y-32690952D02*
X91622380Y-32643333D01*
X91527142Y-32595714D01*
X91384285Y-32595714D01*
X91289047Y-32643333D01*
X91241428Y-32738571D01*
X91241428Y-33262380D01*
X91003333Y-33357619D02*
X90241428Y-33357619D01*
X89812857Y-32262380D02*
X89717619Y-32262380D01*
X89622380Y-32310000D01*
X89574761Y-32357619D01*
X89527142Y-32452857D01*
X89479523Y-32643333D01*
X89479523Y-32881428D01*
X89527142Y-33071904D01*
X89574761Y-33167142D01*
X89622380Y-33214761D01*
X89717619Y-33262380D01*
X89812857Y-33262380D01*
X89908095Y-33214761D01*
X89955714Y-33167142D01*
X90003333Y-33071904D01*
X90050952Y-32881428D01*
X90050952Y-32643333D01*
X90003333Y-32452857D01*
X89955714Y-32357619D01*
X89908095Y-32310000D01*
X89812857Y-32262380D01*
X88527142Y-33262380D02*
X89098571Y-33262380D01*
X88812857Y-33262380D02*
X88812857Y-32262380D01*
X88908095Y-32405238D01*
X89003333Y-32500476D01*
X89098571Y-32548095D01*
X88193809Y-33262380D02*
X87670000Y-32595714D01*
X88193809Y-32595714D02*
X87670000Y-33262380D01*
X87098571Y-32262380D02*
X87003333Y-32262380D01*
X86908095Y-32310000D01*
X86860476Y-32357619D01*
X86812857Y-32452857D01*
X86765238Y-32643333D01*
X86765238Y-32881428D01*
X86812857Y-33071904D01*
X86860476Y-33167142D01*
X86908095Y-33214761D01*
X87003333Y-33262380D01*
X87098571Y-33262380D01*
X87193809Y-33214761D01*
X87241428Y-33167142D01*
X87289047Y-33071904D01*
X87336666Y-32881428D01*
X87336666Y-32643333D01*
X87289047Y-32452857D01*
X87241428Y-32357619D01*
X87193809Y-32310000D01*
X87098571Y-32262380D01*
X85812857Y-33262380D02*
X86384285Y-33262380D01*
X86098571Y-33262380D02*
X86098571Y-32262380D01*
X86193809Y-32405238D01*
X86289047Y-32500476D01*
X86384285Y-32548095D01*
X89622380Y-29194285D02*
X90336666Y-29194285D01*
X90479523Y-29146666D01*
X90574761Y-29051428D01*
X90622380Y-28908571D01*
X90622380Y-28813333D01*
X90622380Y-30194285D02*
X90622380Y-29622857D01*
X90622380Y-29908571D02*
X89622380Y-29908571D01*
X89765238Y-29813333D01*
X89860476Y-29718095D01*
X89908095Y-29622857D01*
X89622380Y-30813333D02*
X89622380Y-30908571D01*
X89670000Y-31003809D01*
X89717619Y-31051428D01*
X89812857Y-31099047D01*
X90003333Y-31146666D01*
X90241428Y-31146666D01*
X90431904Y-31099047D01*
X90527142Y-31051428D01*
X90574761Y-31003809D01*
X90622380Y-30908571D01*
X90622380Y-30813333D01*
X90574761Y-30718095D01*
X90527142Y-30670476D01*
X90431904Y-30622857D01*
X90241428Y-30575238D01*
X90003333Y-30575238D01*
X89812857Y-30622857D01*
X89717619Y-30670476D01*
X89670000Y-30718095D01*
X89622380Y-30813333D01*
X90050952Y-31718095D02*
X90003333Y-31622857D01*
X89955714Y-31575238D01*
X89860476Y-31527619D01*
X89812857Y-31527619D01*
X89717619Y-31575238D01*
X89670000Y-31622857D01*
X89622380Y-31718095D01*
X89622380Y-31908571D01*
X89670000Y-32003809D01*
X89717619Y-32051428D01*
X89812857Y-32099047D01*
X89860476Y-32099047D01*
X89955714Y-32051428D01*
X90003333Y-32003809D01*
X90050952Y-31908571D01*
X90050952Y-31718095D01*
X90098571Y-31622857D01*
X90146190Y-31575238D01*
X90241428Y-31527619D01*
X90431904Y-31527619D01*
X90527142Y-31575238D01*
X90574761Y-31622857D01*
X90622380Y-31718095D01*
X90622380Y-31908571D01*
X90574761Y-32003809D01*
X90527142Y-32051428D01*
X90431904Y-32099047D01*
X90241428Y-32099047D01*
X90146190Y-32051428D01*
X90098571Y-32003809D01*
X90050952Y-31908571D01*
X93908095Y-30627142D02*
X93955714Y-30674761D01*
X94098571Y-30722380D01*
X94193809Y-30722380D01*
X94336666Y-30674761D01*
X94431904Y-30579523D01*
X94479523Y-30484285D01*
X94527142Y-30293809D01*
X94527142Y-30150952D01*
X94479523Y-29960476D01*
X94431904Y-29865238D01*
X94336666Y-29770000D01*
X94193809Y-29722380D01*
X94098571Y-29722380D01*
X93955714Y-29770000D01*
X93908095Y-29817619D01*
X93336666Y-30722380D02*
X93431904Y-30674761D01*
X93479523Y-30627142D01*
X93527142Y-30531904D01*
X93527142Y-30246190D01*
X93479523Y-30150952D01*
X93431904Y-30103333D01*
X93336666Y-30055714D01*
X93193809Y-30055714D01*
X93098571Y-30103333D01*
X93050952Y-30150952D01*
X93003333Y-30246190D01*
X93003333Y-30531904D01*
X93050952Y-30627142D01*
X93098571Y-30674761D01*
X93193809Y-30722380D01*
X93336666Y-30722380D01*
X92574761Y-30055714D02*
X92574761Y-30722380D01*
X92574761Y-30150952D02*
X92527142Y-30103333D01*
X92431904Y-30055714D01*
X92289047Y-30055714D01*
X92193809Y-30103333D01*
X92146190Y-30198571D01*
X92146190Y-30722380D01*
X91670000Y-30055714D02*
X91670000Y-30722380D01*
X91670000Y-30150952D02*
X91622380Y-30103333D01*
X91527142Y-30055714D01*
X91384285Y-30055714D01*
X91289047Y-30103333D01*
X91241428Y-30198571D01*
X91241428Y-30722380D01*
X91003333Y-30817619D02*
X90241428Y-30817619D01*
X89812857Y-29722380D02*
X89717619Y-29722380D01*
X89622380Y-29770000D01*
X89574761Y-29817619D01*
X89527142Y-29912857D01*
X89479523Y-30103333D01*
X89479523Y-30341428D01*
X89527142Y-30531904D01*
X89574761Y-30627142D01*
X89622380Y-30674761D01*
X89717619Y-30722380D01*
X89812857Y-30722380D01*
X89908095Y-30674761D01*
X89955714Y-30627142D01*
X90003333Y-30531904D01*
X90050952Y-30341428D01*
X90050952Y-30103333D01*
X90003333Y-29912857D01*
X89955714Y-29817619D01*
X89908095Y-29770000D01*
X89812857Y-29722380D01*
X88527142Y-30722380D02*
X89098571Y-30722380D01*
X88812857Y-30722380D02*
X88812857Y-29722380D01*
X88908095Y-29865238D01*
X89003333Y-29960476D01*
X89098571Y-30008095D01*
X88193809Y-30722380D02*
X87670000Y-30055714D01*
X88193809Y-30055714D02*
X87670000Y-30722380D01*
X87098571Y-29722380D02*
X87003333Y-29722380D01*
X86908095Y-29770000D01*
X86860476Y-29817619D01*
X86812857Y-29912857D01*
X86765238Y-30103333D01*
X86765238Y-30341428D01*
X86812857Y-30531904D01*
X86860476Y-30627142D01*
X86908095Y-30674761D01*
X87003333Y-30722380D01*
X87098571Y-30722380D01*
X87193809Y-30674761D01*
X87241428Y-30627142D01*
X87289047Y-30531904D01*
X87336666Y-30341428D01*
X87336666Y-30103333D01*
X87289047Y-29912857D01*
X87241428Y-29817619D01*
X87193809Y-29770000D01*
X87098571Y-29722380D01*
X85812857Y-30722380D02*
X86384285Y-30722380D01*
X86098571Y-30722380D02*
X86098571Y-29722380D01*
X86193809Y-29865238D01*
X86289047Y-29960476D01*
X86384285Y-30008095D01*
X89622380Y-26654285D02*
X90336666Y-26654285D01*
X90479523Y-26606666D01*
X90574761Y-26511428D01*
X90622380Y-26368571D01*
X90622380Y-26273333D01*
X90622380Y-27654285D02*
X90622380Y-27082857D01*
X90622380Y-27368571D02*
X89622380Y-27368571D01*
X89765238Y-27273333D01*
X89860476Y-27178095D01*
X89908095Y-27082857D01*
X89622380Y-28273333D02*
X89622380Y-28368571D01*
X89670000Y-28463809D01*
X89717619Y-28511428D01*
X89812857Y-28559047D01*
X90003333Y-28606666D01*
X90241428Y-28606666D01*
X90431904Y-28559047D01*
X90527142Y-28511428D01*
X90574761Y-28463809D01*
X90622380Y-28368571D01*
X90622380Y-28273333D01*
X90574761Y-28178095D01*
X90527142Y-28130476D01*
X90431904Y-28082857D01*
X90241428Y-28035238D01*
X90003333Y-28035238D01*
X89812857Y-28082857D01*
X89717619Y-28130476D01*
X89670000Y-28178095D01*
X89622380Y-28273333D01*
X89622380Y-29511428D02*
X89622380Y-29035238D01*
X90098571Y-28987619D01*
X90050952Y-29035238D01*
X90003333Y-29130476D01*
X90003333Y-29368571D01*
X90050952Y-29463809D01*
X90098571Y-29511428D01*
X90193809Y-29559047D01*
X90431904Y-29559047D01*
X90527142Y-29511428D01*
X90574761Y-29463809D01*
X90622380Y-29368571D01*
X90622380Y-29130476D01*
X90574761Y-29035238D01*
X90527142Y-28987619D01*
X93908095Y-78887142D02*
X93955714Y-78934761D01*
X94098571Y-78982380D01*
X94193809Y-78982380D01*
X94336666Y-78934761D01*
X94431904Y-78839523D01*
X94479523Y-78744285D01*
X94527142Y-78553809D01*
X94527142Y-78410952D01*
X94479523Y-78220476D01*
X94431904Y-78125238D01*
X94336666Y-78030000D01*
X94193809Y-77982380D01*
X94098571Y-77982380D01*
X93955714Y-78030000D01*
X93908095Y-78077619D01*
X93336666Y-78982380D02*
X93431904Y-78934761D01*
X93479523Y-78887142D01*
X93527142Y-78791904D01*
X93527142Y-78506190D01*
X93479523Y-78410952D01*
X93431904Y-78363333D01*
X93336666Y-78315714D01*
X93193809Y-78315714D01*
X93098571Y-78363333D01*
X93050952Y-78410952D01*
X93003333Y-78506190D01*
X93003333Y-78791904D01*
X93050952Y-78887142D01*
X93098571Y-78934761D01*
X93193809Y-78982380D01*
X93336666Y-78982380D01*
X92574761Y-78315714D02*
X92574761Y-78982380D01*
X92574761Y-78410952D02*
X92527142Y-78363333D01*
X92431904Y-78315714D01*
X92289047Y-78315714D01*
X92193809Y-78363333D01*
X92146190Y-78458571D01*
X92146190Y-78982380D01*
X91670000Y-78315714D02*
X91670000Y-78982380D01*
X91670000Y-78410952D02*
X91622380Y-78363333D01*
X91527142Y-78315714D01*
X91384285Y-78315714D01*
X91289047Y-78363333D01*
X91241428Y-78458571D01*
X91241428Y-78982380D01*
X91003333Y-79077619D02*
X90241428Y-79077619D01*
X89812857Y-77982380D02*
X89717619Y-77982380D01*
X89622380Y-78030000D01*
X89574761Y-78077619D01*
X89527142Y-78172857D01*
X89479523Y-78363333D01*
X89479523Y-78601428D01*
X89527142Y-78791904D01*
X89574761Y-78887142D01*
X89622380Y-78934761D01*
X89717619Y-78982380D01*
X89812857Y-78982380D01*
X89908095Y-78934761D01*
X89955714Y-78887142D01*
X90003333Y-78791904D01*
X90050952Y-78601428D01*
X90050952Y-78363333D01*
X90003333Y-78172857D01*
X89955714Y-78077619D01*
X89908095Y-78030000D01*
X89812857Y-77982380D01*
X88527142Y-78982380D02*
X89098571Y-78982380D01*
X88812857Y-78982380D02*
X88812857Y-77982380D01*
X88908095Y-78125238D01*
X89003333Y-78220476D01*
X89098571Y-78268095D01*
X88193809Y-78982380D02*
X87670000Y-78315714D01*
X88193809Y-78315714D02*
X87670000Y-78982380D01*
X87098571Y-77982380D02*
X87003333Y-77982380D01*
X86908095Y-78030000D01*
X86860476Y-78077619D01*
X86812857Y-78172857D01*
X86765238Y-78363333D01*
X86765238Y-78601428D01*
X86812857Y-78791904D01*
X86860476Y-78887142D01*
X86908095Y-78934761D01*
X87003333Y-78982380D01*
X87098571Y-78982380D01*
X87193809Y-78934761D01*
X87241428Y-78887142D01*
X87289047Y-78791904D01*
X87336666Y-78601428D01*
X87336666Y-78363333D01*
X87289047Y-78172857D01*
X87241428Y-78077619D01*
X87193809Y-78030000D01*
X87098571Y-77982380D01*
X85812857Y-78982380D02*
X86384285Y-78982380D01*
X86098571Y-78982380D02*
X86098571Y-77982380D01*
X86193809Y-78125238D01*
X86289047Y-78220476D01*
X86384285Y-78268095D01*
X89622380Y-74914285D02*
X90336666Y-74914285D01*
X90479523Y-74866666D01*
X90574761Y-74771428D01*
X90622380Y-74628571D01*
X90622380Y-74533333D01*
X90622380Y-75914285D02*
X90622380Y-75342857D01*
X90622380Y-75628571D02*
X89622380Y-75628571D01*
X89765238Y-75533333D01*
X89860476Y-75438095D01*
X89908095Y-75342857D01*
X89717619Y-76295238D02*
X89670000Y-76342857D01*
X89622380Y-76438095D01*
X89622380Y-76676190D01*
X89670000Y-76771428D01*
X89717619Y-76819047D01*
X89812857Y-76866666D01*
X89908095Y-76866666D01*
X90050952Y-76819047D01*
X90622380Y-76247619D01*
X90622380Y-76866666D01*
X89622380Y-77200000D02*
X89622380Y-77819047D01*
X90003333Y-77485714D01*
X90003333Y-77628571D01*
X90050952Y-77723809D01*
X90098571Y-77771428D01*
X90193809Y-77819047D01*
X90431904Y-77819047D01*
X90527142Y-77771428D01*
X90574761Y-77723809D01*
X90622380Y-77628571D01*
X90622380Y-77342857D01*
X90574761Y-77247619D01*
X90527142Y-77200000D01*
X86288095Y-35707142D02*
X86335714Y-35754761D01*
X86478571Y-35802380D01*
X86573809Y-35802380D01*
X86716666Y-35754761D01*
X86811904Y-35659523D01*
X86859523Y-35564285D01*
X86907142Y-35373809D01*
X86907142Y-35230952D01*
X86859523Y-35040476D01*
X86811904Y-34945238D01*
X86716666Y-34850000D01*
X86573809Y-34802380D01*
X86478571Y-34802380D01*
X86335714Y-34850000D01*
X86288095Y-34897619D01*
X85716666Y-35802380D02*
X85811904Y-35754761D01*
X85859523Y-35707142D01*
X85907142Y-35611904D01*
X85907142Y-35326190D01*
X85859523Y-35230952D01*
X85811904Y-35183333D01*
X85716666Y-35135714D01*
X85573809Y-35135714D01*
X85478571Y-35183333D01*
X85430952Y-35230952D01*
X85383333Y-35326190D01*
X85383333Y-35611904D01*
X85430952Y-35707142D01*
X85478571Y-35754761D01*
X85573809Y-35802380D01*
X85716666Y-35802380D01*
X84954761Y-35135714D02*
X84954761Y-35802380D01*
X84954761Y-35230952D02*
X84907142Y-35183333D01*
X84811904Y-35135714D01*
X84669047Y-35135714D01*
X84573809Y-35183333D01*
X84526190Y-35278571D01*
X84526190Y-35802380D01*
X84050000Y-35135714D02*
X84050000Y-35802380D01*
X84050000Y-35230952D02*
X84002380Y-35183333D01*
X83907142Y-35135714D01*
X83764285Y-35135714D01*
X83669047Y-35183333D01*
X83621428Y-35278571D01*
X83621428Y-35802380D01*
X83383333Y-35897619D02*
X82621428Y-35897619D01*
X82192857Y-34802380D02*
X82097619Y-34802380D01*
X82002380Y-34850000D01*
X81954761Y-34897619D01*
X81907142Y-34992857D01*
X81859523Y-35183333D01*
X81859523Y-35421428D01*
X81907142Y-35611904D01*
X81954761Y-35707142D01*
X82002380Y-35754761D01*
X82097619Y-35802380D01*
X82192857Y-35802380D01*
X82288095Y-35754761D01*
X82335714Y-35707142D01*
X82383333Y-35611904D01*
X82430952Y-35421428D01*
X82430952Y-35183333D01*
X82383333Y-34992857D01*
X82335714Y-34897619D01*
X82288095Y-34850000D01*
X82192857Y-34802380D01*
X80907142Y-35802380D02*
X81478571Y-35802380D01*
X81192857Y-35802380D02*
X81192857Y-34802380D01*
X81288095Y-34945238D01*
X81383333Y-35040476D01*
X81478571Y-35088095D01*
X80573809Y-35802380D02*
X80050000Y-35135714D01*
X80573809Y-35135714D02*
X80050000Y-35802380D01*
X79478571Y-34802380D02*
X79383333Y-34802380D01*
X79288095Y-34850000D01*
X79240476Y-34897619D01*
X79192857Y-34992857D01*
X79145238Y-35183333D01*
X79145238Y-35421428D01*
X79192857Y-35611904D01*
X79240476Y-35707142D01*
X79288095Y-35754761D01*
X79383333Y-35802380D01*
X79478571Y-35802380D01*
X79573809Y-35754761D01*
X79621428Y-35707142D01*
X79669047Y-35611904D01*
X79716666Y-35421428D01*
X79716666Y-35183333D01*
X79669047Y-34992857D01*
X79621428Y-34897619D01*
X79573809Y-34850000D01*
X79478571Y-34802380D01*
X78192857Y-35802380D02*
X78764285Y-35802380D01*
X78478571Y-35802380D02*
X78478571Y-34802380D01*
X78573809Y-34945238D01*
X78669047Y-35040476D01*
X78764285Y-35088095D01*
X82002380Y-31734285D02*
X82716666Y-31734285D01*
X82859523Y-31686666D01*
X82954761Y-31591428D01*
X83002380Y-31448571D01*
X83002380Y-31353333D01*
X83002380Y-32734285D02*
X83002380Y-32162857D01*
X83002380Y-32448571D02*
X82002380Y-32448571D01*
X82145238Y-32353333D01*
X82240476Y-32258095D01*
X82288095Y-32162857D01*
X82002380Y-33353333D02*
X82002380Y-33448571D01*
X82050000Y-33543809D01*
X82097619Y-33591428D01*
X82192857Y-33639047D01*
X82383333Y-33686666D01*
X82621428Y-33686666D01*
X82811904Y-33639047D01*
X82907142Y-33591428D01*
X82954761Y-33543809D01*
X83002380Y-33448571D01*
X83002380Y-33353333D01*
X82954761Y-33258095D01*
X82907142Y-33210476D01*
X82811904Y-33162857D01*
X82621428Y-33115238D01*
X82383333Y-33115238D01*
X82192857Y-33162857D01*
X82097619Y-33210476D01*
X82050000Y-33258095D01*
X82002380Y-33353333D01*
X82097619Y-34067619D02*
X82050000Y-34115238D01*
X82002380Y-34210476D01*
X82002380Y-34448571D01*
X82050000Y-34543809D01*
X82097619Y-34591428D01*
X82192857Y-34639047D01*
X82288095Y-34639047D01*
X82430952Y-34591428D01*
X83002380Y-34020000D01*
X83002380Y-34639047D01*
X93908095Y-180487142D02*
X93955714Y-180534761D01*
X94098571Y-180582380D01*
X94193809Y-180582380D01*
X94336666Y-180534761D01*
X94431904Y-180439523D01*
X94479523Y-180344285D01*
X94527142Y-180153809D01*
X94527142Y-180010952D01*
X94479523Y-179820476D01*
X94431904Y-179725238D01*
X94336666Y-179630000D01*
X94193809Y-179582380D01*
X94098571Y-179582380D01*
X93955714Y-179630000D01*
X93908095Y-179677619D01*
X93336666Y-180582380D02*
X93431904Y-180534761D01*
X93479523Y-180487142D01*
X93527142Y-180391904D01*
X93527142Y-180106190D01*
X93479523Y-180010952D01*
X93431904Y-179963333D01*
X93336666Y-179915714D01*
X93193809Y-179915714D01*
X93098571Y-179963333D01*
X93050952Y-180010952D01*
X93003333Y-180106190D01*
X93003333Y-180391904D01*
X93050952Y-180487142D01*
X93098571Y-180534761D01*
X93193809Y-180582380D01*
X93336666Y-180582380D01*
X92574761Y-179915714D02*
X92574761Y-180582380D01*
X92574761Y-180010952D02*
X92527142Y-179963333D01*
X92431904Y-179915714D01*
X92289047Y-179915714D01*
X92193809Y-179963333D01*
X92146190Y-180058571D01*
X92146190Y-180582380D01*
X91670000Y-179915714D02*
X91670000Y-180582380D01*
X91670000Y-180010952D02*
X91622380Y-179963333D01*
X91527142Y-179915714D01*
X91384285Y-179915714D01*
X91289047Y-179963333D01*
X91241428Y-180058571D01*
X91241428Y-180582380D01*
X91003333Y-180677619D02*
X90241428Y-180677619D01*
X89812857Y-179582380D02*
X89717619Y-179582380D01*
X89622380Y-179630000D01*
X89574761Y-179677619D01*
X89527142Y-179772857D01*
X89479523Y-179963333D01*
X89479523Y-180201428D01*
X89527142Y-180391904D01*
X89574761Y-180487142D01*
X89622380Y-180534761D01*
X89717619Y-180582380D01*
X89812857Y-180582380D01*
X89908095Y-180534761D01*
X89955714Y-180487142D01*
X90003333Y-180391904D01*
X90050952Y-180201428D01*
X90050952Y-179963333D01*
X90003333Y-179772857D01*
X89955714Y-179677619D01*
X89908095Y-179630000D01*
X89812857Y-179582380D01*
X88527142Y-180582380D02*
X89098571Y-180582380D01*
X88812857Y-180582380D02*
X88812857Y-179582380D01*
X88908095Y-179725238D01*
X89003333Y-179820476D01*
X89098571Y-179868095D01*
X88193809Y-180582380D02*
X87670000Y-179915714D01*
X88193809Y-179915714D02*
X87670000Y-180582380D01*
X87098571Y-179582380D02*
X87003333Y-179582380D01*
X86908095Y-179630000D01*
X86860476Y-179677619D01*
X86812857Y-179772857D01*
X86765238Y-179963333D01*
X86765238Y-180201428D01*
X86812857Y-180391904D01*
X86860476Y-180487142D01*
X86908095Y-180534761D01*
X87003333Y-180582380D01*
X87098571Y-180582380D01*
X87193809Y-180534761D01*
X87241428Y-180487142D01*
X87289047Y-180391904D01*
X87336666Y-180201428D01*
X87336666Y-179963333D01*
X87289047Y-179772857D01*
X87241428Y-179677619D01*
X87193809Y-179630000D01*
X87098571Y-179582380D01*
X85812857Y-180582380D02*
X86384285Y-180582380D01*
X86098571Y-180582380D02*
X86098571Y-179582380D01*
X86193809Y-179725238D01*
X86289047Y-179820476D01*
X86384285Y-179868095D01*
X89622380Y-176514285D02*
X90336666Y-176514285D01*
X90479523Y-176466666D01*
X90574761Y-176371428D01*
X90622380Y-176228571D01*
X90622380Y-176133333D01*
X90622380Y-177514285D02*
X90622380Y-176942857D01*
X90622380Y-177228571D02*
X89622380Y-177228571D01*
X89765238Y-177133333D01*
X89860476Y-177038095D01*
X89908095Y-176942857D01*
X89622380Y-177847619D02*
X89622380Y-178466666D01*
X90003333Y-178133333D01*
X90003333Y-178276190D01*
X90050952Y-178371428D01*
X90098571Y-178419047D01*
X90193809Y-178466666D01*
X90431904Y-178466666D01*
X90527142Y-178419047D01*
X90574761Y-178371428D01*
X90622380Y-178276190D01*
X90622380Y-177990476D01*
X90574761Y-177895238D01*
X90527142Y-177847619D01*
X89622380Y-179085714D02*
X89622380Y-179180952D01*
X89670000Y-179276190D01*
X89717619Y-179323809D01*
X89812857Y-179371428D01*
X90003333Y-179419047D01*
X90241428Y-179419047D01*
X90431904Y-179371428D01*
X90527142Y-179323809D01*
X90574761Y-179276190D01*
X90622380Y-179180952D01*
X90622380Y-179085714D01*
X90574761Y-178990476D01*
X90527142Y-178942857D01*
X90431904Y-178895238D01*
X90241428Y-178847619D01*
X90003333Y-178847619D01*
X89812857Y-178895238D01*
X89717619Y-178942857D01*
X89670000Y-178990476D01*
X89622380Y-179085714D01*
X86288095Y-40787142D02*
X86335714Y-40834761D01*
X86478571Y-40882380D01*
X86573809Y-40882380D01*
X86716666Y-40834761D01*
X86811904Y-40739523D01*
X86859523Y-40644285D01*
X86907142Y-40453809D01*
X86907142Y-40310952D01*
X86859523Y-40120476D01*
X86811904Y-40025238D01*
X86716666Y-39930000D01*
X86573809Y-39882380D01*
X86478571Y-39882380D01*
X86335714Y-39930000D01*
X86288095Y-39977619D01*
X85716666Y-40882380D02*
X85811904Y-40834761D01*
X85859523Y-40787142D01*
X85907142Y-40691904D01*
X85907142Y-40406190D01*
X85859523Y-40310952D01*
X85811904Y-40263333D01*
X85716666Y-40215714D01*
X85573809Y-40215714D01*
X85478571Y-40263333D01*
X85430952Y-40310952D01*
X85383333Y-40406190D01*
X85383333Y-40691904D01*
X85430952Y-40787142D01*
X85478571Y-40834761D01*
X85573809Y-40882380D01*
X85716666Y-40882380D01*
X84954761Y-40215714D02*
X84954761Y-40882380D01*
X84954761Y-40310952D02*
X84907142Y-40263333D01*
X84811904Y-40215714D01*
X84669047Y-40215714D01*
X84573809Y-40263333D01*
X84526190Y-40358571D01*
X84526190Y-40882380D01*
X84050000Y-40215714D02*
X84050000Y-40882380D01*
X84050000Y-40310952D02*
X84002380Y-40263333D01*
X83907142Y-40215714D01*
X83764285Y-40215714D01*
X83669047Y-40263333D01*
X83621428Y-40358571D01*
X83621428Y-40882380D01*
X83383333Y-40977619D02*
X82621428Y-40977619D01*
X82192857Y-39882380D02*
X82097619Y-39882380D01*
X82002380Y-39930000D01*
X81954761Y-39977619D01*
X81907142Y-40072857D01*
X81859523Y-40263333D01*
X81859523Y-40501428D01*
X81907142Y-40691904D01*
X81954761Y-40787142D01*
X82002380Y-40834761D01*
X82097619Y-40882380D01*
X82192857Y-40882380D01*
X82288095Y-40834761D01*
X82335714Y-40787142D01*
X82383333Y-40691904D01*
X82430952Y-40501428D01*
X82430952Y-40263333D01*
X82383333Y-40072857D01*
X82335714Y-39977619D01*
X82288095Y-39930000D01*
X82192857Y-39882380D01*
X80907142Y-40882380D02*
X81478571Y-40882380D01*
X81192857Y-40882380D02*
X81192857Y-39882380D01*
X81288095Y-40025238D01*
X81383333Y-40120476D01*
X81478571Y-40168095D01*
X80573809Y-40882380D02*
X80050000Y-40215714D01*
X80573809Y-40215714D02*
X80050000Y-40882380D01*
X79478571Y-39882380D02*
X79383333Y-39882380D01*
X79288095Y-39930000D01*
X79240476Y-39977619D01*
X79192857Y-40072857D01*
X79145238Y-40263333D01*
X79145238Y-40501428D01*
X79192857Y-40691904D01*
X79240476Y-40787142D01*
X79288095Y-40834761D01*
X79383333Y-40882380D01*
X79478571Y-40882380D01*
X79573809Y-40834761D01*
X79621428Y-40787142D01*
X79669047Y-40691904D01*
X79716666Y-40501428D01*
X79716666Y-40263333D01*
X79669047Y-40072857D01*
X79621428Y-39977619D01*
X79573809Y-39930000D01*
X79478571Y-39882380D01*
X78192857Y-40882380D02*
X78764285Y-40882380D01*
X78478571Y-40882380D02*
X78478571Y-39882380D01*
X78573809Y-40025238D01*
X78669047Y-40120476D01*
X78764285Y-40168095D01*
X82002380Y-36814285D02*
X82716666Y-36814285D01*
X82859523Y-36766666D01*
X82954761Y-36671428D01*
X83002380Y-36528571D01*
X83002380Y-36433333D01*
X83002380Y-37814285D02*
X83002380Y-37242857D01*
X83002380Y-37528571D02*
X82002380Y-37528571D01*
X82145238Y-37433333D01*
X82240476Y-37338095D01*
X82288095Y-37242857D01*
X83002380Y-38766666D02*
X83002380Y-38195238D01*
X83002380Y-38480952D02*
X82002380Y-38480952D01*
X82145238Y-38385714D01*
X82240476Y-38290476D01*
X82288095Y-38195238D01*
X82002380Y-39385714D02*
X82002380Y-39480952D01*
X82050000Y-39576190D01*
X82097619Y-39623809D01*
X82192857Y-39671428D01*
X82383333Y-39719047D01*
X82621428Y-39719047D01*
X82811904Y-39671428D01*
X82907142Y-39623809D01*
X82954761Y-39576190D01*
X83002380Y-39480952D01*
X83002380Y-39385714D01*
X82954761Y-39290476D01*
X82907142Y-39242857D01*
X82811904Y-39195238D01*
X82621428Y-39147619D01*
X82383333Y-39147619D01*
X82192857Y-39195238D01*
X82097619Y-39242857D01*
X82050000Y-39290476D01*
X82002380Y-39385714D01*
X86288095Y-109367142D02*
X86335714Y-109414761D01*
X86478571Y-109462380D01*
X86573809Y-109462380D01*
X86716666Y-109414761D01*
X86811904Y-109319523D01*
X86859523Y-109224285D01*
X86907142Y-109033809D01*
X86907142Y-108890952D01*
X86859523Y-108700476D01*
X86811904Y-108605238D01*
X86716666Y-108510000D01*
X86573809Y-108462380D01*
X86478571Y-108462380D01*
X86335714Y-108510000D01*
X86288095Y-108557619D01*
X85716666Y-109462380D02*
X85811904Y-109414761D01*
X85859523Y-109367142D01*
X85907142Y-109271904D01*
X85907142Y-108986190D01*
X85859523Y-108890952D01*
X85811904Y-108843333D01*
X85716666Y-108795714D01*
X85573809Y-108795714D01*
X85478571Y-108843333D01*
X85430952Y-108890952D01*
X85383333Y-108986190D01*
X85383333Y-109271904D01*
X85430952Y-109367142D01*
X85478571Y-109414761D01*
X85573809Y-109462380D01*
X85716666Y-109462380D01*
X84954761Y-108795714D02*
X84954761Y-109462380D01*
X84954761Y-108890952D02*
X84907142Y-108843333D01*
X84811904Y-108795714D01*
X84669047Y-108795714D01*
X84573809Y-108843333D01*
X84526190Y-108938571D01*
X84526190Y-109462380D01*
X84050000Y-108795714D02*
X84050000Y-109462380D01*
X84050000Y-108890952D02*
X84002380Y-108843333D01*
X83907142Y-108795714D01*
X83764285Y-108795714D01*
X83669047Y-108843333D01*
X83621428Y-108938571D01*
X83621428Y-109462380D01*
X83383333Y-109557619D02*
X82621428Y-109557619D01*
X82192857Y-108462380D02*
X82097619Y-108462380D01*
X82002380Y-108510000D01*
X81954761Y-108557619D01*
X81907142Y-108652857D01*
X81859523Y-108843333D01*
X81859523Y-109081428D01*
X81907142Y-109271904D01*
X81954761Y-109367142D01*
X82002380Y-109414761D01*
X82097619Y-109462380D01*
X82192857Y-109462380D01*
X82288095Y-109414761D01*
X82335714Y-109367142D01*
X82383333Y-109271904D01*
X82430952Y-109081428D01*
X82430952Y-108843333D01*
X82383333Y-108652857D01*
X82335714Y-108557619D01*
X82288095Y-108510000D01*
X82192857Y-108462380D01*
X80907142Y-109462380D02*
X81478571Y-109462380D01*
X81192857Y-109462380D02*
X81192857Y-108462380D01*
X81288095Y-108605238D01*
X81383333Y-108700476D01*
X81478571Y-108748095D01*
X80573809Y-109462380D02*
X80050000Y-108795714D01*
X80573809Y-108795714D02*
X80050000Y-109462380D01*
X79478571Y-108462380D02*
X79383333Y-108462380D01*
X79288095Y-108510000D01*
X79240476Y-108557619D01*
X79192857Y-108652857D01*
X79145238Y-108843333D01*
X79145238Y-109081428D01*
X79192857Y-109271904D01*
X79240476Y-109367142D01*
X79288095Y-109414761D01*
X79383333Y-109462380D01*
X79478571Y-109462380D01*
X79573809Y-109414761D01*
X79621428Y-109367142D01*
X79669047Y-109271904D01*
X79716666Y-109081428D01*
X79716666Y-108843333D01*
X79669047Y-108652857D01*
X79621428Y-108557619D01*
X79573809Y-108510000D01*
X79478571Y-108462380D01*
X78192857Y-109462380D02*
X78764285Y-109462380D01*
X78478571Y-109462380D02*
X78478571Y-108462380D01*
X78573809Y-108605238D01*
X78669047Y-108700476D01*
X78764285Y-108748095D01*
X82002380Y-105394285D02*
X82716666Y-105394285D01*
X82859523Y-105346666D01*
X82954761Y-105251428D01*
X83002380Y-105108571D01*
X83002380Y-105013333D01*
X83002380Y-106394285D02*
X83002380Y-105822857D01*
X83002380Y-106108571D02*
X82002380Y-106108571D01*
X82145238Y-106013333D01*
X82240476Y-105918095D01*
X82288095Y-105822857D01*
X83002380Y-107346666D02*
X83002380Y-106775238D01*
X83002380Y-107060952D02*
X82002380Y-107060952D01*
X82145238Y-106965714D01*
X82240476Y-106870476D01*
X82288095Y-106775238D01*
X82002380Y-108251428D02*
X82002380Y-107775238D01*
X82478571Y-107727619D01*
X82430952Y-107775238D01*
X82383333Y-107870476D01*
X82383333Y-108108571D01*
X82430952Y-108203809D01*
X82478571Y-108251428D01*
X82573809Y-108299047D01*
X82811904Y-108299047D01*
X82907142Y-108251428D01*
X82954761Y-108203809D01*
X83002380Y-108108571D01*
X83002380Y-107870476D01*
X82954761Y-107775238D01*
X82907142Y-107727619D01*
X93908095Y-109367142D02*
X93955714Y-109414761D01*
X94098571Y-109462380D01*
X94193809Y-109462380D01*
X94336666Y-109414761D01*
X94431904Y-109319523D01*
X94479523Y-109224285D01*
X94527142Y-109033809D01*
X94527142Y-108890952D01*
X94479523Y-108700476D01*
X94431904Y-108605238D01*
X94336666Y-108510000D01*
X94193809Y-108462380D01*
X94098571Y-108462380D01*
X93955714Y-108510000D01*
X93908095Y-108557619D01*
X93336666Y-109462380D02*
X93431904Y-109414761D01*
X93479523Y-109367142D01*
X93527142Y-109271904D01*
X93527142Y-108986190D01*
X93479523Y-108890952D01*
X93431904Y-108843333D01*
X93336666Y-108795714D01*
X93193809Y-108795714D01*
X93098571Y-108843333D01*
X93050952Y-108890952D01*
X93003333Y-108986190D01*
X93003333Y-109271904D01*
X93050952Y-109367142D01*
X93098571Y-109414761D01*
X93193809Y-109462380D01*
X93336666Y-109462380D01*
X92574761Y-108795714D02*
X92574761Y-109462380D01*
X92574761Y-108890952D02*
X92527142Y-108843333D01*
X92431904Y-108795714D01*
X92289047Y-108795714D01*
X92193809Y-108843333D01*
X92146190Y-108938571D01*
X92146190Y-109462380D01*
X91670000Y-108795714D02*
X91670000Y-109462380D01*
X91670000Y-108890952D02*
X91622380Y-108843333D01*
X91527142Y-108795714D01*
X91384285Y-108795714D01*
X91289047Y-108843333D01*
X91241428Y-108938571D01*
X91241428Y-109462380D01*
X91003333Y-109557619D02*
X90241428Y-109557619D01*
X89812857Y-108462380D02*
X89717619Y-108462380D01*
X89622380Y-108510000D01*
X89574761Y-108557619D01*
X89527142Y-108652857D01*
X89479523Y-108843333D01*
X89479523Y-109081428D01*
X89527142Y-109271904D01*
X89574761Y-109367142D01*
X89622380Y-109414761D01*
X89717619Y-109462380D01*
X89812857Y-109462380D01*
X89908095Y-109414761D01*
X89955714Y-109367142D01*
X90003333Y-109271904D01*
X90050952Y-109081428D01*
X90050952Y-108843333D01*
X90003333Y-108652857D01*
X89955714Y-108557619D01*
X89908095Y-108510000D01*
X89812857Y-108462380D01*
X88527142Y-109462380D02*
X89098571Y-109462380D01*
X88812857Y-109462380D02*
X88812857Y-108462380D01*
X88908095Y-108605238D01*
X89003333Y-108700476D01*
X89098571Y-108748095D01*
X88193809Y-109462380D02*
X87670000Y-108795714D01*
X88193809Y-108795714D02*
X87670000Y-109462380D01*
X87098571Y-108462380D02*
X87003333Y-108462380D01*
X86908095Y-108510000D01*
X86860476Y-108557619D01*
X86812857Y-108652857D01*
X86765238Y-108843333D01*
X86765238Y-109081428D01*
X86812857Y-109271904D01*
X86860476Y-109367142D01*
X86908095Y-109414761D01*
X87003333Y-109462380D01*
X87098571Y-109462380D01*
X87193809Y-109414761D01*
X87241428Y-109367142D01*
X87289047Y-109271904D01*
X87336666Y-109081428D01*
X87336666Y-108843333D01*
X87289047Y-108652857D01*
X87241428Y-108557619D01*
X87193809Y-108510000D01*
X87098571Y-108462380D01*
X85812857Y-109462380D02*
X86384285Y-109462380D01*
X86098571Y-109462380D02*
X86098571Y-108462380D01*
X86193809Y-108605238D01*
X86289047Y-108700476D01*
X86384285Y-108748095D01*
X89622380Y-105394285D02*
X90336666Y-105394285D01*
X90479523Y-105346666D01*
X90574761Y-105251428D01*
X90622380Y-105108571D01*
X90622380Y-105013333D01*
X90622380Y-106394285D02*
X90622380Y-105822857D01*
X90622380Y-106108571D02*
X89622380Y-106108571D01*
X89765238Y-106013333D01*
X89860476Y-105918095D01*
X89908095Y-105822857D01*
X89717619Y-106775238D02*
X89670000Y-106822857D01*
X89622380Y-106918095D01*
X89622380Y-107156190D01*
X89670000Y-107251428D01*
X89717619Y-107299047D01*
X89812857Y-107346666D01*
X89908095Y-107346666D01*
X90050952Y-107299047D01*
X90622380Y-106727619D01*
X90622380Y-107346666D01*
X89622380Y-108251428D02*
X89622380Y-107775238D01*
X90098571Y-107727619D01*
X90050952Y-107775238D01*
X90003333Y-107870476D01*
X90003333Y-108108571D01*
X90050952Y-108203809D01*
X90098571Y-108251428D01*
X90193809Y-108299047D01*
X90431904Y-108299047D01*
X90527142Y-108251428D01*
X90574761Y-108203809D01*
X90622380Y-108108571D01*
X90622380Y-107870476D01*
X90574761Y-107775238D01*
X90527142Y-107727619D01*
X93908095Y-94127142D02*
X93955714Y-94174761D01*
X94098571Y-94222380D01*
X94193809Y-94222380D01*
X94336666Y-94174761D01*
X94431904Y-94079523D01*
X94479523Y-93984285D01*
X94527142Y-93793809D01*
X94527142Y-93650952D01*
X94479523Y-93460476D01*
X94431904Y-93365238D01*
X94336666Y-93270000D01*
X94193809Y-93222380D01*
X94098571Y-93222380D01*
X93955714Y-93270000D01*
X93908095Y-93317619D01*
X93336666Y-94222380D02*
X93431904Y-94174761D01*
X93479523Y-94127142D01*
X93527142Y-94031904D01*
X93527142Y-93746190D01*
X93479523Y-93650952D01*
X93431904Y-93603333D01*
X93336666Y-93555714D01*
X93193809Y-93555714D01*
X93098571Y-93603333D01*
X93050952Y-93650952D01*
X93003333Y-93746190D01*
X93003333Y-94031904D01*
X93050952Y-94127142D01*
X93098571Y-94174761D01*
X93193809Y-94222380D01*
X93336666Y-94222380D01*
X92574761Y-93555714D02*
X92574761Y-94222380D01*
X92574761Y-93650952D02*
X92527142Y-93603333D01*
X92431904Y-93555714D01*
X92289047Y-93555714D01*
X92193809Y-93603333D01*
X92146190Y-93698571D01*
X92146190Y-94222380D01*
X91670000Y-93555714D02*
X91670000Y-94222380D01*
X91670000Y-93650952D02*
X91622380Y-93603333D01*
X91527142Y-93555714D01*
X91384285Y-93555714D01*
X91289047Y-93603333D01*
X91241428Y-93698571D01*
X91241428Y-94222380D01*
X91003333Y-94317619D02*
X90241428Y-94317619D01*
X89812857Y-93222380D02*
X89717619Y-93222380D01*
X89622380Y-93270000D01*
X89574761Y-93317619D01*
X89527142Y-93412857D01*
X89479523Y-93603333D01*
X89479523Y-93841428D01*
X89527142Y-94031904D01*
X89574761Y-94127142D01*
X89622380Y-94174761D01*
X89717619Y-94222380D01*
X89812857Y-94222380D01*
X89908095Y-94174761D01*
X89955714Y-94127142D01*
X90003333Y-94031904D01*
X90050952Y-93841428D01*
X90050952Y-93603333D01*
X90003333Y-93412857D01*
X89955714Y-93317619D01*
X89908095Y-93270000D01*
X89812857Y-93222380D01*
X88527142Y-94222380D02*
X89098571Y-94222380D01*
X88812857Y-94222380D02*
X88812857Y-93222380D01*
X88908095Y-93365238D01*
X89003333Y-93460476D01*
X89098571Y-93508095D01*
X88193809Y-94222380D02*
X87670000Y-93555714D01*
X88193809Y-93555714D02*
X87670000Y-94222380D01*
X87098571Y-93222380D02*
X87003333Y-93222380D01*
X86908095Y-93270000D01*
X86860476Y-93317619D01*
X86812857Y-93412857D01*
X86765238Y-93603333D01*
X86765238Y-93841428D01*
X86812857Y-94031904D01*
X86860476Y-94127142D01*
X86908095Y-94174761D01*
X87003333Y-94222380D01*
X87098571Y-94222380D01*
X87193809Y-94174761D01*
X87241428Y-94127142D01*
X87289047Y-94031904D01*
X87336666Y-93841428D01*
X87336666Y-93603333D01*
X87289047Y-93412857D01*
X87241428Y-93317619D01*
X87193809Y-93270000D01*
X87098571Y-93222380D01*
X85812857Y-94222380D02*
X86384285Y-94222380D01*
X86098571Y-94222380D02*
X86098571Y-93222380D01*
X86193809Y-93365238D01*
X86289047Y-93460476D01*
X86384285Y-93508095D01*
X89622380Y-90154285D02*
X90336666Y-90154285D01*
X90479523Y-90106666D01*
X90574761Y-90011428D01*
X90622380Y-89868571D01*
X90622380Y-89773333D01*
X90622380Y-91154285D02*
X90622380Y-90582857D01*
X90622380Y-90868571D02*
X89622380Y-90868571D01*
X89765238Y-90773333D01*
X89860476Y-90678095D01*
X89908095Y-90582857D01*
X89717619Y-91535238D02*
X89670000Y-91582857D01*
X89622380Y-91678095D01*
X89622380Y-91916190D01*
X89670000Y-92011428D01*
X89717619Y-92059047D01*
X89812857Y-92106666D01*
X89908095Y-92106666D01*
X90050952Y-92059047D01*
X90622380Y-91487619D01*
X90622380Y-92106666D01*
X89955714Y-92963809D02*
X90622380Y-92963809D01*
X89574761Y-92725714D02*
X90289047Y-92487619D01*
X90289047Y-93106666D01*
X93908095Y-139847142D02*
X93955714Y-139894761D01*
X94098571Y-139942380D01*
X94193809Y-139942380D01*
X94336666Y-139894761D01*
X94431904Y-139799523D01*
X94479523Y-139704285D01*
X94527142Y-139513809D01*
X94527142Y-139370952D01*
X94479523Y-139180476D01*
X94431904Y-139085238D01*
X94336666Y-138990000D01*
X94193809Y-138942380D01*
X94098571Y-138942380D01*
X93955714Y-138990000D01*
X93908095Y-139037619D01*
X93336666Y-139942380D02*
X93431904Y-139894761D01*
X93479523Y-139847142D01*
X93527142Y-139751904D01*
X93527142Y-139466190D01*
X93479523Y-139370952D01*
X93431904Y-139323333D01*
X93336666Y-139275714D01*
X93193809Y-139275714D01*
X93098571Y-139323333D01*
X93050952Y-139370952D01*
X93003333Y-139466190D01*
X93003333Y-139751904D01*
X93050952Y-139847142D01*
X93098571Y-139894761D01*
X93193809Y-139942380D01*
X93336666Y-139942380D01*
X92574761Y-139275714D02*
X92574761Y-139942380D01*
X92574761Y-139370952D02*
X92527142Y-139323333D01*
X92431904Y-139275714D01*
X92289047Y-139275714D01*
X92193809Y-139323333D01*
X92146190Y-139418571D01*
X92146190Y-139942380D01*
X91670000Y-139275714D02*
X91670000Y-139942380D01*
X91670000Y-139370952D02*
X91622380Y-139323333D01*
X91527142Y-139275714D01*
X91384285Y-139275714D01*
X91289047Y-139323333D01*
X91241428Y-139418571D01*
X91241428Y-139942380D01*
X91003333Y-140037619D02*
X90241428Y-140037619D01*
X89812857Y-138942380D02*
X89717619Y-138942380D01*
X89622380Y-138990000D01*
X89574761Y-139037619D01*
X89527142Y-139132857D01*
X89479523Y-139323333D01*
X89479523Y-139561428D01*
X89527142Y-139751904D01*
X89574761Y-139847142D01*
X89622380Y-139894761D01*
X89717619Y-139942380D01*
X89812857Y-139942380D01*
X89908095Y-139894761D01*
X89955714Y-139847142D01*
X90003333Y-139751904D01*
X90050952Y-139561428D01*
X90050952Y-139323333D01*
X90003333Y-139132857D01*
X89955714Y-139037619D01*
X89908095Y-138990000D01*
X89812857Y-138942380D01*
X88527142Y-139942380D02*
X89098571Y-139942380D01*
X88812857Y-139942380D02*
X88812857Y-138942380D01*
X88908095Y-139085238D01*
X89003333Y-139180476D01*
X89098571Y-139228095D01*
X88193809Y-139942380D02*
X87670000Y-139275714D01*
X88193809Y-139275714D02*
X87670000Y-139942380D01*
X87098571Y-138942380D02*
X87003333Y-138942380D01*
X86908095Y-138990000D01*
X86860476Y-139037619D01*
X86812857Y-139132857D01*
X86765238Y-139323333D01*
X86765238Y-139561428D01*
X86812857Y-139751904D01*
X86860476Y-139847142D01*
X86908095Y-139894761D01*
X87003333Y-139942380D01*
X87098571Y-139942380D01*
X87193809Y-139894761D01*
X87241428Y-139847142D01*
X87289047Y-139751904D01*
X87336666Y-139561428D01*
X87336666Y-139323333D01*
X87289047Y-139132857D01*
X87241428Y-139037619D01*
X87193809Y-138990000D01*
X87098571Y-138942380D01*
X85812857Y-139942380D02*
X86384285Y-139942380D01*
X86098571Y-139942380D02*
X86098571Y-138942380D01*
X86193809Y-139085238D01*
X86289047Y-139180476D01*
X86384285Y-139228095D01*
X89622380Y-135874285D02*
X90336666Y-135874285D01*
X90479523Y-135826666D01*
X90574761Y-135731428D01*
X90622380Y-135588571D01*
X90622380Y-135493333D01*
X90622380Y-136874285D02*
X90622380Y-136302857D01*
X90622380Y-136588571D02*
X89622380Y-136588571D01*
X89765238Y-136493333D01*
X89860476Y-136398095D01*
X89908095Y-136302857D01*
X89717619Y-137255238D02*
X89670000Y-137302857D01*
X89622380Y-137398095D01*
X89622380Y-137636190D01*
X89670000Y-137731428D01*
X89717619Y-137779047D01*
X89812857Y-137826666D01*
X89908095Y-137826666D01*
X90050952Y-137779047D01*
X90622380Y-137207619D01*
X90622380Y-137826666D01*
X89622380Y-138160000D02*
X89622380Y-138826666D01*
X90622380Y-138398095D01*
X93908095Y-124607142D02*
X93955714Y-124654761D01*
X94098571Y-124702380D01*
X94193809Y-124702380D01*
X94336666Y-124654761D01*
X94431904Y-124559523D01*
X94479523Y-124464285D01*
X94527142Y-124273809D01*
X94527142Y-124130952D01*
X94479523Y-123940476D01*
X94431904Y-123845238D01*
X94336666Y-123750000D01*
X94193809Y-123702380D01*
X94098571Y-123702380D01*
X93955714Y-123750000D01*
X93908095Y-123797619D01*
X93336666Y-124702380D02*
X93431904Y-124654761D01*
X93479523Y-124607142D01*
X93527142Y-124511904D01*
X93527142Y-124226190D01*
X93479523Y-124130952D01*
X93431904Y-124083333D01*
X93336666Y-124035714D01*
X93193809Y-124035714D01*
X93098571Y-124083333D01*
X93050952Y-124130952D01*
X93003333Y-124226190D01*
X93003333Y-124511904D01*
X93050952Y-124607142D01*
X93098571Y-124654761D01*
X93193809Y-124702380D01*
X93336666Y-124702380D01*
X92574761Y-124035714D02*
X92574761Y-124702380D01*
X92574761Y-124130952D02*
X92527142Y-124083333D01*
X92431904Y-124035714D01*
X92289047Y-124035714D01*
X92193809Y-124083333D01*
X92146190Y-124178571D01*
X92146190Y-124702380D01*
X91670000Y-124035714D02*
X91670000Y-124702380D01*
X91670000Y-124130952D02*
X91622380Y-124083333D01*
X91527142Y-124035714D01*
X91384285Y-124035714D01*
X91289047Y-124083333D01*
X91241428Y-124178571D01*
X91241428Y-124702380D01*
X91003333Y-124797619D02*
X90241428Y-124797619D01*
X89812857Y-123702380D02*
X89717619Y-123702380D01*
X89622380Y-123750000D01*
X89574761Y-123797619D01*
X89527142Y-123892857D01*
X89479523Y-124083333D01*
X89479523Y-124321428D01*
X89527142Y-124511904D01*
X89574761Y-124607142D01*
X89622380Y-124654761D01*
X89717619Y-124702380D01*
X89812857Y-124702380D01*
X89908095Y-124654761D01*
X89955714Y-124607142D01*
X90003333Y-124511904D01*
X90050952Y-124321428D01*
X90050952Y-124083333D01*
X90003333Y-123892857D01*
X89955714Y-123797619D01*
X89908095Y-123750000D01*
X89812857Y-123702380D01*
X88527142Y-124702380D02*
X89098571Y-124702380D01*
X88812857Y-124702380D02*
X88812857Y-123702380D01*
X88908095Y-123845238D01*
X89003333Y-123940476D01*
X89098571Y-123988095D01*
X88193809Y-124702380D02*
X87670000Y-124035714D01*
X88193809Y-124035714D02*
X87670000Y-124702380D01*
X87098571Y-123702380D02*
X87003333Y-123702380D01*
X86908095Y-123750000D01*
X86860476Y-123797619D01*
X86812857Y-123892857D01*
X86765238Y-124083333D01*
X86765238Y-124321428D01*
X86812857Y-124511904D01*
X86860476Y-124607142D01*
X86908095Y-124654761D01*
X87003333Y-124702380D01*
X87098571Y-124702380D01*
X87193809Y-124654761D01*
X87241428Y-124607142D01*
X87289047Y-124511904D01*
X87336666Y-124321428D01*
X87336666Y-124083333D01*
X87289047Y-123892857D01*
X87241428Y-123797619D01*
X87193809Y-123750000D01*
X87098571Y-123702380D01*
X85812857Y-124702380D02*
X86384285Y-124702380D01*
X86098571Y-124702380D02*
X86098571Y-123702380D01*
X86193809Y-123845238D01*
X86289047Y-123940476D01*
X86384285Y-123988095D01*
X89622380Y-120634285D02*
X90336666Y-120634285D01*
X90479523Y-120586666D01*
X90574761Y-120491428D01*
X90622380Y-120348571D01*
X90622380Y-120253333D01*
X90622380Y-121634285D02*
X90622380Y-121062857D01*
X90622380Y-121348571D02*
X89622380Y-121348571D01*
X89765238Y-121253333D01*
X89860476Y-121158095D01*
X89908095Y-121062857D01*
X89717619Y-122015238D02*
X89670000Y-122062857D01*
X89622380Y-122158095D01*
X89622380Y-122396190D01*
X89670000Y-122491428D01*
X89717619Y-122539047D01*
X89812857Y-122586666D01*
X89908095Y-122586666D01*
X90050952Y-122539047D01*
X90622380Y-121967619D01*
X90622380Y-122586666D01*
X89622380Y-123443809D02*
X89622380Y-123253333D01*
X89670000Y-123158095D01*
X89717619Y-123110476D01*
X89860476Y-123015238D01*
X90050952Y-122967619D01*
X90431904Y-122967619D01*
X90527142Y-123015238D01*
X90574761Y-123062857D01*
X90622380Y-123158095D01*
X90622380Y-123348571D01*
X90574761Y-123443809D01*
X90527142Y-123491428D01*
X90431904Y-123539047D01*
X90193809Y-123539047D01*
X90098571Y-123491428D01*
X90050952Y-123443809D01*
X90003333Y-123348571D01*
X90003333Y-123158095D01*
X90050952Y-123062857D01*
X90098571Y-123015238D01*
X90193809Y-122967619D01*
X86288095Y-124607142D02*
X86335714Y-124654761D01*
X86478571Y-124702380D01*
X86573809Y-124702380D01*
X86716666Y-124654761D01*
X86811904Y-124559523D01*
X86859523Y-124464285D01*
X86907142Y-124273809D01*
X86907142Y-124130952D01*
X86859523Y-123940476D01*
X86811904Y-123845238D01*
X86716666Y-123750000D01*
X86573809Y-123702380D01*
X86478571Y-123702380D01*
X86335714Y-123750000D01*
X86288095Y-123797619D01*
X85716666Y-124702380D02*
X85811904Y-124654761D01*
X85859523Y-124607142D01*
X85907142Y-124511904D01*
X85907142Y-124226190D01*
X85859523Y-124130952D01*
X85811904Y-124083333D01*
X85716666Y-124035714D01*
X85573809Y-124035714D01*
X85478571Y-124083333D01*
X85430952Y-124130952D01*
X85383333Y-124226190D01*
X85383333Y-124511904D01*
X85430952Y-124607142D01*
X85478571Y-124654761D01*
X85573809Y-124702380D01*
X85716666Y-124702380D01*
X84954761Y-124035714D02*
X84954761Y-124702380D01*
X84954761Y-124130952D02*
X84907142Y-124083333D01*
X84811904Y-124035714D01*
X84669047Y-124035714D01*
X84573809Y-124083333D01*
X84526190Y-124178571D01*
X84526190Y-124702380D01*
X84050000Y-124035714D02*
X84050000Y-124702380D01*
X84050000Y-124130952D02*
X84002380Y-124083333D01*
X83907142Y-124035714D01*
X83764285Y-124035714D01*
X83669047Y-124083333D01*
X83621428Y-124178571D01*
X83621428Y-124702380D01*
X83383333Y-124797619D02*
X82621428Y-124797619D01*
X82192857Y-123702380D02*
X82097619Y-123702380D01*
X82002380Y-123750000D01*
X81954761Y-123797619D01*
X81907142Y-123892857D01*
X81859523Y-124083333D01*
X81859523Y-124321428D01*
X81907142Y-124511904D01*
X81954761Y-124607142D01*
X82002380Y-124654761D01*
X82097619Y-124702380D01*
X82192857Y-124702380D01*
X82288095Y-124654761D01*
X82335714Y-124607142D01*
X82383333Y-124511904D01*
X82430952Y-124321428D01*
X82430952Y-124083333D01*
X82383333Y-123892857D01*
X82335714Y-123797619D01*
X82288095Y-123750000D01*
X82192857Y-123702380D01*
X80907142Y-124702380D02*
X81478571Y-124702380D01*
X81192857Y-124702380D02*
X81192857Y-123702380D01*
X81288095Y-123845238D01*
X81383333Y-123940476D01*
X81478571Y-123988095D01*
X80573809Y-124702380D02*
X80050000Y-124035714D01*
X80573809Y-124035714D02*
X80050000Y-124702380D01*
X79478571Y-123702380D02*
X79383333Y-123702380D01*
X79288095Y-123750000D01*
X79240476Y-123797619D01*
X79192857Y-123892857D01*
X79145238Y-124083333D01*
X79145238Y-124321428D01*
X79192857Y-124511904D01*
X79240476Y-124607142D01*
X79288095Y-124654761D01*
X79383333Y-124702380D01*
X79478571Y-124702380D01*
X79573809Y-124654761D01*
X79621428Y-124607142D01*
X79669047Y-124511904D01*
X79716666Y-124321428D01*
X79716666Y-124083333D01*
X79669047Y-123892857D01*
X79621428Y-123797619D01*
X79573809Y-123750000D01*
X79478571Y-123702380D01*
X78192857Y-124702380D02*
X78764285Y-124702380D01*
X78478571Y-124702380D02*
X78478571Y-123702380D01*
X78573809Y-123845238D01*
X78669047Y-123940476D01*
X78764285Y-123988095D01*
X82002380Y-120634285D02*
X82716666Y-120634285D01*
X82859523Y-120586666D01*
X82954761Y-120491428D01*
X83002380Y-120348571D01*
X83002380Y-120253333D01*
X83002380Y-121634285D02*
X83002380Y-121062857D01*
X83002380Y-121348571D02*
X82002380Y-121348571D01*
X82145238Y-121253333D01*
X82240476Y-121158095D01*
X82288095Y-121062857D01*
X83002380Y-122586666D02*
X83002380Y-122015238D01*
X83002380Y-122300952D02*
X82002380Y-122300952D01*
X82145238Y-122205714D01*
X82240476Y-122110476D01*
X82288095Y-122015238D01*
X82002380Y-123443809D02*
X82002380Y-123253333D01*
X82050000Y-123158095D01*
X82097619Y-123110476D01*
X82240476Y-123015238D01*
X82430952Y-122967619D01*
X82811904Y-122967619D01*
X82907142Y-123015238D01*
X82954761Y-123062857D01*
X83002380Y-123158095D01*
X83002380Y-123348571D01*
X82954761Y-123443809D01*
X82907142Y-123491428D01*
X82811904Y-123539047D01*
X82573809Y-123539047D01*
X82478571Y-123491428D01*
X82430952Y-123443809D01*
X82383333Y-123348571D01*
X82383333Y-123158095D01*
X82430952Y-123062857D01*
X82478571Y-123015238D01*
X82573809Y-122967619D01*
X86288095Y-177947142D02*
X86335714Y-177994761D01*
X86478571Y-178042380D01*
X86573809Y-178042380D01*
X86716666Y-177994761D01*
X86811904Y-177899523D01*
X86859523Y-177804285D01*
X86907142Y-177613809D01*
X86907142Y-177470952D01*
X86859523Y-177280476D01*
X86811904Y-177185238D01*
X86716666Y-177090000D01*
X86573809Y-177042380D01*
X86478571Y-177042380D01*
X86335714Y-177090000D01*
X86288095Y-177137619D01*
X85716666Y-178042380D02*
X85811904Y-177994761D01*
X85859523Y-177947142D01*
X85907142Y-177851904D01*
X85907142Y-177566190D01*
X85859523Y-177470952D01*
X85811904Y-177423333D01*
X85716666Y-177375714D01*
X85573809Y-177375714D01*
X85478571Y-177423333D01*
X85430952Y-177470952D01*
X85383333Y-177566190D01*
X85383333Y-177851904D01*
X85430952Y-177947142D01*
X85478571Y-177994761D01*
X85573809Y-178042380D01*
X85716666Y-178042380D01*
X84954761Y-177375714D02*
X84954761Y-178042380D01*
X84954761Y-177470952D02*
X84907142Y-177423333D01*
X84811904Y-177375714D01*
X84669047Y-177375714D01*
X84573809Y-177423333D01*
X84526190Y-177518571D01*
X84526190Y-178042380D01*
X84050000Y-177375714D02*
X84050000Y-178042380D01*
X84050000Y-177470952D02*
X84002380Y-177423333D01*
X83907142Y-177375714D01*
X83764285Y-177375714D01*
X83669047Y-177423333D01*
X83621428Y-177518571D01*
X83621428Y-178042380D01*
X83383333Y-178137619D02*
X82621428Y-178137619D01*
X82192857Y-177042380D02*
X82097619Y-177042380D01*
X82002380Y-177090000D01*
X81954761Y-177137619D01*
X81907142Y-177232857D01*
X81859523Y-177423333D01*
X81859523Y-177661428D01*
X81907142Y-177851904D01*
X81954761Y-177947142D01*
X82002380Y-177994761D01*
X82097619Y-178042380D01*
X82192857Y-178042380D01*
X82288095Y-177994761D01*
X82335714Y-177947142D01*
X82383333Y-177851904D01*
X82430952Y-177661428D01*
X82430952Y-177423333D01*
X82383333Y-177232857D01*
X82335714Y-177137619D01*
X82288095Y-177090000D01*
X82192857Y-177042380D01*
X80907142Y-178042380D02*
X81478571Y-178042380D01*
X81192857Y-178042380D02*
X81192857Y-177042380D01*
X81288095Y-177185238D01*
X81383333Y-177280476D01*
X81478571Y-177328095D01*
X80573809Y-178042380D02*
X80050000Y-177375714D01*
X80573809Y-177375714D02*
X80050000Y-178042380D01*
X79478571Y-177042380D02*
X79383333Y-177042380D01*
X79288095Y-177090000D01*
X79240476Y-177137619D01*
X79192857Y-177232857D01*
X79145238Y-177423333D01*
X79145238Y-177661428D01*
X79192857Y-177851904D01*
X79240476Y-177947142D01*
X79288095Y-177994761D01*
X79383333Y-178042380D01*
X79478571Y-178042380D01*
X79573809Y-177994761D01*
X79621428Y-177947142D01*
X79669047Y-177851904D01*
X79716666Y-177661428D01*
X79716666Y-177423333D01*
X79669047Y-177232857D01*
X79621428Y-177137619D01*
X79573809Y-177090000D01*
X79478571Y-177042380D01*
X78192857Y-178042380D02*
X78764285Y-178042380D01*
X78478571Y-178042380D02*
X78478571Y-177042380D01*
X78573809Y-177185238D01*
X78669047Y-177280476D01*
X78764285Y-177328095D01*
X82002380Y-173974285D02*
X82716666Y-173974285D01*
X82859523Y-173926666D01*
X82954761Y-173831428D01*
X83002380Y-173688571D01*
X83002380Y-173593333D01*
X83002380Y-174974285D02*
X83002380Y-174402857D01*
X83002380Y-174688571D02*
X82002380Y-174688571D01*
X82145238Y-174593333D01*
X82240476Y-174498095D01*
X82288095Y-174402857D01*
X82002380Y-175593333D02*
X82002380Y-175688571D01*
X82050000Y-175783809D01*
X82097619Y-175831428D01*
X82192857Y-175879047D01*
X82383333Y-175926666D01*
X82621428Y-175926666D01*
X82811904Y-175879047D01*
X82907142Y-175831428D01*
X82954761Y-175783809D01*
X83002380Y-175688571D01*
X83002380Y-175593333D01*
X82954761Y-175498095D01*
X82907142Y-175450476D01*
X82811904Y-175402857D01*
X82621428Y-175355238D01*
X82383333Y-175355238D01*
X82192857Y-175402857D01*
X82097619Y-175450476D01*
X82050000Y-175498095D01*
X82002380Y-175593333D01*
X82335714Y-176783809D02*
X83002380Y-176783809D01*
X81954761Y-176545714D02*
X82669047Y-176307619D01*
X82669047Y-176926666D01*
D11*
X83820000Y-151765000D02*
X83185000Y-151130000D01*
X83820000Y-153670000D02*
X83820000Y-151765000D01*
X81280000Y-151130000D02*
X81280000Y-153670000D01*
X83185000Y-151130000D02*
X81280000Y-151130000D01*
X81280000Y-153670000D02*
X83820000Y-153670000D01*
X91440000Y-39370000D02*
X91440000Y-37465000D01*
X88900000Y-36830000D02*
X88900000Y-39370000D01*
X88900000Y-39370000D02*
X91440000Y-39370000D01*
X90805000Y-36830000D02*
X88900000Y-36830000D01*
X91440000Y-37465000D02*
X90805000Y-36830000D01*
X81280000Y-26670000D02*
X81280000Y-29210000D01*
X81280000Y-29210000D02*
X83820000Y-29210000D01*
X83820000Y-27305000D02*
X83185000Y-26670000D01*
X83185000Y-26670000D02*
X81280000Y-26670000D01*
X83820000Y-29210000D02*
X83820000Y-27305000D01*
X81280000Y-74930000D02*
X81280000Y-77470000D01*
X83185000Y-74930000D02*
X81280000Y-74930000D01*
X83820000Y-75565000D02*
X83185000Y-74930000D01*
X81280000Y-77470000D02*
X83820000Y-77470000D01*
X83820000Y-77470000D02*
X83820000Y-75565000D01*
X91440000Y-153670000D02*
X91440000Y-151765000D01*
X91440000Y-151765000D02*
X90805000Y-151130000D01*
X88900000Y-151130000D02*
X88900000Y-153670000D01*
X88900000Y-153670000D02*
X91440000Y-153670000D01*
X90805000Y-151130000D02*
X88900000Y-151130000D01*
X88900000Y-173990000D02*
X88900000Y-176530000D01*
X90805000Y-173990000D02*
X88900000Y-173990000D01*
X91440000Y-176530000D02*
X91440000Y-174625000D01*
X88900000Y-176530000D02*
X91440000Y-176530000D01*
X91440000Y-174625000D02*
X90805000Y-173990000D01*
X83820000Y-177165000D02*
X83185000Y-176530000D01*
X83820000Y-179070000D02*
X83820000Y-177165000D01*
X83185000Y-176530000D02*
X81280000Y-176530000D01*
X81280000Y-179070000D02*
X83820000Y-179070000D01*
X81280000Y-176530000D02*
X81280000Y-179070000D01*
X81280000Y-46990000D02*
X83820000Y-46990000D01*
X83820000Y-45085000D02*
X83185000Y-44450000D01*
X81280000Y-44450000D02*
X81280000Y-46990000D01*
X83185000Y-44450000D02*
X81280000Y-44450000D01*
X83820000Y-46990000D02*
X83820000Y-45085000D01*
X88900000Y-34290000D02*
X88900000Y-36830000D01*
X91440000Y-36830000D02*
X91440000Y-34925000D01*
X91440000Y-34925000D02*
X90805000Y-34290000D01*
X90805000Y-34290000D02*
X88900000Y-34290000D01*
X88900000Y-36830000D02*
X91440000Y-36830000D01*
X88900000Y-166370000D02*
X88900000Y-168910000D01*
X91440000Y-168910000D02*
X91440000Y-167005000D01*
X88900000Y-168910000D02*
X91440000Y-168910000D01*
X91440000Y-167005000D02*
X90805000Y-166370000D01*
X90805000Y-166370000D02*
X88900000Y-166370000D01*
X88900000Y-46990000D02*
X91440000Y-46990000D01*
X88900000Y-44450000D02*
X88900000Y-46990000D01*
X91440000Y-45085000D02*
X90805000Y-44450000D01*
X90805000Y-44450000D02*
X88900000Y-44450000D01*
X91440000Y-46990000D02*
X91440000Y-45085000D01*
X83820000Y-138430000D02*
X83820000Y-136525000D01*
X81280000Y-135890000D02*
X81280000Y-138430000D01*
X83185000Y-135890000D02*
X81280000Y-135890000D01*
X81280000Y-138430000D02*
X83820000Y-138430000D01*
X83820000Y-136525000D02*
X83185000Y-135890000D01*
X81280000Y-29210000D02*
X81280000Y-31750000D01*
X83820000Y-31750000D02*
X83820000Y-29845000D01*
X83185000Y-29210000D02*
X81280000Y-29210000D01*
X83820000Y-29845000D02*
X83185000Y-29210000D01*
X81280000Y-31750000D02*
X83820000Y-31750000D01*
X83820000Y-168910000D02*
X83820000Y-167005000D01*
X81280000Y-166370000D02*
X81280000Y-168910000D01*
X83820000Y-167005000D02*
X83185000Y-166370000D01*
X81280000Y-168910000D02*
X83820000Y-168910000D01*
X83185000Y-166370000D02*
X81280000Y-166370000D01*
X83820000Y-36830000D02*
X83820000Y-34925000D01*
X81280000Y-34290000D02*
X81280000Y-36830000D01*
X83820000Y-34925000D02*
X83185000Y-34290000D01*
X83185000Y-34290000D02*
X81280000Y-34290000D01*
X81280000Y-36830000D02*
X83820000Y-36830000D01*
X88900000Y-34290000D02*
X91440000Y-34290000D01*
X91440000Y-34290000D02*
X91440000Y-32385000D01*
X88900000Y-31750000D02*
X88900000Y-34290000D01*
X91440000Y-32385000D02*
X90805000Y-31750000D01*
X90805000Y-31750000D02*
X88900000Y-31750000D01*
X83820000Y-90805000D02*
X83185000Y-90170000D01*
X83185000Y-90170000D02*
X81280000Y-90170000D01*
X83820000Y-92710000D02*
X83820000Y-90805000D01*
X81280000Y-90170000D02*
X81280000Y-92710000D01*
X81280000Y-92710000D02*
X83820000Y-92710000D01*
X88900000Y-62230000D02*
X91440000Y-62230000D01*
X90805000Y-59690000D02*
X88900000Y-59690000D01*
X91440000Y-60325000D02*
X90805000Y-59690000D01*
X91440000Y-62230000D02*
X91440000Y-60325000D01*
X88900000Y-59690000D02*
X88900000Y-62230000D01*
X83820000Y-60325000D02*
X83185000Y-59690000D01*
X83185000Y-59690000D02*
X81280000Y-59690000D01*
X83820000Y-62230000D02*
X83820000Y-60325000D01*
X81280000Y-62230000D02*
X83820000Y-62230000D01*
X81280000Y-59690000D02*
X81280000Y-62230000D01*
X88900000Y-31750000D02*
X91440000Y-31750000D01*
X90805000Y-29210000D02*
X88900000Y-29210000D01*
X91440000Y-31750000D02*
X91440000Y-29845000D01*
X91440000Y-29845000D02*
X90805000Y-29210000D01*
X88900000Y-29210000D02*
X88900000Y-31750000D01*
X91440000Y-29210000D02*
X91440000Y-27305000D01*
X90805000Y-26670000D02*
X88900000Y-26670000D01*
X91440000Y-27305000D02*
X90805000Y-26670000D01*
X88900000Y-29210000D02*
X91440000Y-29210000D01*
X88900000Y-26670000D02*
X88900000Y-29210000D01*
X91440000Y-75565000D02*
X90805000Y-74930000D01*
X88900000Y-74930000D02*
X88900000Y-77470000D01*
X91440000Y-77470000D02*
X91440000Y-75565000D01*
X88900000Y-77470000D02*
X91440000Y-77470000D01*
X90805000Y-74930000D02*
X88900000Y-74930000D01*
X83185000Y-31750000D02*
X81280000Y-31750000D01*
X81280000Y-31750000D02*
X81280000Y-34290000D01*
X83820000Y-32385000D02*
X83185000Y-31750000D01*
X83820000Y-34290000D02*
X83820000Y-32385000D01*
X81280000Y-34290000D02*
X83820000Y-34290000D01*
X88900000Y-179070000D02*
X91440000Y-179070000D01*
X88900000Y-176530000D02*
X88900000Y-179070000D01*
X90805000Y-176530000D02*
X88900000Y-176530000D01*
X91440000Y-177165000D02*
X90805000Y-176530000D01*
X91440000Y-179070000D02*
X91440000Y-177165000D01*
X83820000Y-39370000D02*
X83820000Y-37465000D01*
X81280000Y-36830000D02*
X81280000Y-39370000D01*
X83185000Y-36830000D02*
X81280000Y-36830000D01*
X81280000Y-39370000D02*
X83820000Y-39370000D01*
X83820000Y-37465000D02*
X83185000Y-36830000D01*
X81280000Y-107950000D02*
X83820000Y-107950000D01*
X83820000Y-106045000D02*
X83185000Y-105410000D01*
X83820000Y-107950000D02*
X83820000Y-106045000D01*
X83185000Y-105410000D02*
X81280000Y-105410000D01*
X81280000Y-105410000D02*
X81280000Y-107950000D01*
X91440000Y-107950000D02*
X91440000Y-106045000D01*
X91440000Y-106045000D02*
X90805000Y-105410000D01*
X90805000Y-105410000D02*
X88900000Y-105410000D01*
X88900000Y-107950000D02*
X91440000Y-107950000D01*
X88900000Y-105410000D02*
X88900000Y-107950000D01*
X88900000Y-90170000D02*
X88900000Y-92710000D01*
X88900000Y-92710000D02*
X91440000Y-92710000D01*
X90805000Y-90170000D02*
X88900000Y-90170000D01*
X91440000Y-90805000D02*
X90805000Y-90170000D01*
X91440000Y-92710000D02*
X91440000Y-90805000D01*
X91440000Y-136525000D02*
X90805000Y-135890000D01*
X91440000Y-138430000D02*
X91440000Y-136525000D01*
X88900000Y-138430000D02*
X91440000Y-138430000D01*
X90805000Y-135890000D02*
X88900000Y-135890000D01*
X88900000Y-135890000D02*
X88900000Y-138430000D01*
X88900000Y-123190000D02*
X91440000Y-123190000D01*
X91440000Y-121285000D02*
X90805000Y-120650000D01*
X90805000Y-120650000D02*
X88900000Y-120650000D01*
X91440000Y-123190000D02*
X91440000Y-121285000D01*
X88900000Y-120650000D02*
X88900000Y-123190000D01*
X81280000Y-123190000D02*
X83820000Y-123190000D01*
X81280000Y-120650000D02*
X81280000Y-123190000D01*
X83820000Y-121285000D02*
X83185000Y-120650000D01*
X83185000Y-120650000D02*
X81280000Y-120650000D01*
X83820000Y-123190000D02*
X83820000Y-121285000D01*
X83185000Y-173990000D02*
X81280000Y-173990000D01*
X81280000Y-173990000D02*
X81280000Y-176530000D01*
X83820000Y-174625000D02*
X83185000Y-173990000D01*
X81280000Y-176530000D02*
X83820000Y-176530000D01*
X83820000Y-176530000D02*
X83820000Y-174625000D01*
M02*
