%TF.GenerationSoftware,KiCad,Pcbnew,7.0.8*%
%TF.CreationDate,2023-10-19T22:48:38-06:00*%
%TF.ProjectId,RP2040-Breadstick,52503230-3430-42d4-9272-656164737469,0.2*%
%TF.SameCoordinates,Original*%
%TF.FileFunction,Drillmap*%
%TF.FilePolarity,Positive*%
%FSLAX45Y45*%
G04 Gerber Fmt 4.5, Leading zero omitted, Abs format (unit mm)*
G04 Created by KiCad (PCBNEW 7.0.8) date 2023-10-19 22:48:38*
%MOMM*%
%LPD*%
G01*
G04 APERTURE LIST*
%ADD10C,0.100000*%
%ADD11C,0.200000*%
G04 APERTURE END LIST*
D10*
X9017000Y-1651000D02*
X8255000Y-1651000D01*
X8128000Y-1778000D02*
X8128000Y-17907000D01*
X8255000Y-18034000D02*
X9017000Y-18034000D01*
X8128000Y-17907000D02*
G75*
G03*
X8255000Y-18034000I127000J0D01*
G01*
X9144000Y-1778000D02*
G75*
G03*
X9017000Y-1651000I-127000J0D01*
G01*
X8255000Y-1651000D02*
G75*
G03*
X8128000Y-1778000I0J-127000D01*
G01*
X9144000Y-17907000D02*
X9144000Y-1778000D01*
X9017000Y-18034000D02*
G75*
G03*
X9144000Y-17907000I0J127000D01*
G01*
D11*
X8383777Y-18350484D02*
X8383777Y-18150484D01*
X8383777Y-18150484D02*
X8431396Y-18150484D01*
X8431396Y-18150484D02*
X8459967Y-18160008D01*
X8459967Y-18160008D02*
X8479015Y-18179055D01*
X8479015Y-18179055D02*
X8488539Y-18198103D01*
X8488539Y-18198103D02*
X8498063Y-18236198D01*
X8498063Y-18236198D02*
X8498063Y-18264770D01*
X8498063Y-18264770D02*
X8488539Y-18302865D01*
X8488539Y-18302865D02*
X8479015Y-18321912D01*
X8479015Y-18321912D02*
X8459967Y-18340960D01*
X8459967Y-18340960D02*
X8431396Y-18350484D01*
X8431396Y-18350484D02*
X8383777Y-18350484D01*
X8583777Y-18350484D02*
X8583777Y-18217150D01*
X8583777Y-18255246D02*
X8593301Y-18236198D01*
X8593301Y-18236198D02*
X8602824Y-18226674D01*
X8602824Y-18226674D02*
X8621872Y-18217150D01*
X8621872Y-18217150D02*
X8640920Y-18217150D01*
X8707586Y-18350484D02*
X8707586Y-18217150D01*
X8707586Y-18150484D02*
X8698063Y-18160008D01*
X8698063Y-18160008D02*
X8707586Y-18169531D01*
X8707586Y-18169531D02*
X8717110Y-18160008D01*
X8717110Y-18160008D02*
X8707586Y-18150484D01*
X8707586Y-18150484D02*
X8707586Y-18169531D01*
X8831396Y-18350484D02*
X8812348Y-18340960D01*
X8812348Y-18340960D02*
X8802824Y-18321912D01*
X8802824Y-18321912D02*
X8802824Y-18150484D01*
X8936158Y-18350484D02*
X8917110Y-18340960D01*
X8917110Y-18340960D02*
X8907586Y-18321912D01*
X8907586Y-18321912D02*
X8907586Y-18150484D01*
X9164729Y-18350484D02*
X9164729Y-18150484D01*
X9164729Y-18150484D02*
X9231396Y-18293341D01*
X9231396Y-18293341D02*
X9298063Y-18150484D01*
X9298063Y-18150484D02*
X9298063Y-18350484D01*
X9479015Y-18350484D02*
X9479015Y-18245722D01*
X9479015Y-18245722D02*
X9469491Y-18226674D01*
X9469491Y-18226674D02*
X9450444Y-18217150D01*
X9450444Y-18217150D02*
X9412348Y-18217150D01*
X9412348Y-18217150D02*
X9393301Y-18226674D01*
X9479015Y-18340960D02*
X9459967Y-18350484D01*
X9459967Y-18350484D02*
X9412348Y-18350484D01*
X9412348Y-18350484D02*
X9393301Y-18340960D01*
X9393301Y-18340960D02*
X9383777Y-18321912D01*
X9383777Y-18321912D02*
X9383777Y-18302865D01*
X9383777Y-18302865D02*
X9393301Y-18283817D01*
X9393301Y-18283817D02*
X9412348Y-18274293D01*
X9412348Y-18274293D02*
X9459967Y-18274293D01*
X9459967Y-18274293D02*
X9479015Y-18264770D01*
X9574253Y-18217150D02*
X9574253Y-18417150D01*
X9574253Y-18226674D02*
X9593301Y-18217150D01*
X9593301Y-18217150D02*
X9631396Y-18217150D01*
X9631396Y-18217150D02*
X9650444Y-18226674D01*
X9650444Y-18226674D02*
X9659967Y-18236198D01*
X9659967Y-18236198D02*
X9669491Y-18255246D01*
X9669491Y-18255246D02*
X9669491Y-18312389D01*
X9669491Y-18312389D02*
X9659967Y-18331436D01*
X9659967Y-18331436D02*
X9650444Y-18340960D01*
X9650444Y-18340960D02*
X9631396Y-18350484D01*
X9631396Y-18350484D02*
X9593301Y-18350484D01*
X9593301Y-18350484D02*
X9574253Y-18340960D01*
X9755205Y-18331436D02*
X9764729Y-18340960D01*
X9764729Y-18340960D02*
X9755205Y-18350484D01*
X9755205Y-18350484D02*
X9745682Y-18340960D01*
X9745682Y-18340960D02*
X9755205Y-18331436D01*
X9755205Y-18331436D02*
X9755205Y-18350484D01*
X9755205Y-18226674D02*
X9764729Y-18236198D01*
X9764729Y-18236198D02*
X9755205Y-18245722D01*
X9755205Y-18245722D02*
X9745682Y-18236198D01*
X9745682Y-18236198D02*
X9755205Y-18226674D01*
X9755205Y-18226674D02*
X9755205Y-18245722D01*
M02*
