M48
; DRILL file {KiCad (6.0.4)} date Sun Sep 17 11:04:38 2023
; FORMAT={-:-/ absolute / metric / decimal}
; #@! TF.CreationDate,2023-09-17T11:04:38-06:00
; #@! TF.GenerationSoftware,Kicad,Pcbnew,(6.0.4)
; #@! TF.FileFunction,Plated,1,6,PTH
FMAT,2
METRIC
; #@! TA.AperFunction,Plated,PTH,ViaDrill
T1C0.300
; #@! TA.AperFunction,Plated,PTH,ComponentDrill
T2C0.600
; #@! TA.AperFunction,Plated,PTH,ComponentDrill
T3C1.000
%
G90
G05
T1
X81.966Y-69.291
X81.99Y-70.206
X81.991Y-25.197
X82.003Y-67.289
X82.009Y-68.153
X82.014Y-71.38
X82.017Y-132.055
X82.042Y-101.6
X82.042Y-162.535
X82.144Y-79.6
X82.55Y-58.928
X82.55Y-64.643
X82.702Y-87.503
X82.749Y-88.726
X83.058Y-132.055
X83.083Y-101.6
X83.083Y-162.535
X83.16Y-22.555
X83.16Y-25.196
X83.312Y-42.799
X83.312Y-43.688
X83.388Y-51.511
X83.439Y-48.768
X83.503Y-49.894
X83.566Y-40.259
X83.8Y-85.709
X83.846Y-66.896
X83.945Y-69.04
X83.98Y-79.63
X84.134Y-67.698
X84.308Y-69.926
X84.634Y-24.586
X85.093Y-51.239
X85.49Y-62.62
X85.548Y-63.489
X85.806Y-64.301
X85.938Y-70.95
X85.956Y-25.477
X86.228Y-76.903
X86.36Y-26.314
X86.36Y-42.799
X86.36Y-43.688
X86.36Y-51.232
X86.36Y-81.204
X86.36Y-97.155
X86.36Y-100.965
X86.36Y-104.775
X86.36Y-108.585
X86.36Y-111.76
X86.36Y-115.57
X86.36Y-119.38
X86.36Y-123.19
X86.36Y-127.0
X86.36Y-130.81
X86.36Y-134.62
X86.36Y-138.43
X86.36Y-142.24
X86.36Y-146.05
X86.36Y-149.86
X86.36Y-153.67
X86.36Y-156.845
X86.36Y-160.655
X86.36Y-164.465
X86.36Y-168.275
X86.36Y-172.085
X86.36Y-175.895
X86.487Y-66.396
X86.758Y-64.521
X86.808Y-25.47
X87.122Y-53.594
X87.122Y-56.134
X87.179Y-72.94
X87.348Y-71.103
X87.376Y-67.818
X87.478Y-69.621
X87.506Y-66.063
X87.6Y-63.13
X87.63Y-51.232
X88.2Y-71.093
X88.75Y-64.52
X88.751Y-73.661
X88.773Y-67.056
X88.779Y-68.818
X88.816Y-69.669
X88.873Y-66.067
X88.873Y-67.97
X89.008Y-56.649
X89.408Y-42.799
X89.408Y-43.688
X89.516Y-57.429
X89.55Y-24.81
X89.56Y-22.556
X89.789Y-51.435
X89.958Y-56.649
X90.399Y-72.187
X90.424Y-79.629
X90.424Y-80.645
X90.451Y-78.562
X90.526Y-25.146
X90.58Y-73.025
X90.71Y-67.009
X90.716Y-67.861
X90.717Y-68.713
X90.717Y-71.269
X90.718Y-69.565
X90.718Y-70.417
T3
X82.55Y-27.94
X82.55Y-30.48
X82.55Y-33.02
X82.55Y-35.56
X82.55Y-38.1
X82.55Y-45.72
X82.55Y-60.96
X82.55Y-76.2
X82.55Y-91.44
X82.55Y-106.68
X82.55Y-121.92
X82.55Y-137.16
X82.55Y-152.4
X82.55Y-167.64
X82.55Y-175.26
X82.55Y-177.8
X90.17Y-27.94
X90.17Y-30.48
X90.17Y-33.02
X90.17Y-35.56
X90.17Y-38.1
X90.17Y-45.72
X90.17Y-60.96
X90.17Y-76.2
X90.17Y-91.44
X90.17Y-106.68
X90.17Y-121.92
X90.17Y-137.16
X90.17Y-152.4
X90.17Y-167.64
X90.17Y-175.26
X90.17Y-177.8
T2
X82.04Y-19.648G85X82.04Y-18.448
G05
X82.04Y-23.448G85X82.04Y-22.648
G05
X90.68Y-19.648G85X90.68Y-18.448
G05
X90.68Y-23.448G85X90.68Y-22.648
G05
T0
M30
