%TF.GenerationSoftware,KiCad,Pcbnew,7.0.8*%
%TF.CreationDate,2023-10-19T22:48:26-06:00*%
%TF.ProjectId,RP2040-Breadstick,52503230-3430-42d4-9272-656164737469,0.2*%
%TF.SameCoordinates,Original*%
%TF.FileFunction,Copper,L3,Inr*%
%TF.FilePolarity,Positive*%
%FSLAX46Y46*%
G04 Gerber Fmt 4.6, Leading zero omitted, Abs format (unit mm)*
G04 Created by KiCad (PCBNEW 7.0.8) date 2023-10-19 22:48:26*
%MOMM*%
%LPD*%
G01*
G04 APERTURE LIST*
%TA.AperFunction,ComponentPad*%
%ADD10O,1.000000X1.800000*%
%TD*%
%TA.AperFunction,ComponentPad*%
%ADD11O,1.000000X2.200000*%
%TD*%
%TA.AperFunction,ComponentPad*%
%ADD12R,1.700000X1.700000*%
%TD*%
%TA.AperFunction,ViaPad*%
%ADD13C,0.700000*%
%TD*%
%TA.AperFunction,Conductor*%
%ADD14C,0.152400*%
%TD*%
%TA.AperFunction,Conductor*%
%ADD15C,0.508000*%
%TD*%
G04 APERTURE END LIST*
D10*
X90680000Y-23048200D03*
D11*
X90680000Y-19048199D03*
D10*
X82040000Y-23048200D03*
D11*
X82040000Y-19048199D03*
D12*
X82550000Y-152400000D03*
X82550000Y-76200000D03*
X90170000Y-152400000D03*
X82550000Y-177800000D03*
X82550000Y-175260000D03*
X82550000Y-45720000D03*
X90170000Y-167640000D03*
X90170000Y-45720000D03*
X82550000Y-137160000D03*
X82550000Y-167640000D03*
X82550000Y-91440000D03*
X90170000Y-60960000D03*
X82550000Y-60960000D03*
X90170000Y-76200000D03*
X90170000Y-27940000D03*
X90170000Y-30480000D03*
X90170000Y-33020000D03*
X90170000Y-35560000D03*
X90170000Y-38100000D03*
X90170000Y-177800000D03*
X90170000Y-175260000D03*
X82550000Y-27940000D03*
X82550000Y-30480000D03*
X82550000Y-33020000D03*
X82550000Y-35560000D03*
X82550000Y-38100000D03*
X82550000Y-106680000D03*
X90170000Y-106680000D03*
X90170000Y-91440000D03*
X90170000Y-137160000D03*
X90170000Y-121920000D03*
X82550000Y-121920000D03*
D13*
X86360000Y-119253000D03*
X86360000Y-26314400D03*
X83160001Y-22554799D03*
X86359989Y-126655205D03*
X86360000Y-101092000D03*
X86360000Y-112395000D03*
X87477600Y-69621400D03*
X83058000Y-132054600D03*
X87376000Y-67818000D03*
X89560001Y-22555599D03*
X86360000Y-108585000D03*
X83843100Y-84961933D03*
X86360011Y-96824800D03*
X86360439Y-79878086D03*
X86360000Y-146050000D03*
X86360000Y-161163000D03*
X90678000Y-73025000D03*
X83083400Y-101600000D03*
X86360000Y-138430000D03*
X88284300Y-81940400D03*
X86360000Y-172339000D03*
X90525600Y-25146000D03*
X86156800Y-62001400D03*
X90049100Y-51562000D03*
X86360011Y-149352000D03*
X86360000Y-134620000D03*
X83108800Y-40589200D03*
X87122000Y-53594000D03*
X86360011Y-131191000D03*
X89550000Y-24810000D03*
X86360000Y-164846000D03*
X83160001Y-25196399D03*
X86487000Y-66395600D03*
X82042000Y-162534600D03*
X83439000Y-48768000D03*
X86360000Y-123063000D03*
X86360000Y-153670000D03*
X86227777Y-76903063D03*
X86360000Y-43688000D03*
X83846437Y-66895685D03*
X86360000Y-115570000D03*
X83083400Y-162534600D03*
X82016600Y-132054600D03*
X88773000Y-67056000D03*
X82804000Y-87858600D03*
X86360000Y-104521000D03*
X86360000Y-168656000D03*
X86360000Y-157099000D03*
X82003310Y-67288648D03*
X86360000Y-142494000D03*
X87122000Y-56134000D03*
X82042000Y-101600000D03*
X86360000Y-176149000D03*
X86360000Y-42799000D03*
X89516200Y-57429400D03*
X87505892Y-66062725D03*
X87178878Y-72966251D03*
X84133900Y-67697620D03*
X82009339Y-68153367D03*
X83944621Y-69039579D03*
X89008237Y-56648535D03*
X85955669Y-25476772D03*
X89958237Y-56648535D03*
X86807546Y-25470197D03*
X87347767Y-71103250D03*
X88873071Y-66066855D03*
X87833200Y-40620713D03*
X88750921Y-73660948D03*
X90709595Y-67009238D03*
X90716395Y-67861113D03*
X88199607Y-71092861D03*
X81991200Y-25196800D03*
X84633903Y-24586097D03*
X83502750Y-49834800D03*
X83335255Y-58117163D03*
X88873100Y-67970000D03*
X90718100Y-69564917D03*
X90716900Y-68713015D03*
X88779481Y-68817922D03*
X90718100Y-70416819D03*
X85938111Y-70950000D03*
X83972400Y-78714600D03*
X89408000Y-43688000D03*
X81965800Y-69291200D03*
X82042000Y-78232000D03*
X89408000Y-42799000D03*
X82550000Y-64643000D03*
X88750000Y-64520000D03*
X86758100Y-64520900D03*
X83388200Y-51511200D03*
X88816066Y-69669039D03*
X82118200Y-96494600D03*
X82118200Y-95631000D03*
X83312000Y-43688000D03*
X83312000Y-42799000D03*
X85806286Y-64300634D03*
X85092620Y-51239135D03*
X85547518Y-63488984D03*
X86360000Y-51231800D03*
X85490000Y-62620000D03*
X87630000Y-51231800D03*
X83921600Y-70713600D03*
X81990000Y-70205600D03*
X82014265Y-71379914D03*
X90424000Y-72110600D03*
X90716900Y-71268721D03*
D14*
X88750921Y-72996279D02*
X88750921Y-73660948D01*
X89712800Y-72034400D02*
X88750921Y-72996279D01*
X89712800Y-63449200D02*
X89712800Y-72034400D01*
X88087200Y-61823600D02*
X89712800Y-63449200D01*
X88798400Y-48260000D02*
X88798400Y-54102000D01*
X87746879Y-47208479D02*
X88798400Y-48260000D01*
X87746879Y-40707034D02*
X87746879Y-47208479D01*
X87833200Y-40620713D02*
X87746879Y-40707034D01*
X88798400Y-54102000D02*
X88087200Y-54813200D01*
X88087200Y-54813200D02*
X88087200Y-61823600D01*
X87505892Y-66494308D02*
X87505892Y-66062725D01*
X87178878Y-72497678D02*
X86769167Y-72087967D01*
X87178878Y-72966251D02*
X87178878Y-72497678D01*
X86769167Y-67231033D02*
X87505892Y-66494308D01*
X86769167Y-72087967D02*
X86769167Y-67231033D01*
D15*
X83312000Y-42799000D02*
X83312000Y-43688000D01*
X82118200Y-95478600D02*
X82118200Y-95631000D01*
X82118200Y-95631000D02*
X82118200Y-96494600D01*
X84258650Y-44634650D02*
X84258650Y-65564250D01*
X85182189Y-66487789D02*
X85182189Y-92414611D01*
X84258650Y-65564250D02*
X85182189Y-66487789D01*
X85182189Y-92414611D02*
X82118200Y-95478600D01*
X83312000Y-43688000D02*
X84258650Y-44634650D01*
%TA.AperFunction,Conductor*%
G36*
X83183537Y-95165993D02*
G01*
X83209257Y-95210542D01*
X83210399Y-95223600D01*
X83210399Y-98095800D01*
X83192806Y-98144138D01*
X83148257Y-98169858D01*
X83135199Y-98171000D01*
X81710799Y-98171000D01*
X81662461Y-98153407D01*
X81636741Y-98108858D01*
X81635599Y-98095811D01*
X81635599Y-95223600D01*
X81653192Y-95175263D01*
X81697741Y-95149543D01*
X81710788Y-95148401D01*
X83135199Y-95148400D01*
X83183537Y-95165993D01*
G37*
%TD.AperFunction*%
%TA.AperFunction,Conductor*%
G36*
X90171634Y-16760643D02*
G01*
X90188136Y-16762086D01*
X90340482Y-16775414D01*
X90353383Y-16777689D01*
X90512344Y-16820282D01*
X90524649Y-16824762D01*
X90655280Y-16885676D01*
X90673786Y-16894306D01*
X90685138Y-16900860D01*
X90819934Y-16995245D01*
X90829975Y-17003671D01*
X90946328Y-17120024D01*
X90954754Y-17130065D01*
X91049139Y-17264861D01*
X91055693Y-17276213D01*
X91125235Y-17425344D01*
X91129719Y-17437662D01*
X91172309Y-17596612D01*
X91174585Y-17609521D01*
X91189357Y-17778364D01*
X91189500Y-17781643D01*
X91189500Y-17862528D01*
X91171907Y-17910866D01*
X91127358Y-17936586D01*
X91076700Y-17927653D01*
X91066367Y-17920471D01*
X91032624Y-17892557D01*
X91032616Y-17892552D01*
X90883361Y-17822319D01*
X90883356Y-17822317D01*
X90721324Y-17791409D01*
X90721322Y-17791409D01*
X90556686Y-17801766D01*
X90399797Y-17852742D01*
X90260517Y-17941133D01*
X90147593Y-18061386D01*
X90068124Y-18205939D01*
X90027100Y-18365720D01*
X90027100Y-19689272D01*
X90042585Y-19811858D01*
X90042586Y-19811862D01*
X90103309Y-19965230D01*
X90103311Y-19965235D01*
X90103312Y-19965236D01*
X90200274Y-20098692D01*
X90327378Y-20203842D01*
X90327379Y-20203842D01*
X90327380Y-20203843D01*
X90327383Y-20203845D01*
X90409478Y-20242475D01*
X90476639Y-20274079D01*
X90476641Y-20274079D01*
X90476643Y-20274080D01*
X90534409Y-20285099D01*
X90638678Y-20304989D01*
X90803314Y-20294631D01*
X90960201Y-20243656D01*
X91074005Y-20171432D01*
X91124245Y-20160387D01*
X91169831Y-20184218D01*
X91189434Y-20231776D01*
X91189500Y-20234926D01*
X91189500Y-22062529D01*
X91171907Y-22110867D01*
X91127358Y-22136587D01*
X91076700Y-22127654D01*
X91066367Y-22120472D01*
X91032624Y-22092558D01*
X91032616Y-22092553D01*
X90883361Y-22022320D01*
X90883356Y-22022318D01*
X90721324Y-21991410D01*
X90721322Y-21991410D01*
X90556686Y-22001767D01*
X90399797Y-22052743D01*
X90260517Y-22141134D01*
X90147594Y-22261386D01*
X90127344Y-22298220D01*
X90088639Y-22332102D01*
X90037210Y-22333179D01*
X89997122Y-22300945D01*
X89993041Y-22293228D01*
X89987419Y-22280916D01*
X89915316Y-22197706D01*
X89892717Y-22171625D01*
X89771061Y-22093441D01*
X89771060Y-22093440D01*
X89771059Y-22093440D01*
X89632309Y-22052699D01*
X89632307Y-22052699D01*
X89487695Y-22052699D01*
X89487692Y-22052699D01*
X89348942Y-22093440D01*
X89227285Y-22171625D01*
X89132582Y-22280917D01*
X89072511Y-22412453D01*
X89072511Y-22412455D01*
X89072510Y-22412457D01*
X89072510Y-22412459D01*
X89051930Y-22555599D01*
X89072510Y-22698739D01*
X89072510Y-22698740D01*
X89072511Y-22698742D01*
X89072511Y-22698744D01*
X89132582Y-22830280D01*
X89132583Y-22830281D01*
X89132584Y-22830283D01*
X89227285Y-22939573D01*
X89348941Y-23017757D01*
X89487695Y-23058499D01*
X89487698Y-23058499D01*
X89632304Y-23058499D01*
X89632307Y-23058499D01*
X89771061Y-23017757D01*
X89892717Y-22939573D01*
X89895068Y-22936859D01*
X89940017Y-22911850D01*
X89990528Y-22921584D01*
X90022964Y-22961508D01*
X90027100Y-22986105D01*
X90027100Y-23489273D01*
X90042585Y-23611859D01*
X90042586Y-23611863D01*
X90103309Y-23765231D01*
X90103311Y-23765236D01*
X90103312Y-23765237D01*
X90200274Y-23898693D01*
X90327378Y-24003843D01*
X90327379Y-24003843D01*
X90327380Y-24003844D01*
X90327383Y-24003846D01*
X90409478Y-24042476D01*
X90476639Y-24074080D01*
X90476641Y-24074080D01*
X90476643Y-24074081D01*
X90524433Y-24083197D01*
X90638678Y-24104990D01*
X90803314Y-24094632D01*
X90960201Y-24043657D01*
X91074005Y-23971433D01*
X91124245Y-23960388D01*
X91169831Y-23984219D01*
X91189434Y-24031777D01*
X91189500Y-24034927D01*
X91189500Y-26878925D01*
X91171907Y-26927263D01*
X91127358Y-26952983D01*
X91085524Y-26948402D01*
X91079659Y-26945973D01*
X91079658Y-26945972D01*
X91035057Y-26937100D01*
X89304944Y-26937100D01*
X89304942Y-26937101D01*
X89260340Y-26945972D01*
X89209767Y-26979764D01*
X89175972Y-27030342D01*
X89175971Y-27030343D01*
X89167100Y-27074942D01*
X89167100Y-28805055D01*
X89167101Y-28805057D01*
X89175972Y-28849659D01*
X89209764Y-28900232D01*
X89209765Y-28900232D01*
X89209766Y-28900234D01*
X89260342Y-28934028D01*
X89304943Y-28942900D01*
X91035056Y-28942899D01*
X91079658Y-28934028D01*
X91079660Y-28934026D01*
X91085526Y-28931598D01*
X91136917Y-28929357D01*
X91177725Y-28960674D01*
X91189500Y-29001075D01*
X91189500Y-29418925D01*
X91171907Y-29467263D01*
X91127358Y-29492983D01*
X91085524Y-29488402D01*
X91079659Y-29485973D01*
X91079658Y-29485972D01*
X91035057Y-29477100D01*
X89304944Y-29477100D01*
X89304942Y-29477101D01*
X89260340Y-29485972D01*
X89209767Y-29519764D01*
X89175972Y-29570342D01*
X89175971Y-29570343D01*
X89167100Y-29614942D01*
X89167100Y-31345055D01*
X89167101Y-31345057D01*
X89175972Y-31389659D01*
X89209764Y-31440232D01*
X89209765Y-31440232D01*
X89209766Y-31440234D01*
X89260342Y-31474028D01*
X89304943Y-31482900D01*
X91035056Y-31482899D01*
X91079658Y-31474028D01*
X91079660Y-31474026D01*
X91085526Y-31471598D01*
X91136917Y-31469357D01*
X91177725Y-31500674D01*
X91189500Y-31541075D01*
X91189500Y-31958925D01*
X91171907Y-32007263D01*
X91127358Y-32032983D01*
X91085524Y-32028402D01*
X91079659Y-32025973D01*
X91079658Y-32025972D01*
X91035057Y-32017100D01*
X89304944Y-32017100D01*
X89304942Y-32017101D01*
X89260340Y-32025972D01*
X89209767Y-32059764D01*
X89175972Y-32110342D01*
X89175971Y-32110343D01*
X89167100Y-32154942D01*
X89167100Y-33885055D01*
X89167101Y-33885057D01*
X89175972Y-33929659D01*
X89209764Y-33980232D01*
X89209765Y-33980232D01*
X89209766Y-33980234D01*
X89260342Y-34014028D01*
X89304943Y-34022900D01*
X91035056Y-34022899D01*
X91079658Y-34014028D01*
X91079660Y-34014026D01*
X91085526Y-34011598D01*
X91136917Y-34009357D01*
X91177725Y-34040674D01*
X91189500Y-34081075D01*
X91189500Y-37038925D01*
X91171907Y-37087263D01*
X91127358Y-37112983D01*
X91085524Y-37108402D01*
X91079659Y-37105973D01*
X91079658Y-37105972D01*
X91035057Y-37097100D01*
X89304944Y-37097100D01*
X89304942Y-37097101D01*
X89260340Y-37105972D01*
X89209767Y-37139764D01*
X89175972Y-37190342D01*
X89175971Y-37190343D01*
X89167100Y-37234942D01*
X89167100Y-38965055D01*
X89167101Y-38965057D01*
X89175972Y-39009659D01*
X89209764Y-39060232D01*
X89209765Y-39060232D01*
X89209766Y-39060234D01*
X89260342Y-39094028D01*
X89304943Y-39102900D01*
X91035056Y-39102899D01*
X91079658Y-39094028D01*
X91079660Y-39094026D01*
X91085526Y-39091598D01*
X91136917Y-39089357D01*
X91177725Y-39120674D01*
X91189500Y-39161075D01*
X91189500Y-44658925D01*
X91171907Y-44707263D01*
X91127358Y-44732983D01*
X91085524Y-44728402D01*
X91079659Y-44725973D01*
X91079658Y-44725972D01*
X91035057Y-44717100D01*
X89304944Y-44717100D01*
X89304942Y-44717101D01*
X89260340Y-44725972D01*
X89209767Y-44759764D01*
X89175972Y-44810342D01*
X89175971Y-44810343D01*
X89167100Y-44854942D01*
X89167100Y-46585055D01*
X89167101Y-46585057D01*
X89175972Y-46629659D01*
X89209764Y-46680232D01*
X89209765Y-46680232D01*
X89209766Y-46680234D01*
X89260342Y-46714028D01*
X89304943Y-46722900D01*
X91035056Y-46722899D01*
X91079658Y-46714028D01*
X91079660Y-46714026D01*
X91085526Y-46711598D01*
X91136917Y-46709357D01*
X91177725Y-46740674D01*
X91189500Y-46781075D01*
X91189500Y-59898925D01*
X91171907Y-59947263D01*
X91127358Y-59972983D01*
X91085524Y-59968402D01*
X91079659Y-59965973D01*
X91079658Y-59965972D01*
X91035057Y-59957100D01*
X89304944Y-59957100D01*
X89304942Y-59957101D01*
X89260340Y-59965972D01*
X89209767Y-59999764D01*
X89175972Y-60050342D01*
X89175971Y-60050343D01*
X89167100Y-60094942D01*
X89167100Y-61825055D01*
X89167101Y-61825057D01*
X89175972Y-61869659D01*
X89209764Y-61920232D01*
X89209765Y-61920232D01*
X89209766Y-61920234D01*
X89260342Y-61954028D01*
X89304943Y-61962900D01*
X91035056Y-61962899D01*
X91079658Y-61954028D01*
X91079660Y-61954026D01*
X91085526Y-61951598D01*
X91136917Y-61949357D01*
X91177725Y-61980674D01*
X91189500Y-62021075D01*
X91189500Y-66593510D01*
X91171907Y-66641848D01*
X91127358Y-66667568D01*
X91076700Y-66658635D01*
X91057468Y-66642756D01*
X91050146Y-66634306D01*
X91042311Y-66625264D01*
X90920655Y-66547080D01*
X90920654Y-66547079D01*
X90920653Y-66547079D01*
X90781903Y-66506338D01*
X90781901Y-66506338D01*
X90637289Y-66506338D01*
X90637286Y-66506338D01*
X90498536Y-66547079D01*
X90376879Y-66625264D01*
X90282176Y-66734556D01*
X90222105Y-66866092D01*
X90222105Y-66866094D01*
X90222104Y-66866096D01*
X90222104Y-66866098D01*
X90201524Y-67009238D01*
X90222104Y-67152378D01*
X90222104Y-67152379D01*
X90222105Y-67152381D01*
X90222105Y-67152383D01*
X90282176Y-67283919D01*
X90282177Y-67283920D01*
X90282178Y-67283922D01*
X90373969Y-67389854D01*
X90392328Y-67437906D01*
X90375503Y-67486516D01*
X90373969Y-67488345D01*
X90288976Y-67586431D01*
X90228905Y-67717967D01*
X90228905Y-67717969D01*
X90228904Y-67717971D01*
X90228904Y-67717973D01*
X90208324Y-67861113D01*
X90228904Y-68004253D01*
X90228904Y-68004254D01*
X90228905Y-68004256D01*
X90228905Y-68004258D01*
X90288976Y-68135794D01*
X90288977Y-68135795D01*
X90288978Y-68135797D01*
X90377633Y-68238110D01*
X90395992Y-68286162D01*
X90379167Y-68334772D01*
X90377633Y-68336601D01*
X90289481Y-68438333D01*
X90229410Y-68569869D01*
X90229410Y-68569871D01*
X90229409Y-68569873D01*
X90229409Y-68569875D01*
X90208829Y-68713015D01*
X90229409Y-68856155D01*
X90229409Y-68856156D01*
X90229410Y-68856158D01*
X90229410Y-68856160D01*
X90289481Y-68987696D01*
X90289482Y-68987697D01*
X90289483Y-68987699D01*
X90334438Y-69039579D01*
X90378485Y-69090412D01*
X90396844Y-69138465D01*
X90380019Y-69187075D01*
X90378485Y-69188903D01*
X90290683Y-69290232D01*
X90290682Y-69290233D01*
X90230610Y-69421771D01*
X90230610Y-69421773D01*
X90230609Y-69421775D01*
X90230609Y-69421777D01*
X90210029Y-69564917D01*
X90230609Y-69708057D01*
X90230609Y-69708058D01*
X90230610Y-69708060D01*
X90230610Y-69708062D01*
X90290681Y-69839598D01*
X90290682Y-69839599D01*
X90290683Y-69839601D01*
X90339624Y-69896081D01*
X90379085Y-69941622D01*
X90397444Y-69989675D01*
X90380619Y-70038286D01*
X90379085Y-70040114D01*
X90290681Y-70142137D01*
X90230610Y-70273673D01*
X90230610Y-70273675D01*
X90230609Y-70273677D01*
X90230609Y-70273679D01*
X90210029Y-70416819D01*
X90230609Y-70559959D01*
X90230609Y-70559960D01*
X90230610Y-70559962D01*
X90230610Y-70559964D01*
X90290681Y-70691500D01*
X90290682Y-70691501D01*
X90290683Y-70691503D01*
X90378485Y-70792831D01*
X90396844Y-70840884D01*
X90380019Y-70889494D01*
X90378486Y-70891322D01*
X90289481Y-70994039D01*
X90229410Y-71125575D01*
X90229410Y-71125577D01*
X90229409Y-71125579D01*
X90229409Y-71125581D01*
X90208829Y-71268721D01*
X90229409Y-71411861D01*
X90229409Y-71411862D01*
X90229410Y-71411864D01*
X90229410Y-71411866D01*
X90286676Y-71537261D01*
X90290753Y-71588539D01*
X90260915Y-71630441D01*
X90239461Y-71640653D01*
X90212942Y-71648440D01*
X90091283Y-71726626D01*
X90073931Y-71746652D01*
X90028980Y-71771661D01*
X89978470Y-71761925D01*
X89946035Y-71721999D01*
X89941900Y-71697405D01*
X89941900Y-63456193D01*
X89941952Y-63454225D01*
X89944135Y-63412563D01*
X89944134Y-63412562D01*
X89944135Y-63412561D01*
X89935262Y-63389447D01*
X89931915Y-63378151D01*
X89926769Y-63353935D01*
X89921692Y-63346947D01*
X89912325Y-63329695D01*
X89909232Y-63321636D01*
X89909231Y-63321635D01*
X89909229Y-63321632D01*
X89891732Y-63304135D01*
X89884068Y-63295163D01*
X89869521Y-63275140D01*
X89862042Y-63270823D01*
X89846468Y-63258872D01*
X88338326Y-61750729D01*
X88316586Y-61704109D01*
X88316300Y-61697555D01*
X88316300Y-56648535D01*
X88500166Y-56648535D01*
X88520746Y-56791675D01*
X88520746Y-56791676D01*
X88520747Y-56791678D01*
X88520747Y-56791680D01*
X88580818Y-56923216D01*
X88580819Y-56923217D01*
X88580820Y-56923219D01*
X88675521Y-57032509D01*
X88797177Y-57110693D01*
X88935931Y-57151435D01*
X88935934Y-57151435D01*
X88973268Y-57151435D01*
X89021606Y-57169028D01*
X89047326Y-57213577D01*
X89041672Y-57257875D01*
X89028709Y-57286257D01*
X89028709Y-57286260D01*
X89008129Y-57429400D01*
X89028709Y-57572540D01*
X89028709Y-57572541D01*
X89028710Y-57572543D01*
X89028710Y-57572545D01*
X89088781Y-57704081D01*
X89088782Y-57704082D01*
X89088783Y-57704084D01*
X89183484Y-57813374D01*
X89305140Y-57891558D01*
X89443894Y-57932300D01*
X89443897Y-57932300D01*
X89588503Y-57932300D01*
X89588506Y-57932300D01*
X89727260Y-57891558D01*
X89848916Y-57813374D01*
X89943617Y-57704084D01*
X90003691Y-57572540D01*
X90024271Y-57429400D01*
X90003691Y-57286260D01*
X89988626Y-57253272D01*
X89984549Y-57201994D01*
X90014387Y-57160092D01*
X90035841Y-57149879D01*
X90169297Y-57110693D01*
X90290953Y-57032509D01*
X90385654Y-56923219D01*
X90445728Y-56791675D01*
X90466308Y-56648535D01*
X90445728Y-56505395D01*
X90445726Y-56505390D01*
X90445726Y-56505389D01*
X90385655Y-56373853D01*
X90385654Y-56373852D01*
X90385654Y-56373851D01*
X90290953Y-56264561D01*
X90169297Y-56186377D01*
X90169296Y-56186376D01*
X90169295Y-56186376D01*
X90030545Y-56145635D01*
X90030543Y-56145635D01*
X89885931Y-56145635D01*
X89885928Y-56145635D01*
X89747178Y-56186376D01*
X89625520Y-56264561D01*
X89540069Y-56363177D01*
X89495118Y-56388186D01*
X89444608Y-56378451D01*
X89426405Y-56363177D01*
X89415932Y-56351091D01*
X89340953Y-56264561D01*
X89219297Y-56186377D01*
X89219296Y-56186376D01*
X89219295Y-56186376D01*
X89080545Y-56145635D01*
X89080543Y-56145635D01*
X88935931Y-56145635D01*
X88935928Y-56145635D01*
X88797178Y-56186376D01*
X88675521Y-56264561D01*
X88580818Y-56373853D01*
X88520747Y-56505389D01*
X88520747Y-56505391D01*
X88520746Y-56505393D01*
X88520746Y-56505395D01*
X88500166Y-56648535D01*
X88316300Y-56648535D01*
X88316300Y-54939244D01*
X88333893Y-54890906D01*
X88338326Y-54886070D01*
X88486597Y-54737799D01*
X88955499Y-54268896D01*
X88956865Y-54267599D01*
X88987886Y-54239670D01*
X88997955Y-54217053D01*
X89003577Y-54206698D01*
X89017062Y-54185936D01*
X89018413Y-54177400D01*
X89023988Y-54158582D01*
X89027500Y-54150697D01*
X89027500Y-54125946D01*
X89028426Y-54114181D01*
X89031163Y-54096899D01*
X89032297Y-54089741D01*
X89031819Y-54087959D01*
X89030062Y-54081397D01*
X89027500Y-54061937D01*
X89027500Y-51562000D01*
X89541029Y-51562000D01*
X89561609Y-51705140D01*
X89561609Y-51705141D01*
X89561610Y-51705143D01*
X89561610Y-51705145D01*
X89621681Y-51836681D01*
X89621682Y-51836682D01*
X89621683Y-51836684D01*
X89716384Y-51945974D01*
X89838040Y-52024158D01*
X89976794Y-52064900D01*
X89976797Y-52064900D01*
X90121403Y-52064900D01*
X90121406Y-52064900D01*
X90260160Y-52024158D01*
X90381816Y-51945974D01*
X90476517Y-51836684D01*
X90519742Y-51742034D01*
X90536589Y-51705145D01*
X90536589Y-51705144D01*
X90536591Y-51705140D01*
X90557171Y-51562000D01*
X90536591Y-51418860D01*
X90536589Y-51418855D01*
X90536589Y-51418854D01*
X90476518Y-51287318D01*
X90476517Y-51287317D01*
X90476517Y-51287316D01*
X90381816Y-51178026D01*
X90260160Y-51099842D01*
X90260159Y-51099841D01*
X90260158Y-51099841D01*
X90121408Y-51059100D01*
X90121406Y-51059100D01*
X89976794Y-51059100D01*
X89976791Y-51059100D01*
X89838041Y-51099841D01*
X89716384Y-51178026D01*
X89621681Y-51287318D01*
X89561610Y-51418854D01*
X89561610Y-51418856D01*
X89561609Y-51418858D01*
X89561609Y-51418860D01*
X89541029Y-51562000D01*
X89027500Y-51562000D01*
X89027500Y-48266973D01*
X89027552Y-48265005D01*
X89029734Y-48223360D01*
X89020867Y-48200261D01*
X89017516Y-48188947D01*
X89012369Y-48164737D01*
X89012369Y-48164735D01*
X89007290Y-48157744D01*
X88997924Y-48140491D01*
X88994832Y-48132437D01*
X88994830Y-48132433D01*
X88977332Y-48114935D01*
X88969668Y-48105963D01*
X88955121Y-48085940D01*
X88947642Y-48081623D01*
X88932068Y-48069672D01*
X87998005Y-47135608D01*
X87976265Y-47088988D01*
X87975979Y-47082434D01*
X87975979Y-41159214D01*
X87993572Y-41110876D01*
X88029995Y-41087060D01*
X88044257Y-41082872D01*
X88044257Y-41082871D01*
X88044260Y-41082871D01*
X88165916Y-41004687D01*
X88260617Y-40895397D01*
X88320691Y-40763853D01*
X88341271Y-40620713D01*
X88320691Y-40477573D01*
X88320689Y-40477568D01*
X88320689Y-40477567D01*
X88260618Y-40346031D01*
X88260617Y-40346030D01*
X88260617Y-40346029D01*
X88165916Y-40236739D01*
X88044260Y-40158555D01*
X88044259Y-40158554D01*
X88044258Y-40158554D01*
X87905508Y-40117813D01*
X87905506Y-40117813D01*
X87760894Y-40117813D01*
X87760891Y-40117813D01*
X87622141Y-40158554D01*
X87500484Y-40236739D01*
X87405781Y-40346031D01*
X87345710Y-40477567D01*
X87345710Y-40477569D01*
X87345709Y-40477571D01*
X87345709Y-40477573D01*
X87325129Y-40620713D01*
X87345709Y-40763853D01*
X87345709Y-40763854D01*
X87345710Y-40763856D01*
X87345710Y-40763858D01*
X87405781Y-40895394D01*
X87405782Y-40895395D01*
X87405783Y-40895397D01*
X87471146Y-40970830D01*
X87499411Y-41003449D01*
X87517770Y-41051502D01*
X87517779Y-41052695D01*
X87517779Y-47201503D01*
X87517727Y-47203471D01*
X87515544Y-47245117D01*
X87524412Y-47268219D01*
X87527762Y-47279529D01*
X87532909Y-47303742D01*
X87532910Y-47303744D01*
X87537987Y-47310732D01*
X87547352Y-47327980D01*
X87550448Y-47336045D01*
X87567943Y-47353540D01*
X87575605Y-47362510D01*
X87590155Y-47382535D01*
X87590157Y-47382537D01*
X87597638Y-47386856D01*
X87613209Y-47398805D01*
X88547274Y-48332870D01*
X88569014Y-48379490D01*
X88569300Y-48386044D01*
X88569300Y-53975954D01*
X88551707Y-54024292D01*
X88547274Y-54029128D01*
X87930136Y-54646266D01*
X87928709Y-54647620D01*
X87897714Y-54675529D01*
X87897712Y-54675533D01*
X87887646Y-54698139D01*
X87882021Y-54708500D01*
X87868538Y-54729265D01*
X87867186Y-54737799D01*
X87861614Y-54756609D01*
X87858100Y-54764503D01*
X87858100Y-54789253D01*
X87857174Y-54801018D01*
X87853303Y-54825456D01*
X87853303Y-54825457D01*
X87855537Y-54833794D01*
X87858100Y-54853259D01*
X87858100Y-61816624D01*
X87858048Y-61818592D01*
X87855865Y-61860238D01*
X87864733Y-61883340D01*
X87868083Y-61894650D01*
X87873230Y-61918863D01*
X87873231Y-61918865D01*
X87878308Y-61925853D01*
X87887671Y-61943098D01*
X87890768Y-61951164D01*
X87890769Y-61951166D01*
X87908264Y-61968661D01*
X87915926Y-61977631D01*
X87930476Y-61997656D01*
X87930478Y-61997658D01*
X87937959Y-62001977D01*
X87953530Y-62013926D01*
X89461674Y-63522070D01*
X89483414Y-63568690D01*
X89483700Y-63575244D01*
X89483700Y-65847659D01*
X89466107Y-65895997D01*
X89421558Y-65921717D01*
X89370900Y-65912784D01*
X89340096Y-65878899D01*
X89315647Y-65825366D01*
X89300488Y-65792171D01*
X89205787Y-65682881D01*
X89084131Y-65604697D01*
X89084130Y-65604696D01*
X89084129Y-65604696D01*
X88945379Y-65563955D01*
X88945377Y-65563955D01*
X88800765Y-65563955D01*
X88800762Y-65563955D01*
X88662012Y-65604696D01*
X88540355Y-65682881D01*
X88445652Y-65792173D01*
X88385581Y-65923709D01*
X88385581Y-65923711D01*
X88385580Y-65923713D01*
X88385580Y-65923715D01*
X88365000Y-66066855D01*
X88385580Y-66209995D01*
X88385580Y-66209996D01*
X88385581Y-66209998D01*
X88385581Y-66210000D01*
X88445652Y-66341536D01*
X88445653Y-66341537D01*
X88445654Y-66341539D01*
X88540355Y-66450829D01*
X88563976Y-66466009D01*
X88595128Y-66506943D01*
X88592680Y-66558325D01*
X88563976Y-66592533D01*
X88440284Y-66672026D01*
X88345581Y-66781318D01*
X88285510Y-66912854D01*
X88285510Y-66912856D01*
X88285509Y-66912858D01*
X88285509Y-66912860D01*
X88264929Y-67056000D01*
X88285509Y-67199140D01*
X88285509Y-67199141D01*
X88285510Y-67199143D01*
X88285510Y-67199145D01*
X88345581Y-67330681D01*
X88345582Y-67330682D01*
X88345583Y-67330684D01*
X88440284Y-67439974D01*
X88512859Y-67486615D01*
X88544012Y-67527548D01*
X88541564Y-67578930D01*
X88529035Y-67599123D01*
X88445681Y-67695318D01*
X88385610Y-67826854D01*
X88385610Y-67826856D01*
X88385609Y-67826858D01*
X88385609Y-67826860D01*
X88365029Y-67970000D01*
X88385609Y-68113140D01*
X88385609Y-68113141D01*
X88385610Y-68113143D01*
X88385610Y-68113145D01*
X88445681Y-68244681D01*
X88445682Y-68244682D01*
X88445683Y-68244684D01*
X88494576Y-68301110D01*
X88512935Y-68349160D01*
X88496111Y-68397771D01*
X88478402Y-68413615D01*
X88446766Y-68433947D01*
X88446765Y-68433948D01*
X88352062Y-68543240D01*
X88291991Y-68674776D01*
X88291991Y-68674778D01*
X88291990Y-68674780D01*
X88291990Y-68674782D01*
X88271410Y-68817922D01*
X88291990Y-68961062D01*
X88291990Y-68961063D01*
X88291991Y-68961065D01*
X88291991Y-68961067D01*
X88352062Y-69092603D01*
X88352063Y-69092604D01*
X88352064Y-69092606D01*
X88446765Y-69201896D01*
X88568421Y-69280080D01*
X88707175Y-69320822D01*
X88707178Y-69320822D01*
X88851784Y-69320822D01*
X88851787Y-69320822D01*
X88990541Y-69280080D01*
X89112197Y-69201896D01*
X89206898Y-69092606D01*
X89266972Y-68961062D01*
X89287552Y-68817922D01*
X89266972Y-68674782D01*
X89266970Y-68674777D01*
X89266970Y-68674776D01*
X89206899Y-68543240D01*
X89206898Y-68543239D01*
X89206898Y-68543238D01*
X89158003Y-68486810D01*
X89139645Y-68438761D01*
X89156469Y-68390150D01*
X89174181Y-68374304D01*
X89205816Y-68353974D01*
X89300517Y-68244684D01*
X89320686Y-68200520D01*
X89340096Y-68158019D01*
X89376179Y-68121358D01*
X89427386Y-68116468D01*
X89469756Y-68145638D01*
X89483700Y-68189258D01*
X89483700Y-71908354D01*
X89466107Y-71956692D01*
X89461674Y-71961528D01*
X88593857Y-72829345D01*
X88592430Y-72830699D01*
X88561435Y-72858608D01*
X88561433Y-72858612D01*
X88551367Y-72881218D01*
X88545742Y-72891579D01*
X88532259Y-72912344D01*
X88530907Y-72920878D01*
X88525335Y-72939688D01*
X88521821Y-72947582D01*
X88521821Y-72972332D01*
X88520895Y-72984097D01*
X88517024Y-73008535D01*
X88517024Y-73008536D01*
X88519258Y-73016873D01*
X88521821Y-73036338D01*
X88521821Y-73169320D01*
X88504228Y-73217658D01*
X88487278Y-73232581D01*
X88418209Y-73276970D01*
X88418205Y-73276974D01*
X88323502Y-73386266D01*
X88263431Y-73517802D01*
X88263431Y-73517804D01*
X88263430Y-73517806D01*
X88263430Y-73517808D01*
X88242850Y-73660948D01*
X88263430Y-73804088D01*
X88263430Y-73804089D01*
X88263431Y-73804091D01*
X88263431Y-73804093D01*
X88323502Y-73935629D01*
X88323503Y-73935630D01*
X88323504Y-73935632D01*
X88418205Y-74044922D01*
X88539861Y-74123106D01*
X88678615Y-74163848D01*
X88678618Y-74163848D01*
X88823224Y-74163848D01*
X88823227Y-74163848D01*
X88961981Y-74123106D01*
X89083637Y-74044922D01*
X89178338Y-73935632D01*
X89238412Y-73804088D01*
X89258992Y-73660948D01*
X89238412Y-73517808D01*
X89238410Y-73517803D01*
X89238410Y-73517802D01*
X89178339Y-73386266D01*
X89178338Y-73386265D01*
X89178338Y-73386264D01*
X89083637Y-73276974D01*
X89083634Y-73276972D01*
X89083632Y-73276970D01*
X89014564Y-73232581D01*
X88983412Y-73191647D01*
X88980021Y-73169320D01*
X88980021Y-73122322D01*
X88997614Y-73073984D01*
X89002036Y-73069159D01*
X89822599Y-72248595D01*
X89869218Y-72226856D01*
X89918905Y-72240170D01*
X89944176Y-72270531D01*
X89996581Y-72385281D01*
X89996582Y-72385282D01*
X89996583Y-72385284D01*
X90091284Y-72494574D01*
X90212940Y-72572758D01*
X90229152Y-72577518D01*
X90253323Y-72584616D01*
X90294746Y-72615115D01*
X90306874Y-72665105D01*
X90288970Y-72706015D01*
X90250581Y-72750318D01*
X90190510Y-72881854D01*
X90190510Y-72881856D01*
X90190509Y-72881858D01*
X90190509Y-72881860D01*
X90169929Y-73025000D01*
X90190509Y-73168140D01*
X90190509Y-73168141D01*
X90190510Y-73168143D01*
X90190510Y-73168145D01*
X90250581Y-73299681D01*
X90250582Y-73299682D01*
X90250583Y-73299684D01*
X90345284Y-73408974D01*
X90466940Y-73487158D01*
X90605694Y-73527900D01*
X90605697Y-73527900D01*
X90750303Y-73527900D01*
X90750306Y-73527900D01*
X90889060Y-73487158D01*
X91010716Y-73408974D01*
X91057469Y-73355018D01*
X91102418Y-73330010D01*
X91152929Y-73339745D01*
X91185364Y-73379670D01*
X91189500Y-73404265D01*
X91189500Y-75138925D01*
X91171907Y-75187263D01*
X91127358Y-75212983D01*
X91085524Y-75208402D01*
X91079659Y-75205973D01*
X91079658Y-75205972D01*
X91035057Y-75197100D01*
X89304944Y-75197100D01*
X89304942Y-75197101D01*
X89260340Y-75205972D01*
X89209767Y-75239764D01*
X89175972Y-75290342D01*
X89175971Y-75290343D01*
X89167100Y-75334942D01*
X89167100Y-77065055D01*
X89167101Y-77065057D01*
X89175972Y-77109659D01*
X89209764Y-77160232D01*
X89209765Y-77160232D01*
X89209766Y-77160234D01*
X89260342Y-77194028D01*
X89304943Y-77202900D01*
X91035056Y-77202899D01*
X91079658Y-77194028D01*
X91079660Y-77194026D01*
X91085526Y-77191598D01*
X91136917Y-77189357D01*
X91177725Y-77220674D01*
X91189500Y-77261075D01*
X91189500Y-90378925D01*
X91171907Y-90427263D01*
X91127358Y-90452983D01*
X91085524Y-90448402D01*
X91079659Y-90445973D01*
X91079658Y-90445972D01*
X91035057Y-90437100D01*
X89304944Y-90437100D01*
X89304942Y-90437101D01*
X89260340Y-90445972D01*
X89209767Y-90479764D01*
X89175972Y-90530342D01*
X89175971Y-90530343D01*
X89167100Y-90574942D01*
X89167100Y-92305055D01*
X89167101Y-92305057D01*
X89175972Y-92349659D01*
X89209764Y-92400232D01*
X89209765Y-92400232D01*
X89209766Y-92400234D01*
X89260342Y-92434028D01*
X89304943Y-92442900D01*
X91035056Y-92442899D01*
X91079658Y-92434028D01*
X91079660Y-92434026D01*
X91085526Y-92431598D01*
X91136917Y-92429357D01*
X91177725Y-92460674D01*
X91189500Y-92501075D01*
X91189500Y-105618925D01*
X91171907Y-105667263D01*
X91127358Y-105692983D01*
X91085524Y-105688402D01*
X91079659Y-105685973D01*
X91079658Y-105685972D01*
X91035057Y-105677100D01*
X89304944Y-105677100D01*
X89304942Y-105677101D01*
X89260340Y-105685972D01*
X89209767Y-105719764D01*
X89175972Y-105770342D01*
X89175971Y-105770343D01*
X89167100Y-105814942D01*
X89167100Y-107545055D01*
X89167101Y-107545057D01*
X89175972Y-107589659D01*
X89209764Y-107640232D01*
X89209765Y-107640232D01*
X89209766Y-107640234D01*
X89260342Y-107674028D01*
X89304943Y-107682900D01*
X91035056Y-107682899D01*
X91079658Y-107674028D01*
X91079660Y-107674026D01*
X91085526Y-107671598D01*
X91136917Y-107669357D01*
X91177725Y-107700674D01*
X91189500Y-107741075D01*
X91189500Y-120858925D01*
X91171907Y-120907263D01*
X91127358Y-120932983D01*
X91085524Y-120928402D01*
X91079659Y-120925973D01*
X91079658Y-120925972D01*
X91035057Y-120917100D01*
X89304944Y-120917100D01*
X89304942Y-120917101D01*
X89260340Y-120925972D01*
X89209767Y-120959764D01*
X89175972Y-121010342D01*
X89175971Y-121010343D01*
X89167100Y-121054942D01*
X89167100Y-122785055D01*
X89167101Y-122785057D01*
X89175972Y-122829659D01*
X89209764Y-122880232D01*
X89209765Y-122880232D01*
X89209766Y-122880234D01*
X89260342Y-122914028D01*
X89304943Y-122922900D01*
X91035056Y-122922899D01*
X91079658Y-122914028D01*
X91079660Y-122914026D01*
X91085526Y-122911598D01*
X91136917Y-122909357D01*
X91177725Y-122940674D01*
X91189500Y-122981075D01*
X91189500Y-136098925D01*
X91171907Y-136147263D01*
X91127358Y-136172983D01*
X91085524Y-136168402D01*
X91079659Y-136165973D01*
X91079658Y-136165972D01*
X91035057Y-136157100D01*
X89304944Y-136157100D01*
X89304942Y-136157101D01*
X89260340Y-136165972D01*
X89209767Y-136199764D01*
X89175972Y-136250342D01*
X89175971Y-136250343D01*
X89167100Y-136294942D01*
X89167100Y-138025055D01*
X89167101Y-138025057D01*
X89175972Y-138069659D01*
X89209764Y-138120232D01*
X89209765Y-138120232D01*
X89209766Y-138120234D01*
X89260342Y-138154028D01*
X89304943Y-138162900D01*
X91035056Y-138162899D01*
X91079658Y-138154028D01*
X91079660Y-138154026D01*
X91085526Y-138151598D01*
X91136917Y-138149357D01*
X91177725Y-138180674D01*
X91189500Y-138221075D01*
X91189500Y-151338925D01*
X91171907Y-151387263D01*
X91127358Y-151412983D01*
X91085524Y-151408402D01*
X91079659Y-151405973D01*
X91079658Y-151405972D01*
X91035057Y-151397100D01*
X89304944Y-151397100D01*
X89304942Y-151397101D01*
X89260340Y-151405972D01*
X89209767Y-151439764D01*
X89175972Y-151490342D01*
X89175971Y-151490343D01*
X89167100Y-151534942D01*
X89167100Y-153265055D01*
X89167101Y-153265057D01*
X89175972Y-153309659D01*
X89209764Y-153360232D01*
X89209765Y-153360232D01*
X89209766Y-153360234D01*
X89260342Y-153394028D01*
X89304943Y-153402900D01*
X91035056Y-153402899D01*
X91079658Y-153394028D01*
X91079660Y-153394026D01*
X91085526Y-153391598D01*
X91136917Y-153389357D01*
X91177725Y-153420674D01*
X91189500Y-153461075D01*
X91189500Y-166578925D01*
X91171907Y-166627263D01*
X91127358Y-166652983D01*
X91085524Y-166648402D01*
X91079659Y-166645973D01*
X91079658Y-166645972D01*
X91035057Y-166637100D01*
X89304944Y-166637100D01*
X89304942Y-166637101D01*
X89260340Y-166645972D01*
X89209767Y-166679764D01*
X89175972Y-166730342D01*
X89175971Y-166730343D01*
X89167100Y-166774942D01*
X89167100Y-168505055D01*
X89167101Y-168505057D01*
X89175972Y-168549659D01*
X89209764Y-168600232D01*
X89209765Y-168600232D01*
X89209766Y-168600234D01*
X89260342Y-168634028D01*
X89304943Y-168642900D01*
X91035056Y-168642899D01*
X91079658Y-168634028D01*
X91079660Y-168634026D01*
X91085526Y-168631598D01*
X91136917Y-168629357D01*
X91177725Y-168660674D01*
X91189500Y-168701075D01*
X91189500Y-174198925D01*
X91171907Y-174247263D01*
X91127358Y-174272983D01*
X91085524Y-174268402D01*
X91079659Y-174265973D01*
X91079658Y-174265972D01*
X91035057Y-174257100D01*
X89304944Y-174257100D01*
X89304942Y-174257101D01*
X89260340Y-174265972D01*
X89209767Y-174299764D01*
X89175972Y-174350342D01*
X89175971Y-174350343D01*
X89167100Y-174394942D01*
X89167100Y-176125055D01*
X89167101Y-176125057D01*
X89175972Y-176169659D01*
X89209764Y-176220232D01*
X89209765Y-176220232D01*
X89209766Y-176220234D01*
X89260342Y-176254028D01*
X89304943Y-176262900D01*
X91035056Y-176262899D01*
X91079658Y-176254028D01*
X91079660Y-176254026D01*
X91085526Y-176251598D01*
X91136917Y-176249357D01*
X91177725Y-176280674D01*
X91189500Y-176321075D01*
X91189500Y-176738925D01*
X91171907Y-176787263D01*
X91127358Y-176812983D01*
X91085524Y-176808402D01*
X91079659Y-176805973D01*
X91079658Y-176805972D01*
X91035057Y-176797100D01*
X89304944Y-176797100D01*
X89304942Y-176797101D01*
X89260340Y-176805972D01*
X89209767Y-176839764D01*
X89175972Y-176890342D01*
X89175971Y-176890343D01*
X89167100Y-176934942D01*
X89167100Y-178665055D01*
X89167101Y-178665057D01*
X89175972Y-178709659D01*
X89209764Y-178760232D01*
X89209765Y-178760232D01*
X89209766Y-178760234D01*
X89260342Y-178794028D01*
X89304943Y-178802900D01*
X91035056Y-178802899D01*
X91079658Y-178794028D01*
X91079660Y-178794026D01*
X91085526Y-178791598D01*
X91136917Y-178789357D01*
X91177725Y-178820674D01*
X91189500Y-178861075D01*
X91189500Y-179068356D01*
X91189357Y-179071635D01*
X91174585Y-179240478D01*
X91172309Y-179253387D01*
X91129719Y-179412337D01*
X91125235Y-179424655D01*
X91055693Y-179573786D01*
X91049139Y-179585138D01*
X90954754Y-179719934D01*
X90946328Y-179729975D01*
X90829975Y-179846328D01*
X90819934Y-179854754D01*
X90685138Y-179949139D01*
X90673786Y-179955693D01*
X90524655Y-180025235D01*
X90512337Y-180029719D01*
X90353387Y-180072309D01*
X90340478Y-180074585D01*
X90171635Y-180089357D01*
X90168356Y-180089500D01*
X82551644Y-180089500D01*
X82548366Y-180089357D01*
X82379521Y-180074585D01*
X82366612Y-180072309D01*
X82207662Y-180029719D01*
X82195344Y-180025235D01*
X82046213Y-179955693D01*
X82034861Y-179949139D01*
X81900065Y-179854754D01*
X81890024Y-179846328D01*
X81773671Y-179729975D01*
X81765245Y-179719934D01*
X81670860Y-179585138D01*
X81664306Y-179573786D01*
X81655676Y-179555280D01*
X81594762Y-179424649D01*
X81590282Y-179412344D01*
X81547689Y-179253383D01*
X81545414Y-179240478D01*
X81530643Y-179071634D01*
X81530500Y-179068356D01*
X81530500Y-178861074D01*
X81548093Y-178812736D01*
X81592642Y-178787016D01*
X81634481Y-178791599D01*
X81640337Y-178794024D01*
X81640342Y-178794028D01*
X81684943Y-178802900D01*
X83415056Y-178802899D01*
X83459658Y-178794028D01*
X83510234Y-178760234D01*
X83544028Y-178709658D01*
X83552900Y-178665057D01*
X83552899Y-176934944D01*
X83544028Y-176890342D01*
X83510234Y-176839766D01*
X83459658Y-176805972D01*
X83459656Y-176805971D01*
X83415057Y-176797100D01*
X81684944Y-176797100D01*
X81684942Y-176797101D01*
X81640337Y-176805973D01*
X81634469Y-176808403D01*
X81583078Y-176810641D01*
X81542272Y-176779321D01*
X81530500Y-176738924D01*
X81530500Y-176321074D01*
X81548093Y-176272736D01*
X81592642Y-176247016D01*
X81634481Y-176251599D01*
X81640337Y-176254024D01*
X81640342Y-176254028D01*
X81684943Y-176262900D01*
X83415056Y-176262899D01*
X83459658Y-176254028D01*
X83510234Y-176220234D01*
X83544028Y-176169658D01*
X83548137Y-176149000D01*
X85851929Y-176149000D01*
X85872509Y-176292140D01*
X85872509Y-176292141D01*
X85872510Y-176292143D01*
X85872510Y-176292145D01*
X85932581Y-176423681D01*
X85932582Y-176423682D01*
X85932583Y-176423684D01*
X86027284Y-176532974D01*
X86148940Y-176611158D01*
X86287694Y-176651900D01*
X86287697Y-176651900D01*
X86432303Y-176651900D01*
X86432306Y-176651900D01*
X86571060Y-176611158D01*
X86692716Y-176532974D01*
X86787417Y-176423684D01*
X86847491Y-176292140D01*
X86868071Y-176149000D01*
X86847491Y-176005860D01*
X86847489Y-176005855D01*
X86847489Y-176005854D01*
X86787418Y-175874318D01*
X86787417Y-175874317D01*
X86787417Y-175874316D01*
X86692716Y-175765026D01*
X86571060Y-175686842D01*
X86571059Y-175686841D01*
X86571058Y-175686841D01*
X86432308Y-175646100D01*
X86432306Y-175646100D01*
X86287694Y-175646100D01*
X86287691Y-175646100D01*
X86148941Y-175686841D01*
X86027284Y-175765026D01*
X85932581Y-175874318D01*
X85872510Y-176005854D01*
X85872510Y-176005856D01*
X85872509Y-176005858D01*
X85872509Y-176005860D01*
X85851929Y-176149000D01*
X83548137Y-176149000D01*
X83552900Y-176125057D01*
X83552899Y-174394944D01*
X83544028Y-174350342D01*
X83510234Y-174299766D01*
X83459658Y-174265972D01*
X83459656Y-174265971D01*
X83415057Y-174257100D01*
X81684944Y-174257100D01*
X81684942Y-174257101D01*
X81640337Y-174265973D01*
X81634469Y-174268403D01*
X81583078Y-174270641D01*
X81542272Y-174239321D01*
X81530500Y-174198924D01*
X81530500Y-172339000D01*
X85851929Y-172339000D01*
X85872509Y-172482140D01*
X85872509Y-172482141D01*
X85872510Y-172482143D01*
X85872510Y-172482145D01*
X85932581Y-172613681D01*
X85932582Y-172613682D01*
X85932583Y-172613684D01*
X86027284Y-172722974D01*
X86148940Y-172801158D01*
X86287694Y-172841900D01*
X86287697Y-172841900D01*
X86432303Y-172841900D01*
X86432306Y-172841900D01*
X86571060Y-172801158D01*
X86692716Y-172722974D01*
X86787417Y-172613684D01*
X86847491Y-172482140D01*
X86868071Y-172339000D01*
X86847491Y-172195860D01*
X86847489Y-172195855D01*
X86847489Y-172195854D01*
X86787418Y-172064318D01*
X86787417Y-172064317D01*
X86787417Y-172064316D01*
X86692716Y-171955026D01*
X86571060Y-171876842D01*
X86571059Y-171876841D01*
X86571058Y-171876841D01*
X86432308Y-171836100D01*
X86432306Y-171836100D01*
X86287694Y-171836100D01*
X86287691Y-171836100D01*
X86148941Y-171876841D01*
X86027284Y-171955026D01*
X85932581Y-172064318D01*
X85872510Y-172195854D01*
X85872510Y-172195856D01*
X85872509Y-172195858D01*
X85872509Y-172195860D01*
X85851929Y-172339000D01*
X81530500Y-172339000D01*
X81530500Y-168701074D01*
X81546905Y-168656000D01*
X85851929Y-168656000D01*
X85872509Y-168799140D01*
X85872509Y-168799141D01*
X85872510Y-168799143D01*
X85872510Y-168799145D01*
X85932581Y-168930681D01*
X85932582Y-168930682D01*
X85932583Y-168930684D01*
X86027284Y-169039974D01*
X86148940Y-169118158D01*
X86287694Y-169158900D01*
X86287697Y-169158900D01*
X86432303Y-169158900D01*
X86432306Y-169158900D01*
X86571060Y-169118158D01*
X86692716Y-169039974D01*
X86787417Y-168930684D01*
X86847491Y-168799140D01*
X86868071Y-168656000D01*
X86847491Y-168512860D01*
X86847489Y-168512855D01*
X86847489Y-168512854D01*
X86787418Y-168381318D01*
X86787417Y-168381317D01*
X86787417Y-168381316D01*
X86692716Y-168272026D01*
X86571060Y-168193842D01*
X86571059Y-168193841D01*
X86571058Y-168193841D01*
X86432308Y-168153100D01*
X86432306Y-168153100D01*
X86287694Y-168153100D01*
X86287691Y-168153100D01*
X86148941Y-168193841D01*
X86027284Y-168272026D01*
X85932581Y-168381318D01*
X85872510Y-168512854D01*
X85872510Y-168512856D01*
X85872509Y-168512858D01*
X85872509Y-168512860D01*
X85851929Y-168656000D01*
X81546905Y-168656000D01*
X81548093Y-168652736D01*
X81592642Y-168627016D01*
X81634481Y-168631599D01*
X81640337Y-168634024D01*
X81640342Y-168634028D01*
X81684943Y-168642900D01*
X83415056Y-168642899D01*
X83459658Y-168634028D01*
X83510234Y-168600234D01*
X83544028Y-168549658D01*
X83552900Y-168505057D01*
X83552899Y-166774944D01*
X83544028Y-166730342D01*
X83510234Y-166679766D01*
X83459658Y-166645972D01*
X83459656Y-166645971D01*
X83415057Y-166637100D01*
X81684944Y-166637100D01*
X81684942Y-166637101D01*
X81640337Y-166645973D01*
X81634469Y-166648403D01*
X81583078Y-166650641D01*
X81542272Y-166619321D01*
X81530500Y-166578924D01*
X81530500Y-164846000D01*
X85851929Y-164846000D01*
X85872509Y-164989140D01*
X85872509Y-164989141D01*
X85872510Y-164989143D01*
X85872510Y-164989145D01*
X85932581Y-165120681D01*
X85932582Y-165120682D01*
X85932583Y-165120684D01*
X86027284Y-165229974D01*
X86148940Y-165308158D01*
X86287694Y-165348900D01*
X86287697Y-165348900D01*
X86432303Y-165348900D01*
X86432306Y-165348900D01*
X86571060Y-165308158D01*
X86692716Y-165229974D01*
X86787417Y-165120684D01*
X86847491Y-164989140D01*
X86868071Y-164846000D01*
X86847491Y-164702860D01*
X86847489Y-164702855D01*
X86847489Y-164702854D01*
X86787418Y-164571318D01*
X86787417Y-164571317D01*
X86787417Y-164571316D01*
X86692716Y-164462026D01*
X86571060Y-164383842D01*
X86571059Y-164383841D01*
X86571058Y-164383841D01*
X86432308Y-164343100D01*
X86432306Y-164343100D01*
X86287694Y-164343100D01*
X86287691Y-164343100D01*
X86148941Y-164383841D01*
X86027284Y-164462026D01*
X85932581Y-164571318D01*
X85872510Y-164702854D01*
X85872510Y-164702856D01*
X85872509Y-164702858D01*
X85872509Y-164702860D01*
X85851929Y-164846000D01*
X81530500Y-164846000D01*
X81530500Y-162913865D01*
X81548093Y-162865527D01*
X81592642Y-162839807D01*
X81643300Y-162848740D01*
X81662529Y-162864617D01*
X81709284Y-162918574D01*
X81830940Y-162996758D01*
X81969694Y-163037500D01*
X81969697Y-163037500D01*
X82114303Y-163037500D01*
X82114306Y-163037500D01*
X82253060Y-162996758D01*
X82374716Y-162918574D01*
X82469417Y-162809284D01*
X82478029Y-162790425D01*
X82494296Y-162754808D01*
X82530380Y-162718147D01*
X82581586Y-162713257D01*
X82623956Y-162742427D01*
X82631104Y-162754808D01*
X82655981Y-162809281D01*
X82655982Y-162809282D01*
X82655983Y-162809284D01*
X82750684Y-162918574D01*
X82872340Y-162996758D01*
X83011094Y-163037500D01*
X83011097Y-163037500D01*
X83155703Y-163037500D01*
X83155706Y-163037500D01*
X83294460Y-162996758D01*
X83416116Y-162918574D01*
X83510817Y-162809284D01*
X83570891Y-162677740D01*
X83591471Y-162534600D01*
X83570891Y-162391460D01*
X83570889Y-162391455D01*
X83570889Y-162391454D01*
X83510818Y-162259918D01*
X83510817Y-162259917D01*
X83510817Y-162259916D01*
X83416116Y-162150626D01*
X83294460Y-162072442D01*
X83294459Y-162072441D01*
X83294458Y-162072441D01*
X83155708Y-162031700D01*
X83155706Y-162031700D01*
X83011094Y-162031700D01*
X83011091Y-162031700D01*
X82872341Y-162072441D01*
X82750684Y-162150626D01*
X82655982Y-162259917D01*
X82631104Y-162314392D01*
X82595020Y-162351052D01*
X82543813Y-162355942D01*
X82501444Y-162326772D01*
X82494296Y-162314392D01*
X82479248Y-162281443D01*
X82469417Y-162259916D01*
X82374716Y-162150626D01*
X82253060Y-162072442D01*
X82253059Y-162072441D01*
X82253058Y-162072441D01*
X82114308Y-162031700D01*
X82114306Y-162031700D01*
X81969694Y-162031700D01*
X81969691Y-162031700D01*
X81830941Y-162072441D01*
X81709283Y-162150626D01*
X81662532Y-162204580D01*
X81617581Y-162229590D01*
X81567071Y-162219854D01*
X81534636Y-162179929D01*
X81530500Y-162155334D01*
X81530500Y-161163000D01*
X85851929Y-161163000D01*
X85872509Y-161306140D01*
X85872509Y-161306141D01*
X85872510Y-161306143D01*
X85872510Y-161306145D01*
X85932581Y-161437681D01*
X85932582Y-161437682D01*
X85932583Y-161437684D01*
X86027284Y-161546974D01*
X86148940Y-161625158D01*
X86287694Y-161665900D01*
X86287697Y-161665900D01*
X86432303Y-161665900D01*
X86432306Y-161665900D01*
X86571060Y-161625158D01*
X86692716Y-161546974D01*
X86787417Y-161437684D01*
X86847491Y-161306140D01*
X86868071Y-161163000D01*
X86847491Y-161019860D01*
X86847489Y-161019855D01*
X86847489Y-161019854D01*
X86787418Y-160888318D01*
X86787417Y-160888317D01*
X86787417Y-160888316D01*
X86692716Y-160779026D01*
X86571060Y-160700842D01*
X86571059Y-160700841D01*
X86571058Y-160700841D01*
X86432308Y-160660100D01*
X86432306Y-160660100D01*
X86287694Y-160660100D01*
X86287691Y-160660100D01*
X86148941Y-160700841D01*
X86027284Y-160779026D01*
X85932581Y-160888318D01*
X85872510Y-161019854D01*
X85872510Y-161019856D01*
X85872509Y-161019858D01*
X85872509Y-161019860D01*
X85851929Y-161163000D01*
X81530500Y-161163000D01*
X81530500Y-157099000D01*
X85851929Y-157099000D01*
X85872509Y-157242140D01*
X85872509Y-157242141D01*
X85872510Y-157242143D01*
X85872510Y-157242145D01*
X85932581Y-157373681D01*
X85932582Y-157373682D01*
X85932583Y-157373684D01*
X86027284Y-157482974D01*
X86148940Y-157561158D01*
X86287694Y-157601900D01*
X86287697Y-157601900D01*
X86432303Y-157601900D01*
X86432306Y-157601900D01*
X86571060Y-157561158D01*
X86692716Y-157482974D01*
X86787417Y-157373684D01*
X86847491Y-157242140D01*
X86868071Y-157099000D01*
X86847491Y-156955860D01*
X86847489Y-156955855D01*
X86847489Y-156955854D01*
X86787418Y-156824318D01*
X86787417Y-156824317D01*
X86787417Y-156824316D01*
X86692716Y-156715026D01*
X86571060Y-156636842D01*
X86571059Y-156636841D01*
X86571058Y-156636841D01*
X86432308Y-156596100D01*
X86432306Y-156596100D01*
X86287694Y-156596100D01*
X86287691Y-156596100D01*
X86148941Y-156636841D01*
X86027284Y-156715026D01*
X85932581Y-156824318D01*
X85872510Y-156955854D01*
X85872510Y-156955856D01*
X85872509Y-156955858D01*
X85872509Y-156955860D01*
X85851929Y-157099000D01*
X81530500Y-157099000D01*
X81530500Y-153670000D01*
X85851929Y-153670000D01*
X85872509Y-153813140D01*
X85872509Y-153813141D01*
X85872510Y-153813143D01*
X85872510Y-153813145D01*
X85932581Y-153944681D01*
X85932582Y-153944682D01*
X85932583Y-153944684D01*
X86027284Y-154053974D01*
X86148940Y-154132158D01*
X86287694Y-154172900D01*
X86287697Y-154172900D01*
X86432303Y-154172900D01*
X86432306Y-154172900D01*
X86571060Y-154132158D01*
X86692716Y-154053974D01*
X86787417Y-153944684D01*
X86847491Y-153813140D01*
X86868071Y-153670000D01*
X86847491Y-153526860D01*
X86847489Y-153526855D01*
X86847489Y-153526854D01*
X86787418Y-153395318D01*
X86787417Y-153395317D01*
X86787417Y-153395316D01*
X86692716Y-153286026D01*
X86571060Y-153207842D01*
X86571059Y-153207841D01*
X86571058Y-153207841D01*
X86432308Y-153167100D01*
X86432306Y-153167100D01*
X86287694Y-153167100D01*
X86287691Y-153167100D01*
X86148941Y-153207841D01*
X86027284Y-153286026D01*
X85932581Y-153395318D01*
X85872510Y-153526854D01*
X85872510Y-153526856D01*
X85872509Y-153526858D01*
X85872509Y-153526860D01*
X85851929Y-153670000D01*
X81530500Y-153670000D01*
X81530500Y-153461074D01*
X81548093Y-153412736D01*
X81592642Y-153387016D01*
X81634481Y-153391599D01*
X81640337Y-153394024D01*
X81640342Y-153394028D01*
X81684943Y-153402900D01*
X83415056Y-153402899D01*
X83459658Y-153394028D01*
X83510234Y-153360234D01*
X83544028Y-153309658D01*
X83552900Y-153265057D01*
X83552899Y-151534944D01*
X83544028Y-151490342D01*
X83510234Y-151439766D01*
X83459658Y-151405972D01*
X83459656Y-151405971D01*
X83415057Y-151397100D01*
X81684944Y-151397100D01*
X81684942Y-151397101D01*
X81640337Y-151405973D01*
X81634469Y-151408403D01*
X81583078Y-151410641D01*
X81542272Y-151379321D01*
X81530500Y-151338924D01*
X81530500Y-149352000D01*
X85851940Y-149352000D01*
X85872520Y-149495140D01*
X85872520Y-149495141D01*
X85872521Y-149495143D01*
X85872521Y-149495145D01*
X85932592Y-149626681D01*
X85932593Y-149626682D01*
X85932594Y-149626684D01*
X86027295Y-149735974D01*
X86148951Y-149814158D01*
X86287705Y-149854900D01*
X86287708Y-149854900D01*
X86432314Y-149854900D01*
X86432317Y-149854900D01*
X86571071Y-149814158D01*
X86692727Y-149735974D01*
X86787428Y-149626684D01*
X86847502Y-149495140D01*
X86868082Y-149352000D01*
X86847502Y-149208860D01*
X86847500Y-149208855D01*
X86847500Y-149208854D01*
X86787429Y-149077318D01*
X86787428Y-149077317D01*
X86787428Y-149077316D01*
X86692727Y-148968026D01*
X86571071Y-148889842D01*
X86571070Y-148889841D01*
X86571069Y-148889841D01*
X86432319Y-148849100D01*
X86432317Y-148849100D01*
X86287705Y-148849100D01*
X86287702Y-148849100D01*
X86148952Y-148889841D01*
X86027295Y-148968026D01*
X85932592Y-149077318D01*
X85872521Y-149208854D01*
X85872521Y-149208856D01*
X85872520Y-149208858D01*
X85872520Y-149208860D01*
X85851940Y-149352000D01*
X81530500Y-149352000D01*
X81530500Y-146050000D01*
X85851929Y-146050000D01*
X85872509Y-146193140D01*
X85872509Y-146193141D01*
X85872510Y-146193143D01*
X85872510Y-146193145D01*
X85932581Y-146324681D01*
X85932582Y-146324682D01*
X85932583Y-146324684D01*
X86027284Y-146433974D01*
X86148940Y-146512158D01*
X86287694Y-146552900D01*
X86287697Y-146552900D01*
X86432303Y-146552900D01*
X86432306Y-146552900D01*
X86571060Y-146512158D01*
X86692716Y-146433974D01*
X86787417Y-146324684D01*
X86847491Y-146193140D01*
X86868071Y-146050000D01*
X86847491Y-145906860D01*
X86847489Y-145906855D01*
X86847489Y-145906854D01*
X86787418Y-145775318D01*
X86787417Y-145775317D01*
X86787417Y-145775316D01*
X86692716Y-145666026D01*
X86571060Y-145587842D01*
X86571059Y-145587841D01*
X86571058Y-145587841D01*
X86432308Y-145547100D01*
X86432306Y-145547100D01*
X86287694Y-145547100D01*
X86287691Y-145547100D01*
X86148941Y-145587841D01*
X86027284Y-145666026D01*
X85932581Y-145775318D01*
X85872510Y-145906854D01*
X85872510Y-145906856D01*
X85872509Y-145906858D01*
X85872509Y-145906860D01*
X85851929Y-146050000D01*
X81530500Y-146050000D01*
X81530500Y-142494000D01*
X85851929Y-142494000D01*
X85872509Y-142637140D01*
X85872509Y-142637141D01*
X85872510Y-142637143D01*
X85872510Y-142637145D01*
X85932581Y-142768681D01*
X85932582Y-142768682D01*
X85932583Y-142768684D01*
X86027284Y-142877974D01*
X86148940Y-142956158D01*
X86287694Y-142996900D01*
X86287697Y-142996900D01*
X86432303Y-142996900D01*
X86432306Y-142996900D01*
X86571060Y-142956158D01*
X86692716Y-142877974D01*
X86787417Y-142768684D01*
X86847491Y-142637140D01*
X86868071Y-142494000D01*
X86847491Y-142350860D01*
X86847489Y-142350855D01*
X86847489Y-142350854D01*
X86787418Y-142219318D01*
X86787417Y-142219317D01*
X86787417Y-142219316D01*
X86692716Y-142110026D01*
X86571060Y-142031842D01*
X86571059Y-142031841D01*
X86571058Y-142031841D01*
X86432308Y-141991100D01*
X86432306Y-141991100D01*
X86287694Y-141991100D01*
X86287691Y-141991100D01*
X86148941Y-142031841D01*
X86027284Y-142110026D01*
X85932581Y-142219318D01*
X85872510Y-142350854D01*
X85872510Y-142350856D01*
X85872509Y-142350858D01*
X85872509Y-142350860D01*
X85851929Y-142494000D01*
X81530500Y-142494000D01*
X81530500Y-138430000D01*
X85851929Y-138430000D01*
X85872509Y-138573140D01*
X85872509Y-138573141D01*
X85872510Y-138573143D01*
X85872510Y-138573145D01*
X85932581Y-138704681D01*
X85932582Y-138704682D01*
X85932583Y-138704684D01*
X86027284Y-138813974D01*
X86148940Y-138892158D01*
X86287694Y-138932900D01*
X86287697Y-138932900D01*
X86432303Y-138932900D01*
X86432306Y-138932900D01*
X86571060Y-138892158D01*
X86692716Y-138813974D01*
X86787417Y-138704684D01*
X86847491Y-138573140D01*
X86868071Y-138430000D01*
X86847491Y-138286860D01*
X86847489Y-138286855D01*
X86847489Y-138286854D01*
X86787418Y-138155318D01*
X86787417Y-138155317D01*
X86787417Y-138155316D01*
X86692716Y-138046026D01*
X86571060Y-137967842D01*
X86571059Y-137967841D01*
X86571058Y-137967841D01*
X86432308Y-137927100D01*
X86432306Y-137927100D01*
X86287694Y-137927100D01*
X86287691Y-137927100D01*
X86148941Y-137967841D01*
X86027284Y-138046026D01*
X85932581Y-138155318D01*
X85872510Y-138286854D01*
X85872510Y-138286856D01*
X85872509Y-138286858D01*
X85872509Y-138286860D01*
X85851929Y-138430000D01*
X81530500Y-138430000D01*
X81530500Y-138221074D01*
X81548093Y-138172736D01*
X81592642Y-138147016D01*
X81634481Y-138151599D01*
X81640337Y-138154024D01*
X81640342Y-138154028D01*
X81684943Y-138162900D01*
X83415056Y-138162899D01*
X83459658Y-138154028D01*
X83510234Y-138120234D01*
X83544028Y-138069658D01*
X83552900Y-138025057D01*
X83552899Y-136294944D01*
X83544028Y-136250342D01*
X83510234Y-136199766D01*
X83459658Y-136165972D01*
X83459656Y-136165971D01*
X83415057Y-136157100D01*
X81684944Y-136157100D01*
X81684942Y-136157101D01*
X81640337Y-136165973D01*
X81634469Y-136168403D01*
X81583078Y-136170641D01*
X81542272Y-136139321D01*
X81530500Y-136098924D01*
X81530500Y-134620000D01*
X85851929Y-134620000D01*
X85872509Y-134763140D01*
X85872509Y-134763141D01*
X85872510Y-134763143D01*
X85872510Y-134763145D01*
X85932581Y-134894681D01*
X85932582Y-134894682D01*
X85932583Y-134894684D01*
X86027284Y-135003974D01*
X86148940Y-135082158D01*
X86287694Y-135122900D01*
X86287697Y-135122900D01*
X86432303Y-135122900D01*
X86432306Y-135122900D01*
X86571060Y-135082158D01*
X86692716Y-135003974D01*
X86787417Y-134894684D01*
X86847491Y-134763140D01*
X86868071Y-134620000D01*
X86847491Y-134476860D01*
X86847489Y-134476855D01*
X86847489Y-134476854D01*
X86787418Y-134345318D01*
X86787417Y-134345317D01*
X86787417Y-134345316D01*
X86692716Y-134236026D01*
X86571060Y-134157842D01*
X86571059Y-134157841D01*
X86571058Y-134157841D01*
X86432308Y-134117100D01*
X86432306Y-134117100D01*
X86287694Y-134117100D01*
X86287691Y-134117100D01*
X86148941Y-134157841D01*
X86027284Y-134236026D01*
X85932581Y-134345318D01*
X85872510Y-134476854D01*
X85872510Y-134476856D01*
X85872509Y-134476858D01*
X85872509Y-134476860D01*
X85851929Y-134620000D01*
X81530500Y-134620000D01*
X81530500Y-132463178D01*
X81548093Y-132414840D01*
X81592642Y-132389120D01*
X81643300Y-132398053D01*
X81662530Y-132413930D01*
X81683884Y-132438574D01*
X81805540Y-132516758D01*
X81944294Y-132557500D01*
X81944297Y-132557500D01*
X82088903Y-132557500D01*
X82088906Y-132557500D01*
X82227660Y-132516758D01*
X82349316Y-132438574D01*
X82444017Y-132329284D01*
X82452629Y-132310425D01*
X82468896Y-132274808D01*
X82504980Y-132238147D01*
X82556186Y-132233257D01*
X82598556Y-132262427D01*
X82605704Y-132274808D01*
X82630581Y-132329281D01*
X82630582Y-132329282D01*
X82630583Y-132329284D01*
X82725284Y-132438574D01*
X82846940Y-132516758D01*
X82985694Y-132557500D01*
X82985697Y-132557500D01*
X83130303Y-132557500D01*
X83130306Y-132557500D01*
X83269060Y-132516758D01*
X83390716Y-132438574D01*
X83485417Y-132329284D01*
X83529271Y-132233257D01*
X83545489Y-132197745D01*
X83545489Y-132197744D01*
X83545491Y-132197740D01*
X83566071Y-132054600D01*
X83545491Y-131911460D01*
X83545489Y-131911455D01*
X83545489Y-131911454D01*
X83485418Y-131779918D01*
X83485417Y-131779917D01*
X83485417Y-131779916D01*
X83390716Y-131670626D01*
X83269060Y-131592442D01*
X83269059Y-131592441D01*
X83269058Y-131592441D01*
X83130308Y-131551700D01*
X83130306Y-131551700D01*
X82985694Y-131551700D01*
X82985691Y-131551700D01*
X82846941Y-131592441D01*
X82725284Y-131670626D01*
X82630582Y-131779917D01*
X82605704Y-131834392D01*
X82569620Y-131871052D01*
X82518413Y-131875942D01*
X82476044Y-131846772D01*
X82468896Y-131834392D01*
X82453848Y-131801443D01*
X82444017Y-131779916D01*
X82349316Y-131670626D01*
X82227660Y-131592442D01*
X82227659Y-131592441D01*
X82227658Y-131592441D01*
X82088908Y-131551700D01*
X82088906Y-131551700D01*
X81944294Y-131551700D01*
X81944291Y-131551700D01*
X81805541Y-131592441D01*
X81683883Y-131670626D01*
X81662531Y-131695268D01*
X81617580Y-131720277D01*
X81567070Y-131710541D01*
X81534635Y-131670615D01*
X81530500Y-131646021D01*
X81530500Y-131191000D01*
X85851940Y-131191000D01*
X85872520Y-131334140D01*
X85872520Y-131334141D01*
X85872521Y-131334143D01*
X85872521Y-131334145D01*
X85932592Y-131465681D01*
X85932593Y-131465682D01*
X85932594Y-131465684D01*
X86027295Y-131574974D01*
X86148951Y-131653158D01*
X86287705Y-131693900D01*
X86287708Y-131693900D01*
X86432314Y-131693900D01*
X86432317Y-131693900D01*
X86571071Y-131653158D01*
X86692727Y-131574974D01*
X86787428Y-131465684D01*
X86847502Y-131334140D01*
X86868082Y-131191000D01*
X86847502Y-131047860D01*
X86847500Y-131047855D01*
X86847500Y-131047854D01*
X86787429Y-130916318D01*
X86787428Y-130916317D01*
X86787428Y-130916316D01*
X86692727Y-130807026D01*
X86571071Y-130728842D01*
X86571070Y-130728841D01*
X86571069Y-130728841D01*
X86432319Y-130688100D01*
X86432317Y-130688100D01*
X86287705Y-130688100D01*
X86287702Y-130688100D01*
X86148952Y-130728841D01*
X86027295Y-130807026D01*
X85932592Y-130916318D01*
X85872521Y-131047854D01*
X85872521Y-131047856D01*
X85872520Y-131047858D01*
X85872520Y-131047860D01*
X85851940Y-131191000D01*
X81530500Y-131191000D01*
X81530500Y-126655205D01*
X85851918Y-126655205D01*
X85872498Y-126798345D01*
X85872498Y-126798346D01*
X85872499Y-126798348D01*
X85872499Y-126798350D01*
X85932570Y-126929886D01*
X85932571Y-126929887D01*
X85932572Y-126929889D01*
X86027273Y-127039179D01*
X86148929Y-127117363D01*
X86287683Y-127158105D01*
X86287686Y-127158105D01*
X86432292Y-127158105D01*
X86432295Y-127158105D01*
X86571049Y-127117363D01*
X86692705Y-127039179D01*
X86787406Y-126929889D01*
X86847480Y-126798345D01*
X86868060Y-126655205D01*
X86847480Y-126512065D01*
X86847478Y-126512060D01*
X86847478Y-126512059D01*
X86787407Y-126380523D01*
X86787406Y-126380522D01*
X86787406Y-126380521D01*
X86692705Y-126271231D01*
X86571049Y-126193047D01*
X86571048Y-126193046D01*
X86571047Y-126193046D01*
X86432297Y-126152305D01*
X86432295Y-126152305D01*
X86287683Y-126152305D01*
X86287680Y-126152305D01*
X86148930Y-126193046D01*
X86027273Y-126271231D01*
X85932570Y-126380523D01*
X85872499Y-126512059D01*
X85872499Y-126512061D01*
X85872498Y-126512063D01*
X85872498Y-126512065D01*
X85851918Y-126655205D01*
X81530500Y-126655205D01*
X81530500Y-123063000D01*
X85851929Y-123063000D01*
X85872509Y-123206140D01*
X85872509Y-123206141D01*
X85872510Y-123206143D01*
X85872510Y-123206145D01*
X85932581Y-123337681D01*
X85932582Y-123337682D01*
X85932583Y-123337684D01*
X86027284Y-123446974D01*
X86148940Y-123525158D01*
X86287694Y-123565900D01*
X86287697Y-123565900D01*
X86432303Y-123565900D01*
X86432306Y-123565900D01*
X86571060Y-123525158D01*
X86692716Y-123446974D01*
X86787417Y-123337684D01*
X86847491Y-123206140D01*
X86868071Y-123063000D01*
X86847491Y-122919860D01*
X86847489Y-122919855D01*
X86847489Y-122919854D01*
X86787418Y-122788318D01*
X86787417Y-122788317D01*
X86787417Y-122788316D01*
X86692716Y-122679026D01*
X86571060Y-122600842D01*
X86571059Y-122600841D01*
X86571058Y-122600841D01*
X86432308Y-122560100D01*
X86432306Y-122560100D01*
X86287694Y-122560100D01*
X86287691Y-122560100D01*
X86148941Y-122600841D01*
X86027284Y-122679026D01*
X85932581Y-122788318D01*
X85872510Y-122919854D01*
X85872510Y-122919856D01*
X85872509Y-122919858D01*
X85872509Y-122919860D01*
X85851929Y-123063000D01*
X81530500Y-123063000D01*
X81530500Y-122981074D01*
X81548093Y-122932736D01*
X81592642Y-122907016D01*
X81634481Y-122911599D01*
X81640337Y-122914024D01*
X81640342Y-122914028D01*
X81684943Y-122922900D01*
X83415056Y-122922899D01*
X83459658Y-122914028D01*
X83510234Y-122880234D01*
X83544028Y-122829658D01*
X83552900Y-122785057D01*
X83552899Y-121054944D01*
X83544028Y-121010342D01*
X83510234Y-120959766D01*
X83459658Y-120925972D01*
X83459656Y-120925971D01*
X83415057Y-120917100D01*
X81684944Y-120917100D01*
X81684942Y-120917101D01*
X81640337Y-120925973D01*
X81634469Y-120928403D01*
X81583078Y-120930641D01*
X81542272Y-120899321D01*
X81530500Y-120858924D01*
X81530500Y-119253000D01*
X85851929Y-119253000D01*
X85872509Y-119396140D01*
X85872509Y-119396141D01*
X85872510Y-119396143D01*
X85872510Y-119396145D01*
X85932581Y-119527681D01*
X85932582Y-119527682D01*
X85932583Y-119527684D01*
X86027284Y-119636974D01*
X86148940Y-119715158D01*
X86287694Y-119755900D01*
X86287697Y-119755900D01*
X86432303Y-119755900D01*
X86432306Y-119755900D01*
X86571060Y-119715158D01*
X86692716Y-119636974D01*
X86787417Y-119527684D01*
X86847491Y-119396140D01*
X86868071Y-119253000D01*
X86847491Y-119109860D01*
X86847489Y-119109855D01*
X86847489Y-119109854D01*
X86787418Y-118978318D01*
X86787417Y-118978317D01*
X86787417Y-118978316D01*
X86692716Y-118869026D01*
X86571060Y-118790842D01*
X86571059Y-118790841D01*
X86571058Y-118790841D01*
X86432308Y-118750100D01*
X86432306Y-118750100D01*
X86287694Y-118750100D01*
X86287691Y-118750100D01*
X86148941Y-118790841D01*
X86027284Y-118869026D01*
X85932581Y-118978318D01*
X85872510Y-119109854D01*
X85872510Y-119109856D01*
X85872509Y-119109858D01*
X85872509Y-119109860D01*
X85851929Y-119253000D01*
X81530500Y-119253000D01*
X81530500Y-115570000D01*
X85851929Y-115570000D01*
X85872509Y-115713140D01*
X85872509Y-115713141D01*
X85872510Y-115713143D01*
X85872510Y-115713145D01*
X85932581Y-115844681D01*
X85932582Y-115844682D01*
X85932583Y-115844684D01*
X86027284Y-115953974D01*
X86148940Y-116032158D01*
X86287694Y-116072900D01*
X86287697Y-116072900D01*
X86432303Y-116072900D01*
X86432306Y-116072900D01*
X86571060Y-116032158D01*
X86692716Y-115953974D01*
X86787417Y-115844684D01*
X86847491Y-115713140D01*
X86868071Y-115570000D01*
X86847491Y-115426860D01*
X86847489Y-115426855D01*
X86847489Y-115426854D01*
X86787418Y-115295318D01*
X86787417Y-115295317D01*
X86787417Y-115295316D01*
X86692716Y-115186026D01*
X86571060Y-115107842D01*
X86571059Y-115107841D01*
X86571058Y-115107841D01*
X86432308Y-115067100D01*
X86432306Y-115067100D01*
X86287694Y-115067100D01*
X86287691Y-115067100D01*
X86148941Y-115107841D01*
X86027284Y-115186026D01*
X85932581Y-115295318D01*
X85872510Y-115426854D01*
X85872510Y-115426856D01*
X85872509Y-115426858D01*
X85872509Y-115426860D01*
X85851929Y-115570000D01*
X81530500Y-115570000D01*
X81530500Y-112395000D01*
X85851929Y-112395000D01*
X85872509Y-112538140D01*
X85872509Y-112538141D01*
X85872510Y-112538143D01*
X85872510Y-112538145D01*
X85932581Y-112669681D01*
X85932582Y-112669682D01*
X85932583Y-112669684D01*
X86027284Y-112778974D01*
X86148940Y-112857158D01*
X86287694Y-112897900D01*
X86287697Y-112897900D01*
X86432303Y-112897900D01*
X86432306Y-112897900D01*
X86571060Y-112857158D01*
X86692716Y-112778974D01*
X86787417Y-112669684D01*
X86847491Y-112538140D01*
X86868071Y-112395000D01*
X86847491Y-112251860D01*
X86847489Y-112251855D01*
X86847489Y-112251854D01*
X86787418Y-112120318D01*
X86787417Y-112120317D01*
X86787417Y-112120316D01*
X86692716Y-112011026D01*
X86571060Y-111932842D01*
X86571059Y-111932841D01*
X86571058Y-111932841D01*
X86432308Y-111892100D01*
X86432306Y-111892100D01*
X86287694Y-111892100D01*
X86287691Y-111892100D01*
X86148941Y-111932841D01*
X86027284Y-112011026D01*
X85932581Y-112120318D01*
X85872510Y-112251854D01*
X85872510Y-112251856D01*
X85872509Y-112251858D01*
X85872509Y-112251860D01*
X85851929Y-112395000D01*
X81530500Y-112395000D01*
X81530500Y-108585000D01*
X85851929Y-108585000D01*
X85872509Y-108728140D01*
X85872509Y-108728141D01*
X85872510Y-108728143D01*
X85872510Y-108728145D01*
X85932581Y-108859681D01*
X85932582Y-108859682D01*
X85932583Y-108859684D01*
X86027284Y-108968974D01*
X86148940Y-109047158D01*
X86287694Y-109087900D01*
X86287697Y-109087900D01*
X86432303Y-109087900D01*
X86432306Y-109087900D01*
X86571060Y-109047158D01*
X86692716Y-108968974D01*
X86787417Y-108859684D01*
X86847491Y-108728140D01*
X86868071Y-108585000D01*
X86847491Y-108441860D01*
X86847489Y-108441855D01*
X86847489Y-108441854D01*
X86787418Y-108310318D01*
X86787417Y-108310317D01*
X86787417Y-108310316D01*
X86692716Y-108201026D01*
X86571060Y-108122842D01*
X86571059Y-108122841D01*
X86571058Y-108122841D01*
X86432308Y-108082100D01*
X86432306Y-108082100D01*
X86287694Y-108082100D01*
X86287691Y-108082100D01*
X86148941Y-108122841D01*
X86027284Y-108201026D01*
X85932581Y-108310318D01*
X85872510Y-108441854D01*
X85872510Y-108441856D01*
X85872509Y-108441858D01*
X85872509Y-108441860D01*
X85851929Y-108585000D01*
X81530500Y-108585000D01*
X81530500Y-107741074D01*
X81548093Y-107692736D01*
X81592642Y-107667016D01*
X81634481Y-107671599D01*
X81640337Y-107674024D01*
X81640342Y-107674028D01*
X81684943Y-107682900D01*
X83415056Y-107682899D01*
X83459658Y-107674028D01*
X83510234Y-107640234D01*
X83544028Y-107589658D01*
X83552900Y-107545057D01*
X83552899Y-105814944D01*
X83544028Y-105770342D01*
X83510234Y-105719766D01*
X83459658Y-105685972D01*
X83459656Y-105685971D01*
X83415057Y-105677100D01*
X81684944Y-105677100D01*
X81684942Y-105677101D01*
X81640337Y-105685973D01*
X81634469Y-105688403D01*
X81583078Y-105690641D01*
X81542272Y-105659321D01*
X81530500Y-105618924D01*
X81530500Y-104521000D01*
X85851929Y-104521000D01*
X85872509Y-104664140D01*
X85872509Y-104664141D01*
X85872510Y-104664143D01*
X85872510Y-104664145D01*
X85932581Y-104795681D01*
X85932582Y-104795682D01*
X85932583Y-104795684D01*
X86027284Y-104904974D01*
X86148940Y-104983158D01*
X86287694Y-105023900D01*
X86287697Y-105023900D01*
X86432303Y-105023900D01*
X86432306Y-105023900D01*
X86571060Y-104983158D01*
X86692716Y-104904974D01*
X86787417Y-104795684D01*
X86847491Y-104664140D01*
X86868071Y-104521000D01*
X86847491Y-104377860D01*
X86847489Y-104377855D01*
X86847489Y-104377854D01*
X86787418Y-104246318D01*
X86787417Y-104246317D01*
X86787417Y-104246316D01*
X86692716Y-104137026D01*
X86571060Y-104058842D01*
X86571059Y-104058841D01*
X86571058Y-104058841D01*
X86432308Y-104018100D01*
X86432306Y-104018100D01*
X86287694Y-104018100D01*
X86287691Y-104018100D01*
X86148941Y-104058841D01*
X86027284Y-104137026D01*
X85932581Y-104246318D01*
X85872510Y-104377854D01*
X85872510Y-104377856D01*
X85872509Y-104377858D01*
X85872509Y-104377860D01*
X85851929Y-104521000D01*
X81530500Y-104521000D01*
X81530500Y-101979265D01*
X81548093Y-101930927D01*
X81592642Y-101905207D01*
X81643300Y-101914140D01*
X81662529Y-101930017D01*
X81709284Y-101983974D01*
X81830940Y-102062158D01*
X81969694Y-102102900D01*
X81969697Y-102102900D01*
X82114303Y-102102900D01*
X82114306Y-102102900D01*
X82253060Y-102062158D01*
X82374716Y-101983974D01*
X82469417Y-101874684D01*
X82478029Y-101855825D01*
X82494296Y-101820208D01*
X82530380Y-101783547D01*
X82581586Y-101778657D01*
X82623956Y-101807827D01*
X82631104Y-101820208D01*
X82655981Y-101874681D01*
X82655982Y-101874682D01*
X82655983Y-101874684D01*
X82750684Y-101983974D01*
X82872340Y-102062158D01*
X83011094Y-102102900D01*
X83011097Y-102102900D01*
X83155703Y-102102900D01*
X83155706Y-102102900D01*
X83294460Y-102062158D01*
X83416116Y-101983974D01*
X83510817Y-101874684D01*
X83570891Y-101743140D01*
X83591471Y-101600000D01*
X83570891Y-101456860D01*
X83570889Y-101456855D01*
X83570889Y-101456854D01*
X83510818Y-101325318D01*
X83510817Y-101325317D01*
X83510817Y-101325316D01*
X83416116Y-101216026D01*
X83294460Y-101137842D01*
X83294459Y-101137841D01*
X83294458Y-101137841D01*
X83155708Y-101097100D01*
X83155706Y-101097100D01*
X83011094Y-101097100D01*
X83011091Y-101097100D01*
X82872341Y-101137841D01*
X82750684Y-101216026D01*
X82655982Y-101325317D01*
X82631104Y-101379792D01*
X82595020Y-101416452D01*
X82543813Y-101421342D01*
X82501444Y-101392172D01*
X82494296Y-101379792D01*
X82479248Y-101346843D01*
X82469417Y-101325316D01*
X82374716Y-101216026D01*
X82253060Y-101137842D01*
X82253059Y-101137841D01*
X82253058Y-101137841D01*
X82114308Y-101097100D01*
X82114306Y-101097100D01*
X81969694Y-101097100D01*
X81969691Y-101097100D01*
X81830941Y-101137841D01*
X81709283Y-101216026D01*
X81662532Y-101269980D01*
X81617581Y-101294990D01*
X81567071Y-101285254D01*
X81534636Y-101245329D01*
X81530500Y-101220734D01*
X81530500Y-101092000D01*
X85851929Y-101092000D01*
X85872509Y-101235140D01*
X85872509Y-101235141D01*
X85872510Y-101235143D01*
X85872510Y-101235145D01*
X85932581Y-101366681D01*
X85932582Y-101366682D01*
X85932583Y-101366684D01*
X86027284Y-101475974D01*
X86148940Y-101554158D01*
X86287694Y-101594900D01*
X86287697Y-101594900D01*
X86432303Y-101594900D01*
X86432306Y-101594900D01*
X86571060Y-101554158D01*
X86692716Y-101475974D01*
X86787417Y-101366684D01*
X86847491Y-101235140D01*
X86868071Y-101092000D01*
X86847491Y-100948860D01*
X86847489Y-100948855D01*
X86847489Y-100948854D01*
X86787418Y-100817318D01*
X86787417Y-100817317D01*
X86787417Y-100817316D01*
X86692716Y-100708026D01*
X86571060Y-100629842D01*
X86571059Y-100629841D01*
X86571058Y-100629841D01*
X86432308Y-100589100D01*
X86432306Y-100589100D01*
X86287694Y-100589100D01*
X86287691Y-100589100D01*
X86148941Y-100629841D01*
X86027284Y-100708026D01*
X85932581Y-100817318D01*
X85872510Y-100948854D01*
X85872510Y-100948856D01*
X85872509Y-100948858D01*
X85872509Y-100948860D01*
X85851929Y-101092000D01*
X81530500Y-101092000D01*
X81530500Y-98380806D01*
X81548093Y-98332468D01*
X81592642Y-98306748D01*
X81631418Y-98310141D01*
X81656796Y-98319378D01*
X81710794Y-98328899D01*
X81710795Y-98328900D01*
X81710799Y-98328900D01*
X83138642Y-98328900D01*
X83138643Y-98328900D01*
X83145525Y-98328600D01*
X83162014Y-98327158D01*
X83227206Y-98306604D01*
X83255449Y-98290297D01*
X83271756Y-98280884D01*
X83281041Y-98274380D01*
X83294303Y-98265095D01*
X83341184Y-98198141D01*
X83358777Y-98149803D01*
X83368298Y-98095804D01*
X83368299Y-98095804D01*
X83368299Y-96824800D01*
X85851940Y-96824800D01*
X85872520Y-96967940D01*
X85872520Y-96967941D01*
X85872521Y-96967943D01*
X85872521Y-96967945D01*
X85932592Y-97099481D01*
X85932593Y-97099482D01*
X85932594Y-97099484D01*
X86027295Y-97208774D01*
X86148951Y-97286958D01*
X86287705Y-97327700D01*
X86287708Y-97327700D01*
X86432314Y-97327700D01*
X86432317Y-97327700D01*
X86571071Y-97286958D01*
X86692727Y-97208774D01*
X86787428Y-97099484D01*
X86847502Y-96967940D01*
X86868082Y-96824800D01*
X86847502Y-96681660D01*
X86847500Y-96681655D01*
X86847500Y-96681654D01*
X86787429Y-96550118D01*
X86787428Y-96550117D01*
X86787428Y-96550116D01*
X86692727Y-96440826D01*
X86571071Y-96362642D01*
X86571070Y-96362641D01*
X86571069Y-96362641D01*
X86432319Y-96321900D01*
X86432317Y-96321900D01*
X86287705Y-96321900D01*
X86287702Y-96321900D01*
X86148952Y-96362641D01*
X86027295Y-96440826D01*
X85932592Y-96550118D01*
X85872521Y-96681654D01*
X85872521Y-96681656D01*
X85872520Y-96681658D01*
X85872520Y-96681660D01*
X85851940Y-96824800D01*
X83368299Y-96824800D01*
X83368299Y-95220157D01*
X83367999Y-95213274D01*
X83366557Y-95196785D01*
X83346003Y-95131593D01*
X83335131Y-95112763D01*
X83320283Y-95087043D01*
X83312388Y-95075770D01*
X83304494Y-95064496D01*
X83262184Y-95034870D01*
X83232681Y-94992735D01*
X83237163Y-94941491D01*
X83252141Y-94920100D01*
X85492555Y-92679688D01*
X85515481Y-92656762D01*
X85527515Y-92633142D01*
X85533674Y-92623091D01*
X85549259Y-92601643D01*
X85557451Y-92576426D01*
X85561962Y-92565535D01*
X85573998Y-92541917D01*
X85578144Y-92515733D01*
X85580896Y-92504271D01*
X85589089Y-92479057D01*
X85589089Y-92350164D01*
X85589089Y-81940400D01*
X87776229Y-81940400D01*
X87796809Y-82083540D01*
X87796809Y-82083541D01*
X87796810Y-82083543D01*
X87796810Y-82083545D01*
X87856881Y-82215081D01*
X87856882Y-82215082D01*
X87856883Y-82215084D01*
X87951584Y-82324374D01*
X88073240Y-82402558D01*
X88211994Y-82443300D01*
X88211997Y-82443300D01*
X88356603Y-82443300D01*
X88356606Y-82443300D01*
X88495360Y-82402558D01*
X88617016Y-82324374D01*
X88711717Y-82215084D01*
X88771791Y-82083540D01*
X88792371Y-81940400D01*
X88771791Y-81797260D01*
X88771789Y-81797255D01*
X88771789Y-81797254D01*
X88711718Y-81665718D01*
X88711717Y-81665717D01*
X88711717Y-81665716D01*
X88617016Y-81556426D01*
X88495360Y-81478242D01*
X88495359Y-81478241D01*
X88495358Y-81478241D01*
X88356608Y-81437500D01*
X88356606Y-81437500D01*
X88211994Y-81437500D01*
X88211991Y-81437500D01*
X88073241Y-81478241D01*
X87951584Y-81556426D01*
X87856881Y-81665718D01*
X87796810Y-81797254D01*
X87796810Y-81797256D01*
X87796809Y-81797258D01*
X87796809Y-81797260D01*
X87776229Y-81940400D01*
X85589089Y-81940400D01*
X85589089Y-79878086D01*
X85852368Y-79878086D01*
X85872948Y-80021226D01*
X85872948Y-80021227D01*
X85872949Y-80021229D01*
X85872949Y-80021231D01*
X85933020Y-80152767D01*
X85933021Y-80152768D01*
X85933022Y-80152770D01*
X86027723Y-80262060D01*
X86149379Y-80340244D01*
X86288133Y-80380986D01*
X86288136Y-80380986D01*
X86432742Y-80380986D01*
X86432745Y-80380986D01*
X86571499Y-80340244D01*
X86693155Y-80262060D01*
X86787856Y-80152770D01*
X86847930Y-80021226D01*
X86868510Y-79878086D01*
X86847930Y-79734946D01*
X86847928Y-79734941D01*
X86847928Y-79734940D01*
X86787857Y-79603404D01*
X86787856Y-79603403D01*
X86787856Y-79603402D01*
X86693155Y-79494112D01*
X86571499Y-79415928D01*
X86571498Y-79415927D01*
X86571497Y-79415927D01*
X86432747Y-79375186D01*
X86432745Y-79375186D01*
X86288133Y-79375186D01*
X86288130Y-79375186D01*
X86149380Y-79415927D01*
X86027723Y-79494112D01*
X85933020Y-79603404D01*
X85872949Y-79734940D01*
X85872949Y-79734942D01*
X85872948Y-79734944D01*
X85872948Y-79734946D01*
X85852368Y-79878086D01*
X85589089Y-79878086D01*
X85589089Y-77046037D01*
X85606682Y-76997699D01*
X85651231Y-76971979D01*
X85701889Y-76980912D01*
X85734954Y-77020317D01*
X85738722Y-77035329D01*
X85740286Y-77046203D01*
X85740286Y-77046204D01*
X85740287Y-77046206D01*
X85740287Y-77046208D01*
X85800358Y-77177744D01*
X85800359Y-77177745D01*
X85800360Y-77177747D01*
X85895061Y-77287037D01*
X86016717Y-77365221D01*
X86155471Y-77405963D01*
X86155474Y-77405963D01*
X86300080Y-77405963D01*
X86300083Y-77405963D01*
X86438837Y-77365221D01*
X86560493Y-77287037D01*
X86655194Y-77177747D01*
X86715268Y-77046203D01*
X86735848Y-76903063D01*
X86715268Y-76759923D01*
X86715266Y-76759918D01*
X86715266Y-76759917D01*
X86655195Y-76628381D01*
X86655194Y-76628380D01*
X86655194Y-76628379D01*
X86560493Y-76519089D01*
X86438837Y-76440905D01*
X86438836Y-76440904D01*
X86438835Y-76440904D01*
X86300085Y-76400163D01*
X86300083Y-76400163D01*
X86155471Y-76400163D01*
X86155468Y-76400163D01*
X86016718Y-76440904D01*
X85895061Y-76519089D01*
X85800358Y-76628381D01*
X85740287Y-76759917D01*
X85740286Y-76759919D01*
X85738724Y-76770790D01*
X85714430Y-76816132D01*
X85666675Y-76835250D01*
X85617803Y-76819199D01*
X85590683Y-76775489D01*
X85589089Y-76760088D01*
X85589089Y-66454351D01*
X85589088Y-66454333D01*
X85589088Y-66423342D01*
X85580898Y-66398139D01*
X85580288Y-66395600D01*
X85978929Y-66395600D01*
X85999509Y-66538740D01*
X85999509Y-66538741D01*
X85999510Y-66538743D01*
X85999510Y-66538745D01*
X86059581Y-66670281D01*
X86059582Y-66670282D01*
X86059583Y-66670284D01*
X86154284Y-66779574D01*
X86275940Y-66857758D01*
X86414694Y-66898500D01*
X86414697Y-66898500D01*
X86559303Y-66898500D01*
X86559306Y-66898500D01*
X86585791Y-66890723D01*
X86637125Y-66893985D01*
X86674354Y-66929482D01*
X86680056Y-66980605D01*
X86660150Y-67016051D01*
X86612103Y-67064099D01*
X86610676Y-67065453D01*
X86579681Y-67093362D01*
X86579679Y-67093366D01*
X86569613Y-67115972D01*
X86563988Y-67126333D01*
X86550505Y-67147098D01*
X86549153Y-67155632D01*
X86543581Y-67174442D01*
X86540067Y-67182336D01*
X86540067Y-67207086D01*
X86539141Y-67218851D01*
X86535270Y-67243289D01*
X86535270Y-67243290D01*
X86537504Y-67251627D01*
X86540067Y-67271092D01*
X86540067Y-72080991D01*
X86540015Y-72082959D01*
X86537832Y-72124605D01*
X86546700Y-72147707D01*
X86550050Y-72159017D01*
X86555197Y-72183230D01*
X86555198Y-72183232D01*
X86560275Y-72190220D01*
X86569640Y-72207468D01*
X86572736Y-72215533D01*
X86590231Y-72233028D01*
X86597893Y-72241998D01*
X86612443Y-72262023D01*
X86612445Y-72262025D01*
X86619926Y-72266344D01*
X86635497Y-72278293D01*
X86839977Y-72482773D01*
X86861717Y-72529393D01*
X86848403Y-72579080D01*
X86843635Y-72585193D01*
X86751459Y-72691569D01*
X86691388Y-72823105D01*
X86691388Y-72823107D01*
X86691387Y-72823109D01*
X86691387Y-72823111D01*
X86670807Y-72966251D01*
X86691387Y-73109391D01*
X86691387Y-73109392D01*
X86691388Y-73109394D01*
X86691388Y-73109396D01*
X86751459Y-73240932D01*
X86751460Y-73240933D01*
X86751461Y-73240935D01*
X86846162Y-73350225D01*
X86967818Y-73428409D01*
X87106572Y-73469151D01*
X87106575Y-73469151D01*
X87251181Y-73469151D01*
X87251184Y-73469151D01*
X87389938Y-73428409D01*
X87511594Y-73350225D01*
X87606295Y-73240935D01*
X87666369Y-73109391D01*
X87686949Y-72966251D01*
X87666369Y-72823111D01*
X87666367Y-72823106D01*
X87666367Y-72823105D01*
X87606296Y-72691569D01*
X87606295Y-72691568D01*
X87606295Y-72691567D01*
X87511594Y-72582277D01*
X87481353Y-72562842D01*
X87444093Y-72538896D01*
X87412941Y-72497961D01*
X87409653Y-72471699D01*
X87410212Y-72461039D01*
X87401341Y-72437931D01*
X87397992Y-72426621D01*
X87392847Y-72402415D01*
X87392847Y-72402413D01*
X87387765Y-72395419D01*
X87378404Y-72378175D01*
X87375310Y-72370114D01*
X87375308Y-72370112D01*
X87375308Y-72370111D01*
X87357810Y-72352613D01*
X87350146Y-72343641D01*
X87335600Y-72323620D01*
X87335599Y-72323619D01*
X87335598Y-72323618D01*
X87328121Y-72319301D01*
X87312549Y-72307351D01*
X87020293Y-72015095D01*
X86998553Y-71968475D01*
X86998267Y-71961921D01*
X86998267Y-71614156D01*
X87015860Y-71565818D01*
X87060409Y-71540098D01*
X87111067Y-71549031D01*
X87114124Y-71550895D01*
X87136705Y-71565408D01*
X87240076Y-71595760D01*
X87275461Y-71606150D01*
X87275464Y-71606150D01*
X87420070Y-71606150D01*
X87420073Y-71606150D01*
X87558827Y-71565408D01*
X87680483Y-71487224D01*
X87721357Y-71440052D01*
X87766306Y-71415044D01*
X87816816Y-71424778D01*
X87835016Y-71440050D01*
X87866891Y-71476835D01*
X87988547Y-71555019D01*
X88127301Y-71595761D01*
X88127304Y-71595761D01*
X88271910Y-71595761D01*
X88271913Y-71595761D01*
X88410667Y-71555019D01*
X88532323Y-71476835D01*
X88627024Y-71367545D01*
X88687098Y-71236001D01*
X88707678Y-71092861D01*
X88687098Y-70949721D01*
X88687096Y-70949716D01*
X88687096Y-70949715D01*
X88627025Y-70818179D01*
X88627024Y-70818178D01*
X88627024Y-70818177D01*
X88532323Y-70708887D01*
X88410667Y-70630703D01*
X88410666Y-70630702D01*
X88410665Y-70630702D01*
X88271915Y-70589961D01*
X88271913Y-70589961D01*
X88127301Y-70589961D01*
X88127298Y-70589961D01*
X87988548Y-70630702D01*
X87866890Y-70708887D01*
X87866890Y-70708888D01*
X87826016Y-70756057D01*
X87781065Y-70781066D01*
X87730555Y-70771329D01*
X87712353Y-70756056D01*
X87697266Y-70738645D01*
X87680483Y-70719276D01*
X87558827Y-70641092D01*
X87558826Y-70641091D01*
X87558825Y-70641091D01*
X87420075Y-70600350D01*
X87420073Y-70600350D01*
X87275461Y-70600350D01*
X87275458Y-70600350D01*
X87136709Y-70641090D01*
X87114123Y-70655606D01*
X87063947Y-70666938D01*
X87018225Y-70643367D01*
X86998352Y-70595921D01*
X86998267Y-70592343D01*
X86998267Y-70037787D01*
X87015860Y-69989449D01*
X87060409Y-69963729D01*
X87111067Y-69972662D01*
X87130296Y-69988538D01*
X87144884Y-70005374D01*
X87266540Y-70083558D01*
X87405294Y-70124300D01*
X87405297Y-70124300D01*
X87549903Y-70124300D01*
X87549906Y-70124300D01*
X87688660Y-70083558D01*
X87810316Y-70005374D01*
X87905017Y-69896084D01*
X87965091Y-69764540D01*
X87985671Y-69621400D01*
X87965091Y-69478260D01*
X87965089Y-69478255D01*
X87965089Y-69478254D01*
X87905018Y-69346718D01*
X87905017Y-69346717D01*
X87905017Y-69346716D01*
X87810316Y-69237426D01*
X87688660Y-69159242D01*
X87688659Y-69159241D01*
X87688658Y-69159241D01*
X87549908Y-69118500D01*
X87549906Y-69118500D01*
X87405294Y-69118500D01*
X87405291Y-69118500D01*
X87266541Y-69159241D01*
X87144883Y-69237426D01*
X87130299Y-69254258D01*
X87085348Y-69279268D01*
X87034838Y-69269532D01*
X87002403Y-69229607D01*
X86998267Y-69205012D01*
X86998267Y-68310762D01*
X87015860Y-68262424D01*
X87060409Y-68236704D01*
X87111067Y-68245637D01*
X87114113Y-68247493D01*
X87164940Y-68280158D01*
X87303694Y-68320900D01*
X87303697Y-68320900D01*
X87448303Y-68320900D01*
X87448306Y-68320900D01*
X87587060Y-68280158D01*
X87708716Y-68201974D01*
X87803417Y-68092684D01*
X87863491Y-67961140D01*
X87884071Y-67818000D01*
X87863491Y-67674860D01*
X87863489Y-67674855D01*
X87863489Y-67674854D01*
X87803418Y-67543318D01*
X87803417Y-67543317D01*
X87803417Y-67543316D01*
X87708716Y-67434026D01*
X87587060Y-67355842D01*
X87587059Y-67355841D01*
X87587058Y-67355841D01*
X87448308Y-67315100D01*
X87448306Y-67315100D01*
X87303694Y-67315100D01*
X87303691Y-67315100D01*
X87169331Y-67354552D01*
X87117995Y-67351289D01*
X87080766Y-67315792D01*
X87075065Y-67264669D01*
X87094969Y-67229225D01*
X87662981Y-66661213D01*
X87664347Y-66659916D01*
X87695378Y-66631978D01*
X87705448Y-66609358D01*
X87711071Y-66599003D01*
X87724553Y-66578245D01*
X87725903Y-66569716D01*
X87731477Y-66550898D01*
X87734992Y-66543005D01*
X87734992Y-66543002D01*
X87735787Y-66539263D01*
X87763044Y-66495639D01*
X87768670Y-66491645D01*
X87838608Y-66446699D01*
X87933309Y-66337409D01*
X87985157Y-66223877D01*
X87993381Y-66205870D01*
X87993381Y-66205869D01*
X87993383Y-66205865D01*
X88013963Y-66062725D01*
X87993383Y-65919585D01*
X87993381Y-65919580D01*
X87993381Y-65919579D01*
X87933310Y-65788043D01*
X87933309Y-65788042D01*
X87933309Y-65788041D01*
X87838608Y-65678751D01*
X87716952Y-65600567D01*
X87716951Y-65600566D01*
X87716950Y-65600566D01*
X87578200Y-65559825D01*
X87578198Y-65559825D01*
X87433586Y-65559825D01*
X87433583Y-65559825D01*
X87294833Y-65600566D01*
X87173176Y-65678751D01*
X87078473Y-65788043D01*
X87018402Y-65919579D01*
X87018402Y-65919581D01*
X87018401Y-65919583D01*
X87018401Y-65919585D01*
X87016409Y-65933441D01*
X87002210Y-66032201D01*
X86977916Y-66077543D01*
X86930161Y-66096661D01*
X86881290Y-66080610D01*
X86870943Y-66070745D01*
X86819716Y-66011626D01*
X86698060Y-65933442D01*
X86698059Y-65933441D01*
X86698058Y-65933441D01*
X86559308Y-65892700D01*
X86559306Y-65892700D01*
X86414694Y-65892700D01*
X86414691Y-65892700D01*
X86275941Y-65933441D01*
X86154284Y-66011626D01*
X86059581Y-66120918D01*
X85999510Y-66252454D01*
X85999510Y-66252456D01*
X85999509Y-66252458D01*
X85999509Y-66252460D01*
X85978929Y-66395600D01*
X85580288Y-66395600D01*
X85578144Y-66386670D01*
X85573998Y-66360483D01*
X85561963Y-66336864D01*
X85557449Y-66325964D01*
X85549259Y-66300760D01*
X85549258Y-66300759D01*
X85549258Y-66300757D01*
X85533676Y-66279310D01*
X85527513Y-66269252D01*
X85515481Y-66245638D01*
X85512273Y-66242430D01*
X85493710Y-66223867D01*
X85493693Y-66223848D01*
X84687576Y-65417731D01*
X84665836Y-65371111D01*
X84665550Y-65364557D01*
X84665550Y-62620000D01*
X84981929Y-62620000D01*
X85002509Y-62763140D01*
X85002509Y-62763141D01*
X85002510Y-62763143D01*
X85002510Y-62763145D01*
X85062581Y-62894681D01*
X85062582Y-62894682D01*
X85062583Y-62894684D01*
X85157284Y-63003974D01*
X85157286Y-63003975D01*
X85177453Y-63016936D01*
X85208606Y-63057870D01*
X85206158Y-63109251D01*
X85193630Y-63129443D01*
X85120099Y-63214302D01*
X85060028Y-63345838D01*
X85060028Y-63345840D01*
X85060027Y-63345842D01*
X85060027Y-63345844D01*
X85039447Y-63488984D01*
X85060027Y-63632124D01*
X85060027Y-63632125D01*
X85060028Y-63632127D01*
X85060028Y-63632129D01*
X85120099Y-63763665D01*
X85120100Y-63763666D01*
X85120101Y-63763668D01*
X85214802Y-63872958D01*
X85282803Y-63916660D01*
X85340841Y-63953959D01*
X85371993Y-63994893D01*
X85369545Y-64046275D01*
X85368588Y-64048460D01*
X85318796Y-64157488D01*
X85318796Y-64157490D01*
X85318795Y-64157492D01*
X85318795Y-64157494D01*
X85298215Y-64300634D01*
X85318795Y-64443774D01*
X85318795Y-64443775D01*
X85318796Y-64443777D01*
X85318796Y-64443779D01*
X85378867Y-64575315D01*
X85378868Y-64575316D01*
X85378869Y-64575318D01*
X85473570Y-64684608D01*
X85595226Y-64762792D01*
X85733980Y-64803534D01*
X85733983Y-64803534D01*
X85878589Y-64803534D01*
X85878592Y-64803534D01*
X86017346Y-64762792D01*
X86139002Y-64684608D01*
X86233703Y-64575318D01*
X86293777Y-64443774D01*
X86314357Y-64300634D01*
X86293777Y-64157494D01*
X86293775Y-64157489D01*
X86293775Y-64157488D01*
X86233704Y-64025952D01*
X86233703Y-64025951D01*
X86233703Y-64025950D01*
X86139002Y-63916660D01*
X86012962Y-63835658D01*
X85981810Y-63794724D01*
X85984258Y-63743342D01*
X85985194Y-63741201D01*
X86035009Y-63632124D01*
X86055589Y-63488984D01*
X86035009Y-63345844D01*
X86035007Y-63345839D01*
X86035007Y-63345838D01*
X85974936Y-63214302D01*
X85974935Y-63214301D01*
X85974935Y-63214300D01*
X85880234Y-63105010D01*
X85860062Y-63092046D01*
X85828911Y-63051112D01*
X85831359Y-62999731D01*
X85843884Y-62979543D01*
X85917417Y-62894684D01*
X85977491Y-62763140D01*
X85998071Y-62620000D01*
X85993546Y-62588527D01*
X86004080Y-62538178D01*
X86044514Y-62506380D01*
X86078836Y-62505858D01*
X86079171Y-62503535D01*
X86084491Y-62504300D01*
X86084494Y-62504300D01*
X86229103Y-62504300D01*
X86229106Y-62504300D01*
X86367860Y-62463558D01*
X86489516Y-62385374D01*
X86584217Y-62276084D01*
X86644291Y-62144540D01*
X86664871Y-62001400D01*
X86644291Y-61858260D01*
X86644289Y-61858255D01*
X86644289Y-61858254D01*
X86584218Y-61726718D01*
X86584217Y-61726717D01*
X86584217Y-61726716D01*
X86489516Y-61617426D01*
X86367860Y-61539242D01*
X86367859Y-61539241D01*
X86367858Y-61539241D01*
X86229108Y-61498500D01*
X86229106Y-61498500D01*
X86084494Y-61498500D01*
X86084491Y-61498500D01*
X85945741Y-61539241D01*
X85824084Y-61617426D01*
X85729381Y-61726718D01*
X85669310Y-61858254D01*
X85669310Y-61858256D01*
X85669309Y-61858258D01*
X85669309Y-61858260D01*
X85654264Y-61962900D01*
X85648729Y-62001400D01*
X85653254Y-62032873D01*
X85642718Y-62083222D01*
X85602283Y-62115020D01*
X85567960Y-62115564D01*
X85567630Y-62117866D01*
X85562308Y-62117100D01*
X85562306Y-62117100D01*
X85417694Y-62117100D01*
X85417691Y-62117100D01*
X85278941Y-62157841D01*
X85157284Y-62236026D01*
X85062581Y-62345318D01*
X85002510Y-62476854D01*
X85002510Y-62476856D01*
X85002509Y-62476858D01*
X85002509Y-62476860D01*
X84981929Y-62620000D01*
X84665550Y-62620000D01*
X84665550Y-56134000D01*
X86613929Y-56134000D01*
X86634509Y-56277140D01*
X86634509Y-56277141D01*
X86634510Y-56277143D01*
X86634510Y-56277145D01*
X86694581Y-56408681D01*
X86694582Y-56408682D01*
X86694583Y-56408684D01*
X86789284Y-56517974D01*
X86910940Y-56596158D01*
X87049694Y-56636900D01*
X87049697Y-56636900D01*
X87194303Y-56636900D01*
X87194306Y-56636900D01*
X87333060Y-56596158D01*
X87454716Y-56517974D01*
X87549417Y-56408684D01*
X87609491Y-56277140D01*
X87630071Y-56134000D01*
X87609491Y-55990860D01*
X87609489Y-55990855D01*
X87609489Y-55990854D01*
X87549418Y-55859318D01*
X87549417Y-55859317D01*
X87549417Y-55859316D01*
X87454716Y-55750026D01*
X87333060Y-55671842D01*
X87333059Y-55671841D01*
X87333058Y-55671841D01*
X87194308Y-55631100D01*
X87194306Y-55631100D01*
X87049694Y-55631100D01*
X87049691Y-55631100D01*
X86910941Y-55671841D01*
X86789284Y-55750026D01*
X86694581Y-55859318D01*
X86634510Y-55990854D01*
X86634510Y-55990856D01*
X86634509Y-55990858D01*
X86634509Y-55990860D01*
X86613929Y-56134000D01*
X84665550Y-56134000D01*
X84665550Y-53594000D01*
X86613929Y-53594000D01*
X86634509Y-53737140D01*
X86634509Y-53737141D01*
X86634510Y-53737143D01*
X86634510Y-53737145D01*
X86694581Y-53868681D01*
X86694582Y-53868682D01*
X86694583Y-53868684D01*
X86789284Y-53977974D01*
X86910940Y-54056158D01*
X87049694Y-54096900D01*
X87049697Y-54096900D01*
X87194303Y-54096900D01*
X87194306Y-54096900D01*
X87333060Y-54056158D01*
X87454716Y-53977974D01*
X87549417Y-53868684D01*
X87609491Y-53737140D01*
X87630071Y-53594000D01*
X87609491Y-53450860D01*
X87609489Y-53450855D01*
X87609489Y-53450854D01*
X87549418Y-53319318D01*
X87549417Y-53319317D01*
X87549417Y-53319316D01*
X87454716Y-53210026D01*
X87333060Y-53131842D01*
X87333059Y-53131841D01*
X87333058Y-53131841D01*
X87194308Y-53091100D01*
X87194306Y-53091100D01*
X87049694Y-53091100D01*
X87049691Y-53091100D01*
X86910941Y-53131841D01*
X86789284Y-53210026D01*
X86694581Y-53319318D01*
X86634510Y-53450854D01*
X86634510Y-53450856D01*
X86634509Y-53450858D01*
X86634509Y-53450860D01*
X86613929Y-53594000D01*
X84665550Y-53594000D01*
X84665550Y-51700189D01*
X84683143Y-51651851D01*
X84727692Y-51626131D01*
X84778350Y-51635064D01*
X84781370Y-51636904D01*
X84881560Y-51701293D01*
X85020314Y-51742035D01*
X85020317Y-51742035D01*
X85164923Y-51742035D01*
X85164926Y-51742035D01*
X85303680Y-51701293D01*
X85425336Y-51623109D01*
X85520037Y-51513819D01*
X85580111Y-51382275D01*
X85600691Y-51239135D01*
X85599636Y-51231800D01*
X85851929Y-51231800D01*
X85872509Y-51374940D01*
X85872509Y-51374941D01*
X85872510Y-51374943D01*
X85872510Y-51374945D01*
X85932581Y-51506481D01*
X85932582Y-51506482D01*
X85932583Y-51506484D01*
X86027284Y-51615774D01*
X86148940Y-51693958D01*
X86287694Y-51734700D01*
X86287697Y-51734700D01*
X86432303Y-51734700D01*
X86432306Y-51734700D01*
X86571060Y-51693958D01*
X86692716Y-51615774D01*
X86787417Y-51506484D01*
X86821435Y-51431993D01*
X86847489Y-51374945D01*
X86847489Y-51374944D01*
X86847491Y-51374940D01*
X86868071Y-51231800D01*
X87121929Y-51231800D01*
X87142509Y-51374940D01*
X87142509Y-51374941D01*
X87142510Y-51374943D01*
X87142510Y-51374945D01*
X87202581Y-51506481D01*
X87202582Y-51506482D01*
X87202583Y-51506484D01*
X87297284Y-51615774D01*
X87418940Y-51693958D01*
X87557694Y-51734700D01*
X87557697Y-51734700D01*
X87702303Y-51734700D01*
X87702306Y-51734700D01*
X87841060Y-51693958D01*
X87962716Y-51615774D01*
X88057417Y-51506484D01*
X88091435Y-51431993D01*
X88117489Y-51374945D01*
X88117489Y-51374944D01*
X88117491Y-51374940D01*
X88138071Y-51231800D01*
X88117491Y-51088660D01*
X88117489Y-51088655D01*
X88117489Y-51088654D01*
X88057418Y-50957118D01*
X88057417Y-50957117D01*
X88057417Y-50957116D01*
X87962716Y-50847826D01*
X87841060Y-50769642D01*
X87841059Y-50769641D01*
X87841058Y-50769641D01*
X87702308Y-50728900D01*
X87702306Y-50728900D01*
X87557694Y-50728900D01*
X87557691Y-50728900D01*
X87418941Y-50769641D01*
X87297284Y-50847826D01*
X87202581Y-50957118D01*
X87142510Y-51088654D01*
X87142510Y-51088656D01*
X87142509Y-51088658D01*
X87142509Y-51088660D01*
X87121929Y-51231800D01*
X86868071Y-51231800D01*
X86847491Y-51088660D01*
X86847489Y-51088655D01*
X86847489Y-51088654D01*
X86787418Y-50957118D01*
X86787417Y-50957117D01*
X86787417Y-50957116D01*
X86692716Y-50847826D01*
X86571060Y-50769642D01*
X86571059Y-50769641D01*
X86571058Y-50769641D01*
X86432308Y-50728900D01*
X86432306Y-50728900D01*
X86287694Y-50728900D01*
X86287691Y-50728900D01*
X86148941Y-50769641D01*
X86027284Y-50847826D01*
X85932581Y-50957118D01*
X85872510Y-51088654D01*
X85872510Y-51088656D01*
X85872509Y-51088658D01*
X85872509Y-51088660D01*
X85851929Y-51231800D01*
X85599636Y-51231800D01*
X85580111Y-51095995D01*
X85580109Y-51095990D01*
X85580109Y-51095989D01*
X85520038Y-50964453D01*
X85520037Y-50964452D01*
X85520037Y-50964451D01*
X85425336Y-50855161D01*
X85303680Y-50776977D01*
X85303679Y-50776976D01*
X85303678Y-50776976D01*
X85164928Y-50736235D01*
X85164926Y-50736235D01*
X85020314Y-50736235D01*
X85020311Y-50736235D01*
X84881559Y-50776976D01*
X84781406Y-50841342D01*
X84731231Y-50852675D01*
X84685509Y-50829104D01*
X84665635Y-50781658D01*
X84665550Y-50778080D01*
X84665550Y-44601224D01*
X84665549Y-44601194D01*
X84665549Y-44570205D01*
X84665549Y-44570203D01*
X84657358Y-44544994D01*
X84654606Y-44533533D01*
X84650459Y-44507344D01*
X84638426Y-44483729D01*
X84633910Y-44472826D01*
X84625720Y-44447618D01*
X84610133Y-44426164D01*
X84603971Y-44416108D01*
X84591942Y-44392499D01*
X84570316Y-44370873D01*
X84570297Y-44370852D01*
X83887444Y-43688000D01*
X85851929Y-43688000D01*
X85872509Y-43831140D01*
X85872509Y-43831141D01*
X85872510Y-43831143D01*
X85872510Y-43831145D01*
X85932581Y-43962681D01*
X85932582Y-43962682D01*
X85932583Y-43962684D01*
X86027284Y-44071974D01*
X86148940Y-44150158D01*
X86287694Y-44190900D01*
X86287697Y-44190900D01*
X86432303Y-44190900D01*
X86432306Y-44190900D01*
X86571060Y-44150158D01*
X86692716Y-44071974D01*
X86787417Y-43962684D01*
X86847491Y-43831140D01*
X86868071Y-43688000D01*
X86847491Y-43544860D01*
X86847489Y-43544855D01*
X86847489Y-43544854D01*
X86787418Y-43413318D01*
X86787417Y-43413317D01*
X86787417Y-43413316D01*
X86692716Y-43304026D01*
X86692712Y-43304023D01*
X86688651Y-43300504D01*
X86690552Y-43298309D01*
X86665834Y-43265873D01*
X86668250Y-43214490D01*
X86690220Y-43188307D01*
X86688651Y-43186496D01*
X86692707Y-43182979D01*
X86692716Y-43182974D01*
X86787417Y-43073684D01*
X86847491Y-42942140D01*
X86868071Y-42799000D01*
X86847491Y-42655860D01*
X86847489Y-42655855D01*
X86847489Y-42655854D01*
X86787418Y-42524318D01*
X86787417Y-42524317D01*
X86787417Y-42524316D01*
X86692716Y-42415026D01*
X86571060Y-42336842D01*
X86571059Y-42336841D01*
X86571058Y-42336841D01*
X86432308Y-42296100D01*
X86432306Y-42296100D01*
X86287694Y-42296100D01*
X86287691Y-42296100D01*
X86148941Y-42336841D01*
X86027284Y-42415026D01*
X85932581Y-42524318D01*
X85872510Y-42655854D01*
X85872510Y-42655856D01*
X85872509Y-42655858D01*
X85872509Y-42655860D01*
X85851929Y-42799000D01*
X85872509Y-42942140D01*
X85872509Y-42942141D01*
X85872510Y-42942143D01*
X85872510Y-42942145D01*
X85932581Y-43073681D01*
X85932582Y-43073682D01*
X85932583Y-43073684D01*
X86027284Y-43182974D01*
X86027288Y-43182976D01*
X86031349Y-43186496D01*
X86029464Y-43188670D01*
X86054203Y-43221249D01*
X86051699Y-43272628D01*
X86029804Y-43298721D01*
X86031349Y-43300504D01*
X86027284Y-43304026D01*
X85932581Y-43413318D01*
X85872510Y-43544854D01*
X85872510Y-43544856D01*
X85872509Y-43544858D01*
X85872509Y-43544860D01*
X85851929Y-43688000D01*
X83887444Y-43688000D01*
X83826457Y-43627013D01*
X83805196Y-43584541D01*
X83799490Y-43544856D01*
X83799489Y-43544854D01*
X83739418Y-43413318D01*
X83739414Y-43413311D01*
X83737267Y-43410834D01*
X83718909Y-43362781D01*
X83718900Y-43361589D01*
X83718900Y-43125410D01*
X83736493Y-43077072D01*
X83737270Y-43076162D01*
X83739414Y-43073687D01*
X83739417Y-43073684D01*
X83799491Y-42942140D01*
X83820071Y-42799000D01*
X83799491Y-42655860D01*
X83799489Y-42655855D01*
X83799489Y-42655854D01*
X83739418Y-42524318D01*
X83739417Y-42524317D01*
X83739417Y-42524316D01*
X83644716Y-42415026D01*
X83523060Y-42336842D01*
X83523059Y-42336841D01*
X83523058Y-42336841D01*
X83384308Y-42296100D01*
X83384306Y-42296100D01*
X83239694Y-42296100D01*
X83239691Y-42296100D01*
X83100941Y-42336841D01*
X82979284Y-42415026D01*
X82884581Y-42524318D01*
X82824510Y-42655854D01*
X82824510Y-42655856D01*
X82824509Y-42655858D01*
X82824509Y-42655860D01*
X82803929Y-42799000D01*
X82824509Y-42942140D01*
X82824509Y-42942141D01*
X82824510Y-42942143D01*
X82824510Y-42942145D01*
X82884580Y-43073679D01*
X82884585Y-43073687D01*
X82886730Y-43076162D01*
X82905090Y-43124213D01*
X82905100Y-43125410D01*
X82905100Y-43361589D01*
X82887507Y-43409927D01*
X82886733Y-43410834D01*
X82884585Y-43413311D01*
X82884581Y-43413318D01*
X82824510Y-43544854D01*
X82824510Y-43544856D01*
X82824509Y-43544858D01*
X82824509Y-43544860D01*
X82803929Y-43688000D01*
X82824509Y-43831140D01*
X82824509Y-43831141D01*
X82824510Y-43831143D01*
X82824510Y-43831145D01*
X82884581Y-43962681D01*
X82884582Y-43962682D01*
X82884583Y-43962684D01*
X82979284Y-44071974D01*
X83100940Y-44150158D01*
X83220944Y-44185394D01*
X83252930Y-44204373D01*
X83829724Y-44781167D01*
X83851464Y-44827787D01*
X83851750Y-44834341D01*
X83851750Y-48297742D01*
X83834157Y-48346080D01*
X83789608Y-48371800D01*
X83738950Y-48362867D01*
X83735894Y-48361004D01*
X83650060Y-48305841D01*
X83511308Y-48265100D01*
X83511306Y-48265100D01*
X83366694Y-48265100D01*
X83366691Y-48265100D01*
X83227941Y-48305841D01*
X83106284Y-48384026D01*
X83011581Y-48493318D01*
X82951510Y-48624854D01*
X82951510Y-48624856D01*
X82951509Y-48624858D01*
X82951509Y-48624860D01*
X82930929Y-48768000D01*
X82951509Y-48911140D01*
X82951509Y-48911141D01*
X82951510Y-48911143D01*
X82951510Y-48911145D01*
X83011581Y-49042681D01*
X83011582Y-49042682D01*
X83011583Y-49042684D01*
X83106284Y-49151974D01*
X83124471Y-49163662D01*
X83227941Y-49230159D01*
X83256559Y-49238561D01*
X83265880Y-49241298D01*
X83307303Y-49271796D01*
X83319432Y-49321786D01*
X83296590Y-49367876D01*
X83285352Y-49376714D01*
X83170034Y-49450826D01*
X83075331Y-49560118D01*
X83015260Y-49691654D01*
X83015260Y-49691656D01*
X83015259Y-49691658D01*
X83015259Y-49691660D01*
X82994679Y-49834800D01*
X83015259Y-49977940D01*
X83015259Y-49977941D01*
X83015260Y-49977943D01*
X83015260Y-49977945D01*
X83075331Y-50109481D01*
X83075332Y-50109482D01*
X83075333Y-50109484D01*
X83170034Y-50218774D01*
X83291690Y-50296958D01*
X83430444Y-50337700D01*
X83430447Y-50337700D01*
X83575053Y-50337700D01*
X83575056Y-50337700D01*
X83713810Y-50296958D01*
X83735893Y-50282765D01*
X83786068Y-50271432D01*
X83831790Y-50295002D01*
X83851665Y-50342447D01*
X83851750Y-50346027D01*
X83851750Y-57743662D01*
X83834157Y-57792000D01*
X83789608Y-57817720D01*
X83738950Y-57808787D01*
X83719718Y-57792908D01*
X83718931Y-57792000D01*
X83667971Y-57733189D01*
X83546315Y-57655005D01*
X83546314Y-57655004D01*
X83546313Y-57655004D01*
X83407563Y-57614263D01*
X83407561Y-57614263D01*
X83262949Y-57614263D01*
X83262946Y-57614263D01*
X83124196Y-57655004D01*
X83002539Y-57733189D01*
X82907836Y-57842481D01*
X82847765Y-57974017D01*
X82847765Y-57974019D01*
X82847764Y-57974021D01*
X82847764Y-57974023D01*
X82827184Y-58117163D01*
X82847764Y-58260303D01*
X82847764Y-58260304D01*
X82847765Y-58260306D01*
X82847765Y-58260308D01*
X82907836Y-58391844D01*
X82907837Y-58391845D01*
X82907838Y-58391847D01*
X83002539Y-58501137D01*
X83124195Y-58579321D01*
X83262949Y-58620063D01*
X83262952Y-58620063D01*
X83407558Y-58620063D01*
X83407561Y-58620063D01*
X83546315Y-58579321D01*
X83667971Y-58501137D01*
X83719718Y-58441417D01*
X83764668Y-58416408D01*
X83815178Y-58426143D01*
X83847614Y-58466067D01*
X83851750Y-58490663D01*
X83851750Y-65628697D01*
X83859939Y-65653901D01*
X83862693Y-65665372D01*
X83866840Y-65691555D01*
X83878871Y-65715166D01*
X83883386Y-65726067D01*
X83891578Y-65751279D01*
X83891581Y-65751285D01*
X83907161Y-65772729D01*
X83913326Y-65782789D01*
X83925356Y-65806399D01*
X83925357Y-65806401D01*
X83936820Y-65817863D01*
X83948284Y-65829327D01*
X84361387Y-66242430D01*
X84753263Y-66634306D01*
X84775003Y-66680926D01*
X84775289Y-66687480D01*
X84775289Y-67573432D01*
X84757696Y-67621770D01*
X84713147Y-67647490D01*
X84662489Y-67638557D01*
X84629424Y-67599152D01*
X84625655Y-67584138D01*
X84621391Y-67554480D01*
X84621389Y-67554475D01*
X84621389Y-67554474D01*
X84561318Y-67422938D01*
X84561317Y-67422937D01*
X84561317Y-67422936D01*
X84466616Y-67313646D01*
X84344960Y-67235462D01*
X84339317Y-67233805D01*
X84297895Y-67203305D01*
X84285769Y-67153315D01*
X84292099Y-67130415D01*
X84333928Y-67038825D01*
X84354508Y-66895685D01*
X84333928Y-66752545D01*
X84333926Y-66752540D01*
X84333926Y-66752539D01*
X84273855Y-66621003D01*
X84273854Y-66621002D01*
X84273854Y-66621001D01*
X84179153Y-66511711D01*
X84057497Y-66433527D01*
X84057496Y-66433526D01*
X84057495Y-66433526D01*
X83918745Y-66392785D01*
X83918743Y-66392785D01*
X83774131Y-66392785D01*
X83774128Y-66392785D01*
X83635378Y-66433526D01*
X83513721Y-66511711D01*
X83419018Y-66621003D01*
X83358947Y-66752539D01*
X83358947Y-66752541D01*
X83358946Y-66752543D01*
X83358946Y-66752545D01*
X83338366Y-66895685D01*
X83358946Y-67038825D01*
X83358946Y-67038826D01*
X83358947Y-67038828D01*
X83358947Y-67038830D01*
X83419018Y-67170366D01*
X83419019Y-67170367D01*
X83419020Y-67170369D01*
X83513721Y-67279659D01*
X83635377Y-67357843D01*
X83641014Y-67359498D01*
X83682439Y-67389996D01*
X83694568Y-67439985D01*
X83688235Y-67462892D01*
X83646410Y-67554474D01*
X83646410Y-67554476D01*
X83646409Y-67554478D01*
X83646409Y-67554480D01*
X83625829Y-67697620D01*
X83646409Y-67840760D01*
X83646409Y-67840761D01*
X83646410Y-67840763D01*
X83646410Y-67840765D01*
X83706481Y-67972301D01*
X83706482Y-67972302D01*
X83706483Y-67972304D01*
X83801184Y-68081594D01*
X83922840Y-68159778D01*
X84061594Y-68200520D01*
X84061597Y-68200520D01*
X84206203Y-68200520D01*
X84206206Y-68200520D01*
X84344960Y-68159778D01*
X84466616Y-68081594D01*
X84561317Y-67972304D01*
X84621391Y-67840760D01*
X84625654Y-67811103D01*
X84649948Y-67765763D01*
X84697703Y-67746645D01*
X84746574Y-67762696D01*
X84773695Y-67806405D01*
X84775289Y-67821807D01*
X84775289Y-92214919D01*
X84757696Y-92263257D01*
X84753263Y-92268093D01*
X82052881Y-94968474D01*
X82006261Y-94990214D01*
X81999707Y-94990500D01*
X81707340Y-94990501D01*
X81700454Y-94990802D01*
X81683969Y-94992244D01*
X81628314Y-95009793D01*
X81576923Y-95007550D01*
X81538997Y-94972798D01*
X81530500Y-94938074D01*
X81530500Y-92501074D01*
X81548093Y-92452736D01*
X81592642Y-92427016D01*
X81634481Y-92431599D01*
X81640337Y-92434024D01*
X81640342Y-92434028D01*
X81684943Y-92442900D01*
X83415056Y-92442899D01*
X83459658Y-92434028D01*
X83510234Y-92400234D01*
X83544028Y-92349658D01*
X83552900Y-92305057D01*
X83552899Y-90574944D01*
X83544028Y-90530342D01*
X83510234Y-90479766D01*
X83459658Y-90445972D01*
X83459656Y-90445971D01*
X83415057Y-90437100D01*
X81684944Y-90437100D01*
X81684942Y-90437101D01*
X81640337Y-90445973D01*
X81634469Y-90448403D01*
X81583078Y-90450641D01*
X81542272Y-90419321D01*
X81530500Y-90378924D01*
X81530500Y-87858600D01*
X82295929Y-87858600D01*
X82316509Y-88001740D01*
X82316509Y-88001741D01*
X82316510Y-88001743D01*
X82316510Y-88001745D01*
X82376581Y-88133281D01*
X82376582Y-88133282D01*
X82376583Y-88133284D01*
X82471284Y-88242574D01*
X82592940Y-88320758D01*
X82731694Y-88361500D01*
X82731697Y-88361500D01*
X82876303Y-88361500D01*
X82876306Y-88361500D01*
X83015060Y-88320758D01*
X83136716Y-88242574D01*
X83231417Y-88133284D01*
X83291491Y-88001740D01*
X83312071Y-87858600D01*
X83291491Y-87715460D01*
X83291489Y-87715455D01*
X83291489Y-87715454D01*
X83231418Y-87583918D01*
X83231417Y-87583917D01*
X83231417Y-87583916D01*
X83136716Y-87474626D01*
X83015060Y-87396442D01*
X83015059Y-87396441D01*
X83015058Y-87396441D01*
X82876308Y-87355700D01*
X82876306Y-87355700D01*
X82731694Y-87355700D01*
X82731691Y-87355700D01*
X82592941Y-87396441D01*
X82471284Y-87474626D01*
X82376581Y-87583918D01*
X82316510Y-87715454D01*
X82316510Y-87715456D01*
X82316509Y-87715458D01*
X82316509Y-87715460D01*
X82295929Y-87858600D01*
X81530500Y-87858600D01*
X81530500Y-84961933D01*
X83335029Y-84961933D01*
X83355609Y-85105073D01*
X83355609Y-85105074D01*
X83355610Y-85105076D01*
X83355610Y-85105078D01*
X83415681Y-85236614D01*
X83415682Y-85236615D01*
X83415683Y-85236617D01*
X83510384Y-85345907D01*
X83632040Y-85424091D01*
X83770794Y-85464833D01*
X83770797Y-85464833D01*
X83915403Y-85464833D01*
X83915406Y-85464833D01*
X84054160Y-85424091D01*
X84175816Y-85345907D01*
X84270517Y-85236617D01*
X84330591Y-85105073D01*
X84351171Y-84961933D01*
X84330591Y-84818793D01*
X84330589Y-84818788D01*
X84330589Y-84818787D01*
X84270518Y-84687251D01*
X84270517Y-84687250D01*
X84270517Y-84687249D01*
X84175816Y-84577959D01*
X84054160Y-84499775D01*
X84054159Y-84499774D01*
X84054158Y-84499774D01*
X83915408Y-84459033D01*
X83915406Y-84459033D01*
X83770794Y-84459033D01*
X83770791Y-84459033D01*
X83632041Y-84499774D01*
X83510384Y-84577959D01*
X83415681Y-84687251D01*
X83355610Y-84818787D01*
X83355610Y-84818789D01*
X83355609Y-84818791D01*
X83355609Y-84818793D01*
X83335029Y-84961933D01*
X81530500Y-84961933D01*
X81530500Y-77261074D01*
X81548093Y-77212736D01*
X81592642Y-77187016D01*
X81634481Y-77191599D01*
X81640337Y-77194024D01*
X81640342Y-77194028D01*
X81684943Y-77202900D01*
X83415056Y-77202899D01*
X83459658Y-77194028D01*
X83510234Y-77160234D01*
X83544028Y-77109658D01*
X83552900Y-77065057D01*
X83552899Y-75334944D01*
X83544028Y-75290342D01*
X83510234Y-75239766D01*
X83459658Y-75205972D01*
X83459656Y-75205971D01*
X83415057Y-75197100D01*
X81684944Y-75197100D01*
X81684942Y-75197101D01*
X81640337Y-75205973D01*
X81634469Y-75208403D01*
X81583078Y-75210641D01*
X81542272Y-75179321D01*
X81530500Y-75138924D01*
X81530500Y-71791186D01*
X81548093Y-71742848D01*
X81592642Y-71717128D01*
X81643300Y-71726061D01*
X81662528Y-71741937D01*
X81681549Y-71763888D01*
X81803205Y-71842072D01*
X81941959Y-71882814D01*
X81941962Y-71882814D01*
X82086568Y-71882814D01*
X82086571Y-71882814D01*
X82225325Y-71842072D01*
X82346981Y-71763888D01*
X82441682Y-71654598D01*
X82487158Y-71555019D01*
X82501754Y-71523059D01*
X82501754Y-71523058D01*
X82501756Y-71523054D01*
X82522336Y-71379914D01*
X82501756Y-71236774D01*
X82501754Y-71236769D01*
X82501754Y-71236768D01*
X82441683Y-71105232D01*
X82441682Y-71105231D01*
X82441682Y-71105230D01*
X82346981Y-70995940D01*
X82225325Y-70917756D01*
X82225324Y-70917755D01*
X82225323Y-70917755D01*
X82086573Y-70877014D01*
X82086571Y-70877014D01*
X81941959Y-70877014D01*
X81941956Y-70877014D01*
X81803206Y-70917755D01*
X81681548Y-70995940D01*
X81662532Y-71017887D01*
X81617581Y-71042896D01*
X81567071Y-71033161D01*
X81534636Y-70993236D01*
X81530500Y-70968641D01*
X81530500Y-70713600D01*
X83413529Y-70713600D01*
X83434109Y-70856740D01*
X83434109Y-70856741D01*
X83434110Y-70856743D01*
X83434110Y-70856745D01*
X83494181Y-70988281D01*
X83494182Y-70988282D01*
X83494183Y-70988284D01*
X83588884Y-71097574D01*
X83710540Y-71175758D01*
X83849294Y-71216500D01*
X83849297Y-71216500D01*
X83993903Y-71216500D01*
X83993906Y-71216500D01*
X84132660Y-71175758D01*
X84254316Y-71097574D01*
X84349017Y-70988284D01*
X84409091Y-70856740D01*
X84429671Y-70713600D01*
X84409091Y-70570460D01*
X84409089Y-70570456D01*
X84409089Y-70570453D01*
X84349018Y-70438918D01*
X84349017Y-70438917D01*
X84349017Y-70438916D01*
X84254316Y-70329626D01*
X84132660Y-70251442D01*
X84132659Y-70251441D01*
X84132658Y-70251441D01*
X83993908Y-70210700D01*
X83993906Y-70210700D01*
X83849294Y-70210700D01*
X83849291Y-70210700D01*
X83710541Y-70251441D01*
X83588884Y-70329626D01*
X83494181Y-70438918D01*
X83434111Y-70570453D01*
X83434110Y-70570456D01*
X83434109Y-70570460D01*
X83413529Y-70713600D01*
X81530500Y-70713600D01*
X81530500Y-70644379D01*
X81548093Y-70596041D01*
X81592642Y-70570321D01*
X81643300Y-70579254D01*
X81654949Y-70587550D01*
X81657283Y-70589573D01*
X81657284Y-70589574D01*
X81778940Y-70667758D01*
X81917694Y-70708500D01*
X81917697Y-70708500D01*
X82062303Y-70708500D01*
X82062306Y-70708500D01*
X82201060Y-70667758D01*
X82322716Y-70589574D01*
X82417417Y-70480284D01*
X82477491Y-70348740D01*
X82498071Y-70205600D01*
X82477491Y-70062460D01*
X82477489Y-70062455D01*
X82477489Y-70062454D01*
X82417418Y-69930918D01*
X82417417Y-69930917D01*
X82417417Y-69930916D01*
X82322716Y-69821626D01*
X82201060Y-69743442D01*
X82201059Y-69743441D01*
X82201058Y-69743441D01*
X82062308Y-69702700D01*
X82062306Y-69702700D01*
X81917694Y-69702700D01*
X81917691Y-69702700D01*
X81778941Y-69743441D01*
X81657279Y-69821629D01*
X81654944Y-69823653D01*
X81652938Y-69824419D01*
X81652760Y-69824534D01*
X81652735Y-69824496D01*
X81606892Y-69842011D01*
X81558281Y-69825185D01*
X81531859Y-69781050D01*
X81530500Y-69766820D01*
X81530500Y-69039579D01*
X83436550Y-69039579D01*
X83457130Y-69182719D01*
X83457130Y-69182720D01*
X83457131Y-69182722D01*
X83457131Y-69182724D01*
X83517202Y-69314260D01*
X83517203Y-69314261D01*
X83517204Y-69314263D01*
X83611905Y-69423553D01*
X83733561Y-69501737D01*
X83872315Y-69542479D01*
X83872318Y-69542479D01*
X84016924Y-69542479D01*
X84016927Y-69542479D01*
X84155681Y-69501737D01*
X84277337Y-69423553D01*
X84372038Y-69314263D01*
X84432112Y-69182719D01*
X84452692Y-69039579D01*
X84432112Y-68896439D01*
X84432110Y-68896434D01*
X84432110Y-68896433D01*
X84372039Y-68764897D01*
X84372038Y-68764896D01*
X84372038Y-68764895D01*
X84277337Y-68655605D01*
X84155681Y-68577421D01*
X84155680Y-68577420D01*
X84155679Y-68577420D01*
X84016929Y-68536679D01*
X84016927Y-68536679D01*
X83872315Y-68536679D01*
X83872312Y-68536679D01*
X83733562Y-68577420D01*
X83611905Y-68655605D01*
X83517202Y-68764897D01*
X83457131Y-68896433D01*
X83457131Y-68896435D01*
X83457130Y-68896437D01*
X83457130Y-68896439D01*
X83436550Y-69039579D01*
X81530500Y-69039579D01*
X81530500Y-68570324D01*
X81548093Y-68521986D01*
X81592642Y-68496266D01*
X81643300Y-68505199D01*
X81662528Y-68521075D01*
X81676623Y-68537341D01*
X81798279Y-68615525D01*
X81937033Y-68656267D01*
X81937036Y-68656267D01*
X82081642Y-68656267D01*
X82081645Y-68656267D01*
X82220399Y-68615525D01*
X82342055Y-68537341D01*
X82436756Y-68428051D01*
X82496830Y-68296507D01*
X82517410Y-68153367D01*
X82496830Y-68010227D01*
X82496828Y-68010222D01*
X82496828Y-68010221D01*
X82436757Y-67878685D01*
X82436756Y-67878684D01*
X82436756Y-67878683D01*
X82342055Y-67769393D01*
X82342053Y-67769392D01*
X82339785Y-67766774D01*
X82321426Y-67718721D01*
X82338251Y-67670111D01*
X82339734Y-67668341D01*
X82430727Y-67563332D01*
X82470090Y-67477139D01*
X82490799Y-67431793D01*
X82490799Y-67431792D01*
X82490801Y-67431788D01*
X82511381Y-67288648D01*
X82490801Y-67145508D01*
X82490799Y-67145503D01*
X82490799Y-67145502D01*
X82430728Y-67013966D01*
X82430727Y-67013965D01*
X82430727Y-67013964D01*
X82336026Y-66904674D01*
X82214370Y-66826490D01*
X82214369Y-66826489D01*
X82214368Y-66826489D01*
X82075618Y-66785748D01*
X82075616Y-66785748D01*
X81931004Y-66785748D01*
X81931001Y-66785748D01*
X81792251Y-66826489D01*
X81670593Y-66904674D01*
X81662531Y-66913979D01*
X81617580Y-66938988D01*
X81567070Y-66929251D01*
X81534635Y-66889326D01*
X81530500Y-66864732D01*
X81530500Y-62021074D01*
X81548093Y-61972736D01*
X81592642Y-61947016D01*
X81634481Y-61951599D01*
X81640337Y-61954024D01*
X81640342Y-61954028D01*
X81684943Y-61962900D01*
X83415056Y-61962899D01*
X83459658Y-61954028D01*
X83510234Y-61920234D01*
X83544028Y-61869658D01*
X83552900Y-61825057D01*
X83552899Y-60094944D01*
X83544028Y-60050342D01*
X83510234Y-59999766D01*
X83459658Y-59965972D01*
X83459656Y-59965971D01*
X83415057Y-59957100D01*
X81684944Y-59957100D01*
X81684942Y-59957101D01*
X81640337Y-59965973D01*
X81634469Y-59968403D01*
X81583078Y-59970641D01*
X81542272Y-59939321D01*
X81530500Y-59898924D01*
X81530500Y-46781074D01*
X81548093Y-46732736D01*
X81592642Y-46707016D01*
X81634481Y-46711599D01*
X81640337Y-46714024D01*
X81640342Y-46714028D01*
X81684943Y-46722900D01*
X83415056Y-46722899D01*
X83459658Y-46714028D01*
X83510234Y-46680234D01*
X83544028Y-46629658D01*
X83552900Y-46585057D01*
X83552899Y-44854944D01*
X83544028Y-44810342D01*
X83510234Y-44759766D01*
X83459658Y-44725972D01*
X83459656Y-44725971D01*
X83415057Y-44717100D01*
X81684944Y-44717100D01*
X81684942Y-44717101D01*
X81640337Y-44725973D01*
X81634469Y-44728403D01*
X81583078Y-44730641D01*
X81542272Y-44699321D01*
X81530500Y-44658924D01*
X81530500Y-40589200D01*
X82600729Y-40589200D01*
X82621309Y-40732340D01*
X82621309Y-40732341D01*
X82621310Y-40732343D01*
X82621310Y-40732345D01*
X82681381Y-40863881D01*
X82681382Y-40863882D01*
X82681383Y-40863884D01*
X82776084Y-40973174D01*
X82897740Y-41051358D01*
X83036494Y-41092100D01*
X83036497Y-41092100D01*
X83181103Y-41092100D01*
X83181106Y-41092100D01*
X83319860Y-41051358D01*
X83441516Y-40973174D01*
X83536217Y-40863884D01*
X83596291Y-40732340D01*
X83616871Y-40589200D01*
X83596291Y-40446060D01*
X83596289Y-40446055D01*
X83596289Y-40446054D01*
X83536218Y-40314518D01*
X83536217Y-40314517D01*
X83536217Y-40314516D01*
X83441516Y-40205226D01*
X83319860Y-40127042D01*
X83319859Y-40127041D01*
X83319858Y-40127041D01*
X83181108Y-40086300D01*
X83181106Y-40086300D01*
X83036494Y-40086300D01*
X83036491Y-40086300D01*
X82897741Y-40127041D01*
X82776084Y-40205226D01*
X82681381Y-40314518D01*
X82621310Y-40446054D01*
X82621310Y-40446056D01*
X82621309Y-40446058D01*
X82621309Y-40446060D01*
X82600729Y-40589200D01*
X81530500Y-40589200D01*
X81530500Y-39161074D01*
X81548093Y-39112736D01*
X81592642Y-39087016D01*
X81634481Y-39091599D01*
X81640337Y-39094024D01*
X81640342Y-39094028D01*
X81684943Y-39102900D01*
X83415056Y-39102899D01*
X83459658Y-39094028D01*
X83510234Y-39060234D01*
X83544028Y-39009658D01*
X83552900Y-38965057D01*
X83552899Y-37234944D01*
X83544028Y-37190342D01*
X83510234Y-37139766D01*
X83459658Y-37105972D01*
X83459656Y-37105971D01*
X83415057Y-37097100D01*
X81684944Y-37097100D01*
X81684942Y-37097101D01*
X81640337Y-37105973D01*
X81634469Y-37108403D01*
X81583078Y-37110641D01*
X81542272Y-37079321D01*
X81530500Y-37038924D01*
X81530500Y-34081074D01*
X81548093Y-34032736D01*
X81592642Y-34007016D01*
X81634481Y-34011599D01*
X81640337Y-34014024D01*
X81640342Y-34014028D01*
X81684943Y-34022900D01*
X83415056Y-34022899D01*
X83459658Y-34014028D01*
X83510234Y-33980234D01*
X83544028Y-33929658D01*
X83552900Y-33885057D01*
X83552899Y-32154944D01*
X83544028Y-32110342D01*
X83510234Y-32059766D01*
X83459658Y-32025972D01*
X83459656Y-32025971D01*
X83415057Y-32017100D01*
X81684944Y-32017100D01*
X81684942Y-32017101D01*
X81640337Y-32025973D01*
X81634469Y-32028403D01*
X81583078Y-32030641D01*
X81542272Y-31999321D01*
X81530500Y-31958924D01*
X81530500Y-31541074D01*
X81548093Y-31492736D01*
X81592642Y-31467016D01*
X81634481Y-31471599D01*
X81640337Y-31474024D01*
X81640342Y-31474028D01*
X81684943Y-31482900D01*
X83415056Y-31482899D01*
X83459658Y-31474028D01*
X83510234Y-31440234D01*
X83544028Y-31389658D01*
X83552900Y-31345057D01*
X83552899Y-29614944D01*
X83544028Y-29570342D01*
X83510234Y-29519766D01*
X83459658Y-29485972D01*
X83459656Y-29485971D01*
X83415057Y-29477100D01*
X81684944Y-29477100D01*
X81684942Y-29477101D01*
X81640337Y-29485973D01*
X81634469Y-29488403D01*
X81583078Y-29490641D01*
X81542272Y-29459321D01*
X81530500Y-29418924D01*
X81530500Y-29001074D01*
X81548093Y-28952736D01*
X81592642Y-28927016D01*
X81634481Y-28931599D01*
X81640337Y-28934024D01*
X81640342Y-28934028D01*
X81684943Y-28942900D01*
X83415056Y-28942899D01*
X83459658Y-28934028D01*
X83510234Y-28900234D01*
X83544028Y-28849658D01*
X83552900Y-28805057D01*
X83552899Y-27074944D01*
X83544028Y-27030342D01*
X83510234Y-26979766D01*
X83459658Y-26945972D01*
X83459656Y-26945971D01*
X83415057Y-26937100D01*
X81684944Y-26937100D01*
X81684942Y-26937101D01*
X81640337Y-26945973D01*
X81634469Y-26948403D01*
X81583078Y-26950641D01*
X81542272Y-26919321D01*
X81530500Y-26878924D01*
X81530500Y-25634539D01*
X81548093Y-25586201D01*
X81592642Y-25560481D01*
X81643300Y-25569414D01*
X81654950Y-25577710D01*
X81658478Y-25580767D01*
X81658484Y-25580774D01*
X81780140Y-25658958D01*
X81918894Y-25699700D01*
X81918897Y-25699700D01*
X82063503Y-25699700D01*
X82063506Y-25699700D01*
X82202260Y-25658958D01*
X82323916Y-25580774D01*
X82418617Y-25471484D01*
X82478691Y-25339940D01*
X82499271Y-25196800D01*
X82499213Y-25196399D01*
X82651930Y-25196399D01*
X82672510Y-25339539D01*
X82672510Y-25339540D01*
X82672511Y-25339542D01*
X82672511Y-25339544D01*
X82732582Y-25471080D01*
X82732583Y-25471081D01*
X82732584Y-25471083D01*
X82827285Y-25580373D01*
X82948941Y-25658557D01*
X83087695Y-25699299D01*
X83087698Y-25699299D01*
X83232304Y-25699299D01*
X83232307Y-25699299D01*
X83371061Y-25658557D01*
X83492717Y-25580373D01*
X83582488Y-25476772D01*
X85447598Y-25476772D01*
X85468178Y-25619912D01*
X85468178Y-25619913D01*
X85468179Y-25619915D01*
X85468179Y-25619917D01*
X85528250Y-25751453D01*
X85528251Y-25751454D01*
X85528252Y-25751456D01*
X85622953Y-25860746D01*
X85744609Y-25938930D01*
X85867671Y-25975064D01*
X85909094Y-26005563D01*
X85921222Y-26055553D01*
X85914890Y-26078457D01*
X85872509Y-26171258D01*
X85872509Y-26171260D01*
X85851929Y-26314400D01*
X85872509Y-26457540D01*
X85872509Y-26457541D01*
X85872510Y-26457543D01*
X85872510Y-26457545D01*
X85932581Y-26589081D01*
X85932582Y-26589082D01*
X85932583Y-26589084D01*
X86027284Y-26698374D01*
X86148940Y-26776558D01*
X86287694Y-26817300D01*
X86287697Y-26817300D01*
X86432303Y-26817300D01*
X86432306Y-26817300D01*
X86571060Y-26776558D01*
X86692716Y-26698374D01*
X86787417Y-26589084D01*
X86847491Y-26457540D01*
X86868071Y-26314400D01*
X86847491Y-26171260D01*
X86847489Y-26171255D01*
X86847489Y-26171254D01*
X86805603Y-26079536D01*
X86801526Y-26028258D01*
X86831364Y-25986357D01*
X86874007Y-25973097D01*
X86879849Y-25973097D01*
X86879852Y-25973097D01*
X87018606Y-25932355D01*
X87140262Y-25854171D01*
X87234963Y-25744881D01*
X87278796Y-25648900D01*
X87295035Y-25613342D01*
X87295035Y-25613341D01*
X87295037Y-25613337D01*
X87315617Y-25470197D01*
X87295037Y-25327057D01*
X87295035Y-25327052D01*
X87295035Y-25327051D01*
X87234964Y-25195515D01*
X87234963Y-25195514D01*
X87234963Y-25195513D01*
X87140262Y-25086223D01*
X87018606Y-25008039D01*
X87018605Y-25008038D01*
X87018604Y-25008038D01*
X86879854Y-24967297D01*
X86879852Y-24967297D01*
X86735240Y-24967297D01*
X86735237Y-24967297D01*
X86596487Y-25008038D01*
X86474829Y-25086223D01*
X86435589Y-25131508D01*
X86390638Y-25156517D01*
X86340128Y-25146781D01*
X86321929Y-25131510D01*
X86288385Y-25092798D01*
X86166729Y-25014614D01*
X86166728Y-25014613D01*
X86166727Y-25014613D01*
X86027977Y-24973872D01*
X86027975Y-24973872D01*
X85883363Y-24973872D01*
X85883360Y-24973872D01*
X85744610Y-25014613D01*
X85622953Y-25092798D01*
X85528250Y-25202090D01*
X85468179Y-25333626D01*
X85468179Y-25333628D01*
X85468178Y-25333630D01*
X85468178Y-25333632D01*
X85447598Y-25476772D01*
X83582488Y-25476772D01*
X83587418Y-25471083D01*
X83647307Y-25339945D01*
X83647490Y-25339544D01*
X83647490Y-25339543D01*
X83647492Y-25339539D01*
X83668072Y-25196399D01*
X83647492Y-25053259D01*
X83647490Y-25053254D01*
X83647490Y-25053253D01*
X83587419Y-24921717D01*
X83587418Y-24921716D01*
X83587418Y-24921715D01*
X83492717Y-24812425D01*
X83371061Y-24734241D01*
X83371060Y-24734240D01*
X83371059Y-24734240D01*
X83232309Y-24693499D01*
X83232307Y-24693499D01*
X83087695Y-24693499D01*
X83087692Y-24693499D01*
X82948942Y-24734240D01*
X82827285Y-24812425D01*
X82732582Y-24921717D01*
X82672511Y-25053253D01*
X82672511Y-25053255D01*
X82672510Y-25053257D01*
X82672510Y-25053259D01*
X82651930Y-25196399D01*
X82499213Y-25196399D01*
X82478691Y-25053660D01*
X82478689Y-25053655D01*
X82478689Y-25053654D01*
X82418618Y-24922118D01*
X82418617Y-24922117D01*
X82418617Y-24922116D01*
X82323916Y-24812826D01*
X82202260Y-24734642D01*
X82202259Y-24734641D01*
X82202258Y-24734641D01*
X82063508Y-24693900D01*
X82063506Y-24693900D01*
X81918894Y-24693900D01*
X81918891Y-24693900D01*
X81780141Y-24734641D01*
X81658483Y-24812826D01*
X81654945Y-24815893D01*
X81606893Y-24834251D01*
X81558282Y-24817426D01*
X81531859Y-24773291D01*
X81530500Y-24759060D01*
X81530500Y-24586097D01*
X84125832Y-24586097D01*
X84146412Y-24729237D01*
X84146412Y-24729238D01*
X84146413Y-24729240D01*
X84146413Y-24729242D01*
X84206484Y-24860778D01*
X84206485Y-24860779D01*
X84206486Y-24860781D01*
X84301187Y-24970071D01*
X84422843Y-25048255D01*
X84561597Y-25088997D01*
X84561600Y-25088997D01*
X84706206Y-25088997D01*
X84706209Y-25088997D01*
X84844963Y-25048255D01*
X84966619Y-24970071D01*
X85061320Y-24860781D01*
X85084511Y-24810000D01*
X89041929Y-24810000D01*
X89062509Y-24953140D01*
X89062509Y-24953141D01*
X89062510Y-24953143D01*
X89062510Y-24953145D01*
X89122581Y-25084681D01*
X89122582Y-25084682D01*
X89122583Y-25084684D01*
X89217284Y-25193974D01*
X89338940Y-25272158D01*
X89477694Y-25312900D01*
X89477697Y-25312900D01*
X89622303Y-25312900D01*
X89622306Y-25312900D01*
X89761060Y-25272158D01*
X89882716Y-25193974D01*
X89896427Y-25178149D01*
X89941374Y-25153141D01*
X89991885Y-25162874D01*
X90024321Y-25202798D01*
X90027693Y-25216694D01*
X90038109Y-25289140D01*
X90038109Y-25289141D01*
X90038110Y-25289143D01*
X90038110Y-25289145D01*
X90098181Y-25420681D01*
X90098182Y-25420682D01*
X90098183Y-25420684D01*
X90192884Y-25529974D01*
X90314540Y-25608158D01*
X90453294Y-25648900D01*
X90453297Y-25648900D01*
X90597903Y-25648900D01*
X90597906Y-25648900D01*
X90736660Y-25608158D01*
X90858316Y-25529974D01*
X90953017Y-25420684D01*
X91013091Y-25289140D01*
X91033671Y-25146000D01*
X91013091Y-25002860D01*
X91013089Y-25002855D01*
X91013089Y-25002854D01*
X90953018Y-24871318D01*
X90953017Y-24871317D01*
X90953017Y-24871316D01*
X90858316Y-24762026D01*
X90736660Y-24683842D01*
X90736659Y-24683841D01*
X90736658Y-24683841D01*
X90597908Y-24643100D01*
X90597906Y-24643100D01*
X90453294Y-24643100D01*
X90453291Y-24643100D01*
X90314541Y-24683841D01*
X90192883Y-24762026D01*
X90179172Y-24777850D01*
X90134221Y-24802859D01*
X90083711Y-24793122D01*
X90051276Y-24753197D01*
X90047907Y-24739313D01*
X90037491Y-24666860D01*
X90037489Y-24666855D01*
X90037489Y-24666854D01*
X89977418Y-24535318D01*
X89977417Y-24535317D01*
X89977417Y-24535316D01*
X89882716Y-24426026D01*
X89761060Y-24347842D01*
X89761059Y-24347841D01*
X89761058Y-24347841D01*
X89622308Y-24307100D01*
X89622306Y-24307100D01*
X89477694Y-24307100D01*
X89477691Y-24307100D01*
X89338941Y-24347841D01*
X89217284Y-24426026D01*
X89122581Y-24535318D01*
X89062510Y-24666854D01*
X89062510Y-24666856D01*
X89062509Y-24666858D01*
X89062509Y-24666860D01*
X89041929Y-24810000D01*
X85084511Y-24810000D01*
X85121394Y-24729237D01*
X85141974Y-24586097D01*
X85121394Y-24442957D01*
X85121392Y-24442952D01*
X85121392Y-24442951D01*
X85061321Y-24311415D01*
X85061320Y-24311414D01*
X85061320Y-24311413D01*
X84966619Y-24202123D01*
X84844963Y-24123939D01*
X84844962Y-24123938D01*
X84844961Y-24123938D01*
X84706211Y-24083197D01*
X84706209Y-24083197D01*
X84561597Y-24083197D01*
X84561594Y-24083197D01*
X84422844Y-24123938D01*
X84301187Y-24202123D01*
X84206484Y-24311415D01*
X84146413Y-24442951D01*
X84146413Y-24442953D01*
X84146412Y-24442955D01*
X84146412Y-24442957D01*
X84125832Y-24586097D01*
X81530500Y-24586097D01*
X81530500Y-24033870D01*
X81548093Y-23985532D01*
X81592642Y-23959812D01*
X81643300Y-23968745D01*
X81653634Y-23975928D01*
X81687375Y-24003841D01*
X81687383Y-24003846D01*
X81769478Y-24042476D01*
X81836639Y-24074080D01*
X81836641Y-24074080D01*
X81836643Y-24074081D01*
X81884433Y-24083197D01*
X81998678Y-24104990D01*
X82163314Y-24094632D01*
X82320201Y-24043657D01*
X82459482Y-23955266D01*
X82572405Y-23835015D01*
X82651876Y-23690459D01*
X82692900Y-23530680D01*
X82692900Y-22985302D01*
X82710493Y-22936964D01*
X82755042Y-22911244D01*
X82805700Y-22920177D01*
X82824929Y-22936054D01*
X82827285Y-22938773D01*
X82948941Y-23016957D01*
X83087695Y-23057699D01*
X83087698Y-23057699D01*
X83232304Y-23057699D01*
X83232307Y-23057699D01*
X83371061Y-23016957D01*
X83492717Y-22938773D01*
X83587418Y-22829483D01*
X83626735Y-22743391D01*
X83647490Y-22697944D01*
X83647490Y-22697943D01*
X83647492Y-22697939D01*
X83668072Y-22554799D01*
X83647492Y-22411659D01*
X83647490Y-22411654D01*
X83647490Y-22411653D01*
X83587419Y-22280117D01*
X83587418Y-22280116D01*
X83587418Y-22280115D01*
X83492717Y-22170825D01*
X83371061Y-22092641D01*
X83371060Y-22092640D01*
X83371059Y-22092640D01*
X83232309Y-22051899D01*
X83232307Y-22051899D01*
X83087695Y-22051899D01*
X83087692Y-22051899D01*
X82948942Y-22092640D01*
X82827285Y-22170825D01*
X82732582Y-22280116D01*
X82727053Y-22292224D01*
X82690968Y-22328883D01*
X82639761Y-22333771D01*
X82597812Y-22305183D01*
X82519726Y-22197706D01*
X82414755Y-22110867D01*
X82392622Y-22092557D01*
X82392620Y-22092556D01*
X82392619Y-22092555D01*
X82392616Y-22092553D01*
X82243361Y-22022320D01*
X82243356Y-22022318D01*
X82081324Y-21991410D01*
X82081322Y-21991410D01*
X81916686Y-22001767D01*
X81759796Y-22052743D01*
X81759794Y-22052744D01*
X81645994Y-22124965D01*
X81595755Y-22136011D01*
X81550168Y-22112180D01*
X81530566Y-22064621D01*
X81530500Y-22061472D01*
X81530500Y-20233869D01*
X81548093Y-20185531D01*
X81592642Y-20159811D01*
X81643300Y-20168744D01*
X81653634Y-20175927D01*
X81687375Y-20203840D01*
X81687383Y-20203845D01*
X81769478Y-20242475D01*
X81836639Y-20274079D01*
X81836641Y-20274079D01*
X81836643Y-20274080D01*
X81894409Y-20285099D01*
X81998678Y-20304989D01*
X82163314Y-20294631D01*
X82320201Y-20243656D01*
X82459482Y-20155265D01*
X82572405Y-20035014D01*
X82651876Y-19890458D01*
X82692900Y-19730679D01*
X82692900Y-18407124D01*
X82677414Y-18284539D01*
X82677413Y-18284535D01*
X82616690Y-18131167D01*
X82616688Y-18131162D01*
X82565991Y-18061384D01*
X82519726Y-17997706D01*
X82392622Y-17892556D01*
X82392620Y-17892555D01*
X82392619Y-17892554D01*
X82392616Y-17892552D01*
X82243361Y-17822319D01*
X82243356Y-17822317D01*
X82081324Y-17791409D01*
X82081322Y-17791409D01*
X81916686Y-17801766D01*
X81759796Y-17852742D01*
X81759794Y-17852743D01*
X81645994Y-17924964D01*
X81595755Y-17936010D01*
X81550168Y-17912179D01*
X81530566Y-17864620D01*
X81530500Y-17861471D01*
X81530500Y-17781643D01*
X81530643Y-17778365D01*
X81540014Y-17671252D01*
X81545415Y-17609515D01*
X81547688Y-17596617D01*
X81590283Y-17437651D01*
X81594760Y-17425353D01*
X81664308Y-17276209D01*
X81670860Y-17264861D01*
X81683169Y-17247282D01*
X81765250Y-17130058D01*
X81773665Y-17120030D01*
X81890030Y-17003665D01*
X81900058Y-16995250D01*
X82034864Y-16900857D01*
X82046209Y-16894308D01*
X82195353Y-16824760D01*
X82207651Y-16820283D01*
X82366617Y-16777688D01*
X82379515Y-16775415D01*
X82534365Y-16761867D01*
X82548366Y-16760643D01*
X82551644Y-16760500D01*
X82594170Y-16760500D01*
X90125830Y-16760500D01*
X90168356Y-16760500D01*
X90171634Y-16760643D01*
G37*
%TD.AperFunction*%
M02*
