%TF.GenerationSoftware,KiCad,Pcbnew,7.0.8*%
%TF.CreationDate,2023-10-19T22:48:58-06:00*%
%TF.ProjectId,RP2040-Breadstick,52503230-3430-42d4-9272-656164737469,0.2*%
%TF.SameCoordinates,Original*%
%TF.FileFunction,AssemblyDrawing,Bot*%
%FSLAX46Y46*%
G04 Gerber Fmt 4.6, Leading zero omitted, Abs format (unit mm)*
G04 Created by KiCad (PCBNEW 7.0.8) date 2023-10-19 22:48:58*
%MOMM*%
%LPD*%
G01*
G04 APERTURE LIST*
%ADD10C,0.100000*%
G04 APERTURE END LIST*
D10*
X83820000Y-153670000D02*
X83820000Y-151765000D01*
X83820000Y-151765000D02*
X83185000Y-151130000D01*
X83185000Y-151130000D02*
X81280000Y-151130000D01*
X81280000Y-153670000D02*
X83820000Y-153670000D01*
X81280000Y-151130000D02*
X81280000Y-153670000D01*
X83820000Y-77470000D02*
X83820000Y-75565000D01*
X83820000Y-75565000D02*
X83185000Y-74930000D01*
X83185000Y-74930000D02*
X81280000Y-74930000D01*
X81280000Y-77470000D02*
X83820000Y-77470000D01*
X81280000Y-74930000D02*
X81280000Y-77470000D01*
X91440000Y-153670000D02*
X91440000Y-151765000D01*
X91440000Y-151765000D02*
X90805000Y-151130000D01*
X90805000Y-151130000D02*
X88900000Y-151130000D01*
X88900000Y-153670000D02*
X91440000Y-153670000D01*
X88900000Y-151130000D02*
X88900000Y-153670000D01*
X81280000Y-173990000D02*
X81280000Y-178435000D01*
X81280000Y-178435000D02*
X81915000Y-179070000D01*
X81915000Y-179070000D02*
X83820000Y-179070000D01*
X83820000Y-173990000D02*
X81280000Y-173990000D01*
X83820000Y-179070000D02*
X83820000Y-173990000D01*
X83820000Y-46990000D02*
X83820000Y-45085000D01*
X83820000Y-45085000D02*
X83185000Y-44450000D01*
X83185000Y-44450000D02*
X81280000Y-44450000D01*
X81280000Y-46990000D02*
X83820000Y-46990000D01*
X81280000Y-44450000D02*
X81280000Y-46990000D01*
X91440000Y-168910000D02*
X91440000Y-167005000D01*
X91440000Y-167005000D02*
X90805000Y-166370000D01*
X90805000Y-166370000D02*
X88900000Y-166370000D01*
X88900000Y-168910000D02*
X91440000Y-168910000D01*
X88900000Y-166370000D02*
X88900000Y-168910000D01*
X91440000Y-46990000D02*
X91440000Y-45085000D01*
X91440000Y-45085000D02*
X90805000Y-44450000D01*
X90805000Y-44450000D02*
X88900000Y-44450000D01*
X88900000Y-46990000D02*
X91440000Y-46990000D01*
X88900000Y-44450000D02*
X88900000Y-46990000D01*
X83820000Y-138430000D02*
X83820000Y-136525000D01*
X83820000Y-136525000D02*
X83185000Y-135890000D01*
X83185000Y-135890000D02*
X81280000Y-135890000D01*
X81280000Y-138430000D02*
X83820000Y-138430000D01*
X81280000Y-135890000D02*
X81280000Y-138430000D01*
X83820000Y-168910000D02*
X83820000Y-167005000D01*
X83820000Y-167005000D02*
X83185000Y-166370000D01*
X83185000Y-166370000D02*
X81280000Y-166370000D01*
X81280000Y-168910000D02*
X83820000Y-168910000D01*
X81280000Y-166370000D02*
X81280000Y-168910000D01*
X83820000Y-92710000D02*
X83820000Y-90805000D01*
X83820000Y-90805000D02*
X83185000Y-90170000D01*
X83185000Y-90170000D02*
X81280000Y-90170000D01*
X81280000Y-92710000D02*
X83820000Y-92710000D01*
X81280000Y-90170000D02*
X81280000Y-92710000D01*
X91440000Y-62230000D02*
X91440000Y-60325000D01*
X91440000Y-60325000D02*
X90805000Y-59690000D01*
X90805000Y-59690000D02*
X88900000Y-59690000D01*
X88900000Y-62230000D02*
X91440000Y-62230000D01*
X88900000Y-59690000D02*
X88900000Y-62230000D01*
X83820000Y-62230000D02*
X83820000Y-60325000D01*
X83820000Y-60325000D02*
X83185000Y-59690000D01*
X83185000Y-59690000D02*
X81280000Y-59690000D01*
X81280000Y-62230000D02*
X83820000Y-62230000D01*
X81280000Y-59690000D02*
X81280000Y-62230000D01*
X91440000Y-77470000D02*
X91440000Y-75565000D01*
X91440000Y-75565000D02*
X90805000Y-74930000D01*
X90805000Y-74930000D02*
X88900000Y-74930000D01*
X88900000Y-77470000D02*
X91440000Y-77470000D01*
X88900000Y-74930000D02*
X88900000Y-77470000D01*
X91440000Y-39370000D02*
X91440000Y-27305000D01*
X91440000Y-27305000D02*
X90805000Y-26670000D01*
X90805000Y-26670000D02*
X88900000Y-26670000D01*
X88900000Y-39370000D02*
X91440000Y-39370000D01*
X88900000Y-26670000D02*
X88900000Y-39370000D01*
X88900000Y-173990000D02*
X88900000Y-178435000D01*
X88900000Y-178435000D02*
X89535000Y-179070000D01*
X89535000Y-179070000D02*
X91440000Y-179070000D01*
X91440000Y-173990000D02*
X88900000Y-173990000D01*
X91440000Y-179070000D02*
X91440000Y-173990000D01*
X83820000Y-39370000D02*
X83820000Y-27305000D01*
X83820000Y-27305000D02*
X83185000Y-26670000D01*
X83185000Y-26670000D02*
X81280000Y-26670000D01*
X81280000Y-39370000D02*
X83820000Y-39370000D01*
X81280000Y-26670000D02*
X81280000Y-39370000D01*
X83820000Y-107950000D02*
X83820000Y-106045000D01*
X83820000Y-106045000D02*
X83185000Y-105410000D01*
X83185000Y-105410000D02*
X81280000Y-105410000D01*
X81280000Y-107950000D02*
X83820000Y-107950000D01*
X81280000Y-105410000D02*
X81280000Y-107950000D01*
X91440000Y-107950000D02*
X91440000Y-106045000D01*
X91440000Y-106045000D02*
X90805000Y-105410000D01*
X90805000Y-105410000D02*
X88900000Y-105410000D01*
X88900000Y-107950000D02*
X91440000Y-107950000D01*
X88900000Y-105410000D02*
X88900000Y-107950000D01*
X91440000Y-92710000D02*
X91440000Y-90805000D01*
X91440000Y-90805000D02*
X90805000Y-90170000D01*
X90805000Y-90170000D02*
X88900000Y-90170000D01*
X88900000Y-92710000D02*
X91440000Y-92710000D01*
X88900000Y-90170000D02*
X88900000Y-92710000D01*
X91440000Y-138430000D02*
X91440000Y-136525000D01*
X91440000Y-136525000D02*
X90805000Y-135890000D01*
X90805000Y-135890000D02*
X88900000Y-135890000D01*
X88900000Y-138430000D02*
X91440000Y-138430000D01*
X88900000Y-135890000D02*
X88900000Y-138430000D01*
X91440000Y-123190000D02*
X91440000Y-121285000D01*
X91440000Y-121285000D02*
X90805000Y-120650000D01*
X90805000Y-120650000D02*
X88900000Y-120650000D01*
X88900000Y-123190000D02*
X91440000Y-123190000D01*
X88900000Y-120650000D02*
X88900000Y-123190000D01*
X83820000Y-123190000D02*
X83820000Y-121285000D01*
X83820000Y-121285000D02*
X83185000Y-120650000D01*
X83185000Y-120650000D02*
X81280000Y-120650000D01*
X81280000Y-123190000D02*
X83820000Y-123190000D01*
X81280000Y-120650000D02*
X81280000Y-123190000D01*
M02*
