%TF.GenerationSoftware,KiCad,Pcbnew,7.0.8*%
%TF.CreationDate,2023-10-19T22:48:58-06:00*%
%TF.ProjectId,RP2040-Breadstick,52503230-3430-42d4-9272-656164737469,0.2*%
%TF.SameCoordinates,Original*%
%TF.FileFunction,Copper,L5,Inr*%
%TF.FilePolarity,Positive*%
%FSLAX46Y46*%
G04 Gerber Fmt 4.6, Leading zero omitted, Abs format (unit mm)*
G04 Created by KiCad (PCBNEW 7.0.8) date 2023-10-19 22:48:58*
%MOMM*%
%LPD*%
G01*
G04 APERTURE LIST*
%TA.AperFunction,ComponentPad*%
%ADD10O,1.000000X1.800000*%
%TD*%
%TA.AperFunction,ComponentPad*%
%ADD11O,1.000000X2.200000*%
%TD*%
%TA.AperFunction,ComponentPad*%
%ADD12R,1.700000X1.700000*%
%TD*%
%TA.AperFunction,ViaPad*%
%ADD13C,0.700000*%
%TD*%
G04 APERTURE END LIST*
D10*
X90680000Y-23048200D03*
D11*
X90680000Y-19048199D03*
D10*
X82040000Y-23048200D03*
D11*
X82040000Y-19048199D03*
D12*
X82550000Y-152400000D03*
X82550000Y-76200000D03*
X90170000Y-152400000D03*
X82550000Y-177800000D03*
X82550000Y-175260000D03*
X82550000Y-45720000D03*
X90170000Y-167640000D03*
X90170000Y-45720000D03*
X82550000Y-137160000D03*
X82550000Y-167640000D03*
X82550000Y-91440000D03*
X90170000Y-60960000D03*
X82550000Y-60960000D03*
X90170000Y-76200000D03*
X90170000Y-27940000D03*
X90170000Y-30480000D03*
X90170000Y-33020000D03*
X90170000Y-35560000D03*
X90170000Y-38100000D03*
X90170000Y-177800000D03*
X90170000Y-175260000D03*
X82550000Y-27940000D03*
X82550000Y-30480000D03*
X82550000Y-33020000D03*
X82550000Y-35560000D03*
X82550000Y-38100000D03*
X82550000Y-106680000D03*
X90170000Y-106680000D03*
X90170000Y-91440000D03*
X90170000Y-137160000D03*
X90170000Y-121920000D03*
X82550000Y-121920000D03*
D13*
X86360000Y-119253000D03*
X86360000Y-26314400D03*
X83160001Y-22554799D03*
X86359989Y-126655205D03*
X86360000Y-101092000D03*
X86360000Y-112395000D03*
X87477600Y-69621400D03*
X83058000Y-132054600D03*
X87376000Y-67818000D03*
X89560001Y-22555599D03*
X86360000Y-108585000D03*
X83843100Y-84961933D03*
X86360011Y-96824800D03*
X86360439Y-79878086D03*
X86360000Y-146050000D03*
X86360000Y-161163000D03*
X90678000Y-73025000D03*
X83083400Y-101600000D03*
X86360000Y-138430000D03*
X88284300Y-81940400D03*
X86360000Y-172339000D03*
X90525600Y-25146000D03*
X86156800Y-62001400D03*
X90049100Y-51562000D03*
X86360011Y-149352000D03*
X86360000Y-134620000D03*
X83108800Y-40589200D03*
X87122000Y-53594000D03*
X86360011Y-131191000D03*
X89550000Y-24810000D03*
X86360000Y-164846000D03*
X83160001Y-25196399D03*
X86487000Y-66395600D03*
X82042000Y-162534600D03*
X83439000Y-48768000D03*
X86360000Y-123063000D03*
X86360000Y-153670000D03*
X86227777Y-76903063D03*
X86360000Y-43688000D03*
X83846437Y-66895685D03*
X86360000Y-115570000D03*
X83083400Y-162534600D03*
X82016600Y-132054600D03*
X88773000Y-67056000D03*
X82804000Y-87858600D03*
X86360000Y-104521000D03*
X86360000Y-168656000D03*
X86360000Y-157099000D03*
X82003310Y-67288648D03*
X86360000Y-142494000D03*
X87122000Y-56134000D03*
X82042000Y-101600000D03*
X86360000Y-176149000D03*
X86360000Y-42799000D03*
X89516200Y-57429400D03*
X87505892Y-66062725D03*
X87178878Y-72966251D03*
X84133900Y-67697620D03*
X82009339Y-68153367D03*
X83944621Y-69039579D03*
X89008237Y-56648535D03*
X85955669Y-25476772D03*
X89958237Y-56648535D03*
X86807546Y-25470197D03*
X87347767Y-71103250D03*
X88873071Y-66066855D03*
X87833200Y-40620713D03*
X88750921Y-73660948D03*
X90709595Y-67009238D03*
X90716395Y-67861113D03*
X88199607Y-71092861D03*
X81991200Y-25196800D03*
X84633903Y-24586097D03*
X83502750Y-49834800D03*
X83335255Y-58117163D03*
X88873100Y-67970000D03*
X90718100Y-69564917D03*
X90716900Y-68713015D03*
X88779481Y-68817922D03*
X90718100Y-70416819D03*
X85938111Y-70950000D03*
X83972400Y-78714600D03*
X89408000Y-43688000D03*
X81965800Y-69291200D03*
X82042000Y-78232000D03*
X89408000Y-42799000D03*
X82550000Y-64643000D03*
X88750000Y-64520000D03*
X86758100Y-64520900D03*
X83388200Y-51511200D03*
X88816066Y-69669039D03*
X82118200Y-96494600D03*
X82118200Y-95631000D03*
X83312000Y-43688000D03*
X83312000Y-42799000D03*
X85806286Y-64300634D03*
X85092620Y-51239135D03*
X85547518Y-63488984D03*
X86360000Y-51231800D03*
X85490000Y-62620000D03*
X87630000Y-51231800D03*
X83921600Y-70713600D03*
X81990000Y-70205600D03*
X82014265Y-71379914D03*
X90424000Y-72110600D03*
X90716900Y-71268721D03*
%TA.AperFunction,Conductor*%
G36*
X90171634Y-16760643D02*
G01*
X90188136Y-16762086D01*
X90340482Y-16775414D01*
X90353383Y-16777689D01*
X90512344Y-16820282D01*
X90524649Y-16824762D01*
X90655280Y-16885676D01*
X90673786Y-16894306D01*
X90685138Y-16900860D01*
X90819934Y-16995245D01*
X90829975Y-17003671D01*
X90946328Y-17120024D01*
X90954754Y-17130065D01*
X91049139Y-17264861D01*
X91055693Y-17276213D01*
X91125235Y-17425344D01*
X91129719Y-17437662D01*
X91172309Y-17596612D01*
X91174585Y-17609521D01*
X91189357Y-17778364D01*
X91189500Y-17781643D01*
X91189500Y-17862528D01*
X91171907Y-17910866D01*
X91127358Y-17936586D01*
X91076700Y-17927653D01*
X91066367Y-17920471D01*
X91032624Y-17892557D01*
X91032616Y-17892552D01*
X90883361Y-17822319D01*
X90883356Y-17822317D01*
X90721324Y-17791409D01*
X90721322Y-17791409D01*
X90556686Y-17801766D01*
X90399797Y-17852742D01*
X90260517Y-17941133D01*
X90147593Y-18061386D01*
X90068124Y-18205939D01*
X90027100Y-18365720D01*
X90027100Y-19689272D01*
X90042585Y-19811858D01*
X90042586Y-19811862D01*
X90103309Y-19965230D01*
X90103311Y-19965235D01*
X90103312Y-19965236D01*
X90200274Y-20098692D01*
X90327378Y-20203842D01*
X90327379Y-20203842D01*
X90327380Y-20203843D01*
X90327383Y-20203845D01*
X90409478Y-20242475D01*
X90476639Y-20274079D01*
X90476641Y-20274079D01*
X90476643Y-20274080D01*
X90534409Y-20285099D01*
X90638678Y-20304989D01*
X90803314Y-20294631D01*
X90960201Y-20243656D01*
X91074005Y-20171432D01*
X91124245Y-20160387D01*
X91169831Y-20184218D01*
X91189434Y-20231776D01*
X91189500Y-20234926D01*
X91189500Y-22062529D01*
X91171907Y-22110867D01*
X91127358Y-22136587D01*
X91076700Y-22127654D01*
X91066367Y-22120472D01*
X91032624Y-22092558D01*
X91032616Y-22092553D01*
X90883361Y-22022320D01*
X90883356Y-22022318D01*
X90721324Y-21991410D01*
X90721322Y-21991410D01*
X90556686Y-22001767D01*
X90399797Y-22052743D01*
X90260517Y-22141134D01*
X90147593Y-22261387D01*
X90068124Y-22405940D01*
X90027100Y-22565721D01*
X90027100Y-23489273D01*
X90042585Y-23611859D01*
X90042586Y-23611863D01*
X90103309Y-23765231D01*
X90103311Y-23765236D01*
X90103312Y-23765237D01*
X90200274Y-23898693D01*
X90327378Y-24003843D01*
X90327379Y-24003843D01*
X90327380Y-24003844D01*
X90327383Y-24003846D01*
X90409478Y-24042476D01*
X90476639Y-24074080D01*
X90476641Y-24074080D01*
X90476643Y-24074081D01*
X90524433Y-24083197D01*
X90638678Y-24104990D01*
X90803314Y-24094632D01*
X90960201Y-24043657D01*
X91074005Y-23971433D01*
X91124245Y-23960388D01*
X91169831Y-23984219D01*
X91189434Y-24031777D01*
X91189500Y-24034927D01*
X91189500Y-26878925D01*
X91171907Y-26927263D01*
X91127358Y-26952983D01*
X91085524Y-26948402D01*
X91079659Y-26945973D01*
X91079658Y-26945972D01*
X91035057Y-26937100D01*
X89304944Y-26937100D01*
X89304942Y-26937101D01*
X89260340Y-26945972D01*
X89209767Y-26979764D01*
X89175972Y-27030342D01*
X89175971Y-27030343D01*
X89167100Y-27074942D01*
X89167100Y-28805055D01*
X89167101Y-28805057D01*
X89175972Y-28849659D01*
X89209764Y-28900232D01*
X89209765Y-28900232D01*
X89209766Y-28900234D01*
X89260342Y-28934028D01*
X89304943Y-28942900D01*
X91035056Y-28942899D01*
X91079658Y-28934028D01*
X91079660Y-28934026D01*
X91085526Y-28931598D01*
X91136917Y-28929357D01*
X91177725Y-28960674D01*
X91189500Y-29001075D01*
X91189500Y-29418925D01*
X91171907Y-29467263D01*
X91127358Y-29492983D01*
X91085524Y-29488402D01*
X91079659Y-29485973D01*
X91079658Y-29485972D01*
X91035057Y-29477100D01*
X89304944Y-29477100D01*
X89304942Y-29477101D01*
X89260340Y-29485972D01*
X89209767Y-29519764D01*
X89175972Y-29570342D01*
X89175971Y-29570343D01*
X89167100Y-29614942D01*
X89167100Y-31345055D01*
X89167101Y-31345057D01*
X89175972Y-31389659D01*
X89209764Y-31440232D01*
X89209765Y-31440232D01*
X89209766Y-31440234D01*
X89260342Y-31474028D01*
X89304943Y-31482900D01*
X91035056Y-31482899D01*
X91079658Y-31474028D01*
X91079660Y-31474026D01*
X91085526Y-31471598D01*
X91136917Y-31469357D01*
X91177725Y-31500674D01*
X91189500Y-31541075D01*
X91189500Y-34498925D01*
X91171907Y-34547263D01*
X91127358Y-34572983D01*
X91085524Y-34568402D01*
X91079659Y-34565973D01*
X91079658Y-34565972D01*
X91035057Y-34557100D01*
X89304944Y-34557100D01*
X89304942Y-34557101D01*
X89260340Y-34565972D01*
X89209767Y-34599764D01*
X89175972Y-34650342D01*
X89175971Y-34650343D01*
X89167100Y-34694942D01*
X89167100Y-36425055D01*
X89167101Y-36425057D01*
X89175972Y-36469659D01*
X89209764Y-36520232D01*
X89209765Y-36520232D01*
X89209766Y-36520234D01*
X89260342Y-36554028D01*
X89304943Y-36562900D01*
X91035056Y-36562899D01*
X91079658Y-36554028D01*
X91079660Y-36554026D01*
X91085526Y-36551598D01*
X91136917Y-36549357D01*
X91177725Y-36580674D01*
X91189500Y-36621075D01*
X91189500Y-37038925D01*
X91171907Y-37087263D01*
X91127358Y-37112983D01*
X91085524Y-37108402D01*
X91079659Y-37105973D01*
X91079658Y-37105972D01*
X91035057Y-37097100D01*
X89304944Y-37097100D01*
X89304942Y-37097101D01*
X89260340Y-37105972D01*
X89209767Y-37139764D01*
X89175972Y-37190342D01*
X89175971Y-37190343D01*
X89167100Y-37234942D01*
X89167100Y-38965055D01*
X89167101Y-38965057D01*
X89175972Y-39009659D01*
X89209764Y-39060232D01*
X89209765Y-39060232D01*
X89209766Y-39060234D01*
X89260342Y-39094028D01*
X89304943Y-39102900D01*
X91035056Y-39102899D01*
X91079658Y-39094028D01*
X91079660Y-39094026D01*
X91085526Y-39091598D01*
X91136917Y-39089357D01*
X91177725Y-39120674D01*
X91189500Y-39161075D01*
X91189500Y-44658925D01*
X91171907Y-44707263D01*
X91127358Y-44732983D01*
X91085524Y-44728402D01*
X91079659Y-44725973D01*
X91079658Y-44725972D01*
X91035057Y-44717100D01*
X89304944Y-44717100D01*
X89304942Y-44717101D01*
X89260340Y-44725972D01*
X89209767Y-44759764D01*
X89175972Y-44810342D01*
X89175971Y-44810343D01*
X89167100Y-44854942D01*
X89167100Y-46585055D01*
X89167101Y-46585057D01*
X89175972Y-46629659D01*
X89209764Y-46680232D01*
X89209765Y-46680232D01*
X89209766Y-46680234D01*
X89260342Y-46714028D01*
X89304943Y-46722900D01*
X91035056Y-46722899D01*
X91079658Y-46714028D01*
X91079660Y-46714026D01*
X91085526Y-46711598D01*
X91136917Y-46709357D01*
X91177725Y-46740674D01*
X91189500Y-46781075D01*
X91189500Y-59898925D01*
X91171907Y-59947263D01*
X91127358Y-59972983D01*
X91085524Y-59968402D01*
X91079659Y-59965973D01*
X91079658Y-59965972D01*
X91035057Y-59957100D01*
X89304944Y-59957100D01*
X89304942Y-59957101D01*
X89260340Y-59965972D01*
X89209767Y-59999764D01*
X89175972Y-60050342D01*
X89175971Y-60050343D01*
X89167100Y-60094942D01*
X89167100Y-61825055D01*
X89167101Y-61825057D01*
X89175972Y-61869659D01*
X89209764Y-61920232D01*
X89209765Y-61920232D01*
X89209766Y-61920234D01*
X89260342Y-61954028D01*
X89304943Y-61962900D01*
X91035056Y-61962899D01*
X91079658Y-61954028D01*
X91079660Y-61954026D01*
X91085526Y-61951598D01*
X91136917Y-61949357D01*
X91177725Y-61980674D01*
X91189500Y-62021075D01*
X91189500Y-66593510D01*
X91171907Y-66641848D01*
X91127358Y-66667568D01*
X91076700Y-66658635D01*
X91057468Y-66642756D01*
X91056681Y-66641848D01*
X91042311Y-66625264D01*
X90920655Y-66547080D01*
X90920654Y-66547079D01*
X90920653Y-66547079D01*
X90781903Y-66506338D01*
X90781901Y-66506338D01*
X90637289Y-66506338D01*
X90637286Y-66506338D01*
X90498536Y-66547079D01*
X90376879Y-66625264D01*
X90282176Y-66734556D01*
X90222105Y-66866092D01*
X90222105Y-66866094D01*
X90222104Y-66866096D01*
X90222104Y-66866098D01*
X90201524Y-67009238D01*
X90222104Y-67152378D01*
X90222104Y-67152379D01*
X90222105Y-67152381D01*
X90222105Y-67152383D01*
X90282176Y-67283919D01*
X90282177Y-67283920D01*
X90282178Y-67283922D01*
X90373969Y-67389854D01*
X90392328Y-67437906D01*
X90375503Y-67486516D01*
X90373969Y-67488345D01*
X90288976Y-67586431D01*
X90228905Y-67717967D01*
X90228905Y-67717969D01*
X90228904Y-67717971D01*
X90228904Y-67717973D01*
X90208324Y-67861113D01*
X90228904Y-68004253D01*
X90228904Y-68004254D01*
X90228905Y-68004256D01*
X90228905Y-68004258D01*
X90288976Y-68135794D01*
X90288977Y-68135795D01*
X90288978Y-68135797D01*
X90377633Y-68238110D01*
X90395992Y-68286162D01*
X90379167Y-68334772D01*
X90377633Y-68336601D01*
X90289481Y-68438333D01*
X90229410Y-68569869D01*
X90229410Y-68569871D01*
X90229409Y-68569873D01*
X90229409Y-68569875D01*
X90208829Y-68713015D01*
X90229409Y-68856155D01*
X90229409Y-68856156D01*
X90229410Y-68856158D01*
X90229410Y-68856160D01*
X90289481Y-68987696D01*
X90289482Y-68987697D01*
X90289483Y-68987699D01*
X90314455Y-69016518D01*
X90378485Y-69090412D01*
X90396844Y-69138465D01*
X90380019Y-69187075D01*
X90378485Y-69188903D01*
X90290683Y-69290232D01*
X90290682Y-69290233D01*
X90230610Y-69421771D01*
X90230610Y-69421773D01*
X90230609Y-69421775D01*
X90230609Y-69421777D01*
X90210029Y-69564917D01*
X90230609Y-69708057D01*
X90230609Y-69708058D01*
X90230610Y-69708060D01*
X90230610Y-69708062D01*
X90290681Y-69839598D01*
X90290682Y-69839599D01*
X90290683Y-69839601D01*
X90347657Y-69905353D01*
X90379085Y-69941622D01*
X90397444Y-69989675D01*
X90380619Y-70038286D01*
X90379085Y-70040114D01*
X90290681Y-70142137D01*
X90230610Y-70273673D01*
X90230610Y-70273675D01*
X90230609Y-70273677D01*
X90230609Y-70273679D01*
X90210029Y-70416819D01*
X90230609Y-70559959D01*
X90230609Y-70559960D01*
X90230610Y-70559962D01*
X90230610Y-70559964D01*
X90290681Y-70691500D01*
X90290682Y-70691501D01*
X90290683Y-70691503D01*
X90378485Y-70792831D01*
X90396844Y-70840884D01*
X90380019Y-70889494D01*
X90378486Y-70891322D01*
X90289481Y-70994039D01*
X90229410Y-71125575D01*
X90229410Y-71125577D01*
X90229409Y-71125579D01*
X90229409Y-71125581D01*
X90208829Y-71268721D01*
X90229409Y-71411861D01*
X90229409Y-71411862D01*
X90229410Y-71411864D01*
X90229410Y-71411866D01*
X90286676Y-71537261D01*
X90290753Y-71588539D01*
X90260915Y-71630441D01*
X90239461Y-71640653D01*
X90212942Y-71648440D01*
X90091284Y-71726626D01*
X89996581Y-71835918D01*
X89936510Y-71967454D01*
X89936510Y-71967456D01*
X89936509Y-71967458D01*
X89936509Y-71967460D01*
X89915929Y-72110600D01*
X89936509Y-72253740D01*
X89936509Y-72253741D01*
X89936510Y-72253743D01*
X89936510Y-72253745D01*
X89996581Y-72385281D01*
X89996582Y-72385282D01*
X89996583Y-72385284D01*
X90091284Y-72494574D01*
X90212940Y-72572758D01*
X90351694Y-72613500D01*
X90351697Y-72613500D01*
X90496303Y-72613500D01*
X90496306Y-72613500D01*
X90635060Y-72572758D01*
X90756716Y-72494574D01*
X90851417Y-72385284D01*
X90911491Y-72253740D01*
X90932071Y-72110600D01*
X90911491Y-71967460D01*
X90911490Y-71967458D01*
X90911490Y-71967456D01*
X90854222Y-71842059D01*
X90850145Y-71790781D01*
X90879983Y-71748879D01*
X90901437Y-71738666D01*
X90927960Y-71730879D01*
X91049616Y-71652695D01*
X91057468Y-71643632D01*
X91102416Y-71618623D01*
X91152927Y-71628357D01*
X91185363Y-71668281D01*
X91189500Y-71692878D01*
X91189500Y-75138925D01*
X91171907Y-75187263D01*
X91127358Y-75212983D01*
X91085524Y-75208402D01*
X91079659Y-75205973D01*
X91079658Y-75205972D01*
X91035057Y-75197100D01*
X89304944Y-75197100D01*
X89304942Y-75197101D01*
X89260340Y-75205972D01*
X89209767Y-75239764D01*
X89175972Y-75290342D01*
X89175971Y-75290343D01*
X89167100Y-75334942D01*
X89167100Y-77065055D01*
X89167101Y-77065057D01*
X89175972Y-77109659D01*
X89209764Y-77160232D01*
X89209765Y-77160232D01*
X89209766Y-77160234D01*
X89260342Y-77194028D01*
X89304943Y-77202900D01*
X91035056Y-77202899D01*
X91079658Y-77194028D01*
X91079660Y-77194026D01*
X91085526Y-77191598D01*
X91136917Y-77189357D01*
X91177725Y-77220674D01*
X91189500Y-77261075D01*
X91189500Y-90378925D01*
X91171907Y-90427263D01*
X91127358Y-90452983D01*
X91085524Y-90448402D01*
X91079659Y-90445973D01*
X91079658Y-90445972D01*
X91035057Y-90437100D01*
X89304944Y-90437100D01*
X89304942Y-90437101D01*
X89260340Y-90445972D01*
X89209767Y-90479764D01*
X89175972Y-90530342D01*
X89175971Y-90530343D01*
X89167100Y-90574942D01*
X89167100Y-92305055D01*
X89167101Y-92305057D01*
X89175972Y-92349659D01*
X89209764Y-92400232D01*
X89209765Y-92400232D01*
X89209766Y-92400234D01*
X89260342Y-92434028D01*
X89304943Y-92442900D01*
X91035056Y-92442899D01*
X91079658Y-92434028D01*
X91079660Y-92434026D01*
X91085526Y-92431598D01*
X91136917Y-92429357D01*
X91177725Y-92460674D01*
X91189500Y-92501075D01*
X91189500Y-105618925D01*
X91171907Y-105667263D01*
X91127358Y-105692983D01*
X91085524Y-105688402D01*
X91079659Y-105685973D01*
X91079658Y-105685972D01*
X91035057Y-105677100D01*
X89304944Y-105677100D01*
X89304942Y-105677101D01*
X89260340Y-105685972D01*
X89209767Y-105719764D01*
X89175972Y-105770342D01*
X89175971Y-105770343D01*
X89167100Y-105814942D01*
X89167100Y-107545055D01*
X89167101Y-107545057D01*
X89175972Y-107589659D01*
X89209764Y-107640232D01*
X89209765Y-107640232D01*
X89209766Y-107640234D01*
X89260342Y-107674028D01*
X89304943Y-107682900D01*
X91035056Y-107682899D01*
X91079658Y-107674028D01*
X91079660Y-107674026D01*
X91085526Y-107671598D01*
X91136917Y-107669357D01*
X91177725Y-107700674D01*
X91189500Y-107741075D01*
X91189500Y-120858925D01*
X91171907Y-120907263D01*
X91127358Y-120932983D01*
X91085524Y-120928402D01*
X91079659Y-120925973D01*
X91079658Y-120925972D01*
X91035057Y-120917100D01*
X89304944Y-120917100D01*
X89304942Y-120917101D01*
X89260340Y-120925972D01*
X89209767Y-120959764D01*
X89175972Y-121010342D01*
X89175971Y-121010343D01*
X89167100Y-121054942D01*
X89167100Y-122785055D01*
X89167101Y-122785057D01*
X89175972Y-122829659D01*
X89209764Y-122880232D01*
X89209765Y-122880232D01*
X89209766Y-122880234D01*
X89260342Y-122914028D01*
X89304943Y-122922900D01*
X91035056Y-122922899D01*
X91079658Y-122914028D01*
X91079660Y-122914026D01*
X91085526Y-122911598D01*
X91136917Y-122909357D01*
X91177725Y-122940674D01*
X91189500Y-122981075D01*
X91189500Y-136098925D01*
X91171907Y-136147263D01*
X91127358Y-136172983D01*
X91085524Y-136168402D01*
X91079659Y-136165973D01*
X91079658Y-136165972D01*
X91035057Y-136157100D01*
X89304944Y-136157100D01*
X89304942Y-136157101D01*
X89260340Y-136165972D01*
X89209767Y-136199764D01*
X89175972Y-136250342D01*
X89175971Y-136250343D01*
X89167100Y-136294942D01*
X89167100Y-138025055D01*
X89167101Y-138025057D01*
X89175972Y-138069659D01*
X89209764Y-138120232D01*
X89209765Y-138120232D01*
X89209766Y-138120234D01*
X89260342Y-138154028D01*
X89304943Y-138162900D01*
X91035056Y-138162899D01*
X91079658Y-138154028D01*
X91079660Y-138154026D01*
X91085526Y-138151598D01*
X91136917Y-138149357D01*
X91177725Y-138180674D01*
X91189500Y-138221075D01*
X91189500Y-151338925D01*
X91171907Y-151387263D01*
X91127358Y-151412983D01*
X91085524Y-151408402D01*
X91079659Y-151405973D01*
X91079658Y-151405972D01*
X91035057Y-151397100D01*
X89304944Y-151397100D01*
X89304942Y-151397101D01*
X89260340Y-151405972D01*
X89209767Y-151439764D01*
X89175972Y-151490342D01*
X89175971Y-151490343D01*
X89167100Y-151534942D01*
X89167100Y-153265055D01*
X89167101Y-153265057D01*
X89175972Y-153309659D01*
X89209764Y-153360232D01*
X89209765Y-153360232D01*
X89209766Y-153360234D01*
X89260342Y-153394028D01*
X89304943Y-153402900D01*
X91035056Y-153402899D01*
X91079658Y-153394028D01*
X91079660Y-153394026D01*
X91085526Y-153391598D01*
X91136917Y-153389357D01*
X91177725Y-153420674D01*
X91189500Y-153461075D01*
X91189500Y-166578925D01*
X91171907Y-166627263D01*
X91127358Y-166652983D01*
X91085524Y-166648402D01*
X91079659Y-166645973D01*
X91079658Y-166645972D01*
X91035057Y-166637100D01*
X89304944Y-166637100D01*
X89304942Y-166637101D01*
X89260340Y-166645972D01*
X89209767Y-166679764D01*
X89175972Y-166730342D01*
X89175971Y-166730343D01*
X89167100Y-166774942D01*
X89167100Y-168505055D01*
X89167101Y-168505057D01*
X89175972Y-168549659D01*
X89209764Y-168600232D01*
X89209765Y-168600232D01*
X89209766Y-168600234D01*
X89260342Y-168634028D01*
X89304943Y-168642900D01*
X91035056Y-168642899D01*
X91079658Y-168634028D01*
X91079660Y-168634026D01*
X91085526Y-168631598D01*
X91136917Y-168629357D01*
X91177725Y-168660674D01*
X91189500Y-168701075D01*
X91189500Y-176738925D01*
X91171907Y-176787263D01*
X91127358Y-176812983D01*
X91085524Y-176808402D01*
X91079659Y-176805973D01*
X91079658Y-176805972D01*
X91035057Y-176797100D01*
X89304944Y-176797100D01*
X89304942Y-176797101D01*
X89260340Y-176805972D01*
X89209767Y-176839764D01*
X89175972Y-176890342D01*
X89175971Y-176890343D01*
X89167100Y-176934942D01*
X89167100Y-178665055D01*
X89167101Y-178665057D01*
X89175972Y-178709659D01*
X89209764Y-178760232D01*
X89209765Y-178760232D01*
X89209766Y-178760234D01*
X89260342Y-178794028D01*
X89304943Y-178802900D01*
X91035056Y-178802899D01*
X91079658Y-178794028D01*
X91079660Y-178794026D01*
X91085526Y-178791598D01*
X91136917Y-178789357D01*
X91177725Y-178820674D01*
X91189500Y-178861075D01*
X91189500Y-179068356D01*
X91189357Y-179071635D01*
X91174585Y-179240478D01*
X91172309Y-179253387D01*
X91129719Y-179412337D01*
X91125235Y-179424655D01*
X91055693Y-179573786D01*
X91049139Y-179585138D01*
X90954754Y-179719934D01*
X90946328Y-179729975D01*
X90829975Y-179846328D01*
X90819934Y-179854754D01*
X90685138Y-179949139D01*
X90673786Y-179955693D01*
X90524655Y-180025235D01*
X90512337Y-180029719D01*
X90353387Y-180072309D01*
X90340478Y-180074585D01*
X90171635Y-180089357D01*
X90168356Y-180089500D01*
X82551644Y-180089500D01*
X82548366Y-180089357D01*
X82379521Y-180074585D01*
X82366612Y-180072309D01*
X82207662Y-180029719D01*
X82195344Y-180025235D01*
X82046213Y-179955693D01*
X82034861Y-179949139D01*
X81900065Y-179854754D01*
X81890024Y-179846328D01*
X81773671Y-179729975D01*
X81765245Y-179719934D01*
X81670860Y-179585138D01*
X81664306Y-179573786D01*
X81655676Y-179555280D01*
X81594762Y-179424649D01*
X81590282Y-179412344D01*
X81547689Y-179253383D01*
X81545414Y-179240478D01*
X81530643Y-179071634D01*
X81530500Y-179068356D01*
X81530500Y-178861074D01*
X81548093Y-178812736D01*
X81592642Y-178787016D01*
X81634481Y-178791599D01*
X81640337Y-178794024D01*
X81640342Y-178794028D01*
X81684943Y-178802900D01*
X83415056Y-178802899D01*
X83459658Y-178794028D01*
X83510234Y-178760234D01*
X83544028Y-178709658D01*
X83552900Y-178665057D01*
X83552899Y-176934944D01*
X83544028Y-176890342D01*
X83510234Y-176839766D01*
X83459658Y-176805972D01*
X83459656Y-176805971D01*
X83415057Y-176797100D01*
X81684944Y-176797100D01*
X81684942Y-176797101D01*
X81640337Y-176805973D01*
X81634469Y-176808403D01*
X81583078Y-176810641D01*
X81542272Y-176779321D01*
X81530500Y-176738924D01*
X81530500Y-168701074D01*
X81548093Y-168652736D01*
X81592642Y-168627016D01*
X81634481Y-168631599D01*
X81640337Y-168634024D01*
X81640342Y-168634028D01*
X81684943Y-168642900D01*
X83415056Y-168642899D01*
X83459658Y-168634028D01*
X83510234Y-168600234D01*
X83544028Y-168549658D01*
X83552900Y-168505057D01*
X83552899Y-166774944D01*
X83544028Y-166730342D01*
X83510234Y-166679766D01*
X83459658Y-166645972D01*
X83459656Y-166645971D01*
X83415057Y-166637100D01*
X81684944Y-166637100D01*
X81684942Y-166637101D01*
X81640337Y-166645973D01*
X81634469Y-166648403D01*
X81583078Y-166650641D01*
X81542272Y-166619321D01*
X81530500Y-166578924D01*
X81530500Y-153461074D01*
X81548093Y-153412736D01*
X81592642Y-153387016D01*
X81634481Y-153391599D01*
X81640337Y-153394024D01*
X81640342Y-153394028D01*
X81684943Y-153402900D01*
X83415056Y-153402899D01*
X83459658Y-153394028D01*
X83510234Y-153360234D01*
X83544028Y-153309658D01*
X83552900Y-153265057D01*
X83552899Y-151534944D01*
X83544028Y-151490342D01*
X83510234Y-151439766D01*
X83459658Y-151405972D01*
X83459656Y-151405971D01*
X83415057Y-151397100D01*
X81684944Y-151397100D01*
X81684942Y-151397101D01*
X81640337Y-151405973D01*
X81634469Y-151408403D01*
X81583078Y-151410641D01*
X81542272Y-151379321D01*
X81530500Y-151338924D01*
X81530500Y-138221074D01*
X81548093Y-138172736D01*
X81592642Y-138147016D01*
X81634481Y-138151599D01*
X81640337Y-138154024D01*
X81640342Y-138154028D01*
X81684943Y-138162900D01*
X83415056Y-138162899D01*
X83459658Y-138154028D01*
X83510234Y-138120234D01*
X83544028Y-138069658D01*
X83552900Y-138025057D01*
X83552899Y-136294944D01*
X83544028Y-136250342D01*
X83510234Y-136199766D01*
X83459658Y-136165972D01*
X83459656Y-136165971D01*
X83415057Y-136157100D01*
X81684944Y-136157100D01*
X81684942Y-136157101D01*
X81640337Y-136165973D01*
X81634469Y-136168403D01*
X81583078Y-136170641D01*
X81542272Y-136139321D01*
X81530500Y-136098924D01*
X81530500Y-122981074D01*
X81548093Y-122932736D01*
X81592642Y-122907016D01*
X81634481Y-122911599D01*
X81640337Y-122914024D01*
X81640342Y-122914028D01*
X81684943Y-122922900D01*
X83415056Y-122922899D01*
X83459658Y-122914028D01*
X83510234Y-122880234D01*
X83544028Y-122829658D01*
X83552900Y-122785057D01*
X83552899Y-121054944D01*
X83544028Y-121010342D01*
X83510234Y-120959766D01*
X83459658Y-120925972D01*
X83459656Y-120925971D01*
X83415057Y-120917100D01*
X81684944Y-120917100D01*
X81684942Y-120917101D01*
X81640337Y-120925973D01*
X81634469Y-120928403D01*
X81583078Y-120930641D01*
X81542272Y-120899321D01*
X81530500Y-120858924D01*
X81530500Y-107741074D01*
X81548093Y-107692736D01*
X81592642Y-107667016D01*
X81634481Y-107671599D01*
X81640337Y-107674024D01*
X81640342Y-107674028D01*
X81684943Y-107682900D01*
X83415056Y-107682899D01*
X83459658Y-107674028D01*
X83510234Y-107640234D01*
X83544028Y-107589658D01*
X83552900Y-107545057D01*
X83552899Y-105814944D01*
X83544028Y-105770342D01*
X83510234Y-105719766D01*
X83459658Y-105685972D01*
X83459656Y-105685971D01*
X83415057Y-105677100D01*
X81684944Y-105677100D01*
X81684942Y-105677101D01*
X81640337Y-105685973D01*
X81634469Y-105688403D01*
X81583078Y-105690641D01*
X81542272Y-105659321D01*
X81530500Y-105618924D01*
X81530500Y-96764002D01*
X81548093Y-96715664D01*
X81592642Y-96689944D01*
X81643300Y-96698877D01*
X81674104Y-96732763D01*
X81690781Y-96769281D01*
X81690782Y-96769282D01*
X81690783Y-96769284D01*
X81785484Y-96878574D01*
X81907140Y-96956758D01*
X82045894Y-96997500D01*
X82045897Y-96997500D01*
X82190503Y-96997500D01*
X82190506Y-96997500D01*
X82329260Y-96956758D01*
X82450916Y-96878574D01*
X82545617Y-96769284D01*
X82605691Y-96637740D01*
X82626271Y-96494600D01*
X82605691Y-96351460D01*
X82605689Y-96351455D01*
X82605689Y-96351454D01*
X82545618Y-96219918D01*
X82545617Y-96219917D01*
X82545617Y-96219916D01*
X82452143Y-96112043D01*
X82433786Y-96063994D01*
X82450610Y-96015383D01*
X82452100Y-96013607D01*
X82545617Y-95905684D01*
X82605691Y-95774140D01*
X82626271Y-95631000D01*
X82605691Y-95487860D01*
X82605689Y-95487855D01*
X82605689Y-95487854D01*
X82545618Y-95356318D01*
X82545617Y-95356317D01*
X82545617Y-95356316D01*
X82450916Y-95247026D01*
X82329260Y-95168842D01*
X82329259Y-95168841D01*
X82329258Y-95168841D01*
X82190508Y-95128100D01*
X82190506Y-95128100D01*
X82045894Y-95128100D01*
X82045891Y-95128100D01*
X81907141Y-95168841D01*
X81785484Y-95247026D01*
X81690782Y-95356317D01*
X81674104Y-95392837D01*
X81638020Y-95429497D01*
X81586813Y-95434387D01*
X81544444Y-95405217D01*
X81530500Y-95361597D01*
X81530500Y-92501074D01*
X81548093Y-92452736D01*
X81592642Y-92427016D01*
X81634481Y-92431599D01*
X81640337Y-92434024D01*
X81640342Y-92434028D01*
X81684943Y-92442900D01*
X83415056Y-92442899D01*
X83459658Y-92434028D01*
X83510234Y-92400234D01*
X83544028Y-92349658D01*
X83552900Y-92305057D01*
X83552899Y-90574944D01*
X83544028Y-90530342D01*
X83510234Y-90479766D01*
X83459658Y-90445972D01*
X83459656Y-90445971D01*
X83415057Y-90437100D01*
X81684944Y-90437100D01*
X81684942Y-90437101D01*
X81640337Y-90445973D01*
X81634469Y-90448403D01*
X81583078Y-90450641D01*
X81542272Y-90419321D01*
X81530500Y-90378924D01*
X81530500Y-78611265D01*
X81548093Y-78562927D01*
X81592642Y-78537207D01*
X81643300Y-78546140D01*
X81662529Y-78562017D01*
X81709284Y-78615974D01*
X81830940Y-78694158D01*
X81969694Y-78734900D01*
X81969697Y-78734900D01*
X82114303Y-78734900D01*
X82114306Y-78734900D01*
X82183441Y-78714600D01*
X83464329Y-78714600D01*
X83484909Y-78857740D01*
X83484909Y-78857741D01*
X83484910Y-78857743D01*
X83484910Y-78857745D01*
X83544981Y-78989281D01*
X83544982Y-78989282D01*
X83544983Y-78989284D01*
X83639684Y-79098574D01*
X83761340Y-79176758D01*
X83900094Y-79217500D01*
X83900097Y-79217500D01*
X84044703Y-79217500D01*
X84044706Y-79217500D01*
X84183460Y-79176758D01*
X84305116Y-79098574D01*
X84399817Y-78989284D01*
X84459891Y-78857740D01*
X84480471Y-78714600D01*
X84459891Y-78571460D01*
X84459889Y-78571455D01*
X84459889Y-78571454D01*
X84399818Y-78439918D01*
X84399817Y-78439917D01*
X84399817Y-78439916D01*
X84305116Y-78330626D01*
X84183460Y-78252442D01*
X84183459Y-78252441D01*
X84183458Y-78252441D01*
X84044708Y-78211700D01*
X84044706Y-78211700D01*
X83900094Y-78211700D01*
X83900091Y-78211700D01*
X83761341Y-78252441D01*
X83639684Y-78330626D01*
X83544981Y-78439918D01*
X83484910Y-78571454D01*
X83484910Y-78571456D01*
X83484909Y-78571458D01*
X83484909Y-78571460D01*
X83464329Y-78714600D01*
X82183441Y-78714600D01*
X82253060Y-78694158D01*
X82374716Y-78615974D01*
X82469417Y-78506684D01*
X82529491Y-78375140D01*
X82550071Y-78232000D01*
X82529491Y-78088860D01*
X82529489Y-78088855D01*
X82529489Y-78088854D01*
X82469418Y-77957318D01*
X82469417Y-77957317D01*
X82469417Y-77957316D01*
X82374716Y-77848026D01*
X82253060Y-77769842D01*
X82253059Y-77769841D01*
X82253058Y-77769841D01*
X82114308Y-77729100D01*
X82114306Y-77729100D01*
X81969694Y-77729100D01*
X81969691Y-77729100D01*
X81830941Y-77769841D01*
X81709283Y-77848026D01*
X81662532Y-77901980D01*
X81617581Y-77926990D01*
X81567071Y-77917254D01*
X81534636Y-77877329D01*
X81530500Y-77852734D01*
X81530500Y-77261074D01*
X81548093Y-77212736D01*
X81592642Y-77187016D01*
X81634481Y-77191599D01*
X81640337Y-77194024D01*
X81640342Y-77194028D01*
X81684943Y-77202900D01*
X83415056Y-77202899D01*
X83459658Y-77194028D01*
X83510234Y-77160234D01*
X83544028Y-77109658D01*
X83552900Y-77065057D01*
X83552899Y-75334944D01*
X83544028Y-75290342D01*
X83510234Y-75239766D01*
X83459658Y-75205972D01*
X83459656Y-75205971D01*
X83415057Y-75197100D01*
X81684944Y-75197100D01*
X81684942Y-75197101D01*
X81640337Y-75205973D01*
X81634469Y-75208403D01*
X81583078Y-75210641D01*
X81542272Y-75179321D01*
X81530500Y-75138924D01*
X81530500Y-73660948D01*
X88242850Y-73660948D01*
X88263430Y-73804088D01*
X88263430Y-73804089D01*
X88263431Y-73804091D01*
X88263431Y-73804093D01*
X88323502Y-73935629D01*
X88323503Y-73935630D01*
X88323504Y-73935632D01*
X88418205Y-74044922D01*
X88539861Y-74123106D01*
X88678615Y-74163848D01*
X88678618Y-74163848D01*
X88823224Y-74163848D01*
X88823227Y-74163848D01*
X88961981Y-74123106D01*
X89083637Y-74044922D01*
X89178338Y-73935632D01*
X89238412Y-73804088D01*
X89258992Y-73660948D01*
X89238412Y-73517808D01*
X89238410Y-73517803D01*
X89238410Y-73517802D01*
X89178339Y-73386266D01*
X89178338Y-73386265D01*
X89178338Y-73386264D01*
X89083637Y-73276974D01*
X88961981Y-73198790D01*
X88961980Y-73198789D01*
X88961979Y-73198789D01*
X88823229Y-73158048D01*
X88823227Y-73158048D01*
X88678615Y-73158048D01*
X88678612Y-73158048D01*
X88539862Y-73198789D01*
X88418205Y-73276974D01*
X88323502Y-73386266D01*
X88263431Y-73517802D01*
X88263431Y-73517804D01*
X88263430Y-73517806D01*
X88263430Y-73517808D01*
X88242850Y-73660948D01*
X81530500Y-73660948D01*
X81530500Y-72966251D01*
X86670807Y-72966251D01*
X86691387Y-73109391D01*
X86691387Y-73109392D01*
X86691388Y-73109394D01*
X86691388Y-73109396D01*
X86751459Y-73240932D01*
X86751460Y-73240933D01*
X86751461Y-73240935D01*
X86846162Y-73350225D01*
X86967818Y-73428409D01*
X87106572Y-73469151D01*
X87106575Y-73469151D01*
X87251181Y-73469151D01*
X87251184Y-73469151D01*
X87389938Y-73428409D01*
X87511594Y-73350225D01*
X87606295Y-73240935D01*
X87666369Y-73109391D01*
X87686949Y-72966251D01*
X87666369Y-72823111D01*
X87666367Y-72823106D01*
X87666367Y-72823105D01*
X87606296Y-72691569D01*
X87606295Y-72691568D01*
X87606295Y-72691567D01*
X87511594Y-72582277D01*
X87389938Y-72504093D01*
X87389937Y-72504092D01*
X87389936Y-72504092D01*
X87251186Y-72463351D01*
X87251184Y-72463351D01*
X87106572Y-72463351D01*
X87106569Y-72463351D01*
X86967819Y-72504092D01*
X86846162Y-72582277D01*
X86751459Y-72691569D01*
X86691388Y-72823105D01*
X86691388Y-72823107D01*
X86691387Y-72823109D01*
X86691387Y-72823111D01*
X86670807Y-72966251D01*
X81530500Y-72966251D01*
X81530500Y-71791186D01*
X81548093Y-71742848D01*
X81592642Y-71717128D01*
X81643300Y-71726061D01*
X81662528Y-71741937D01*
X81681549Y-71763888D01*
X81803205Y-71842072D01*
X81941959Y-71882814D01*
X81941962Y-71882814D01*
X82086568Y-71882814D01*
X82086571Y-71882814D01*
X82225325Y-71842072D01*
X82346981Y-71763888D01*
X82441682Y-71654598D01*
X82495268Y-71537261D01*
X82501754Y-71523059D01*
X82501754Y-71523058D01*
X82501756Y-71523054D01*
X82522336Y-71379914D01*
X82501756Y-71236774D01*
X82501754Y-71236769D01*
X82501754Y-71236768D01*
X82441683Y-71105232D01*
X82441682Y-71105231D01*
X82441682Y-71105230D01*
X82346981Y-70995940D01*
X82225325Y-70917756D01*
X82225324Y-70917755D01*
X82225323Y-70917755D01*
X82086573Y-70877014D01*
X82086571Y-70877014D01*
X81941959Y-70877014D01*
X81941956Y-70877014D01*
X81803206Y-70917755D01*
X81681548Y-70995940D01*
X81662532Y-71017887D01*
X81617581Y-71042896D01*
X81567071Y-71033161D01*
X81534636Y-70993236D01*
X81530500Y-70968641D01*
X81530500Y-70713600D01*
X83413529Y-70713600D01*
X83434109Y-70856740D01*
X83434109Y-70856741D01*
X83434110Y-70856743D01*
X83434110Y-70856745D01*
X83494181Y-70988281D01*
X83494182Y-70988282D01*
X83494183Y-70988284D01*
X83588884Y-71097574D01*
X83710540Y-71175758D01*
X83849294Y-71216500D01*
X83849297Y-71216500D01*
X83993903Y-71216500D01*
X83993906Y-71216500D01*
X84132660Y-71175758D01*
X84254316Y-71097574D01*
X84349017Y-70988284D01*
X84366501Y-70950000D01*
X85430040Y-70950000D01*
X85450620Y-71093140D01*
X85450620Y-71093141D01*
X85450621Y-71093143D01*
X85450621Y-71093145D01*
X85510692Y-71224681D01*
X85510693Y-71224682D01*
X85510694Y-71224684D01*
X85605395Y-71333974D01*
X85727051Y-71412158D01*
X85865805Y-71452900D01*
X85865808Y-71452900D01*
X86010414Y-71452900D01*
X86010417Y-71452900D01*
X86149171Y-71412158D01*
X86270827Y-71333974D01*
X86365528Y-71224684D01*
X86410789Y-71125577D01*
X86420985Y-71103250D01*
X86839696Y-71103250D01*
X86860276Y-71246390D01*
X86860276Y-71246391D01*
X86860277Y-71246393D01*
X86860277Y-71246395D01*
X86920348Y-71377931D01*
X86920349Y-71377932D01*
X86920350Y-71377934D01*
X87015051Y-71487224D01*
X87136707Y-71565408D01*
X87275461Y-71606150D01*
X87275464Y-71606150D01*
X87420070Y-71606150D01*
X87420073Y-71606150D01*
X87558827Y-71565408D01*
X87680483Y-71487224D01*
X87721357Y-71440052D01*
X87766306Y-71415044D01*
X87816816Y-71424778D01*
X87835016Y-71440050D01*
X87866891Y-71476835D01*
X87988547Y-71555019D01*
X88127301Y-71595761D01*
X88127304Y-71595761D01*
X88271910Y-71595761D01*
X88271913Y-71595761D01*
X88410667Y-71555019D01*
X88532323Y-71476835D01*
X88627024Y-71367545D01*
X88687098Y-71236001D01*
X88707678Y-71092861D01*
X88687098Y-70949721D01*
X88687096Y-70949716D01*
X88687096Y-70949715D01*
X88627025Y-70818179D01*
X88627024Y-70818178D01*
X88627024Y-70818177D01*
X88532323Y-70708887D01*
X88410667Y-70630703D01*
X88410666Y-70630702D01*
X88410665Y-70630702D01*
X88271915Y-70589961D01*
X88271913Y-70589961D01*
X88127301Y-70589961D01*
X88127298Y-70589961D01*
X87988548Y-70630702D01*
X87866890Y-70708887D01*
X87866890Y-70708888D01*
X87826016Y-70756057D01*
X87781065Y-70781066D01*
X87730555Y-70771329D01*
X87712353Y-70756056D01*
X87680483Y-70719276D01*
X87558827Y-70641092D01*
X87558826Y-70641091D01*
X87558825Y-70641091D01*
X87420075Y-70600350D01*
X87420073Y-70600350D01*
X87275461Y-70600350D01*
X87275458Y-70600350D01*
X87136708Y-70641091D01*
X87015051Y-70719276D01*
X86920348Y-70828568D01*
X86860277Y-70960104D01*
X86860277Y-70960106D01*
X86860276Y-70960108D01*
X86860276Y-70960110D01*
X86839696Y-71103250D01*
X86420985Y-71103250D01*
X86425600Y-71093145D01*
X86425600Y-71093144D01*
X86425602Y-71093140D01*
X86446182Y-70950000D01*
X86425602Y-70806860D01*
X86425600Y-70806855D01*
X86425600Y-70806854D01*
X86365529Y-70675318D01*
X86365528Y-70675317D01*
X86365528Y-70675316D01*
X86270827Y-70566026D01*
X86149171Y-70487842D01*
X86149170Y-70487841D01*
X86149169Y-70487841D01*
X86010419Y-70447100D01*
X86010417Y-70447100D01*
X85865805Y-70447100D01*
X85865802Y-70447100D01*
X85727052Y-70487841D01*
X85605395Y-70566026D01*
X85510692Y-70675318D01*
X85450621Y-70806854D01*
X85450621Y-70806856D01*
X85450620Y-70806858D01*
X85450620Y-70806860D01*
X85430040Y-70950000D01*
X84366501Y-70950000D01*
X84409091Y-70856740D01*
X84429671Y-70713600D01*
X84409091Y-70570460D01*
X84409089Y-70570456D01*
X84409089Y-70570453D01*
X84349018Y-70438918D01*
X84349017Y-70438917D01*
X84349017Y-70438916D01*
X84254316Y-70329626D01*
X84132660Y-70251442D01*
X84132659Y-70251441D01*
X84132658Y-70251441D01*
X83993908Y-70210700D01*
X83993906Y-70210700D01*
X83849294Y-70210700D01*
X83849291Y-70210700D01*
X83710541Y-70251441D01*
X83588884Y-70329626D01*
X83494181Y-70438918D01*
X83434111Y-70570453D01*
X83434110Y-70570456D01*
X83434109Y-70570460D01*
X83413529Y-70713600D01*
X81530500Y-70713600D01*
X81530500Y-70644379D01*
X81548093Y-70596041D01*
X81592642Y-70570321D01*
X81643300Y-70579254D01*
X81654949Y-70587550D01*
X81657283Y-70589573D01*
X81657284Y-70589574D01*
X81778940Y-70667758D01*
X81917694Y-70708500D01*
X81917697Y-70708500D01*
X82062303Y-70708500D01*
X82062306Y-70708500D01*
X82201060Y-70667758D01*
X82322716Y-70589574D01*
X82417417Y-70480284D01*
X82477491Y-70348740D01*
X82498071Y-70205600D01*
X82477491Y-70062460D01*
X82477489Y-70062455D01*
X82477489Y-70062454D01*
X82417418Y-69930918D01*
X82417417Y-69930917D01*
X82417417Y-69930916D01*
X82322716Y-69821626D01*
X82295111Y-69803885D01*
X82263959Y-69762952D01*
X82266407Y-69711571D01*
X82295116Y-69677359D01*
X82298514Y-69675175D01*
X82298513Y-69675175D01*
X82298516Y-69675174D01*
X82393217Y-69565884D01*
X82453291Y-69434340D01*
X82473871Y-69291200D01*
X82453291Y-69148060D01*
X82453289Y-69148055D01*
X82453289Y-69148054D01*
X82403750Y-69039579D01*
X83436550Y-69039579D01*
X83457130Y-69182719D01*
X83457130Y-69182720D01*
X83457131Y-69182722D01*
X83457131Y-69182724D01*
X83517202Y-69314260D01*
X83517203Y-69314261D01*
X83517204Y-69314263D01*
X83611905Y-69423553D01*
X83733561Y-69501737D01*
X83872315Y-69542479D01*
X83872318Y-69542479D01*
X84016924Y-69542479D01*
X84016927Y-69542479D01*
X84155681Y-69501737D01*
X84277337Y-69423553D01*
X84372038Y-69314263D01*
X84432112Y-69182719D01*
X84452692Y-69039579D01*
X84432112Y-68896439D01*
X84432110Y-68896434D01*
X84432110Y-68896433D01*
X84396255Y-68817922D01*
X88271410Y-68817922D01*
X88291990Y-68961062D01*
X88291990Y-68961063D01*
X88291991Y-68961065D01*
X88291991Y-68961067D01*
X88352062Y-69092603D01*
X88352063Y-69092604D01*
X88352064Y-69092606D01*
X88446765Y-69201896D01*
X88446769Y-69201898D01*
X88450830Y-69205418D01*
X88449216Y-69207279D01*
X88474696Y-69240758D01*
X88472250Y-69292140D01*
X88459721Y-69312333D01*
X88388647Y-69394357D01*
X88328576Y-69525893D01*
X88328576Y-69525895D01*
X88328575Y-69525897D01*
X88328575Y-69525899D01*
X88307995Y-69669039D01*
X88328575Y-69812179D01*
X88328575Y-69812180D01*
X88328576Y-69812182D01*
X88328576Y-69812184D01*
X88388647Y-69943720D01*
X88388648Y-69943721D01*
X88388649Y-69943723D01*
X88483350Y-70053013D01*
X88605006Y-70131197D01*
X88743760Y-70171939D01*
X88743763Y-70171939D01*
X88888369Y-70171939D01*
X88888372Y-70171939D01*
X89027126Y-70131197D01*
X89148782Y-70053013D01*
X89243483Y-69943723D01*
X89303557Y-69812179D01*
X89324137Y-69669039D01*
X89303557Y-69525899D01*
X89303555Y-69525894D01*
X89303555Y-69525893D01*
X89243484Y-69394357D01*
X89243483Y-69394356D01*
X89243483Y-69394355D01*
X89148782Y-69285065D01*
X89148778Y-69285062D01*
X89144717Y-69281543D01*
X89146328Y-69279683D01*
X89120845Y-69246188D01*
X89123302Y-69194807D01*
X89135824Y-69174629D01*
X89206898Y-69092606D01*
X89266972Y-68961062D01*
X89287552Y-68817922D01*
X89266972Y-68674782D01*
X89266970Y-68674777D01*
X89266970Y-68674776D01*
X89206899Y-68543240D01*
X89206898Y-68543239D01*
X89206898Y-68543238D01*
X89158003Y-68486810D01*
X89139645Y-68438761D01*
X89156469Y-68390150D01*
X89174181Y-68374304D01*
X89205816Y-68353974D01*
X89300517Y-68244684D01*
X89360591Y-68113140D01*
X89381171Y-67970000D01*
X89360591Y-67826860D01*
X89360589Y-67826855D01*
X89360589Y-67826854D01*
X89300518Y-67695318D01*
X89300517Y-67695317D01*
X89300517Y-67695316D01*
X89205816Y-67586026D01*
X89084160Y-67507842D01*
X89084159Y-67507841D01*
X89084158Y-67507841D01*
X88945408Y-67467100D01*
X88945406Y-67467100D01*
X88800794Y-67467100D01*
X88800791Y-67467100D01*
X88662041Y-67507841D01*
X88540384Y-67586026D01*
X88445681Y-67695318D01*
X88385610Y-67826854D01*
X88385610Y-67826856D01*
X88385609Y-67826858D01*
X88385609Y-67826860D01*
X88365029Y-67970000D01*
X88385609Y-68113140D01*
X88385609Y-68113141D01*
X88385610Y-68113143D01*
X88385610Y-68113145D01*
X88445681Y-68244681D01*
X88445682Y-68244682D01*
X88445683Y-68244684D01*
X88494576Y-68301110D01*
X88512935Y-68349160D01*
X88496111Y-68397771D01*
X88478402Y-68413615D01*
X88446766Y-68433947D01*
X88446765Y-68433948D01*
X88352062Y-68543240D01*
X88291991Y-68674776D01*
X88291991Y-68674778D01*
X88291990Y-68674780D01*
X88291990Y-68674782D01*
X88271410Y-68817922D01*
X84396255Y-68817922D01*
X84372039Y-68764897D01*
X84372038Y-68764896D01*
X84372038Y-68764895D01*
X84277337Y-68655605D01*
X84155681Y-68577421D01*
X84155680Y-68577420D01*
X84155679Y-68577420D01*
X84016929Y-68536679D01*
X84016927Y-68536679D01*
X83872315Y-68536679D01*
X83872312Y-68536679D01*
X83733562Y-68577420D01*
X83611905Y-68655605D01*
X83517202Y-68764897D01*
X83457131Y-68896433D01*
X83457131Y-68896435D01*
X83457130Y-68896437D01*
X83457130Y-68896439D01*
X83436550Y-69039579D01*
X82403750Y-69039579D01*
X82393218Y-69016518D01*
X82393217Y-69016517D01*
X82393217Y-69016516D01*
X82298516Y-68907226D01*
X82176860Y-68829042D01*
X82176859Y-68829041D01*
X82176858Y-68829041D01*
X82080777Y-68800829D01*
X82039354Y-68770330D01*
X82027226Y-68720340D01*
X82050069Y-68674250D01*
X82080777Y-68656521D01*
X82081642Y-68656267D01*
X82081645Y-68656267D01*
X82220399Y-68615525D01*
X82342055Y-68537341D01*
X82436756Y-68428051D01*
X82496830Y-68296507D01*
X82517410Y-68153367D01*
X82496830Y-68010227D01*
X82496828Y-68010222D01*
X82496828Y-68010221D01*
X82436757Y-67878685D01*
X82436756Y-67878684D01*
X82436756Y-67878683D01*
X82342055Y-67769393D01*
X82230375Y-67697620D01*
X83625829Y-67697620D01*
X83646409Y-67840760D01*
X83646409Y-67840761D01*
X83646410Y-67840763D01*
X83646410Y-67840765D01*
X83706481Y-67972301D01*
X83706482Y-67972302D01*
X83706483Y-67972304D01*
X83801184Y-68081594D01*
X83922840Y-68159778D01*
X84061594Y-68200520D01*
X84061597Y-68200520D01*
X84206203Y-68200520D01*
X84206206Y-68200520D01*
X84344960Y-68159778D01*
X84466616Y-68081594D01*
X84561317Y-67972304D01*
X84621391Y-67840760D01*
X84641971Y-67697620D01*
X84621391Y-67554480D01*
X84621389Y-67554475D01*
X84621389Y-67554474D01*
X84561318Y-67422938D01*
X84561317Y-67422937D01*
X84561317Y-67422936D01*
X84466616Y-67313646D01*
X84344960Y-67235462D01*
X84344959Y-67235461D01*
X84344958Y-67235461D01*
X84206208Y-67194720D01*
X84206206Y-67194720D01*
X84061594Y-67194720D01*
X84061591Y-67194720D01*
X83922841Y-67235461D01*
X83801184Y-67313646D01*
X83706481Y-67422938D01*
X83646410Y-67554474D01*
X83646410Y-67554476D01*
X83646409Y-67554478D01*
X83646409Y-67554480D01*
X83625829Y-67697620D01*
X82230375Y-67697620D01*
X82220399Y-67691209D01*
X82220398Y-67691208D01*
X82220397Y-67691208D01*
X82081647Y-67650467D01*
X82081645Y-67650467D01*
X81937033Y-67650467D01*
X81937030Y-67650467D01*
X81798280Y-67691208D01*
X81676622Y-67769393D01*
X81662532Y-67785655D01*
X81617581Y-67810665D01*
X81567071Y-67800929D01*
X81534636Y-67761004D01*
X81530500Y-67736409D01*
X81530500Y-66062725D01*
X86997821Y-66062725D01*
X87018401Y-66205865D01*
X87018401Y-66205866D01*
X87018402Y-66205868D01*
X87018402Y-66205870D01*
X87078473Y-66337406D01*
X87078474Y-66337407D01*
X87078475Y-66337409D01*
X87173176Y-66446699D01*
X87294832Y-66524883D01*
X87433586Y-66565625D01*
X87433589Y-66565625D01*
X87578195Y-66565625D01*
X87578198Y-66565625D01*
X87716952Y-66524883D01*
X87838608Y-66446699D01*
X87933309Y-66337409D01*
X87993383Y-66205865D01*
X88013369Y-66066855D01*
X88365000Y-66066855D01*
X88385580Y-66209995D01*
X88385580Y-66209996D01*
X88385581Y-66209998D01*
X88385581Y-66210000D01*
X88445652Y-66341536D01*
X88445653Y-66341537D01*
X88445654Y-66341539D01*
X88540355Y-66450829D01*
X88662011Y-66529013D01*
X88800765Y-66569755D01*
X88800768Y-66569755D01*
X88945374Y-66569755D01*
X88945377Y-66569755D01*
X89084131Y-66529013D01*
X89205787Y-66450829D01*
X89300488Y-66341539D01*
X89360562Y-66209995D01*
X89381142Y-66066855D01*
X89360562Y-65923715D01*
X89360560Y-65923710D01*
X89360560Y-65923709D01*
X89300489Y-65792173D01*
X89300488Y-65792172D01*
X89300488Y-65792171D01*
X89205787Y-65682881D01*
X89084131Y-65604697D01*
X89084130Y-65604696D01*
X89084129Y-65604696D01*
X88945379Y-65563955D01*
X88945377Y-65563955D01*
X88800765Y-65563955D01*
X88800762Y-65563955D01*
X88662012Y-65604696D01*
X88540355Y-65682881D01*
X88445652Y-65792173D01*
X88385581Y-65923709D01*
X88385581Y-65923711D01*
X88385580Y-65923713D01*
X88385580Y-65923715D01*
X88365000Y-66066855D01*
X88013369Y-66066855D01*
X88013963Y-66062725D01*
X87993383Y-65919585D01*
X87993381Y-65919580D01*
X87993381Y-65919579D01*
X87933310Y-65788043D01*
X87933309Y-65788042D01*
X87933309Y-65788041D01*
X87838608Y-65678751D01*
X87716952Y-65600567D01*
X87716951Y-65600566D01*
X87716950Y-65600566D01*
X87578200Y-65559825D01*
X87578198Y-65559825D01*
X87433586Y-65559825D01*
X87433583Y-65559825D01*
X87294833Y-65600566D01*
X87173176Y-65678751D01*
X87078473Y-65788043D01*
X87018402Y-65919579D01*
X87018402Y-65919581D01*
X87018401Y-65919583D01*
X87018401Y-65919585D01*
X86997821Y-66062725D01*
X81530500Y-66062725D01*
X81530500Y-64643000D01*
X82041929Y-64643000D01*
X82062509Y-64786140D01*
X82062509Y-64786141D01*
X82062510Y-64786143D01*
X82062510Y-64786145D01*
X82122581Y-64917681D01*
X82122582Y-64917682D01*
X82122583Y-64917684D01*
X82217284Y-65026974D01*
X82338940Y-65105158D01*
X82477694Y-65145900D01*
X82477697Y-65145900D01*
X82622303Y-65145900D01*
X82622306Y-65145900D01*
X82761060Y-65105158D01*
X82882716Y-65026974D01*
X82977417Y-64917684D01*
X83011435Y-64843193D01*
X83037489Y-64786145D01*
X83037489Y-64786144D01*
X83037491Y-64786140D01*
X83058071Y-64643000D01*
X83037491Y-64499860D01*
X83037489Y-64499855D01*
X83037489Y-64499854D01*
X82977418Y-64368318D01*
X82977417Y-64368317D01*
X82977417Y-64368316D01*
X82882716Y-64259026D01*
X82761060Y-64180842D01*
X82761059Y-64180841D01*
X82761058Y-64180841D01*
X82622308Y-64140100D01*
X82622306Y-64140100D01*
X82477694Y-64140100D01*
X82477691Y-64140100D01*
X82338941Y-64180841D01*
X82217284Y-64259026D01*
X82122581Y-64368318D01*
X82062510Y-64499854D01*
X82062510Y-64499856D01*
X82062509Y-64499858D01*
X82062509Y-64499860D01*
X82041929Y-64643000D01*
X81530500Y-64643000D01*
X81530500Y-62620000D01*
X84981929Y-62620000D01*
X85002509Y-62763140D01*
X85002509Y-62763141D01*
X85002510Y-62763143D01*
X85002510Y-62763145D01*
X85062581Y-62894681D01*
X85062582Y-62894682D01*
X85062583Y-62894684D01*
X85157284Y-63003974D01*
X85157286Y-63003975D01*
X85177453Y-63016936D01*
X85208606Y-63057870D01*
X85206158Y-63109251D01*
X85193630Y-63129443D01*
X85120099Y-63214302D01*
X85060028Y-63345838D01*
X85060028Y-63345840D01*
X85060027Y-63345842D01*
X85060027Y-63345844D01*
X85039447Y-63488984D01*
X85060027Y-63632124D01*
X85060027Y-63632125D01*
X85060028Y-63632127D01*
X85060028Y-63632129D01*
X85120099Y-63763665D01*
X85120100Y-63763666D01*
X85120101Y-63763668D01*
X85214802Y-63872958D01*
X85282803Y-63916660D01*
X85340841Y-63953959D01*
X85371993Y-63994893D01*
X85369545Y-64046275D01*
X85368588Y-64048460D01*
X85318796Y-64157488D01*
X85318796Y-64157490D01*
X85318795Y-64157492D01*
X85318795Y-64157494D01*
X85298215Y-64300634D01*
X85318795Y-64443774D01*
X85318795Y-64443775D01*
X85318796Y-64443777D01*
X85318796Y-64443779D01*
X85378867Y-64575315D01*
X85378868Y-64575316D01*
X85378869Y-64575318D01*
X85473570Y-64684608D01*
X85595226Y-64762792D01*
X85733980Y-64803534D01*
X85733983Y-64803534D01*
X85878589Y-64803534D01*
X85878592Y-64803534D01*
X86017346Y-64762792D01*
X86139002Y-64684608D01*
X86154711Y-64666478D01*
X86199657Y-64641470D01*
X86250167Y-64651203D01*
X86279945Y-64684485D01*
X86315707Y-64762792D01*
X86330683Y-64795584D01*
X86425384Y-64904874D01*
X86547040Y-64983058D01*
X86685794Y-65023800D01*
X86685797Y-65023800D01*
X86830403Y-65023800D01*
X86830406Y-65023800D01*
X86969160Y-64983058D01*
X87090816Y-64904874D01*
X87185517Y-64795584D01*
X87236198Y-64684608D01*
X87245589Y-64664045D01*
X87245589Y-64664044D01*
X87245591Y-64664040D01*
X87266171Y-64520900D01*
X87266042Y-64520000D01*
X88241929Y-64520000D01*
X88262509Y-64663140D01*
X88262509Y-64663141D01*
X88262510Y-64663143D01*
X88262510Y-64663145D01*
X88322581Y-64794681D01*
X88322582Y-64794682D01*
X88322583Y-64794684D01*
X88417284Y-64903974D01*
X88538940Y-64982158D01*
X88677694Y-65022900D01*
X88677697Y-65022900D01*
X88822303Y-65022900D01*
X88822306Y-65022900D01*
X88961060Y-64982158D01*
X89082716Y-64903974D01*
X89177417Y-64794684D01*
X89227687Y-64684608D01*
X89237489Y-64663145D01*
X89237489Y-64663144D01*
X89237491Y-64663140D01*
X89258071Y-64520000D01*
X89237491Y-64376860D01*
X89237489Y-64376855D01*
X89237489Y-64376854D01*
X89177418Y-64245318D01*
X89177417Y-64245317D01*
X89177417Y-64245316D01*
X89082716Y-64136026D01*
X88961060Y-64057842D01*
X88961059Y-64057841D01*
X88961058Y-64057841D01*
X88822308Y-64017100D01*
X88822306Y-64017100D01*
X88677694Y-64017100D01*
X88677691Y-64017100D01*
X88538941Y-64057841D01*
X88417284Y-64136026D01*
X88322581Y-64245318D01*
X88262510Y-64376854D01*
X88262510Y-64376856D01*
X88262509Y-64376858D01*
X88262509Y-64376860D01*
X88241929Y-64520000D01*
X87266042Y-64520000D01*
X87245591Y-64377760D01*
X87245589Y-64377755D01*
X87245589Y-64377754D01*
X87185518Y-64246218D01*
X87185517Y-64246217D01*
X87185517Y-64246216D01*
X87090816Y-64136926D01*
X86969160Y-64058742D01*
X86969159Y-64058741D01*
X86969158Y-64058741D01*
X86830408Y-64018000D01*
X86830406Y-64018000D01*
X86685794Y-64018000D01*
X86685791Y-64018000D01*
X86547041Y-64058741D01*
X86425383Y-64136926D01*
X86409676Y-64155054D01*
X86364725Y-64180064D01*
X86314215Y-64170328D01*
X86284440Y-64137047D01*
X86233704Y-64025952D01*
X86233703Y-64025951D01*
X86233703Y-64025950D01*
X86139002Y-63916660D01*
X86012962Y-63835658D01*
X85981810Y-63794724D01*
X85984258Y-63743342D01*
X85985194Y-63741201D01*
X86035009Y-63632124D01*
X86055589Y-63488984D01*
X86035009Y-63345844D01*
X86035007Y-63345839D01*
X86035007Y-63345838D01*
X85974936Y-63214302D01*
X85974935Y-63214301D01*
X85974935Y-63214300D01*
X85880234Y-63105010D01*
X85860062Y-63092046D01*
X85828911Y-63051112D01*
X85831359Y-62999731D01*
X85843884Y-62979543D01*
X85917417Y-62894684D01*
X85977491Y-62763140D01*
X85998071Y-62620000D01*
X85977491Y-62476860D01*
X85977489Y-62476855D01*
X85977489Y-62476854D01*
X85917418Y-62345318D01*
X85917417Y-62345317D01*
X85917417Y-62345316D01*
X85822716Y-62236026D01*
X85701060Y-62157842D01*
X85701059Y-62157841D01*
X85701058Y-62157841D01*
X85562308Y-62117100D01*
X85562306Y-62117100D01*
X85417694Y-62117100D01*
X85417691Y-62117100D01*
X85278941Y-62157841D01*
X85157284Y-62236026D01*
X85062581Y-62345318D01*
X85002510Y-62476854D01*
X85002510Y-62476856D01*
X85002509Y-62476858D01*
X85002509Y-62476860D01*
X84981929Y-62620000D01*
X81530500Y-62620000D01*
X81530500Y-62021074D01*
X81548093Y-61972736D01*
X81592642Y-61947016D01*
X81634481Y-61951599D01*
X81640337Y-61954024D01*
X81640342Y-61954028D01*
X81684943Y-61962900D01*
X83415056Y-61962899D01*
X83459658Y-61954028D01*
X83510234Y-61920234D01*
X83544028Y-61869658D01*
X83552900Y-61825057D01*
X83552899Y-60094944D01*
X83544028Y-60050342D01*
X83510234Y-59999766D01*
X83459658Y-59965972D01*
X83459656Y-59965971D01*
X83415057Y-59957100D01*
X81684944Y-59957100D01*
X81684942Y-59957101D01*
X81640337Y-59965973D01*
X81634469Y-59968403D01*
X81583078Y-59970641D01*
X81542272Y-59939321D01*
X81530500Y-59898924D01*
X81530500Y-58117163D01*
X82827184Y-58117163D01*
X82847764Y-58260303D01*
X82847764Y-58260304D01*
X82847765Y-58260306D01*
X82847765Y-58260308D01*
X82907836Y-58391844D01*
X82907837Y-58391845D01*
X82907838Y-58391847D01*
X83002539Y-58501137D01*
X83124195Y-58579321D01*
X83262949Y-58620063D01*
X83262952Y-58620063D01*
X83407558Y-58620063D01*
X83407561Y-58620063D01*
X83546315Y-58579321D01*
X83667971Y-58501137D01*
X83762672Y-58391847D01*
X83822746Y-58260303D01*
X83843326Y-58117163D01*
X83822746Y-57974023D01*
X83822744Y-57974018D01*
X83822744Y-57974017D01*
X83762673Y-57842481D01*
X83762672Y-57842480D01*
X83762672Y-57842479D01*
X83667971Y-57733189D01*
X83546315Y-57655005D01*
X83546314Y-57655004D01*
X83546313Y-57655004D01*
X83407563Y-57614263D01*
X83407561Y-57614263D01*
X83262949Y-57614263D01*
X83262946Y-57614263D01*
X83124196Y-57655004D01*
X83002539Y-57733189D01*
X82907836Y-57842481D01*
X82847765Y-57974017D01*
X82847765Y-57974019D01*
X82847764Y-57974021D01*
X82847764Y-57974023D01*
X82827184Y-58117163D01*
X81530500Y-58117163D01*
X81530500Y-56648535D01*
X88500166Y-56648535D01*
X88520746Y-56791675D01*
X88520746Y-56791676D01*
X88520747Y-56791678D01*
X88520747Y-56791680D01*
X88580818Y-56923216D01*
X88580819Y-56923217D01*
X88580820Y-56923219D01*
X88675521Y-57032509D01*
X88797177Y-57110693D01*
X88935931Y-57151435D01*
X88935934Y-57151435D01*
X89080540Y-57151435D01*
X89080543Y-57151435D01*
X89219297Y-57110693D01*
X89340953Y-57032509D01*
X89426406Y-56933891D01*
X89471355Y-56908883D01*
X89521866Y-56918618D01*
X89540066Y-56933889D01*
X89625521Y-57032509D01*
X89747177Y-57110693D01*
X89885931Y-57151435D01*
X89885934Y-57151435D01*
X90030540Y-57151435D01*
X90030543Y-57151435D01*
X90169297Y-57110693D01*
X90290953Y-57032509D01*
X90385654Y-56923219D01*
X90445728Y-56791675D01*
X90466308Y-56648535D01*
X90445728Y-56505395D01*
X90445726Y-56505390D01*
X90445726Y-56505389D01*
X90385655Y-56373853D01*
X90385654Y-56373852D01*
X90385654Y-56373851D01*
X90290953Y-56264561D01*
X90169297Y-56186377D01*
X90169296Y-56186376D01*
X90169295Y-56186376D01*
X90030545Y-56145635D01*
X90030543Y-56145635D01*
X89885931Y-56145635D01*
X89885928Y-56145635D01*
X89747178Y-56186376D01*
X89625520Y-56264561D01*
X89540069Y-56363177D01*
X89495118Y-56388186D01*
X89444608Y-56378451D01*
X89426405Y-56363177D01*
X89415932Y-56351091D01*
X89340953Y-56264561D01*
X89219297Y-56186377D01*
X89219296Y-56186376D01*
X89219295Y-56186376D01*
X89080545Y-56145635D01*
X89080543Y-56145635D01*
X88935931Y-56145635D01*
X88935928Y-56145635D01*
X88797178Y-56186376D01*
X88675521Y-56264561D01*
X88580818Y-56373853D01*
X88520747Y-56505389D01*
X88520747Y-56505391D01*
X88520746Y-56505393D01*
X88520746Y-56505395D01*
X88500166Y-56648535D01*
X81530500Y-56648535D01*
X81530500Y-51511200D01*
X82880129Y-51511200D01*
X82900709Y-51654340D01*
X82900709Y-51654341D01*
X82900710Y-51654343D01*
X82900710Y-51654345D01*
X82960781Y-51785881D01*
X82960782Y-51785882D01*
X82960783Y-51785884D01*
X83055484Y-51895174D01*
X83177140Y-51973358D01*
X83315894Y-52014100D01*
X83315897Y-52014100D01*
X83460503Y-52014100D01*
X83460506Y-52014100D01*
X83599260Y-51973358D01*
X83720916Y-51895174D01*
X83815617Y-51785884D01*
X83875691Y-51654340D01*
X83896271Y-51511200D01*
X83875691Y-51368060D01*
X83875689Y-51368055D01*
X83875689Y-51368054D01*
X83816813Y-51239135D01*
X84584549Y-51239135D01*
X84605129Y-51382275D01*
X84605129Y-51382276D01*
X84605130Y-51382278D01*
X84605130Y-51382280D01*
X84665201Y-51513816D01*
X84665202Y-51513817D01*
X84665203Y-51513819D01*
X84759904Y-51623109D01*
X84881560Y-51701293D01*
X85020314Y-51742035D01*
X85020317Y-51742035D01*
X85164923Y-51742035D01*
X85164926Y-51742035D01*
X85303680Y-51701293D01*
X85425336Y-51623109D01*
X85520037Y-51513819D01*
X85580111Y-51382275D01*
X85600691Y-51239135D01*
X85599636Y-51231800D01*
X85851929Y-51231800D01*
X85872509Y-51374940D01*
X85872509Y-51374941D01*
X85872510Y-51374943D01*
X85872510Y-51374945D01*
X85932581Y-51506481D01*
X85932582Y-51506482D01*
X85932583Y-51506484D01*
X86027284Y-51615774D01*
X86148940Y-51693958D01*
X86287694Y-51734700D01*
X86287697Y-51734700D01*
X86432303Y-51734700D01*
X86432306Y-51734700D01*
X86571060Y-51693958D01*
X86692716Y-51615774D01*
X86787417Y-51506484D01*
X86847491Y-51374940D01*
X86868071Y-51231800D01*
X87121929Y-51231800D01*
X87142509Y-51374940D01*
X87142509Y-51374941D01*
X87142510Y-51374943D01*
X87142510Y-51374945D01*
X87202581Y-51506481D01*
X87202582Y-51506482D01*
X87202583Y-51506484D01*
X87297284Y-51615774D01*
X87418940Y-51693958D01*
X87557694Y-51734700D01*
X87557697Y-51734700D01*
X87702303Y-51734700D01*
X87702306Y-51734700D01*
X87841060Y-51693958D01*
X87962716Y-51615774D01*
X88057417Y-51506484D01*
X88117491Y-51374940D01*
X88138071Y-51231800D01*
X88117491Y-51088660D01*
X88117489Y-51088655D01*
X88117489Y-51088654D01*
X88057418Y-50957118D01*
X88057417Y-50957117D01*
X88057417Y-50957116D01*
X87962716Y-50847826D01*
X87841060Y-50769642D01*
X87841059Y-50769641D01*
X87841058Y-50769641D01*
X87702308Y-50728900D01*
X87702306Y-50728900D01*
X87557694Y-50728900D01*
X87557691Y-50728900D01*
X87418941Y-50769641D01*
X87297284Y-50847826D01*
X87202581Y-50957118D01*
X87142510Y-51088654D01*
X87142510Y-51088656D01*
X87142509Y-51088658D01*
X87142509Y-51088660D01*
X87121929Y-51231800D01*
X86868071Y-51231800D01*
X86847491Y-51088660D01*
X86847489Y-51088655D01*
X86847489Y-51088654D01*
X86787418Y-50957118D01*
X86787417Y-50957117D01*
X86787417Y-50957116D01*
X86692716Y-50847826D01*
X86571060Y-50769642D01*
X86571059Y-50769641D01*
X86571058Y-50769641D01*
X86432308Y-50728900D01*
X86432306Y-50728900D01*
X86287694Y-50728900D01*
X86287691Y-50728900D01*
X86148941Y-50769641D01*
X86027284Y-50847826D01*
X85932581Y-50957118D01*
X85872510Y-51088654D01*
X85872510Y-51088656D01*
X85872509Y-51088658D01*
X85872509Y-51088660D01*
X85851929Y-51231800D01*
X85599636Y-51231800D01*
X85580111Y-51095995D01*
X85580109Y-51095990D01*
X85580109Y-51095989D01*
X85520038Y-50964453D01*
X85520037Y-50964452D01*
X85520037Y-50964451D01*
X85425336Y-50855161D01*
X85303680Y-50776977D01*
X85303679Y-50776976D01*
X85303678Y-50776976D01*
X85164928Y-50736235D01*
X85164926Y-50736235D01*
X85020314Y-50736235D01*
X85020311Y-50736235D01*
X84881561Y-50776976D01*
X84759904Y-50855161D01*
X84665201Y-50964453D01*
X84605130Y-51095989D01*
X84605130Y-51095991D01*
X84605129Y-51095993D01*
X84605129Y-51095995D01*
X84584549Y-51239135D01*
X83816813Y-51239135D01*
X83815618Y-51236518D01*
X83815617Y-51236517D01*
X83815617Y-51236516D01*
X83720916Y-51127226D01*
X83599260Y-51049042D01*
X83599259Y-51049041D01*
X83599258Y-51049041D01*
X83460508Y-51008300D01*
X83460506Y-51008300D01*
X83315894Y-51008300D01*
X83315891Y-51008300D01*
X83177141Y-51049041D01*
X83055484Y-51127226D01*
X82960781Y-51236518D01*
X82900710Y-51368054D01*
X82900710Y-51368056D01*
X82900709Y-51368058D01*
X82900709Y-51368060D01*
X82880129Y-51511200D01*
X81530500Y-51511200D01*
X81530500Y-49834800D01*
X82994679Y-49834800D01*
X83015259Y-49977940D01*
X83015259Y-49977941D01*
X83015260Y-49977943D01*
X83015260Y-49977945D01*
X83075331Y-50109481D01*
X83075332Y-50109482D01*
X83075333Y-50109484D01*
X83170034Y-50218774D01*
X83291690Y-50296958D01*
X83430444Y-50337700D01*
X83430447Y-50337700D01*
X83575053Y-50337700D01*
X83575056Y-50337700D01*
X83713810Y-50296958D01*
X83835466Y-50218774D01*
X83930167Y-50109484D01*
X83990241Y-49977940D01*
X84010821Y-49834800D01*
X83990241Y-49691660D01*
X83990239Y-49691655D01*
X83990239Y-49691654D01*
X83930168Y-49560118D01*
X83930167Y-49560117D01*
X83930167Y-49560116D01*
X83835466Y-49450826D01*
X83713810Y-49372642D01*
X83713809Y-49372641D01*
X83713808Y-49372641D01*
X83575058Y-49331900D01*
X83575056Y-49331900D01*
X83430444Y-49331900D01*
X83430441Y-49331900D01*
X83291691Y-49372641D01*
X83170034Y-49450826D01*
X83075331Y-49560118D01*
X83015260Y-49691654D01*
X83015260Y-49691656D01*
X83015259Y-49691658D01*
X83015259Y-49691660D01*
X82994679Y-49834800D01*
X81530500Y-49834800D01*
X81530500Y-46781074D01*
X81548093Y-46732736D01*
X81592642Y-46707016D01*
X81634481Y-46711599D01*
X81640337Y-46714024D01*
X81640342Y-46714028D01*
X81684943Y-46722900D01*
X83415056Y-46722899D01*
X83459658Y-46714028D01*
X83510234Y-46680234D01*
X83544028Y-46629658D01*
X83552900Y-46585057D01*
X83552899Y-44854944D01*
X83544028Y-44810342D01*
X83510234Y-44759766D01*
X83459658Y-44725972D01*
X83459656Y-44725971D01*
X83415057Y-44717100D01*
X81684944Y-44717100D01*
X81684942Y-44717101D01*
X81640337Y-44725973D01*
X81634469Y-44728403D01*
X81583078Y-44730641D01*
X81542272Y-44699321D01*
X81530500Y-44658924D01*
X81530500Y-43688000D01*
X82803929Y-43688000D01*
X82824509Y-43831140D01*
X82824509Y-43831141D01*
X82824510Y-43831143D01*
X82824510Y-43831145D01*
X82884581Y-43962681D01*
X82884582Y-43962682D01*
X82884583Y-43962684D01*
X82979284Y-44071974D01*
X83100940Y-44150158D01*
X83239694Y-44190900D01*
X83239697Y-44190900D01*
X83384303Y-44190900D01*
X83384306Y-44190900D01*
X83523060Y-44150158D01*
X83644716Y-44071974D01*
X83739417Y-43962684D01*
X83799491Y-43831140D01*
X83820071Y-43688000D01*
X88899929Y-43688000D01*
X88920509Y-43831140D01*
X88920509Y-43831141D01*
X88920510Y-43831143D01*
X88920510Y-43831145D01*
X88980581Y-43962681D01*
X88980582Y-43962682D01*
X88980583Y-43962684D01*
X89075284Y-44071974D01*
X89196940Y-44150158D01*
X89335694Y-44190900D01*
X89335697Y-44190900D01*
X89480303Y-44190900D01*
X89480306Y-44190900D01*
X89619060Y-44150158D01*
X89740716Y-44071974D01*
X89835417Y-43962684D01*
X89895491Y-43831140D01*
X89916071Y-43688000D01*
X89895491Y-43544860D01*
X89895489Y-43544855D01*
X89895489Y-43544854D01*
X89835418Y-43413318D01*
X89835417Y-43413317D01*
X89835417Y-43413316D01*
X89740716Y-43304026D01*
X89740712Y-43304023D01*
X89736651Y-43300504D01*
X89738552Y-43298309D01*
X89713834Y-43265873D01*
X89716250Y-43214490D01*
X89738220Y-43188307D01*
X89736651Y-43186496D01*
X89740707Y-43182979D01*
X89740716Y-43182974D01*
X89835417Y-43073684D01*
X89895491Y-42942140D01*
X89916071Y-42799000D01*
X89895491Y-42655860D01*
X89895489Y-42655855D01*
X89895489Y-42655854D01*
X89835418Y-42524318D01*
X89835417Y-42524317D01*
X89835417Y-42524316D01*
X89740716Y-42415026D01*
X89619060Y-42336842D01*
X89619059Y-42336841D01*
X89619058Y-42336841D01*
X89480308Y-42296100D01*
X89480306Y-42296100D01*
X89335694Y-42296100D01*
X89335691Y-42296100D01*
X89196941Y-42336841D01*
X89075284Y-42415026D01*
X88980581Y-42524318D01*
X88920510Y-42655854D01*
X88920510Y-42655856D01*
X88920509Y-42655858D01*
X88920509Y-42655860D01*
X88899929Y-42799000D01*
X88920509Y-42942140D01*
X88920509Y-42942141D01*
X88920510Y-42942143D01*
X88920510Y-42942145D01*
X88980581Y-43073681D01*
X88980582Y-43073682D01*
X88980583Y-43073684D01*
X89075284Y-43182974D01*
X89075288Y-43182976D01*
X89079349Y-43186496D01*
X89077464Y-43188670D01*
X89102203Y-43221249D01*
X89099699Y-43272628D01*
X89077804Y-43298721D01*
X89079349Y-43300504D01*
X89075284Y-43304026D01*
X88980581Y-43413318D01*
X88920510Y-43544854D01*
X88920510Y-43544856D01*
X88920509Y-43544858D01*
X88920509Y-43544860D01*
X88899929Y-43688000D01*
X83820071Y-43688000D01*
X83799491Y-43544860D01*
X83799489Y-43544855D01*
X83799489Y-43544854D01*
X83739418Y-43413318D01*
X83739417Y-43413317D01*
X83739417Y-43413316D01*
X83644716Y-43304026D01*
X83644712Y-43304023D01*
X83640651Y-43300504D01*
X83642552Y-43298309D01*
X83617834Y-43265873D01*
X83620250Y-43214490D01*
X83642220Y-43188307D01*
X83640651Y-43186496D01*
X83644707Y-43182979D01*
X83644716Y-43182974D01*
X83739417Y-43073684D01*
X83799491Y-42942140D01*
X83820071Y-42799000D01*
X83799491Y-42655860D01*
X83799489Y-42655855D01*
X83799489Y-42655854D01*
X83739418Y-42524318D01*
X83739417Y-42524317D01*
X83739417Y-42524316D01*
X83644716Y-42415026D01*
X83523060Y-42336842D01*
X83523059Y-42336841D01*
X83523058Y-42336841D01*
X83384308Y-42296100D01*
X83384306Y-42296100D01*
X83239694Y-42296100D01*
X83239691Y-42296100D01*
X83100941Y-42336841D01*
X82979284Y-42415026D01*
X82884581Y-42524318D01*
X82824510Y-42655854D01*
X82824510Y-42655856D01*
X82824509Y-42655858D01*
X82824509Y-42655860D01*
X82803929Y-42799000D01*
X82824509Y-42942140D01*
X82824509Y-42942141D01*
X82824510Y-42942143D01*
X82824510Y-42942145D01*
X82884581Y-43073681D01*
X82884582Y-43073682D01*
X82884583Y-43073684D01*
X82979284Y-43182974D01*
X82979288Y-43182976D01*
X82983349Y-43186496D01*
X82981464Y-43188670D01*
X83006203Y-43221249D01*
X83003699Y-43272628D01*
X82981804Y-43298721D01*
X82983349Y-43300504D01*
X82979284Y-43304026D01*
X82884581Y-43413318D01*
X82824510Y-43544854D01*
X82824510Y-43544856D01*
X82824509Y-43544858D01*
X82824509Y-43544860D01*
X82803929Y-43688000D01*
X81530500Y-43688000D01*
X81530500Y-40620713D01*
X87325129Y-40620713D01*
X87345709Y-40763853D01*
X87345709Y-40763854D01*
X87345710Y-40763856D01*
X87345710Y-40763858D01*
X87405781Y-40895394D01*
X87405782Y-40895395D01*
X87405783Y-40895397D01*
X87500484Y-41004687D01*
X87622140Y-41082871D01*
X87760894Y-41123613D01*
X87760897Y-41123613D01*
X87905503Y-41123613D01*
X87905506Y-41123613D01*
X88044260Y-41082871D01*
X88165916Y-41004687D01*
X88260617Y-40895397D01*
X88320691Y-40763853D01*
X88341271Y-40620713D01*
X88320691Y-40477573D01*
X88320689Y-40477568D01*
X88320689Y-40477567D01*
X88260618Y-40346031D01*
X88260617Y-40346030D01*
X88260617Y-40346029D01*
X88165916Y-40236739D01*
X88044260Y-40158555D01*
X88044259Y-40158554D01*
X88044258Y-40158554D01*
X87905508Y-40117813D01*
X87905506Y-40117813D01*
X87760894Y-40117813D01*
X87760891Y-40117813D01*
X87622141Y-40158554D01*
X87500484Y-40236739D01*
X87405781Y-40346031D01*
X87345710Y-40477567D01*
X87345710Y-40477569D01*
X87345709Y-40477571D01*
X87345709Y-40477573D01*
X87325129Y-40620713D01*
X81530500Y-40620713D01*
X81530500Y-39161074D01*
X81548093Y-39112736D01*
X81592642Y-39087016D01*
X81634481Y-39091599D01*
X81640337Y-39094024D01*
X81640342Y-39094028D01*
X81684943Y-39102900D01*
X83415056Y-39102899D01*
X83459658Y-39094028D01*
X83510234Y-39060234D01*
X83544028Y-39009658D01*
X83552900Y-38965057D01*
X83552899Y-37234944D01*
X83544028Y-37190342D01*
X83510234Y-37139766D01*
X83459658Y-37105972D01*
X83459656Y-37105971D01*
X83415057Y-37097100D01*
X81684944Y-37097100D01*
X81684942Y-37097101D01*
X81640337Y-37105973D01*
X81634469Y-37108403D01*
X81583078Y-37110641D01*
X81542272Y-37079321D01*
X81530500Y-37038924D01*
X81530500Y-36621074D01*
X81548093Y-36572736D01*
X81592642Y-36547016D01*
X81634481Y-36551599D01*
X81640337Y-36554024D01*
X81640342Y-36554028D01*
X81684943Y-36562900D01*
X83415056Y-36562899D01*
X83459658Y-36554028D01*
X83510234Y-36520234D01*
X83544028Y-36469658D01*
X83552900Y-36425057D01*
X83552899Y-34694944D01*
X83544028Y-34650342D01*
X83510234Y-34599766D01*
X83459658Y-34565972D01*
X83459656Y-34565971D01*
X83415057Y-34557100D01*
X81684944Y-34557100D01*
X81684942Y-34557101D01*
X81640337Y-34565973D01*
X81634469Y-34568403D01*
X81583078Y-34570641D01*
X81542272Y-34539321D01*
X81530500Y-34498924D01*
X81530500Y-31541074D01*
X81548093Y-31492736D01*
X81592642Y-31467016D01*
X81634481Y-31471599D01*
X81640337Y-31474024D01*
X81640342Y-31474028D01*
X81684943Y-31482900D01*
X83415056Y-31482899D01*
X83459658Y-31474028D01*
X83510234Y-31440234D01*
X83544028Y-31389658D01*
X83552900Y-31345057D01*
X83552899Y-29614944D01*
X83544028Y-29570342D01*
X83510234Y-29519766D01*
X83459658Y-29485972D01*
X83459656Y-29485971D01*
X83415057Y-29477100D01*
X81684944Y-29477100D01*
X81684942Y-29477101D01*
X81640337Y-29485973D01*
X81634469Y-29488403D01*
X81583078Y-29490641D01*
X81542272Y-29459321D01*
X81530500Y-29418924D01*
X81530500Y-29001074D01*
X81548093Y-28952736D01*
X81592642Y-28927016D01*
X81634481Y-28931599D01*
X81640337Y-28934024D01*
X81640342Y-28934028D01*
X81684943Y-28942900D01*
X83415056Y-28942899D01*
X83459658Y-28934028D01*
X83510234Y-28900234D01*
X83544028Y-28849658D01*
X83552900Y-28805057D01*
X83552899Y-27074944D01*
X83544028Y-27030342D01*
X83510234Y-26979766D01*
X83459658Y-26945972D01*
X83459656Y-26945971D01*
X83415057Y-26937100D01*
X81684944Y-26937100D01*
X81684942Y-26937101D01*
X81640337Y-26945973D01*
X81634469Y-26948403D01*
X81583078Y-26950641D01*
X81542272Y-26919321D01*
X81530500Y-26878924D01*
X81530500Y-25634539D01*
X81548093Y-25586201D01*
X81592642Y-25560481D01*
X81643300Y-25569414D01*
X81654950Y-25577710D01*
X81658478Y-25580767D01*
X81658484Y-25580774D01*
X81780140Y-25658958D01*
X81918894Y-25699700D01*
X81918897Y-25699700D01*
X82063503Y-25699700D01*
X82063506Y-25699700D01*
X82202260Y-25658958D01*
X82323916Y-25580774D01*
X82414035Y-25476772D01*
X85447598Y-25476772D01*
X85468178Y-25619912D01*
X85468178Y-25619913D01*
X85468179Y-25619915D01*
X85468179Y-25619917D01*
X85528250Y-25751453D01*
X85528251Y-25751454D01*
X85528252Y-25751456D01*
X85622953Y-25860746D01*
X85744609Y-25938930D01*
X85883363Y-25979672D01*
X85883366Y-25979672D01*
X86027972Y-25979672D01*
X86027975Y-25979672D01*
X86166729Y-25938930D01*
X86288385Y-25860746D01*
X86327626Y-25815459D01*
X86372572Y-25790452D01*
X86423083Y-25800186D01*
X86441287Y-25815461D01*
X86474830Y-25854171D01*
X86596486Y-25932355D01*
X86735240Y-25973097D01*
X86735243Y-25973097D01*
X86879849Y-25973097D01*
X86879852Y-25973097D01*
X87018606Y-25932355D01*
X87140262Y-25854171D01*
X87234963Y-25744881D01*
X87274203Y-25658958D01*
X87295035Y-25613342D01*
X87295035Y-25613341D01*
X87295037Y-25613337D01*
X87315617Y-25470197D01*
X87295037Y-25327057D01*
X87295035Y-25327052D01*
X87295035Y-25327051D01*
X87234964Y-25195515D01*
X87234963Y-25195514D01*
X87234963Y-25195513D01*
X87140262Y-25086223D01*
X87018606Y-25008039D01*
X87018605Y-25008038D01*
X87018604Y-25008038D01*
X86879854Y-24967297D01*
X86879852Y-24967297D01*
X86735240Y-24967297D01*
X86735237Y-24967297D01*
X86596487Y-25008038D01*
X86474829Y-25086223D01*
X86435589Y-25131508D01*
X86390638Y-25156517D01*
X86340128Y-25146781D01*
X86321929Y-25131510D01*
X86288385Y-25092798D01*
X86166729Y-25014614D01*
X86166728Y-25014613D01*
X86166727Y-25014613D01*
X86027977Y-24973872D01*
X86027975Y-24973872D01*
X85883363Y-24973872D01*
X85883360Y-24973872D01*
X85744610Y-25014613D01*
X85622953Y-25092798D01*
X85528250Y-25202090D01*
X85468179Y-25333626D01*
X85468179Y-25333628D01*
X85468178Y-25333630D01*
X85468178Y-25333632D01*
X85447598Y-25476772D01*
X82414035Y-25476772D01*
X82418617Y-25471484D01*
X82478691Y-25339940D01*
X82499271Y-25196800D01*
X82478691Y-25053660D01*
X82478689Y-25053655D01*
X82478689Y-25053654D01*
X82418618Y-24922118D01*
X82418617Y-24922117D01*
X82418617Y-24922116D01*
X82323916Y-24812826D01*
X82202260Y-24734642D01*
X82202259Y-24734641D01*
X82202258Y-24734641D01*
X82063508Y-24693900D01*
X82063506Y-24693900D01*
X81918894Y-24693900D01*
X81918891Y-24693900D01*
X81780141Y-24734641D01*
X81658483Y-24812826D01*
X81654945Y-24815893D01*
X81606893Y-24834251D01*
X81558282Y-24817426D01*
X81531859Y-24773291D01*
X81530500Y-24759060D01*
X81530500Y-24586097D01*
X84125832Y-24586097D01*
X84146412Y-24729237D01*
X84146412Y-24729238D01*
X84146413Y-24729240D01*
X84146413Y-24729242D01*
X84206484Y-24860778D01*
X84206485Y-24860779D01*
X84206486Y-24860781D01*
X84301187Y-24970071D01*
X84422843Y-25048255D01*
X84561597Y-25088997D01*
X84561600Y-25088997D01*
X84706206Y-25088997D01*
X84706209Y-25088997D01*
X84844963Y-25048255D01*
X84966619Y-24970071D01*
X85061320Y-24860781D01*
X85121394Y-24729237D01*
X85141974Y-24586097D01*
X85121394Y-24442957D01*
X85121392Y-24442952D01*
X85121392Y-24442951D01*
X85061321Y-24311415D01*
X85061320Y-24311414D01*
X85061320Y-24311413D01*
X84966619Y-24202123D01*
X84844963Y-24123939D01*
X84844962Y-24123938D01*
X84844961Y-24123938D01*
X84706211Y-24083197D01*
X84706209Y-24083197D01*
X84561597Y-24083197D01*
X84561594Y-24083197D01*
X84422844Y-24123938D01*
X84301187Y-24202123D01*
X84206484Y-24311415D01*
X84146413Y-24442951D01*
X84146413Y-24442953D01*
X84146412Y-24442955D01*
X84146412Y-24442957D01*
X84125832Y-24586097D01*
X81530500Y-24586097D01*
X81530500Y-24033870D01*
X81548093Y-23985532D01*
X81592642Y-23959812D01*
X81643300Y-23968745D01*
X81653634Y-23975928D01*
X81687375Y-24003841D01*
X81687383Y-24003846D01*
X81769478Y-24042476D01*
X81836639Y-24074080D01*
X81836641Y-24074080D01*
X81836643Y-24074081D01*
X81884433Y-24083197D01*
X81998678Y-24104990D01*
X82163314Y-24094632D01*
X82320201Y-24043657D01*
X82459482Y-23955266D01*
X82572405Y-23835015D01*
X82651876Y-23690459D01*
X82692900Y-23530680D01*
X82692900Y-22607125D01*
X82677414Y-22484540D01*
X82677413Y-22484536D01*
X82616690Y-22331168D01*
X82616688Y-22331163D01*
X82565991Y-22261385D01*
X82519726Y-22197707D01*
X82392622Y-22092557D01*
X82392620Y-22092556D01*
X82392619Y-22092555D01*
X82392616Y-22092553D01*
X82243361Y-22022320D01*
X82243356Y-22022318D01*
X82081324Y-21991410D01*
X82081322Y-21991410D01*
X81916686Y-22001767D01*
X81759796Y-22052743D01*
X81759794Y-22052744D01*
X81645994Y-22124965D01*
X81595755Y-22136011D01*
X81550168Y-22112180D01*
X81530566Y-22064621D01*
X81530500Y-22061472D01*
X81530500Y-20233869D01*
X81548093Y-20185531D01*
X81592642Y-20159811D01*
X81643300Y-20168744D01*
X81653634Y-20175927D01*
X81687375Y-20203840D01*
X81687383Y-20203845D01*
X81769478Y-20242475D01*
X81836639Y-20274079D01*
X81836641Y-20274079D01*
X81836643Y-20274080D01*
X81894409Y-20285099D01*
X81998678Y-20304989D01*
X82163314Y-20294631D01*
X82320201Y-20243656D01*
X82459482Y-20155265D01*
X82572405Y-20035014D01*
X82651876Y-19890458D01*
X82692900Y-19730679D01*
X82692900Y-18407124D01*
X82677414Y-18284539D01*
X82677413Y-18284535D01*
X82616690Y-18131167D01*
X82616688Y-18131162D01*
X82565991Y-18061384D01*
X82519726Y-17997706D01*
X82392622Y-17892556D01*
X82392620Y-17892555D01*
X82392619Y-17892554D01*
X82392616Y-17892552D01*
X82243361Y-17822319D01*
X82243356Y-17822317D01*
X82081324Y-17791409D01*
X82081322Y-17791409D01*
X81916686Y-17801766D01*
X81759796Y-17852742D01*
X81759794Y-17852743D01*
X81645994Y-17924964D01*
X81595755Y-17936010D01*
X81550168Y-17912179D01*
X81530566Y-17864620D01*
X81530500Y-17861471D01*
X81530500Y-17781643D01*
X81530643Y-17778365D01*
X81540014Y-17671252D01*
X81545415Y-17609515D01*
X81547688Y-17596617D01*
X81590283Y-17437651D01*
X81594760Y-17425353D01*
X81664308Y-17276209D01*
X81670860Y-17264861D01*
X81683169Y-17247282D01*
X81765250Y-17130058D01*
X81773665Y-17120030D01*
X81890030Y-17003665D01*
X81900058Y-16995250D01*
X82034864Y-16900857D01*
X82046209Y-16894308D01*
X82195353Y-16824760D01*
X82207651Y-16820283D01*
X82366617Y-16777688D01*
X82379515Y-16775415D01*
X82534365Y-16761867D01*
X82548366Y-16760643D01*
X82551644Y-16760500D01*
X82594170Y-16760500D01*
X90125830Y-16760500D01*
X90168356Y-16760500D01*
X90171634Y-16760643D01*
G37*
%TD.AperFunction*%
M02*
