%TF.GenerationSoftware,KiCad,Pcbnew,7.0.8*%
%TF.CreationDate,2023-10-19T22:48:58-06:00*%
%TF.ProjectId,RP2040-Breadstick,52503230-3430-42d4-9272-656164737469,0.2*%
%TF.SameCoordinates,Original*%
%TF.FileFunction,AssemblyDrawing,Top*%
%FSLAX46Y46*%
G04 Gerber Fmt 4.6, Leading zero omitted, Abs format (unit mm)*
G04 Created by KiCad (PCBNEW 7.0.8) date 2023-10-19 22:48:58*
%MOMM*%
%LPD*%
G01*
G04 APERTURE LIST*
%ADD10C,0.127000*%
%ADD11C,0.100000*%
%ADD12C,0.050000*%
%ADD13C,0.120000*%
%ADD14C,0.200000*%
G04 APERTURE END LIST*
D10*
X81711200Y-82062800D02*
X84811200Y-82062800D01*
X81711200Y-84662800D02*
X81711200Y-82062800D01*
X84811200Y-82062800D02*
X84811200Y-84662800D01*
X84811200Y-84662800D02*
X81711200Y-84662800D01*
D11*
X81211200Y-82362800D02*
G75*
G03*
X81211200Y-82362800I-50000J0D01*
G01*
X90830400Y-23698200D02*
X90830400Y-16941800D01*
X90830400Y-16941800D02*
X81889600Y-16941800D01*
X86360000Y-23698200D02*
X86360000Y-23698200D01*
X86360000Y-23698200D02*
X86360000Y-23698200D01*
X86360000Y-23698200D02*
X86360000Y-23698200D01*
X86360000Y-23698200D02*
X86360000Y-23698200D01*
X81889600Y-23698200D02*
X90830400Y-23698200D01*
X81889600Y-16941800D02*
X81889600Y-23698200D01*
X83400800Y-85674400D02*
X83400800Y-88874400D01*
X81800800Y-85674400D02*
X83400800Y-85674400D01*
X83400800Y-88874400D02*
X81800800Y-88874400D01*
X81800800Y-88874400D02*
X81800800Y-85674400D01*
X87534500Y-39840000D02*
X87534500Y-41440000D01*
X86709500Y-39840000D02*
X87534500Y-39840000D01*
X87534500Y-41440000D02*
X86709500Y-41440000D01*
X86709500Y-41440000D02*
X86709500Y-39840000D01*
D12*
X87560000Y-133947602D02*
X85160000Y-133947602D01*
X85160000Y-133947602D02*
X85160000Y-131537602D01*
X85160000Y-131537602D02*
X87560000Y-131537602D01*
X87560000Y-131537602D02*
X87560000Y-133947602D01*
D13*
X87517200Y-133852402D02*
G75*
G03*
X87517200Y-133852402I-50000J0D01*
G01*
D11*
X90589000Y-85502500D02*
X88989000Y-85502500D01*
X90589000Y-84677500D02*
X90589000Y-85502500D01*
X88989000Y-85502500D02*
X88989000Y-84677500D01*
X88989000Y-84677500D02*
X90589000Y-84677500D01*
D12*
X87560000Y-171495422D02*
X85160000Y-171495422D01*
X85160000Y-171495422D02*
X85160000Y-169085422D01*
X85160000Y-169085422D02*
X87560000Y-169085422D01*
X87560000Y-169085422D02*
X87560000Y-171495422D01*
D13*
X87517200Y-171400222D02*
G75*
G03*
X87517200Y-171400222I-50000J0D01*
G01*
D12*
X87560000Y-167740640D02*
X85160000Y-167740640D01*
X85160000Y-167740640D02*
X85160000Y-165330640D01*
X85160000Y-165330640D02*
X87560000Y-165330640D01*
X87560000Y-165330640D02*
X87560000Y-167740640D01*
D13*
X87517200Y-167645440D02*
G75*
G03*
X87517200Y-167645440I-50000J0D01*
G01*
D11*
X83559900Y-81064000D02*
X83559900Y-79464000D01*
X84384900Y-81064000D02*
X83559900Y-81064000D01*
X83559900Y-79464000D02*
X84384900Y-79464000D01*
X84384900Y-79464000D02*
X84384900Y-81064000D01*
X81731100Y-81064000D02*
X81731100Y-79464000D01*
X82556100Y-81064000D02*
X81731100Y-81064000D01*
X81731100Y-79464000D02*
X82556100Y-79464000D01*
X82556100Y-79464000D02*
X82556100Y-81064000D01*
D12*
X87560000Y-156476294D02*
X85160000Y-156476294D01*
X85160000Y-156476294D02*
X85160000Y-154066294D01*
X85160000Y-154066294D02*
X87560000Y-154066294D01*
X87560000Y-154066294D02*
X87560000Y-156476294D01*
D13*
X87517200Y-156381094D02*
G75*
G03*
X87517200Y-156381094I-50000J0D01*
G01*
D11*
X90516000Y-86799000D02*
X89016000Y-86799000D01*
X89016000Y-86799000D02*
X89016000Y-87699000D01*
X90816000Y-87099000D02*
X90516000Y-86799000D01*
X90816000Y-87099000D02*
X90816000Y-87699000D01*
X90816000Y-87699000D02*
X89016000Y-87699000D01*
X88037500Y-61260000D02*
X88037500Y-59660000D01*
X88862500Y-61260000D02*
X88037500Y-61260000D01*
X88037500Y-59660000D02*
X88862500Y-59660000D01*
X88862500Y-59660000D02*
X88862500Y-61260000D01*
X90500000Y-44234000D02*
X87300000Y-44234000D01*
X90500000Y-42634000D02*
X90500000Y-44234000D01*
X87300000Y-44234000D02*
X87300000Y-42634000D01*
X87300000Y-42634000D02*
X90500000Y-42634000D01*
X89046000Y-39840000D02*
X89046000Y-41440000D01*
X88246000Y-39840000D02*
X89046000Y-39840000D01*
X89046000Y-41440000D02*
X88246000Y-41440000D01*
X88246000Y-41440000D02*
X88246000Y-39840000D01*
D12*
X87560000Y-96399782D02*
X85160000Y-96399782D01*
X85160000Y-96399782D02*
X85160000Y-93989782D01*
X85160000Y-93989782D02*
X87560000Y-93989782D01*
X87560000Y-93989782D02*
X87560000Y-96399782D01*
D13*
X87517200Y-96304582D02*
G75*
G03*
X87517200Y-96304582I-50000J0D01*
G01*
D11*
X82220000Y-42634000D02*
X85420000Y-42634000D01*
X82220000Y-44234000D02*
X82220000Y-42634000D01*
X85420000Y-42634000D02*
X85420000Y-44234000D01*
X85420000Y-44234000D02*
X82220000Y-44234000D01*
X88550500Y-87338000D02*
X88550500Y-88938000D01*
X87725500Y-87338000D02*
X88550500Y-87338000D01*
X88550500Y-88938000D02*
X87725500Y-88938000D01*
X87725500Y-88938000D02*
X87725500Y-87338000D01*
D12*
X87560000Y-152721512D02*
X85160000Y-152721512D01*
X85160000Y-152721512D02*
X85160000Y-150311512D01*
X85160000Y-150311512D02*
X87560000Y-150311512D01*
X87560000Y-150311512D02*
X87560000Y-152721512D01*
D13*
X87517200Y-152626312D02*
G75*
G03*
X87517200Y-152626312I-50000J0D01*
G01*
D11*
X89757500Y-50838000D02*
X89757500Y-49238000D01*
X90582500Y-50838000D02*
X89757500Y-50838000D01*
X89757500Y-49238000D02*
X90582500Y-49238000D01*
X90582500Y-49238000D02*
X90582500Y-50838000D01*
X82150000Y-50838000D02*
X82150000Y-49238000D01*
X82950000Y-50838000D02*
X82150000Y-50838000D01*
X82150000Y-49238000D02*
X82950000Y-49238000D01*
X82950000Y-49238000D02*
X82950000Y-50838000D01*
D10*
X85637000Y-44601800D02*
X87337000Y-44601800D01*
X85637000Y-47701800D02*
X85637000Y-44601800D01*
X87337000Y-44601800D02*
X87337000Y-47701800D01*
X87337000Y-47701800D02*
X85637000Y-47701800D01*
D14*
X86118000Y-45201800D02*
G75*
G03*
X86118000Y-45201800I-100000J0D01*
G01*
D11*
X82137500Y-57315000D02*
X82137500Y-55715000D01*
X82962500Y-57315000D02*
X82137500Y-57315000D01*
X82137500Y-55715000D02*
X82962500Y-55715000D01*
X82962500Y-55715000D02*
X82962500Y-57315000D01*
X86960000Y-34070000D02*
X85760000Y-34070000D01*
X86960000Y-33570000D02*
X86460000Y-34070000D01*
X86960000Y-31970000D02*
X86960000Y-34070000D01*
X85760000Y-34070000D02*
X85760000Y-31970000D01*
X85760000Y-31970000D02*
X86960000Y-31970000D01*
X87485000Y-25816800D02*
X87810000Y-26141800D01*
X84910000Y-25816800D02*
X87485000Y-25816800D01*
X87810000Y-26141800D02*
X87810000Y-27116800D01*
X87810000Y-27116800D02*
X84910000Y-27116800D01*
X84910000Y-27116800D02*
X84910000Y-25816800D01*
X83350000Y-158420000D02*
X83350000Y-161620000D01*
X81750000Y-158420000D02*
X83350000Y-158420000D01*
X83350000Y-161620000D02*
X81750000Y-161620000D01*
X81750000Y-161620000D02*
X81750000Y-158420000D01*
D12*
X87560000Y-148966730D02*
X85160000Y-148966730D01*
X85160000Y-148966730D02*
X85160000Y-146556730D01*
X85160000Y-146556730D02*
X87560000Y-146556730D01*
X87560000Y-146556730D02*
X87560000Y-148966730D01*
D13*
X87517200Y-148871530D02*
G75*
G03*
X87517200Y-148871530I-50000J0D01*
G01*
D12*
X87560000Y-122683256D02*
X85160000Y-122683256D01*
X85160000Y-122683256D02*
X85160000Y-120273256D01*
X85160000Y-120273256D02*
X87560000Y-120273256D01*
X87560000Y-120273256D02*
X87560000Y-122683256D01*
D13*
X87517200Y-122588056D02*
G75*
G03*
X87517200Y-122588056I-50000J0D01*
G01*
D11*
X87541000Y-85502500D02*
X85941000Y-85502500D01*
X87541000Y-84677500D02*
X87541000Y-85502500D01*
X85941000Y-85502500D02*
X85941000Y-84677500D01*
X85941000Y-84677500D02*
X87541000Y-84677500D01*
D12*
X87560000Y-160231076D02*
X85160000Y-160231076D01*
X85160000Y-160231076D02*
X85160000Y-157821076D01*
X85160000Y-157821076D02*
X87560000Y-157821076D01*
X87560000Y-157821076D02*
X87560000Y-160231076D01*
D13*
X87517200Y-160135876D02*
G75*
G03*
X87517200Y-160135876I-50000J0D01*
G01*
D12*
X87560000Y-100154564D02*
X85160000Y-100154564D01*
X85160000Y-100154564D02*
X85160000Y-97744564D01*
X85160000Y-97744564D02*
X87560000Y-97744564D01*
X87560000Y-97744564D02*
X87560000Y-100154564D01*
D13*
X87517200Y-100059364D02*
G75*
G03*
X87517200Y-100059364I-50000J0D01*
G01*
D12*
X87560000Y-163985858D02*
X85160000Y-163985858D01*
X85160000Y-163985858D02*
X85160000Y-161575858D01*
X85160000Y-161575858D02*
X87560000Y-161575858D01*
X87560000Y-161575858D02*
X87560000Y-163985858D01*
D13*
X87517200Y-163890658D02*
G75*
G03*
X87517200Y-163890658I-50000J0D01*
G01*
D11*
X89116000Y-25749500D02*
X90716000Y-25749500D01*
X89116000Y-26574500D02*
X89116000Y-25749500D01*
X90716000Y-25749500D02*
X90716000Y-26574500D01*
X90716000Y-26574500D02*
X89116000Y-26574500D01*
X87160000Y-76358500D02*
X85560000Y-76358500D01*
X87160000Y-75533500D02*
X87160000Y-76358500D01*
X85560000Y-76358500D02*
X85560000Y-75533500D01*
X85560000Y-75533500D02*
X87160000Y-75533500D01*
X86577500Y-61260000D02*
X86577500Y-59660000D01*
X87402500Y-61260000D02*
X86577500Y-61260000D01*
X86577500Y-59660000D02*
X87402500Y-59660000D01*
X87402500Y-59660000D02*
X87402500Y-61260000D01*
X86960000Y-86799000D02*
X85460000Y-86799000D01*
X85460000Y-86799000D02*
X85460000Y-87699000D01*
X87260000Y-87099000D02*
X86960000Y-86799000D01*
X87260000Y-87099000D02*
X87260000Y-87699000D01*
X87260000Y-87699000D02*
X85460000Y-87699000D01*
D10*
X88460000Y-48130000D02*
X88460000Y-50930000D01*
X84260000Y-48130000D02*
X88460000Y-48130000D01*
X88460000Y-50930000D02*
X84260000Y-50930000D01*
X84260000Y-50930000D02*
X84260000Y-48130000D01*
D14*
X89560000Y-48730000D02*
G75*
G03*
X89560000Y-48730000I-100000J0D01*
G01*
D12*
X87560000Y-130192820D02*
X85160000Y-130192820D01*
X85160000Y-130192820D02*
X85160000Y-127782820D01*
X85160000Y-127782820D02*
X87560000Y-127782820D01*
X87560000Y-127782820D02*
X87560000Y-130192820D01*
D13*
X87517200Y-130097620D02*
G75*
G03*
X87517200Y-130097620I-50000J0D01*
G01*
D11*
X86506000Y-80886400D02*
X86506000Y-82486400D01*
X85706000Y-80886400D02*
X86506000Y-80886400D01*
X86506000Y-82486400D02*
X85706000Y-82486400D01*
X85706000Y-82486400D02*
X85706000Y-80886400D01*
D12*
X87560000Y-175250204D02*
X85160000Y-175250204D01*
X85160000Y-175250204D02*
X85160000Y-172840204D01*
X85160000Y-172840204D02*
X87560000Y-172840204D01*
X87560000Y-172840204D02*
X87560000Y-175250204D01*
D13*
X87517200Y-175155004D02*
G75*
G03*
X87517200Y-175155004I-50000J0D01*
G01*
D11*
X82962500Y-52540000D02*
X82962500Y-54140000D01*
X82137500Y-52540000D02*
X82962500Y-52540000D01*
X82962500Y-54140000D02*
X82137500Y-54140000D01*
X82137500Y-54140000D02*
X82137500Y-52540000D01*
X82962500Y-39840000D02*
X82962500Y-41440000D01*
X82137500Y-39840000D02*
X82962500Y-39840000D01*
X82962500Y-41440000D02*
X82137500Y-41440000D01*
X82137500Y-41440000D02*
X82137500Y-39840000D01*
D12*
X87560011Y-111418904D02*
X85160011Y-111418904D01*
X85160011Y-111418904D02*
X85160011Y-109008904D01*
X85160011Y-109008904D02*
X87560011Y-109008904D01*
X87560011Y-109008904D02*
X87560011Y-111418904D01*
D13*
X87517211Y-111323704D02*
G75*
G03*
X87517211Y-111323704I-50000J0D01*
G01*
D11*
X88080800Y-80886400D02*
X88080800Y-82486400D01*
X87280800Y-80886400D02*
X88080800Y-80886400D01*
X88080800Y-82486400D02*
X87280800Y-82486400D01*
X87280800Y-82486400D02*
X87280800Y-80886400D01*
D12*
X87560000Y-179004986D02*
X85160000Y-179004986D01*
X85160000Y-179004986D02*
X85160000Y-176594986D01*
X85160000Y-176594986D02*
X87560000Y-176594986D01*
X87560000Y-176594986D02*
X87560000Y-179004986D01*
D13*
X87517200Y-178909786D02*
G75*
G03*
X87517200Y-178909786I-50000J0D01*
G01*
D11*
X83350000Y-127940000D02*
X83350000Y-131140000D01*
X81750000Y-127940000D02*
X83350000Y-127940000D01*
X83350000Y-131140000D02*
X81750000Y-131140000D01*
X81750000Y-131140000D02*
X81750000Y-127940000D01*
X84760000Y-28664000D02*
X87960000Y-28664000D01*
X84760000Y-30264000D02*
X84760000Y-28664000D01*
X87960000Y-28664000D02*
X87960000Y-30264000D01*
X87960000Y-30264000D02*
X84760000Y-30264000D01*
X89738000Y-63919000D02*
X86538000Y-63919000D01*
X89738000Y-62319000D02*
X89738000Y-63919000D01*
X86538000Y-63919000D02*
X86538000Y-62319000D01*
X86538000Y-62319000D02*
X89738000Y-62319000D01*
D12*
X87560000Y-141457166D02*
X85160000Y-141457166D01*
X85160000Y-141457166D02*
X85160000Y-139047166D01*
X85160000Y-139047166D02*
X87560000Y-139047166D01*
X87560000Y-139047166D02*
X87560000Y-141457166D01*
D13*
X87517200Y-141361966D02*
G75*
G03*
X87517200Y-141361966I-50000J0D01*
G01*
D11*
X82004000Y-25749500D02*
X83604000Y-25749500D01*
X82004000Y-26574500D02*
X82004000Y-25749500D01*
X83604000Y-25749500D02*
X83604000Y-26574500D01*
X83604000Y-26574500D02*
X82004000Y-26574500D01*
D12*
X87560011Y-107664124D02*
X85160011Y-107664124D01*
X85160011Y-107664124D02*
X85160011Y-105254124D01*
X85160011Y-105254124D02*
X87560011Y-105254124D01*
X87560011Y-105254124D02*
X87560011Y-107664124D01*
D13*
X87517211Y-107568924D02*
G75*
G03*
X87517211Y-107568924I-50000J0D01*
G01*
D10*
X83810000Y-57914000D02*
X88910000Y-57914000D01*
X83810000Y-57914000D02*
X83810000Y-51814000D01*
X88910000Y-57914000D02*
X88910000Y-51814000D01*
X83810000Y-51814000D02*
X88910000Y-51814000D01*
D14*
X83970800Y-58216800D02*
G75*
G03*
X83970800Y-58216800I-100000J0D01*
G01*
D11*
X89757500Y-41440000D02*
X89757500Y-39840000D01*
X90582500Y-41440000D02*
X89757500Y-41440000D01*
X89757500Y-39840000D02*
X90582500Y-39840000D01*
X90582500Y-39840000D02*
X90582500Y-41440000D01*
D12*
X87560000Y-145211948D02*
X85160000Y-145211948D01*
X85160000Y-145211948D02*
X85160000Y-142801948D01*
X85160000Y-142801948D02*
X87560000Y-142801948D01*
X87560000Y-142801948D02*
X87560000Y-145211948D01*
D13*
X87517200Y-145116748D02*
G75*
G03*
X87517200Y-145116748I-50000J0D01*
G01*
D12*
X87560000Y-137702384D02*
X85160000Y-137702384D01*
X85160000Y-137702384D02*
X85160000Y-135292384D01*
X85160000Y-135292384D02*
X87560000Y-135292384D01*
X87560000Y-135292384D02*
X87560000Y-137702384D01*
D13*
X87517200Y-137607184D02*
G75*
G03*
X87517200Y-137607184I-50000J0D01*
G01*
D10*
X85186200Y-77257400D02*
X85186200Y-79257400D01*
X85186200Y-79257400D02*
X87686200Y-79257400D01*
X87686200Y-77257400D02*
X85186200Y-77257400D01*
X87686200Y-79257400D02*
X87686200Y-77257400D01*
D14*
X85266200Y-79933800D02*
G75*
G03*
X85266200Y-79933800I-100000J0D01*
G01*
D11*
X84994500Y-87338000D02*
X84994500Y-88938000D01*
X84169500Y-87338000D02*
X84994500Y-87338000D01*
X84994500Y-88938000D02*
X84169500Y-88938000D01*
X84169500Y-88938000D02*
X84169500Y-87338000D01*
D12*
X87560000Y-126438038D02*
X85160000Y-126438038D01*
X85160000Y-126438038D02*
X85160000Y-124028038D01*
X85160000Y-124028038D02*
X87560000Y-124028038D01*
X87560000Y-124028038D02*
X87560000Y-126438038D01*
D13*
X87517200Y-126342838D02*
G75*
G03*
X87517200Y-126342838I-50000J0D01*
G01*
D12*
X87560000Y-92645000D02*
X85160000Y-92645000D01*
X85160000Y-92645000D02*
X85160000Y-90235000D01*
X85160000Y-90235000D02*
X87560000Y-90235000D01*
X87560000Y-90235000D02*
X87560000Y-92645000D01*
D13*
X87517200Y-92549800D02*
G75*
G03*
X87517200Y-92549800I-50000J0D01*
G01*
D10*
X82860000Y-72080000D02*
X82860000Y-65080000D01*
X89860000Y-65080000D02*
X82860000Y-65080000D01*
X89860000Y-72080000D02*
X82860000Y-72080000D01*
X89860000Y-72080000D02*
X89860000Y-65080000D01*
D14*
X82650000Y-65328800D02*
G75*
G03*
X82650000Y-65328800I-100000J0D01*
G01*
D12*
X87560000Y-118928474D02*
X85160000Y-118928474D01*
X85160000Y-118928474D02*
X85160000Y-116518474D01*
X85160000Y-116518474D02*
X87560000Y-116518474D01*
X87560000Y-116518474D02*
X87560000Y-118928474D01*
D13*
X87517200Y-118833274D02*
G75*
G03*
X87517200Y-118833274I-50000J0D01*
G01*
D12*
X87560000Y-103909346D02*
X85160000Y-103909346D01*
X85160000Y-103909346D02*
X85160000Y-101499346D01*
X85160000Y-101499346D02*
X87560000Y-101499346D01*
X87560000Y-101499346D02*
X87560000Y-103909346D01*
D13*
X87517200Y-103814146D02*
G75*
G03*
X87517200Y-103814146I-50000J0D01*
G01*
D11*
X83350000Y-97460000D02*
X83350000Y-100660000D01*
X81750000Y-97460000D02*
X83350000Y-97460000D01*
X83350000Y-100660000D02*
X81750000Y-100660000D01*
X81750000Y-100660000D02*
X81750000Y-97460000D01*
D12*
X87560000Y-115173692D02*
X85160000Y-115173692D01*
X85160000Y-115173692D02*
X85160000Y-112763692D01*
X85160000Y-112763692D02*
X87560000Y-112763692D01*
X87560000Y-112763692D02*
X87560000Y-115173692D01*
D13*
X87517200Y-115078492D02*
G75*
G03*
X87517200Y-115078492I-50000J0D01*
G01*
D11*
X87503200Y-73241000D02*
X90703200Y-73241000D01*
X87503200Y-74841000D02*
X87503200Y-73241000D01*
X90703200Y-73241000D02*
X90703200Y-74841000D01*
X90703200Y-74841000D02*
X87503200Y-74841000D01*
D10*
X88460000Y-36065000D02*
X88460000Y-38865000D01*
X84260000Y-36065000D02*
X88460000Y-36065000D01*
X88460000Y-38865000D02*
X84260000Y-38865000D01*
X84260000Y-38865000D02*
X84260000Y-36065000D01*
D14*
X89560000Y-36665000D02*
G75*
G03*
X89560000Y-36665000I-100000J0D01*
G01*
M02*
