%TF.GenerationSoftware,KiCad,Pcbnew,7.0.9*%
%TF.CreationDate,2024-02-10T14:07:13-07:00*%
%TF.ProjectId,RP2040-Breadstick,52503230-3430-42d4-9272-656164737469,1.0*%
%TF.SameCoordinates,Original*%
%TF.FileFunction,AssemblyDrawing,Top*%
%FSLAX46Y46*%
G04 Gerber Fmt 4.6, Leading zero omitted, Abs format (unit mm)*
G04 Created by KiCad (PCBNEW 7.0.9) date 2024-02-10 14:07:13*
%MOMM*%
%LPD*%
G01*
G04 APERTURE LIST*
%ADD10C,0.150000*%
%ADD11C,0.127000*%
%ADD12C,0.200000*%
%ADD13C,0.100000*%
%ADD14C,0.050000*%
%ADD15C,0.120000*%
G04 APERTURE END LIST*
D10*
X92983207Y-18779580D02*
X92935588Y-18827200D01*
X92935588Y-18827200D02*
X92792731Y-18874819D01*
X92792731Y-18874819D02*
X92697493Y-18874819D01*
X92697493Y-18874819D02*
X92554636Y-18827200D01*
X92554636Y-18827200D02*
X92459398Y-18731961D01*
X92459398Y-18731961D02*
X92411779Y-18636723D01*
X92411779Y-18636723D02*
X92364160Y-18446247D01*
X92364160Y-18446247D02*
X92364160Y-18303390D01*
X92364160Y-18303390D02*
X92411779Y-18112914D01*
X92411779Y-18112914D02*
X92459398Y-18017676D01*
X92459398Y-18017676D02*
X92554636Y-17922438D01*
X92554636Y-17922438D02*
X92697493Y-17874819D01*
X92697493Y-17874819D02*
X92792731Y-17874819D01*
X92792731Y-17874819D02*
X92935588Y-17922438D01*
X92935588Y-17922438D02*
X92983207Y-17970057D01*
X93411779Y-18874819D02*
X93411779Y-17874819D01*
X93840350Y-18874819D02*
X93840350Y-18351009D01*
X93840350Y-18351009D02*
X93792731Y-18255771D01*
X93792731Y-18255771D02*
X93697493Y-18208152D01*
X93697493Y-18208152D02*
X93554636Y-18208152D01*
X93554636Y-18208152D02*
X93459398Y-18255771D01*
X93459398Y-18255771D02*
X93411779Y-18303390D01*
X94697493Y-18827200D02*
X94602255Y-18874819D01*
X94602255Y-18874819D02*
X94411779Y-18874819D01*
X94411779Y-18874819D02*
X94316541Y-18827200D01*
X94316541Y-18827200D02*
X94268922Y-18731961D01*
X94268922Y-18731961D02*
X94268922Y-18351009D01*
X94268922Y-18351009D02*
X94316541Y-18255771D01*
X94316541Y-18255771D02*
X94411779Y-18208152D01*
X94411779Y-18208152D02*
X94602255Y-18208152D01*
X94602255Y-18208152D02*
X94697493Y-18255771D01*
X94697493Y-18255771D02*
X94745112Y-18351009D01*
X94745112Y-18351009D02*
X94745112Y-18446247D01*
X94745112Y-18446247D02*
X94268922Y-18541485D01*
X95602255Y-18827200D02*
X95507017Y-18874819D01*
X95507017Y-18874819D02*
X95316541Y-18874819D01*
X95316541Y-18874819D02*
X95221303Y-18827200D01*
X95221303Y-18827200D02*
X95173684Y-18779580D01*
X95173684Y-18779580D02*
X95126065Y-18684342D01*
X95126065Y-18684342D02*
X95126065Y-18398628D01*
X95126065Y-18398628D02*
X95173684Y-18303390D01*
X95173684Y-18303390D02*
X95221303Y-18255771D01*
X95221303Y-18255771D02*
X95316541Y-18208152D01*
X95316541Y-18208152D02*
X95507017Y-18208152D01*
X95507017Y-18208152D02*
X95602255Y-18255771D01*
X96030827Y-18874819D02*
X96030827Y-17874819D01*
X96126065Y-18493866D02*
X96411779Y-18874819D01*
X96411779Y-18208152D02*
X96030827Y-18589104D01*
X97459399Y-18208152D02*
X97840351Y-18208152D01*
X97602256Y-18874819D02*
X97602256Y-18017676D01*
X97602256Y-18017676D02*
X97649875Y-17922438D01*
X97649875Y-17922438D02*
X97745113Y-17874819D01*
X97745113Y-17874819D02*
X97840351Y-17874819D01*
X98316542Y-18874819D02*
X98221304Y-18827200D01*
X98221304Y-18827200D02*
X98173685Y-18779580D01*
X98173685Y-18779580D02*
X98126066Y-18684342D01*
X98126066Y-18684342D02*
X98126066Y-18398628D01*
X98126066Y-18398628D02*
X98173685Y-18303390D01*
X98173685Y-18303390D02*
X98221304Y-18255771D01*
X98221304Y-18255771D02*
X98316542Y-18208152D01*
X98316542Y-18208152D02*
X98459399Y-18208152D01*
X98459399Y-18208152D02*
X98554637Y-18255771D01*
X98554637Y-18255771D02*
X98602256Y-18303390D01*
X98602256Y-18303390D02*
X98649875Y-18398628D01*
X98649875Y-18398628D02*
X98649875Y-18684342D01*
X98649875Y-18684342D02*
X98602256Y-18779580D01*
X98602256Y-18779580D02*
X98554637Y-18827200D01*
X98554637Y-18827200D02*
X98459399Y-18874819D01*
X98459399Y-18874819D02*
X98316542Y-18874819D01*
X99078447Y-18874819D02*
X99078447Y-18208152D01*
X99078447Y-18398628D02*
X99126066Y-18303390D01*
X99126066Y-18303390D02*
X99173685Y-18255771D01*
X99173685Y-18255771D02*
X99268923Y-18208152D01*
X99268923Y-18208152D02*
X99364161Y-18208152D01*
X100411781Y-18827200D02*
X100507019Y-18874819D01*
X100507019Y-18874819D02*
X100697495Y-18874819D01*
X100697495Y-18874819D02*
X100792733Y-18827200D01*
X100792733Y-18827200D02*
X100840352Y-18731961D01*
X100840352Y-18731961D02*
X100840352Y-18684342D01*
X100840352Y-18684342D02*
X100792733Y-18589104D01*
X100792733Y-18589104D02*
X100697495Y-18541485D01*
X100697495Y-18541485D02*
X100554638Y-18541485D01*
X100554638Y-18541485D02*
X100459400Y-18493866D01*
X100459400Y-18493866D02*
X100411781Y-18398628D01*
X100411781Y-18398628D02*
X100411781Y-18351009D01*
X100411781Y-18351009D02*
X100459400Y-18255771D01*
X100459400Y-18255771D02*
X100554638Y-18208152D01*
X100554638Y-18208152D02*
X100697495Y-18208152D01*
X100697495Y-18208152D02*
X100792733Y-18255771D01*
X101697495Y-18208152D02*
X101697495Y-18874819D01*
X101268924Y-18208152D02*
X101268924Y-18731961D01*
X101268924Y-18731961D02*
X101316543Y-18827200D01*
X101316543Y-18827200D02*
X101411781Y-18874819D01*
X101411781Y-18874819D02*
X101554638Y-18874819D01*
X101554638Y-18874819D02*
X101649876Y-18827200D01*
X101649876Y-18827200D02*
X101697495Y-18779580D01*
X102030829Y-18208152D02*
X102411781Y-18208152D01*
X102173686Y-18874819D02*
X102173686Y-18017676D01*
X102173686Y-18017676D02*
X102221305Y-17922438D01*
X102221305Y-17922438D02*
X102316543Y-17874819D01*
X102316543Y-17874819D02*
X102411781Y-17874819D01*
X102602258Y-18208152D02*
X102983210Y-18208152D01*
X102745115Y-18874819D02*
X102745115Y-18017676D01*
X102745115Y-18017676D02*
X102792734Y-17922438D01*
X102792734Y-17922438D02*
X102887972Y-17874819D01*
X102887972Y-17874819D02*
X102983210Y-17874819D01*
X103316544Y-18874819D02*
X103316544Y-18208152D01*
X103316544Y-17874819D02*
X103268925Y-17922438D01*
X103268925Y-17922438D02*
X103316544Y-17970057D01*
X103316544Y-17970057D02*
X103364163Y-17922438D01*
X103364163Y-17922438D02*
X103316544Y-17874819D01*
X103316544Y-17874819D02*
X103316544Y-17970057D01*
X104221305Y-18827200D02*
X104126067Y-18874819D01*
X104126067Y-18874819D02*
X103935591Y-18874819D01*
X103935591Y-18874819D02*
X103840353Y-18827200D01*
X103840353Y-18827200D02*
X103792734Y-18779580D01*
X103792734Y-18779580D02*
X103745115Y-18684342D01*
X103745115Y-18684342D02*
X103745115Y-18398628D01*
X103745115Y-18398628D02*
X103792734Y-18303390D01*
X103792734Y-18303390D02*
X103840353Y-18255771D01*
X103840353Y-18255771D02*
X103935591Y-18208152D01*
X103935591Y-18208152D02*
X104126067Y-18208152D01*
X104126067Y-18208152D02*
X104221305Y-18255771D01*
X104649877Y-18874819D02*
X104649877Y-18208152D01*
X104649877Y-17874819D02*
X104602258Y-17922438D01*
X104602258Y-17922438D02*
X104649877Y-17970057D01*
X104649877Y-17970057D02*
X104697496Y-17922438D01*
X104697496Y-17922438D02*
X104649877Y-17874819D01*
X104649877Y-17874819D02*
X104649877Y-17970057D01*
X105554638Y-18874819D02*
X105554638Y-18351009D01*
X105554638Y-18351009D02*
X105507019Y-18255771D01*
X105507019Y-18255771D02*
X105411781Y-18208152D01*
X105411781Y-18208152D02*
X105221305Y-18208152D01*
X105221305Y-18208152D02*
X105126067Y-18255771D01*
X105554638Y-18827200D02*
X105459400Y-18874819D01*
X105459400Y-18874819D02*
X105221305Y-18874819D01*
X105221305Y-18874819D02*
X105126067Y-18827200D01*
X105126067Y-18827200D02*
X105078448Y-18731961D01*
X105078448Y-18731961D02*
X105078448Y-18636723D01*
X105078448Y-18636723D02*
X105126067Y-18541485D01*
X105126067Y-18541485D02*
X105221305Y-18493866D01*
X105221305Y-18493866D02*
X105459400Y-18493866D01*
X105459400Y-18493866D02*
X105554638Y-18446247D01*
X106030829Y-18208152D02*
X106030829Y-18874819D01*
X106030829Y-18303390D02*
X106078448Y-18255771D01*
X106078448Y-18255771D02*
X106173686Y-18208152D01*
X106173686Y-18208152D02*
X106316543Y-18208152D01*
X106316543Y-18208152D02*
X106411781Y-18255771D01*
X106411781Y-18255771D02*
X106459400Y-18351009D01*
X106459400Y-18351009D02*
X106459400Y-18874819D01*
X106792734Y-18208152D02*
X107173686Y-18208152D01*
X106935591Y-17874819D02*
X106935591Y-18731961D01*
X106935591Y-18731961D02*
X106983210Y-18827200D01*
X106983210Y-18827200D02*
X107078448Y-18874819D01*
X107078448Y-18874819D02*
X107173686Y-18874819D01*
X108268925Y-18874819D02*
X108268925Y-17874819D01*
X108268925Y-18255771D02*
X108364163Y-18208152D01*
X108364163Y-18208152D02*
X108554639Y-18208152D01*
X108554639Y-18208152D02*
X108649877Y-18255771D01*
X108649877Y-18255771D02*
X108697496Y-18303390D01*
X108697496Y-18303390D02*
X108745115Y-18398628D01*
X108745115Y-18398628D02*
X108745115Y-18684342D01*
X108745115Y-18684342D02*
X108697496Y-18779580D01*
X108697496Y-18779580D02*
X108649877Y-18827200D01*
X108649877Y-18827200D02*
X108554639Y-18874819D01*
X108554639Y-18874819D02*
X108364163Y-18874819D01*
X108364163Y-18874819D02*
X108268925Y-18827200D01*
X109602258Y-18208152D02*
X109602258Y-18874819D01*
X109173687Y-18208152D02*
X109173687Y-18731961D01*
X109173687Y-18731961D02*
X109221306Y-18827200D01*
X109221306Y-18827200D02*
X109316544Y-18874819D01*
X109316544Y-18874819D02*
X109459401Y-18874819D01*
X109459401Y-18874819D02*
X109554639Y-18827200D01*
X109554639Y-18827200D02*
X109602258Y-18779580D01*
X109935592Y-18208152D02*
X110316544Y-18208152D01*
X110078449Y-17874819D02*
X110078449Y-18731961D01*
X110078449Y-18731961D02*
X110126068Y-18827200D01*
X110126068Y-18827200D02*
X110221306Y-18874819D01*
X110221306Y-18874819D02*
X110316544Y-18874819D01*
X92411779Y-19818152D02*
X92411779Y-20484819D01*
X92411779Y-19913390D02*
X92459398Y-19865771D01*
X92459398Y-19865771D02*
X92554636Y-19818152D01*
X92554636Y-19818152D02*
X92697493Y-19818152D01*
X92697493Y-19818152D02*
X92792731Y-19865771D01*
X92792731Y-19865771D02*
X92840350Y-19961009D01*
X92840350Y-19961009D02*
X92840350Y-20484819D01*
X93459398Y-20484819D02*
X93364160Y-20437200D01*
X93364160Y-20437200D02*
X93316541Y-20389580D01*
X93316541Y-20389580D02*
X93268922Y-20294342D01*
X93268922Y-20294342D02*
X93268922Y-20008628D01*
X93268922Y-20008628D02*
X93316541Y-19913390D01*
X93316541Y-19913390D02*
X93364160Y-19865771D01*
X93364160Y-19865771D02*
X93459398Y-19818152D01*
X93459398Y-19818152D02*
X93602255Y-19818152D01*
X93602255Y-19818152D02*
X93697493Y-19865771D01*
X93697493Y-19865771D02*
X93745112Y-19913390D01*
X93745112Y-19913390D02*
X93792731Y-20008628D01*
X93792731Y-20008628D02*
X93792731Y-20294342D01*
X93792731Y-20294342D02*
X93745112Y-20389580D01*
X93745112Y-20389580D02*
X93697493Y-20437200D01*
X93697493Y-20437200D02*
X93602255Y-20484819D01*
X93602255Y-20484819D02*
X93459398Y-20484819D01*
X94078446Y-19818152D02*
X94459398Y-19818152D01*
X94221303Y-19484819D02*
X94221303Y-20341961D01*
X94221303Y-20341961D02*
X94268922Y-20437200D01*
X94268922Y-20437200D02*
X94364160Y-20484819D01*
X94364160Y-20484819D02*
X94459398Y-20484819D01*
X95411780Y-19818152D02*
X95792732Y-19818152D01*
X95554637Y-19484819D02*
X95554637Y-20341961D01*
X95554637Y-20341961D02*
X95602256Y-20437200D01*
X95602256Y-20437200D02*
X95697494Y-20484819D01*
X95697494Y-20484819D02*
X95792732Y-20484819D01*
X96268923Y-20484819D02*
X96173685Y-20437200D01*
X96173685Y-20437200D02*
X96126066Y-20389580D01*
X96126066Y-20389580D02*
X96078447Y-20294342D01*
X96078447Y-20294342D02*
X96078447Y-20008628D01*
X96078447Y-20008628D02*
X96126066Y-19913390D01*
X96126066Y-19913390D02*
X96173685Y-19865771D01*
X96173685Y-19865771D02*
X96268923Y-19818152D01*
X96268923Y-19818152D02*
X96411780Y-19818152D01*
X96411780Y-19818152D02*
X96507018Y-19865771D01*
X96507018Y-19865771D02*
X96554637Y-19913390D01*
X96554637Y-19913390D02*
X96602256Y-20008628D01*
X96602256Y-20008628D02*
X96602256Y-20294342D01*
X96602256Y-20294342D02*
X96554637Y-20389580D01*
X96554637Y-20389580D02*
X96507018Y-20437200D01*
X96507018Y-20437200D02*
X96411780Y-20484819D01*
X96411780Y-20484819D02*
X96268923Y-20484819D01*
X97792733Y-20484819D02*
X97792733Y-19818152D01*
X97792733Y-19913390D02*
X97840352Y-19865771D01*
X97840352Y-19865771D02*
X97935590Y-19818152D01*
X97935590Y-19818152D02*
X98078447Y-19818152D01*
X98078447Y-19818152D02*
X98173685Y-19865771D01*
X98173685Y-19865771D02*
X98221304Y-19961009D01*
X98221304Y-19961009D02*
X98221304Y-20484819D01*
X98221304Y-19961009D02*
X98268923Y-19865771D01*
X98268923Y-19865771D02*
X98364161Y-19818152D01*
X98364161Y-19818152D02*
X98507018Y-19818152D01*
X98507018Y-19818152D02*
X98602257Y-19865771D01*
X98602257Y-19865771D02*
X98649876Y-19961009D01*
X98649876Y-19961009D02*
X98649876Y-20484819D01*
X99554637Y-19818152D02*
X99554637Y-20484819D01*
X99126066Y-19818152D02*
X99126066Y-20341961D01*
X99126066Y-20341961D02*
X99173685Y-20437200D01*
X99173685Y-20437200D02*
X99268923Y-20484819D01*
X99268923Y-20484819D02*
X99411780Y-20484819D01*
X99411780Y-20484819D02*
X99507018Y-20437200D01*
X99507018Y-20437200D02*
X99554637Y-20389580D01*
X100459399Y-20437200D02*
X100364161Y-20484819D01*
X100364161Y-20484819D02*
X100173685Y-20484819D01*
X100173685Y-20484819D02*
X100078447Y-20437200D01*
X100078447Y-20437200D02*
X100030828Y-20389580D01*
X100030828Y-20389580D02*
X99983209Y-20294342D01*
X99983209Y-20294342D02*
X99983209Y-20008628D01*
X99983209Y-20008628D02*
X100030828Y-19913390D01*
X100030828Y-19913390D02*
X100078447Y-19865771D01*
X100078447Y-19865771D02*
X100173685Y-19818152D01*
X100173685Y-19818152D02*
X100364161Y-19818152D01*
X100364161Y-19818152D02*
X100459399Y-19865771D01*
X100887971Y-20484819D02*
X100887971Y-19484819D01*
X101316542Y-20484819D02*
X101316542Y-19961009D01*
X101316542Y-19961009D02*
X101268923Y-19865771D01*
X101268923Y-19865771D02*
X101173685Y-19818152D01*
X101173685Y-19818152D02*
X101030828Y-19818152D01*
X101030828Y-19818152D02*
X100935590Y-19865771D01*
X100935590Y-19865771D02*
X100887971Y-19913390D01*
X102507019Y-20437200D02*
X102602257Y-20484819D01*
X102602257Y-20484819D02*
X102792733Y-20484819D01*
X102792733Y-20484819D02*
X102887971Y-20437200D01*
X102887971Y-20437200D02*
X102935590Y-20341961D01*
X102935590Y-20341961D02*
X102935590Y-20294342D01*
X102935590Y-20294342D02*
X102887971Y-20199104D01*
X102887971Y-20199104D02*
X102792733Y-20151485D01*
X102792733Y-20151485D02*
X102649876Y-20151485D01*
X102649876Y-20151485D02*
X102554638Y-20103866D01*
X102554638Y-20103866D02*
X102507019Y-20008628D01*
X102507019Y-20008628D02*
X102507019Y-19961009D01*
X102507019Y-19961009D02*
X102554638Y-19865771D01*
X102554638Y-19865771D02*
X102649876Y-19818152D01*
X102649876Y-19818152D02*
X102792733Y-19818152D01*
X102792733Y-19818152D02*
X102887971Y-19865771D01*
X103507019Y-20484819D02*
X103411781Y-20437200D01*
X103411781Y-20437200D02*
X103364162Y-20389580D01*
X103364162Y-20389580D02*
X103316543Y-20294342D01*
X103316543Y-20294342D02*
X103316543Y-20008628D01*
X103316543Y-20008628D02*
X103364162Y-19913390D01*
X103364162Y-19913390D02*
X103411781Y-19865771D01*
X103411781Y-19865771D02*
X103507019Y-19818152D01*
X103507019Y-19818152D02*
X103649876Y-19818152D01*
X103649876Y-19818152D02*
X103745114Y-19865771D01*
X103745114Y-19865771D02*
X103792733Y-19913390D01*
X103792733Y-19913390D02*
X103840352Y-20008628D01*
X103840352Y-20008628D02*
X103840352Y-20294342D01*
X103840352Y-20294342D02*
X103792733Y-20389580D01*
X103792733Y-20389580D02*
X103745114Y-20437200D01*
X103745114Y-20437200D02*
X103649876Y-20484819D01*
X103649876Y-20484819D02*
X103507019Y-20484819D01*
X104411781Y-20484819D02*
X104316543Y-20437200D01*
X104316543Y-20437200D02*
X104268924Y-20341961D01*
X104268924Y-20341961D02*
X104268924Y-19484819D01*
X105221305Y-20484819D02*
X105221305Y-19484819D01*
X105221305Y-20437200D02*
X105126067Y-20484819D01*
X105126067Y-20484819D02*
X104935591Y-20484819D01*
X104935591Y-20484819D02*
X104840353Y-20437200D01*
X104840353Y-20437200D02*
X104792734Y-20389580D01*
X104792734Y-20389580D02*
X104745115Y-20294342D01*
X104745115Y-20294342D02*
X104745115Y-20008628D01*
X104745115Y-20008628D02*
X104792734Y-19913390D01*
X104792734Y-19913390D02*
X104840353Y-19865771D01*
X104840353Y-19865771D02*
X104935591Y-19818152D01*
X104935591Y-19818152D02*
X105126067Y-19818152D01*
X105126067Y-19818152D02*
X105221305Y-19865771D01*
X106078448Y-20437200D02*
X105983210Y-20484819D01*
X105983210Y-20484819D02*
X105792734Y-20484819D01*
X105792734Y-20484819D02*
X105697496Y-20437200D01*
X105697496Y-20437200D02*
X105649877Y-20341961D01*
X105649877Y-20341961D02*
X105649877Y-19961009D01*
X105649877Y-19961009D02*
X105697496Y-19865771D01*
X105697496Y-19865771D02*
X105792734Y-19818152D01*
X105792734Y-19818152D02*
X105983210Y-19818152D01*
X105983210Y-19818152D02*
X106078448Y-19865771D01*
X106078448Y-19865771D02*
X106126067Y-19961009D01*
X106126067Y-19961009D02*
X106126067Y-20056247D01*
X106126067Y-20056247D02*
X105649877Y-20151485D01*
X106554639Y-20484819D02*
X106554639Y-19818152D01*
X106554639Y-20008628D02*
X106602258Y-19913390D01*
X106602258Y-19913390D02*
X106649877Y-19865771D01*
X106649877Y-19865771D02*
X106745115Y-19818152D01*
X106745115Y-19818152D02*
X106840353Y-19818152D01*
X107935592Y-19818152D02*
X107935592Y-20818152D01*
X107935592Y-19865771D02*
X108030830Y-19818152D01*
X108030830Y-19818152D02*
X108221306Y-19818152D01*
X108221306Y-19818152D02*
X108316544Y-19865771D01*
X108316544Y-19865771D02*
X108364163Y-19913390D01*
X108364163Y-19913390D02*
X108411782Y-20008628D01*
X108411782Y-20008628D02*
X108411782Y-20294342D01*
X108411782Y-20294342D02*
X108364163Y-20389580D01*
X108364163Y-20389580D02*
X108316544Y-20437200D01*
X108316544Y-20437200D02*
X108221306Y-20484819D01*
X108221306Y-20484819D02*
X108030830Y-20484819D01*
X108030830Y-20484819D02*
X107935592Y-20437200D01*
X109268925Y-20484819D02*
X109268925Y-19961009D01*
X109268925Y-19961009D02*
X109221306Y-19865771D01*
X109221306Y-19865771D02*
X109126068Y-19818152D01*
X109126068Y-19818152D02*
X108935592Y-19818152D01*
X108935592Y-19818152D02*
X108840354Y-19865771D01*
X109268925Y-20437200D02*
X109173687Y-20484819D01*
X109173687Y-20484819D02*
X108935592Y-20484819D01*
X108935592Y-20484819D02*
X108840354Y-20437200D01*
X108840354Y-20437200D02*
X108792735Y-20341961D01*
X108792735Y-20341961D02*
X108792735Y-20246723D01*
X108792735Y-20246723D02*
X108840354Y-20151485D01*
X108840354Y-20151485D02*
X108935592Y-20103866D01*
X108935592Y-20103866D02*
X109173687Y-20103866D01*
X109173687Y-20103866D02*
X109268925Y-20056247D01*
X109697497Y-20437200D02*
X109792735Y-20484819D01*
X109792735Y-20484819D02*
X109983211Y-20484819D01*
X109983211Y-20484819D02*
X110078449Y-20437200D01*
X110078449Y-20437200D02*
X110126068Y-20341961D01*
X110126068Y-20341961D02*
X110126068Y-20294342D01*
X110126068Y-20294342D02*
X110078449Y-20199104D01*
X110078449Y-20199104D02*
X109983211Y-20151485D01*
X109983211Y-20151485D02*
X109840354Y-20151485D01*
X109840354Y-20151485D02*
X109745116Y-20103866D01*
X109745116Y-20103866D02*
X109697497Y-20008628D01*
X109697497Y-20008628D02*
X109697497Y-19961009D01*
X109697497Y-19961009D02*
X109745116Y-19865771D01*
X109745116Y-19865771D02*
X109840354Y-19818152D01*
X109840354Y-19818152D02*
X109983211Y-19818152D01*
X109983211Y-19818152D02*
X110078449Y-19865771D01*
X110411783Y-19818152D02*
X110792735Y-19818152D01*
X110554640Y-19484819D02*
X110554640Y-20341961D01*
X110554640Y-20341961D02*
X110602259Y-20437200D01*
X110602259Y-20437200D02*
X110697497Y-20484819D01*
X110697497Y-20484819D02*
X110792735Y-20484819D01*
X111507021Y-20437200D02*
X111411783Y-20484819D01*
X111411783Y-20484819D02*
X111221307Y-20484819D01*
X111221307Y-20484819D02*
X111126069Y-20437200D01*
X111126069Y-20437200D02*
X111078450Y-20341961D01*
X111078450Y-20341961D02*
X111078450Y-19961009D01*
X111078450Y-19961009D02*
X111126069Y-19865771D01*
X111126069Y-19865771D02*
X111221307Y-19818152D01*
X111221307Y-19818152D02*
X111411783Y-19818152D01*
X111411783Y-19818152D02*
X111507021Y-19865771D01*
X111507021Y-19865771D02*
X111554640Y-19961009D01*
X111554640Y-19961009D02*
X111554640Y-20056247D01*
X111554640Y-20056247D02*
X111078450Y-20151485D01*
X92411779Y-22094819D02*
X92411779Y-21428152D01*
X92411779Y-21094819D02*
X92364160Y-21142438D01*
X92364160Y-21142438D02*
X92411779Y-21190057D01*
X92411779Y-21190057D02*
X92459398Y-21142438D01*
X92459398Y-21142438D02*
X92411779Y-21094819D01*
X92411779Y-21094819D02*
X92411779Y-21190057D01*
X92840350Y-22047200D02*
X92935588Y-22094819D01*
X92935588Y-22094819D02*
X93126064Y-22094819D01*
X93126064Y-22094819D02*
X93221302Y-22047200D01*
X93221302Y-22047200D02*
X93268921Y-21951961D01*
X93268921Y-21951961D02*
X93268921Y-21904342D01*
X93268921Y-21904342D02*
X93221302Y-21809104D01*
X93221302Y-21809104D02*
X93126064Y-21761485D01*
X93126064Y-21761485D02*
X92983207Y-21761485D01*
X92983207Y-21761485D02*
X92887969Y-21713866D01*
X92887969Y-21713866D02*
X92840350Y-21618628D01*
X92840350Y-21618628D02*
X92840350Y-21571009D01*
X92840350Y-21571009D02*
X92887969Y-21475771D01*
X92887969Y-21475771D02*
X92983207Y-21428152D01*
X92983207Y-21428152D02*
X93126064Y-21428152D01*
X93126064Y-21428152D02*
X93221302Y-21475771D01*
X94887969Y-22094819D02*
X94887969Y-21571009D01*
X94887969Y-21571009D02*
X94840350Y-21475771D01*
X94840350Y-21475771D02*
X94745112Y-21428152D01*
X94745112Y-21428152D02*
X94554636Y-21428152D01*
X94554636Y-21428152D02*
X94459398Y-21475771D01*
X94887969Y-22047200D02*
X94792731Y-22094819D01*
X94792731Y-22094819D02*
X94554636Y-22094819D01*
X94554636Y-22094819D02*
X94459398Y-22047200D01*
X94459398Y-22047200D02*
X94411779Y-21951961D01*
X94411779Y-21951961D02*
X94411779Y-21856723D01*
X94411779Y-21856723D02*
X94459398Y-21761485D01*
X94459398Y-21761485D02*
X94554636Y-21713866D01*
X94554636Y-21713866D02*
X94792731Y-21713866D01*
X94792731Y-21713866D02*
X94887969Y-21666247D01*
X95364160Y-21428152D02*
X95364160Y-22428152D01*
X95364160Y-21475771D02*
X95459398Y-21428152D01*
X95459398Y-21428152D02*
X95649874Y-21428152D01*
X95649874Y-21428152D02*
X95745112Y-21475771D01*
X95745112Y-21475771D02*
X95792731Y-21523390D01*
X95792731Y-21523390D02*
X95840350Y-21618628D01*
X95840350Y-21618628D02*
X95840350Y-21904342D01*
X95840350Y-21904342D02*
X95792731Y-21999580D01*
X95792731Y-21999580D02*
X95745112Y-22047200D01*
X95745112Y-22047200D02*
X95649874Y-22094819D01*
X95649874Y-22094819D02*
X95459398Y-22094819D01*
X95459398Y-22094819D02*
X95364160Y-22047200D01*
X96268922Y-21428152D02*
X96268922Y-22428152D01*
X96268922Y-21475771D02*
X96364160Y-21428152D01*
X96364160Y-21428152D02*
X96554636Y-21428152D01*
X96554636Y-21428152D02*
X96649874Y-21475771D01*
X96649874Y-21475771D02*
X96697493Y-21523390D01*
X96697493Y-21523390D02*
X96745112Y-21618628D01*
X96745112Y-21618628D02*
X96745112Y-21904342D01*
X96745112Y-21904342D02*
X96697493Y-21999580D01*
X96697493Y-21999580D02*
X96649874Y-22047200D01*
X96649874Y-22047200D02*
X96554636Y-22094819D01*
X96554636Y-22094819D02*
X96364160Y-22094819D01*
X96364160Y-22094819D02*
X96268922Y-22047200D01*
X97316541Y-22094819D02*
X97221303Y-22047200D01*
X97221303Y-22047200D02*
X97173684Y-21951961D01*
X97173684Y-21951961D02*
X97173684Y-21094819D01*
X97697494Y-22094819D02*
X97697494Y-21428152D01*
X97697494Y-21094819D02*
X97649875Y-21142438D01*
X97649875Y-21142438D02*
X97697494Y-21190057D01*
X97697494Y-21190057D02*
X97745113Y-21142438D01*
X97745113Y-21142438D02*
X97697494Y-21094819D01*
X97697494Y-21094819D02*
X97697494Y-21190057D01*
X98554636Y-22047200D02*
X98459398Y-22094819D01*
X98459398Y-22094819D02*
X98268922Y-22094819D01*
X98268922Y-22094819D02*
X98173684Y-22047200D01*
X98173684Y-22047200D02*
X98126065Y-21951961D01*
X98126065Y-21951961D02*
X98126065Y-21571009D01*
X98126065Y-21571009D02*
X98173684Y-21475771D01*
X98173684Y-21475771D02*
X98268922Y-21428152D01*
X98268922Y-21428152D02*
X98459398Y-21428152D01*
X98459398Y-21428152D02*
X98554636Y-21475771D01*
X98554636Y-21475771D02*
X98602255Y-21571009D01*
X98602255Y-21571009D02*
X98602255Y-21666247D01*
X98602255Y-21666247D02*
X98126065Y-21761485D01*
X99459398Y-22094819D02*
X99459398Y-21094819D01*
X99459398Y-22047200D02*
X99364160Y-22094819D01*
X99364160Y-22094819D02*
X99173684Y-22094819D01*
X99173684Y-22094819D02*
X99078446Y-22047200D01*
X99078446Y-22047200D02*
X99030827Y-21999580D01*
X99030827Y-21999580D02*
X98983208Y-21904342D01*
X98983208Y-21904342D02*
X98983208Y-21618628D01*
X98983208Y-21618628D02*
X99030827Y-21523390D01*
X99030827Y-21523390D02*
X99078446Y-21475771D01*
X99078446Y-21475771D02*
X99173684Y-21428152D01*
X99173684Y-21428152D02*
X99364160Y-21428152D01*
X99364160Y-21428152D02*
X99459398Y-21475771D01*
X100554637Y-21428152D02*
X100935589Y-21428152D01*
X100697494Y-21094819D02*
X100697494Y-21951961D01*
X100697494Y-21951961D02*
X100745113Y-22047200D01*
X100745113Y-22047200D02*
X100840351Y-22094819D01*
X100840351Y-22094819D02*
X100935589Y-22094819D01*
X101411780Y-22094819D02*
X101316542Y-22047200D01*
X101316542Y-22047200D02*
X101268923Y-21999580D01*
X101268923Y-21999580D02*
X101221304Y-21904342D01*
X101221304Y-21904342D02*
X101221304Y-21618628D01*
X101221304Y-21618628D02*
X101268923Y-21523390D01*
X101268923Y-21523390D02*
X101316542Y-21475771D01*
X101316542Y-21475771D02*
X101411780Y-21428152D01*
X101411780Y-21428152D02*
X101554637Y-21428152D01*
X101554637Y-21428152D02*
X101649875Y-21475771D01*
X101649875Y-21475771D02*
X101697494Y-21523390D01*
X101697494Y-21523390D02*
X101745113Y-21618628D01*
X101745113Y-21618628D02*
X101745113Y-21904342D01*
X101745113Y-21904342D02*
X101697494Y-21999580D01*
X101697494Y-21999580D02*
X101649875Y-22047200D01*
X101649875Y-22047200D02*
X101554637Y-22094819D01*
X101554637Y-22094819D02*
X101411780Y-22094819D01*
X102792733Y-21428152D02*
X103173685Y-21428152D01*
X102935590Y-21094819D02*
X102935590Y-21951961D01*
X102935590Y-21951961D02*
X102983209Y-22047200D01*
X102983209Y-22047200D02*
X103078447Y-22094819D01*
X103078447Y-22094819D02*
X103173685Y-22094819D01*
X103507019Y-22094819D02*
X103507019Y-21094819D01*
X103935590Y-22094819D02*
X103935590Y-21571009D01*
X103935590Y-21571009D02*
X103887971Y-21475771D01*
X103887971Y-21475771D02*
X103792733Y-21428152D01*
X103792733Y-21428152D02*
X103649876Y-21428152D01*
X103649876Y-21428152D02*
X103554638Y-21475771D01*
X103554638Y-21475771D02*
X103507019Y-21523390D01*
X104792733Y-22047200D02*
X104697495Y-22094819D01*
X104697495Y-22094819D02*
X104507019Y-22094819D01*
X104507019Y-22094819D02*
X104411781Y-22047200D01*
X104411781Y-22047200D02*
X104364162Y-21951961D01*
X104364162Y-21951961D02*
X104364162Y-21571009D01*
X104364162Y-21571009D02*
X104411781Y-21475771D01*
X104411781Y-21475771D02*
X104507019Y-21428152D01*
X104507019Y-21428152D02*
X104697495Y-21428152D01*
X104697495Y-21428152D02*
X104792733Y-21475771D01*
X104792733Y-21475771D02*
X104840352Y-21571009D01*
X104840352Y-21571009D02*
X104840352Y-21666247D01*
X104840352Y-21666247D02*
X104364162Y-21761485D01*
X106030829Y-21094819D02*
X106030829Y-21904342D01*
X106030829Y-21904342D02*
X106078448Y-21999580D01*
X106078448Y-21999580D02*
X106126067Y-22047200D01*
X106126067Y-22047200D02*
X106221305Y-22094819D01*
X106221305Y-22094819D02*
X106411781Y-22094819D01*
X106411781Y-22094819D02*
X106507019Y-22047200D01*
X106507019Y-22047200D02*
X106554638Y-21999580D01*
X106554638Y-21999580D02*
X106602257Y-21904342D01*
X106602257Y-21904342D02*
X106602257Y-21094819D01*
X107030829Y-22047200D02*
X107173686Y-22094819D01*
X107173686Y-22094819D02*
X107411781Y-22094819D01*
X107411781Y-22094819D02*
X107507019Y-22047200D01*
X107507019Y-22047200D02*
X107554638Y-21999580D01*
X107554638Y-21999580D02*
X107602257Y-21904342D01*
X107602257Y-21904342D02*
X107602257Y-21809104D01*
X107602257Y-21809104D02*
X107554638Y-21713866D01*
X107554638Y-21713866D02*
X107507019Y-21666247D01*
X107507019Y-21666247D02*
X107411781Y-21618628D01*
X107411781Y-21618628D02*
X107221305Y-21571009D01*
X107221305Y-21571009D02*
X107126067Y-21523390D01*
X107126067Y-21523390D02*
X107078448Y-21475771D01*
X107078448Y-21475771D02*
X107030829Y-21380533D01*
X107030829Y-21380533D02*
X107030829Y-21285295D01*
X107030829Y-21285295D02*
X107078448Y-21190057D01*
X107078448Y-21190057D02*
X107126067Y-21142438D01*
X107126067Y-21142438D02*
X107221305Y-21094819D01*
X107221305Y-21094819D02*
X107459400Y-21094819D01*
X107459400Y-21094819D02*
X107602257Y-21142438D01*
X108364162Y-21571009D02*
X108507019Y-21618628D01*
X108507019Y-21618628D02*
X108554638Y-21666247D01*
X108554638Y-21666247D02*
X108602257Y-21761485D01*
X108602257Y-21761485D02*
X108602257Y-21904342D01*
X108602257Y-21904342D02*
X108554638Y-21999580D01*
X108554638Y-21999580D02*
X108507019Y-22047200D01*
X108507019Y-22047200D02*
X108411781Y-22094819D01*
X108411781Y-22094819D02*
X108030829Y-22094819D01*
X108030829Y-22094819D02*
X108030829Y-21094819D01*
X108030829Y-21094819D02*
X108364162Y-21094819D01*
X108364162Y-21094819D02*
X108459400Y-21142438D01*
X108459400Y-21142438D02*
X108507019Y-21190057D01*
X108507019Y-21190057D02*
X108554638Y-21285295D01*
X108554638Y-21285295D02*
X108554638Y-21380533D01*
X108554638Y-21380533D02*
X108507019Y-21475771D01*
X108507019Y-21475771D02*
X108459400Y-21523390D01*
X108459400Y-21523390D02*
X108364162Y-21571009D01*
X108364162Y-21571009D02*
X108030829Y-21571009D01*
X109030829Y-21713866D02*
X109792734Y-21713866D01*
X110840352Y-21999580D02*
X110792733Y-22047200D01*
X110792733Y-22047200D02*
X110649876Y-22094819D01*
X110649876Y-22094819D02*
X110554638Y-22094819D01*
X110554638Y-22094819D02*
X110411781Y-22047200D01*
X110411781Y-22047200D02*
X110316543Y-21951961D01*
X110316543Y-21951961D02*
X110268924Y-21856723D01*
X110268924Y-21856723D02*
X110221305Y-21666247D01*
X110221305Y-21666247D02*
X110221305Y-21523390D01*
X110221305Y-21523390D02*
X110268924Y-21332914D01*
X110268924Y-21332914D02*
X110316543Y-21237676D01*
X110316543Y-21237676D02*
X110411781Y-21142438D01*
X110411781Y-21142438D02*
X110554638Y-21094819D01*
X110554638Y-21094819D02*
X110649876Y-21094819D01*
X110649876Y-21094819D02*
X110792733Y-21142438D01*
X110792733Y-21142438D02*
X110840352Y-21190057D01*
X112030829Y-21428152D02*
X112030829Y-22428152D01*
X112030829Y-21475771D02*
X112126067Y-21428152D01*
X112126067Y-21428152D02*
X112316543Y-21428152D01*
X112316543Y-21428152D02*
X112411781Y-21475771D01*
X112411781Y-21475771D02*
X112459400Y-21523390D01*
X112459400Y-21523390D02*
X112507019Y-21618628D01*
X112507019Y-21618628D02*
X112507019Y-21904342D01*
X112507019Y-21904342D02*
X112459400Y-21999580D01*
X112459400Y-21999580D02*
X112411781Y-22047200D01*
X112411781Y-22047200D02*
X112316543Y-22094819D01*
X112316543Y-22094819D02*
X112126067Y-22094819D01*
X112126067Y-22094819D02*
X112030829Y-22047200D01*
X113078448Y-22094819D02*
X112983210Y-22047200D01*
X112983210Y-22047200D02*
X112935591Y-21999580D01*
X112935591Y-21999580D02*
X112887972Y-21904342D01*
X112887972Y-21904342D02*
X112887972Y-21618628D01*
X112887972Y-21618628D02*
X112935591Y-21523390D01*
X112935591Y-21523390D02*
X112983210Y-21475771D01*
X112983210Y-21475771D02*
X113078448Y-21428152D01*
X113078448Y-21428152D02*
X113221305Y-21428152D01*
X113221305Y-21428152D02*
X113316543Y-21475771D01*
X113316543Y-21475771D02*
X113364162Y-21523390D01*
X113364162Y-21523390D02*
X113411781Y-21618628D01*
X113411781Y-21618628D02*
X113411781Y-21904342D01*
X113411781Y-21904342D02*
X113364162Y-21999580D01*
X113364162Y-21999580D02*
X113316543Y-22047200D01*
X113316543Y-22047200D02*
X113221305Y-22094819D01*
X113221305Y-22094819D02*
X113078448Y-22094819D01*
X113840353Y-22094819D02*
X113840353Y-21428152D01*
X113840353Y-21618628D02*
X113887972Y-21523390D01*
X113887972Y-21523390D02*
X113935591Y-21475771D01*
X113935591Y-21475771D02*
X114030829Y-21428152D01*
X114030829Y-21428152D02*
X114126067Y-21428152D01*
X114316544Y-21428152D02*
X114697496Y-21428152D01*
X114459401Y-21094819D02*
X114459401Y-21951961D01*
X114459401Y-21951961D02*
X114507020Y-22047200D01*
X114507020Y-22047200D02*
X114602258Y-22094819D01*
X114602258Y-22094819D02*
X114697496Y-22094819D01*
D11*
X88460000Y-36065000D02*
X88460000Y-38865000D01*
X84260000Y-36065000D02*
X88460000Y-36065000D01*
X88460000Y-38865000D02*
X84260000Y-38865000D01*
X84260000Y-38865000D02*
X84260000Y-36065000D01*
D12*
X89560000Y-36665000D02*
G75*
G03*
X89560000Y-36665000I-100000J0D01*
G01*
X85266200Y-79933800D02*
G75*
G03*
X85266200Y-79933800I-100000J0D01*
G01*
D11*
X87686200Y-79257400D02*
X87686200Y-77257400D01*
X87686200Y-77257400D02*
X85186200Y-77257400D01*
X85186200Y-79257400D02*
X87686200Y-79257400D01*
X85186200Y-77257400D02*
X85186200Y-79257400D01*
D12*
X83970800Y-58216800D02*
G75*
G03*
X83970800Y-58216800I-100000J0D01*
G01*
D11*
X83810000Y-51814000D02*
X88910000Y-51814000D01*
X88910000Y-57914000D02*
X88910000Y-51814000D01*
X83810000Y-57914000D02*
X83810000Y-51814000D01*
X83810000Y-57914000D02*
X88910000Y-57914000D01*
D12*
X86118000Y-45201800D02*
G75*
G03*
X86118000Y-45201800I-100000J0D01*
G01*
D11*
X87337000Y-47701800D02*
X85637000Y-47701800D01*
X87337000Y-44601800D02*
X87337000Y-47701800D01*
X85637000Y-47701800D02*
X85637000Y-44601800D01*
X85637000Y-44601800D02*
X87337000Y-44601800D01*
D12*
X89560000Y-48730000D02*
G75*
G03*
X89560000Y-48730000I-100000J0D01*
G01*
D11*
X84260000Y-50930000D02*
X84260000Y-48130000D01*
X88460000Y-50930000D02*
X84260000Y-50930000D01*
X84260000Y-48130000D02*
X88460000Y-48130000D01*
X88460000Y-48130000D02*
X88460000Y-50930000D01*
D13*
X90830400Y-23698200D02*
X90830400Y-16941800D01*
X90830400Y-16941800D02*
X81889600Y-16941800D01*
X86360000Y-23698200D02*
X86360000Y-23698200D01*
X86360000Y-23698200D02*
X86360000Y-23698200D01*
X86360000Y-23698200D02*
X86360000Y-23698200D01*
X86360000Y-23698200D02*
X86360000Y-23698200D01*
X81889600Y-23698200D02*
X90830400Y-23698200D01*
X81889600Y-16941800D02*
X81889600Y-23698200D01*
X83400800Y-85674400D02*
X83400800Y-88874400D01*
X81800800Y-85674400D02*
X83400800Y-85674400D01*
X83400800Y-88874400D02*
X81800800Y-88874400D01*
X81800800Y-88874400D02*
X81800800Y-85674400D01*
X87534500Y-39840000D02*
X87534500Y-41440000D01*
X86709500Y-39840000D02*
X87534500Y-39840000D01*
X87534500Y-41440000D02*
X86709500Y-41440000D01*
X86709500Y-41440000D02*
X86709500Y-39840000D01*
D14*
X87560000Y-133947602D02*
X85160000Y-133947602D01*
X85160000Y-133947602D02*
X85160000Y-131537602D01*
X85160000Y-131537602D02*
X87560000Y-131537602D01*
X87560000Y-131537602D02*
X87560000Y-133947602D01*
D15*
X87517200Y-133852402D02*
G75*
G03*
X87517200Y-133852402I-50000J0D01*
G01*
D13*
X90589000Y-85502500D02*
X88989000Y-85502500D01*
X90589000Y-84677500D02*
X90589000Y-85502500D01*
X88989000Y-85502500D02*
X88989000Y-84677500D01*
X88989000Y-84677500D02*
X90589000Y-84677500D01*
D14*
X87560000Y-171495422D02*
X85160000Y-171495422D01*
X85160000Y-171495422D02*
X85160000Y-169085422D01*
X85160000Y-169085422D02*
X87560000Y-169085422D01*
X87560000Y-169085422D02*
X87560000Y-171495422D01*
D15*
X87517200Y-171400222D02*
G75*
G03*
X87517200Y-171400222I-50000J0D01*
G01*
D14*
X87560000Y-167740640D02*
X85160000Y-167740640D01*
X85160000Y-167740640D02*
X85160000Y-165330640D01*
X85160000Y-165330640D02*
X87560000Y-165330640D01*
X87560000Y-165330640D02*
X87560000Y-167740640D01*
D15*
X87517200Y-167645440D02*
G75*
G03*
X87517200Y-167645440I-50000J0D01*
G01*
D13*
X83559900Y-81064000D02*
X83559900Y-79464000D01*
X84384900Y-81064000D02*
X83559900Y-81064000D01*
X83559900Y-79464000D02*
X84384900Y-79464000D01*
X84384900Y-79464000D02*
X84384900Y-81064000D01*
X81731100Y-81064000D02*
X81731100Y-79464000D01*
X82556100Y-81064000D02*
X81731100Y-81064000D01*
X81731100Y-79464000D02*
X82556100Y-79464000D01*
X82556100Y-79464000D02*
X82556100Y-81064000D01*
D14*
X87560000Y-156476294D02*
X85160000Y-156476294D01*
X85160000Y-156476294D02*
X85160000Y-154066294D01*
X85160000Y-154066294D02*
X87560000Y-154066294D01*
X87560000Y-154066294D02*
X87560000Y-156476294D01*
D15*
X87517200Y-156381094D02*
G75*
G03*
X87517200Y-156381094I-50000J0D01*
G01*
D13*
X90516000Y-86799000D02*
X89016000Y-86799000D01*
X89016000Y-86799000D02*
X89016000Y-87699000D01*
X90816000Y-87099000D02*
X90516000Y-86799000D01*
X90816000Y-87099000D02*
X90816000Y-87699000D01*
X90816000Y-87699000D02*
X89016000Y-87699000D01*
X88037500Y-61260000D02*
X88037500Y-59660000D01*
X88862500Y-61260000D02*
X88037500Y-61260000D01*
X88037500Y-59660000D02*
X88862500Y-59660000D01*
X88862500Y-59660000D02*
X88862500Y-61260000D01*
X90500000Y-44234000D02*
X87300000Y-44234000D01*
X90500000Y-42634000D02*
X90500000Y-44234000D01*
X87300000Y-44234000D02*
X87300000Y-42634000D01*
X87300000Y-42634000D02*
X90500000Y-42634000D01*
X89046000Y-39840000D02*
X89046000Y-41440000D01*
X88246000Y-39840000D02*
X89046000Y-39840000D01*
X89046000Y-41440000D02*
X88246000Y-41440000D01*
X88246000Y-41440000D02*
X88246000Y-39840000D01*
D14*
X87560000Y-96399782D02*
X85160000Y-96399782D01*
X85160000Y-96399782D02*
X85160000Y-93989782D01*
X85160000Y-93989782D02*
X87560000Y-93989782D01*
X87560000Y-93989782D02*
X87560000Y-96399782D01*
D15*
X87517200Y-96304582D02*
G75*
G03*
X87517200Y-96304582I-50000J0D01*
G01*
D13*
X82220000Y-42634000D02*
X85420000Y-42634000D01*
X82220000Y-44234000D02*
X82220000Y-42634000D01*
X85420000Y-42634000D02*
X85420000Y-44234000D01*
X85420000Y-44234000D02*
X82220000Y-44234000D01*
X88550500Y-87338000D02*
X88550500Y-88938000D01*
X87725500Y-87338000D02*
X88550500Y-87338000D01*
X88550500Y-88938000D02*
X87725500Y-88938000D01*
X87725500Y-88938000D02*
X87725500Y-87338000D01*
D14*
X87560000Y-152721512D02*
X85160000Y-152721512D01*
X85160000Y-152721512D02*
X85160000Y-150311512D01*
X85160000Y-150311512D02*
X87560000Y-150311512D01*
X87560000Y-150311512D02*
X87560000Y-152721512D01*
D15*
X87517200Y-152626312D02*
G75*
G03*
X87517200Y-152626312I-50000J0D01*
G01*
D13*
X89757500Y-50838000D02*
X89757500Y-49238000D01*
X90582500Y-50838000D02*
X89757500Y-50838000D01*
X89757500Y-49238000D02*
X90582500Y-49238000D01*
X90582500Y-49238000D02*
X90582500Y-50838000D01*
X82150000Y-50838000D02*
X82150000Y-49238000D01*
X82950000Y-50838000D02*
X82150000Y-50838000D01*
X82150000Y-49238000D02*
X82950000Y-49238000D01*
X82950000Y-49238000D02*
X82950000Y-50838000D01*
D11*
X81711200Y-82062800D02*
X84811200Y-82062800D01*
X81711200Y-84662800D02*
X81711200Y-82062800D01*
X84811200Y-82062800D02*
X84811200Y-84662800D01*
X84811200Y-84662800D02*
X81711200Y-84662800D01*
D13*
X81211200Y-82362800D02*
G75*
G03*
X81211200Y-82362800I-50000J0D01*
G01*
X82137500Y-57315000D02*
X82137500Y-55715000D01*
X82962500Y-57315000D02*
X82137500Y-57315000D01*
X82137500Y-55715000D02*
X82962500Y-55715000D01*
X82962500Y-55715000D02*
X82962500Y-57315000D01*
X86960000Y-34070000D02*
X85760000Y-34070000D01*
X86960000Y-33570000D02*
X86460000Y-34070000D01*
X86960000Y-31970000D02*
X86960000Y-34070000D01*
X85760000Y-34070000D02*
X85760000Y-31970000D01*
X85760000Y-31970000D02*
X86960000Y-31970000D01*
X87485000Y-25816800D02*
X87810000Y-26141800D01*
X84910000Y-25816800D02*
X87485000Y-25816800D01*
X87810000Y-26141800D02*
X87810000Y-27116800D01*
X87810000Y-27116800D02*
X84910000Y-27116800D01*
X84910000Y-27116800D02*
X84910000Y-25816800D01*
X83350000Y-158420000D02*
X83350000Y-161620000D01*
X81750000Y-158420000D02*
X83350000Y-158420000D01*
X83350000Y-161620000D02*
X81750000Y-161620000D01*
X81750000Y-161620000D02*
X81750000Y-158420000D01*
D14*
X87560000Y-148966730D02*
X85160000Y-148966730D01*
X85160000Y-148966730D02*
X85160000Y-146556730D01*
X85160000Y-146556730D02*
X87560000Y-146556730D01*
X87560000Y-146556730D02*
X87560000Y-148966730D01*
D15*
X87517200Y-148871530D02*
G75*
G03*
X87517200Y-148871530I-50000J0D01*
G01*
D14*
X87560000Y-122683256D02*
X85160000Y-122683256D01*
X85160000Y-122683256D02*
X85160000Y-120273256D01*
X85160000Y-120273256D02*
X87560000Y-120273256D01*
X87560000Y-120273256D02*
X87560000Y-122683256D01*
D15*
X87517200Y-122588056D02*
G75*
G03*
X87517200Y-122588056I-50000J0D01*
G01*
D13*
X87541000Y-85502500D02*
X85941000Y-85502500D01*
X87541000Y-84677500D02*
X87541000Y-85502500D01*
X85941000Y-85502500D02*
X85941000Y-84677500D01*
X85941000Y-84677500D02*
X87541000Y-84677500D01*
D14*
X87560000Y-160231076D02*
X85160000Y-160231076D01*
X85160000Y-160231076D02*
X85160000Y-157821076D01*
X85160000Y-157821076D02*
X87560000Y-157821076D01*
X87560000Y-157821076D02*
X87560000Y-160231076D01*
D15*
X87517200Y-160135876D02*
G75*
G03*
X87517200Y-160135876I-50000J0D01*
G01*
D14*
X87560000Y-100154564D02*
X85160000Y-100154564D01*
X85160000Y-100154564D02*
X85160000Y-97744564D01*
X85160000Y-97744564D02*
X87560000Y-97744564D01*
X87560000Y-97744564D02*
X87560000Y-100154564D01*
D15*
X87517200Y-100059364D02*
G75*
G03*
X87517200Y-100059364I-50000J0D01*
G01*
D14*
X87560000Y-163985858D02*
X85160000Y-163985858D01*
X85160000Y-163985858D02*
X85160000Y-161575858D01*
X85160000Y-161575858D02*
X87560000Y-161575858D01*
X87560000Y-161575858D02*
X87560000Y-163985858D01*
D15*
X87517200Y-163890658D02*
G75*
G03*
X87517200Y-163890658I-50000J0D01*
G01*
D13*
X89116000Y-25749500D02*
X90716000Y-25749500D01*
X89116000Y-26574500D02*
X89116000Y-25749500D01*
X90716000Y-25749500D02*
X90716000Y-26574500D01*
X90716000Y-26574500D02*
X89116000Y-26574500D01*
X87160000Y-76358500D02*
X85560000Y-76358500D01*
X87160000Y-75533500D02*
X87160000Y-76358500D01*
X85560000Y-76358500D02*
X85560000Y-75533500D01*
X85560000Y-75533500D02*
X87160000Y-75533500D01*
X86577500Y-61260000D02*
X86577500Y-59660000D01*
X87402500Y-61260000D02*
X86577500Y-61260000D01*
X86577500Y-59660000D02*
X87402500Y-59660000D01*
X87402500Y-59660000D02*
X87402500Y-61260000D01*
X86960000Y-86799000D02*
X85460000Y-86799000D01*
X85460000Y-86799000D02*
X85460000Y-87699000D01*
X87260000Y-87099000D02*
X86960000Y-86799000D01*
X87260000Y-87099000D02*
X87260000Y-87699000D01*
X87260000Y-87699000D02*
X85460000Y-87699000D01*
D14*
X87560000Y-130192820D02*
X85160000Y-130192820D01*
X85160000Y-130192820D02*
X85160000Y-127782820D01*
X85160000Y-127782820D02*
X87560000Y-127782820D01*
X87560000Y-127782820D02*
X87560000Y-130192820D01*
D15*
X87517200Y-130097620D02*
G75*
G03*
X87517200Y-130097620I-50000J0D01*
G01*
D13*
X86506000Y-80886400D02*
X86506000Y-82486400D01*
X85706000Y-80886400D02*
X86506000Y-80886400D01*
X86506000Y-82486400D02*
X85706000Y-82486400D01*
X85706000Y-82486400D02*
X85706000Y-80886400D01*
D14*
X87560000Y-175250204D02*
X85160000Y-175250204D01*
X85160000Y-175250204D02*
X85160000Y-172840204D01*
X85160000Y-172840204D02*
X87560000Y-172840204D01*
X87560000Y-172840204D02*
X87560000Y-175250204D01*
D15*
X87517200Y-175155004D02*
G75*
G03*
X87517200Y-175155004I-50000J0D01*
G01*
D13*
X82962500Y-52540000D02*
X82962500Y-54140000D01*
X82137500Y-52540000D02*
X82962500Y-52540000D01*
X82962500Y-54140000D02*
X82137500Y-54140000D01*
X82137500Y-54140000D02*
X82137500Y-52540000D01*
X82962500Y-39840000D02*
X82962500Y-41440000D01*
X82137500Y-39840000D02*
X82962500Y-39840000D01*
X82962500Y-41440000D02*
X82137500Y-41440000D01*
X82137500Y-41440000D02*
X82137500Y-39840000D01*
D14*
X87560011Y-111418904D02*
X85160011Y-111418904D01*
X85160011Y-111418904D02*
X85160011Y-109008904D01*
X85160011Y-109008904D02*
X87560011Y-109008904D01*
X87560011Y-109008904D02*
X87560011Y-111418904D01*
D15*
X87517211Y-111323704D02*
G75*
G03*
X87517211Y-111323704I-50000J0D01*
G01*
D13*
X88080800Y-80886400D02*
X88080800Y-82486400D01*
X87280800Y-80886400D02*
X88080800Y-80886400D01*
X88080800Y-82486400D02*
X87280800Y-82486400D01*
X87280800Y-82486400D02*
X87280800Y-80886400D01*
D14*
X87560000Y-179004986D02*
X85160000Y-179004986D01*
X85160000Y-179004986D02*
X85160000Y-176594986D01*
X85160000Y-176594986D02*
X87560000Y-176594986D01*
X87560000Y-176594986D02*
X87560000Y-179004986D01*
D15*
X87517200Y-178909786D02*
G75*
G03*
X87517200Y-178909786I-50000J0D01*
G01*
D13*
X83350000Y-127940000D02*
X83350000Y-131140000D01*
X81750000Y-127940000D02*
X83350000Y-127940000D01*
X83350000Y-131140000D02*
X81750000Y-131140000D01*
X81750000Y-131140000D02*
X81750000Y-127940000D01*
X84760000Y-28664000D02*
X87960000Y-28664000D01*
X84760000Y-30264000D02*
X84760000Y-28664000D01*
X87960000Y-28664000D02*
X87960000Y-30264000D01*
X87960000Y-30264000D02*
X84760000Y-30264000D01*
X89738000Y-63919000D02*
X86538000Y-63919000D01*
X89738000Y-62319000D02*
X89738000Y-63919000D01*
X86538000Y-63919000D02*
X86538000Y-62319000D01*
X86538000Y-62319000D02*
X89738000Y-62319000D01*
D14*
X87560000Y-141457166D02*
X85160000Y-141457166D01*
X85160000Y-141457166D02*
X85160000Y-139047166D01*
X85160000Y-139047166D02*
X87560000Y-139047166D01*
X87560000Y-139047166D02*
X87560000Y-141457166D01*
D15*
X87517200Y-141361966D02*
G75*
G03*
X87517200Y-141361966I-50000J0D01*
G01*
D13*
X82004000Y-25749500D02*
X83604000Y-25749500D01*
X82004000Y-26574500D02*
X82004000Y-25749500D01*
X83604000Y-25749500D02*
X83604000Y-26574500D01*
X83604000Y-26574500D02*
X82004000Y-26574500D01*
D14*
X87560011Y-107664124D02*
X85160011Y-107664124D01*
X85160011Y-107664124D02*
X85160011Y-105254124D01*
X85160011Y-105254124D02*
X87560011Y-105254124D01*
X87560011Y-105254124D02*
X87560011Y-107664124D01*
D15*
X87517211Y-107568924D02*
G75*
G03*
X87517211Y-107568924I-50000J0D01*
G01*
D13*
X89757500Y-41440000D02*
X89757500Y-39840000D01*
X90582500Y-41440000D02*
X89757500Y-41440000D01*
X89757500Y-39840000D02*
X90582500Y-39840000D01*
X90582500Y-39840000D02*
X90582500Y-41440000D01*
D14*
X87560000Y-145211948D02*
X85160000Y-145211948D01*
X85160000Y-145211948D02*
X85160000Y-142801948D01*
X85160000Y-142801948D02*
X87560000Y-142801948D01*
X87560000Y-142801948D02*
X87560000Y-145211948D01*
D15*
X87517200Y-145116748D02*
G75*
G03*
X87517200Y-145116748I-50000J0D01*
G01*
D14*
X87560000Y-137702384D02*
X85160000Y-137702384D01*
X85160000Y-137702384D02*
X85160000Y-135292384D01*
X85160000Y-135292384D02*
X87560000Y-135292384D01*
X87560000Y-135292384D02*
X87560000Y-137702384D01*
D15*
X87517200Y-137607184D02*
G75*
G03*
X87517200Y-137607184I-50000J0D01*
G01*
D13*
X84994500Y-87338000D02*
X84994500Y-88938000D01*
X84169500Y-87338000D02*
X84994500Y-87338000D01*
X84994500Y-88938000D02*
X84169500Y-88938000D01*
X84169500Y-88938000D02*
X84169500Y-87338000D01*
D14*
X87560000Y-126438038D02*
X85160000Y-126438038D01*
X85160000Y-126438038D02*
X85160000Y-124028038D01*
X85160000Y-124028038D02*
X87560000Y-124028038D01*
X87560000Y-124028038D02*
X87560000Y-126438038D01*
D15*
X87517200Y-126342838D02*
G75*
G03*
X87517200Y-126342838I-50000J0D01*
G01*
D14*
X87560000Y-92645000D02*
X85160000Y-92645000D01*
X85160000Y-92645000D02*
X85160000Y-90235000D01*
X85160000Y-90235000D02*
X87560000Y-90235000D01*
X87560000Y-90235000D02*
X87560000Y-92645000D01*
D15*
X87517200Y-92549800D02*
G75*
G03*
X87517200Y-92549800I-50000J0D01*
G01*
D11*
X82860000Y-72080000D02*
X82860000Y-65080000D01*
X89860000Y-65080000D02*
X82860000Y-65080000D01*
X89860000Y-72080000D02*
X82860000Y-72080000D01*
X89860000Y-72080000D02*
X89860000Y-65080000D01*
D12*
X82650000Y-65328800D02*
G75*
G03*
X82650000Y-65328800I-100000J0D01*
G01*
D14*
X87560000Y-118928474D02*
X85160000Y-118928474D01*
X85160000Y-118928474D02*
X85160000Y-116518474D01*
X85160000Y-116518474D02*
X87560000Y-116518474D01*
X87560000Y-116518474D02*
X87560000Y-118928474D01*
D15*
X87517200Y-118833274D02*
G75*
G03*
X87517200Y-118833274I-50000J0D01*
G01*
D14*
X87560000Y-103909346D02*
X85160000Y-103909346D01*
X85160000Y-103909346D02*
X85160000Y-101499346D01*
X85160000Y-101499346D02*
X87560000Y-101499346D01*
X87560000Y-101499346D02*
X87560000Y-103909346D01*
D15*
X87517200Y-103814146D02*
G75*
G03*
X87517200Y-103814146I-50000J0D01*
G01*
D13*
X83350000Y-97460000D02*
X83350000Y-100660000D01*
X81750000Y-97460000D02*
X83350000Y-97460000D01*
X83350000Y-100660000D02*
X81750000Y-100660000D01*
X81750000Y-100660000D02*
X81750000Y-97460000D01*
D14*
X87560000Y-115173692D02*
X85160000Y-115173692D01*
X85160000Y-115173692D02*
X85160000Y-112763692D01*
X85160000Y-112763692D02*
X87560000Y-112763692D01*
X87560000Y-112763692D02*
X87560000Y-115173692D01*
D15*
X87517200Y-115078492D02*
G75*
G03*
X87517200Y-115078492I-50000J0D01*
G01*
D13*
X87503200Y-73241000D02*
X90703200Y-73241000D01*
X87503200Y-74841000D02*
X87503200Y-73241000D01*
X90703200Y-73241000D02*
X90703200Y-74841000D01*
X90703200Y-74841000D02*
X87503200Y-74841000D01*
M02*
