%TF.GenerationSoftware,KiCad,Pcbnew,7.0.9*%
%TF.CreationDate,2024-02-10T14:07:48-07:00*%
%TF.ProjectId,RP2040-Breadstick,52503230-3430-42d4-9272-656164737469,1.0*%
%TF.SameCoordinates,Original*%
%TF.FileFunction,Drillmap*%
%TF.FilePolarity,Positive*%
%FSLAX45Y45*%
G04 Gerber Fmt 4.5, Leading zero omitted, Abs format (unit mm)*
G04 Created by KiCad (PCBNEW 7.0.9) date 2024-02-10 14:07:48*
%MOMM*%
%LPD*%
G01*
G04 APERTURE LIST*
%ADD10C,0.100000*%
%ADD11C,0.200000*%
G04 APERTURE END LIST*
D10*
X9017000Y-1651000D02*
X8255000Y-1651000D01*
X8128000Y-1778000D02*
X8128000Y-17907000D01*
X8255000Y-18034000D02*
X9017000Y-18034000D01*
X8128000Y-17907000D02*
G75*
G03*
X8255000Y-18034000I127000J0D01*
G01*
X9144000Y-1778000D02*
G75*
G03*
X9017000Y-1651000I-127000J0D01*
G01*
X8255000Y-1651000D02*
G75*
G03*
X8128000Y-1778000I0J-127000D01*
G01*
X9144000Y-17907000D02*
X9144000Y-1778000D01*
X9017000Y-18034000D02*
G75*
G03*
X9144000Y-17907000I0J127000D01*
G01*
D11*
D10*
X8181580Y-6914120D02*
X8211580Y-6944120D01*
X8211580Y-6914120D02*
X8181580Y-6944120D01*
X8184000Y-7005560D02*
X8214000Y-7035560D01*
X8214000Y-7005560D02*
X8184000Y-7035560D01*
X8184120Y-2504680D02*
X8214120Y-2534680D01*
X8214120Y-2504680D02*
X8184120Y-2534680D01*
X8185331Y-6713865D02*
X8215331Y-6743865D01*
X8215331Y-6713865D02*
X8185331Y-6743865D01*
X8185934Y-6800337D02*
X8215934Y-6830337D01*
X8215934Y-6800337D02*
X8185934Y-6830337D01*
X8186426Y-7122991D02*
X8216426Y-7152991D01*
X8216426Y-7122991D02*
X8186426Y-7152991D01*
X8186660Y-13190460D02*
X8216660Y-13220460D01*
X8216660Y-13190460D02*
X8186660Y-13220460D01*
X8189200Y-7808200D02*
X8219200Y-7838200D01*
X8219200Y-7808200D02*
X8189200Y-7838200D01*
X8189200Y-10145000D02*
X8219200Y-10175000D01*
X8219200Y-10145000D02*
X8189200Y-10175000D01*
X8189200Y-16238460D02*
X8219200Y-16268460D01*
X8219200Y-16238460D02*
X8189200Y-16268460D01*
X8196820Y-9634460D02*
X8226820Y-9664460D01*
X8226820Y-9634460D02*
X8196820Y-9664460D01*
X8240000Y-6449300D02*
X8270000Y-6479300D01*
X8270000Y-6449300D02*
X8240000Y-6479300D01*
X8240000Y-9548100D02*
X8270000Y-9578100D01*
X8270000Y-9548100D02*
X8240000Y-9578100D01*
X8265400Y-8770860D02*
X8295400Y-8800860D01*
X8295400Y-8770860D02*
X8265400Y-8800860D01*
X8290800Y-13190460D02*
X8320800Y-13220460D01*
X8320800Y-13190460D02*
X8290800Y-13220460D01*
X8293340Y-10145000D02*
X8323340Y-10175000D01*
X8323340Y-10145000D02*
X8293340Y-10175000D01*
X8293340Y-16238460D02*
X8323340Y-16268460D01*
X8323340Y-16238460D02*
X8293340Y-16268460D01*
X8295880Y-4043920D02*
X8325880Y-4073920D01*
X8325880Y-4043920D02*
X8295880Y-4073920D01*
X8301000Y-2240480D02*
X8331000Y-2270480D01*
X8331000Y-2240480D02*
X8301000Y-2270480D01*
X8301000Y-2504640D02*
X8331000Y-2534640D01*
X8331000Y-2504640D02*
X8301000Y-2534640D01*
X8316200Y-4264900D02*
X8346200Y-4294900D01*
X8346200Y-4264900D02*
X8316200Y-4294900D01*
X8316200Y-4353800D02*
X8346200Y-4383800D01*
X8346200Y-4353800D02*
X8316200Y-4383800D01*
X8318525Y-5796716D02*
X8348525Y-5826716D01*
X8348525Y-5796716D02*
X8318525Y-5826716D01*
X8323820Y-5136120D02*
X8353820Y-5166120D01*
X8353820Y-5136120D02*
X8323820Y-5166120D01*
X8328900Y-4861800D02*
X8358900Y-4891800D01*
X8358900Y-4861800D02*
X8328900Y-4891800D01*
X8335275Y-4968480D02*
X8365275Y-4998480D01*
X8365275Y-4968480D02*
X8335275Y-4998480D01*
X8369310Y-8481193D02*
X8399310Y-8511193D01*
X8399310Y-8481193D02*
X8369310Y-8511193D01*
X8369644Y-6674568D02*
X8399644Y-6704568D01*
X8399644Y-6674568D02*
X8369644Y-6704568D01*
X8377160Y-7056360D02*
X8407160Y-7086360D01*
X8407160Y-7056360D02*
X8377160Y-7086360D01*
X8379462Y-6888958D02*
X8409462Y-6918958D01*
X8409462Y-6888958D02*
X8379462Y-6918958D01*
X8382240Y-7856460D02*
X8412240Y-7886460D01*
X8412240Y-7856460D02*
X8382240Y-7886460D01*
X8398390Y-6754762D02*
X8428390Y-6784762D01*
X8428390Y-6754762D02*
X8398390Y-6784762D01*
X8448390Y-2443610D02*
X8478390Y-2473610D01*
X8478390Y-2443610D02*
X8448390Y-2473610D01*
X8494262Y-5108914D02*
X8524262Y-5138914D01*
X8524262Y-5108914D02*
X8494262Y-5138914D01*
X8534000Y-6247000D02*
X8564000Y-6277000D01*
X8564000Y-6247000D02*
X8534000Y-6277000D01*
X8539752Y-6333898D02*
X8569752Y-6363898D01*
X8569752Y-6333898D02*
X8539752Y-6363898D01*
X8565629Y-6415063D02*
X8595629Y-6445063D01*
X8595629Y-6415063D02*
X8565629Y-6445063D01*
X8578811Y-7080000D02*
X8608811Y-7110000D01*
X8608811Y-7080000D02*
X8578811Y-7110000D01*
X8580567Y-2532677D02*
X8610567Y-2562677D01*
X8610567Y-2532677D02*
X8580567Y-2562677D01*
X8600680Y-6185140D02*
X8630680Y-6215140D01*
X8630680Y-6185140D02*
X8600680Y-6215140D01*
X8607778Y-7675306D02*
X8637778Y-7705306D01*
X8637778Y-7675306D02*
X8607778Y-7705306D01*
X8620999Y-12650520D02*
X8650999Y-12680520D01*
X8650999Y-12650520D02*
X8620999Y-12680520D01*
X8621000Y-2616440D02*
X8651000Y-2646440D01*
X8651000Y-2616440D02*
X8621000Y-2646440D01*
X8621000Y-4264900D02*
X8651000Y-4294900D01*
X8651000Y-4264900D02*
X8621000Y-4294900D01*
X8621000Y-4353800D02*
X8651000Y-4383800D01*
X8651000Y-4353800D02*
X8621000Y-4383800D01*
X8621000Y-5108180D02*
X8651000Y-5138180D01*
X8651000Y-5108180D02*
X8621000Y-5138180D01*
X8621000Y-10094200D02*
X8651000Y-10124200D01*
X8651000Y-10094200D02*
X8621000Y-10124200D01*
X8621000Y-10437100D02*
X8651000Y-10467100D01*
X8651000Y-10437100D02*
X8621000Y-10467100D01*
X8621000Y-10843500D02*
X8651000Y-10873500D01*
X8651000Y-10843500D02*
X8621000Y-10873500D01*
X8621000Y-11224500D02*
X8651000Y-11254500D01*
X8651000Y-11224500D02*
X8621000Y-11254500D01*
X8621000Y-11542000D02*
X8651000Y-11572000D01*
X8651000Y-11542000D02*
X8621000Y-11572000D01*
X8621000Y-11910300D02*
X8651000Y-11940300D01*
X8651000Y-11910300D02*
X8621000Y-11940300D01*
X8621000Y-12291300D02*
X8651000Y-12321300D01*
X8651000Y-12291300D02*
X8621000Y-12321300D01*
X8621000Y-13447000D02*
X8651000Y-13477000D01*
X8651000Y-13447000D02*
X8621000Y-13477000D01*
X8621000Y-13828000D02*
X8651000Y-13858000D01*
X8651000Y-13828000D02*
X8621000Y-13858000D01*
X8621000Y-14234400D02*
X8651000Y-14264400D01*
X8651000Y-14234400D02*
X8621000Y-14264400D01*
X8621000Y-14590000D02*
X8651000Y-14620000D01*
X8651000Y-14590000D02*
X8621000Y-14620000D01*
X8621000Y-15352000D02*
X8651000Y-15382000D01*
X8651000Y-15352000D02*
X8621000Y-15382000D01*
X8621000Y-15694900D02*
X8651000Y-15724900D01*
X8651000Y-15694900D02*
X8621000Y-15724900D01*
X8621000Y-16101300D02*
X8651000Y-16131300D01*
X8651000Y-16101300D02*
X8621000Y-16131300D01*
X8621000Y-16469600D02*
X8651000Y-16499600D01*
X8651000Y-16469600D02*
X8621000Y-16499600D01*
X8621000Y-16850600D02*
X8651000Y-16880600D01*
X8651000Y-16850600D02*
X8621000Y-16880600D01*
X8621000Y-17218900D02*
X8651000Y-17248900D01*
X8651000Y-17218900D02*
X8621000Y-17248900D01*
X8621000Y-17599900D02*
X8651000Y-17629900D01*
X8651000Y-17599900D02*
X8621000Y-17629900D01*
X8621001Y-9667480D02*
X8651001Y-9697480D01*
X8651001Y-9667480D02*
X8621001Y-9697480D01*
X8621001Y-13104100D02*
X8651001Y-13134100D01*
X8651001Y-13104100D02*
X8621001Y-13134100D01*
X8621001Y-14920200D02*
X8651001Y-14950200D01*
X8651001Y-14920200D02*
X8621001Y-14950200D01*
X8621044Y-7972809D02*
X8651044Y-8002809D01*
X8651044Y-7972809D02*
X8621044Y-8002809D01*
X8633700Y-6624560D02*
X8663700Y-6654560D01*
X8663700Y-6624560D02*
X8633700Y-6654560D01*
X8660810Y-6437090D02*
X8690810Y-6467090D01*
X8690810Y-6437090D02*
X8660810Y-6467090D01*
X8665755Y-2532020D02*
X8695755Y-2562020D01*
X8695755Y-2532020D02*
X8665755Y-2562020D01*
X8697200Y-5344400D02*
X8727200Y-5374400D01*
X8727200Y-5344400D02*
X8697200Y-5374400D01*
X8697200Y-5598400D02*
X8727200Y-5628400D01*
X8727200Y-5598400D02*
X8697200Y-5628400D01*
X8702888Y-7281625D02*
X8732888Y-7311625D01*
X8732888Y-7281625D02*
X8702888Y-7311625D01*
X8719777Y-7095325D02*
X8749777Y-7125325D01*
X8749777Y-7095325D02*
X8719777Y-7125325D01*
X8722600Y-6766800D02*
X8752600Y-6796800D01*
X8752600Y-6766800D02*
X8722600Y-6796800D01*
X8732760Y-6947140D02*
X8762760Y-6977140D01*
X8762760Y-6947140D02*
X8732760Y-6977140D01*
X8735589Y-6591272D02*
X8765589Y-6621272D01*
X8765589Y-6591272D02*
X8735589Y-6621272D01*
X8748000Y-5108180D02*
X8778000Y-5138180D01*
X8778000Y-5108180D02*
X8748000Y-5138180D01*
X8768320Y-4047071D02*
X8798320Y-4077071D01*
X8798320Y-4047071D02*
X8768320Y-4077071D01*
X8804961Y-7094286D02*
X8834961Y-7124286D01*
X8834961Y-7094286D02*
X8804961Y-7124286D01*
X8813430Y-8179040D02*
X8843430Y-8209040D01*
X8843430Y-8179040D02*
X8813430Y-8209040D01*
X8860000Y-6437000D02*
X8890000Y-6467000D01*
X8890000Y-6437000D02*
X8860000Y-6467000D01*
X8860092Y-7351095D02*
X8890092Y-7381095D01*
X8890092Y-7351095D02*
X8860092Y-7381095D01*
X8862300Y-6690600D02*
X8892300Y-6720600D01*
X8892300Y-6690600D02*
X8862300Y-6720600D01*
X8862948Y-6866792D02*
X8892948Y-6896792D01*
X8892948Y-6866792D02*
X8862948Y-6896792D01*
X8866607Y-6951904D02*
X8896607Y-6981904D01*
X8896607Y-6951904D02*
X8866607Y-6981904D01*
X8872307Y-6591685D02*
X8902307Y-6621685D01*
X8902307Y-6591685D02*
X8872307Y-6621685D01*
X8872310Y-6782000D02*
X8902310Y-6812000D01*
X8902310Y-6782000D02*
X8872310Y-6812000D01*
X8885824Y-5649853D02*
X8915824Y-5679853D01*
X8915824Y-5649853D02*
X8885824Y-5679853D01*
X8925800Y-4264900D02*
X8955800Y-4294900D01*
X8955800Y-4264900D02*
X8925800Y-4294900D01*
X8925800Y-4353800D02*
X8955800Y-4383800D01*
X8955800Y-4353800D02*
X8925800Y-4383800D01*
X8936620Y-5727940D02*
X8966620Y-5757940D01*
X8966620Y-5727940D02*
X8936620Y-5757940D01*
X8940000Y-2466000D02*
X8970000Y-2496000D01*
X8970000Y-2466000D02*
X8940000Y-2496000D01*
X8941000Y-2240560D02*
X8971000Y-2270560D01*
X8971000Y-2240560D02*
X8941000Y-2270560D01*
X8980824Y-5649853D02*
X9010824Y-5679853D01*
X9010824Y-5649853D02*
X8980824Y-5679853D01*
X8989910Y-5141200D02*
X9019910Y-5171200D01*
X9019910Y-5141200D02*
X8989910Y-5171200D01*
X9027400Y-7196060D02*
X9057400Y-7226060D01*
X9057400Y-7196060D02*
X9027400Y-7226060D01*
X9037560Y-2499600D02*
X9067560Y-2529600D01*
X9067560Y-2499600D02*
X9037560Y-2529600D01*
X9052800Y-7287500D02*
X9082800Y-7317500D01*
X9082800Y-7287500D02*
X9052800Y-7317500D01*
X9055960Y-6685924D02*
X9085960Y-6715924D01*
X9085960Y-6685924D02*
X9055960Y-6715924D01*
X9056640Y-6771111D02*
X9086640Y-6801111D01*
X9086640Y-6771111D02*
X9056640Y-6801111D01*
X9056690Y-6856301D02*
X9086690Y-6886301D01*
X9086690Y-6856301D02*
X9056690Y-6886301D01*
X9056690Y-7111872D02*
X9086690Y-7141872D01*
X9086690Y-7111872D02*
X9056690Y-7141872D01*
X9056810Y-6941492D02*
X9086810Y-6971492D01*
X9086810Y-6941492D02*
X9056810Y-6971492D01*
X9056810Y-7026682D02*
X9086810Y-7056682D01*
X9086810Y-7026682D02*
X9056810Y-7056682D01*
X8234000Y-1904820D02*
G75*
G03*
X8234000Y-1904820I-30000J0D01*
G01*
X8234000Y-1964820D02*
X8234000Y-1844820D01*
X8234000Y-1844820D02*
G75*
G03*
X8174000Y-1844820I-30000J0D01*
G01*
X8174000Y-1844820D02*
X8174000Y-1964820D01*
X8174000Y-1964820D02*
G75*
G03*
X8234000Y-1964820I30000J0D01*
G01*
X8234000Y-2304820D02*
G75*
G03*
X8234000Y-2304820I-30000J0D01*
G01*
X8234000Y-2344820D02*
X8234000Y-2264820D01*
X8234000Y-2264820D02*
G75*
G03*
X8174000Y-2264820I-30000J0D01*
G01*
X8174000Y-2264820D02*
X8174000Y-2344820D01*
X8174000Y-2344820D02*
G75*
G03*
X8234000Y-2344820I30000J0D01*
G01*
X9098000Y-1904820D02*
G75*
G03*
X9098000Y-1904820I-30000J0D01*
G01*
X9098000Y-1964820D02*
X9098000Y-1844820D01*
X9098000Y-1844820D02*
G75*
G03*
X9038000Y-1844820I-30000J0D01*
G01*
X9038000Y-1844820D02*
X9038000Y-1964820D01*
X9038000Y-1964820D02*
G75*
G03*
X9098000Y-1964820I30000J0D01*
G01*
X9098000Y-2304820D02*
G75*
G03*
X9098000Y-2304820I-30000J0D01*
G01*
X9098000Y-2344820D02*
X9098000Y-2264820D01*
X9098000Y-2264820D02*
G75*
G03*
X9038000Y-2264820I-30000J0D01*
G01*
X9038000Y-2264820D02*
X9038000Y-2344820D01*
X9038000Y-2344820D02*
G75*
G03*
X9098000Y-2344820I30000J0D01*
G01*
X8255000Y-2744000D02*
X8255000Y-2844000D01*
X8205000Y-2794000D02*
X8305000Y-2794000D01*
X8255000Y-2998000D02*
X8255000Y-3098000D01*
X8205000Y-3048000D02*
X8305000Y-3048000D01*
X8255000Y-3252000D02*
X8255000Y-3352000D01*
X8205000Y-3302000D02*
X8305000Y-3302000D01*
X8255000Y-3506000D02*
X8255000Y-3606000D01*
X8205000Y-3556000D02*
X8305000Y-3556000D01*
X8255000Y-3760000D02*
X8255000Y-3860000D01*
X8205000Y-3810000D02*
X8305000Y-3810000D01*
X8255000Y-4522000D02*
X8255000Y-4622000D01*
X8205000Y-4572000D02*
X8305000Y-4572000D01*
X8255000Y-6046000D02*
X8255000Y-6146000D01*
X8205000Y-6096000D02*
X8305000Y-6096000D01*
X8255000Y-7570000D02*
X8255000Y-7670000D01*
X8205000Y-7620000D02*
X8305000Y-7620000D01*
X8255000Y-9094000D02*
X8255000Y-9194000D01*
X8205000Y-9144000D02*
X8305000Y-9144000D01*
X8255000Y-10618000D02*
X8255000Y-10718000D01*
X8205000Y-10668000D02*
X8305000Y-10668000D01*
X8255000Y-12142000D02*
X8255000Y-12242000D01*
X8205000Y-12192000D02*
X8305000Y-12192000D01*
X8255000Y-13666000D02*
X8255000Y-13766000D01*
X8205000Y-13716000D02*
X8305000Y-13716000D01*
X8255000Y-15190000D02*
X8255000Y-15290000D01*
X8205000Y-15240000D02*
X8305000Y-15240000D01*
X8255000Y-16714000D02*
X8255000Y-16814000D01*
X8205000Y-16764000D02*
X8305000Y-16764000D01*
X8255000Y-17476000D02*
X8255000Y-17576000D01*
X8205000Y-17526000D02*
X8305000Y-17526000D01*
X8255000Y-17730000D02*
X8255000Y-17830000D01*
X8205000Y-17780000D02*
X8305000Y-17780000D01*
X9017000Y-2744000D02*
X9017000Y-2844000D01*
X8967000Y-2794000D02*
X9067000Y-2794000D01*
X9017000Y-2998000D02*
X9017000Y-3098000D01*
X8967000Y-3048000D02*
X9067000Y-3048000D01*
X9017000Y-3252000D02*
X9017000Y-3352000D01*
X8967000Y-3302000D02*
X9067000Y-3302000D01*
X9017000Y-3506000D02*
X9017000Y-3606000D01*
X8967000Y-3556000D02*
X9067000Y-3556000D01*
X9017000Y-3760000D02*
X9017000Y-3860000D01*
X8967000Y-3810000D02*
X9067000Y-3810000D01*
X9017000Y-4522000D02*
X9017000Y-4622000D01*
X8967000Y-4572000D02*
X9067000Y-4572000D01*
X9017000Y-6046000D02*
X9017000Y-6146000D01*
X8967000Y-6096000D02*
X9067000Y-6096000D01*
X9017000Y-7570000D02*
X9017000Y-7670000D01*
X8967000Y-7620000D02*
X9067000Y-7620000D01*
X9017000Y-9094000D02*
X9017000Y-9194000D01*
X8967000Y-9144000D02*
X9067000Y-9144000D01*
X9017000Y-10618000D02*
X9017000Y-10718000D01*
X8967000Y-10668000D02*
X9067000Y-10668000D01*
X9017000Y-12142000D02*
X9017000Y-12242000D01*
X8967000Y-12192000D02*
X9067000Y-12192000D01*
X9017000Y-13666000D02*
X9017000Y-13766000D01*
X8967000Y-13716000D02*
X9067000Y-13716000D01*
X9017000Y-15190000D02*
X9017000Y-15290000D01*
X8967000Y-15240000D02*
X9067000Y-15240000D01*
X9017000Y-16714000D02*
X9017000Y-16814000D01*
X8967000Y-16764000D02*
X9067000Y-16764000D01*
X9017000Y-17476000D02*
X9017000Y-17576000D01*
X8967000Y-17526000D02*
X9067000Y-17526000D01*
X9017000Y-17730000D02*
X9017000Y-17830000D01*
X8967000Y-17780000D02*
X9067000Y-17780000D01*
D11*
X8383777Y-18350484D02*
X8383777Y-18150484D01*
X8383777Y-18150484D02*
X8431396Y-18150484D01*
X8431396Y-18150484D02*
X8459967Y-18160008D01*
X8459967Y-18160008D02*
X8479015Y-18179055D01*
X8479015Y-18179055D02*
X8488539Y-18198103D01*
X8488539Y-18198103D02*
X8498063Y-18236198D01*
X8498063Y-18236198D02*
X8498063Y-18264770D01*
X8498063Y-18264770D02*
X8488539Y-18302865D01*
X8488539Y-18302865D02*
X8479015Y-18321912D01*
X8479015Y-18321912D02*
X8459967Y-18340960D01*
X8459967Y-18340960D02*
X8431396Y-18350484D01*
X8431396Y-18350484D02*
X8383777Y-18350484D01*
X8583777Y-18350484D02*
X8583777Y-18217150D01*
X8583777Y-18255246D02*
X8593301Y-18236198D01*
X8593301Y-18236198D02*
X8602824Y-18226674D01*
X8602824Y-18226674D02*
X8621872Y-18217150D01*
X8621872Y-18217150D02*
X8640920Y-18217150D01*
X8707586Y-18350484D02*
X8707586Y-18217150D01*
X8707586Y-18150484D02*
X8698063Y-18160008D01*
X8698063Y-18160008D02*
X8707586Y-18169531D01*
X8707586Y-18169531D02*
X8717110Y-18160008D01*
X8717110Y-18160008D02*
X8707586Y-18150484D01*
X8707586Y-18150484D02*
X8707586Y-18169531D01*
X8831396Y-18350484D02*
X8812348Y-18340960D01*
X8812348Y-18340960D02*
X8802824Y-18321912D01*
X8802824Y-18321912D02*
X8802824Y-18150484D01*
X8936158Y-18350484D02*
X8917110Y-18340960D01*
X8917110Y-18340960D02*
X8907586Y-18321912D01*
X8907586Y-18321912D02*
X8907586Y-18150484D01*
X9164729Y-18350484D02*
X9164729Y-18150484D01*
X9164729Y-18150484D02*
X9231396Y-18293341D01*
X9231396Y-18293341D02*
X9298063Y-18150484D01*
X9298063Y-18150484D02*
X9298063Y-18350484D01*
X9479015Y-18350484D02*
X9479015Y-18245722D01*
X9479015Y-18245722D02*
X9469491Y-18226674D01*
X9469491Y-18226674D02*
X9450444Y-18217150D01*
X9450444Y-18217150D02*
X9412348Y-18217150D01*
X9412348Y-18217150D02*
X9393301Y-18226674D01*
X9479015Y-18340960D02*
X9459967Y-18350484D01*
X9459967Y-18350484D02*
X9412348Y-18350484D01*
X9412348Y-18350484D02*
X9393301Y-18340960D01*
X9393301Y-18340960D02*
X9383777Y-18321912D01*
X9383777Y-18321912D02*
X9383777Y-18302865D01*
X9383777Y-18302865D02*
X9393301Y-18283817D01*
X9393301Y-18283817D02*
X9412348Y-18274293D01*
X9412348Y-18274293D02*
X9459967Y-18274293D01*
X9459967Y-18274293D02*
X9479015Y-18264770D01*
X9574253Y-18217150D02*
X9574253Y-18417150D01*
X9574253Y-18226674D02*
X9593301Y-18217150D01*
X9593301Y-18217150D02*
X9631396Y-18217150D01*
X9631396Y-18217150D02*
X9650444Y-18226674D01*
X9650444Y-18226674D02*
X9659967Y-18236198D01*
X9659967Y-18236198D02*
X9669491Y-18255246D01*
X9669491Y-18255246D02*
X9669491Y-18312389D01*
X9669491Y-18312389D02*
X9659967Y-18331436D01*
X9659967Y-18331436D02*
X9650444Y-18340960D01*
X9650444Y-18340960D02*
X9631396Y-18350484D01*
X9631396Y-18350484D02*
X9593301Y-18350484D01*
X9593301Y-18350484D02*
X9574253Y-18340960D01*
X9755205Y-18331436D02*
X9764729Y-18340960D01*
X9764729Y-18340960D02*
X9755205Y-18350484D01*
X9755205Y-18350484D02*
X9745682Y-18340960D01*
X9745682Y-18340960D02*
X9755205Y-18331436D01*
X9755205Y-18331436D02*
X9755205Y-18350484D01*
X9755205Y-18226674D02*
X9764729Y-18236198D01*
X9764729Y-18236198D02*
X9755205Y-18245722D01*
X9755205Y-18245722D02*
X9745682Y-18236198D01*
X9745682Y-18236198D02*
X9755205Y-18226674D01*
X9755205Y-18226674D02*
X9755205Y-18245722D01*
D10*
X8093000Y-18664000D02*
X8123000Y-18694000D01*
X8123000Y-18664000D02*
X8093000Y-18694000D01*
D11*
X8421872Y-18570484D02*
X8440920Y-18570484D01*
X8440920Y-18570484D02*
X8459967Y-18580008D01*
X8459967Y-18580008D02*
X8469491Y-18589531D01*
X8469491Y-18589531D02*
X8479015Y-18608579D01*
X8479015Y-18608579D02*
X8488539Y-18646674D01*
X8488539Y-18646674D02*
X8488539Y-18694293D01*
X8488539Y-18694293D02*
X8479015Y-18732389D01*
X8479015Y-18732389D02*
X8469491Y-18751436D01*
X8469491Y-18751436D02*
X8459967Y-18760960D01*
X8459967Y-18760960D02*
X8440920Y-18770484D01*
X8440920Y-18770484D02*
X8421872Y-18770484D01*
X8421872Y-18770484D02*
X8402824Y-18760960D01*
X8402824Y-18760960D02*
X8393301Y-18751436D01*
X8393301Y-18751436D02*
X8383777Y-18732389D01*
X8383777Y-18732389D02*
X8374253Y-18694293D01*
X8374253Y-18694293D02*
X8374253Y-18646674D01*
X8374253Y-18646674D02*
X8383777Y-18608579D01*
X8383777Y-18608579D02*
X8393301Y-18589531D01*
X8393301Y-18589531D02*
X8402824Y-18580008D01*
X8402824Y-18580008D02*
X8421872Y-18570484D01*
X8574253Y-18751436D02*
X8583777Y-18760960D01*
X8583777Y-18760960D02*
X8574253Y-18770484D01*
X8574253Y-18770484D02*
X8564729Y-18760960D01*
X8564729Y-18760960D02*
X8574253Y-18751436D01*
X8574253Y-18751436D02*
X8574253Y-18770484D01*
X8650444Y-18570484D02*
X8774253Y-18570484D01*
X8774253Y-18570484D02*
X8707586Y-18646674D01*
X8707586Y-18646674D02*
X8736158Y-18646674D01*
X8736158Y-18646674D02*
X8755205Y-18656198D01*
X8755205Y-18656198D02*
X8764729Y-18665722D01*
X8764729Y-18665722D02*
X8774253Y-18684770D01*
X8774253Y-18684770D02*
X8774253Y-18732389D01*
X8774253Y-18732389D02*
X8764729Y-18751436D01*
X8764729Y-18751436D02*
X8755205Y-18760960D01*
X8755205Y-18760960D02*
X8736158Y-18770484D01*
X8736158Y-18770484D02*
X8679015Y-18770484D01*
X8679015Y-18770484D02*
X8659967Y-18760960D01*
X8659967Y-18760960D02*
X8650444Y-18751436D01*
X8898063Y-18570484D02*
X8917110Y-18570484D01*
X8917110Y-18570484D02*
X8936158Y-18580008D01*
X8936158Y-18580008D02*
X8945682Y-18589531D01*
X8945682Y-18589531D02*
X8955205Y-18608579D01*
X8955205Y-18608579D02*
X8964729Y-18646674D01*
X8964729Y-18646674D02*
X8964729Y-18694293D01*
X8964729Y-18694293D02*
X8955205Y-18732389D01*
X8955205Y-18732389D02*
X8945682Y-18751436D01*
X8945682Y-18751436D02*
X8936158Y-18760960D01*
X8936158Y-18760960D02*
X8917110Y-18770484D01*
X8917110Y-18770484D02*
X8898063Y-18770484D01*
X8898063Y-18770484D02*
X8879015Y-18760960D01*
X8879015Y-18760960D02*
X8869491Y-18751436D01*
X8869491Y-18751436D02*
X8859967Y-18732389D01*
X8859967Y-18732389D02*
X8850444Y-18694293D01*
X8850444Y-18694293D02*
X8850444Y-18646674D01*
X8850444Y-18646674D02*
X8859967Y-18608579D01*
X8859967Y-18608579D02*
X8869491Y-18589531D01*
X8869491Y-18589531D02*
X8879015Y-18580008D01*
X8879015Y-18580008D02*
X8898063Y-18570484D01*
X9088539Y-18570484D02*
X9107586Y-18570484D01*
X9107586Y-18570484D02*
X9126634Y-18580008D01*
X9126634Y-18580008D02*
X9136158Y-18589531D01*
X9136158Y-18589531D02*
X9145682Y-18608579D01*
X9145682Y-18608579D02*
X9155205Y-18646674D01*
X9155205Y-18646674D02*
X9155205Y-18694293D01*
X9155205Y-18694293D02*
X9145682Y-18732389D01*
X9145682Y-18732389D02*
X9136158Y-18751436D01*
X9136158Y-18751436D02*
X9126634Y-18760960D01*
X9126634Y-18760960D02*
X9107586Y-18770484D01*
X9107586Y-18770484D02*
X9088539Y-18770484D01*
X9088539Y-18770484D02*
X9069491Y-18760960D01*
X9069491Y-18760960D02*
X9059967Y-18751436D01*
X9059967Y-18751436D02*
X9050444Y-18732389D01*
X9050444Y-18732389D02*
X9040920Y-18694293D01*
X9040920Y-18694293D02*
X9040920Y-18646674D01*
X9040920Y-18646674D02*
X9050444Y-18608579D01*
X9050444Y-18608579D02*
X9059967Y-18589531D01*
X9059967Y-18589531D02*
X9069491Y-18580008D01*
X9069491Y-18580008D02*
X9088539Y-18570484D01*
X9240920Y-18770484D02*
X9240920Y-18637150D01*
X9240920Y-18656198D02*
X9250444Y-18646674D01*
X9250444Y-18646674D02*
X9269491Y-18637150D01*
X9269491Y-18637150D02*
X9298063Y-18637150D01*
X9298063Y-18637150D02*
X9317110Y-18646674D01*
X9317110Y-18646674D02*
X9326634Y-18665722D01*
X9326634Y-18665722D02*
X9326634Y-18770484D01*
X9326634Y-18665722D02*
X9336158Y-18646674D01*
X9336158Y-18646674D02*
X9355205Y-18637150D01*
X9355205Y-18637150D02*
X9383777Y-18637150D01*
X9383777Y-18637150D02*
X9402825Y-18646674D01*
X9402825Y-18646674D02*
X9412348Y-18665722D01*
X9412348Y-18665722D02*
X9412348Y-18770484D01*
X9507586Y-18770484D02*
X9507586Y-18637150D01*
X9507586Y-18656198D02*
X9517110Y-18646674D01*
X9517110Y-18646674D02*
X9536158Y-18637150D01*
X9536158Y-18637150D02*
X9564729Y-18637150D01*
X9564729Y-18637150D02*
X9583777Y-18646674D01*
X9583777Y-18646674D02*
X9593301Y-18665722D01*
X9593301Y-18665722D02*
X9593301Y-18770484D01*
X9593301Y-18665722D02*
X9602825Y-18646674D01*
X9602825Y-18646674D02*
X9621872Y-18637150D01*
X9621872Y-18637150D02*
X9650444Y-18637150D01*
X9650444Y-18637150D02*
X9669491Y-18646674D01*
X9669491Y-18646674D02*
X9679015Y-18665722D01*
X9679015Y-18665722D02*
X9679015Y-18770484D01*
X10069491Y-18560960D02*
X9898063Y-18818103D01*
X10326634Y-18570484D02*
X10345682Y-18570484D01*
X10345682Y-18570484D02*
X10364729Y-18580008D01*
X10364729Y-18580008D02*
X10374253Y-18589531D01*
X10374253Y-18589531D02*
X10383777Y-18608579D01*
X10383777Y-18608579D02*
X10393301Y-18646674D01*
X10393301Y-18646674D02*
X10393301Y-18694293D01*
X10393301Y-18694293D02*
X10383777Y-18732389D01*
X10383777Y-18732389D02*
X10374253Y-18751436D01*
X10374253Y-18751436D02*
X10364729Y-18760960D01*
X10364729Y-18760960D02*
X10345682Y-18770484D01*
X10345682Y-18770484D02*
X10326634Y-18770484D01*
X10326634Y-18770484D02*
X10307587Y-18760960D01*
X10307587Y-18760960D02*
X10298063Y-18751436D01*
X10298063Y-18751436D02*
X10288539Y-18732389D01*
X10288539Y-18732389D02*
X10279015Y-18694293D01*
X10279015Y-18694293D02*
X10279015Y-18646674D01*
X10279015Y-18646674D02*
X10288539Y-18608579D01*
X10288539Y-18608579D02*
X10298063Y-18589531D01*
X10298063Y-18589531D02*
X10307587Y-18580008D01*
X10307587Y-18580008D02*
X10326634Y-18570484D01*
X10479015Y-18751436D02*
X10488539Y-18760960D01*
X10488539Y-18760960D02*
X10479015Y-18770484D01*
X10479015Y-18770484D02*
X10469491Y-18760960D01*
X10469491Y-18760960D02*
X10479015Y-18751436D01*
X10479015Y-18751436D02*
X10479015Y-18770484D01*
X10612348Y-18570484D02*
X10631396Y-18570484D01*
X10631396Y-18570484D02*
X10650444Y-18580008D01*
X10650444Y-18580008D02*
X10659968Y-18589531D01*
X10659968Y-18589531D02*
X10669491Y-18608579D01*
X10669491Y-18608579D02*
X10679015Y-18646674D01*
X10679015Y-18646674D02*
X10679015Y-18694293D01*
X10679015Y-18694293D02*
X10669491Y-18732389D01*
X10669491Y-18732389D02*
X10659968Y-18751436D01*
X10659968Y-18751436D02*
X10650444Y-18760960D01*
X10650444Y-18760960D02*
X10631396Y-18770484D01*
X10631396Y-18770484D02*
X10612348Y-18770484D01*
X10612348Y-18770484D02*
X10593301Y-18760960D01*
X10593301Y-18760960D02*
X10583777Y-18751436D01*
X10583777Y-18751436D02*
X10574253Y-18732389D01*
X10574253Y-18732389D02*
X10564729Y-18694293D01*
X10564729Y-18694293D02*
X10564729Y-18646674D01*
X10564729Y-18646674D02*
X10574253Y-18608579D01*
X10574253Y-18608579D02*
X10583777Y-18589531D01*
X10583777Y-18589531D02*
X10593301Y-18580008D01*
X10593301Y-18580008D02*
X10612348Y-18570484D01*
X10869491Y-18770484D02*
X10755206Y-18770484D01*
X10812348Y-18770484D02*
X10812348Y-18570484D01*
X10812348Y-18570484D02*
X10793301Y-18599055D01*
X10793301Y-18599055D02*
X10774253Y-18618103D01*
X10774253Y-18618103D02*
X10755206Y-18627627D01*
X11059968Y-18770484D02*
X10945682Y-18770484D01*
X11002825Y-18770484D02*
X11002825Y-18570484D01*
X11002825Y-18570484D02*
X10983777Y-18599055D01*
X10983777Y-18599055D02*
X10964729Y-18618103D01*
X10964729Y-18618103D02*
X10945682Y-18627627D01*
X11174253Y-18656198D02*
X11155206Y-18646674D01*
X11155206Y-18646674D02*
X11145682Y-18637150D01*
X11145682Y-18637150D02*
X11136158Y-18618103D01*
X11136158Y-18618103D02*
X11136158Y-18608579D01*
X11136158Y-18608579D02*
X11145682Y-18589531D01*
X11145682Y-18589531D02*
X11155206Y-18580008D01*
X11155206Y-18580008D02*
X11174253Y-18570484D01*
X11174253Y-18570484D02*
X11212348Y-18570484D01*
X11212348Y-18570484D02*
X11231396Y-18580008D01*
X11231396Y-18580008D02*
X11240920Y-18589531D01*
X11240920Y-18589531D02*
X11250444Y-18608579D01*
X11250444Y-18608579D02*
X11250444Y-18618103D01*
X11250444Y-18618103D02*
X11240920Y-18637150D01*
X11240920Y-18637150D02*
X11231396Y-18646674D01*
X11231396Y-18646674D02*
X11212348Y-18656198D01*
X11212348Y-18656198D02*
X11174253Y-18656198D01*
X11174253Y-18656198D02*
X11155206Y-18665722D01*
X11155206Y-18665722D02*
X11145682Y-18675246D01*
X11145682Y-18675246D02*
X11136158Y-18694293D01*
X11136158Y-18694293D02*
X11136158Y-18732389D01*
X11136158Y-18732389D02*
X11145682Y-18751436D01*
X11145682Y-18751436D02*
X11155206Y-18760960D01*
X11155206Y-18760960D02*
X11174253Y-18770484D01*
X11174253Y-18770484D02*
X11212348Y-18770484D01*
X11212348Y-18770484D02*
X11231396Y-18760960D01*
X11231396Y-18760960D02*
X11240920Y-18751436D01*
X11240920Y-18751436D02*
X11250444Y-18732389D01*
X11250444Y-18732389D02*
X11250444Y-18694293D01*
X11250444Y-18694293D02*
X11240920Y-18675246D01*
X11240920Y-18675246D02*
X11231396Y-18665722D01*
X11231396Y-18665722D02*
X11212348Y-18656198D01*
X11326634Y-18570484D02*
X11326634Y-18608579D01*
X11402825Y-18570484D02*
X11402825Y-18608579D01*
X11698063Y-18846674D02*
X11688539Y-18837150D01*
X11688539Y-18837150D02*
X11669491Y-18808579D01*
X11669491Y-18808579D02*
X11659968Y-18789531D01*
X11659968Y-18789531D02*
X11650444Y-18760960D01*
X11650444Y-18760960D02*
X11640920Y-18713341D01*
X11640920Y-18713341D02*
X11640920Y-18675246D01*
X11640920Y-18675246D02*
X11650444Y-18627627D01*
X11650444Y-18627627D02*
X11659968Y-18599055D01*
X11659968Y-18599055D02*
X11669491Y-18580008D01*
X11669491Y-18580008D02*
X11688539Y-18551436D01*
X11688539Y-18551436D02*
X11698063Y-18541912D01*
X11879015Y-18770484D02*
X11764729Y-18770484D01*
X11821872Y-18770484D02*
X11821872Y-18570484D01*
X11821872Y-18570484D02*
X11802825Y-18599055D01*
X11802825Y-18599055D02*
X11783777Y-18618103D01*
X11783777Y-18618103D02*
X11764729Y-18627627D01*
X12002825Y-18570484D02*
X12021872Y-18570484D01*
X12021872Y-18570484D02*
X12040920Y-18580008D01*
X12040920Y-18580008D02*
X12050444Y-18589531D01*
X12050444Y-18589531D02*
X12059968Y-18608579D01*
X12059968Y-18608579D02*
X12069491Y-18646674D01*
X12069491Y-18646674D02*
X12069491Y-18694293D01*
X12069491Y-18694293D02*
X12059968Y-18732389D01*
X12059968Y-18732389D02*
X12050444Y-18751436D01*
X12050444Y-18751436D02*
X12040920Y-18760960D01*
X12040920Y-18760960D02*
X12021872Y-18770484D01*
X12021872Y-18770484D02*
X12002825Y-18770484D01*
X12002825Y-18770484D02*
X11983777Y-18760960D01*
X11983777Y-18760960D02*
X11974253Y-18751436D01*
X11974253Y-18751436D02*
X11964729Y-18732389D01*
X11964729Y-18732389D02*
X11955206Y-18694293D01*
X11955206Y-18694293D02*
X11955206Y-18646674D01*
X11955206Y-18646674D02*
X11964729Y-18608579D01*
X11964729Y-18608579D02*
X11974253Y-18589531D01*
X11974253Y-18589531D02*
X11983777Y-18580008D01*
X11983777Y-18580008D02*
X12002825Y-18570484D01*
X12240920Y-18570484D02*
X12202825Y-18570484D01*
X12202825Y-18570484D02*
X12183777Y-18580008D01*
X12183777Y-18580008D02*
X12174253Y-18589531D01*
X12174253Y-18589531D02*
X12155206Y-18618103D01*
X12155206Y-18618103D02*
X12145682Y-18656198D01*
X12145682Y-18656198D02*
X12145682Y-18732389D01*
X12145682Y-18732389D02*
X12155206Y-18751436D01*
X12155206Y-18751436D02*
X12164729Y-18760960D01*
X12164729Y-18760960D02*
X12183777Y-18770484D01*
X12183777Y-18770484D02*
X12221872Y-18770484D01*
X12221872Y-18770484D02*
X12240920Y-18760960D01*
X12240920Y-18760960D02*
X12250444Y-18751436D01*
X12250444Y-18751436D02*
X12259968Y-18732389D01*
X12259968Y-18732389D02*
X12259968Y-18684770D01*
X12259968Y-18684770D02*
X12250444Y-18665722D01*
X12250444Y-18665722D02*
X12240920Y-18656198D01*
X12240920Y-18656198D02*
X12221872Y-18646674D01*
X12221872Y-18646674D02*
X12183777Y-18646674D01*
X12183777Y-18646674D02*
X12164729Y-18656198D01*
X12164729Y-18656198D02*
X12155206Y-18665722D01*
X12155206Y-18665722D02*
X12145682Y-18684770D01*
X12498063Y-18770484D02*
X12498063Y-18570484D01*
X12583777Y-18770484D02*
X12583777Y-18665722D01*
X12583777Y-18665722D02*
X12574253Y-18646674D01*
X12574253Y-18646674D02*
X12555206Y-18637150D01*
X12555206Y-18637150D02*
X12526634Y-18637150D01*
X12526634Y-18637150D02*
X12507587Y-18646674D01*
X12507587Y-18646674D02*
X12498063Y-18656198D01*
X12707587Y-18770484D02*
X12688539Y-18760960D01*
X12688539Y-18760960D02*
X12679015Y-18751436D01*
X12679015Y-18751436D02*
X12669491Y-18732389D01*
X12669491Y-18732389D02*
X12669491Y-18675246D01*
X12669491Y-18675246D02*
X12679015Y-18656198D01*
X12679015Y-18656198D02*
X12688539Y-18646674D01*
X12688539Y-18646674D02*
X12707587Y-18637150D01*
X12707587Y-18637150D02*
X12736158Y-18637150D01*
X12736158Y-18637150D02*
X12755206Y-18646674D01*
X12755206Y-18646674D02*
X12764730Y-18656198D01*
X12764730Y-18656198D02*
X12774253Y-18675246D01*
X12774253Y-18675246D02*
X12774253Y-18732389D01*
X12774253Y-18732389D02*
X12764730Y-18751436D01*
X12764730Y-18751436D02*
X12755206Y-18760960D01*
X12755206Y-18760960D02*
X12736158Y-18770484D01*
X12736158Y-18770484D02*
X12707587Y-18770484D01*
X12888539Y-18770484D02*
X12869491Y-18760960D01*
X12869491Y-18760960D02*
X12859968Y-18741912D01*
X12859968Y-18741912D02*
X12859968Y-18570484D01*
X13040920Y-18760960D02*
X13021872Y-18770484D01*
X13021872Y-18770484D02*
X12983777Y-18770484D01*
X12983777Y-18770484D02*
X12964730Y-18760960D01*
X12964730Y-18760960D02*
X12955206Y-18741912D01*
X12955206Y-18741912D02*
X12955206Y-18665722D01*
X12955206Y-18665722D02*
X12964730Y-18646674D01*
X12964730Y-18646674D02*
X12983777Y-18637150D01*
X12983777Y-18637150D02*
X13021872Y-18637150D01*
X13021872Y-18637150D02*
X13040920Y-18646674D01*
X13040920Y-18646674D02*
X13050444Y-18665722D01*
X13050444Y-18665722D02*
X13050444Y-18684770D01*
X13050444Y-18684770D02*
X12955206Y-18703817D01*
X13126634Y-18760960D02*
X13145682Y-18770484D01*
X13145682Y-18770484D02*
X13183777Y-18770484D01*
X13183777Y-18770484D02*
X13202825Y-18760960D01*
X13202825Y-18760960D02*
X13212349Y-18741912D01*
X13212349Y-18741912D02*
X13212349Y-18732389D01*
X13212349Y-18732389D02*
X13202825Y-18713341D01*
X13202825Y-18713341D02*
X13183777Y-18703817D01*
X13183777Y-18703817D02*
X13155206Y-18703817D01*
X13155206Y-18703817D02*
X13136158Y-18694293D01*
X13136158Y-18694293D02*
X13126634Y-18675246D01*
X13126634Y-18675246D02*
X13126634Y-18665722D01*
X13126634Y-18665722D02*
X13136158Y-18646674D01*
X13136158Y-18646674D02*
X13155206Y-18637150D01*
X13155206Y-18637150D02*
X13183777Y-18637150D01*
X13183777Y-18637150D02*
X13202825Y-18646674D01*
X13279015Y-18846674D02*
X13288539Y-18837150D01*
X13288539Y-18837150D02*
X13307587Y-18808579D01*
X13307587Y-18808579D02*
X13317111Y-18789531D01*
X13317111Y-18789531D02*
X13326634Y-18760960D01*
X13326634Y-18760960D02*
X13336158Y-18713341D01*
X13336158Y-18713341D02*
X13336158Y-18675246D01*
X13336158Y-18675246D02*
X13326634Y-18627627D01*
X13326634Y-18627627D02*
X13317111Y-18599055D01*
X13317111Y-18599055D02*
X13307587Y-18580008D01*
X13307587Y-18580008D02*
X13288539Y-18551436D01*
X13288539Y-18551436D02*
X13279015Y-18541912D01*
D10*
X8123000Y-18943000D02*
G75*
G03*
X8123000Y-18943000I-30000J0D01*
G01*
D11*
X8421872Y-18834484D02*
X8440920Y-18834484D01*
X8440920Y-18834484D02*
X8459967Y-18844008D01*
X8459967Y-18844008D02*
X8469491Y-18853531D01*
X8469491Y-18853531D02*
X8479015Y-18872579D01*
X8479015Y-18872579D02*
X8488539Y-18910674D01*
X8488539Y-18910674D02*
X8488539Y-18958293D01*
X8488539Y-18958293D02*
X8479015Y-18996389D01*
X8479015Y-18996389D02*
X8469491Y-19015436D01*
X8469491Y-19015436D02*
X8459967Y-19024960D01*
X8459967Y-19024960D02*
X8440920Y-19034484D01*
X8440920Y-19034484D02*
X8421872Y-19034484D01*
X8421872Y-19034484D02*
X8402824Y-19024960D01*
X8402824Y-19024960D02*
X8393301Y-19015436D01*
X8393301Y-19015436D02*
X8383777Y-18996389D01*
X8383777Y-18996389D02*
X8374253Y-18958293D01*
X8374253Y-18958293D02*
X8374253Y-18910674D01*
X8374253Y-18910674D02*
X8383777Y-18872579D01*
X8383777Y-18872579D02*
X8393301Y-18853531D01*
X8393301Y-18853531D02*
X8402824Y-18844008D01*
X8402824Y-18844008D02*
X8421872Y-18834484D01*
X8574253Y-19015436D02*
X8583777Y-19024960D01*
X8583777Y-19024960D02*
X8574253Y-19034484D01*
X8574253Y-19034484D02*
X8564729Y-19024960D01*
X8564729Y-19024960D02*
X8574253Y-19015436D01*
X8574253Y-19015436D02*
X8574253Y-19034484D01*
X8755205Y-18834484D02*
X8717110Y-18834484D01*
X8717110Y-18834484D02*
X8698063Y-18844008D01*
X8698063Y-18844008D02*
X8688539Y-18853531D01*
X8688539Y-18853531D02*
X8669491Y-18882103D01*
X8669491Y-18882103D02*
X8659967Y-18920198D01*
X8659967Y-18920198D02*
X8659967Y-18996389D01*
X8659967Y-18996389D02*
X8669491Y-19015436D01*
X8669491Y-19015436D02*
X8679015Y-19024960D01*
X8679015Y-19024960D02*
X8698063Y-19034484D01*
X8698063Y-19034484D02*
X8736158Y-19034484D01*
X8736158Y-19034484D02*
X8755205Y-19024960D01*
X8755205Y-19024960D02*
X8764729Y-19015436D01*
X8764729Y-19015436D02*
X8774253Y-18996389D01*
X8774253Y-18996389D02*
X8774253Y-18948770D01*
X8774253Y-18948770D02*
X8764729Y-18929722D01*
X8764729Y-18929722D02*
X8755205Y-18920198D01*
X8755205Y-18920198D02*
X8736158Y-18910674D01*
X8736158Y-18910674D02*
X8698063Y-18910674D01*
X8698063Y-18910674D02*
X8679015Y-18920198D01*
X8679015Y-18920198D02*
X8669491Y-18929722D01*
X8669491Y-18929722D02*
X8659967Y-18948770D01*
X8898063Y-18834484D02*
X8917110Y-18834484D01*
X8917110Y-18834484D02*
X8936158Y-18844008D01*
X8936158Y-18844008D02*
X8945682Y-18853531D01*
X8945682Y-18853531D02*
X8955205Y-18872579D01*
X8955205Y-18872579D02*
X8964729Y-18910674D01*
X8964729Y-18910674D02*
X8964729Y-18958293D01*
X8964729Y-18958293D02*
X8955205Y-18996389D01*
X8955205Y-18996389D02*
X8945682Y-19015436D01*
X8945682Y-19015436D02*
X8936158Y-19024960D01*
X8936158Y-19024960D02*
X8917110Y-19034484D01*
X8917110Y-19034484D02*
X8898063Y-19034484D01*
X8898063Y-19034484D02*
X8879015Y-19024960D01*
X8879015Y-19024960D02*
X8869491Y-19015436D01*
X8869491Y-19015436D02*
X8859967Y-18996389D01*
X8859967Y-18996389D02*
X8850444Y-18958293D01*
X8850444Y-18958293D02*
X8850444Y-18910674D01*
X8850444Y-18910674D02*
X8859967Y-18872579D01*
X8859967Y-18872579D02*
X8869491Y-18853531D01*
X8869491Y-18853531D02*
X8879015Y-18844008D01*
X8879015Y-18844008D02*
X8898063Y-18834484D01*
X9088539Y-18834484D02*
X9107586Y-18834484D01*
X9107586Y-18834484D02*
X9126634Y-18844008D01*
X9126634Y-18844008D02*
X9136158Y-18853531D01*
X9136158Y-18853531D02*
X9145682Y-18872579D01*
X9145682Y-18872579D02*
X9155205Y-18910674D01*
X9155205Y-18910674D02*
X9155205Y-18958293D01*
X9155205Y-18958293D02*
X9145682Y-18996389D01*
X9145682Y-18996389D02*
X9136158Y-19015436D01*
X9136158Y-19015436D02*
X9126634Y-19024960D01*
X9126634Y-19024960D02*
X9107586Y-19034484D01*
X9107586Y-19034484D02*
X9088539Y-19034484D01*
X9088539Y-19034484D02*
X9069491Y-19024960D01*
X9069491Y-19024960D02*
X9059967Y-19015436D01*
X9059967Y-19015436D02*
X9050444Y-18996389D01*
X9050444Y-18996389D02*
X9040920Y-18958293D01*
X9040920Y-18958293D02*
X9040920Y-18910674D01*
X9040920Y-18910674D02*
X9050444Y-18872579D01*
X9050444Y-18872579D02*
X9059967Y-18853531D01*
X9059967Y-18853531D02*
X9069491Y-18844008D01*
X9069491Y-18844008D02*
X9088539Y-18834484D01*
X9240920Y-19034484D02*
X9240920Y-18901150D01*
X9240920Y-18920198D02*
X9250444Y-18910674D01*
X9250444Y-18910674D02*
X9269491Y-18901150D01*
X9269491Y-18901150D02*
X9298063Y-18901150D01*
X9298063Y-18901150D02*
X9317110Y-18910674D01*
X9317110Y-18910674D02*
X9326634Y-18929722D01*
X9326634Y-18929722D02*
X9326634Y-19034484D01*
X9326634Y-18929722D02*
X9336158Y-18910674D01*
X9336158Y-18910674D02*
X9355205Y-18901150D01*
X9355205Y-18901150D02*
X9383777Y-18901150D01*
X9383777Y-18901150D02*
X9402825Y-18910674D01*
X9402825Y-18910674D02*
X9412348Y-18929722D01*
X9412348Y-18929722D02*
X9412348Y-19034484D01*
X9507586Y-19034484D02*
X9507586Y-18901150D01*
X9507586Y-18920198D02*
X9517110Y-18910674D01*
X9517110Y-18910674D02*
X9536158Y-18901150D01*
X9536158Y-18901150D02*
X9564729Y-18901150D01*
X9564729Y-18901150D02*
X9583777Y-18910674D01*
X9583777Y-18910674D02*
X9593301Y-18929722D01*
X9593301Y-18929722D02*
X9593301Y-19034484D01*
X9593301Y-18929722D02*
X9602825Y-18910674D01*
X9602825Y-18910674D02*
X9621872Y-18901150D01*
X9621872Y-18901150D02*
X9650444Y-18901150D01*
X9650444Y-18901150D02*
X9669491Y-18910674D01*
X9669491Y-18910674D02*
X9679015Y-18929722D01*
X9679015Y-18929722D02*
X9679015Y-19034484D01*
X10069491Y-18824960D02*
X9898063Y-19082103D01*
X10326634Y-18834484D02*
X10345682Y-18834484D01*
X10345682Y-18834484D02*
X10364729Y-18844008D01*
X10364729Y-18844008D02*
X10374253Y-18853531D01*
X10374253Y-18853531D02*
X10383777Y-18872579D01*
X10383777Y-18872579D02*
X10393301Y-18910674D01*
X10393301Y-18910674D02*
X10393301Y-18958293D01*
X10393301Y-18958293D02*
X10383777Y-18996389D01*
X10383777Y-18996389D02*
X10374253Y-19015436D01*
X10374253Y-19015436D02*
X10364729Y-19024960D01*
X10364729Y-19024960D02*
X10345682Y-19034484D01*
X10345682Y-19034484D02*
X10326634Y-19034484D01*
X10326634Y-19034484D02*
X10307587Y-19024960D01*
X10307587Y-19024960D02*
X10298063Y-19015436D01*
X10298063Y-19015436D02*
X10288539Y-18996389D01*
X10288539Y-18996389D02*
X10279015Y-18958293D01*
X10279015Y-18958293D02*
X10279015Y-18910674D01*
X10279015Y-18910674D02*
X10288539Y-18872579D01*
X10288539Y-18872579D02*
X10298063Y-18853531D01*
X10298063Y-18853531D02*
X10307587Y-18844008D01*
X10307587Y-18844008D02*
X10326634Y-18834484D01*
X10479015Y-19015436D02*
X10488539Y-19024960D01*
X10488539Y-19024960D02*
X10479015Y-19034484D01*
X10479015Y-19034484D02*
X10469491Y-19024960D01*
X10469491Y-19024960D02*
X10479015Y-19015436D01*
X10479015Y-19015436D02*
X10479015Y-19034484D01*
X10612348Y-18834484D02*
X10631396Y-18834484D01*
X10631396Y-18834484D02*
X10650444Y-18844008D01*
X10650444Y-18844008D02*
X10659968Y-18853531D01*
X10659968Y-18853531D02*
X10669491Y-18872579D01*
X10669491Y-18872579D02*
X10679015Y-18910674D01*
X10679015Y-18910674D02*
X10679015Y-18958293D01*
X10679015Y-18958293D02*
X10669491Y-18996389D01*
X10669491Y-18996389D02*
X10659968Y-19015436D01*
X10659968Y-19015436D02*
X10650444Y-19024960D01*
X10650444Y-19024960D02*
X10631396Y-19034484D01*
X10631396Y-19034484D02*
X10612348Y-19034484D01*
X10612348Y-19034484D02*
X10593301Y-19024960D01*
X10593301Y-19024960D02*
X10583777Y-19015436D01*
X10583777Y-19015436D02*
X10574253Y-18996389D01*
X10574253Y-18996389D02*
X10564729Y-18958293D01*
X10564729Y-18958293D02*
X10564729Y-18910674D01*
X10564729Y-18910674D02*
X10574253Y-18872579D01*
X10574253Y-18872579D02*
X10583777Y-18853531D01*
X10583777Y-18853531D02*
X10593301Y-18844008D01*
X10593301Y-18844008D02*
X10612348Y-18834484D01*
X10755206Y-18853531D02*
X10764729Y-18844008D01*
X10764729Y-18844008D02*
X10783777Y-18834484D01*
X10783777Y-18834484D02*
X10831396Y-18834484D01*
X10831396Y-18834484D02*
X10850444Y-18844008D01*
X10850444Y-18844008D02*
X10859968Y-18853531D01*
X10859968Y-18853531D02*
X10869491Y-18872579D01*
X10869491Y-18872579D02*
X10869491Y-18891627D01*
X10869491Y-18891627D02*
X10859968Y-18920198D01*
X10859968Y-18920198D02*
X10745682Y-19034484D01*
X10745682Y-19034484D02*
X10869491Y-19034484D01*
X10936158Y-18834484D02*
X11059968Y-18834484D01*
X11059968Y-18834484D02*
X10993301Y-18910674D01*
X10993301Y-18910674D02*
X11021872Y-18910674D01*
X11021872Y-18910674D02*
X11040920Y-18920198D01*
X11040920Y-18920198D02*
X11050444Y-18929722D01*
X11050444Y-18929722D02*
X11059968Y-18948770D01*
X11059968Y-18948770D02*
X11059968Y-18996389D01*
X11059968Y-18996389D02*
X11050444Y-19015436D01*
X11050444Y-19015436D02*
X11040920Y-19024960D01*
X11040920Y-19024960D02*
X11021872Y-19034484D01*
X11021872Y-19034484D02*
X10964729Y-19034484D01*
X10964729Y-19034484D02*
X10945682Y-19024960D01*
X10945682Y-19024960D02*
X10936158Y-19015436D01*
X11231396Y-18834484D02*
X11193301Y-18834484D01*
X11193301Y-18834484D02*
X11174253Y-18844008D01*
X11174253Y-18844008D02*
X11164729Y-18853531D01*
X11164729Y-18853531D02*
X11145682Y-18882103D01*
X11145682Y-18882103D02*
X11136158Y-18920198D01*
X11136158Y-18920198D02*
X11136158Y-18996389D01*
X11136158Y-18996389D02*
X11145682Y-19015436D01*
X11145682Y-19015436D02*
X11155206Y-19024960D01*
X11155206Y-19024960D02*
X11174253Y-19034484D01*
X11174253Y-19034484D02*
X11212348Y-19034484D01*
X11212348Y-19034484D02*
X11231396Y-19024960D01*
X11231396Y-19024960D02*
X11240920Y-19015436D01*
X11240920Y-19015436D02*
X11250444Y-18996389D01*
X11250444Y-18996389D02*
X11250444Y-18948770D01*
X11250444Y-18948770D02*
X11240920Y-18929722D01*
X11240920Y-18929722D02*
X11231396Y-18920198D01*
X11231396Y-18920198D02*
X11212348Y-18910674D01*
X11212348Y-18910674D02*
X11174253Y-18910674D01*
X11174253Y-18910674D02*
X11155206Y-18920198D01*
X11155206Y-18920198D02*
X11145682Y-18929722D01*
X11145682Y-18929722D02*
X11136158Y-18948770D01*
X11326634Y-18834484D02*
X11326634Y-18872579D01*
X11402825Y-18834484D02*
X11402825Y-18872579D01*
X11698063Y-19110674D02*
X11688539Y-19101150D01*
X11688539Y-19101150D02*
X11669491Y-19072579D01*
X11669491Y-19072579D02*
X11659968Y-19053531D01*
X11659968Y-19053531D02*
X11650444Y-19024960D01*
X11650444Y-19024960D02*
X11640920Y-18977341D01*
X11640920Y-18977341D02*
X11640920Y-18939246D01*
X11640920Y-18939246D02*
X11650444Y-18891627D01*
X11650444Y-18891627D02*
X11659968Y-18863055D01*
X11659968Y-18863055D02*
X11669491Y-18844008D01*
X11669491Y-18844008D02*
X11688539Y-18815436D01*
X11688539Y-18815436D02*
X11698063Y-18805912D01*
X11812348Y-18834484D02*
X11831396Y-18834484D01*
X11831396Y-18834484D02*
X11850444Y-18844008D01*
X11850444Y-18844008D02*
X11859968Y-18853531D01*
X11859968Y-18853531D02*
X11869491Y-18872579D01*
X11869491Y-18872579D02*
X11879015Y-18910674D01*
X11879015Y-18910674D02*
X11879015Y-18958293D01*
X11879015Y-18958293D02*
X11869491Y-18996389D01*
X11869491Y-18996389D02*
X11859968Y-19015436D01*
X11859968Y-19015436D02*
X11850444Y-19024960D01*
X11850444Y-19024960D02*
X11831396Y-19034484D01*
X11831396Y-19034484D02*
X11812348Y-19034484D01*
X11812348Y-19034484D02*
X11793301Y-19024960D01*
X11793301Y-19024960D02*
X11783777Y-19015436D01*
X11783777Y-19015436D02*
X11774253Y-18996389D01*
X11774253Y-18996389D02*
X11764729Y-18958293D01*
X11764729Y-18958293D02*
X11764729Y-18910674D01*
X11764729Y-18910674D02*
X11774253Y-18872579D01*
X11774253Y-18872579D02*
X11783777Y-18853531D01*
X11783777Y-18853531D02*
X11793301Y-18844008D01*
X11793301Y-18844008D02*
X11812348Y-18834484D01*
X12117110Y-19034484D02*
X12117110Y-18834484D01*
X12202825Y-19034484D02*
X12202825Y-18929722D01*
X12202825Y-18929722D02*
X12193301Y-18910674D01*
X12193301Y-18910674D02*
X12174253Y-18901150D01*
X12174253Y-18901150D02*
X12145682Y-18901150D01*
X12145682Y-18901150D02*
X12126634Y-18910674D01*
X12126634Y-18910674D02*
X12117110Y-18920198D01*
X12326634Y-19034484D02*
X12307587Y-19024960D01*
X12307587Y-19024960D02*
X12298063Y-19015436D01*
X12298063Y-19015436D02*
X12288539Y-18996389D01*
X12288539Y-18996389D02*
X12288539Y-18939246D01*
X12288539Y-18939246D02*
X12298063Y-18920198D01*
X12298063Y-18920198D02*
X12307587Y-18910674D01*
X12307587Y-18910674D02*
X12326634Y-18901150D01*
X12326634Y-18901150D02*
X12355206Y-18901150D01*
X12355206Y-18901150D02*
X12374253Y-18910674D01*
X12374253Y-18910674D02*
X12383777Y-18920198D01*
X12383777Y-18920198D02*
X12393301Y-18939246D01*
X12393301Y-18939246D02*
X12393301Y-18996389D01*
X12393301Y-18996389D02*
X12383777Y-19015436D01*
X12383777Y-19015436D02*
X12374253Y-19024960D01*
X12374253Y-19024960D02*
X12355206Y-19034484D01*
X12355206Y-19034484D02*
X12326634Y-19034484D01*
X12507587Y-19034484D02*
X12488539Y-19024960D01*
X12488539Y-19024960D02*
X12479015Y-19005912D01*
X12479015Y-19005912D02*
X12479015Y-18834484D01*
X12659968Y-19024960D02*
X12640920Y-19034484D01*
X12640920Y-19034484D02*
X12602825Y-19034484D01*
X12602825Y-19034484D02*
X12583777Y-19024960D01*
X12583777Y-19024960D02*
X12574253Y-19005912D01*
X12574253Y-19005912D02*
X12574253Y-18929722D01*
X12574253Y-18929722D02*
X12583777Y-18910674D01*
X12583777Y-18910674D02*
X12602825Y-18901150D01*
X12602825Y-18901150D02*
X12640920Y-18901150D01*
X12640920Y-18901150D02*
X12659968Y-18910674D01*
X12659968Y-18910674D02*
X12669491Y-18929722D01*
X12669491Y-18929722D02*
X12669491Y-18948770D01*
X12669491Y-18948770D02*
X12574253Y-18967817D01*
X12745682Y-19024960D02*
X12764730Y-19034484D01*
X12764730Y-19034484D02*
X12802825Y-19034484D01*
X12802825Y-19034484D02*
X12821872Y-19024960D01*
X12821872Y-19024960D02*
X12831396Y-19005912D01*
X12831396Y-19005912D02*
X12831396Y-18996389D01*
X12831396Y-18996389D02*
X12821872Y-18977341D01*
X12821872Y-18977341D02*
X12802825Y-18967817D01*
X12802825Y-18967817D02*
X12774253Y-18967817D01*
X12774253Y-18967817D02*
X12755206Y-18958293D01*
X12755206Y-18958293D02*
X12745682Y-18939246D01*
X12745682Y-18939246D02*
X12745682Y-18929722D01*
X12745682Y-18929722D02*
X12755206Y-18910674D01*
X12755206Y-18910674D02*
X12774253Y-18901150D01*
X12774253Y-18901150D02*
X12802825Y-18901150D01*
X12802825Y-18901150D02*
X12821872Y-18910674D01*
X13069492Y-18958293D02*
X13221873Y-18958293D01*
X13145682Y-19034484D02*
X13145682Y-18882103D01*
X13555206Y-18901150D02*
X13555206Y-19034484D01*
X13507587Y-18824960D02*
X13459968Y-18967817D01*
X13459968Y-18967817D02*
X13583777Y-18967817D01*
X13802825Y-19024960D02*
X13821873Y-19034484D01*
X13821873Y-19034484D02*
X13859968Y-19034484D01*
X13859968Y-19034484D02*
X13879015Y-19024960D01*
X13879015Y-19024960D02*
X13888539Y-19005912D01*
X13888539Y-19005912D02*
X13888539Y-18996389D01*
X13888539Y-18996389D02*
X13879015Y-18977341D01*
X13879015Y-18977341D02*
X13859968Y-18967817D01*
X13859968Y-18967817D02*
X13831396Y-18967817D01*
X13831396Y-18967817D02*
X13812349Y-18958293D01*
X13812349Y-18958293D02*
X13802825Y-18939246D01*
X13802825Y-18939246D02*
X13802825Y-18929722D01*
X13802825Y-18929722D02*
X13812349Y-18910674D01*
X13812349Y-18910674D02*
X13831396Y-18901150D01*
X13831396Y-18901150D02*
X13859968Y-18901150D01*
X13859968Y-18901150D02*
X13879015Y-18910674D01*
X14002825Y-19034484D02*
X13983777Y-19024960D01*
X13983777Y-19024960D02*
X13974254Y-19005912D01*
X13974254Y-19005912D02*
X13974254Y-18834484D01*
X14107587Y-19034484D02*
X14088539Y-19024960D01*
X14088539Y-19024960D02*
X14079015Y-19015436D01*
X14079015Y-19015436D02*
X14069492Y-18996389D01*
X14069492Y-18996389D02*
X14069492Y-18939246D01*
X14069492Y-18939246D02*
X14079015Y-18920198D01*
X14079015Y-18920198D02*
X14088539Y-18910674D01*
X14088539Y-18910674D02*
X14107587Y-18901150D01*
X14107587Y-18901150D02*
X14136158Y-18901150D01*
X14136158Y-18901150D02*
X14155206Y-18910674D01*
X14155206Y-18910674D02*
X14164730Y-18920198D01*
X14164730Y-18920198D02*
X14174254Y-18939246D01*
X14174254Y-18939246D02*
X14174254Y-18996389D01*
X14174254Y-18996389D02*
X14164730Y-19015436D01*
X14164730Y-19015436D02*
X14155206Y-19024960D01*
X14155206Y-19024960D02*
X14136158Y-19034484D01*
X14136158Y-19034484D02*
X14107587Y-19034484D01*
X14231396Y-18901150D02*
X14307587Y-18901150D01*
X14259968Y-18834484D02*
X14259968Y-19005912D01*
X14259968Y-19005912D02*
X14269492Y-19024960D01*
X14269492Y-19024960D02*
X14288539Y-19034484D01*
X14288539Y-19034484D02*
X14307587Y-19034484D01*
X14364730Y-19024960D02*
X14383777Y-19034484D01*
X14383777Y-19034484D02*
X14421873Y-19034484D01*
X14421873Y-19034484D02*
X14440920Y-19024960D01*
X14440920Y-19024960D02*
X14450444Y-19005912D01*
X14450444Y-19005912D02*
X14450444Y-18996389D01*
X14450444Y-18996389D02*
X14440920Y-18977341D01*
X14440920Y-18977341D02*
X14421873Y-18967817D01*
X14421873Y-18967817D02*
X14393301Y-18967817D01*
X14393301Y-18967817D02*
X14374254Y-18958293D01*
X14374254Y-18958293D02*
X14364730Y-18939246D01*
X14364730Y-18939246D02*
X14364730Y-18929722D01*
X14364730Y-18929722D02*
X14374254Y-18910674D01*
X14374254Y-18910674D02*
X14393301Y-18901150D01*
X14393301Y-18901150D02*
X14421873Y-18901150D01*
X14421873Y-18901150D02*
X14440920Y-18910674D01*
X14517111Y-19110674D02*
X14526635Y-19101150D01*
X14526635Y-19101150D02*
X14545682Y-19072579D01*
X14545682Y-19072579D02*
X14555206Y-19053531D01*
X14555206Y-19053531D02*
X14564730Y-19024960D01*
X14564730Y-19024960D02*
X14574254Y-18977341D01*
X14574254Y-18977341D02*
X14574254Y-18939246D01*
X14574254Y-18939246D02*
X14564730Y-18891627D01*
X14564730Y-18891627D02*
X14555206Y-18863055D01*
X14555206Y-18863055D02*
X14545682Y-18844008D01*
X14545682Y-18844008D02*
X14526635Y-18815436D01*
X14526635Y-18815436D02*
X14517111Y-18805912D01*
D10*
X8073000Y-19157000D02*
X8073000Y-19257000D01*
X8023000Y-19207000D02*
X8123000Y-19207000D01*
D11*
X8488539Y-19298484D02*
X8374253Y-19298484D01*
X8431396Y-19298484D02*
X8431396Y-19098484D01*
X8431396Y-19098484D02*
X8412348Y-19127055D01*
X8412348Y-19127055D02*
X8393301Y-19146103D01*
X8393301Y-19146103D02*
X8374253Y-19155627D01*
X8574253Y-19279436D02*
X8583777Y-19288960D01*
X8583777Y-19288960D02*
X8574253Y-19298484D01*
X8574253Y-19298484D02*
X8564729Y-19288960D01*
X8564729Y-19288960D02*
X8574253Y-19279436D01*
X8574253Y-19279436D02*
X8574253Y-19298484D01*
X8707586Y-19098484D02*
X8726634Y-19098484D01*
X8726634Y-19098484D02*
X8745682Y-19108008D01*
X8745682Y-19108008D02*
X8755205Y-19117531D01*
X8755205Y-19117531D02*
X8764729Y-19136579D01*
X8764729Y-19136579D02*
X8774253Y-19174674D01*
X8774253Y-19174674D02*
X8774253Y-19222293D01*
X8774253Y-19222293D02*
X8764729Y-19260389D01*
X8764729Y-19260389D02*
X8755205Y-19279436D01*
X8755205Y-19279436D02*
X8745682Y-19288960D01*
X8745682Y-19288960D02*
X8726634Y-19298484D01*
X8726634Y-19298484D02*
X8707586Y-19298484D01*
X8707586Y-19298484D02*
X8688539Y-19288960D01*
X8688539Y-19288960D02*
X8679015Y-19279436D01*
X8679015Y-19279436D02*
X8669491Y-19260389D01*
X8669491Y-19260389D02*
X8659967Y-19222293D01*
X8659967Y-19222293D02*
X8659967Y-19174674D01*
X8659967Y-19174674D02*
X8669491Y-19136579D01*
X8669491Y-19136579D02*
X8679015Y-19117531D01*
X8679015Y-19117531D02*
X8688539Y-19108008D01*
X8688539Y-19108008D02*
X8707586Y-19098484D01*
X8898063Y-19098484D02*
X8917110Y-19098484D01*
X8917110Y-19098484D02*
X8936158Y-19108008D01*
X8936158Y-19108008D02*
X8945682Y-19117531D01*
X8945682Y-19117531D02*
X8955205Y-19136579D01*
X8955205Y-19136579D02*
X8964729Y-19174674D01*
X8964729Y-19174674D02*
X8964729Y-19222293D01*
X8964729Y-19222293D02*
X8955205Y-19260389D01*
X8955205Y-19260389D02*
X8945682Y-19279436D01*
X8945682Y-19279436D02*
X8936158Y-19288960D01*
X8936158Y-19288960D02*
X8917110Y-19298484D01*
X8917110Y-19298484D02*
X8898063Y-19298484D01*
X8898063Y-19298484D02*
X8879015Y-19288960D01*
X8879015Y-19288960D02*
X8869491Y-19279436D01*
X8869491Y-19279436D02*
X8859967Y-19260389D01*
X8859967Y-19260389D02*
X8850444Y-19222293D01*
X8850444Y-19222293D02*
X8850444Y-19174674D01*
X8850444Y-19174674D02*
X8859967Y-19136579D01*
X8859967Y-19136579D02*
X8869491Y-19117531D01*
X8869491Y-19117531D02*
X8879015Y-19108008D01*
X8879015Y-19108008D02*
X8898063Y-19098484D01*
X9088539Y-19098484D02*
X9107586Y-19098484D01*
X9107586Y-19098484D02*
X9126634Y-19108008D01*
X9126634Y-19108008D02*
X9136158Y-19117531D01*
X9136158Y-19117531D02*
X9145682Y-19136579D01*
X9145682Y-19136579D02*
X9155205Y-19174674D01*
X9155205Y-19174674D02*
X9155205Y-19222293D01*
X9155205Y-19222293D02*
X9145682Y-19260389D01*
X9145682Y-19260389D02*
X9136158Y-19279436D01*
X9136158Y-19279436D02*
X9126634Y-19288960D01*
X9126634Y-19288960D02*
X9107586Y-19298484D01*
X9107586Y-19298484D02*
X9088539Y-19298484D01*
X9088539Y-19298484D02*
X9069491Y-19288960D01*
X9069491Y-19288960D02*
X9059967Y-19279436D01*
X9059967Y-19279436D02*
X9050444Y-19260389D01*
X9050444Y-19260389D02*
X9040920Y-19222293D01*
X9040920Y-19222293D02*
X9040920Y-19174674D01*
X9040920Y-19174674D02*
X9050444Y-19136579D01*
X9050444Y-19136579D02*
X9059967Y-19117531D01*
X9059967Y-19117531D02*
X9069491Y-19108008D01*
X9069491Y-19108008D02*
X9088539Y-19098484D01*
X9240920Y-19298484D02*
X9240920Y-19165150D01*
X9240920Y-19184198D02*
X9250444Y-19174674D01*
X9250444Y-19174674D02*
X9269491Y-19165150D01*
X9269491Y-19165150D02*
X9298063Y-19165150D01*
X9298063Y-19165150D02*
X9317110Y-19174674D01*
X9317110Y-19174674D02*
X9326634Y-19193722D01*
X9326634Y-19193722D02*
X9326634Y-19298484D01*
X9326634Y-19193722D02*
X9336158Y-19174674D01*
X9336158Y-19174674D02*
X9355205Y-19165150D01*
X9355205Y-19165150D02*
X9383777Y-19165150D01*
X9383777Y-19165150D02*
X9402825Y-19174674D01*
X9402825Y-19174674D02*
X9412348Y-19193722D01*
X9412348Y-19193722D02*
X9412348Y-19298484D01*
X9507586Y-19298484D02*
X9507586Y-19165150D01*
X9507586Y-19184198D02*
X9517110Y-19174674D01*
X9517110Y-19174674D02*
X9536158Y-19165150D01*
X9536158Y-19165150D02*
X9564729Y-19165150D01*
X9564729Y-19165150D02*
X9583777Y-19174674D01*
X9583777Y-19174674D02*
X9593301Y-19193722D01*
X9593301Y-19193722D02*
X9593301Y-19298484D01*
X9593301Y-19193722D02*
X9602825Y-19174674D01*
X9602825Y-19174674D02*
X9621872Y-19165150D01*
X9621872Y-19165150D02*
X9650444Y-19165150D01*
X9650444Y-19165150D02*
X9669491Y-19174674D01*
X9669491Y-19174674D02*
X9679015Y-19193722D01*
X9679015Y-19193722D02*
X9679015Y-19298484D01*
X10069491Y-19088960D02*
X9898063Y-19346103D01*
X10326634Y-19098484D02*
X10345682Y-19098484D01*
X10345682Y-19098484D02*
X10364729Y-19108008D01*
X10364729Y-19108008D02*
X10374253Y-19117531D01*
X10374253Y-19117531D02*
X10383777Y-19136579D01*
X10383777Y-19136579D02*
X10393301Y-19174674D01*
X10393301Y-19174674D02*
X10393301Y-19222293D01*
X10393301Y-19222293D02*
X10383777Y-19260389D01*
X10383777Y-19260389D02*
X10374253Y-19279436D01*
X10374253Y-19279436D02*
X10364729Y-19288960D01*
X10364729Y-19288960D02*
X10345682Y-19298484D01*
X10345682Y-19298484D02*
X10326634Y-19298484D01*
X10326634Y-19298484D02*
X10307587Y-19288960D01*
X10307587Y-19288960D02*
X10298063Y-19279436D01*
X10298063Y-19279436D02*
X10288539Y-19260389D01*
X10288539Y-19260389D02*
X10279015Y-19222293D01*
X10279015Y-19222293D02*
X10279015Y-19174674D01*
X10279015Y-19174674D02*
X10288539Y-19136579D01*
X10288539Y-19136579D02*
X10298063Y-19117531D01*
X10298063Y-19117531D02*
X10307587Y-19108008D01*
X10307587Y-19108008D02*
X10326634Y-19098484D01*
X10479015Y-19279436D02*
X10488539Y-19288960D01*
X10488539Y-19288960D02*
X10479015Y-19298484D01*
X10479015Y-19298484D02*
X10469491Y-19288960D01*
X10469491Y-19288960D02*
X10479015Y-19279436D01*
X10479015Y-19279436D02*
X10479015Y-19298484D01*
X10612348Y-19098484D02*
X10631396Y-19098484D01*
X10631396Y-19098484D02*
X10650444Y-19108008D01*
X10650444Y-19108008D02*
X10659968Y-19117531D01*
X10659968Y-19117531D02*
X10669491Y-19136579D01*
X10669491Y-19136579D02*
X10679015Y-19174674D01*
X10679015Y-19174674D02*
X10679015Y-19222293D01*
X10679015Y-19222293D02*
X10669491Y-19260389D01*
X10669491Y-19260389D02*
X10659968Y-19279436D01*
X10659968Y-19279436D02*
X10650444Y-19288960D01*
X10650444Y-19288960D02*
X10631396Y-19298484D01*
X10631396Y-19298484D02*
X10612348Y-19298484D01*
X10612348Y-19298484D02*
X10593301Y-19288960D01*
X10593301Y-19288960D02*
X10583777Y-19279436D01*
X10583777Y-19279436D02*
X10574253Y-19260389D01*
X10574253Y-19260389D02*
X10564729Y-19222293D01*
X10564729Y-19222293D02*
X10564729Y-19174674D01*
X10564729Y-19174674D02*
X10574253Y-19136579D01*
X10574253Y-19136579D02*
X10583777Y-19117531D01*
X10583777Y-19117531D02*
X10593301Y-19108008D01*
X10593301Y-19108008D02*
X10612348Y-19098484D01*
X10745682Y-19098484D02*
X10869491Y-19098484D01*
X10869491Y-19098484D02*
X10802825Y-19174674D01*
X10802825Y-19174674D02*
X10831396Y-19174674D01*
X10831396Y-19174674D02*
X10850444Y-19184198D01*
X10850444Y-19184198D02*
X10859968Y-19193722D01*
X10859968Y-19193722D02*
X10869491Y-19212770D01*
X10869491Y-19212770D02*
X10869491Y-19260389D01*
X10869491Y-19260389D02*
X10859968Y-19279436D01*
X10859968Y-19279436D02*
X10850444Y-19288960D01*
X10850444Y-19288960D02*
X10831396Y-19298484D01*
X10831396Y-19298484D02*
X10774253Y-19298484D01*
X10774253Y-19298484D02*
X10755206Y-19288960D01*
X10755206Y-19288960D02*
X10745682Y-19279436D01*
X10964729Y-19298484D02*
X11002825Y-19298484D01*
X11002825Y-19298484D02*
X11021872Y-19288960D01*
X11021872Y-19288960D02*
X11031396Y-19279436D01*
X11031396Y-19279436D02*
X11050444Y-19250865D01*
X11050444Y-19250865D02*
X11059968Y-19212770D01*
X11059968Y-19212770D02*
X11059968Y-19136579D01*
X11059968Y-19136579D02*
X11050444Y-19117531D01*
X11050444Y-19117531D02*
X11040920Y-19108008D01*
X11040920Y-19108008D02*
X11021872Y-19098484D01*
X11021872Y-19098484D02*
X10983777Y-19098484D01*
X10983777Y-19098484D02*
X10964729Y-19108008D01*
X10964729Y-19108008D02*
X10955206Y-19117531D01*
X10955206Y-19117531D02*
X10945682Y-19136579D01*
X10945682Y-19136579D02*
X10945682Y-19184198D01*
X10945682Y-19184198D02*
X10955206Y-19203246D01*
X10955206Y-19203246D02*
X10964729Y-19212770D01*
X10964729Y-19212770D02*
X10983777Y-19222293D01*
X10983777Y-19222293D02*
X11021872Y-19222293D01*
X11021872Y-19222293D02*
X11040920Y-19212770D01*
X11040920Y-19212770D02*
X11050444Y-19203246D01*
X11050444Y-19203246D02*
X11059968Y-19184198D01*
X11231396Y-19165150D02*
X11231396Y-19298484D01*
X11183777Y-19088960D02*
X11136158Y-19231817D01*
X11136158Y-19231817D02*
X11259967Y-19231817D01*
X11326634Y-19098484D02*
X11326634Y-19136579D01*
X11402825Y-19098484D02*
X11402825Y-19136579D01*
X11698063Y-19374674D02*
X11688539Y-19365150D01*
X11688539Y-19365150D02*
X11669491Y-19336579D01*
X11669491Y-19336579D02*
X11659968Y-19317531D01*
X11659968Y-19317531D02*
X11650444Y-19288960D01*
X11650444Y-19288960D02*
X11640920Y-19241341D01*
X11640920Y-19241341D02*
X11640920Y-19203246D01*
X11640920Y-19203246D02*
X11650444Y-19155627D01*
X11650444Y-19155627D02*
X11659968Y-19127055D01*
X11659968Y-19127055D02*
X11669491Y-19108008D01*
X11669491Y-19108008D02*
X11688539Y-19079436D01*
X11688539Y-19079436D02*
X11698063Y-19069912D01*
X11755206Y-19098484D02*
X11879015Y-19098484D01*
X11879015Y-19098484D02*
X11812348Y-19174674D01*
X11812348Y-19174674D02*
X11840920Y-19174674D01*
X11840920Y-19174674D02*
X11859968Y-19184198D01*
X11859968Y-19184198D02*
X11869491Y-19193722D01*
X11869491Y-19193722D02*
X11879015Y-19212770D01*
X11879015Y-19212770D02*
X11879015Y-19260389D01*
X11879015Y-19260389D02*
X11869491Y-19279436D01*
X11869491Y-19279436D02*
X11859968Y-19288960D01*
X11859968Y-19288960D02*
X11840920Y-19298484D01*
X11840920Y-19298484D02*
X11783777Y-19298484D01*
X11783777Y-19298484D02*
X11764729Y-19288960D01*
X11764729Y-19288960D02*
X11755206Y-19279436D01*
X11955206Y-19117531D02*
X11964729Y-19108008D01*
X11964729Y-19108008D02*
X11983777Y-19098484D01*
X11983777Y-19098484D02*
X12031396Y-19098484D01*
X12031396Y-19098484D02*
X12050444Y-19108008D01*
X12050444Y-19108008D02*
X12059968Y-19117531D01*
X12059968Y-19117531D02*
X12069491Y-19136579D01*
X12069491Y-19136579D02*
X12069491Y-19155627D01*
X12069491Y-19155627D02*
X12059968Y-19184198D01*
X12059968Y-19184198D02*
X11945682Y-19298484D01*
X11945682Y-19298484D02*
X12069491Y-19298484D01*
X12307587Y-19298484D02*
X12307587Y-19098484D01*
X12393301Y-19298484D02*
X12393301Y-19193722D01*
X12393301Y-19193722D02*
X12383777Y-19174674D01*
X12383777Y-19174674D02*
X12364730Y-19165150D01*
X12364730Y-19165150D02*
X12336158Y-19165150D01*
X12336158Y-19165150D02*
X12317110Y-19174674D01*
X12317110Y-19174674D02*
X12307587Y-19184198D01*
X12517110Y-19298484D02*
X12498063Y-19288960D01*
X12498063Y-19288960D02*
X12488539Y-19279436D01*
X12488539Y-19279436D02*
X12479015Y-19260389D01*
X12479015Y-19260389D02*
X12479015Y-19203246D01*
X12479015Y-19203246D02*
X12488539Y-19184198D01*
X12488539Y-19184198D02*
X12498063Y-19174674D01*
X12498063Y-19174674D02*
X12517110Y-19165150D01*
X12517110Y-19165150D02*
X12545682Y-19165150D01*
X12545682Y-19165150D02*
X12564730Y-19174674D01*
X12564730Y-19174674D02*
X12574253Y-19184198D01*
X12574253Y-19184198D02*
X12583777Y-19203246D01*
X12583777Y-19203246D02*
X12583777Y-19260389D01*
X12583777Y-19260389D02*
X12574253Y-19279436D01*
X12574253Y-19279436D02*
X12564730Y-19288960D01*
X12564730Y-19288960D02*
X12545682Y-19298484D01*
X12545682Y-19298484D02*
X12517110Y-19298484D01*
X12698063Y-19298484D02*
X12679015Y-19288960D01*
X12679015Y-19288960D02*
X12669491Y-19269912D01*
X12669491Y-19269912D02*
X12669491Y-19098484D01*
X12850444Y-19288960D02*
X12831396Y-19298484D01*
X12831396Y-19298484D02*
X12793301Y-19298484D01*
X12793301Y-19298484D02*
X12774253Y-19288960D01*
X12774253Y-19288960D02*
X12764730Y-19269912D01*
X12764730Y-19269912D02*
X12764730Y-19193722D01*
X12764730Y-19193722D02*
X12774253Y-19174674D01*
X12774253Y-19174674D02*
X12793301Y-19165150D01*
X12793301Y-19165150D02*
X12831396Y-19165150D01*
X12831396Y-19165150D02*
X12850444Y-19174674D01*
X12850444Y-19174674D02*
X12859968Y-19193722D01*
X12859968Y-19193722D02*
X12859968Y-19212770D01*
X12859968Y-19212770D02*
X12764730Y-19231817D01*
X12936158Y-19288960D02*
X12955206Y-19298484D01*
X12955206Y-19298484D02*
X12993301Y-19298484D01*
X12993301Y-19298484D02*
X13012349Y-19288960D01*
X13012349Y-19288960D02*
X13021872Y-19269912D01*
X13021872Y-19269912D02*
X13021872Y-19260389D01*
X13021872Y-19260389D02*
X13012349Y-19241341D01*
X13012349Y-19241341D02*
X12993301Y-19231817D01*
X12993301Y-19231817D02*
X12964730Y-19231817D01*
X12964730Y-19231817D02*
X12945682Y-19222293D01*
X12945682Y-19222293D02*
X12936158Y-19203246D01*
X12936158Y-19203246D02*
X12936158Y-19193722D01*
X12936158Y-19193722D02*
X12945682Y-19174674D01*
X12945682Y-19174674D02*
X12964730Y-19165150D01*
X12964730Y-19165150D02*
X12993301Y-19165150D01*
X12993301Y-19165150D02*
X13012349Y-19174674D01*
X13088539Y-19374674D02*
X13098063Y-19365150D01*
X13098063Y-19365150D02*
X13117111Y-19336579D01*
X13117111Y-19336579D02*
X13126634Y-19317531D01*
X13126634Y-19317531D02*
X13136158Y-19288960D01*
X13136158Y-19288960D02*
X13145682Y-19241341D01*
X13145682Y-19241341D02*
X13145682Y-19203246D01*
X13145682Y-19203246D02*
X13136158Y-19155627D01*
X13136158Y-19155627D02*
X13126634Y-19127055D01*
X13126634Y-19127055D02*
X13117111Y-19108008D01*
X13117111Y-19108008D02*
X13098063Y-19079436D01*
X13098063Y-19079436D02*
X13088539Y-19069912D01*
M02*
