%TF.GenerationSoftware,KiCad,Pcbnew,7.0.9*%
%TF.CreationDate,2024-02-10T14:07:13-07:00*%
%TF.ProjectId,RP2040-Breadstick,52503230-3430-42d4-9272-656164737469,1.0*%
%TF.SameCoordinates,Original*%
%TF.FileFunction,Soldermask,Top*%
%TF.FilePolarity,Negative*%
%FSLAX46Y46*%
G04 Gerber Fmt 4.6, Leading zero omitted, Abs format (unit mm)*
G04 Created by KiCad (PCBNEW 7.0.9) date 2024-02-10 14:07:13*
%MOMM*%
%LPD*%
G01*
G04 APERTURE LIST*
G04 Aperture macros list*
%AMRoundRect*
0 Rectangle with rounded corners*
0 $1 Rounding radius*
0 $2 $3 $4 $5 $6 $7 $8 $9 X,Y pos of 4 corners*
0 Add a 4 corners polygon primitive as box body*
4,1,4,$2,$3,$4,$5,$6,$7,$8,$9,$2,$3,0*
0 Add four circle primitives for the rounded corners*
1,1,$1+$1,$2,$3*
1,1,$1+$1,$4,$5*
1,1,$1+$1,$6,$7*
1,1,$1+$1,$8,$9*
0 Add four rect primitives between the rounded corners*
20,1,$1+$1,$2,$3,$4,$5,0*
20,1,$1+$1,$4,$5,$6,$7,0*
20,1,$1+$1,$6,$7,$8,$9,0*
20,1,$1+$1,$8,$9,$2,$3,0*%
G04 Aperture macros list end*
%ADD10C,0.250000*%
%ADD11RoundRect,0.102000X0.450000X0.500000X-0.450000X0.500000X-0.450000X-0.500000X0.450000X-0.500000X0*%
%ADD12RoundRect,0.102000X-0.450000X-0.500000X0.450000X-0.500000X0.450000X0.500000X-0.450000X0.500000X0*%
%ADD13R,1.200000X1.000000*%
%ADD14R,4.300000X3.400000*%
%ADD15RoundRect,0.026400X0.193600X-0.493600X0.193600X0.493600X-0.193600X0.493600X-0.193600X-0.493600X0*%
%ADD16RoundRect,0.162000X-0.615000X0.240000X-0.615000X-0.240000X0.615000X-0.240000X0.615000X0.240000X0*%
%ADD17R,0.609600X1.143000*%
%ADD18R,0.304800X1.143000*%
%ADD19O,1.000000X1.800000*%
%ADD20O,1.000000X2.200000*%
%ADD21RoundRect,0.250000X-0.650000X0.325000X-0.650000X-0.325000X0.650000X-0.325000X0.650000X0.325000X0*%
%ADD22RoundRect,0.200000X-0.275000X0.200000X-0.275000X-0.200000X0.275000X-0.200000X0.275000X0.200000X0*%
%ADD23R,0.700000X0.400000*%
%ADD24RoundRect,0.200000X0.200000X0.275000X-0.200000X0.275000X-0.200000X-0.275000X0.200000X-0.275000X0*%
%ADD25RoundRect,0.200000X0.275000X-0.200000X0.275000X0.200000X-0.275000X0.200000X-0.275000X-0.200000X0*%
%ADD26R,0.500000X0.600000*%
%ADD27RoundRect,0.250000X0.325000X0.650000X-0.325000X0.650000X-0.325000X-0.650000X0.325000X-0.650000X0*%
%ADD28RoundRect,0.225000X-0.250000X0.225000X-0.250000X-0.225000X0.250000X-0.225000X0.250000X0.225000X0*%
%ADD29RoundRect,0.250000X-0.325000X-0.650000X0.325000X-0.650000X0.325000X0.650000X-0.325000X0.650000X0*%
%ADD30RoundRect,0.225000X0.250000X-0.225000X0.250000X0.225000X-0.250000X0.225000X-0.250000X-0.225000X0*%
%ADD31R,0.600000X0.350000*%
%ADD32R,0.350000X0.600000*%
%ADD33R,0.375000X0.300000*%
%ADD34RoundRect,0.150000X-0.150000X0.587500X-0.150000X-0.587500X0.150000X-0.587500X0.150000X0.587500X0*%
%ADD35RoundRect,0.200000X-0.200000X-0.275000X0.200000X-0.275000X0.200000X0.275000X-0.200000X0.275000X0*%
%ADD36RoundRect,0.250000X-0.375000X-0.625000X0.375000X-0.625000X0.375000X0.625000X-0.375000X0.625000X0*%
%ADD37RoundRect,0.006000X-0.414000X-0.094000X0.414000X-0.094000X0.414000X0.094000X-0.414000X0.094000X0*%
%ADD38RoundRect,0.020000X-0.080000X-0.400000X0.080000X-0.400000X0.080000X0.400000X-0.080000X0.400000X0*%
%ADD39R,3.100000X3.100000*%
%ADD40R,1.700000X1.700000*%
G04 APERTURE END LIST*
D10*
G36*
X90695416Y-126030920D02*
G01*
X90714851Y-126032658D01*
X90733472Y-126035556D01*
X90751281Y-126039614D01*
X90768277Y-126044830D01*
X90784460Y-126051206D01*
X90799830Y-126058740D01*
X90814387Y-126067434D01*
X90828132Y-126077288D01*
X90841063Y-126088300D01*
X90853182Y-126100472D01*
X90864487Y-126113802D01*
X90874980Y-126128292D01*
X90884660Y-126143942D01*
X90893528Y-126160750D01*
X90901582Y-126178718D01*
X90907970Y-126193401D01*
X90913947Y-126208416D01*
X90919511Y-126223763D01*
X90924663Y-126239442D01*
X90929403Y-126255454D01*
X90933730Y-126271797D01*
X90937646Y-126288472D01*
X90941149Y-126305480D01*
X90944240Y-126322819D01*
X90946919Y-126340490D01*
X90949186Y-126358494D01*
X90951041Y-126376829D01*
X90952484Y-126395497D01*
X90953514Y-126414496D01*
X90954132Y-126433827D01*
X90954338Y-126453491D01*
X90953984Y-126469112D01*
X90952922Y-126484927D01*
X90951151Y-126500934D01*
X90948671Y-126517135D01*
X90945483Y-126533529D01*
X90941587Y-126550117D01*
X90936983Y-126566897D01*
X90931670Y-126583871D01*
X90925648Y-126601038D01*
X90918918Y-126618398D01*
X90914038Y-126630078D01*
X90906216Y-126647565D01*
X90897724Y-126664717D01*
X90888562Y-126681534D01*
X90878730Y-126698016D01*
X90868228Y-126714163D01*
X90857057Y-126729976D01*
X90845216Y-126745453D01*
X90832705Y-126760596D01*
X90819525Y-126775403D01*
X90805675Y-126789876D01*
X90796069Y-126799339D01*
X90781377Y-126812826D01*
X90766428Y-126824987D01*
X90751221Y-126835821D01*
X90735756Y-126845329D01*
X90720034Y-126853510D01*
X90704054Y-126860364D01*
X90687817Y-126865892D01*
X90671322Y-126870093D01*
X90654569Y-126872967D01*
X90637559Y-126874515D01*
X90626076Y-126874810D01*
X90608669Y-126874088D01*
X90591068Y-126871925D01*
X90573274Y-126868318D01*
X90555287Y-126863269D01*
X90537107Y-126856778D01*
X90518734Y-126848844D01*
X90500168Y-126839467D01*
X90481408Y-126828648D01*
X90468794Y-126820634D01*
X90456094Y-126811978D01*
X90443309Y-126802682D01*
X90430437Y-126792744D01*
X90417665Y-126782339D01*
X90405084Y-126771638D01*
X90392695Y-126760643D01*
X90380497Y-126749353D01*
X90368492Y-126737768D01*
X90356678Y-126725888D01*
X90345056Y-126713714D01*
X90333626Y-126701245D01*
X90322387Y-126688481D01*
X90311340Y-126675422D01*
X90300485Y-126662068D01*
X90289822Y-126648420D01*
X90279351Y-126634476D01*
X90269071Y-126620238D01*
X90258983Y-126605705D01*
X90249087Y-126590877D01*
X90239473Y-126576061D01*
X90230231Y-126561471D01*
X90221361Y-126547107D01*
X90212863Y-126532969D01*
X90204737Y-126519057D01*
X90196983Y-126505371D01*
X90189602Y-126491912D01*
X90182592Y-126478678D01*
X90172775Y-126459252D01*
X90163796Y-126440335D01*
X90155653Y-126421926D01*
X90148348Y-126404026D01*
X90141880Y-126386635D01*
X90139911Y-126380951D01*
X90125033Y-126403000D01*
X90109892Y-126424817D01*
X90094487Y-126446403D01*
X90078819Y-126467756D01*
X90062888Y-126488878D01*
X90046694Y-126509768D01*
X90030236Y-126530426D01*
X90013515Y-126550852D01*
X89996530Y-126571047D01*
X89979283Y-126591009D01*
X89961772Y-126610740D01*
X89943997Y-126630239D01*
X89925960Y-126649506D01*
X89907658Y-126668541D01*
X89889094Y-126687344D01*
X89870266Y-126705916D01*
X89851559Y-126723795D01*
X89833355Y-126740520D01*
X89815655Y-126756092D01*
X89798459Y-126770510D01*
X89781767Y-126783775D01*
X89765578Y-126795887D01*
X89749893Y-126806845D01*
X89734712Y-126816649D01*
X89720034Y-126825300D01*
X89705860Y-126832798D01*
X89692190Y-126839142D01*
X89672630Y-126846496D01*
X89654203Y-126851254D01*
X89636910Y-126853416D01*
X89631397Y-126853561D01*
X89615964Y-126851614D01*
X89601172Y-126845775D01*
X89588755Y-126837473D01*
X89576829Y-126826191D01*
X89573511Y-126822420D01*
X89564671Y-126810291D01*
X89557660Y-126797261D01*
X89552478Y-126783329D01*
X89549125Y-126768495D01*
X89547601Y-126752760D01*
X89547500Y-126747315D01*
X89548826Y-126731254D01*
X89552806Y-126716042D01*
X89559439Y-126701681D01*
X89568726Y-126688170D01*
X89580665Y-126675509D01*
X89585235Y-126671478D01*
X89605112Y-126662098D01*
X89618467Y-126655039D01*
X89631905Y-126647337D01*
X89645426Y-126638991D01*
X89659031Y-126630001D01*
X89672718Y-126620367D01*
X89686488Y-126610088D01*
X89700341Y-126599166D01*
X89714277Y-126587600D01*
X89728296Y-126575390D01*
X89742398Y-126562535D01*
X89756584Y-126549037D01*
X89770852Y-126534895D01*
X89785203Y-126520109D01*
X89799637Y-126504678D01*
X89806885Y-126496722D01*
X89821318Y-126480595D01*
X89835582Y-126464270D01*
X89849677Y-126447748D01*
X89863603Y-126431028D01*
X89877360Y-126414111D01*
X89890949Y-126396996D01*
X89904368Y-126379684D01*
X89917619Y-126362175D01*
X89930701Y-126344467D01*
X89943614Y-126326563D01*
X89956358Y-126308461D01*
X89968933Y-126290161D01*
X89981339Y-126271664D01*
X89993577Y-126252969D01*
X90005645Y-126234077D01*
X90015490Y-126218285D01*
X90280961Y-126218285D01*
X90281374Y-126234262D01*
X90282615Y-126250594D01*
X90284683Y-126267280D01*
X90287578Y-126284322D01*
X90291301Y-126301719D01*
X90295850Y-126319470D01*
X90301227Y-126337577D01*
X90307431Y-126356038D01*
X90314462Y-126374854D01*
X90322320Y-126394025D01*
X90331005Y-126413551D01*
X90340518Y-126433432D01*
X90350858Y-126453668D01*
X90362025Y-126474259D01*
X90374019Y-126495205D01*
X90386840Y-126516505D01*
X90400019Y-126537357D01*
X90412995Y-126556863D01*
X90425768Y-126575024D01*
X90438337Y-126591839D01*
X90450703Y-126607309D01*
X90462866Y-126621434D01*
X90474826Y-126634214D01*
X90486583Y-126645649D01*
X90498136Y-126655738D01*
X90515085Y-126668350D01*
X90531577Y-126677935D01*
X90547611Y-126684493D01*
X90563189Y-126688024D01*
X90573319Y-126688697D01*
X90588116Y-126687956D01*
X90606864Y-126684665D01*
X90624490Y-126678740D01*
X90640993Y-126670182D01*
X90656375Y-126658990D01*
X90667175Y-126648869D01*
X90677343Y-126637266D01*
X90686881Y-126624182D01*
X90695787Y-126609617D01*
X90698616Y-126604433D01*
X90706604Y-126588331D01*
X90713806Y-126571623D01*
X90720222Y-126554310D01*
X90725853Y-126536392D01*
X90730698Y-126517869D01*
X90734757Y-126498740D01*
X90738031Y-126479005D01*
X90740519Y-126458666D01*
X90742221Y-126437721D01*
X90743138Y-126416170D01*
X90743312Y-126401467D01*
X90743039Y-126379769D01*
X90742218Y-126359049D01*
X90740849Y-126339308D01*
X90738933Y-126320546D01*
X90736470Y-126302763D01*
X90733459Y-126285959D01*
X90729901Y-126270134D01*
X90725796Y-126255288D01*
X90719470Y-126237015D01*
X90712172Y-126220483D01*
X90692382Y-126220090D01*
X90676818Y-126219850D01*
X90659355Y-126219627D01*
X90639995Y-126219421D01*
X90618738Y-126219232D01*
X90595582Y-126219060D01*
X90570529Y-126218905D01*
X90543578Y-126218768D01*
X90514730Y-126218648D01*
X90499594Y-126218594D01*
X90483984Y-126218545D01*
X90467900Y-126218500D01*
X90451341Y-126218459D01*
X90434307Y-126218422D01*
X90416799Y-126218390D01*
X90398817Y-126218362D01*
X90380360Y-126218339D01*
X90361429Y-126218319D01*
X90342024Y-126218304D01*
X90322144Y-126218294D01*
X90301790Y-126218287D01*
X90280961Y-126218285D01*
X90015490Y-126218285D01*
X90017545Y-126214988D01*
X89653745Y-126226711D01*
X89638418Y-126225398D01*
X89623761Y-126221456D01*
X89609773Y-126214888D01*
X89596455Y-126205691D01*
X89583807Y-126193867D01*
X89579740Y-126189342D01*
X89570452Y-126177459D01*
X89561384Y-126162655D01*
X89554583Y-126147259D01*
X89550050Y-126131271D01*
X89547783Y-126114690D01*
X89547500Y-126106177D01*
X89549547Y-126090120D01*
X89555691Y-126076021D01*
X89565931Y-126063880D01*
X89580266Y-126053696D01*
X89595341Y-126046705D01*
X89605751Y-126043163D01*
X89622967Y-126042757D01*
X89640174Y-126042364D01*
X89657373Y-126041984D01*
X89674565Y-126041617D01*
X89691749Y-126041263D01*
X89708924Y-126040922D01*
X89726092Y-126040593D01*
X89743253Y-126040278D01*
X89760405Y-126039975D01*
X89777549Y-126039685D01*
X89794686Y-126039408D01*
X89811814Y-126039144D01*
X89828935Y-126038893D01*
X89846048Y-126038655D01*
X89863153Y-126038429D01*
X89880250Y-126038217D01*
X89897339Y-126038017D01*
X89914420Y-126037831D01*
X89931494Y-126037657D01*
X89948560Y-126037496D01*
X89965617Y-126037348D01*
X89982667Y-126037212D01*
X89999709Y-126037090D01*
X90016743Y-126036980D01*
X90033770Y-126036884D01*
X90050788Y-126036800D01*
X90067799Y-126036729D01*
X90084801Y-126036671D01*
X90101796Y-126036626D01*
X90118783Y-126036594D01*
X90135762Y-126036575D01*
X90152733Y-126036568D01*
X90675169Y-126030340D01*
X90695416Y-126030920D01*
G37*
G36*
X90033566Y-126957705D02*
G01*
X90049346Y-126957994D01*
X90064882Y-126958477D01*
X90080176Y-126959154D01*
X90095227Y-126960023D01*
X90110036Y-126961086D01*
X90138926Y-126963790D01*
X90166845Y-126967268D01*
X90193795Y-126971518D01*
X90219774Y-126976542D01*
X90244782Y-126982338D01*
X90268821Y-126988906D01*
X90291889Y-126996248D01*
X90313987Y-127004362D01*
X90335114Y-127013250D01*
X90355271Y-127022910D01*
X90374458Y-127033342D01*
X90392675Y-127044548D01*
X90409921Y-127056526D01*
X90426158Y-127069229D01*
X90441348Y-127082607D01*
X90455490Y-127096660D01*
X90468585Y-127111389D01*
X90480632Y-127126794D01*
X90491632Y-127142874D01*
X90501584Y-127159629D01*
X90510488Y-127177060D01*
X90518345Y-127195167D01*
X90525154Y-127213949D01*
X90530916Y-127233406D01*
X90535630Y-127253539D01*
X90539296Y-127274347D01*
X90541915Y-127295831D01*
X90543487Y-127317990D01*
X90544010Y-127340825D01*
X90543695Y-127357028D01*
X90542748Y-127373077D01*
X90541170Y-127388971D01*
X90538961Y-127404710D01*
X90536121Y-127420295D01*
X90532650Y-127435725D01*
X90528548Y-127451001D01*
X90523814Y-127466122D01*
X90518450Y-127481088D01*
X90512454Y-127495900D01*
X90508107Y-127505689D01*
X90520308Y-127516087D01*
X90529985Y-127528598D01*
X90537138Y-127543221D01*
X90541766Y-127559957D01*
X90543695Y-127575516D01*
X90544010Y-127585556D01*
X90542516Y-127604216D01*
X90538034Y-127621041D01*
X90530564Y-127636030D01*
X90520105Y-127649184D01*
X90506658Y-127660502D01*
X90490223Y-127669985D01*
X90470800Y-127677632D01*
X90456192Y-127681711D01*
X90440255Y-127684974D01*
X90422990Y-127687421D01*
X90404397Y-127689053D01*
X90384476Y-127689868D01*
X90374017Y-127689970D01*
X90358850Y-127689970D01*
X90344013Y-127689970D01*
X90338114Y-127689970D01*
X90190102Y-127685940D01*
X90172746Y-127685425D01*
X90155481Y-127684979D01*
X90138308Y-127684601D01*
X90121226Y-127684292D01*
X90104236Y-127684051D01*
X90087337Y-127683879D01*
X90070530Y-127683776D01*
X90053815Y-127683742D01*
X89577175Y-127715249D01*
X89561977Y-127713389D01*
X89545828Y-127705831D01*
X89535189Y-127695598D01*
X89526577Y-127681645D01*
X89519991Y-127663971D01*
X89516381Y-127648273D01*
X89513912Y-127630483D01*
X89512582Y-127610599D01*
X89512329Y-127596181D01*
X89512329Y-127580730D01*
X89512329Y-127564818D01*
X89512329Y-127561376D01*
X89514647Y-127546812D01*
X89522661Y-127533689D01*
X89534768Y-127524631D01*
X89541638Y-127521443D01*
X89556636Y-127516932D01*
X89572321Y-127514757D01*
X89588693Y-127514917D01*
X89603581Y-127516973D01*
X89605751Y-127517413D01*
X89622078Y-127520298D01*
X89637872Y-127521682D01*
X89653476Y-127520698D01*
X89658142Y-127519611D01*
X89644743Y-127508491D01*
X89632210Y-127496747D01*
X89620541Y-127484380D01*
X89609736Y-127471388D01*
X89599795Y-127457773D01*
X89590719Y-127443533D01*
X89582507Y-127428670D01*
X89575160Y-127413182D01*
X89568677Y-127397071D01*
X89563059Y-127380335D01*
X89558304Y-127362976D01*
X89554415Y-127344992D01*
X89551389Y-127326385D01*
X89549228Y-127307154D01*
X89548532Y-127296495D01*
X89758525Y-127296495D01*
X89759775Y-127312106D01*
X89763523Y-127328437D01*
X89768555Y-127342598D01*
X89775322Y-127357260D01*
X89783825Y-127372423D01*
X89791876Y-127384913D01*
X89794063Y-127388086D01*
X89803084Y-127400325D01*
X89814748Y-127414239D01*
X89826841Y-127426614D01*
X89839363Y-127437452D01*
X89852315Y-127446750D01*
X89865695Y-127454510D01*
X89873930Y-127458428D01*
X89893744Y-127465499D01*
X89913892Y-127471875D01*
X89934376Y-127477555D01*
X89955194Y-127482539D01*
X89976347Y-127486828D01*
X89997836Y-127490422D01*
X90019659Y-127493320D01*
X90034393Y-127494866D01*
X90049277Y-127496102D01*
X90064309Y-127497029D01*
X90079490Y-127497648D01*
X90094821Y-127497957D01*
X90102541Y-127497995D01*
X90117788Y-127497877D01*
X90132480Y-127497520D01*
X90153477Y-127496540D01*
X90173224Y-127495026D01*
X90191722Y-127492977D01*
X90208970Y-127490393D01*
X90224969Y-127487275D01*
X90239719Y-127483623D01*
X90257442Y-127477921D01*
X90272944Y-127471269D01*
X90279862Y-127467587D01*
X90292312Y-127459350D01*
X90305541Y-127447266D01*
X90316176Y-127433196D01*
X90324217Y-127417141D01*
X90328782Y-127402867D01*
X90331688Y-127387322D01*
X90332933Y-127370507D01*
X90332984Y-127366104D01*
X90332440Y-127345053D01*
X90330808Y-127325039D01*
X90328087Y-127306061D01*
X90324278Y-127288120D01*
X90319380Y-127271216D01*
X90313394Y-127255349D01*
X90306320Y-127240519D01*
X90298157Y-127226726D01*
X90288906Y-127213969D01*
X90278567Y-127202249D01*
X90271069Y-127195012D01*
X90258579Y-127185060D01*
X90244188Y-127176087D01*
X90227898Y-127168093D01*
X90209709Y-127161078D01*
X90189619Y-127155041D01*
X90175171Y-127151561D01*
X90159878Y-127148515D01*
X90143741Y-127145905D01*
X90126759Y-127143730D01*
X90108933Y-127141989D01*
X90090263Y-127140684D01*
X90070748Y-127139814D01*
X90050389Y-127139379D01*
X90039893Y-127139325D01*
X90022582Y-127139478D01*
X90005821Y-127139939D01*
X89989610Y-127140706D01*
X89973948Y-127141781D01*
X89958835Y-127143162D01*
X89944272Y-127144850D01*
X89916795Y-127149148D01*
X89891516Y-127154673D01*
X89868435Y-127161427D01*
X89847552Y-127169408D01*
X89828867Y-127178617D01*
X89812381Y-127189054D01*
X89798093Y-127200719D01*
X89786003Y-127213612D01*
X89776111Y-127227733D01*
X89768417Y-127243082D01*
X89762922Y-127259658D01*
X89759624Y-127277463D01*
X89758525Y-127296495D01*
X89548532Y-127296495D01*
X89547932Y-127287299D01*
X89547500Y-127266820D01*
X89547959Y-127247796D01*
X89549336Y-127229376D01*
X89551631Y-127211560D01*
X89554844Y-127194348D01*
X89558975Y-127177740D01*
X89564025Y-127161736D01*
X89569992Y-127146336D01*
X89576877Y-127131539D01*
X89584681Y-127117347D01*
X89593402Y-127103759D01*
X89603042Y-127090774D01*
X89613600Y-127078394D01*
X89625075Y-127066617D01*
X89637469Y-127055444D01*
X89650781Y-127044876D01*
X89665011Y-127034911D01*
X89680159Y-127025550D01*
X89696225Y-127016793D01*
X89713209Y-127008640D01*
X89731111Y-127001091D01*
X89749931Y-126994146D01*
X89769669Y-126987804D01*
X89790326Y-126982067D01*
X89811900Y-126976934D01*
X89834392Y-126972404D01*
X89857803Y-126968479D01*
X89882131Y-126965157D01*
X89907378Y-126962439D01*
X89933543Y-126960326D01*
X89960625Y-126958816D01*
X89988626Y-126957910D01*
X90017545Y-126957608D01*
X90033566Y-126957705D01*
G37*
G36*
X90269237Y-127843111D02*
G01*
X90284745Y-127843471D01*
X90299851Y-127844553D01*
X90314558Y-127846356D01*
X90335865Y-127850413D01*
X90356272Y-127856094D01*
X90375776Y-127863396D01*
X90394379Y-127872322D01*
X90412081Y-127882871D01*
X90428880Y-127895043D01*
X90444779Y-127908837D01*
X90459775Y-127924254D01*
X90469272Y-127935434D01*
X90478322Y-127947128D01*
X90490803Y-127965071D01*
X90501970Y-127983497D01*
X90511823Y-128002406D01*
X90520363Y-128021798D01*
X90527588Y-128041672D01*
X90533500Y-128062030D01*
X90538098Y-128082871D01*
X90541383Y-128104195D01*
X90543353Y-128126002D01*
X90543937Y-128140808D01*
X90544010Y-128148292D01*
X90543819Y-128163326D01*
X90543243Y-128178294D01*
X90542284Y-128193196D01*
X90540942Y-128208032D01*
X90539216Y-128222803D01*
X90537107Y-128237507D01*
X90534614Y-128252146D01*
X90531737Y-128266719D01*
X90528477Y-128281226D01*
X90524833Y-128295668D01*
X90520806Y-128310043D01*
X90516396Y-128324353D01*
X90511601Y-128338597D01*
X90506424Y-128352775D01*
X90500862Y-128366887D01*
X90494918Y-128380933D01*
X90488684Y-128394553D01*
X90478796Y-128413335D01*
X90468265Y-128430141D01*
X90457089Y-128444969D01*
X90445269Y-128457820D01*
X90432806Y-128468694D01*
X90419698Y-128477590D01*
X90405947Y-128484510D01*
X90391551Y-128489453D01*
X90376512Y-128492419D01*
X90360828Y-128493407D01*
X90344449Y-128492312D01*
X90329384Y-128489028D01*
X90315632Y-128483554D01*
X90301249Y-128474400D01*
X90290344Y-128464182D01*
X90288654Y-128462266D01*
X90278376Y-128449045D01*
X90269721Y-128434923D01*
X90263925Y-128420295D01*
X90262276Y-128408411D01*
X90262431Y-128392989D01*
X90263059Y-128377479D01*
X90263375Y-128373240D01*
X90268027Y-128357368D01*
X90273849Y-128342762D01*
X90280471Y-128327383D01*
X90286929Y-128312980D01*
X90294416Y-128296711D01*
X90298546Y-128287877D01*
X90304701Y-128274401D01*
X90311965Y-128256824D01*
X90318153Y-128239694D01*
X90323265Y-128223010D01*
X90327301Y-128206772D01*
X90330260Y-128190982D01*
X90332144Y-128175637D01*
X90332951Y-128160739D01*
X90332984Y-128157085D01*
X90332340Y-128139346D01*
X90330408Y-128122538D01*
X90327188Y-128106660D01*
X90322681Y-128091712D01*
X90316885Y-128077694D01*
X90309801Y-128064606D01*
X90306606Y-128059632D01*
X90295877Y-128046310D01*
X90283474Y-128035744D01*
X90269396Y-128027934D01*
X90253644Y-128022881D01*
X90236217Y-128020584D01*
X90230036Y-128020431D01*
X90214949Y-128021549D01*
X90198119Y-128025842D01*
X90182680Y-128033356D01*
X90170877Y-128042076D01*
X90160040Y-128053033D01*
X90150169Y-128066226D01*
X90142853Y-128078992D01*
X90135743Y-128094207D01*
X90128839Y-128111873D01*
X90123797Y-128126730D01*
X90118870Y-128142965D01*
X90114060Y-128160579D01*
X90109365Y-128179570D01*
X90104786Y-128199940D01*
X90100323Y-128221688D01*
X90097412Y-128236952D01*
X90094444Y-128252309D01*
X90091310Y-128267240D01*
X90088010Y-128281744D01*
X90082748Y-128302701D01*
X90077113Y-128322699D01*
X90071105Y-128341736D01*
X90064723Y-128359814D01*
X90057967Y-128376933D01*
X90050838Y-128393092D01*
X90043336Y-128408291D01*
X90035459Y-128422531D01*
X90030001Y-128431492D01*
X90021013Y-128444062D01*
X90010673Y-128455397D01*
X89998980Y-128465495D01*
X89985934Y-128474356D01*
X89971537Y-128481981D01*
X89955787Y-128488370D01*
X89938684Y-128493522D01*
X89920229Y-128497437D01*
X89900422Y-128500116D01*
X89879262Y-128501559D01*
X89864405Y-128501833D01*
X89843227Y-128501459D01*
X89822834Y-128500334D01*
X89803225Y-128498459D01*
X89784400Y-128495834D01*
X89766359Y-128492460D01*
X89749103Y-128488335D01*
X89732631Y-128483461D01*
X89716943Y-128477837D01*
X89702039Y-128471462D01*
X89687920Y-128464338D01*
X89674585Y-128456464D01*
X89662034Y-128447841D01*
X89650268Y-128438467D01*
X89639285Y-128428343D01*
X89629087Y-128417470D01*
X89619673Y-128405846D01*
X89610933Y-128393743D01*
X89602758Y-128381340D01*
X89595145Y-128368636D01*
X89588097Y-128355631D01*
X89581613Y-128342326D01*
X89575692Y-128328721D01*
X89570336Y-128314815D01*
X89565543Y-128300608D01*
X89561314Y-128286101D01*
X89557649Y-128271293D01*
X89554548Y-128256185D01*
X89552010Y-128240776D01*
X89550037Y-128225067D01*
X89548627Y-128209057D01*
X89547781Y-128192747D01*
X89547500Y-128176136D01*
X89547657Y-128159565D01*
X89548129Y-128143283D01*
X89548916Y-128127290D01*
X89550018Y-128111587D01*
X89551435Y-128096172D01*
X89553167Y-128081047D01*
X89555213Y-128066211D01*
X89557575Y-128051663D01*
X89561707Y-128030385D01*
X89566548Y-128009756D01*
X89572097Y-127989778D01*
X89578354Y-127970451D01*
X89585320Y-127951774D01*
X89587800Y-127945692D01*
X89595745Y-127928473D01*
X89604471Y-127912947D01*
X89613975Y-127899115D01*
X89624259Y-127886977D01*
X89635321Y-127876532D01*
X89647163Y-127867781D01*
X89664165Y-127858748D01*
X89682552Y-127852726D01*
X89697251Y-127850186D01*
X89712730Y-127849339D01*
X89730539Y-127850166D01*
X89746596Y-127852649D01*
X89760901Y-127856787D01*
X89777250Y-127864878D01*
X89790485Y-127875912D01*
X89800606Y-127889888D01*
X89807612Y-127906807D01*
X89810824Y-127921427D01*
X89812284Y-127937702D01*
X89812381Y-127943494D01*
X89810686Y-127958080D01*
X89807192Y-127973017D01*
X89802823Y-127988081D01*
X89797131Y-128005524D01*
X89791624Y-128021192D01*
X89785270Y-128038383D01*
X89779002Y-128056254D01*
X89773569Y-128073966D01*
X89768972Y-128091517D01*
X89765211Y-128108908D01*
X89762286Y-128126138D01*
X89760197Y-128143209D01*
X89758943Y-128160119D01*
X89758525Y-128176868D01*
X89759149Y-128193109D01*
X89761021Y-128208307D01*
X89765116Y-128225840D01*
X89771161Y-128241745D01*
X89779155Y-128256022D01*
X89789100Y-128268671D01*
X89798459Y-128277619D01*
X89811321Y-128287434D01*
X89824720Y-128295586D01*
X89838655Y-128302074D01*
X89853127Y-128306899D01*
X89868136Y-128310060D01*
X89883682Y-128311557D01*
X89890050Y-128311690D01*
X89905504Y-128310599D01*
X89922231Y-128306409D01*
X89936974Y-128299076D01*
X89949734Y-128288600D01*
X89960510Y-128274982D01*
X89965155Y-128266994D01*
X89972303Y-128251799D01*
X89977764Y-128237711D01*
X89982996Y-128221906D01*
X89988000Y-128204384D01*
X89991602Y-128190115D01*
X89995075Y-128174880D01*
X89998419Y-128158679D01*
X90001635Y-128141512D01*
X90004722Y-128123379D01*
X90007833Y-128105283D01*
X90010982Y-128088088D01*
X90014170Y-128071795D01*
X90017396Y-128056403D01*
X90020661Y-128041913D01*
X90025075Y-128023996D01*
X90029557Y-128007681D01*
X90034108Y-127992969D01*
X90039893Y-127976833D01*
X90046843Y-127960640D01*
X90054777Y-127945492D01*
X90063695Y-127931389D01*
X90073599Y-127918330D01*
X90084486Y-127906315D01*
X90096359Y-127895346D01*
X90109216Y-127885421D01*
X90123058Y-127876541D01*
X90137884Y-127868706D01*
X90153695Y-127861915D01*
X90170490Y-127856169D01*
X90188271Y-127851468D01*
X90207035Y-127847812D01*
X90226785Y-127845200D01*
X90247519Y-127843633D01*
X90269237Y-127843111D01*
G37*
G36*
X90435836Y-128624394D02*
G01*
X90450381Y-128628092D01*
X90467002Y-128633004D01*
X90481887Y-128638238D01*
X90497459Y-128644945D01*
X90510532Y-128652114D01*
X90514335Y-128654607D01*
X90525898Y-128664775D01*
X90534621Y-128677328D01*
X90540504Y-128692264D01*
X90543286Y-128706965D01*
X90544010Y-128720553D01*
X90543173Y-128736468D01*
X90540080Y-128752204D01*
X90533755Y-128766452D01*
X90523080Y-128777719D01*
X90520197Y-128779538D01*
X90505208Y-128786702D01*
X90489208Y-128791951D01*
X90473142Y-128795681D01*
X90457836Y-128798235D01*
X90452419Y-128798955D01*
X90464380Y-128809694D01*
X90473886Y-128821853D01*
X90483814Y-128835448D01*
X90493071Y-128848592D01*
X90500779Y-128859771D01*
X90510912Y-128876063D01*
X90517624Y-128889108D01*
X90523577Y-128902862D01*
X90528770Y-128917324D01*
X90533203Y-128932495D01*
X90536876Y-128948374D01*
X90539789Y-128964961D01*
X90541942Y-128982257D01*
X90543335Y-129000261D01*
X90543968Y-129018973D01*
X90544010Y-129025368D01*
X90543389Y-129052572D01*
X90541526Y-129078771D01*
X90538420Y-129103966D01*
X90534073Y-129128156D01*
X90528483Y-129151341D01*
X90521651Y-129173522D01*
X90513576Y-129194698D01*
X90504260Y-129214870D01*
X90493701Y-129234037D01*
X90481900Y-129252199D01*
X90468857Y-129269357D01*
X90454572Y-129285510D01*
X90439044Y-129300658D01*
X90422274Y-129314802D01*
X90404262Y-129327941D01*
X90385008Y-129340075D01*
X90364963Y-129351388D01*
X90344485Y-129361971D01*
X90323575Y-129371824D01*
X90302233Y-129380947D01*
X90280458Y-129389341D01*
X90258252Y-129397004D01*
X90235613Y-129403938D01*
X90212542Y-129410142D01*
X90189039Y-129415616D01*
X90165104Y-129420360D01*
X90140736Y-129424374D01*
X90115937Y-129427659D01*
X90090705Y-129430213D01*
X90065041Y-129432038D01*
X90038944Y-129433133D01*
X90012416Y-129433498D01*
X89986060Y-129433001D01*
X89960392Y-129431511D01*
X89935411Y-129429028D01*
X89911116Y-129425552D01*
X89887508Y-129421083D01*
X89864588Y-129415620D01*
X89842354Y-129409165D01*
X89820807Y-129401716D01*
X89799947Y-129393274D01*
X89779774Y-129383838D01*
X89760288Y-129373410D01*
X89741489Y-129361988D01*
X89723377Y-129349573D01*
X89705952Y-129336165D01*
X89689214Y-129321764D01*
X89673162Y-129306369D01*
X89657945Y-129290161D01*
X89643710Y-129273225D01*
X89630457Y-129255562D01*
X89618185Y-129237172D01*
X89606895Y-129218056D01*
X89596587Y-129198212D01*
X89587260Y-129177641D01*
X89578915Y-129156343D01*
X89571552Y-129134318D01*
X89565171Y-129111567D01*
X89559771Y-129088088D01*
X89555353Y-129063882D01*
X89551917Y-129038949D01*
X89549463Y-129013289D01*
X89547990Y-128986903D01*
X89547540Y-128961987D01*
X89758525Y-128961987D01*
X89758782Y-128979185D01*
X89759553Y-128995837D01*
X89760837Y-129011943D01*
X89762635Y-129027503D01*
X89764947Y-129042517D01*
X89767773Y-129056986D01*
X89774966Y-129084284D01*
X89784214Y-129109399D01*
X89795517Y-129132329D01*
X89808875Y-129153076D01*
X89824288Y-129171639D01*
X89841756Y-129188018D01*
X89861279Y-129202213D01*
X89882857Y-129214224D01*
X89906491Y-129224052D01*
X89932179Y-129231695D01*
X89959923Y-129237155D01*
X89974565Y-129239066D01*
X89989721Y-129240431D01*
X90005391Y-129241250D01*
X90021575Y-129241523D01*
X90049265Y-129241036D01*
X90075642Y-129239577D01*
X90100705Y-129237144D01*
X90124455Y-129233738D01*
X90146890Y-129229358D01*
X90168012Y-129224006D01*
X90187820Y-129217681D01*
X90206314Y-129210382D01*
X90223495Y-129202110D01*
X90239361Y-129192865D01*
X90253914Y-129182647D01*
X90267153Y-129171456D01*
X90279079Y-129159291D01*
X90289691Y-129146154D01*
X90298988Y-129132043D01*
X90306973Y-129116959D01*
X90313069Y-129103484D01*
X90318353Y-129089253D01*
X90322824Y-129074266D01*
X90326482Y-129058524D01*
X90329327Y-129042026D01*
X90331359Y-129024773D01*
X90332578Y-129006764D01*
X90332984Y-128987999D01*
X90330134Y-128970013D01*
X90325978Y-128952690D01*
X90320517Y-128936032D01*
X90313750Y-128920038D01*
X90305679Y-128904708D01*
X90296302Y-128890042D01*
X90285620Y-128876040D01*
X90273633Y-128862702D01*
X90261131Y-128850595D01*
X90248721Y-128840102D01*
X90236402Y-128831224D01*
X90221132Y-128822395D01*
X90206005Y-128816090D01*
X90191021Y-128812306D01*
X90176181Y-128811045D01*
X89823372Y-128811045D01*
X89815582Y-128823492D01*
X89806669Y-128835212D01*
X89805786Y-128836324D01*
X89794710Y-128850950D01*
X89785110Y-128865885D01*
X89776987Y-128881129D01*
X89770341Y-128896683D01*
X89765171Y-128912545D01*
X89761479Y-128928717D01*
X89759264Y-128945197D01*
X89758525Y-128961987D01*
X89547540Y-128961987D01*
X89547500Y-128959789D01*
X89548421Y-128940915D01*
X89551186Y-128922397D01*
X89555794Y-128904233D01*
X89562246Y-128886424D01*
X89570540Y-128868971D01*
X89577971Y-128856113D01*
X89586439Y-128843455D01*
X89595943Y-128830997D01*
X89606484Y-128818739D01*
X89613811Y-128811045D01*
X88998319Y-128811045D01*
X88984278Y-128806184D01*
X88968445Y-128799006D01*
X88953719Y-128790359D01*
X88940100Y-128780244D01*
X88927589Y-128768661D01*
X88921749Y-128762318D01*
X88911291Y-128749198D01*
X88902996Y-128735665D01*
X88896865Y-128721721D01*
X88892898Y-128707364D01*
X88891095Y-128692595D01*
X88890975Y-128687580D01*
X88892291Y-128671952D01*
X88897640Y-128655348D01*
X88907103Y-128641999D01*
X88920681Y-128631906D01*
X88934506Y-128626176D01*
X88950963Y-128622530D01*
X88970054Y-128620967D01*
X88975239Y-128620902D01*
X90420179Y-128620902D01*
X90435836Y-128624394D01*
G37*
G36*
X90993042Y-129518059D02*
G01*
X91008450Y-129521150D01*
X91022177Y-129526302D01*
X91037865Y-129536377D01*
X91050564Y-129550116D01*
X91058128Y-129562824D01*
X91064011Y-129577593D01*
X91068213Y-129594423D01*
X91070734Y-129613314D01*
X91071575Y-129634265D01*
X91069849Y-129651500D01*
X91064670Y-129666337D01*
X91056038Y-129678777D01*
X91043954Y-129688819D01*
X91028418Y-129696465D01*
X91013503Y-129700856D01*
X91000867Y-129703142D01*
X90681763Y-129703142D01*
X90665222Y-129703158D01*
X90648984Y-129703206D01*
X90633048Y-129703287D01*
X90617415Y-129703400D01*
X90602084Y-129703544D01*
X90587057Y-129703722D01*
X90572332Y-129703931D01*
X90553169Y-129704260D01*
X90534545Y-129704646D01*
X90520929Y-129704974D01*
X90525355Y-129719334D01*
X90528283Y-129734601D01*
X90530113Y-129749410D01*
X90531388Y-129766114D01*
X90532009Y-129780843D01*
X90532276Y-129796786D01*
X90532287Y-129800961D01*
X90531743Y-129826876D01*
X90530111Y-129852046D01*
X90527392Y-129876472D01*
X90523586Y-129900154D01*
X90518691Y-129923092D01*
X90512709Y-129945286D01*
X90505639Y-129966735D01*
X90497482Y-129987441D01*
X90488237Y-130007402D01*
X90477904Y-130026619D01*
X90466484Y-130045091D01*
X90453976Y-130062820D01*
X90440381Y-130079804D01*
X90425698Y-130096045D01*
X90409927Y-130111541D01*
X90393068Y-130126293D01*
X90375393Y-130140223D01*
X90357170Y-130153255D01*
X90338401Y-130165388D01*
X90319086Y-130176622D01*
X90299223Y-130186957D01*
X90278814Y-130196394D01*
X90257858Y-130204932D01*
X90236356Y-130212571D01*
X90214307Y-130219312D01*
X90191711Y-130225154D01*
X90168569Y-130230097D01*
X90144879Y-130234141D01*
X90120643Y-130237287D01*
X90095861Y-130239534D01*
X90070532Y-130240882D01*
X90044656Y-130241331D01*
X90018804Y-130240803D01*
X89993456Y-130239219D01*
X89968612Y-130236578D01*
X89944272Y-130232882D01*
X89920435Y-130228129D01*
X89897103Y-130222320D01*
X89874274Y-130215455D01*
X89851948Y-130207534D01*
X89830127Y-130198557D01*
X89808809Y-130188523D01*
X89787995Y-130177433D01*
X89767684Y-130165288D01*
X89747878Y-130152086D01*
X89728575Y-130137827D01*
X89709776Y-130122513D01*
X89691481Y-130106143D01*
X89674045Y-130088931D01*
X89657735Y-130071092D01*
X89642550Y-130052626D01*
X89628489Y-130033534D01*
X89615553Y-130013815D01*
X89603742Y-129993468D01*
X89593056Y-129972495D01*
X89583495Y-129950896D01*
X89575058Y-129928669D01*
X89567747Y-129905816D01*
X89561560Y-129882336D01*
X89556498Y-129858228D01*
X89552561Y-129833495D01*
X89549749Y-129808134D01*
X89548332Y-129786307D01*
X89758525Y-129786307D01*
X89758999Y-129801079D01*
X89760419Y-129815858D01*
X89762785Y-129830643D01*
X89766099Y-129845434D01*
X89770359Y-129860232D01*
X89775566Y-129875037D01*
X89781719Y-129889848D01*
X89788819Y-129904665D01*
X89796866Y-129919489D01*
X89805859Y-129934319D01*
X89812381Y-129944210D01*
X89821892Y-129958406D01*
X89832016Y-129971687D01*
X89842752Y-129984052D01*
X89854101Y-129995501D01*
X89866062Y-130006034D01*
X89878636Y-130015651D01*
X89891822Y-130024352D01*
X89905621Y-130032137D01*
X89920032Y-130039006D01*
X89935056Y-130044960D01*
X89950692Y-130049997D01*
X89966941Y-130054119D01*
X89983802Y-130057325D01*
X90001276Y-130059614D01*
X90019362Y-130060988D01*
X90038061Y-130061446D01*
X90056826Y-130061005D01*
X90075018Y-130059683D01*
X90092638Y-130057479D01*
X90109685Y-130054394D01*
X90126160Y-130050427D01*
X90142063Y-130045578D01*
X90157393Y-130039848D01*
X90172151Y-130033236D01*
X90186336Y-130025743D01*
X90199948Y-130017368D01*
X90212989Y-130008112D01*
X90225457Y-129997974D01*
X90237352Y-129986954D01*
X90248675Y-129975053D01*
X90259425Y-129962270D01*
X90269603Y-129948606D01*
X90278835Y-129934865D01*
X90287159Y-129920983D01*
X90294575Y-129906959D01*
X90301082Y-129892793D01*
X90306682Y-129878485D01*
X90311373Y-129864036D01*
X90315157Y-129849445D01*
X90318032Y-129834712D01*
X90320000Y-129819838D01*
X90321059Y-129804822D01*
X90321261Y-129794733D01*
X90320694Y-129778328D01*
X90318994Y-129762361D01*
X90316160Y-129746832D01*
X90312193Y-129731741D01*
X90307093Y-129717088D01*
X90305141Y-129712301D01*
X90285649Y-129713765D01*
X90264268Y-129715135D01*
X90240998Y-129716410D01*
X90215840Y-129717590D01*
X90188792Y-129718677D01*
X90159854Y-129719668D01*
X90144678Y-129720129D01*
X90129028Y-129720566D01*
X90112907Y-129720979D01*
X90096313Y-129721369D01*
X90079247Y-129721735D01*
X90061709Y-129722077D01*
X90043698Y-129722396D01*
X90025216Y-129722691D01*
X90006261Y-129722962D01*
X89986833Y-129723210D01*
X89966934Y-129723435D01*
X89946562Y-129723635D01*
X89925718Y-129723813D01*
X89904401Y-129723966D01*
X89882613Y-129724096D01*
X89860352Y-129724202D01*
X89837619Y-129724285D01*
X89814413Y-129724344D01*
X89790735Y-129724379D01*
X89766585Y-129724391D01*
X89762689Y-129739657D01*
X89760296Y-129754638D01*
X89758911Y-129770947D01*
X89758525Y-129786307D01*
X89548332Y-129786307D01*
X89548062Y-129782146D01*
X89547500Y-129755532D01*
X89547976Y-129729490D01*
X89549406Y-129705128D01*
X89551789Y-129682447D01*
X89555124Y-129661445D01*
X89559413Y-129642124D01*
X89564656Y-129624482D01*
X89570851Y-129608521D01*
X89577999Y-129594240D01*
X89586101Y-129581639D01*
X89600040Y-129565888D01*
X89616124Y-129553917D01*
X89634353Y-129545727D01*
X89654725Y-129541316D01*
X89669499Y-129540476D01*
X89686124Y-129540430D01*
X89705500Y-129540293D01*
X89727626Y-129540064D01*
X89752503Y-129539743D01*
X89780131Y-129539331D01*
X89794976Y-129539091D01*
X89810509Y-129538828D01*
X89826730Y-129538541D01*
X89843638Y-129538232D01*
X89861234Y-129537900D01*
X89879517Y-129537545D01*
X89898488Y-129537167D01*
X89918147Y-129536767D01*
X89938494Y-129536343D01*
X89959528Y-129535897D01*
X89981249Y-129535427D01*
X90003659Y-129534935D01*
X90026756Y-129534420D01*
X90050541Y-129533882D01*
X90075013Y-129533321D01*
X90100173Y-129532737D01*
X90126021Y-129532130D01*
X90152556Y-129531500D01*
X90179779Y-129530848D01*
X90207689Y-129530172D01*
X90236288Y-129529474D01*
X90265573Y-129528753D01*
X90294971Y-129528031D01*
X90323904Y-129527333D01*
X90352373Y-129526657D01*
X90380377Y-129526005D01*
X90407917Y-129525375D01*
X90434993Y-129524768D01*
X90461604Y-129524184D01*
X90487751Y-129523623D01*
X90513433Y-129523085D01*
X90538651Y-129522570D01*
X90563404Y-129522078D01*
X90587694Y-129521608D01*
X90611518Y-129521162D01*
X90634879Y-129520738D01*
X90657775Y-129520338D01*
X90680206Y-129519960D01*
X90702173Y-129519605D01*
X90723676Y-129519273D01*
X90744715Y-129518964D01*
X90765289Y-129518677D01*
X90785398Y-129518414D01*
X90805043Y-129518174D01*
X90824224Y-129517956D01*
X90842941Y-129517762D01*
X90861193Y-129517590D01*
X90878980Y-129517441D01*
X90896304Y-129517315D01*
X90913162Y-129517212D01*
X90929557Y-129517132D01*
X90945487Y-129517075D01*
X90960953Y-129517040D01*
X90975954Y-129517029D01*
X90993042Y-129518059D01*
G37*
G36*
X90124845Y-130339849D02*
G01*
X90146053Y-130340845D01*
X90166897Y-130342505D01*
X90187378Y-130344829D01*
X90207495Y-130347817D01*
X90227248Y-130351469D01*
X90246638Y-130355786D01*
X90265665Y-130360766D01*
X90284328Y-130366410D01*
X90302628Y-130372718D01*
X90320564Y-130379691D01*
X90338136Y-130387327D01*
X90355346Y-130395628D01*
X90372191Y-130404592D01*
X90388673Y-130414221D01*
X90404792Y-130424513D01*
X90420231Y-130435523D01*
X90434673Y-130447302D01*
X90448120Y-130459852D01*
X90460571Y-130473171D01*
X90472025Y-130487260D01*
X90482484Y-130502119D01*
X90491947Y-130517749D01*
X90500413Y-130534148D01*
X90507883Y-130551317D01*
X90514358Y-130569256D01*
X90519836Y-130587965D01*
X90524318Y-130607443D01*
X90527804Y-130627692D01*
X90530295Y-130648711D01*
X90531789Y-130670500D01*
X90532287Y-130693058D01*
X90531704Y-130714610D01*
X90529955Y-130735987D01*
X90527041Y-130757191D01*
X90522962Y-130778221D01*
X90517716Y-130799077D01*
X90511305Y-130819759D01*
X90503728Y-130840267D01*
X90498030Y-130853842D01*
X90491813Y-130867341D01*
X90485078Y-130880762D01*
X90477825Y-130894105D01*
X90470054Y-130907372D01*
X90465975Y-130913976D01*
X90457557Y-130926753D01*
X90448882Y-130938705D01*
X90435385Y-130955089D01*
X90421310Y-130969617D01*
X90406654Y-130982291D01*
X90391420Y-130993111D01*
X90375605Y-131002075D01*
X90359211Y-131009185D01*
X90342237Y-131014440D01*
X90324684Y-131017840D01*
X90306551Y-131019386D01*
X90300378Y-131019489D01*
X90281905Y-131018738D01*
X90263580Y-131016488D01*
X90245403Y-131012736D01*
X90227374Y-131007485D01*
X90209494Y-131000732D01*
X90191761Y-130992479D01*
X90174177Y-130982726D01*
X90156740Y-130971472D01*
X90139452Y-130958718D01*
X90128009Y-130949381D01*
X90116632Y-130939378D01*
X90110968Y-130934126D01*
X90099934Y-130923237D01*
X90089455Y-130911909D01*
X90079532Y-130900144D01*
X90070164Y-130887941D01*
X90061351Y-130875300D01*
X90053094Y-130862221D01*
X90045391Y-130848704D01*
X90038244Y-130834750D01*
X90031653Y-130820357D01*
X90025616Y-130805526D01*
X90020135Y-130790258D01*
X90015209Y-130774551D01*
X90010839Y-130758407D01*
X90007023Y-130741825D01*
X90003763Y-130724804D01*
X90001058Y-130707346D01*
X89999169Y-130691696D01*
X89997532Y-130674603D01*
X89996147Y-130656067D01*
X89995273Y-130641218D01*
X89994541Y-130625558D01*
X89993951Y-130609087D01*
X89993502Y-130591804D01*
X89993195Y-130573710D01*
X89993030Y-130554804D01*
X89992998Y-130541750D01*
X89973355Y-130544532D01*
X89954542Y-130547657D01*
X89936558Y-130551126D01*
X89919405Y-130554939D01*
X89903082Y-130559095D01*
X89887589Y-130563594D01*
X89872925Y-130568437D01*
X89859092Y-130573623D01*
X89839899Y-130582047D01*
X89822573Y-130591243D01*
X89807115Y-130601212D01*
X89793525Y-130611954D01*
X89781802Y-130623469D01*
X89778309Y-130627479D01*
X89768746Y-130638591D01*
X89761790Y-130653317D01*
X89758834Y-130668712D01*
X89758525Y-130676205D01*
X89758849Y-130691813D01*
X89759819Y-130707129D01*
X89761436Y-130722153D01*
X89763700Y-130736884D01*
X89766611Y-130751324D01*
X89772190Y-130772437D01*
X89779225Y-130792892D01*
X89787715Y-130812691D01*
X89797660Y-130831833D01*
X89809061Y-130850318D01*
X89821918Y-130868146D01*
X89831297Y-130879666D01*
X89841324Y-130890895D01*
X89851394Y-130901799D01*
X89865282Y-130917483D01*
X89877708Y-130932363D01*
X89888672Y-130946437D01*
X89898175Y-130959707D01*
X89906215Y-130972172D01*
X89914661Y-130987539D01*
X89920509Y-131001475D01*
X89924163Y-131016883D01*
X89924488Y-131022420D01*
X89921161Y-131037275D01*
X89913708Y-131051425D01*
X89903693Y-131065460D01*
X89892513Y-131078718D01*
X89890416Y-131081038D01*
X89879823Y-131091803D01*
X89867252Y-131102314D01*
X89854835Y-131110196D01*
X89840545Y-131116072D01*
X89824471Y-131118407D01*
X89808935Y-131116260D01*
X89792002Y-131109820D01*
X89778386Y-131102173D01*
X89763984Y-131092110D01*
X89748796Y-131079633D01*
X89732823Y-131064740D01*
X89721737Y-131053470D01*
X89710303Y-131041127D01*
X89698519Y-131027710D01*
X89686386Y-131013220D01*
X89673904Y-130997657D01*
X89661072Y-130981020D01*
X89649229Y-130965519D01*
X89640669Y-130953381D01*
X89632386Y-130940806D01*
X89624380Y-130927793D01*
X89616651Y-130914342D01*
X89609199Y-130900453D01*
X89602023Y-130886126D01*
X89595125Y-130871362D01*
X89588504Y-130856159D01*
X89582159Y-130840518D01*
X89580106Y-130835208D01*
X89574279Y-130819367D01*
X89569025Y-130803720D01*
X89564344Y-130788266D01*
X89560236Y-130773006D01*
X89556702Y-130757938D01*
X89553741Y-130743064D01*
X89551352Y-130728383D01*
X89549060Y-130709109D01*
X89547786Y-130690178D01*
X89547500Y-130676205D01*
X89548430Y-130652654D01*
X89551220Y-130629900D01*
X89555871Y-130607946D01*
X89562383Y-130586790D01*
X89570755Y-130566432D01*
X89580987Y-130546873D01*
X89584762Y-130541017D01*
X90204024Y-130541017D01*
X90204127Y-130557584D01*
X90204434Y-130573625D01*
X90204945Y-130589140D01*
X90205661Y-130604129D01*
X90207708Y-130632529D01*
X90210573Y-130658826D01*
X90214257Y-130683019D01*
X90218759Y-130705108D01*
X90224080Y-130725094D01*
X90230219Y-130742975D01*
X90237177Y-130758753D01*
X90244954Y-130772428D01*
X90258154Y-130788994D01*
X90273196Y-130800828D01*
X90290079Y-130807928D01*
X90308804Y-130810295D01*
X90325903Y-130807692D01*
X90340103Y-130799883D01*
X90351405Y-130786869D01*
X90358360Y-130772710D01*
X90363461Y-130755219D01*
X90366069Y-130739914D01*
X90367634Y-130722735D01*
X90368155Y-130703683D01*
X90367091Y-130685416D01*
X90363896Y-130667802D01*
X90358573Y-130650840D01*
X90351120Y-130634531D01*
X90341537Y-130618875D01*
X90329825Y-130603871D01*
X90319643Y-130593047D01*
X90308263Y-130582589D01*
X90300012Y-130575822D01*
X90287404Y-130567519D01*
X90272859Y-130560710D01*
X90258100Y-130555252D01*
X90240945Y-130549991D01*
X90225495Y-130545924D01*
X90208510Y-130541983D01*
X90204024Y-130541017D01*
X89584762Y-130541017D01*
X89593080Y-130528113D01*
X89607034Y-130510151D01*
X89622847Y-130492987D01*
X89640522Y-130476623D01*
X89660056Y-130461057D01*
X89681451Y-130446289D01*
X89704707Y-130432320D01*
X89729823Y-130419149D01*
X89743079Y-130412864D01*
X89756799Y-130406777D01*
X89770985Y-130400891D01*
X89785636Y-130395204D01*
X89803750Y-130388461D01*
X89822095Y-130382152D01*
X89840672Y-130376279D01*
X89859482Y-130370841D01*
X89878522Y-130365838D01*
X89897795Y-130361270D01*
X89917300Y-130357136D01*
X89937036Y-130353438D01*
X89957005Y-130350176D01*
X89977205Y-130347348D01*
X89997637Y-130344955D01*
X90018300Y-130342997D01*
X90039196Y-130341474D01*
X90060324Y-130340387D01*
X90081683Y-130339734D01*
X90103274Y-130339517D01*
X90124845Y-130339849D01*
G37*
G36*
X89867336Y-131508585D02*
G01*
X89657042Y-131510783D01*
X89641651Y-131509431D01*
X89626800Y-131505374D01*
X89612491Y-131498612D01*
X89598722Y-131489145D01*
X89587661Y-131479190D01*
X89581205Y-131472315D01*
X89571495Y-131460294D01*
X89562015Y-131445868D01*
X89554905Y-131431442D01*
X89550166Y-131417017D01*
X89547631Y-131400187D01*
X89547500Y-131395378D01*
X89549530Y-131378239D01*
X89555621Y-131363229D01*
X89565773Y-131350347D01*
X89579986Y-131339594D01*
X89594280Y-131332524D01*
X89611172Y-131326817D01*
X89625548Y-131323430D01*
X89630664Y-131322472D01*
X89646296Y-131321321D01*
X89661096Y-131320398D01*
X89680553Y-131319243D01*
X89696110Y-131318345D01*
X89713737Y-131317343D01*
X89733434Y-131316238D01*
X89755199Y-131315030D01*
X89779035Y-131313719D01*
X89804939Y-131312305D01*
X89832913Y-131310788D01*
X89847676Y-131309991D01*
X89862956Y-131309168D01*
X89878754Y-131308320D01*
X89895069Y-131307445D01*
X89911901Y-131306545D01*
X89929251Y-131305619D01*
X89946740Y-131304677D01*
X89963991Y-131303682D01*
X89981004Y-131302633D01*
X89997778Y-131301532D01*
X90014314Y-131300378D01*
X90030612Y-131299171D01*
X90046672Y-131297911D01*
X90062493Y-131296598D01*
X90078076Y-131295232D01*
X90093421Y-131293813D01*
X90108527Y-131292341D01*
X90123396Y-131290816D01*
X90138025Y-131289238D01*
X90166570Y-131285924D01*
X90194162Y-131282397D01*
X90220801Y-131278659D01*
X90246486Y-131274709D01*
X90271219Y-131270548D01*
X90294998Y-131266174D01*
X90317824Y-131261589D01*
X90339697Y-131256792D01*
X90360617Y-131251783D01*
X90370720Y-131249199D01*
X90389427Y-131244648D01*
X90406166Y-131240704D01*
X90420935Y-131237367D01*
X90436627Y-131234048D01*
X90451396Y-131231318D01*
X90465242Y-131229782D01*
X90483703Y-131231282D01*
X90499703Y-131235781D01*
X90513241Y-131243280D01*
X90524318Y-131253779D01*
X90532934Y-131267277D01*
X90539087Y-131283775D01*
X90542780Y-131303272D01*
X90543933Y-131319864D01*
X90544010Y-131325769D01*
X90542967Y-131340676D01*
X90539113Y-131356504D01*
X90532418Y-131370649D01*
X90522884Y-131383111D01*
X90514335Y-131390982D01*
X90501387Y-131400524D01*
X90488509Y-131408313D01*
X90473877Y-131415068D01*
X90459337Y-131419533D01*
X90455717Y-131420291D01*
X90440123Y-131423108D01*
X90424638Y-131425384D01*
X90409998Y-131427196D01*
X90394095Y-131428879D01*
X90379879Y-131430183D01*
X90364041Y-131431394D01*
X90347932Y-131431646D01*
X90333517Y-131428340D01*
X90332618Y-131426519D01*
X90351237Y-131433348D01*
X90369038Y-131441194D01*
X90386022Y-131450058D01*
X90402187Y-131459939D01*
X90417535Y-131470837D01*
X90432065Y-131482753D01*
X90445776Y-131495687D01*
X90458670Y-131509638D01*
X90470746Y-131524607D01*
X90482005Y-131540593D01*
X90489056Y-131551816D01*
X90498877Y-131569141D01*
X90507732Y-131586768D01*
X90515621Y-131604698D01*
X90522544Y-131622931D01*
X90528501Y-131641466D01*
X90533492Y-131660304D01*
X90537517Y-131679445D01*
X90540576Y-131698888D01*
X90542669Y-131718634D01*
X90543796Y-131738683D01*
X90544010Y-131752217D01*
X90543615Y-131774577D01*
X90542430Y-131795494D01*
X90540455Y-131814969D01*
X90537691Y-131833001D01*
X90534136Y-131849590D01*
X90529791Y-131864737D01*
X90521792Y-131884752D01*
X90512016Y-131901522D01*
X90500463Y-131915046D01*
X90487132Y-131925324D01*
X90472024Y-131932357D01*
X90455138Y-131936144D01*
X90442894Y-131936865D01*
X90427604Y-131936024D01*
X90410603Y-131932796D01*
X90395069Y-131927145D01*
X90381004Y-131919074D01*
X90368408Y-131908581D01*
X90362660Y-131902427D01*
X90352575Y-131889289D01*
X90344576Y-131875430D01*
X90338665Y-131860850D01*
X90334839Y-131845549D01*
X90333100Y-131829526D01*
X90332984Y-131824025D01*
X90332569Y-131802763D01*
X90331324Y-131782299D01*
X90329249Y-131762634D01*
X90326344Y-131743768D01*
X90322609Y-131725700D01*
X90318044Y-131708431D01*
X90312648Y-131691960D01*
X90306423Y-131676288D01*
X90299368Y-131661415D01*
X90291482Y-131647340D01*
X90282767Y-131634063D01*
X90273221Y-131621586D01*
X90262846Y-131609906D01*
X90251640Y-131599025D01*
X90239605Y-131588943D01*
X90226739Y-131579660D01*
X90212927Y-131571053D01*
X90197962Y-131563002D01*
X90181843Y-131555505D01*
X90164571Y-131548565D01*
X90146146Y-131542179D01*
X90126567Y-131536349D01*
X90105834Y-131531073D01*
X90083948Y-131526354D01*
X90060909Y-131522189D01*
X90036716Y-131518580D01*
X90011370Y-131515526D01*
X89984870Y-131513027D01*
X89957216Y-131511084D01*
X89928410Y-131509696D01*
X89913574Y-131509210D01*
X89898449Y-131508863D01*
X89883037Y-131508654D01*
X89867336Y-131508585D01*
G37*
G36*
X89867336Y-132316052D02*
G01*
X89657042Y-132318250D01*
X89641651Y-132316898D01*
X89626800Y-132312840D01*
X89612491Y-132306078D01*
X89598722Y-132296612D01*
X89587661Y-132286657D01*
X89581205Y-132279782D01*
X89571495Y-132267760D01*
X89562015Y-132253335D01*
X89554905Y-132238909D01*
X89550166Y-132224484D01*
X89547631Y-132207654D01*
X89547500Y-132202845D01*
X89549530Y-132185706D01*
X89555621Y-132170695D01*
X89565773Y-132157814D01*
X89579986Y-132147061D01*
X89594280Y-132139991D01*
X89611172Y-132134284D01*
X89625548Y-132130897D01*
X89630664Y-132129939D01*
X89646296Y-132128788D01*
X89661096Y-132127865D01*
X89680553Y-132126710D01*
X89696110Y-132125812D01*
X89713737Y-132124810D01*
X89733434Y-132123705D01*
X89755199Y-132122497D01*
X89779035Y-132121186D01*
X89804939Y-132119772D01*
X89832913Y-132118255D01*
X89847676Y-132117458D01*
X89862956Y-132116635D01*
X89878754Y-132115787D01*
X89895069Y-132114912D01*
X89911901Y-132114012D01*
X89929251Y-132113086D01*
X89946740Y-132112144D01*
X89963991Y-132111148D01*
X89981004Y-132110100D01*
X89997778Y-132108999D01*
X90014314Y-132107845D01*
X90030612Y-132106637D01*
X90046672Y-132105377D01*
X90062493Y-132104064D01*
X90078076Y-132102698D01*
X90093421Y-132101279D01*
X90108527Y-132099808D01*
X90123396Y-132098283D01*
X90138025Y-132096705D01*
X90166570Y-132093390D01*
X90194162Y-132089864D01*
X90220801Y-132086126D01*
X90246486Y-132082176D01*
X90271219Y-132078015D01*
X90294998Y-132073641D01*
X90317824Y-132069056D01*
X90339697Y-132064259D01*
X90360617Y-132059250D01*
X90370720Y-132056666D01*
X90389427Y-132052115D01*
X90406166Y-132048171D01*
X90420935Y-132044834D01*
X90436627Y-132041515D01*
X90451396Y-132038785D01*
X90465242Y-132037249D01*
X90483703Y-132038748D01*
X90499703Y-132043248D01*
X90513241Y-132050747D01*
X90524318Y-132061246D01*
X90532934Y-132074744D01*
X90539087Y-132091242D01*
X90542780Y-132110739D01*
X90543933Y-132127331D01*
X90544010Y-132133236D01*
X90542967Y-132148143D01*
X90539113Y-132163971D01*
X90532418Y-132178116D01*
X90522884Y-132190578D01*
X90514335Y-132198449D01*
X90501387Y-132207991D01*
X90488509Y-132215780D01*
X90473877Y-132222535D01*
X90459337Y-132227000D01*
X90455717Y-132227758D01*
X90440123Y-132230575D01*
X90424638Y-132232851D01*
X90409998Y-132234663D01*
X90394095Y-132236346D01*
X90379879Y-132237650D01*
X90364041Y-132238861D01*
X90347932Y-132239113D01*
X90333517Y-132235807D01*
X90332618Y-132233986D01*
X90351237Y-132240815D01*
X90369038Y-132248661D01*
X90386022Y-132257524D01*
X90402187Y-132267406D01*
X90417535Y-132278304D01*
X90432065Y-132290220D01*
X90445776Y-132303154D01*
X90458670Y-132317105D01*
X90470746Y-132332074D01*
X90482005Y-132348060D01*
X90489056Y-132359283D01*
X90498877Y-132376608D01*
X90507732Y-132394235D01*
X90515621Y-132412165D01*
X90522544Y-132430398D01*
X90528501Y-132448933D01*
X90533492Y-132467771D01*
X90537517Y-132486912D01*
X90540576Y-132506355D01*
X90542669Y-132526101D01*
X90543796Y-132546150D01*
X90544010Y-132559684D01*
X90543615Y-132582044D01*
X90542430Y-132602961D01*
X90540455Y-132622435D01*
X90537691Y-132640467D01*
X90534136Y-132657057D01*
X90529791Y-132672204D01*
X90521792Y-132692219D01*
X90512016Y-132708989D01*
X90500463Y-132722513D01*
X90487132Y-132732791D01*
X90472024Y-132739824D01*
X90455138Y-132743610D01*
X90442894Y-132744332D01*
X90427604Y-132743491D01*
X90410603Y-132740262D01*
X90395069Y-132734612D01*
X90381004Y-132726541D01*
X90368408Y-132716048D01*
X90362660Y-132709893D01*
X90352575Y-132696756D01*
X90344576Y-132682897D01*
X90338665Y-132668317D01*
X90334839Y-132653015D01*
X90333100Y-132636993D01*
X90332984Y-132631492D01*
X90332569Y-132610230D01*
X90331324Y-132589766D01*
X90329249Y-132570101D01*
X90326344Y-132551235D01*
X90322609Y-132533167D01*
X90318044Y-132515898D01*
X90312648Y-132499427D01*
X90306423Y-132483755D01*
X90299368Y-132468882D01*
X90291482Y-132454807D01*
X90282767Y-132441530D01*
X90273221Y-132429052D01*
X90262846Y-132417373D01*
X90251640Y-132406492D01*
X90239605Y-132396410D01*
X90226739Y-132387127D01*
X90212927Y-132378520D01*
X90197962Y-132370468D01*
X90181843Y-132362972D01*
X90164571Y-132356031D01*
X90146146Y-132349646D01*
X90126567Y-132343815D01*
X90105834Y-132338540D01*
X90083948Y-132333821D01*
X90060909Y-132329656D01*
X90036716Y-132326047D01*
X90011370Y-132322993D01*
X89984870Y-132320494D01*
X89957216Y-132318551D01*
X89928410Y-132317162D01*
X89913574Y-132316677D01*
X89898449Y-132316330D01*
X89883037Y-132316121D01*
X89867336Y-132316052D01*
G37*
G36*
X90532287Y-133512598D02*
G01*
X90530913Y-133528122D01*
X90526791Y-133543555D01*
X90519922Y-133558897D01*
X90511657Y-133572246D01*
X90510305Y-133574147D01*
X90500497Y-133585995D01*
X90488430Y-133595973D01*
X90473760Y-133602655D01*
X90459747Y-133604555D01*
X90443214Y-133602974D01*
X90426951Y-133600163D01*
X90406495Y-133595947D01*
X90381845Y-133590326D01*
X90353003Y-133583299D01*
X90337009Y-133579259D01*
X90319967Y-133574867D01*
X90301876Y-133570124D01*
X90282738Y-133565030D01*
X90262551Y-133559584D01*
X90241316Y-133553787D01*
X90219032Y-133547638D01*
X90195701Y-133541139D01*
X90171321Y-133534288D01*
X90145892Y-133527085D01*
X90119416Y-133519531D01*
X90091891Y-133511626D01*
X90063317Y-133503370D01*
X90033696Y-133494762D01*
X90003026Y-133485803D01*
X89971308Y-133476492D01*
X89938542Y-133466831D01*
X89904727Y-133456818D01*
X89869864Y-133446453D01*
X89833953Y-133435737D01*
X89796994Y-133424670D01*
X89759860Y-133413541D01*
X89723426Y-133402594D01*
X89687692Y-133391828D01*
X89652657Y-133381245D01*
X89618323Y-133370843D01*
X89584688Y-133360622D01*
X89551753Y-133350584D01*
X89519518Y-133340727D01*
X89487983Y-133331052D01*
X89457148Y-133321559D01*
X89427012Y-133312247D01*
X89397576Y-133303117D01*
X89368840Y-133294169D01*
X89340804Y-133285403D01*
X89313468Y-133276819D01*
X89286831Y-133268416D01*
X89260895Y-133260195D01*
X89235658Y-133252156D01*
X89211121Y-133244298D01*
X89187283Y-133236622D01*
X89164146Y-133229128D01*
X89141708Y-133221816D01*
X89119970Y-133214685D01*
X89098932Y-133207737D01*
X89078594Y-133200970D01*
X89058956Y-133194384D01*
X89040017Y-133187981D01*
X89021778Y-133181759D01*
X89004239Y-133175719D01*
X88987400Y-133169861D01*
X88971261Y-133164184D01*
X88955821Y-133158690D01*
X88940623Y-133152885D01*
X88927451Y-133146279D01*
X88913836Y-133136895D01*
X88903387Y-133126258D01*
X88895028Y-133111841D01*
X88891228Y-133095621D01*
X88890975Y-133089813D01*
X88892095Y-133072949D01*
X88895457Y-133057527D01*
X88901060Y-133043548D01*
X88908904Y-133031012D01*
X88918989Y-133019918D01*
X88922848Y-133016540D01*
X88935565Y-133007576D01*
X88950085Y-133000466D01*
X88966409Y-132995211D01*
X88981389Y-132992249D01*
X88997621Y-132990574D01*
X89011509Y-132990162D01*
X89028018Y-132991267D01*
X89043435Y-132993546D01*
X89061454Y-132997067D01*
X89082075Y-133001832D01*
X89097268Y-133005699D01*
X89113617Y-133010118D01*
X89131122Y-133015090D01*
X89149784Y-133020614D01*
X89169602Y-133026690D01*
X89190576Y-133033319D01*
X89212707Y-133040500D01*
X89235994Y-133048234D01*
X89260437Y-133056520D01*
X89273093Y-133060870D01*
X89298047Y-133069532D01*
X89321802Y-133077746D01*
X89344358Y-133085514D01*
X89365714Y-133092836D01*
X89385871Y-133099711D01*
X89404829Y-133106139D01*
X89422588Y-133112121D01*
X89439147Y-133117657D01*
X89454507Y-133122746D01*
X89468668Y-133127388D01*
X89487661Y-133133515D01*
X89503955Y-133138637D01*
X89521483Y-133143903D01*
X89528449Y-133145867D01*
X89541965Y-133138511D01*
X89561084Y-133129174D01*
X89585803Y-133117857D01*
X89600263Y-133111456D01*
X89616124Y-133104559D01*
X89633385Y-133097168D01*
X89652046Y-133089281D01*
X89672108Y-133080899D01*
X89693570Y-133072022D01*
X89716432Y-133062649D01*
X89740695Y-133052782D01*
X89766358Y-133042419D01*
X89793422Y-133031561D01*
X89821885Y-133020208D01*
X89851749Y-133008360D01*
X89883014Y-132996017D01*
X89915678Y-132983178D01*
X89949743Y-132969845D01*
X89985209Y-132956016D01*
X90022075Y-132941692D01*
X90060341Y-132926873D01*
X90100007Y-132911558D01*
X90141074Y-132895749D01*
X90183541Y-132879444D01*
X90227409Y-132862644D01*
X90272676Y-132845350D01*
X90319345Y-132827559D01*
X90367413Y-132809274D01*
X90416882Y-132790494D01*
X90431262Y-132786922D01*
X90447000Y-132785749D01*
X90449488Y-132785731D01*
X90464849Y-132789108D01*
X90479284Y-132796894D01*
X90491674Y-132806075D01*
X90501146Y-132814307D01*
X90511729Y-132825783D01*
X90520122Y-132838779D01*
X90526326Y-132853295D01*
X90530340Y-132869331D01*
X90532165Y-132886886D01*
X90532287Y-132893076D01*
X90531034Y-132908304D01*
X90527278Y-132922621D01*
X90521017Y-132936025D01*
X90512251Y-132948517D01*
X90500981Y-132960096D01*
X90487207Y-132970763D01*
X90480996Y-132974775D01*
X90465372Y-132980671D01*
X90447765Y-132987230D01*
X90428175Y-132994452D01*
X90414013Y-132999636D01*
X90398969Y-133005114D01*
X90383043Y-133010887D01*
X90366236Y-133016955D01*
X90348548Y-133023318D01*
X90329978Y-133029975D01*
X90310526Y-133036928D01*
X90290193Y-133044175D01*
X90268978Y-133051717D01*
X90246882Y-133059553D01*
X90223904Y-133067685D01*
X90212084Y-133071861D01*
X90188637Y-133080213D01*
X90166014Y-133088325D01*
X90144215Y-133096196D01*
X90123241Y-133103827D01*
X90103091Y-133111217D01*
X90083765Y-133118367D01*
X90065264Y-133125276D01*
X90047587Y-133131945D01*
X90030734Y-133138374D01*
X90014706Y-133144562D01*
X89999501Y-133150509D01*
X89985122Y-133156217D01*
X89965098Y-133164327D01*
X89946928Y-133171896D01*
X89935846Y-133176642D01*
X89920072Y-133183444D01*
X89904762Y-133189977D01*
X89889916Y-133196238D01*
X89875533Y-133202230D01*
X89861614Y-133207951D01*
X89843777Y-133215158D01*
X89826764Y-133221884D01*
X89810575Y-133228129D01*
X89795210Y-133233894D01*
X89791498Y-133235260D01*
X89805824Y-133239296D01*
X89824072Y-133244259D01*
X89838416Y-133248083D01*
X89854503Y-133252319D01*
X89872333Y-133256967D01*
X89891906Y-133262027D01*
X89913223Y-133267500D01*
X89936282Y-133273385D01*
X89961085Y-133279682D01*
X89987630Y-133286391D01*
X90015919Y-133293512D01*
X90030717Y-133297227D01*
X90045951Y-133301045D01*
X90061621Y-133304966D01*
X90077726Y-133308991D01*
X90094267Y-133313118D01*
X90111244Y-133317348D01*
X90128657Y-133321682D01*
X90146505Y-133326118D01*
X90164351Y-133330546D01*
X90181710Y-133334855D01*
X90198583Y-133339044D01*
X90214969Y-133343114D01*
X90230869Y-133347064D01*
X90246282Y-133350895D01*
X90261209Y-133354606D01*
X90275648Y-133358198D01*
X90303069Y-133365023D01*
X90328542Y-133371370D01*
X90352070Y-133377239D01*
X90373651Y-133382630D01*
X90393286Y-133387543D01*
X90410974Y-133391978D01*
X90426717Y-133395935D01*
X90446680Y-133400974D01*
X90462265Y-133404938D01*
X90476233Y-133408550D01*
X90492381Y-133413699D01*
X90505793Y-133422961D01*
X90516467Y-133436339D01*
X90523036Y-133450003D01*
X90527853Y-133466300D01*
X90530918Y-133485231D01*
X90532068Y-133501157D01*
X90532287Y-133512598D01*
G37*
G36*
X90518130Y-140882386D02*
G01*
X90539591Y-140882794D01*
X90560399Y-140883474D01*
X90580555Y-140884425D01*
X90600058Y-140885649D01*
X90618909Y-140887145D01*
X90637107Y-140888912D01*
X90654652Y-140890951D01*
X90671545Y-140893263D01*
X90687785Y-140895846D01*
X90703373Y-140898701D01*
X90718308Y-140901828D01*
X90732591Y-140905227D01*
X90752791Y-140910835D01*
X90771523Y-140917055D01*
X90789192Y-140924257D01*
X90806204Y-140932811D01*
X90822560Y-140942718D01*
X90838258Y-140953977D01*
X90853300Y-140966589D01*
X90867685Y-140980553D01*
X90881412Y-140995870D01*
X90894484Y-141012538D01*
X90906898Y-141030560D01*
X90914809Y-141043325D01*
X90922428Y-141056692D01*
X90926128Y-141063600D01*
X90932740Y-141078564D01*
X90938470Y-141094879D01*
X90943319Y-141112544D01*
X90947286Y-141131561D01*
X90949683Y-141146710D01*
X90951583Y-141162619D01*
X90952988Y-141179288D01*
X90953898Y-141196717D01*
X90954311Y-141214905D01*
X90954338Y-141221137D01*
X90954226Y-141239550D01*
X90953887Y-141257145D01*
X90953324Y-141273923D01*
X90952535Y-141289882D01*
X90951521Y-141305023D01*
X90949818Y-141323940D01*
X90947714Y-141341402D01*
X90945210Y-141357411D01*
X90942304Y-141371965D01*
X90941516Y-141375376D01*
X90937507Y-141393288D01*
X90933083Y-141410479D01*
X90928245Y-141426948D01*
X90922991Y-141442696D01*
X90917323Y-141457723D01*
X90911239Y-141472028D01*
X90904740Y-141485612D01*
X90894214Y-141504636D01*
X90882754Y-141522037D01*
X90870360Y-141537815D01*
X90857033Y-141551970D01*
X90842771Y-141564502D01*
X90827576Y-141575411D01*
X90811506Y-141585036D01*
X90794483Y-141593714D01*
X90776507Y-141601445D01*
X90757578Y-141608230D01*
X90737695Y-141614067D01*
X90716860Y-141618959D01*
X90702440Y-141621693D01*
X90687596Y-141624008D01*
X90672329Y-141625901D01*
X90656639Y-141627374D01*
X90640524Y-141628425D01*
X90623986Y-141629057D01*
X90607025Y-141629267D01*
X90583487Y-141628941D01*
X90560869Y-141627962D01*
X90539169Y-141626330D01*
X90518388Y-141624046D01*
X90498525Y-141621110D01*
X90479582Y-141617520D01*
X90461557Y-141613279D01*
X90444451Y-141608384D01*
X90428264Y-141602837D01*
X90412995Y-141596638D01*
X90398645Y-141589785D01*
X90385214Y-141582281D01*
X90372702Y-141574123D01*
X90355657Y-141560664D01*
X90340678Y-141545736D01*
X90336419Y-141561352D01*
X90329799Y-141575048D01*
X90322039Y-141587760D01*
X90312239Y-141601652D01*
X90302931Y-141613616D01*
X90292318Y-141626336D01*
X90281110Y-141639210D01*
X90269832Y-141651455D01*
X90258487Y-141663070D01*
X90247072Y-141674055D01*
X90235589Y-141684410D01*
X90224037Y-141694136D01*
X90212416Y-141703232D01*
X90200727Y-141711699D01*
X90184190Y-141721847D01*
X90166591Y-141730997D01*
X90147929Y-141739149D01*
X90128204Y-141746303D01*
X90107417Y-141752459D01*
X90092968Y-141756008D01*
X90078048Y-141759113D01*
X90062655Y-141761775D01*
X90046789Y-141763993D01*
X90030452Y-141765768D01*
X90013642Y-141767099D01*
X89996360Y-141767986D01*
X89978605Y-141768430D01*
X89969551Y-141768485D01*
X89941446Y-141767930D01*
X89914373Y-141766264D01*
X89888334Y-141763488D01*
X89863328Y-141759601D01*
X89839356Y-141754604D01*
X89816417Y-141748496D01*
X89794511Y-141741277D01*
X89773638Y-141732948D01*
X89753798Y-141723508D01*
X89734992Y-141712958D01*
X89717219Y-141701298D01*
X89700479Y-141688526D01*
X89684773Y-141674645D01*
X89670100Y-141659652D01*
X89656460Y-141643549D01*
X89643853Y-141626336D01*
X89632185Y-141607986D01*
X89621270Y-141588475D01*
X89611108Y-141567801D01*
X89601699Y-141545965D01*
X89593042Y-141522967D01*
X89585138Y-141498807D01*
X89577986Y-141473485D01*
X89571588Y-141447001D01*
X89565942Y-141419354D01*
X89561049Y-141390546D01*
X89558885Y-141375706D01*
X89556909Y-141360576D01*
X89555121Y-141345155D01*
X89553522Y-141329444D01*
X89552110Y-141313442D01*
X89550887Y-141297149D01*
X89549852Y-141280566D01*
X89549005Y-141263693D01*
X89548346Y-141246529D01*
X89547876Y-141229074D01*
X89547594Y-141211329D01*
X89547500Y-141193293D01*
X89547500Y-141081552D01*
X89758525Y-141081552D01*
X89758641Y-141110323D01*
X89758989Y-141138018D01*
X89759569Y-141164637D01*
X89760380Y-141190179D01*
X89761423Y-141214646D01*
X89762698Y-141238036D01*
X89764205Y-141260350D01*
X89765944Y-141281587D01*
X89767915Y-141301749D01*
X89770117Y-141320834D01*
X89772552Y-141338843D01*
X89775218Y-141355776D01*
X89778116Y-141371633D01*
X89781246Y-141386413D01*
X89786375Y-141406566D01*
X89788201Y-141412746D01*
X89793933Y-141430314D01*
X89799866Y-141446749D01*
X89805998Y-141462050D01*
X89812329Y-141476218D01*
X89821082Y-141493346D01*
X89830190Y-141508458D01*
X89839652Y-141521556D01*
X89849470Y-141532638D01*
X89859642Y-141541706D01*
X89872740Y-141551099D01*
X89886160Y-141558901D01*
X89899903Y-141565110D01*
X89913967Y-141569727D01*
X89928353Y-141572752D01*
X89943061Y-141574185D01*
X89949035Y-141574312D01*
X89966165Y-141574274D01*
X89981286Y-141574158D01*
X89996388Y-141573925D01*
X90011786Y-141573471D01*
X90017178Y-141573213D01*
X90032720Y-141571289D01*
X90047947Y-141567975D01*
X90063380Y-141563716D01*
X90071767Y-141561123D01*
X90086097Y-141556019D01*
X90100672Y-141549070D01*
X90113323Y-141540929D01*
X90125256Y-141530349D01*
X90134644Y-141518877D01*
X90142633Y-141506547D01*
X90150412Y-141492079D01*
X90156912Y-141477976D01*
X90161160Y-141467700D01*
X90166015Y-141453559D01*
X90170047Y-141437468D01*
X90173256Y-141419427D01*
X90175231Y-141403590D01*
X90176679Y-141386506D01*
X90177601Y-141368173D01*
X90177996Y-141348593D01*
X90178012Y-141343503D01*
X90177790Y-141327237D01*
X90177124Y-141309079D01*
X90176013Y-141289027D01*
X90174458Y-141267081D01*
X90173174Y-141251399D01*
X90171693Y-141234876D01*
X90170014Y-141217511D01*
X90168138Y-141199304D01*
X90166064Y-141180256D01*
X90163793Y-141160366D01*
X90161324Y-141139635D01*
X90158658Y-141118063D01*
X90155794Y-141095649D01*
X90152733Y-141072393D01*
X90134381Y-141072402D01*
X90116417Y-141072429D01*
X90098843Y-141072474D01*
X90081659Y-141072536D01*
X90064863Y-141072617D01*
X90048457Y-141072715D01*
X90032440Y-141072831D01*
X90016812Y-141072966D01*
X90001574Y-141073118D01*
X89986724Y-141073288D01*
X89958194Y-141073681D01*
X89931220Y-141074146D01*
X89905804Y-141074683D01*
X89881944Y-141075291D01*
X89859642Y-141075971D01*
X89838896Y-141076722D01*
X89819708Y-141077545D01*
X89802077Y-141078440D01*
X89786003Y-141079406D01*
X89764811Y-141080989D01*
X89758525Y-141081552D01*
X89547500Y-141081552D01*
X89547500Y-141070928D01*
X90332252Y-141070928D01*
X90339706Y-141085133D01*
X90343350Y-141101956D01*
X90346017Y-141117943D01*
X90348190Y-141133116D01*
X90348738Y-141137240D01*
X90351034Y-141153669D01*
X90353341Y-141169434D01*
X90355659Y-141184535D01*
X90358573Y-141202478D01*
X90361505Y-141219383D01*
X90364455Y-141235250D01*
X90367423Y-141250080D01*
X90373589Y-141274791D01*
X90380732Y-141297908D01*
X90388851Y-141319430D01*
X90397945Y-141339358D01*
X90408016Y-141357692D01*
X90419063Y-141374432D01*
X90431086Y-141389577D01*
X90444084Y-141403129D01*
X90458059Y-141415085D01*
X90473010Y-141425448D01*
X90488937Y-141434217D01*
X90505840Y-141441391D01*
X90523719Y-141446971D01*
X90542573Y-141450956D01*
X90562404Y-141453348D01*
X90583211Y-141454145D01*
X90598346Y-141453684D01*
X90617314Y-141451638D01*
X90634897Y-141447954D01*
X90651094Y-141442633D01*
X90665906Y-141435675D01*
X90679333Y-141427080D01*
X90691374Y-141416848D01*
X90702030Y-141404978D01*
X90704478Y-141401755D01*
X90713580Y-141388211D01*
X90721468Y-141373590D01*
X90728143Y-141357894D01*
X90733604Y-141341121D01*
X90737851Y-141323273D01*
X90740885Y-141304348D01*
X90742364Y-141289448D01*
X90743161Y-141273942D01*
X90743312Y-141263269D01*
X90743013Y-141243433D01*
X90742115Y-141224865D01*
X90740617Y-141207566D01*
X90738521Y-141191536D01*
X90735826Y-141176774D01*
X90731301Y-141159066D01*
X90725711Y-141143613D01*
X90719056Y-141130415D01*
X90709241Y-141117090D01*
X90698937Y-141106412D01*
X90688078Y-141095453D01*
X90683595Y-141091078D01*
X90670348Y-141082794D01*
X90655474Y-141078412D01*
X90652821Y-141077889D01*
X90638309Y-141075502D01*
X90623572Y-141073355D01*
X90621680Y-141073126D01*
X90606778Y-141072761D01*
X90591626Y-141072966D01*
X90585043Y-141073126D01*
X90570317Y-141073706D01*
X90555464Y-141074198D01*
X90553536Y-141074225D01*
X90332252Y-141070928D01*
X89547500Y-141070928D01*
X89547500Y-140911926D01*
X89562090Y-140908804D01*
X89581405Y-140905852D01*
X89605447Y-140903069D01*
X89634213Y-140900454D01*
X89650369Y-140899210D01*
X89667706Y-140898008D01*
X89686224Y-140896849D01*
X89705923Y-140895731D01*
X89726804Y-140894656D01*
X89748867Y-140893623D01*
X89772110Y-140892633D01*
X89796536Y-140891684D01*
X89822142Y-140890778D01*
X89848930Y-140889914D01*
X89876899Y-140889092D01*
X89906050Y-140888312D01*
X89936382Y-140887575D01*
X89967895Y-140886880D01*
X90000590Y-140886227D01*
X90034466Y-140885616D01*
X90069524Y-140885048D01*
X90105763Y-140884521D01*
X90143183Y-140884037D01*
X90181785Y-140883595D01*
X90221568Y-140883196D01*
X90262532Y-140882838D01*
X90304678Y-140882523D01*
X90348005Y-140882250D01*
X90496017Y-140882250D01*
X90518130Y-140882386D01*
G37*
G36*
X89867336Y-142203726D02*
G01*
X89657042Y-142205924D01*
X89641651Y-142204572D01*
X89626800Y-142200515D01*
X89612491Y-142193753D01*
X89598722Y-142184286D01*
X89587661Y-142174331D01*
X89581205Y-142167456D01*
X89571495Y-142155435D01*
X89562015Y-142141009D01*
X89554905Y-142126584D01*
X89550166Y-142112158D01*
X89547631Y-142095328D01*
X89547500Y-142090520D01*
X89549530Y-142073380D01*
X89555621Y-142058370D01*
X89565773Y-142045488D01*
X89579986Y-142034735D01*
X89594280Y-142027665D01*
X89611172Y-142021958D01*
X89625548Y-142018572D01*
X89630664Y-142017613D01*
X89646296Y-142016462D01*
X89661096Y-142015539D01*
X89680553Y-142014384D01*
X89696110Y-142013486D01*
X89713737Y-142012484D01*
X89733434Y-142011379D01*
X89755199Y-142010171D01*
X89779035Y-142008860D01*
X89804939Y-142007446D01*
X89832913Y-142005929D01*
X89847676Y-142005132D01*
X89862956Y-142004309D01*
X89878754Y-142003461D01*
X89895069Y-142002586D01*
X89911901Y-142001686D01*
X89929251Y-142000760D01*
X89946740Y-141999818D01*
X89963991Y-141998823D01*
X89981004Y-141997774D01*
X89997778Y-141996673D01*
X90014314Y-141995519D01*
X90030612Y-141994312D01*
X90046672Y-141993052D01*
X90062493Y-141991739D01*
X90078076Y-141990373D01*
X90093421Y-141988954D01*
X90108527Y-141987482D01*
X90123396Y-141985957D01*
X90138025Y-141984379D01*
X90166570Y-141981065D01*
X90194162Y-141977538D01*
X90220801Y-141973800D01*
X90246486Y-141969850D01*
X90271219Y-141965689D01*
X90294998Y-141961315D01*
X90317824Y-141956730D01*
X90339697Y-141951933D01*
X90360617Y-141946924D01*
X90370720Y-141944340D01*
X90389427Y-141939789D01*
X90406166Y-141935845D01*
X90420935Y-141932508D01*
X90436627Y-141929189D01*
X90451396Y-141926459D01*
X90465242Y-141924923D01*
X90483703Y-141926423D01*
X90499703Y-141930922D01*
X90513241Y-141938421D01*
X90524318Y-141948920D01*
X90532934Y-141962418D01*
X90539087Y-141978916D01*
X90542780Y-141998413D01*
X90543933Y-142015005D01*
X90544010Y-142020910D01*
X90542967Y-142035817D01*
X90539113Y-142051645D01*
X90532418Y-142065790D01*
X90522884Y-142078252D01*
X90514335Y-142086123D01*
X90501387Y-142095665D01*
X90488509Y-142103454D01*
X90473877Y-142110209D01*
X90459337Y-142114674D01*
X90455717Y-142115432D01*
X90440123Y-142118249D01*
X90424638Y-142120525D01*
X90409998Y-142122337D01*
X90394095Y-142124020D01*
X90379879Y-142125324D01*
X90364041Y-142126535D01*
X90347932Y-142126787D01*
X90333517Y-142123481D01*
X90332618Y-142121660D01*
X90351237Y-142128489D01*
X90369038Y-142136335D01*
X90386022Y-142145199D01*
X90402187Y-142155080D01*
X90417535Y-142165978D01*
X90432065Y-142177895D01*
X90445776Y-142190828D01*
X90458670Y-142204779D01*
X90470746Y-142219748D01*
X90482005Y-142235734D01*
X90489056Y-142246957D01*
X90498877Y-142264282D01*
X90507732Y-142281909D01*
X90515621Y-142299839D01*
X90522544Y-142318072D01*
X90528501Y-142336607D01*
X90533492Y-142355445D01*
X90537517Y-142374586D01*
X90540576Y-142394029D01*
X90542669Y-142413776D01*
X90543796Y-142433824D01*
X90544010Y-142447358D01*
X90543615Y-142469718D01*
X90542430Y-142490635D01*
X90540455Y-142510110D01*
X90537691Y-142528142D01*
X90534136Y-142544731D01*
X90529791Y-142559878D01*
X90521792Y-142579893D01*
X90512016Y-142596663D01*
X90500463Y-142610187D01*
X90487132Y-142620465D01*
X90472024Y-142627498D01*
X90455138Y-142631285D01*
X90442894Y-142632006D01*
X90427604Y-142631165D01*
X90410603Y-142627937D01*
X90395069Y-142622287D01*
X90381004Y-142614215D01*
X90368408Y-142603722D01*
X90362660Y-142597568D01*
X90352575Y-142584430D01*
X90344576Y-142570571D01*
X90338665Y-142555991D01*
X90334839Y-142540690D01*
X90333100Y-142524667D01*
X90332984Y-142519166D01*
X90332569Y-142497904D01*
X90331324Y-142477440D01*
X90329249Y-142457775D01*
X90326344Y-142438909D01*
X90322609Y-142420841D01*
X90318044Y-142403572D01*
X90312648Y-142387101D01*
X90306423Y-142371429D01*
X90299368Y-142356556D01*
X90291482Y-142342481D01*
X90282767Y-142329204D01*
X90273221Y-142316727D01*
X90262846Y-142305047D01*
X90251640Y-142294167D01*
X90239605Y-142284084D01*
X90226739Y-142274801D01*
X90212927Y-142266194D01*
X90197962Y-142258143D01*
X90181843Y-142250646D01*
X90164571Y-142243706D01*
X90146146Y-142237320D01*
X90126567Y-142231490D01*
X90105834Y-142226215D01*
X90083948Y-142221495D01*
X90060909Y-142217330D01*
X90036716Y-142213721D01*
X90011370Y-142210667D01*
X89984870Y-142208168D01*
X89957216Y-142206225D01*
X89928410Y-142204837D01*
X89913574Y-142204351D01*
X89898449Y-142204004D01*
X89883037Y-142203795D01*
X89867336Y-142203726D01*
G37*
G36*
X90124845Y-142677767D02*
G01*
X90146053Y-142678763D01*
X90166897Y-142680423D01*
X90187378Y-142682747D01*
X90207495Y-142685736D01*
X90227248Y-142689388D01*
X90246638Y-142693704D01*
X90265665Y-142698684D01*
X90284328Y-142704329D01*
X90302628Y-142710637D01*
X90320564Y-142717609D01*
X90338136Y-142725246D01*
X90355346Y-142733546D01*
X90372191Y-142742511D01*
X90388673Y-142752139D01*
X90404792Y-142762432D01*
X90420231Y-142773441D01*
X90434673Y-142785221D01*
X90448120Y-142797770D01*
X90460571Y-142811089D01*
X90472025Y-142825179D01*
X90482484Y-142840038D01*
X90491947Y-142855667D01*
X90500413Y-142872066D01*
X90507883Y-142889235D01*
X90514358Y-142907174D01*
X90519836Y-142925883D01*
X90524318Y-142945362D01*
X90527804Y-142965611D01*
X90530295Y-142986629D01*
X90531789Y-143008418D01*
X90532287Y-143030977D01*
X90531704Y-143052528D01*
X90529955Y-143073906D01*
X90527041Y-143095109D01*
X90522962Y-143116139D01*
X90517716Y-143136995D01*
X90511305Y-143157677D01*
X90503728Y-143178185D01*
X90498030Y-143191761D01*
X90491813Y-143205259D01*
X90485078Y-143218680D01*
X90477825Y-143232024D01*
X90470054Y-143245290D01*
X90465975Y-143251894D01*
X90457557Y-143264671D01*
X90448882Y-143276624D01*
X90435385Y-143293007D01*
X90421310Y-143307536D01*
X90406654Y-143320210D01*
X90391420Y-143331029D01*
X90375605Y-143339993D01*
X90359211Y-143347103D01*
X90342237Y-143352358D01*
X90324684Y-143355759D01*
X90306551Y-143357304D01*
X90300378Y-143357407D01*
X90281905Y-143356657D01*
X90263580Y-143354406D01*
X90245403Y-143350655D01*
X90227374Y-143345403D01*
X90209494Y-143338651D01*
X90191761Y-143330398D01*
X90174177Y-143320644D01*
X90156740Y-143309391D01*
X90139452Y-143296636D01*
X90128009Y-143287300D01*
X90116632Y-143277296D01*
X90110968Y-143272044D01*
X90099934Y-143261155D01*
X90089455Y-143249828D01*
X90079532Y-143238063D01*
X90070164Y-143225860D01*
X90061351Y-143213219D01*
X90053094Y-143200140D01*
X90045391Y-143186623D01*
X90038244Y-143172668D01*
X90031653Y-143158275D01*
X90025616Y-143143445D01*
X90020135Y-143128176D01*
X90015209Y-143112470D01*
X90010839Y-143096325D01*
X90007023Y-143079743D01*
X90003763Y-143062723D01*
X90001058Y-143045265D01*
X89999169Y-143029614D01*
X89997532Y-143012521D01*
X89996147Y-142993985D01*
X89995273Y-142979137D01*
X89994541Y-142963477D01*
X89993951Y-142947005D01*
X89993502Y-142929723D01*
X89993195Y-142911628D01*
X89993030Y-142892723D01*
X89992998Y-142879668D01*
X89973355Y-142882450D01*
X89954542Y-142885576D01*
X89936558Y-142889045D01*
X89919405Y-142892857D01*
X89903082Y-142897013D01*
X89887589Y-142901513D01*
X89872925Y-142906356D01*
X89859092Y-142911542D01*
X89839899Y-142919965D01*
X89822573Y-142929162D01*
X89807115Y-142939131D01*
X89793525Y-142949873D01*
X89781802Y-142961387D01*
X89778309Y-142965397D01*
X89768746Y-142976510D01*
X89761790Y-142991236D01*
X89758834Y-143006631D01*
X89758525Y-143014124D01*
X89758849Y-143029732D01*
X89759819Y-143045047D01*
X89761436Y-143060071D01*
X89763700Y-143074803D01*
X89766611Y-143089243D01*
X89772190Y-143110355D01*
X89779225Y-143130811D01*
X89787715Y-143150610D01*
X89797660Y-143169751D01*
X89809061Y-143188236D01*
X89821918Y-143206064D01*
X89831297Y-143217585D01*
X89841324Y-143228813D01*
X89851394Y-143239717D01*
X89865282Y-143255402D01*
X89877708Y-143270281D01*
X89888672Y-143284356D01*
X89898175Y-143297625D01*
X89906215Y-143310090D01*
X89914661Y-143325457D01*
X89920509Y-143339393D01*
X89924163Y-143354801D01*
X89924488Y-143360338D01*
X89921161Y-143375193D01*
X89913708Y-143389344D01*
X89903693Y-143403379D01*
X89892513Y-143416637D01*
X89890416Y-143418956D01*
X89879823Y-143429722D01*
X89867252Y-143440232D01*
X89854835Y-143448115D01*
X89840545Y-143453990D01*
X89824471Y-143456326D01*
X89808935Y-143454179D01*
X89792002Y-143447739D01*
X89778386Y-143440091D01*
X89763984Y-143430029D01*
X89748796Y-143417551D01*
X89732823Y-143402659D01*
X89721737Y-143391389D01*
X89710303Y-143379046D01*
X89698519Y-143365629D01*
X89686386Y-143351139D01*
X89673904Y-143335576D01*
X89661072Y-143318939D01*
X89649229Y-143303437D01*
X89640669Y-143291300D01*
X89632386Y-143278725D01*
X89624380Y-143265712D01*
X89616651Y-143252261D01*
X89609199Y-143238372D01*
X89602023Y-143224045D01*
X89595125Y-143209280D01*
X89588504Y-143194077D01*
X89582159Y-143178437D01*
X89580106Y-143173126D01*
X89574279Y-143157286D01*
X89569025Y-143141639D01*
X89564344Y-143126185D01*
X89560236Y-143110924D01*
X89556702Y-143095857D01*
X89553741Y-143080982D01*
X89551352Y-143066301D01*
X89549060Y-143047027D01*
X89547786Y-143028096D01*
X89547500Y-143014124D01*
X89548430Y-142990572D01*
X89551220Y-142967819D01*
X89555871Y-142945864D01*
X89562383Y-142924708D01*
X89570755Y-142904351D01*
X89580987Y-142884792D01*
X89584762Y-142878935D01*
X90204024Y-142878935D01*
X90204127Y-142895502D01*
X90204434Y-142911543D01*
X90204945Y-142927058D01*
X90205661Y-142942047D01*
X90207708Y-142970448D01*
X90210573Y-142996744D01*
X90214257Y-143020937D01*
X90218759Y-143043027D01*
X90224080Y-143063012D01*
X90230219Y-143080894D01*
X90237177Y-143096672D01*
X90244954Y-143110346D01*
X90258154Y-143126913D01*
X90273196Y-143138746D01*
X90290079Y-143145846D01*
X90308804Y-143148213D01*
X90325903Y-143145610D01*
X90340103Y-143137802D01*
X90351405Y-143124788D01*
X90358360Y-143110628D01*
X90363461Y-143093137D01*
X90366069Y-143077833D01*
X90367634Y-143060654D01*
X90368155Y-143041601D01*
X90367091Y-143023334D01*
X90363896Y-143005720D01*
X90358573Y-142988759D01*
X90351120Y-142972450D01*
X90341537Y-142956794D01*
X90329825Y-142941790D01*
X90319643Y-142930965D01*
X90308263Y-142920508D01*
X90300012Y-142913740D01*
X90287404Y-142905438D01*
X90272859Y-142898629D01*
X90258100Y-142893171D01*
X90240945Y-142887910D01*
X90225495Y-142883842D01*
X90208510Y-142879901D01*
X90204024Y-142878935D01*
X89584762Y-142878935D01*
X89593080Y-142866031D01*
X89607034Y-142848069D01*
X89622847Y-142830906D01*
X89640522Y-142814541D01*
X89660056Y-142798975D01*
X89681451Y-142784207D01*
X89704707Y-142770238D01*
X89729823Y-142757068D01*
X89743079Y-142750782D01*
X89756799Y-142744696D01*
X89770985Y-142738809D01*
X89785636Y-142733122D01*
X89803750Y-142726379D01*
X89822095Y-142720071D01*
X89840672Y-142714197D01*
X89859482Y-142708759D01*
X89878522Y-142703756D01*
X89897795Y-142699188D01*
X89917300Y-142695055D01*
X89937036Y-142691357D01*
X89957005Y-142688094D01*
X89977205Y-142685266D01*
X89997637Y-142682873D01*
X90018300Y-142680916D01*
X90039196Y-142679393D01*
X90060324Y-142678305D01*
X90081683Y-142677653D01*
X90103274Y-142677435D01*
X90124845Y-142677767D01*
G37*
G36*
X90033566Y-143523467D02*
G01*
X90049346Y-143523757D01*
X90064882Y-143524240D01*
X90080176Y-143524916D01*
X90095227Y-143525785D01*
X90110036Y-143526848D01*
X90138926Y-143529553D01*
X90166845Y-143533030D01*
X90193795Y-143537281D01*
X90219774Y-143542304D01*
X90244782Y-143548100D01*
X90268821Y-143554669D01*
X90291889Y-143562010D01*
X90313987Y-143570125D01*
X90335114Y-143579012D01*
X90355271Y-143588672D01*
X90374458Y-143599105D01*
X90392675Y-143610310D01*
X90409921Y-143622289D01*
X90426158Y-143634991D01*
X90441348Y-143648369D01*
X90455490Y-143662423D01*
X90468585Y-143677152D01*
X90480632Y-143692556D01*
X90491632Y-143708636D01*
X90501584Y-143725391D01*
X90510488Y-143742822D01*
X90518345Y-143760929D01*
X90525154Y-143779711D01*
X90530916Y-143799168D01*
X90535630Y-143819301D01*
X90539296Y-143840109D01*
X90541915Y-143861593D01*
X90543487Y-143883752D01*
X90544010Y-143906587D01*
X90543695Y-143922790D01*
X90542748Y-143938839D01*
X90541170Y-143954733D01*
X90538961Y-143970472D01*
X90536121Y-143986057D01*
X90532650Y-144001487D01*
X90528548Y-144016763D01*
X90523814Y-144031884D01*
X90518450Y-144046850D01*
X90512454Y-144061662D01*
X90508107Y-144071451D01*
X90520308Y-144081850D01*
X90529985Y-144094360D01*
X90537138Y-144108983D01*
X90541766Y-144125719D01*
X90543695Y-144141279D01*
X90544010Y-144151319D01*
X90542516Y-144169978D01*
X90538034Y-144186803D01*
X90530564Y-144201792D01*
X90520105Y-144214946D01*
X90506658Y-144226264D01*
X90490223Y-144235747D01*
X90470800Y-144243394D01*
X90456192Y-144247473D01*
X90440255Y-144250736D01*
X90422990Y-144253183D01*
X90404397Y-144254815D01*
X90384476Y-144255630D01*
X90374017Y-144255732D01*
X90358850Y-144255732D01*
X90344013Y-144255732D01*
X90338114Y-144255732D01*
X90190102Y-144251702D01*
X90172746Y-144251187D01*
X90155481Y-144250741D01*
X90138308Y-144250363D01*
X90121226Y-144250054D01*
X90104236Y-144249813D01*
X90087337Y-144249642D01*
X90070530Y-144249539D01*
X90053815Y-144249504D01*
X89577175Y-144281011D01*
X89561977Y-144279151D01*
X89545828Y-144271593D01*
X89535189Y-144261361D01*
X89526577Y-144247407D01*
X89519991Y-144229733D01*
X89516381Y-144214036D01*
X89513912Y-144196245D01*
X89512582Y-144176362D01*
X89512329Y-144161943D01*
X89512329Y-144146492D01*
X89512329Y-144130580D01*
X89512329Y-144127139D01*
X89514647Y-144112574D01*
X89522661Y-144099451D01*
X89534768Y-144090393D01*
X89541638Y-144087205D01*
X89556636Y-144082694D01*
X89572321Y-144080519D01*
X89588693Y-144080679D01*
X89603581Y-144082735D01*
X89605751Y-144083175D01*
X89622078Y-144086060D01*
X89637872Y-144087445D01*
X89653476Y-144086461D01*
X89658142Y-144085373D01*
X89644743Y-144074253D01*
X89632210Y-144062510D01*
X89620541Y-144050142D01*
X89609736Y-144037150D01*
X89599795Y-144023535D01*
X89590719Y-144009295D01*
X89582507Y-143994432D01*
X89575160Y-143978944D01*
X89568677Y-143962833D01*
X89563059Y-143946097D01*
X89558304Y-143928738D01*
X89554415Y-143910755D01*
X89551389Y-143892147D01*
X89549228Y-143872916D01*
X89548532Y-143862257D01*
X89758525Y-143862257D01*
X89759775Y-143877868D01*
X89763523Y-143894200D01*
X89768555Y-143908360D01*
X89775322Y-143923022D01*
X89783825Y-143938185D01*
X89791876Y-143950675D01*
X89794063Y-143953848D01*
X89803084Y-143966087D01*
X89814748Y-143980001D01*
X89826841Y-143992377D01*
X89839363Y-144003214D01*
X89852315Y-144012512D01*
X89865695Y-144020272D01*
X89873930Y-144024190D01*
X89893744Y-144031261D01*
X89913892Y-144037637D01*
X89934376Y-144043317D01*
X89955194Y-144048301D01*
X89976347Y-144052591D01*
X89997836Y-144056184D01*
X90019659Y-144059082D01*
X90034393Y-144060628D01*
X90049277Y-144061864D01*
X90064309Y-144062791D01*
X90079490Y-144063410D01*
X90094821Y-144063719D01*
X90102541Y-144063757D01*
X90117788Y-144063639D01*
X90132480Y-144063282D01*
X90153477Y-144062302D01*
X90173224Y-144060788D01*
X90191722Y-144058739D01*
X90208970Y-144056155D01*
X90224969Y-144053037D01*
X90239719Y-144049385D01*
X90257442Y-144043683D01*
X90272944Y-144037031D01*
X90279862Y-144033349D01*
X90292312Y-144025112D01*
X90305541Y-144013028D01*
X90316176Y-143998958D01*
X90324217Y-143982903D01*
X90328782Y-143968629D01*
X90331688Y-143953084D01*
X90332933Y-143936269D01*
X90332984Y-143931866D01*
X90332440Y-143910815D01*
X90330808Y-143890801D01*
X90328087Y-143871823D01*
X90324278Y-143853882D01*
X90319380Y-143836978D01*
X90313394Y-143821111D01*
X90306320Y-143806281D01*
X90298157Y-143792488D01*
X90288906Y-143779731D01*
X90278567Y-143768011D01*
X90271069Y-143760774D01*
X90258579Y-143750822D01*
X90244188Y-143741849D01*
X90227898Y-143733855D01*
X90209709Y-143726840D01*
X90189619Y-143720803D01*
X90175171Y-143717323D01*
X90159878Y-143714277D01*
X90143741Y-143711667D01*
X90126759Y-143709492D01*
X90108933Y-143707752D01*
X90090263Y-143706446D01*
X90070748Y-143705576D01*
X90050389Y-143705141D01*
X90039893Y-143705087D01*
X90022582Y-143705240D01*
X90005821Y-143705701D01*
X89989610Y-143706468D01*
X89973948Y-143707543D01*
X89958835Y-143708924D01*
X89944272Y-143710612D01*
X89916795Y-143714910D01*
X89891516Y-143720436D01*
X89868435Y-143727189D01*
X89847552Y-143735170D01*
X89828867Y-143744379D01*
X89812381Y-143754817D01*
X89798093Y-143766482D01*
X89786003Y-143779374D01*
X89776111Y-143793495D01*
X89768417Y-143808844D01*
X89762922Y-143825420D01*
X89759624Y-143843225D01*
X89758525Y-143862257D01*
X89548532Y-143862257D01*
X89547932Y-143853061D01*
X89547500Y-143832582D01*
X89547959Y-143813558D01*
X89549336Y-143795138D01*
X89551631Y-143777322D01*
X89554844Y-143760110D01*
X89558975Y-143743502D01*
X89564025Y-143727498D01*
X89569992Y-143712098D01*
X89576877Y-143697302D01*
X89584681Y-143683109D01*
X89593402Y-143669521D01*
X89603042Y-143656536D01*
X89613600Y-143644156D01*
X89625075Y-143632379D01*
X89637469Y-143621207D01*
X89650781Y-143610638D01*
X89665011Y-143600673D01*
X89680159Y-143591312D01*
X89696225Y-143582555D01*
X89713209Y-143574402D01*
X89731111Y-143566853D01*
X89749931Y-143559908D01*
X89769669Y-143553567D01*
X89790326Y-143547829D01*
X89811900Y-143542696D01*
X89834392Y-143538166D01*
X89857803Y-143534241D01*
X89882131Y-143530919D01*
X89907378Y-143528202D01*
X89933543Y-143526088D01*
X89960625Y-143524578D01*
X89988626Y-143523672D01*
X90017545Y-143523370D01*
X90033566Y-143523467D01*
G37*
G36*
X89982380Y-144345774D02*
G01*
X90003829Y-144346619D01*
X90025107Y-144348029D01*
X90046213Y-144350002D01*
X90067147Y-144352540D01*
X90087910Y-144355641D01*
X90108501Y-144359306D01*
X90128920Y-144363535D01*
X90149167Y-144368328D01*
X90169243Y-144373684D01*
X90189146Y-144379605D01*
X90208879Y-144386089D01*
X90228439Y-144393138D01*
X90247828Y-144400750D01*
X90267045Y-144408926D01*
X90286090Y-144417665D01*
X90304713Y-144427006D01*
X90322663Y-144436985D01*
X90339941Y-144447603D01*
X90356546Y-144458858D01*
X90372479Y-144470752D01*
X90387739Y-144483285D01*
X90402326Y-144496455D01*
X90416241Y-144510264D01*
X90429483Y-144524711D01*
X90442052Y-144539796D01*
X90453949Y-144555520D01*
X90465173Y-144571882D01*
X90475725Y-144588882D01*
X90485604Y-144606520D01*
X90494810Y-144624797D01*
X90503344Y-144643712D01*
X90510611Y-144661452D01*
X90517164Y-144679089D01*
X90523002Y-144696623D01*
X90528125Y-144714054D01*
X90532533Y-144731382D01*
X90536227Y-144748607D01*
X90539205Y-144765729D01*
X90541469Y-144782747D01*
X90543017Y-144799663D01*
X90543851Y-144816476D01*
X90544010Y-144827627D01*
X90543850Y-144842968D01*
X90543287Y-144857929D01*
X90542047Y-144872907D01*
X90541446Y-144877453D01*
X90943714Y-144875254D01*
X90959197Y-144875581D01*
X90980549Y-144877294D01*
X90999653Y-144880475D01*
X91016510Y-144885125D01*
X91031119Y-144891243D01*
X91047101Y-144901684D01*
X91059088Y-144914736D01*
X91067080Y-144930398D01*
X91071075Y-144948670D01*
X91071575Y-144958785D01*
X91070941Y-144973866D01*
X91068121Y-144991949D01*
X91063047Y-145007720D01*
X91055716Y-145021178D01*
X91046131Y-145032324D01*
X91034290Y-145041157D01*
X91020193Y-145047677D01*
X91003841Y-145051884D01*
X90999401Y-145052575D01*
X90984063Y-145053993D01*
X90968489Y-145054887D01*
X90948137Y-145055814D01*
X90931914Y-145056449D01*
X90913567Y-145057099D01*
X90893096Y-145057763D01*
X90870502Y-145058441D01*
X90845784Y-145059134D01*
X90818942Y-145059841D01*
X90789976Y-145060562D01*
X90774697Y-145060928D01*
X90758887Y-145061298D01*
X90742545Y-145061671D01*
X90725673Y-145062048D01*
X90708270Y-145062428D01*
X90690336Y-145062812D01*
X90671871Y-145063199D01*
X90653178Y-145063596D01*
X90634558Y-145064006D01*
X90616012Y-145064431D01*
X90597540Y-145064871D01*
X90579141Y-145065324D01*
X90560816Y-145065792D01*
X90542565Y-145066275D01*
X90524387Y-145066771D01*
X90506283Y-145067282D01*
X90488253Y-145067807D01*
X90470296Y-145068347D01*
X90452414Y-145068901D01*
X90434604Y-145069469D01*
X90416869Y-145070051D01*
X90399207Y-145070648D01*
X90381619Y-145071259D01*
X90364105Y-145071885D01*
X90346664Y-145072524D01*
X90329298Y-145073178D01*
X90312004Y-145073847D01*
X90294785Y-145074529D01*
X90277639Y-145075226D01*
X90260567Y-145075938D01*
X90243569Y-145076663D01*
X90226644Y-145077403D01*
X90209793Y-145078157D01*
X90193016Y-145078926D01*
X90176312Y-145079709D01*
X90159682Y-145080506D01*
X90143126Y-145081317D01*
X90126644Y-145082143D01*
X90110235Y-145082983D01*
X90093920Y-145083839D01*
X90077672Y-145084669D01*
X90061491Y-145085471D01*
X90045377Y-145086246D01*
X90029331Y-145086994D01*
X90013352Y-145087714D01*
X89997440Y-145088408D01*
X89981595Y-145089074D01*
X89965818Y-145089713D01*
X89950108Y-145090324D01*
X89934465Y-145090909D01*
X89918890Y-145091467D01*
X89903382Y-145091997D01*
X89887941Y-145092500D01*
X89872567Y-145092976D01*
X89857260Y-145093424D01*
X89842021Y-145093846D01*
X89826849Y-145094240D01*
X89811745Y-145094607D01*
X89796707Y-145094947D01*
X89781737Y-145095260D01*
X89766834Y-145095545D01*
X89751999Y-145095803D01*
X89737230Y-145096035D01*
X89722529Y-145096239D01*
X89693329Y-145096565D01*
X89664398Y-145096782D01*
X89635735Y-145096891D01*
X89621505Y-145096905D01*
X89604160Y-145095239D01*
X89589128Y-145090241D01*
X89576408Y-145081912D01*
X89566001Y-145070252D01*
X89557907Y-145055259D01*
X89552125Y-145036935D01*
X89549306Y-145021006D01*
X89547789Y-145003203D01*
X89547500Y-144990293D01*
X89548507Y-144972690D01*
X89551530Y-144957434D01*
X89558141Y-144941665D01*
X89567901Y-144929564D01*
X89580810Y-144921129D01*
X89596867Y-144916362D01*
X89611980Y-144915188D01*
X89600456Y-144900764D01*
X89590066Y-144885379D01*
X89580810Y-144869036D01*
X89572687Y-144851733D01*
X89565698Y-144833470D01*
X89559841Y-144814248D01*
X89555119Y-144794066D01*
X89551530Y-144772924D01*
X89549766Y-144758297D01*
X89548507Y-144743243D01*
X89547751Y-144727763D01*
X89547610Y-144718817D01*
X89758525Y-144718817D01*
X89759243Y-144734513D01*
X89761398Y-144749591D01*
X89764988Y-144764051D01*
X89770014Y-144777893D01*
X89776477Y-144791117D01*
X89784375Y-144803722D01*
X89793710Y-144815709D01*
X89804481Y-144827077D01*
X89816688Y-144837828D01*
X89830331Y-144847960D01*
X89840225Y-144854372D01*
X89855975Y-144863341D01*
X89872588Y-144871429D01*
X89890064Y-144878634D01*
X89908403Y-144884957D01*
X89927605Y-144890398D01*
X89947669Y-144894956D01*
X89968597Y-144898633D01*
X89990388Y-144901426D01*
X90005395Y-144902799D01*
X90020785Y-144903779D01*
X90036559Y-144904367D01*
X90052716Y-144904563D01*
X90070755Y-144904505D01*
X90087961Y-144904329D01*
X90104335Y-144904035D01*
X90119875Y-144903625D01*
X90134583Y-144903097D01*
X90155082Y-144902084D01*
X90173708Y-144900808D01*
X90190459Y-144899268D01*
X90205337Y-144897464D01*
X90222258Y-144894647D01*
X90238725Y-144890467D01*
X90241393Y-144889543D01*
X90256072Y-144883768D01*
X90271407Y-144876673D01*
X90284813Y-144869192D01*
X90297773Y-144860170D01*
X90303309Y-144855471D01*
X90313751Y-144844523D01*
X90322295Y-144831814D01*
X90327974Y-144817174D01*
X90328588Y-144814438D01*
X90330907Y-144799926D01*
X90332259Y-144785153D01*
X90332916Y-144768757D01*
X90332984Y-144760949D01*
X90331565Y-144744142D01*
X90327993Y-144728008D01*
X90323202Y-144713119D01*
X90316814Y-144697251D01*
X90310270Y-144683279D01*
X90302483Y-144669308D01*
X90293318Y-144656017D01*
X90282776Y-144643405D01*
X90270857Y-144631473D01*
X90257560Y-144620221D01*
X90242886Y-144609649D01*
X90236631Y-144605610D01*
X90223446Y-144597669D01*
X90210178Y-144590240D01*
X90196827Y-144583324D01*
X90183393Y-144576919D01*
X90169877Y-144571027D01*
X90149446Y-144563150D01*
X90128828Y-144556426D01*
X90108024Y-144550854D01*
X90087032Y-144546435D01*
X90065854Y-144543169D01*
X90044490Y-144541056D01*
X90022938Y-144540095D01*
X90015713Y-144540031D01*
X89994464Y-144540440D01*
X89973995Y-144541667D01*
X89954304Y-144543711D01*
X89935393Y-144546574D01*
X89917262Y-144550255D01*
X89899909Y-144554753D01*
X89883336Y-144560069D01*
X89867542Y-144566203D01*
X89852527Y-144573155D01*
X89838291Y-144580925D01*
X89829234Y-144586559D01*
X89816597Y-144595690D01*
X89805204Y-144605497D01*
X89791946Y-144619625D01*
X89780898Y-144634955D01*
X89772059Y-144651487D01*
X89765430Y-144669222D01*
X89761011Y-144688158D01*
X89759147Y-144703149D01*
X89758525Y-144718817D01*
X89547610Y-144718817D01*
X89547500Y-144711856D01*
X89547967Y-144691629D01*
X89549371Y-144671888D01*
X89551711Y-144652634D01*
X89554987Y-144633866D01*
X89559199Y-144615585D01*
X89564347Y-144597791D01*
X89570430Y-144580483D01*
X89577450Y-144563662D01*
X89585405Y-144547327D01*
X89594297Y-144531479D01*
X89604124Y-144516117D01*
X89614888Y-144501242D01*
X89626587Y-144486854D01*
X89639222Y-144472952D01*
X89652793Y-144459537D01*
X89667301Y-144446608D01*
X89682486Y-144434364D01*
X89698092Y-144422909D01*
X89714119Y-144412244D01*
X89730567Y-144402370D01*
X89747436Y-144393285D01*
X89764725Y-144384990D01*
X89782435Y-144377486D01*
X89800566Y-144370771D01*
X89819117Y-144364846D01*
X89838089Y-144359711D01*
X89857482Y-144355366D01*
X89877296Y-144351811D01*
X89897531Y-144349046D01*
X89918186Y-144347072D01*
X89939262Y-144345887D01*
X89960758Y-144345492D01*
X89982380Y-144345774D01*
G37*
G36*
X90269237Y-145226598D02*
G01*
X90284745Y-145226958D01*
X90299851Y-145228040D01*
X90314558Y-145229843D01*
X90335865Y-145233901D01*
X90356272Y-145239581D01*
X90375776Y-145246884D01*
X90394379Y-145255810D01*
X90412081Y-145266358D01*
X90428880Y-145278530D01*
X90444779Y-145292324D01*
X90459775Y-145307742D01*
X90469272Y-145318921D01*
X90478322Y-145330615D01*
X90490803Y-145348558D01*
X90501970Y-145366984D01*
X90511823Y-145385893D01*
X90520363Y-145405285D01*
X90527588Y-145425160D01*
X90533500Y-145445518D01*
X90538098Y-145466358D01*
X90541383Y-145487682D01*
X90543353Y-145509489D01*
X90543937Y-145524295D01*
X90544010Y-145531779D01*
X90543819Y-145546813D01*
X90543243Y-145561781D01*
X90542284Y-145576683D01*
X90540942Y-145591519D01*
X90539216Y-145606290D01*
X90537107Y-145620995D01*
X90534614Y-145635633D01*
X90531737Y-145650206D01*
X90528477Y-145664714D01*
X90524833Y-145679155D01*
X90520806Y-145693530D01*
X90516396Y-145707840D01*
X90511601Y-145722084D01*
X90506424Y-145736262D01*
X90500862Y-145750374D01*
X90494918Y-145764420D01*
X90488684Y-145778040D01*
X90478796Y-145796823D01*
X90468265Y-145813628D01*
X90457089Y-145828456D01*
X90445269Y-145841307D01*
X90432806Y-145852181D01*
X90419698Y-145861078D01*
X90405947Y-145867997D01*
X90391551Y-145872940D01*
X90376512Y-145875906D01*
X90360828Y-145876894D01*
X90344449Y-145875799D01*
X90329384Y-145872515D01*
X90315632Y-145867041D01*
X90301249Y-145857887D01*
X90290344Y-145847669D01*
X90288654Y-145845753D01*
X90278376Y-145832532D01*
X90269721Y-145818410D01*
X90263925Y-145803782D01*
X90262276Y-145791898D01*
X90262431Y-145776476D01*
X90263059Y-145760966D01*
X90263375Y-145756727D01*
X90268027Y-145740855D01*
X90273849Y-145726249D01*
X90280471Y-145710870D01*
X90286929Y-145696467D01*
X90294416Y-145680198D01*
X90298546Y-145671364D01*
X90304701Y-145657888D01*
X90311965Y-145640311D01*
X90318153Y-145623181D01*
X90323265Y-145606497D01*
X90327301Y-145590260D01*
X90330260Y-145574469D01*
X90332144Y-145559124D01*
X90332951Y-145544227D01*
X90332984Y-145540572D01*
X90332340Y-145522833D01*
X90330408Y-145506025D01*
X90327188Y-145490147D01*
X90322681Y-145475199D01*
X90316885Y-145461181D01*
X90309801Y-145448094D01*
X90306606Y-145443119D01*
X90295877Y-145429797D01*
X90283474Y-145419231D01*
X90269396Y-145411421D01*
X90253644Y-145406368D01*
X90236217Y-145404071D01*
X90230036Y-145403918D01*
X90214949Y-145405036D01*
X90198119Y-145409329D01*
X90182680Y-145416843D01*
X90170877Y-145425564D01*
X90160040Y-145436520D01*
X90150169Y-145449714D01*
X90142853Y-145462479D01*
X90135743Y-145477695D01*
X90128839Y-145495360D01*
X90123797Y-145510217D01*
X90118870Y-145526453D01*
X90114060Y-145544066D01*
X90109365Y-145563057D01*
X90104786Y-145583427D01*
X90100323Y-145605175D01*
X90097412Y-145620439D01*
X90094444Y-145635797D01*
X90091310Y-145650727D01*
X90088010Y-145665232D01*
X90082748Y-145686188D01*
X90077113Y-145706186D01*
X90071105Y-145725223D01*
X90064723Y-145743302D01*
X90057967Y-145760420D01*
X90050838Y-145776579D01*
X90043336Y-145791779D01*
X90035459Y-145806019D01*
X90030001Y-145814979D01*
X90021013Y-145827550D01*
X90010673Y-145838884D01*
X89998980Y-145848982D01*
X89985934Y-145857843D01*
X89971537Y-145865468D01*
X89955787Y-145871857D01*
X89938684Y-145877009D01*
X89920229Y-145880924D01*
X89900422Y-145883603D01*
X89879262Y-145885046D01*
X89864405Y-145885321D01*
X89843227Y-145884946D01*
X89822834Y-145883821D01*
X89803225Y-145881946D01*
X89784400Y-145879321D01*
X89766359Y-145875947D01*
X89749103Y-145871822D01*
X89732631Y-145866948D01*
X89716943Y-145861324D01*
X89702039Y-145854950D01*
X89687920Y-145847826D01*
X89674585Y-145839952D01*
X89662034Y-145831328D01*
X89650268Y-145821954D01*
X89639285Y-145811830D01*
X89629087Y-145800957D01*
X89619673Y-145789333D01*
X89610933Y-145777230D01*
X89602758Y-145764827D01*
X89595145Y-145752123D01*
X89588097Y-145739118D01*
X89581613Y-145725813D01*
X89575692Y-145712208D01*
X89570336Y-145698302D01*
X89565543Y-145684095D01*
X89561314Y-145669588D01*
X89557649Y-145654780D01*
X89554548Y-145639672D01*
X89552010Y-145624263D01*
X89550037Y-145608554D01*
X89548627Y-145592544D01*
X89547781Y-145576234D01*
X89547500Y-145559623D01*
X89547657Y-145543052D01*
X89548129Y-145526770D01*
X89548916Y-145510778D01*
X89550018Y-145495074D01*
X89551435Y-145479660D01*
X89553167Y-145464534D01*
X89555213Y-145449698D01*
X89557575Y-145435151D01*
X89561707Y-145413872D01*
X89566548Y-145393243D01*
X89572097Y-145373265D01*
X89578354Y-145353938D01*
X89585320Y-145335261D01*
X89587800Y-145329180D01*
X89595745Y-145311960D01*
X89604471Y-145296434D01*
X89613975Y-145282602D01*
X89624259Y-145270464D01*
X89635321Y-145260019D01*
X89647163Y-145251269D01*
X89664165Y-145242235D01*
X89682552Y-145236213D01*
X89697251Y-145233673D01*
X89712730Y-145232826D01*
X89730539Y-145233653D01*
X89746596Y-145236136D01*
X89760901Y-145240274D01*
X89777250Y-145248365D01*
X89790485Y-145259399D01*
X89800606Y-145273375D01*
X89807612Y-145290294D01*
X89810824Y-145304914D01*
X89812284Y-145321189D01*
X89812381Y-145326981D01*
X89810686Y-145341567D01*
X89807192Y-145356504D01*
X89802823Y-145371568D01*
X89797131Y-145389012D01*
X89791624Y-145404679D01*
X89785270Y-145421870D01*
X89779002Y-145439742D01*
X89773569Y-145457453D01*
X89768972Y-145475004D01*
X89765211Y-145492395D01*
X89762286Y-145509626D01*
X89760197Y-145526696D01*
X89758943Y-145543606D01*
X89758525Y-145560356D01*
X89759149Y-145576596D01*
X89761021Y-145591794D01*
X89765116Y-145609327D01*
X89771161Y-145625232D01*
X89779155Y-145639509D01*
X89789100Y-145652158D01*
X89798459Y-145661106D01*
X89811321Y-145670921D01*
X89824720Y-145679073D01*
X89838655Y-145685562D01*
X89853127Y-145690386D01*
X89868136Y-145693547D01*
X89883682Y-145695044D01*
X89890050Y-145695178D01*
X89905504Y-145694086D01*
X89922231Y-145689896D01*
X89936974Y-145682563D01*
X89949734Y-145672087D01*
X89960510Y-145658469D01*
X89965155Y-145650481D01*
X89972303Y-145635286D01*
X89977764Y-145621198D01*
X89982996Y-145605393D01*
X89988000Y-145587871D01*
X89991602Y-145573602D01*
X89995075Y-145558367D01*
X89998419Y-145542166D01*
X90001635Y-145524999D01*
X90004722Y-145506866D01*
X90007833Y-145488770D01*
X90010982Y-145471575D01*
X90014170Y-145455282D01*
X90017396Y-145439890D01*
X90020661Y-145425400D01*
X90025075Y-145407483D01*
X90029557Y-145391168D01*
X90034108Y-145376456D01*
X90039893Y-145360321D01*
X90046843Y-145344128D01*
X90054777Y-145328979D01*
X90063695Y-145314876D01*
X90073599Y-145301817D01*
X90084486Y-145289803D01*
X90096359Y-145278833D01*
X90109216Y-145268908D01*
X90123058Y-145260028D01*
X90137884Y-145252193D01*
X90153695Y-145245402D01*
X90170490Y-145239657D01*
X90188271Y-145234955D01*
X90207035Y-145231299D01*
X90226785Y-145228687D01*
X90247519Y-145227120D01*
X90269237Y-145226598D01*
G37*
G36*
X90544010Y-146062641D02*
G01*
X90544010Y-146168154D01*
X90543598Y-146183243D01*
X90541434Y-146197892D01*
X90537416Y-146202958D01*
X90972290Y-146196364D01*
X90987725Y-146198549D01*
X91002155Y-146203182D01*
X91015580Y-146210261D01*
X91028000Y-146219788D01*
X91039416Y-146231762D01*
X91042998Y-146236298D01*
X91052710Y-146250195D01*
X91060412Y-146263861D01*
X91066859Y-146279511D01*
X91070570Y-146294846D01*
X91071575Y-146307739D01*
X91070132Y-146324133D01*
X91065805Y-146338880D01*
X91058592Y-146351977D01*
X91048494Y-146363426D01*
X91035694Y-146372723D01*
X91020375Y-146378996D01*
X91004906Y-146382007D01*
X90990111Y-146382745D01*
X90982182Y-146382477D01*
X90965879Y-146381962D01*
X90946439Y-146381620D01*
X90930044Y-146381414D01*
X90910901Y-146381225D01*
X90889011Y-146381054D01*
X90864373Y-146380899D01*
X90836987Y-146380762D01*
X90822264Y-146380700D01*
X90806854Y-146380642D01*
X90790757Y-146380588D01*
X90773973Y-146380539D01*
X90756502Y-146380493D01*
X90738344Y-146380453D01*
X90719499Y-146380416D01*
X90699967Y-146380384D01*
X90679748Y-146380356D01*
X90658843Y-146380332D01*
X90637250Y-146380313D01*
X90614970Y-146380298D01*
X90592004Y-146380287D01*
X90568351Y-146380281D01*
X90544010Y-146380279D01*
X90544010Y-146615485D01*
X90542648Y-146633087D01*
X90538561Y-146648343D01*
X90529620Y-146664112D01*
X90516421Y-146676214D01*
X90502797Y-146683255D01*
X90486448Y-146687949D01*
X90467374Y-146690296D01*
X90456816Y-146690589D01*
X90441903Y-146690017D01*
X90424600Y-146687691D01*
X90408780Y-146683577D01*
X90394446Y-146677674D01*
X90381596Y-146669981D01*
X90370232Y-146660500D01*
X90364125Y-146653953D01*
X90353542Y-146640249D01*
X90345149Y-146626338D01*
X90338945Y-146612222D01*
X90334931Y-146597899D01*
X90333015Y-146580929D01*
X90332984Y-146578482D01*
X90332984Y-146561632D01*
X90332984Y-146545063D01*
X90332984Y-146528774D01*
X90332984Y-146512765D01*
X90332984Y-146503744D01*
X90332984Y-146386507D01*
X90318050Y-146386665D01*
X90300037Y-146387138D01*
X90278946Y-146387927D01*
X90263176Y-146388628D01*
X90246037Y-146389470D01*
X90227530Y-146390451D01*
X90207654Y-146391573D01*
X90186411Y-146392836D01*
X90163799Y-146394238D01*
X90139820Y-146395781D01*
X90114472Y-146397464D01*
X90087756Y-146399287D01*
X90059672Y-146401251D01*
X90030219Y-146403354D01*
X90014980Y-146404459D01*
X89999739Y-146405574D01*
X89984837Y-146406674D01*
X89956047Y-146408832D01*
X89928611Y-146410933D01*
X89902529Y-146412977D01*
X89877801Y-146414963D01*
X89854427Y-146416892D01*
X89832406Y-146418764D01*
X89811740Y-146420579D01*
X89792427Y-146422336D01*
X89774468Y-146424036D01*
X89757863Y-146425679D01*
X89742611Y-146427265D01*
X89722273Y-146429536D01*
X89704980Y-146431679D01*
X89695144Y-146433035D01*
X89677576Y-146435491D01*
X89661507Y-146437363D01*
X89643531Y-146438882D01*
X89627898Y-146439488D01*
X89612231Y-146439012D01*
X89596592Y-146436333D01*
X89582381Y-146430358D01*
X89569890Y-146420562D01*
X89560689Y-146407390D01*
X89555549Y-146393159D01*
X89551673Y-146376755D01*
X89549354Y-146360965D01*
X89547963Y-146343577D01*
X89547512Y-146327866D01*
X89547500Y-146324591D01*
X89548940Y-146309248D01*
X89554469Y-146293552D01*
X89564147Y-146280818D01*
X89577971Y-146271046D01*
X89592660Y-146265166D01*
X89606484Y-146261943D01*
X89623408Y-146259337D01*
X89640702Y-146256784D01*
X89658367Y-146254285D01*
X89676402Y-146251839D01*
X89694809Y-146249448D01*
X89713586Y-146247110D01*
X89732733Y-146244825D01*
X89752251Y-146242594D01*
X89772140Y-146240417D01*
X89792400Y-146238294D01*
X89813030Y-146236224D01*
X89834031Y-146234208D01*
X89855402Y-146232246D01*
X89877144Y-146230337D01*
X89899257Y-146228482D01*
X89921741Y-146226681D01*
X89944595Y-146224933D01*
X89967819Y-146223239D01*
X89991415Y-146221598D01*
X90015381Y-146220012D01*
X90039718Y-146218478D01*
X90064425Y-146216999D01*
X90089503Y-146215573D01*
X90114952Y-146214201D01*
X90140771Y-146212883D01*
X90166961Y-146211618D01*
X90193522Y-146210407D01*
X90220453Y-146209250D01*
X90247755Y-146208146D01*
X90275428Y-146207096D01*
X90303471Y-146206099D01*
X90331885Y-146205157D01*
X90332465Y-146187990D01*
X90332674Y-146170311D01*
X90332803Y-146151801D01*
X90332877Y-146135371D01*
X90332932Y-146116759D01*
X90332967Y-146095963D01*
X90332980Y-146080886D01*
X90332984Y-146064839D01*
X90333332Y-146048824D01*
X90334376Y-146033841D01*
X90337245Y-146013305D01*
X90341678Y-145995094D01*
X90347677Y-145979208D01*
X90355241Y-145965646D01*
X90367760Y-145951180D01*
X90383062Y-145940848D01*
X90401145Y-145934648D01*
X90416534Y-145932711D01*
X90422011Y-145932582D01*
X90436784Y-145933090D01*
X90457157Y-145935757D01*
X90475386Y-145940710D01*
X90491470Y-145947950D01*
X90505409Y-145957476D01*
X90517204Y-145969288D01*
X90526854Y-145983386D01*
X90534360Y-145999770D01*
X90539721Y-146018441D01*
X90542938Y-146039398D01*
X90543891Y-146054639D01*
X90544010Y-146062641D01*
G37*
G36*
X90907444Y-146871573D02*
G01*
X90906027Y-146887566D01*
X90901776Y-146903121D01*
X90894692Y-146918237D01*
X90886625Y-146930500D01*
X90876589Y-146942459D01*
X90867144Y-146951807D01*
X90854451Y-146962467D01*
X90841563Y-146971320D01*
X90828477Y-146978367D01*
X90812514Y-146984437D01*
X90796268Y-146987906D01*
X90782513Y-146988810D01*
X90766001Y-146987393D01*
X90749438Y-146983143D01*
X90735595Y-146977436D01*
X90721717Y-146969762D01*
X90707803Y-146960120D01*
X90693853Y-146948510D01*
X90681082Y-146935800D01*
X90670476Y-146922857D01*
X90662034Y-146909682D01*
X90655757Y-146896274D01*
X90651082Y-146879878D01*
X90649523Y-146863147D01*
X90650850Y-146846557D01*
X90654830Y-146830586D01*
X90661463Y-146815233D01*
X90670749Y-146800499D01*
X90680515Y-146788692D01*
X90687259Y-146781814D01*
X90699666Y-146771471D01*
X90713076Y-146762880D01*
X90727487Y-146756043D01*
X90742900Y-146750959D01*
X90759315Y-146747628D01*
X90776732Y-146746051D01*
X90783979Y-146745910D01*
X90804487Y-146746976D01*
X90823147Y-146750174D01*
X90839959Y-146755503D01*
X90854922Y-146762963D01*
X90868037Y-146772556D01*
X90879304Y-146784280D01*
X90888722Y-146798135D01*
X90896292Y-146814123D01*
X90902014Y-146832242D01*
X90905888Y-146852492D01*
X90907444Y-146867177D01*
X90907444Y-146871573D01*
G37*
G36*
X89790765Y-146971957D02*
G01*
X89648616Y-146974155D01*
X89632671Y-146972906D01*
X89617807Y-146969158D01*
X89604025Y-146962911D01*
X89591326Y-146954166D01*
X89579708Y-146942921D01*
X89576076Y-146938618D01*
X89566364Y-146925137D01*
X89558662Y-146911347D01*
X89552969Y-146897247D01*
X89549286Y-146882839D01*
X89547611Y-146868121D01*
X89547500Y-146863147D01*
X89548461Y-146848080D01*
X89552368Y-146831952D01*
X89559280Y-146818828D01*
X89571542Y-146807047D01*
X89585066Y-146800536D01*
X89601595Y-146797030D01*
X89609049Y-146796469D01*
X89648493Y-146794778D01*
X89686821Y-146793141D01*
X89724033Y-146791558D01*
X89760128Y-146790029D01*
X89795107Y-146788553D01*
X89828970Y-146787131D01*
X89861717Y-146785762D01*
X89893347Y-146784447D01*
X89923862Y-146783186D01*
X89953259Y-146781979D01*
X89981541Y-146780825D01*
X90008706Y-146779725D01*
X90034755Y-146778678D01*
X90059688Y-146777685D01*
X90083505Y-146776746D01*
X90106205Y-146775861D01*
X90127789Y-146775029D01*
X90148257Y-146774251D01*
X90167608Y-146773526D01*
X90185843Y-146772855D01*
X90202962Y-146772238D01*
X90218965Y-146771675D01*
X90233851Y-146771165D01*
X90260275Y-146770306D01*
X90282234Y-146769662D01*
X90299728Y-146769233D01*
X90317597Y-146768991D01*
X90335280Y-146769094D01*
X90353890Y-146769403D01*
X90373428Y-146769919D01*
X90388689Y-146770440D01*
X90404473Y-146771078D01*
X90420778Y-146771831D01*
X90437604Y-146772701D01*
X90454953Y-146773686D01*
X90472823Y-146774787D01*
X90485026Y-146775586D01*
X90502018Y-146778405D01*
X90516131Y-146783657D01*
X90529264Y-146793171D01*
X90538250Y-146806189D01*
X90543089Y-146822709D01*
X90544010Y-146835670D01*
X90543631Y-146850464D01*
X90541640Y-146871122D01*
X90537942Y-146889937D01*
X90532538Y-146906911D01*
X90525427Y-146922043D01*
X90516610Y-146935333D01*
X90506086Y-146946781D01*
X90493855Y-146956387D01*
X90479918Y-146964152D01*
X90464274Y-146970074D01*
X90446924Y-146974155D01*
X90430394Y-146976272D01*
X90415153Y-146977951D01*
X90398999Y-146979356D01*
X90382685Y-146980231D01*
X90373651Y-146980383D01*
X90245423Y-146971957D01*
X89790765Y-146971957D01*
G37*
G36*
X90049052Y-147161367D02*
G01*
X90066857Y-147161666D01*
X90084458Y-147162564D01*
X90101856Y-147164059D01*
X90119051Y-147166153D01*
X90136042Y-147168845D01*
X90152831Y-147172135D01*
X90169416Y-147176023D01*
X90185798Y-147180510D01*
X90201976Y-147185595D01*
X90217952Y-147191278D01*
X90233724Y-147197559D01*
X90249293Y-147204438D01*
X90264659Y-147211916D01*
X90279822Y-147219991D01*
X90294781Y-147228665D01*
X90309537Y-147237938D01*
X90323963Y-147247718D01*
X90337930Y-147257824D01*
X90351440Y-147268257D01*
X90364492Y-147279016D01*
X90377086Y-147290102D01*
X90389221Y-147301513D01*
X90400899Y-147313251D01*
X90412119Y-147325315D01*
X90422881Y-147337706D01*
X90433185Y-147350423D01*
X90443031Y-147363466D01*
X90452419Y-147376835D01*
X90461349Y-147390531D01*
X90469822Y-147404553D01*
X90477836Y-147418901D01*
X90485392Y-147433576D01*
X90492490Y-147448432D01*
X90499131Y-147463234D01*
X90505313Y-147477982D01*
X90511038Y-147492675D01*
X90516304Y-147507314D01*
X90521113Y-147521898D01*
X90525463Y-147536429D01*
X90529356Y-147550904D01*
X90532790Y-147565326D01*
X90535767Y-147579692D01*
X90539374Y-147601141D01*
X90541950Y-147622467D01*
X90543495Y-147643671D01*
X90544010Y-147664752D01*
X90543753Y-147685411D01*
X90542980Y-147705350D01*
X90541692Y-147724567D01*
X90539889Y-147743062D01*
X90537570Y-147760837D01*
X90534737Y-147777890D01*
X90531388Y-147794222D01*
X90527524Y-147809832D01*
X90523145Y-147824721D01*
X90518250Y-147838889D01*
X90514701Y-147847934D01*
X90507048Y-147864678D01*
X90498741Y-147879189D01*
X90489783Y-147891468D01*
X90477667Y-147903678D01*
X90464531Y-147912398D01*
X90450375Y-147917631D01*
X90435200Y-147919375D01*
X90419533Y-147918722D01*
X90403902Y-147916763D01*
X90388306Y-147913499D01*
X90372746Y-147908928D01*
X90357222Y-147903051D01*
X90341734Y-147895869D01*
X90335549Y-147892630D01*
X90321406Y-147883781D01*
X90309660Y-147873947D01*
X90298729Y-147860848D01*
X90291250Y-147846333D01*
X90287223Y-147830400D01*
X90286456Y-147818991D01*
X90288710Y-147803628D01*
X90292970Y-147787127D01*
X90297366Y-147772442D01*
X90302888Y-147755342D01*
X90308117Y-147739923D01*
X90309537Y-147735827D01*
X90315033Y-147720016D01*
X90319795Y-147705739D01*
X90324718Y-147690050D01*
X90329115Y-147674388D01*
X90332412Y-147658875D01*
X90332984Y-147652296D01*
X90332254Y-147630548D01*
X90330061Y-147609405D01*
X90326406Y-147588868D01*
X90321289Y-147568936D01*
X90314711Y-147549610D01*
X90306671Y-147530889D01*
X90297168Y-147512773D01*
X90286204Y-147495263D01*
X90273778Y-147478358D01*
X90259891Y-147462058D01*
X90249820Y-147451528D01*
X90233809Y-147436665D01*
X90216826Y-147423265D01*
X90198870Y-147411326D01*
X90179942Y-147400849D01*
X90160041Y-147391834D01*
X90146234Y-147386637D01*
X90131994Y-147382089D01*
X90117322Y-147378190D01*
X90102218Y-147374942D01*
X90086682Y-147372343D01*
X90070714Y-147370394D01*
X90054313Y-147369094D01*
X90037481Y-147368444D01*
X90028902Y-147368363D01*
X90011918Y-147368538D01*
X89995494Y-147369062D01*
X89979632Y-147369935D01*
X89964330Y-147371157D01*
X89949590Y-147372728D01*
X89928531Y-147375740D01*
X89908735Y-147379537D01*
X89890200Y-147384120D01*
X89872928Y-147389489D01*
X89856918Y-147395644D01*
X89842171Y-147402584D01*
X89828686Y-147410310D01*
X89824471Y-147413060D01*
X89812686Y-147422076D01*
X89802060Y-147432225D01*
X89792593Y-147443508D01*
X89784285Y-147455924D01*
X89777137Y-147469474D01*
X89771148Y-147484157D01*
X89766318Y-147499974D01*
X89762647Y-147516924D01*
X89760135Y-147535007D01*
X89758783Y-147554224D01*
X89758525Y-147567665D01*
X89759795Y-147583086D01*
X89762640Y-147597843D01*
X89767111Y-147614753D01*
X89771531Y-147628848D01*
X89776866Y-147644154D01*
X89783115Y-147660670D01*
X89790278Y-147678398D01*
X89798356Y-147697335D01*
X89807348Y-147717484D01*
X89810549Y-147724469D01*
X89816849Y-147738255D01*
X89825536Y-147757737D01*
X89833309Y-147775783D01*
X89840168Y-147792393D01*
X89846112Y-147807567D01*
X89852615Y-147825564D01*
X89857492Y-147841009D01*
X89861303Y-147856724D01*
X89862573Y-147868450D01*
X89861313Y-147883334D01*
X89856886Y-147898436D01*
X89849271Y-147911799D01*
X89842423Y-147919741D01*
X89830335Y-147929659D01*
X89816740Y-147936331D01*
X89801638Y-147939757D01*
X89792597Y-147940258D01*
X89775150Y-147938621D01*
X89757614Y-147933711D01*
X89743520Y-147927425D01*
X89729369Y-147919044D01*
X89715161Y-147908569D01*
X89700896Y-147895998D01*
X89690159Y-147885195D01*
X89679391Y-147873213D01*
X89668783Y-147860378D01*
X89658529Y-147847015D01*
X89648630Y-147833124D01*
X89639085Y-147818705D01*
X89629894Y-147803758D01*
X89621057Y-147788282D01*
X89612575Y-147772279D01*
X89604446Y-147755748D01*
X89596672Y-147738688D01*
X89589252Y-147721100D01*
X89584502Y-147709082D01*
X89577889Y-147691108D01*
X89571927Y-147673456D01*
X89566615Y-147656126D01*
X89561954Y-147639118D01*
X89557943Y-147622432D01*
X89554582Y-147606068D01*
X89551872Y-147590026D01*
X89549812Y-147574306D01*
X89548403Y-147558908D01*
X89547644Y-147543832D01*
X89547500Y-147533960D01*
X89548028Y-147512412D01*
X89549612Y-147491456D01*
X89552252Y-147471093D01*
X89555949Y-147451322D01*
X89560701Y-147432144D01*
X89566510Y-147413558D01*
X89573375Y-147395564D01*
X89581297Y-147378163D01*
X89590274Y-147361355D01*
X89600307Y-147345139D01*
X89611397Y-147329516D01*
X89623543Y-147314485D01*
X89636745Y-147300046D01*
X89651003Y-147286200D01*
X89666317Y-147272947D01*
X89682688Y-147260286D01*
X89700004Y-147248307D01*
X89718065Y-147237102D01*
X89736870Y-147226669D01*
X89756419Y-147217009D01*
X89776712Y-147208122D01*
X89797749Y-147200007D01*
X89819531Y-147192666D01*
X89842056Y-147186097D01*
X89865326Y-147180301D01*
X89889340Y-147175278D01*
X89914098Y-147171027D01*
X89939601Y-147167550D01*
X89965847Y-147164845D01*
X89992838Y-147162913D01*
X90020573Y-147161754D01*
X90049052Y-147161367D01*
G37*
G36*
X89655211Y-148782529D02*
G01*
X89635961Y-148781631D01*
X89618606Y-148778936D01*
X89603143Y-148774444D01*
X89589574Y-148768155D01*
X89574427Y-148756975D01*
X89562646Y-148742601D01*
X89554231Y-148725033D01*
X89550129Y-148709761D01*
X89547920Y-148692691D01*
X89547500Y-148680314D01*
X89551963Y-148665396D01*
X89561961Y-148652754D01*
X89573208Y-148642859D01*
X89587669Y-148632609D01*
X89605344Y-148622006D01*
X89618912Y-148614740D01*
X89633909Y-148607317D01*
X89650333Y-148599736D01*
X89668186Y-148591998D01*
X89687468Y-148584103D01*
X89708177Y-148576050D01*
X89730315Y-148567840D01*
X89752840Y-148559426D01*
X89774617Y-148550764D01*
X89795647Y-148541852D01*
X89815930Y-148532692D01*
X89835466Y-148523282D01*
X89854255Y-148513624D01*
X89872297Y-148503716D01*
X89889592Y-148493559D01*
X89906140Y-148483154D01*
X89921941Y-148472499D01*
X89936995Y-148461596D01*
X89951302Y-148450443D01*
X89964861Y-148439041D01*
X89977674Y-148427391D01*
X89989740Y-148415491D01*
X90001058Y-148403342D01*
X89990259Y-148391654D01*
X89980542Y-148380445D01*
X89970604Y-148368824D01*
X89958743Y-148354845D01*
X89948585Y-148342813D01*
X89937345Y-148329454D01*
X89929251Y-148319811D01*
X89917245Y-148305510D01*
X89906230Y-148292420D01*
X89896207Y-148280540D01*
X89884386Y-148266584D01*
X89874329Y-148254780D01*
X89864236Y-148243052D01*
X89853817Y-148231283D01*
X89852315Y-148229686D01*
X89652646Y-148229686D01*
X89636709Y-148227304D01*
X89620970Y-148224187D01*
X89606201Y-148220180D01*
X89599890Y-148217962D01*
X89587052Y-148210803D01*
X89575832Y-148200614D01*
X89566101Y-148188445D01*
X89563986Y-148185356D01*
X89556773Y-148171846D01*
X89551621Y-148156230D01*
X89548804Y-148140837D01*
X89547564Y-148123832D01*
X89547500Y-148118677D01*
X89548770Y-148102620D01*
X89553933Y-148085560D01*
X89563067Y-148071844D01*
X89576173Y-148061474D01*
X89593249Y-148054449D01*
X89609770Y-148051238D01*
X89628832Y-148050167D01*
X89654086Y-148050101D01*
X89681028Y-148049904D01*
X89709659Y-148049575D01*
X89724607Y-148049361D01*
X89739978Y-148049114D01*
X89755771Y-148048834D01*
X89771986Y-148048521D01*
X89788624Y-148048176D01*
X89805683Y-148047797D01*
X89823165Y-148047386D01*
X89841069Y-148046941D01*
X89859395Y-148046464D01*
X89878143Y-148045954D01*
X89897314Y-148045411D01*
X89916906Y-148044835D01*
X89936921Y-148044226D01*
X89957358Y-148043584D01*
X89978217Y-148042909D01*
X89999499Y-148042202D01*
X90021202Y-148041461D01*
X90043328Y-148040687D01*
X90065876Y-148039881D01*
X90088846Y-148039042D01*
X90112238Y-148038169D01*
X90136052Y-148037264D01*
X90160289Y-148036326D01*
X90184948Y-148035355D01*
X90210028Y-148034351D01*
X90235532Y-148033314D01*
X90261163Y-148032278D01*
X90286628Y-148031274D01*
X90311927Y-148030303D01*
X90337060Y-148029364D01*
X90362027Y-148028459D01*
X90386829Y-148027587D01*
X90411464Y-148026748D01*
X90435933Y-148025941D01*
X90460236Y-148025168D01*
X90484373Y-148024427D01*
X90508344Y-148023719D01*
X90532149Y-148023045D01*
X90555788Y-148022403D01*
X90579261Y-148021794D01*
X90602568Y-148021218D01*
X90625710Y-148020675D01*
X90648685Y-148020165D01*
X90671494Y-148019687D01*
X90694137Y-148019243D01*
X90716614Y-148018832D01*
X90738925Y-148018453D01*
X90761070Y-148018107D01*
X90783049Y-148017795D01*
X90804862Y-148017515D01*
X90826509Y-148017268D01*
X90847990Y-148017054D01*
X90869305Y-148016873D01*
X90890454Y-148016725D01*
X90911436Y-148016610D01*
X90932253Y-148016527D01*
X90952904Y-148016478D01*
X90973389Y-148016462D01*
X90990103Y-148017750D01*
X91005349Y-148021614D01*
X91019126Y-148028054D01*
X91031435Y-148037070D01*
X91042276Y-148048662D01*
X91045563Y-148053098D01*
X91054403Y-148066940D01*
X91061414Y-148080988D01*
X91066596Y-148095241D01*
X91069949Y-148109701D01*
X91071473Y-148124367D01*
X91071575Y-148129302D01*
X91069768Y-148146484D01*
X91064348Y-148161394D01*
X91055314Y-148174033D01*
X91042666Y-148184400D01*
X91026405Y-148192494D01*
X91010795Y-148197334D01*
X90997569Y-148200010D01*
X90618749Y-148200010D01*
X90602245Y-148200044D01*
X90586806Y-148200147D01*
X90569005Y-148200373D01*
X90552867Y-148200706D01*
X90535698Y-148201247D01*
X90520925Y-148201942D01*
X90516533Y-148202208D01*
X90500104Y-148203170D01*
X90483343Y-148203994D01*
X90467486Y-148204681D01*
X90449912Y-148205368D01*
X90434616Y-148205918D01*
X90418221Y-148206467D01*
X90413951Y-148206605D01*
X90396308Y-148207128D01*
X90378551Y-148207692D01*
X90360679Y-148208296D01*
X90342693Y-148208940D01*
X90324592Y-148209624D01*
X90306377Y-148210348D01*
X90288048Y-148211113D01*
X90269603Y-148211917D01*
X90251045Y-148212761D01*
X90232372Y-148213646D01*
X90213584Y-148214570D01*
X90194682Y-148215535D01*
X90175665Y-148216539D01*
X90156534Y-148217584D01*
X90137289Y-148218669D01*
X90117929Y-148219794D01*
X90127116Y-148231414D01*
X90138376Y-148244661D01*
X90148181Y-148255662D01*
X90159152Y-148267579D01*
X90171288Y-148280409D01*
X90184590Y-148294154D01*
X90199057Y-148308814D01*
X90214690Y-148324388D01*
X90225760Y-148335279D01*
X90237348Y-148346576D01*
X90249453Y-148358279D01*
X90261751Y-148370002D01*
X90273822Y-148381355D01*
X90285668Y-148392338D01*
X90297287Y-148402953D01*
X90308680Y-148413198D01*
X90319847Y-148423074D01*
X90336173Y-148437196D01*
X90351991Y-148450487D01*
X90367300Y-148462948D01*
X90382100Y-148474577D01*
X90396392Y-148485376D01*
X90410174Y-148495344D01*
X90419080Y-148501528D01*
X90434208Y-148511384D01*
X90448361Y-148521168D01*
X90461537Y-148530881D01*
X90473737Y-148540523D01*
X90484961Y-148550093D01*
X90499968Y-148564313D01*
X90512778Y-148578373D01*
X90523392Y-148592271D01*
X90531810Y-148606009D01*
X90538032Y-148619586D01*
X90542912Y-148637437D01*
X90544010Y-148650638D01*
X90542619Y-148665424D01*
X90538446Y-148680108D01*
X90534118Y-148689839D01*
X90524938Y-148704404D01*
X90515256Y-148716501D01*
X90502978Y-148727758D01*
X90489977Y-148735460D01*
X90473899Y-148739953D01*
X90466707Y-148740397D01*
X90451612Y-148739303D01*
X90435177Y-148736018D01*
X90420458Y-148731609D01*
X90404809Y-148725678D01*
X90388230Y-148718228D01*
X90374296Y-148711172D01*
X90370720Y-148709256D01*
X90354357Y-148699622D01*
X90338240Y-148689862D01*
X90322369Y-148679976D01*
X90306744Y-148669964D01*
X90291365Y-148659826D01*
X90276232Y-148649562D01*
X90261346Y-148639172D01*
X90246706Y-148628656D01*
X90232312Y-148618015D01*
X90218164Y-148607247D01*
X90204262Y-148596353D01*
X90190606Y-148585334D01*
X90177197Y-148574188D01*
X90164033Y-148562917D01*
X90151116Y-148551519D01*
X90138445Y-148539996D01*
X90126163Y-148551107D01*
X90113132Y-148562276D01*
X90099350Y-148573501D01*
X90084818Y-148584784D01*
X90069537Y-148596124D01*
X90053506Y-148607522D01*
X90036725Y-148618976D01*
X90019193Y-148630488D01*
X90000912Y-148642057D01*
X89981882Y-148653684D01*
X89962101Y-148665367D01*
X89941570Y-148677108D01*
X89920289Y-148688906D01*
X89898259Y-148700761D01*
X89875479Y-148712674D01*
X89851948Y-148724644D01*
X89836539Y-148731653D01*
X89821546Y-148738211D01*
X89806967Y-148744316D01*
X89792803Y-148749969D01*
X89779055Y-148755169D01*
X89759210Y-148762122D01*
X89740299Y-148768058D01*
X89722321Y-148772976D01*
X89705278Y-148776876D01*
X89689168Y-148779759D01*
X89673992Y-148781625D01*
X89655211Y-148782529D01*
G37*
D11*
X88410000Y-36665000D03*
D12*
X84310000Y-36665000D03*
X84310000Y-38265000D03*
D11*
X88410000Y-38265000D03*
D13*
X85586200Y-77607400D03*
X87286200Y-77607400D03*
X87286200Y-78907400D03*
X85586200Y-78907400D03*
D14*
X86360000Y-54864000D03*
D15*
X84455000Y-52019000D03*
X85725000Y-52019000D03*
X86995000Y-52019000D03*
X88265000Y-52019000D03*
X88265000Y-57709000D03*
X86995000Y-57709000D03*
X85725000Y-57709000D03*
X84455000Y-57709000D03*
D16*
X87672000Y-45201800D03*
X87672000Y-47101800D03*
X85302000Y-47101800D03*
X85302000Y-46151800D03*
X85302000Y-45201800D03*
D11*
X88410000Y-50330000D03*
D12*
X84310000Y-50330000D03*
X84310000Y-48730000D03*
D11*
X88410000Y-48730000D03*
D17*
X89560001Y-23623199D03*
X88760000Y-23623199D03*
D18*
X87610000Y-23623199D03*
X86610000Y-23623199D03*
X86110000Y-23623199D03*
X85110000Y-23623199D03*
D17*
X83160001Y-23623199D03*
X83960000Y-23623199D03*
D18*
X84609940Y-23623199D03*
X85609941Y-23623199D03*
X87109940Y-23623199D03*
X88109941Y-23623199D03*
D19*
X90680000Y-23048200D03*
D20*
X90680000Y-19048199D03*
D19*
X82040000Y-23048200D03*
D20*
X82040000Y-19048199D03*
D21*
X82600800Y-85799400D03*
X82600800Y-88749400D03*
D22*
X87122000Y-39815000D03*
X87122000Y-41465000D03*
D23*
X87010000Y-133547602D03*
X87010000Y-132747602D03*
X87010000Y-131947602D03*
X85710000Y-131947602D03*
X85710000Y-132747602D03*
X85710000Y-133547602D03*
D24*
X90614000Y-85090000D03*
X88964000Y-85090000D03*
D23*
X87010000Y-171095422D03*
X87010000Y-170295422D03*
X87010000Y-169495422D03*
X85710000Y-169495422D03*
X85710000Y-170295422D03*
X85710000Y-171095422D03*
X87010000Y-167340640D03*
X87010000Y-166540640D03*
X87010000Y-165740640D03*
X85710000Y-165740640D03*
X85710000Y-166540640D03*
X85710000Y-167340640D03*
D25*
X83972400Y-81089000D03*
X83972400Y-79439000D03*
X82143600Y-81089000D03*
X82143600Y-79439000D03*
D23*
X87010000Y-156076294D03*
X87010000Y-155276294D03*
X87010000Y-154476294D03*
X85710000Y-154476294D03*
X85710000Y-155276294D03*
X85710000Y-156076294D03*
D26*
X90416000Y-86599000D03*
X89416000Y-86599000D03*
X89916000Y-87899000D03*
D25*
X88450000Y-61285000D03*
X88450000Y-59635000D03*
D27*
X90375000Y-43434000D03*
X87425000Y-43434000D03*
D28*
X88646000Y-39865000D03*
X88646000Y-41415000D03*
D23*
X87010000Y-95999782D03*
X87010000Y-95199782D03*
X87010000Y-94399782D03*
X85710000Y-94399782D03*
X85710000Y-95199782D03*
X85710000Y-95999782D03*
D29*
X82345000Y-43434000D03*
X85295000Y-43434000D03*
D22*
X88138000Y-87313000D03*
X88138000Y-88963000D03*
D23*
X87010000Y-152321512D03*
X87010000Y-151521512D03*
X87010000Y-150721512D03*
X85710000Y-150721512D03*
X85710000Y-151521512D03*
X85710000Y-152321512D03*
D25*
X90170000Y-50863000D03*
X90170000Y-49213000D03*
D30*
X82550000Y-50813000D03*
X82550000Y-49263000D03*
D31*
X82101200Y-82612800D03*
X82101200Y-83112800D03*
X82101200Y-83612800D03*
X82101200Y-84112800D03*
D32*
X82761200Y-84272800D03*
X83261200Y-84272800D03*
X83761200Y-84272800D03*
D31*
X84421200Y-84112800D03*
X84421200Y-83612800D03*
X84421200Y-83112800D03*
X84421200Y-82612800D03*
D32*
X83761200Y-82452800D03*
X83261200Y-82452800D03*
X82761200Y-82452800D03*
D25*
X82550000Y-57340000D03*
X82550000Y-55690000D03*
D33*
X87148000Y-33770000D03*
X87148000Y-33270000D03*
X87148000Y-32770000D03*
X87148000Y-32270000D03*
X85572000Y-32270000D03*
X85572000Y-32770000D03*
X85572000Y-33270000D03*
X85572000Y-33770000D03*
D34*
X87310000Y-25529300D03*
X85410000Y-25529300D03*
X86360000Y-27404300D03*
D21*
X82550000Y-158545000D03*
X82550000Y-161495000D03*
D23*
X87010000Y-148566730D03*
X87010000Y-147766730D03*
X87010000Y-146966730D03*
X85710000Y-146966730D03*
X85710000Y-147766730D03*
X85710000Y-148566730D03*
X87010000Y-122283256D03*
X87010000Y-121483256D03*
X87010000Y-120683256D03*
X85710000Y-120683256D03*
X85710000Y-121483256D03*
X85710000Y-122283256D03*
D24*
X87566000Y-85090000D03*
X85916000Y-85090000D03*
D23*
X87010000Y-159831076D03*
X87010000Y-159031076D03*
X87010000Y-158231076D03*
X85710000Y-158231076D03*
X85710000Y-159031076D03*
X85710000Y-159831076D03*
X87010000Y-99754564D03*
X87010000Y-98954564D03*
X87010000Y-98154564D03*
X85710000Y-98154564D03*
X85710000Y-98954564D03*
X85710000Y-99754564D03*
X87010000Y-163585858D03*
X87010000Y-162785858D03*
X87010000Y-161985858D03*
X85710000Y-161985858D03*
X85710000Y-162785858D03*
X85710000Y-163585858D03*
D35*
X89091000Y-26162000D03*
X90741000Y-26162000D03*
D24*
X87185000Y-75946000D03*
X85535000Y-75946000D03*
D25*
X86990000Y-61285000D03*
X86990000Y-59635000D03*
D26*
X86860000Y-86599000D03*
X85860000Y-86599000D03*
X86360000Y-87899000D03*
D23*
X87010000Y-129792820D03*
X87010000Y-128992820D03*
X87010000Y-128192820D03*
X85710000Y-128192820D03*
X85710000Y-128992820D03*
X85710000Y-129792820D03*
D28*
X86106000Y-80911400D03*
X86106000Y-82461400D03*
D23*
X87010000Y-174850204D03*
X87010000Y-174050204D03*
X87010000Y-173250204D03*
X85710000Y-173250204D03*
X85710000Y-174050204D03*
X85710000Y-174850204D03*
D22*
X82550000Y-52515000D03*
X82550000Y-54165000D03*
X82550000Y-39815000D03*
X82550000Y-41465000D03*
D23*
X87010011Y-111018904D03*
X87010011Y-110218904D03*
X87010011Y-109418904D03*
X85710011Y-109418904D03*
X85710011Y-110218904D03*
X85710011Y-111018904D03*
D28*
X87680800Y-80911400D03*
X87680800Y-82461400D03*
D23*
X87010000Y-178604986D03*
X87010000Y-177804986D03*
X87010000Y-177004986D03*
X85710000Y-177004986D03*
X85710000Y-177804986D03*
X85710000Y-178604986D03*
D21*
X82550000Y-128065000D03*
X82550000Y-131015000D03*
D36*
X84960000Y-29464000D03*
X87760000Y-29464000D03*
D27*
X89613000Y-63119000D03*
X86663000Y-63119000D03*
D23*
X87010000Y-141057166D03*
X87010000Y-140257166D03*
X87010000Y-139457166D03*
X85710000Y-139457166D03*
X85710000Y-140257166D03*
X85710000Y-141057166D03*
D35*
X81979000Y-26162000D03*
X83629000Y-26162000D03*
D23*
X87010011Y-107264124D03*
X87010011Y-106464124D03*
X87010011Y-105664124D03*
X85710011Y-105664124D03*
X85710011Y-106464124D03*
X85710011Y-107264124D03*
D25*
X90170000Y-41465000D03*
X90170000Y-39815000D03*
D23*
X87010000Y-144811948D03*
X87010000Y-144011948D03*
X87010000Y-143211948D03*
X85710000Y-143211948D03*
X85710000Y-144011948D03*
X85710000Y-144811948D03*
X87010000Y-137302384D03*
X87010000Y-136502384D03*
X87010000Y-135702384D03*
X85710000Y-135702384D03*
X85710000Y-136502384D03*
X85710000Y-137302384D03*
D22*
X84582000Y-87313000D03*
X84582000Y-88963000D03*
D23*
X87010000Y-126038038D03*
X87010000Y-125238038D03*
X87010000Y-124438038D03*
X85710000Y-124438038D03*
X85710000Y-125238038D03*
X85710000Y-126038038D03*
X87010000Y-92245000D03*
X87010000Y-91445000D03*
X87010000Y-90645000D03*
X85710000Y-90645000D03*
X85710000Y-91445000D03*
X85710000Y-92245000D03*
D37*
X82925000Y-65980000D03*
X82925000Y-66380000D03*
X82925000Y-66780000D03*
X82925000Y-67180000D03*
X82925000Y-67580000D03*
X82925000Y-67980000D03*
X82925000Y-68380000D03*
X82925000Y-68780000D03*
X82925000Y-69180000D03*
X82925000Y-69580000D03*
X82925000Y-69980000D03*
X82925000Y-70380000D03*
X82925000Y-70780000D03*
X82925000Y-71180000D03*
D38*
X83760000Y-72015000D03*
X84160000Y-72015000D03*
X84560000Y-72015000D03*
X84960000Y-72015000D03*
X85360000Y-72015000D03*
X85760000Y-72015000D03*
X86160000Y-72015000D03*
X86560000Y-72015000D03*
X86960000Y-72015000D03*
X87360000Y-72015000D03*
X87760000Y-72015000D03*
X88160000Y-72015000D03*
X88560000Y-72015000D03*
X88960000Y-72015000D03*
D37*
X89795000Y-71180000D03*
X89795000Y-70780000D03*
X89795000Y-70380000D03*
X89795000Y-69980000D03*
X89795000Y-69580000D03*
X89795000Y-69180000D03*
X89795000Y-68780000D03*
X89795000Y-68380000D03*
X89795000Y-67980000D03*
X89795000Y-67580000D03*
X89795000Y-67180000D03*
X89795000Y-66780000D03*
X89795000Y-66380000D03*
X89795000Y-65980000D03*
D38*
X88960000Y-65145000D03*
X88560000Y-65145000D03*
X88160000Y-65145000D03*
X87760000Y-65145000D03*
X87360000Y-65145000D03*
X86960000Y-65145000D03*
X86560000Y-65145000D03*
X86160000Y-65145000D03*
X85760000Y-65145000D03*
X85360000Y-65145000D03*
X84960000Y-65145000D03*
X84560000Y-65145000D03*
X84160000Y-65145000D03*
X83760000Y-65145000D03*
D39*
X86360000Y-68580000D03*
D23*
X87010000Y-118528474D03*
X87010000Y-117728474D03*
X87010000Y-116928474D03*
X85710000Y-116928474D03*
X85710000Y-117728474D03*
X85710000Y-118528474D03*
X87010000Y-103509346D03*
X87010000Y-102709346D03*
X87010000Y-101909346D03*
X85710000Y-101909346D03*
X85710000Y-102709346D03*
X85710000Y-103509346D03*
D21*
X82550000Y-97585000D03*
X82550000Y-100535000D03*
D23*
X87010000Y-114773692D03*
X87010000Y-113973692D03*
X87010000Y-113173692D03*
X85710000Y-113173692D03*
X85710000Y-113973692D03*
X85710000Y-114773692D03*
D29*
X87628200Y-74041000D03*
X90578200Y-74041000D03*
D40*
X82550000Y-152400000D03*
X82550000Y-76200000D03*
X90170000Y-152400000D03*
X82550000Y-175260000D03*
X82550000Y-177800000D03*
X82550000Y-45720000D03*
X90170000Y-167640000D03*
X90170000Y-45720000D03*
X82550000Y-137160000D03*
X82550000Y-167640000D03*
X82550000Y-91440000D03*
X90170000Y-60960000D03*
X82550000Y-60960000D03*
X90170000Y-76200000D03*
X90170000Y-27940000D03*
X90170000Y-30480000D03*
X90170000Y-33020000D03*
X90170000Y-35560000D03*
X90170000Y-38100000D03*
X90170000Y-177800000D03*
X90170000Y-175260000D03*
X82550000Y-27940000D03*
X82550000Y-30480000D03*
X82550000Y-33020000D03*
X82550000Y-35560000D03*
X82550000Y-38100000D03*
X82550000Y-106680000D03*
X90170000Y-106680000D03*
X90170000Y-91440000D03*
X90170000Y-137160000D03*
X90170000Y-121920000D03*
X82550000Y-121920000D03*
M02*
