%TF.GenerationSoftware,KiCad,Pcbnew,7.0.9*%
%TF.CreationDate,2024-02-10T14:07:13-07:00*%
%TF.ProjectId,RP2040-Breadstick,52503230-3430-42d4-9272-656164737469,1.0*%
%TF.SameCoordinates,Original*%
%TF.FileFunction,Copper,L4,Inr*%
%TF.FilePolarity,Positive*%
%FSLAX46Y46*%
G04 Gerber Fmt 4.6, Leading zero omitted, Abs format (unit mm)*
G04 Created by KiCad (PCBNEW 7.0.9) date 2024-02-10 14:07:13*
%MOMM*%
%LPD*%
G01*
G04 APERTURE LIST*
%TA.AperFunction,ComponentPad*%
%ADD10O,1.000000X1.800000*%
%TD*%
%TA.AperFunction,ComponentPad*%
%ADD11O,1.000000X2.200000*%
%TD*%
%TA.AperFunction,ComponentPad*%
%ADD12R,1.700000X1.700000*%
%TD*%
%TA.AperFunction,ViaPad*%
%ADD13C,0.700000*%
%TD*%
%TA.AperFunction,Conductor*%
%ADD14C,1.905000*%
%TD*%
%TA.AperFunction,Conductor*%
%ADD15C,0.152400*%
%TD*%
G04 APERTURE END LIST*
D10*
X90680000Y-23048200D03*
D11*
X90680000Y-19048199D03*
D10*
X82040000Y-23048200D03*
D11*
X82040000Y-19048199D03*
D12*
X82550000Y-152400000D03*
X82550000Y-76200000D03*
X90170000Y-152400000D03*
X82550000Y-175260000D03*
X82550000Y-177800000D03*
X82550000Y-45720000D03*
X90170000Y-167640000D03*
X90170000Y-45720000D03*
X82550000Y-137160000D03*
X82550000Y-167640000D03*
X82550000Y-91440000D03*
X90170000Y-60960000D03*
X82550000Y-60960000D03*
X90170000Y-76200000D03*
X90170000Y-27940000D03*
X90170000Y-30480000D03*
X90170000Y-33020000D03*
X90170000Y-35560000D03*
X90170000Y-38100000D03*
X90170000Y-177800000D03*
X90170000Y-175260000D03*
X82550000Y-27940000D03*
X82550000Y-30480000D03*
X82550000Y-33020000D03*
X82550000Y-35560000D03*
X82550000Y-38100000D03*
X82550000Y-106680000D03*
X90170000Y-106680000D03*
X90170000Y-91440000D03*
X90170000Y-137160000D03*
X90170000Y-121920000D03*
X82550000Y-121920000D03*
D13*
X86360000Y-119253000D03*
X86360000Y-26314400D03*
X83160001Y-22554799D03*
X86359989Y-126655205D03*
X86360000Y-101092000D03*
X86360000Y-112395000D03*
X87477600Y-69621400D03*
X83058000Y-132054600D03*
X87376000Y-67818000D03*
X89560001Y-22555599D03*
X86360000Y-108585000D03*
X83843100Y-84961933D03*
X86360011Y-96824800D03*
X86360439Y-79878086D03*
X86360000Y-146050000D03*
X86360000Y-161163000D03*
X90678000Y-73025000D03*
X83083400Y-101600000D03*
X86360000Y-138430000D03*
X88284300Y-81940400D03*
X86360000Y-172339000D03*
X90525600Y-25146000D03*
X86156800Y-62001400D03*
X90049100Y-51562000D03*
X86360011Y-149352000D03*
X86360000Y-134620000D03*
X83108800Y-40589200D03*
X87122000Y-53594000D03*
X86360011Y-131191000D03*
X89550000Y-24810000D03*
X86360000Y-164846000D03*
X83160001Y-25196399D03*
X86487000Y-66395600D03*
X82042000Y-162534600D03*
X83439000Y-48768000D03*
X86360000Y-123063000D03*
X86360000Y-153670000D03*
X86227777Y-76903063D03*
X86360000Y-43688000D03*
X83846437Y-66895685D03*
X86360000Y-115570000D03*
X83083400Y-162534600D03*
X82016600Y-132054600D03*
X88773000Y-67056000D03*
X82804000Y-87858600D03*
X86360000Y-104521000D03*
X86360000Y-168656000D03*
X86360000Y-157099000D03*
X82003310Y-67288648D03*
X86360000Y-142494000D03*
X87122000Y-56134000D03*
X82042000Y-101600000D03*
X86360000Y-176149000D03*
X86360000Y-42799000D03*
X89516200Y-57429400D03*
X87505892Y-66062725D03*
X87178878Y-72966251D03*
X90709595Y-67009238D03*
X82014265Y-71379914D03*
X81990000Y-70205600D03*
X83921600Y-70713600D03*
X83944621Y-69039579D03*
X89008237Y-56648535D03*
X85955669Y-25476772D03*
X89958237Y-56648535D03*
X86807546Y-25470197D03*
X87347767Y-71103250D03*
X87833200Y-40620713D03*
X88750921Y-73660948D03*
X88199607Y-71092861D03*
X81991200Y-25196800D03*
X84633903Y-24586097D03*
X83502750Y-49834800D03*
X83335255Y-58117163D03*
X85938111Y-70950000D03*
X83972400Y-78714600D03*
X89408000Y-43688000D03*
X81965800Y-69291200D03*
X82042000Y-78232000D03*
X89408000Y-42799000D03*
X82550000Y-64643000D03*
X88750000Y-64520000D03*
X86758100Y-64520900D03*
X83388200Y-51511200D03*
X88816066Y-69669039D03*
X90716395Y-67861113D03*
X82118200Y-96494600D03*
X82550000Y-95631000D03*
X83312000Y-43688000D03*
X83312000Y-42799000D03*
X85806286Y-64300634D03*
X85092620Y-51239135D03*
X85547518Y-63488984D03*
X86360000Y-51231800D03*
X85490000Y-62620000D03*
X87630000Y-51231800D03*
X82009339Y-68153367D03*
X84133900Y-67697620D03*
X88873100Y-67970000D03*
X88779481Y-68817922D03*
X90716900Y-68713015D03*
X90718100Y-69564917D03*
X90718100Y-70416819D03*
X90716900Y-71268721D03*
X90424000Y-72110600D03*
X88873071Y-66066855D03*
D14*
X82550000Y-33020000D02*
X90170000Y-33020000D01*
X82550000Y-30480000D02*
X90170000Y-30480000D01*
X82550000Y-27940000D02*
X90170000Y-27940000D01*
D15*
X88011000Y-54432200D02*
X88976200Y-53467000D01*
X86563200Y-45720000D02*
X82550000Y-45720000D01*
X88011000Y-61493400D02*
X88011000Y-54432200D01*
X88976200Y-48133000D02*
X86563200Y-45720000D01*
X88976200Y-53467000D02*
X88976200Y-48133000D01*
X90709595Y-67009238D02*
X90709595Y-64191995D01*
X90709595Y-64191995D02*
X88011000Y-61493400D01*
X82727800Y-78994000D02*
X82727800Y-86156800D01*
X82727800Y-86156800D02*
X83667600Y-87096600D01*
X83944621Y-69039579D02*
X83944621Y-69141179D01*
X83870800Y-72263000D02*
X83870800Y-77851000D01*
X83134200Y-69951600D02*
X83134200Y-71526400D01*
X83667600Y-136042400D02*
X82550000Y-137160000D01*
X83870800Y-77851000D02*
X82727800Y-78994000D01*
X83667600Y-87096600D02*
X83667600Y-136042400D01*
X83944621Y-69141179D02*
X83134200Y-69951600D01*
X83134200Y-71526400D02*
X83870800Y-72263000D01*
D14*
X82550000Y-35560000D02*
X90170000Y-35560000D01*
D15*
X90314713Y-67861113D02*
X89458800Y-67005200D01*
X89458800Y-64160400D02*
X86258400Y-60960000D01*
X90716395Y-67861113D02*
X90314713Y-67861113D01*
X86258400Y-60960000D02*
X82550000Y-60960000D01*
X89458800Y-67005200D02*
X89458800Y-64160400D01*
D14*
X82550000Y-38100000D02*
X90170000Y-38100000D01*
D15*
X82156572Y-68300600D02*
X84251800Y-68300600D01*
X84683600Y-68732400D02*
X84683600Y-150266400D01*
X84251800Y-68300600D02*
X84683600Y-68732400D01*
X82009339Y-68153367D02*
X82156572Y-68300600D01*
X84683600Y-150266400D02*
X82550000Y-152400000D01*
X85979000Y-69811900D02*
X85979000Y-68935600D01*
X85775800Y-164414200D02*
X85775800Y-77268660D01*
X85775800Y-77268660D02*
X85649666Y-77142526D01*
X85649666Y-76663600D02*
X85775800Y-76537466D01*
X85360000Y-71517000D02*
X85360000Y-70430900D01*
X84741020Y-67697620D02*
X84133900Y-67697620D01*
X82550000Y-167640000D02*
X85775800Y-164414200D01*
X85360000Y-70430900D02*
X85979000Y-69811900D01*
X85775800Y-76537466D02*
X85775800Y-71932800D01*
X85775800Y-71932800D02*
X85360000Y-71517000D01*
X85649666Y-77142526D02*
X85649666Y-76663600D01*
X85979000Y-68935600D02*
X84741020Y-67697620D01*
X87706200Y-68681600D02*
X87477600Y-68681600D01*
X86664800Y-72085200D02*
X86487000Y-72263000D01*
X86944200Y-164414200D02*
X90170000Y-167640000D01*
X86944200Y-73863200D02*
X86944200Y-164414200D01*
X86487000Y-72263000D02*
X86487000Y-73406000D01*
X88417800Y-67970000D02*
X87706200Y-68681600D01*
X88873100Y-67970000D02*
X88417800Y-67970000D01*
X86664800Y-69494400D02*
X86664800Y-72085200D01*
X86487000Y-73406000D02*
X86944200Y-73863200D01*
X87477600Y-68681600D02*
X86664800Y-69494400D01*
X88779481Y-68817922D02*
X88927922Y-68817922D01*
X89458800Y-70104000D02*
X89040000Y-70522800D01*
X89040000Y-70522800D02*
X89040000Y-72160000D01*
X89458800Y-69348800D02*
X89458800Y-70104000D01*
X87706200Y-149936200D02*
X90170000Y-152400000D01*
X89040000Y-72160000D02*
X87706200Y-73493800D01*
X87706200Y-73493800D02*
X87706200Y-149936200D01*
X88927922Y-68817922D02*
X89458800Y-69348800D01*
X89814400Y-74015600D02*
X88976200Y-74853800D01*
X90140000Y-69100000D02*
X90140000Y-70910000D01*
X90526985Y-68713015D02*
X90140000Y-69100000D01*
X88976200Y-135966200D02*
X90170000Y-137160000D01*
X88976200Y-74853800D02*
X88976200Y-135966200D01*
X90716900Y-68713015D02*
X90526985Y-68713015D01*
X89814400Y-71235600D02*
X89814400Y-74015600D01*
X90140000Y-70910000D02*
X89814400Y-71235600D01*
%TA.AperFunction,NonConductor*%
G36*
X84273322Y-25366819D02*
G01*
X84298051Y-25376311D01*
X84367151Y-25407077D01*
X84543671Y-25444597D01*
X84543674Y-25444597D01*
X84724133Y-25444597D01*
X84724135Y-25444597D01*
X84806241Y-25427144D01*
X84904946Y-25425852D01*
X84996634Y-25462432D01*
X85067344Y-25531314D01*
X85106312Y-25622013D01*
X85110455Y-25648168D01*
X85111304Y-25656251D01*
X85167068Y-25827875D01*
X85167069Y-25827877D01*
X85167070Y-25827879D01*
X85206406Y-25896010D01*
X85257303Y-25984167D01*
X85322621Y-26056709D01*
X85373094Y-26141546D01*
X85387259Y-26239240D01*
X85362960Y-26334919D01*
X85303897Y-26414015D01*
X85219060Y-26464488D01*
X85134606Y-26479000D01*
X83580207Y-26479000D01*
X83483388Y-26459742D01*
X83401309Y-26404898D01*
X83346465Y-26322819D01*
X83327207Y-26226000D01*
X83346465Y-26129181D01*
X83401309Y-26047102D01*
X83477303Y-25994873D01*
X83581192Y-25948618D01*
X83591616Y-25943977D01*
X83737614Y-25837903D01*
X83752564Y-25821300D01*
X83782993Y-25787504D01*
X83858368Y-25703792D01*
X83948600Y-25547506D01*
X83954528Y-25529258D01*
X84002760Y-25443132D01*
X84080282Y-25382016D01*
X84175291Y-25355218D01*
X84273322Y-25366819D01*
G37*
%TD.AperFunction*%
%TA.AperFunction,NonConductor*%
G36*
X82708057Y-25930172D02*
G01*
X82724589Y-25941218D01*
X82727796Y-25943548D01*
X82728386Y-25943977D01*
X82728388Y-25943978D01*
X82842699Y-25994873D01*
X82923315Y-26051846D01*
X82975991Y-26135333D01*
X82992708Y-26232623D01*
X82970922Y-26328904D01*
X82913949Y-26409520D01*
X82830462Y-26462196D01*
X82739795Y-26479000D01*
X82489570Y-26479000D01*
X82417922Y-26484936D01*
X82319843Y-26473738D01*
X82233516Y-26425858D01*
X82172083Y-26348588D01*
X82144896Y-26253690D01*
X82156094Y-26155611D01*
X82203974Y-26069284D01*
X82281244Y-26007851D01*
X82294129Y-26001673D01*
X82422809Y-25944381D01*
X82422810Y-25944380D01*
X82422815Y-25944378D01*
X82427160Y-25941221D01*
X82432736Y-25938650D01*
X82434297Y-25937749D01*
X82434379Y-25937892D01*
X82516802Y-25899890D01*
X82615441Y-25896010D01*
X82708057Y-25930172D01*
G37*
%TD.AperFunction*%
%TA.AperFunction,NonConductor*%
G36*
X90175506Y-16760982D02*
G01*
X90221906Y-16765041D01*
X90324988Y-16774059D01*
X90368402Y-16781713D01*
X90497311Y-16816254D01*
X90538746Y-16831336D01*
X90614094Y-16866471D01*
X90659693Y-16887734D01*
X90697874Y-16909777D01*
X90793162Y-16976499D01*
X90861423Y-17047806D01*
X90897201Y-17139810D01*
X90895047Y-17238502D01*
X90855289Y-17328858D01*
X90783980Y-17397121D01*
X90691976Y-17432899D01*
X90672845Y-17435523D01*
X90627766Y-17439963D01*
X90482296Y-17454291D01*
X90482294Y-17454292D01*
X90292195Y-17511958D01*
X90292194Y-17511958D01*
X90116998Y-17605602D01*
X90116990Y-17605607D01*
X89963433Y-17731629D01*
X89963430Y-17731632D01*
X89837408Y-17885189D01*
X89837403Y-17885197D01*
X89743759Y-18060393D01*
X89743759Y-18060394D01*
X89686093Y-18250493D01*
X89686092Y-18250496D01*
X89671500Y-18398656D01*
X89671500Y-19697741D01*
X89686092Y-19845901D01*
X89686093Y-19845904D01*
X89743759Y-20036003D01*
X89743759Y-20036004D01*
X89837403Y-20211200D01*
X89837408Y-20211208D01*
X89963430Y-20364765D01*
X89963433Y-20364768D01*
X90116990Y-20490790D01*
X90116994Y-20490792D01*
X90116996Y-20490794D01*
X90292196Y-20584440D01*
X90482299Y-20642107D01*
X90680000Y-20661579D01*
X90877701Y-20642107D01*
X90877706Y-20642105D01*
X90887139Y-20640229D01*
X90985854Y-20640228D01*
X91077056Y-20678003D01*
X91146860Y-20747805D01*
X91184638Y-20839006D01*
X91189500Y-20888367D01*
X91189500Y-21408031D01*
X91170242Y-21504850D01*
X91115398Y-21586929D01*
X91033319Y-21641773D01*
X90936500Y-21661031D01*
X90887150Y-21656171D01*
X90877710Y-21654293D01*
X90877701Y-21654292D01*
X90680000Y-21634820D01*
X90482296Y-21654292D01*
X90482294Y-21654293D01*
X90292196Y-21711958D01*
X90166678Y-21779049D01*
X90072213Y-21807704D01*
X89973973Y-21798027D01*
X89944518Y-21787051D01*
X89826753Y-21734619D01*
X89650233Y-21697099D01*
X89469769Y-21697099D01*
X89337379Y-21725239D01*
X89293248Y-21734619D01*
X89128386Y-21808021D01*
X89128385Y-21808021D01*
X88982390Y-21914093D01*
X88982382Y-21914100D01*
X88861637Y-22048201D01*
X88771400Y-22204495D01*
X88715636Y-22376120D01*
X88696772Y-22555599D01*
X88715636Y-22735077D01*
X88771400Y-22906702D01*
X88771401Y-22906704D01*
X88771402Y-22906706D01*
X88861634Y-23062992D01*
X88861635Y-23062994D01*
X88861637Y-23062996D01*
X88982385Y-23197101D01*
X88982389Y-23197104D01*
X89128384Y-23303176D01*
X89128385Y-23303176D01*
X89128386Y-23303177D01*
X89293249Y-23376579D01*
X89469769Y-23414099D01*
X89469772Y-23414099D01*
X89482738Y-23416855D01*
X89482090Y-23419901D01*
X89554405Y-23442343D01*
X89630312Y-23505453D01*
X89676290Y-23592808D01*
X89685500Y-23639895D01*
X89686092Y-23645901D01*
X89686093Y-23645903D01*
X89686900Y-23649961D01*
X89686899Y-23654095D01*
X89687311Y-23658269D01*
X89686899Y-23658309D01*
X89686898Y-23748677D01*
X89649119Y-23839877D01*
X89579315Y-23909679D01*
X89488113Y-23947454D01*
X89465213Y-23950927D01*
X89459778Y-23951498D01*
X89459769Y-23951500D01*
X89459768Y-23951500D01*
X89394229Y-23965430D01*
X89283247Y-23989020D01*
X89118385Y-24062422D01*
X89118384Y-24062422D01*
X88972389Y-24168494D01*
X88972381Y-24168501D01*
X88851636Y-24302602D01*
X88761399Y-24458896D01*
X88705635Y-24630521D01*
X88686771Y-24810000D01*
X88705635Y-24989478D01*
X88761399Y-25161103D01*
X88761400Y-25161105D01*
X88761401Y-25161107D01*
X88851633Y-25317393D01*
X88851634Y-25317395D01*
X88851636Y-25317397D01*
X88972384Y-25451502D01*
X88972388Y-25451505D01*
X89118383Y-25557577D01*
X89118384Y-25557577D01*
X89118385Y-25557578D01*
X89283248Y-25630980D01*
X89459768Y-25668500D01*
X89459771Y-25668500D01*
X89640229Y-25668500D01*
X89640232Y-25668500D01*
X89665731Y-25663079D01*
X89764431Y-25661785D01*
X89856121Y-25698362D01*
X89906349Y-25741260D01*
X89947989Y-25787506D01*
X90093983Y-25893577D01*
X90093984Y-25893577D01*
X90093985Y-25893578D01*
X90258848Y-25966980D01*
X90325756Y-25981201D01*
X90416454Y-26020168D01*
X90421183Y-26025022D01*
X90471565Y-26007143D01*
X90508041Y-26004500D01*
X90615829Y-26004500D01*
X90615832Y-26004500D01*
X90792352Y-25966980D01*
X90833594Y-25948618D01*
X90929876Y-25926831D01*
X91027166Y-25943548D01*
X91110653Y-25996223D01*
X91167626Y-26076838D01*
X91189413Y-26173120D01*
X91189500Y-26179744D01*
X91189500Y-26328500D01*
X91170242Y-26425319D01*
X91115398Y-26507398D01*
X91033319Y-26562242D01*
X90936500Y-26581500D01*
X90763065Y-26581500D01*
X90666246Y-26562242D01*
X90661433Y-26560189D01*
X90646016Y-26553426D01*
X90646014Y-26553425D01*
X90445933Y-26502758D01*
X90359246Y-26461483D01*
X90319262Y-26477436D01*
X90252265Y-26480809D01*
X90230430Y-26479000D01*
X90230427Y-26479000D01*
X87622689Y-26479000D01*
X87525870Y-26459742D01*
X87443791Y-26404898D01*
X87388947Y-26322819D01*
X87369689Y-26226000D01*
X87388947Y-26129181D01*
X87434674Y-26056710D01*
X87499993Y-25984165D01*
X87505913Y-25977590D01*
X87596145Y-25821304D01*
X87651911Y-25649672D01*
X87670775Y-25470197D01*
X87651911Y-25290722D01*
X87596145Y-25119090D01*
X87505913Y-24962804D01*
X87505909Y-24962800D01*
X87505909Y-24962799D01*
X87385161Y-24828694D01*
X87385157Y-24828691D01*
X87239162Y-24722619D01*
X87074298Y-24649217D01*
X86897778Y-24611697D01*
X86717314Y-24611697D01*
X86611402Y-24634209D01*
X86540792Y-24649217D01*
X86540790Y-24649218D01*
X86477130Y-24677562D01*
X86380848Y-24699349D01*
X86283558Y-24682632D01*
X86271321Y-24677563D01*
X86222427Y-24655794D01*
X86222421Y-24655792D01*
X86191492Y-24649218D01*
X86045901Y-24618272D01*
X85865437Y-24618272D01*
X85805409Y-24631031D01*
X85783330Y-24635724D01*
X85684622Y-24637015D01*
X85592935Y-24600435D01*
X85522225Y-24531551D01*
X85483258Y-24440852D01*
X85479117Y-24414705D01*
X85478268Y-24406622D01*
X85474161Y-24393983D01*
X85422503Y-24234993D01*
X85422502Y-24234992D01*
X85422502Y-24234990D01*
X85332270Y-24078704D01*
X85332266Y-24078700D01*
X85332266Y-24078699D01*
X85211518Y-23944594D01*
X85211514Y-23944591D01*
X85065519Y-23838519D01*
X84900655Y-23765117D01*
X84724135Y-23727597D01*
X84543671Y-23727597D01*
X84411281Y-23755737D01*
X84367150Y-23765117D01*
X84202288Y-23838519D01*
X84202287Y-23838519D01*
X84056292Y-23944591D01*
X84056284Y-23944598D01*
X83935539Y-24078699D01*
X83935536Y-24078703D01*
X83935536Y-24078704D01*
X83883695Y-24168496D01*
X83845303Y-24234992D01*
X83839373Y-24253243D01*
X83791137Y-24339371D01*
X83713612Y-24400484D01*
X83618603Y-24427277D01*
X83520571Y-24415673D01*
X83495852Y-24406184D01*
X83426753Y-24375419D01*
X83250233Y-24337899D01*
X83130078Y-24337899D01*
X83033259Y-24318641D01*
X82951180Y-24263797D01*
X82896336Y-24181718D01*
X82877078Y-24084899D01*
X82896336Y-23988080D01*
X82906952Y-23965636D01*
X82942408Y-23899300D01*
X82976241Y-23836004D01*
X83033908Y-23645901D01*
X83034577Y-23639100D01*
X83063230Y-23544637D01*
X83125853Y-23468327D01*
X83212911Y-23421791D01*
X83237429Y-23416831D01*
X83237264Y-23416055D01*
X83250230Y-23413299D01*
X83250233Y-23413299D01*
X83426753Y-23375779D01*
X83591616Y-23302377D01*
X83737614Y-23196303D01*
X83858368Y-23062192D01*
X83948600Y-22905906D01*
X84004366Y-22734274D01*
X84023230Y-22554799D01*
X84004366Y-22375324D01*
X83948600Y-22203692D01*
X83858368Y-22047406D01*
X83858364Y-22047402D01*
X83858364Y-22047401D01*
X83737616Y-21913296D01*
X83737612Y-21913293D01*
X83591617Y-21807221D01*
X83426753Y-21733819D01*
X83250233Y-21696299D01*
X83069769Y-21696299D01*
X82996094Y-21711959D01*
X82893247Y-21733819D01*
X82893245Y-21733819D01*
X82774671Y-21786613D01*
X82678390Y-21808399D01*
X82581100Y-21791682D01*
X82552504Y-21778612D01*
X82427805Y-21711959D01*
X82237705Y-21654293D01*
X82237703Y-21654292D01*
X82040000Y-21634820D01*
X81842289Y-21654293D01*
X81832850Y-21656171D01*
X81734135Y-21656168D01*
X81642934Y-21618389D01*
X81573134Y-21548584D01*
X81535360Y-21457381D01*
X81530500Y-21408031D01*
X81530500Y-20888367D01*
X81549758Y-20791548D01*
X81604602Y-20709469D01*
X81686681Y-20654625D01*
X81783500Y-20635367D01*
X81832861Y-20640229D01*
X81842295Y-20642105D01*
X81842299Y-20642107D01*
X82040000Y-20661579D01*
X82237701Y-20642107D01*
X82427804Y-20584440D01*
X82603004Y-20490794D01*
X82756568Y-20364767D01*
X82882595Y-20211203D01*
X82976241Y-20036003D01*
X83033908Y-19845900D01*
X83048500Y-19697746D01*
X83048500Y-18398652D01*
X83033908Y-18250498D01*
X82976241Y-18060395D01*
X82882595Y-17885195D01*
X82882593Y-17885193D01*
X82882591Y-17885189D01*
X82756569Y-17731632D01*
X82756566Y-17731629D01*
X82603009Y-17605607D01*
X82603001Y-17605602D01*
X82427805Y-17511958D01*
X82237705Y-17454292D01*
X82237703Y-17454291D01*
X82140722Y-17444739D01*
X82047155Y-17435523D01*
X81952691Y-17406868D01*
X81876383Y-17344243D01*
X81829849Y-17257183D01*
X81820173Y-17158943D01*
X81848829Y-17064478D01*
X81911454Y-16988170D01*
X81926812Y-16976516D01*
X82022130Y-16909774D01*
X82060301Y-16887736D01*
X82181253Y-16831336D01*
X82222684Y-16816255D01*
X82351599Y-16781713D01*
X82395009Y-16774059D01*
X82544509Y-16760980D01*
X82555523Y-16760500D01*
X82594170Y-16760500D01*
X90125830Y-16760500D01*
X90164477Y-16760500D01*
X90175506Y-16760982D01*
G37*
%TD.AperFunction*%
%TA.AperFunction,NonConductor*%
G36*
X82053754Y-39477758D02*
G01*
X82058567Y-39479811D01*
X82073983Y-39486573D01*
X82073985Y-39486574D01*
X82073986Y-39486574D01*
X82073988Y-39486575D01*
X82308703Y-39546013D01*
X82332575Y-39547991D01*
X82343676Y-39548911D01*
X82438574Y-39576099D01*
X82515845Y-39637532D01*
X82563723Y-39723860D01*
X82574921Y-39821938D01*
X82547733Y-39916836D01*
X82510800Y-39970337D01*
X82410436Y-40081802D01*
X82320199Y-40238096D01*
X82264435Y-40409721D01*
X82245571Y-40589200D01*
X82264435Y-40768678D01*
X82320199Y-40940303D01*
X82320200Y-40940305D01*
X82320201Y-40940307D01*
X82410433Y-41096593D01*
X82410434Y-41096595D01*
X82410436Y-41096597D01*
X82531184Y-41230702D01*
X82531188Y-41230705D01*
X82677183Y-41336777D01*
X82677184Y-41336777D01*
X82677185Y-41336778D01*
X82842048Y-41410180D01*
X83018568Y-41447700D01*
X83018571Y-41447700D01*
X83133075Y-41447700D01*
X83184626Y-41457953D01*
X83190906Y-41453758D01*
X83235121Y-41440028D01*
X83375552Y-41410180D01*
X83540415Y-41336778D01*
X83686413Y-41230704D01*
X83807167Y-41096593D01*
X83897399Y-40940307D01*
X83953165Y-40768675D01*
X83972029Y-40589200D01*
X83953165Y-40409725D01*
X83897399Y-40238093D01*
X83807167Y-40081807D01*
X83807163Y-40081803D01*
X83807163Y-40081802D01*
X83718463Y-39983290D01*
X83667990Y-39898453D01*
X83653825Y-39800759D01*
X83678124Y-39705081D01*
X83737188Y-39625985D01*
X83822025Y-39575512D01*
X83906478Y-39561000D01*
X87063897Y-39561000D01*
X87160716Y-39580258D01*
X87242795Y-39635102D01*
X87297639Y-39717181D01*
X87316897Y-39814000D01*
X87297639Y-39910819D01*
X87251913Y-39983289D01*
X87251913Y-39983290D01*
X87251912Y-39983291D01*
X87134834Y-40113317D01*
X87044599Y-40269609D01*
X86988835Y-40441234D01*
X86969971Y-40620713D01*
X86988835Y-40800191D01*
X87044599Y-40971816D01*
X87044600Y-40971818D01*
X87044601Y-40971820D01*
X87134833Y-41128106D01*
X87134834Y-41128108D01*
X87134836Y-41128110D01*
X87255584Y-41262215D01*
X87255588Y-41262218D01*
X87401583Y-41368290D01*
X87401584Y-41368290D01*
X87401585Y-41368291D01*
X87566448Y-41441693D01*
X87742968Y-41479213D01*
X87742971Y-41479213D01*
X87923429Y-41479213D01*
X87923432Y-41479213D01*
X88099952Y-41441693D01*
X88264815Y-41368291D01*
X88410813Y-41262217D01*
X88531567Y-41128106D01*
X88621799Y-40971820D01*
X88677565Y-40800188D01*
X88696429Y-40620713D01*
X88677565Y-40441238D01*
X88621799Y-40269606D01*
X88531567Y-40113320D01*
X88531566Y-40113319D01*
X88531565Y-40113317D01*
X88414488Y-39983291D01*
X88414487Y-39983290D01*
X88414487Y-39983289D01*
X88364015Y-39898454D01*
X88349850Y-39800760D01*
X88374149Y-39705081D01*
X88433212Y-39625985D01*
X88518049Y-39575512D01*
X88602503Y-39561000D01*
X90230429Y-39561000D01*
X90302775Y-39555005D01*
X90411297Y-39546013D01*
X90646012Y-39486575D01*
X90652521Y-39483719D01*
X90661433Y-39479811D01*
X90757833Y-39458554D01*
X90763065Y-39458500D01*
X90936500Y-39458500D01*
X91033319Y-39477758D01*
X91115398Y-39532602D01*
X91170242Y-39614681D01*
X91189500Y-39711500D01*
X91189500Y-44108500D01*
X91170242Y-44205319D01*
X91115398Y-44287398D01*
X91033319Y-44342242D01*
X90936500Y-44361500D01*
X90440072Y-44361500D01*
X90343253Y-44342242D01*
X90261174Y-44287398D01*
X90206330Y-44205319D01*
X90187072Y-44108500D01*
X90199455Y-44030319D01*
X90252364Y-43867478D01*
X90252363Y-43867478D01*
X90252365Y-43867475D01*
X90271229Y-43688000D01*
X90252365Y-43508525D01*
X90196599Y-43336893D01*
X90192502Y-43324283D01*
X90195603Y-43323275D01*
X90179048Y-43250165D01*
X90193976Y-43163196D01*
X90192502Y-43162717D01*
X90252364Y-42978478D01*
X90252363Y-42978478D01*
X90252365Y-42978475D01*
X90271229Y-42799000D01*
X90252365Y-42619525D01*
X90196599Y-42447893D01*
X90106367Y-42291607D01*
X90106363Y-42291603D01*
X90106363Y-42291602D01*
X89985615Y-42157497D01*
X89985611Y-42157494D01*
X89839616Y-42051422D01*
X89674752Y-41978020D01*
X89674747Y-41978019D01*
X89498232Y-41940500D01*
X89317768Y-41940500D01*
X89185378Y-41968640D01*
X89141247Y-41978020D01*
X88976385Y-42051422D01*
X88976384Y-42051422D01*
X88830389Y-42157494D01*
X88830381Y-42157501D01*
X88709636Y-42291602D01*
X88619399Y-42447896D01*
X88563635Y-42619521D01*
X88544771Y-42799000D01*
X88563635Y-42978478D01*
X88623498Y-43162717D01*
X88620403Y-43163722D01*
X88636953Y-43236917D01*
X88622010Y-43323799D01*
X88623498Y-43324283D01*
X88563635Y-43508521D01*
X88544771Y-43688000D01*
X88563635Y-43867478D01*
X88619399Y-44039103D01*
X88709634Y-44195395D01*
X88779948Y-44273486D01*
X88830387Y-44329504D01*
X88830388Y-44329505D01*
X88834579Y-44334159D01*
X88885052Y-44418996D01*
X88899217Y-44516690D01*
X88874918Y-44612369D01*
X88869200Y-44623557D01*
X88818009Y-44760803D01*
X88811501Y-44821345D01*
X88811500Y-44821365D01*
X88811500Y-46530613D01*
X88792242Y-46627432D01*
X88737398Y-46709511D01*
X88655319Y-46764355D01*
X88558500Y-46783613D01*
X88461681Y-46764355D01*
X88379602Y-46709511D01*
X87009615Y-45339525D01*
X86998693Y-45327070D01*
X86980213Y-45302987D01*
X86902586Y-45243422D01*
X86858073Y-45209266D01*
X86816413Y-45192010D01*
X86715841Y-45150351D01*
X86715830Y-45150348D01*
X86597643Y-45134788D01*
X86597605Y-45134784D01*
X86563200Y-45130255D01*
X86563199Y-45130255D01*
X86533103Y-45134217D01*
X86516576Y-45135300D01*
X84161500Y-45135300D01*
X84064681Y-45116042D01*
X83982602Y-45061198D01*
X83927758Y-44979119D01*
X83908500Y-44882300D01*
X83908500Y-44821365D01*
X83908498Y-44821345D01*
X83901990Y-44760803D01*
X83901989Y-44760799D01*
X83850889Y-44623796D01*
X83850887Y-44623793D01*
X83844565Y-44606843D01*
X83845662Y-44606433D01*
X83821885Y-44530494D01*
X83830684Y-44432171D01*
X83876439Y-44344700D01*
X83885421Y-44334159D01*
X83889611Y-44329505D01*
X83889613Y-44329504D01*
X84010367Y-44195393D01*
X84100599Y-44039107D01*
X84156365Y-43867475D01*
X84175229Y-43688000D01*
X85496771Y-43688000D01*
X85515635Y-43867478D01*
X85571399Y-44039103D01*
X85571400Y-44039105D01*
X85571401Y-44039107D01*
X85661633Y-44195393D01*
X85661634Y-44195395D01*
X85661636Y-44195397D01*
X85782384Y-44329502D01*
X85782388Y-44329505D01*
X85928383Y-44435577D01*
X85928384Y-44435577D01*
X85928385Y-44435578D01*
X86093248Y-44508980D01*
X86269768Y-44546500D01*
X86269771Y-44546500D01*
X86450229Y-44546500D01*
X86450232Y-44546500D01*
X86626752Y-44508980D01*
X86791615Y-44435578D01*
X86937613Y-44329504D01*
X86963384Y-44300883D01*
X87033185Y-44223360D01*
X87058367Y-44195393D01*
X87148599Y-44039107D01*
X87204365Y-43867475D01*
X87223229Y-43688000D01*
X87204365Y-43508525D01*
X87148599Y-43336893D01*
X87144502Y-43324283D01*
X87147603Y-43323275D01*
X87131048Y-43250165D01*
X87145976Y-43163196D01*
X87144502Y-43162717D01*
X87204364Y-42978478D01*
X87204363Y-42978478D01*
X87204365Y-42978475D01*
X87223229Y-42799000D01*
X87204365Y-42619525D01*
X87148599Y-42447893D01*
X87058367Y-42291607D01*
X87058363Y-42291603D01*
X87058363Y-42291602D01*
X86937615Y-42157497D01*
X86937611Y-42157494D01*
X86791616Y-42051422D01*
X86626752Y-41978020D01*
X86626747Y-41978019D01*
X86450232Y-41940500D01*
X86269768Y-41940500D01*
X86137378Y-41968640D01*
X86093247Y-41978020D01*
X85928385Y-42051422D01*
X85928384Y-42051422D01*
X85782389Y-42157494D01*
X85782381Y-42157501D01*
X85661636Y-42291602D01*
X85571399Y-42447896D01*
X85515635Y-42619521D01*
X85496771Y-42799000D01*
X85515635Y-42978478D01*
X85575498Y-43162717D01*
X85572403Y-43163722D01*
X85588953Y-43236917D01*
X85574010Y-43323799D01*
X85575498Y-43324283D01*
X85515635Y-43508521D01*
X85496771Y-43688000D01*
X84175229Y-43688000D01*
X84156365Y-43508525D01*
X84100599Y-43336893D01*
X84096502Y-43324283D01*
X84099603Y-43323275D01*
X84083048Y-43250165D01*
X84097976Y-43163196D01*
X84096502Y-43162717D01*
X84156364Y-42978478D01*
X84156363Y-42978478D01*
X84156365Y-42978475D01*
X84175229Y-42799000D01*
X84156365Y-42619525D01*
X84100599Y-42447893D01*
X84010367Y-42291607D01*
X84010363Y-42291603D01*
X84010363Y-42291602D01*
X83889615Y-42157497D01*
X83889611Y-42157494D01*
X83743616Y-42051422D01*
X83578752Y-41978020D01*
X83578747Y-41978019D01*
X83402232Y-41940500D01*
X83287725Y-41940500D01*
X83236173Y-41930246D01*
X83229894Y-41934442D01*
X83185678Y-41948171D01*
X83153682Y-41954971D01*
X83045248Y-41978019D01*
X82880385Y-42051422D01*
X82880384Y-42051422D01*
X82734389Y-42157494D01*
X82734381Y-42157501D01*
X82613636Y-42291602D01*
X82523399Y-42447896D01*
X82467635Y-42619521D01*
X82448771Y-42799000D01*
X82467635Y-42978478D01*
X82527498Y-43162717D01*
X82524403Y-43163722D01*
X82540953Y-43236917D01*
X82526010Y-43323799D01*
X82527498Y-43324283D01*
X82467635Y-43508521D01*
X82448771Y-43688000D01*
X82467635Y-43867478D01*
X82520545Y-44030319D01*
X82532148Y-44128351D01*
X82505352Y-44223360D01*
X82444238Y-44300883D01*
X82358109Y-44349117D01*
X82279928Y-44361500D01*
X81783500Y-44361500D01*
X81686681Y-44342242D01*
X81604602Y-44287398D01*
X81549758Y-44205319D01*
X81530500Y-44108500D01*
X81530500Y-39711500D01*
X81549758Y-39614681D01*
X81604602Y-39532602D01*
X81686681Y-39477758D01*
X81783500Y-39458500D01*
X81956935Y-39458500D01*
X82053754Y-39477758D01*
G37*
%TD.AperFunction*%
%TA.AperFunction,NonConductor*%
G36*
X91033319Y-47097758D02*
G01*
X91115398Y-47152602D01*
X91170242Y-47234681D01*
X91189500Y-47331500D01*
X91189500Y-50886446D01*
X91170242Y-50983265D01*
X91115398Y-51065344D01*
X91033319Y-51120188D01*
X90936500Y-51139446D01*
X90839681Y-51120188D01*
X90757602Y-51065344D01*
X90748485Y-51055737D01*
X90626710Y-50920493D01*
X90480716Y-50814422D01*
X90315852Y-50741020D01*
X90139332Y-50703500D01*
X89958868Y-50703500D01*
X89893006Y-50717499D01*
X89866500Y-50723133D01*
X89767792Y-50724424D01*
X89676105Y-50687844D01*
X89605395Y-50618960D01*
X89566428Y-50528261D01*
X89560900Y-50475661D01*
X89560900Y-48179617D01*
X89561984Y-48163085D01*
X89565945Y-48133000D01*
X89560900Y-48094678D01*
X89545851Y-47980368D01*
X89545850Y-47980366D01*
X89545850Y-47980363D01*
X89488511Y-47841935D01*
X89487215Y-47838493D01*
X89416742Y-47746651D01*
X89393212Y-47715986D01*
X89369132Y-47697509D01*
X89356678Y-47686587D01*
X89180489Y-47510398D01*
X89125645Y-47428319D01*
X89106387Y-47331500D01*
X89125645Y-47234681D01*
X89180489Y-47152602D01*
X89262568Y-47097758D01*
X89359387Y-47078500D01*
X90936500Y-47078500D01*
X91033319Y-47097758D01*
G37*
%TD.AperFunction*%
%TA.AperFunction,NonConductor*%
G36*
X91020953Y-51999065D02*
G01*
X91105790Y-52049537D01*
X91164854Y-52128633D01*
X91189153Y-52224312D01*
X91189500Y-52237553D01*
X91189500Y-56119935D01*
X91170242Y-56216754D01*
X91115398Y-56298833D01*
X91033319Y-56353677D01*
X90936500Y-56372935D01*
X90839681Y-56353677D01*
X90757602Y-56298833D01*
X90717396Y-56246435D01*
X90656603Y-56141140D01*
X90535852Y-56007032D01*
X90535848Y-56007029D01*
X90389853Y-55900957D01*
X90224989Y-55827555D01*
X90048469Y-55790035D01*
X89868005Y-55790035D01*
X89735615Y-55818175D01*
X89691484Y-55827555D01*
X89586142Y-55874457D01*
X89489860Y-55896243D01*
X89392570Y-55879526D01*
X89380332Y-55874457D01*
X89274989Y-55827555D01*
X89098469Y-55790035D01*
X88918005Y-55790035D01*
X88901298Y-55793586D01*
X88802593Y-55794877D01*
X88710905Y-55758297D01*
X88640195Y-55689413D01*
X88601228Y-55598714D01*
X88595700Y-55546114D01*
X88595700Y-54779185D01*
X88614958Y-54682366D01*
X88669800Y-54600289D01*
X89356683Y-53913405D01*
X89369121Y-53902497D01*
X89393213Y-53884013D01*
X89441186Y-53821492D01*
X89478032Y-53773475D01*
X89483273Y-53766643D01*
X89486934Y-53761873D01*
X89545850Y-53619637D01*
X89565945Y-53467000D01*
X89561983Y-53436903D01*
X89560900Y-53420376D01*
X89560900Y-52648338D01*
X89580158Y-52551519D01*
X89635002Y-52469440D01*
X89717081Y-52414596D01*
X89813900Y-52395338D01*
X89866499Y-52400866D01*
X89958868Y-52420500D01*
X89958870Y-52420500D01*
X90139329Y-52420500D01*
X90139332Y-52420500D01*
X90315852Y-52382980D01*
X90480715Y-52309578D01*
X90626713Y-52203504D01*
X90747467Y-52069393D01*
X90747467Y-52069391D01*
X90748484Y-52068263D01*
X90827580Y-52009199D01*
X90923259Y-51984900D01*
X91020953Y-51999065D01*
G37*
%TD.AperFunction*%
%TA.AperFunction,NonConductor*%
G36*
X91063000Y-56958029D02*
G01*
X91137218Y-57023117D01*
X91180879Y-57111652D01*
X91189500Y-57177134D01*
X91189500Y-59348500D01*
X91170242Y-59445319D01*
X91115398Y-59527398D01*
X91033319Y-59582242D01*
X90936500Y-59601500D01*
X89271362Y-59601500D01*
X89271359Y-59601500D01*
X89271345Y-59601501D01*
X89210803Y-59608009D01*
X89142297Y-59633561D01*
X89073796Y-59659111D01*
X89073794Y-59659112D01*
X89073792Y-59659113D01*
X89000317Y-59714116D01*
X88911268Y-59756720D01*
X88812694Y-59762004D01*
X88719602Y-59729163D01*
X88646163Y-59663196D01*
X88603559Y-59574147D01*
X88595700Y-59511579D01*
X88595700Y-58318323D01*
X88614958Y-58221504D01*
X88669802Y-58139425D01*
X88751881Y-58084581D01*
X88848700Y-58065323D01*
X88945519Y-58084581D01*
X88997410Y-58113642D01*
X89084583Y-58176977D01*
X89084584Y-58176977D01*
X89084585Y-58176978D01*
X89249448Y-58250380D01*
X89425968Y-58287900D01*
X89425971Y-58287900D01*
X89606429Y-58287900D01*
X89606432Y-58287900D01*
X89782952Y-58250380D01*
X89947815Y-58176978D01*
X90093813Y-58070904D01*
X90214567Y-57936793D01*
X90304799Y-57780507D01*
X90360565Y-57608875D01*
X90370580Y-57513583D01*
X90399853Y-57419310D01*
X90462975Y-57343413D01*
X90473456Y-57335370D01*
X90535850Y-57290039D01*
X90656604Y-57155928D01*
X90717396Y-57050631D01*
X90782483Y-56976416D01*
X90871018Y-56932755D01*
X90969523Y-56926298D01*
X91063000Y-56958029D01*
G37*
%TD.AperFunction*%
%TA.AperFunction,NonConductor*%
G36*
X86313033Y-46323958D02*
G01*
X86395112Y-46378802D01*
X88317398Y-48301088D01*
X88372242Y-48383167D01*
X88391500Y-48479986D01*
X88391500Y-50241510D01*
X88372242Y-50338329D01*
X88317398Y-50420408D01*
X88235319Y-50475252D01*
X88138500Y-50494510D01*
X88041681Y-50475252D01*
X88035596Y-50472637D01*
X87896754Y-50410820D01*
X87826144Y-50395812D01*
X87720232Y-50373300D01*
X87539768Y-50373300D01*
X87407378Y-50401440D01*
X87363247Y-50410820D01*
X87198385Y-50484222D01*
X87198382Y-50484223D01*
X87143707Y-50523947D01*
X87054059Y-50565274D01*
X86955419Y-50569149D01*
X86862806Y-50534981D01*
X86846291Y-50523946D01*
X86791615Y-50484222D01*
X86626752Y-50410820D01*
X86450232Y-50373300D01*
X86269768Y-50373300D01*
X86137378Y-50401440D01*
X86093247Y-50410820D01*
X85928386Y-50484221D01*
X85869970Y-50526663D01*
X85780322Y-50567990D01*
X85681682Y-50571865D01*
X85589068Y-50537697D01*
X85572552Y-50526661D01*
X85524236Y-50491557D01*
X85359372Y-50418155D01*
X85324863Y-50410820D01*
X85182852Y-50380635D01*
X85002388Y-50380635D01*
X84869998Y-50408775D01*
X84825867Y-50418155D01*
X84660996Y-50491561D01*
X84654527Y-50495296D01*
X84561049Y-50527025D01*
X84462545Y-50520565D01*
X84374011Y-50476902D01*
X84308926Y-50402681D01*
X84277197Y-50309203D01*
X84283657Y-50210699D01*
X84287417Y-50198006D01*
X84291347Y-50185910D01*
X84291349Y-50185907D01*
X84347115Y-50014275D01*
X84365979Y-49834800D01*
X84347115Y-49655325D01*
X84291349Y-49483693D01*
X84291349Y-49483692D01*
X84227262Y-49372691D01*
X84195531Y-49279215D01*
X84201987Y-49180710D01*
X84222441Y-49131330D01*
X84222204Y-49131225D01*
X84226250Y-49122136D01*
X84227267Y-49119682D01*
X84227599Y-49119107D01*
X84283365Y-48947475D01*
X84302229Y-48768000D01*
X84283365Y-48588525D01*
X84227599Y-48416893D01*
X84137367Y-48260607D01*
X84137363Y-48260603D01*
X84137363Y-48260602D01*
X84016615Y-48126497D01*
X84016611Y-48126494D01*
X83870616Y-48020422D01*
X83705752Y-47947020D01*
X83529232Y-47909500D01*
X83348768Y-47909500D01*
X83216378Y-47937640D01*
X83172247Y-47947020D01*
X83007385Y-48020422D01*
X83007384Y-48020422D01*
X82861389Y-48126494D01*
X82861381Y-48126501D01*
X82740636Y-48260602D01*
X82650399Y-48416896D01*
X82594635Y-48588521D01*
X82575771Y-48768000D01*
X82594635Y-48947478D01*
X82650400Y-49119105D01*
X82714488Y-49230110D01*
X82746219Y-49323587D01*
X82739762Y-49422091D01*
X82719307Y-49471479D01*
X82719543Y-49471584D01*
X82715545Y-49480562D01*
X82714499Y-49483089D01*
X82714155Y-49483683D01*
X82714148Y-49483699D01*
X82658385Y-49655321D01*
X82639521Y-49834800D01*
X82658385Y-50014278D01*
X82714149Y-50185903D01*
X82714150Y-50185905D01*
X82714151Y-50185907D01*
X82802152Y-50338329D01*
X82804384Y-50342194D01*
X82905951Y-50454996D01*
X82956423Y-50539833D01*
X82970588Y-50637527D01*
X82946289Y-50733205D01*
X82887225Y-50812302D01*
X82866646Y-50828966D01*
X82810591Y-50869692D01*
X82810581Y-50869701D01*
X82689836Y-51003802D01*
X82599599Y-51160096D01*
X82543835Y-51331721D01*
X82524971Y-51511200D01*
X82543835Y-51690678D01*
X82599599Y-51862303D01*
X82599600Y-51862305D01*
X82599601Y-51862307D01*
X82689833Y-52018593D01*
X82689834Y-52018595D01*
X82689836Y-52018597D01*
X82810584Y-52152702D01*
X82810588Y-52152705D01*
X82956583Y-52258777D01*
X82956584Y-52258777D01*
X82956585Y-52258778D01*
X83121448Y-52332180D01*
X83297968Y-52369700D01*
X83297971Y-52369700D01*
X83478429Y-52369700D01*
X83478432Y-52369700D01*
X83654952Y-52332180D01*
X83819815Y-52258778D01*
X83965813Y-52152704D01*
X84086567Y-52018593D01*
X84129302Y-51944572D01*
X84194387Y-51870358D01*
X84282922Y-51826696D01*
X84381426Y-51820239D01*
X84474903Y-51851969D01*
X84504057Y-51873151D01*
X84504280Y-51872846D01*
X84661003Y-51986712D01*
X84661004Y-51986712D01*
X84661005Y-51986713D01*
X84825868Y-52060115D01*
X85002388Y-52097635D01*
X85002391Y-52097635D01*
X85182849Y-52097635D01*
X85182852Y-52097635D01*
X85359372Y-52060115D01*
X85524235Y-51986713D01*
X85582648Y-51944272D01*
X85672292Y-51902945D01*
X85770931Y-51899068D01*
X85863546Y-51933234D01*
X85880067Y-51944273D01*
X85898085Y-51957363D01*
X85928382Y-51979376D01*
X85928384Y-51979377D01*
X85928385Y-51979378D01*
X86093248Y-52052780D01*
X86269768Y-52090300D01*
X86269771Y-52090300D01*
X86450229Y-52090300D01*
X86450232Y-52090300D01*
X86626752Y-52052780D01*
X86791615Y-51979378D01*
X86846289Y-51939655D01*
X86935937Y-51898326D01*
X87034576Y-51894450D01*
X87127191Y-51928616D01*
X87143711Y-51939655D01*
X87198382Y-51979376D01*
X87198383Y-51979377D01*
X87198384Y-51979377D01*
X87198385Y-51979378D01*
X87363248Y-52052780D01*
X87539768Y-52090300D01*
X87539771Y-52090300D01*
X87720229Y-52090300D01*
X87720232Y-52090300D01*
X87896752Y-52052780D01*
X88035595Y-51990962D01*
X88131876Y-51969176D01*
X88229166Y-51985893D01*
X88312653Y-52038568D01*
X88369626Y-52119183D01*
X88391413Y-52215465D01*
X88391500Y-52222089D01*
X88391500Y-53120013D01*
X88372242Y-53216832D01*
X88317398Y-53298911D01*
X88313146Y-53303163D01*
X88231067Y-53358007D01*
X88134248Y-53377265D01*
X88037429Y-53358007D01*
X87955350Y-53303163D01*
X87915143Y-53250765D01*
X87910600Y-53242896D01*
X87910599Y-53242893D01*
X87820367Y-53086607D01*
X87820363Y-53086603D01*
X87820363Y-53086602D01*
X87699615Y-52952497D01*
X87699611Y-52952494D01*
X87553616Y-52846422D01*
X87388752Y-52773020D01*
X87212232Y-52735500D01*
X87031768Y-52735500D01*
X86899378Y-52763640D01*
X86855247Y-52773020D01*
X86690385Y-52846422D01*
X86690384Y-52846422D01*
X86544389Y-52952494D01*
X86544381Y-52952501D01*
X86423636Y-53086602D01*
X86333399Y-53242896D01*
X86277635Y-53414521D01*
X86258771Y-53594000D01*
X86277635Y-53773475D01*
X86277635Y-53773477D01*
X86333399Y-53945103D01*
X86333400Y-53945105D01*
X86333401Y-53945107D01*
X86423633Y-54101393D01*
X86423634Y-54101395D01*
X86423636Y-54101397D01*
X86544384Y-54235502D01*
X86544388Y-54235505D01*
X86690383Y-54341577D01*
X86690384Y-54341577D01*
X86690385Y-54341578D01*
X86855248Y-54414980D01*
X87031768Y-54452500D01*
X87031771Y-54452500D01*
X87173300Y-54452500D01*
X87270119Y-54471758D01*
X87352198Y-54526602D01*
X87407042Y-54608681D01*
X87426300Y-54705500D01*
X87426300Y-55022500D01*
X87407042Y-55119319D01*
X87352198Y-55201398D01*
X87270119Y-55256242D01*
X87173300Y-55275500D01*
X87031768Y-55275500D01*
X86899378Y-55303640D01*
X86855247Y-55313020D01*
X86690385Y-55386422D01*
X86690384Y-55386422D01*
X86544389Y-55492494D01*
X86544381Y-55492501D01*
X86423636Y-55626602D01*
X86333399Y-55782896D01*
X86277635Y-55954521D01*
X86258771Y-56134000D01*
X86277635Y-56313478D01*
X86333399Y-56485103D01*
X86333400Y-56485105D01*
X86333401Y-56485107D01*
X86423633Y-56641393D01*
X86423634Y-56641395D01*
X86423636Y-56641397D01*
X86544384Y-56775502D01*
X86544388Y-56775505D01*
X86690383Y-56881577D01*
X86690384Y-56881577D01*
X86690385Y-56881578D01*
X86855248Y-56954980D01*
X87031768Y-56992500D01*
X87031771Y-56992500D01*
X87173300Y-56992500D01*
X87270119Y-57011758D01*
X87352198Y-57066602D01*
X87407042Y-57148681D01*
X87426300Y-57245500D01*
X87426300Y-60690214D01*
X87407042Y-60787033D01*
X87352198Y-60869112D01*
X87270119Y-60923956D01*
X87173300Y-60943214D01*
X87076481Y-60923956D01*
X86994402Y-60869112D01*
X86704815Y-60579525D01*
X86693893Y-60567070D01*
X86675413Y-60542987D01*
X86597786Y-60483422D01*
X86553273Y-60449266D01*
X86511613Y-60432010D01*
X86411041Y-60390351D01*
X86411030Y-60390348D01*
X86292843Y-60374788D01*
X86292805Y-60374784D01*
X86258400Y-60370255D01*
X86258399Y-60370255D01*
X86228303Y-60374217D01*
X86211776Y-60375300D01*
X84161500Y-60375300D01*
X84064681Y-60356042D01*
X83982602Y-60301198D01*
X83927758Y-60219119D01*
X83908500Y-60122300D01*
X83908500Y-60061365D01*
X83908498Y-60061345D01*
X83901990Y-60000803D01*
X83901989Y-60000799D01*
X83850889Y-59863796D01*
X83850886Y-59863792D01*
X83850886Y-59863791D01*
X83763262Y-59746740D01*
X83763259Y-59746737D01*
X83646208Y-59659113D01*
X83646205Y-59659112D01*
X83646204Y-59659111D01*
X83509201Y-59608011D01*
X83509200Y-59608010D01*
X83509195Y-59608009D01*
X83509197Y-59608009D01*
X83448654Y-59601501D01*
X83448640Y-59601500D01*
X83448638Y-59601500D01*
X81783500Y-59601500D01*
X81686681Y-59582242D01*
X81604602Y-59527398D01*
X81549758Y-59445319D01*
X81530500Y-59348500D01*
X81530500Y-58117163D01*
X82472026Y-58117163D01*
X82490890Y-58296641D01*
X82546654Y-58468266D01*
X82546655Y-58468268D01*
X82546656Y-58468270D01*
X82636888Y-58624556D01*
X82636889Y-58624558D01*
X82636891Y-58624560D01*
X82757639Y-58758665D01*
X82757643Y-58758668D01*
X82903638Y-58864740D01*
X82903639Y-58864740D01*
X82903640Y-58864741D01*
X83068503Y-58938143D01*
X83245023Y-58975663D01*
X83245026Y-58975663D01*
X83425484Y-58975663D01*
X83425487Y-58975663D01*
X83602007Y-58938143D01*
X83766870Y-58864741D01*
X83912868Y-58758667D01*
X84033622Y-58624556D01*
X84123854Y-58468270D01*
X84179620Y-58296638D01*
X84198484Y-58117163D01*
X84179620Y-57937688D01*
X84179330Y-57936797D01*
X84123855Y-57766059D01*
X84123854Y-57766058D01*
X84123854Y-57766056D01*
X84033622Y-57609770D01*
X84033618Y-57609766D01*
X84033618Y-57609765D01*
X83912870Y-57475660D01*
X83912866Y-57475657D01*
X83766871Y-57369585D01*
X83602007Y-57296183D01*
X83573101Y-57290039D01*
X83425487Y-57258663D01*
X83245023Y-57258663D01*
X83112633Y-57286803D01*
X83068502Y-57296183D01*
X82903640Y-57369585D01*
X82903639Y-57369585D01*
X82757644Y-57475657D01*
X82757636Y-57475664D01*
X82636891Y-57609765D01*
X82546654Y-57766059D01*
X82490890Y-57937684D01*
X82472026Y-58117163D01*
X81530500Y-58117163D01*
X81530500Y-47331500D01*
X81549758Y-47234681D01*
X81604602Y-47152602D01*
X81686681Y-47097758D01*
X81783500Y-47078500D01*
X83448635Y-47078500D01*
X83448638Y-47078500D01*
X83471479Y-47076044D01*
X83509196Y-47071990D01*
X83509197Y-47071989D01*
X83509201Y-47071989D01*
X83646204Y-47020889D01*
X83763261Y-46933261D01*
X83850889Y-46816204D01*
X83901989Y-46679201D01*
X83908500Y-46618638D01*
X83908500Y-46557700D01*
X83927758Y-46460881D01*
X83982602Y-46378802D01*
X84064681Y-46323958D01*
X84161500Y-46304700D01*
X86216214Y-46304700D01*
X86313033Y-46323958D01*
G37*
%TD.AperFunction*%
%TA.AperFunction,NonConductor*%
G36*
X91033319Y-62337758D02*
G01*
X91115398Y-62392602D01*
X91170242Y-62474681D01*
X91189500Y-62571500D01*
X91189500Y-63234213D01*
X91170242Y-63331032D01*
X91115398Y-63413111D01*
X91033319Y-63467955D01*
X90936500Y-63487213D01*
X90839681Y-63467955D01*
X90757602Y-63413111D01*
X90435328Y-63090837D01*
X90094887Y-62750397D01*
X90040045Y-62668319D01*
X90020786Y-62571500D01*
X90040044Y-62474681D01*
X90094888Y-62392602D01*
X90176967Y-62337759D01*
X90273786Y-62318500D01*
X90936500Y-62318500D01*
X91033319Y-62337758D01*
G37*
%TD.AperFunction*%
%TA.AperFunction,NonConductor*%
G36*
X87008527Y-62571873D02*
G01*
X87093364Y-62622345D01*
X87102975Y-62631465D01*
X88086774Y-63615264D01*
X88141618Y-63697343D01*
X88160876Y-63794162D01*
X88141618Y-63890981D01*
X88095892Y-63963452D01*
X88051631Y-64012608D01*
X87972894Y-64148985D01*
X87907806Y-64223204D01*
X87819271Y-64266864D01*
X87720766Y-64273320D01*
X87627290Y-64241589D01*
X87553071Y-64176501D01*
X87534686Y-64148985D01*
X87456466Y-64013505D01*
X87335715Y-63879397D01*
X87335711Y-63879394D01*
X87189716Y-63773322D01*
X87024852Y-63699920D01*
X87012728Y-63697343D01*
X86848332Y-63662400D01*
X86667868Y-63662400D01*
X86656776Y-63662400D01*
X86559957Y-63643142D01*
X86477878Y-63588298D01*
X86423034Y-63506219D01*
X86405162Y-63435847D01*
X86391882Y-63309504D01*
X86332020Y-63125267D01*
X86333241Y-63124869D01*
X86314470Y-63041905D01*
X86331188Y-62944616D01*
X86383865Y-62861129D01*
X86464479Y-62804158D01*
X86474991Y-62799478D01*
X86588415Y-62748978D01*
X86734413Y-62642904D01*
X86736059Y-62641076D01*
X86738311Y-62639393D01*
X86744263Y-62634035D01*
X86744755Y-62634581D01*
X86815154Y-62582011D01*
X86910832Y-62557710D01*
X87008527Y-62571873D01*
G37*
%TD.AperFunction*%
%TA.AperFunction,NonConductor*%
G36*
X84831898Y-61563958D02*
G01*
X84913977Y-61618802D01*
X84968821Y-61700881D01*
X84988079Y-61797700D01*
X84968821Y-61894519D01*
X84920031Y-61967536D01*
X84921259Y-61968642D01*
X84791636Y-62112602D01*
X84701399Y-62268896D01*
X84645635Y-62440521D01*
X84626771Y-62620000D01*
X84645635Y-62799478D01*
X84701400Y-62971105D01*
X84716558Y-62997360D01*
X84748289Y-63090837D01*
X84741832Y-63189342D01*
X84738071Y-63202038D01*
X84703153Y-63309506D01*
X84684289Y-63488984D01*
X84703153Y-63668462D01*
X84758917Y-63840087D01*
X84758918Y-63840089D01*
X84758919Y-63840091D01*
X84849151Y-63996377D01*
X84854637Y-64002470D01*
X84886504Y-64037862D01*
X84936976Y-64122699D01*
X84951141Y-64220393D01*
X84950102Y-64233595D01*
X84943057Y-64300629D01*
X84943057Y-64300634D01*
X84961921Y-64480112D01*
X85017685Y-64651737D01*
X85017686Y-64651739D01*
X85017687Y-64651741D01*
X85107919Y-64808027D01*
X85107920Y-64808029D01*
X85107922Y-64808031D01*
X85228670Y-64942136D01*
X85228674Y-64942139D01*
X85374669Y-65048211D01*
X85374670Y-65048211D01*
X85374671Y-65048212D01*
X85539534Y-65121614D01*
X85716054Y-65159134D01*
X85716057Y-65159134D01*
X85896515Y-65159134D01*
X85896518Y-65159134D01*
X85947173Y-65148366D01*
X86045877Y-65147074D01*
X86137565Y-65183653D01*
X86208276Y-65252536D01*
X86247244Y-65343234D01*
X86248537Y-65441942D01*
X86211958Y-65533630D01*
X86143075Y-65604341D01*
X86102681Y-65626963D01*
X86055391Y-65648018D01*
X86055384Y-65648022D01*
X85909389Y-65754094D01*
X85909381Y-65754101D01*
X85788636Y-65888202D01*
X85698399Y-66044496D01*
X85642635Y-66216121D01*
X85623771Y-66395600D01*
X85642635Y-66575078D01*
X85698399Y-66746703D01*
X85698400Y-66746705D01*
X85698401Y-66746707D01*
X85788633Y-66902993D01*
X85788634Y-66902995D01*
X85788636Y-66902997D01*
X85909384Y-67037102D01*
X85909388Y-67037105D01*
X86055383Y-67143177D01*
X86055384Y-67143177D01*
X86055385Y-67143178D01*
X86220248Y-67216580D01*
X86364916Y-67247329D01*
X86455612Y-67286295D01*
X86524495Y-67357004D01*
X86561076Y-67448692D01*
X86559785Y-67547399D01*
X86552931Y-67572979D01*
X86531635Y-67638522D01*
X86512771Y-67818000D01*
X86531635Y-67997475D01*
X86533256Y-68005102D01*
X86534545Y-68103809D01*
X86497963Y-68195496D01*
X86429079Y-68266205D01*
X86338378Y-68305170D01*
X86239671Y-68306459D01*
X86147984Y-68269877D01*
X86106885Y-68236595D01*
X85187435Y-67317145D01*
X85176513Y-67304691D01*
X85158032Y-67280606D01*
X85158031Y-67280605D01*
X85113964Y-67246792D01*
X85078538Y-67219609D01*
X85035893Y-67186886D01*
X85035889Y-67186884D01*
X85035890Y-67186884D01*
X84975510Y-67161875D01*
X84951600Y-67151971D01*
X84893657Y-67127970D01*
X84893655Y-67127969D01*
X84878338Y-67121625D01*
X84879026Y-67119961D01*
X84808645Y-67085251D01*
X84743559Y-67011031D01*
X84711830Y-66917553D01*
X84711259Y-66908850D01*
X84711052Y-66908872D01*
X84707652Y-66876525D01*
X84690802Y-66716210D01*
X84678559Y-66678531D01*
X84635037Y-66544581D01*
X84635036Y-66544579D01*
X84635036Y-66544578D01*
X84544804Y-66388292D01*
X84544800Y-66388288D01*
X84544800Y-66388287D01*
X84424052Y-66254182D01*
X84424048Y-66254179D01*
X84278053Y-66148107D01*
X84113189Y-66074705D01*
X83936669Y-66037185D01*
X83756205Y-66037185D01*
X83623815Y-66065325D01*
X83579684Y-66074705D01*
X83414822Y-66148107D01*
X83414821Y-66148107D01*
X83268826Y-66254179D01*
X83268818Y-66254186D01*
X83148073Y-66388287D01*
X83057837Y-66544579D01*
X83042299Y-66592402D01*
X82994064Y-66678531D01*
X82916540Y-66739644D01*
X82821530Y-66766439D01*
X82723499Y-66754836D01*
X82637370Y-66706601D01*
X82613667Y-66683509D01*
X82580925Y-66647145D01*
X82580921Y-66647142D01*
X82434926Y-66541070D01*
X82270062Y-66467668D01*
X82262229Y-66466003D01*
X82093542Y-66430148D01*
X81913078Y-66430148D01*
X81836100Y-66446510D01*
X81737393Y-66447801D01*
X81645705Y-66411221D01*
X81574995Y-66342337D01*
X81536028Y-66251638D01*
X81530500Y-66199038D01*
X81530500Y-65452826D01*
X81549758Y-65356007D01*
X81604602Y-65273928D01*
X81686681Y-65219084D01*
X81783500Y-65199826D01*
X81880319Y-65219084D01*
X81962398Y-65273928D01*
X81971518Y-65283539D01*
X81972388Y-65284505D01*
X82118383Y-65390577D01*
X82118384Y-65390577D01*
X82118385Y-65390578D01*
X82283248Y-65463980D01*
X82459768Y-65501500D01*
X82459771Y-65501500D01*
X82640229Y-65501500D01*
X82640232Y-65501500D01*
X82816752Y-65463980D01*
X82981615Y-65390578D01*
X83127613Y-65284504D01*
X83248367Y-65150393D01*
X83338599Y-64994107D01*
X83394365Y-64822475D01*
X83413229Y-64643000D01*
X83394365Y-64463525D01*
X83358385Y-64352790D01*
X83338600Y-64291896D01*
X83338599Y-64291895D01*
X83338599Y-64291893D01*
X83248367Y-64135607D01*
X83248363Y-64135603D01*
X83248363Y-64135602D01*
X83127615Y-64001497D01*
X83127611Y-64001494D01*
X82981616Y-63895422D01*
X82816752Y-63822020D01*
X82640232Y-63784500D01*
X82459768Y-63784500D01*
X82327378Y-63812640D01*
X82283247Y-63822020D01*
X82118385Y-63895422D01*
X82118384Y-63895422D01*
X81972389Y-64001494D01*
X81972379Y-64001503D01*
X81971509Y-64002470D01*
X81970319Y-64003358D01*
X81962533Y-64010369D01*
X81961888Y-64009653D01*
X81892411Y-64061531D01*
X81796732Y-64085827D01*
X81699038Y-64071658D01*
X81614203Y-64021182D01*
X81555142Y-63942084D01*
X81530846Y-63846405D01*
X81530500Y-63833173D01*
X81530500Y-62571500D01*
X81549758Y-62474681D01*
X81604602Y-62392602D01*
X81686681Y-62337758D01*
X81783500Y-62318500D01*
X83448635Y-62318500D01*
X83448638Y-62318500D01*
X83471479Y-62316044D01*
X83509196Y-62311990D01*
X83509197Y-62311989D01*
X83509201Y-62311989D01*
X83646204Y-62260889D01*
X83763261Y-62173261D01*
X83850889Y-62056204D01*
X83901989Y-61919201D01*
X83908500Y-61858638D01*
X83908500Y-61797700D01*
X83927758Y-61700881D01*
X83982602Y-61618802D01*
X84064681Y-61563958D01*
X84161500Y-61544700D01*
X84735079Y-61544700D01*
X84831898Y-61563958D01*
G37*
%TD.AperFunction*%
%TA.AperFunction,NonConductor*%
G36*
X91074294Y-73894203D02*
G01*
X91145004Y-73963086D01*
X91183972Y-74053785D01*
X91189500Y-74106386D01*
X91189500Y-74588500D01*
X91170242Y-74685319D01*
X91115398Y-74767398D01*
X91033319Y-74822242D01*
X90936500Y-74841500D01*
X90430696Y-74841500D01*
X90333877Y-74822242D01*
X90251798Y-74767398D01*
X90196954Y-74685319D01*
X90177696Y-74588500D01*
X90196954Y-74491681D01*
X90229978Y-74434482D01*
X90231411Y-74432614D01*
X90231413Y-74432613D01*
X90254943Y-74401948D01*
X90325134Y-74310473D01*
X90384050Y-74168237D01*
X90387752Y-74140112D01*
X90392577Y-74103475D01*
X90424308Y-74009999D01*
X90489397Y-73935781D01*
X90577932Y-73892120D01*
X90643412Y-73883500D01*
X90768229Y-73883500D01*
X90768232Y-73883500D01*
X90883901Y-73858913D01*
X90982606Y-73857623D01*
X91074294Y-73894203D01*
G37*
%TD.AperFunction*%
%TA.AperFunction,NonConductor*%
G36*
X82819855Y-72048831D02*
G01*
X82866562Y-72085652D01*
X83211998Y-72431088D01*
X83266842Y-72513167D01*
X83286100Y-72609986D01*
X83286100Y-74588500D01*
X83266842Y-74685319D01*
X83211998Y-74767398D01*
X83129919Y-74822242D01*
X83033100Y-74841500D01*
X81783500Y-74841500D01*
X81686681Y-74822242D01*
X81604602Y-74767398D01*
X81549758Y-74685319D01*
X81530500Y-74588500D01*
X81530500Y-72467195D01*
X81549758Y-72370376D01*
X81604602Y-72288297D01*
X81686681Y-72233453D01*
X81783500Y-72214195D01*
X81836101Y-72219724D01*
X81924028Y-72238413D01*
X81924033Y-72238414D01*
X81924035Y-72238414D01*
X82104494Y-72238414D01*
X82104497Y-72238414D01*
X82281017Y-72200894D01*
X82445880Y-72127492D01*
X82538954Y-72059869D01*
X82628601Y-72018541D01*
X82727240Y-72014665D01*
X82819855Y-72048831D01*
G37*
%TD.AperFunction*%
%TA.AperFunction,NonConductor*%
G36*
X83662319Y-79516383D02*
G01*
X83668406Y-79518999D01*
X83688831Y-79528092D01*
X83705648Y-79535580D01*
X83882168Y-79573100D01*
X83882171Y-79573100D01*
X83895137Y-79575856D01*
X83894480Y-79578945D01*
X83966584Y-79601320D01*
X84042491Y-79664430D01*
X84088469Y-79751784D01*
X84098900Y-79823681D01*
X84098900Y-83850433D01*
X84079642Y-83947252D01*
X84024798Y-84029331D01*
X83942719Y-84084175D01*
X83845900Y-84103433D01*
X83752868Y-84103433D01*
X83687623Y-84117300D01*
X83618100Y-84132078D01*
X83519392Y-84133369D01*
X83427705Y-84096789D01*
X83356995Y-84027905D01*
X83318028Y-83937206D01*
X83312500Y-83884606D01*
X83312500Y-79750125D01*
X83331758Y-79653306D01*
X83386602Y-79571227D01*
X83468681Y-79516383D01*
X83565500Y-79497125D01*
X83662319Y-79516383D01*
G37*
%TD.AperFunction*%
%TA.AperFunction,NonConductor*%
G36*
X81836096Y-79065913D02*
G01*
X81942702Y-79088573D01*
X82033400Y-79127539D01*
X82102283Y-79198249D01*
X82138863Y-79289937D01*
X82143100Y-79336044D01*
X82143100Y-86110183D01*
X82142015Y-86126714D01*
X82138055Y-86156800D01*
X82142584Y-86191203D01*
X82142588Y-86191243D01*
X82158148Y-86309430D01*
X82158151Y-86309441D01*
X82199810Y-86410013D01*
X82217066Y-86451673D01*
X82217065Y-86451673D01*
X82251222Y-86496186D01*
X82310786Y-86573812D01*
X82334871Y-86592293D01*
X82347325Y-86603215D01*
X82446114Y-86702004D01*
X82500958Y-86784083D01*
X82520216Y-86880902D01*
X82500958Y-86977721D01*
X82446114Y-87059800D01*
X82383122Y-87103098D01*
X82383869Y-87104392D01*
X82372384Y-87111022D01*
X82226389Y-87217094D01*
X82226381Y-87217101D01*
X82105636Y-87351202D01*
X82015397Y-87507500D01*
X82014626Y-87509233D01*
X82013375Y-87511001D01*
X82008772Y-87518976D01*
X82008039Y-87518552D01*
X81957652Y-87589848D01*
X81874165Y-87642524D01*
X81776875Y-87659240D01*
X81680594Y-87637453D01*
X81599979Y-87580479D01*
X81547303Y-87496992D01*
X81530500Y-87406327D01*
X81530500Y-79313386D01*
X81549758Y-79216567D01*
X81604602Y-79134488D01*
X81686681Y-79079644D01*
X81783500Y-79060386D01*
X81836096Y-79065913D01*
G37*
%TD.AperFunction*%
%TA.AperFunction,NonConductor*%
G36*
X91033319Y-77577758D02*
G01*
X91115398Y-77632602D01*
X91170242Y-77714681D01*
X91189500Y-77811500D01*
X91189500Y-89828500D01*
X91170242Y-89925319D01*
X91115398Y-90007398D01*
X91033319Y-90062242D01*
X90936500Y-90081500D01*
X89813900Y-90081500D01*
X89717081Y-90062242D01*
X89635002Y-90007398D01*
X89580158Y-89925319D01*
X89560900Y-89828500D01*
X89560900Y-77811500D01*
X89580158Y-77714681D01*
X89635002Y-77632602D01*
X89717081Y-77577758D01*
X89813900Y-77558500D01*
X90936500Y-77558500D01*
X91033319Y-77577758D01*
G37*
%TD.AperFunction*%
%TA.AperFunction,NonConductor*%
G36*
X81880319Y-88077130D02*
G01*
X81962398Y-88131974D01*
X82008168Y-88198572D01*
X82008772Y-88198224D01*
X82013197Y-88205888D01*
X82014629Y-88207972D01*
X82015400Y-88209704D01*
X82015401Y-88209707D01*
X82105633Y-88365993D01*
X82105634Y-88365995D01*
X82105636Y-88365997D01*
X82226384Y-88500102D01*
X82226388Y-88500105D01*
X82372383Y-88606177D01*
X82372384Y-88606177D01*
X82372385Y-88606178D01*
X82537248Y-88679580D01*
X82713768Y-88717100D01*
X82713771Y-88717100D01*
X82829900Y-88717100D01*
X82926719Y-88736358D01*
X83008798Y-88791202D01*
X83063642Y-88873281D01*
X83082900Y-88970100D01*
X83082900Y-89828500D01*
X83063642Y-89925319D01*
X83008798Y-90007398D01*
X82926719Y-90062242D01*
X82829900Y-90081500D01*
X81783500Y-90081500D01*
X81686681Y-90062242D01*
X81604602Y-90007398D01*
X81549758Y-89925319D01*
X81530500Y-89828500D01*
X81530500Y-88310872D01*
X81549758Y-88214053D01*
X81604602Y-88131974D01*
X81686681Y-88077130D01*
X81783500Y-88057872D01*
X81880319Y-88077130D01*
G37*
%TD.AperFunction*%
%TA.AperFunction,NonConductor*%
G36*
X82926719Y-92817758D02*
G01*
X83008798Y-92872602D01*
X83063642Y-92954681D01*
X83082900Y-93051500D01*
X83082900Y-94554162D01*
X83063642Y-94650981D01*
X83008798Y-94733060D01*
X82926719Y-94787904D01*
X82829900Y-94807162D01*
X82777300Y-94801634D01*
X82712703Y-94787904D01*
X82640232Y-94772500D01*
X82459768Y-94772500D01*
X82327378Y-94800640D01*
X82283247Y-94810020D01*
X82118385Y-94883422D01*
X82118384Y-94883422D01*
X81972389Y-94989494D01*
X81972379Y-94989503D01*
X81971509Y-94990470D01*
X81970319Y-94991358D01*
X81962533Y-94998369D01*
X81961888Y-94997653D01*
X81892411Y-95049531D01*
X81796732Y-95073827D01*
X81699038Y-95059658D01*
X81614203Y-95009182D01*
X81555142Y-94930084D01*
X81530846Y-94834405D01*
X81530500Y-94821173D01*
X81530500Y-93051500D01*
X81549758Y-92954681D01*
X81604602Y-92872602D01*
X81686681Y-92817758D01*
X81783500Y-92798500D01*
X82829900Y-92798500D01*
X82926719Y-92817758D01*
G37*
%TD.AperFunction*%
%TA.AperFunction,NonConductor*%
G36*
X82962091Y-97135691D02*
G01*
X83034581Y-97202699D01*
X83075909Y-97292346D01*
X83082900Y-97351409D01*
X83082900Y-100517551D01*
X83063642Y-100614370D01*
X83008798Y-100696449D01*
X82926719Y-100751293D01*
X82882504Y-100765022D01*
X82843609Y-100773289D01*
X82816647Y-100779020D01*
X82665605Y-100846269D01*
X82569323Y-100868055D01*
X82472033Y-100851338D01*
X82459795Y-100846269D01*
X82308752Y-100779020D01*
X82132232Y-100741500D01*
X81951768Y-100741500D01*
X81951767Y-100741500D01*
X81836099Y-100766085D01*
X81737392Y-100767376D01*
X81645704Y-100730795D01*
X81574995Y-100661912D01*
X81536028Y-100571212D01*
X81530500Y-100518613D01*
X81530500Y-97559522D01*
X81549758Y-97462703D01*
X81604602Y-97380624D01*
X81686681Y-97325780D01*
X81783500Y-97306522D01*
X81837981Y-97315158D01*
X81838478Y-97312823D01*
X81851447Y-97315579D01*
X81851448Y-97315580D01*
X82027968Y-97353100D01*
X82027971Y-97353100D01*
X82208429Y-97353100D01*
X82208432Y-97353100D01*
X82384952Y-97315580D01*
X82549815Y-97242178D01*
X82681190Y-97146727D01*
X82770837Y-97105400D01*
X82869477Y-97101524D01*
X82962091Y-97135691D01*
G37*
%TD.AperFunction*%
%TA.AperFunction,NonConductor*%
G36*
X91033319Y-92817758D02*
G01*
X91115398Y-92872602D01*
X91170242Y-92954681D01*
X91189500Y-93051500D01*
X91189500Y-105068500D01*
X91170242Y-105165319D01*
X91115398Y-105247398D01*
X91033319Y-105302242D01*
X90936500Y-105321500D01*
X89813900Y-105321500D01*
X89717081Y-105302242D01*
X89635002Y-105247398D01*
X89580158Y-105165319D01*
X89560900Y-105068500D01*
X89560900Y-93051500D01*
X89580158Y-92954681D01*
X89635002Y-92872602D01*
X89717081Y-92817758D01*
X89813900Y-92798500D01*
X90936500Y-92798500D01*
X91033319Y-92817758D01*
G37*
%TD.AperFunction*%
%TA.AperFunction,NonConductor*%
G36*
X82653367Y-102348662D02*
G01*
X82665602Y-102353729D01*
X82816648Y-102420980D01*
X82882501Y-102434977D01*
X82973197Y-102473942D01*
X83042081Y-102544651D01*
X83078663Y-102636338D01*
X83082900Y-102682448D01*
X83082900Y-105068500D01*
X83063642Y-105165319D01*
X83008798Y-105247398D01*
X82926719Y-105302242D01*
X82829900Y-105321500D01*
X81783500Y-105321500D01*
X81686681Y-105302242D01*
X81604602Y-105247398D01*
X81549758Y-105165319D01*
X81530500Y-105068500D01*
X81530500Y-102681386D01*
X81549758Y-102584567D01*
X81604602Y-102502488D01*
X81686681Y-102447644D01*
X81783500Y-102428386D01*
X81836095Y-102433913D01*
X81951768Y-102458500D01*
X81951771Y-102458500D01*
X82132229Y-102458500D01*
X82132232Y-102458500D01*
X82308752Y-102420980D01*
X82459795Y-102353730D01*
X82556077Y-102331945D01*
X82653367Y-102348662D01*
G37*
%TD.AperFunction*%
%TA.AperFunction,NonConductor*%
G36*
X91033319Y-108057758D02*
G01*
X91115398Y-108112602D01*
X91170242Y-108194681D01*
X91189500Y-108291500D01*
X91189500Y-120308500D01*
X91170242Y-120405319D01*
X91115398Y-120487398D01*
X91033319Y-120542242D01*
X90936500Y-120561500D01*
X89813900Y-120561500D01*
X89717081Y-120542242D01*
X89635002Y-120487398D01*
X89580158Y-120405319D01*
X89560900Y-120308500D01*
X89560900Y-108291500D01*
X89580158Y-108194681D01*
X89635002Y-108112602D01*
X89717081Y-108057758D01*
X89813900Y-108038500D01*
X90936500Y-108038500D01*
X91033319Y-108057758D01*
G37*
%TD.AperFunction*%
%TA.AperFunction,NonConductor*%
G36*
X82926719Y-108057758D02*
G01*
X83008798Y-108112602D01*
X83063642Y-108194681D01*
X83082900Y-108291500D01*
X83082900Y-120308500D01*
X83063642Y-120405319D01*
X83008798Y-120487398D01*
X82926719Y-120542242D01*
X82829900Y-120561500D01*
X81783500Y-120561500D01*
X81686681Y-120542242D01*
X81604602Y-120487398D01*
X81549758Y-120405319D01*
X81530500Y-120308500D01*
X81530500Y-108291500D01*
X81549758Y-108194681D01*
X81604602Y-108112602D01*
X81686681Y-108057758D01*
X81783500Y-108038500D01*
X82829900Y-108038500D01*
X82926719Y-108057758D01*
G37*
%TD.AperFunction*%
%TA.AperFunction,NonConductor*%
G36*
X82926719Y-123297758D02*
G01*
X83008798Y-123352602D01*
X83063642Y-123434681D01*
X83082900Y-123531500D01*
X83082900Y-130966752D01*
X83063642Y-131063571D01*
X83008798Y-131145650D01*
X82926719Y-131200494D01*
X82882501Y-131214223D01*
X82791255Y-131233617D01*
X82791248Y-131233619D01*
X82640205Y-131300869D01*
X82543923Y-131322655D01*
X82446633Y-131305938D01*
X82434395Y-131300869D01*
X82283352Y-131233620D01*
X82283338Y-131233617D01*
X82106832Y-131196100D01*
X81926368Y-131196100D01*
X81926364Y-131196100D01*
X81836098Y-131215286D01*
X81737391Y-131216577D01*
X81645703Y-131179996D01*
X81574994Y-131111112D01*
X81536028Y-131020412D01*
X81530500Y-130967814D01*
X81530500Y-123531500D01*
X81549758Y-123434681D01*
X81604602Y-123352602D01*
X81686681Y-123297758D01*
X81783500Y-123278500D01*
X82829900Y-123278500D01*
X82926719Y-123297758D01*
G37*
%TD.AperFunction*%
%TA.AperFunction,NonConductor*%
G36*
X91033319Y-123297758D02*
G01*
X91115398Y-123352602D01*
X91170242Y-123434681D01*
X91189500Y-123531500D01*
X91189500Y-135548500D01*
X91170242Y-135645319D01*
X91115398Y-135727398D01*
X91033319Y-135782242D01*
X90936500Y-135801500D01*
X89813900Y-135801500D01*
X89717081Y-135782242D01*
X89635002Y-135727398D01*
X89580158Y-135645319D01*
X89560900Y-135548500D01*
X89560900Y-123531500D01*
X89580158Y-123434681D01*
X89635002Y-123352602D01*
X89717081Y-123297758D01*
X89813900Y-123278500D01*
X90936500Y-123278500D01*
X91033319Y-123297758D01*
G37*
%TD.AperFunction*%
%TA.AperFunction,NonConductor*%
G36*
X82627967Y-132803262D02*
G01*
X82640202Y-132808329D01*
X82791248Y-132875580D01*
X82882502Y-132894976D01*
X82973198Y-132933941D01*
X83042082Y-133004651D01*
X83078663Y-133096338D01*
X83082900Y-133142447D01*
X83082900Y-135548500D01*
X83063642Y-135645319D01*
X83008798Y-135727398D01*
X82926719Y-135782242D01*
X82829900Y-135801500D01*
X81783500Y-135801500D01*
X81686681Y-135782242D01*
X81604602Y-135727398D01*
X81549758Y-135645319D01*
X81530500Y-135548500D01*
X81530500Y-133141385D01*
X81549758Y-133044566D01*
X81604602Y-132962487D01*
X81686681Y-132907643D01*
X81783500Y-132888385D01*
X81836097Y-132893912D01*
X81926368Y-132913100D01*
X81926371Y-132913100D01*
X82106829Y-132913100D01*
X82106832Y-132913100D01*
X82283352Y-132875580D01*
X82434395Y-132808330D01*
X82530677Y-132786545D01*
X82627967Y-132803262D01*
G37*
%TD.AperFunction*%
%TA.AperFunction,NonConductor*%
G36*
X88640719Y-136484844D02*
G01*
X88722798Y-136539688D01*
X88737398Y-136554288D01*
X88792242Y-136636367D01*
X88811500Y-136733186D01*
X88811500Y-138058634D01*
X88811501Y-138058654D01*
X88818009Y-138119196D01*
X88818011Y-138119201D01*
X88869111Y-138256204D01*
X88869112Y-138256205D01*
X88869113Y-138256208D01*
X88956737Y-138373259D01*
X88956740Y-138373262D01*
X89073791Y-138460886D01*
X89073792Y-138460886D01*
X89073796Y-138460889D01*
X89210799Y-138511989D01*
X89210802Y-138511989D01*
X89210804Y-138511990D01*
X89210802Y-138511990D01*
X89259065Y-138517178D01*
X89271362Y-138518500D01*
X89271365Y-138518500D01*
X90936500Y-138518500D01*
X91033319Y-138537758D01*
X91115398Y-138592602D01*
X91170242Y-138674681D01*
X91189500Y-138771500D01*
X91189500Y-150788500D01*
X91170242Y-150885319D01*
X91115398Y-150967398D01*
X91033319Y-151022242D01*
X90936500Y-151041500D01*
X89743187Y-151041500D01*
X89646368Y-151022242D01*
X89564289Y-150967398D01*
X88365002Y-149768111D01*
X88310158Y-149686032D01*
X88290900Y-149589213D01*
X88290900Y-136718586D01*
X88310158Y-136621767D01*
X88365002Y-136539688D01*
X88447081Y-136484844D01*
X88543900Y-136465586D01*
X88640719Y-136484844D01*
G37*
%TD.AperFunction*%
%TA.AperFunction,NonConductor*%
G36*
X83974996Y-138409849D02*
G01*
X84048435Y-138475814D01*
X84091040Y-138564863D01*
X84098900Y-138627434D01*
X84098900Y-149919414D01*
X84079642Y-150016233D01*
X84024798Y-150098312D01*
X83155712Y-150967398D01*
X83073633Y-151022242D01*
X82976814Y-151041500D01*
X81783500Y-151041500D01*
X81686681Y-151022242D01*
X81604602Y-150967398D01*
X81549758Y-150885319D01*
X81530500Y-150788500D01*
X81530500Y-138771500D01*
X81549758Y-138674681D01*
X81604602Y-138592602D01*
X81686681Y-138537758D01*
X81783500Y-138518500D01*
X83448635Y-138518500D01*
X83448638Y-138518500D01*
X83471479Y-138516044D01*
X83509196Y-138511990D01*
X83509197Y-138511989D01*
X83509201Y-138511989D01*
X83646204Y-138460889D01*
X83694282Y-138424897D01*
X83783329Y-138382294D01*
X83881903Y-138377009D01*
X83974996Y-138409849D01*
G37*
%TD.AperFunction*%
%TA.AperFunction,NonConductor*%
G36*
X87878719Y-150962844D02*
G01*
X87960798Y-151017688D01*
X88737398Y-151794288D01*
X88792242Y-151876367D01*
X88811500Y-151973186D01*
X88811500Y-153298634D01*
X88811501Y-153298654D01*
X88818009Y-153359196D01*
X88818011Y-153359201D01*
X88869111Y-153496204D01*
X88869112Y-153496205D01*
X88869113Y-153496208D01*
X88956737Y-153613259D01*
X88956740Y-153613262D01*
X89073791Y-153700886D01*
X89073792Y-153700886D01*
X89073796Y-153700889D01*
X89210799Y-153751989D01*
X89210802Y-153751989D01*
X89210804Y-153751990D01*
X89210802Y-153751990D01*
X89259065Y-153757178D01*
X89271362Y-153758500D01*
X89271365Y-153758500D01*
X90936500Y-153758500D01*
X91033319Y-153777758D01*
X91115398Y-153832602D01*
X91170242Y-153914681D01*
X91189500Y-154011500D01*
X91189500Y-166028500D01*
X91170242Y-166125319D01*
X91115398Y-166207398D01*
X91033319Y-166262242D01*
X90936500Y-166281500D01*
X89743186Y-166281500D01*
X89646367Y-166262242D01*
X89564288Y-166207398D01*
X87603002Y-164246112D01*
X87548158Y-164164033D01*
X87528900Y-164067214D01*
X87528900Y-151196586D01*
X87548158Y-151099767D01*
X87603002Y-151017688D01*
X87685081Y-150962844D01*
X87781900Y-150943586D01*
X87878719Y-150962844D01*
G37*
%TD.AperFunction*%
%TA.AperFunction,NonConductor*%
G36*
X85034919Y-150962843D02*
G01*
X85116998Y-151017687D01*
X85171842Y-151099766D01*
X85191100Y-151196585D01*
X85191100Y-164067214D01*
X85171842Y-164164033D01*
X85116998Y-164246112D01*
X83155712Y-166207398D01*
X83073633Y-166262242D01*
X82976814Y-166281500D01*
X81783500Y-166281500D01*
X81686681Y-166262242D01*
X81604602Y-166207398D01*
X81549758Y-166125319D01*
X81530500Y-166028500D01*
X81530500Y-163615986D01*
X81549758Y-163519167D01*
X81604602Y-163437088D01*
X81686681Y-163382244D01*
X81783500Y-163362986D01*
X81836095Y-163368513D01*
X81951768Y-163393100D01*
X81951771Y-163393100D01*
X82132229Y-163393100D01*
X82132232Y-163393100D01*
X82308752Y-163355580D01*
X82459795Y-163288330D01*
X82556077Y-163266545D01*
X82653367Y-163283262D01*
X82665602Y-163288329D01*
X82816648Y-163355580D01*
X82993168Y-163393100D01*
X82993171Y-163393100D01*
X83173629Y-163393100D01*
X83173632Y-163393100D01*
X83350152Y-163355580D01*
X83515015Y-163282178D01*
X83661013Y-163176104D01*
X83781767Y-163041993D01*
X83871999Y-162885707D01*
X83927765Y-162714075D01*
X83946629Y-162534600D01*
X83927765Y-162355125D01*
X83871999Y-162183493D01*
X83781767Y-162027207D01*
X83781763Y-162027203D01*
X83781763Y-162027202D01*
X83661015Y-161893097D01*
X83661011Y-161893094D01*
X83515016Y-161787022D01*
X83350152Y-161713620D01*
X83173632Y-161676100D01*
X82993168Y-161676100D01*
X82860778Y-161704240D01*
X82816647Y-161713620D01*
X82665605Y-161780869D01*
X82569323Y-161802655D01*
X82472033Y-161785938D01*
X82459795Y-161780869D01*
X82308752Y-161713620D01*
X82132232Y-161676100D01*
X81951768Y-161676100D01*
X81951767Y-161676100D01*
X81836099Y-161700685D01*
X81737392Y-161701976D01*
X81645704Y-161665395D01*
X81574995Y-161596512D01*
X81536028Y-161505812D01*
X81530500Y-161453213D01*
X81530500Y-154011500D01*
X81549758Y-153914681D01*
X81604602Y-153832602D01*
X81686681Y-153777758D01*
X81783500Y-153758500D01*
X83448635Y-153758500D01*
X83448638Y-153758500D01*
X83471479Y-153756044D01*
X83509196Y-153751990D01*
X83509197Y-153751989D01*
X83509201Y-153751989D01*
X83646204Y-153700889D01*
X83763261Y-153613261D01*
X83850889Y-153496204D01*
X83901989Y-153359201D01*
X83908500Y-153298638D01*
X83908500Y-151973185D01*
X83927758Y-151876366D01*
X83982600Y-151794289D01*
X84759202Y-151017686D01*
X84841281Y-150962843D01*
X84938100Y-150943585D01*
X85034919Y-150962843D01*
G37*
%TD.AperFunction*%
%TA.AperFunction,NonConductor*%
G36*
X85758773Y-165478988D02*
G01*
X85810664Y-165508049D01*
X85928383Y-165593577D01*
X85928384Y-165593577D01*
X85928385Y-165593578D01*
X86093248Y-165666980D01*
X86269768Y-165704500D01*
X86269771Y-165704500D01*
X86450229Y-165704500D01*
X86450232Y-165704500D01*
X86626752Y-165666980D01*
X86791615Y-165593578D01*
X86909335Y-165508048D01*
X86998980Y-165466721D01*
X87097620Y-165462845D01*
X87190234Y-165497011D01*
X87236942Y-165533832D01*
X88737398Y-167034288D01*
X88792242Y-167116367D01*
X88811500Y-167213186D01*
X88811500Y-168538634D01*
X88811501Y-168538654D01*
X88818009Y-168599196D01*
X88818011Y-168599201D01*
X88869111Y-168736204D01*
X88869112Y-168736205D01*
X88869113Y-168736208D01*
X88956737Y-168853259D01*
X88956740Y-168853262D01*
X89073791Y-168940886D01*
X89073792Y-168940886D01*
X89073796Y-168940889D01*
X89210799Y-168991989D01*
X89210802Y-168991989D01*
X89210804Y-168991990D01*
X89210802Y-168991990D01*
X89259065Y-168997178D01*
X89271362Y-168998500D01*
X89271365Y-168998500D01*
X90936500Y-168998500D01*
X91033319Y-169017758D01*
X91115398Y-169072602D01*
X91170242Y-169154681D01*
X91189500Y-169251500D01*
X91189500Y-173648500D01*
X91170242Y-173745319D01*
X91115398Y-173827398D01*
X91033319Y-173882242D01*
X90936500Y-173901500D01*
X89271362Y-173901500D01*
X89271359Y-173901500D01*
X89271345Y-173901501D01*
X89210803Y-173908009D01*
X89073791Y-173959113D01*
X88956740Y-174046737D01*
X88956737Y-174046740D01*
X88869113Y-174163791D01*
X88818009Y-174300803D01*
X88811501Y-174361345D01*
X88811500Y-174361365D01*
X88811500Y-176158634D01*
X88811501Y-176158654D01*
X88818009Y-176219196D01*
X88818011Y-176219201D01*
X88869111Y-176356204D01*
X88869112Y-176356206D01*
X88869113Y-176356207D01*
X88885714Y-176378384D01*
X88928317Y-176467433D01*
X88933601Y-176566007D01*
X88900759Y-176659100D01*
X88885714Y-176681616D01*
X88869113Y-176703792D01*
X88869113Y-176703793D01*
X88869111Y-176703796D01*
X88843561Y-176772297D01*
X88818009Y-176840803D01*
X88811501Y-176901345D01*
X88811500Y-176901365D01*
X88811500Y-178698634D01*
X88811501Y-178698654D01*
X88818009Y-178759196D01*
X88818011Y-178759201D01*
X88869111Y-178896204D01*
X88869112Y-178896205D01*
X88869113Y-178896208D01*
X88956737Y-179013259D01*
X88956740Y-179013262D01*
X89073791Y-179100886D01*
X89073792Y-179100886D01*
X89073796Y-179100889D01*
X89210799Y-179151989D01*
X89210802Y-179151989D01*
X89210804Y-179151990D01*
X89210802Y-179151990D01*
X89259065Y-179157178D01*
X89271362Y-179158500D01*
X89271365Y-179158500D01*
X90852214Y-179158500D01*
X90949033Y-179177758D01*
X91031112Y-179232602D01*
X91085956Y-179314681D01*
X91105214Y-179411500D01*
X91085956Y-179508319D01*
X91081510Y-179518422D01*
X91062266Y-179559691D01*
X91040215Y-179597885D01*
X90963678Y-179707190D01*
X90935331Y-179740972D01*
X90840972Y-179835331D01*
X90807190Y-179863678D01*
X90697885Y-179940215D01*
X90659691Y-179962266D01*
X90538746Y-180018663D01*
X90497307Y-180033746D01*
X90411946Y-180056618D01*
X90368412Y-180068283D01*
X90324983Y-180075941D01*
X90175508Y-180089018D01*
X90164477Y-180089500D01*
X82555523Y-180089500D01*
X82544493Y-180089018D01*
X82395016Y-180075941D01*
X82351588Y-180068284D01*
X82266222Y-180045410D01*
X82222692Y-180033746D01*
X82181253Y-180018663D01*
X82060308Y-179962266D01*
X82022122Y-179940219D01*
X81912805Y-179863675D01*
X81879027Y-179835331D01*
X81784668Y-179740972D01*
X81756325Y-179707195D01*
X81679777Y-179597874D01*
X81657731Y-179559687D01*
X81638488Y-179518418D01*
X81615027Y-179422530D01*
X81630046Y-179324964D01*
X81681258Y-179240572D01*
X81760868Y-179182202D01*
X81856756Y-179158741D01*
X81867786Y-179158500D01*
X83448635Y-179158500D01*
X83448638Y-179158500D01*
X83471479Y-179156044D01*
X83509196Y-179151990D01*
X83509197Y-179151989D01*
X83509201Y-179151989D01*
X83646204Y-179100889D01*
X83763261Y-179013261D01*
X83850889Y-178896204D01*
X83901989Y-178759201D01*
X83908500Y-178698638D01*
X83908500Y-176901362D01*
X83906986Y-176887287D01*
X83901990Y-176840803D01*
X83901989Y-176840799D01*
X83850889Y-176703796D01*
X83834287Y-176681619D01*
X83791683Y-176592571D01*
X83786398Y-176493997D01*
X83819238Y-176400904D01*
X83834288Y-176378380D01*
X83850889Y-176356204D01*
X83901989Y-176219201D01*
X83908500Y-176158638D01*
X83908500Y-176149000D01*
X85496771Y-176149000D01*
X85515635Y-176328478D01*
X85571399Y-176500103D01*
X85571400Y-176500105D01*
X85571401Y-176500107D01*
X85661633Y-176656393D01*
X85661634Y-176656395D01*
X85661636Y-176656397D01*
X85782384Y-176790502D01*
X85782388Y-176790505D01*
X85928383Y-176896577D01*
X85928384Y-176896577D01*
X85928385Y-176896578D01*
X86093248Y-176969980D01*
X86269768Y-177007500D01*
X86269771Y-177007500D01*
X86450229Y-177007500D01*
X86450232Y-177007500D01*
X86626752Y-176969980D01*
X86791615Y-176896578D01*
X86937613Y-176790504D01*
X87058367Y-176656393D01*
X87148599Y-176500107D01*
X87204365Y-176328475D01*
X87223229Y-176149000D01*
X87204365Y-175969525D01*
X87148599Y-175797893D01*
X87058367Y-175641607D01*
X87058363Y-175641603D01*
X87058363Y-175641602D01*
X86937615Y-175507497D01*
X86937611Y-175507494D01*
X86791616Y-175401422D01*
X86626752Y-175328020D01*
X86450232Y-175290500D01*
X86269768Y-175290500D01*
X86137378Y-175318640D01*
X86093247Y-175328020D01*
X85928385Y-175401422D01*
X85928384Y-175401422D01*
X85782389Y-175507494D01*
X85782381Y-175507501D01*
X85661636Y-175641602D01*
X85571399Y-175797896D01*
X85515635Y-175969521D01*
X85496771Y-176149000D01*
X83908500Y-176149000D01*
X83908500Y-174361362D01*
X83906986Y-174347287D01*
X83901990Y-174300803D01*
X83901989Y-174300799D01*
X83850889Y-174163796D01*
X83850886Y-174163792D01*
X83850886Y-174163791D01*
X83763262Y-174046740D01*
X83763259Y-174046737D01*
X83646208Y-173959113D01*
X83646205Y-173959112D01*
X83646204Y-173959111D01*
X83509201Y-173908011D01*
X83509200Y-173908010D01*
X83509195Y-173908009D01*
X83509197Y-173908009D01*
X83448654Y-173901501D01*
X83448640Y-173901500D01*
X83448638Y-173901500D01*
X81783500Y-173901500D01*
X81686681Y-173882242D01*
X81604602Y-173827398D01*
X81549758Y-173745319D01*
X81530500Y-173648500D01*
X81530500Y-172339000D01*
X85496771Y-172339000D01*
X85515635Y-172518478D01*
X85571399Y-172690103D01*
X85571400Y-172690105D01*
X85571401Y-172690107D01*
X85661633Y-172846393D01*
X85661634Y-172846395D01*
X85661636Y-172846397D01*
X85782384Y-172980502D01*
X85782388Y-172980505D01*
X85928383Y-173086577D01*
X85928384Y-173086577D01*
X85928385Y-173086578D01*
X86093248Y-173159980D01*
X86269768Y-173197500D01*
X86269771Y-173197500D01*
X86450229Y-173197500D01*
X86450232Y-173197500D01*
X86626752Y-173159980D01*
X86791615Y-173086578D01*
X86937613Y-172980504D01*
X87058367Y-172846393D01*
X87148599Y-172690107D01*
X87204365Y-172518475D01*
X87223229Y-172339000D01*
X87204365Y-172159525D01*
X87148599Y-171987893D01*
X87058367Y-171831607D01*
X87058363Y-171831603D01*
X87058363Y-171831602D01*
X86937615Y-171697497D01*
X86937611Y-171697494D01*
X86791616Y-171591422D01*
X86626752Y-171518020D01*
X86450232Y-171480500D01*
X86269768Y-171480500D01*
X86137378Y-171508640D01*
X86093247Y-171518020D01*
X85928385Y-171591422D01*
X85928384Y-171591422D01*
X85782389Y-171697494D01*
X85782381Y-171697501D01*
X85661636Y-171831602D01*
X85571399Y-171987896D01*
X85515635Y-172159521D01*
X85496771Y-172339000D01*
X81530500Y-172339000D01*
X81530500Y-169251500D01*
X81549758Y-169154681D01*
X81604602Y-169072602D01*
X81686681Y-169017758D01*
X81783500Y-168998500D01*
X83448635Y-168998500D01*
X83448638Y-168998500D01*
X83471479Y-168996044D01*
X83509196Y-168991990D01*
X83509197Y-168991989D01*
X83509201Y-168991989D01*
X83646204Y-168940889D01*
X83763261Y-168853261D01*
X83850889Y-168736204D01*
X83880804Y-168656000D01*
X85496771Y-168656000D01*
X85515635Y-168835478D01*
X85571399Y-169007103D01*
X85571400Y-169007105D01*
X85571401Y-169007107D01*
X85661633Y-169163393D01*
X85661634Y-169163395D01*
X85661636Y-169163397D01*
X85782384Y-169297502D01*
X85782388Y-169297505D01*
X85928383Y-169403577D01*
X85928384Y-169403577D01*
X85928385Y-169403578D01*
X86093248Y-169476980D01*
X86269768Y-169514500D01*
X86269771Y-169514500D01*
X86450229Y-169514500D01*
X86450232Y-169514500D01*
X86626752Y-169476980D01*
X86791615Y-169403578D01*
X86937613Y-169297504D01*
X87058367Y-169163393D01*
X87148599Y-169007107D01*
X87204365Y-168835475D01*
X87223229Y-168656000D01*
X87204365Y-168476525D01*
X87148599Y-168304893D01*
X87058367Y-168148607D01*
X87058363Y-168148603D01*
X87058363Y-168148602D01*
X86937615Y-168014497D01*
X86937611Y-168014494D01*
X86791616Y-167908422D01*
X86626752Y-167835020D01*
X86450232Y-167797500D01*
X86269768Y-167797500D01*
X86137378Y-167825640D01*
X86093247Y-167835020D01*
X85928385Y-167908422D01*
X85928384Y-167908422D01*
X85782389Y-168014494D01*
X85782381Y-168014501D01*
X85661636Y-168148602D01*
X85571399Y-168304896D01*
X85515635Y-168476521D01*
X85496771Y-168656000D01*
X83880804Y-168656000D01*
X83901989Y-168599201D01*
X83908500Y-168538638D01*
X83908500Y-167213185D01*
X83927758Y-167116366D01*
X83982600Y-167034289D01*
X85483059Y-165533829D01*
X85565135Y-165478989D01*
X85661954Y-165459730D01*
X85758773Y-165478988D01*
G37*
%TD.AperFunction*%
M02*
