%TF.GenerationSoftware,KiCad,Pcbnew,7.0.9*%
%TF.CreationDate,2024-02-10T14:07:13-07:00*%
%TF.ProjectId,RP2040-Breadstick,52503230-3430-42d4-9272-656164737469,1.0*%
%TF.SameCoordinates,Original*%
%TF.FileFunction,Paste,Top*%
%TF.FilePolarity,Positive*%
%FSLAX46Y46*%
G04 Gerber Fmt 4.6, Leading zero omitted, Abs format (unit mm)*
G04 Created by KiCad (PCBNEW 7.0.9) date 2024-02-10 14:07:13*
%MOMM*%
%LPD*%
G01*
G04 APERTURE LIST*
G04 Aperture macros list*
%AMRoundRect*
0 Rectangle with rounded corners*
0 $1 Rounding radius*
0 $2 $3 $4 $5 $6 $7 $8 $9 X,Y pos of 4 corners*
0 Add a 4 corners polygon primitive as box body*
4,1,4,$2,$3,$4,$5,$6,$7,$8,$9,$2,$3,0*
0 Add four circle primitives for the rounded corners*
1,1,$1+$1,$2,$3*
1,1,$1+$1,$4,$5*
1,1,$1+$1,$6,$7*
1,1,$1+$1,$8,$9*
0 Add four rect primitives between the rounded corners*
20,1,$1+$1,$2,$3,$4,$5,0*
20,1,$1+$1,$4,$5,$6,$7,0*
20,1,$1+$1,$6,$7,$8,$9,0*
20,1,$1+$1,$8,$9,$2,$3,0*%
G04 Aperture macros list end*
%ADD10C,0.010000*%
%ADD11C,0.120000*%
%ADD12R,0.900000X1.000000*%
%ADD13R,1.200000X1.000000*%
%ADD14RoundRect,0.026400X0.193600X-0.493600X0.193600X0.493600X-0.193600X0.493600X-0.193600X-0.493600X0*%
%ADD15RoundRect,0.060000X-0.615000X0.240000X-0.615000X-0.240000X0.615000X-0.240000X0.615000X0.240000X0*%
%ADD16R,0.609600X1.143000*%
%ADD17R,0.304800X1.143000*%
%ADD18RoundRect,0.250000X-0.650000X0.325000X-0.650000X-0.325000X0.650000X-0.325000X0.650000X0.325000X0*%
%ADD19RoundRect,0.200000X-0.275000X0.200000X-0.275000X-0.200000X0.275000X-0.200000X0.275000X0.200000X0*%
%ADD20R,0.700000X0.400000*%
%ADD21RoundRect,0.200000X0.200000X0.275000X-0.200000X0.275000X-0.200000X-0.275000X0.200000X-0.275000X0*%
%ADD22RoundRect,0.200000X0.275000X-0.200000X0.275000X0.200000X-0.275000X0.200000X-0.275000X-0.200000X0*%
%ADD23R,0.500000X0.600000*%
%ADD24RoundRect,0.250000X0.325000X0.650000X-0.325000X0.650000X-0.325000X-0.650000X0.325000X-0.650000X0*%
%ADD25RoundRect,0.225000X-0.250000X0.225000X-0.250000X-0.225000X0.250000X-0.225000X0.250000X0.225000X0*%
%ADD26RoundRect,0.250000X-0.325000X-0.650000X0.325000X-0.650000X0.325000X0.650000X-0.325000X0.650000X0*%
%ADD27RoundRect,0.225000X0.250000X-0.225000X0.250000X0.225000X-0.250000X0.225000X-0.250000X-0.225000X0*%
%ADD28R,0.600000X0.350000*%
%ADD29R,0.350000X0.600000*%
%ADD30R,0.375000X0.300000*%
%ADD31RoundRect,0.150000X-0.150000X0.587500X-0.150000X-0.587500X0.150000X-0.587500X0.150000X0.587500X0*%
%ADD32RoundRect,0.200000X-0.200000X-0.275000X0.200000X-0.275000X0.200000X0.275000X-0.200000X0.275000X0*%
%ADD33RoundRect,0.250000X-0.375000X-0.625000X0.375000X-0.625000X0.375000X0.625000X-0.375000X0.625000X0*%
%ADD34RoundRect,0.006000X-0.414000X-0.094000X0.414000X-0.094000X0.414000X0.094000X-0.414000X0.094000X0*%
%ADD35RoundRect,0.020000X-0.080000X-0.400000X0.080000X-0.400000X0.080000X0.400000X-0.080000X0.400000X0*%
G04 APERTURE END LIST*
D10*
X87720000Y-55944000D02*
X85000000Y-55944000D01*
X85000000Y-53784000D01*
X87720000Y-53784000D01*
X87720000Y-55944000D01*
G36*
X87720000Y-55944000D02*
G01*
X85000000Y-55944000D01*
X85000000Y-53784000D01*
X87720000Y-53784000D01*
X87720000Y-55944000D01*
G37*
D11*
X91389200Y-24409400D02*
X89992200Y-24409400D01*
X89992200Y-24409400D02*
X89992200Y-20396200D01*
X89992200Y-20396200D02*
X91389200Y-20396200D01*
X91389200Y-20396200D02*
X91389200Y-24409400D01*
G36*
X91389200Y-24409400D02*
G01*
X89992200Y-24409400D01*
X89992200Y-20396200D01*
X91389200Y-20396200D01*
X91389200Y-24409400D01*
G37*
X91389200Y-22402800D02*
X89611200Y-22402800D01*
X89611200Y-22402800D02*
X89611200Y-16941800D01*
X89611200Y-16941800D02*
X91389200Y-16941800D01*
X91389200Y-16941800D02*
X91389200Y-22402800D01*
G36*
X91389200Y-22402800D02*
G01*
X89611200Y-22402800D01*
X89611200Y-16941800D01*
X91389200Y-16941800D01*
X91389200Y-22402800D01*
G37*
X82727800Y-24409400D02*
X81330800Y-24409400D01*
X81330800Y-24409400D02*
X81330800Y-20320000D01*
X81330800Y-20320000D02*
X82727800Y-20320000D01*
X82727800Y-20320000D02*
X82727800Y-24409400D01*
G36*
X82727800Y-24409400D02*
G01*
X81330800Y-24409400D01*
X81330800Y-20320000D01*
X82727800Y-20320000D01*
X82727800Y-24409400D01*
G37*
X83108800Y-22402800D02*
X81330800Y-22402800D01*
X81330800Y-22402800D02*
X81330800Y-16941800D01*
X81330800Y-16941800D02*
X83108800Y-16941800D01*
X83108800Y-16941800D02*
X83108800Y-22402800D01*
G36*
X83108800Y-22402800D02*
G01*
X81330800Y-22402800D01*
X81330800Y-16941800D01*
X83108800Y-16941800D01*
X83108800Y-22402800D01*
G37*
D10*
X87340000Y-69560000D02*
X85380000Y-69560000D01*
X85380000Y-67600000D01*
X87340000Y-67600000D01*
X87340000Y-69560000D01*
G36*
X87340000Y-69560000D02*
G01*
X85380000Y-69560000D01*
X85380000Y-67600000D01*
X87340000Y-67600000D01*
X87340000Y-69560000D01*
G37*
D12*
X88410000Y-36665000D03*
X84310000Y-36665000D03*
X84310000Y-38265000D03*
X88410000Y-38265000D03*
D13*
X85586200Y-77607400D03*
X87286200Y-77607400D03*
X87286200Y-78907400D03*
X85586200Y-78907400D03*
D14*
X84455000Y-52019000D03*
X85725000Y-52019000D03*
X86995000Y-52019000D03*
X88265000Y-52019000D03*
X88265000Y-57709000D03*
X86995000Y-57709000D03*
X85725000Y-57709000D03*
X84455000Y-57709000D03*
D15*
X87672000Y-45201800D03*
X87672000Y-47101800D03*
X85302000Y-47101800D03*
X85302000Y-46151800D03*
X85302000Y-45201800D03*
D12*
X88410000Y-50330000D03*
X84310000Y-50330000D03*
X84310000Y-48730000D03*
X88410000Y-48730000D03*
D16*
X89560001Y-23623199D03*
X88760000Y-23623199D03*
D17*
X87610000Y-23623199D03*
X86610000Y-23623199D03*
X86110000Y-23623199D03*
X85110000Y-23623199D03*
D16*
X83160001Y-23623199D03*
X83960000Y-23623199D03*
D17*
X84609940Y-23623199D03*
X85609941Y-23623199D03*
X87109940Y-23623199D03*
X88109941Y-23623199D03*
D18*
X82600800Y-85799400D03*
X82600800Y-88749400D03*
D19*
X87122000Y-39815000D03*
X87122000Y-41465000D03*
D20*
X87010000Y-133547602D03*
X87010000Y-132747602D03*
X87010000Y-131947602D03*
X85710000Y-131947602D03*
X85710000Y-132747602D03*
X85710000Y-133547602D03*
D21*
X90614000Y-85090000D03*
X88964000Y-85090000D03*
D20*
X87010000Y-171095422D03*
X87010000Y-170295422D03*
X87010000Y-169495422D03*
X85710000Y-169495422D03*
X85710000Y-170295422D03*
X85710000Y-171095422D03*
X87010000Y-167340640D03*
X87010000Y-166540640D03*
X87010000Y-165740640D03*
X85710000Y-165740640D03*
X85710000Y-166540640D03*
X85710000Y-167340640D03*
D22*
X83972400Y-81089000D03*
X83972400Y-79439000D03*
X82143600Y-81089000D03*
X82143600Y-79439000D03*
D20*
X87010000Y-156076294D03*
X87010000Y-155276294D03*
X87010000Y-154476294D03*
X85710000Y-154476294D03*
X85710000Y-155276294D03*
X85710000Y-156076294D03*
D23*
X90416000Y-86599000D03*
X89416000Y-86599000D03*
X89916000Y-87899000D03*
D22*
X88450000Y-61285000D03*
X88450000Y-59635000D03*
D24*
X90375000Y-43434000D03*
X87425000Y-43434000D03*
D25*
X88646000Y-39865000D03*
X88646000Y-41415000D03*
D20*
X87010000Y-95999782D03*
X87010000Y-95199782D03*
X87010000Y-94399782D03*
X85710000Y-94399782D03*
X85710000Y-95199782D03*
X85710000Y-95999782D03*
D26*
X82345000Y-43434000D03*
X85295000Y-43434000D03*
D19*
X88138000Y-87313000D03*
X88138000Y-88963000D03*
D20*
X87010000Y-152321512D03*
X87010000Y-151521512D03*
X87010000Y-150721512D03*
X85710000Y-150721512D03*
X85710000Y-151521512D03*
X85710000Y-152321512D03*
D22*
X90170000Y-50863000D03*
X90170000Y-49213000D03*
D27*
X82550000Y-50813000D03*
X82550000Y-49263000D03*
D28*
X82101200Y-82612800D03*
X82101200Y-83112800D03*
X82101200Y-83612800D03*
X82101200Y-84112800D03*
D29*
X82761200Y-84272800D03*
X83261200Y-84272800D03*
X83761200Y-84272800D03*
D28*
X84421200Y-84112800D03*
X84421200Y-83612800D03*
X84421200Y-83112800D03*
X84421200Y-82612800D03*
D29*
X83761200Y-82452800D03*
X83261200Y-82452800D03*
X82761200Y-82452800D03*
D22*
X82550000Y-57340000D03*
X82550000Y-55690000D03*
D30*
X87148000Y-33770000D03*
X87148000Y-33270000D03*
X87148000Y-32770000D03*
X87148000Y-32270000D03*
X85572000Y-32270000D03*
X85572000Y-32770000D03*
X85572000Y-33270000D03*
X85572000Y-33770000D03*
D31*
X87310000Y-25529300D03*
X85410000Y-25529300D03*
X86360000Y-27404300D03*
D18*
X82550000Y-158545000D03*
X82550000Y-161495000D03*
D20*
X87010000Y-148566730D03*
X87010000Y-147766730D03*
X87010000Y-146966730D03*
X85710000Y-146966730D03*
X85710000Y-147766730D03*
X85710000Y-148566730D03*
X87010000Y-122283256D03*
X87010000Y-121483256D03*
X87010000Y-120683256D03*
X85710000Y-120683256D03*
X85710000Y-121483256D03*
X85710000Y-122283256D03*
D21*
X87566000Y-85090000D03*
X85916000Y-85090000D03*
D20*
X87010000Y-159831076D03*
X87010000Y-159031076D03*
X87010000Y-158231076D03*
X85710000Y-158231076D03*
X85710000Y-159031076D03*
X85710000Y-159831076D03*
X87010000Y-99754564D03*
X87010000Y-98954564D03*
X87010000Y-98154564D03*
X85710000Y-98154564D03*
X85710000Y-98954564D03*
X85710000Y-99754564D03*
X87010000Y-163585858D03*
X87010000Y-162785858D03*
X87010000Y-161985858D03*
X85710000Y-161985858D03*
X85710000Y-162785858D03*
X85710000Y-163585858D03*
D32*
X89091000Y-26162000D03*
X90741000Y-26162000D03*
D21*
X87185000Y-75946000D03*
X85535000Y-75946000D03*
D22*
X86990000Y-61285000D03*
X86990000Y-59635000D03*
D23*
X86860000Y-86599000D03*
X85860000Y-86599000D03*
X86360000Y-87899000D03*
D20*
X87010000Y-129792820D03*
X87010000Y-128992820D03*
X87010000Y-128192820D03*
X85710000Y-128192820D03*
X85710000Y-128992820D03*
X85710000Y-129792820D03*
D25*
X86106000Y-80911400D03*
X86106000Y-82461400D03*
D20*
X87010000Y-174850204D03*
X87010000Y-174050204D03*
X87010000Y-173250204D03*
X85710000Y-173250204D03*
X85710000Y-174050204D03*
X85710000Y-174850204D03*
D19*
X82550000Y-52515000D03*
X82550000Y-54165000D03*
X82550000Y-39815000D03*
X82550000Y-41465000D03*
D20*
X87010011Y-111018904D03*
X87010011Y-110218904D03*
X87010011Y-109418904D03*
X85710011Y-109418904D03*
X85710011Y-110218904D03*
X85710011Y-111018904D03*
D25*
X87680800Y-80911400D03*
X87680800Y-82461400D03*
D20*
X87010000Y-178604986D03*
X87010000Y-177804986D03*
X87010000Y-177004986D03*
X85710000Y-177004986D03*
X85710000Y-177804986D03*
X85710000Y-178604986D03*
D18*
X82550000Y-128065000D03*
X82550000Y-131015000D03*
D33*
X84960000Y-29464000D03*
X87760000Y-29464000D03*
D24*
X89613000Y-63119000D03*
X86663000Y-63119000D03*
D20*
X87010000Y-141057166D03*
X87010000Y-140257166D03*
X87010000Y-139457166D03*
X85710000Y-139457166D03*
X85710000Y-140257166D03*
X85710000Y-141057166D03*
D32*
X81979000Y-26162000D03*
X83629000Y-26162000D03*
D20*
X87010011Y-107264124D03*
X87010011Y-106464124D03*
X87010011Y-105664124D03*
X85710011Y-105664124D03*
X85710011Y-106464124D03*
X85710011Y-107264124D03*
D22*
X90170000Y-41465000D03*
X90170000Y-39815000D03*
D20*
X87010000Y-144811948D03*
X87010000Y-144011948D03*
X87010000Y-143211948D03*
X85710000Y-143211948D03*
X85710000Y-144011948D03*
X85710000Y-144811948D03*
X87010000Y-137302384D03*
X87010000Y-136502384D03*
X87010000Y-135702384D03*
X85710000Y-135702384D03*
X85710000Y-136502384D03*
X85710000Y-137302384D03*
D19*
X84582000Y-87313000D03*
X84582000Y-88963000D03*
D20*
X87010000Y-126038038D03*
X87010000Y-125238038D03*
X87010000Y-124438038D03*
X85710000Y-124438038D03*
X85710000Y-125238038D03*
X85710000Y-126038038D03*
X87010000Y-92245000D03*
X87010000Y-91445000D03*
X87010000Y-90645000D03*
X85710000Y-90645000D03*
X85710000Y-91445000D03*
X85710000Y-92245000D03*
D34*
X82925000Y-65980000D03*
X82925000Y-66380000D03*
X82925000Y-66780000D03*
X82925000Y-67180000D03*
X82925000Y-67580000D03*
X82925000Y-67980000D03*
X82925000Y-68380000D03*
X82925000Y-68780000D03*
X82925000Y-69180000D03*
X82925000Y-69580000D03*
X82925000Y-69980000D03*
X82925000Y-70380000D03*
X82925000Y-70780000D03*
X82925000Y-71180000D03*
D35*
X83760000Y-72015000D03*
X84160000Y-72015000D03*
X84560000Y-72015000D03*
X84960000Y-72015000D03*
X85360000Y-72015000D03*
X85760000Y-72015000D03*
X86160000Y-72015000D03*
X86560000Y-72015000D03*
X86960000Y-72015000D03*
X87360000Y-72015000D03*
X87760000Y-72015000D03*
X88160000Y-72015000D03*
X88560000Y-72015000D03*
X88960000Y-72015000D03*
D34*
X89795000Y-71180000D03*
X89795000Y-70780000D03*
X89795000Y-70380000D03*
X89795000Y-69980000D03*
X89795000Y-69580000D03*
X89795000Y-69180000D03*
X89795000Y-68780000D03*
X89795000Y-68380000D03*
X89795000Y-67980000D03*
X89795000Y-67580000D03*
X89795000Y-67180000D03*
X89795000Y-66780000D03*
X89795000Y-66380000D03*
X89795000Y-65980000D03*
D35*
X88960000Y-65145000D03*
X88560000Y-65145000D03*
X88160000Y-65145000D03*
X87760000Y-65145000D03*
X87360000Y-65145000D03*
X86960000Y-65145000D03*
X86560000Y-65145000D03*
X86160000Y-65145000D03*
X85760000Y-65145000D03*
X85360000Y-65145000D03*
X84960000Y-65145000D03*
X84560000Y-65145000D03*
X84160000Y-65145000D03*
X83760000Y-65145000D03*
D20*
X87010000Y-118528474D03*
X87010000Y-117728474D03*
X87010000Y-116928474D03*
X85710000Y-116928474D03*
X85710000Y-117728474D03*
X85710000Y-118528474D03*
X87010000Y-103509346D03*
X87010000Y-102709346D03*
X87010000Y-101909346D03*
X85710000Y-101909346D03*
X85710000Y-102709346D03*
X85710000Y-103509346D03*
D18*
X82550000Y-97585000D03*
X82550000Y-100535000D03*
D20*
X87010000Y-114773692D03*
X87010000Y-113973692D03*
X87010000Y-113173692D03*
X85710000Y-113173692D03*
X85710000Y-113973692D03*
X85710000Y-114773692D03*
D26*
X87628200Y-74041000D03*
X90578200Y-74041000D03*
M02*
