G04 #@! TF.GenerationSoftware,KiCad,Pcbnew,(6.0.4)*
G04 #@! TF.CreationDate,2023-09-16T16:18:12-06:00*
G04 #@! TF.ProjectId,RP2040-Breadstick,52503230-3430-42d4-9272-656164737469,0.2*
G04 #@! TF.SameCoordinates,Original*
G04 #@! TF.FileFunction,Copper,L4,Inr*
G04 #@! TF.FilePolarity,Positive*
%FSLAX46Y46*%
G04 Gerber Fmt 4.6, Leading zero omitted, Abs format (unit mm)*
G04 Created by KiCad (PCBNEW (6.0.4)) date 2023-09-16 16:18:12*
%MOMM*%
%LPD*%
G01*
G04 APERTURE LIST*
G04 #@! TA.AperFunction,ComponentPad*
%ADD10O,1.000000X2.200000*%
G04 #@! TD*
G04 #@! TA.AperFunction,ComponentPad*
%ADD11O,1.000000X1.800000*%
G04 #@! TD*
G04 #@! TA.AperFunction,ComponentPad*
%ADD12R,1.700000X1.700000*%
G04 #@! TD*
G04 #@! TA.AperFunction,ViaPad*
%ADD13C,0.700000*%
G04 #@! TD*
G04 #@! TA.AperFunction,Conductor*
%ADD14C,0.152400*%
G04 #@! TD*
G04 #@! TA.AperFunction,Conductor*
%ADD15C,0.508000*%
G04 #@! TD*
G04 APERTURE END LIST*
D10*
X90680000Y-19048199D03*
X82040000Y-19048199D03*
D11*
X90680000Y-23048200D03*
X82040000Y-23048200D03*
D12*
X82550000Y-152400000D03*
X90170000Y-38100000D03*
X82550000Y-27940000D03*
X82550000Y-76200000D03*
X90170000Y-152400000D03*
X90170000Y-175260000D03*
X82550000Y-177800000D03*
X82550000Y-45720000D03*
X90170000Y-35560000D03*
X90170000Y-167640000D03*
X90170000Y-45720000D03*
X82550000Y-137160000D03*
X82550000Y-30480000D03*
X82550000Y-167640000D03*
X82550000Y-35560000D03*
X90170000Y-33020000D03*
X82550000Y-91440000D03*
X90170000Y-60960000D03*
X82550000Y-60960000D03*
X90170000Y-30480000D03*
X90170000Y-27940000D03*
X90170000Y-76200000D03*
X82550000Y-33020000D03*
X90170000Y-177800000D03*
X82550000Y-38100000D03*
X82550000Y-106680000D03*
X90170000Y-106680000D03*
X90170000Y-91440000D03*
X90170000Y-137160000D03*
X90170000Y-121920000D03*
X82550000Y-121920000D03*
X82550000Y-175260000D03*
D13*
X86487000Y-66395600D03*
X88773000Y-67056000D03*
X89789000Y-51435000D03*
X82003310Y-67288648D03*
X83846437Y-66895685D03*
X87477600Y-69621400D03*
X82014265Y-71379914D03*
X86227777Y-76903063D03*
X86360000Y-81203800D03*
X82042000Y-162534600D03*
X83083400Y-162534600D03*
X82016600Y-132054600D03*
X83058000Y-132054600D03*
X82042000Y-101600000D03*
X83083400Y-101600000D03*
X89516200Y-57429400D03*
X89958237Y-56648535D03*
X89008237Y-56648535D03*
X87122000Y-53594000D03*
X87122000Y-56134000D03*
X86360000Y-175895000D03*
X86360000Y-172085000D03*
X86360000Y-168275000D03*
X86360000Y-164465000D03*
X86360000Y-160655000D03*
X86360000Y-156845000D03*
X86360000Y-153670000D03*
X86360000Y-149860000D03*
X86360000Y-146050000D03*
X86360000Y-142240000D03*
X86360000Y-138430000D03*
X86360000Y-134620000D03*
X86360000Y-130810000D03*
X86360000Y-127000000D03*
X86360000Y-123190000D03*
X86360000Y-119380000D03*
X86360000Y-115570000D03*
X86360000Y-111760000D03*
X86360000Y-108585000D03*
X86360000Y-104775000D03*
X86360000Y-100965000D03*
X86360000Y-97155000D03*
X87376000Y-67818000D03*
X83566000Y-40259000D03*
X83502739Y-49894143D03*
X82550000Y-58928000D03*
X83439000Y-48768000D03*
X82702400Y-87503000D03*
X82748979Y-88726421D03*
X83800199Y-85708587D03*
X87178889Y-72940000D03*
X87505892Y-66062725D03*
X82550000Y-64643000D03*
X90424000Y-79629000D03*
X83312000Y-42799000D03*
X83312000Y-43688000D03*
X86360000Y-43688000D03*
X86360000Y-42799000D03*
X89408000Y-43688000D03*
X89408000Y-42799000D03*
X83388200Y-51511200D03*
X88750937Y-73660948D03*
X86360000Y-26314400D03*
X83160001Y-22554799D03*
X89560001Y-22555599D03*
X90579989Y-73025000D03*
X90525600Y-25146000D03*
X87600000Y-63130000D03*
X89550000Y-24810000D03*
X83160001Y-25196399D03*
X84133900Y-67697620D03*
X82009339Y-68153367D03*
X83944621Y-69039579D03*
X85955669Y-25476772D03*
X86807546Y-25470197D03*
X87347767Y-71103250D03*
X88873071Y-66066855D03*
X90709595Y-67009238D03*
X90716395Y-67861113D03*
X88199607Y-71092861D03*
X81991200Y-25196800D03*
X84633903Y-24586097D03*
X88873100Y-67970000D03*
X90718100Y-69564917D03*
X90716900Y-68713015D03*
X88779481Y-68817922D03*
X90718100Y-70416819D03*
X85938111Y-70950000D03*
X83980000Y-79630000D03*
X82143611Y-79600000D03*
X81965800Y-69291200D03*
X88750000Y-64520000D03*
X86758100Y-64520900D03*
X88816066Y-69669039D03*
X85806286Y-64300634D03*
X85092620Y-51239135D03*
X85547518Y-63488984D03*
X86360000Y-51231800D03*
X85490000Y-62620000D03*
X87630000Y-51231800D03*
X84308098Y-69926200D03*
X81990000Y-70205600D03*
X90398600Y-72186800D03*
X90716900Y-71268721D03*
D14*
X85115400Y-69392800D02*
X85115400Y-70104000D01*
X85115400Y-70104000D02*
X84759800Y-70459600D01*
X84759800Y-70459600D02*
X84759800Y-150190200D01*
X84124800Y-68402200D02*
X85115400Y-69392800D01*
X82009339Y-68153367D02*
X82258172Y-68402200D01*
X82258172Y-68402200D02*
X84124800Y-68402200D01*
X84759800Y-150190200D02*
X82550000Y-152400000D01*
X83667600Y-136042400D02*
X82550000Y-137160000D01*
X83667600Y-87096600D02*
X83667600Y-136042400D01*
X82727800Y-86156800D02*
X83667600Y-87096600D01*
X83870800Y-77851000D02*
X82727800Y-78994000D01*
X83870800Y-74549000D02*
X83870800Y-77851000D01*
X83944621Y-69141179D02*
X82880200Y-70205600D01*
X82880200Y-73558400D02*
X83870800Y-74549000D01*
X82727800Y-78994000D02*
X82727800Y-86156800D01*
X83944621Y-69039579D02*
X83944621Y-69141179D01*
X82880200Y-70205600D02*
X82880200Y-73558400D01*
X86938111Y-164408111D02*
X90170000Y-167640000D01*
X86938111Y-96915537D02*
X86938111Y-164408111D01*
X86893400Y-96870826D02*
X86938111Y-96915537D01*
X86893400Y-81487974D02*
X86893400Y-96870826D01*
X86938111Y-81443263D02*
X86893400Y-81487974D01*
X86938111Y-73857111D02*
X86938111Y-81443263D01*
X86487000Y-73406000D02*
X86938111Y-73857111D01*
X86664800Y-68859400D02*
X86664800Y-72085200D01*
X86842600Y-68681600D02*
X86664800Y-68859400D01*
X87782400Y-68681600D02*
X86842600Y-68681600D01*
X86664800Y-72085200D02*
X86487000Y-72263000D01*
X88494000Y-67970000D02*
X87782400Y-68681600D01*
X88873100Y-67970000D02*
X88494000Y-67970000D01*
X86487000Y-72263000D02*
X86487000Y-73406000D01*
X85979000Y-68935600D02*
X84741020Y-67697620D01*
X85979000Y-70091537D02*
X85979000Y-68935600D01*
X85775800Y-71983600D02*
X85360000Y-71567800D01*
X85360000Y-71567800D02*
X85360000Y-70710537D01*
X85360000Y-70710537D02*
X85979000Y-70091537D01*
X85775800Y-77268660D02*
X85649666Y-77142526D01*
X85649666Y-76663600D02*
X85775800Y-76537466D01*
X84741020Y-67697620D02*
X84133900Y-67697620D01*
X85775800Y-76537466D02*
X85775800Y-71983600D01*
X85775800Y-164414200D02*
X85775800Y-77268660D01*
X82550000Y-167640000D02*
X85775800Y-164414200D01*
X85649666Y-77142526D02*
X85649666Y-76663600D01*
X89040000Y-72160000D02*
X87884000Y-73316000D01*
X87884000Y-73316000D02*
X87884000Y-150114000D01*
X89580000Y-69470000D02*
X89580000Y-70600000D01*
X89580000Y-70600000D02*
X89040000Y-71140000D01*
X88927922Y-68817922D02*
X89580000Y-69470000D01*
X89040000Y-71140000D02*
X89040000Y-72160000D01*
X88779481Y-68817922D02*
X88927922Y-68817922D01*
X87884000Y-150114000D02*
X90170000Y-152400000D01*
X88976200Y-135966200D02*
X90170000Y-137160000D01*
X89520000Y-71530000D02*
X89520000Y-74530000D01*
X90140000Y-69100000D02*
X90140000Y-70910000D01*
X90526985Y-68713015D02*
X90140000Y-69100000D01*
X89520000Y-74530000D02*
X88976200Y-75073800D01*
X90716900Y-68713015D02*
X90526985Y-68713015D01*
X90140000Y-70910000D02*
X89520000Y-71530000D01*
X88976200Y-75073800D02*
X88976200Y-135966200D01*
X88011000Y-54432200D02*
X88976200Y-53467000D01*
X90709595Y-64191995D02*
X88011000Y-61493400D01*
X88011000Y-61493400D02*
X88011000Y-54432200D01*
X88976200Y-53467000D02*
X88976200Y-48133000D01*
X88976200Y-48133000D02*
X86563200Y-45720000D01*
X90709595Y-67009238D02*
X90709595Y-64191995D01*
X86563200Y-45720000D02*
X82550000Y-45720000D01*
X89458800Y-64160400D02*
X86258400Y-60960000D01*
X86258400Y-60960000D02*
X82550000Y-60960000D01*
X89458800Y-67005200D02*
X89458800Y-64160400D01*
X90314713Y-67861113D02*
X89458800Y-67005200D01*
X90716395Y-67861113D02*
X90314713Y-67861113D01*
D15*
X82550000Y-33020000D02*
X90170000Y-33020000D01*
X82550000Y-27940000D02*
X90170000Y-27940000D01*
X82550000Y-38100000D02*
X90170000Y-38100000D01*
X82550000Y-30480000D02*
X90170000Y-30480000D01*
X82550000Y-35560000D02*
X90170000Y-35560000D01*
G04 #@! TA.AperFunction,NonConductor*
G36*
X90141334Y-17020862D02*
G01*
X90145915Y-17020918D01*
X90163724Y-17023691D01*
X90181596Y-17021354D01*
X90190562Y-17021464D01*
X90212269Y-17022663D01*
X90221327Y-17023556D01*
X90228628Y-17024275D01*
X90323092Y-17052935D01*
X90399398Y-17115562D01*
X90445929Y-17202624D01*
X90455601Y-17300864D01*
X90426941Y-17395328D01*
X90364314Y-17471634D01*
X90303605Y-17507660D01*
X90300381Y-17508609D01*
X90289409Y-17514345D01*
X90136081Y-17594503D01*
X90136077Y-17594505D01*
X90125110Y-17600239D01*
X90115463Y-17607995D01*
X90115462Y-17607996D01*
X89980622Y-17716410D01*
X89980619Y-17716413D01*
X89970975Y-17724167D01*
X89843846Y-17875673D01*
X89748567Y-18048986D01*
X89688765Y-18237505D01*
X89671500Y-18391426D01*
X89671500Y-19697968D01*
X89685920Y-19845032D01*
X89689494Y-19856869D01*
X89689495Y-19856875D01*
X89739508Y-20022525D01*
X89743084Y-20034368D01*
X89835934Y-20208995D01*
X89960935Y-20362261D01*
X90113325Y-20488329D01*
X90287299Y-20582397D01*
X90476232Y-20640881D01*
X90502378Y-20643629D01*
X90660618Y-20660261D01*
X90660623Y-20660261D01*
X90672925Y-20661554D01*
X90681911Y-20660736D01*
X90776952Y-20680333D01*
X90858645Y-20735750D01*
X90912913Y-20818211D01*
X90931500Y-20913392D01*
X90931500Y-21382986D01*
X90912242Y-21479805D01*
X90857398Y-21561884D01*
X90775319Y-21616728D01*
X90686996Y-21633977D01*
X90687075Y-21634845D01*
X90678601Y-21635616D01*
X90678599Y-21635616D01*
X90674757Y-21635966D01*
X90674755Y-21635966D01*
X90622984Y-21640678D01*
X90490112Y-21652770D01*
X90300381Y-21708610D01*
X90164059Y-21779878D01*
X90069338Y-21807666D01*
X89971191Y-21797091D01*
X89943942Y-21786795D01*
X89916681Y-21774658D01*
X89826753Y-21734619D01*
X89813787Y-21731863D01*
X89813784Y-21731862D01*
X89687946Y-21705115D01*
X89650233Y-21697099D01*
X89469769Y-21697099D01*
X89432056Y-21705115D01*
X89306218Y-21731862D01*
X89306215Y-21731863D01*
X89293249Y-21734619D01*
X89281143Y-21740009D01*
X89281140Y-21740010D01*
X89140494Y-21802630D01*
X89140490Y-21802632D01*
X89128387Y-21808021D01*
X88982388Y-21914095D01*
X88861634Y-22048206D01*
X88771402Y-22204492D01*
X88715636Y-22376124D01*
X88696772Y-22555599D01*
X88715636Y-22735074D01*
X88771402Y-22906706D01*
X88861634Y-23062992D01*
X88982388Y-23197103D01*
X89128386Y-23303177D01*
X89293249Y-23376579D01*
X89306215Y-23379335D01*
X89306218Y-23379336D01*
X89444735Y-23408778D01*
X89469769Y-23414099D01*
X89469644Y-23414685D01*
X89554215Y-23440943D01*
X89630113Y-23504065D01*
X89676077Y-23591426D01*
X89681792Y-23620689D01*
X89682311Y-23620586D01*
X89684712Y-23632714D01*
X89685920Y-23645033D01*
X89688413Y-23653291D01*
X89688326Y-23750133D01*
X89650468Y-23841300D01*
X89580603Y-23911040D01*
X89489368Y-23948736D01*
X89471088Y-23951500D01*
X89459768Y-23951500D01*
X89446802Y-23954256D01*
X89296217Y-23986263D01*
X89296214Y-23986264D01*
X89283248Y-23989020D01*
X89271142Y-23994410D01*
X89271139Y-23994411D01*
X89130493Y-24057031D01*
X89130489Y-24057033D01*
X89118386Y-24062422D01*
X88972387Y-24168496D01*
X88851633Y-24302607D01*
X88845004Y-24314088D01*
X88845003Y-24314090D01*
X88831257Y-24337899D01*
X88761401Y-24458893D01*
X88757306Y-24471497D01*
X88711753Y-24611697D01*
X88705635Y-24630525D01*
X88704249Y-24643710D01*
X88704249Y-24643711D01*
X88702979Y-24655792D01*
X88686771Y-24810000D01*
X88705635Y-24989475D01*
X88761401Y-25161107D01*
X88851633Y-25317393D01*
X88972387Y-25451504D01*
X88983108Y-25459294D01*
X88983110Y-25459295D01*
X89007165Y-25476772D01*
X89118385Y-25557578D01*
X89283248Y-25630980D01*
X89296214Y-25633736D01*
X89296217Y-25633737D01*
X89388694Y-25653393D01*
X89459768Y-25668500D01*
X89640232Y-25668500D01*
X89658987Y-25664514D01*
X89665738Y-25663079D01*
X89764445Y-25661790D01*
X89856133Y-25698372D01*
X89906349Y-25741261D01*
X89939118Y-25777654D01*
X89947987Y-25787504D01*
X89958708Y-25795294D01*
X89958710Y-25795295D01*
X90017355Y-25837903D01*
X90093985Y-25893578D01*
X90258848Y-25966980D01*
X90271814Y-25969736D01*
X90271817Y-25969737D01*
X90386044Y-25994016D01*
X90435368Y-26004500D01*
X90615832Y-26004500D01*
X90628806Y-26001742D01*
X90641985Y-26000357D01*
X90642173Y-26002148D01*
X90724601Y-26001067D01*
X90816290Y-26037645D01*
X90887001Y-26106526D01*
X90925970Y-26197225D01*
X90931500Y-26249831D01*
X90931500Y-26328500D01*
X90912242Y-26425319D01*
X90857398Y-26507398D01*
X90775319Y-26562242D01*
X90678500Y-26581500D01*
X89271866Y-26581500D01*
X89265058Y-26582240D01*
X89265050Y-26582240D01*
X89225458Y-26586541D01*
X89225455Y-26586542D01*
X89209684Y-26588255D01*
X89141396Y-26613855D01*
X89090174Y-26633057D01*
X89090172Y-26633058D01*
X89073295Y-26639385D01*
X89058874Y-26650193D01*
X89058872Y-26650194D01*
X88971160Y-26715931D01*
X88956739Y-26726739D01*
X88945931Y-26741160D01*
X88885500Y-26821793D01*
X88869385Y-26843295D01*
X88863058Y-26860172D01*
X88863057Y-26860174D01*
X88827170Y-26955904D01*
X88818255Y-26979684D01*
X88817394Y-26987613D01*
X88778367Y-27072761D01*
X88706025Y-27139928D01*
X88613485Y-27174298D01*
X88573360Y-27177500D01*
X87291208Y-27177500D01*
X87194389Y-27158242D01*
X87112310Y-27103398D01*
X87057466Y-27021319D01*
X87038208Y-26924500D01*
X87057466Y-26827681D01*
X87072104Y-26798000D01*
X87081895Y-26781041D01*
X87148599Y-26665507D01*
X87177788Y-26575672D01*
X87200269Y-26506482D01*
X87200269Y-26506480D01*
X87204365Y-26493875D01*
X87221133Y-26334343D01*
X87250407Y-26240068D01*
X87313530Y-26164171D01*
X87324037Y-26156109D01*
X87374436Y-26119492D01*
X87374438Y-26119491D01*
X87385159Y-26111701D01*
X87505913Y-25977590D01*
X87596145Y-25821304D01*
X87638058Y-25692309D01*
X87647815Y-25662279D01*
X87647815Y-25662277D01*
X87651911Y-25649672D01*
X87670775Y-25470197D01*
X87666114Y-25425852D01*
X87653297Y-25303908D01*
X87653297Y-25303907D01*
X87651911Y-25290722D01*
X87596145Y-25119090D01*
X87505913Y-24962804D01*
X87385159Y-24828693D01*
X87359431Y-24810000D01*
X87249886Y-24730411D01*
X87249885Y-24730410D01*
X87239161Y-24722619D01*
X87074298Y-24649217D01*
X87061332Y-24646461D01*
X87061329Y-24646460D01*
X86927046Y-24617918D01*
X86897778Y-24611697D01*
X86717314Y-24611697D01*
X86688046Y-24617918D01*
X86553763Y-24646460D01*
X86553760Y-24646461D01*
X86540794Y-24649217D01*
X86528682Y-24654610D01*
X86528681Y-24654610D01*
X86477130Y-24677562D01*
X86380848Y-24699349D01*
X86283559Y-24682632D01*
X86271319Y-24677563D01*
X86234530Y-24661183D01*
X86234527Y-24661182D01*
X86222421Y-24655792D01*
X86209455Y-24653036D01*
X86209452Y-24653035D01*
X86093015Y-24628286D01*
X86045901Y-24618272D01*
X85865437Y-24618272D01*
X85783331Y-24635724D01*
X85684626Y-24637017D01*
X85592937Y-24600437D01*
X85522227Y-24531554D01*
X85483260Y-24440855D01*
X85480722Y-24424833D01*
X85479654Y-24419807D01*
X85478268Y-24406622D01*
X85422502Y-24234990D01*
X85332270Y-24078704D01*
X85211516Y-23944593D01*
X85165335Y-23911040D01*
X85076243Y-23846311D01*
X85076240Y-23846309D01*
X85065518Y-23838519D01*
X84900655Y-23765117D01*
X84887689Y-23762361D01*
X84887686Y-23762360D01*
X84771249Y-23737611D01*
X84724135Y-23727597D01*
X84543671Y-23727597D01*
X84496557Y-23737611D01*
X84380120Y-23762360D01*
X84380117Y-23762361D01*
X84367151Y-23765117D01*
X84355045Y-23770507D01*
X84355042Y-23770508D01*
X84214396Y-23833128D01*
X84214392Y-23833130D01*
X84202289Y-23838519D01*
X84056290Y-23944593D01*
X83935536Y-24078704D01*
X83845304Y-24234990D01*
X83841209Y-24247594D01*
X83841208Y-24247596D01*
X83839375Y-24253237D01*
X83836063Y-24259151D01*
X83835811Y-24259717D01*
X83835759Y-24259694D01*
X83791141Y-24339366D01*
X83713618Y-24400481D01*
X83618609Y-24427277D01*
X83520577Y-24415675D01*
X83495852Y-24406184D01*
X83483043Y-24400481D01*
X83426753Y-24375419D01*
X83413787Y-24372663D01*
X83413784Y-24372662D01*
X83297347Y-24347913D01*
X83250233Y-24337899D01*
X83129586Y-24337899D01*
X83032767Y-24318641D01*
X82950688Y-24263797D01*
X82895844Y-24181718D01*
X82876586Y-24084899D01*
X82895844Y-23988080D01*
X82907880Y-23963016D01*
X82914211Y-23951500D01*
X82971433Y-23847413D01*
X82994276Y-23775403D01*
X83027495Y-23670685D01*
X83027496Y-23670682D01*
X83031235Y-23658894D01*
X83033982Y-23634401D01*
X83063910Y-23540336D01*
X83127560Y-23464880D01*
X83215240Y-23419526D01*
X83247124Y-23413299D01*
X83250233Y-23413299D01*
X83331898Y-23395941D01*
X83413784Y-23378536D01*
X83413787Y-23378535D01*
X83426753Y-23375779D01*
X83591616Y-23302377D01*
X83737614Y-23196303D01*
X83858368Y-23062192D01*
X83948600Y-22905906D01*
X84004366Y-22734274D01*
X84023230Y-22554799D01*
X84004366Y-22375324D01*
X83948600Y-22203692D01*
X83858368Y-22047406D01*
X83737614Y-21913295D01*
X83657760Y-21855277D01*
X83602341Y-21815013D01*
X83602340Y-21815012D01*
X83591616Y-21807221D01*
X83426753Y-21733819D01*
X83413787Y-21731063D01*
X83413784Y-21731062D01*
X83297347Y-21706313D01*
X83250233Y-21696299D01*
X83069769Y-21696299D01*
X83022655Y-21706313D01*
X82906218Y-21731062D01*
X82906215Y-21731063D01*
X82893249Y-21733819D01*
X82807362Y-21772059D01*
X82774506Y-21786687D01*
X82678224Y-21808473D01*
X82580934Y-21791756D01*
X82551267Y-21778111D01*
X82479324Y-21739211D01*
X82432701Y-21714002D01*
X82243768Y-21655518D01*
X82206956Y-21651649D01*
X82059382Y-21636138D01*
X82059377Y-21636138D01*
X82047075Y-21634845D01*
X82038089Y-21635663D01*
X81943048Y-21616066D01*
X81861355Y-21560649D01*
X81807087Y-21478188D01*
X81788500Y-21383007D01*
X81788500Y-20913413D01*
X81807758Y-20816594D01*
X81862602Y-20734515D01*
X81944681Y-20679671D01*
X82033004Y-20662422D01*
X82032925Y-20661554D01*
X82041399Y-20660783D01*
X82041401Y-20660783D01*
X82045243Y-20660433D01*
X82045245Y-20660433D01*
X82097016Y-20655721D01*
X82229888Y-20643629D01*
X82419619Y-20587789D01*
X82430587Y-20582055D01*
X82430592Y-20582053D01*
X82583919Y-20501895D01*
X82583923Y-20501893D01*
X82594890Y-20496159D01*
X82614437Y-20480443D01*
X82739378Y-20379988D01*
X82739381Y-20379985D01*
X82749025Y-20372231D01*
X82876154Y-20220725D01*
X82971433Y-20047412D01*
X83031235Y-19858893D01*
X83048500Y-19704972D01*
X83048500Y-18398430D01*
X83034080Y-18251366D01*
X83030506Y-18239529D01*
X83030505Y-18239523D01*
X82980492Y-18073873D01*
X82980491Y-18073870D01*
X82976916Y-18062030D01*
X82884066Y-17887403D01*
X82759065Y-17734137D01*
X82606675Y-17608069D01*
X82432701Y-17514001D01*
X82420886Y-17510344D01*
X82418327Y-17509268D01*
X82336537Y-17453996D01*
X82282124Y-17371631D01*
X82263372Y-17274712D01*
X82283138Y-17177995D01*
X82338410Y-17096205D01*
X82420775Y-17041792D01*
X82491571Y-17024255D01*
X82511593Y-17022283D01*
X82529685Y-17021505D01*
X82543724Y-17023691D01*
X82567088Y-17020636D01*
X82599890Y-17018500D01*
X90110805Y-17018500D01*
X90141334Y-17020862D01*
G37*
G04 #@! TD.AperFunction*
G04 #@! TA.AperFunction,NonConductor*
G36*
X84273327Y-25366821D02*
G01*
X84298051Y-25376312D01*
X84367151Y-25407077D01*
X84380117Y-25409833D01*
X84380120Y-25409834D01*
X84496557Y-25434583D01*
X84543671Y-25444597D01*
X84724135Y-25444597D01*
X84806241Y-25427145D01*
X84904946Y-25425852D01*
X84996635Y-25462432D01*
X85067345Y-25531315D01*
X85106312Y-25622014D01*
X85108850Y-25638036D01*
X85109918Y-25643062D01*
X85111304Y-25656247D01*
X85167070Y-25827879D01*
X85206404Y-25896007D01*
X85228115Y-25933611D01*
X85257302Y-25984165D01*
X85378056Y-26118276D01*
X85393867Y-26129764D01*
X85460873Y-26202249D01*
X85495042Y-26294862D01*
X85496581Y-26314420D01*
X85496771Y-26314400D01*
X85515635Y-26493875D01*
X85519731Y-26506480D01*
X85519731Y-26506482D01*
X85542212Y-26575672D01*
X85571401Y-26665507D01*
X85638105Y-26781041D01*
X85647896Y-26798000D01*
X85679628Y-26891477D01*
X85673171Y-26989981D01*
X85629511Y-27078516D01*
X85555292Y-27143604D01*
X85461815Y-27175336D01*
X85428792Y-27177500D01*
X84146640Y-27177500D01*
X84049821Y-27158242D01*
X83967742Y-27103398D01*
X83912898Y-27021319D01*
X83902919Y-26990488D01*
X83901745Y-26979684D01*
X83892830Y-26955904D01*
X83856943Y-26860174D01*
X83856942Y-26860172D01*
X83850615Y-26843295D01*
X83834501Y-26821793D01*
X83774069Y-26741160D01*
X83763261Y-26726739D01*
X83748840Y-26715931D01*
X83661128Y-26650194D01*
X83661126Y-26650193D01*
X83646705Y-26639385D01*
X83629828Y-26633058D01*
X83629826Y-26633057D01*
X83578604Y-26613855D01*
X83510316Y-26588255D01*
X83494545Y-26586542D01*
X83494542Y-26586541D01*
X83454950Y-26582240D01*
X83454942Y-26582240D01*
X83448134Y-26581500D01*
X82041500Y-26581500D01*
X81944681Y-26562242D01*
X81862602Y-26507398D01*
X81807758Y-26425319D01*
X81788500Y-26328500D01*
X81788500Y-26308300D01*
X81807758Y-26211481D01*
X81862602Y-26129402D01*
X81944681Y-26074558D01*
X82041500Y-26055300D01*
X82081432Y-26055300D01*
X82128546Y-26045286D01*
X82244983Y-26020537D01*
X82244986Y-26020536D01*
X82257952Y-26017780D01*
X82422815Y-25944378D01*
X82433541Y-25936585D01*
X82445023Y-25929956D01*
X82446405Y-25932350D01*
X82516784Y-25899895D01*
X82615423Y-25896007D01*
X82708042Y-25930163D01*
X82713203Y-25933611D01*
X82717661Y-25936185D01*
X82728386Y-25943977D01*
X82893249Y-26017379D01*
X82906215Y-26020135D01*
X82906218Y-26020136D01*
X82988594Y-26037645D01*
X83069769Y-26054899D01*
X83250233Y-26054899D01*
X83331408Y-26037645D01*
X83413784Y-26020136D01*
X83413787Y-26020135D01*
X83426753Y-26017379D01*
X83591616Y-25943977D01*
X83607619Y-25932350D01*
X83726891Y-25845694D01*
X83726893Y-25845693D01*
X83737614Y-25837903D01*
X83858368Y-25703792D01*
X83948600Y-25547506D01*
X83954529Y-25529259D01*
X83957841Y-25523345D01*
X83958093Y-25522779D01*
X83958145Y-25522802D01*
X84002763Y-25443130D01*
X84080286Y-25382015D01*
X84175295Y-25355219D01*
X84273327Y-25366821D01*
G37*
G04 #@! TD.AperFunction*
G04 #@! TA.AperFunction,NonConductor*
G36*
X88670179Y-28721758D02*
G01*
X88752258Y-28776602D01*
X88807102Y-28858681D01*
X88817081Y-28889512D01*
X88818255Y-28900316D01*
X88869385Y-29036705D01*
X88880192Y-29051125D01*
X88880196Y-29051132D01*
X88885547Y-29058271D01*
X88928200Y-29147296D01*
X88933539Y-29245867D01*
X88900749Y-29338978D01*
X88885547Y-29361729D01*
X88880196Y-29368868D01*
X88880192Y-29368875D01*
X88869385Y-29383295D01*
X88818255Y-29519684D01*
X88817394Y-29527613D01*
X88778367Y-29612761D01*
X88706025Y-29679928D01*
X88613485Y-29714298D01*
X88573360Y-29717500D01*
X84146640Y-29717500D01*
X84049821Y-29698242D01*
X83967742Y-29643398D01*
X83912898Y-29561319D01*
X83902919Y-29530488D01*
X83901745Y-29519684D01*
X83850615Y-29383295D01*
X83839808Y-29368875D01*
X83839804Y-29368868D01*
X83834453Y-29361729D01*
X83791800Y-29272704D01*
X83786461Y-29174133D01*
X83819251Y-29081022D01*
X83834453Y-29058271D01*
X83839804Y-29051132D01*
X83839808Y-29051125D01*
X83850615Y-29036705D01*
X83901745Y-28900316D01*
X83902606Y-28892387D01*
X83941633Y-28807239D01*
X84013975Y-28740072D01*
X84106515Y-28705702D01*
X84146640Y-28702500D01*
X88573360Y-28702500D01*
X88670179Y-28721758D01*
G37*
G04 #@! TD.AperFunction*
G04 #@! TA.AperFunction,NonConductor*
G36*
X88670179Y-31261758D02*
G01*
X88752258Y-31316602D01*
X88807102Y-31398681D01*
X88817081Y-31429512D01*
X88818255Y-31440316D01*
X88869385Y-31576705D01*
X88880192Y-31591125D01*
X88880196Y-31591132D01*
X88885547Y-31598271D01*
X88928200Y-31687296D01*
X88933539Y-31785867D01*
X88900749Y-31878978D01*
X88885547Y-31901729D01*
X88880196Y-31908868D01*
X88880192Y-31908875D01*
X88869385Y-31923295D01*
X88818255Y-32059684D01*
X88817394Y-32067613D01*
X88778367Y-32152761D01*
X88706025Y-32219928D01*
X88613485Y-32254298D01*
X88573360Y-32257500D01*
X84146640Y-32257500D01*
X84049821Y-32238242D01*
X83967742Y-32183398D01*
X83912898Y-32101319D01*
X83902919Y-32070488D01*
X83901745Y-32059684D01*
X83850615Y-31923295D01*
X83839808Y-31908875D01*
X83839804Y-31908868D01*
X83834453Y-31901729D01*
X83791800Y-31812704D01*
X83786461Y-31714133D01*
X83819251Y-31621022D01*
X83834453Y-31598271D01*
X83839804Y-31591132D01*
X83839808Y-31591125D01*
X83850615Y-31576705D01*
X83901745Y-31440316D01*
X83902606Y-31432387D01*
X83941633Y-31347239D01*
X84013975Y-31280072D01*
X84106515Y-31245702D01*
X84146640Y-31242500D01*
X88573360Y-31242500D01*
X88670179Y-31261758D01*
G37*
G04 #@! TD.AperFunction*
G04 #@! TA.AperFunction,NonConductor*
G36*
X88670179Y-33801758D02*
G01*
X88752258Y-33856602D01*
X88807102Y-33938681D01*
X88817081Y-33969512D01*
X88818255Y-33980316D01*
X88869385Y-34116705D01*
X88880192Y-34131125D01*
X88880196Y-34131132D01*
X88885547Y-34138271D01*
X88928200Y-34227296D01*
X88933539Y-34325867D01*
X88900749Y-34418978D01*
X88885547Y-34441729D01*
X88880196Y-34448868D01*
X88880192Y-34448875D01*
X88869385Y-34463295D01*
X88818255Y-34599684D01*
X88817394Y-34607613D01*
X88778367Y-34692761D01*
X88706025Y-34759928D01*
X88613485Y-34794298D01*
X88573360Y-34797500D01*
X84146640Y-34797500D01*
X84049821Y-34778242D01*
X83967742Y-34723398D01*
X83912898Y-34641319D01*
X83902919Y-34610488D01*
X83901745Y-34599684D01*
X83850615Y-34463295D01*
X83839808Y-34448875D01*
X83839804Y-34448868D01*
X83834453Y-34441729D01*
X83791800Y-34352704D01*
X83786461Y-34254133D01*
X83819251Y-34161022D01*
X83834453Y-34138271D01*
X83839804Y-34131132D01*
X83839808Y-34131125D01*
X83850615Y-34116705D01*
X83901745Y-33980316D01*
X83902606Y-33972387D01*
X83941633Y-33887239D01*
X84013975Y-33820072D01*
X84106515Y-33785702D01*
X84146640Y-33782500D01*
X88573360Y-33782500D01*
X88670179Y-33801758D01*
G37*
G04 #@! TD.AperFunction*
G04 #@! TA.AperFunction,NonConductor*
G36*
X88670179Y-36341758D02*
G01*
X88752258Y-36396602D01*
X88807102Y-36478681D01*
X88817081Y-36509512D01*
X88818255Y-36520316D01*
X88869385Y-36656705D01*
X88880192Y-36671125D01*
X88880196Y-36671132D01*
X88885547Y-36678271D01*
X88928200Y-36767296D01*
X88933539Y-36865867D01*
X88900749Y-36958978D01*
X88885547Y-36981729D01*
X88880196Y-36988868D01*
X88880192Y-36988875D01*
X88869385Y-37003295D01*
X88818255Y-37139684D01*
X88817394Y-37147613D01*
X88778367Y-37232761D01*
X88706025Y-37299928D01*
X88613485Y-37334298D01*
X88573360Y-37337500D01*
X84146640Y-37337500D01*
X84049821Y-37318242D01*
X83967742Y-37263398D01*
X83912898Y-37181319D01*
X83902919Y-37150488D01*
X83901745Y-37139684D01*
X83850615Y-37003295D01*
X83839808Y-36988875D01*
X83839804Y-36988868D01*
X83834453Y-36981729D01*
X83791800Y-36892704D01*
X83786461Y-36794133D01*
X83819251Y-36701022D01*
X83834453Y-36678271D01*
X83839804Y-36671132D01*
X83839808Y-36671125D01*
X83850615Y-36656705D01*
X83901745Y-36520316D01*
X83902606Y-36512387D01*
X83941633Y-36427239D01*
X84013975Y-36360072D01*
X84106515Y-36325702D01*
X84146640Y-36322500D01*
X88573360Y-36322500D01*
X88670179Y-36341758D01*
G37*
G04 #@! TD.AperFunction*
G04 #@! TA.AperFunction,NonConductor*
G36*
X88670179Y-38881758D02*
G01*
X88752258Y-38936602D01*
X88807102Y-39018681D01*
X88817081Y-39049512D01*
X88818255Y-39060316D01*
X88869385Y-39196705D01*
X88956739Y-39313261D01*
X88971160Y-39324069D01*
X89058872Y-39389806D01*
X89058874Y-39389807D01*
X89073295Y-39400615D01*
X89090172Y-39406942D01*
X89090174Y-39406943D01*
X89141396Y-39426145D01*
X89209684Y-39451745D01*
X89225455Y-39453458D01*
X89225458Y-39453459D01*
X89265050Y-39457760D01*
X89265058Y-39457760D01*
X89271866Y-39458500D01*
X90678500Y-39458500D01*
X90775319Y-39477758D01*
X90857398Y-39532602D01*
X90912242Y-39614681D01*
X90931500Y-39711500D01*
X90931500Y-44108500D01*
X90912242Y-44205319D01*
X90857398Y-44287398D01*
X90775319Y-44342242D01*
X90678500Y-44361500D01*
X90440072Y-44361500D01*
X90343253Y-44342242D01*
X90261174Y-44287398D01*
X90206330Y-44205319D01*
X90187072Y-44108500D01*
X90199455Y-44030319D01*
X90248267Y-43880091D01*
X90248269Y-43880081D01*
X90252365Y-43867475D01*
X90271229Y-43688000D01*
X90252365Y-43508525D01*
X90196599Y-43336893D01*
X90197126Y-43336722D01*
X90177531Y-43250125D01*
X90193918Y-43154751D01*
X90196599Y-43150107D01*
X90252365Y-42978475D01*
X90271229Y-42799000D01*
X90252365Y-42619525D01*
X90196599Y-42447893D01*
X90106367Y-42291607D01*
X89985613Y-42157496D01*
X89839615Y-42051422D01*
X89674752Y-41978020D01*
X89661786Y-41975264D01*
X89661783Y-41975263D01*
X89545346Y-41950514D01*
X89498232Y-41940500D01*
X89317768Y-41940500D01*
X89270654Y-41950514D01*
X89154217Y-41975263D01*
X89154214Y-41975264D01*
X89141248Y-41978020D01*
X89129142Y-41983410D01*
X89129139Y-41983411D01*
X88988493Y-42046031D01*
X88988489Y-42046033D01*
X88976386Y-42051422D01*
X88830387Y-42157496D01*
X88709633Y-42291607D01*
X88619401Y-42447893D01*
X88563635Y-42619525D01*
X88544771Y-42799000D01*
X88563635Y-42978475D01*
X88617536Y-43144367D01*
X88619401Y-43150107D01*
X88618874Y-43150278D01*
X88638469Y-43236875D01*
X88622082Y-43332249D01*
X88619401Y-43336893D01*
X88563635Y-43508525D01*
X88544771Y-43688000D01*
X88563635Y-43867475D01*
X88619401Y-44039107D01*
X88709633Y-44195393D01*
X88734815Y-44223360D01*
X88830387Y-44329504D01*
X88828818Y-44330917D01*
X88877191Y-44395696D01*
X88901490Y-44491375D01*
X88887325Y-44589069D01*
X88875909Y-44614590D01*
X88869385Y-44623295D01*
X88818255Y-44759684D01*
X88811500Y-44821866D01*
X88811500Y-46530613D01*
X88792242Y-46627432D01*
X88737398Y-46709511D01*
X88655319Y-46764355D01*
X88558500Y-46783613D01*
X88461681Y-46764355D01*
X88379602Y-46709511D01*
X87015473Y-45345383D01*
X86993652Y-45320500D01*
X86990311Y-45316146D01*
X86990307Y-45316142D01*
X86980213Y-45302987D01*
X86902586Y-45243423D01*
X86858073Y-45209266D01*
X86816413Y-45192010D01*
X86715837Y-45150350D01*
X86601521Y-45135300D01*
X86601511Y-45135299D01*
X86563200Y-45130255D01*
X86546763Y-45132419D01*
X86546759Y-45132419D01*
X86541315Y-45133136D01*
X86508293Y-45135300D01*
X84161500Y-45135300D01*
X84064681Y-45116042D01*
X83982602Y-45061198D01*
X83927758Y-44979119D01*
X83908500Y-44882300D01*
X83908500Y-44821866D01*
X83901745Y-44759684D01*
X83850615Y-44623295D01*
X83846729Y-44618110D01*
X83819642Y-44531935D01*
X83828334Y-44433602D01*
X83873994Y-44346081D01*
X83889644Y-44329532D01*
X83889613Y-44329504D01*
X83985185Y-44223360D01*
X84010367Y-44195393D01*
X84100599Y-44039107D01*
X84156365Y-43867475D01*
X84175229Y-43688000D01*
X85496771Y-43688000D01*
X85515635Y-43867475D01*
X85571401Y-44039107D01*
X85661633Y-44195393D01*
X85782387Y-44329504D01*
X85793108Y-44337294D01*
X85793110Y-44337295D01*
X85873492Y-44395696D01*
X85928385Y-44435578D01*
X86093248Y-44508980D01*
X86106214Y-44511736D01*
X86106217Y-44511737D01*
X86201244Y-44531935D01*
X86269768Y-44546500D01*
X86450232Y-44546500D01*
X86518756Y-44531935D01*
X86613783Y-44511737D01*
X86613786Y-44511736D01*
X86626752Y-44508980D01*
X86791615Y-44435578D01*
X86846508Y-44395696D01*
X86926890Y-44337295D01*
X86926892Y-44337294D01*
X86937613Y-44329504D01*
X87058367Y-44195393D01*
X87148599Y-44039107D01*
X87204365Y-43867475D01*
X87223229Y-43688000D01*
X87204365Y-43508525D01*
X87148599Y-43336893D01*
X87149126Y-43336722D01*
X87129531Y-43250125D01*
X87145918Y-43154751D01*
X87148599Y-43150107D01*
X87204365Y-42978475D01*
X87223229Y-42799000D01*
X87204365Y-42619525D01*
X87148599Y-42447893D01*
X87058367Y-42291607D01*
X86937613Y-42157496D01*
X86791615Y-42051422D01*
X86626752Y-41978020D01*
X86613786Y-41975264D01*
X86613783Y-41975263D01*
X86497346Y-41950514D01*
X86450232Y-41940500D01*
X86269768Y-41940500D01*
X86222654Y-41950514D01*
X86106217Y-41975263D01*
X86106214Y-41975264D01*
X86093248Y-41978020D01*
X86081142Y-41983410D01*
X86081139Y-41983411D01*
X85940493Y-42046031D01*
X85940489Y-42046033D01*
X85928386Y-42051422D01*
X85782387Y-42157496D01*
X85661633Y-42291607D01*
X85571401Y-42447893D01*
X85515635Y-42619525D01*
X85496771Y-42799000D01*
X85515635Y-42978475D01*
X85569536Y-43144367D01*
X85571401Y-43150107D01*
X85570874Y-43150278D01*
X85590469Y-43236875D01*
X85574082Y-43332249D01*
X85571401Y-43336893D01*
X85515635Y-43508525D01*
X85496771Y-43688000D01*
X84175229Y-43688000D01*
X84156365Y-43508525D01*
X84100599Y-43336893D01*
X84101126Y-43336722D01*
X84081531Y-43250125D01*
X84097918Y-43154751D01*
X84100599Y-43150107D01*
X84156365Y-42978475D01*
X84175229Y-42799000D01*
X84156365Y-42619525D01*
X84100599Y-42447893D01*
X84010367Y-42291607D01*
X83889613Y-42157496D01*
X83743615Y-42051422D01*
X83578752Y-41978020D01*
X83565786Y-41975264D01*
X83565783Y-41975263D01*
X83449346Y-41950514D01*
X83402232Y-41940500D01*
X83221768Y-41940500D01*
X83174654Y-41950514D01*
X83058217Y-41975263D01*
X83058214Y-41975264D01*
X83045248Y-41978020D01*
X83033142Y-41983410D01*
X83033139Y-41983411D01*
X82892493Y-42046031D01*
X82892489Y-42046033D01*
X82880386Y-42051422D01*
X82734387Y-42157496D01*
X82613633Y-42291607D01*
X82523401Y-42447893D01*
X82467635Y-42619525D01*
X82448771Y-42799000D01*
X82467635Y-42978475D01*
X82521536Y-43144367D01*
X82523401Y-43150107D01*
X82522874Y-43150278D01*
X82542469Y-43236875D01*
X82526082Y-43332249D01*
X82523401Y-43336893D01*
X82467635Y-43508525D01*
X82448771Y-43688000D01*
X82467635Y-43867475D01*
X82471731Y-43880081D01*
X82471733Y-43880091D01*
X82520545Y-44030319D01*
X82532148Y-44128350D01*
X82505353Y-44223360D01*
X82444238Y-44300883D01*
X82358109Y-44349117D01*
X82279928Y-44361500D01*
X82041500Y-44361500D01*
X81944681Y-44342242D01*
X81862602Y-44287398D01*
X81807758Y-44205319D01*
X81788500Y-44108500D01*
X81788500Y-39711500D01*
X81807758Y-39614681D01*
X81862602Y-39532602D01*
X81944681Y-39477758D01*
X82041500Y-39458500D01*
X82598650Y-39458500D01*
X82695469Y-39477758D01*
X82777548Y-39532602D01*
X82832392Y-39614681D01*
X82851650Y-39711500D01*
X82832392Y-39808319D01*
X82817758Y-39837992D01*
X82777401Y-39907893D01*
X82721635Y-40079525D01*
X82702771Y-40259000D01*
X82721635Y-40438475D01*
X82777401Y-40610107D01*
X82867633Y-40766393D01*
X82988387Y-40900504D01*
X83134385Y-41006578D01*
X83299248Y-41079980D01*
X83312214Y-41082736D01*
X83312217Y-41082737D01*
X83428654Y-41107486D01*
X83475768Y-41117500D01*
X83656232Y-41117500D01*
X83703346Y-41107486D01*
X83819783Y-41082737D01*
X83819786Y-41082736D01*
X83832752Y-41079980D01*
X83997615Y-41006578D01*
X84143613Y-40900504D01*
X84264367Y-40766393D01*
X84354599Y-40610107D01*
X84410365Y-40438475D01*
X84429229Y-40259000D01*
X84410365Y-40079525D01*
X84354599Y-39907893D01*
X84264367Y-39751607D01*
X84143613Y-39617496D01*
X83997615Y-39511422D01*
X83985506Y-39506031D01*
X83974018Y-39499398D01*
X83974911Y-39497851D01*
X83907539Y-39450241D01*
X83854860Y-39366756D01*
X83838138Y-39269467D01*
X83854152Y-39187270D01*
X83896177Y-39075169D01*
X83896177Y-39075168D01*
X83901745Y-39060316D01*
X83902606Y-39052387D01*
X83941633Y-38967239D01*
X84013975Y-38900072D01*
X84106515Y-38865702D01*
X84146640Y-38862500D01*
X88573360Y-38862500D01*
X88670179Y-38881758D01*
G37*
G04 #@! TD.AperFunction*
G04 #@! TA.AperFunction,NonConductor*
G36*
X90775319Y-47097758D02*
G01*
X90857398Y-47152602D01*
X90912242Y-47234681D01*
X90931500Y-47331500D01*
X90931500Y-50762607D01*
X90912242Y-50859426D01*
X90857398Y-50941505D01*
X90775319Y-50996349D01*
X90678500Y-51015607D01*
X90581681Y-50996349D01*
X90499602Y-50941505D01*
X90487573Y-50927421D01*
X90487367Y-50927607D01*
X90375481Y-50803345D01*
X90366613Y-50793496D01*
X90315938Y-50756678D01*
X90231340Y-50695214D01*
X90231339Y-50695213D01*
X90220615Y-50687422D01*
X90055752Y-50614020D01*
X90042786Y-50611264D01*
X90042783Y-50611263D01*
X89926346Y-50586514D01*
X89879232Y-50576500D01*
X89813900Y-50576500D01*
X89717081Y-50557242D01*
X89635002Y-50502398D01*
X89580158Y-50420319D01*
X89560900Y-50323500D01*
X89560900Y-48187899D01*
X89563065Y-48154875D01*
X89563780Y-48149442D01*
X89565945Y-48133000D01*
X89560900Y-48094679D01*
X89552150Y-48028214D01*
X89548014Y-47996799D01*
X89548014Y-47996798D01*
X89545850Y-47980363D01*
X89486934Y-47838128D01*
X89486934Y-47838127D01*
X89416742Y-47746651D01*
X89393213Y-47715987D01*
X89375703Y-47702551D01*
X89350822Y-47680731D01*
X89180489Y-47510398D01*
X89125645Y-47428319D01*
X89106387Y-47331500D01*
X89125645Y-47234681D01*
X89180489Y-47152602D01*
X89262568Y-47097758D01*
X89359387Y-47078500D01*
X90678500Y-47078500D01*
X90775319Y-47097758D01*
G37*
G04 #@! TD.AperFunction*
G04 #@! TA.AperFunction,NonConductor*
G36*
X90737567Y-51861385D02*
G01*
X90827214Y-51902715D01*
X90894221Y-51975205D01*
X90928386Y-52067820D01*
X90931500Y-52107393D01*
X90931500Y-55797947D01*
X90912242Y-55894766D01*
X90857398Y-55976845D01*
X90775319Y-56031689D01*
X90678500Y-56050947D01*
X90581681Y-56031689D01*
X90529790Y-56002628D01*
X90400577Y-55908749D01*
X90400576Y-55908748D01*
X90389852Y-55900957D01*
X90224989Y-55827555D01*
X90212023Y-55824799D01*
X90212020Y-55824798D01*
X90095583Y-55800049D01*
X90048469Y-55790035D01*
X89868005Y-55790035D01*
X89820891Y-55800049D01*
X89704454Y-55824798D01*
X89704451Y-55824799D01*
X89691485Y-55827555D01*
X89679379Y-55832945D01*
X89679376Y-55832946D01*
X89586142Y-55874457D01*
X89489860Y-55896243D01*
X89392570Y-55879526D01*
X89380332Y-55874457D01*
X89287098Y-55832946D01*
X89287096Y-55832945D01*
X89274989Y-55827555D01*
X89262023Y-55824799D01*
X89262020Y-55824798D01*
X89145583Y-55800049D01*
X89098469Y-55790035D01*
X88918005Y-55790035D01*
X88901294Y-55793587D01*
X88896933Y-55793644D01*
X88891852Y-55794178D01*
X88891803Y-55793711D01*
X88802587Y-55794876D01*
X88710900Y-55758293D01*
X88640192Y-55689408D01*
X88601227Y-55598708D01*
X88595700Y-55546114D01*
X88595700Y-54779186D01*
X88614958Y-54682367D01*
X88669802Y-54600288D01*
X89350817Y-53919273D01*
X89375700Y-53897452D01*
X89380054Y-53894111D01*
X89380058Y-53894107D01*
X89393213Y-53884013D01*
X89403307Y-53870858D01*
X89403310Y-53870855D01*
X89476838Y-53775030D01*
X89476839Y-53775029D01*
X89478031Y-53773475D01*
X89486934Y-53761873D01*
X89545850Y-53619637D01*
X89550962Y-53580813D01*
X89563781Y-53483437D01*
X89565945Y-53467000D01*
X89563064Y-53445115D01*
X89560900Y-53412093D01*
X89560900Y-52546500D01*
X89580158Y-52449681D01*
X89635002Y-52367602D01*
X89717081Y-52312758D01*
X89813900Y-52293500D01*
X89879232Y-52293500D01*
X89926346Y-52283486D01*
X90042783Y-52258737D01*
X90042786Y-52258736D01*
X90055752Y-52255980D01*
X90220615Y-52182578D01*
X90341325Y-52094877D01*
X90355890Y-52084295D01*
X90355892Y-52084294D01*
X90366613Y-52076504D01*
X90487367Y-51942393D01*
X90489431Y-51944251D01*
X90546312Y-51891672D01*
X90638927Y-51857507D01*
X90737567Y-51861385D01*
G37*
G04 #@! TD.AperFunction*
G04 #@! TA.AperFunction,NonConductor*
G36*
X90810692Y-57283405D02*
G01*
X90883181Y-57350413D01*
X90924510Y-57440061D01*
X90931500Y-57499123D01*
X90931500Y-59348500D01*
X90912242Y-59445319D01*
X90857398Y-59527398D01*
X90775319Y-59582242D01*
X90678500Y-59601500D01*
X89271866Y-59601500D01*
X89265058Y-59602240D01*
X89265050Y-59602240D01*
X89225458Y-59606541D01*
X89225455Y-59606542D01*
X89209684Y-59608255D01*
X89141396Y-59633855D01*
X89090174Y-59653057D01*
X89090172Y-59653058D01*
X89073295Y-59659385D01*
X89058875Y-59670192D01*
X89058868Y-59670196D01*
X89000429Y-59713994D01*
X88911404Y-59756647D01*
X88812833Y-59761986D01*
X88719722Y-59729196D01*
X88646247Y-59663270D01*
X88603594Y-59574245D01*
X88595700Y-59511541D01*
X88595700Y-58318323D01*
X88614958Y-58221504D01*
X88669802Y-58139425D01*
X88751881Y-58084581D01*
X88848700Y-58065323D01*
X88945519Y-58084581D01*
X88997409Y-58113641D01*
X89031728Y-58138575D01*
X89084585Y-58176978D01*
X89249448Y-58250380D01*
X89262414Y-58253136D01*
X89262417Y-58253137D01*
X89378854Y-58277886D01*
X89425968Y-58287900D01*
X89606432Y-58287900D01*
X89653546Y-58277886D01*
X89769983Y-58253137D01*
X89769986Y-58253136D01*
X89782952Y-58250380D01*
X89947815Y-58176978D01*
X89999502Y-58139425D01*
X90083090Y-58078695D01*
X90083092Y-58078694D01*
X90093813Y-58070904D01*
X90214567Y-57936793D01*
X90304799Y-57780507D01*
X90360565Y-57608875D01*
X90370581Y-57513584D01*
X90399855Y-57419308D01*
X90462978Y-57343412D01*
X90473485Y-57335350D01*
X90529790Y-57294442D01*
X90619438Y-57253113D01*
X90718078Y-57249238D01*
X90810692Y-57283405D01*
G37*
G04 #@! TD.AperFunction*
G04 #@! TA.AperFunction,NonConductor*
G36*
X86313033Y-46323958D02*
G01*
X86395112Y-46378802D01*
X88317398Y-48301089D01*
X88372242Y-48383168D01*
X88391500Y-48479987D01*
X88391500Y-50241510D01*
X88372242Y-50338329D01*
X88317398Y-50420408D01*
X88235319Y-50475252D01*
X88138500Y-50494510D01*
X88035595Y-50472637D01*
X87925337Y-50423547D01*
X87896752Y-50410820D01*
X87883786Y-50408064D01*
X87883783Y-50408063D01*
X87754741Y-50380635D01*
X87720232Y-50373300D01*
X87539768Y-50373300D01*
X87505259Y-50380635D01*
X87376217Y-50408063D01*
X87376214Y-50408064D01*
X87363248Y-50410820D01*
X87351142Y-50416210D01*
X87351139Y-50416211D01*
X87210493Y-50478831D01*
X87210489Y-50478833D01*
X87198386Y-50484222D01*
X87187664Y-50492012D01*
X87143709Y-50523947D01*
X87054061Y-50565275D01*
X86955422Y-50569150D01*
X86862807Y-50534983D01*
X86846293Y-50523948D01*
X86791615Y-50484222D01*
X86626752Y-50410820D01*
X86613786Y-50408064D01*
X86613783Y-50408063D01*
X86484741Y-50380635D01*
X86450232Y-50373300D01*
X86269768Y-50373300D01*
X86235259Y-50380635D01*
X86106217Y-50408063D01*
X86106214Y-50408064D01*
X86093248Y-50410820D01*
X86081142Y-50416210D01*
X86081139Y-50416211D01*
X85940493Y-50478831D01*
X85940489Y-50478833D01*
X85928386Y-50484222D01*
X85917665Y-50492011D01*
X85917662Y-50492013D01*
X85869972Y-50526662D01*
X85780324Y-50567991D01*
X85681684Y-50571866D01*
X85589070Y-50537699D01*
X85572556Y-50526664D01*
X85524235Y-50491557D01*
X85359372Y-50418155D01*
X85346406Y-50415399D01*
X85346403Y-50415398D01*
X85227161Y-50390053D01*
X85182852Y-50380635D01*
X85002388Y-50380635D01*
X84958079Y-50390053D01*
X84838837Y-50415398D01*
X84838834Y-50415399D01*
X84825868Y-50418155D01*
X84813762Y-50423545D01*
X84813759Y-50423546D01*
X84661006Y-50491557D01*
X84660096Y-50489514D01*
X84584145Y-50515298D01*
X84485640Y-50508844D01*
X84397104Y-50465185D01*
X84332014Y-50390968D01*
X84300281Y-50297492D01*
X84306735Y-50198987D01*
X84310498Y-50186283D01*
X84343007Y-50086228D01*
X84343008Y-50086225D01*
X84347104Y-50073618D01*
X84365968Y-49894143D01*
X84347104Y-49714668D01*
X84291338Y-49543036D01*
X84210124Y-49402369D01*
X84178394Y-49308896D01*
X84184850Y-49210392D01*
X84210123Y-49149376D01*
X84227599Y-49119107D01*
X84283365Y-48947475D01*
X84302229Y-48768000D01*
X84283365Y-48588525D01*
X84227599Y-48416893D01*
X84137367Y-48260607D01*
X84016613Y-48126496D01*
X83870615Y-48020422D01*
X83705752Y-47947020D01*
X83692786Y-47944264D01*
X83692783Y-47944263D01*
X83576346Y-47919514D01*
X83529232Y-47909500D01*
X83348768Y-47909500D01*
X83301654Y-47919514D01*
X83185217Y-47944263D01*
X83185214Y-47944264D01*
X83172248Y-47947020D01*
X83160142Y-47952410D01*
X83160139Y-47952411D01*
X83019493Y-48015031D01*
X83019489Y-48015033D01*
X83007386Y-48020422D01*
X82861387Y-48126496D01*
X82740633Y-48260607D01*
X82650401Y-48416893D01*
X82594635Y-48588525D01*
X82575771Y-48768000D01*
X82594635Y-48947475D01*
X82650401Y-49119107D01*
X82731615Y-49259774D01*
X82763345Y-49353247D01*
X82756889Y-49451751D01*
X82731616Y-49512767D01*
X82714140Y-49543036D01*
X82658374Y-49714668D01*
X82639510Y-49894143D01*
X82658374Y-50073618D01*
X82714140Y-50245250D01*
X82804372Y-50401536D01*
X82813241Y-50411386D01*
X82813246Y-50411393D01*
X82873642Y-50478469D01*
X82924115Y-50563305D01*
X82938280Y-50661000D01*
X82913981Y-50756678D01*
X82854917Y-50835774D01*
X82834339Y-50852439D01*
X82810587Y-50869696D01*
X82689833Y-51003807D01*
X82599601Y-51160093D01*
X82543835Y-51331725D01*
X82524971Y-51511200D01*
X82543835Y-51690675D01*
X82547931Y-51703280D01*
X82547931Y-51703282D01*
X82570412Y-51772472D01*
X82599601Y-51862307D01*
X82645839Y-51942393D01*
X82674540Y-51992104D01*
X82689833Y-52018593D01*
X82810587Y-52152704D01*
X82956585Y-52258778D01*
X83121448Y-52332180D01*
X83134414Y-52334936D01*
X83134417Y-52334937D01*
X83250854Y-52359686D01*
X83297968Y-52369700D01*
X83478432Y-52369700D01*
X83525546Y-52359686D01*
X83641983Y-52334937D01*
X83641986Y-52334936D01*
X83654952Y-52332180D01*
X83819815Y-52258778D01*
X83965813Y-52152704D01*
X84086567Y-52018593D01*
X84130011Y-51943346D01*
X84195098Y-51869129D01*
X84283633Y-51825469D01*
X84382138Y-51819013D01*
X84475615Y-51850744D01*
X84511688Y-51876953D01*
X84515007Y-51880639D01*
X84525737Y-51888434D01*
X84525736Y-51888434D01*
X84645166Y-51975205D01*
X84661005Y-51986713D01*
X84825868Y-52060115D01*
X84838834Y-52062871D01*
X84838837Y-52062872D01*
X84939627Y-52084295D01*
X85002388Y-52097635D01*
X85182852Y-52097635D01*
X85245613Y-52084295D01*
X85346403Y-52062872D01*
X85346406Y-52062871D01*
X85359372Y-52060115D01*
X85524235Y-51986713D01*
X85582651Y-51944271D01*
X85672295Y-51902945D01*
X85770935Y-51899069D01*
X85863549Y-51933235D01*
X85880064Y-51944271D01*
X85928385Y-51979378D01*
X86093248Y-52052780D01*
X86106214Y-52055536D01*
X86106217Y-52055537D01*
X86204862Y-52076504D01*
X86269768Y-52090300D01*
X86450232Y-52090300D01*
X86515138Y-52076504D01*
X86613783Y-52055537D01*
X86613786Y-52055536D01*
X86626752Y-52052780D01*
X86791615Y-51979378D01*
X86805656Y-51969177D01*
X86846290Y-51939654D01*
X86935937Y-51898326D01*
X87034577Y-51894450D01*
X87127191Y-51928617D01*
X87143710Y-51939654D01*
X87184345Y-51969177D01*
X87198385Y-51979378D01*
X87363248Y-52052780D01*
X87376214Y-52055536D01*
X87376217Y-52055537D01*
X87474862Y-52076504D01*
X87539768Y-52090300D01*
X87720232Y-52090300D01*
X87785138Y-52076504D01*
X87883783Y-52055537D01*
X87883786Y-52055536D01*
X87896752Y-52052780D01*
X88035595Y-51990963D01*
X88131877Y-51969177D01*
X88229167Y-51985894D01*
X88312654Y-52038570D01*
X88369627Y-52119185D01*
X88391500Y-52222090D01*
X88391500Y-53120014D01*
X88372242Y-53216833D01*
X88317398Y-53298912D01*
X88312427Y-53303883D01*
X88230348Y-53358727D01*
X88133529Y-53377985D01*
X88036710Y-53358727D01*
X87954631Y-53303883D01*
X87912111Y-53242020D01*
X87910599Y-53242893D01*
X87826997Y-53098090D01*
X87826996Y-53098088D01*
X87820367Y-53086607D01*
X87699613Y-52952496D01*
X87553615Y-52846422D01*
X87388752Y-52773020D01*
X87375786Y-52770264D01*
X87375783Y-52770263D01*
X87259346Y-52745514D01*
X87212232Y-52735500D01*
X87031768Y-52735500D01*
X86984654Y-52745514D01*
X86868217Y-52770263D01*
X86868214Y-52770264D01*
X86855248Y-52773020D01*
X86843142Y-52778410D01*
X86843139Y-52778411D01*
X86702493Y-52841031D01*
X86702489Y-52841033D01*
X86690386Y-52846422D01*
X86544387Y-52952496D01*
X86423633Y-53086607D01*
X86333401Y-53242893D01*
X86277635Y-53414525D01*
X86276249Y-53427710D01*
X86276249Y-53427711D01*
X86270392Y-53483437D01*
X86258771Y-53594000D01*
X86277635Y-53773475D01*
X86333401Y-53945107D01*
X86423633Y-54101393D01*
X86544387Y-54235504D01*
X86690385Y-54341578D01*
X86855248Y-54414980D01*
X86868214Y-54417736D01*
X86868217Y-54417737D01*
X86984654Y-54442486D01*
X87031768Y-54452500D01*
X87173300Y-54452500D01*
X87270119Y-54471758D01*
X87352198Y-54526602D01*
X87407042Y-54608681D01*
X87426300Y-54705500D01*
X87426300Y-55022500D01*
X87407042Y-55119319D01*
X87352198Y-55201398D01*
X87270119Y-55256242D01*
X87173300Y-55275500D01*
X87031768Y-55275500D01*
X86984654Y-55285514D01*
X86868217Y-55310263D01*
X86868214Y-55310264D01*
X86855248Y-55313020D01*
X86843142Y-55318410D01*
X86843139Y-55318411D01*
X86702493Y-55381031D01*
X86702489Y-55381033D01*
X86690386Y-55386422D01*
X86544387Y-55492496D01*
X86423633Y-55626607D01*
X86333401Y-55782893D01*
X86277635Y-55954525D01*
X86258771Y-56134000D01*
X86277635Y-56313475D01*
X86333401Y-56485107D01*
X86423633Y-56641393D01*
X86544387Y-56775504D01*
X86690385Y-56881578D01*
X86855248Y-56954980D01*
X86868214Y-56957736D01*
X86868217Y-56957737D01*
X86984654Y-56982486D01*
X87031768Y-56992500D01*
X87173300Y-56992500D01*
X87270119Y-57011758D01*
X87352198Y-57066602D01*
X87407042Y-57148681D01*
X87426300Y-57245500D01*
X87426300Y-60690214D01*
X87407042Y-60787033D01*
X87352198Y-60869112D01*
X87270119Y-60923956D01*
X87173300Y-60943214D01*
X87076481Y-60923956D01*
X86994402Y-60869112D01*
X86710673Y-60585383D01*
X86688852Y-60560500D01*
X86685511Y-60556146D01*
X86685507Y-60556142D01*
X86675413Y-60542987D01*
X86597786Y-60483423D01*
X86553273Y-60449266D01*
X86511613Y-60432010D01*
X86411037Y-60390350D01*
X86296721Y-60375300D01*
X86296711Y-60375299D01*
X86258400Y-60370255D01*
X86241963Y-60372419D01*
X86241959Y-60372419D01*
X86236515Y-60373136D01*
X86203493Y-60375300D01*
X84161500Y-60375300D01*
X84064681Y-60356042D01*
X83982602Y-60301198D01*
X83927758Y-60219119D01*
X83908500Y-60122300D01*
X83908500Y-60061866D01*
X83901745Y-59999684D01*
X83850615Y-59863295D01*
X83763261Y-59746739D01*
X83748840Y-59735931D01*
X83661128Y-59670194D01*
X83661126Y-59670193D01*
X83646705Y-59659385D01*
X83629828Y-59653058D01*
X83629826Y-59653057D01*
X83525175Y-59613825D01*
X83525172Y-59613824D01*
X83510316Y-59608255D01*
X83508667Y-59608076D01*
X83427199Y-59570735D01*
X83360032Y-59498394D01*
X83325661Y-59405855D01*
X83329320Y-59307207D01*
X83338803Y-59279173D01*
X83338599Y-59279107D01*
X83390269Y-59120082D01*
X83390269Y-59120080D01*
X83394365Y-59107475D01*
X83413229Y-58928000D01*
X83394365Y-58748525D01*
X83338599Y-58576893D01*
X83248367Y-58420607D01*
X83127613Y-58286496D01*
X83081699Y-58253137D01*
X82992340Y-58188214D01*
X82992339Y-58188213D01*
X82981615Y-58180422D01*
X82816752Y-58107020D01*
X82803786Y-58104264D01*
X82803783Y-58104263D01*
X82683492Y-58078695D01*
X82640232Y-58069500D01*
X82459768Y-58069500D01*
X82416508Y-58078695D01*
X82296217Y-58104263D01*
X82296214Y-58104264D01*
X82283248Y-58107020D01*
X82251332Y-58121230D01*
X82144405Y-58168837D01*
X82048123Y-58190623D01*
X81950833Y-58173906D01*
X81867346Y-58121230D01*
X81810373Y-58040615D01*
X81788500Y-57937710D01*
X81788500Y-47331500D01*
X81807758Y-47234681D01*
X81862602Y-47152602D01*
X81944681Y-47097758D01*
X82041500Y-47078500D01*
X83448134Y-47078500D01*
X83454942Y-47077760D01*
X83454950Y-47077760D01*
X83494542Y-47073459D01*
X83494545Y-47073458D01*
X83510316Y-47071745D01*
X83578604Y-47046145D01*
X83629826Y-47026943D01*
X83629828Y-47026942D01*
X83646705Y-47020615D01*
X83661126Y-47009807D01*
X83661128Y-47009806D01*
X83748840Y-46944069D01*
X83763261Y-46933261D01*
X83850615Y-46816705D01*
X83901745Y-46680316D01*
X83908500Y-46618134D01*
X83908500Y-46557700D01*
X83927758Y-46460881D01*
X83982602Y-46378802D01*
X84064681Y-46323958D01*
X84161500Y-46304700D01*
X86216214Y-46304700D01*
X86313033Y-46323958D01*
G37*
G04 #@! TD.AperFunction*
G04 #@! TA.AperFunction,NonConductor*
G36*
X90775319Y-62337758D02*
G01*
X90857398Y-62392602D01*
X90912242Y-62474681D01*
X90931500Y-62571500D01*
X90931500Y-62976213D01*
X90912242Y-63073032D01*
X90857398Y-63155111D01*
X90775319Y-63209955D01*
X90678500Y-63229213D01*
X90581681Y-63209955D01*
X90499602Y-63155111D01*
X90094888Y-62750398D01*
X90040045Y-62668319D01*
X90020786Y-62571500D01*
X90040044Y-62474681D01*
X90094888Y-62392602D01*
X90176967Y-62337759D01*
X90273786Y-62318500D01*
X90678500Y-62318500D01*
X90775319Y-62337758D01*
G37*
G04 #@! TD.AperFunction*
G04 #@! TA.AperFunction,NonConductor*
G36*
X84833969Y-61563958D02*
G01*
X84916048Y-61618802D01*
X84970892Y-61700881D01*
X84990150Y-61797700D01*
X84970892Y-61894519D01*
X84917037Y-61975117D01*
X84912387Y-61978496D01*
X84791633Y-62112607D01*
X84701401Y-62268893D01*
X84687478Y-62311745D01*
X84656449Y-62407244D01*
X84645635Y-62440525D01*
X84626771Y-62620000D01*
X84645635Y-62799475D01*
X84701401Y-62971107D01*
X84708030Y-62982588D01*
X84708030Y-62982589D01*
X84716558Y-62997361D01*
X84748289Y-63090838D01*
X84741832Y-63189342D01*
X84738071Y-63202040D01*
X84729242Y-63229213D01*
X84703153Y-63309509D01*
X84684289Y-63488984D01*
X84703153Y-63668459D01*
X84707249Y-63681064D01*
X84707249Y-63681066D01*
X84713375Y-63699920D01*
X84758919Y-63840091D01*
X84849151Y-63996377D01*
X84858018Y-64006225D01*
X84858021Y-64006229D01*
X84886505Y-64037863D01*
X84936977Y-64122700D01*
X84951142Y-64220395D01*
X84950103Y-64233596D01*
X84943057Y-64300634D01*
X84961921Y-64480109D01*
X85017687Y-64651741D01*
X85107919Y-64808027D01*
X85228673Y-64942138D01*
X85374671Y-65048212D01*
X85539534Y-65121614D01*
X85552500Y-65124370D01*
X85552503Y-65124371D01*
X85620906Y-65138910D01*
X85716054Y-65159134D01*
X85896518Y-65159134D01*
X85947178Y-65148366D01*
X86045884Y-65147075D01*
X86137572Y-65183656D01*
X86208281Y-65252539D01*
X86247248Y-65343239D01*
X86248539Y-65441946D01*
X86211958Y-65533634D01*
X86143075Y-65604343D01*
X86102680Y-65626965D01*
X86067496Y-65642630D01*
X86067494Y-65642631D01*
X86055386Y-65648022D01*
X85909387Y-65754096D01*
X85788633Y-65888207D01*
X85698401Y-66044493D01*
X85642635Y-66216125D01*
X85641249Y-66229310D01*
X85641249Y-66229311D01*
X85625157Y-66382413D01*
X85623771Y-66395600D01*
X85625157Y-66408787D01*
X85640755Y-66557184D01*
X85642635Y-66575075D01*
X85698401Y-66746707D01*
X85728175Y-66798277D01*
X85773352Y-66876525D01*
X85788633Y-66902993D01*
X85909387Y-67037104D01*
X85920108Y-67044894D01*
X85920110Y-67044895D01*
X86044660Y-67135386D01*
X86055385Y-67143178D01*
X86220248Y-67216580D01*
X86364918Y-67247330D01*
X86455613Y-67286295D01*
X86524496Y-67357005D01*
X86561076Y-67448693D01*
X86559785Y-67547400D01*
X86552931Y-67572980D01*
X86535732Y-67625914D01*
X86535731Y-67625919D01*
X86531635Y-67638525D01*
X86512771Y-67818000D01*
X86531635Y-67997475D01*
X86533654Y-68003690D01*
X86534902Y-68098790D01*
X86498324Y-68190479D01*
X86440141Y-68253419D01*
X86437108Y-68255746D01*
X86348570Y-68299401D01*
X86250065Y-68305851D01*
X86156590Y-68274114D01*
X86104206Y-68233916D01*
X85193293Y-67323003D01*
X85171472Y-67298120D01*
X85168131Y-67293766D01*
X85168127Y-67293762D01*
X85158033Y-67280607D01*
X85123488Y-67254100D01*
X85078540Y-67219610D01*
X85078538Y-67219609D01*
X85049047Y-67196979D01*
X85049044Y-67196977D01*
X85035893Y-67186886D01*
X84975510Y-67161875D01*
X84908978Y-67134316D01*
X84908976Y-67134316D01*
X84893657Y-67127970D01*
X84888790Y-67127329D01*
X84807259Y-67087120D01*
X84742173Y-67012900D01*
X84710444Y-66919423D01*
X84709187Y-66900243D01*
X84709666Y-66895685D01*
X84690802Y-66716210D01*
X84635036Y-66544578D01*
X84544804Y-66388292D01*
X84424050Y-66254181D01*
X84389820Y-66229311D01*
X84288777Y-66155899D01*
X84288774Y-66155897D01*
X84278052Y-66148107D01*
X84113189Y-66074705D01*
X84100223Y-66071949D01*
X84100220Y-66071948D01*
X83971051Y-66044493D01*
X83936669Y-66037185D01*
X83756205Y-66037185D01*
X83721823Y-66044493D01*
X83592654Y-66071948D01*
X83592651Y-66071949D01*
X83579685Y-66074705D01*
X83567579Y-66080095D01*
X83567576Y-66080096D01*
X83426930Y-66142716D01*
X83426926Y-66142718D01*
X83414823Y-66148107D01*
X83268824Y-66254181D01*
X83148070Y-66388292D01*
X83057838Y-66544578D01*
X83053743Y-66557182D01*
X83053742Y-66557184D01*
X83042300Y-66592399D01*
X82994066Y-66678528D01*
X82916543Y-66739643D01*
X82821534Y-66766439D01*
X82723502Y-66754837D01*
X82637373Y-66706603D01*
X82613666Y-66683508D01*
X82589796Y-66656997D01*
X82589789Y-66656991D01*
X82580923Y-66647144D01*
X82434925Y-66541070D01*
X82270062Y-66467668D01*
X82257096Y-66464912D01*
X82257093Y-66464911D01*
X82140656Y-66440162D01*
X82093542Y-66430148D01*
X82041500Y-66430148D01*
X81944681Y-66410890D01*
X81862602Y-66356046D01*
X81807758Y-66273967D01*
X81788500Y-66177148D01*
X81788500Y-65633290D01*
X81807758Y-65536471D01*
X81862602Y-65454392D01*
X81944681Y-65399548D01*
X82041500Y-65380290D01*
X82144405Y-65402163D01*
X82283248Y-65463980D01*
X82296214Y-65466736D01*
X82296217Y-65466737D01*
X82412654Y-65491486D01*
X82459768Y-65501500D01*
X82640232Y-65501500D01*
X82687346Y-65491486D01*
X82803783Y-65466737D01*
X82803786Y-65466736D01*
X82816752Y-65463980D01*
X82981615Y-65390578D01*
X82997000Y-65379400D01*
X83116890Y-65292295D01*
X83116892Y-65292294D01*
X83127613Y-65284504D01*
X83248367Y-65150393D01*
X83338599Y-64994107D01*
X83394365Y-64822475D01*
X83413229Y-64643000D01*
X83411843Y-64629813D01*
X83395751Y-64476711D01*
X83395751Y-64476710D01*
X83394365Y-64463525D01*
X83338599Y-64291893D01*
X83248367Y-64135607D01*
X83127613Y-64001496D01*
X83104763Y-63984894D01*
X82992340Y-63903214D01*
X82992339Y-63903213D01*
X82981615Y-63895422D01*
X82816752Y-63822020D01*
X82803786Y-63819264D01*
X82803783Y-63819263D01*
X82687346Y-63794514D01*
X82640232Y-63784500D01*
X82459768Y-63784500D01*
X82412654Y-63794514D01*
X82296217Y-63819263D01*
X82296214Y-63819264D01*
X82283248Y-63822020D01*
X82251332Y-63836230D01*
X82144405Y-63883837D01*
X82048123Y-63905623D01*
X81950833Y-63888906D01*
X81867346Y-63836230D01*
X81810373Y-63755615D01*
X81788500Y-63652710D01*
X81788500Y-62571500D01*
X81807758Y-62474681D01*
X81862602Y-62392602D01*
X81944681Y-62337758D01*
X82041500Y-62318500D01*
X83448134Y-62318500D01*
X83454942Y-62317760D01*
X83454950Y-62317760D01*
X83494542Y-62313459D01*
X83494545Y-62313458D01*
X83510316Y-62311745D01*
X83588378Y-62282481D01*
X83629826Y-62266943D01*
X83629828Y-62266942D01*
X83646705Y-62260615D01*
X83661126Y-62249807D01*
X83661128Y-62249806D01*
X83748840Y-62184069D01*
X83763261Y-62173261D01*
X83850615Y-62056705D01*
X83901745Y-61920316D01*
X83903459Y-61904542D01*
X83907760Y-61864950D01*
X83907760Y-61864942D01*
X83908500Y-61858134D01*
X83908500Y-61797700D01*
X83927758Y-61700881D01*
X83982602Y-61618802D01*
X84064681Y-61563958D01*
X84161500Y-61544700D01*
X84737150Y-61544700D01*
X84833969Y-61563958D01*
G37*
G04 #@! TD.AperFunction*
G04 #@! TA.AperFunction,NonConductor*
G36*
X83814719Y-70637544D02*
G01*
X83854127Y-70659613D01*
X83854275Y-70659356D01*
X83865758Y-70665986D01*
X83876483Y-70673778D01*
X83888592Y-70679169D01*
X83888595Y-70679171D01*
X84025004Y-70739904D01*
X84105619Y-70796877D01*
X84158296Y-70880364D01*
X84175100Y-70971031D01*
X84175100Y-73415614D01*
X84155842Y-73512433D01*
X84100998Y-73594512D01*
X84018919Y-73649356D01*
X83922100Y-73668614D01*
X83825281Y-73649356D01*
X83743202Y-73594512D01*
X83539002Y-73390312D01*
X83484158Y-73308233D01*
X83464900Y-73211414D01*
X83464900Y-70871286D01*
X83484158Y-70774467D01*
X83539002Y-70692388D01*
X83621081Y-70637544D01*
X83717900Y-70618286D01*
X83814719Y-70637544D01*
G37*
G04 #@! TD.AperFunction*
G04 #@! TA.AperFunction,NonConductor*
G36*
X82139319Y-72257672D02*
G01*
X82221398Y-72312516D01*
X82276242Y-72394595D01*
X82295500Y-72491414D01*
X82295500Y-73503501D01*
X82293337Y-73536512D01*
X82292335Y-73544123D01*
X82288059Y-73556719D01*
X82292335Y-73572677D01*
X82295210Y-73594512D01*
X82295498Y-73596702D01*
X82295500Y-73596721D01*
X82302430Y-73649356D01*
X82310550Y-73711037D01*
X82316896Y-73726357D01*
X82316897Y-73726361D01*
X82346777Y-73798496D01*
X82346779Y-73798500D01*
X82350815Y-73808243D01*
X82369466Y-73853273D01*
X82379559Y-73866427D01*
X82379560Y-73866428D01*
X82390235Y-73880340D01*
X82392660Y-73883500D01*
X82463187Y-73975413D01*
X82476343Y-73985508D01*
X82476345Y-73985510D01*
X82480699Y-73988851D01*
X82505582Y-74010672D01*
X82904512Y-74409602D01*
X82959356Y-74491681D01*
X82978614Y-74588500D01*
X82959356Y-74685319D01*
X82904512Y-74767398D01*
X82822433Y-74822242D01*
X82725614Y-74841500D01*
X82041500Y-74841500D01*
X81944681Y-74822242D01*
X81862602Y-74767398D01*
X81807758Y-74685319D01*
X81788500Y-74588500D01*
X81788500Y-73605703D01*
X81795995Y-73568024D01*
X81788500Y-73511097D01*
X81788500Y-72491414D01*
X81807758Y-72394595D01*
X81862602Y-72312516D01*
X81944681Y-72257672D01*
X82041500Y-72238414D01*
X82042500Y-72238414D01*
X82139319Y-72257672D01*
G37*
G04 #@! TD.AperFunction*
G04 #@! TA.AperFunction,NonConductor*
G36*
X90410297Y-73866610D02*
G01*
X90489757Y-73883500D01*
X90670221Y-73883500D01*
X90670221Y-73885684D01*
X90750360Y-73893050D01*
X90837722Y-73939015D01*
X90900843Y-74014913D01*
X90930115Y-74109189D01*
X90931500Y-74135630D01*
X90931500Y-74588500D01*
X90912242Y-74685319D01*
X90857398Y-74767398D01*
X90775319Y-74822242D01*
X90678500Y-74841500D01*
X90357226Y-74841500D01*
X90260407Y-74822242D01*
X90178328Y-74767398D01*
X90123484Y-74685319D01*
X90104226Y-74588500D01*
X90106389Y-74555488D01*
X90109745Y-74530000D01*
X90106864Y-74508115D01*
X90104700Y-74475093D01*
X90104700Y-74114082D01*
X90123958Y-74017263D01*
X90178802Y-73935184D01*
X90260881Y-73880340D01*
X90357700Y-73861082D01*
X90410297Y-73866610D01*
G37*
G04 #@! TD.AperFunction*
G04 #@! TA.AperFunction,NonConductor*
G36*
X82822433Y-77577758D02*
G01*
X82904512Y-77632602D01*
X82959356Y-77714681D01*
X82978614Y-77811500D01*
X82959356Y-77908319D01*
X82904512Y-77990398D01*
X82353183Y-78541727D01*
X82328300Y-78563548D01*
X82323946Y-78566889D01*
X82323942Y-78566893D01*
X82310787Y-78576987D01*
X82300693Y-78590142D01*
X82300690Y-78590145D01*
X82260507Y-78642514D01*
X82186290Y-78707603D01*
X82092814Y-78739335D01*
X82077993Y-78740307D01*
X82067955Y-78741362D01*
X82065430Y-78741130D01*
X82059787Y-78741500D01*
X82053379Y-78741500D01*
X82053379Y-78740023D01*
X81969654Y-78732333D01*
X81882290Y-78686373D01*
X81819164Y-78610479D01*
X81789887Y-78516204D01*
X81788500Y-78489749D01*
X81788500Y-77811500D01*
X81807758Y-77714681D01*
X81862602Y-77632602D01*
X81944681Y-77577758D01*
X82041500Y-77558500D01*
X82725614Y-77558500D01*
X82822433Y-77577758D01*
G37*
G04 #@! TD.AperFunction*
G04 #@! TA.AperFunction,NonConductor*
G36*
X90775319Y-77577758D02*
G01*
X90857398Y-77632602D01*
X90912242Y-77714681D01*
X90931500Y-77811500D01*
X90931500Y-78546764D01*
X90912242Y-78643583D01*
X90857398Y-78725662D01*
X90775319Y-78780506D01*
X90678500Y-78799764D01*
X90625905Y-78794237D01*
X90514232Y-78770500D01*
X90333768Y-78770500D01*
X90293684Y-78779020D01*
X90170217Y-78805263D01*
X90170214Y-78805264D01*
X90157248Y-78808020D01*
X90145142Y-78813410D01*
X90145139Y-78813411D01*
X90004493Y-78876031D01*
X90004489Y-78876033D01*
X89992386Y-78881422D01*
X89981664Y-78889212D01*
X89962609Y-78903056D01*
X89872960Y-78944384D01*
X89774321Y-78948259D01*
X89681707Y-78914091D01*
X89609218Y-78847083D01*
X89567890Y-78757434D01*
X89560900Y-78698374D01*
X89560900Y-77811500D01*
X89580158Y-77714681D01*
X89635002Y-77632602D01*
X89717081Y-77577758D01*
X89813900Y-77558500D01*
X90678500Y-77558500D01*
X90775319Y-77577758D01*
G37*
G04 #@! TD.AperFunction*
G04 #@! TA.AperFunction,NonConductor*
G36*
X83668403Y-80431014D02*
G01*
X83687192Y-80439379D01*
X83713248Y-80450980D01*
X83726214Y-80453736D01*
X83726217Y-80453737D01*
X83784900Y-80466210D01*
X83889768Y-80488500D01*
X83922100Y-80488500D01*
X84018919Y-80507758D01*
X84100998Y-80562602D01*
X84155842Y-80644681D01*
X84175100Y-80741500D01*
X84175100Y-84600416D01*
X84155842Y-84697235D01*
X84100998Y-84779314D01*
X84018919Y-84834158D01*
X83922100Y-84853416D01*
X83900855Y-84852303D01*
X83890431Y-84850087D01*
X83709967Y-84850087D01*
X83618098Y-84869614D01*
X83519393Y-84870905D01*
X83427705Y-84834325D01*
X83356995Y-84765441D01*
X83318028Y-84674742D01*
X83312500Y-84622142D01*
X83312500Y-80662142D01*
X83331758Y-80565323D01*
X83386602Y-80483244D01*
X83468681Y-80428400D01*
X83565500Y-80409142D01*
X83668403Y-80431014D01*
G37*
G04 #@! TD.AperFunction*
G04 #@! TA.AperFunction,NonConductor*
G36*
X89910719Y-80325884D02*
G01*
X89962606Y-80354942D01*
X89992385Y-80376578D01*
X90157248Y-80449980D01*
X90170214Y-80452736D01*
X90170217Y-80452737D01*
X90286654Y-80477486D01*
X90333768Y-80487500D01*
X90514232Y-80487500D01*
X90625903Y-80463764D01*
X90724607Y-80462473D01*
X90816295Y-80499053D01*
X90887005Y-80567936D01*
X90925972Y-80658636D01*
X90931500Y-80711236D01*
X90931500Y-89828500D01*
X90912242Y-89925319D01*
X90857398Y-90007398D01*
X90775319Y-90062242D01*
X90678500Y-90081500D01*
X89813900Y-90081500D01*
X89717081Y-90062242D01*
X89635002Y-90007398D01*
X89580158Y-89925319D01*
X89560900Y-89828500D01*
X89560900Y-80559626D01*
X89580158Y-80462807D01*
X89635002Y-80380728D01*
X89717081Y-80325884D01*
X89813900Y-80306626D01*
X89910719Y-80325884D01*
G37*
G04 #@! TD.AperFunction*
G04 #@! TA.AperFunction,NonConductor*
G36*
X82138319Y-89352555D02*
G01*
X82190210Y-89381616D01*
X82317364Y-89473999D01*
X82482227Y-89547401D01*
X82495193Y-89550157D01*
X82495196Y-89550158D01*
X82640436Y-89581029D01*
X82731135Y-89619996D01*
X82800018Y-89690706D01*
X82836598Y-89782394D01*
X82835306Y-89881101D01*
X82796339Y-89971800D01*
X82725629Y-90040683D01*
X82633941Y-90077263D01*
X82587835Y-90081500D01*
X82041500Y-90081500D01*
X81944681Y-90062242D01*
X81862602Y-90007398D01*
X81807758Y-89925319D01*
X81788500Y-89828500D01*
X81788500Y-89586297D01*
X81807758Y-89489478D01*
X81862602Y-89407399D01*
X81944681Y-89352555D01*
X82041500Y-89333297D01*
X82138319Y-89352555D01*
G37*
G04 #@! TD.AperFunction*
G04 #@! TA.AperFunction,NonConductor*
G36*
X82926719Y-92817758D02*
G01*
X83008798Y-92872602D01*
X83063642Y-92954681D01*
X83082900Y-93051500D01*
X83082900Y-100517552D01*
X83063642Y-100614371D01*
X83008798Y-100696450D01*
X82926719Y-100751294D01*
X82882511Y-100765021D01*
X82816648Y-100779020D01*
X82804542Y-100784410D01*
X82804539Y-100784411D01*
X82665605Y-100846269D01*
X82569323Y-100868055D01*
X82472033Y-100851338D01*
X82459795Y-100846269D01*
X82320861Y-100784411D01*
X82320859Y-100784410D01*
X82308752Y-100779020D01*
X82295786Y-100776264D01*
X82295783Y-100776263D01*
X82178310Y-100751294D01*
X82132232Y-100741500D01*
X82041500Y-100741500D01*
X81944681Y-100722242D01*
X81862602Y-100667398D01*
X81807758Y-100585319D01*
X81788500Y-100488500D01*
X81788500Y-93051500D01*
X81807758Y-92954681D01*
X81862602Y-92872602D01*
X81944681Y-92817758D01*
X82041500Y-92798500D01*
X82829900Y-92798500D01*
X82926719Y-92817758D01*
G37*
G04 #@! TD.AperFunction*
G04 #@! TA.AperFunction,NonConductor*
G36*
X82653367Y-102348662D02*
G01*
X82665605Y-102353731D01*
X82804539Y-102415589D01*
X82804541Y-102415590D01*
X82816648Y-102420980D01*
X82882505Y-102434978D01*
X82973199Y-102473943D01*
X83042083Y-102544653D01*
X83078663Y-102636341D01*
X83082900Y-102682448D01*
X83082900Y-105068500D01*
X83063642Y-105165319D01*
X83008798Y-105247398D01*
X82926719Y-105302242D01*
X82829900Y-105321500D01*
X82041500Y-105321500D01*
X81944681Y-105302242D01*
X81862602Y-105247398D01*
X81807758Y-105165319D01*
X81788500Y-105068500D01*
X81788500Y-102711500D01*
X81807758Y-102614681D01*
X81862602Y-102532602D01*
X81944681Y-102477758D01*
X82041500Y-102458500D01*
X82132232Y-102458500D01*
X82179346Y-102448486D01*
X82295783Y-102423737D01*
X82295786Y-102423736D01*
X82308752Y-102420980D01*
X82320859Y-102415590D01*
X82320861Y-102415589D01*
X82459795Y-102353731D01*
X82556077Y-102331945D01*
X82653367Y-102348662D01*
G37*
G04 #@! TD.AperFunction*
G04 #@! TA.AperFunction,NonConductor*
G36*
X90775319Y-92817758D02*
G01*
X90857398Y-92872602D01*
X90912242Y-92954681D01*
X90931500Y-93051500D01*
X90931500Y-105068500D01*
X90912242Y-105165319D01*
X90857398Y-105247398D01*
X90775319Y-105302242D01*
X90678500Y-105321500D01*
X89813900Y-105321500D01*
X89717081Y-105302242D01*
X89635002Y-105247398D01*
X89580158Y-105165319D01*
X89560900Y-105068500D01*
X89560900Y-93051500D01*
X89580158Y-92954681D01*
X89635002Y-92872602D01*
X89717081Y-92817758D01*
X89813900Y-92798500D01*
X90678500Y-92798500D01*
X90775319Y-92817758D01*
G37*
G04 #@! TD.AperFunction*
G04 #@! TA.AperFunction,NonConductor*
G36*
X82926719Y-108057758D02*
G01*
X83008798Y-108112602D01*
X83063642Y-108194681D01*
X83082900Y-108291500D01*
X83082900Y-120308500D01*
X83063642Y-120405319D01*
X83008798Y-120487398D01*
X82926719Y-120542242D01*
X82829900Y-120561500D01*
X82041500Y-120561500D01*
X81944681Y-120542242D01*
X81862602Y-120487398D01*
X81807758Y-120405319D01*
X81788500Y-120308500D01*
X81788500Y-108291500D01*
X81807758Y-108194681D01*
X81862602Y-108112602D01*
X81944681Y-108057758D01*
X82041500Y-108038500D01*
X82829900Y-108038500D01*
X82926719Y-108057758D01*
G37*
G04 #@! TD.AperFunction*
G04 #@! TA.AperFunction,NonConductor*
G36*
X90775319Y-108057758D02*
G01*
X90857398Y-108112602D01*
X90912242Y-108194681D01*
X90931500Y-108291500D01*
X90931500Y-120308500D01*
X90912242Y-120405319D01*
X90857398Y-120487398D01*
X90775319Y-120542242D01*
X90678500Y-120561500D01*
X89813900Y-120561500D01*
X89717081Y-120542242D01*
X89635002Y-120487398D01*
X89580158Y-120405319D01*
X89560900Y-120308500D01*
X89560900Y-108291500D01*
X89580158Y-108194681D01*
X89635002Y-108112602D01*
X89717081Y-108057758D01*
X89813900Y-108038500D01*
X90678500Y-108038500D01*
X90775319Y-108057758D01*
G37*
G04 #@! TD.AperFunction*
G04 #@! TA.AperFunction,NonConductor*
G36*
X82926719Y-123297758D02*
G01*
X83008798Y-123352602D01*
X83063642Y-123434681D01*
X83082900Y-123531500D01*
X83082900Y-130966753D01*
X83063642Y-131063572D01*
X83008798Y-131145651D01*
X82926719Y-131200495D01*
X82882513Y-131214221D01*
X82791248Y-131233620D01*
X82779142Y-131239010D01*
X82779139Y-131239011D01*
X82640205Y-131300869D01*
X82543923Y-131322655D01*
X82446633Y-131305938D01*
X82434395Y-131300869D01*
X82295461Y-131239011D01*
X82295459Y-131239010D01*
X82283352Y-131233620D01*
X82270386Y-131230864D01*
X82270383Y-131230863D01*
X82127509Y-131200495D01*
X82106832Y-131196100D01*
X82041500Y-131196100D01*
X81944681Y-131176842D01*
X81862602Y-131121998D01*
X81807758Y-131039919D01*
X81788500Y-130943100D01*
X81788500Y-123531500D01*
X81807758Y-123434681D01*
X81862602Y-123352602D01*
X81944681Y-123297758D01*
X82041500Y-123278500D01*
X82829900Y-123278500D01*
X82926719Y-123297758D01*
G37*
G04 #@! TD.AperFunction*
G04 #@! TA.AperFunction,NonConductor*
G36*
X82627967Y-132803262D02*
G01*
X82640205Y-132808331D01*
X82779139Y-132870189D01*
X82779141Y-132870190D01*
X82791248Y-132875580D01*
X82882506Y-132894977D01*
X82973200Y-132933942D01*
X83042083Y-133004652D01*
X83078663Y-133096340D01*
X83082900Y-133142447D01*
X83082900Y-135548500D01*
X83063642Y-135645319D01*
X83008798Y-135727398D01*
X82926719Y-135782242D01*
X82829900Y-135801500D01*
X82041500Y-135801500D01*
X81944681Y-135782242D01*
X81862602Y-135727398D01*
X81807758Y-135645319D01*
X81788500Y-135548500D01*
X81788500Y-133166100D01*
X81807758Y-133069281D01*
X81862602Y-132987202D01*
X81944681Y-132932358D01*
X82041500Y-132913100D01*
X82106832Y-132913100D01*
X82192105Y-132894975D01*
X82270383Y-132878337D01*
X82270386Y-132878336D01*
X82283352Y-132875580D01*
X82295459Y-132870190D01*
X82295461Y-132870189D01*
X82434395Y-132808331D01*
X82530677Y-132786545D01*
X82627967Y-132803262D01*
G37*
G04 #@! TD.AperFunction*
G04 #@! TA.AperFunction,NonConductor*
G36*
X90775319Y-123297758D02*
G01*
X90857398Y-123352602D01*
X90912242Y-123434681D01*
X90931500Y-123531500D01*
X90931500Y-135548500D01*
X90912242Y-135645319D01*
X90857398Y-135727398D01*
X90775319Y-135782242D01*
X90678500Y-135801500D01*
X89813900Y-135801500D01*
X89717081Y-135782242D01*
X89635002Y-135727398D01*
X89580158Y-135645319D01*
X89560900Y-135548500D01*
X89560900Y-123531500D01*
X89580158Y-123434681D01*
X89635002Y-123352602D01*
X89717081Y-123297758D01*
X89813900Y-123278500D01*
X90678500Y-123278500D01*
X90775319Y-123297758D01*
G37*
G04 #@! TD.AperFunction*
G04 #@! TA.AperFunction,NonConductor*
G36*
X84018919Y-138334863D02*
G01*
X84100998Y-138389707D01*
X84155842Y-138471786D01*
X84175100Y-138568605D01*
X84175100Y-149843214D01*
X84155842Y-149940033D01*
X84100998Y-150022112D01*
X83155712Y-150967398D01*
X83073633Y-151022242D01*
X82976814Y-151041500D01*
X82041500Y-151041500D01*
X81944681Y-151022242D01*
X81862602Y-150967398D01*
X81807758Y-150885319D01*
X81788500Y-150788500D01*
X81788500Y-138771500D01*
X81807758Y-138674681D01*
X81862602Y-138592602D01*
X81944681Y-138537758D01*
X82041500Y-138518500D01*
X83448134Y-138518500D01*
X83454942Y-138517760D01*
X83454950Y-138517760D01*
X83494542Y-138513459D01*
X83494545Y-138513458D01*
X83510316Y-138511745D01*
X83578604Y-138486145D01*
X83629826Y-138466943D01*
X83629828Y-138466942D01*
X83646705Y-138460615D01*
X83661126Y-138449807D01*
X83661128Y-138449806D01*
X83763261Y-138373261D01*
X83764781Y-138375289D01*
X83825281Y-138334863D01*
X83922100Y-138315605D01*
X84018919Y-138334863D01*
G37*
G04 #@! TD.AperFunction*
G04 #@! TA.AperFunction,NonConductor*
G36*
X88818519Y-138247770D02*
G01*
X88900598Y-138302614D01*
X88924152Y-138329781D01*
X88927961Y-138334863D01*
X88956739Y-138373261D01*
X88971160Y-138384069D01*
X89058872Y-138449806D01*
X89058874Y-138449807D01*
X89073295Y-138460615D01*
X89090172Y-138466942D01*
X89090174Y-138466943D01*
X89141396Y-138486145D01*
X89209684Y-138511745D01*
X89225455Y-138513458D01*
X89225458Y-138513459D01*
X89265050Y-138517760D01*
X89265058Y-138517760D01*
X89271866Y-138518500D01*
X90678500Y-138518500D01*
X90775319Y-138537758D01*
X90857398Y-138592602D01*
X90912242Y-138674681D01*
X90931500Y-138771500D01*
X90931500Y-150788500D01*
X90912242Y-150885319D01*
X90857398Y-150967398D01*
X90775319Y-151022242D01*
X90678500Y-151041500D01*
X89743186Y-151041500D01*
X89646367Y-151022242D01*
X89564288Y-150967398D01*
X88542802Y-149945912D01*
X88487958Y-149863833D01*
X88468700Y-149767014D01*
X88468700Y-138481512D01*
X88487958Y-138384693D01*
X88542802Y-138302614D01*
X88624881Y-138247770D01*
X88721700Y-138228512D01*
X88818519Y-138247770D01*
G37*
G04 #@! TD.AperFunction*
G04 #@! TA.AperFunction,NonConductor*
G36*
X85034919Y-150962844D02*
G01*
X85116998Y-151017688D01*
X85171842Y-151099767D01*
X85191100Y-151196586D01*
X85191100Y-164067214D01*
X85171842Y-164164033D01*
X85116998Y-164246112D01*
X83155712Y-166207398D01*
X83073633Y-166262242D01*
X82976814Y-166281500D01*
X82041500Y-166281500D01*
X81944681Y-166262242D01*
X81862602Y-166207398D01*
X81807758Y-166125319D01*
X81788500Y-166028500D01*
X81788500Y-163646100D01*
X81807758Y-163549281D01*
X81862602Y-163467202D01*
X81944681Y-163412358D01*
X82041500Y-163393100D01*
X82132232Y-163393100D01*
X82179346Y-163383086D01*
X82295783Y-163358337D01*
X82295786Y-163358336D01*
X82308752Y-163355580D01*
X82320859Y-163350190D01*
X82320861Y-163350189D01*
X82459795Y-163288331D01*
X82556077Y-163266545D01*
X82653367Y-163283262D01*
X82665605Y-163288331D01*
X82804539Y-163350189D01*
X82804541Y-163350190D01*
X82816648Y-163355580D01*
X82829614Y-163358336D01*
X82829617Y-163358337D01*
X82946054Y-163383086D01*
X82993168Y-163393100D01*
X83173632Y-163393100D01*
X83220746Y-163383086D01*
X83337183Y-163358337D01*
X83337186Y-163358336D01*
X83350152Y-163355580D01*
X83515015Y-163282178D01*
X83661013Y-163176104D01*
X83781767Y-163041993D01*
X83871999Y-162885707D01*
X83927765Y-162714075D01*
X83946629Y-162534600D01*
X83927765Y-162355125D01*
X83871999Y-162183493D01*
X83781767Y-162027207D01*
X83661013Y-161893096D01*
X83515015Y-161787022D01*
X83350152Y-161713620D01*
X83337186Y-161710864D01*
X83337183Y-161710863D01*
X83220746Y-161686114D01*
X83173632Y-161676100D01*
X82993168Y-161676100D01*
X82946054Y-161686114D01*
X82829617Y-161710863D01*
X82829614Y-161710864D01*
X82816648Y-161713620D01*
X82804542Y-161719010D01*
X82804539Y-161719011D01*
X82665605Y-161780869D01*
X82569323Y-161802655D01*
X82472033Y-161785938D01*
X82459795Y-161780869D01*
X82320861Y-161719011D01*
X82320859Y-161719010D01*
X82308752Y-161713620D01*
X82295786Y-161710864D01*
X82295783Y-161710863D01*
X82179346Y-161686114D01*
X82132232Y-161676100D01*
X82041500Y-161676100D01*
X81944681Y-161656842D01*
X81862602Y-161601998D01*
X81807758Y-161519919D01*
X81788500Y-161423100D01*
X81788500Y-154011500D01*
X81807758Y-153914681D01*
X81862602Y-153832602D01*
X81944681Y-153777758D01*
X82041500Y-153758500D01*
X83448134Y-153758500D01*
X83454942Y-153757760D01*
X83454950Y-153757760D01*
X83494542Y-153753459D01*
X83494545Y-153753458D01*
X83510316Y-153751745D01*
X83578604Y-153726145D01*
X83629826Y-153706943D01*
X83629828Y-153706942D01*
X83646705Y-153700615D01*
X83661126Y-153689807D01*
X83661128Y-153689806D01*
X83748840Y-153624069D01*
X83763261Y-153613261D01*
X83850615Y-153496705D01*
X83901745Y-153360316D01*
X83908500Y-153298134D01*
X83908500Y-151973186D01*
X83927758Y-151876367D01*
X83982602Y-151794288D01*
X84759202Y-151017688D01*
X84841281Y-150962844D01*
X84938100Y-150943586D01*
X85034919Y-150962844D01*
G37*
G04 #@! TD.AperFunction*
G04 #@! TA.AperFunction,NonConductor*
G36*
X87872630Y-150956755D02*
G01*
X87954709Y-151011599D01*
X88737398Y-151794288D01*
X88792242Y-151876367D01*
X88811500Y-151973186D01*
X88811500Y-153298134D01*
X88818255Y-153360316D01*
X88869385Y-153496705D01*
X88956739Y-153613261D01*
X88971160Y-153624069D01*
X89058872Y-153689806D01*
X89058874Y-153689807D01*
X89073295Y-153700615D01*
X89090172Y-153706942D01*
X89090174Y-153706943D01*
X89141396Y-153726145D01*
X89209684Y-153751745D01*
X89225455Y-153753458D01*
X89225458Y-153753459D01*
X89265050Y-153757760D01*
X89265058Y-153757760D01*
X89271866Y-153758500D01*
X90678500Y-153758500D01*
X90775319Y-153777758D01*
X90857398Y-153832602D01*
X90912242Y-153914681D01*
X90931500Y-154011500D01*
X90931500Y-166028500D01*
X90912242Y-166125319D01*
X90857398Y-166207398D01*
X90775319Y-166262242D01*
X90678500Y-166281500D01*
X89743186Y-166281500D01*
X89646367Y-166262242D01*
X89564288Y-166207398D01*
X87596913Y-164240023D01*
X87542069Y-164157944D01*
X87522811Y-164061125D01*
X87522811Y-151190497D01*
X87542069Y-151093678D01*
X87596913Y-151011599D01*
X87678992Y-150956755D01*
X87775811Y-150937497D01*
X87872630Y-150956755D01*
G37*
G04 #@! TD.AperFunction*
G04 #@! TA.AperFunction,NonConductor*
G36*
X86001382Y-165245080D02*
G01*
X86081130Y-165280586D01*
X86081141Y-165280590D01*
X86093248Y-165285980D01*
X86106214Y-165288736D01*
X86106217Y-165288737D01*
X86222654Y-165313486D01*
X86269768Y-165323500D01*
X86450232Y-165323500D01*
X86497346Y-165313486D01*
X86613783Y-165288737D01*
X86613786Y-165288736D01*
X86626752Y-165285980D01*
X86638859Y-165280590D01*
X86638870Y-165280586D01*
X86718618Y-165245080D01*
X86814899Y-165223294D01*
X86912189Y-165240012D01*
X87000419Y-165297309D01*
X88737398Y-167034288D01*
X88792242Y-167116367D01*
X88811500Y-167213186D01*
X88811500Y-168538134D01*
X88818255Y-168600316D01*
X88869385Y-168736705D01*
X88956739Y-168853261D01*
X88971160Y-168864069D01*
X89058872Y-168929806D01*
X89058874Y-168929807D01*
X89073295Y-168940615D01*
X89090172Y-168946942D01*
X89090174Y-168946943D01*
X89141396Y-168966145D01*
X89209684Y-168991745D01*
X89225455Y-168993458D01*
X89225458Y-168993459D01*
X89265050Y-168997760D01*
X89265058Y-168997760D01*
X89271866Y-168998500D01*
X90678500Y-168998500D01*
X90775319Y-169017758D01*
X90857398Y-169072602D01*
X90912242Y-169154681D01*
X90931500Y-169251500D01*
X90931500Y-173648500D01*
X90912242Y-173745319D01*
X90857398Y-173827398D01*
X90775319Y-173882242D01*
X90678500Y-173901500D01*
X89271866Y-173901500D01*
X89265058Y-173902240D01*
X89265050Y-173902240D01*
X89225458Y-173906541D01*
X89225455Y-173906542D01*
X89209684Y-173908255D01*
X89141396Y-173933855D01*
X89090174Y-173953057D01*
X89090172Y-173953058D01*
X89073295Y-173959385D01*
X89058874Y-173970193D01*
X89058872Y-173970194D01*
X88971160Y-174035931D01*
X88956739Y-174046739D01*
X88869385Y-174163295D01*
X88818255Y-174299684D01*
X88811500Y-174361866D01*
X88811500Y-176158134D01*
X88818255Y-176220316D01*
X88869385Y-176356705D01*
X88880192Y-176371125D01*
X88880196Y-176371132D01*
X88885547Y-176378271D01*
X88928200Y-176467296D01*
X88933539Y-176565867D01*
X88900749Y-176658978D01*
X88885547Y-176681729D01*
X88880196Y-176688868D01*
X88880192Y-176688875D01*
X88869385Y-176703295D01*
X88818255Y-176839684D01*
X88811500Y-176901866D01*
X88811500Y-178698134D01*
X88818255Y-178760316D01*
X88869385Y-178896705D01*
X88956739Y-179013261D01*
X88971160Y-179024069D01*
X89058872Y-179089806D01*
X89058874Y-179089807D01*
X89073295Y-179100615D01*
X89090172Y-179106942D01*
X89090174Y-179106943D01*
X89141396Y-179126145D01*
X89209684Y-179151745D01*
X89225455Y-179153458D01*
X89225458Y-179153459D01*
X89265050Y-179157760D01*
X89265058Y-179157760D01*
X89271866Y-179158500D01*
X90542813Y-179158500D01*
X90639632Y-179177758D01*
X90721711Y-179232602D01*
X90776555Y-179314681D01*
X90795813Y-179411500D01*
X90776555Y-179508319D01*
X90738379Y-179572008D01*
X90724264Y-179589206D01*
X90689200Y-179624269D01*
X90612329Y-179687356D01*
X90571094Y-179714909D01*
X90483388Y-179761788D01*
X90437573Y-179780765D01*
X90342407Y-179809634D01*
X90293761Y-179819311D01*
X90259083Y-179822726D01*
X90208405Y-179827717D01*
X90190315Y-179828495D01*
X90176276Y-179826309D01*
X90152912Y-179829364D01*
X90120110Y-179831500D01*
X82609195Y-179831500D01*
X82578666Y-179829138D01*
X82574085Y-179829082D01*
X82556276Y-179826309D01*
X82538404Y-179828646D01*
X82529438Y-179828536D01*
X82507740Y-179827337D01*
X82426236Y-179819310D01*
X82377593Y-179809634D01*
X82282427Y-179780765D01*
X82236612Y-179761788D01*
X82148906Y-179714909D01*
X82107671Y-179687356D01*
X82030800Y-179624269D01*
X81995736Y-179589206D01*
X81981621Y-179572008D01*
X81935084Y-179484950D01*
X81925404Y-179386710D01*
X81954057Y-179292244D01*
X82016679Y-179215934D01*
X82103737Y-179169397D01*
X82177187Y-179158500D01*
X83448134Y-179158500D01*
X83454942Y-179157760D01*
X83454950Y-179157760D01*
X83494542Y-179153459D01*
X83494545Y-179153458D01*
X83510316Y-179151745D01*
X83578604Y-179126145D01*
X83629826Y-179106943D01*
X83629828Y-179106942D01*
X83646705Y-179100615D01*
X83661126Y-179089807D01*
X83661128Y-179089806D01*
X83748840Y-179024069D01*
X83763261Y-179013261D01*
X83850615Y-178896705D01*
X83901745Y-178760316D01*
X83908500Y-178698134D01*
X83908500Y-176901866D01*
X83901745Y-176839684D01*
X83850615Y-176703295D01*
X83839808Y-176688875D01*
X83839804Y-176688868D01*
X83834453Y-176681729D01*
X83791800Y-176592704D01*
X83786461Y-176494133D01*
X83819251Y-176401022D01*
X83834453Y-176378271D01*
X83839804Y-176371132D01*
X83839808Y-176371125D01*
X83850615Y-176356705D01*
X83901745Y-176220316D01*
X83908500Y-176158134D01*
X83908500Y-175895000D01*
X85496771Y-175895000D01*
X85515635Y-176074475D01*
X85519731Y-176087080D01*
X85519731Y-176087082D01*
X85542212Y-176156272D01*
X85571401Y-176246107D01*
X85661633Y-176402393D01*
X85782387Y-176536504D01*
X85793108Y-176544294D01*
X85793110Y-176544295D01*
X85851529Y-176586739D01*
X85928385Y-176642578D01*
X86093248Y-176715980D01*
X86106214Y-176718736D01*
X86106217Y-176718737D01*
X86222654Y-176743486D01*
X86269768Y-176753500D01*
X86450232Y-176753500D01*
X86497346Y-176743486D01*
X86613783Y-176718737D01*
X86613786Y-176718736D01*
X86626752Y-176715980D01*
X86791615Y-176642578D01*
X86868471Y-176586739D01*
X86926890Y-176544295D01*
X86926892Y-176544294D01*
X86937613Y-176536504D01*
X87058367Y-176402393D01*
X87148599Y-176246107D01*
X87177788Y-176156272D01*
X87200269Y-176087082D01*
X87200269Y-176087080D01*
X87204365Y-176074475D01*
X87223229Y-175895000D01*
X87204365Y-175715525D01*
X87148599Y-175543893D01*
X87058367Y-175387607D01*
X86937613Y-175253496D01*
X86791615Y-175147422D01*
X86626752Y-175074020D01*
X86613786Y-175071264D01*
X86613783Y-175071263D01*
X86497346Y-175046514D01*
X86450232Y-175036500D01*
X86269768Y-175036500D01*
X86222654Y-175046514D01*
X86106217Y-175071263D01*
X86106214Y-175071264D01*
X86093248Y-175074020D01*
X86081142Y-175079410D01*
X86081139Y-175079411D01*
X85940493Y-175142031D01*
X85940489Y-175142033D01*
X85928386Y-175147422D01*
X85782387Y-175253496D01*
X85661633Y-175387607D01*
X85571401Y-175543893D01*
X85515635Y-175715525D01*
X85496771Y-175895000D01*
X83908500Y-175895000D01*
X83908500Y-174361866D01*
X83901745Y-174299684D01*
X83850615Y-174163295D01*
X83763261Y-174046739D01*
X83748840Y-174035931D01*
X83661128Y-173970194D01*
X83661126Y-173970193D01*
X83646705Y-173959385D01*
X83629828Y-173953058D01*
X83629826Y-173953057D01*
X83578604Y-173933855D01*
X83510316Y-173908255D01*
X83494545Y-173906542D01*
X83494542Y-173906541D01*
X83454950Y-173902240D01*
X83454942Y-173902240D01*
X83448134Y-173901500D01*
X82041500Y-173901500D01*
X81944681Y-173882242D01*
X81862602Y-173827398D01*
X81807758Y-173745319D01*
X81788500Y-173648500D01*
X81788500Y-172085000D01*
X85496771Y-172085000D01*
X85515635Y-172264475D01*
X85571401Y-172436107D01*
X85661633Y-172592393D01*
X85782387Y-172726504D01*
X85928385Y-172832578D01*
X86093248Y-172905980D01*
X86106214Y-172908736D01*
X86106217Y-172908737D01*
X86222654Y-172933486D01*
X86269768Y-172943500D01*
X86450232Y-172943500D01*
X86497346Y-172933486D01*
X86613783Y-172908737D01*
X86613786Y-172908736D01*
X86626752Y-172905980D01*
X86791615Y-172832578D01*
X86937613Y-172726504D01*
X87058367Y-172592393D01*
X87148599Y-172436107D01*
X87204365Y-172264475D01*
X87223229Y-172085000D01*
X87204365Y-171905525D01*
X87148599Y-171733893D01*
X87058367Y-171577607D01*
X86937613Y-171443496D01*
X86791615Y-171337422D01*
X86626752Y-171264020D01*
X86613786Y-171261264D01*
X86613783Y-171261263D01*
X86497346Y-171236514D01*
X86450232Y-171226500D01*
X86269768Y-171226500D01*
X86222654Y-171236514D01*
X86106217Y-171261263D01*
X86106214Y-171261264D01*
X86093248Y-171264020D01*
X86081142Y-171269410D01*
X86081139Y-171269411D01*
X85940493Y-171332031D01*
X85940489Y-171332033D01*
X85928386Y-171337422D01*
X85782387Y-171443496D01*
X85661633Y-171577607D01*
X85571401Y-171733893D01*
X85515635Y-171905525D01*
X85496771Y-172085000D01*
X81788500Y-172085000D01*
X81788500Y-169251500D01*
X81807758Y-169154681D01*
X81862602Y-169072602D01*
X81944681Y-169017758D01*
X82041500Y-168998500D01*
X83448134Y-168998500D01*
X83454942Y-168997760D01*
X83454950Y-168997760D01*
X83494542Y-168993459D01*
X83494545Y-168993458D01*
X83510316Y-168991745D01*
X83578604Y-168966145D01*
X83629826Y-168946943D01*
X83629828Y-168946942D01*
X83646705Y-168940615D01*
X83661126Y-168929807D01*
X83661128Y-168929806D01*
X83748840Y-168864069D01*
X83763261Y-168853261D01*
X83850615Y-168736705D01*
X83901745Y-168600316D01*
X83908500Y-168538134D01*
X83908500Y-168275000D01*
X85496771Y-168275000D01*
X85515635Y-168454475D01*
X85519731Y-168467080D01*
X85519731Y-168467082D01*
X85542212Y-168536272D01*
X85571401Y-168626107D01*
X85661633Y-168782393D01*
X85782387Y-168916504D01*
X85793108Y-168924294D01*
X85793110Y-168924295D01*
X85917660Y-169014786D01*
X85928385Y-169022578D01*
X86093248Y-169095980D01*
X86106214Y-169098736D01*
X86106217Y-169098737D01*
X86222654Y-169123486D01*
X86269768Y-169133500D01*
X86450232Y-169133500D01*
X86497346Y-169123486D01*
X86613783Y-169098737D01*
X86613786Y-169098736D01*
X86626752Y-169095980D01*
X86791615Y-169022578D01*
X86802340Y-169014786D01*
X86926890Y-168924295D01*
X86926892Y-168924294D01*
X86937613Y-168916504D01*
X87058367Y-168782393D01*
X87148599Y-168626107D01*
X87177788Y-168536272D01*
X87200269Y-168467082D01*
X87200269Y-168467080D01*
X87204365Y-168454475D01*
X87223229Y-168275000D01*
X87204365Y-168095525D01*
X87148599Y-167923893D01*
X87058367Y-167767607D01*
X86937613Y-167633496D01*
X86791615Y-167527422D01*
X86626752Y-167454020D01*
X86613786Y-167451264D01*
X86613783Y-167451263D01*
X86497346Y-167426514D01*
X86450232Y-167416500D01*
X86269768Y-167416500D01*
X86222654Y-167426514D01*
X86106217Y-167451263D01*
X86106214Y-167451264D01*
X86093248Y-167454020D01*
X86081142Y-167459410D01*
X86081139Y-167459411D01*
X85940493Y-167522031D01*
X85940489Y-167522033D01*
X85928386Y-167527422D01*
X85782387Y-167633496D01*
X85661633Y-167767607D01*
X85571401Y-167923893D01*
X85515635Y-168095525D01*
X85496771Y-168275000D01*
X83908500Y-168275000D01*
X83908500Y-167213186D01*
X83927758Y-167116367D01*
X83982602Y-167034288D01*
X85719581Y-165297309D01*
X85801660Y-165242465D01*
X85898479Y-165223207D01*
X86001382Y-165245080D01*
G37*
G04 #@! TD.AperFunction*
M02*
