G04 #@! TF.GenerationSoftware,KiCad,Pcbnew,(6.0.4)*
G04 #@! TF.CreationDate,2023-09-16T16:18:12-06:00*
G04 #@! TF.ProjectId,RP2040-Breadstick,52503230-3430-42d4-9272-656164737469,0.2*
G04 #@! TF.SameCoordinates,Original*
G04 #@! TF.FileFunction,Legend,Top*
G04 #@! TF.FilePolarity,Positive*
%FSLAX46Y46*%
G04 Gerber Fmt 4.6, Leading zero omitted, Abs format (unit mm)*
G04 Created by KiCad (PCBNEW (6.0.4)) date 2023-09-16 16:18:12*
%MOMM*%
%LPD*%
G01*
G04 APERTURE LIST*
%ADD10C,0.150000*%
%ADD11C,0.202000*%
%ADD12C,0.329000*%
%ADD13C,0.300000*%
%ADD14C,0.212500*%
%ADD15C,0.254000*%
%ADD16C,0.127000*%
%ADD17C,0.100000*%
%ADD18C,0.200000*%
%ADD19C,0.120000*%
G04 APERTURE END LIST*
D10*
X88265000Y-83820000D02*
X90297000Y-83820000D01*
G36*
X90805000Y-83820000D02*
G01*
X90297000Y-84074000D01*
X90297000Y-83566000D01*
X90805000Y-83820000D01*
G37*
X90805000Y-83820000D02*
X90297000Y-84074000D01*
X90297000Y-83566000D01*
X90805000Y-83820000D01*
G36*
X84582000Y-83820000D02*
G01*
X84074000Y-84074000D01*
X84074000Y-83566000D01*
X84582000Y-83820000D01*
G37*
X84582000Y-83820000D02*
X84074000Y-84074000D01*
X84074000Y-83566000D01*
X84582000Y-83820000D01*
X88265000Y-81026000D02*
X88265000Y-83820000D01*
D11*
X84361000Y-75200000D02*
G75*
G03*
X84361000Y-75200000I-101000J0D01*
G01*
D10*
G36*
X82296000Y-81026000D02*
G01*
X81788000Y-81026000D01*
X82042000Y-80518000D01*
X82296000Y-81026000D01*
G37*
X82296000Y-81026000D02*
X81788000Y-81026000D01*
X82042000Y-80518000D01*
X82296000Y-81026000D01*
X82042000Y-83820000D02*
X84074000Y-83820000D01*
D12*
X82206500Y-83820000D02*
G75*
G03*
X82206500Y-83820000I-164500J0D01*
G01*
D10*
X82042000Y-81026000D02*
X82042000Y-83820000D01*
G36*
X88519000Y-81026000D02*
G01*
X88011000Y-81026000D01*
X88265000Y-80518000D01*
X88519000Y-81026000D01*
G37*
X88519000Y-81026000D02*
X88011000Y-81026000D01*
X88265000Y-80518000D01*
X88519000Y-81026000D01*
D11*
X85699000Y-87503000D02*
G75*
G03*
X85699000Y-87503000I-101000J0D01*
G01*
D12*
X88429500Y-83820000D02*
G75*
G03*
X88429500Y-83820000I-164500J0D01*
G01*
D13*
X89217619Y-47059523D02*
X89277142Y-47000000D01*
X89396190Y-46940476D01*
X89693809Y-46940476D01*
X89812857Y-47000000D01*
X89872380Y-47059523D01*
X89931904Y-47178571D01*
X89931904Y-47297619D01*
X89872380Y-47476190D01*
X89158095Y-48190476D01*
X89931904Y-48190476D01*
X90527142Y-48190476D02*
X90765238Y-48190476D01*
X90884285Y-48130952D01*
X90943809Y-48071428D01*
X91062857Y-47892857D01*
X91122380Y-47654761D01*
X91122380Y-47178571D01*
X91062857Y-47059523D01*
X91003333Y-47000000D01*
X90884285Y-46940476D01*
X90646190Y-46940476D01*
X90527142Y-47000000D01*
X90467619Y-47059523D01*
X90408095Y-47178571D01*
X90408095Y-47476190D01*
X90467619Y-47595238D01*
X90527142Y-47654761D01*
X90646190Y-47714285D01*
X90884285Y-47714285D01*
X91003333Y-47654761D01*
X91062857Y-47595238D01*
X91122380Y-47476190D01*
X86121904Y-161542934D02*
X85407619Y-161542934D01*
X85764761Y-161542934D02*
X85764761Y-160292934D01*
X85645714Y-160471505D01*
X85526666Y-160590553D01*
X85407619Y-160650077D01*
X86717142Y-161542934D02*
X86955238Y-161542934D01*
X87074285Y-161483410D01*
X87133809Y-161423886D01*
X87252857Y-161245315D01*
X87312380Y-161007219D01*
X87312380Y-160531029D01*
X87252857Y-160411981D01*
X87193333Y-160352458D01*
X87074285Y-160292934D01*
X86836190Y-160292934D01*
X86717142Y-160352458D01*
X86657619Y-160411981D01*
X86598095Y-160531029D01*
X86598095Y-160828648D01*
X86657619Y-160947696D01*
X86717142Y-161007219D01*
X86836190Y-161066743D01*
X87074285Y-161066743D01*
X87193333Y-161007219D01*
X87252857Y-160947696D01*
X87312380Y-160828648D01*
X86121904Y-135259460D02*
X85407619Y-135259460D01*
X85764761Y-135259460D02*
X85764761Y-134009460D01*
X85645714Y-134188031D01*
X85526666Y-134307079D01*
X85407619Y-134366603D01*
X86598095Y-134128507D02*
X86657619Y-134068984D01*
X86776666Y-134009460D01*
X87074285Y-134009460D01*
X87193333Y-134068984D01*
X87252857Y-134128507D01*
X87312380Y-134247555D01*
X87312380Y-134366603D01*
X87252857Y-134545174D01*
X86538571Y-135259460D01*
X87312380Y-135259460D01*
X88582619Y-172730000D02*
X88463571Y-172670476D01*
X88285000Y-172670476D01*
X88106428Y-172730000D01*
X87987380Y-172849047D01*
X87927857Y-172968095D01*
X87868333Y-173206190D01*
X87868333Y-173384761D01*
X87927857Y-173622857D01*
X87987380Y-173741904D01*
X88106428Y-173860952D01*
X88285000Y-173920476D01*
X88404047Y-173920476D01*
X88582619Y-173860952D01*
X88642142Y-173801428D01*
X88642142Y-173384761D01*
X88404047Y-173384761D01*
X89177857Y-173920476D02*
X89177857Y-172670476D01*
X89892142Y-173920476D01*
X89892142Y-172670476D01*
X90487380Y-173920476D02*
X90487380Y-172670476D01*
X90785000Y-172670476D01*
X90963571Y-172730000D01*
X91082619Y-172849047D01*
X91142142Y-172968095D01*
X91201666Y-173206190D01*
X91201666Y-173384761D01*
X91142142Y-173622857D01*
X91082619Y-173741904D01*
X90963571Y-173860952D01*
X90785000Y-173920476D01*
X90487380Y-173920476D01*
X86300476Y-88952076D02*
X86419523Y-88952076D01*
X86538571Y-89011600D01*
X86598095Y-89071123D01*
X86657619Y-89190171D01*
X86717142Y-89428266D01*
X86717142Y-89725885D01*
X86657619Y-89963980D01*
X86598095Y-90083028D01*
X86538571Y-90142552D01*
X86419523Y-90202076D01*
X86300476Y-90202076D01*
X86181428Y-90142552D01*
X86121904Y-90083028D01*
X86062380Y-89963980D01*
X86002857Y-89725885D01*
X86002857Y-89428266D01*
X86062380Y-89190171D01*
X86121904Y-89071123D01*
X86181428Y-89011600D01*
X86300476Y-88952076D01*
X89217619Y-92779523D02*
X89277142Y-92720000D01*
X89396190Y-92660476D01*
X89693809Y-92660476D01*
X89812857Y-92720000D01*
X89872380Y-92779523D01*
X89931904Y-92898571D01*
X89931904Y-93017619D01*
X89872380Y-93196190D01*
X89158095Y-93910476D01*
X89931904Y-93910476D01*
X91003333Y-92660476D02*
X90765238Y-92660476D01*
X90646190Y-92720000D01*
X90586666Y-92779523D01*
X90467619Y-92958095D01*
X90408095Y-93196190D01*
X90408095Y-93672380D01*
X90467619Y-93791428D01*
X90527142Y-93850952D01*
X90646190Y-93910476D01*
X90884285Y-93910476D01*
X91003333Y-93850952D01*
X91062857Y-93791428D01*
X91122380Y-93672380D01*
X91122380Y-93374761D01*
X91062857Y-93255714D01*
X91003333Y-93196190D01*
X90884285Y-93136666D01*
X90646190Y-93136666D01*
X90527142Y-93196190D01*
X90467619Y-93255714D01*
X90408095Y-93374761D01*
X84812380Y-34875476D02*
X85586190Y-34875476D01*
X85169523Y-35351666D01*
X85348095Y-35351666D01*
X85467142Y-35411190D01*
X85526666Y-35470714D01*
X85586190Y-35589761D01*
X85586190Y-35887380D01*
X85526666Y-36006428D01*
X85467142Y-36065952D01*
X85348095Y-36125476D01*
X84990952Y-36125476D01*
X84871904Y-36065952D01*
X84812380Y-36006428D01*
X85943333Y-34875476D02*
X86360000Y-36125476D01*
X86776666Y-34875476D01*
X87074285Y-34875476D02*
X87848095Y-34875476D01*
X87431428Y-35351666D01*
X87610000Y-35351666D01*
X87729047Y-35411190D01*
X87788571Y-35470714D01*
X87848095Y-35589761D01*
X87848095Y-35887380D01*
X87788571Y-36006428D01*
X87729047Y-36065952D01*
X87610000Y-36125476D01*
X87252857Y-36125476D01*
X87133809Y-36065952D01*
X87074285Y-36006428D01*
X89217619Y-153739523D02*
X89277142Y-153680000D01*
X89396190Y-153620476D01*
X89693809Y-153620476D01*
X89812857Y-153680000D01*
X89872380Y-153739523D01*
X89931904Y-153858571D01*
X89931904Y-153977619D01*
X89872380Y-154156190D01*
X89158095Y-154870476D01*
X89931904Y-154870476D01*
X90408095Y-153739523D02*
X90467619Y-153680000D01*
X90586666Y-153620476D01*
X90884285Y-153620476D01*
X91003333Y-153680000D01*
X91062857Y-153739523D01*
X91122380Y-153858571D01*
X91122380Y-153977619D01*
X91062857Y-154156190D01*
X90348571Y-154870476D01*
X91122380Y-154870476D01*
X86121904Y-157788152D02*
X85407619Y-157788152D01*
X85764761Y-157788152D02*
X85764761Y-156538152D01*
X85645714Y-156716723D01*
X85526666Y-156835771D01*
X85407619Y-156895295D01*
X86836190Y-157073866D02*
X86717142Y-157014342D01*
X86657619Y-156954818D01*
X86598095Y-156835771D01*
X86598095Y-156776247D01*
X86657619Y-156657199D01*
X86717142Y-156597676D01*
X86836190Y-156538152D01*
X87074285Y-156538152D01*
X87193333Y-156597676D01*
X87252857Y-156657199D01*
X87312380Y-156776247D01*
X87312380Y-156835771D01*
X87252857Y-156954818D01*
X87193333Y-157014342D01*
X87074285Y-157073866D01*
X86836190Y-157073866D01*
X86717142Y-157133390D01*
X86657619Y-157192914D01*
X86598095Y-157311961D01*
X86598095Y-157550056D01*
X86657619Y-157669104D01*
X86717142Y-157728628D01*
X86836190Y-157788152D01*
X87074285Y-157788152D01*
X87193333Y-157728628D01*
X87252857Y-157669104D01*
X87312380Y-157550056D01*
X87312380Y-157311961D01*
X87252857Y-157192914D01*
X87193333Y-157133390D01*
X87074285Y-157073866D01*
X89217619Y-123259523D02*
X89277142Y-123200000D01*
X89396190Y-123140476D01*
X89693809Y-123140476D01*
X89812857Y-123200000D01*
X89872380Y-123259523D01*
X89931904Y-123378571D01*
X89931904Y-123497619D01*
X89872380Y-123676190D01*
X89158095Y-124390476D01*
X89931904Y-124390476D01*
X91003333Y-123557142D02*
X91003333Y-124390476D01*
X90705714Y-123080952D02*
X90408095Y-123973809D01*
X91181904Y-123973809D01*
X84663571Y-54520714D02*
X84842142Y-54580238D01*
X84901666Y-54639761D01*
X84961190Y-54758809D01*
X84961190Y-54937380D01*
X84901666Y-55056428D01*
X84842142Y-55115952D01*
X84723095Y-55175476D01*
X84246904Y-55175476D01*
X84246904Y-53925476D01*
X84663571Y-53925476D01*
X84782619Y-53985000D01*
X84842142Y-54044523D01*
X84901666Y-54163571D01*
X84901666Y-54282619D01*
X84842142Y-54401666D01*
X84782619Y-54461190D01*
X84663571Y-54520714D01*
X84246904Y-54520714D01*
X85735000Y-53925476D02*
X85973095Y-53925476D01*
X86092142Y-53985000D01*
X86211190Y-54104047D01*
X86270714Y-54342142D01*
X86270714Y-54758809D01*
X86211190Y-54996904D01*
X86092142Y-55115952D01*
X85973095Y-55175476D01*
X85735000Y-55175476D01*
X85615952Y-55115952D01*
X85496904Y-54996904D01*
X85437380Y-54758809D01*
X85437380Y-54342142D01*
X85496904Y-54104047D01*
X85615952Y-53985000D01*
X85735000Y-53925476D01*
X87044523Y-53925476D02*
X87282619Y-53925476D01*
X87401666Y-53985000D01*
X87520714Y-54104047D01*
X87580238Y-54342142D01*
X87580238Y-54758809D01*
X87520714Y-54996904D01*
X87401666Y-55115952D01*
X87282619Y-55175476D01*
X87044523Y-55175476D01*
X86925476Y-55115952D01*
X86806428Y-54996904D01*
X86746904Y-54758809D01*
X86746904Y-54342142D01*
X86806428Y-54104047D01*
X86925476Y-53985000D01*
X87044523Y-53925476D01*
X87937380Y-53925476D02*
X88651666Y-53925476D01*
X88294523Y-55175476D02*
X88294523Y-53925476D01*
X85943333Y-115235550D02*
X86776666Y-115235550D01*
X86240952Y-116485550D01*
X85407619Y-164166763D02*
X85467142Y-164107240D01*
X85586190Y-164047716D01*
X85883809Y-164047716D01*
X86002857Y-164107240D01*
X86062380Y-164166763D01*
X86121904Y-164285811D01*
X86121904Y-164404859D01*
X86062380Y-164583430D01*
X85348095Y-165297716D01*
X86121904Y-165297716D01*
X86895714Y-164047716D02*
X87014761Y-164047716D01*
X87133809Y-164107240D01*
X87193333Y-164166763D01*
X87252857Y-164285811D01*
X87312380Y-164523906D01*
X87312380Y-164821525D01*
X87252857Y-165059620D01*
X87193333Y-165178668D01*
X87133809Y-165238192D01*
X87014761Y-165297716D01*
X86895714Y-165297716D01*
X86776666Y-165238192D01*
X86717142Y-165178668D01*
X86657619Y-165059620D01*
X86598095Y-164821525D01*
X86598095Y-164523906D01*
X86657619Y-164285811D01*
X86717142Y-164166763D01*
X86776666Y-164107240D01*
X86895714Y-164047716D01*
X85407619Y-175431123D02*
X85467142Y-175371600D01*
X85586190Y-175312076D01*
X85883809Y-175312076D01*
X86002857Y-175371600D01*
X86062380Y-175431123D01*
X86121904Y-175550171D01*
X86121904Y-175669219D01*
X86062380Y-175847790D01*
X85348095Y-176562076D01*
X86121904Y-176562076D01*
X86538571Y-175312076D02*
X87312380Y-175312076D01*
X86895714Y-175788266D01*
X87074285Y-175788266D01*
X87193333Y-175847790D01*
X87252857Y-175907314D01*
X87312380Y-176026361D01*
X87312380Y-176323980D01*
X87252857Y-176443028D01*
X87193333Y-176502552D01*
X87074285Y-176562076D01*
X86717142Y-176562076D01*
X86598095Y-176502552D01*
X86538571Y-176443028D01*
X86002857Y-96580687D02*
X86062380Y-96521164D01*
X86181428Y-96461640D01*
X86479047Y-96461640D01*
X86598095Y-96521164D01*
X86657619Y-96580687D01*
X86717142Y-96699735D01*
X86717142Y-96818783D01*
X86657619Y-96997354D01*
X85943333Y-97711640D01*
X86717142Y-97711640D01*
D14*
X84044666Y-82465523D02*
X84611333Y-83315523D01*
X84611333Y-82465523D02*
X84044666Y-83315523D01*
D13*
X86240952Y-119526046D02*
X86121904Y-119466522D01*
X86062380Y-119406998D01*
X86002857Y-119287951D01*
X86002857Y-119228427D01*
X86062380Y-119109379D01*
X86121904Y-119049856D01*
X86240952Y-118990332D01*
X86479047Y-118990332D01*
X86598095Y-119049856D01*
X86657619Y-119109379D01*
X86717142Y-119228427D01*
X86717142Y-119287951D01*
X86657619Y-119406998D01*
X86598095Y-119466522D01*
X86479047Y-119526046D01*
X86240952Y-119526046D01*
X86121904Y-119585570D01*
X86062380Y-119645094D01*
X86002857Y-119764141D01*
X86002857Y-120002236D01*
X86062380Y-120121284D01*
X86121904Y-120180808D01*
X86240952Y-120240332D01*
X86479047Y-120240332D01*
X86598095Y-120180808D01*
X86657619Y-120121284D01*
X86717142Y-120002236D01*
X86717142Y-119764141D01*
X86657619Y-119645094D01*
X86598095Y-119585570D01*
X86479047Y-119526046D01*
X81637380Y-85298333D02*
X82232619Y-85298333D01*
X81518333Y-85655476D02*
X81935000Y-84405476D01*
X82351666Y-85655476D01*
X83482619Y-85536428D02*
X83423095Y-85595952D01*
X83244523Y-85655476D01*
X83125476Y-85655476D01*
X82946904Y-85595952D01*
X82827857Y-85476904D01*
X82768333Y-85357857D01*
X82708809Y-85119761D01*
X82708809Y-84941190D01*
X82768333Y-84703095D01*
X82827857Y-84584047D01*
X82946904Y-84465000D01*
X83125476Y-84405476D01*
X83244523Y-84405476D01*
X83423095Y-84465000D01*
X83482619Y-84524523D01*
X84732619Y-85536428D02*
X84673095Y-85595952D01*
X84494523Y-85655476D01*
X84375476Y-85655476D01*
X84196904Y-85595952D01*
X84077857Y-85476904D01*
X84018333Y-85357857D01*
X83958809Y-85119761D01*
X83958809Y-84941190D01*
X84018333Y-84703095D01*
X84077857Y-84584047D01*
X84196904Y-84465000D01*
X84375476Y-84405476D01*
X84494523Y-84405476D01*
X84673095Y-84465000D01*
X84732619Y-84524523D01*
X86717142Y-93956858D02*
X86002857Y-93956858D01*
X86360000Y-93956858D02*
X86360000Y-92706858D01*
X86240952Y-92885429D01*
X86121904Y-93004477D01*
X86002857Y-93064001D01*
X89217619Y-138499523D02*
X89277142Y-138440000D01*
X89396190Y-138380476D01*
X89693809Y-138380476D01*
X89812857Y-138440000D01*
X89872380Y-138499523D01*
X89931904Y-138618571D01*
X89931904Y-138737619D01*
X89872380Y-138916190D01*
X89158095Y-139630476D01*
X89931904Y-139630476D01*
X90348571Y-138380476D02*
X91122380Y-138380476D01*
X90705714Y-138856666D01*
X90884285Y-138856666D01*
X91003333Y-138916190D01*
X91062857Y-138975714D01*
X91122380Y-139094761D01*
X91122380Y-139392380D01*
X91062857Y-139511428D01*
X91003333Y-139570952D01*
X90884285Y-139630476D01*
X90527142Y-139630476D01*
X90408095Y-139570952D01*
X90348571Y-139511428D01*
X85943333Y-100216422D02*
X86717142Y-100216422D01*
X86300476Y-100692612D01*
X86479047Y-100692612D01*
X86598095Y-100752136D01*
X86657619Y-100811660D01*
X86717142Y-100930707D01*
X86717142Y-101228326D01*
X86657619Y-101347374D01*
X86598095Y-101406898D01*
X86479047Y-101466422D01*
X86121904Y-101466422D01*
X86002857Y-101406898D01*
X85943333Y-101347374D01*
X82440952Y-180151428D02*
X82381428Y-180210952D01*
X82202857Y-180270476D01*
X82083809Y-180270476D01*
X81905238Y-180210952D01*
X81786190Y-180091904D01*
X81726666Y-179972857D01*
X81667142Y-179734761D01*
X81667142Y-179556190D01*
X81726666Y-179318095D01*
X81786190Y-179199047D01*
X81905238Y-179080000D01*
X82083809Y-179020476D01*
X82202857Y-179020476D01*
X82381428Y-179080000D01*
X82440952Y-179139523D01*
X83571904Y-180270476D02*
X82976666Y-180270476D01*
X82976666Y-179020476D01*
X83988571Y-180270476D02*
X83988571Y-179020476D01*
X84702857Y-180270476D02*
X84167142Y-179556190D01*
X84702857Y-179020476D02*
X83988571Y-179734761D01*
X86598095Y-104387870D02*
X86598095Y-105221204D01*
X86300476Y-103911680D02*
X86002857Y-104804537D01*
X86776666Y-104804537D01*
X89217619Y-108019523D02*
X89277142Y-107960000D01*
X89396190Y-107900476D01*
X89693809Y-107900476D01*
X89812857Y-107960000D01*
X89872380Y-108019523D01*
X89931904Y-108138571D01*
X89931904Y-108257619D01*
X89872380Y-108436190D01*
X89158095Y-109150476D01*
X89931904Y-109150476D01*
X91062857Y-107900476D02*
X90467619Y-107900476D01*
X90408095Y-108495714D01*
X90467619Y-108436190D01*
X90586666Y-108376666D01*
X90884285Y-108376666D01*
X91003333Y-108436190D01*
X91062857Y-108495714D01*
X91122380Y-108614761D01*
X91122380Y-108912380D01*
X91062857Y-109031428D01*
X91003333Y-109090952D01*
X90884285Y-109150476D01*
X90586666Y-109150476D01*
X90467619Y-109090952D01*
X90408095Y-109031428D01*
D14*
X89290095Y-81410523D02*
X89006761Y-81005761D01*
X88804380Y-81410523D02*
X88804380Y-80560523D01*
X89128190Y-80560523D01*
X89209142Y-80601000D01*
X89249619Y-80641476D01*
X89290095Y-80722428D01*
X89290095Y-80843857D01*
X89249619Y-80924809D01*
X89209142Y-80965285D01*
X89128190Y-81005761D01*
X88804380Y-81005761D01*
D13*
X88790952Y-85655476D02*
X88374285Y-85060238D01*
X88076666Y-85655476D02*
X88076666Y-84405476D01*
X88552857Y-84405476D01*
X88671904Y-84465000D01*
X88731428Y-84524523D01*
X88790952Y-84643571D01*
X88790952Y-84822142D01*
X88731428Y-84941190D01*
X88671904Y-85000714D01*
X88552857Y-85060238D01*
X88076666Y-85060238D01*
X89564761Y-84405476D02*
X89802857Y-84405476D01*
X89921904Y-84465000D01*
X90040952Y-84584047D01*
X90100476Y-84822142D01*
X90100476Y-85238809D01*
X90040952Y-85476904D01*
X89921904Y-85595952D01*
X89802857Y-85655476D01*
X89564761Y-85655476D01*
X89445714Y-85595952D01*
X89326666Y-85476904D01*
X89267142Y-85238809D01*
X89267142Y-84822142D01*
X89326666Y-84584047D01*
X89445714Y-84465000D01*
X89564761Y-84405476D01*
X90457619Y-84405476D02*
X91171904Y-84405476D01*
X90814761Y-85655476D02*
X90814761Y-84405476D01*
X82133333Y-153620476D02*
X82966666Y-153620476D01*
X82430952Y-154870476D01*
D14*
X82520666Y-82465523D02*
X83087333Y-82465523D01*
X82520666Y-83315523D01*
X83087333Y-83315523D01*
D13*
X86598095Y-111480768D02*
X86360000Y-111480768D01*
X86240952Y-111540292D01*
X86181428Y-111599815D01*
X86062380Y-111778387D01*
X86002857Y-112016482D01*
X86002857Y-112492672D01*
X86062380Y-112611720D01*
X86121904Y-112671244D01*
X86240952Y-112730768D01*
X86479047Y-112730768D01*
X86598095Y-112671244D01*
X86657619Y-112611720D01*
X86717142Y-112492672D01*
X86717142Y-112195053D01*
X86657619Y-112076006D01*
X86598095Y-112016482D01*
X86479047Y-111956958D01*
X86240952Y-111956958D01*
X86121904Y-112016482D01*
X86062380Y-112076006D01*
X86002857Y-112195053D01*
D14*
X89027000Y-82910761D02*
X89027000Y-83315523D01*
X88743666Y-82465523D02*
X89027000Y-82910761D01*
X89310333Y-82465523D01*
D13*
X89217619Y-77539523D02*
X89277142Y-77480000D01*
X89396190Y-77420476D01*
X89693809Y-77420476D01*
X89812857Y-77480000D01*
X89872380Y-77539523D01*
X89931904Y-77658571D01*
X89931904Y-77777619D01*
X89872380Y-77956190D01*
X89158095Y-78670476D01*
X89931904Y-78670476D01*
X90348571Y-77420476D02*
X91181904Y-77420476D01*
X90646190Y-78670476D01*
X89217619Y-168979523D02*
X89277142Y-168920000D01*
X89396190Y-168860476D01*
X89693809Y-168860476D01*
X89812857Y-168920000D01*
X89872380Y-168979523D01*
X89931904Y-169098571D01*
X89931904Y-169217619D01*
X89872380Y-169396190D01*
X89158095Y-170110476D01*
X89931904Y-170110476D01*
X91122380Y-170110476D02*
X90408095Y-170110476D01*
X90765238Y-170110476D02*
X90765238Y-168860476D01*
X90646190Y-169039047D01*
X90527142Y-169158095D01*
X90408095Y-169217619D01*
X86121904Y-150278588D02*
X85407619Y-150278588D01*
X85764761Y-150278588D02*
X85764761Y-149028588D01*
X85645714Y-149207159D01*
X85526666Y-149326207D01*
X85407619Y-149385731D01*
X87193333Y-149028588D02*
X86955238Y-149028588D01*
X86836190Y-149088112D01*
X86776666Y-149147635D01*
X86657619Y-149326207D01*
X86598095Y-149564302D01*
X86598095Y-150040492D01*
X86657619Y-150159540D01*
X86717142Y-150219064D01*
X86836190Y-150278588D01*
X87074285Y-150278588D01*
X87193333Y-150219064D01*
X87252857Y-150159540D01*
X87312380Y-150040492D01*
X87312380Y-149742873D01*
X87252857Y-149623826D01*
X87193333Y-149564302D01*
X87074285Y-149504778D01*
X86836190Y-149504778D01*
X86717142Y-149564302D01*
X86657619Y-149623826D01*
X86598095Y-149742873D01*
X86121904Y-139014242D02*
X85407619Y-139014242D01*
X85764761Y-139014242D02*
X85764761Y-137764242D01*
X85645714Y-137942813D01*
X85526666Y-138061861D01*
X85407619Y-138121385D01*
X86538571Y-137764242D02*
X87312380Y-137764242D01*
X86895714Y-138240432D01*
X87074285Y-138240432D01*
X87193333Y-138299956D01*
X87252857Y-138359480D01*
X87312380Y-138478527D01*
X87312380Y-138776146D01*
X87252857Y-138895194D01*
X87193333Y-138954718D01*
X87074285Y-139014242D01*
X86717142Y-139014242D01*
X86598095Y-138954718D01*
X86538571Y-138895194D01*
X86121904Y-123995114D02*
X86360000Y-123995114D01*
X86479047Y-123935590D01*
X86538571Y-123876066D01*
X86657619Y-123697495D01*
X86717142Y-123459399D01*
X86717142Y-122983209D01*
X86657619Y-122864161D01*
X86598095Y-122804638D01*
X86479047Y-122745114D01*
X86240952Y-122745114D01*
X86121904Y-122804638D01*
X86062380Y-122864161D01*
X86002857Y-122983209D01*
X86002857Y-123280828D01*
X86062380Y-123399876D01*
X86121904Y-123459399D01*
X86240952Y-123518923D01*
X86479047Y-123518923D01*
X86598095Y-123459399D01*
X86657619Y-123399876D01*
X86717142Y-123280828D01*
X86121904Y-131504678D02*
X85407619Y-131504678D01*
X85764761Y-131504678D02*
X85764761Y-130254678D01*
X85645714Y-130433249D01*
X85526666Y-130552297D01*
X85407619Y-130611821D01*
X87312380Y-131504678D02*
X86598095Y-131504678D01*
X86955238Y-131504678D02*
X86955238Y-130254678D01*
X86836190Y-130433249D01*
X86717142Y-130552297D01*
X86598095Y-130611821D01*
X86657619Y-107725986D02*
X86062380Y-107725986D01*
X86002857Y-108321224D01*
X86062380Y-108261700D01*
X86181428Y-108202176D01*
X86479047Y-108202176D01*
X86598095Y-108261700D01*
X86657619Y-108321224D01*
X86717142Y-108440271D01*
X86717142Y-108737890D01*
X86657619Y-108856938D01*
X86598095Y-108916462D01*
X86479047Y-108975986D01*
X86181428Y-108975986D01*
X86062380Y-108916462D01*
X86002857Y-108856938D01*
X86121904Y-146523806D02*
X85407619Y-146523806D01*
X85764761Y-146523806D02*
X85764761Y-145273806D01*
X85645714Y-145452377D01*
X85526666Y-145571425D01*
X85407619Y-145630949D01*
X87252857Y-145273806D02*
X86657619Y-145273806D01*
X86598095Y-145869044D01*
X86657619Y-145809520D01*
X86776666Y-145749996D01*
X87074285Y-145749996D01*
X87193333Y-145809520D01*
X87252857Y-145869044D01*
X87312380Y-145988091D01*
X87312380Y-146285710D01*
X87252857Y-146404758D01*
X87193333Y-146464282D01*
X87074285Y-146523806D01*
X86776666Y-146523806D01*
X86657619Y-146464282D01*
X86598095Y-146404758D01*
X86121904Y-142769024D02*
X85407619Y-142769024D01*
X85764761Y-142769024D02*
X85764761Y-141519024D01*
X85645714Y-141697595D01*
X85526666Y-141816643D01*
X85407619Y-141876167D01*
X87193333Y-141935690D02*
X87193333Y-142769024D01*
X86895714Y-141459500D02*
X86598095Y-142352357D01*
X87371904Y-142352357D01*
X86121904Y-29795476D02*
X85526666Y-29795476D01*
X85467142Y-30390714D01*
X85526666Y-30331190D01*
X85645714Y-30271666D01*
X85943333Y-30271666D01*
X86062380Y-30331190D01*
X86121904Y-30390714D01*
X86181428Y-30509761D01*
X86181428Y-30807380D01*
X86121904Y-30926428D01*
X86062380Y-30985952D01*
X85943333Y-31045476D01*
X85645714Y-31045476D01*
X85526666Y-30985952D01*
X85467142Y-30926428D01*
X86538571Y-29795476D02*
X86955238Y-31045476D01*
X87371904Y-29795476D01*
X89277142Y-44023333D02*
X89872380Y-44023333D01*
X89158095Y-44380476D02*
X89574761Y-43130476D01*
X89991428Y-44380476D01*
X90289047Y-43130476D02*
X91062857Y-43130476D01*
X90646190Y-43606666D01*
X90824761Y-43606666D01*
X90943809Y-43666190D01*
X91003333Y-43725714D01*
X91062857Y-43844761D01*
X91062857Y-44142380D01*
X91003333Y-44261428D01*
X90943809Y-44320952D01*
X90824761Y-44380476D01*
X90467619Y-44380476D01*
X90348571Y-44320952D01*
X90289047Y-44261428D01*
X85407619Y-32395000D02*
X85288571Y-32335476D01*
X85110000Y-32335476D01*
X84931428Y-32395000D01*
X84812380Y-32514047D01*
X84752857Y-32633095D01*
X84693333Y-32871190D01*
X84693333Y-33049761D01*
X84752857Y-33287857D01*
X84812380Y-33406904D01*
X84931428Y-33525952D01*
X85110000Y-33585476D01*
X85229047Y-33585476D01*
X85407619Y-33525952D01*
X85467142Y-33466428D01*
X85467142Y-33049761D01*
X85229047Y-33049761D01*
X86002857Y-33585476D02*
X86002857Y-32335476D01*
X86717142Y-33585476D01*
X86717142Y-32335476D01*
X87312380Y-33585476D02*
X87312380Y-32335476D01*
X87610000Y-32335476D01*
X87788571Y-32395000D01*
X87907619Y-32514047D01*
X87967142Y-32633095D01*
X88026666Y-32871190D01*
X88026666Y-33049761D01*
X87967142Y-33287857D01*
X87907619Y-33406904D01*
X87788571Y-33525952D01*
X87610000Y-33585476D01*
X87312380Y-33585476D01*
X85407619Y-171676327D02*
X85467142Y-171616804D01*
X85586190Y-171557280D01*
X85883809Y-171557280D01*
X86002857Y-171616804D01*
X86062380Y-171676327D01*
X86121904Y-171795375D01*
X86121904Y-171914423D01*
X86062380Y-172092994D01*
X85348095Y-172807280D01*
X86121904Y-172807280D01*
X86598095Y-171676327D02*
X86657619Y-171616804D01*
X86776666Y-171557280D01*
X87074285Y-171557280D01*
X87193333Y-171616804D01*
X87252857Y-171676327D01*
X87312380Y-171795375D01*
X87312380Y-171914423D01*
X87252857Y-172092994D01*
X86538571Y-172807280D01*
X87312380Y-172807280D01*
X82907142Y-63430476D02*
X82192857Y-63430476D01*
X82550000Y-63430476D02*
X82550000Y-62180476D01*
X82430952Y-62359047D01*
X82311904Y-62478095D01*
X82192857Y-62537619D01*
X82133333Y-92660476D02*
X82907142Y-92660476D01*
X82490476Y-93136666D01*
X82669047Y-93136666D01*
X82788095Y-93196190D01*
X82847619Y-93255714D01*
X82907142Y-93374761D01*
X82907142Y-93672380D01*
X82847619Y-93791428D01*
X82788095Y-93850952D01*
X82669047Y-93910476D01*
X82311904Y-93910476D01*
X82192857Y-93850952D01*
X82133333Y-93791428D01*
X82847619Y-123140476D02*
X82252380Y-123140476D01*
X82192857Y-123735714D01*
X82252380Y-123676190D01*
X82371428Y-123616666D01*
X82669047Y-123616666D01*
X82788095Y-123676190D01*
X82847619Y-123735714D01*
X82907142Y-123854761D01*
X82907142Y-124152380D01*
X82847619Y-124271428D01*
X82788095Y-124330952D01*
X82669047Y-124390476D01*
X82371428Y-124390476D01*
X82252380Y-124330952D01*
X82192857Y-124271428D01*
X85407619Y-167921545D02*
X85467142Y-167862022D01*
X85586190Y-167802498D01*
X85883809Y-167802498D01*
X86002857Y-167862022D01*
X86062380Y-167921545D01*
X86121904Y-168040593D01*
X86121904Y-168159641D01*
X86062380Y-168338212D01*
X85348095Y-169052498D01*
X86121904Y-169052498D01*
X87312380Y-169052498D02*
X86598095Y-169052498D01*
X86955238Y-169052498D02*
X86955238Y-167802498D01*
X86836190Y-167981069D01*
X86717142Y-168100117D01*
X86598095Y-168159641D01*
X86121904Y-127749896D02*
X85407619Y-127749896D01*
X85764761Y-127749896D02*
X85764761Y-126499896D01*
X85645714Y-126678467D01*
X85526666Y-126797515D01*
X85407619Y-126857039D01*
X86895714Y-126499896D02*
X87014761Y-126499896D01*
X87133809Y-126559420D01*
X87193333Y-126618943D01*
X87252857Y-126737991D01*
X87312380Y-126976086D01*
X87312380Y-127273705D01*
X87252857Y-127511800D01*
X87193333Y-127630848D01*
X87133809Y-127690372D01*
X87014761Y-127749896D01*
X86895714Y-127749896D01*
X86776666Y-127690372D01*
X86717142Y-127630848D01*
X86657619Y-127511800D01*
X86598095Y-127273705D01*
X86598095Y-126976086D01*
X86657619Y-126737991D01*
X86717142Y-126618943D01*
X86776666Y-126559420D01*
X86895714Y-126499896D01*
X81597619Y-168979523D02*
X81657142Y-168920000D01*
X81776190Y-168860476D01*
X82073809Y-168860476D01*
X82192857Y-168920000D01*
X82252380Y-168979523D01*
X82311904Y-169098571D01*
X82311904Y-169217619D01*
X82252380Y-169396190D01*
X81538095Y-170110476D01*
X82311904Y-170110476D01*
X83085714Y-168860476D02*
X83204761Y-168860476D01*
X83323809Y-168920000D01*
X83383333Y-168979523D01*
X83442857Y-169098571D01*
X83502380Y-169336666D01*
X83502380Y-169634285D01*
X83442857Y-169872380D01*
X83383333Y-169991428D01*
X83323809Y-170050952D01*
X83204761Y-170110476D01*
X83085714Y-170110476D01*
X82966666Y-170050952D01*
X82907142Y-169991428D01*
X82847619Y-169872380D01*
X82788095Y-169634285D01*
X82788095Y-169336666D01*
X82847619Y-169098571D01*
X82907142Y-168979523D01*
X82966666Y-168920000D01*
X83085714Y-168860476D01*
X89277142Y-89743333D02*
X89872380Y-89743333D01*
X89158095Y-90100476D02*
X89574761Y-88850476D01*
X89991428Y-90100476D01*
X90646190Y-88850476D02*
X90765238Y-88850476D01*
X90884285Y-88910000D01*
X90943809Y-88969523D01*
X91003333Y-89088571D01*
X91062857Y-89326666D01*
X91062857Y-89624285D01*
X91003333Y-89862380D01*
X90943809Y-89981428D01*
X90884285Y-90040952D01*
X90765238Y-90100476D01*
X90646190Y-90100476D01*
X90527142Y-90040952D01*
X90467619Y-89981428D01*
X90408095Y-89862380D01*
X90348571Y-89624285D01*
X90348571Y-89326666D01*
X90408095Y-89088571D01*
X90467619Y-88969523D01*
X90527142Y-88910000D01*
X90646190Y-88850476D01*
X82788095Y-108317142D02*
X82788095Y-109150476D01*
X82490476Y-107840952D02*
X82192857Y-108733809D01*
X82966666Y-108733809D01*
X89217619Y-62299523D02*
X89277142Y-62240000D01*
X89396190Y-62180476D01*
X89693809Y-62180476D01*
X89812857Y-62240000D01*
X89872380Y-62299523D01*
X89931904Y-62418571D01*
X89931904Y-62537619D01*
X89872380Y-62716190D01*
X89158095Y-63430476D01*
X89931904Y-63430476D01*
X90646190Y-62716190D02*
X90527142Y-62656666D01*
X90467619Y-62597142D01*
X90408095Y-62478095D01*
X90408095Y-62418571D01*
X90467619Y-62299523D01*
X90527142Y-62240000D01*
X90646190Y-62180476D01*
X90884285Y-62180476D01*
X91003333Y-62240000D01*
X91062857Y-62299523D01*
X91122380Y-62418571D01*
X91122380Y-62478095D01*
X91062857Y-62597142D01*
X91003333Y-62656666D01*
X90884285Y-62716190D01*
X90646190Y-62716190D01*
X90527142Y-62775714D01*
X90467619Y-62835238D01*
X90408095Y-62954285D01*
X90408095Y-63192380D01*
X90467619Y-63311428D01*
X90527142Y-63370952D01*
X90646190Y-63430476D01*
X90884285Y-63430476D01*
X91003333Y-63370952D01*
X91062857Y-63311428D01*
X91122380Y-63192380D01*
X91122380Y-62954285D01*
X91062857Y-62835238D01*
X91003333Y-62775714D01*
X90884285Y-62716190D01*
X82192857Y-77539523D02*
X82252380Y-77480000D01*
X82371428Y-77420476D01*
X82669047Y-77420476D01*
X82788095Y-77480000D01*
X82847619Y-77539523D01*
X82907142Y-77658571D01*
X82907142Y-77777619D01*
X82847619Y-77956190D01*
X82133333Y-78670476D01*
X82907142Y-78670476D01*
D14*
X90328380Y-83315523D02*
X90328380Y-82465523D01*
X90652190Y-82465523D01*
X90733142Y-82506000D01*
X90773619Y-82546476D01*
X90814095Y-82627428D01*
X90814095Y-82748857D01*
X90773619Y-82829809D01*
X90733142Y-82870285D01*
X90652190Y-82910761D01*
X90328380Y-82910761D01*
D13*
X84990952Y-27255476D02*
X85407619Y-28505476D01*
X85824285Y-27255476D01*
X86240952Y-28505476D02*
X86240952Y-27255476D01*
X86836190Y-28505476D02*
X86836190Y-27255476D01*
X87550476Y-28505476D01*
X87550476Y-27255476D01*
X89277142Y-74503333D02*
X89872380Y-74503333D01*
X89158095Y-74860476D02*
X89574761Y-73610476D01*
X89991428Y-74860476D01*
X91062857Y-74860476D02*
X90348571Y-74860476D01*
X90705714Y-74860476D02*
X90705714Y-73610476D01*
X90586666Y-73789047D01*
X90467619Y-73908095D01*
X90348571Y-73967619D01*
D14*
X82677000Y-81005761D02*
X82677000Y-81410523D01*
X82393666Y-80560523D02*
X82677000Y-81005761D01*
X82960333Y-80560523D01*
D13*
X87838571Y-180210952D02*
X88017142Y-180270476D01*
X88314761Y-180270476D01*
X88433809Y-180210952D01*
X88493333Y-180151428D01*
X88552857Y-180032380D01*
X88552857Y-179913333D01*
X88493333Y-179794285D01*
X88433809Y-179734761D01*
X88314761Y-179675238D01*
X88076666Y-179615714D01*
X87957619Y-179556190D01*
X87898095Y-179496666D01*
X87838571Y-179377619D01*
X87838571Y-179258571D01*
X87898095Y-179139523D01*
X87957619Y-179080000D01*
X88076666Y-179020476D01*
X88374285Y-179020476D01*
X88552857Y-179080000D01*
X88969523Y-179020476D02*
X89267142Y-180270476D01*
X89505238Y-179377619D01*
X89743333Y-180270476D01*
X90040952Y-179020476D01*
X90517142Y-180270476D02*
X90517142Y-179020476D01*
X90814761Y-179020476D01*
X90993333Y-179080000D01*
X91112380Y-179199047D01*
X91171904Y-179318095D01*
X91231428Y-179556190D01*
X91231428Y-179734761D01*
X91171904Y-179972857D01*
X91112380Y-180091904D01*
X90993333Y-180210952D01*
X90814761Y-180270476D01*
X90517142Y-180270476D01*
X83532619Y-37062500D02*
X84782619Y-37062500D01*
X84544523Y-38665476D02*
X84127857Y-38070238D01*
X83830238Y-38665476D02*
X83830238Y-37415476D01*
X84306428Y-37415476D01*
X84425476Y-37475000D01*
X84485000Y-37534523D01*
X84544523Y-37653571D01*
X84544523Y-37832142D01*
X84485000Y-37951190D01*
X84425476Y-38010714D01*
X84306428Y-38070238D01*
X83830238Y-38070238D01*
X84782619Y-37062500D02*
X85913571Y-37062500D01*
X85080238Y-38010714D02*
X85496904Y-38010714D01*
X85675476Y-38665476D02*
X85080238Y-38665476D01*
X85080238Y-37415476D01*
X85675476Y-37415476D01*
X85913571Y-37062500D02*
X87104047Y-37062500D01*
X86151666Y-38605952D02*
X86330238Y-38665476D01*
X86627857Y-38665476D01*
X86746904Y-38605952D01*
X86806428Y-38546428D01*
X86865952Y-38427380D01*
X86865952Y-38308333D01*
X86806428Y-38189285D01*
X86746904Y-38129761D01*
X86627857Y-38070238D01*
X86389761Y-38010714D01*
X86270714Y-37951190D01*
X86211190Y-37891666D01*
X86151666Y-37772619D01*
X86151666Y-37653571D01*
X86211190Y-37534523D01*
X86270714Y-37475000D01*
X86389761Y-37415476D01*
X86687380Y-37415476D01*
X86865952Y-37475000D01*
X87104047Y-37062500D02*
X88235000Y-37062500D01*
X87401666Y-38010714D02*
X87818333Y-38010714D01*
X87996904Y-38665476D02*
X87401666Y-38665476D01*
X87401666Y-37415476D01*
X87996904Y-37415476D01*
X88235000Y-37062500D02*
X89187380Y-37062500D01*
X88354047Y-37415476D02*
X89068333Y-37415476D01*
X88711190Y-38665476D02*
X88711190Y-37415476D01*
X82232619Y-172730000D02*
X82113571Y-172670476D01*
X81935000Y-172670476D01*
X81756428Y-172730000D01*
X81637380Y-172849047D01*
X81577857Y-172968095D01*
X81518333Y-173206190D01*
X81518333Y-173384761D01*
X81577857Y-173622857D01*
X81637380Y-173741904D01*
X81756428Y-173860952D01*
X81935000Y-173920476D01*
X82054047Y-173920476D01*
X82232619Y-173860952D01*
X82292142Y-173801428D01*
X82292142Y-173384761D01*
X82054047Y-173384761D01*
X82827857Y-173920476D02*
X82827857Y-172670476D01*
X83542142Y-173920476D01*
X83542142Y-172670476D01*
X84137380Y-173920476D02*
X84137380Y-172670476D01*
X84435000Y-172670476D01*
X84613571Y-172730000D01*
X84732619Y-172849047D01*
X84792142Y-172968095D01*
X84851666Y-173206190D01*
X84851666Y-173384761D01*
X84792142Y-173622857D01*
X84732619Y-173741904D01*
X84613571Y-173860952D01*
X84435000Y-173920476D01*
X84137380Y-173920476D01*
X89277142Y-59263333D02*
X89872380Y-59263333D01*
X89158095Y-59620476D02*
X89574761Y-58370476D01*
X89991428Y-59620476D01*
X90348571Y-58489523D02*
X90408095Y-58430000D01*
X90527142Y-58370476D01*
X90824761Y-58370476D01*
X90943809Y-58430000D01*
X91003333Y-58489523D01*
X91062857Y-58608571D01*
X91062857Y-58727619D01*
X91003333Y-58906190D01*
X90289047Y-59620476D01*
X91062857Y-59620476D01*
X86121904Y-154033370D02*
X85407619Y-154033370D01*
X85764761Y-154033370D02*
X85764761Y-152783370D01*
X85645714Y-152961941D01*
X85526666Y-153080989D01*
X85407619Y-153140513D01*
X86538571Y-152783370D02*
X87371904Y-152783370D01*
X86836190Y-154033370D01*
X82490476Y-46940476D02*
X82609523Y-46940476D01*
X82728571Y-47000000D01*
X82788095Y-47059523D01*
X82847619Y-47178571D01*
X82907142Y-47416666D01*
X82907142Y-47714285D01*
X82847619Y-47952380D01*
X82788095Y-48071428D01*
X82728571Y-48130952D01*
X82609523Y-48190476D01*
X82490476Y-48190476D01*
X82371428Y-48130952D01*
X82311904Y-48071428D01*
X82252380Y-47952380D01*
X82192857Y-47714285D01*
X82192857Y-47416666D01*
X82252380Y-47178571D01*
X82311904Y-47059523D01*
X82371428Y-47000000D01*
X82490476Y-46940476D01*
X82788095Y-138380476D02*
X82550000Y-138380476D01*
X82430952Y-138440000D01*
X82371428Y-138499523D01*
X82252380Y-138678095D01*
X82192857Y-138916190D01*
X82192857Y-139392380D01*
X82252380Y-139511428D01*
X82311904Y-139570952D01*
X82430952Y-139630476D01*
X82669047Y-139630476D01*
X82788095Y-139570952D01*
X82847619Y-139511428D01*
X82907142Y-139392380D01*
X82907142Y-139094761D01*
X82847619Y-138975714D01*
X82788095Y-138916190D01*
X82669047Y-138856666D01*
X82430952Y-138856666D01*
X82311904Y-138916190D01*
X82252380Y-138975714D01*
X82192857Y-139094761D01*
D15*
X83910714Y-35753523D02*
X83910714Y-34483523D01*
X85241190Y-35632571D02*
X85180714Y-35693047D01*
X84999285Y-35753523D01*
X84878333Y-35753523D01*
X84696904Y-35693047D01*
X84575952Y-35572095D01*
X84515476Y-35451142D01*
X84455000Y-35209238D01*
X84455000Y-35027809D01*
X84515476Y-34785904D01*
X84575952Y-34664952D01*
X84696904Y-34544000D01*
X84878333Y-34483523D01*
X84999285Y-34483523D01*
X85180714Y-34544000D01*
X85241190Y-34604476D01*
X86390238Y-34483523D02*
X85785476Y-34483523D01*
X85725000Y-35088285D01*
X85785476Y-35027809D01*
X85906428Y-34967333D01*
X86208809Y-34967333D01*
X86329761Y-35027809D01*
X86390238Y-35088285D01*
X86450714Y-35209238D01*
X86450714Y-35511619D01*
X86390238Y-35632571D01*
X86329761Y-35693047D01*
X86208809Y-35753523D01*
X85906428Y-35753523D01*
X85785476Y-35693047D01*
X85725000Y-35632571D01*
X87236904Y-34483523D02*
X87357857Y-34483523D01*
X87478809Y-34544000D01*
X87539285Y-34604476D01*
X87599761Y-34725428D01*
X87660238Y-34967333D01*
X87660238Y-35269714D01*
X87599761Y-35511619D01*
X87539285Y-35632571D01*
X87478809Y-35693047D01*
X87357857Y-35753523D01*
X87236904Y-35753523D01*
X87115952Y-35693047D01*
X87055476Y-35632571D01*
X86995000Y-35511619D01*
X86934523Y-35269714D01*
X86934523Y-34967333D01*
X86995000Y-34725428D01*
X87055476Y-34604476D01*
X87115952Y-34544000D01*
X87236904Y-34483523D01*
X88869761Y-35753523D02*
X88144047Y-35753523D01*
X88506904Y-35753523D02*
X88506904Y-34483523D01*
X88385952Y-34664952D01*
X88265000Y-34785904D01*
X88144047Y-34846380D01*
D16*
X84760400Y-85526400D02*
X84360400Y-85526400D01*
X84760400Y-82926400D02*
X84360400Y-82926400D01*
X82060400Y-82926400D02*
X81660400Y-82926400D01*
X81660400Y-85526400D02*
X82060400Y-85526400D01*
D17*
X81160400Y-83226400D02*
G75*
G03*
X81160400Y-83226400I-50000J0D01*
G01*
D16*
X89860000Y-72080000D02*
X89860000Y-71600000D01*
X82860000Y-72080000D02*
X82860000Y-71600000D01*
X89860000Y-65080000D02*
X89860000Y-65560000D01*
X82860000Y-72080000D02*
X83340000Y-72080000D01*
X82860000Y-65080000D02*
X83340000Y-65080000D01*
X89860000Y-65080000D02*
X89380000Y-65080000D01*
X89860000Y-72080000D02*
X89380000Y-72080000D01*
X82860000Y-65080000D02*
X82860000Y-65560000D01*
D18*
X82650000Y-65328800D02*
G75*
G03*
X82650000Y-65328800I-100000J0D01*
G01*
X86610000Y-31970000D02*
X86610000Y-34070000D01*
X86110000Y-31970000D02*
X86610000Y-31970000D01*
X87335000Y-34170000D02*
X86960000Y-34170000D01*
X86610000Y-34070000D02*
X86110000Y-34070000D01*
X86110000Y-34070000D02*
X86110000Y-31970000D01*
D19*
X83612400Y-87401348D02*
X83612400Y-88823852D01*
X81792400Y-87401348D02*
X81792400Y-88823852D01*
X87644500Y-40402742D02*
X87644500Y-40877258D01*
X86599500Y-40402742D02*
X86599500Y-40877258D01*
X87467200Y-133852402D02*
G75*
G03*
X87467200Y-133852402I0J0D01*
G01*
X87467200Y-171400222D02*
G75*
G03*
X87467200Y-171400222I0J0D01*
G01*
X87467200Y-167645440D02*
G75*
G03*
X87467200Y-167645440I0J0D01*
G01*
X83449900Y-81390258D02*
X83449900Y-80915742D01*
X84494900Y-81390258D02*
X84494900Y-80915742D01*
X81621100Y-81364858D02*
X81621100Y-80890342D01*
X82666100Y-81364858D02*
X82666100Y-80890342D01*
X87467200Y-156381094D02*
G75*
G03*
X87467200Y-156381094I0J0D01*
G01*
X87927500Y-60697258D02*
X87927500Y-60222742D01*
X88972500Y-60697258D02*
X88972500Y-60222742D01*
X89611252Y-44217000D02*
X88188748Y-44217000D01*
X89611252Y-42397000D02*
X88188748Y-42397000D01*
X89156000Y-40499420D02*
X89156000Y-40780580D01*
X88136000Y-40499420D02*
X88136000Y-40780580D01*
X87467200Y-96304582D02*
G75*
G03*
X87467200Y-96304582I0J0D01*
G01*
X83108748Y-42397000D02*
X84531252Y-42397000D01*
X83108748Y-44217000D02*
X84531252Y-44217000D01*
X87467200Y-152626312D02*
G75*
G03*
X87467200Y-152626312I0J0D01*
G01*
X90692500Y-49767258D02*
X90692500Y-49292742D01*
X89647500Y-49767258D02*
X89647500Y-49292742D01*
X82040000Y-49670580D02*
X82040000Y-49389420D01*
X83060000Y-49670580D02*
X83060000Y-49389420D01*
D16*
X85637000Y-47701800D02*
X85637000Y-47601800D01*
X85637000Y-44601800D02*
X85637000Y-44701800D01*
X87337000Y-47701800D02*
X87337000Y-47601800D01*
X87337000Y-47701800D02*
X85637000Y-47701800D01*
X87337000Y-44601800D02*
X85637000Y-44601800D01*
X87337000Y-44601800D02*
X87337000Y-44701800D01*
D18*
X84118000Y-45201800D02*
G75*
G03*
X84118000Y-45201800I-100000J0D01*
G01*
D19*
X83072500Y-57387258D02*
X83072500Y-56912742D01*
X82027500Y-57387258D02*
X82027500Y-56912742D01*
X87920000Y-26466800D02*
X87920000Y-24791800D01*
X84800000Y-26466800D02*
X84800000Y-25816800D01*
X87920000Y-26466800D02*
X87920000Y-27116800D01*
X84800000Y-26466800D02*
X84800000Y-27116800D01*
X83460000Y-159308748D02*
X83460000Y-160731252D01*
X81640000Y-159308748D02*
X81640000Y-160731252D01*
X87467200Y-148871530D02*
G75*
G03*
X87467200Y-148871530I0J0D01*
G01*
X87467200Y-122588056D02*
G75*
G03*
X87467200Y-122588056I0J0D01*
G01*
X84542100Y-88510342D02*
X84542100Y-88984858D01*
X85587100Y-88510342D02*
X85587100Y-88984858D01*
X87467200Y-160135876D02*
G75*
G03*
X87467200Y-160135876I0J0D01*
G01*
X87467200Y-100059364D02*
G75*
G03*
X87467200Y-100059364I0J0D01*
G01*
X87467200Y-163890658D02*
G75*
G03*
X87467200Y-163890658I0J0D01*
G01*
X89678742Y-25639500D02*
X90153258Y-25639500D01*
X89678742Y-26684500D02*
X90153258Y-26684500D01*
X86597258Y-76468500D02*
X86122742Y-76468500D01*
X86597258Y-75423500D02*
X86122742Y-75423500D01*
X87512500Y-60697258D02*
X87512500Y-60222742D01*
X86467500Y-60697258D02*
X86467500Y-60222742D01*
D16*
X85080000Y-48130000D02*
X87640000Y-48130000D01*
X87640000Y-50930000D02*
X85080000Y-50930000D01*
D18*
X89560000Y-48730000D02*
G75*
G03*
X89560000Y-48730000I-100000J0D01*
G01*
D19*
X87467200Y-130097620D02*
G75*
G03*
X87467200Y-130097620I0J0D01*
G01*
X85981000Y-81063220D02*
X85981000Y-81344380D01*
X84961000Y-81063220D02*
X84961000Y-81344380D01*
X87467200Y-175155004D02*
G75*
G03*
X87467200Y-175155004I0J0D01*
G01*
X90957400Y-17658407D02*
X90957400Y-16814800D01*
X81762600Y-20437991D02*
X81762600Y-21861608D01*
X90957400Y-21861608D02*
X90957400Y-20437991D01*
X81762600Y-16814800D02*
X81762600Y-17658407D01*
X90957400Y-16814800D02*
X81762600Y-16814800D01*
X83072500Y-53102742D02*
X83072500Y-53577258D01*
X82027500Y-53102742D02*
X82027500Y-53577258D01*
X82027500Y-40402742D02*
X82027500Y-40877258D01*
X83072500Y-40402742D02*
X83072500Y-40877258D01*
X87467211Y-111323704D02*
G75*
G03*
X87467211Y-111323704I0J0D01*
G01*
X87784400Y-81063220D02*
X87784400Y-81344380D01*
X86764400Y-81063220D02*
X86764400Y-81344380D01*
X87467200Y-178909786D02*
G75*
G03*
X87467200Y-178909786I0J0D01*
G01*
X83460000Y-128828748D02*
X83460000Y-130251252D01*
X81640000Y-128828748D02*
X81640000Y-130251252D01*
X85757936Y-29570000D02*
X86962064Y-29570000D01*
X85757936Y-31390000D02*
X86962064Y-31390000D01*
X88849252Y-62209000D02*
X87426748Y-62209000D01*
X88849252Y-64029000D02*
X87426748Y-64029000D01*
X87467200Y-141361966D02*
G75*
G03*
X87467200Y-141361966I0J0D01*
G01*
X82566742Y-25639500D02*
X83041258Y-25639500D01*
X82566742Y-26684500D02*
X83041258Y-26684500D01*
X87467211Y-107568924D02*
G75*
G03*
X87467211Y-107568924I0J0D01*
G01*
D16*
X88910000Y-57914000D02*
X88910000Y-51814000D01*
X83810000Y-57914000D02*
X83810000Y-51814000D01*
D18*
X83970800Y-58216800D02*
G75*
G03*
X83970800Y-58216800I-100000J0D01*
G01*
D19*
X90692500Y-40877258D02*
X90692500Y-40402742D01*
X89647500Y-40877258D02*
X89647500Y-40402742D01*
X87467200Y-145116748D02*
G75*
G03*
X87467200Y-145116748I0J0D01*
G01*
X87467200Y-137607184D02*
G75*
G03*
X87467200Y-137607184I0J0D01*
G01*
D18*
X84586200Y-78957400D02*
G75*
G03*
X84586200Y-78957400I-100000J0D01*
G01*
D19*
X88177900Y-88510342D02*
X88177900Y-88984858D01*
X87132900Y-88510342D02*
X87132900Y-88984858D01*
X87467200Y-126342838D02*
G75*
G03*
X87467200Y-126342838I0J0D01*
G01*
X87467200Y-92549800D02*
G75*
G03*
X87467200Y-92549800I0J0D01*
G01*
D18*
X85135400Y-86937600D02*
X85135400Y-86087600D01*
D19*
X87467200Y-118833274D02*
G75*
G03*
X87467200Y-118833274I0J0D01*
G01*
X87467200Y-103814146D02*
G75*
G03*
X87467200Y-103814146I0J0D01*
G01*
X81640000Y-98348748D02*
X81640000Y-99771252D01*
X83460000Y-98348748D02*
X83460000Y-99771252D01*
X87467200Y-115078492D02*
G75*
G03*
X87467200Y-115078492I0J0D01*
G01*
X88391948Y-73131000D02*
X89814452Y-73131000D01*
X88391948Y-74951000D02*
X89814452Y-74951000D01*
D16*
X85080000Y-36065000D02*
X87640000Y-36065000D01*
X87640000Y-38865000D02*
X85080000Y-38865000D01*
D18*
X89560000Y-36665000D02*
G75*
G03*
X89560000Y-36665000I-100000J0D01*
G01*
M02*
