G04 #@! TF.GenerationSoftware,KiCad,Pcbnew,(6.0.6)*
G04 #@! TF.CreationDate,2023-03-09T20:25:47-07:00*
G04 #@! TF.ProjectId,RP2040-Breadstick,52503230-3430-42d4-9272-656164737469,0.1*
G04 #@! TF.SameCoordinates,Original*
G04 #@! TF.FileFunction,AssemblyDrawing,Top*
%FSLAX46Y46*%
G04 Gerber Fmt 4.6, Leading zero omitted, Abs format (unit mm)*
G04 Created by KiCad (PCBNEW (6.0.6)) date 2023-03-09 20:25:47*
%MOMM*%
%LPD*%
G01*
G04 APERTURE LIST*
%ADD10C,0.100000*%
%ADD11C,0.050000*%
%ADD12C,0.150000*%
%ADD13C,0.120000*%
%ADD14C,0.127000*%
%ADD15C,0.200000*%
%ADD16C,0.140000*%
G04 APERTURE END LIST*
D10*
X85055161Y-132225982D02*
X85126590Y-132249792D01*
X85245638Y-132249792D01*
X85293257Y-132225982D01*
X85317066Y-132202173D01*
X85340876Y-132154554D01*
X85340876Y-132106935D01*
X85317066Y-132059316D01*
X85293257Y-132035506D01*
X85245638Y-132011697D01*
X85150400Y-131987887D01*
X85102780Y-131964078D01*
X85078971Y-131940268D01*
X85055161Y-131892649D01*
X85055161Y-131845030D01*
X85078971Y-131797411D01*
X85102780Y-131773602D01*
X85150400Y-131749792D01*
X85269447Y-131749792D01*
X85340876Y-131773602D01*
X85555161Y-132249792D02*
X85555161Y-131749792D01*
X85840876Y-132249792D02*
X85626590Y-131964078D01*
X85840876Y-131749792D02*
X85555161Y-132035506D01*
X86078971Y-132249792D02*
X86174209Y-132249792D01*
X86221828Y-132225982D01*
X86245638Y-132202173D01*
X86293257Y-132130744D01*
X86317066Y-132035506D01*
X86317066Y-131845030D01*
X86293257Y-131797411D01*
X86269447Y-131773602D01*
X86221828Y-131749792D01*
X86126590Y-131749792D01*
X86078971Y-131773602D01*
X86055161Y-131797411D01*
X86031352Y-131845030D01*
X86031352Y-131964078D01*
X86055161Y-132011697D01*
X86078971Y-132035506D01*
X86126590Y-132059316D01*
X86221828Y-132059316D01*
X86269447Y-132035506D01*
X86293257Y-132011697D01*
X86317066Y-131964078D01*
X86602780Y-131964078D02*
X86555161Y-131940268D01*
X86531352Y-131916459D01*
X86507542Y-131868840D01*
X86507542Y-131845030D01*
X86531352Y-131797411D01*
X86555161Y-131773602D01*
X86602780Y-131749792D01*
X86698019Y-131749792D01*
X86745638Y-131773602D01*
X86769447Y-131797411D01*
X86793257Y-131845030D01*
X86793257Y-131868840D01*
X86769447Y-131916459D01*
X86745638Y-131940268D01*
X86698019Y-131964078D01*
X86602780Y-131964078D01*
X86555161Y-131987887D01*
X86531352Y-132011697D01*
X86507542Y-132059316D01*
X86507542Y-132154554D01*
X86531352Y-132202173D01*
X86555161Y-132225982D01*
X86602780Y-132249792D01*
X86698019Y-132249792D01*
X86745638Y-132225982D01*
X86769447Y-132202173D01*
X86793257Y-132154554D01*
X86793257Y-132059316D01*
X86769447Y-132011697D01*
X86745638Y-131987887D01*
X86698019Y-131964078D01*
X86983733Y-131797411D02*
X87007542Y-131773602D01*
X87055161Y-131749792D01*
X87174209Y-131749792D01*
X87221828Y-131773602D01*
X87245638Y-131797411D01*
X87269447Y-131845030D01*
X87269447Y-131892649D01*
X87245638Y-131964078D01*
X86959923Y-132249792D01*
X87269447Y-132249792D01*
X87459923Y-131797411D02*
X87483733Y-131773602D01*
X87531352Y-131749792D01*
X87650400Y-131749792D01*
X87698019Y-131773602D01*
X87721828Y-131797411D01*
X87745638Y-131845030D01*
X87745638Y-131892649D01*
X87721828Y-131964078D01*
X87436114Y-132249792D01*
X87745638Y-132249792D01*
D11*
X85571828Y-132915754D02*
X85381352Y-132915754D01*
X85381352Y-132515754D01*
X85705161Y-132706230D02*
X85838495Y-132706230D01*
X85895638Y-132915754D02*
X85705161Y-132915754D01*
X85705161Y-132515754D01*
X85895638Y-132515754D01*
X86067066Y-132915754D02*
X86067066Y-132515754D01*
X86162304Y-132515754D01*
X86219447Y-132534802D01*
X86257542Y-132572897D01*
X86276590Y-132610992D01*
X86295638Y-132687182D01*
X86295638Y-132744325D01*
X86276590Y-132820516D01*
X86257542Y-132858611D01*
X86219447Y-132896706D01*
X86162304Y-132915754D01*
X86067066Y-132915754D01*
X86428971Y-132515754D02*
X86676590Y-132515754D01*
X86543257Y-132668135D01*
X86600400Y-132668135D01*
X86638495Y-132687182D01*
X86657542Y-132706230D01*
X86676590Y-132744325D01*
X86676590Y-132839563D01*
X86657542Y-132877659D01*
X86638495Y-132896706D01*
X86600400Y-132915754D01*
X86486114Y-132915754D01*
X86448019Y-132896706D01*
X86428971Y-132877659D01*
X87057542Y-132915754D02*
X86828971Y-132915754D01*
X86943257Y-132915754D02*
X86943257Y-132515754D01*
X86905161Y-132572897D01*
X86867066Y-132610992D01*
X86828971Y-132630040D01*
X87209923Y-132553849D02*
X87228971Y-132534802D01*
X87267066Y-132515754D01*
X87362304Y-132515754D01*
X87400400Y-132534802D01*
X87419447Y-132553849D01*
X87438495Y-132591944D01*
X87438495Y-132630040D01*
X87419447Y-132687182D01*
X87190876Y-132915754D01*
X87438495Y-132915754D01*
X86396895Y-73614823D02*
X86396895Y-73757680D01*
X86396895Y-73686252D02*
X86146895Y-73686252D01*
X86182609Y-73710061D01*
X86206419Y-73733871D01*
X86218323Y-73757680D01*
X86396895Y-73507680D02*
X86146895Y-73507680D01*
X86301657Y-73483871D02*
X86396895Y-73412442D01*
X86230228Y-73412442D02*
X86325466Y-73507680D01*
X86146895Y-73067204D02*
X86146895Y-73043395D01*
X86158800Y-73019585D01*
X86170704Y-73007680D01*
X86194514Y-72995776D01*
X86242133Y-72983871D01*
X86301657Y-72983871D01*
X86349276Y-72995776D01*
X86373085Y-73007680D01*
X86384990Y-73019585D01*
X86396895Y-73043395D01*
X86396895Y-73067204D01*
X86384990Y-73091014D01*
X86373085Y-73102919D01*
X86349276Y-73114823D01*
X86301657Y-73126728D01*
X86242133Y-73126728D01*
X86194514Y-73114823D01*
X86170704Y-73102919D01*
X86158800Y-73091014D01*
X86146895Y-73067204D01*
X86170704Y-72888633D02*
X86158800Y-72876728D01*
X86146895Y-72852919D01*
X86146895Y-72793395D01*
X86158800Y-72769585D01*
X86170704Y-72757680D01*
X86194514Y-72745776D01*
X86218323Y-72745776D01*
X86254038Y-72757680D01*
X86396895Y-72900538D01*
X86396895Y-72745776D01*
X86146895Y-72591014D02*
X86146895Y-72567204D01*
X86158800Y-72543395D01*
X86170704Y-72531490D01*
X86194514Y-72519585D01*
X86242133Y-72507680D01*
X86301657Y-72507680D01*
X86349276Y-72519585D01*
X86373085Y-72531490D01*
X86384990Y-72543395D01*
X86396895Y-72567204D01*
X86396895Y-72591014D01*
X86384990Y-72614823D01*
X86373085Y-72626728D01*
X86349276Y-72638633D01*
X86301657Y-72650538D01*
X86242133Y-72650538D01*
X86194514Y-72638633D01*
X86170704Y-72626728D01*
X86158800Y-72614823D01*
X86146895Y-72591014D01*
X86396895Y-72269585D02*
X86396895Y-72412442D01*
X86396895Y-72341014D02*
X86146895Y-72341014D01*
X86182609Y-72364823D01*
X86206419Y-72388633D01*
X86218323Y-72412442D01*
X86831476Y-74518809D02*
X86736238Y-74585476D01*
X86831476Y-74633095D02*
X86631476Y-74633095D01*
X86631476Y-74556904D01*
X86641000Y-74537857D01*
X86650523Y-74528333D01*
X86669571Y-74518809D01*
X86698142Y-74518809D01*
X86717190Y-74528333D01*
X86726714Y-74537857D01*
X86736238Y-74556904D01*
X86736238Y-74633095D01*
X86650523Y-74442619D02*
X86641000Y-74433095D01*
X86631476Y-74414047D01*
X86631476Y-74366428D01*
X86641000Y-74347380D01*
X86650523Y-74337857D01*
X86669571Y-74328333D01*
X86688619Y-74328333D01*
X86717190Y-74337857D01*
X86831476Y-74452142D01*
X86831476Y-74328333D01*
X86831476Y-74137857D02*
X86831476Y-74252142D01*
X86831476Y-74195000D02*
X86631476Y-74195000D01*
X86660047Y-74214047D01*
X86679095Y-74233095D01*
X86688619Y-74252142D01*
X86631476Y-74014047D02*
X86631476Y-73995000D01*
X86641000Y-73975952D01*
X86650523Y-73966428D01*
X86669571Y-73956904D01*
X86707666Y-73947380D01*
X86755285Y-73947380D01*
X86793380Y-73956904D01*
X86812428Y-73966428D01*
X86821952Y-73975952D01*
X86831476Y-73995000D01*
X86831476Y-74014047D01*
X86821952Y-74033095D01*
X86812428Y-74042619D01*
X86793380Y-74052142D01*
X86755285Y-74061666D01*
X86707666Y-74061666D01*
X86669571Y-74052142D01*
X86650523Y-74042619D01*
X86641000Y-74033095D01*
X86631476Y-74014047D01*
D12*
X85812380Y-60769285D02*
X86621904Y-60769285D01*
X86717142Y-60721666D01*
X86764761Y-60674047D01*
X86812380Y-60578809D01*
X86812380Y-60388333D01*
X86764761Y-60293095D01*
X86717142Y-60245476D01*
X86621904Y-60197857D01*
X85812380Y-60197857D01*
X85907619Y-59769285D02*
X85860000Y-59721666D01*
X85812380Y-59626428D01*
X85812380Y-59388333D01*
X85860000Y-59293095D01*
X85907619Y-59245476D01*
X86002857Y-59197857D01*
X86098095Y-59197857D01*
X86240952Y-59245476D01*
X86812380Y-59816904D01*
X86812380Y-59197857D01*
X85812380Y-58578809D02*
X85812380Y-58483571D01*
X85860000Y-58388333D01*
X85907619Y-58340714D01*
X86002857Y-58293095D01*
X86193333Y-58245476D01*
X86431428Y-58245476D01*
X86621904Y-58293095D01*
X86717142Y-58340714D01*
X86764761Y-58388333D01*
X86812380Y-58483571D01*
X86812380Y-58578809D01*
X86764761Y-58674047D01*
X86717142Y-58721666D01*
X86621904Y-58769285D01*
X86431428Y-58816904D01*
X86193333Y-58816904D01*
X86002857Y-58769285D01*
X85907619Y-58721666D01*
X85860000Y-58674047D01*
X85812380Y-58578809D01*
X85812380Y-57912142D02*
X85812380Y-57293095D01*
X86193333Y-57626428D01*
X86193333Y-57483571D01*
X86240952Y-57388333D01*
X86288571Y-57340714D01*
X86383809Y-57293095D01*
X86621904Y-57293095D01*
X86717142Y-57340714D01*
X86764761Y-57388333D01*
X86812380Y-57483571D01*
X86812380Y-57769285D01*
X86764761Y-57864523D01*
X86717142Y-57912142D01*
X87437980Y-65721666D02*
X88437980Y-65483571D01*
X87723695Y-65293095D01*
X88437980Y-65102619D01*
X87437980Y-64864523D01*
X87533219Y-64531190D02*
X87485600Y-64483571D01*
X87437980Y-64388333D01*
X87437980Y-64150238D01*
X87485600Y-64055000D01*
X87533219Y-64007380D01*
X87628457Y-63959761D01*
X87723695Y-63959761D01*
X87866552Y-64007380D01*
X88437980Y-64578809D01*
X88437980Y-63959761D01*
X87437980Y-63055000D02*
X87437980Y-63531190D01*
X87914171Y-63578809D01*
X87866552Y-63531190D01*
X87818933Y-63435952D01*
X87818933Y-63197857D01*
X87866552Y-63102619D01*
X87914171Y-63055000D01*
X88009409Y-63007380D01*
X88247504Y-63007380D01*
X88342742Y-63055000D01*
X88390361Y-63102619D01*
X88437980Y-63197857D01*
X88437980Y-63435952D01*
X88390361Y-63531190D01*
X88342742Y-63578809D01*
X88533219Y-61912142D02*
X88485600Y-62007380D01*
X88390361Y-62102619D01*
X88247504Y-62245476D01*
X88199885Y-62340714D01*
X88199885Y-62435952D01*
X88437980Y-62388333D02*
X88390361Y-62483571D01*
X88295123Y-62578809D01*
X88104647Y-62626428D01*
X87771314Y-62626428D01*
X87580838Y-62578809D01*
X87485600Y-62483571D01*
X87437980Y-62388333D01*
X87437980Y-62197857D01*
X87485600Y-62102619D01*
X87580838Y-62007380D01*
X87771314Y-61959761D01*
X88104647Y-61959761D01*
X88295123Y-62007380D01*
X88390361Y-62102619D01*
X88437980Y-62197857D01*
X88437980Y-62388333D01*
X88437980Y-61007380D02*
X88437980Y-61578809D01*
X88437980Y-61293095D02*
X87437980Y-61293095D01*
X87580838Y-61388333D01*
X87676076Y-61483571D01*
X87723695Y-61578809D01*
X87533219Y-60626428D02*
X87485600Y-60578809D01*
X87437980Y-60483571D01*
X87437980Y-60245476D01*
X87485600Y-60150238D01*
X87533219Y-60102619D01*
X87628457Y-60055000D01*
X87723695Y-60055000D01*
X87866552Y-60102619D01*
X88437980Y-60674047D01*
X88437980Y-60055000D01*
X87866552Y-59483571D02*
X87818933Y-59578809D01*
X87771314Y-59626428D01*
X87676076Y-59674047D01*
X87628457Y-59674047D01*
X87533219Y-59626428D01*
X87485600Y-59578809D01*
X87437980Y-59483571D01*
X87437980Y-59293095D01*
X87485600Y-59197857D01*
X87533219Y-59150238D01*
X87628457Y-59102619D01*
X87676076Y-59102619D01*
X87771314Y-59150238D01*
X87818933Y-59197857D01*
X87866552Y-59293095D01*
X87866552Y-59483571D01*
X87914171Y-59578809D01*
X87961790Y-59626428D01*
X88057028Y-59674047D01*
X88247504Y-59674047D01*
X88342742Y-59626428D01*
X88390361Y-59578809D01*
X88437980Y-59483571D01*
X88437980Y-59293095D01*
X88390361Y-59197857D01*
X88342742Y-59150238D01*
X88247504Y-59102619D01*
X88057028Y-59102619D01*
X87961790Y-59150238D01*
X87914171Y-59197857D01*
X87866552Y-59293095D01*
X87437980Y-58388333D02*
X88152266Y-58388333D01*
X88295123Y-58435952D01*
X88390361Y-58531190D01*
X88437980Y-58674047D01*
X88437980Y-58769285D01*
X87437980Y-58055000D02*
X88437980Y-57721666D01*
X87437980Y-57388333D01*
X88437980Y-57055000D02*
X87437980Y-57055000D01*
X87437980Y-56674047D01*
X87485600Y-56578809D01*
X87533219Y-56531190D01*
X87628457Y-56483571D01*
X87771314Y-56483571D01*
X87866552Y-56531190D01*
X87914171Y-56578809D01*
X87961790Y-56674047D01*
X87961790Y-57055000D01*
X88437980Y-56055000D02*
X87437980Y-56055000D01*
X88533219Y-54912142D02*
X88485600Y-55007380D01*
X88390361Y-55102619D01*
X88247504Y-55245476D01*
X88199885Y-55340714D01*
X88199885Y-55435952D01*
X88437980Y-55388333D02*
X88390361Y-55483571D01*
X88295123Y-55578809D01*
X88104647Y-55626428D01*
X87771314Y-55626428D01*
X87580838Y-55578809D01*
X87485600Y-55483571D01*
X87437980Y-55388333D01*
X87437980Y-55197857D01*
X87485600Y-55102619D01*
X87580838Y-55007380D01*
X87771314Y-54959761D01*
X88104647Y-54959761D01*
X88295123Y-55007380D01*
X88390361Y-55102619D01*
X88437980Y-55197857D01*
X88437980Y-55388333D01*
X87437980Y-53912142D02*
X87437980Y-53340714D01*
X88437980Y-53626428D02*
X87437980Y-53626428D01*
X88437980Y-52435952D02*
X87961790Y-52769285D01*
X88437980Y-53007380D02*
X87437980Y-53007380D01*
X87437980Y-52626428D01*
X87485600Y-52531190D01*
X87533219Y-52483571D01*
X87628457Y-52435952D01*
X87771314Y-52435952D01*
X87866552Y-52483571D01*
X87914171Y-52531190D01*
X87961790Y-52626428D01*
X87961790Y-53007380D01*
D10*
X82752380Y-58292857D02*
X82776190Y-58221428D01*
X82776190Y-58102380D01*
X82752380Y-58054761D01*
X82728571Y-58030952D01*
X82680952Y-58007142D01*
X82633333Y-58007142D01*
X82585714Y-58030952D01*
X82561904Y-58054761D01*
X82538095Y-58102380D01*
X82514285Y-58197619D01*
X82490476Y-58245238D01*
X82466666Y-58269047D01*
X82419047Y-58292857D01*
X82371428Y-58292857D01*
X82323809Y-58269047D01*
X82300000Y-58245238D01*
X82276190Y-58197619D01*
X82276190Y-58078571D01*
X82300000Y-58007142D01*
X82276190Y-57840476D02*
X82776190Y-57721428D01*
X82419047Y-57626190D01*
X82776190Y-57530952D01*
X82276190Y-57411904D01*
X82323809Y-57245238D02*
X82300000Y-57221428D01*
X82276190Y-57173809D01*
X82276190Y-57054761D01*
X82300000Y-57007142D01*
X82323809Y-56983333D01*
X82371428Y-56959523D01*
X82419047Y-56959523D01*
X82490476Y-56983333D01*
X82776190Y-57269047D01*
X82776190Y-56959523D01*
X82276190Y-56650000D02*
X82276190Y-56602380D01*
X82300000Y-56554761D01*
X82323809Y-56530952D01*
X82371428Y-56507142D01*
X82466666Y-56483333D01*
X82585714Y-56483333D01*
X82680952Y-56507142D01*
X82728571Y-56530952D01*
X82752380Y-56554761D01*
X82776190Y-56602380D01*
X82776190Y-56650000D01*
X82752380Y-56697619D01*
X82728571Y-56721428D01*
X82680952Y-56745238D01*
X82585714Y-56769047D01*
X82466666Y-56769047D01*
X82371428Y-56745238D01*
X82323809Y-56721428D01*
X82300000Y-56697619D01*
X82276190Y-56650000D01*
X82776190Y-56007142D02*
X82776190Y-56292857D01*
X82776190Y-56150000D02*
X82276190Y-56150000D01*
X82347619Y-56197619D01*
X82395238Y-56245238D01*
X82419047Y-56292857D01*
X81423800Y-59054761D02*
X81423800Y-58530952D01*
X81564990Y-58935714D02*
X81969752Y-58935714D01*
X82017371Y-58911904D01*
X82041180Y-58888095D01*
X82064990Y-58840476D01*
X82064990Y-58745238D01*
X82041180Y-58697619D01*
X82017371Y-58673809D01*
X81969752Y-58650000D01*
X81564990Y-58650000D01*
X81423800Y-58530952D02*
X81423800Y-58054761D01*
X82041180Y-58435714D02*
X82064990Y-58364285D01*
X82064990Y-58245238D01*
X82041180Y-58197619D01*
X82017371Y-58173809D01*
X81969752Y-58150000D01*
X81922133Y-58150000D01*
X81874514Y-58173809D01*
X81850704Y-58197619D01*
X81826895Y-58245238D01*
X81803085Y-58340476D01*
X81779276Y-58388095D01*
X81755466Y-58411904D01*
X81707847Y-58435714D01*
X81660228Y-58435714D01*
X81612609Y-58411904D01*
X81588800Y-58388095D01*
X81564990Y-58340476D01*
X81564990Y-58221428D01*
X81588800Y-58150000D01*
X81423800Y-58054761D02*
X81423800Y-57554761D01*
X81803085Y-57769047D02*
X81826895Y-57697619D01*
X81850704Y-57673809D01*
X81898323Y-57650000D01*
X81969752Y-57650000D01*
X82017371Y-57673809D01*
X82041180Y-57697619D01*
X82064990Y-57745238D01*
X82064990Y-57935714D01*
X81564990Y-57935714D01*
X81564990Y-57769047D01*
X81588800Y-57721428D01*
X81612609Y-57697619D01*
X81660228Y-57673809D01*
X81707847Y-57673809D01*
X81755466Y-57697619D01*
X81779276Y-57721428D01*
X81803085Y-57769047D01*
X81803085Y-57935714D01*
X81423800Y-57554761D02*
X81423800Y-57173809D01*
X82112609Y-57554761D02*
X82112609Y-57173809D01*
X81423800Y-57173809D02*
X81423800Y-56673809D01*
X81803085Y-56888095D02*
X81826895Y-56816666D01*
X81850704Y-56792857D01*
X81898323Y-56769047D01*
X81969752Y-56769047D01*
X82017371Y-56792857D01*
X82041180Y-56816666D01*
X82064990Y-56864285D01*
X82064990Y-57054761D01*
X81564990Y-57054761D01*
X81564990Y-56888095D01*
X81588800Y-56840476D01*
X81612609Y-56816666D01*
X81660228Y-56792857D01*
X81707847Y-56792857D01*
X81755466Y-56816666D01*
X81779276Y-56840476D01*
X81803085Y-56888095D01*
X81803085Y-57054761D01*
X81423800Y-56673809D02*
X81423800Y-56150000D01*
X81564990Y-56459523D02*
X81564990Y-56364285D01*
X81588800Y-56316666D01*
X81636419Y-56269047D01*
X81731657Y-56245238D01*
X81898323Y-56245238D01*
X81993561Y-56269047D01*
X82041180Y-56316666D01*
X82064990Y-56364285D01*
X82064990Y-56459523D01*
X82041180Y-56507142D01*
X81993561Y-56554761D01*
X81898323Y-56578571D01*
X81731657Y-56578571D01*
X81636419Y-56554761D01*
X81588800Y-56507142D01*
X81564990Y-56459523D01*
X81423800Y-56150000D02*
X81423800Y-55626190D01*
X81564990Y-55935714D02*
X81564990Y-55840476D01*
X81588800Y-55792857D01*
X81636419Y-55745238D01*
X81731657Y-55721428D01*
X81898323Y-55721428D01*
X81993561Y-55745238D01*
X82041180Y-55792857D01*
X82064990Y-55840476D01*
X82064990Y-55935714D01*
X82041180Y-55983333D01*
X81993561Y-56030952D01*
X81898323Y-56054761D01*
X81731657Y-56054761D01*
X81636419Y-56030952D01*
X81588800Y-55983333D01*
X81564990Y-55935714D01*
X81423800Y-55626190D02*
X81423800Y-55245238D01*
X81564990Y-55578571D02*
X81564990Y-55292857D01*
X82064990Y-55435714D02*
X81564990Y-55435714D01*
X85055161Y-169773802D02*
X85126590Y-169797612D01*
X85245638Y-169797612D01*
X85293257Y-169773802D01*
X85317066Y-169749993D01*
X85340876Y-169702374D01*
X85340876Y-169654755D01*
X85317066Y-169607136D01*
X85293257Y-169583326D01*
X85245638Y-169559517D01*
X85150400Y-169535707D01*
X85102780Y-169511898D01*
X85078971Y-169488088D01*
X85055161Y-169440469D01*
X85055161Y-169392850D01*
X85078971Y-169345231D01*
X85102780Y-169321422D01*
X85150400Y-169297612D01*
X85269447Y-169297612D01*
X85340876Y-169321422D01*
X85555161Y-169797612D02*
X85555161Y-169297612D01*
X85840876Y-169797612D02*
X85626590Y-169511898D01*
X85840876Y-169297612D02*
X85555161Y-169583326D01*
X86078971Y-169797612D02*
X86174209Y-169797612D01*
X86221828Y-169773802D01*
X86245638Y-169749993D01*
X86293257Y-169678564D01*
X86317066Y-169583326D01*
X86317066Y-169392850D01*
X86293257Y-169345231D01*
X86269447Y-169321422D01*
X86221828Y-169297612D01*
X86126590Y-169297612D01*
X86078971Y-169321422D01*
X86055161Y-169345231D01*
X86031352Y-169392850D01*
X86031352Y-169511898D01*
X86055161Y-169559517D01*
X86078971Y-169583326D01*
X86126590Y-169607136D01*
X86221828Y-169607136D01*
X86269447Y-169583326D01*
X86293257Y-169559517D01*
X86317066Y-169511898D01*
X86602780Y-169511898D02*
X86555161Y-169488088D01*
X86531352Y-169464279D01*
X86507542Y-169416660D01*
X86507542Y-169392850D01*
X86531352Y-169345231D01*
X86555161Y-169321422D01*
X86602780Y-169297612D01*
X86698019Y-169297612D01*
X86745638Y-169321422D01*
X86769447Y-169345231D01*
X86793257Y-169392850D01*
X86793257Y-169416660D01*
X86769447Y-169464279D01*
X86745638Y-169488088D01*
X86698019Y-169511898D01*
X86602780Y-169511898D01*
X86555161Y-169535707D01*
X86531352Y-169559517D01*
X86507542Y-169607136D01*
X86507542Y-169702374D01*
X86531352Y-169749993D01*
X86555161Y-169773802D01*
X86602780Y-169797612D01*
X86698019Y-169797612D01*
X86745638Y-169773802D01*
X86769447Y-169749993D01*
X86793257Y-169702374D01*
X86793257Y-169607136D01*
X86769447Y-169559517D01*
X86745638Y-169535707D01*
X86698019Y-169511898D01*
X86983733Y-169345231D02*
X87007542Y-169321422D01*
X87055161Y-169297612D01*
X87174209Y-169297612D01*
X87221828Y-169321422D01*
X87245638Y-169345231D01*
X87269447Y-169392850D01*
X87269447Y-169440469D01*
X87245638Y-169511898D01*
X86959923Y-169797612D01*
X87269447Y-169797612D01*
X87459923Y-169345231D02*
X87483733Y-169321422D01*
X87531352Y-169297612D01*
X87650400Y-169297612D01*
X87698019Y-169321422D01*
X87721828Y-169345231D01*
X87745638Y-169392850D01*
X87745638Y-169440469D01*
X87721828Y-169511898D01*
X87436114Y-169797612D01*
X87745638Y-169797612D01*
D11*
X85571828Y-170463574D02*
X85381352Y-170463574D01*
X85381352Y-170063574D01*
X85705161Y-170254050D02*
X85838495Y-170254050D01*
X85895638Y-170463574D02*
X85705161Y-170463574D01*
X85705161Y-170063574D01*
X85895638Y-170063574D01*
X86067066Y-170463574D02*
X86067066Y-170063574D01*
X86162304Y-170063574D01*
X86219447Y-170082622D01*
X86257542Y-170120717D01*
X86276590Y-170158812D01*
X86295638Y-170235002D01*
X86295638Y-170292145D01*
X86276590Y-170368336D01*
X86257542Y-170406431D01*
X86219447Y-170444526D01*
X86162304Y-170463574D01*
X86067066Y-170463574D01*
X86428971Y-170063574D02*
X86676590Y-170063574D01*
X86543257Y-170215955D01*
X86600400Y-170215955D01*
X86638495Y-170235002D01*
X86657542Y-170254050D01*
X86676590Y-170292145D01*
X86676590Y-170387383D01*
X86657542Y-170425479D01*
X86638495Y-170444526D01*
X86600400Y-170463574D01*
X86486114Y-170463574D01*
X86448019Y-170444526D01*
X86428971Y-170425479D01*
X86828971Y-170101669D02*
X86848019Y-170082622D01*
X86886114Y-170063574D01*
X86981352Y-170063574D01*
X87019447Y-170082622D01*
X87038495Y-170101669D01*
X87057542Y-170139764D01*
X87057542Y-170177860D01*
X87038495Y-170235002D01*
X86809923Y-170463574D01*
X87057542Y-170463574D01*
X87209923Y-170101669D02*
X87228971Y-170082622D01*
X87267066Y-170063574D01*
X87362304Y-170063574D01*
X87400400Y-170082622D01*
X87419447Y-170101669D01*
X87438495Y-170139764D01*
X87438495Y-170177860D01*
X87419447Y-170235002D01*
X87190876Y-170463574D01*
X87438495Y-170463574D01*
X86278176Y-179081495D02*
X86135319Y-179081495D01*
X86206747Y-179081495D02*
X86206747Y-178831495D01*
X86182938Y-178867209D01*
X86159128Y-178891019D01*
X86135319Y-178902923D01*
X86432938Y-178831495D02*
X86456747Y-178831495D01*
X86480557Y-178843400D01*
X86492461Y-178855304D01*
X86504366Y-178879114D01*
X86516271Y-178926733D01*
X86516271Y-178986257D01*
X86504366Y-179033876D01*
X86492461Y-179057685D01*
X86480557Y-179069590D01*
X86456747Y-179081495D01*
X86432938Y-179081495D01*
X86409128Y-179069590D01*
X86397223Y-179057685D01*
X86385319Y-179033876D01*
X86373414Y-178986257D01*
X86373414Y-178926733D01*
X86385319Y-178879114D01*
X86397223Y-178855304D01*
X86409128Y-178843400D01*
X86432938Y-178831495D01*
X86623414Y-179081495D02*
X86623414Y-178831495D01*
X86647223Y-178986257D02*
X86718652Y-179081495D01*
X86718652Y-178914828D02*
X86623414Y-179010066D01*
X87063890Y-178831495D02*
X87087700Y-178831495D01*
X87111509Y-178843400D01*
X87123414Y-178855304D01*
X87135319Y-178879114D01*
X87147223Y-178926733D01*
X87147223Y-178986257D01*
X87135319Y-179033876D01*
X87123414Y-179057685D01*
X87111509Y-179069590D01*
X87087700Y-179081495D01*
X87063890Y-179081495D01*
X87040080Y-179069590D01*
X87028176Y-179057685D01*
X87016271Y-179033876D01*
X87004366Y-178986257D01*
X87004366Y-178926733D01*
X87016271Y-178879114D01*
X87028176Y-178855304D01*
X87040080Y-178843400D01*
X87063890Y-178831495D01*
X87242461Y-178855304D02*
X87254366Y-178843400D01*
X87278176Y-178831495D01*
X87337700Y-178831495D01*
X87361509Y-178843400D01*
X87373414Y-178855304D01*
X87385319Y-178879114D01*
X87385319Y-178902923D01*
X87373414Y-178938638D01*
X87230557Y-179081495D01*
X87385319Y-179081495D01*
X87540080Y-178831495D02*
X87563890Y-178831495D01*
X87587700Y-178843400D01*
X87599604Y-178855304D01*
X87611509Y-178879114D01*
X87623414Y-178926733D01*
X87623414Y-178986257D01*
X87611509Y-179033876D01*
X87599604Y-179057685D01*
X87587700Y-179069590D01*
X87563890Y-179081495D01*
X87540080Y-179081495D01*
X87516271Y-179069590D01*
X87504366Y-179057685D01*
X87492461Y-179033876D01*
X87480557Y-178986257D01*
X87480557Y-178926733D01*
X87492461Y-178879114D01*
X87504366Y-178855304D01*
X87516271Y-178843400D01*
X87540080Y-178831495D01*
X87861509Y-179081495D02*
X87718652Y-179081495D01*
X87790080Y-179081495D02*
X87790080Y-178831495D01*
X87766271Y-178867209D01*
X87742461Y-178891019D01*
X87718652Y-178902923D01*
X85374190Y-179516076D02*
X85307523Y-179420838D01*
X85259904Y-179516076D02*
X85259904Y-179316076D01*
X85336095Y-179316076D01*
X85355142Y-179325600D01*
X85364666Y-179335123D01*
X85374190Y-179354171D01*
X85374190Y-179382742D01*
X85364666Y-179401790D01*
X85355142Y-179411314D01*
X85336095Y-179420838D01*
X85259904Y-179420838D01*
X85440857Y-179316076D02*
X85564666Y-179316076D01*
X85498000Y-179392266D01*
X85526571Y-179392266D01*
X85545619Y-179401790D01*
X85555142Y-179411314D01*
X85564666Y-179430361D01*
X85564666Y-179477980D01*
X85555142Y-179497028D01*
X85545619Y-179506552D01*
X85526571Y-179516076D01*
X85469428Y-179516076D01*
X85450380Y-179506552D01*
X85440857Y-179497028D01*
X85688476Y-179316076D02*
X85707523Y-179316076D01*
X85726571Y-179325600D01*
X85736095Y-179335123D01*
X85745619Y-179354171D01*
X85755142Y-179392266D01*
X85755142Y-179439885D01*
X85745619Y-179477980D01*
X85736095Y-179497028D01*
X85726571Y-179506552D01*
X85707523Y-179516076D01*
X85688476Y-179516076D01*
X85669428Y-179506552D01*
X85659904Y-179497028D01*
X85650380Y-179477980D01*
X85640857Y-179439885D01*
X85640857Y-179392266D01*
X85650380Y-179354171D01*
X85659904Y-179335123D01*
X85669428Y-179325600D01*
X85688476Y-179316076D01*
X85926571Y-179382742D02*
X85926571Y-179516076D01*
X85878952Y-179306552D02*
X85831333Y-179449409D01*
X85955142Y-179449409D01*
D10*
X85055161Y-166019020D02*
X85126590Y-166042830D01*
X85245638Y-166042830D01*
X85293257Y-166019020D01*
X85317066Y-165995211D01*
X85340876Y-165947592D01*
X85340876Y-165899973D01*
X85317066Y-165852354D01*
X85293257Y-165828544D01*
X85245638Y-165804735D01*
X85150400Y-165780925D01*
X85102780Y-165757116D01*
X85078971Y-165733306D01*
X85055161Y-165685687D01*
X85055161Y-165638068D01*
X85078971Y-165590449D01*
X85102780Y-165566640D01*
X85150400Y-165542830D01*
X85269447Y-165542830D01*
X85340876Y-165566640D01*
X85555161Y-166042830D02*
X85555161Y-165542830D01*
X85840876Y-166042830D02*
X85626590Y-165757116D01*
X85840876Y-165542830D02*
X85555161Y-165828544D01*
X86078971Y-166042830D02*
X86174209Y-166042830D01*
X86221828Y-166019020D01*
X86245638Y-165995211D01*
X86293257Y-165923782D01*
X86317066Y-165828544D01*
X86317066Y-165638068D01*
X86293257Y-165590449D01*
X86269447Y-165566640D01*
X86221828Y-165542830D01*
X86126590Y-165542830D01*
X86078971Y-165566640D01*
X86055161Y-165590449D01*
X86031352Y-165638068D01*
X86031352Y-165757116D01*
X86055161Y-165804735D01*
X86078971Y-165828544D01*
X86126590Y-165852354D01*
X86221828Y-165852354D01*
X86269447Y-165828544D01*
X86293257Y-165804735D01*
X86317066Y-165757116D01*
X86602780Y-165757116D02*
X86555161Y-165733306D01*
X86531352Y-165709497D01*
X86507542Y-165661878D01*
X86507542Y-165638068D01*
X86531352Y-165590449D01*
X86555161Y-165566640D01*
X86602780Y-165542830D01*
X86698019Y-165542830D01*
X86745638Y-165566640D01*
X86769447Y-165590449D01*
X86793257Y-165638068D01*
X86793257Y-165661878D01*
X86769447Y-165709497D01*
X86745638Y-165733306D01*
X86698019Y-165757116D01*
X86602780Y-165757116D01*
X86555161Y-165780925D01*
X86531352Y-165804735D01*
X86507542Y-165852354D01*
X86507542Y-165947592D01*
X86531352Y-165995211D01*
X86555161Y-166019020D01*
X86602780Y-166042830D01*
X86698019Y-166042830D01*
X86745638Y-166019020D01*
X86769447Y-165995211D01*
X86793257Y-165947592D01*
X86793257Y-165852354D01*
X86769447Y-165804735D01*
X86745638Y-165780925D01*
X86698019Y-165757116D01*
X86983733Y-165590449D02*
X87007542Y-165566640D01*
X87055161Y-165542830D01*
X87174209Y-165542830D01*
X87221828Y-165566640D01*
X87245638Y-165590449D01*
X87269447Y-165638068D01*
X87269447Y-165685687D01*
X87245638Y-165757116D01*
X86959923Y-166042830D01*
X87269447Y-166042830D01*
X87459923Y-165590449D02*
X87483733Y-165566640D01*
X87531352Y-165542830D01*
X87650400Y-165542830D01*
X87698019Y-165566640D01*
X87721828Y-165590449D01*
X87745638Y-165638068D01*
X87745638Y-165685687D01*
X87721828Y-165757116D01*
X87436114Y-166042830D01*
X87745638Y-166042830D01*
D11*
X85571828Y-166708792D02*
X85381352Y-166708792D01*
X85381352Y-166308792D01*
X85705161Y-166499268D02*
X85838495Y-166499268D01*
X85895638Y-166708792D02*
X85705161Y-166708792D01*
X85705161Y-166308792D01*
X85895638Y-166308792D01*
X86067066Y-166708792D02*
X86067066Y-166308792D01*
X86162304Y-166308792D01*
X86219447Y-166327840D01*
X86257542Y-166365935D01*
X86276590Y-166404030D01*
X86295638Y-166480220D01*
X86295638Y-166537363D01*
X86276590Y-166613554D01*
X86257542Y-166651649D01*
X86219447Y-166689744D01*
X86162304Y-166708792D01*
X86067066Y-166708792D01*
X86428971Y-166308792D02*
X86676590Y-166308792D01*
X86543257Y-166461173D01*
X86600400Y-166461173D01*
X86638495Y-166480220D01*
X86657542Y-166499268D01*
X86676590Y-166537363D01*
X86676590Y-166632601D01*
X86657542Y-166670697D01*
X86638495Y-166689744D01*
X86600400Y-166708792D01*
X86486114Y-166708792D01*
X86448019Y-166689744D01*
X86428971Y-166670697D01*
X86828971Y-166346887D02*
X86848019Y-166327840D01*
X86886114Y-166308792D01*
X86981352Y-166308792D01*
X87019447Y-166327840D01*
X87038495Y-166346887D01*
X87057542Y-166384982D01*
X87057542Y-166423078D01*
X87038495Y-166480220D01*
X86809923Y-166708792D01*
X87057542Y-166708792D01*
X87438495Y-166708792D02*
X87209923Y-166708792D01*
X87324209Y-166708792D02*
X87324209Y-166308792D01*
X87286114Y-166365935D01*
X87248019Y-166404030D01*
X87209923Y-166423078D01*
D10*
X81990476Y-54153571D02*
X81966666Y-54177380D01*
X81895238Y-54201190D01*
X81847619Y-54201190D01*
X81776190Y-54177380D01*
X81728571Y-54129761D01*
X81704761Y-54082142D01*
X81680952Y-53986904D01*
X81680952Y-53915476D01*
X81704761Y-53820238D01*
X81728571Y-53772619D01*
X81776190Y-53725000D01*
X81847619Y-53701190D01*
X81895238Y-53701190D01*
X81966666Y-53725000D01*
X81990476Y-53748809D01*
X82180952Y-53748809D02*
X82204761Y-53725000D01*
X82252380Y-53701190D01*
X82371428Y-53701190D01*
X82419047Y-53725000D01*
X82442857Y-53748809D01*
X82466666Y-53796428D01*
X82466666Y-53844047D01*
X82442857Y-53915476D01*
X82157142Y-54201190D01*
X82466666Y-54201190D01*
X82942857Y-54201190D02*
X82657142Y-54201190D01*
X82800000Y-54201190D02*
X82800000Y-53701190D01*
X82752380Y-53772619D01*
X82704761Y-53820238D01*
X82657142Y-53844047D01*
X83371428Y-53701190D02*
X83276190Y-53701190D01*
X83228571Y-53725000D01*
X83204761Y-53748809D01*
X83157142Y-53820238D01*
X83133333Y-53915476D01*
X83133333Y-54105952D01*
X83157142Y-54153571D01*
X83180952Y-54177380D01*
X83228571Y-54201190D01*
X83323809Y-54201190D01*
X83371428Y-54177380D01*
X83395238Y-54153571D01*
X83419047Y-54105952D01*
X83419047Y-53986904D01*
X83395238Y-53939285D01*
X83371428Y-53915476D01*
X83323809Y-53891666D01*
X83228571Y-53891666D01*
X83180952Y-53915476D01*
X83157142Y-53939285D01*
X83133333Y-53986904D01*
X83487390Y-56296428D02*
X83487390Y-56582142D01*
X83487390Y-56439285D02*
X82987390Y-56439285D01*
X83058819Y-56486904D01*
X83106438Y-56534523D01*
X83130247Y-56582142D01*
X83154057Y-55867857D02*
X83487390Y-55867857D01*
X83154057Y-56082142D02*
X83415961Y-56082142D01*
X83463580Y-56058333D01*
X83487390Y-56010714D01*
X83487390Y-55939285D01*
X83463580Y-55891666D01*
X83439771Y-55867857D01*
X83225485Y-55463095D02*
X83225485Y-55629761D01*
X83487390Y-55629761D02*
X82987390Y-55629761D01*
X82987390Y-55391666D01*
X82987390Y-54725000D02*
X82987390Y-54677380D01*
X83011200Y-54629761D01*
X83035009Y-54605952D01*
X83082628Y-54582142D01*
X83177866Y-54558333D01*
X83296914Y-54558333D01*
X83392152Y-54582142D01*
X83439771Y-54605952D01*
X83463580Y-54629761D01*
X83487390Y-54677380D01*
X83487390Y-54725000D01*
X83463580Y-54772619D01*
X83439771Y-54796428D01*
X83392152Y-54820238D01*
X83296914Y-54844047D01*
X83177866Y-54844047D01*
X83082628Y-54820238D01*
X83035009Y-54796428D01*
X83011200Y-54772619D01*
X82987390Y-54725000D01*
X83154057Y-54129761D02*
X83487390Y-54129761D01*
X82963580Y-54248809D02*
X83320723Y-54367857D01*
X83320723Y-54058333D01*
X82987390Y-53772619D02*
X82987390Y-53725000D01*
X83011200Y-53677380D01*
X83035009Y-53653571D01*
X83082628Y-53629761D01*
X83177866Y-53605952D01*
X83296914Y-53605952D01*
X83392152Y-53629761D01*
X83439771Y-53653571D01*
X83463580Y-53677380D01*
X83487390Y-53725000D01*
X83487390Y-53772619D01*
X83463580Y-53820238D01*
X83439771Y-53844047D01*
X83392152Y-53867857D01*
X83296914Y-53891666D01*
X83177866Y-53891666D01*
X83082628Y-53867857D01*
X83035009Y-53844047D01*
X83011200Y-53820238D01*
X82987390Y-53772619D01*
X83035009Y-53415476D02*
X83011200Y-53391666D01*
X82987390Y-53344047D01*
X82987390Y-53225000D01*
X83011200Y-53177380D01*
X83035009Y-53153571D01*
X83082628Y-53129761D01*
X83130247Y-53129761D01*
X83201676Y-53153571D01*
X83487390Y-53439285D01*
X83487390Y-53129761D01*
X83487390Y-52272619D02*
X83487390Y-52558333D01*
X83487390Y-52415476D02*
X82987390Y-52415476D01*
X83058819Y-52463095D01*
X83106438Y-52510714D01*
X83130247Y-52558333D01*
X82987390Y-51963095D02*
X82987390Y-51915476D01*
X83011200Y-51867857D01*
X83035009Y-51844047D01*
X83082628Y-51820238D01*
X83177866Y-51796428D01*
X83296914Y-51796428D01*
X83392152Y-51820238D01*
X83439771Y-51844047D01*
X83463580Y-51867857D01*
X83487390Y-51915476D01*
X83487390Y-51963095D01*
X83463580Y-52010714D01*
X83439771Y-52034523D01*
X83392152Y-52058333D01*
X83296914Y-52082142D01*
X83177866Y-52082142D01*
X83082628Y-52058333D01*
X83035009Y-52034523D01*
X83011200Y-52010714D01*
X82987390Y-51963095D01*
X82987390Y-51653571D02*
X83487390Y-51486904D01*
X82987390Y-51320238D01*
X85055161Y-154754674D02*
X85126590Y-154778484D01*
X85245638Y-154778484D01*
X85293257Y-154754674D01*
X85317066Y-154730865D01*
X85340876Y-154683246D01*
X85340876Y-154635627D01*
X85317066Y-154588008D01*
X85293257Y-154564198D01*
X85245638Y-154540389D01*
X85150400Y-154516579D01*
X85102780Y-154492770D01*
X85078971Y-154468960D01*
X85055161Y-154421341D01*
X85055161Y-154373722D01*
X85078971Y-154326103D01*
X85102780Y-154302294D01*
X85150400Y-154278484D01*
X85269447Y-154278484D01*
X85340876Y-154302294D01*
X85555161Y-154778484D02*
X85555161Y-154278484D01*
X85840876Y-154778484D02*
X85626590Y-154492770D01*
X85840876Y-154278484D02*
X85555161Y-154564198D01*
X86078971Y-154778484D02*
X86174209Y-154778484D01*
X86221828Y-154754674D01*
X86245638Y-154730865D01*
X86293257Y-154659436D01*
X86317066Y-154564198D01*
X86317066Y-154373722D01*
X86293257Y-154326103D01*
X86269447Y-154302294D01*
X86221828Y-154278484D01*
X86126590Y-154278484D01*
X86078971Y-154302294D01*
X86055161Y-154326103D01*
X86031352Y-154373722D01*
X86031352Y-154492770D01*
X86055161Y-154540389D01*
X86078971Y-154564198D01*
X86126590Y-154588008D01*
X86221828Y-154588008D01*
X86269447Y-154564198D01*
X86293257Y-154540389D01*
X86317066Y-154492770D01*
X86602780Y-154492770D02*
X86555161Y-154468960D01*
X86531352Y-154445151D01*
X86507542Y-154397532D01*
X86507542Y-154373722D01*
X86531352Y-154326103D01*
X86555161Y-154302294D01*
X86602780Y-154278484D01*
X86698019Y-154278484D01*
X86745638Y-154302294D01*
X86769447Y-154326103D01*
X86793257Y-154373722D01*
X86793257Y-154397532D01*
X86769447Y-154445151D01*
X86745638Y-154468960D01*
X86698019Y-154492770D01*
X86602780Y-154492770D01*
X86555161Y-154516579D01*
X86531352Y-154540389D01*
X86507542Y-154588008D01*
X86507542Y-154683246D01*
X86531352Y-154730865D01*
X86555161Y-154754674D01*
X86602780Y-154778484D01*
X86698019Y-154778484D01*
X86745638Y-154754674D01*
X86769447Y-154730865D01*
X86793257Y-154683246D01*
X86793257Y-154588008D01*
X86769447Y-154540389D01*
X86745638Y-154516579D01*
X86698019Y-154492770D01*
X86983733Y-154326103D02*
X87007542Y-154302294D01*
X87055161Y-154278484D01*
X87174209Y-154278484D01*
X87221828Y-154302294D01*
X87245638Y-154326103D01*
X87269447Y-154373722D01*
X87269447Y-154421341D01*
X87245638Y-154492770D01*
X86959923Y-154778484D01*
X87269447Y-154778484D01*
X87459923Y-154326103D02*
X87483733Y-154302294D01*
X87531352Y-154278484D01*
X87650400Y-154278484D01*
X87698019Y-154302294D01*
X87721828Y-154326103D01*
X87745638Y-154373722D01*
X87745638Y-154421341D01*
X87721828Y-154492770D01*
X87436114Y-154778484D01*
X87745638Y-154778484D01*
D11*
X85571828Y-155444446D02*
X85381352Y-155444446D01*
X85381352Y-155044446D01*
X85705161Y-155234922D02*
X85838495Y-155234922D01*
X85895638Y-155444446D02*
X85705161Y-155444446D01*
X85705161Y-155044446D01*
X85895638Y-155044446D01*
X86067066Y-155444446D02*
X86067066Y-155044446D01*
X86162304Y-155044446D01*
X86219447Y-155063494D01*
X86257542Y-155101589D01*
X86276590Y-155139684D01*
X86295638Y-155215874D01*
X86295638Y-155273017D01*
X86276590Y-155349208D01*
X86257542Y-155387303D01*
X86219447Y-155425398D01*
X86162304Y-155444446D01*
X86067066Y-155444446D01*
X86428971Y-155044446D02*
X86676590Y-155044446D01*
X86543257Y-155196827D01*
X86600400Y-155196827D01*
X86638495Y-155215874D01*
X86657542Y-155234922D01*
X86676590Y-155273017D01*
X86676590Y-155368255D01*
X86657542Y-155406351D01*
X86638495Y-155425398D01*
X86600400Y-155444446D01*
X86486114Y-155444446D01*
X86448019Y-155425398D01*
X86428971Y-155406351D01*
X87057542Y-155444446D02*
X86828971Y-155444446D01*
X86943257Y-155444446D02*
X86943257Y-155044446D01*
X86905161Y-155101589D01*
X86867066Y-155139684D01*
X86828971Y-155158732D01*
X87286114Y-155215874D02*
X87248019Y-155196827D01*
X87228971Y-155177779D01*
X87209923Y-155139684D01*
X87209923Y-155120636D01*
X87228971Y-155082541D01*
X87248019Y-155063494D01*
X87286114Y-155044446D01*
X87362304Y-155044446D01*
X87400400Y-155063494D01*
X87419447Y-155082541D01*
X87438495Y-155120636D01*
X87438495Y-155139684D01*
X87419447Y-155177779D01*
X87400400Y-155196827D01*
X87362304Y-155215874D01*
X87286114Y-155215874D01*
X87248019Y-155234922D01*
X87228971Y-155253970D01*
X87209923Y-155292065D01*
X87209923Y-155368255D01*
X87228971Y-155406351D01*
X87248019Y-155425398D01*
X87286114Y-155444446D01*
X87362304Y-155444446D01*
X87400400Y-155425398D01*
X87419447Y-155406351D01*
X87438495Y-155368255D01*
X87438495Y-155292065D01*
X87419447Y-155253970D01*
X87400400Y-155234922D01*
X87362304Y-155215874D01*
D10*
X82752380Y-43052857D02*
X82776190Y-42981428D01*
X82776190Y-42862380D01*
X82752380Y-42814761D01*
X82728571Y-42790952D01*
X82680952Y-42767142D01*
X82633333Y-42767142D01*
X82585714Y-42790952D01*
X82561904Y-42814761D01*
X82538095Y-42862380D01*
X82514285Y-42957619D01*
X82490476Y-43005238D01*
X82466666Y-43029047D01*
X82419047Y-43052857D01*
X82371428Y-43052857D01*
X82323809Y-43029047D01*
X82300000Y-43005238D01*
X82276190Y-42957619D01*
X82276190Y-42838571D01*
X82300000Y-42767142D01*
X82276190Y-42600476D02*
X82776190Y-42481428D01*
X82419047Y-42386190D01*
X82776190Y-42290952D01*
X82276190Y-42171904D01*
X82323809Y-42005238D02*
X82300000Y-41981428D01*
X82276190Y-41933809D01*
X82276190Y-41814761D01*
X82300000Y-41767142D01*
X82323809Y-41743333D01*
X82371428Y-41719523D01*
X82419047Y-41719523D01*
X82490476Y-41743333D01*
X82776190Y-42029047D01*
X82776190Y-41719523D01*
X82276190Y-41410000D02*
X82276190Y-41362380D01*
X82300000Y-41314761D01*
X82323809Y-41290952D01*
X82371428Y-41267142D01*
X82466666Y-41243333D01*
X82585714Y-41243333D01*
X82680952Y-41267142D01*
X82728571Y-41290952D01*
X82752380Y-41314761D01*
X82776190Y-41362380D01*
X82776190Y-41410000D01*
X82752380Y-41457619D01*
X82728571Y-41481428D01*
X82680952Y-41505238D01*
X82585714Y-41529047D01*
X82466666Y-41529047D01*
X82371428Y-41505238D01*
X82323809Y-41481428D01*
X82300000Y-41457619D01*
X82276190Y-41410000D01*
X82323809Y-41052857D02*
X82300000Y-41029047D01*
X82276190Y-40981428D01*
X82276190Y-40862380D01*
X82300000Y-40814761D01*
X82323809Y-40790952D01*
X82371428Y-40767142D01*
X82419047Y-40767142D01*
X82490476Y-40790952D01*
X82776190Y-41076666D01*
X82776190Y-40767142D01*
X82846200Y-43040952D02*
X82846200Y-42540952D01*
X83487390Y-42636190D02*
X83249295Y-42802857D01*
X83487390Y-42921904D02*
X82987390Y-42921904D01*
X82987390Y-42731428D01*
X83011200Y-42683809D01*
X83035009Y-42660000D01*
X83082628Y-42636190D01*
X83154057Y-42636190D01*
X83201676Y-42660000D01*
X83225485Y-42683809D01*
X83249295Y-42731428D01*
X83249295Y-42921904D01*
X82846200Y-42540952D02*
X82846200Y-42088571D01*
X83225485Y-42421904D02*
X83225485Y-42255238D01*
X83487390Y-42183809D02*
X83487390Y-42421904D01*
X82987390Y-42421904D01*
X82987390Y-42183809D01*
X82846200Y-42088571D02*
X82846200Y-41612380D01*
X83463580Y-41993333D02*
X83487390Y-41921904D01*
X83487390Y-41802857D01*
X83463580Y-41755238D01*
X83439771Y-41731428D01*
X83392152Y-41707619D01*
X83344533Y-41707619D01*
X83296914Y-41731428D01*
X83273104Y-41755238D01*
X83249295Y-41802857D01*
X83225485Y-41898095D01*
X83201676Y-41945714D01*
X83177866Y-41969523D01*
X83130247Y-41993333D01*
X83082628Y-41993333D01*
X83035009Y-41969523D01*
X83011200Y-41945714D01*
X82987390Y-41898095D01*
X82987390Y-41779047D01*
X83011200Y-41707619D01*
X82846200Y-41612380D02*
X82846200Y-41160000D01*
X83225485Y-41493333D02*
X83225485Y-41326666D01*
X83487390Y-41255238D02*
X83487390Y-41493333D01*
X82987390Y-41493333D01*
X82987390Y-41255238D01*
X82846200Y-41160000D02*
X82846200Y-40779047D01*
X82987390Y-41112380D02*
X82987390Y-40826666D01*
X83487390Y-40969523D02*
X82987390Y-40969523D01*
D11*
X84902295Y-26027128D02*
X84902295Y-26146176D01*
X85021342Y-26158080D01*
X85009438Y-26146176D01*
X84997533Y-26122366D01*
X84997533Y-26062842D01*
X85009438Y-26039033D01*
X85021342Y-26027128D01*
X85045152Y-26015223D01*
X85104676Y-26015223D01*
X85128485Y-26027128D01*
X85140390Y-26039033D01*
X85152295Y-26062842D01*
X85152295Y-26122366D01*
X85140390Y-26146176D01*
X85128485Y-26158080D01*
X85152295Y-25908080D02*
X84902295Y-25908080D01*
X85057057Y-25884271D02*
X85152295Y-25812842D01*
X84985628Y-25812842D02*
X85080866Y-25908080D01*
X85152295Y-25574747D02*
X85152295Y-25717604D01*
X85152295Y-25646176D02*
X84902295Y-25646176D01*
X84938009Y-25669985D01*
X84961819Y-25693795D01*
X84973723Y-25717604D01*
X84902295Y-25229509D02*
X84902295Y-25205700D01*
X84914200Y-25181890D01*
X84926104Y-25169985D01*
X84949914Y-25158080D01*
X84997533Y-25146176D01*
X85057057Y-25146176D01*
X85104676Y-25158080D01*
X85128485Y-25169985D01*
X85140390Y-25181890D01*
X85152295Y-25205700D01*
X85152295Y-25229509D01*
X85140390Y-25253319D01*
X85128485Y-25265223D01*
X85104676Y-25277128D01*
X85057057Y-25289033D01*
X84997533Y-25289033D01*
X84949914Y-25277128D01*
X84926104Y-25265223D01*
X84914200Y-25253319D01*
X84902295Y-25229509D01*
X84926104Y-25050938D02*
X84914200Y-25039033D01*
X84902295Y-25015223D01*
X84902295Y-24955700D01*
X84914200Y-24931890D01*
X84926104Y-24919985D01*
X84949914Y-24908080D01*
X84973723Y-24908080D01*
X85009438Y-24919985D01*
X85152295Y-25062842D01*
X85152295Y-24908080D01*
X84902295Y-24753319D02*
X84902295Y-24729509D01*
X84914200Y-24705700D01*
X84926104Y-24693795D01*
X84949914Y-24681890D01*
X84997533Y-24669985D01*
X85057057Y-24669985D01*
X85104676Y-24681890D01*
X85128485Y-24693795D01*
X85140390Y-24705700D01*
X85152295Y-24729509D01*
X85152295Y-24753319D01*
X85140390Y-24777128D01*
X85128485Y-24789033D01*
X85104676Y-24800938D01*
X85057057Y-24812842D01*
X84997533Y-24812842D01*
X84949914Y-24800938D01*
X84926104Y-24789033D01*
X84914200Y-24777128D01*
X84902295Y-24753319D01*
X85152295Y-24431890D02*
X85152295Y-24574747D01*
X85152295Y-24503319D02*
X84902295Y-24503319D01*
X84938009Y-24527128D01*
X84961819Y-24550938D01*
X84973723Y-24574747D01*
X84672476Y-26004809D02*
X84577238Y-26071476D01*
X84672476Y-26119095D02*
X84472476Y-26119095D01*
X84472476Y-26042904D01*
X84482000Y-26023857D01*
X84491523Y-26014333D01*
X84510571Y-26004809D01*
X84539142Y-26004809D01*
X84558190Y-26014333D01*
X84567714Y-26023857D01*
X84577238Y-26042904D01*
X84577238Y-26119095D01*
X84491523Y-25928619D02*
X84482000Y-25919095D01*
X84472476Y-25900047D01*
X84472476Y-25852428D01*
X84482000Y-25833380D01*
X84491523Y-25823857D01*
X84510571Y-25814333D01*
X84529619Y-25814333D01*
X84558190Y-25823857D01*
X84672476Y-25938142D01*
X84672476Y-25814333D01*
X84472476Y-25690523D02*
X84472476Y-25671476D01*
X84482000Y-25652428D01*
X84491523Y-25642904D01*
X84510571Y-25633380D01*
X84548666Y-25623857D01*
X84596285Y-25623857D01*
X84634380Y-25633380D01*
X84653428Y-25642904D01*
X84662952Y-25652428D01*
X84672476Y-25671476D01*
X84672476Y-25690523D01*
X84662952Y-25709571D01*
X84653428Y-25719095D01*
X84634380Y-25728619D01*
X84596285Y-25738142D01*
X84548666Y-25738142D01*
X84510571Y-25728619D01*
X84491523Y-25719095D01*
X84482000Y-25709571D01*
X84472476Y-25690523D01*
X84472476Y-25452428D02*
X84472476Y-25490523D01*
X84482000Y-25509571D01*
X84491523Y-25519095D01*
X84520095Y-25538142D01*
X84558190Y-25547666D01*
X84634380Y-25547666D01*
X84653428Y-25538142D01*
X84662952Y-25528619D01*
X84672476Y-25509571D01*
X84672476Y-25471476D01*
X84662952Y-25452428D01*
X84653428Y-25442904D01*
X84634380Y-25433380D01*
X84586761Y-25433380D01*
X84567714Y-25442904D01*
X84558190Y-25452428D01*
X84548666Y-25471476D01*
X84548666Y-25509571D01*
X84558190Y-25528619D01*
X84567714Y-25538142D01*
X84586761Y-25547666D01*
D10*
X85055161Y-94678162D02*
X85126590Y-94701972D01*
X85245638Y-94701972D01*
X85293257Y-94678162D01*
X85317066Y-94654353D01*
X85340876Y-94606734D01*
X85340876Y-94559115D01*
X85317066Y-94511496D01*
X85293257Y-94487686D01*
X85245638Y-94463877D01*
X85150400Y-94440067D01*
X85102780Y-94416258D01*
X85078971Y-94392448D01*
X85055161Y-94344829D01*
X85055161Y-94297210D01*
X85078971Y-94249591D01*
X85102780Y-94225782D01*
X85150400Y-94201972D01*
X85269447Y-94201972D01*
X85340876Y-94225782D01*
X85555161Y-94701972D02*
X85555161Y-94201972D01*
X85840876Y-94701972D02*
X85626590Y-94416258D01*
X85840876Y-94201972D02*
X85555161Y-94487686D01*
X86078971Y-94701972D02*
X86174209Y-94701972D01*
X86221828Y-94678162D01*
X86245638Y-94654353D01*
X86293257Y-94582924D01*
X86317066Y-94487686D01*
X86317066Y-94297210D01*
X86293257Y-94249591D01*
X86269447Y-94225782D01*
X86221828Y-94201972D01*
X86126590Y-94201972D01*
X86078971Y-94225782D01*
X86055161Y-94249591D01*
X86031352Y-94297210D01*
X86031352Y-94416258D01*
X86055161Y-94463877D01*
X86078971Y-94487686D01*
X86126590Y-94511496D01*
X86221828Y-94511496D01*
X86269447Y-94487686D01*
X86293257Y-94463877D01*
X86317066Y-94416258D01*
X86602780Y-94416258D02*
X86555161Y-94392448D01*
X86531352Y-94368639D01*
X86507542Y-94321020D01*
X86507542Y-94297210D01*
X86531352Y-94249591D01*
X86555161Y-94225782D01*
X86602780Y-94201972D01*
X86698019Y-94201972D01*
X86745638Y-94225782D01*
X86769447Y-94249591D01*
X86793257Y-94297210D01*
X86793257Y-94321020D01*
X86769447Y-94368639D01*
X86745638Y-94392448D01*
X86698019Y-94416258D01*
X86602780Y-94416258D01*
X86555161Y-94440067D01*
X86531352Y-94463877D01*
X86507542Y-94511496D01*
X86507542Y-94606734D01*
X86531352Y-94654353D01*
X86555161Y-94678162D01*
X86602780Y-94701972D01*
X86698019Y-94701972D01*
X86745638Y-94678162D01*
X86769447Y-94654353D01*
X86793257Y-94606734D01*
X86793257Y-94511496D01*
X86769447Y-94463877D01*
X86745638Y-94440067D01*
X86698019Y-94416258D01*
X86983733Y-94249591D02*
X87007542Y-94225782D01*
X87055161Y-94201972D01*
X87174209Y-94201972D01*
X87221828Y-94225782D01*
X87245638Y-94249591D01*
X87269447Y-94297210D01*
X87269447Y-94344829D01*
X87245638Y-94416258D01*
X86959923Y-94701972D01*
X87269447Y-94701972D01*
X87459923Y-94249591D02*
X87483733Y-94225782D01*
X87531352Y-94201972D01*
X87650400Y-94201972D01*
X87698019Y-94225782D01*
X87721828Y-94249591D01*
X87745638Y-94297210D01*
X87745638Y-94344829D01*
X87721828Y-94416258D01*
X87436114Y-94701972D01*
X87745638Y-94701972D01*
D11*
X85571828Y-95367934D02*
X85381352Y-95367934D01*
X85381352Y-94967934D01*
X85705161Y-95158410D02*
X85838495Y-95158410D01*
X85895638Y-95367934D02*
X85705161Y-95367934D01*
X85705161Y-94967934D01*
X85895638Y-94967934D01*
X86067066Y-95367934D02*
X86067066Y-94967934D01*
X86162304Y-94967934D01*
X86219447Y-94986982D01*
X86257542Y-95025077D01*
X86276590Y-95063172D01*
X86295638Y-95139362D01*
X86295638Y-95196505D01*
X86276590Y-95272696D01*
X86257542Y-95310791D01*
X86219447Y-95348886D01*
X86162304Y-95367934D01*
X86067066Y-95367934D01*
X86428971Y-94967934D02*
X86676590Y-94967934D01*
X86543257Y-95120315D01*
X86600400Y-95120315D01*
X86638495Y-95139362D01*
X86657542Y-95158410D01*
X86676590Y-95196505D01*
X86676590Y-95291743D01*
X86657542Y-95329839D01*
X86638495Y-95348886D01*
X86600400Y-95367934D01*
X86486114Y-95367934D01*
X86448019Y-95348886D01*
X86428971Y-95329839D01*
X86924209Y-94967934D02*
X86962304Y-94967934D01*
X87000400Y-94986982D01*
X87019447Y-95006029D01*
X87038495Y-95044124D01*
X87057542Y-95120315D01*
X87057542Y-95215553D01*
X87038495Y-95291743D01*
X87019447Y-95329839D01*
X87000400Y-95348886D01*
X86962304Y-95367934D01*
X86924209Y-95367934D01*
X86886114Y-95348886D01*
X86867066Y-95329839D01*
X86848019Y-95291743D01*
X86828971Y-95215553D01*
X86828971Y-95120315D01*
X86848019Y-95044124D01*
X86867066Y-95006029D01*
X86886114Y-94986982D01*
X86924209Y-94967934D01*
X87209923Y-95006029D02*
X87228971Y-94986982D01*
X87267066Y-94967934D01*
X87362304Y-94967934D01*
X87400400Y-94986982D01*
X87419447Y-95006029D01*
X87438495Y-95044124D01*
X87438495Y-95082220D01*
X87419447Y-95139362D01*
X87190876Y-95367934D01*
X87438495Y-95367934D01*
D10*
X85055161Y-150999892D02*
X85126590Y-151023702D01*
X85245638Y-151023702D01*
X85293257Y-150999892D01*
X85317066Y-150976083D01*
X85340876Y-150928464D01*
X85340876Y-150880845D01*
X85317066Y-150833226D01*
X85293257Y-150809416D01*
X85245638Y-150785607D01*
X85150400Y-150761797D01*
X85102780Y-150737988D01*
X85078971Y-150714178D01*
X85055161Y-150666559D01*
X85055161Y-150618940D01*
X85078971Y-150571321D01*
X85102780Y-150547512D01*
X85150400Y-150523702D01*
X85269447Y-150523702D01*
X85340876Y-150547512D01*
X85555161Y-151023702D02*
X85555161Y-150523702D01*
X85840876Y-151023702D02*
X85626590Y-150737988D01*
X85840876Y-150523702D02*
X85555161Y-150809416D01*
X86078971Y-151023702D02*
X86174209Y-151023702D01*
X86221828Y-150999892D01*
X86245638Y-150976083D01*
X86293257Y-150904654D01*
X86317066Y-150809416D01*
X86317066Y-150618940D01*
X86293257Y-150571321D01*
X86269447Y-150547512D01*
X86221828Y-150523702D01*
X86126590Y-150523702D01*
X86078971Y-150547512D01*
X86055161Y-150571321D01*
X86031352Y-150618940D01*
X86031352Y-150737988D01*
X86055161Y-150785607D01*
X86078971Y-150809416D01*
X86126590Y-150833226D01*
X86221828Y-150833226D01*
X86269447Y-150809416D01*
X86293257Y-150785607D01*
X86317066Y-150737988D01*
X86602780Y-150737988D02*
X86555161Y-150714178D01*
X86531352Y-150690369D01*
X86507542Y-150642750D01*
X86507542Y-150618940D01*
X86531352Y-150571321D01*
X86555161Y-150547512D01*
X86602780Y-150523702D01*
X86698019Y-150523702D01*
X86745638Y-150547512D01*
X86769447Y-150571321D01*
X86793257Y-150618940D01*
X86793257Y-150642750D01*
X86769447Y-150690369D01*
X86745638Y-150714178D01*
X86698019Y-150737988D01*
X86602780Y-150737988D01*
X86555161Y-150761797D01*
X86531352Y-150785607D01*
X86507542Y-150833226D01*
X86507542Y-150928464D01*
X86531352Y-150976083D01*
X86555161Y-150999892D01*
X86602780Y-151023702D01*
X86698019Y-151023702D01*
X86745638Y-150999892D01*
X86769447Y-150976083D01*
X86793257Y-150928464D01*
X86793257Y-150833226D01*
X86769447Y-150785607D01*
X86745638Y-150761797D01*
X86698019Y-150737988D01*
X86983733Y-150571321D02*
X87007542Y-150547512D01*
X87055161Y-150523702D01*
X87174209Y-150523702D01*
X87221828Y-150547512D01*
X87245638Y-150571321D01*
X87269447Y-150618940D01*
X87269447Y-150666559D01*
X87245638Y-150737988D01*
X86959923Y-151023702D01*
X87269447Y-151023702D01*
X87459923Y-150571321D02*
X87483733Y-150547512D01*
X87531352Y-150523702D01*
X87650400Y-150523702D01*
X87698019Y-150547512D01*
X87721828Y-150571321D01*
X87745638Y-150618940D01*
X87745638Y-150666559D01*
X87721828Y-150737988D01*
X87436114Y-151023702D01*
X87745638Y-151023702D01*
D11*
X85571828Y-151689664D02*
X85381352Y-151689664D01*
X85381352Y-151289664D01*
X85705161Y-151480140D02*
X85838495Y-151480140D01*
X85895638Y-151689664D02*
X85705161Y-151689664D01*
X85705161Y-151289664D01*
X85895638Y-151289664D01*
X86067066Y-151689664D02*
X86067066Y-151289664D01*
X86162304Y-151289664D01*
X86219447Y-151308712D01*
X86257542Y-151346807D01*
X86276590Y-151384902D01*
X86295638Y-151461092D01*
X86295638Y-151518235D01*
X86276590Y-151594426D01*
X86257542Y-151632521D01*
X86219447Y-151670616D01*
X86162304Y-151689664D01*
X86067066Y-151689664D01*
X86428971Y-151289664D02*
X86676590Y-151289664D01*
X86543257Y-151442045D01*
X86600400Y-151442045D01*
X86638495Y-151461092D01*
X86657542Y-151480140D01*
X86676590Y-151518235D01*
X86676590Y-151613473D01*
X86657542Y-151651569D01*
X86638495Y-151670616D01*
X86600400Y-151689664D01*
X86486114Y-151689664D01*
X86448019Y-151670616D01*
X86428971Y-151651569D01*
X87057542Y-151689664D02*
X86828971Y-151689664D01*
X86943257Y-151689664D02*
X86943257Y-151289664D01*
X86905161Y-151346807D01*
X86867066Y-151384902D01*
X86828971Y-151403950D01*
X87190876Y-151289664D02*
X87457542Y-151289664D01*
X87286114Y-151689664D01*
D10*
X85502857Y-75926190D02*
X85502857Y-76330952D01*
X85526666Y-76378571D01*
X85550476Y-76402380D01*
X85598095Y-76426190D01*
X85693333Y-76426190D01*
X85740952Y-76402380D01*
X85764761Y-76378571D01*
X85788571Y-76330952D01*
X85788571Y-75926190D01*
X86240952Y-76092857D02*
X86240952Y-76426190D01*
X86121904Y-75902380D02*
X86002857Y-76259523D01*
X86312380Y-76259523D01*
X86598095Y-75926190D02*
X86645714Y-75926190D01*
X86693333Y-75950000D01*
X86717142Y-75973809D01*
X86740952Y-76021428D01*
X86764761Y-76116666D01*
X86764761Y-76235714D01*
X86740952Y-76330952D01*
X86717142Y-76378571D01*
X86693333Y-76402380D01*
X86645714Y-76426190D01*
X86598095Y-76426190D01*
X86550476Y-76402380D01*
X86526666Y-76378571D01*
X86502857Y-76330952D01*
X86479047Y-76235714D01*
X86479047Y-76116666D01*
X86502857Y-76021428D01*
X86526666Y-75973809D01*
X86550476Y-75950000D01*
X86598095Y-75926190D01*
X87240952Y-76426190D02*
X86955238Y-76426190D01*
X87098095Y-76426190D02*
X87098095Y-75926190D01*
X87050476Y-75997619D01*
X87002857Y-76045238D01*
X86955238Y-76069047D01*
X84538571Y-77340590D02*
X84300476Y-77340590D01*
X84300476Y-76840590D01*
X84681428Y-77316780D02*
X84752857Y-77340590D01*
X84871904Y-77340590D01*
X84919523Y-77316780D01*
X84943333Y-77292971D01*
X84967142Y-77245352D01*
X84967142Y-77197733D01*
X84943333Y-77150114D01*
X84919523Y-77126304D01*
X84871904Y-77102495D01*
X84776666Y-77078685D01*
X84729047Y-77054876D01*
X84705238Y-77031066D01*
X84681428Y-76983447D01*
X84681428Y-76935828D01*
X84705238Y-76888209D01*
X84729047Y-76864400D01*
X84776666Y-76840590D01*
X84895714Y-76840590D01*
X84967142Y-76864400D01*
X85181428Y-77340590D02*
X85181428Y-76840590D01*
X85348095Y-77197733D01*
X85514761Y-76840590D01*
X85514761Y-77340590D01*
X85967142Y-76840590D02*
X85871904Y-76840590D01*
X85824285Y-76864400D01*
X85800476Y-76888209D01*
X85752857Y-76959638D01*
X85729047Y-77054876D01*
X85729047Y-77245352D01*
X85752857Y-77292971D01*
X85776666Y-77316780D01*
X85824285Y-77340590D01*
X85919523Y-77340590D01*
X85967142Y-77316780D01*
X85990952Y-77292971D01*
X86014761Y-77245352D01*
X86014761Y-77126304D01*
X85990952Y-77078685D01*
X85967142Y-77054876D01*
X85919523Y-77031066D01*
X85824285Y-77031066D01*
X85776666Y-77054876D01*
X85752857Y-77078685D01*
X85729047Y-77126304D01*
X86229047Y-77340590D02*
X86229047Y-76840590D01*
X86348095Y-76840590D01*
X86419523Y-76864400D01*
X86467142Y-76912019D01*
X86490952Y-76959638D01*
X86514761Y-77054876D01*
X86514761Y-77126304D01*
X86490952Y-77221542D01*
X86467142Y-77269161D01*
X86419523Y-77316780D01*
X86348095Y-77340590D01*
X86229047Y-77340590D01*
X86705238Y-77316780D02*
X86776666Y-77340590D01*
X86895714Y-77340590D01*
X86943333Y-77316780D01*
X86967142Y-77292971D01*
X86990952Y-77245352D01*
X86990952Y-77197733D01*
X86967142Y-77150114D01*
X86943333Y-77126304D01*
X86895714Y-77102495D01*
X86800476Y-77078685D01*
X86752857Y-77054876D01*
X86729047Y-77031066D01*
X86705238Y-76983447D01*
X86705238Y-76935828D01*
X86729047Y-76888209D01*
X86752857Y-76864400D01*
X86800476Y-76840590D01*
X86919523Y-76840590D01*
X86990952Y-76864400D01*
X87205238Y-77340590D02*
X87205238Y-76840590D01*
X87371904Y-77197733D01*
X87538571Y-76840590D01*
X87538571Y-77340590D01*
X87705238Y-76840590D02*
X87990952Y-76840590D01*
X87848095Y-77340590D02*
X87848095Y-76840590D01*
X88443333Y-77340590D02*
X88276666Y-77102495D01*
X88157619Y-77340590D02*
X88157619Y-76840590D01*
X88348095Y-76840590D01*
X88395714Y-76864400D01*
X88419523Y-76888209D01*
X88443333Y-76935828D01*
X88443333Y-77007257D01*
X88419523Y-77054876D01*
X88395714Y-77078685D01*
X88348095Y-77102495D01*
X88157619Y-77102495D01*
D11*
X84288695Y-63480223D02*
X84288695Y-63623080D01*
X84288695Y-63551652D02*
X84038695Y-63551652D01*
X84074409Y-63575461D01*
X84098219Y-63599271D01*
X84110123Y-63623080D01*
X84288695Y-63373080D02*
X84038695Y-63373080D01*
X84193457Y-63349271D02*
X84288695Y-63277842D01*
X84122028Y-63277842D02*
X84217266Y-63373080D01*
X84038695Y-62932604D02*
X84038695Y-62908795D01*
X84050600Y-62884985D01*
X84062504Y-62873080D01*
X84086314Y-62861176D01*
X84133933Y-62849271D01*
X84193457Y-62849271D01*
X84241076Y-62861176D01*
X84264885Y-62873080D01*
X84276790Y-62884985D01*
X84288695Y-62908795D01*
X84288695Y-62932604D01*
X84276790Y-62956414D01*
X84264885Y-62968319D01*
X84241076Y-62980223D01*
X84193457Y-62992128D01*
X84133933Y-62992128D01*
X84086314Y-62980223D01*
X84062504Y-62968319D01*
X84050600Y-62956414D01*
X84038695Y-62932604D01*
X84062504Y-62754033D02*
X84050600Y-62742128D01*
X84038695Y-62718319D01*
X84038695Y-62658795D01*
X84050600Y-62634985D01*
X84062504Y-62623080D01*
X84086314Y-62611176D01*
X84110123Y-62611176D01*
X84145838Y-62623080D01*
X84288695Y-62765938D01*
X84288695Y-62611176D01*
X84038695Y-62456414D02*
X84038695Y-62432604D01*
X84050600Y-62408795D01*
X84062504Y-62396890D01*
X84086314Y-62384985D01*
X84133933Y-62373080D01*
X84193457Y-62373080D01*
X84241076Y-62384985D01*
X84264885Y-62396890D01*
X84276790Y-62408795D01*
X84288695Y-62432604D01*
X84288695Y-62456414D01*
X84276790Y-62480223D01*
X84264885Y-62492128D01*
X84241076Y-62504033D01*
X84193457Y-62515938D01*
X84133933Y-62515938D01*
X84086314Y-62504033D01*
X84062504Y-62492128D01*
X84050600Y-62480223D01*
X84038695Y-62456414D01*
X84288695Y-62134985D02*
X84288695Y-62277842D01*
X84288695Y-62206414D02*
X84038695Y-62206414D01*
X84074409Y-62230223D01*
X84098219Y-62254033D01*
X84110123Y-62277842D01*
X83808876Y-63469809D02*
X83713638Y-63536476D01*
X83808876Y-63584095D02*
X83608876Y-63584095D01*
X83608876Y-63507904D01*
X83618400Y-63488857D01*
X83627923Y-63479333D01*
X83646971Y-63469809D01*
X83675542Y-63469809D01*
X83694590Y-63479333D01*
X83704114Y-63488857D01*
X83713638Y-63507904D01*
X83713638Y-63584095D01*
X83627923Y-63393619D02*
X83618400Y-63384095D01*
X83608876Y-63365047D01*
X83608876Y-63317428D01*
X83618400Y-63298380D01*
X83627923Y-63288857D01*
X83646971Y-63279333D01*
X83666019Y-63279333D01*
X83694590Y-63288857D01*
X83808876Y-63403142D01*
X83808876Y-63279333D01*
X83608876Y-63155523D02*
X83608876Y-63136476D01*
X83618400Y-63117428D01*
X83627923Y-63107904D01*
X83646971Y-63098380D01*
X83685066Y-63088857D01*
X83732685Y-63088857D01*
X83770780Y-63098380D01*
X83789828Y-63107904D01*
X83799352Y-63117428D01*
X83808876Y-63136476D01*
X83808876Y-63155523D01*
X83799352Y-63174571D01*
X83789828Y-63184095D01*
X83770780Y-63193619D01*
X83732685Y-63203142D01*
X83685066Y-63203142D01*
X83646971Y-63193619D01*
X83627923Y-63184095D01*
X83618400Y-63174571D01*
X83608876Y-63155523D01*
X83675542Y-62917428D02*
X83808876Y-62917428D01*
X83599352Y-62965047D02*
X83742209Y-63012666D01*
X83742209Y-62888857D01*
X86887776Y-179995895D02*
X86744919Y-179995895D01*
X86816347Y-179995895D02*
X86816347Y-179745895D01*
X86792538Y-179781609D01*
X86768728Y-179805419D01*
X86744919Y-179817323D01*
X87042538Y-179745895D02*
X87066347Y-179745895D01*
X87090157Y-179757800D01*
X87102061Y-179769704D01*
X87113966Y-179793514D01*
X87125871Y-179841133D01*
X87125871Y-179900657D01*
X87113966Y-179948276D01*
X87102061Y-179972085D01*
X87090157Y-179983990D01*
X87066347Y-179995895D01*
X87042538Y-179995895D01*
X87018728Y-179983990D01*
X87006823Y-179972085D01*
X86994919Y-179948276D01*
X86983014Y-179900657D01*
X86983014Y-179841133D01*
X86994919Y-179793514D01*
X87006823Y-179769704D01*
X87018728Y-179757800D01*
X87042538Y-179745895D01*
X87233014Y-179995895D02*
X87233014Y-179745895D01*
X87256823Y-179900657D02*
X87328252Y-179995895D01*
X87328252Y-179829228D02*
X87233014Y-179924466D01*
X87673490Y-179745895D02*
X87697300Y-179745895D01*
X87721109Y-179757800D01*
X87733014Y-179769704D01*
X87744919Y-179793514D01*
X87756823Y-179841133D01*
X87756823Y-179900657D01*
X87744919Y-179948276D01*
X87733014Y-179972085D01*
X87721109Y-179983990D01*
X87697300Y-179995895D01*
X87673490Y-179995895D01*
X87649680Y-179983990D01*
X87637776Y-179972085D01*
X87625871Y-179948276D01*
X87613966Y-179900657D01*
X87613966Y-179841133D01*
X87625871Y-179793514D01*
X87637776Y-179769704D01*
X87649680Y-179757800D01*
X87673490Y-179745895D01*
X87852061Y-179769704D02*
X87863966Y-179757800D01*
X87887776Y-179745895D01*
X87947300Y-179745895D01*
X87971109Y-179757800D01*
X87983014Y-179769704D01*
X87994919Y-179793514D01*
X87994919Y-179817323D01*
X87983014Y-179853038D01*
X87840157Y-179995895D01*
X87994919Y-179995895D01*
X88149680Y-179745895D02*
X88173490Y-179745895D01*
X88197300Y-179757800D01*
X88209204Y-179769704D01*
X88221109Y-179793514D01*
X88233014Y-179841133D01*
X88233014Y-179900657D01*
X88221109Y-179948276D01*
X88209204Y-179972085D01*
X88197300Y-179983990D01*
X88173490Y-179995895D01*
X88149680Y-179995895D01*
X88125871Y-179983990D01*
X88113966Y-179972085D01*
X88102061Y-179948276D01*
X88090157Y-179900657D01*
X88090157Y-179841133D01*
X88102061Y-179793514D01*
X88113966Y-179769704D01*
X88125871Y-179757800D01*
X88149680Y-179745895D01*
X88471109Y-179995895D02*
X88328252Y-179995895D01*
X88399680Y-179995895D02*
X88399680Y-179745895D01*
X88375871Y-179781609D01*
X88352061Y-179805419D01*
X88328252Y-179817323D01*
X86898190Y-179516076D02*
X86831523Y-179420838D01*
X86783904Y-179516076D02*
X86783904Y-179316076D01*
X86860095Y-179316076D01*
X86879142Y-179325600D01*
X86888666Y-179335123D01*
X86898190Y-179354171D01*
X86898190Y-179382742D01*
X86888666Y-179401790D01*
X86879142Y-179411314D01*
X86860095Y-179420838D01*
X86783904Y-179420838D01*
X86964857Y-179316076D02*
X87088666Y-179316076D01*
X87022000Y-179392266D01*
X87050571Y-179392266D01*
X87069619Y-179401790D01*
X87079142Y-179411314D01*
X87088666Y-179430361D01*
X87088666Y-179477980D01*
X87079142Y-179497028D01*
X87069619Y-179506552D01*
X87050571Y-179516076D01*
X86993428Y-179516076D01*
X86974380Y-179506552D01*
X86964857Y-179497028D01*
X87212476Y-179316076D02*
X87231523Y-179316076D01*
X87250571Y-179325600D01*
X87260095Y-179335123D01*
X87269619Y-179354171D01*
X87279142Y-179392266D01*
X87279142Y-179439885D01*
X87269619Y-179477980D01*
X87260095Y-179497028D01*
X87250571Y-179506552D01*
X87231523Y-179516076D01*
X87212476Y-179516076D01*
X87193428Y-179506552D01*
X87183904Y-179497028D01*
X87174380Y-179477980D01*
X87164857Y-179439885D01*
X87164857Y-179392266D01*
X87174380Y-179354171D01*
X87183904Y-179335123D01*
X87193428Y-179325600D01*
X87212476Y-179316076D01*
X87460095Y-179316076D02*
X87364857Y-179316076D01*
X87355333Y-179411314D01*
X87364857Y-179401790D01*
X87383904Y-179392266D01*
X87431523Y-179392266D01*
X87450571Y-179401790D01*
X87460095Y-179411314D01*
X87469619Y-179430361D01*
X87469619Y-179477980D01*
X87460095Y-179497028D01*
X87450571Y-179506552D01*
X87431523Y-179516076D01*
X87383904Y-179516076D01*
X87364857Y-179506552D01*
X87355333Y-179497028D01*
D10*
X85055161Y-147245110D02*
X85126590Y-147268920D01*
X85245638Y-147268920D01*
X85293257Y-147245110D01*
X85317066Y-147221301D01*
X85340876Y-147173682D01*
X85340876Y-147126063D01*
X85317066Y-147078444D01*
X85293257Y-147054634D01*
X85245638Y-147030825D01*
X85150400Y-147007015D01*
X85102780Y-146983206D01*
X85078971Y-146959396D01*
X85055161Y-146911777D01*
X85055161Y-146864158D01*
X85078971Y-146816539D01*
X85102780Y-146792730D01*
X85150400Y-146768920D01*
X85269447Y-146768920D01*
X85340876Y-146792730D01*
X85555161Y-147268920D02*
X85555161Y-146768920D01*
X85840876Y-147268920D02*
X85626590Y-146983206D01*
X85840876Y-146768920D02*
X85555161Y-147054634D01*
X86078971Y-147268920D02*
X86174209Y-147268920D01*
X86221828Y-147245110D01*
X86245638Y-147221301D01*
X86293257Y-147149872D01*
X86317066Y-147054634D01*
X86317066Y-146864158D01*
X86293257Y-146816539D01*
X86269447Y-146792730D01*
X86221828Y-146768920D01*
X86126590Y-146768920D01*
X86078971Y-146792730D01*
X86055161Y-146816539D01*
X86031352Y-146864158D01*
X86031352Y-146983206D01*
X86055161Y-147030825D01*
X86078971Y-147054634D01*
X86126590Y-147078444D01*
X86221828Y-147078444D01*
X86269447Y-147054634D01*
X86293257Y-147030825D01*
X86317066Y-146983206D01*
X86602780Y-146983206D02*
X86555161Y-146959396D01*
X86531352Y-146935587D01*
X86507542Y-146887968D01*
X86507542Y-146864158D01*
X86531352Y-146816539D01*
X86555161Y-146792730D01*
X86602780Y-146768920D01*
X86698019Y-146768920D01*
X86745638Y-146792730D01*
X86769447Y-146816539D01*
X86793257Y-146864158D01*
X86793257Y-146887968D01*
X86769447Y-146935587D01*
X86745638Y-146959396D01*
X86698019Y-146983206D01*
X86602780Y-146983206D01*
X86555161Y-147007015D01*
X86531352Y-147030825D01*
X86507542Y-147078444D01*
X86507542Y-147173682D01*
X86531352Y-147221301D01*
X86555161Y-147245110D01*
X86602780Y-147268920D01*
X86698019Y-147268920D01*
X86745638Y-147245110D01*
X86769447Y-147221301D01*
X86793257Y-147173682D01*
X86793257Y-147078444D01*
X86769447Y-147030825D01*
X86745638Y-147007015D01*
X86698019Y-146983206D01*
X86983733Y-146816539D02*
X87007542Y-146792730D01*
X87055161Y-146768920D01*
X87174209Y-146768920D01*
X87221828Y-146792730D01*
X87245638Y-146816539D01*
X87269447Y-146864158D01*
X87269447Y-146911777D01*
X87245638Y-146983206D01*
X86959923Y-147268920D01*
X87269447Y-147268920D01*
X87459923Y-146816539D02*
X87483733Y-146792730D01*
X87531352Y-146768920D01*
X87650400Y-146768920D01*
X87698019Y-146792730D01*
X87721828Y-146816539D01*
X87745638Y-146864158D01*
X87745638Y-146911777D01*
X87721828Y-146983206D01*
X87436114Y-147268920D01*
X87745638Y-147268920D01*
D11*
X85571828Y-147934882D02*
X85381352Y-147934882D01*
X85381352Y-147534882D01*
X85705161Y-147725358D02*
X85838495Y-147725358D01*
X85895638Y-147934882D02*
X85705161Y-147934882D01*
X85705161Y-147534882D01*
X85895638Y-147534882D01*
X86067066Y-147934882D02*
X86067066Y-147534882D01*
X86162304Y-147534882D01*
X86219447Y-147553930D01*
X86257542Y-147592025D01*
X86276590Y-147630120D01*
X86295638Y-147706310D01*
X86295638Y-147763453D01*
X86276590Y-147839644D01*
X86257542Y-147877739D01*
X86219447Y-147915834D01*
X86162304Y-147934882D01*
X86067066Y-147934882D01*
X86428971Y-147534882D02*
X86676590Y-147534882D01*
X86543257Y-147687263D01*
X86600400Y-147687263D01*
X86638495Y-147706310D01*
X86657542Y-147725358D01*
X86676590Y-147763453D01*
X86676590Y-147858691D01*
X86657542Y-147896787D01*
X86638495Y-147915834D01*
X86600400Y-147934882D01*
X86486114Y-147934882D01*
X86448019Y-147915834D01*
X86428971Y-147896787D01*
X87057542Y-147934882D02*
X86828971Y-147934882D01*
X86943257Y-147934882D02*
X86943257Y-147534882D01*
X86905161Y-147592025D01*
X86867066Y-147630120D01*
X86828971Y-147649168D01*
X87400400Y-147534882D02*
X87324209Y-147534882D01*
X87286114Y-147553930D01*
X87267066Y-147572977D01*
X87228971Y-147630120D01*
X87209923Y-147706310D01*
X87209923Y-147858691D01*
X87228971Y-147896787D01*
X87248019Y-147915834D01*
X87286114Y-147934882D01*
X87362304Y-147934882D01*
X87400400Y-147915834D01*
X87419447Y-147896787D01*
X87438495Y-147858691D01*
X87438495Y-147763453D01*
X87419447Y-147725358D01*
X87400400Y-147706310D01*
X87362304Y-147687263D01*
X87286114Y-147687263D01*
X87248019Y-147706310D01*
X87228971Y-147725358D01*
X87209923Y-147763453D01*
D10*
X85055161Y-120961636D02*
X85126590Y-120985446D01*
X85245638Y-120985446D01*
X85293257Y-120961636D01*
X85317066Y-120937827D01*
X85340876Y-120890208D01*
X85340876Y-120842589D01*
X85317066Y-120794970D01*
X85293257Y-120771160D01*
X85245638Y-120747351D01*
X85150400Y-120723541D01*
X85102780Y-120699732D01*
X85078971Y-120675922D01*
X85055161Y-120628303D01*
X85055161Y-120580684D01*
X85078971Y-120533065D01*
X85102780Y-120509256D01*
X85150400Y-120485446D01*
X85269447Y-120485446D01*
X85340876Y-120509256D01*
X85555161Y-120985446D02*
X85555161Y-120485446D01*
X85840876Y-120985446D02*
X85626590Y-120699732D01*
X85840876Y-120485446D02*
X85555161Y-120771160D01*
X86078971Y-120985446D02*
X86174209Y-120985446D01*
X86221828Y-120961636D01*
X86245638Y-120937827D01*
X86293257Y-120866398D01*
X86317066Y-120771160D01*
X86317066Y-120580684D01*
X86293257Y-120533065D01*
X86269447Y-120509256D01*
X86221828Y-120485446D01*
X86126590Y-120485446D01*
X86078971Y-120509256D01*
X86055161Y-120533065D01*
X86031352Y-120580684D01*
X86031352Y-120699732D01*
X86055161Y-120747351D01*
X86078971Y-120771160D01*
X86126590Y-120794970D01*
X86221828Y-120794970D01*
X86269447Y-120771160D01*
X86293257Y-120747351D01*
X86317066Y-120699732D01*
X86602780Y-120699732D02*
X86555161Y-120675922D01*
X86531352Y-120652113D01*
X86507542Y-120604494D01*
X86507542Y-120580684D01*
X86531352Y-120533065D01*
X86555161Y-120509256D01*
X86602780Y-120485446D01*
X86698019Y-120485446D01*
X86745638Y-120509256D01*
X86769447Y-120533065D01*
X86793257Y-120580684D01*
X86793257Y-120604494D01*
X86769447Y-120652113D01*
X86745638Y-120675922D01*
X86698019Y-120699732D01*
X86602780Y-120699732D01*
X86555161Y-120723541D01*
X86531352Y-120747351D01*
X86507542Y-120794970D01*
X86507542Y-120890208D01*
X86531352Y-120937827D01*
X86555161Y-120961636D01*
X86602780Y-120985446D01*
X86698019Y-120985446D01*
X86745638Y-120961636D01*
X86769447Y-120937827D01*
X86793257Y-120890208D01*
X86793257Y-120794970D01*
X86769447Y-120747351D01*
X86745638Y-120723541D01*
X86698019Y-120699732D01*
X86983733Y-120533065D02*
X87007542Y-120509256D01*
X87055161Y-120485446D01*
X87174209Y-120485446D01*
X87221828Y-120509256D01*
X87245638Y-120533065D01*
X87269447Y-120580684D01*
X87269447Y-120628303D01*
X87245638Y-120699732D01*
X86959923Y-120985446D01*
X87269447Y-120985446D01*
X87459923Y-120533065D02*
X87483733Y-120509256D01*
X87531352Y-120485446D01*
X87650400Y-120485446D01*
X87698019Y-120509256D01*
X87721828Y-120533065D01*
X87745638Y-120580684D01*
X87745638Y-120628303D01*
X87721828Y-120699732D01*
X87436114Y-120985446D01*
X87745638Y-120985446D01*
D11*
X85571828Y-121651408D02*
X85381352Y-121651408D01*
X85381352Y-121251408D01*
X85705161Y-121441884D02*
X85838495Y-121441884D01*
X85895638Y-121651408D02*
X85705161Y-121651408D01*
X85705161Y-121251408D01*
X85895638Y-121251408D01*
X86067066Y-121651408D02*
X86067066Y-121251408D01*
X86162304Y-121251408D01*
X86219447Y-121270456D01*
X86257542Y-121308551D01*
X86276590Y-121346646D01*
X86295638Y-121422836D01*
X86295638Y-121479979D01*
X86276590Y-121556170D01*
X86257542Y-121594265D01*
X86219447Y-121632360D01*
X86162304Y-121651408D01*
X86067066Y-121651408D01*
X86428971Y-121251408D02*
X86676590Y-121251408D01*
X86543257Y-121403789D01*
X86600400Y-121403789D01*
X86638495Y-121422836D01*
X86657542Y-121441884D01*
X86676590Y-121479979D01*
X86676590Y-121575217D01*
X86657542Y-121613313D01*
X86638495Y-121632360D01*
X86600400Y-121651408D01*
X86486114Y-121651408D01*
X86448019Y-121632360D01*
X86428971Y-121613313D01*
X86924209Y-121251408D02*
X86962304Y-121251408D01*
X87000400Y-121270456D01*
X87019447Y-121289503D01*
X87038495Y-121327598D01*
X87057542Y-121403789D01*
X87057542Y-121499027D01*
X87038495Y-121575217D01*
X87019447Y-121613313D01*
X87000400Y-121632360D01*
X86962304Y-121651408D01*
X86924209Y-121651408D01*
X86886114Y-121632360D01*
X86867066Y-121613313D01*
X86848019Y-121575217D01*
X86828971Y-121499027D01*
X86828971Y-121403789D01*
X86848019Y-121327598D01*
X86867066Y-121289503D01*
X86886114Y-121270456D01*
X86924209Y-121251408D01*
X87248019Y-121651408D02*
X87324209Y-121651408D01*
X87362304Y-121632360D01*
X87381352Y-121613313D01*
X87419447Y-121556170D01*
X87438495Y-121479979D01*
X87438495Y-121327598D01*
X87419447Y-121289503D01*
X87400400Y-121270456D01*
X87362304Y-121251408D01*
X87286114Y-121251408D01*
X87248019Y-121270456D01*
X87228971Y-121289503D01*
X87209923Y-121327598D01*
X87209923Y-121422836D01*
X87228971Y-121460932D01*
X87248019Y-121479979D01*
X87286114Y-121499027D01*
X87362304Y-121499027D01*
X87400400Y-121479979D01*
X87419447Y-121460932D01*
X87438495Y-121422836D01*
D10*
X86308476Y-78664571D02*
X86284666Y-78688380D01*
X86213238Y-78712190D01*
X86165619Y-78712190D01*
X86094190Y-78688380D01*
X86046571Y-78640761D01*
X86022761Y-78593142D01*
X85998952Y-78497904D01*
X85998952Y-78426476D01*
X86022761Y-78331238D01*
X86046571Y-78283619D01*
X86094190Y-78236000D01*
X86165619Y-78212190D01*
X86213238Y-78212190D01*
X86284666Y-78236000D01*
X86308476Y-78259809D01*
X86737047Y-78378857D02*
X86737047Y-78712190D01*
X86618000Y-78188380D02*
X86498952Y-78545523D01*
X86808476Y-78545523D01*
X87094190Y-78212190D02*
X87141809Y-78212190D01*
X87189428Y-78236000D01*
X87213238Y-78259809D01*
X87237047Y-78307428D01*
X87260857Y-78402666D01*
X87260857Y-78521714D01*
X87237047Y-78616952D01*
X87213238Y-78664571D01*
X87189428Y-78688380D01*
X87141809Y-78712190D01*
X87094190Y-78712190D01*
X87046571Y-78688380D01*
X87022761Y-78664571D01*
X86998952Y-78616952D01*
X86975142Y-78521714D01*
X86975142Y-78402666D01*
X86998952Y-78307428D01*
X87022761Y-78259809D01*
X87046571Y-78236000D01*
X87094190Y-78212190D01*
X87737047Y-78712190D02*
X87451333Y-78712190D01*
X87594190Y-78712190D02*
X87594190Y-78212190D01*
X87546571Y-78283619D01*
X87498952Y-78331238D01*
X87451333Y-78355047D01*
X87805390Y-80807428D02*
X87805390Y-81093142D01*
X87805390Y-80950285D02*
X87305390Y-80950285D01*
X87376819Y-80997904D01*
X87424438Y-81045523D01*
X87448247Y-81093142D01*
X87472057Y-80378857D02*
X87805390Y-80378857D01*
X87472057Y-80593142D02*
X87733961Y-80593142D01*
X87781580Y-80569333D01*
X87805390Y-80521714D01*
X87805390Y-80450285D01*
X87781580Y-80402666D01*
X87757771Y-80378857D01*
X87543485Y-79974095D02*
X87543485Y-80140761D01*
X87805390Y-80140761D02*
X87305390Y-80140761D01*
X87305390Y-79902666D01*
X87305390Y-79236000D02*
X87305390Y-79188380D01*
X87329200Y-79140761D01*
X87353009Y-79116952D01*
X87400628Y-79093142D01*
X87495866Y-79069333D01*
X87614914Y-79069333D01*
X87710152Y-79093142D01*
X87757771Y-79116952D01*
X87781580Y-79140761D01*
X87805390Y-79188380D01*
X87805390Y-79236000D01*
X87781580Y-79283619D01*
X87757771Y-79307428D01*
X87710152Y-79331238D01*
X87614914Y-79355047D01*
X87495866Y-79355047D01*
X87400628Y-79331238D01*
X87353009Y-79307428D01*
X87329200Y-79283619D01*
X87305390Y-79236000D01*
X87472057Y-78640761D02*
X87805390Y-78640761D01*
X87281580Y-78759809D02*
X87638723Y-78878857D01*
X87638723Y-78569333D01*
X87305390Y-78283619D02*
X87305390Y-78236000D01*
X87329200Y-78188380D01*
X87353009Y-78164571D01*
X87400628Y-78140761D01*
X87495866Y-78116952D01*
X87614914Y-78116952D01*
X87710152Y-78140761D01*
X87757771Y-78164571D01*
X87781580Y-78188380D01*
X87805390Y-78236000D01*
X87805390Y-78283619D01*
X87781580Y-78331238D01*
X87757771Y-78355047D01*
X87710152Y-78378857D01*
X87614914Y-78402666D01*
X87495866Y-78402666D01*
X87400628Y-78378857D01*
X87353009Y-78355047D01*
X87329200Y-78331238D01*
X87305390Y-78283619D01*
X87353009Y-77926476D02*
X87329200Y-77902666D01*
X87305390Y-77855047D01*
X87305390Y-77736000D01*
X87329200Y-77688380D01*
X87353009Y-77664571D01*
X87400628Y-77640761D01*
X87448247Y-77640761D01*
X87519676Y-77664571D01*
X87805390Y-77950285D01*
X87805390Y-77640761D01*
X87805390Y-76783619D02*
X87805390Y-77069333D01*
X87805390Y-76926476D02*
X87305390Y-76926476D01*
X87376819Y-76974095D01*
X87424438Y-77021714D01*
X87448247Y-77069333D01*
X87305390Y-76474095D02*
X87305390Y-76426476D01*
X87329200Y-76378857D01*
X87353009Y-76355047D01*
X87400628Y-76331238D01*
X87495866Y-76307428D01*
X87614914Y-76307428D01*
X87710152Y-76331238D01*
X87757771Y-76355047D01*
X87781580Y-76378857D01*
X87805390Y-76426476D01*
X87805390Y-76474095D01*
X87781580Y-76521714D01*
X87757771Y-76545523D01*
X87710152Y-76569333D01*
X87614914Y-76593142D01*
X87495866Y-76593142D01*
X87400628Y-76569333D01*
X87353009Y-76545523D01*
X87329200Y-76521714D01*
X87305390Y-76474095D01*
X87305390Y-76164571D02*
X87805390Y-75997904D01*
X87305390Y-75831238D01*
X85055161Y-158509456D02*
X85126590Y-158533266D01*
X85245638Y-158533266D01*
X85293257Y-158509456D01*
X85317066Y-158485647D01*
X85340876Y-158438028D01*
X85340876Y-158390409D01*
X85317066Y-158342790D01*
X85293257Y-158318980D01*
X85245638Y-158295171D01*
X85150400Y-158271361D01*
X85102780Y-158247552D01*
X85078971Y-158223742D01*
X85055161Y-158176123D01*
X85055161Y-158128504D01*
X85078971Y-158080885D01*
X85102780Y-158057076D01*
X85150400Y-158033266D01*
X85269447Y-158033266D01*
X85340876Y-158057076D01*
X85555161Y-158533266D02*
X85555161Y-158033266D01*
X85840876Y-158533266D02*
X85626590Y-158247552D01*
X85840876Y-158033266D02*
X85555161Y-158318980D01*
X86078971Y-158533266D02*
X86174209Y-158533266D01*
X86221828Y-158509456D01*
X86245638Y-158485647D01*
X86293257Y-158414218D01*
X86317066Y-158318980D01*
X86317066Y-158128504D01*
X86293257Y-158080885D01*
X86269447Y-158057076D01*
X86221828Y-158033266D01*
X86126590Y-158033266D01*
X86078971Y-158057076D01*
X86055161Y-158080885D01*
X86031352Y-158128504D01*
X86031352Y-158247552D01*
X86055161Y-158295171D01*
X86078971Y-158318980D01*
X86126590Y-158342790D01*
X86221828Y-158342790D01*
X86269447Y-158318980D01*
X86293257Y-158295171D01*
X86317066Y-158247552D01*
X86602780Y-158247552D02*
X86555161Y-158223742D01*
X86531352Y-158199933D01*
X86507542Y-158152314D01*
X86507542Y-158128504D01*
X86531352Y-158080885D01*
X86555161Y-158057076D01*
X86602780Y-158033266D01*
X86698019Y-158033266D01*
X86745638Y-158057076D01*
X86769447Y-158080885D01*
X86793257Y-158128504D01*
X86793257Y-158152314D01*
X86769447Y-158199933D01*
X86745638Y-158223742D01*
X86698019Y-158247552D01*
X86602780Y-158247552D01*
X86555161Y-158271361D01*
X86531352Y-158295171D01*
X86507542Y-158342790D01*
X86507542Y-158438028D01*
X86531352Y-158485647D01*
X86555161Y-158509456D01*
X86602780Y-158533266D01*
X86698019Y-158533266D01*
X86745638Y-158509456D01*
X86769447Y-158485647D01*
X86793257Y-158438028D01*
X86793257Y-158342790D01*
X86769447Y-158295171D01*
X86745638Y-158271361D01*
X86698019Y-158247552D01*
X86983733Y-158080885D02*
X87007542Y-158057076D01*
X87055161Y-158033266D01*
X87174209Y-158033266D01*
X87221828Y-158057076D01*
X87245638Y-158080885D01*
X87269447Y-158128504D01*
X87269447Y-158176123D01*
X87245638Y-158247552D01*
X86959923Y-158533266D01*
X87269447Y-158533266D01*
X87459923Y-158080885D02*
X87483733Y-158057076D01*
X87531352Y-158033266D01*
X87650400Y-158033266D01*
X87698019Y-158057076D01*
X87721828Y-158080885D01*
X87745638Y-158128504D01*
X87745638Y-158176123D01*
X87721828Y-158247552D01*
X87436114Y-158533266D01*
X87745638Y-158533266D01*
D11*
X85571828Y-159199228D02*
X85381352Y-159199228D01*
X85381352Y-158799228D01*
X85705161Y-158989704D02*
X85838495Y-158989704D01*
X85895638Y-159199228D02*
X85705161Y-159199228D01*
X85705161Y-158799228D01*
X85895638Y-158799228D01*
X86067066Y-159199228D02*
X86067066Y-158799228D01*
X86162304Y-158799228D01*
X86219447Y-158818276D01*
X86257542Y-158856371D01*
X86276590Y-158894466D01*
X86295638Y-158970656D01*
X86295638Y-159027799D01*
X86276590Y-159103990D01*
X86257542Y-159142085D01*
X86219447Y-159180180D01*
X86162304Y-159199228D01*
X86067066Y-159199228D01*
X86428971Y-158799228D02*
X86676590Y-158799228D01*
X86543257Y-158951609D01*
X86600400Y-158951609D01*
X86638495Y-158970656D01*
X86657542Y-158989704D01*
X86676590Y-159027799D01*
X86676590Y-159123037D01*
X86657542Y-159161133D01*
X86638495Y-159180180D01*
X86600400Y-159199228D01*
X86486114Y-159199228D01*
X86448019Y-159180180D01*
X86428971Y-159161133D01*
X87057542Y-159199228D02*
X86828971Y-159199228D01*
X86943257Y-159199228D02*
X86943257Y-158799228D01*
X86905161Y-158856371D01*
X86867066Y-158894466D01*
X86828971Y-158913514D01*
X87248019Y-159199228D02*
X87324209Y-159199228D01*
X87362304Y-159180180D01*
X87381352Y-159161133D01*
X87419447Y-159103990D01*
X87438495Y-159027799D01*
X87438495Y-158875418D01*
X87419447Y-158837323D01*
X87400400Y-158818276D01*
X87362304Y-158799228D01*
X87286114Y-158799228D01*
X87248019Y-158818276D01*
X87228971Y-158837323D01*
X87209923Y-158875418D01*
X87209923Y-158970656D01*
X87228971Y-159008752D01*
X87248019Y-159027799D01*
X87286114Y-159046847D01*
X87362304Y-159046847D01*
X87400400Y-159027799D01*
X87419447Y-159008752D01*
X87438495Y-158970656D01*
X89701304Y-64435880D02*
X89689400Y-64423976D01*
X89677495Y-64400166D01*
X89677495Y-64340642D01*
X89689400Y-64316833D01*
X89701304Y-64304928D01*
X89725114Y-64293023D01*
X89748923Y-64293023D01*
X89784638Y-64304928D01*
X89927495Y-64447785D01*
X89927495Y-64293023D01*
X89677495Y-64209690D02*
X89677495Y-64043023D01*
X89927495Y-64150166D01*
X89927495Y-63959690D02*
X89927495Y-63900166D01*
X89879876Y-63900166D01*
X89867971Y-63923976D01*
X89844161Y-63947785D01*
X89808447Y-63959690D01*
X89748923Y-63959690D01*
X89713209Y-63947785D01*
X89689400Y-63923976D01*
X89677495Y-63888261D01*
X89677495Y-63840642D01*
X89689400Y-63804928D01*
X89713209Y-63781119D01*
X89748923Y-63769214D01*
X89808447Y-63769214D01*
X89844161Y-63781119D01*
X89867971Y-63804928D01*
X89879876Y-63828738D01*
X89927495Y-63828738D01*
X89927495Y-63769214D01*
X89677495Y-63423976D02*
X89677495Y-63400166D01*
X89689400Y-63376357D01*
X89701304Y-63364452D01*
X89725114Y-63352547D01*
X89772733Y-63340642D01*
X89832257Y-63340642D01*
X89879876Y-63352547D01*
X89903685Y-63364452D01*
X89915590Y-63376357D01*
X89927495Y-63400166D01*
X89927495Y-63423976D01*
X89915590Y-63447785D01*
X89903685Y-63459690D01*
X89879876Y-63471595D01*
X89832257Y-63483500D01*
X89772733Y-63483500D01*
X89725114Y-63471595D01*
X89701304Y-63459690D01*
X89689400Y-63447785D01*
X89677495Y-63423976D01*
X89701304Y-63245404D02*
X89689400Y-63233500D01*
X89677495Y-63209690D01*
X89677495Y-63150166D01*
X89689400Y-63126357D01*
X89701304Y-63114452D01*
X89725114Y-63102547D01*
X89748923Y-63102547D01*
X89784638Y-63114452D01*
X89927495Y-63257309D01*
X89927495Y-63102547D01*
X89677495Y-62947785D02*
X89677495Y-62923976D01*
X89689400Y-62900166D01*
X89701304Y-62888261D01*
X89725114Y-62876357D01*
X89772733Y-62864452D01*
X89832257Y-62864452D01*
X89879876Y-62876357D01*
X89903685Y-62888261D01*
X89915590Y-62900166D01*
X89927495Y-62923976D01*
X89927495Y-62947785D01*
X89915590Y-62971595D01*
X89903685Y-62983500D01*
X89879876Y-62995404D01*
X89832257Y-63007309D01*
X89772733Y-63007309D01*
X89725114Y-62995404D01*
X89701304Y-62983500D01*
X89689400Y-62971595D01*
X89677495Y-62947785D01*
X89927495Y-62626357D02*
X89927495Y-62769214D01*
X89927495Y-62697785D02*
X89677495Y-62697785D01*
X89713209Y-62721595D01*
X89737019Y-62745404D01*
X89748923Y-62769214D01*
X90362076Y-65197009D02*
X90266838Y-65263676D01*
X90362076Y-65311295D02*
X90162076Y-65311295D01*
X90162076Y-65235104D01*
X90171600Y-65216057D01*
X90181123Y-65206533D01*
X90200171Y-65197009D01*
X90228742Y-65197009D01*
X90247790Y-65206533D01*
X90257314Y-65216057D01*
X90266838Y-65235104D01*
X90266838Y-65311295D01*
X90181123Y-65120819D02*
X90171600Y-65111295D01*
X90162076Y-65092247D01*
X90162076Y-65044628D01*
X90171600Y-65025580D01*
X90181123Y-65016057D01*
X90200171Y-65006533D01*
X90219219Y-65006533D01*
X90247790Y-65016057D01*
X90362076Y-65130342D01*
X90362076Y-65006533D01*
X90162076Y-64882723D02*
X90162076Y-64863676D01*
X90171600Y-64844628D01*
X90181123Y-64835104D01*
X90200171Y-64825580D01*
X90238266Y-64816057D01*
X90285885Y-64816057D01*
X90323980Y-64825580D01*
X90343028Y-64835104D01*
X90352552Y-64844628D01*
X90362076Y-64863676D01*
X90362076Y-64882723D01*
X90352552Y-64901771D01*
X90343028Y-64911295D01*
X90323980Y-64920819D01*
X90285885Y-64930342D01*
X90238266Y-64930342D01*
X90200171Y-64920819D01*
X90181123Y-64911295D01*
X90171600Y-64901771D01*
X90162076Y-64882723D01*
X90162076Y-64749390D02*
X90162076Y-64625580D01*
X90238266Y-64692247D01*
X90238266Y-64663676D01*
X90247790Y-64644628D01*
X90257314Y-64635104D01*
X90276361Y-64625580D01*
X90323980Y-64625580D01*
X90343028Y-64635104D01*
X90352552Y-64644628D01*
X90362076Y-64663676D01*
X90362076Y-64720819D01*
X90352552Y-64739866D01*
X90343028Y-64749390D01*
D10*
X85055161Y-98432944D02*
X85126590Y-98456754D01*
X85245638Y-98456754D01*
X85293257Y-98432944D01*
X85317066Y-98409135D01*
X85340876Y-98361516D01*
X85340876Y-98313897D01*
X85317066Y-98266278D01*
X85293257Y-98242468D01*
X85245638Y-98218659D01*
X85150400Y-98194849D01*
X85102780Y-98171040D01*
X85078971Y-98147230D01*
X85055161Y-98099611D01*
X85055161Y-98051992D01*
X85078971Y-98004373D01*
X85102780Y-97980564D01*
X85150400Y-97956754D01*
X85269447Y-97956754D01*
X85340876Y-97980564D01*
X85555161Y-98456754D02*
X85555161Y-97956754D01*
X85840876Y-98456754D02*
X85626590Y-98171040D01*
X85840876Y-97956754D02*
X85555161Y-98242468D01*
X86078971Y-98456754D02*
X86174209Y-98456754D01*
X86221828Y-98432944D01*
X86245638Y-98409135D01*
X86293257Y-98337706D01*
X86317066Y-98242468D01*
X86317066Y-98051992D01*
X86293257Y-98004373D01*
X86269447Y-97980564D01*
X86221828Y-97956754D01*
X86126590Y-97956754D01*
X86078971Y-97980564D01*
X86055161Y-98004373D01*
X86031352Y-98051992D01*
X86031352Y-98171040D01*
X86055161Y-98218659D01*
X86078971Y-98242468D01*
X86126590Y-98266278D01*
X86221828Y-98266278D01*
X86269447Y-98242468D01*
X86293257Y-98218659D01*
X86317066Y-98171040D01*
X86602780Y-98171040D02*
X86555161Y-98147230D01*
X86531352Y-98123421D01*
X86507542Y-98075802D01*
X86507542Y-98051992D01*
X86531352Y-98004373D01*
X86555161Y-97980564D01*
X86602780Y-97956754D01*
X86698019Y-97956754D01*
X86745638Y-97980564D01*
X86769447Y-98004373D01*
X86793257Y-98051992D01*
X86793257Y-98075802D01*
X86769447Y-98123421D01*
X86745638Y-98147230D01*
X86698019Y-98171040D01*
X86602780Y-98171040D01*
X86555161Y-98194849D01*
X86531352Y-98218659D01*
X86507542Y-98266278D01*
X86507542Y-98361516D01*
X86531352Y-98409135D01*
X86555161Y-98432944D01*
X86602780Y-98456754D01*
X86698019Y-98456754D01*
X86745638Y-98432944D01*
X86769447Y-98409135D01*
X86793257Y-98361516D01*
X86793257Y-98266278D01*
X86769447Y-98218659D01*
X86745638Y-98194849D01*
X86698019Y-98171040D01*
X86983733Y-98004373D02*
X87007542Y-97980564D01*
X87055161Y-97956754D01*
X87174209Y-97956754D01*
X87221828Y-97980564D01*
X87245638Y-98004373D01*
X87269447Y-98051992D01*
X87269447Y-98099611D01*
X87245638Y-98171040D01*
X86959923Y-98456754D01*
X87269447Y-98456754D01*
X87459923Y-98004373D02*
X87483733Y-97980564D01*
X87531352Y-97956754D01*
X87650400Y-97956754D01*
X87698019Y-97980564D01*
X87721828Y-98004373D01*
X87745638Y-98051992D01*
X87745638Y-98099611D01*
X87721828Y-98171040D01*
X87436114Y-98456754D01*
X87745638Y-98456754D01*
D11*
X85571828Y-99122716D02*
X85381352Y-99122716D01*
X85381352Y-98722716D01*
X85705161Y-98913192D02*
X85838495Y-98913192D01*
X85895638Y-99122716D02*
X85705161Y-99122716D01*
X85705161Y-98722716D01*
X85895638Y-98722716D01*
X86067066Y-99122716D02*
X86067066Y-98722716D01*
X86162304Y-98722716D01*
X86219447Y-98741764D01*
X86257542Y-98779859D01*
X86276590Y-98817954D01*
X86295638Y-98894144D01*
X86295638Y-98951287D01*
X86276590Y-99027478D01*
X86257542Y-99065573D01*
X86219447Y-99103668D01*
X86162304Y-99122716D01*
X86067066Y-99122716D01*
X86428971Y-98722716D02*
X86676590Y-98722716D01*
X86543257Y-98875097D01*
X86600400Y-98875097D01*
X86638495Y-98894144D01*
X86657542Y-98913192D01*
X86676590Y-98951287D01*
X86676590Y-99046525D01*
X86657542Y-99084621D01*
X86638495Y-99103668D01*
X86600400Y-99122716D01*
X86486114Y-99122716D01*
X86448019Y-99103668D01*
X86428971Y-99084621D01*
X86924209Y-98722716D02*
X86962304Y-98722716D01*
X87000400Y-98741764D01*
X87019447Y-98760811D01*
X87038495Y-98798906D01*
X87057542Y-98875097D01*
X87057542Y-98970335D01*
X87038495Y-99046525D01*
X87019447Y-99084621D01*
X87000400Y-99103668D01*
X86962304Y-99122716D01*
X86924209Y-99122716D01*
X86886114Y-99103668D01*
X86867066Y-99084621D01*
X86848019Y-99046525D01*
X86828971Y-98970335D01*
X86828971Y-98875097D01*
X86848019Y-98798906D01*
X86867066Y-98760811D01*
X86886114Y-98741764D01*
X86924209Y-98722716D01*
X87190876Y-98722716D02*
X87438495Y-98722716D01*
X87305161Y-98875097D01*
X87362304Y-98875097D01*
X87400400Y-98894144D01*
X87419447Y-98913192D01*
X87438495Y-98951287D01*
X87438495Y-99046525D01*
X87419447Y-99084621D01*
X87400400Y-99103668D01*
X87362304Y-99122716D01*
X87248019Y-99122716D01*
X87209923Y-99103668D01*
X87190876Y-99084621D01*
D10*
X85055161Y-162264238D02*
X85126590Y-162288048D01*
X85245638Y-162288048D01*
X85293257Y-162264238D01*
X85317066Y-162240429D01*
X85340876Y-162192810D01*
X85340876Y-162145191D01*
X85317066Y-162097572D01*
X85293257Y-162073762D01*
X85245638Y-162049953D01*
X85150400Y-162026143D01*
X85102780Y-162002334D01*
X85078971Y-161978524D01*
X85055161Y-161930905D01*
X85055161Y-161883286D01*
X85078971Y-161835667D01*
X85102780Y-161811858D01*
X85150400Y-161788048D01*
X85269447Y-161788048D01*
X85340876Y-161811858D01*
X85555161Y-162288048D02*
X85555161Y-161788048D01*
X85840876Y-162288048D02*
X85626590Y-162002334D01*
X85840876Y-161788048D02*
X85555161Y-162073762D01*
X86078971Y-162288048D02*
X86174209Y-162288048D01*
X86221828Y-162264238D01*
X86245638Y-162240429D01*
X86293257Y-162169000D01*
X86317066Y-162073762D01*
X86317066Y-161883286D01*
X86293257Y-161835667D01*
X86269447Y-161811858D01*
X86221828Y-161788048D01*
X86126590Y-161788048D01*
X86078971Y-161811858D01*
X86055161Y-161835667D01*
X86031352Y-161883286D01*
X86031352Y-162002334D01*
X86055161Y-162049953D01*
X86078971Y-162073762D01*
X86126590Y-162097572D01*
X86221828Y-162097572D01*
X86269447Y-162073762D01*
X86293257Y-162049953D01*
X86317066Y-162002334D01*
X86602780Y-162002334D02*
X86555161Y-161978524D01*
X86531352Y-161954715D01*
X86507542Y-161907096D01*
X86507542Y-161883286D01*
X86531352Y-161835667D01*
X86555161Y-161811858D01*
X86602780Y-161788048D01*
X86698019Y-161788048D01*
X86745638Y-161811858D01*
X86769447Y-161835667D01*
X86793257Y-161883286D01*
X86793257Y-161907096D01*
X86769447Y-161954715D01*
X86745638Y-161978524D01*
X86698019Y-162002334D01*
X86602780Y-162002334D01*
X86555161Y-162026143D01*
X86531352Y-162049953D01*
X86507542Y-162097572D01*
X86507542Y-162192810D01*
X86531352Y-162240429D01*
X86555161Y-162264238D01*
X86602780Y-162288048D01*
X86698019Y-162288048D01*
X86745638Y-162264238D01*
X86769447Y-162240429D01*
X86793257Y-162192810D01*
X86793257Y-162097572D01*
X86769447Y-162049953D01*
X86745638Y-162026143D01*
X86698019Y-162002334D01*
X86983733Y-161835667D02*
X87007542Y-161811858D01*
X87055161Y-161788048D01*
X87174209Y-161788048D01*
X87221828Y-161811858D01*
X87245638Y-161835667D01*
X87269447Y-161883286D01*
X87269447Y-161930905D01*
X87245638Y-162002334D01*
X86959923Y-162288048D01*
X87269447Y-162288048D01*
X87459923Y-161835667D02*
X87483733Y-161811858D01*
X87531352Y-161788048D01*
X87650400Y-161788048D01*
X87698019Y-161811858D01*
X87721828Y-161835667D01*
X87745638Y-161883286D01*
X87745638Y-161930905D01*
X87721828Y-162002334D01*
X87436114Y-162288048D01*
X87745638Y-162288048D01*
D11*
X85571828Y-162954010D02*
X85381352Y-162954010D01*
X85381352Y-162554010D01*
X85705161Y-162744486D02*
X85838495Y-162744486D01*
X85895638Y-162954010D02*
X85705161Y-162954010D01*
X85705161Y-162554010D01*
X85895638Y-162554010D01*
X86067066Y-162954010D02*
X86067066Y-162554010D01*
X86162304Y-162554010D01*
X86219447Y-162573058D01*
X86257542Y-162611153D01*
X86276590Y-162649248D01*
X86295638Y-162725438D01*
X86295638Y-162782581D01*
X86276590Y-162858772D01*
X86257542Y-162896867D01*
X86219447Y-162934962D01*
X86162304Y-162954010D01*
X86067066Y-162954010D01*
X86428971Y-162554010D02*
X86676590Y-162554010D01*
X86543257Y-162706391D01*
X86600400Y-162706391D01*
X86638495Y-162725438D01*
X86657542Y-162744486D01*
X86676590Y-162782581D01*
X86676590Y-162877819D01*
X86657542Y-162915915D01*
X86638495Y-162934962D01*
X86600400Y-162954010D01*
X86486114Y-162954010D01*
X86448019Y-162934962D01*
X86428971Y-162915915D01*
X86828971Y-162592105D02*
X86848019Y-162573058D01*
X86886114Y-162554010D01*
X86981352Y-162554010D01*
X87019447Y-162573058D01*
X87038495Y-162592105D01*
X87057542Y-162630200D01*
X87057542Y-162668296D01*
X87038495Y-162725438D01*
X86809923Y-162954010D01*
X87057542Y-162954010D01*
X87305161Y-162554010D02*
X87343257Y-162554010D01*
X87381352Y-162573058D01*
X87400400Y-162592105D01*
X87419447Y-162630200D01*
X87438495Y-162706391D01*
X87438495Y-162801629D01*
X87419447Y-162877819D01*
X87400400Y-162915915D01*
X87381352Y-162934962D01*
X87343257Y-162954010D01*
X87305161Y-162954010D01*
X87267066Y-162934962D01*
X87248019Y-162915915D01*
X87228971Y-162877819D01*
X87209923Y-162801629D01*
X87209923Y-162706391D01*
X87228971Y-162630200D01*
X87248019Y-162592105D01*
X87267066Y-162573058D01*
X87305161Y-162554010D01*
D10*
X85055161Y-128471200D02*
X85126590Y-128495010D01*
X85245638Y-128495010D01*
X85293257Y-128471200D01*
X85317066Y-128447391D01*
X85340876Y-128399772D01*
X85340876Y-128352153D01*
X85317066Y-128304534D01*
X85293257Y-128280724D01*
X85245638Y-128256915D01*
X85150400Y-128233105D01*
X85102780Y-128209296D01*
X85078971Y-128185486D01*
X85055161Y-128137867D01*
X85055161Y-128090248D01*
X85078971Y-128042629D01*
X85102780Y-128018820D01*
X85150400Y-127995010D01*
X85269447Y-127995010D01*
X85340876Y-128018820D01*
X85555161Y-128495010D02*
X85555161Y-127995010D01*
X85840876Y-128495010D02*
X85626590Y-128209296D01*
X85840876Y-127995010D02*
X85555161Y-128280724D01*
X86078971Y-128495010D02*
X86174209Y-128495010D01*
X86221828Y-128471200D01*
X86245638Y-128447391D01*
X86293257Y-128375962D01*
X86317066Y-128280724D01*
X86317066Y-128090248D01*
X86293257Y-128042629D01*
X86269447Y-128018820D01*
X86221828Y-127995010D01*
X86126590Y-127995010D01*
X86078971Y-128018820D01*
X86055161Y-128042629D01*
X86031352Y-128090248D01*
X86031352Y-128209296D01*
X86055161Y-128256915D01*
X86078971Y-128280724D01*
X86126590Y-128304534D01*
X86221828Y-128304534D01*
X86269447Y-128280724D01*
X86293257Y-128256915D01*
X86317066Y-128209296D01*
X86602780Y-128209296D02*
X86555161Y-128185486D01*
X86531352Y-128161677D01*
X86507542Y-128114058D01*
X86507542Y-128090248D01*
X86531352Y-128042629D01*
X86555161Y-128018820D01*
X86602780Y-127995010D01*
X86698019Y-127995010D01*
X86745638Y-128018820D01*
X86769447Y-128042629D01*
X86793257Y-128090248D01*
X86793257Y-128114058D01*
X86769447Y-128161677D01*
X86745638Y-128185486D01*
X86698019Y-128209296D01*
X86602780Y-128209296D01*
X86555161Y-128233105D01*
X86531352Y-128256915D01*
X86507542Y-128304534D01*
X86507542Y-128399772D01*
X86531352Y-128447391D01*
X86555161Y-128471200D01*
X86602780Y-128495010D01*
X86698019Y-128495010D01*
X86745638Y-128471200D01*
X86769447Y-128447391D01*
X86793257Y-128399772D01*
X86793257Y-128304534D01*
X86769447Y-128256915D01*
X86745638Y-128233105D01*
X86698019Y-128209296D01*
X86983733Y-128042629D02*
X87007542Y-128018820D01*
X87055161Y-127995010D01*
X87174209Y-127995010D01*
X87221828Y-128018820D01*
X87245638Y-128042629D01*
X87269447Y-128090248D01*
X87269447Y-128137867D01*
X87245638Y-128209296D01*
X86959923Y-128495010D01*
X87269447Y-128495010D01*
X87459923Y-128042629D02*
X87483733Y-128018820D01*
X87531352Y-127995010D01*
X87650400Y-127995010D01*
X87698019Y-128018820D01*
X87721828Y-128042629D01*
X87745638Y-128090248D01*
X87745638Y-128137867D01*
X87721828Y-128209296D01*
X87436114Y-128495010D01*
X87745638Y-128495010D01*
D11*
X85571828Y-129160972D02*
X85381352Y-129160972D01*
X85381352Y-128760972D01*
X85705161Y-128951448D02*
X85838495Y-128951448D01*
X85895638Y-129160972D02*
X85705161Y-129160972D01*
X85705161Y-128760972D01*
X85895638Y-128760972D01*
X86067066Y-129160972D02*
X86067066Y-128760972D01*
X86162304Y-128760972D01*
X86219447Y-128780020D01*
X86257542Y-128818115D01*
X86276590Y-128856210D01*
X86295638Y-128932400D01*
X86295638Y-128989543D01*
X86276590Y-129065734D01*
X86257542Y-129103829D01*
X86219447Y-129141924D01*
X86162304Y-129160972D01*
X86067066Y-129160972D01*
X86428971Y-128760972D02*
X86676590Y-128760972D01*
X86543257Y-128913353D01*
X86600400Y-128913353D01*
X86638495Y-128932400D01*
X86657542Y-128951448D01*
X86676590Y-128989543D01*
X86676590Y-129084781D01*
X86657542Y-129122877D01*
X86638495Y-129141924D01*
X86600400Y-129160972D01*
X86486114Y-129160972D01*
X86448019Y-129141924D01*
X86428971Y-129122877D01*
X87057542Y-129160972D02*
X86828971Y-129160972D01*
X86943257Y-129160972D02*
X86943257Y-128760972D01*
X86905161Y-128818115D01*
X86867066Y-128856210D01*
X86828971Y-128875258D01*
X87438495Y-129160972D02*
X87209923Y-129160972D01*
X87324209Y-129160972D02*
X87324209Y-128760972D01*
X87286114Y-128818115D01*
X87248019Y-128856210D01*
X87209923Y-128875258D01*
X82418670Y-72491307D02*
X82519685Y-72592322D01*
X82469178Y-72541815D02*
X82292401Y-72718591D01*
X82334491Y-72710173D01*
X82368162Y-72710173D01*
X82393416Y-72718591D01*
X82342908Y-72415546D02*
X82166132Y-72592322D01*
X82258729Y-72466053D02*
X82275565Y-72348202D01*
X82157714Y-72466053D02*
X82292401Y-72466053D01*
X81854668Y-72280859D02*
X81837832Y-72264023D01*
X81829414Y-72238769D01*
X81829414Y-72221933D01*
X81837832Y-72196679D01*
X81863086Y-72154590D01*
X81905176Y-72112500D01*
X81947265Y-72087246D01*
X81972519Y-72078828D01*
X81989355Y-72078828D01*
X82014609Y-72087246D01*
X82031445Y-72104082D01*
X82039863Y-72129336D01*
X82039863Y-72146172D01*
X82031445Y-72171425D01*
X82006191Y-72213515D01*
X81964101Y-72255605D01*
X81922012Y-72280859D01*
X81896758Y-72289277D01*
X81879922Y-72289277D01*
X81854668Y-72280859D01*
X81745235Y-72137754D02*
X81728399Y-72137754D01*
X81703145Y-72129336D01*
X81661056Y-72087246D01*
X81652638Y-72061992D01*
X81652638Y-72045156D01*
X81661056Y-72019903D01*
X81677891Y-72003067D01*
X81711563Y-71986231D01*
X81913594Y-71986231D01*
X81804160Y-71876798D01*
X81517951Y-71944141D02*
X81501115Y-71927305D01*
X81492697Y-71902051D01*
X81492697Y-71885216D01*
X81501115Y-71859962D01*
X81526369Y-71817872D01*
X81568458Y-71775782D01*
X81610548Y-71750529D01*
X81635802Y-71742111D01*
X81652638Y-71742111D01*
X81677891Y-71750529D01*
X81694727Y-71767364D01*
X81703145Y-71792618D01*
X81703145Y-71809454D01*
X81694727Y-71834708D01*
X81669473Y-71876798D01*
X81627384Y-71918887D01*
X81585294Y-71944141D01*
X81560040Y-71952559D01*
X81543204Y-71952559D01*
X81517951Y-71944141D01*
X81467443Y-71540080D02*
X81568458Y-71641095D01*
X81517951Y-71590588D02*
X81341174Y-71767364D01*
X81383264Y-71758947D01*
X81416935Y-71758947D01*
X81442189Y-71767364D01*
X83365179Y-72823226D02*
X83344976Y-72937710D01*
X83445991Y-72904039D02*
X83304570Y-73045460D01*
X83250695Y-72991585D01*
X83243961Y-72971382D01*
X83243961Y-72957913D01*
X83250695Y-72937710D01*
X83270898Y-72917507D01*
X83291101Y-72910773D01*
X83304570Y-72910773D01*
X83324773Y-72917507D01*
X83378648Y-72971382D01*
X83183352Y-72897304D02*
X83169883Y-72897304D01*
X83149680Y-72890570D01*
X83116008Y-72856898D01*
X83109274Y-72836695D01*
X83109274Y-72823226D01*
X83116008Y-72803023D01*
X83129477Y-72789555D01*
X83156414Y-72776086D01*
X83318039Y-72776086D01*
X83230492Y-72688539D01*
X83001524Y-72742414D02*
X82988055Y-72728946D01*
X82981321Y-72708742D01*
X82981321Y-72695274D01*
X82988055Y-72675071D01*
X83008258Y-72641399D01*
X83041930Y-72607727D01*
X83075602Y-72587524D01*
X83095805Y-72580790D01*
X83109274Y-72580790D01*
X83129477Y-72587524D01*
X83142946Y-72600993D01*
X83149680Y-72621196D01*
X83149680Y-72634665D01*
X83142946Y-72654868D01*
X83122742Y-72688539D01*
X83089071Y-72722211D01*
X83055399Y-72742414D01*
X83035196Y-72749149D01*
X83021727Y-72749149D01*
X83001524Y-72742414D01*
X82961118Y-72419165D02*
X83041930Y-72499978D01*
X83001524Y-72459571D02*
X82860103Y-72600993D01*
X82893775Y-72594258D01*
X82920712Y-72594258D01*
X82940915Y-72600993D01*
D10*
X85055161Y-173528584D02*
X85126590Y-173552394D01*
X85245638Y-173552394D01*
X85293257Y-173528584D01*
X85317066Y-173504775D01*
X85340876Y-173457156D01*
X85340876Y-173409537D01*
X85317066Y-173361918D01*
X85293257Y-173338108D01*
X85245638Y-173314299D01*
X85150400Y-173290489D01*
X85102780Y-173266680D01*
X85078971Y-173242870D01*
X85055161Y-173195251D01*
X85055161Y-173147632D01*
X85078971Y-173100013D01*
X85102780Y-173076204D01*
X85150400Y-173052394D01*
X85269447Y-173052394D01*
X85340876Y-173076204D01*
X85555161Y-173552394D02*
X85555161Y-173052394D01*
X85840876Y-173552394D02*
X85626590Y-173266680D01*
X85840876Y-173052394D02*
X85555161Y-173338108D01*
X86078971Y-173552394D02*
X86174209Y-173552394D01*
X86221828Y-173528584D01*
X86245638Y-173504775D01*
X86293257Y-173433346D01*
X86317066Y-173338108D01*
X86317066Y-173147632D01*
X86293257Y-173100013D01*
X86269447Y-173076204D01*
X86221828Y-173052394D01*
X86126590Y-173052394D01*
X86078971Y-173076204D01*
X86055161Y-173100013D01*
X86031352Y-173147632D01*
X86031352Y-173266680D01*
X86055161Y-173314299D01*
X86078971Y-173338108D01*
X86126590Y-173361918D01*
X86221828Y-173361918D01*
X86269447Y-173338108D01*
X86293257Y-173314299D01*
X86317066Y-173266680D01*
X86602780Y-173266680D02*
X86555161Y-173242870D01*
X86531352Y-173219061D01*
X86507542Y-173171442D01*
X86507542Y-173147632D01*
X86531352Y-173100013D01*
X86555161Y-173076204D01*
X86602780Y-173052394D01*
X86698019Y-173052394D01*
X86745638Y-173076204D01*
X86769447Y-173100013D01*
X86793257Y-173147632D01*
X86793257Y-173171442D01*
X86769447Y-173219061D01*
X86745638Y-173242870D01*
X86698019Y-173266680D01*
X86602780Y-173266680D01*
X86555161Y-173290489D01*
X86531352Y-173314299D01*
X86507542Y-173361918D01*
X86507542Y-173457156D01*
X86531352Y-173504775D01*
X86555161Y-173528584D01*
X86602780Y-173552394D01*
X86698019Y-173552394D01*
X86745638Y-173528584D01*
X86769447Y-173504775D01*
X86793257Y-173457156D01*
X86793257Y-173361918D01*
X86769447Y-173314299D01*
X86745638Y-173290489D01*
X86698019Y-173266680D01*
X86983733Y-173100013D02*
X87007542Y-173076204D01*
X87055161Y-173052394D01*
X87174209Y-173052394D01*
X87221828Y-173076204D01*
X87245638Y-173100013D01*
X87269447Y-173147632D01*
X87269447Y-173195251D01*
X87245638Y-173266680D01*
X86959923Y-173552394D01*
X87269447Y-173552394D01*
X87459923Y-173100013D02*
X87483733Y-173076204D01*
X87531352Y-173052394D01*
X87650400Y-173052394D01*
X87698019Y-173076204D01*
X87721828Y-173100013D01*
X87745638Y-173147632D01*
X87745638Y-173195251D01*
X87721828Y-173266680D01*
X87436114Y-173552394D01*
X87745638Y-173552394D01*
D11*
X85571828Y-174218356D02*
X85381352Y-174218356D01*
X85381352Y-173818356D01*
X85705161Y-174008832D02*
X85838495Y-174008832D01*
X85895638Y-174218356D02*
X85705161Y-174218356D01*
X85705161Y-173818356D01*
X85895638Y-173818356D01*
X86067066Y-174218356D02*
X86067066Y-173818356D01*
X86162304Y-173818356D01*
X86219447Y-173837404D01*
X86257542Y-173875499D01*
X86276590Y-173913594D01*
X86295638Y-173989784D01*
X86295638Y-174046927D01*
X86276590Y-174123118D01*
X86257542Y-174161213D01*
X86219447Y-174199308D01*
X86162304Y-174218356D01*
X86067066Y-174218356D01*
X86428971Y-173818356D02*
X86676590Y-173818356D01*
X86543257Y-173970737D01*
X86600400Y-173970737D01*
X86638495Y-173989784D01*
X86657542Y-174008832D01*
X86676590Y-174046927D01*
X86676590Y-174142165D01*
X86657542Y-174180261D01*
X86638495Y-174199308D01*
X86600400Y-174218356D01*
X86486114Y-174218356D01*
X86448019Y-174199308D01*
X86428971Y-174180261D01*
X86828971Y-173856451D02*
X86848019Y-173837404D01*
X86886114Y-173818356D01*
X86981352Y-173818356D01*
X87019447Y-173837404D01*
X87038495Y-173856451D01*
X87057542Y-173894546D01*
X87057542Y-173932642D01*
X87038495Y-173989784D01*
X86809923Y-174218356D01*
X87057542Y-174218356D01*
X87190876Y-173818356D02*
X87438495Y-173818356D01*
X87305161Y-173970737D01*
X87362304Y-173970737D01*
X87400400Y-173989784D01*
X87419447Y-174008832D01*
X87438495Y-174046927D01*
X87438495Y-174142165D01*
X87419447Y-174180261D01*
X87400400Y-174199308D01*
X87362304Y-174218356D01*
X87248019Y-174218356D01*
X87209923Y-174199308D01*
X87190876Y-174180261D01*
D10*
X85055172Y-109697284D02*
X85126601Y-109721094D01*
X85245649Y-109721094D01*
X85293268Y-109697284D01*
X85317077Y-109673475D01*
X85340887Y-109625856D01*
X85340887Y-109578237D01*
X85317077Y-109530618D01*
X85293268Y-109506808D01*
X85245649Y-109482999D01*
X85150411Y-109459189D01*
X85102791Y-109435380D01*
X85078982Y-109411570D01*
X85055172Y-109363951D01*
X85055172Y-109316332D01*
X85078982Y-109268713D01*
X85102791Y-109244904D01*
X85150411Y-109221094D01*
X85269458Y-109221094D01*
X85340887Y-109244904D01*
X85555172Y-109721094D02*
X85555172Y-109221094D01*
X85840887Y-109721094D02*
X85626601Y-109435380D01*
X85840887Y-109221094D02*
X85555172Y-109506808D01*
X86078982Y-109721094D02*
X86174220Y-109721094D01*
X86221839Y-109697284D01*
X86245649Y-109673475D01*
X86293268Y-109602046D01*
X86317077Y-109506808D01*
X86317077Y-109316332D01*
X86293268Y-109268713D01*
X86269458Y-109244904D01*
X86221839Y-109221094D01*
X86126601Y-109221094D01*
X86078982Y-109244904D01*
X86055172Y-109268713D01*
X86031363Y-109316332D01*
X86031363Y-109435380D01*
X86055172Y-109482999D01*
X86078982Y-109506808D01*
X86126601Y-109530618D01*
X86221839Y-109530618D01*
X86269458Y-109506808D01*
X86293268Y-109482999D01*
X86317077Y-109435380D01*
X86602791Y-109435380D02*
X86555172Y-109411570D01*
X86531363Y-109387761D01*
X86507553Y-109340142D01*
X86507553Y-109316332D01*
X86531363Y-109268713D01*
X86555172Y-109244904D01*
X86602791Y-109221094D01*
X86698030Y-109221094D01*
X86745649Y-109244904D01*
X86769458Y-109268713D01*
X86793268Y-109316332D01*
X86793268Y-109340142D01*
X86769458Y-109387761D01*
X86745649Y-109411570D01*
X86698030Y-109435380D01*
X86602791Y-109435380D01*
X86555172Y-109459189D01*
X86531363Y-109482999D01*
X86507553Y-109530618D01*
X86507553Y-109625856D01*
X86531363Y-109673475D01*
X86555172Y-109697284D01*
X86602791Y-109721094D01*
X86698030Y-109721094D01*
X86745649Y-109697284D01*
X86769458Y-109673475D01*
X86793268Y-109625856D01*
X86793268Y-109530618D01*
X86769458Y-109482999D01*
X86745649Y-109459189D01*
X86698030Y-109435380D01*
X86983744Y-109268713D02*
X87007553Y-109244904D01*
X87055172Y-109221094D01*
X87174220Y-109221094D01*
X87221839Y-109244904D01*
X87245649Y-109268713D01*
X87269458Y-109316332D01*
X87269458Y-109363951D01*
X87245649Y-109435380D01*
X86959934Y-109721094D01*
X87269458Y-109721094D01*
X87459934Y-109268713D02*
X87483744Y-109244904D01*
X87531363Y-109221094D01*
X87650411Y-109221094D01*
X87698030Y-109244904D01*
X87721839Y-109268713D01*
X87745649Y-109316332D01*
X87745649Y-109363951D01*
X87721839Y-109435380D01*
X87436125Y-109721094D01*
X87745649Y-109721094D01*
D11*
X85571839Y-110387056D02*
X85381363Y-110387056D01*
X85381363Y-109987056D01*
X85705172Y-110177532D02*
X85838506Y-110177532D01*
X85895649Y-110387056D02*
X85705172Y-110387056D01*
X85705172Y-109987056D01*
X85895649Y-109987056D01*
X86067077Y-110387056D02*
X86067077Y-109987056D01*
X86162315Y-109987056D01*
X86219458Y-110006104D01*
X86257553Y-110044199D01*
X86276601Y-110082294D01*
X86295649Y-110158484D01*
X86295649Y-110215627D01*
X86276601Y-110291818D01*
X86257553Y-110329913D01*
X86219458Y-110368008D01*
X86162315Y-110387056D01*
X86067077Y-110387056D01*
X86428982Y-109987056D02*
X86676601Y-109987056D01*
X86543268Y-110139437D01*
X86600411Y-110139437D01*
X86638506Y-110158484D01*
X86657553Y-110177532D01*
X86676601Y-110215627D01*
X86676601Y-110310865D01*
X86657553Y-110348961D01*
X86638506Y-110368008D01*
X86600411Y-110387056D01*
X86486125Y-110387056D01*
X86448030Y-110368008D01*
X86428982Y-110348961D01*
X86924220Y-109987056D02*
X86962315Y-109987056D01*
X87000411Y-110006104D01*
X87019458Y-110025151D01*
X87038506Y-110063246D01*
X87057553Y-110139437D01*
X87057553Y-110234675D01*
X87038506Y-110310865D01*
X87019458Y-110348961D01*
X87000411Y-110368008D01*
X86962315Y-110387056D01*
X86924220Y-110387056D01*
X86886125Y-110368008D01*
X86867077Y-110348961D01*
X86848030Y-110310865D01*
X86828982Y-110234675D01*
X86828982Y-110139437D01*
X86848030Y-110063246D01*
X86867077Y-110025151D01*
X86886125Y-110006104D01*
X86924220Y-109987056D01*
X87400411Y-109987056D02*
X87324220Y-109987056D01*
X87286125Y-110006104D01*
X87267077Y-110025151D01*
X87228982Y-110082294D01*
X87209934Y-110158484D01*
X87209934Y-110310865D01*
X87228982Y-110348961D01*
X87248030Y-110368008D01*
X87286125Y-110387056D01*
X87362315Y-110387056D01*
X87400411Y-110368008D01*
X87419458Y-110348961D01*
X87438506Y-110310865D01*
X87438506Y-110215627D01*
X87419458Y-110177532D01*
X87400411Y-110158484D01*
X87362315Y-110139437D01*
X87286125Y-110139437D01*
X87248030Y-110158484D01*
X87228982Y-110177532D01*
X87209934Y-110215627D01*
D10*
X85055161Y-177283366D02*
X85126590Y-177307176D01*
X85245638Y-177307176D01*
X85293257Y-177283366D01*
X85317066Y-177259557D01*
X85340876Y-177211938D01*
X85340876Y-177164319D01*
X85317066Y-177116700D01*
X85293257Y-177092890D01*
X85245638Y-177069081D01*
X85150400Y-177045271D01*
X85102780Y-177021462D01*
X85078971Y-176997652D01*
X85055161Y-176950033D01*
X85055161Y-176902414D01*
X85078971Y-176854795D01*
X85102780Y-176830986D01*
X85150400Y-176807176D01*
X85269447Y-176807176D01*
X85340876Y-176830986D01*
X85555161Y-177307176D02*
X85555161Y-176807176D01*
X85840876Y-177307176D02*
X85626590Y-177021462D01*
X85840876Y-176807176D02*
X85555161Y-177092890D01*
X86078971Y-177307176D02*
X86174209Y-177307176D01*
X86221828Y-177283366D01*
X86245638Y-177259557D01*
X86293257Y-177188128D01*
X86317066Y-177092890D01*
X86317066Y-176902414D01*
X86293257Y-176854795D01*
X86269447Y-176830986D01*
X86221828Y-176807176D01*
X86126590Y-176807176D01*
X86078971Y-176830986D01*
X86055161Y-176854795D01*
X86031352Y-176902414D01*
X86031352Y-177021462D01*
X86055161Y-177069081D01*
X86078971Y-177092890D01*
X86126590Y-177116700D01*
X86221828Y-177116700D01*
X86269447Y-177092890D01*
X86293257Y-177069081D01*
X86317066Y-177021462D01*
X86602780Y-177021462D02*
X86555161Y-176997652D01*
X86531352Y-176973843D01*
X86507542Y-176926224D01*
X86507542Y-176902414D01*
X86531352Y-176854795D01*
X86555161Y-176830986D01*
X86602780Y-176807176D01*
X86698019Y-176807176D01*
X86745638Y-176830986D01*
X86769447Y-176854795D01*
X86793257Y-176902414D01*
X86793257Y-176926224D01*
X86769447Y-176973843D01*
X86745638Y-176997652D01*
X86698019Y-177021462D01*
X86602780Y-177021462D01*
X86555161Y-177045271D01*
X86531352Y-177069081D01*
X86507542Y-177116700D01*
X86507542Y-177211938D01*
X86531352Y-177259557D01*
X86555161Y-177283366D01*
X86602780Y-177307176D01*
X86698019Y-177307176D01*
X86745638Y-177283366D01*
X86769447Y-177259557D01*
X86793257Y-177211938D01*
X86793257Y-177116700D01*
X86769447Y-177069081D01*
X86745638Y-177045271D01*
X86698019Y-177021462D01*
X86983733Y-176854795D02*
X87007542Y-176830986D01*
X87055161Y-176807176D01*
X87174209Y-176807176D01*
X87221828Y-176830986D01*
X87245638Y-176854795D01*
X87269447Y-176902414D01*
X87269447Y-176950033D01*
X87245638Y-177021462D01*
X86959923Y-177307176D01*
X87269447Y-177307176D01*
X87459923Y-176854795D02*
X87483733Y-176830986D01*
X87531352Y-176807176D01*
X87650400Y-176807176D01*
X87698019Y-176830986D01*
X87721828Y-176854795D01*
X87745638Y-176902414D01*
X87745638Y-176950033D01*
X87721828Y-177021462D01*
X87436114Y-177307176D01*
X87745638Y-177307176D01*
D11*
X85571828Y-177973138D02*
X85381352Y-177973138D01*
X85381352Y-177573138D01*
X85705161Y-177763614D02*
X85838495Y-177763614D01*
X85895638Y-177973138D02*
X85705161Y-177973138D01*
X85705161Y-177573138D01*
X85895638Y-177573138D01*
X86067066Y-177973138D02*
X86067066Y-177573138D01*
X86162304Y-177573138D01*
X86219447Y-177592186D01*
X86257542Y-177630281D01*
X86276590Y-177668376D01*
X86295638Y-177744566D01*
X86295638Y-177801709D01*
X86276590Y-177877900D01*
X86257542Y-177915995D01*
X86219447Y-177954090D01*
X86162304Y-177973138D01*
X86067066Y-177973138D01*
X86428971Y-177573138D02*
X86676590Y-177573138D01*
X86543257Y-177725519D01*
X86600400Y-177725519D01*
X86638495Y-177744566D01*
X86657542Y-177763614D01*
X86676590Y-177801709D01*
X86676590Y-177896947D01*
X86657542Y-177935043D01*
X86638495Y-177954090D01*
X86600400Y-177973138D01*
X86486114Y-177973138D01*
X86448019Y-177954090D01*
X86428971Y-177935043D01*
X86828971Y-177611233D02*
X86848019Y-177592186D01*
X86886114Y-177573138D01*
X86981352Y-177573138D01*
X87019447Y-177592186D01*
X87038495Y-177611233D01*
X87057542Y-177649328D01*
X87057542Y-177687424D01*
X87038495Y-177744566D01*
X86809923Y-177973138D01*
X87057542Y-177973138D01*
X87400400Y-177706471D02*
X87400400Y-177973138D01*
X87305161Y-177554090D02*
X87209923Y-177839805D01*
X87457542Y-177839805D01*
D10*
X85055161Y-139735546D02*
X85126590Y-139759356D01*
X85245638Y-139759356D01*
X85293257Y-139735546D01*
X85317066Y-139711737D01*
X85340876Y-139664118D01*
X85340876Y-139616499D01*
X85317066Y-139568880D01*
X85293257Y-139545070D01*
X85245638Y-139521261D01*
X85150400Y-139497451D01*
X85102780Y-139473642D01*
X85078971Y-139449832D01*
X85055161Y-139402213D01*
X85055161Y-139354594D01*
X85078971Y-139306975D01*
X85102780Y-139283166D01*
X85150400Y-139259356D01*
X85269447Y-139259356D01*
X85340876Y-139283166D01*
X85555161Y-139759356D02*
X85555161Y-139259356D01*
X85840876Y-139759356D02*
X85626590Y-139473642D01*
X85840876Y-139259356D02*
X85555161Y-139545070D01*
X86078971Y-139759356D02*
X86174209Y-139759356D01*
X86221828Y-139735546D01*
X86245638Y-139711737D01*
X86293257Y-139640308D01*
X86317066Y-139545070D01*
X86317066Y-139354594D01*
X86293257Y-139306975D01*
X86269447Y-139283166D01*
X86221828Y-139259356D01*
X86126590Y-139259356D01*
X86078971Y-139283166D01*
X86055161Y-139306975D01*
X86031352Y-139354594D01*
X86031352Y-139473642D01*
X86055161Y-139521261D01*
X86078971Y-139545070D01*
X86126590Y-139568880D01*
X86221828Y-139568880D01*
X86269447Y-139545070D01*
X86293257Y-139521261D01*
X86317066Y-139473642D01*
X86602780Y-139473642D02*
X86555161Y-139449832D01*
X86531352Y-139426023D01*
X86507542Y-139378404D01*
X86507542Y-139354594D01*
X86531352Y-139306975D01*
X86555161Y-139283166D01*
X86602780Y-139259356D01*
X86698019Y-139259356D01*
X86745638Y-139283166D01*
X86769447Y-139306975D01*
X86793257Y-139354594D01*
X86793257Y-139378404D01*
X86769447Y-139426023D01*
X86745638Y-139449832D01*
X86698019Y-139473642D01*
X86602780Y-139473642D01*
X86555161Y-139497451D01*
X86531352Y-139521261D01*
X86507542Y-139568880D01*
X86507542Y-139664118D01*
X86531352Y-139711737D01*
X86555161Y-139735546D01*
X86602780Y-139759356D01*
X86698019Y-139759356D01*
X86745638Y-139735546D01*
X86769447Y-139711737D01*
X86793257Y-139664118D01*
X86793257Y-139568880D01*
X86769447Y-139521261D01*
X86745638Y-139497451D01*
X86698019Y-139473642D01*
X86983733Y-139306975D02*
X87007542Y-139283166D01*
X87055161Y-139259356D01*
X87174209Y-139259356D01*
X87221828Y-139283166D01*
X87245638Y-139306975D01*
X87269447Y-139354594D01*
X87269447Y-139402213D01*
X87245638Y-139473642D01*
X86959923Y-139759356D01*
X87269447Y-139759356D01*
X87459923Y-139306975D02*
X87483733Y-139283166D01*
X87531352Y-139259356D01*
X87650400Y-139259356D01*
X87698019Y-139283166D01*
X87721828Y-139306975D01*
X87745638Y-139354594D01*
X87745638Y-139402213D01*
X87721828Y-139473642D01*
X87436114Y-139759356D01*
X87745638Y-139759356D01*
D11*
X85571828Y-140425318D02*
X85381352Y-140425318D01*
X85381352Y-140025318D01*
X85705161Y-140215794D02*
X85838495Y-140215794D01*
X85895638Y-140425318D02*
X85705161Y-140425318D01*
X85705161Y-140025318D01*
X85895638Y-140025318D01*
X86067066Y-140425318D02*
X86067066Y-140025318D01*
X86162304Y-140025318D01*
X86219447Y-140044366D01*
X86257542Y-140082461D01*
X86276590Y-140120556D01*
X86295638Y-140196746D01*
X86295638Y-140253889D01*
X86276590Y-140330080D01*
X86257542Y-140368175D01*
X86219447Y-140406270D01*
X86162304Y-140425318D01*
X86067066Y-140425318D01*
X86428971Y-140025318D02*
X86676590Y-140025318D01*
X86543257Y-140177699D01*
X86600400Y-140177699D01*
X86638495Y-140196746D01*
X86657542Y-140215794D01*
X86676590Y-140253889D01*
X86676590Y-140349127D01*
X86657542Y-140387223D01*
X86638495Y-140406270D01*
X86600400Y-140425318D01*
X86486114Y-140425318D01*
X86448019Y-140406270D01*
X86428971Y-140387223D01*
X87057542Y-140425318D02*
X86828971Y-140425318D01*
X86943257Y-140425318D02*
X86943257Y-140025318D01*
X86905161Y-140082461D01*
X86867066Y-140120556D01*
X86828971Y-140139604D01*
X87400400Y-140158651D02*
X87400400Y-140425318D01*
X87305161Y-140006270D02*
X87209923Y-140291985D01*
X87457542Y-140291985D01*
D10*
X85055172Y-105942504D02*
X85126601Y-105966314D01*
X85245649Y-105966314D01*
X85293268Y-105942504D01*
X85317077Y-105918695D01*
X85340887Y-105871076D01*
X85340887Y-105823457D01*
X85317077Y-105775838D01*
X85293268Y-105752028D01*
X85245649Y-105728219D01*
X85150411Y-105704409D01*
X85102791Y-105680600D01*
X85078982Y-105656790D01*
X85055172Y-105609171D01*
X85055172Y-105561552D01*
X85078982Y-105513933D01*
X85102791Y-105490124D01*
X85150411Y-105466314D01*
X85269458Y-105466314D01*
X85340887Y-105490124D01*
X85555172Y-105966314D02*
X85555172Y-105466314D01*
X85840887Y-105966314D02*
X85626601Y-105680600D01*
X85840887Y-105466314D02*
X85555172Y-105752028D01*
X86078982Y-105966314D02*
X86174220Y-105966314D01*
X86221839Y-105942504D01*
X86245649Y-105918695D01*
X86293268Y-105847266D01*
X86317077Y-105752028D01*
X86317077Y-105561552D01*
X86293268Y-105513933D01*
X86269458Y-105490124D01*
X86221839Y-105466314D01*
X86126601Y-105466314D01*
X86078982Y-105490124D01*
X86055172Y-105513933D01*
X86031363Y-105561552D01*
X86031363Y-105680600D01*
X86055172Y-105728219D01*
X86078982Y-105752028D01*
X86126601Y-105775838D01*
X86221839Y-105775838D01*
X86269458Y-105752028D01*
X86293268Y-105728219D01*
X86317077Y-105680600D01*
X86602791Y-105680600D02*
X86555172Y-105656790D01*
X86531363Y-105632981D01*
X86507553Y-105585362D01*
X86507553Y-105561552D01*
X86531363Y-105513933D01*
X86555172Y-105490124D01*
X86602791Y-105466314D01*
X86698030Y-105466314D01*
X86745649Y-105490124D01*
X86769458Y-105513933D01*
X86793268Y-105561552D01*
X86793268Y-105585362D01*
X86769458Y-105632981D01*
X86745649Y-105656790D01*
X86698030Y-105680600D01*
X86602791Y-105680600D01*
X86555172Y-105704409D01*
X86531363Y-105728219D01*
X86507553Y-105775838D01*
X86507553Y-105871076D01*
X86531363Y-105918695D01*
X86555172Y-105942504D01*
X86602791Y-105966314D01*
X86698030Y-105966314D01*
X86745649Y-105942504D01*
X86769458Y-105918695D01*
X86793268Y-105871076D01*
X86793268Y-105775838D01*
X86769458Y-105728219D01*
X86745649Y-105704409D01*
X86698030Y-105680600D01*
X86983744Y-105513933D02*
X87007553Y-105490124D01*
X87055172Y-105466314D01*
X87174220Y-105466314D01*
X87221839Y-105490124D01*
X87245649Y-105513933D01*
X87269458Y-105561552D01*
X87269458Y-105609171D01*
X87245649Y-105680600D01*
X86959934Y-105966314D01*
X87269458Y-105966314D01*
X87459934Y-105513933D02*
X87483744Y-105490124D01*
X87531363Y-105466314D01*
X87650411Y-105466314D01*
X87698030Y-105490124D01*
X87721839Y-105513933D01*
X87745649Y-105561552D01*
X87745649Y-105609171D01*
X87721839Y-105680600D01*
X87436125Y-105966314D01*
X87745649Y-105966314D01*
D11*
X85571839Y-106632276D02*
X85381363Y-106632276D01*
X85381363Y-106232276D01*
X85705172Y-106422752D02*
X85838506Y-106422752D01*
X85895649Y-106632276D02*
X85705172Y-106632276D01*
X85705172Y-106232276D01*
X85895649Y-106232276D01*
X86067077Y-106632276D02*
X86067077Y-106232276D01*
X86162315Y-106232276D01*
X86219458Y-106251324D01*
X86257553Y-106289419D01*
X86276601Y-106327514D01*
X86295649Y-106403704D01*
X86295649Y-106460847D01*
X86276601Y-106537038D01*
X86257553Y-106575133D01*
X86219458Y-106613228D01*
X86162315Y-106632276D01*
X86067077Y-106632276D01*
X86428982Y-106232276D02*
X86676601Y-106232276D01*
X86543268Y-106384657D01*
X86600411Y-106384657D01*
X86638506Y-106403704D01*
X86657553Y-106422752D01*
X86676601Y-106460847D01*
X86676601Y-106556085D01*
X86657553Y-106594181D01*
X86638506Y-106613228D01*
X86600411Y-106632276D01*
X86486125Y-106632276D01*
X86448030Y-106613228D01*
X86428982Y-106594181D01*
X86924220Y-106232276D02*
X86962315Y-106232276D01*
X87000411Y-106251324D01*
X87019458Y-106270371D01*
X87038506Y-106308466D01*
X87057553Y-106384657D01*
X87057553Y-106479895D01*
X87038506Y-106556085D01*
X87019458Y-106594181D01*
X87000411Y-106613228D01*
X86962315Y-106632276D01*
X86924220Y-106632276D01*
X86886125Y-106613228D01*
X86867077Y-106594181D01*
X86848030Y-106556085D01*
X86828982Y-106479895D01*
X86828982Y-106384657D01*
X86848030Y-106308466D01*
X86867077Y-106270371D01*
X86886125Y-106251324D01*
X86924220Y-106232276D01*
X87419458Y-106232276D02*
X87228982Y-106232276D01*
X87209934Y-106422752D01*
X87228982Y-106403704D01*
X87267077Y-106384657D01*
X87362315Y-106384657D01*
X87400411Y-106403704D01*
X87419458Y-106422752D01*
X87438506Y-106460847D01*
X87438506Y-106556085D01*
X87419458Y-106594181D01*
X87400411Y-106613228D01*
X87362315Y-106632276D01*
X87267077Y-106632276D01*
X87228982Y-106613228D01*
X87209934Y-106594181D01*
D10*
X85502857Y-25532590D02*
X85502857Y-25937352D01*
X85526666Y-25984971D01*
X85550476Y-26008780D01*
X85598095Y-26032590D01*
X85693333Y-26032590D01*
X85740952Y-26008780D01*
X85764761Y-25984971D01*
X85788571Y-25937352D01*
X85788571Y-25532590D01*
X86002857Y-25580209D02*
X86026666Y-25556400D01*
X86074285Y-25532590D01*
X86193333Y-25532590D01*
X86240952Y-25556400D01*
X86264761Y-25580209D01*
X86288571Y-25627828D01*
X86288571Y-25675447D01*
X86264761Y-25746876D01*
X85979047Y-26032590D01*
X86288571Y-26032590D01*
X86598095Y-25532590D02*
X86645714Y-25532590D01*
X86693333Y-25556400D01*
X86717142Y-25580209D01*
X86740952Y-25627828D01*
X86764761Y-25723066D01*
X86764761Y-25842114D01*
X86740952Y-25937352D01*
X86717142Y-25984971D01*
X86693333Y-26008780D01*
X86645714Y-26032590D01*
X86598095Y-26032590D01*
X86550476Y-26008780D01*
X86526666Y-25984971D01*
X86502857Y-25937352D01*
X86479047Y-25842114D01*
X86479047Y-25723066D01*
X86502857Y-25627828D01*
X86526666Y-25580209D01*
X86550476Y-25556400D01*
X86598095Y-25532590D01*
X86955238Y-25580209D02*
X86979047Y-25556400D01*
X87026666Y-25532590D01*
X87145714Y-25532590D01*
X87193333Y-25556400D01*
X87217142Y-25580209D01*
X87240952Y-25627828D01*
X87240952Y-25675447D01*
X87217142Y-25746876D01*
X86931428Y-26032590D01*
X87240952Y-26032590D01*
X85374990Y-29104019D02*
X85374990Y-28818304D01*
X85874990Y-28961161D02*
X85374990Y-28961161D01*
X85874990Y-28651638D02*
X85374990Y-28651638D01*
X85374990Y-28461161D01*
X85398800Y-28413542D01*
X85422609Y-28389733D01*
X85470228Y-28365923D01*
X85541657Y-28365923D01*
X85589276Y-28389733D01*
X85613085Y-28413542D01*
X85636895Y-28461161D01*
X85636895Y-28651638D01*
X85874990Y-28151638D02*
X85374990Y-28151638D01*
X85374990Y-28032590D01*
X85398800Y-27961161D01*
X85446419Y-27913542D01*
X85494038Y-27889733D01*
X85589276Y-27865923D01*
X85660704Y-27865923D01*
X85755942Y-27889733D01*
X85803561Y-27913542D01*
X85851180Y-27961161D01*
X85874990Y-28032590D01*
X85874990Y-28151638D01*
X85541657Y-27437352D02*
X85874990Y-27437352D01*
X85351180Y-27556400D02*
X85708323Y-27675447D01*
X85708323Y-27365923D01*
X85613085Y-27175447D02*
X85613085Y-27008780D01*
X85874990Y-26937352D02*
X85874990Y-27175447D01*
X85374990Y-27175447D01*
X85374990Y-26937352D01*
X85374990Y-26627828D02*
X85374990Y-26580209D01*
X85398800Y-26532590D01*
X85422609Y-26508780D01*
X85470228Y-26484971D01*
X85565466Y-26461161D01*
X85684514Y-26461161D01*
X85779752Y-26484971D01*
X85827371Y-26508780D01*
X85851180Y-26532590D01*
X85874990Y-26580209D01*
X85874990Y-26627828D01*
X85851180Y-26675447D01*
X85827371Y-26699257D01*
X85779752Y-26723066D01*
X85684514Y-26746876D01*
X85565466Y-26746876D01*
X85470228Y-26723066D01*
X85422609Y-26699257D01*
X85398800Y-26675447D01*
X85374990Y-26627828D01*
X85374990Y-26008780D02*
X85374990Y-26246876D01*
X85613085Y-26270685D01*
X85589276Y-26246876D01*
X85565466Y-26199257D01*
X85565466Y-26080209D01*
X85589276Y-26032590D01*
X85613085Y-26008780D01*
X85660704Y-25984971D01*
X85779752Y-25984971D01*
X85827371Y-26008780D01*
X85851180Y-26032590D01*
X85874990Y-26080209D01*
X85874990Y-26199257D01*
X85851180Y-26246876D01*
X85827371Y-26270685D01*
X85374990Y-25770685D02*
X85779752Y-25770685D01*
X85827371Y-25746876D01*
X85851180Y-25723066D01*
X85874990Y-25675447D01*
X85874990Y-25580209D01*
X85851180Y-25532590D01*
X85827371Y-25508780D01*
X85779752Y-25484971D01*
X85374990Y-25484971D01*
X85374990Y-25151638D02*
X85374990Y-25104019D01*
X85398800Y-25056400D01*
X85422609Y-25032590D01*
X85470228Y-25008780D01*
X85565466Y-24984971D01*
X85684514Y-24984971D01*
X85779752Y-25008780D01*
X85827371Y-25032590D01*
X85851180Y-25056400D01*
X85874990Y-25104019D01*
X85874990Y-25151638D01*
X85851180Y-25199257D01*
X85827371Y-25223066D01*
X85779752Y-25246876D01*
X85684514Y-25270685D01*
X85565466Y-25270685D01*
X85470228Y-25246876D01*
X85422609Y-25223066D01*
X85398800Y-25199257D01*
X85374990Y-25151638D01*
X85374990Y-24556400D02*
X85374990Y-24651638D01*
X85398800Y-24699257D01*
X85422609Y-24723066D01*
X85494038Y-24770685D01*
X85589276Y-24794495D01*
X85779752Y-24794495D01*
X85827371Y-24770685D01*
X85851180Y-24746876D01*
X85874990Y-24699257D01*
X85874990Y-24604019D01*
X85851180Y-24556400D01*
X85827371Y-24532590D01*
X85779752Y-24508780D01*
X85660704Y-24508780D01*
X85613085Y-24532590D01*
X85589276Y-24556400D01*
X85565466Y-24604019D01*
X85565466Y-24699257D01*
X85589276Y-24746876D01*
X85613085Y-24770685D01*
X85660704Y-24794495D01*
X85874990Y-24294495D02*
X85374990Y-24294495D01*
X85374990Y-24175447D01*
X85398800Y-24104019D01*
X85446419Y-24056400D01*
X85494038Y-24032590D01*
X85589276Y-24008780D01*
X85660704Y-24008780D01*
X85755942Y-24032590D01*
X85803561Y-24056400D01*
X85851180Y-24104019D01*
X85874990Y-24175447D01*
X85874990Y-24294495D01*
X85922609Y-23461161D02*
X85898800Y-23508780D01*
X85851180Y-23556400D01*
X85779752Y-23627828D01*
X85755942Y-23675447D01*
X85755942Y-23723066D01*
X85874990Y-23699257D02*
X85851180Y-23746876D01*
X85803561Y-23794495D01*
X85708323Y-23818304D01*
X85541657Y-23818304D01*
X85446419Y-23794495D01*
X85398800Y-23746876D01*
X85374990Y-23699257D01*
X85374990Y-23604019D01*
X85398800Y-23556400D01*
X85446419Y-23508780D01*
X85541657Y-23484971D01*
X85708323Y-23484971D01*
X85803561Y-23508780D01*
X85851180Y-23556400D01*
X85874990Y-23604019D01*
X85874990Y-23699257D01*
X85732133Y-23294495D02*
X85732133Y-23056400D01*
X85874990Y-23342114D02*
X85374990Y-23175447D01*
X85874990Y-23008780D01*
X85874990Y-22556400D02*
X85636895Y-22723066D01*
X85874990Y-22842114D02*
X85374990Y-22842114D01*
X85374990Y-22651638D01*
X85398800Y-22604019D01*
X85422609Y-22580209D01*
X85470228Y-22556400D01*
X85541657Y-22556400D01*
X85589276Y-22580209D01*
X85613085Y-22604019D01*
X85636895Y-22651638D01*
X85636895Y-22842114D01*
X85055161Y-143490328D02*
X85126590Y-143514138D01*
X85245638Y-143514138D01*
X85293257Y-143490328D01*
X85317066Y-143466519D01*
X85340876Y-143418900D01*
X85340876Y-143371281D01*
X85317066Y-143323662D01*
X85293257Y-143299852D01*
X85245638Y-143276043D01*
X85150400Y-143252233D01*
X85102780Y-143228424D01*
X85078971Y-143204614D01*
X85055161Y-143156995D01*
X85055161Y-143109376D01*
X85078971Y-143061757D01*
X85102780Y-143037948D01*
X85150400Y-143014138D01*
X85269447Y-143014138D01*
X85340876Y-143037948D01*
X85555161Y-143514138D02*
X85555161Y-143014138D01*
X85840876Y-143514138D02*
X85626590Y-143228424D01*
X85840876Y-143014138D02*
X85555161Y-143299852D01*
X86078971Y-143514138D02*
X86174209Y-143514138D01*
X86221828Y-143490328D01*
X86245638Y-143466519D01*
X86293257Y-143395090D01*
X86317066Y-143299852D01*
X86317066Y-143109376D01*
X86293257Y-143061757D01*
X86269447Y-143037948D01*
X86221828Y-143014138D01*
X86126590Y-143014138D01*
X86078971Y-143037948D01*
X86055161Y-143061757D01*
X86031352Y-143109376D01*
X86031352Y-143228424D01*
X86055161Y-143276043D01*
X86078971Y-143299852D01*
X86126590Y-143323662D01*
X86221828Y-143323662D01*
X86269447Y-143299852D01*
X86293257Y-143276043D01*
X86317066Y-143228424D01*
X86602780Y-143228424D02*
X86555161Y-143204614D01*
X86531352Y-143180805D01*
X86507542Y-143133186D01*
X86507542Y-143109376D01*
X86531352Y-143061757D01*
X86555161Y-143037948D01*
X86602780Y-143014138D01*
X86698019Y-143014138D01*
X86745638Y-143037948D01*
X86769447Y-143061757D01*
X86793257Y-143109376D01*
X86793257Y-143133186D01*
X86769447Y-143180805D01*
X86745638Y-143204614D01*
X86698019Y-143228424D01*
X86602780Y-143228424D01*
X86555161Y-143252233D01*
X86531352Y-143276043D01*
X86507542Y-143323662D01*
X86507542Y-143418900D01*
X86531352Y-143466519D01*
X86555161Y-143490328D01*
X86602780Y-143514138D01*
X86698019Y-143514138D01*
X86745638Y-143490328D01*
X86769447Y-143466519D01*
X86793257Y-143418900D01*
X86793257Y-143323662D01*
X86769447Y-143276043D01*
X86745638Y-143252233D01*
X86698019Y-143228424D01*
X86983733Y-143061757D02*
X87007542Y-143037948D01*
X87055161Y-143014138D01*
X87174209Y-143014138D01*
X87221828Y-143037948D01*
X87245638Y-143061757D01*
X87269447Y-143109376D01*
X87269447Y-143156995D01*
X87245638Y-143228424D01*
X86959923Y-143514138D01*
X87269447Y-143514138D01*
X87459923Y-143061757D02*
X87483733Y-143037948D01*
X87531352Y-143014138D01*
X87650400Y-143014138D01*
X87698019Y-143037948D01*
X87721828Y-143061757D01*
X87745638Y-143109376D01*
X87745638Y-143156995D01*
X87721828Y-143228424D01*
X87436114Y-143514138D01*
X87745638Y-143514138D01*
D11*
X85571828Y-144180100D02*
X85381352Y-144180100D01*
X85381352Y-143780100D01*
X85705161Y-143970576D02*
X85838495Y-143970576D01*
X85895638Y-144180100D02*
X85705161Y-144180100D01*
X85705161Y-143780100D01*
X85895638Y-143780100D01*
X86067066Y-144180100D02*
X86067066Y-143780100D01*
X86162304Y-143780100D01*
X86219447Y-143799148D01*
X86257542Y-143837243D01*
X86276590Y-143875338D01*
X86295638Y-143951528D01*
X86295638Y-144008671D01*
X86276590Y-144084862D01*
X86257542Y-144122957D01*
X86219447Y-144161052D01*
X86162304Y-144180100D01*
X86067066Y-144180100D01*
X86428971Y-143780100D02*
X86676590Y-143780100D01*
X86543257Y-143932481D01*
X86600400Y-143932481D01*
X86638495Y-143951528D01*
X86657542Y-143970576D01*
X86676590Y-144008671D01*
X86676590Y-144103909D01*
X86657542Y-144142005D01*
X86638495Y-144161052D01*
X86600400Y-144180100D01*
X86486114Y-144180100D01*
X86448019Y-144161052D01*
X86428971Y-144142005D01*
X87057542Y-144180100D02*
X86828971Y-144180100D01*
X86943257Y-144180100D02*
X86943257Y-143780100D01*
X86905161Y-143837243D01*
X86867066Y-143875338D01*
X86828971Y-143894386D01*
X87419447Y-143780100D02*
X87228971Y-143780100D01*
X87209923Y-143970576D01*
X87228971Y-143951528D01*
X87267066Y-143932481D01*
X87362304Y-143932481D01*
X87400400Y-143951528D01*
X87419447Y-143970576D01*
X87438495Y-144008671D01*
X87438495Y-144103909D01*
X87419447Y-144142005D01*
X87400400Y-144161052D01*
X87362304Y-144180100D01*
X87267066Y-144180100D01*
X87228971Y-144161052D01*
X87209923Y-144142005D01*
D10*
X85055161Y-135980764D02*
X85126590Y-136004574D01*
X85245638Y-136004574D01*
X85293257Y-135980764D01*
X85317066Y-135956955D01*
X85340876Y-135909336D01*
X85340876Y-135861717D01*
X85317066Y-135814098D01*
X85293257Y-135790288D01*
X85245638Y-135766479D01*
X85150400Y-135742669D01*
X85102780Y-135718860D01*
X85078971Y-135695050D01*
X85055161Y-135647431D01*
X85055161Y-135599812D01*
X85078971Y-135552193D01*
X85102780Y-135528384D01*
X85150400Y-135504574D01*
X85269447Y-135504574D01*
X85340876Y-135528384D01*
X85555161Y-136004574D02*
X85555161Y-135504574D01*
X85840876Y-136004574D02*
X85626590Y-135718860D01*
X85840876Y-135504574D02*
X85555161Y-135790288D01*
X86078971Y-136004574D02*
X86174209Y-136004574D01*
X86221828Y-135980764D01*
X86245638Y-135956955D01*
X86293257Y-135885526D01*
X86317066Y-135790288D01*
X86317066Y-135599812D01*
X86293257Y-135552193D01*
X86269447Y-135528384D01*
X86221828Y-135504574D01*
X86126590Y-135504574D01*
X86078971Y-135528384D01*
X86055161Y-135552193D01*
X86031352Y-135599812D01*
X86031352Y-135718860D01*
X86055161Y-135766479D01*
X86078971Y-135790288D01*
X86126590Y-135814098D01*
X86221828Y-135814098D01*
X86269447Y-135790288D01*
X86293257Y-135766479D01*
X86317066Y-135718860D01*
X86602780Y-135718860D02*
X86555161Y-135695050D01*
X86531352Y-135671241D01*
X86507542Y-135623622D01*
X86507542Y-135599812D01*
X86531352Y-135552193D01*
X86555161Y-135528384D01*
X86602780Y-135504574D01*
X86698019Y-135504574D01*
X86745638Y-135528384D01*
X86769447Y-135552193D01*
X86793257Y-135599812D01*
X86793257Y-135623622D01*
X86769447Y-135671241D01*
X86745638Y-135695050D01*
X86698019Y-135718860D01*
X86602780Y-135718860D01*
X86555161Y-135742669D01*
X86531352Y-135766479D01*
X86507542Y-135814098D01*
X86507542Y-135909336D01*
X86531352Y-135956955D01*
X86555161Y-135980764D01*
X86602780Y-136004574D01*
X86698019Y-136004574D01*
X86745638Y-135980764D01*
X86769447Y-135956955D01*
X86793257Y-135909336D01*
X86793257Y-135814098D01*
X86769447Y-135766479D01*
X86745638Y-135742669D01*
X86698019Y-135718860D01*
X86983733Y-135552193D02*
X87007542Y-135528384D01*
X87055161Y-135504574D01*
X87174209Y-135504574D01*
X87221828Y-135528384D01*
X87245638Y-135552193D01*
X87269447Y-135599812D01*
X87269447Y-135647431D01*
X87245638Y-135718860D01*
X86959923Y-136004574D01*
X87269447Y-136004574D01*
X87459923Y-135552193D02*
X87483733Y-135528384D01*
X87531352Y-135504574D01*
X87650400Y-135504574D01*
X87698019Y-135528384D01*
X87721828Y-135552193D01*
X87745638Y-135599812D01*
X87745638Y-135647431D01*
X87721828Y-135718860D01*
X87436114Y-136004574D01*
X87745638Y-136004574D01*
D11*
X85571828Y-136670536D02*
X85381352Y-136670536D01*
X85381352Y-136270536D01*
X85705161Y-136461012D02*
X85838495Y-136461012D01*
X85895638Y-136670536D02*
X85705161Y-136670536D01*
X85705161Y-136270536D01*
X85895638Y-136270536D01*
X86067066Y-136670536D02*
X86067066Y-136270536D01*
X86162304Y-136270536D01*
X86219447Y-136289584D01*
X86257542Y-136327679D01*
X86276590Y-136365774D01*
X86295638Y-136441964D01*
X86295638Y-136499107D01*
X86276590Y-136575298D01*
X86257542Y-136613393D01*
X86219447Y-136651488D01*
X86162304Y-136670536D01*
X86067066Y-136670536D01*
X86428971Y-136270536D02*
X86676590Y-136270536D01*
X86543257Y-136422917D01*
X86600400Y-136422917D01*
X86638495Y-136441964D01*
X86657542Y-136461012D01*
X86676590Y-136499107D01*
X86676590Y-136594345D01*
X86657542Y-136632441D01*
X86638495Y-136651488D01*
X86600400Y-136670536D01*
X86486114Y-136670536D01*
X86448019Y-136651488D01*
X86428971Y-136632441D01*
X87057542Y-136670536D02*
X86828971Y-136670536D01*
X86943257Y-136670536D02*
X86943257Y-136270536D01*
X86905161Y-136327679D01*
X86867066Y-136365774D01*
X86828971Y-136384822D01*
X87190876Y-136270536D02*
X87438495Y-136270536D01*
X87305161Y-136422917D01*
X87362304Y-136422917D01*
X87400400Y-136441964D01*
X87419447Y-136461012D01*
X87438495Y-136499107D01*
X87438495Y-136594345D01*
X87419447Y-136632441D01*
X87400400Y-136651488D01*
X87362304Y-136670536D01*
X87248019Y-136670536D01*
X87209923Y-136651488D01*
X87190876Y-136632441D01*
D10*
X85055161Y-124716418D02*
X85126590Y-124740228D01*
X85245638Y-124740228D01*
X85293257Y-124716418D01*
X85317066Y-124692609D01*
X85340876Y-124644990D01*
X85340876Y-124597371D01*
X85317066Y-124549752D01*
X85293257Y-124525942D01*
X85245638Y-124502133D01*
X85150400Y-124478323D01*
X85102780Y-124454514D01*
X85078971Y-124430704D01*
X85055161Y-124383085D01*
X85055161Y-124335466D01*
X85078971Y-124287847D01*
X85102780Y-124264038D01*
X85150400Y-124240228D01*
X85269447Y-124240228D01*
X85340876Y-124264038D01*
X85555161Y-124740228D02*
X85555161Y-124240228D01*
X85840876Y-124740228D02*
X85626590Y-124454514D01*
X85840876Y-124240228D02*
X85555161Y-124525942D01*
X86078971Y-124740228D02*
X86174209Y-124740228D01*
X86221828Y-124716418D01*
X86245638Y-124692609D01*
X86293257Y-124621180D01*
X86317066Y-124525942D01*
X86317066Y-124335466D01*
X86293257Y-124287847D01*
X86269447Y-124264038D01*
X86221828Y-124240228D01*
X86126590Y-124240228D01*
X86078971Y-124264038D01*
X86055161Y-124287847D01*
X86031352Y-124335466D01*
X86031352Y-124454514D01*
X86055161Y-124502133D01*
X86078971Y-124525942D01*
X86126590Y-124549752D01*
X86221828Y-124549752D01*
X86269447Y-124525942D01*
X86293257Y-124502133D01*
X86317066Y-124454514D01*
X86602780Y-124454514D02*
X86555161Y-124430704D01*
X86531352Y-124406895D01*
X86507542Y-124359276D01*
X86507542Y-124335466D01*
X86531352Y-124287847D01*
X86555161Y-124264038D01*
X86602780Y-124240228D01*
X86698019Y-124240228D01*
X86745638Y-124264038D01*
X86769447Y-124287847D01*
X86793257Y-124335466D01*
X86793257Y-124359276D01*
X86769447Y-124406895D01*
X86745638Y-124430704D01*
X86698019Y-124454514D01*
X86602780Y-124454514D01*
X86555161Y-124478323D01*
X86531352Y-124502133D01*
X86507542Y-124549752D01*
X86507542Y-124644990D01*
X86531352Y-124692609D01*
X86555161Y-124716418D01*
X86602780Y-124740228D01*
X86698019Y-124740228D01*
X86745638Y-124716418D01*
X86769447Y-124692609D01*
X86793257Y-124644990D01*
X86793257Y-124549752D01*
X86769447Y-124502133D01*
X86745638Y-124478323D01*
X86698019Y-124454514D01*
X86983733Y-124287847D02*
X87007542Y-124264038D01*
X87055161Y-124240228D01*
X87174209Y-124240228D01*
X87221828Y-124264038D01*
X87245638Y-124287847D01*
X87269447Y-124335466D01*
X87269447Y-124383085D01*
X87245638Y-124454514D01*
X86959923Y-124740228D01*
X87269447Y-124740228D01*
X87459923Y-124287847D02*
X87483733Y-124264038D01*
X87531352Y-124240228D01*
X87650400Y-124240228D01*
X87698019Y-124264038D01*
X87721828Y-124287847D01*
X87745638Y-124335466D01*
X87745638Y-124383085D01*
X87721828Y-124454514D01*
X87436114Y-124740228D01*
X87745638Y-124740228D01*
D11*
X85571828Y-125406190D02*
X85381352Y-125406190D01*
X85381352Y-125006190D01*
X85705161Y-125196666D02*
X85838495Y-125196666D01*
X85895638Y-125406190D02*
X85705161Y-125406190D01*
X85705161Y-125006190D01*
X85895638Y-125006190D01*
X86067066Y-125406190D02*
X86067066Y-125006190D01*
X86162304Y-125006190D01*
X86219447Y-125025238D01*
X86257542Y-125063333D01*
X86276590Y-125101428D01*
X86295638Y-125177618D01*
X86295638Y-125234761D01*
X86276590Y-125310952D01*
X86257542Y-125349047D01*
X86219447Y-125387142D01*
X86162304Y-125406190D01*
X86067066Y-125406190D01*
X86428971Y-125006190D02*
X86676590Y-125006190D01*
X86543257Y-125158571D01*
X86600400Y-125158571D01*
X86638495Y-125177618D01*
X86657542Y-125196666D01*
X86676590Y-125234761D01*
X86676590Y-125329999D01*
X86657542Y-125368095D01*
X86638495Y-125387142D01*
X86600400Y-125406190D01*
X86486114Y-125406190D01*
X86448019Y-125387142D01*
X86428971Y-125368095D01*
X87057542Y-125406190D02*
X86828971Y-125406190D01*
X86943257Y-125406190D02*
X86943257Y-125006190D01*
X86905161Y-125063333D01*
X86867066Y-125101428D01*
X86828971Y-125120476D01*
X87305161Y-125006190D02*
X87343257Y-125006190D01*
X87381352Y-125025238D01*
X87400400Y-125044285D01*
X87419447Y-125082380D01*
X87438495Y-125158571D01*
X87438495Y-125253809D01*
X87419447Y-125329999D01*
X87400400Y-125368095D01*
X87381352Y-125387142D01*
X87343257Y-125406190D01*
X87305161Y-125406190D01*
X87267066Y-125387142D01*
X87248019Y-125368095D01*
X87228971Y-125329999D01*
X87209923Y-125253809D01*
X87209923Y-125158571D01*
X87228971Y-125082380D01*
X87248019Y-125044285D01*
X87267066Y-125025238D01*
X87305161Y-125006190D01*
D10*
X85055161Y-90923380D02*
X85126590Y-90947190D01*
X85245638Y-90947190D01*
X85293257Y-90923380D01*
X85317066Y-90899571D01*
X85340876Y-90851952D01*
X85340876Y-90804333D01*
X85317066Y-90756714D01*
X85293257Y-90732904D01*
X85245638Y-90709095D01*
X85150400Y-90685285D01*
X85102780Y-90661476D01*
X85078971Y-90637666D01*
X85055161Y-90590047D01*
X85055161Y-90542428D01*
X85078971Y-90494809D01*
X85102780Y-90471000D01*
X85150400Y-90447190D01*
X85269447Y-90447190D01*
X85340876Y-90471000D01*
X85555161Y-90947190D02*
X85555161Y-90447190D01*
X85840876Y-90947190D02*
X85626590Y-90661476D01*
X85840876Y-90447190D02*
X85555161Y-90732904D01*
X86078971Y-90947190D02*
X86174209Y-90947190D01*
X86221828Y-90923380D01*
X86245638Y-90899571D01*
X86293257Y-90828142D01*
X86317066Y-90732904D01*
X86317066Y-90542428D01*
X86293257Y-90494809D01*
X86269447Y-90471000D01*
X86221828Y-90447190D01*
X86126590Y-90447190D01*
X86078971Y-90471000D01*
X86055161Y-90494809D01*
X86031352Y-90542428D01*
X86031352Y-90661476D01*
X86055161Y-90709095D01*
X86078971Y-90732904D01*
X86126590Y-90756714D01*
X86221828Y-90756714D01*
X86269447Y-90732904D01*
X86293257Y-90709095D01*
X86317066Y-90661476D01*
X86602780Y-90661476D02*
X86555161Y-90637666D01*
X86531352Y-90613857D01*
X86507542Y-90566238D01*
X86507542Y-90542428D01*
X86531352Y-90494809D01*
X86555161Y-90471000D01*
X86602780Y-90447190D01*
X86698019Y-90447190D01*
X86745638Y-90471000D01*
X86769447Y-90494809D01*
X86793257Y-90542428D01*
X86793257Y-90566238D01*
X86769447Y-90613857D01*
X86745638Y-90637666D01*
X86698019Y-90661476D01*
X86602780Y-90661476D01*
X86555161Y-90685285D01*
X86531352Y-90709095D01*
X86507542Y-90756714D01*
X86507542Y-90851952D01*
X86531352Y-90899571D01*
X86555161Y-90923380D01*
X86602780Y-90947190D01*
X86698019Y-90947190D01*
X86745638Y-90923380D01*
X86769447Y-90899571D01*
X86793257Y-90851952D01*
X86793257Y-90756714D01*
X86769447Y-90709095D01*
X86745638Y-90685285D01*
X86698019Y-90661476D01*
X86983733Y-90494809D02*
X87007542Y-90471000D01*
X87055161Y-90447190D01*
X87174209Y-90447190D01*
X87221828Y-90471000D01*
X87245638Y-90494809D01*
X87269447Y-90542428D01*
X87269447Y-90590047D01*
X87245638Y-90661476D01*
X86959923Y-90947190D01*
X87269447Y-90947190D01*
X87459923Y-90494809D02*
X87483733Y-90471000D01*
X87531352Y-90447190D01*
X87650400Y-90447190D01*
X87698019Y-90471000D01*
X87721828Y-90494809D01*
X87745638Y-90542428D01*
X87745638Y-90590047D01*
X87721828Y-90661476D01*
X87436114Y-90947190D01*
X87745638Y-90947190D01*
D11*
X85571828Y-91613152D02*
X85381352Y-91613152D01*
X85381352Y-91213152D01*
X85705161Y-91403628D02*
X85838495Y-91403628D01*
X85895638Y-91613152D02*
X85705161Y-91613152D01*
X85705161Y-91213152D01*
X85895638Y-91213152D01*
X86067066Y-91613152D02*
X86067066Y-91213152D01*
X86162304Y-91213152D01*
X86219447Y-91232200D01*
X86257542Y-91270295D01*
X86276590Y-91308390D01*
X86295638Y-91384580D01*
X86295638Y-91441723D01*
X86276590Y-91517914D01*
X86257542Y-91556009D01*
X86219447Y-91594104D01*
X86162304Y-91613152D01*
X86067066Y-91613152D01*
X86428971Y-91213152D02*
X86676590Y-91213152D01*
X86543257Y-91365533D01*
X86600400Y-91365533D01*
X86638495Y-91384580D01*
X86657542Y-91403628D01*
X86676590Y-91441723D01*
X86676590Y-91536961D01*
X86657542Y-91575057D01*
X86638495Y-91594104D01*
X86600400Y-91613152D01*
X86486114Y-91613152D01*
X86448019Y-91594104D01*
X86428971Y-91575057D01*
X86924209Y-91213152D02*
X86962304Y-91213152D01*
X87000400Y-91232200D01*
X87019447Y-91251247D01*
X87038495Y-91289342D01*
X87057542Y-91365533D01*
X87057542Y-91460771D01*
X87038495Y-91536961D01*
X87019447Y-91575057D01*
X87000400Y-91594104D01*
X86962304Y-91613152D01*
X86924209Y-91613152D01*
X86886114Y-91594104D01*
X86867066Y-91575057D01*
X86848019Y-91536961D01*
X86828971Y-91460771D01*
X86828971Y-91365533D01*
X86848019Y-91289342D01*
X86867066Y-91251247D01*
X86886114Y-91232200D01*
X86924209Y-91213152D01*
X87438495Y-91613152D02*
X87209923Y-91613152D01*
X87324209Y-91613152D02*
X87324209Y-91213152D01*
X87286114Y-91270295D01*
X87248019Y-91308390D01*
X87209923Y-91327438D01*
D10*
X86586190Y-86054285D02*
X86086190Y-86054285D01*
X86538571Y-85530476D02*
X86562380Y-85554285D01*
X86586190Y-85625714D01*
X86586190Y-85673333D01*
X86562380Y-85744761D01*
X86514761Y-85792380D01*
X86467142Y-85816190D01*
X86371904Y-85840000D01*
X86300476Y-85840000D01*
X86205238Y-85816190D01*
X86157619Y-85792380D01*
X86110000Y-85744761D01*
X86086190Y-85673333D01*
X86086190Y-85625714D01*
X86110000Y-85554285D01*
X86133809Y-85530476D01*
X86086190Y-85363809D02*
X86086190Y-85054285D01*
X86276666Y-85220952D01*
X86276666Y-85149523D01*
X86300476Y-85101904D01*
X86324285Y-85078095D01*
X86371904Y-85054285D01*
X86490952Y-85054285D01*
X86538571Y-85078095D01*
X86562380Y-85101904D01*
X86586190Y-85149523D01*
X86586190Y-85292380D01*
X86562380Y-85340000D01*
X86538571Y-85363809D01*
X86086190Y-84744761D02*
X86086190Y-84697142D01*
X86110000Y-84649523D01*
X86133809Y-84625714D01*
X86181428Y-84601904D01*
X86276666Y-84578095D01*
X86395714Y-84578095D01*
X86490952Y-84601904D01*
X86538571Y-84625714D01*
X86562380Y-84649523D01*
X86586190Y-84697142D01*
X86586190Y-84744761D01*
X86562380Y-84792380D01*
X86538571Y-84816190D01*
X86490952Y-84840000D01*
X86395714Y-84863809D01*
X86276666Y-84863809D01*
X86181428Y-84840000D01*
X86133809Y-84816190D01*
X86110000Y-84792380D01*
X86086190Y-84744761D01*
X86586190Y-84101904D02*
X86586190Y-84387619D01*
X86586190Y-84244761D02*
X86086190Y-84244761D01*
X86157619Y-84292380D01*
X86205238Y-84340000D01*
X86229047Y-84387619D01*
D12*
X87184957Y-70179408D02*
X87757377Y-69606988D01*
X87791049Y-69505973D01*
X87791049Y-69438629D01*
X87757377Y-69337614D01*
X87622690Y-69202927D01*
X87521675Y-69169255D01*
X87454331Y-69169255D01*
X87353316Y-69202927D01*
X86780896Y-69775347D01*
X86545194Y-69404957D02*
X86477851Y-69404957D01*
X86376835Y-69371286D01*
X86208477Y-69202927D01*
X86174805Y-69101912D01*
X86174805Y-69034568D01*
X86208477Y-68933553D01*
X86275820Y-68866209D01*
X86410507Y-68798866D01*
X87218629Y-68798866D01*
X86780896Y-68361133D01*
X85636057Y-68630507D02*
X85568713Y-68563164D01*
X85535042Y-68462148D01*
X85535042Y-68394805D01*
X85568713Y-68293790D01*
X85669729Y-68125431D01*
X85838087Y-67957072D01*
X86006446Y-67856057D01*
X86107461Y-67822385D01*
X86174805Y-67822385D01*
X86275820Y-67856057D01*
X86343164Y-67923400D01*
X86376835Y-68024416D01*
X86376835Y-68091759D01*
X86343164Y-68192774D01*
X86242148Y-68361133D01*
X86073790Y-68529492D01*
X85905431Y-68630507D01*
X85804416Y-68664179D01*
X85737072Y-68664179D01*
X85636057Y-68630507D01*
X85434026Y-67014263D02*
X85838087Y-67418324D01*
X85636057Y-67216294D02*
X84928950Y-67923400D01*
X85097309Y-67889729D01*
X85231996Y-67889729D01*
X85333011Y-67923400D01*
X86688676Y-71214437D02*
X86587661Y-71786857D01*
X87092737Y-71618498D02*
X86385630Y-72325605D01*
X86116256Y-72056231D01*
X86082585Y-71955215D01*
X86082585Y-71887872D01*
X86116256Y-71786857D01*
X86217272Y-71685841D01*
X86318287Y-71652170D01*
X86385630Y-71652170D01*
X86486646Y-71685841D01*
X86756020Y-71955215D01*
X86385630Y-70911391D02*
X85678524Y-71618498D01*
X85409150Y-71349124D01*
X85375478Y-71248109D01*
X85375478Y-71180765D01*
X85409150Y-71079750D01*
X85510165Y-70978735D01*
X85611180Y-70945063D01*
X85678524Y-70945063D01*
X85779539Y-70978735D01*
X86048913Y-71248109D01*
X85072432Y-70877719D02*
X85005089Y-70877719D01*
X84904073Y-70844048D01*
X84735715Y-70675689D01*
X84702043Y-70574674D01*
X84702043Y-70507330D01*
X84735715Y-70406315D01*
X84803058Y-70338971D01*
X84937745Y-70271628D01*
X85745867Y-70271628D01*
X85308134Y-69833895D01*
X84163295Y-70103269D02*
X84095951Y-70035926D01*
X84062280Y-69934910D01*
X84062280Y-69867567D01*
X84095951Y-69766552D01*
X84196967Y-69598193D01*
X84365325Y-69429834D01*
X84533684Y-69328819D01*
X84634699Y-69295147D01*
X84702043Y-69295147D01*
X84803058Y-69328819D01*
X84870402Y-69396162D01*
X84904073Y-69497178D01*
X84904073Y-69564521D01*
X84870402Y-69665536D01*
X84769386Y-69833895D01*
X84601028Y-70002254D01*
X84432669Y-70103269D01*
X84331654Y-70136941D01*
X84264310Y-70136941D01*
X84163295Y-70103269D01*
X83557203Y-69025773D02*
X84028608Y-68554369D01*
X83456188Y-69463506D02*
X84129623Y-69126788D01*
X83691890Y-68689056D01*
X82816425Y-68756399D02*
X82749081Y-68689056D01*
X82715410Y-68588040D01*
X82715410Y-68520697D01*
X82749081Y-68419682D01*
X82850097Y-68251323D01*
X83018455Y-68082964D01*
X83186814Y-67981949D01*
X83287829Y-67948277D01*
X83355173Y-67948277D01*
X83456188Y-67981949D01*
X83523532Y-68049292D01*
X83557203Y-68150308D01*
X83557203Y-68217651D01*
X83523532Y-68318666D01*
X83422516Y-68487025D01*
X83254158Y-68655384D01*
X83085799Y-68756399D01*
X82984784Y-68790071D01*
X82917440Y-68790071D01*
X82816425Y-68756399D01*
D10*
X85055161Y-117206854D02*
X85126590Y-117230664D01*
X85245638Y-117230664D01*
X85293257Y-117206854D01*
X85317066Y-117183045D01*
X85340876Y-117135426D01*
X85340876Y-117087807D01*
X85317066Y-117040188D01*
X85293257Y-117016378D01*
X85245638Y-116992569D01*
X85150400Y-116968759D01*
X85102780Y-116944950D01*
X85078971Y-116921140D01*
X85055161Y-116873521D01*
X85055161Y-116825902D01*
X85078971Y-116778283D01*
X85102780Y-116754474D01*
X85150400Y-116730664D01*
X85269447Y-116730664D01*
X85340876Y-116754474D01*
X85555161Y-117230664D02*
X85555161Y-116730664D01*
X85840876Y-117230664D02*
X85626590Y-116944950D01*
X85840876Y-116730664D02*
X85555161Y-117016378D01*
X86078971Y-117230664D02*
X86174209Y-117230664D01*
X86221828Y-117206854D01*
X86245638Y-117183045D01*
X86293257Y-117111616D01*
X86317066Y-117016378D01*
X86317066Y-116825902D01*
X86293257Y-116778283D01*
X86269447Y-116754474D01*
X86221828Y-116730664D01*
X86126590Y-116730664D01*
X86078971Y-116754474D01*
X86055161Y-116778283D01*
X86031352Y-116825902D01*
X86031352Y-116944950D01*
X86055161Y-116992569D01*
X86078971Y-117016378D01*
X86126590Y-117040188D01*
X86221828Y-117040188D01*
X86269447Y-117016378D01*
X86293257Y-116992569D01*
X86317066Y-116944950D01*
X86602780Y-116944950D02*
X86555161Y-116921140D01*
X86531352Y-116897331D01*
X86507542Y-116849712D01*
X86507542Y-116825902D01*
X86531352Y-116778283D01*
X86555161Y-116754474D01*
X86602780Y-116730664D01*
X86698019Y-116730664D01*
X86745638Y-116754474D01*
X86769447Y-116778283D01*
X86793257Y-116825902D01*
X86793257Y-116849712D01*
X86769447Y-116897331D01*
X86745638Y-116921140D01*
X86698019Y-116944950D01*
X86602780Y-116944950D01*
X86555161Y-116968759D01*
X86531352Y-116992569D01*
X86507542Y-117040188D01*
X86507542Y-117135426D01*
X86531352Y-117183045D01*
X86555161Y-117206854D01*
X86602780Y-117230664D01*
X86698019Y-117230664D01*
X86745638Y-117206854D01*
X86769447Y-117183045D01*
X86793257Y-117135426D01*
X86793257Y-117040188D01*
X86769447Y-116992569D01*
X86745638Y-116968759D01*
X86698019Y-116944950D01*
X86983733Y-116778283D02*
X87007542Y-116754474D01*
X87055161Y-116730664D01*
X87174209Y-116730664D01*
X87221828Y-116754474D01*
X87245638Y-116778283D01*
X87269447Y-116825902D01*
X87269447Y-116873521D01*
X87245638Y-116944950D01*
X86959923Y-117230664D01*
X87269447Y-117230664D01*
X87459923Y-116778283D02*
X87483733Y-116754474D01*
X87531352Y-116730664D01*
X87650400Y-116730664D01*
X87698019Y-116754474D01*
X87721828Y-116778283D01*
X87745638Y-116825902D01*
X87745638Y-116873521D01*
X87721828Y-116944950D01*
X87436114Y-117230664D01*
X87745638Y-117230664D01*
D11*
X85571828Y-117896626D02*
X85381352Y-117896626D01*
X85381352Y-117496626D01*
X85705161Y-117687102D02*
X85838495Y-117687102D01*
X85895638Y-117896626D02*
X85705161Y-117896626D01*
X85705161Y-117496626D01*
X85895638Y-117496626D01*
X86067066Y-117896626D02*
X86067066Y-117496626D01*
X86162304Y-117496626D01*
X86219447Y-117515674D01*
X86257542Y-117553769D01*
X86276590Y-117591864D01*
X86295638Y-117668054D01*
X86295638Y-117725197D01*
X86276590Y-117801388D01*
X86257542Y-117839483D01*
X86219447Y-117877578D01*
X86162304Y-117896626D01*
X86067066Y-117896626D01*
X86428971Y-117496626D02*
X86676590Y-117496626D01*
X86543257Y-117649007D01*
X86600400Y-117649007D01*
X86638495Y-117668054D01*
X86657542Y-117687102D01*
X86676590Y-117725197D01*
X86676590Y-117820435D01*
X86657542Y-117858531D01*
X86638495Y-117877578D01*
X86600400Y-117896626D01*
X86486114Y-117896626D01*
X86448019Y-117877578D01*
X86428971Y-117858531D01*
X86924209Y-117496626D02*
X86962304Y-117496626D01*
X87000400Y-117515674D01*
X87019447Y-117534721D01*
X87038495Y-117572816D01*
X87057542Y-117649007D01*
X87057542Y-117744245D01*
X87038495Y-117820435D01*
X87019447Y-117858531D01*
X87000400Y-117877578D01*
X86962304Y-117896626D01*
X86924209Y-117896626D01*
X86886114Y-117877578D01*
X86867066Y-117858531D01*
X86848019Y-117820435D01*
X86828971Y-117744245D01*
X86828971Y-117649007D01*
X86848019Y-117572816D01*
X86867066Y-117534721D01*
X86886114Y-117515674D01*
X86924209Y-117496626D01*
X87286114Y-117668054D02*
X87248019Y-117649007D01*
X87228971Y-117629959D01*
X87209923Y-117591864D01*
X87209923Y-117572816D01*
X87228971Y-117534721D01*
X87248019Y-117515674D01*
X87286114Y-117496626D01*
X87362304Y-117496626D01*
X87400400Y-117515674D01*
X87419447Y-117534721D01*
X87438495Y-117572816D01*
X87438495Y-117591864D01*
X87419447Y-117629959D01*
X87400400Y-117649007D01*
X87362304Y-117668054D01*
X87286114Y-117668054D01*
X87248019Y-117687102D01*
X87228971Y-117706150D01*
X87209923Y-117744245D01*
X87209923Y-117820435D01*
X87228971Y-117858531D01*
X87248019Y-117877578D01*
X87286114Y-117896626D01*
X87362304Y-117896626D01*
X87400400Y-117877578D01*
X87419447Y-117858531D01*
X87438495Y-117820435D01*
X87438495Y-117744245D01*
X87419447Y-117706150D01*
X87400400Y-117687102D01*
X87362304Y-117668054D01*
X85634895Y-73614823D02*
X85634895Y-73757680D01*
X85634895Y-73686252D02*
X85384895Y-73686252D01*
X85420609Y-73710061D01*
X85444419Y-73733871D01*
X85456323Y-73757680D01*
X85634895Y-73507680D02*
X85384895Y-73507680D01*
X85539657Y-73483871D02*
X85634895Y-73412442D01*
X85468228Y-73412442D02*
X85563466Y-73507680D01*
X85384895Y-73067204D02*
X85384895Y-73043395D01*
X85396800Y-73019585D01*
X85408704Y-73007680D01*
X85432514Y-72995776D01*
X85480133Y-72983871D01*
X85539657Y-72983871D01*
X85587276Y-72995776D01*
X85611085Y-73007680D01*
X85622990Y-73019585D01*
X85634895Y-73043395D01*
X85634895Y-73067204D01*
X85622990Y-73091014D01*
X85611085Y-73102919D01*
X85587276Y-73114823D01*
X85539657Y-73126728D01*
X85480133Y-73126728D01*
X85432514Y-73114823D01*
X85408704Y-73102919D01*
X85396800Y-73091014D01*
X85384895Y-73067204D01*
X85408704Y-72888633D02*
X85396800Y-72876728D01*
X85384895Y-72852919D01*
X85384895Y-72793395D01*
X85396800Y-72769585D01*
X85408704Y-72757680D01*
X85432514Y-72745776D01*
X85456323Y-72745776D01*
X85492038Y-72757680D01*
X85634895Y-72900538D01*
X85634895Y-72745776D01*
X85384895Y-72591014D02*
X85384895Y-72567204D01*
X85396800Y-72543395D01*
X85408704Y-72531490D01*
X85432514Y-72519585D01*
X85480133Y-72507680D01*
X85539657Y-72507680D01*
X85587276Y-72519585D01*
X85611085Y-72531490D01*
X85622990Y-72543395D01*
X85634895Y-72567204D01*
X85634895Y-72591014D01*
X85622990Y-72614823D01*
X85611085Y-72626728D01*
X85587276Y-72638633D01*
X85539657Y-72650538D01*
X85480133Y-72650538D01*
X85432514Y-72638633D01*
X85408704Y-72626728D01*
X85396800Y-72614823D01*
X85384895Y-72591014D01*
X85634895Y-72269585D02*
X85634895Y-72412442D01*
X85634895Y-72341014D02*
X85384895Y-72341014D01*
X85420609Y-72364823D01*
X85444419Y-72388633D01*
X85456323Y-72412442D01*
X86069476Y-74518809D02*
X85974238Y-74585476D01*
X86069476Y-74633095D02*
X85869476Y-74633095D01*
X85869476Y-74556904D01*
X85879000Y-74537857D01*
X85888523Y-74528333D01*
X85907571Y-74518809D01*
X85936142Y-74518809D01*
X85955190Y-74528333D01*
X85964714Y-74537857D01*
X85974238Y-74556904D01*
X85974238Y-74633095D01*
X85888523Y-74442619D02*
X85879000Y-74433095D01*
X85869476Y-74414047D01*
X85869476Y-74366428D01*
X85879000Y-74347380D01*
X85888523Y-74337857D01*
X85907571Y-74328333D01*
X85926619Y-74328333D01*
X85955190Y-74337857D01*
X86069476Y-74452142D01*
X86069476Y-74328333D01*
X85869476Y-74204523D02*
X85869476Y-74185476D01*
X85879000Y-74166428D01*
X85888523Y-74156904D01*
X85907571Y-74147380D01*
X85945666Y-74137857D01*
X85993285Y-74137857D01*
X86031380Y-74147380D01*
X86050428Y-74156904D01*
X86059952Y-74166428D01*
X86069476Y-74185476D01*
X86069476Y-74204523D01*
X86059952Y-74223571D01*
X86050428Y-74233095D01*
X86031380Y-74242619D01*
X85993285Y-74252142D01*
X85945666Y-74252142D01*
X85907571Y-74242619D01*
X85888523Y-74233095D01*
X85879000Y-74223571D01*
X85869476Y-74204523D01*
X86069476Y-74042619D02*
X86069476Y-74004523D01*
X86059952Y-73985476D01*
X86050428Y-73975952D01*
X86021857Y-73956904D01*
X85983761Y-73947380D01*
X85907571Y-73947380D01*
X85888523Y-73956904D01*
X85879000Y-73966428D01*
X85869476Y-73985476D01*
X85869476Y-74023571D01*
X85879000Y-74042619D01*
X85888523Y-74052142D01*
X85907571Y-74061666D01*
X85955190Y-74061666D01*
X85974238Y-74052142D01*
X85983761Y-74042619D01*
X85993285Y-74023571D01*
X85993285Y-73985476D01*
X85983761Y-73966428D01*
X85974238Y-73956904D01*
X85955190Y-73947380D01*
D10*
X85055161Y-102187726D02*
X85126590Y-102211536D01*
X85245638Y-102211536D01*
X85293257Y-102187726D01*
X85317066Y-102163917D01*
X85340876Y-102116298D01*
X85340876Y-102068679D01*
X85317066Y-102021060D01*
X85293257Y-101997250D01*
X85245638Y-101973441D01*
X85150400Y-101949631D01*
X85102780Y-101925822D01*
X85078971Y-101902012D01*
X85055161Y-101854393D01*
X85055161Y-101806774D01*
X85078971Y-101759155D01*
X85102780Y-101735346D01*
X85150400Y-101711536D01*
X85269447Y-101711536D01*
X85340876Y-101735346D01*
X85555161Y-102211536D02*
X85555161Y-101711536D01*
X85840876Y-102211536D02*
X85626590Y-101925822D01*
X85840876Y-101711536D02*
X85555161Y-101997250D01*
X86078971Y-102211536D02*
X86174209Y-102211536D01*
X86221828Y-102187726D01*
X86245638Y-102163917D01*
X86293257Y-102092488D01*
X86317066Y-101997250D01*
X86317066Y-101806774D01*
X86293257Y-101759155D01*
X86269447Y-101735346D01*
X86221828Y-101711536D01*
X86126590Y-101711536D01*
X86078971Y-101735346D01*
X86055161Y-101759155D01*
X86031352Y-101806774D01*
X86031352Y-101925822D01*
X86055161Y-101973441D01*
X86078971Y-101997250D01*
X86126590Y-102021060D01*
X86221828Y-102021060D01*
X86269447Y-101997250D01*
X86293257Y-101973441D01*
X86317066Y-101925822D01*
X86602780Y-101925822D02*
X86555161Y-101902012D01*
X86531352Y-101878203D01*
X86507542Y-101830584D01*
X86507542Y-101806774D01*
X86531352Y-101759155D01*
X86555161Y-101735346D01*
X86602780Y-101711536D01*
X86698019Y-101711536D01*
X86745638Y-101735346D01*
X86769447Y-101759155D01*
X86793257Y-101806774D01*
X86793257Y-101830584D01*
X86769447Y-101878203D01*
X86745638Y-101902012D01*
X86698019Y-101925822D01*
X86602780Y-101925822D01*
X86555161Y-101949631D01*
X86531352Y-101973441D01*
X86507542Y-102021060D01*
X86507542Y-102116298D01*
X86531352Y-102163917D01*
X86555161Y-102187726D01*
X86602780Y-102211536D01*
X86698019Y-102211536D01*
X86745638Y-102187726D01*
X86769447Y-102163917D01*
X86793257Y-102116298D01*
X86793257Y-102021060D01*
X86769447Y-101973441D01*
X86745638Y-101949631D01*
X86698019Y-101925822D01*
X86983733Y-101759155D02*
X87007542Y-101735346D01*
X87055161Y-101711536D01*
X87174209Y-101711536D01*
X87221828Y-101735346D01*
X87245638Y-101759155D01*
X87269447Y-101806774D01*
X87269447Y-101854393D01*
X87245638Y-101925822D01*
X86959923Y-102211536D01*
X87269447Y-102211536D01*
X87459923Y-101759155D02*
X87483733Y-101735346D01*
X87531352Y-101711536D01*
X87650400Y-101711536D01*
X87698019Y-101735346D01*
X87721828Y-101759155D01*
X87745638Y-101806774D01*
X87745638Y-101854393D01*
X87721828Y-101925822D01*
X87436114Y-102211536D01*
X87745638Y-102211536D01*
D11*
X85571828Y-102877498D02*
X85381352Y-102877498D01*
X85381352Y-102477498D01*
X85705161Y-102667974D02*
X85838495Y-102667974D01*
X85895638Y-102877498D02*
X85705161Y-102877498D01*
X85705161Y-102477498D01*
X85895638Y-102477498D01*
X86067066Y-102877498D02*
X86067066Y-102477498D01*
X86162304Y-102477498D01*
X86219447Y-102496546D01*
X86257542Y-102534641D01*
X86276590Y-102572736D01*
X86295638Y-102648926D01*
X86295638Y-102706069D01*
X86276590Y-102782260D01*
X86257542Y-102820355D01*
X86219447Y-102858450D01*
X86162304Y-102877498D01*
X86067066Y-102877498D01*
X86428971Y-102477498D02*
X86676590Y-102477498D01*
X86543257Y-102629879D01*
X86600400Y-102629879D01*
X86638495Y-102648926D01*
X86657542Y-102667974D01*
X86676590Y-102706069D01*
X86676590Y-102801307D01*
X86657542Y-102839403D01*
X86638495Y-102858450D01*
X86600400Y-102877498D01*
X86486114Y-102877498D01*
X86448019Y-102858450D01*
X86428971Y-102839403D01*
X86924209Y-102477498D02*
X86962304Y-102477498D01*
X87000400Y-102496546D01*
X87019447Y-102515593D01*
X87038495Y-102553688D01*
X87057542Y-102629879D01*
X87057542Y-102725117D01*
X87038495Y-102801307D01*
X87019447Y-102839403D01*
X87000400Y-102858450D01*
X86962304Y-102877498D01*
X86924209Y-102877498D01*
X86886114Y-102858450D01*
X86867066Y-102839403D01*
X86848019Y-102801307D01*
X86828971Y-102725117D01*
X86828971Y-102629879D01*
X86848019Y-102553688D01*
X86867066Y-102515593D01*
X86886114Y-102496546D01*
X86924209Y-102477498D01*
X87400400Y-102610831D02*
X87400400Y-102877498D01*
X87305161Y-102458450D02*
X87209923Y-102744165D01*
X87457542Y-102744165D01*
X88458295Y-26027128D02*
X88458295Y-26146176D01*
X88577342Y-26158080D01*
X88565438Y-26146176D01*
X88553533Y-26122366D01*
X88553533Y-26062842D01*
X88565438Y-26039033D01*
X88577342Y-26027128D01*
X88601152Y-26015223D01*
X88660676Y-26015223D01*
X88684485Y-26027128D01*
X88696390Y-26039033D01*
X88708295Y-26062842D01*
X88708295Y-26122366D01*
X88696390Y-26146176D01*
X88684485Y-26158080D01*
X88708295Y-25908080D02*
X88458295Y-25908080D01*
X88613057Y-25884271D02*
X88708295Y-25812842D01*
X88541628Y-25812842D02*
X88636866Y-25908080D01*
X88708295Y-25574747D02*
X88708295Y-25717604D01*
X88708295Y-25646176D02*
X88458295Y-25646176D01*
X88494009Y-25669985D01*
X88517819Y-25693795D01*
X88529723Y-25717604D01*
X88458295Y-25229509D02*
X88458295Y-25205700D01*
X88470200Y-25181890D01*
X88482104Y-25169985D01*
X88505914Y-25158080D01*
X88553533Y-25146176D01*
X88613057Y-25146176D01*
X88660676Y-25158080D01*
X88684485Y-25169985D01*
X88696390Y-25181890D01*
X88708295Y-25205700D01*
X88708295Y-25229509D01*
X88696390Y-25253319D01*
X88684485Y-25265223D01*
X88660676Y-25277128D01*
X88613057Y-25289033D01*
X88553533Y-25289033D01*
X88505914Y-25277128D01*
X88482104Y-25265223D01*
X88470200Y-25253319D01*
X88458295Y-25229509D01*
X88482104Y-25050938D02*
X88470200Y-25039033D01*
X88458295Y-25015223D01*
X88458295Y-24955700D01*
X88470200Y-24931890D01*
X88482104Y-24919985D01*
X88505914Y-24908080D01*
X88529723Y-24908080D01*
X88565438Y-24919985D01*
X88708295Y-25062842D01*
X88708295Y-24908080D01*
X88458295Y-24753319D02*
X88458295Y-24729509D01*
X88470200Y-24705700D01*
X88482104Y-24693795D01*
X88505914Y-24681890D01*
X88553533Y-24669985D01*
X88613057Y-24669985D01*
X88660676Y-24681890D01*
X88684485Y-24693795D01*
X88696390Y-24705700D01*
X88708295Y-24729509D01*
X88708295Y-24753319D01*
X88696390Y-24777128D01*
X88684485Y-24789033D01*
X88660676Y-24800938D01*
X88613057Y-24812842D01*
X88553533Y-24812842D01*
X88505914Y-24800938D01*
X88482104Y-24789033D01*
X88470200Y-24777128D01*
X88458295Y-24753319D01*
X88708295Y-24431890D02*
X88708295Y-24574747D01*
X88708295Y-24503319D02*
X88458295Y-24503319D01*
X88494009Y-24527128D01*
X88517819Y-24550938D01*
X88529723Y-24574747D01*
X88228476Y-26004809D02*
X88133238Y-26071476D01*
X88228476Y-26119095D02*
X88028476Y-26119095D01*
X88028476Y-26042904D01*
X88038000Y-26023857D01*
X88047523Y-26014333D01*
X88066571Y-26004809D01*
X88095142Y-26004809D01*
X88114190Y-26014333D01*
X88123714Y-26023857D01*
X88133238Y-26042904D01*
X88133238Y-26119095D01*
X88047523Y-25928619D02*
X88038000Y-25919095D01*
X88028476Y-25900047D01*
X88028476Y-25852428D01*
X88038000Y-25833380D01*
X88047523Y-25823857D01*
X88066571Y-25814333D01*
X88085619Y-25814333D01*
X88114190Y-25823857D01*
X88228476Y-25938142D01*
X88228476Y-25814333D01*
X88028476Y-25690523D02*
X88028476Y-25671476D01*
X88038000Y-25652428D01*
X88047523Y-25642904D01*
X88066571Y-25633380D01*
X88104666Y-25623857D01*
X88152285Y-25623857D01*
X88190380Y-25633380D01*
X88209428Y-25642904D01*
X88218952Y-25652428D01*
X88228476Y-25671476D01*
X88228476Y-25690523D01*
X88218952Y-25709571D01*
X88209428Y-25719095D01*
X88190380Y-25728619D01*
X88152285Y-25738142D01*
X88104666Y-25738142D01*
X88066571Y-25728619D01*
X88047523Y-25719095D01*
X88038000Y-25709571D01*
X88028476Y-25690523D01*
X88028476Y-25557190D02*
X88028476Y-25423857D01*
X88228476Y-25509571D01*
D12*
X85074285Y-19772380D02*
X85074285Y-20486666D01*
X85026666Y-20629523D01*
X84931428Y-20724761D01*
X84788571Y-20772380D01*
X84693333Y-20772380D01*
X85502857Y-19867619D02*
X85550476Y-19820000D01*
X85645714Y-19772380D01*
X85883809Y-19772380D01*
X85979047Y-19820000D01*
X86026666Y-19867619D01*
X86074285Y-19962857D01*
X86074285Y-20058095D01*
X86026666Y-20200952D01*
X85455238Y-20772380D01*
X86074285Y-20772380D01*
X86455238Y-19867619D02*
X86502857Y-19820000D01*
X86598095Y-19772380D01*
X86836190Y-19772380D01*
X86931428Y-19820000D01*
X86979047Y-19867619D01*
X87026666Y-19962857D01*
X87026666Y-20058095D01*
X86979047Y-20200952D01*
X86407619Y-20772380D01*
X87026666Y-20772380D01*
X87979047Y-20772380D02*
X87407619Y-20772380D01*
X87693333Y-20772380D02*
X87693333Y-19772380D01*
X87598095Y-19915238D01*
X87502857Y-20010476D01*
X87407619Y-20058095D01*
X81788571Y-17835619D02*
X81836190Y-17788000D01*
X81931428Y-17740380D01*
X82169523Y-17740380D01*
X82264761Y-17788000D01*
X82312380Y-17835619D01*
X82360000Y-17930857D01*
X82360000Y-18026095D01*
X82312380Y-18168952D01*
X81740952Y-18740380D01*
X82360000Y-18740380D01*
X83312380Y-18740380D02*
X82740952Y-18740380D01*
X83026666Y-18740380D02*
X83026666Y-17740380D01*
X82931428Y-17883238D01*
X82836190Y-17978476D01*
X82740952Y-18026095D01*
X83645714Y-17740380D02*
X84312380Y-17740380D01*
X83883809Y-18740380D01*
X85217142Y-18740380D02*
X84645714Y-18740380D01*
X84931428Y-18740380D02*
X84931428Y-17740380D01*
X84836190Y-17883238D01*
X84740952Y-17978476D01*
X84645714Y-18026095D01*
X85550476Y-17740380D02*
X86217142Y-17740380D01*
X85788571Y-18740380D01*
X86645714Y-18740380D02*
X86836190Y-18740380D01*
X86931428Y-18692761D01*
X86979047Y-18645142D01*
X87074285Y-18502285D01*
X87121904Y-18311809D01*
X87121904Y-17930857D01*
X87074285Y-17835619D01*
X87026666Y-17788000D01*
X86931428Y-17740380D01*
X86740952Y-17740380D01*
X86645714Y-17788000D01*
X86598095Y-17835619D01*
X86550476Y-17930857D01*
X86550476Y-18168952D01*
X86598095Y-18264190D01*
X86645714Y-18311809D01*
X86740952Y-18359428D01*
X86931428Y-18359428D01*
X87026666Y-18311809D01*
X87074285Y-18264190D01*
X87121904Y-18168952D01*
X87740952Y-17740380D02*
X87836190Y-17740380D01*
X87931428Y-17788000D01*
X87979047Y-17835619D01*
X88026666Y-17930857D01*
X88074285Y-18121333D01*
X88074285Y-18359428D01*
X88026666Y-18549904D01*
X87979047Y-18645142D01*
X87931428Y-18692761D01*
X87836190Y-18740380D01*
X87740952Y-18740380D01*
X87645714Y-18692761D01*
X87598095Y-18645142D01*
X87550476Y-18549904D01*
X87502857Y-18359428D01*
X87502857Y-18121333D01*
X87550476Y-17930857D01*
X87598095Y-17835619D01*
X87645714Y-17788000D01*
X87740952Y-17740380D01*
X88693333Y-17740380D02*
X88788571Y-17740380D01*
X88883809Y-17788000D01*
X88931428Y-17835619D01*
X88979047Y-17930857D01*
X89026666Y-18121333D01*
X89026666Y-18359428D01*
X88979047Y-18549904D01*
X88931428Y-18645142D01*
X88883809Y-18692761D01*
X88788571Y-18740380D01*
X88693333Y-18740380D01*
X88598095Y-18692761D01*
X88550476Y-18645142D01*
X88502857Y-18549904D01*
X88455238Y-18359428D01*
X88455238Y-18121333D01*
X88502857Y-17930857D01*
X88550476Y-17835619D01*
X88598095Y-17788000D01*
X88693333Y-17740380D01*
X89645714Y-17740380D02*
X89740952Y-17740380D01*
X89836190Y-17788000D01*
X89883809Y-17835619D01*
X89931428Y-17930857D01*
X89979047Y-18121333D01*
X89979047Y-18359428D01*
X89931428Y-18549904D01*
X89883809Y-18645142D01*
X89836190Y-18692761D01*
X89740952Y-18740380D01*
X89645714Y-18740380D01*
X89550476Y-18692761D01*
X89502857Y-18645142D01*
X89455238Y-18549904D01*
X89407619Y-18359428D01*
X89407619Y-18121333D01*
X89455238Y-17930857D01*
X89502857Y-17835619D01*
X89550476Y-17788000D01*
X89645714Y-17740380D01*
X90931428Y-18740380D02*
X90360000Y-18740380D01*
X90645714Y-18740380D02*
X90645714Y-17740380D01*
X90550476Y-17883238D01*
X90455238Y-17978476D01*
X90360000Y-18026095D01*
D11*
X83984724Y-63389361D02*
X84085739Y-63490376D01*
X84035232Y-63439869D02*
X83858455Y-63616645D01*
X83900545Y-63608227D01*
X83934216Y-63608227D01*
X83959470Y-63616645D01*
X83698514Y-63456705D02*
X83681678Y-63439869D01*
X83673260Y-63414615D01*
X83673260Y-63397779D01*
X83681678Y-63372525D01*
X83706932Y-63330436D01*
X83749022Y-63288346D01*
X83791111Y-63263092D01*
X83816365Y-63254674D01*
X83833201Y-63254674D01*
X83858455Y-63263092D01*
X83875291Y-63279928D01*
X83883709Y-63305182D01*
X83883709Y-63322018D01*
X83875291Y-63347271D01*
X83850037Y-63389361D01*
X83807947Y-63431451D01*
X83765858Y-63456705D01*
X83740604Y-63465123D01*
X83723768Y-63465123D01*
X83698514Y-63456705D01*
X83740604Y-63145241D02*
X83563827Y-63322018D01*
X83656424Y-63195749D02*
X83673260Y-63077897D01*
X83555409Y-63195749D02*
X83690096Y-63195749D01*
X83252363Y-63010554D02*
X83235527Y-62993718D01*
X83227110Y-62968464D01*
X83227110Y-62951628D01*
X83235527Y-62926375D01*
X83260781Y-62884285D01*
X83302871Y-62842195D01*
X83344961Y-62816941D01*
X83370214Y-62808523D01*
X83387050Y-62808523D01*
X83412304Y-62816941D01*
X83429140Y-62833777D01*
X83437558Y-62859031D01*
X83437558Y-62875867D01*
X83429140Y-62901121D01*
X83403886Y-62943210D01*
X83361797Y-62985300D01*
X83319707Y-63010554D01*
X83294453Y-63018972D01*
X83277617Y-63018972D01*
X83252363Y-63010554D01*
X83142930Y-62867449D02*
X83126094Y-62867449D01*
X83100840Y-62859031D01*
X83058751Y-62816941D01*
X83050333Y-62791688D01*
X83050333Y-62774852D01*
X83058751Y-62749598D01*
X83075587Y-62732762D01*
X83109258Y-62715926D01*
X83311289Y-62715926D01*
X83201856Y-62606493D01*
X82915646Y-62673836D02*
X82898810Y-62657001D01*
X82890392Y-62631747D01*
X82890392Y-62614911D01*
X82898810Y-62589657D01*
X82924064Y-62547567D01*
X82966153Y-62505478D01*
X83008243Y-62480224D01*
X83033497Y-62471806D01*
X83050333Y-62471806D01*
X83075587Y-62480224D01*
X83092423Y-62497060D01*
X83100840Y-62522314D01*
X83100840Y-62539149D01*
X83092423Y-62564403D01*
X83067169Y-62606493D01*
X83025079Y-62648583D01*
X82982989Y-62673836D01*
X82957736Y-62682254D01*
X82940900Y-62682254D01*
X82915646Y-62673836D01*
X82865138Y-62269775D02*
X82966153Y-62370791D01*
X82915646Y-62320283D02*
X82738869Y-62497060D01*
X82780959Y-62488642D01*
X82814631Y-62488642D01*
X82839884Y-62497060D01*
X84931233Y-63721280D02*
X84911030Y-63835764D01*
X85012045Y-63802093D02*
X84870624Y-63943514D01*
X84816749Y-63889639D01*
X84810015Y-63869436D01*
X84810015Y-63855967D01*
X84816749Y-63835764D01*
X84836952Y-63815561D01*
X84857155Y-63808827D01*
X84870624Y-63808827D01*
X84890827Y-63815561D01*
X84944702Y-63869436D01*
X84749406Y-63795358D02*
X84735937Y-63795358D01*
X84715734Y-63788624D01*
X84682062Y-63754952D01*
X84675328Y-63734749D01*
X84675328Y-63721280D01*
X84682062Y-63701077D01*
X84695531Y-63687609D01*
X84722468Y-63674140D01*
X84884093Y-63674140D01*
X84796546Y-63586593D01*
X84567578Y-63640468D02*
X84554109Y-63627000D01*
X84547375Y-63606796D01*
X84547375Y-63593328D01*
X84554109Y-63573125D01*
X84574312Y-63539453D01*
X84607984Y-63505781D01*
X84641656Y-63485578D01*
X84661859Y-63478844D01*
X84675328Y-63478844D01*
X84695531Y-63485578D01*
X84709000Y-63499047D01*
X84715734Y-63519250D01*
X84715734Y-63532719D01*
X84709000Y-63552922D01*
X84688796Y-63586593D01*
X84655125Y-63620265D01*
X84621453Y-63640468D01*
X84601250Y-63647203D01*
X84587781Y-63647203D01*
X84567578Y-63640468D01*
X84392485Y-63465375D02*
X84459829Y-63532719D01*
X84533906Y-63472109D01*
X84520438Y-63472109D01*
X84500235Y-63465375D01*
X84466563Y-63431703D01*
X84459829Y-63411500D01*
X84459829Y-63398032D01*
X84466563Y-63377829D01*
X84500235Y-63344157D01*
X84520438Y-63337422D01*
X84533906Y-63337422D01*
X84554109Y-63344157D01*
X84587781Y-63377829D01*
X84594516Y-63398032D01*
X84594516Y-63411500D01*
X90310904Y-64435880D02*
X90299000Y-64423976D01*
X90287095Y-64400166D01*
X90287095Y-64340642D01*
X90299000Y-64316833D01*
X90310904Y-64304928D01*
X90334714Y-64293023D01*
X90358523Y-64293023D01*
X90394238Y-64304928D01*
X90537095Y-64447785D01*
X90537095Y-64293023D01*
X90287095Y-64209690D02*
X90287095Y-64043023D01*
X90537095Y-64150166D01*
X90537095Y-63959690D02*
X90537095Y-63900166D01*
X90489476Y-63900166D01*
X90477571Y-63923976D01*
X90453761Y-63947785D01*
X90418047Y-63959690D01*
X90358523Y-63959690D01*
X90322809Y-63947785D01*
X90299000Y-63923976D01*
X90287095Y-63888261D01*
X90287095Y-63840642D01*
X90299000Y-63804928D01*
X90322809Y-63781119D01*
X90358523Y-63769214D01*
X90418047Y-63769214D01*
X90453761Y-63781119D01*
X90477571Y-63804928D01*
X90489476Y-63828738D01*
X90537095Y-63828738D01*
X90537095Y-63769214D01*
X90287095Y-63423976D02*
X90287095Y-63400166D01*
X90299000Y-63376357D01*
X90310904Y-63364452D01*
X90334714Y-63352547D01*
X90382333Y-63340642D01*
X90441857Y-63340642D01*
X90489476Y-63352547D01*
X90513285Y-63364452D01*
X90525190Y-63376357D01*
X90537095Y-63400166D01*
X90537095Y-63423976D01*
X90525190Y-63447785D01*
X90513285Y-63459690D01*
X90489476Y-63471595D01*
X90441857Y-63483500D01*
X90382333Y-63483500D01*
X90334714Y-63471595D01*
X90310904Y-63459690D01*
X90299000Y-63447785D01*
X90287095Y-63423976D01*
X90310904Y-63245404D02*
X90299000Y-63233500D01*
X90287095Y-63209690D01*
X90287095Y-63150166D01*
X90299000Y-63126357D01*
X90310904Y-63114452D01*
X90334714Y-63102547D01*
X90358523Y-63102547D01*
X90394238Y-63114452D01*
X90537095Y-63257309D01*
X90537095Y-63102547D01*
X90287095Y-62947785D02*
X90287095Y-62923976D01*
X90299000Y-62900166D01*
X90310904Y-62888261D01*
X90334714Y-62876357D01*
X90382333Y-62864452D01*
X90441857Y-62864452D01*
X90489476Y-62876357D01*
X90513285Y-62888261D01*
X90525190Y-62900166D01*
X90537095Y-62923976D01*
X90537095Y-62947785D01*
X90525190Y-62971595D01*
X90513285Y-62983500D01*
X90489476Y-62995404D01*
X90441857Y-63007309D01*
X90382333Y-63007309D01*
X90334714Y-62995404D01*
X90310904Y-62983500D01*
X90299000Y-62971595D01*
X90287095Y-62947785D01*
X90537095Y-62626357D02*
X90537095Y-62769214D01*
X90537095Y-62697785D02*
X90287095Y-62697785D01*
X90322809Y-62721595D01*
X90346619Y-62745404D01*
X90358523Y-62769214D01*
X90971676Y-65197009D02*
X90876438Y-65263676D01*
X90971676Y-65311295D02*
X90771676Y-65311295D01*
X90771676Y-65235104D01*
X90781200Y-65216057D01*
X90790723Y-65206533D01*
X90809771Y-65197009D01*
X90838342Y-65197009D01*
X90857390Y-65206533D01*
X90866914Y-65216057D01*
X90876438Y-65235104D01*
X90876438Y-65311295D01*
X90790723Y-65120819D02*
X90781200Y-65111295D01*
X90771676Y-65092247D01*
X90771676Y-65044628D01*
X90781200Y-65025580D01*
X90790723Y-65016057D01*
X90809771Y-65006533D01*
X90828819Y-65006533D01*
X90857390Y-65016057D01*
X90971676Y-65130342D01*
X90971676Y-65006533D01*
X90771676Y-64882723D02*
X90771676Y-64863676D01*
X90781200Y-64844628D01*
X90790723Y-64835104D01*
X90809771Y-64825580D01*
X90847866Y-64816057D01*
X90895485Y-64816057D01*
X90933580Y-64825580D01*
X90952628Y-64835104D01*
X90962152Y-64844628D01*
X90971676Y-64863676D01*
X90971676Y-64882723D01*
X90962152Y-64901771D01*
X90952628Y-64911295D01*
X90933580Y-64920819D01*
X90895485Y-64930342D01*
X90847866Y-64930342D01*
X90809771Y-64920819D01*
X90790723Y-64911295D01*
X90781200Y-64901771D01*
X90771676Y-64882723D01*
X90790723Y-64739866D02*
X90781200Y-64730342D01*
X90771676Y-64711295D01*
X90771676Y-64663676D01*
X90781200Y-64644628D01*
X90790723Y-64635104D01*
X90809771Y-64625580D01*
X90828819Y-64625580D01*
X90857390Y-64635104D01*
X90971676Y-64749390D01*
X90971676Y-64625580D01*
D10*
X85055161Y-113452072D02*
X85126590Y-113475882D01*
X85245638Y-113475882D01*
X85293257Y-113452072D01*
X85317066Y-113428263D01*
X85340876Y-113380644D01*
X85340876Y-113333025D01*
X85317066Y-113285406D01*
X85293257Y-113261596D01*
X85245638Y-113237787D01*
X85150400Y-113213977D01*
X85102780Y-113190168D01*
X85078971Y-113166358D01*
X85055161Y-113118739D01*
X85055161Y-113071120D01*
X85078971Y-113023501D01*
X85102780Y-112999692D01*
X85150400Y-112975882D01*
X85269447Y-112975882D01*
X85340876Y-112999692D01*
X85555161Y-113475882D02*
X85555161Y-112975882D01*
X85840876Y-113475882D02*
X85626590Y-113190168D01*
X85840876Y-112975882D02*
X85555161Y-113261596D01*
X86078971Y-113475882D02*
X86174209Y-113475882D01*
X86221828Y-113452072D01*
X86245638Y-113428263D01*
X86293257Y-113356834D01*
X86317066Y-113261596D01*
X86317066Y-113071120D01*
X86293257Y-113023501D01*
X86269447Y-112999692D01*
X86221828Y-112975882D01*
X86126590Y-112975882D01*
X86078971Y-112999692D01*
X86055161Y-113023501D01*
X86031352Y-113071120D01*
X86031352Y-113190168D01*
X86055161Y-113237787D01*
X86078971Y-113261596D01*
X86126590Y-113285406D01*
X86221828Y-113285406D01*
X86269447Y-113261596D01*
X86293257Y-113237787D01*
X86317066Y-113190168D01*
X86602780Y-113190168D02*
X86555161Y-113166358D01*
X86531352Y-113142549D01*
X86507542Y-113094930D01*
X86507542Y-113071120D01*
X86531352Y-113023501D01*
X86555161Y-112999692D01*
X86602780Y-112975882D01*
X86698019Y-112975882D01*
X86745638Y-112999692D01*
X86769447Y-113023501D01*
X86793257Y-113071120D01*
X86793257Y-113094930D01*
X86769447Y-113142549D01*
X86745638Y-113166358D01*
X86698019Y-113190168D01*
X86602780Y-113190168D01*
X86555161Y-113213977D01*
X86531352Y-113237787D01*
X86507542Y-113285406D01*
X86507542Y-113380644D01*
X86531352Y-113428263D01*
X86555161Y-113452072D01*
X86602780Y-113475882D01*
X86698019Y-113475882D01*
X86745638Y-113452072D01*
X86769447Y-113428263D01*
X86793257Y-113380644D01*
X86793257Y-113285406D01*
X86769447Y-113237787D01*
X86745638Y-113213977D01*
X86698019Y-113190168D01*
X86983733Y-113023501D02*
X87007542Y-112999692D01*
X87055161Y-112975882D01*
X87174209Y-112975882D01*
X87221828Y-112999692D01*
X87245638Y-113023501D01*
X87269447Y-113071120D01*
X87269447Y-113118739D01*
X87245638Y-113190168D01*
X86959923Y-113475882D01*
X87269447Y-113475882D01*
X87459923Y-113023501D02*
X87483733Y-112999692D01*
X87531352Y-112975882D01*
X87650400Y-112975882D01*
X87698019Y-112999692D01*
X87721828Y-113023501D01*
X87745638Y-113071120D01*
X87745638Y-113118739D01*
X87721828Y-113190168D01*
X87436114Y-113475882D01*
X87745638Y-113475882D01*
D11*
X85571828Y-114141844D02*
X85381352Y-114141844D01*
X85381352Y-113741844D01*
X85705161Y-113932320D02*
X85838495Y-113932320D01*
X85895638Y-114141844D02*
X85705161Y-114141844D01*
X85705161Y-113741844D01*
X85895638Y-113741844D01*
X86067066Y-114141844D02*
X86067066Y-113741844D01*
X86162304Y-113741844D01*
X86219447Y-113760892D01*
X86257542Y-113798987D01*
X86276590Y-113837082D01*
X86295638Y-113913272D01*
X86295638Y-113970415D01*
X86276590Y-114046606D01*
X86257542Y-114084701D01*
X86219447Y-114122796D01*
X86162304Y-114141844D01*
X86067066Y-114141844D01*
X86428971Y-113741844D02*
X86676590Y-113741844D01*
X86543257Y-113894225D01*
X86600400Y-113894225D01*
X86638495Y-113913272D01*
X86657542Y-113932320D01*
X86676590Y-113970415D01*
X86676590Y-114065653D01*
X86657542Y-114103749D01*
X86638495Y-114122796D01*
X86600400Y-114141844D01*
X86486114Y-114141844D01*
X86448019Y-114122796D01*
X86428971Y-114103749D01*
X86924209Y-113741844D02*
X86962304Y-113741844D01*
X87000400Y-113760892D01*
X87019447Y-113779939D01*
X87038495Y-113818034D01*
X87057542Y-113894225D01*
X87057542Y-113989463D01*
X87038495Y-114065653D01*
X87019447Y-114103749D01*
X87000400Y-114122796D01*
X86962304Y-114141844D01*
X86924209Y-114141844D01*
X86886114Y-114122796D01*
X86867066Y-114103749D01*
X86848019Y-114065653D01*
X86828971Y-113989463D01*
X86828971Y-113894225D01*
X86848019Y-113818034D01*
X86867066Y-113779939D01*
X86886114Y-113760892D01*
X86924209Y-113741844D01*
X87190876Y-113741844D02*
X87457542Y-113741844D01*
X87286114Y-114141844D01*
X87560000Y-133947602D02*
X85160000Y-133947602D01*
X85160000Y-133947602D02*
X85160000Y-131537602D01*
X85160000Y-131537602D02*
X87560000Y-131537602D01*
X87560000Y-131537602D02*
X87560000Y-133947602D01*
D13*
X87517200Y-133852402D02*
G75*
G03*
X87517200Y-133852402I-50000J0D01*
G01*
D11*
X86944200Y-74701400D02*
X86537800Y-74701400D01*
X86537800Y-74701400D02*
X86537800Y-73888600D01*
X86537800Y-73888600D02*
X86944200Y-73888600D01*
X86944200Y-73888600D02*
X86944200Y-74701400D01*
D14*
X83810000Y-62105000D02*
X83810000Y-56005000D01*
X88910000Y-62105000D02*
X88910000Y-56005000D01*
X83810000Y-56005000D02*
X88910000Y-56005000D01*
X83810000Y-62105000D02*
X88910000Y-62105000D01*
D15*
X83970800Y-62407800D02*
G75*
G03*
X83970800Y-62407800I-100000J0D01*
G01*
D10*
X83654900Y-55651400D02*
X81445100Y-55651400D01*
X81445100Y-55651400D02*
X81445100Y-58648600D01*
X81445100Y-58648600D02*
X83654900Y-58648600D01*
X83654900Y-58648600D02*
X83654900Y-55651400D01*
X83654900Y-56845200D02*
G75*
G03*
X83654900Y-57454800I0J-304800D01*
G01*
X82626200Y-55753000D02*
G75*
G03*
X82626200Y-55753000I-76200J0D01*
G01*
D11*
X87560000Y-171495422D02*
X85160000Y-171495422D01*
X85160000Y-171495422D02*
X85160000Y-169085422D01*
X85160000Y-169085422D02*
X87560000Y-169085422D01*
X87560000Y-169085422D02*
X87560000Y-171495422D01*
D13*
X87517200Y-171400222D02*
G75*
G03*
X87517200Y-171400222I-50000J0D01*
G01*
D11*
X85191600Y-179628800D02*
X86004400Y-179628800D01*
X86004400Y-179628800D02*
X86004400Y-179222400D01*
X86004400Y-179222400D02*
X85191600Y-179222400D01*
X85191600Y-179222400D02*
X85191600Y-179628800D01*
X87560000Y-167740640D02*
X85160000Y-167740640D01*
X85160000Y-167740640D02*
X85160000Y-165330640D01*
X85160000Y-165330640D02*
X87560000Y-165330640D01*
X87560000Y-165330640D02*
X87560000Y-167740640D01*
D13*
X87517200Y-167645440D02*
G75*
G03*
X87517200Y-167645440I-50000J0D01*
G01*
X81250000Y-54825000D02*
X81250000Y-53125000D01*
X83850000Y-53125000D02*
X83850000Y-54825000D01*
X83850000Y-54825000D02*
X81250000Y-54825000D01*
X81250000Y-53125000D02*
X83850000Y-53125000D01*
D11*
X87560000Y-156476294D02*
X85160000Y-156476294D01*
X85160000Y-156476294D02*
X85160000Y-154066294D01*
X85160000Y-154066294D02*
X87560000Y-154066294D01*
X87560000Y-154066294D02*
X87560000Y-156476294D01*
D13*
X87517200Y-156381094D02*
G75*
G03*
X87517200Y-156381094I-50000J0D01*
G01*
D10*
X83654900Y-40411400D02*
X81445100Y-40411400D01*
X81445100Y-40411400D02*
X81445100Y-43408600D01*
X83654900Y-43408600D02*
X83654900Y-40411400D01*
X81445100Y-43408600D02*
X83654900Y-43408600D01*
X81445100Y-42214800D02*
G75*
G03*
X81445100Y-41605200I0J304800D01*
G01*
X82626200Y-43307000D02*
G75*
G03*
X82626200Y-43307000I-76200J0D01*
G01*
D11*
X84378800Y-25374600D02*
X84785200Y-25374600D01*
X84785200Y-25374600D02*
X84785200Y-26187400D01*
X84785200Y-26187400D02*
X84378800Y-26187400D01*
X84378800Y-26187400D02*
X84378800Y-25374600D01*
X87560000Y-96399782D02*
X85160000Y-96399782D01*
X85160000Y-96399782D02*
X85160000Y-93989782D01*
X85160000Y-93989782D02*
X87560000Y-93989782D01*
X87560000Y-93989782D02*
X87560000Y-96399782D01*
D13*
X87517200Y-96304582D02*
G75*
G03*
X87517200Y-96304582I-50000J0D01*
G01*
D11*
X87560000Y-152721512D02*
X85160000Y-152721512D01*
X85160000Y-152721512D02*
X85160000Y-150311512D01*
X85160000Y-150311512D02*
X87560000Y-150311512D01*
X87560000Y-150311512D02*
X87560000Y-152721512D01*
D13*
X87517200Y-152626312D02*
G75*
G03*
X87517200Y-152626312I-50000J0D01*
G01*
D14*
X84810000Y-77500000D02*
X84810000Y-74900000D01*
X87910000Y-74900000D02*
X87910000Y-77500000D01*
X84810000Y-74900000D02*
X87910000Y-74900000D01*
X87910000Y-77500000D02*
X84810000Y-77500000D01*
D10*
X84310000Y-75200000D02*
G75*
G03*
X84310000Y-75200000I-50000J0D01*
G01*
D11*
X83515200Y-62839600D02*
X83921600Y-62839600D01*
X83921600Y-62839600D02*
X83921600Y-63652400D01*
X83921600Y-63652400D02*
X83515200Y-63652400D01*
X83515200Y-63652400D02*
X83515200Y-62839600D01*
X87528400Y-179222400D02*
X86715600Y-179222400D01*
X86715600Y-179222400D02*
X86715600Y-179628800D01*
X86715600Y-179628800D02*
X87528400Y-179628800D01*
X87528400Y-179628800D02*
X87528400Y-179222400D01*
X87560000Y-148966730D02*
X85160000Y-148966730D01*
X85160000Y-148966730D02*
X85160000Y-146556730D01*
X85160000Y-146556730D02*
X87560000Y-146556730D01*
X87560000Y-146556730D02*
X87560000Y-148966730D01*
D13*
X87517200Y-148871530D02*
G75*
G03*
X87517200Y-148871530I-50000J0D01*
G01*
D11*
X87560000Y-122683256D02*
X85160000Y-122683256D01*
X85160000Y-122683256D02*
X85160000Y-120273256D01*
X85160000Y-120273256D02*
X87560000Y-120273256D01*
X87560000Y-120273256D02*
X87560000Y-122683256D01*
D13*
X87517200Y-122588056D02*
G75*
G03*
X87517200Y-122588056I-50000J0D01*
G01*
X88168000Y-79336000D02*
X85568000Y-79336000D01*
X88168000Y-77636000D02*
X88168000Y-79336000D01*
X85568000Y-77636000D02*
X88168000Y-77636000D01*
X85568000Y-79336000D02*
X85568000Y-77636000D01*
D11*
X87560000Y-160231076D02*
X85160000Y-160231076D01*
X85160000Y-160231076D02*
X85160000Y-157821076D01*
X85160000Y-157821076D02*
X87560000Y-157821076D01*
X87560000Y-157821076D02*
X87560000Y-160231076D01*
D13*
X87517200Y-160135876D02*
G75*
G03*
X87517200Y-160135876I-50000J0D01*
G01*
D11*
X90474800Y-65379600D02*
X90068400Y-65379600D01*
X90068400Y-65379600D02*
X90068400Y-64566800D01*
X90068400Y-64566800D02*
X90474800Y-64566800D01*
X90474800Y-64566800D02*
X90474800Y-65379600D01*
X87560000Y-100154564D02*
X85160000Y-100154564D01*
X85160000Y-100154564D02*
X85160000Y-97744564D01*
X85160000Y-97744564D02*
X87560000Y-97744564D01*
X87560000Y-97744564D02*
X87560000Y-100154564D01*
D13*
X87517200Y-100059364D02*
G75*
G03*
X87517200Y-100059364I-50000J0D01*
G01*
D11*
X87560000Y-163985858D02*
X85160000Y-163985858D01*
X85160000Y-163985858D02*
X85160000Y-161575858D01*
X85160000Y-161575858D02*
X87560000Y-161575858D01*
X87560000Y-161575858D02*
X87560000Y-163985858D01*
D13*
X87517200Y-163890658D02*
G75*
G03*
X87517200Y-163890658I-50000J0D01*
G01*
D11*
X87560000Y-130192820D02*
X85160000Y-130192820D01*
X85160000Y-130192820D02*
X85160000Y-127782820D01*
X85160000Y-127782820D02*
X87560000Y-127782820D01*
X87560000Y-127782820D02*
X87560000Y-130192820D01*
D13*
X87517200Y-130097620D02*
G75*
G03*
X87517200Y-130097620I-50000J0D01*
G01*
D11*
X83573998Y-72872630D02*
X83286630Y-73159998D01*
X83286630Y-73159998D02*
X82711894Y-72585262D01*
X82711894Y-72585262D02*
X82999262Y-72297894D01*
X82999262Y-72297894D02*
X83573998Y-72872630D01*
X87560000Y-175250204D02*
X85160000Y-175250204D01*
X85160000Y-175250204D02*
X85160000Y-172840204D01*
X85160000Y-172840204D02*
X87560000Y-172840204D01*
X87560000Y-172840204D02*
X87560000Y-175250204D01*
D13*
X87517200Y-175155004D02*
G75*
G03*
X87517200Y-175155004I-50000J0D01*
G01*
D11*
X87560011Y-111418904D02*
X85160011Y-111418904D01*
X85160011Y-111418904D02*
X85160011Y-109008904D01*
X85160011Y-109008904D02*
X87560011Y-109008904D01*
X87560011Y-109008904D02*
X87560011Y-111418904D01*
D13*
X87517211Y-111323704D02*
G75*
G03*
X87517211Y-111323704I-50000J0D01*
G01*
D11*
X87560000Y-179004986D02*
X85160000Y-179004986D01*
X85160000Y-179004986D02*
X85160000Y-176594986D01*
X85160000Y-176594986D02*
X87560000Y-176594986D01*
X87560000Y-176594986D02*
X87560000Y-179004986D01*
D13*
X87517200Y-178909786D02*
G75*
G03*
X87517200Y-178909786I-50000J0D01*
G01*
D11*
X87560000Y-141457166D02*
X85160000Y-141457166D01*
X85160000Y-141457166D02*
X85160000Y-139047166D01*
X85160000Y-139047166D02*
X87560000Y-139047166D01*
X87560000Y-139047166D02*
X87560000Y-141457166D01*
D13*
X87517200Y-141361966D02*
G75*
G03*
X87517200Y-141361966I-50000J0D01*
G01*
D11*
X87560011Y-107664124D02*
X85160011Y-107664124D01*
X85160011Y-107664124D02*
X85160011Y-105254124D01*
X85160011Y-105254124D02*
X87560011Y-105254124D01*
X87560011Y-105254124D02*
X87560011Y-107664124D01*
D13*
X87517211Y-107568924D02*
G75*
G03*
X87517211Y-107568924I-50000J0D01*
G01*
D14*
X85060000Y-26356400D02*
X85060000Y-25256400D01*
X87660000Y-25256400D02*
X87660000Y-26356400D01*
X87660000Y-26356400D02*
X85060000Y-26356400D01*
X85060000Y-25256400D02*
X87660000Y-25256400D01*
D16*
X87630000Y-24706400D02*
G75*
G03*
X87630000Y-24706400I-70000J0D01*
G01*
D11*
X87560000Y-145211948D02*
X85160000Y-145211948D01*
X85160000Y-145211948D02*
X85160000Y-142801948D01*
X85160000Y-142801948D02*
X87560000Y-142801948D01*
X87560000Y-142801948D02*
X87560000Y-145211948D01*
D13*
X87517200Y-145116748D02*
G75*
G03*
X87517200Y-145116748I-50000J0D01*
G01*
D11*
X87560000Y-137702384D02*
X85160000Y-137702384D01*
X85160000Y-137702384D02*
X85160000Y-135292384D01*
X85160000Y-135292384D02*
X87560000Y-135292384D01*
X87560000Y-135292384D02*
X87560000Y-137702384D01*
D13*
X87517200Y-137607184D02*
G75*
G03*
X87517200Y-137607184I-50000J0D01*
G01*
D11*
X87560000Y-126438038D02*
X85160000Y-126438038D01*
X85160000Y-126438038D02*
X85160000Y-124028038D01*
X85160000Y-124028038D02*
X87560000Y-124028038D01*
X87560000Y-124028038D02*
X87560000Y-126438038D01*
D13*
X87517200Y-126342838D02*
G75*
G03*
X87517200Y-126342838I-50000J0D01*
G01*
D11*
X87560000Y-92645000D02*
X85160000Y-92645000D01*
X85160000Y-92645000D02*
X85160000Y-90235000D01*
X85160000Y-90235000D02*
X87560000Y-90235000D01*
X87560000Y-90235000D02*
X87560000Y-92645000D01*
D13*
X87517200Y-92549800D02*
G75*
G03*
X87517200Y-92549800I-50000J0D01*
G01*
D10*
X87360000Y-86240000D02*
X85360000Y-86240000D01*
X87360000Y-83940000D02*
X87360000Y-86240000D01*
X85360000Y-86240000D02*
X85360000Y-83940000D01*
X85360000Y-83940000D02*
X87360000Y-83940000D01*
X85860000Y-86240000D02*
X85360000Y-85740000D01*
D14*
X86360000Y-73529747D02*
X91309747Y-68580000D01*
X91309747Y-68580000D02*
X86360000Y-63630253D01*
X81410253Y-68580000D02*
X86360000Y-63630253D01*
X86360000Y-73529747D02*
X81410253Y-68580000D01*
D15*
X86064868Y-63586978D02*
G75*
G03*
X86064868Y-63586978I-99999J0D01*
G01*
D11*
X87560000Y-118928474D02*
X85160000Y-118928474D01*
X85160000Y-118928474D02*
X85160000Y-116518474D01*
X85160000Y-116518474D02*
X87560000Y-116518474D01*
X87560000Y-116518474D02*
X87560000Y-118928474D01*
D13*
X87517200Y-118833274D02*
G75*
G03*
X87517200Y-118833274I-50000J0D01*
G01*
D11*
X86182200Y-74701400D02*
X85775800Y-74701400D01*
X85775800Y-74701400D02*
X85775800Y-73888600D01*
X85775800Y-73888600D02*
X86182200Y-73888600D01*
X86182200Y-73888600D02*
X86182200Y-74701400D01*
X87560000Y-103909346D02*
X85160000Y-103909346D01*
X85160000Y-103909346D02*
X85160000Y-101499346D01*
X85160000Y-101499346D02*
X87560000Y-101499346D01*
X87560000Y-101499346D02*
X87560000Y-103909346D01*
D13*
X87517200Y-103814146D02*
G75*
G03*
X87517200Y-103814146I-50000J0D01*
G01*
D11*
X87934800Y-25374600D02*
X88341200Y-25374600D01*
X88341200Y-25374600D02*
X88341200Y-26187400D01*
X88341200Y-26187400D02*
X87934800Y-26187400D01*
X87934800Y-26187400D02*
X87934800Y-25374600D01*
D10*
X81889600Y-16941800D02*
X81889600Y-23698200D01*
X86360000Y-23698200D02*
X86360000Y-23698200D01*
X86360000Y-23698200D02*
X86360000Y-23698200D01*
X90830400Y-23698200D02*
X90830400Y-16941800D01*
X90830400Y-16941800D02*
X81889600Y-16941800D01*
X81889600Y-23698200D02*
X90830400Y-23698200D01*
X86360000Y-23698200D02*
X86360000Y-23698200D01*
X86360000Y-23698200D02*
X86360000Y-23698200D01*
D11*
X85140052Y-63770684D02*
X84852684Y-64058052D01*
X84852684Y-64058052D02*
X84277948Y-63483316D01*
X84277948Y-63483316D02*
X84565316Y-63195948D01*
X84565316Y-63195948D02*
X85140052Y-63770684D01*
X91084400Y-65379600D02*
X90678000Y-65379600D01*
X90678000Y-65379600D02*
X90678000Y-64566800D01*
X90678000Y-64566800D02*
X91084400Y-64566800D01*
X91084400Y-64566800D02*
X91084400Y-65379600D01*
X87560000Y-115173692D02*
X85160000Y-115173692D01*
X85160000Y-115173692D02*
X85160000Y-112763692D01*
X85160000Y-112763692D02*
X87560000Y-112763692D01*
X87560000Y-112763692D02*
X87560000Y-115173692D01*
D13*
X87517200Y-115078492D02*
G75*
G03*
X87517200Y-115078492I-50000J0D01*
G01*
M02*
