G04 #@! TF.GenerationSoftware,KiCad,Pcbnew,(6.0.6)*
G04 #@! TF.CreationDate,2023-03-09T20:25:47-07:00*
G04 #@! TF.ProjectId,RP2040-Breadstick,52503230-3430-42d4-9272-656164737469,0.1*
G04 #@! TF.SameCoordinates,Original*
G04 #@! TF.FileFunction,Legend,Bot*
G04 #@! TF.FilePolarity,Positive*
%FSLAX46Y46*%
G04 Gerber Fmt 4.6, Leading zero omitted, Abs format (unit mm)*
G04 Created by KiCad (PCBNEW (6.0.6)) date 2023-03-09 20:25:47*
%MOMM*%
%LPD*%
G01*
G04 APERTURE LIST*
%ADD10C,0.209164*%
%ADD11C,0.125000*%
%ADD12C,0.050000*%
%ADD13C,0.100000*%
%ADD14C,0.037500*%
%ADD15C,0.200000*%
%ADD16C,0.120000*%
%ADD17C,0.127000*%
G04 APERTURE END LIST*
D10*
X87444582Y-32710000D02*
G75*
G03*
X87444582Y-32710000I-104582J0D01*
G01*
D11*
X82773105Y-71918741D02*
X82941464Y-71750382D01*
X82470060Y-71986085D02*
X82773105Y-71918741D01*
X82705762Y-72221787D01*
X82840449Y-72289130D02*
X82840449Y-72322802D01*
X82857285Y-72373310D01*
X82941464Y-72457489D01*
X82991972Y-72474325D01*
X83025643Y-72474325D01*
X83076151Y-72457489D01*
X83109823Y-72423817D01*
X83143495Y-72356474D01*
X83143495Y-71952413D01*
X83362361Y-72171279D01*
X83227674Y-72743699D02*
X83261346Y-72777371D01*
X83311853Y-72794207D01*
X83345525Y-72794207D01*
X83396033Y-72777371D01*
X83480212Y-72726863D01*
X83564391Y-72642684D01*
X83614899Y-72558504D01*
X83631735Y-72507997D01*
X83631735Y-72474325D01*
X83614899Y-72423817D01*
X83581227Y-72390146D01*
X83530720Y-72373310D01*
X83497048Y-72373310D01*
X83446540Y-72390146D01*
X83362361Y-72440653D01*
X83278182Y-72524833D01*
X83227674Y-72609012D01*
X83210838Y-72659520D01*
X83210838Y-72693191D01*
X83227674Y-72743699D01*
X84035796Y-72844714D02*
X83833765Y-72642684D01*
X83934781Y-72743699D02*
X83581227Y-73097252D01*
X83598063Y-73013073D01*
X83598063Y-72945730D01*
X83581227Y-72895222D01*
D12*
X85564948Y-69501320D02*
X85581783Y-69501320D01*
X85615455Y-69484485D01*
X85632291Y-69467649D01*
X85649127Y-69433977D01*
X85649127Y-69400305D01*
X85640709Y-69375051D01*
X85615455Y-69332962D01*
X85590201Y-69307708D01*
X85548112Y-69282454D01*
X85522858Y-69274036D01*
X85489186Y-69274036D01*
X85455514Y-69290872D01*
X85438679Y-69307708D01*
X85421843Y-69341380D01*
X85421843Y-69358216D01*
X85354499Y-69425559D02*
X85337663Y-69425559D01*
X85312409Y-69433977D01*
X85270320Y-69476067D01*
X85261902Y-69501320D01*
X85261902Y-69518156D01*
X85270320Y-69543410D01*
X85287156Y-69560246D01*
X85320827Y-69577082D01*
X85522858Y-69577082D01*
X85413425Y-69686515D01*
X85127215Y-69619172D02*
X85110379Y-69636008D01*
X85101961Y-69661261D01*
X85101961Y-69678097D01*
X85110379Y-69703351D01*
X85135633Y-69745441D01*
X85177722Y-69787530D01*
X85219812Y-69812784D01*
X85245066Y-69821202D01*
X85261902Y-69821202D01*
X85287156Y-69812784D01*
X85303992Y-69795948D01*
X85312409Y-69770695D01*
X85312409Y-69753859D01*
X85303992Y-69728605D01*
X85278738Y-69686515D01*
X85236648Y-69644425D01*
X85194558Y-69619172D01*
X85169304Y-69610754D01*
X85152469Y-69610754D01*
X85127215Y-69619172D01*
X84975692Y-69888546D02*
X85093543Y-70006397D01*
X84950438Y-69779112D02*
X85118797Y-69863292D01*
X85009364Y-69972725D01*
X86449285Y-143727186D02*
X86461190Y-143715281D01*
X86473095Y-143679567D01*
X86473095Y-143655757D01*
X86461190Y-143620043D01*
X86437380Y-143596233D01*
X86413571Y-143584328D01*
X86365952Y-143572424D01*
X86330238Y-143572424D01*
X86282619Y-143584328D01*
X86258809Y-143596233D01*
X86235000Y-143620043D01*
X86223095Y-143655757D01*
X86223095Y-143679567D01*
X86235000Y-143715281D01*
X86246904Y-143727186D01*
X86223095Y-143810519D02*
X86223095Y-143965281D01*
X86318333Y-143881948D01*
X86318333Y-143917662D01*
X86330238Y-143941471D01*
X86342142Y-143953376D01*
X86365952Y-143965281D01*
X86425476Y-143965281D01*
X86449285Y-143953376D01*
X86461190Y-143941471D01*
X86473095Y-143917662D01*
X86473095Y-143846233D01*
X86461190Y-143822424D01*
X86449285Y-143810519D01*
X86473095Y-144203376D02*
X86473095Y-144060519D01*
X86473095Y-144131948D02*
X86223095Y-144131948D01*
X86258809Y-144108138D01*
X86282619Y-144084328D01*
X86294523Y-144060519D01*
X86223095Y-144286709D02*
X86223095Y-144453376D01*
X86473095Y-144346233D01*
D13*
X83192857Y-175196190D02*
X83192857Y-175553333D01*
X83216666Y-175624761D01*
X83264285Y-175672380D01*
X83335714Y-175696190D01*
X83383333Y-175696190D01*
X82978571Y-175243809D02*
X82954761Y-175220000D01*
X82907142Y-175196190D01*
X82788095Y-175196190D01*
X82740476Y-175220000D01*
X82716666Y-175243809D01*
X82692857Y-175291428D01*
X82692857Y-175339047D01*
X82716666Y-175410476D01*
X83002380Y-175696190D01*
X82692857Y-175696190D01*
X82502380Y-175243809D02*
X82478571Y-175220000D01*
X82430952Y-175196190D01*
X82311904Y-175196190D01*
X82264285Y-175220000D01*
X82240476Y-175243809D01*
X82216666Y-175291428D01*
X82216666Y-175339047D01*
X82240476Y-175410476D01*
X82526190Y-175696190D01*
X82216666Y-175696190D01*
X82050000Y-175196190D02*
X81740476Y-175196190D01*
X81907142Y-175386666D01*
X81835714Y-175386666D01*
X81788095Y-175410476D01*
X81764285Y-175434285D01*
X81740476Y-175481904D01*
X81740476Y-175600952D01*
X81764285Y-175648571D01*
X81788095Y-175672380D01*
X81835714Y-175696190D01*
X81978571Y-175696190D01*
X82026190Y-175672380D01*
X82050000Y-175648571D01*
D12*
X86449285Y-177520224D02*
X86461190Y-177508319D01*
X86473095Y-177472605D01*
X86473095Y-177448795D01*
X86461190Y-177413081D01*
X86437380Y-177389271D01*
X86413571Y-177377366D01*
X86365952Y-177365462D01*
X86330238Y-177365462D01*
X86282619Y-177377366D01*
X86258809Y-177389271D01*
X86235000Y-177413081D01*
X86223095Y-177448795D01*
X86223095Y-177472605D01*
X86235000Y-177508319D01*
X86246904Y-177520224D01*
X86223095Y-177603557D02*
X86223095Y-177758319D01*
X86318333Y-177674986D01*
X86318333Y-177710700D01*
X86330238Y-177734509D01*
X86342142Y-177746414D01*
X86365952Y-177758319D01*
X86425476Y-177758319D01*
X86449285Y-177746414D01*
X86461190Y-177734509D01*
X86473095Y-177710700D01*
X86473095Y-177639271D01*
X86461190Y-177615462D01*
X86449285Y-177603557D01*
X86246904Y-177853557D02*
X86235000Y-177865462D01*
X86223095Y-177889271D01*
X86223095Y-177948795D01*
X86235000Y-177972605D01*
X86246904Y-177984509D01*
X86270714Y-177996414D01*
X86294523Y-177996414D01*
X86330238Y-177984509D01*
X86473095Y-177841652D01*
X86473095Y-177996414D01*
X86223095Y-178210700D02*
X86223095Y-178163081D01*
X86235000Y-178139271D01*
X86246904Y-178127366D01*
X86282619Y-178103557D01*
X86330238Y-178091652D01*
X86425476Y-178091652D01*
X86449285Y-178103557D01*
X86461190Y-178115462D01*
X86473095Y-178139271D01*
X86473095Y-178186890D01*
X86461190Y-178210700D01*
X86449285Y-178222605D01*
X86425476Y-178234509D01*
X86365952Y-178234509D01*
X86342142Y-178222605D01*
X86330238Y-178210700D01*
X86318333Y-178186890D01*
X86318333Y-178139271D01*
X86330238Y-178115462D01*
X86342142Y-178103557D01*
X86365952Y-178091652D01*
X87472809Y-26125476D02*
X87539476Y-26030238D01*
X87587095Y-26125476D02*
X87587095Y-25925476D01*
X87510904Y-25925476D01*
X87491857Y-25935000D01*
X87482333Y-25944523D01*
X87472809Y-25963571D01*
X87472809Y-25992142D01*
X87482333Y-26011190D01*
X87491857Y-26020714D01*
X87510904Y-26030238D01*
X87587095Y-26030238D01*
X87291857Y-25925476D02*
X87387095Y-25925476D01*
X87396619Y-26020714D01*
X87387095Y-26011190D01*
X87368047Y-26001666D01*
X87320428Y-26001666D01*
X87301380Y-26011190D01*
X87291857Y-26020714D01*
X87282333Y-26039761D01*
X87282333Y-26087380D01*
X87291857Y-26106428D01*
X87301380Y-26115952D01*
X87320428Y-26125476D01*
X87368047Y-26125476D01*
X87387095Y-26115952D01*
X87396619Y-26106428D01*
X87158523Y-25925476D02*
X87139476Y-25925476D01*
X87120428Y-25935000D01*
X87110904Y-25944523D01*
X87101380Y-25963571D01*
X87091857Y-26001666D01*
X87091857Y-26049285D01*
X87101380Y-26087380D01*
X87110904Y-26106428D01*
X87120428Y-26115952D01*
X87139476Y-26125476D01*
X87158523Y-26125476D01*
X87177571Y-26115952D01*
X87187095Y-26106428D01*
X87196619Y-26087380D01*
X87206142Y-26049285D01*
X87206142Y-26001666D01*
X87196619Y-25963571D01*
X87187095Y-25944523D01*
X87177571Y-25935000D01*
X87158523Y-25925476D01*
X86901380Y-26125476D02*
X87015666Y-26125476D01*
X86958523Y-26125476D02*
X86958523Y-25925476D01*
X86977571Y-25954047D01*
X86996619Y-25973095D01*
X87015666Y-25982619D01*
D13*
X90812857Y-172656190D02*
X90812857Y-173013333D01*
X90836666Y-173084761D01*
X90884285Y-173132380D01*
X90955714Y-173156190D01*
X91003333Y-173156190D01*
X90336666Y-172656190D02*
X90574761Y-172656190D01*
X90598571Y-172894285D01*
X90574761Y-172870476D01*
X90527142Y-172846666D01*
X90408095Y-172846666D01*
X90360476Y-172870476D01*
X90336666Y-172894285D01*
X90312857Y-172941904D01*
X90312857Y-173060952D01*
X90336666Y-173108571D01*
X90360476Y-173132380D01*
X90408095Y-173156190D01*
X90527142Y-173156190D01*
X90574761Y-173132380D01*
X90598571Y-173108571D01*
X90003333Y-172656190D02*
X89955714Y-172656190D01*
X89908095Y-172680000D01*
X89884285Y-172703809D01*
X89860476Y-172751428D01*
X89836666Y-172846666D01*
X89836666Y-172965714D01*
X89860476Y-173060952D01*
X89884285Y-173108571D01*
X89908095Y-173132380D01*
X89955714Y-173156190D01*
X90003333Y-173156190D01*
X90050952Y-173132380D01*
X90074761Y-173108571D01*
X90098571Y-173060952D01*
X90122380Y-172965714D01*
X90122380Y-172846666D01*
X90098571Y-172751428D01*
X90074761Y-172703809D01*
X90050952Y-172680000D01*
X90003333Y-172656190D01*
X89598571Y-173156190D02*
X89503333Y-173156190D01*
X89455714Y-173132380D01*
X89431904Y-173108571D01*
X89384285Y-173037142D01*
X89360476Y-172941904D01*
X89360476Y-172751428D01*
X89384285Y-172703809D01*
X89408095Y-172680000D01*
X89455714Y-172656190D01*
X89550952Y-172656190D01*
X89598571Y-172680000D01*
X89622380Y-172703809D01*
X89646190Y-172751428D01*
X89646190Y-172870476D01*
X89622380Y-172918095D01*
X89598571Y-172941904D01*
X89550952Y-172965714D01*
X89455714Y-172965714D01*
X89408095Y-172941904D01*
X89384285Y-172918095D01*
X89360476Y-172870476D01*
D12*
X86449285Y-124953276D02*
X86461190Y-124941371D01*
X86473095Y-124905657D01*
X86473095Y-124881847D01*
X86461190Y-124846133D01*
X86437380Y-124822323D01*
X86413571Y-124810418D01*
X86365952Y-124798514D01*
X86330238Y-124798514D01*
X86282619Y-124810418D01*
X86258809Y-124822323D01*
X86235000Y-124846133D01*
X86223095Y-124881847D01*
X86223095Y-124905657D01*
X86235000Y-124941371D01*
X86246904Y-124953276D01*
X86223095Y-125036609D02*
X86223095Y-125191371D01*
X86318333Y-125108038D01*
X86318333Y-125143752D01*
X86330238Y-125167561D01*
X86342142Y-125179466D01*
X86365952Y-125191371D01*
X86425476Y-125191371D01*
X86449285Y-125179466D01*
X86461190Y-125167561D01*
X86473095Y-125143752D01*
X86473095Y-125072323D01*
X86461190Y-125048514D01*
X86449285Y-125036609D01*
X86473095Y-125429466D02*
X86473095Y-125286609D01*
X86473095Y-125358038D02*
X86223095Y-125358038D01*
X86258809Y-125334228D01*
X86282619Y-125310418D01*
X86294523Y-125286609D01*
X86246904Y-125524704D02*
X86235000Y-125536609D01*
X86223095Y-125560418D01*
X86223095Y-125619942D01*
X86235000Y-125643752D01*
X86246904Y-125655657D01*
X86270714Y-125667561D01*
X86294523Y-125667561D01*
X86330238Y-125655657D01*
X86473095Y-125512799D01*
X86473095Y-125667561D01*
D13*
X83192857Y-149796190D02*
X83192857Y-150153333D01*
X83216666Y-150224761D01*
X83264285Y-150272380D01*
X83335714Y-150296190D01*
X83383333Y-150296190D01*
X82978571Y-149843809D02*
X82954761Y-149820000D01*
X82907142Y-149796190D01*
X82788095Y-149796190D01*
X82740476Y-149820000D01*
X82716666Y-149843809D01*
X82692857Y-149891428D01*
X82692857Y-149939047D01*
X82716666Y-150010476D01*
X83002380Y-150296190D01*
X82692857Y-150296190D01*
X82216666Y-150296190D02*
X82502380Y-150296190D01*
X82359523Y-150296190D02*
X82359523Y-149796190D01*
X82407142Y-149867619D01*
X82454761Y-149915238D01*
X82502380Y-149939047D01*
X82026190Y-149843809D02*
X82002380Y-149820000D01*
X81954761Y-149796190D01*
X81835714Y-149796190D01*
X81788095Y-149820000D01*
X81764285Y-149843809D01*
X81740476Y-149891428D01*
X81740476Y-149939047D01*
X81764285Y-150010476D01*
X82050000Y-150296190D01*
X81740476Y-150296190D01*
X90812857Y-165036190D02*
X90812857Y-165393333D01*
X90836666Y-165464761D01*
X90884285Y-165512380D01*
X90955714Y-165536190D01*
X91003333Y-165536190D01*
X90598571Y-165083809D02*
X90574761Y-165060000D01*
X90527142Y-165036190D01*
X90408095Y-165036190D01*
X90360476Y-165060000D01*
X90336666Y-165083809D01*
X90312857Y-165131428D01*
X90312857Y-165179047D01*
X90336666Y-165250476D01*
X90622380Y-165536190D01*
X90312857Y-165536190D01*
X90003333Y-165036190D02*
X89955714Y-165036190D01*
X89908095Y-165060000D01*
X89884285Y-165083809D01*
X89860476Y-165131428D01*
X89836666Y-165226666D01*
X89836666Y-165345714D01*
X89860476Y-165440952D01*
X89884285Y-165488571D01*
X89908095Y-165512380D01*
X89955714Y-165536190D01*
X90003333Y-165536190D01*
X90050952Y-165512380D01*
X90074761Y-165488571D01*
X90098571Y-165440952D01*
X90122380Y-165345714D01*
X90122380Y-165226666D01*
X90098571Y-165131428D01*
X90074761Y-165083809D01*
X90050952Y-165060000D01*
X90003333Y-165036190D01*
X89670000Y-165036190D02*
X89360476Y-165036190D01*
X89527142Y-165226666D01*
X89455714Y-165226666D01*
X89408095Y-165250476D01*
X89384285Y-165274285D01*
X89360476Y-165321904D01*
X89360476Y-165440952D01*
X89384285Y-165488571D01*
X89408095Y-165512380D01*
X89455714Y-165536190D01*
X89598571Y-165536190D01*
X89646190Y-165512380D01*
X89670000Y-165488571D01*
D12*
X86639761Y-29934285D02*
X86651666Y-29946190D01*
X86687380Y-29958095D01*
X86711190Y-29958095D01*
X86746904Y-29946190D01*
X86770714Y-29922380D01*
X86782619Y-29898571D01*
X86794523Y-29850952D01*
X86794523Y-29815238D01*
X86782619Y-29767619D01*
X86770714Y-29743809D01*
X86746904Y-29720000D01*
X86711190Y-29708095D01*
X86687380Y-29708095D01*
X86651666Y-29720000D01*
X86639761Y-29731904D01*
X86413571Y-29708095D02*
X86532619Y-29708095D01*
X86544523Y-29827142D01*
X86532619Y-29815238D01*
X86508809Y-29803333D01*
X86449285Y-29803333D01*
X86425476Y-29815238D01*
X86413571Y-29827142D01*
X86401666Y-29850952D01*
X86401666Y-29910476D01*
X86413571Y-29934285D01*
X86425476Y-29946190D01*
X86449285Y-29958095D01*
X86508809Y-29958095D01*
X86532619Y-29946190D01*
X86544523Y-29934285D01*
X86246904Y-29708095D02*
X86223095Y-29708095D01*
X86199285Y-29720000D01*
X86187380Y-29731904D01*
X86175476Y-29755714D01*
X86163571Y-29803333D01*
X86163571Y-29862857D01*
X86175476Y-29910476D01*
X86187380Y-29934285D01*
X86199285Y-29946190D01*
X86223095Y-29958095D01*
X86246904Y-29958095D01*
X86270714Y-29946190D01*
X86282619Y-29934285D01*
X86294523Y-29910476D01*
X86306428Y-29862857D01*
X86306428Y-29803333D01*
X86294523Y-29755714D01*
X86282619Y-29731904D01*
X86270714Y-29720000D01*
X86246904Y-29708095D01*
X86068333Y-29731904D02*
X86056428Y-29720000D01*
X86032619Y-29708095D01*
X85973095Y-29708095D01*
X85949285Y-29720000D01*
X85937380Y-29731904D01*
X85925476Y-29755714D01*
X85925476Y-29779523D01*
X85937380Y-29815238D01*
X86080238Y-29958095D01*
X85925476Y-29958095D01*
D13*
X83192857Y-119316190D02*
X83192857Y-119673333D01*
X83216666Y-119744761D01*
X83264285Y-119792380D01*
X83335714Y-119816190D01*
X83383333Y-119816190D01*
X82978571Y-119363809D02*
X82954761Y-119340000D01*
X82907142Y-119316190D01*
X82788095Y-119316190D01*
X82740476Y-119340000D01*
X82716666Y-119363809D01*
X82692857Y-119411428D01*
X82692857Y-119459047D01*
X82716666Y-119530476D01*
X83002380Y-119816190D01*
X82692857Y-119816190D01*
X82216666Y-119816190D02*
X82502380Y-119816190D01*
X82359523Y-119816190D02*
X82359523Y-119316190D01*
X82407142Y-119387619D01*
X82454761Y-119435238D01*
X82502380Y-119459047D01*
X81907142Y-119316190D02*
X81859523Y-119316190D01*
X81811904Y-119340000D01*
X81788095Y-119363809D01*
X81764285Y-119411428D01*
X81740476Y-119506666D01*
X81740476Y-119625714D01*
X81764285Y-119720952D01*
X81788095Y-119768571D01*
X81811904Y-119792380D01*
X81859523Y-119816190D01*
X81907142Y-119816190D01*
X81954761Y-119792380D01*
X81978571Y-119768571D01*
X82002380Y-119720952D01*
X82026190Y-119625714D01*
X82026190Y-119506666D01*
X82002380Y-119411428D01*
X81978571Y-119363809D01*
X81954761Y-119340000D01*
X81907142Y-119316190D01*
D11*
X89176990Y-20109761D02*
X88676990Y-20109761D01*
X88676990Y-20228809D01*
X88700800Y-20300238D01*
X88748419Y-20347857D01*
X88796038Y-20371666D01*
X88891276Y-20395476D01*
X88962704Y-20395476D01*
X89057942Y-20371666D01*
X89105561Y-20347857D01*
X89153180Y-20300238D01*
X89176990Y-20228809D01*
X89176990Y-20109761D01*
X88676990Y-20847857D02*
X88676990Y-20609761D01*
X88915085Y-20585952D01*
X88891276Y-20609761D01*
X88867466Y-20657380D01*
X88867466Y-20776428D01*
X88891276Y-20824047D01*
X88915085Y-20847857D01*
X88962704Y-20871666D01*
X89081752Y-20871666D01*
X89129371Y-20847857D01*
X89153180Y-20824047D01*
X89176990Y-20776428D01*
X89176990Y-20657380D01*
X89153180Y-20609761D01*
X89129371Y-20585952D01*
X88676990Y-21181190D02*
X88676990Y-21228809D01*
X88700800Y-21276428D01*
X88724609Y-21300238D01*
X88772228Y-21324047D01*
X88867466Y-21347857D01*
X88986514Y-21347857D01*
X89081752Y-21324047D01*
X89129371Y-21300238D01*
X89153180Y-21276428D01*
X89176990Y-21228809D01*
X89176990Y-21181190D01*
X89153180Y-21133571D01*
X89129371Y-21109761D01*
X89081752Y-21085952D01*
X88986514Y-21062142D01*
X88867466Y-21062142D01*
X88772228Y-21085952D01*
X88724609Y-21109761D01*
X88700800Y-21133571D01*
X88676990Y-21181190D01*
X89176990Y-21824047D02*
X89176990Y-21538333D01*
X89176990Y-21681190D02*
X88676990Y-21681190D01*
X88748419Y-21633571D01*
X88796038Y-21585952D01*
X88819847Y-21538333D01*
D13*
X83192857Y-25336190D02*
X83192857Y-25693333D01*
X83216666Y-25764761D01*
X83264285Y-25812380D01*
X83335714Y-25836190D01*
X83383333Y-25836190D01*
X82716666Y-25336190D02*
X82954761Y-25336190D01*
X82978571Y-25574285D01*
X82954761Y-25550476D01*
X82907142Y-25526666D01*
X82788095Y-25526666D01*
X82740476Y-25550476D01*
X82716666Y-25574285D01*
X82692857Y-25621904D01*
X82692857Y-25740952D01*
X82716666Y-25788571D01*
X82740476Y-25812380D01*
X82788095Y-25836190D01*
X82907142Y-25836190D01*
X82954761Y-25812380D01*
X82978571Y-25788571D01*
X82383333Y-25336190D02*
X82335714Y-25336190D01*
X82288095Y-25360000D01*
X82264285Y-25383809D01*
X82240476Y-25431428D01*
X82216666Y-25526666D01*
X82216666Y-25645714D01*
X82240476Y-25740952D01*
X82264285Y-25788571D01*
X82288095Y-25812380D01*
X82335714Y-25836190D01*
X82383333Y-25836190D01*
X82430952Y-25812380D01*
X82454761Y-25788571D01*
X82478571Y-25740952D01*
X82502380Y-25645714D01*
X82502380Y-25526666D01*
X82478571Y-25431428D01*
X82454761Y-25383809D01*
X82430952Y-25360000D01*
X82383333Y-25336190D01*
X82026190Y-25383809D02*
X82002380Y-25360000D01*
X81954761Y-25336190D01*
X81835714Y-25336190D01*
X81788095Y-25360000D01*
X81764285Y-25383809D01*
X81740476Y-25431428D01*
X81740476Y-25479047D01*
X81764285Y-25550476D01*
X82050000Y-25836190D01*
X81740476Y-25836190D01*
X83192857Y-104076190D02*
X83192857Y-104433333D01*
X83216666Y-104504761D01*
X83264285Y-104552380D01*
X83335714Y-104576190D01*
X83383333Y-104576190D01*
X82978571Y-104123809D02*
X82954761Y-104100000D01*
X82907142Y-104076190D01*
X82788095Y-104076190D01*
X82740476Y-104100000D01*
X82716666Y-104123809D01*
X82692857Y-104171428D01*
X82692857Y-104219047D01*
X82716666Y-104290476D01*
X83002380Y-104576190D01*
X82692857Y-104576190D01*
X82383333Y-104076190D02*
X82335714Y-104076190D01*
X82288095Y-104100000D01*
X82264285Y-104123809D01*
X82240476Y-104171428D01*
X82216666Y-104266666D01*
X82216666Y-104385714D01*
X82240476Y-104480952D01*
X82264285Y-104528571D01*
X82288095Y-104552380D01*
X82335714Y-104576190D01*
X82383333Y-104576190D01*
X82430952Y-104552380D01*
X82454761Y-104528571D01*
X82478571Y-104480952D01*
X82502380Y-104385714D01*
X82502380Y-104266666D01*
X82478571Y-104171428D01*
X82454761Y-104123809D01*
X82430952Y-104100000D01*
X82383333Y-104076190D01*
X81978571Y-104576190D02*
X81883333Y-104576190D01*
X81835714Y-104552380D01*
X81811904Y-104528571D01*
X81764285Y-104457142D01*
X81740476Y-104361904D01*
X81740476Y-104171428D01*
X81764285Y-104123809D01*
X81788095Y-104100000D01*
X81835714Y-104076190D01*
X81930952Y-104076190D01*
X81978571Y-104100000D01*
X82002380Y-104123809D01*
X82026190Y-104171428D01*
X82026190Y-104290476D01*
X82002380Y-104338095D01*
X81978571Y-104361904D01*
X81930952Y-104385714D01*
X81835714Y-104385714D01*
X81788095Y-104361904D01*
X81764285Y-104338095D01*
X81740476Y-104290476D01*
X83192857Y-35496190D02*
X83192857Y-35853333D01*
X83216666Y-35924761D01*
X83264285Y-35972380D01*
X83335714Y-35996190D01*
X83383333Y-35996190D01*
X82978571Y-35543809D02*
X82954761Y-35520000D01*
X82907142Y-35496190D01*
X82788095Y-35496190D01*
X82740476Y-35520000D01*
X82716666Y-35543809D01*
X82692857Y-35591428D01*
X82692857Y-35639047D01*
X82716666Y-35710476D01*
X83002380Y-35996190D01*
X82692857Y-35996190D01*
X82502380Y-35543809D02*
X82478571Y-35520000D01*
X82430952Y-35496190D01*
X82311904Y-35496190D01*
X82264285Y-35520000D01*
X82240476Y-35543809D01*
X82216666Y-35591428D01*
X82216666Y-35639047D01*
X82240476Y-35710476D01*
X82526190Y-35996190D01*
X82216666Y-35996190D01*
X82026190Y-35543809D02*
X82002380Y-35520000D01*
X81954761Y-35496190D01*
X81835714Y-35496190D01*
X81788095Y-35520000D01*
X81764285Y-35543809D01*
X81740476Y-35591428D01*
X81740476Y-35639047D01*
X81764285Y-35710476D01*
X82050000Y-35996190D01*
X81740476Y-35996190D01*
X83192857Y-27876190D02*
X83192857Y-28233333D01*
X83216666Y-28304761D01*
X83264285Y-28352380D01*
X83335714Y-28376190D01*
X83383333Y-28376190D01*
X82716666Y-27876190D02*
X82954761Y-27876190D01*
X82978571Y-28114285D01*
X82954761Y-28090476D01*
X82907142Y-28066666D01*
X82788095Y-28066666D01*
X82740476Y-28090476D01*
X82716666Y-28114285D01*
X82692857Y-28161904D01*
X82692857Y-28280952D01*
X82716666Y-28328571D01*
X82740476Y-28352380D01*
X82788095Y-28376190D01*
X82907142Y-28376190D01*
X82954761Y-28352380D01*
X82978571Y-28328571D01*
X82383333Y-27876190D02*
X82335714Y-27876190D01*
X82288095Y-27900000D01*
X82264285Y-27923809D01*
X82240476Y-27971428D01*
X82216666Y-28066666D01*
X82216666Y-28185714D01*
X82240476Y-28280952D01*
X82264285Y-28328571D01*
X82288095Y-28352380D01*
X82335714Y-28376190D01*
X82383333Y-28376190D01*
X82430952Y-28352380D01*
X82454761Y-28328571D01*
X82478571Y-28280952D01*
X82502380Y-28185714D01*
X82502380Y-28066666D01*
X82478571Y-27971428D01*
X82454761Y-27923809D01*
X82430952Y-27900000D01*
X82383333Y-27876190D01*
X81788095Y-28042857D02*
X81788095Y-28376190D01*
X81907142Y-27852380D02*
X82026190Y-28209523D01*
X81716666Y-28209523D01*
D14*
X82122373Y-70962987D02*
X82132475Y-70962987D01*
X82152678Y-70952886D01*
X82162779Y-70942784D01*
X82172881Y-70922581D01*
X82172881Y-70902378D01*
X82167830Y-70887226D01*
X82152678Y-70861972D01*
X82137525Y-70846820D01*
X82112272Y-70831667D01*
X82097119Y-70826617D01*
X82076916Y-70826617D01*
X82056713Y-70836718D01*
X82046612Y-70846820D01*
X82036510Y-70867023D01*
X82036510Y-70877124D01*
X81996104Y-70917530D02*
X81986003Y-70917530D01*
X81970850Y-70922581D01*
X81945596Y-70947835D01*
X81940546Y-70962987D01*
X81940546Y-70973089D01*
X81945596Y-70988241D01*
X81955698Y-70998343D01*
X81975901Y-71008444D01*
X82097119Y-71008444D01*
X82031459Y-71074104D01*
X81859733Y-71033698D02*
X81849632Y-71043800D01*
X81844581Y-71058952D01*
X81844581Y-71069053D01*
X81849632Y-71084206D01*
X81864784Y-71109459D01*
X81890038Y-71134713D01*
X81915292Y-71149866D01*
X81930444Y-71154916D01*
X81940546Y-71154916D01*
X81955698Y-71149866D01*
X81965800Y-71139764D01*
X81970850Y-71124612D01*
X81970850Y-71114510D01*
X81965800Y-71099358D01*
X81950647Y-71074104D01*
X81925393Y-71048850D01*
X81900140Y-71033698D01*
X81884987Y-71028647D01*
X81874886Y-71028647D01*
X81859733Y-71033698D01*
X81829429Y-71276135D02*
X81890038Y-71215525D01*
X81859733Y-71245830D02*
X81753667Y-71139764D01*
X81778921Y-71144815D01*
X81799124Y-71144815D01*
X81814277Y-71139764D01*
D13*
X90812857Y-25336190D02*
X90812857Y-25693333D01*
X90836666Y-25764761D01*
X90884285Y-25812380D01*
X90955714Y-25836190D01*
X91003333Y-25836190D01*
X90336666Y-25336190D02*
X90574761Y-25336190D01*
X90598571Y-25574285D01*
X90574761Y-25550476D01*
X90527142Y-25526666D01*
X90408095Y-25526666D01*
X90360476Y-25550476D01*
X90336666Y-25574285D01*
X90312857Y-25621904D01*
X90312857Y-25740952D01*
X90336666Y-25788571D01*
X90360476Y-25812380D01*
X90408095Y-25836190D01*
X90527142Y-25836190D01*
X90574761Y-25812380D01*
X90598571Y-25788571D01*
X90003333Y-25336190D02*
X89955714Y-25336190D01*
X89908095Y-25360000D01*
X89884285Y-25383809D01*
X89860476Y-25431428D01*
X89836666Y-25526666D01*
X89836666Y-25645714D01*
X89860476Y-25740952D01*
X89884285Y-25788571D01*
X89908095Y-25812380D01*
X89955714Y-25836190D01*
X90003333Y-25836190D01*
X90050952Y-25812380D01*
X90074761Y-25788571D01*
X90098571Y-25740952D01*
X90122380Y-25645714D01*
X90122380Y-25526666D01*
X90098571Y-25431428D01*
X90074761Y-25383809D01*
X90050952Y-25360000D01*
X90003333Y-25336190D01*
X89360476Y-25836190D02*
X89646190Y-25836190D01*
X89503333Y-25836190D02*
X89503333Y-25336190D01*
X89550952Y-25407619D01*
X89598571Y-25455238D01*
X89646190Y-25479047D01*
D12*
X85313809Y-37809476D02*
X85380476Y-37714238D01*
X85428095Y-37809476D02*
X85428095Y-37609476D01*
X85351904Y-37609476D01*
X85332857Y-37619000D01*
X85323333Y-37628523D01*
X85313809Y-37647571D01*
X85313809Y-37676142D01*
X85323333Y-37695190D01*
X85332857Y-37704714D01*
X85351904Y-37714238D01*
X85428095Y-37714238D01*
X85237619Y-37628523D02*
X85228095Y-37619000D01*
X85209047Y-37609476D01*
X85161428Y-37609476D01*
X85142380Y-37619000D01*
X85132857Y-37628523D01*
X85123333Y-37647571D01*
X85123333Y-37666619D01*
X85132857Y-37695190D01*
X85247142Y-37809476D01*
X85123333Y-37809476D01*
X84999523Y-37609476D02*
X84980476Y-37609476D01*
X84961428Y-37619000D01*
X84951904Y-37628523D01*
X84942380Y-37647571D01*
X84932857Y-37685666D01*
X84932857Y-37733285D01*
X84942380Y-37771380D01*
X84951904Y-37790428D01*
X84961428Y-37799952D01*
X84980476Y-37809476D01*
X84999523Y-37809476D01*
X85018571Y-37799952D01*
X85028095Y-37790428D01*
X85037619Y-37771380D01*
X85047142Y-37733285D01*
X85047142Y-37685666D01*
X85037619Y-37647571D01*
X85028095Y-37628523D01*
X85018571Y-37619000D01*
X84999523Y-37609476D01*
X84818571Y-37695190D02*
X84837619Y-37685666D01*
X84847142Y-37676142D01*
X84856666Y-37657095D01*
X84856666Y-37647571D01*
X84847142Y-37628523D01*
X84837619Y-37619000D01*
X84818571Y-37609476D01*
X84780476Y-37609476D01*
X84761428Y-37619000D01*
X84751904Y-37628523D01*
X84742380Y-37647571D01*
X84742380Y-37657095D01*
X84751904Y-37676142D01*
X84761428Y-37685666D01*
X84780476Y-37695190D01*
X84818571Y-37695190D01*
X84837619Y-37704714D01*
X84847142Y-37714238D01*
X84856666Y-37733285D01*
X84856666Y-37771380D01*
X84847142Y-37790428D01*
X84837619Y-37799952D01*
X84818571Y-37809476D01*
X84780476Y-37809476D01*
X84761428Y-37799952D01*
X84751904Y-37790428D01*
X84742380Y-37771380D01*
X84742380Y-37733285D01*
X84751904Y-37714238D01*
X84761428Y-37704714D01*
X84780476Y-37695190D01*
X86449285Y-91160238D02*
X86461190Y-91148333D01*
X86473095Y-91112619D01*
X86473095Y-91088809D01*
X86461190Y-91053095D01*
X86437380Y-91029285D01*
X86413571Y-91017380D01*
X86365952Y-91005476D01*
X86330238Y-91005476D01*
X86282619Y-91017380D01*
X86258809Y-91029285D01*
X86235000Y-91053095D01*
X86223095Y-91088809D01*
X86223095Y-91112619D01*
X86235000Y-91148333D01*
X86246904Y-91160238D01*
X86223095Y-91243571D02*
X86223095Y-91398333D01*
X86318333Y-91315000D01*
X86318333Y-91350714D01*
X86330238Y-91374523D01*
X86342142Y-91386428D01*
X86365952Y-91398333D01*
X86425476Y-91398333D01*
X86449285Y-91386428D01*
X86461190Y-91374523D01*
X86473095Y-91350714D01*
X86473095Y-91279285D01*
X86461190Y-91255476D01*
X86449285Y-91243571D01*
X86223095Y-91553095D02*
X86223095Y-91576904D01*
X86235000Y-91600714D01*
X86246904Y-91612619D01*
X86270714Y-91624523D01*
X86318333Y-91636428D01*
X86377857Y-91636428D01*
X86425476Y-91624523D01*
X86449285Y-91612619D01*
X86461190Y-91600714D01*
X86473095Y-91576904D01*
X86473095Y-91553095D01*
X86461190Y-91529285D01*
X86449285Y-91517380D01*
X86425476Y-91505476D01*
X86377857Y-91493571D01*
X86318333Y-91493571D01*
X86270714Y-91505476D01*
X86246904Y-91517380D01*
X86235000Y-91529285D01*
X86223095Y-91553095D01*
X86223095Y-91719761D02*
X86223095Y-91874523D01*
X86318333Y-91791190D01*
X86318333Y-91826904D01*
X86330238Y-91850714D01*
X86342142Y-91862619D01*
X86365952Y-91874523D01*
X86425476Y-91874523D01*
X86449285Y-91862619D01*
X86461190Y-91850714D01*
X86473095Y-91826904D01*
X86473095Y-91755476D01*
X86461190Y-91731666D01*
X86449285Y-91719761D01*
D13*
X90812857Y-27876190D02*
X90812857Y-28233333D01*
X90836666Y-28304761D01*
X90884285Y-28352380D01*
X90955714Y-28376190D01*
X91003333Y-28376190D01*
X90336666Y-27876190D02*
X90574761Y-27876190D01*
X90598571Y-28114285D01*
X90574761Y-28090476D01*
X90527142Y-28066666D01*
X90408095Y-28066666D01*
X90360476Y-28090476D01*
X90336666Y-28114285D01*
X90312857Y-28161904D01*
X90312857Y-28280952D01*
X90336666Y-28328571D01*
X90360476Y-28352380D01*
X90408095Y-28376190D01*
X90527142Y-28376190D01*
X90574761Y-28352380D01*
X90598571Y-28328571D01*
X90003333Y-27876190D02*
X89955714Y-27876190D01*
X89908095Y-27900000D01*
X89884285Y-27923809D01*
X89860476Y-27971428D01*
X89836666Y-28066666D01*
X89836666Y-28185714D01*
X89860476Y-28280952D01*
X89884285Y-28328571D01*
X89908095Y-28352380D01*
X89955714Y-28376190D01*
X90003333Y-28376190D01*
X90050952Y-28352380D01*
X90074761Y-28328571D01*
X90098571Y-28280952D01*
X90122380Y-28185714D01*
X90122380Y-28066666D01*
X90098571Y-27971428D01*
X90074761Y-27923809D01*
X90050952Y-27900000D01*
X90003333Y-27876190D01*
X89670000Y-27876190D02*
X89360476Y-27876190D01*
X89527142Y-28066666D01*
X89455714Y-28066666D01*
X89408095Y-28090476D01*
X89384285Y-28114285D01*
X89360476Y-28161904D01*
X89360476Y-28280952D01*
X89384285Y-28328571D01*
X89408095Y-28352380D01*
X89455714Y-28376190D01*
X89598571Y-28376190D01*
X89646190Y-28352380D01*
X89670000Y-28328571D01*
D12*
X86449285Y-102424584D02*
X86461190Y-102412679D01*
X86473095Y-102376965D01*
X86473095Y-102353155D01*
X86461190Y-102317441D01*
X86437380Y-102293631D01*
X86413571Y-102281726D01*
X86365952Y-102269822D01*
X86330238Y-102269822D01*
X86282619Y-102281726D01*
X86258809Y-102293631D01*
X86235000Y-102317441D01*
X86223095Y-102353155D01*
X86223095Y-102376965D01*
X86235000Y-102412679D01*
X86246904Y-102424584D01*
X86223095Y-102507917D02*
X86223095Y-102662679D01*
X86318333Y-102579346D01*
X86318333Y-102615060D01*
X86330238Y-102638869D01*
X86342142Y-102650774D01*
X86365952Y-102662679D01*
X86425476Y-102662679D01*
X86449285Y-102650774D01*
X86461190Y-102638869D01*
X86473095Y-102615060D01*
X86473095Y-102543631D01*
X86461190Y-102519822D01*
X86449285Y-102507917D01*
X86223095Y-102817441D02*
X86223095Y-102841250D01*
X86235000Y-102865060D01*
X86246904Y-102876965D01*
X86270714Y-102888869D01*
X86318333Y-102900774D01*
X86377857Y-102900774D01*
X86425476Y-102888869D01*
X86449285Y-102876965D01*
X86461190Y-102865060D01*
X86473095Y-102841250D01*
X86473095Y-102817441D01*
X86461190Y-102793631D01*
X86449285Y-102781726D01*
X86425476Y-102769822D01*
X86377857Y-102757917D01*
X86318333Y-102757917D01*
X86270714Y-102769822D01*
X86246904Y-102781726D01*
X86235000Y-102793631D01*
X86223095Y-102817441D01*
X86223095Y-103115060D02*
X86223095Y-103067441D01*
X86235000Y-103043631D01*
X86246904Y-103031726D01*
X86282619Y-103007917D01*
X86330238Y-102996012D01*
X86425476Y-102996012D01*
X86449285Y-103007917D01*
X86461190Y-103019822D01*
X86473095Y-103043631D01*
X86473095Y-103091250D01*
X86461190Y-103115060D01*
X86449285Y-103126965D01*
X86425476Y-103138869D01*
X86365952Y-103138869D01*
X86342142Y-103126965D01*
X86330238Y-103115060D01*
X86318333Y-103091250D01*
X86318333Y-103043631D01*
X86330238Y-103019822D01*
X86342142Y-103007917D01*
X86365952Y-102996012D01*
D13*
X90812857Y-32956190D02*
X90812857Y-33313333D01*
X90836666Y-33384761D01*
X90884285Y-33432380D01*
X90955714Y-33456190D01*
X91003333Y-33456190D01*
X90336666Y-32956190D02*
X90574761Y-32956190D01*
X90598571Y-33194285D01*
X90574761Y-33170476D01*
X90527142Y-33146666D01*
X90408095Y-33146666D01*
X90360476Y-33170476D01*
X90336666Y-33194285D01*
X90312857Y-33241904D01*
X90312857Y-33360952D01*
X90336666Y-33408571D01*
X90360476Y-33432380D01*
X90408095Y-33456190D01*
X90527142Y-33456190D01*
X90574761Y-33432380D01*
X90598571Y-33408571D01*
X90003333Y-32956190D02*
X89955714Y-32956190D01*
X89908095Y-32980000D01*
X89884285Y-33003809D01*
X89860476Y-33051428D01*
X89836666Y-33146666D01*
X89836666Y-33265714D01*
X89860476Y-33360952D01*
X89884285Y-33408571D01*
X89908095Y-33432380D01*
X89955714Y-33456190D01*
X90003333Y-33456190D01*
X90050952Y-33432380D01*
X90074761Y-33408571D01*
X90098571Y-33360952D01*
X90122380Y-33265714D01*
X90122380Y-33146666D01*
X90098571Y-33051428D01*
X90074761Y-33003809D01*
X90050952Y-32980000D01*
X90003333Y-32956190D01*
X89670000Y-32956190D02*
X89336666Y-32956190D01*
X89550952Y-33456190D01*
X83192857Y-134556190D02*
X83192857Y-134913333D01*
X83216666Y-134984761D01*
X83264285Y-135032380D01*
X83335714Y-135056190D01*
X83383333Y-135056190D01*
X82978571Y-134603809D02*
X82954761Y-134580000D01*
X82907142Y-134556190D01*
X82788095Y-134556190D01*
X82740476Y-134580000D01*
X82716666Y-134603809D01*
X82692857Y-134651428D01*
X82692857Y-134699047D01*
X82716666Y-134770476D01*
X83002380Y-135056190D01*
X82692857Y-135056190D01*
X82216666Y-135056190D02*
X82502380Y-135056190D01*
X82359523Y-135056190D02*
X82359523Y-134556190D01*
X82407142Y-134627619D01*
X82454761Y-134675238D01*
X82502380Y-134699047D01*
X81740476Y-135056190D02*
X82026190Y-135056190D01*
X81883333Y-135056190D02*
X81883333Y-134556190D01*
X81930952Y-134627619D01*
X81978571Y-134675238D01*
X82026190Y-134699047D01*
X90812857Y-175196190D02*
X90812857Y-175553333D01*
X90836666Y-175624761D01*
X90884285Y-175672380D01*
X90955714Y-175696190D01*
X91003333Y-175696190D01*
X90598571Y-175243809D02*
X90574761Y-175220000D01*
X90527142Y-175196190D01*
X90408095Y-175196190D01*
X90360476Y-175220000D01*
X90336666Y-175243809D01*
X90312857Y-175291428D01*
X90312857Y-175339047D01*
X90336666Y-175410476D01*
X90622380Y-175696190D01*
X90312857Y-175696190D01*
X90122380Y-175243809D02*
X90098571Y-175220000D01*
X90050952Y-175196190D01*
X89931904Y-175196190D01*
X89884285Y-175220000D01*
X89860476Y-175243809D01*
X89836666Y-175291428D01*
X89836666Y-175339047D01*
X89860476Y-175410476D01*
X90146190Y-175696190D01*
X89836666Y-175696190D01*
X89408095Y-175362857D02*
X89408095Y-175696190D01*
X89527142Y-175172380D02*
X89646190Y-175529523D01*
X89336666Y-175529523D01*
D12*
X86642579Y-70578951D02*
X86659414Y-70578951D01*
X86693086Y-70562116D01*
X86709922Y-70545280D01*
X86726758Y-70511608D01*
X86726758Y-70477936D01*
X86718340Y-70452682D01*
X86693086Y-70410593D01*
X86667832Y-70385339D01*
X86625743Y-70360085D01*
X86600489Y-70351667D01*
X86566817Y-70351667D01*
X86533145Y-70368503D01*
X86516310Y-70385339D01*
X86499474Y-70419011D01*
X86499474Y-70435847D01*
X86432130Y-70503190D02*
X86415294Y-70503190D01*
X86390040Y-70511608D01*
X86347951Y-70553698D01*
X86339533Y-70578951D01*
X86339533Y-70595787D01*
X86347951Y-70621041D01*
X86364787Y-70637877D01*
X86398458Y-70654713D01*
X86600489Y-70654713D01*
X86491056Y-70764146D01*
X86204846Y-70696803D02*
X86188010Y-70713639D01*
X86179592Y-70738892D01*
X86179592Y-70755728D01*
X86188010Y-70780982D01*
X86213264Y-70823072D01*
X86255353Y-70865161D01*
X86297443Y-70890415D01*
X86322697Y-70898833D01*
X86339533Y-70898833D01*
X86364787Y-70890415D01*
X86381623Y-70873579D01*
X86390040Y-70848326D01*
X86390040Y-70831490D01*
X86381623Y-70806236D01*
X86356369Y-70764146D01*
X86314279Y-70722056D01*
X86272189Y-70696803D01*
X86246935Y-70688385D01*
X86230100Y-70688385D01*
X86204846Y-70696803D01*
X85994397Y-70907251D02*
X86028069Y-70873579D01*
X86053323Y-70865161D01*
X86070159Y-70865161D01*
X86112248Y-70873579D01*
X86154338Y-70898833D01*
X86221682Y-70966177D01*
X86230100Y-70991430D01*
X86230100Y-71008266D01*
X86221682Y-71033520D01*
X86188010Y-71067192D01*
X86162756Y-71075610D01*
X86145920Y-71075610D01*
X86120666Y-71067192D01*
X86078577Y-71025102D01*
X86070159Y-70999848D01*
X86070159Y-70983013D01*
X86078577Y-70957759D01*
X86112248Y-70924087D01*
X86137502Y-70915669D01*
X86154338Y-70915669D01*
X86179592Y-70924087D01*
X86449285Y-154991532D02*
X86461190Y-154979627D01*
X86473095Y-154943913D01*
X86473095Y-154920103D01*
X86461190Y-154884389D01*
X86437380Y-154860579D01*
X86413571Y-154848674D01*
X86365952Y-154836770D01*
X86330238Y-154836770D01*
X86282619Y-154848674D01*
X86258809Y-154860579D01*
X86235000Y-154884389D01*
X86223095Y-154920103D01*
X86223095Y-154943913D01*
X86235000Y-154979627D01*
X86246904Y-154991532D01*
X86223095Y-155074865D02*
X86223095Y-155229627D01*
X86318333Y-155146294D01*
X86318333Y-155182008D01*
X86330238Y-155205817D01*
X86342142Y-155217722D01*
X86365952Y-155229627D01*
X86425476Y-155229627D01*
X86449285Y-155217722D01*
X86461190Y-155205817D01*
X86473095Y-155182008D01*
X86473095Y-155110579D01*
X86461190Y-155086770D01*
X86449285Y-155074865D01*
X86246904Y-155324865D02*
X86235000Y-155336770D01*
X86223095Y-155360579D01*
X86223095Y-155420103D01*
X86235000Y-155443913D01*
X86246904Y-155455817D01*
X86270714Y-155467722D01*
X86294523Y-155467722D01*
X86330238Y-155455817D01*
X86473095Y-155312960D01*
X86473095Y-155467722D01*
X86223095Y-155622484D02*
X86223095Y-155646294D01*
X86235000Y-155670103D01*
X86246904Y-155682008D01*
X86270714Y-155693913D01*
X86318333Y-155705817D01*
X86377857Y-155705817D01*
X86425476Y-155693913D01*
X86449285Y-155682008D01*
X86461190Y-155670103D01*
X86473095Y-155646294D01*
X86473095Y-155622484D01*
X86461190Y-155598674D01*
X86449285Y-155586770D01*
X86425476Y-155574865D01*
X86377857Y-155562960D01*
X86318333Y-155562960D01*
X86270714Y-155574865D01*
X86246904Y-155586770D01*
X86235000Y-155598674D01*
X86223095Y-155622484D01*
D11*
X86535390Y-19474761D02*
X86035390Y-19474761D01*
X86035390Y-19593809D01*
X86059200Y-19665238D01*
X86106819Y-19712857D01*
X86154438Y-19736666D01*
X86249676Y-19760476D01*
X86321104Y-19760476D01*
X86416342Y-19736666D01*
X86463961Y-19712857D01*
X86511580Y-19665238D01*
X86535390Y-19593809D01*
X86535390Y-19474761D01*
X86035390Y-20212857D02*
X86035390Y-19974761D01*
X86273485Y-19950952D01*
X86249676Y-19974761D01*
X86225866Y-20022380D01*
X86225866Y-20141428D01*
X86249676Y-20189047D01*
X86273485Y-20212857D01*
X86321104Y-20236666D01*
X86440152Y-20236666D01*
X86487771Y-20212857D01*
X86511580Y-20189047D01*
X86535390Y-20141428D01*
X86535390Y-20022380D01*
X86511580Y-19974761D01*
X86487771Y-19950952D01*
X86035390Y-20546190D02*
X86035390Y-20593809D01*
X86059200Y-20641428D01*
X86083009Y-20665238D01*
X86130628Y-20689047D01*
X86225866Y-20712857D01*
X86344914Y-20712857D01*
X86440152Y-20689047D01*
X86487771Y-20665238D01*
X86511580Y-20641428D01*
X86535390Y-20593809D01*
X86535390Y-20546190D01*
X86511580Y-20498571D01*
X86487771Y-20474761D01*
X86440152Y-20450952D01*
X86344914Y-20427142D01*
X86225866Y-20427142D01*
X86130628Y-20450952D01*
X86083009Y-20474761D01*
X86059200Y-20498571D01*
X86035390Y-20546190D01*
X86083009Y-20903333D02*
X86059200Y-20927142D01*
X86035390Y-20974761D01*
X86035390Y-21093809D01*
X86059200Y-21141428D01*
X86083009Y-21165238D01*
X86130628Y-21189047D01*
X86178247Y-21189047D01*
X86249676Y-21165238D01*
X86535390Y-20879523D01*
X86535390Y-21189047D01*
D13*
X83192857Y-73596190D02*
X83192857Y-73953333D01*
X83216666Y-74024761D01*
X83264285Y-74072380D01*
X83335714Y-74096190D01*
X83383333Y-74096190D01*
X82978571Y-73643809D02*
X82954761Y-73620000D01*
X82907142Y-73596190D01*
X82788095Y-73596190D01*
X82740476Y-73620000D01*
X82716666Y-73643809D01*
X82692857Y-73691428D01*
X82692857Y-73739047D01*
X82716666Y-73810476D01*
X83002380Y-74096190D01*
X82692857Y-74096190D01*
X82383333Y-73596190D02*
X82335714Y-73596190D01*
X82288095Y-73620000D01*
X82264285Y-73643809D01*
X82240476Y-73691428D01*
X82216666Y-73786666D01*
X82216666Y-73905714D01*
X82240476Y-74000952D01*
X82264285Y-74048571D01*
X82288095Y-74072380D01*
X82335714Y-74096190D01*
X82383333Y-74096190D01*
X82430952Y-74072380D01*
X82454761Y-74048571D01*
X82478571Y-74000952D01*
X82502380Y-73905714D01*
X82502380Y-73786666D01*
X82478571Y-73691428D01*
X82454761Y-73643809D01*
X82430952Y-73620000D01*
X82383333Y-73596190D01*
X82050000Y-73596190D02*
X81716666Y-73596190D01*
X81930952Y-74096190D01*
D12*
X86449285Y-162501096D02*
X86461190Y-162489191D01*
X86473095Y-162453477D01*
X86473095Y-162429667D01*
X86461190Y-162393953D01*
X86437380Y-162370143D01*
X86413571Y-162358238D01*
X86365952Y-162346334D01*
X86330238Y-162346334D01*
X86282619Y-162358238D01*
X86258809Y-162370143D01*
X86235000Y-162393953D01*
X86223095Y-162429667D01*
X86223095Y-162453477D01*
X86235000Y-162489191D01*
X86246904Y-162501096D01*
X86223095Y-162584429D02*
X86223095Y-162739191D01*
X86318333Y-162655858D01*
X86318333Y-162691572D01*
X86330238Y-162715381D01*
X86342142Y-162727286D01*
X86365952Y-162739191D01*
X86425476Y-162739191D01*
X86449285Y-162727286D01*
X86461190Y-162715381D01*
X86473095Y-162691572D01*
X86473095Y-162620143D01*
X86461190Y-162596334D01*
X86449285Y-162584429D01*
X86246904Y-162834429D02*
X86235000Y-162846334D01*
X86223095Y-162870143D01*
X86223095Y-162929667D01*
X86235000Y-162953477D01*
X86246904Y-162965381D01*
X86270714Y-162977286D01*
X86294523Y-162977286D01*
X86330238Y-162965381D01*
X86473095Y-162822524D01*
X86473095Y-162977286D01*
X86246904Y-163072524D02*
X86235000Y-163084429D01*
X86223095Y-163108238D01*
X86223095Y-163167762D01*
X86235000Y-163191572D01*
X86246904Y-163203477D01*
X86270714Y-163215381D01*
X86294523Y-163215381D01*
X86330238Y-163203477D01*
X86473095Y-163060619D01*
X86473095Y-163215381D01*
X86449285Y-170010660D02*
X86461190Y-169998755D01*
X86473095Y-169963041D01*
X86473095Y-169939231D01*
X86461190Y-169903517D01*
X86437380Y-169879707D01*
X86413571Y-169867802D01*
X86365952Y-169855898D01*
X86330238Y-169855898D01*
X86282619Y-169867802D01*
X86258809Y-169879707D01*
X86235000Y-169903517D01*
X86223095Y-169939231D01*
X86223095Y-169963041D01*
X86235000Y-169998755D01*
X86246904Y-170010660D01*
X86223095Y-170093993D02*
X86223095Y-170248755D01*
X86318333Y-170165422D01*
X86318333Y-170201136D01*
X86330238Y-170224945D01*
X86342142Y-170236850D01*
X86365952Y-170248755D01*
X86425476Y-170248755D01*
X86449285Y-170236850D01*
X86461190Y-170224945D01*
X86473095Y-170201136D01*
X86473095Y-170129707D01*
X86461190Y-170105898D01*
X86449285Y-170093993D01*
X86246904Y-170343993D02*
X86235000Y-170355898D01*
X86223095Y-170379707D01*
X86223095Y-170439231D01*
X86235000Y-170463041D01*
X86246904Y-170474945D01*
X86270714Y-170486850D01*
X86294523Y-170486850D01*
X86330238Y-170474945D01*
X86473095Y-170332088D01*
X86473095Y-170486850D01*
X86306428Y-170701136D02*
X86473095Y-170701136D01*
X86211190Y-170641612D02*
X86389761Y-170582088D01*
X86389761Y-170736850D01*
D13*
X90812857Y-134556190D02*
X90812857Y-134913333D01*
X90836666Y-134984761D01*
X90884285Y-135032380D01*
X90955714Y-135056190D01*
X91003333Y-135056190D01*
X90598571Y-134603809D02*
X90574761Y-134580000D01*
X90527142Y-134556190D01*
X90408095Y-134556190D01*
X90360476Y-134580000D01*
X90336666Y-134603809D01*
X90312857Y-134651428D01*
X90312857Y-134699047D01*
X90336666Y-134770476D01*
X90622380Y-135056190D01*
X90312857Y-135056190D01*
X89836666Y-135056190D02*
X90122380Y-135056190D01*
X89979523Y-135056190D02*
X89979523Y-134556190D01*
X90027142Y-134627619D01*
X90074761Y-134675238D01*
X90122380Y-134699047D01*
X89408095Y-134722857D02*
X89408095Y-135056190D01*
X89527142Y-134532380D02*
X89646190Y-134889523D01*
X89336666Y-134889523D01*
D12*
X86449285Y-151236750D02*
X86461190Y-151224845D01*
X86473095Y-151189131D01*
X86473095Y-151165321D01*
X86461190Y-151129607D01*
X86437380Y-151105797D01*
X86413571Y-151093892D01*
X86365952Y-151081988D01*
X86330238Y-151081988D01*
X86282619Y-151093892D01*
X86258809Y-151105797D01*
X86235000Y-151129607D01*
X86223095Y-151165321D01*
X86223095Y-151189131D01*
X86235000Y-151224845D01*
X86246904Y-151236750D01*
X86223095Y-151320083D02*
X86223095Y-151474845D01*
X86318333Y-151391512D01*
X86318333Y-151427226D01*
X86330238Y-151451035D01*
X86342142Y-151462940D01*
X86365952Y-151474845D01*
X86425476Y-151474845D01*
X86449285Y-151462940D01*
X86461190Y-151451035D01*
X86473095Y-151427226D01*
X86473095Y-151355797D01*
X86461190Y-151331988D01*
X86449285Y-151320083D01*
X86473095Y-151712940D02*
X86473095Y-151570083D01*
X86473095Y-151641512D02*
X86223095Y-151641512D01*
X86258809Y-151617702D01*
X86282619Y-151593892D01*
X86294523Y-151570083D01*
X86473095Y-151831988D02*
X86473095Y-151879607D01*
X86461190Y-151903416D01*
X86449285Y-151915321D01*
X86413571Y-151939131D01*
X86365952Y-151951035D01*
X86270714Y-151951035D01*
X86246904Y-151939131D01*
X86235000Y-151927226D01*
X86223095Y-151903416D01*
X86223095Y-151855797D01*
X86235000Y-151831988D01*
X86246904Y-151820083D01*
X86270714Y-151808178D01*
X86330238Y-151808178D01*
X86354047Y-151820083D01*
X86365952Y-151831988D01*
X86377857Y-151855797D01*
X86377857Y-151903416D01*
X86365952Y-151927226D01*
X86354047Y-151939131D01*
X86330238Y-151951035D01*
D13*
X90812857Y-149796190D02*
X90812857Y-150153333D01*
X90836666Y-150224761D01*
X90884285Y-150272380D01*
X90955714Y-150296190D01*
X91003333Y-150296190D01*
X90598571Y-149843809D02*
X90574761Y-149820000D01*
X90527142Y-149796190D01*
X90408095Y-149796190D01*
X90360476Y-149820000D01*
X90336666Y-149843809D01*
X90312857Y-149891428D01*
X90312857Y-149939047D01*
X90336666Y-150010476D01*
X90622380Y-150296190D01*
X90312857Y-150296190D01*
X89836666Y-150296190D02*
X90122380Y-150296190D01*
X89979523Y-150296190D02*
X89979523Y-149796190D01*
X90027142Y-149867619D01*
X90074761Y-149915238D01*
X90122380Y-149939047D01*
X89670000Y-149796190D02*
X89360476Y-149796190D01*
X89527142Y-149986666D01*
X89455714Y-149986666D01*
X89408095Y-150010476D01*
X89384285Y-150034285D01*
X89360476Y-150081904D01*
X89360476Y-150200952D01*
X89384285Y-150248571D01*
X89408095Y-150272380D01*
X89455714Y-150296190D01*
X89598571Y-150296190D01*
X89646190Y-150272380D01*
X89670000Y-150248571D01*
X83192857Y-172656190D02*
X83192857Y-173013333D01*
X83216666Y-173084761D01*
X83264285Y-173132380D01*
X83335714Y-173156190D01*
X83383333Y-173156190D01*
X82716666Y-172656190D02*
X82954761Y-172656190D01*
X82978571Y-172894285D01*
X82954761Y-172870476D01*
X82907142Y-172846666D01*
X82788095Y-172846666D01*
X82740476Y-172870476D01*
X82716666Y-172894285D01*
X82692857Y-172941904D01*
X82692857Y-173060952D01*
X82716666Y-173108571D01*
X82740476Y-173132380D01*
X82788095Y-173156190D01*
X82907142Y-173156190D01*
X82954761Y-173132380D01*
X82978571Y-173108571D01*
X82216666Y-173156190D02*
X82502380Y-173156190D01*
X82359523Y-173156190D02*
X82359523Y-172656190D01*
X82407142Y-172727619D01*
X82454761Y-172775238D01*
X82502380Y-172799047D01*
X81907142Y-172656190D02*
X81859523Y-172656190D01*
X81811904Y-172680000D01*
X81788095Y-172703809D01*
X81764285Y-172751428D01*
X81740476Y-172846666D01*
X81740476Y-172965714D01*
X81764285Y-173060952D01*
X81788095Y-173108571D01*
X81811904Y-173132380D01*
X81859523Y-173156190D01*
X81907142Y-173156190D01*
X81954761Y-173132380D01*
X81978571Y-173108571D01*
X82002380Y-173060952D01*
X82026190Y-172965714D01*
X82026190Y-172846666D01*
X82002380Y-172751428D01*
X81978571Y-172703809D01*
X81954761Y-172680000D01*
X81907142Y-172656190D01*
X83192857Y-30416190D02*
X83192857Y-30773333D01*
X83216666Y-30844761D01*
X83264285Y-30892380D01*
X83335714Y-30916190D01*
X83383333Y-30916190D01*
X82716666Y-30416190D02*
X82954761Y-30416190D01*
X82978571Y-30654285D01*
X82954761Y-30630476D01*
X82907142Y-30606666D01*
X82788095Y-30606666D01*
X82740476Y-30630476D01*
X82716666Y-30654285D01*
X82692857Y-30701904D01*
X82692857Y-30820952D01*
X82716666Y-30868571D01*
X82740476Y-30892380D01*
X82788095Y-30916190D01*
X82907142Y-30916190D01*
X82954761Y-30892380D01*
X82978571Y-30868571D01*
X82383333Y-30416190D02*
X82335714Y-30416190D01*
X82288095Y-30440000D01*
X82264285Y-30463809D01*
X82240476Y-30511428D01*
X82216666Y-30606666D01*
X82216666Y-30725714D01*
X82240476Y-30820952D01*
X82264285Y-30868571D01*
X82288095Y-30892380D01*
X82335714Y-30916190D01*
X82383333Y-30916190D01*
X82430952Y-30892380D01*
X82454761Y-30868571D01*
X82478571Y-30820952D01*
X82502380Y-30725714D01*
X82502380Y-30606666D01*
X82478571Y-30511428D01*
X82454761Y-30463809D01*
X82430952Y-30440000D01*
X82383333Y-30416190D01*
X81764285Y-30416190D02*
X82002380Y-30416190D01*
X82026190Y-30654285D01*
X82002380Y-30630476D01*
X81954761Y-30606666D01*
X81835714Y-30606666D01*
X81788095Y-30630476D01*
X81764285Y-30654285D01*
X81740476Y-30701904D01*
X81740476Y-30820952D01*
X81764285Y-30868571D01*
X81788095Y-30892380D01*
X81835714Y-30916190D01*
X81954761Y-30916190D01*
X82002380Y-30892380D01*
X82026190Y-30868571D01*
X83192857Y-58356190D02*
X83192857Y-58713333D01*
X83216666Y-58784761D01*
X83264285Y-58832380D01*
X83335714Y-58856190D01*
X83383333Y-58856190D01*
X82978571Y-58403809D02*
X82954761Y-58380000D01*
X82907142Y-58356190D01*
X82788095Y-58356190D01*
X82740476Y-58380000D01*
X82716666Y-58403809D01*
X82692857Y-58451428D01*
X82692857Y-58499047D01*
X82716666Y-58570476D01*
X83002380Y-58856190D01*
X82692857Y-58856190D01*
X82383333Y-58356190D02*
X82335714Y-58356190D01*
X82288095Y-58380000D01*
X82264285Y-58403809D01*
X82240476Y-58451428D01*
X82216666Y-58546666D01*
X82216666Y-58665714D01*
X82240476Y-58760952D01*
X82264285Y-58808571D01*
X82288095Y-58832380D01*
X82335714Y-58856190D01*
X82383333Y-58856190D01*
X82430952Y-58832380D01*
X82454761Y-58808571D01*
X82478571Y-58760952D01*
X82502380Y-58665714D01*
X82502380Y-58546666D01*
X82478571Y-58451428D01*
X82454761Y-58403809D01*
X82430952Y-58380000D01*
X82383333Y-58356190D01*
X81788095Y-58356190D02*
X81883333Y-58356190D01*
X81930952Y-58380000D01*
X81954761Y-58403809D01*
X82002380Y-58475238D01*
X82026190Y-58570476D01*
X82026190Y-58760952D01*
X82002380Y-58808571D01*
X81978571Y-58832380D01*
X81930952Y-58856190D01*
X81835714Y-58856190D01*
X81788095Y-58832380D01*
X81764285Y-58808571D01*
X81740476Y-58760952D01*
X81740476Y-58641904D01*
X81764285Y-58594285D01*
X81788095Y-58570476D01*
X81835714Y-58546666D01*
X81930952Y-58546666D01*
X81978571Y-58570476D01*
X82002380Y-58594285D01*
X82026190Y-58641904D01*
D12*
X86449285Y-106179366D02*
X86461190Y-106167461D01*
X86473095Y-106131747D01*
X86473095Y-106107937D01*
X86461190Y-106072223D01*
X86437380Y-106048413D01*
X86413571Y-106036508D01*
X86365952Y-106024604D01*
X86330238Y-106024604D01*
X86282619Y-106036508D01*
X86258809Y-106048413D01*
X86235000Y-106072223D01*
X86223095Y-106107937D01*
X86223095Y-106131747D01*
X86235000Y-106167461D01*
X86246904Y-106179366D01*
X86223095Y-106262699D02*
X86223095Y-106417461D01*
X86318333Y-106334128D01*
X86318333Y-106369842D01*
X86330238Y-106393651D01*
X86342142Y-106405556D01*
X86365952Y-106417461D01*
X86425476Y-106417461D01*
X86449285Y-106405556D01*
X86461190Y-106393651D01*
X86473095Y-106369842D01*
X86473095Y-106298413D01*
X86461190Y-106274604D01*
X86449285Y-106262699D01*
X86223095Y-106572223D02*
X86223095Y-106596032D01*
X86235000Y-106619842D01*
X86246904Y-106631747D01*
X86270714Y-106643651D01*
X86318333Y-106655556D01*
X86377857Y-106655556D01*
X86425476Y-106643651D01*
X86449285Y-106631747D01*
X86461190Y-106619842D01*
X86473095Y-106596032D01*
X86473095Y-106572223D01*
X86461190Y-106548413D01*
X86449285Y-106536508D01*
X86425476Y-106524604D01*
X86377857Y-106512699D01*
X86318333Y-106512699D01*
X86270714Y-106524604D01*
X86246904Y-106536508D01*
X86235000Y-106548413D01*
X86223095Y-106572223D01*
X86223095Y-106738889D02*
X86223095Y-106905556D01*
X86473095Y-106798413D01*
D13*
X90812857Y-35496190D02*
X90812857Y-35853333D01*
X90836666Y-35924761D01*
X90884285Y-35972380D01*
X90955714Y-35996190D01*
X91003333Y-35996190D01*
X90598571Y-35543809D02*
X90574761Y-35520000D01*
X90527142Y-35496190D01*
X90408095Y-35496190D01*
X90360476Y-35520000D01*
X90336666Y-35543809D01*
X90312857Y-35591428D01*
X90312857Y-35639047D01*
X90336666Y-35710476D01*
X90622380Y-35996190D01*
X90312857Y-35996190D01*
X90003333Y-35496190D02*
X89955714Y-35496190D01*
X89908095Y-35520000D01*
X89884285Y-35543809D01*
X89860476Y-35591428D01*
X89836666Y-35686666D01*
X89836666Y-35805714D01*
X89860476Y-35900952D01*
X89884285Y-35948571D01*
X89908095Y-35972380D01*
X89955714Y-35996190D01*
X90003333Y-35996190D01*
X90050952Y-35972380D01*
X90074761Y-35948571D01*
X90098571Y-35900952D01*
X90122380Y-35805714D01*
X90122380Y-35686666D01*
X90098571Y-35591428D01*
X90074761Y-35543809D01*
X90050952Y-35520000D01*
X90003333Y-35496190D01*
X89360476Y-35996190D02*
X89646190Y-35996190D01*
X89503333Y-35996190D02*
X89503333Y-35496190D01*
X89550952Y-35567619D01*
X89598571Y-35615238D01*
X89646190Y-35639047D01*
D12*
X86639761Y-33744285D02*
X86651666Y-33756190D01*
X86687380Y-33768095D01*
X86711190Y-33768095D01*
X86746904Y-33756190D01*
X86770714Y-33732380D01*
X86782619Y-33708571D01*
X86794523Y-33660952D01*
X86794523Y-33625238D01*
X86782619Y-33577619D01*
X86770714Y-33553809D01*
X86746904Y-33530000D01*
X86711190Y-33518095D01*
X86687380Y-33518095D01*
X86651666Y-33530000D01*
X86639761Y-33541904D01*
X86413571Y-33518095D02*
X86532619Y-33518095D01*
X86544523Y-33637142D01*
X86532619Y-33625238D01*
X86508809Y-33613333D01*
X86449285Y-33613333D01*
X86425476Y-33625238D01*
X86413571Y-33637142D01*
X86401666Y-33660952D01*
X86401666Y-33720476D01*
X86413571Y-33744285D01*
X86425476Y-33756190D01*
X86449285Y-33768095D01*
X86508809Y-33768095D01*
X86532619Y-33756190D01*
X86544523Y-33744285D01*
X86246904Y-33518095D02*
X86223095Y-33518095D01*
X86199285Y-33530000D01*
X86187380Y-33541904D01*
X86175476Y-33565714D01*
X86163571Y-33613333D01*
X86163571Y-33672857D01*
X86175476Y-33720476D01*
X86187380Y-33744285D01*
X86199285Y-33756190D01*
X86223095Y-33768095D01*
X86246904Y-33768095D01*
X86270714Y-33756190D01*
X86282619Y-33744285D01*
X86294523Y-33720476D01*
X86306428Y-33672857D01*
X86306428Y-33613333D01*
X86294523Y-33565714D01*
X86282619Y-33541904D01*
X86270714Y-33530000D01*
X86246904Y-33518095D01*
X86080238Y-33518095D02*
X85925476Y-33518095D01*
X86008809Y-33613333D01*
X85973095Y-33613333D01*
X85949285Y-33625238D01*
X85937380Y-33637142D01*
X85925476Y-33660952D01*
X85925476Y-33720476D01*
X85937380Y-33744285D01*
X85949285Y-33756190D01*
X85973095Y-33768095D01*
X86044523Y-33768095D01*
X86068333Y-33756190D01*
X86080238Y-33744285D01*
X86449285Y-139972404D02*
X86461190Y-139960499D01*
X86473095Y-139924785D01*
X86473095Y-139900975D01*
X86461190Y-139865261D01*
X86437380Y-139841451D01*
X86413571Y-139829546D01*
X86365952Y-139817642D01*
X86330238Y-139817642D01*
X86282619Y-139829546D01*
X86258809Y-139841451D01*
X86235000Y-139865261D01*
X86223095Y-139900975D01*
X86223095Y-139924785D01*
X86235000Y-139960499D01*
X86246904Y-139972404D01*
X86223095Y-140055737D02*
X86223095Y-140210499D01*
X86318333Y-140127166D01*
X86318333Y-140162880D01*
X86330238Y-140186689D01*
X86342142Y-140198594D01*
X86365952Y-140210499D01*
X86425476Y-140210499D01*
X86449285Y-140198594D01*
X86461190Y-140186689D01*
X86473095Y-140162880D01*
X86473095Y-140091451D01*
X86461190Y-140067642D01*
X86449285Y-140055737D01*
X86473095Y-140448594D02*
X86473095Y-140305737D01*
X86473095Y-140377166D02*
X86223095Y-140377166D01*
X86258809Y-140353356D01*
X86282619Y-140329546D01*
X86294523Y-140305737D01*
X86223095Y-140662880D02*
X86223095Y-140615261D01*
X86235000Y-140591451D01*
X86246904Y-140579546D01*
X86282619Y-140555737D01*
X86330238Y-140543832D01*
X86425476Y-140543832D01*
X86449285Y-140555737D01*
X86461190Y-140567642D01*
X86473095Y-140591451D01*
X86473095Y-140639070D01*
X86461190Y-140662880D01*
X86449285Y-140674785D01*
X86425476Y-140686689D01*
X86365952Y-140686689D01*
X86342142Y-140674785D01*
X86330238Y-140662880D01*
X86318333Y-140639070D01*
X86318333Y-140591451D01*
X86330238Y-140567642D01*
X86342142Y-140555737D01*
X86365952Y-140543832D01*
D11*
X86086190Y-30892857D02*
X86490952Y-30892857D01*
X86538571Y-30916666D01*
X86562380Y-30940476D01*
X86586190Y-30988095D01*
X86586190Y-31083333D01*
X86562380Y-31130952D01*
X86538571Y-31154761D01*
X86490952Y-31178571D01*
X86086190Y-31178571D01*
X86086190Y-31654761D02*
X86086190Y-31416666D01*
X86324285Y-31392857D01*
X86300476Y-31416666D01*
X86276666Y-31464285D01*
X86276666Y-31583333D01*
X86300476Y-31630952D01*
X86324285Y-31654761D01*
X86371904Y-31678571D01*
X86490952Y-31678571D01*
X86538571Y-31654761D01*
X86562380Y-31630952D01*
X86586190Y-31583333D01*
X86586190Y-31464285D01*
X86562380Y-31416666D01*
X86538571Y-31392857D01*
X86086190Y-31988095D02*
X86086190Y-32035714D01*
X86110000Y-32083333D01*
X86133809Y-32107142D01*
X86181428Y-32130952D01*
X86276666Y-32154761D01*
X86395714Y-32154761D01*
X86490952Y-32130952D01*
X86538571Y-32107142D01*
X86562380Y-32083333D01*
X86586190Y-32035714D01*
X86586190Y-31988095D01*
X86562380Y-31940476D01*
X86538571Y-31916666D01*
X86490952Y-31892857D01*
X86395714Y-31869047D01*
X86276666Y-31869047D01*
X86181428Y-31892857D01*
X86133809Y-31916666D01*
X86110000Y-31940476D01*
X86086190Y-31988095D01*
X86586190Y-32630952D02*
X86586190Y-32345238D01*
X86586190Y-32488095D02*
X86086190Y-32488095D01*
X86157619Y-32440476D01*
X86205238Y-32392857D01*
X86229047Y-32345238D01*
D13*
X83192857Y-32956190D02*
X83192857Y-33313333D01*
X83216666Y-33384761D01*
X83264285Y-33432380D01*
X83335714Y-33456190D01*
X83383333Y-33456190D01*
X82716666Y-32956190D02*
X82954761Y-32956190D01*
X82978571Y-33194285D01*
X82954761Y-33170476D01*
X82907142Y-33146666D01*
X82788095Y-33146666D01*
X82740476Y-33170476D01*
X82716666Y-33194285D01*
X82692857Y-33241904D01*
X82692857Y-33360952D01*
X82716666Y-33408571D01*
X82740476Y-33432380D01*
X82788095Y-33456190D01*
X82907142Y-33456190D01*
X82954761Y-33432380D01*
X82978571Y-33408571D01*
X82383333Y-32956190D02*
X82335714Y-32956190D01*
X82288095Y-32980000D01*
X82264285Y-33003809D01*
X82240476Y-33051428D01*
X82216666Y-33146666D01*
X82216666Y-33265714D01*
X82240476Y-33360952D01*
X82264285Y-33408571D01*
X82288095Y-33432380D01*
X82335714Y-33456190D01*
X82383333Y-33456190D01*
X82430952Y-33432380D01*
X82454761Y-33408571D01*
X82478571Y-33360952D01*
X82502380Y-33265714D01*
X82502380Y-33146666D01*
X82478571Y-33051428D01*
X82454761Y-33003809D01*
X82430952Y-32980000D01*
X82383333Y-32956190D01*
X81930952Y-33170476D02*
X81978571Y-33146666D01*
X82002380Y-33122857D01*
X82026190Y-33075238D01*
X82026190Y-33051428D01*
X82002380Y-33003809D01*
X81978571Y-32980000D01*
X81930952Y-32956190D01*
X81835714Y-32956190D01*
X81788095Y-32980000D01*
X81764285Y-33003809D01*
X81740476Y-33051428D01*
X81740476Y-33075238D01*
X81764285Y-33122857D01*
X81788095Y-33146666D01*
X81835714Y-33170476D01*
X81930952Y-33170476D01*
X81978571Y-33194285D01*
X82002380Y-33218095D01*
X82026190Y-33265714D01*
X82026190Y-33360952D01*
X82002380Y-33408571D01*
X81978571Y-33432380D01*
X81930952Y-33456190D01*
X81835714Y-33456190D01*
X81788095Y-33432380D01*
X81764285Y-33408571D01*
X81740476Y-33360952D01*
X81740476Y-33265714D01*
X81764285Y-33218095D01*
X81788095Y-33194285D01*
X81835714Y-33170476D01*
D14*
X85195773Y-73502987D02*
X85205875Y-73502987D01*
X85226078Y-73492886D01*
X85236179Y-73482784D01*
X85246281Y-73462581D01*
X85246281Y-73442378D01*
X85241230Y-73427226D01*
X85226078Y-73401972D01*
X85210925Y-73386820D01*
X85185672Y-73371667D01*
X85170519Y-73366617D01*
X85150316Y-73366617D01*
X85130113Y-73376718D01*
X85120012Y-73386820D01*
X85109910Y-73407023D01*
X85109910Y-73417124D01*
X85069504Y-73457530D02*
X85059403Y-73457530D01*
X85044250Y-73462581D01*
X85018996Y-73487835D01*
X85013946Y-73502987D01*
X85013946Y-73513089D01*
X85018996Y-73528241D01*
X85029098Y-73538343D01*
X85049301Y-73548444D01*
X85170519Y-73548444D01*
X85104859Y-73614104D01*
X84933133Y-73573698D02*
X84923032Y-73583800D01*
X84917981Y-73598952D01*
X84917981Y-73609053D01*
X84923032Y-73624206D01*
X84938184Y-73649459D01*
X84963438Y-73674713D01*
X84988692Y-73689866D01*
X85003844Y-73694916D01*
X85013946Y-73694916D01*
X85029098Y-73689866D01*
X85039200Y-73679764D01*
X85044250Y-73664612D01*
X85044250Y-73654510D01*
X85039200Y-73639358D01*
X85024047Y-73614104D01*
X84998793Y-73588850D01*
X84973540Y-73573698D01*
X84958387Y-73568647D01*
X84948286Y-73568647D01*
X84933133Y-73573698D01*
X84862423Y-73644409D02*
X84796763Y-73710069D01*
X84872524Y-73715119D01*
X84857372Y-73730272D01*
X84852321Y-73745424D01*
X84852321Y-73755525D01*
X84857372Y-73770678D01*
X84882626Y-73795932D01*
X84897778Y-73800982D01*
X84907880Y-73800982D01*
X84923032Y-73795932D01*
X84953337Y-73765627D01*
X84958387Y-73750475D01*
X84958387Y-73740373D01*
D12*
X86449285Y-136217622D02*
X86461190Y-136205717D01*
X86473095Y-136170003D01*
X86473095Y-136146193D01*
X86461190Y-136110479D01*
X86437380Y-136086669D01*
X86413571Y-136074764D01*
X86365952Y-136062860D01*
X86330238Y-136062860D01*
X86282619Y-136074764D01*
X86258809Y-136086669D01*
X86235000Y-136110479D01*
X86223095Y-136146193D01*
X86223095Y-136170003D01*
X86235000Y-136205717D01*
X86246904Y-136217622D01*
X86223095Y-136300955D02*
X86223095Y-136455717D01*
X86318333Y-136372384D01*
X86318333Y-136408098D01*
X86330238Y-136431907D01*
X86342142Y-136443812D01*
X86365952Y-136455717D01*
X86425476Y-136455717D01*
X86449285Y-136443812D01*
X86461190Y-136431907D01*
X86473095Y-136408098D01*
X86473095Y-136336669D01*
X86461190Y-136312860D01*
X86449285Y-136300955D01*
X86473095Y-136693812D02*
X86473095Y-136550955D01*
X86473095Y-136622384D02*
X86223095Y-136622384D01*
X86258809Y-136598574D01*
X86282619Y-136574764D01*
X86294523Y-136550955D01*
X86223095Y-136920003D02*
X86223095Y-136800955D01*
X86342142Y-136789050D01*
X86330238Y-136800955D01*
X86318333Y-136824764D01*
X86318333Y-136884288D01*
X86330238Y-136908098D01*
X86342142Y-136920003D01*
X86365952Y-136931907D01*
X86425476Y-136931907D01*
X86449285Y-136920003D01*
X86461190Y-136908098D01*
X86473095Y-136884288D01*
X86473095Y-136824764D01*
X86461190Y-136800955D01*
X86449285Y-136789050D01*
X86449285Y-158746314D02*
X86461190Y-158734409D01*
X86473095Y-158698695D01*
X86473095Y-158674885D01*
X86461190Y-158639171D01*
X86437380Y-158615361D01*
X86413571Y-158603456D01*
X86365952Y-158591552D01*
X86330238Y-158591552D01*
X86282619Y-158603456D01*
X86258809Y-158615361D01*
X86235000Y-158639171D01*
X86223095Y-158674885D01*
X86223095Y-158698695D01*
X86235000Y-158734409D01*
X86246904Y-158746314D01*
X86223095Y-158829647D02*
X86223095Y-158984409D01*
X86318333Y-158901076D01*
X86318333Y-158936790D01*
X86330238Y-158960599D01*
X86342142Y-158972504D01*
X86365952Y-158984409D01*
X86425476Y-158984409D01*
X86449285Y-158972504D01*
X86461190Y-158960599D01*
X86473095Y-158936790D01*
X86473095Y-158865361D01*
X86461190Y-158841552D01*
X86449285Y-158829647D01*
X86246904Y-159079647D02*
X86235000Y-159091552D01*
X86223095Y-159115361D01*
X86223095Y-159174885D01*
X86235000Y-159198695D01*
X86246904Y-159210599D01*
X86270714Y-159222504D01*
X86294523Y-159222504D01*
X86330238Y-159210599D01*
X86473095Y-159067742D01*
X86473095Y-159222504D01*
X86473095Y-159460599D02*
X86473095Y-159317742D01*
X86473095Y-159389171D02*
X86223095Y-159389171D01*
X86258809Y-159365361D01*
X86282619Y-159341552D01*
X86294523Y-159317742D01*
X86449285Y-128708058D02*
X86461190Y-128696153D01*
X86473095Y-128660439D01*
X86473095Y-128636629D01*
X86461190Y-128600915D01*
X86437380Y-128577105D01*
X86413571Y-128565200D01*
X86365952Y-128553296D01*
X86330238Y-128553296D01*
X86282619Y-128565200D01*
X86258809Y-128577105D01*
X86235000Y-128600915D01*
X86223095Y-128636629D01*
X86223095Y-128660439D01*
X86235000Y-128696153D01*
X86246904Y-128708058D01*
X86223095Y-128791391D02*
X86223095Y-128946153D01*
X86318333Y-128862820D01*
X86318333Y-128898534D01*
X86330238Y-128922343D01*
X86342142Y-128934248D01*
X86365952Y-128946153D01*
X86425476Y-128946153D01*
X86449285Y-128934248D01*
X86461190Y-128922343D01*
X86473095Y-128898534D01*
X86473095Y-128827105D01*
X86461190Y-128803296D01*
X86449285Y-128791391D01*
X86473095Y-129184248D02*
X86473095Y-129041391D01*
X86473095Y-129112820D02*
X86223095Y-129112820D01*
X86258809Y-129089010D01*
X86282619Y-129065200D01*
X86294523Y-129041391D01*
X86223095Y-129267581D02*
X86223095Y-129422343D01*
X86318333Y-129339010D01*
X86318333Y-129374724D01*
X86330238Y-129398534D01*
X86342142Y-129410439D01*
X86365952Y-129422343D01*
X86425476Y-129422343D01*
X86449285Y-129410439D01*
X86461190Y-129398534D01*
X86473095Y-129374724D01*
X86473095Y-129303296D01*
X86461190Y-129279486D01*
X86449285Y-129267581D01*
X86449285Y-98669802D02*
X86461190Y-98657897D01*
X86473095Y-98622183D01*
X86473095Y-98598373D01*
X86461190Y-98562659D01*
X86437380Y-98538849D01*
X86413571Y-98526944D01*
X86365952Y-98515040D01*
X86330238Y-98515040D01*
X86282619Y-98526944D01*
X86258809Y-98538849D01*
X86235000Y-98562659D01*
X86223095Y-98598373D01*
X86223095Y-98622183D01*
X86235000Y-98657897D01*
X86246904Y-98669802D01*
X86223095Y-98753135D02*
X86223095Y-98907897D01*
X86318333Y-98824564D01*
X86318333Y-98860278D01*
X86330238Y-98884087D01*
X86342142Y-98895992D01*
X86365952Y-98907897D01*
X86425476Y-98907897D01*
X86449285Y-98895992D01*
X86461190Y-98884087D01*
X86473095Y-98860278D01*
X86473095Y-98788849D01*
X86461190Y-98765040D01*
X86449285Y-98753135D01*
X86223095Y-99062659D02*
X86223095Y-99086468D01*
X86235000Y-99110278D01*
X86246904Y-99122183D01*
X86270714Y-99134087D01*
X86318333Y-99145992D01*
X86377857Y-99145992D01*
X86425476Y-99134087D01*
X86449285Y-99122183D01*
X86461190Y-99110278D01*
X86473095Y-99086468D01*
X86473095Y-99062659D01*
X86461190Y-99038849D01*
X86449285Y-99026944D01*
X86425476Y-99015040D01*
X86377857Y-99003135D01*
X86318333Y-99003135D01*
X86270714Y-99015040D01*
X86246904Y-99026944D01*
X86235000Y-99038849D01*
X86223095Y-99062659D01*
X86223095Y-99372183D02*
X86223095Y-99253135D01*
X86342142Y-99241230D01*
X86330238Y-99253135D01*
X86318333Y-99276944D01*
X86318333Y-99336468D01*
X86330238Y-99360278D01*
X86342142Y-99372183D01*
X86365952Y-99384087D01*
X86425476Y-99384087D01*
X86449285Y-99372183D01*
X86461190Y-99360278D01*
X86473095Y-99336468D01*
X86473095Y-99276944D01*
X86461190Y-99253135D01*
X86449285Y-99241230D01*
X87702249Y-67364019D02*
X87719084Y-67364019D01*
X87752756Y-67347184D01*
X87769592Y-67330348D01*
X87786428Y-67296676D01*
X87786428Y-67263004D01*
X87778010Y-67237750D01*
X87752756Y-67195661D01*
X87727502Y-67170407D01*
X87685413Y-67145153D01*
X87660159Y-67136735D01*
X87626487Y-67136735D01*
X87592815Y-67153571D01*
X87575980Y-67170407D01*
X87559144Y-67204079D01*
X87559144Y-67220915D01*
X87491800Y-67288258D02*
X87474964Y-67288258D01*
X87449710Y-67296676D01*
X87407621Y-67338766D01*
X87399203Y-67364019D01*
X87399203Y-67380855D01*
X87407621Y-67406109D01*
X87424457Y-67422945D01*
X87458128Y-67439781D01*
X87660159Y-67439781D01*
X87550726Y-67549214D01*
X87264516Y-67481871D02*
X87247680Y-67498707D01*
X87239262Y-67523960D01*
X87239262Y-67540796D01*
X87247680Y-67566050D01*
X87272934Y-67608140D01*
X87315023Y-67650229D01*
X87357113Y-67675483D01*
X87382367Y-67683901D01*
X87399203Y-67683901D01*
X87424457Y-67675483D01*
X87441293Y-67658647D01*
X87449710Y-67633394D01*
X87449710Y-67616558D01*
X87441293Y-67591304D01*
X87416039Y-67549214D01*
X87373949Y-67507124D01*
X87331859Y-67481871D01*
X87306605Y-67473453D01*
X87289770Y-67473453D01*
X87264516Y-67481871D01*
X87155083Y-67624976D02*
X87138247Y-67624976D01*
X87112993Y-67633394D01*
X87070903Y-67675483D01*
X87062485Y-67700737D01*
X87062485Y-67717573D01*
X87070903Y-67742827D01*
X87087739Y-67759663D01*
X87121411Y-67776498D01*
X87323441Y-67776498D01*
X87214008Y-67885932D01*
X86449285Y-94915020D02*
X86461190Y-94903115D01*
X86473095Y-94867401D01*
X86473095Y-94843591D01*
X86461190Y-94807877D01*
X86437380Y-94784067D01*
X86413571Y-94772162D01*
X86365952Y-94760258D01*
X86330238Y-94760258D01*
X86282619Y-94772162D01*
X86258809Y-94784067D01*
X86235000Y-94807877D01*
X86223095Y-94843591D01*
X86223095Y-94867401D01*
X86235000Y-94903115D01*
X86246904Y-94915020D01*
X86223095Y-94998353D02*
X86223095Y-95153115D01*
X86318333Y-95069782D01*
X86318333Y-95105496D01*
X86330238Y-95129305D01*
X86342142Y-95141210D01*
X86365952Y-95153115D01*
X86425476Y-95153115D01*
X86449285Y-95141210D01*
X86461190Y-95129305D01*
X86473095Y-95105496D01*
X86473095Y-95034067D01*
X86461190Y-95010258D01*
X86449285Y-94998353D01*
X86223095Y-95307877D02*
X86223095Y-95331686D01*
X86235000Y-95355496D01*
X86246904Y-95367401D01*
X86270714Y-95379305D01*
X86318333Y-95391210D01*
X86377857Y-95391210D01*
X86425476Y-95379305D01*
X86449285Y-95367401D01*
X86461190Y-95355496D01*
X86473095Y-95331686D01*
X86473095Y-95307877D01*
X86461190Y-95284067D01*
X86449285Y-95272162D01*
X86425476Y-95260258D01*
X86377857Y-95248353D01*
X86318333Y-95248353D01*
X86270714Y-95260258D01*
X86246904Y-95272162D01*
X86235000Y-95284067D01*
X86223095Y-95307877D01*
X86306428Y-95605496D02*
X86473095Y-95605496D01*
X86211190Y-95545972D02*
X86389761Y-95486448D01*
X86389761Y-95641210D01*
D13*
X90812857Y-58356190D02*
X90812857Y-58713333D01*
X90836666Y-58784761D01*
X90884285Y-58832380D01*
X90955714Y-58856190D01*
X91003333Y-58856190D01*
X90598571Y-58403809D02*
X90574761Y-58380000D01*
X90527142Y-58356190D01*
X90408095Y-58356190D01*
X90360476Y-58380000D01*
X90336666Y-58403809D01*
X90312857Y-58451428D01*
X90312857Y-58499047D01*
X90336666Y-58570476D01*
X90622380Y-58856190D01*
X90312857Y-58856190D01*
X89836666Y-58856190D02*
X90122380Y-58856190D01*
X89979523Y-58856190D02*
X89979523Y-58356190D01*
X90027142Y-58427619D01*
X90074761Y-58475238D01*
X90122380Y-58499047D01*
X89550952Y-58570476D02*
X89598571Y-58546666D01*
X89622380Y-58522857D01*
X89646190Y-58475238D01*
X89646190Y-58451428D01*
X89622380Y-58403809D01*
X89598571Y-58380000D01*
X89550952Y-58356190D01*
X89455714Y-58356190D01*
X89408095Y-58380000D01*
X89384285Y-58403809D01*
X89360476Y-58451428D01*
X89360476Y-58475238D01*
X89384285Y-58522857D01*
X89408095Y-58546666D01*
X89455714Y-58570476D01*
X89550952Y-58570476D01*
X89598571Y-58594285D01*
X89622380Y-58618095D01*
X89646190Y-58665714D01*
X89646190Y-58760952D01*
X89622380Y-58808571D01*
X89598571Y-58832380D01*
X89550952Y-58856190D01*
X89455714Y-58856190D01*
X89408095Y-58832380D01*
X89384285Y-58808571D01*
X89360476Y-58760952D01*
X89360476Y-58665714D01*
X89384285Y-58618095D01*
X89408095Y-58594285D01*
X89455714Y-58570476D01*
D12*
X86449285Y-147481968D02*
X86461190Y-147470063D01*
X86473095Y-147434349D01*
X86473095Y-147410539D01*
X86461190Y-147374825D01*
X86437380Y-147351015D01*
X86413571Y-147339110D01*
X86365952Y-147327206D01*
X86330238Y-147327206D01*
X86282619Y-147339110D01*
X86258809Y-147351015D01*
X86235000Y-147374825D01*
X86223095Y-147410539D01*
X86223095Y-147434349D01*
X86235000Y-147470063D01*
X86246904Y-147481968D01*
X86223095Y-147565301D02*
X86223095Y-147720063D01*
X86318333Y-147636730D01*
X86318333Y-147672444D01*
X86330238Y-147696253D01*
X86342142Y-147708158D01*
X86365952Y-147720063D01*
X86425476Y-147720063D01*
X86449285Y-147708158D01*
X86461190Y-147696253D01*
X86473095Y-147672444D01*
X86473095Y-147601015D01*
X86461190Y-147577206D01*
X86449285Y-147565301D01*
X86473095Y-147958158D02*
X86473095Y-147815301D01*
X86473095Y-147886730D02*
X86223095Y-147886730D01*
X86258809Y-147862920D01*
X86282619Y-147839110D01*
X86294523Y-147815301D01*
X86330238Y-148101015D02*
X86318333Y-148077206D01*
X86306428Y-148065301D01*
X86282619Y-148053396D01*
X86270714Y-148053396D01*
X86246904Y-148065301D01*
X86235000Y-148077206D01*
X86223095Y-148101015D01*
X86223095Y-148148634D01*
X86235000Y-148172444D01*
X86246904Y-148184349D01*
X86270714Y-148196253D01*
X86282619Y-148196253D01*
X86306428Y-148184349D01*
X86318333Y-148172444D01*
X86330238Y-148148634D01*
X86330238Y-148101015D01*
X86342142Y-148077206D01*
X86354047Y-148065301D01*
X86377857Y-148053396D01*
X86425476Y-148053396D01*
X86449285Y-148065301D01*
X86461190Y-148077206D01*
X86473095Y-148101015D01*
X86473095Y-148148634D01*
X86461190Y-148172444D01*
X86449285Y-148184349D01*
X86425476Y-148196253D01*
X86377857Y-148196253D01*
X86354047Y-148184349D01*
X86342142Y-148172444D01*
X86330238Y-148148634D01*
X86449285Y-166255878D02*
X86461190Y-166243973D01*
X86473095Y-166208259D01*
X86473095Y-166184449D01*
X86461190Y-166148735D01*
X86437380Y-166124925D01*
X86413571Y-166113020D01*
X86365952Y-166101116D01*
X86330238Y-166101116D01*
X86282619Y-166113020D01*
X86258809Y-166124925D01*
X86235000Y-166148735D01*
X86223095Y-166184449D01*
X86223095Y-166208259D01*
X86235000Y-166243973D01*
X86246904Y-166255878D01*
X86223095Y-166339211D02*
X86223095Y-166493973D01*
X86318333Y-166410640D01*
X86318333Y-166446354D01*
X86330238Y-166470163D01*
X86342142Y-166482068D01*
X86365952Y-166493973D01*
X86425476Y-166493973D01*
X86449285Y-166482068D01*
X86461190Y-166470163D01*
X86473095Y-166446354D01*
X86473095Y-166374925D01*
X86461190Y-166351116D01*
X86449285Y-166339211D01*
X86246904Y-166589211D02*
X86235000Y-166601116D01*
X86223095Y-166624925D01*
X86223095Y-166684449D01*
X86235000Y-166708259D01*
X86246904Y-166720163D01*
X86270714Y-166732068D01*
X86294523Y-166732068D01*
X86330238Y-166720163D01*
X86473095Y-166577306D01*
X86473095Y-166732068D01*
X86223095Y-166815401D02*
X86223095Y-166970163D01*
X86318333Y-166886830D01*
X86318333Y-166922544D01*
X86330238Y-166946354D01*
X86342142Y-166958259D01*
X86365952Y-166970163D01*
X86425476Y-166970163D01*
X86449285Y-166958259D01*
X86461190Y-166946354D01*
X86473095Y-166922544D01*
X86473095Y-166851116D01*
X86461190Y-166827306D01*
X86449285Y-166815401D01*
D11*
X86919523Y-28118571D02*
X86943333Y-28142380D01*
X87014761Y-28166190D01*
X87062380Y-28166190D01*
X87133809Y-28142380D01*
X87181428Y-28094761D01*
X87205238Y-28047142D01*
X87229047Y-27951904D01*
X87229047Y-27880476D01*
X87205238Y-27785238D01*
X87181428Y-27737619D01*
X87133809Y-27690000D01*
X87062380Y-27666190D01*
X87014761Y-27666190D01*
X86943333Y-27690000D01*
X86919523Y-27713809D01*
X86467142Y-27666190D02*
X86705238Y-27666190D01*
X86729047Y-27904285D01*
X86705238Y-27880476D01*
X86657619Y-27856666D01*
X86538571Y-27856666D01*
X86490952Y-27880476D01*
X86467142Y-27904285D01*
X86443333Y-27951904D01*
X86443333Y-28070952D01*
X86467142Y-28118571D01*
X86490952Y-28142380D01*
X86538571Y-28166190D01*
X86657619Y-28166190D01*
X86705238Y-28142380D01*
X86729047Y-28118571D01*
X86133809Y-27666190D02*
X86086190Y-27666190D01*
X86038571Y-27690000D01*
X86014761Y-27713809D01*
X85990952Y-27761428D01*
X85967142Y-27856666D01*
X85967142Y-27975714D01*
X85990952Y-28070952D01*
X86014761Y-28118571D01*
X86038571Y-28142380D01*
X86086190Y-28166190D01*
X86133809Y-28166190D01*
X86181428Y-28142380D01*
X86205238Y-28118571D01*
X86229047Y-28070952D01*
X86252857Y-27975714D01*
X86252857Y-27856666D01*
X86229047Y-27761428D01*
X86205238Y-27713809D01*
X86181428Y-27690000D01*
X86133809Y-27666190D01*
X85490952Y-28166190D02*
X85776666Y-28166190D01*
X85633809Y-28166190D02*
X85633809Y-27666190D01*
X85681428Y-27737619D01*
X85729047Y-27785238D01*
X85776666Y-27809047D01*
D12*
X86434285Y-113688930D02*
X86446190Y-113677025D01*
X86458095Y-113641311D01*
X86458095Y-113617501D01*
X86446190Y-113581787D01*
X86422380Y-113557977D01*
X86398571Y-113546072D01*
X86350952Y-113534168D01*
X86315238Y-113534168D01*
X86267619Y-113546072D01*
X86243809Y-113557977D01*
X86220000Y-113581787D01*
X86208095Y-113617501D01*
X86208095Y-113641311D01*
X86220000Y-113677025D01*
X86231904Y-113688930D01*
X86208095Y-113772263D02*
X86208095Y-113927025D01*
X86303333Y-113843692D01*
X86303333Y-113879406D01*
X86315238Y-113903215D01*
X86327142Y-113915120D01*
X86350952Y-113927025D01*
X86410476Y-113927025D01*
X86434285Y-113915120D01*
X86446190Y-113903215D01*
X86458095Y-113879406D01*
X86458095Y-113807977D01*
X86446190Y-113784168D01*
X86434285Y-113772263D01*
X86208095Y-114081787D02*
X86208095Y-114105596D01*
X86220000Y-114129406D01*
X86231904Y-114141311D01*
X86255714Y-114153215D01*
X86303333Y-114165120D01*
X86362857Y-114165120D01*
X86410476Y-114153215D01*
X86434285Y-114141311D01*
X86446190Y-114129406D01*
X86458095Y-114105596D01*
X86458095Y-114081787D01*
X86446190Y-114057977D01*
X86434285Y-114046072D01*
X86410476Y-114034168D01*
X86362857Y-114022263D01*
X86303333Y-114022263D01*
X86255714Y-114034168D01*
X86231904Y-114046072D01*
X86220000Y-114057977D01*
X86208095Y-114081787D01*
X86458095Y-114284168D02*
X86458095Y-114331787D01*
X86446190Y-114355596D01*
X86434285Y-114367501D01*
X86398571Y-114391311D01*
X86350952Y-114403215D01*
X86255714Y-114403215D01*
X86231904Y-114391311D01*
X86220000Y-114379406D01*
X86208095Y-114355596D01*
X86208095Y-114307977D01*
X86220000Y-114284168D01*
X86231904Y-114272263D01*
X86255714Y-114260358D01*
X86315238Y-114260358D01*
X86339047Y-114272263D01*
X86350952Y-114284168D01*
X86362857Y-114307977D01*
X86362857Y-114355596D01*
X86350952Y-114379406D01*
X86339047Y-114391311D01*
X86315238Y-114403215D01*
X86449285Y-121198494D02*
X86461190Y-121186589D01*
X86473095Y-121150875D01*
X86473095Y-121127065D01*
X86461190Y-121091351D01*
X86437380Y-121067541D01*
X86413571Y-121055636D01*
X86365952Y-121043732D01*
X86330238Y-121043732D01*
X86282619Y-121055636D01*
X86258809Y-121067541D01*
X86235000Y-121091351D01*
X86223095Y-121127065D01*
X86223095Y-121150875D01*
X86235000Y-121186589D01*
X86246904Y-121198494D01*
X86223095Y-121281827D02*
X86223095Y-121436589D01*
X86318333Y-121353256D01*
X86318333Y-121388970D01*
X86330238Y-121412779D01*
X86342142Y-121424684D01*
X86365952Y-121436589D01*
X86425476Y-121436589D01*
X86449285Y-121424684D01*
X86461190Y-121412779D01*
X86473095Y-121388970D01*
X86473095Y-121317541D01*
X86461190Y-121293732D01*
X86449285Y-121281827D01*
X86473095Y-121674684D02*
X86473095Y-121531827D01*
X86473095Y-121603256D02*
X86223095Y-121603256D01*
X86258809Y-121579446D01*
X86282619Y-121555636D01*
X86294523Y-121531827D01*
X86473095Y-121912779D02*
X86473095Y-121769922D01*
X86473095Y-121841351D02*
X86223095Y-121841351D01*
X86258809Y-121817541D01*
X86282619Y-121793732D01*
X86294523Y-121769922D01*
D13*
X90812857Y-104076190D02*
X90812857Y-104433333D01*
X90836666Y-104504761D01*
X90884285Y-104552380D01*
X90955714Y-104576190D01*
X91003333Y-104576190D01*
X90598571Y-104123809D02*
X90574761Y-104100000D01*
X90527142Y-104076190D01*
X90408095Y-104076190D01*
X90360476Y-104100000D01*
X90336666Y-104123809D01*
X90312857Y-104171428D01*
X90312857Y-104219047D01*
X90336666Y-104290476D01*
X90622380Y-104576190D01*
X90312857Y-104576190D01*
X90003333Y-104076190D02*
X89955714Y-104076190D01*
X89908095Y-104100000D01*
X89884285Y-104123809D01*
X89860476Y-104171428D01*
X89836666Y-104266666D01*
X89836666Y-104385714D01*
X89860476Y-104480952D01*
X89884285Y-104528571D01*
X89908095Y-104552380D01*
X89955714Y-104576190D01*
X90003333Y-104576190D01*
X90050952Y-104552380D01*
X90074761Y-104528571D01*
X90098571Y-104480952D01*
X90122380Y-104385714D01*
X90122380Y-104266666D01*
X90098571Y-104171428D01*
X90074761Y-104123809D01*
X90050952Y-104100000D01*
X90003333Y-104076190D01*
X89646190Y-104123809D02*
X89622380Y-104100000D01*
X89574761Y-104076190D01*
X89455714Y-104076190D01*
X89408095Y-104100000D01*
X89384285Y-104123809D01*
X89360476Y-104171428D01*
X89360476Y-104219047D01*
X89384285Y-104290476D01*
X89670000Y-104576190D01*
X89360476Y-104576190D01*
D12*
X84490527Y-68418183D02*
X84507362Y-68418183D01*
X84541034Y-68401348D01*
X84557870Y-68384512D01*
X84574706Y-68350840D01*
X84574706Y-68317168D01*
X84566288Y-68291914D01*
X84541034Y-68249825D01*
X84515780Y-68224571D01*
X84473691Y-68199317D01*
X84448437Y-68190899D01*
X84414765Y-68190899D01*
X84381093Y-68207735D01*
X84364258Y-68224571D01*
X84347422Y-68258243D01*
X84347422Y-68275079D01*
X84280078Y-68342422D02*
X84263242Y-68342422D01*
X84237988Y-68350840D01*
X84195899Y-68392930D01*
X84187481Y-68418183D01*
X84187481Y-68435019D01*
X84195899Y-68460273D01*
X84212735Y-68477109D01*
X84246406Y-68493945D01*
X84448437Y-68493945D01*
X84339004Y-68603378D01*
X84170645Y-68771737D02*
X84271660Y-68670722D01*
X84221153Y-68721229D02*
X84044376Y-68544453D01*
X84086466Y-68552870D01*
X84120137Y-68552870D01*
X84145391Y-68544453D01*
X83884435Y-68704393D02*
X83867599Y-68721229D01*
X83859181Y-68746483D01*
X83859181Y-68763319D01*
X83867599Y-68788573D01*
X83892853Y-68830662D01*
X83934943Y-68872752D01*
X83977032Y-68898006D01*
X84002286Y-68906424D01*
X84019122Y-68906424D01*
X84044376Y-68898006D01*
X84061212Y-68881170D01*
X84069630Y-68855916D01*
X84069630Y-68839080D01*
X84061212Y-68813827D01*
X84035958Y-68771737D01*
X83993868Y-68729647D01*
X83951779Y-68704393D01*
X83926525Y-68695975D01*
X83909689Y-68695975D01*
X83884435Y-68704393D01*
D13*
X90812857Y-43116190D02*
X90812857Y-43473333D01*
X90836666Y-43544761D01*
X90884285Y-43592380D01*
X90955714Y-43616190D01*
X91003333Y-43616190D01*
X90598571Y-43163809D02*
X90574761Y-43140000D01*
X90527142Y-43116190D01*
X90408095Y-43116190D01*
X90360476Y-43140000D01*
X90336666Y-43163809D01*
X90312857Y-43211428D01*
X90312857Y-43259047D01*
X90336666Y-43330476D01*
X90622380Y-43616190D01*
X90312857Y-43616190D01*
X89836666Y-43616190D02*
X90122380Y-43616190D01*
X89979523Y-43616190D02*
X89979523Y-43116190D01*
X90027142Y-43187619D01*
X90074761Y-43235238D01*
X90122380Y-43259047D01*
X89670000Y-43116190D02*
X89336666Y-43116190D01*
X89550952Y-43616190D01*
X90812857Y-119316190D02*
X90812857Y-119673333D01*
X90836666Y-119744761D01*
X90884285Y-119792380D01*
X90955714Y-119816190D01*
X91003333Y-119816190D01*
X90598571Y-119363809D02*
X90574761Y-119340000D01*
X90527142Y-119316190D01*
X90408095Y-119316190D01*
X90360476Y-119340000D01*
X90336666Y-119363809D01*
X90312857Y-119411428D01*
X90312857Y-119459047D01*
X90336666Y-119530476D01*
X90622380Y-119816190D01*
X90312857Y-119816190D01*
X89836666Y-119816190D02*
X90122380Y-119816190D01*
X89979523Y-119816190D02*
X89979523Y-119316190D01*
X90027142Y-119387619D01*
X90074761Y-119435238D01*
X90122380Y-119459047D01*
X89384285Y-119316190D02*
X89622380Y-119316190D01*
X89646190Y-119554285D01*
X89622380Y-119530476D01*
X89574761Y-119506666D01*
X89455714Y-119506666D01*
X89408095Y-119530476D01*
X89384285Y-119554285D01*
X89360476Y-119601904D01*
X89360476Y-119720952D01*
X89384285Y-119768571D01*
X89408095Y-119792380D01*
X89455714Y-119816190D01*
X89574761Y-119816190D01*
X89622380Y-119792380D01*
X89646190Y-119768571D01*
X90812857Y-88836190D02*
X90812857Y-89193333D01*
X90836666Y-89264761D01*
X90884285Y-89312380D01*
X90955714Y-89336190D01*
X91003333Y-89336190D01*
X90598571Y-88883809D02*
X90574761Y-88860000D01*
X90527142Y-88836190D01*
X90408095Y-88836190D01*
X90360476Y-88860000D01*
X90336666Y-88883809D01*
X90312857Y-88931428D01*
X90312857Y-88979047D01*
X90336666Y-89050476D01*
X90622380Y-89336190D01*
X90312857Y-89336190D01*
X90122380Y-88883809D02*
X90098571Y-88860000D01*
X90050952Y-88836190D01*
X89931904Y-88836190D01*
X89884285Y-88860000D01*
X89860476Y-88883809D01*
X89836666Y-88931428D01*
X89836666Y-88979047D01*
X89860476Y-89050476D01*
X90146190Y-89336190D01*
X89836666Y-89336190D01*
X89527142Y-88836190D02*
X89479523Y-88836190D01*
X89431904Y-88860000D01*
X89408095Y-88883809D01*
X89384285Y-88931428D01*
X89360476Y-89026666D01*
X89360476Y-89145714D01*
X89384285Y-89240952D01*
X89408095Y-89288571D01*
X89431904Y-89312380D01*
X89479523Y-89336190D01*
X89527142Y-89336190D01*
X89574761Y-89312380D01*
X89598571Y-89288571D01*
X89622380Y-89240952D01*
X89646190Y-89145714D01*
X89646190Y-89026666D01*
X89622380Y-88931428D01*
X89598571Y-88883809D01*
X89574761Y-88860000D01*
X89527142Y-88836190D01*
D12*
X86434285Y-109934148D02*
X86446190Y-109922243D01*
X86458095Y-109886529D01*
X86458095Y-109862719D01*
X86446190Y-109827005D01*
X86422380Y-109803195D01*
X86398571Y-109791290D01*
X86350952Y-109779386D01*
X86315238Y-109779386D01*
X86267619Y-109791290D01*
X86243809Y-109803195D01*
X86220000Y-109827005D01*
X86208095Y-109862719D01*
X86208095Y-109886529D01*
X86220000Y-109922243D01*
X86231904Y-109934148D01*
X86208095Y-110017481D02*
X86208095Y-110172243D01*
X86303333Y-110088910D01*
X86303333Y-110124624D01*
X86315238Y-110148433D01*
X86327142Y-110160338D01*
X86350952Y-110172243D01*
X86410476Y-110172243D01*
X86434285Y-110160338D01*
X86446190Y-110148433D01*
X86458095Y-110124624D01*
X86458095Y-110053195D01*
X86446190Y-110029386D01*
X86434285Y-110017481D01*
X86208095Y-110327005D02*
X86208095Y-110350814D01*
X86220000Y-110374624D01*
X86231904Y-110386529D01*
X86255714Y-110398433D01*
X86303333Y-110410338D01*
X86362857Y-110410338D01*
X86410476Y-110398433D01*
X86434285Y-110386529D01*
X86446190Y-110374624D01*
X86458095Y-110350814D01*
X86458095Y-110327005D01*
X86446190Y-110303195D01*
X86434285Y-110291290D01*
X86410476Y-110279386D01*
X86362857Y-110267481D01*
X86303333Y-110267481D01*
X86255714Y-110279386D01*
X86231904Y-110291290D01*
X86220000Y-110303195D01*
X86208095Y-110327005D01*
X86315238Y-110553195D02*
X86303333Y-110529386D01*
X86291428Y-110517481D01*
X86267619Y-110505576D01*
X86255714Y-110505576D01*
X86231904Y-110517481D01*
X86220000Y-110529386D01*
X86208095Y-110553195D01*
X86208095Y-110600814D01*
X86220000Y-110624624D01*
X86231904Y-110636529D01*
X86255714Y-110648433D01*
X86267619Y-110648433D01*
X86291428Y-110636529D01*
X86303333Y-110624624D01*
X86315238Y-110600814D01*
X86315238Y-110553195D01*
X86327142Y-110529386D01*
X86339047Y-110517481D01*
X86362857Y-110505576D01*
X86410476Y-110505576D01*
X86434285Y-110517481D01*
X86446190Y-110529386D01*
X86458095Y-110553195D01*
X86458095Y-110600814D01*
X86446190Y-110624624D01*
X86434285Y-110636529D01*
X86410476Y-110648433D01*
X86362857Y-110648433D01*
X86339047Y-110636529D01*
X86327142Y-110624624D01*
X86315238Y-110600814D01*
D13*
X90812857Y-30416190D02*
X90812857Y-30773333D01*
X90836666Y-30844761D01*
X90884285Y-30892380D01*
X90955714Y-30916190D01*
X91003333Y-30916190D01*
X90336666Y-30416190D02*
X90574761Y-30416190D01*
X90598571Y-30654285D01*
X90574761Y-30630476D01*
X90527142Y-30606666D01*
X90408095Y-30606666D01*
X90360476Y-30630476D01*
X90336666Y-30654285D01*
X90312857Y-30701904D01*
X90312857Y-30820952D01*
X90336666Y-30868571D01*
X90360476Y-30892380D01*
X90408095Y-30916190D01*
X90527142Y-30916190D01*
X90574761Y-30892380D01*
X90598571Y-30868571D01*
X90003333Y-30416190D02*
X89955714Y-30416190D01*
X89908095Y-30440000D01*
X89884285Y-30463809D01*
X89860476Y-30511428D01*
X89836666Y-30606666D01*
X89836666Y-30725714D01*
X89860476Y-30820952D01*
X89884285Y-30868571D01*
X89908095Y-30892380D01*
X89955714Y-30916190D01*
X90003333Y-30916190D01*
X90050952Y-30892380D01*
X90074761Y-30868571D01*
X90098571Y-30820952D01*
X90122380Y-30725714D01*
X90122380Y-30606666D01*
X90098571Y-30511428D01*
X90074761Y-30463809D01*
X90050952Y-30440000D01*
X90003333Y-30416190D01*
X89408095Y-30416190D02*
X89503333Y-30416190D01*
X89550952Y-30440000D01*
X89574761Y-30463809D01*
X89622380Y-30535238D01*
X89646190Y-30630476D01*
X89646190Y-30820952D01*
X89622380Y-30868571D01*
X89598571Y-30892380D01*
X89550952Y-30916190D01*
X89455714Y-30916190D01*
X89408095Y-30892380D01*
X89384285Y-30868571D01*
X89360476Y-30820952D01*
X89360476Y-30701904D01*
X89384285Y-30654285D01*
X89408095Y-30630476D01*
X89455714Y-30606666D01*
X89550952Y-30606666D01*
X89598571Y-30630476D01*
X89622380Y-30654285D01*
X89646190Y-30701904D01*
D12*
X86624618Y-66286388D02*
X86641453Y-66286388D01*
X86675125Y-66269553D01*
X86691961Y-66252717D01*
X86708797Y-66219045D01*
X86708797Y-66185373D01*
X86700379Y-66160119D01*
X86675125Y-66118030D01*
X86649871Y-66092776D01*
X86607782Y-66067522D01*
X86582528Y-66059104D01*
X86548856Y-66059104D01*
X86515184Y-66075940D01*
X86498349Y-66092776D01*
X86481513Y-66126448D01*
X86481513Y-66143284D01*
X86414169Y-66210627D02*
X86397333Y-66210627D01*
X86372079Y-66219045D01*
X86329990Y-66261135D01*
X86321572Y-66286388D01*
X86321572Y-66303224D01*
X86329990Y-66328478D01*
X86346826Y-66345314D01*
X86380497Y-66362150D01*
X86582528Y-66362150D01*
X86473095Y-66471583D01*
X86186885Y-66404240D02*
X86170049Y-66421076D01*
X86161631Y-66446329D01*
X86161631Y-66463165D01*
X86170049Y-66488419D01*
X86195303Y-66530509D01*
X86237392Y-66572598D01*
X86279482Y-66597852D01*
X86304736Y-66606270D01*
X86321572Y-66606270D01*
X86346826Y-66597852D01*
X86363662Y-66581016D01*
X86372079Y-66555763D01*
X86372079Y-66538927D01*
X86363662Y-66513673D01*
X86338408Y-66471583D01*
X86296318Y-66429493D01*
X86254228Y-66404240D01*
X86228974Y-66395822D01*
X86212139Y-66395822D01*
X86186885Y-66404240D01*
X85968018Y-66623106D02*
X86052198Y-66538927D01*
X86144795Y-66614688D01*
X86127959Y-66614688D01*
X86102705Y-66623106D01*
X86060616Y-66665196D01*
X86052198Y-66690450D01*
X86052198Y-66707285D01*
X86060616Y-66732539D01*
X86102705Y-66774629D01*
X86127959Y-66783047D01*
X86144795Y-66783047D01*
X86170049Y-66774629D01*
X86212139Y-66732539D01*
X86220557Y-66707285D01*
X86220557Y-66690450D01*
X88779880Y-68441650D02*
X88796715Y-68441650D01*
X88830387Y-68424815D01*
X88847223Y-68407979D01*
X88864059Y-68374307D01*
X88864059Y-68340635D01*
X88855641Y-68315381D01*
X88830387Y-68273292D01*
X88805133Y-68248038D01*
X88763044Y-68222784D01*
X88737790Y-68214366D01*
X88704118Y-68214366D01*
X88670446Y-68231202D01*
X88653611Y-68248038D01*
X88636775Y-68281710D01*
X88636775Y-68298546D01*
X88569431Y-68365889D02*
X88552595Y-68365889D01*
X88527341Y-68374307D01*
X88485252Y-68416397D01*
X88476834Y-68441650D01*
X88476834Y-68458486D01*
X88485252Y-68483740D01*
X88502088Y-68500576D01*
X88535759Y-68517412D01*
X88737790Y-68517412D01*
X88628357Y-68626845D01*
X88459998Y-68795204D02*
X88561013Y-68694189D01*
X88510506Y-68744696D02*
X88333729Y-68567920D01*
X88375819Y-68576337D01*
X88409490Y-68576337D01*
X88434744Y-68567920D01*
X88291639Y-68963563D02*
X88392654Y-68862547D01*
X88342147Y-68913055D02*
X88165370Y-68736278D01*
X88207460Y-68744696D01*
X88241132Y-68744696D01*
X88266385Y-68736278D01*
D13*
X83192857Y-165036190D02*
X83192857Y-165393333D01*
X83216666Y-165464761D01*
X83264285Y-165512380D01*
X83335714Y-165536190D01*
X83383333Y-165536190D01*
X82978571Y-165083809D02*
X82954761Y-165060000D01*
X82907142Y-165036190D01*
X82788095Y-165036190D01*
X82740476Y-165060000D01*
X82716666Y-165083809D01*
X82692857Y-165131428D01*
X82692857Y-165179047D01*
X82716666Y-165250476D01*
X83002380Y-165536190D01*
X82692857Y-165536190D01*
X82383333Y-165036190D02*
X82335714Y-165036190D01*
X82288095Y-165060000D01*
X82264285Y-165083809D01*
X82240476Y-165131428D01*
X82216666Y-165226666D01*
X82216666Y-165345714D01*
X82240476Y-165440952D01*
X82264285Y-165488571D01*
X82288095Y-165512380D01*
X82335714Y-165536190D01*
X82383333Y-165536190D01*
X82430952Y-165512380D01*
X82454761Y-165488571D01*
X82478571Y-165440952D01*
X82502380Y-165345714D01*
X82502380Y-165226666D01*
X82478571Y-165131428D01*
X82454761Y-165083809D01*
X82430952Y-165060000D01*
X82383333Y-165036190D01*
X81788095Y-165202857D02*
X81788095Y-165536190D01*
X81907142Y-165012380D02*
X82026190Y-165369523D01*
X81716666Y-165369523D01*
D12*
X85313809Y-38571476D02*
X85380476Y-38476238D01*
X85428095Y-38571476D02*
X85428095Y-38371476D01*
X85351904Y-38371476D01*
X85332857Y-38381000D01*
X85323333Y-38390523D01*
X85313809Y-38409571D01*
X85313809Y-38438142D01*
X85323333Y-38457190D01*
X85332857Y-38466714D01*
X85351904Y-38476238D01*
X85428095Y-38476238D01*
X85237619Y-38390523D02*
X85228095Y-38381000D01*
X85209047Y-38371476D01*
X85161428Y-38371476D01*
X85142380Y-38381000D01*
X85132857Y-38390523D01*
X85123333Y-38409571D01*
X85123333Y-38428619D01*
X85132857Y-38457190D01*
X85247142Y-38571476D01*
X85123333Y-38571476D01*
X84932857Y-38571476D02*
X85047142Y-38571476D01*
X84990000Y-38571476D02*
X84990000Y-38371476D01*
X85009047Y-38400047D01*
X85028095Y-38419095D01*
X85047142Y-38428619D01*
X84742380Y-38571476D02*
X84856666Y-38571476D01*
X84799523Y-38571476D02*
X84799523Y-38371476D01*
X84818571Y-38400047D01*
X84837619Y-38419095D01*
X84856666Y-38428619D01*
D13*
X83192857Y-88836190D02*
X83192857Y-89193333D01*
X83216666Y-89264761D01*
X83264285Y-89312380D01*
X83335714Y-89336190D01*
X83383333Y-89336190D01*
X82978571Y-88883809D02*
X82954761Y-88860000D01*
X82907142Y-88836190D01*
X82788095Y-88836190D01*
X82740476Y-88860000D01*
X82716666Y-88883809D01*
X82692857Y-88931428D01*
X82692857Y-88979047D01*
X82716666Y-89050476D01*
X83002380Y-89336190D01*
X82692857Y-89336190D01*
X82383333Y-88836190D02*
X82335714Y-88836190D01*
X82288095Y-88860000D01*
X82264285Y-88883809D01*
X82240476Y-88931428D01*
X82216666Y-89026666D01*
X82216666Y-89145714D01*
X82240476Y-89240952D01*
X82264285Y-89288571D01*
X82288095Y-89312380D01*
X82335714Y-89336190D01*
X82383333Y-89336190D01*
X82430952Y-89312380D01*
X82454761Y-89288571D01*
X82478571Y-89240952D01*
X82502380Y-89145714D01*
X82502380Y-89026666D01*
X82478571Y-88931428D01*
X82454761Y-88883809D01*
X82430952Y-88860000D01*
X82383333Y-88836190D01*
X81930952Y-89050476D02*
X81978571Y-89026666D01*
X82002380Y-89002857D01*
X82026190Y-88955238D01*
X82026190Y-88931428D01*
X82002380Y-88883809D01*
X81978571Y-88860000D01*
X81930952Y-88836190D01*
X81835714Y-88836190D01*
X81788095Y-88860000D01*
X81764285Y-88883809D01*
X81740476Y-88931428D01*
X81740476Y-88955238D01*
X81764285Y-89002857D01*
X81788095Y-89026666D01*
X81835714Y-89050476D01*
X81930952Y-89050476D01*
X81978571Y-89074285D01*
X82002380Y-89098095D01*
X82026190Y-89145714D01*
X82026190Y-89240952D01*
X82002380Y-89288571D01*
X81978571Y-89312380D01*
X81930952Y-89336190D01*
X81835714Y-89336190D01*
X81788095Y-89312380D01*
X81764285Y-89288571D01*
X81740476Y-89240952D01*
X81740476Y-89145714D01*
X81764285Y-89098095D01*
X81788095Y-89074285D01*
X81835714Y-89050476D01*
D12*
X86449285Y-173765442D02*
X86461190Y-173753537D01*
X86473095Y-173717823D01*
X86473095Y-173694013D01*
X86461190Y-173658299D01*
X86437380Y-173634489D01*
X86413571Y-173622584D01*
X86365952Y-173610680D01*
X86330238Y-173610680D01*
X86282619Y-173622584D01*
X86258809Y-173634489D01*
X86235000Y-173658299D01*
X86223095Y-173694013D01*
X86223095Y-173717823D01*
X86235000Y-173753537D01*
X86246904Y-173765442D01*
X86223095Y-173848775D02*
X86223095Y-174003537D01*
X86318333Y-173920204D01*
X86318333Y-173955918D01*
X86330238Y-173979727D01*
X86342142Y-173991632D01*
X86365952Y-174003537D01*
X86425476Y-174003537D01*
X86449285Y-173991632D01*
X86461190Y-173979727D01*
X86473095Y-173955918D01*
X86473095Y-173884489D01*
X86461190Y-173860680D01*
X86449285Y-173848775D01*
X86246904Y-174098775D02*
X86235000Y-174110680D01*
X86223095Y-174134489D01*
X86223095Y-174194013D01*
X86235000Y-174217823D01*
X86246904Y-174229727D01*
X86270714Y-174241632D01*
X86294523Y-174241632D01*
X86330238Y-174229727D01*
X86473095Y-174086870D01*
X86473095Y-174241632D01*
X86223095Y-174467823D02*
X86223095Y-174348775D01*
X86342142Y-174336870D01*
X86330238Y-174348775D01*
X86318333Y-174372584D01*
X86318333Y-174432108D01*
X86330238Y-174455918D01*
X86342142Y-174467823D01*
X86365952Y-174479727D01*
X86425476Y-174479727D01*
X86449285Y-174467823D01*
X86461190Y-174455918D01*
X86473095Y-174432108D01*
X86473095Y-174372584D01*
X86461190Y-174348775D01*
X86449285Y-174336870D01*
D13*
X83192857Y-43116190D02*
X83192857Y-43473333D01*
X83216666Y-43544761D01*
X83264285Y-43592380D01*
X83335714Y-43616190D01*
X83383333Y-43616190D01*
X82978571Y-43163809D02*
X82954761Y-43140000D01*
X82907142Y-43116190D01*
X82788095Y-43116190D01*
X82740476Y-43140000D01*
X82716666Y-43163809D01*
X82692857Y-43211428D01*
X82692857Y-43259047D01*
X82716666Y-43330476D01*
X83002380Y-43616190D01*
X82692857Y-43616190D01*
X82383333Y-43116190D02*
X82335714Y-43116190D01*
X82288095Y-43140000D01*
X82264285Y-43163809D01*
X82240476Y-43211428D01*
X82216666Y-43306666D01*
X82216666Y-43425714D01*
X82240476Y-43520952D01*
X82264285Y-43568571D01*
X82288095Y-43592380D01*
X82335714Y-43616190D01*
X82383333Y-43616190D01*
X82430952Y-43592380D01*
X82454761Y-43568571D01*
X82478571Y-43520952D01*
X82502380Y-43425714D01*
X82502380Y-43306666D01*
X82478571Y-43211428D01*
X82454761Y-43163809D01*
X82430952Y-43140000D01*
X82383333Y-43116190D01*
X81764285Y-43116190D02*
X82002380Y-43116190D01*
X82026190Y-43354285D01*
X82002380Y-43330476D01*
X81954761Y-43306666D01*
X81835714Y-43306666D01*
X81788095Y-43330476D01*
X81764285Y-43354285D01*
X81740476Y-43401904D01*
X81740476Y-43520952D01*
X81764285Y-43568571D01*
X81788095Y-43592380D01*
X81835714Y-43616190D01*
X81954761Y-43616190D01*
X82002380Y-43592380D01*
X82026190Y-43568571D01*
D12*
X86075809Y-34888476D02*
X86142476Y-34793238D01*
X86190095Y-34888476D02*
X86190095Y-34688476D01*
X86113904Y-34688476D01*
X86094857Y-34698000D01*
X86085333Y-34707523D01*
X86075809Y-34726571D01*
X86075809Y-34755142D01*
X86085333Y-34774190D01*
X86094857Y-34783714D01*
X86113904Y-34793238D01*
X86190095Y-34793238D01*
X85894857Y-34688476D02*
X85990095Y-34688476D01*
X85999619Y-34783714D01*
X85990095Y-34774190D01*
X85971047Y-34764666D01*
X85923428Y-34764666D01*
X85904380Y-34774190D01*
X85894857Y-34783714D01*
X85885333Y-34802761D01*
X85885333Y-34850380D01*
X85894857Y-34869428D01*
X85904380Y-34878952D01*
X85923428Y-34888476D01*
X85971047Y-34888476D01*
X85990095Y-34878952D01*
X85999619Y-34869428D01*
X85761523Y-34688476D02*
X85742476Y-34688476D01*
X85723428Y-34698000D01*
X85713904Y-34707523D01*
X85704380Y-34726571D01*
X85694857Y-34764666D01*
X85694857Y-34812285D01*
X85704380Y-34850380D01*
X85713904Y-34869428D01*
X85723428Y-34878952D01*
X85742476Y-34888476D01*
X85761523Y-34888476D01*
X85780571Y-34878952D01*
X85790095Y-34869428D01*
X85799619Y-34850380D01*
X85809142Y-34812285D01*
X85809142Y-34764666D01*
X85799619Y-34726571D01*
X85790095Y-34707523D01*
X85780571Y-34698000D01*
X85761523Y-34688476D01*
X85618666Y-34707523D02*
X85609142Y-34698000D01*
X85590095Y-34688476D01*
X85542476Y-34688476D01*
X85523428Y-34698000D01*
X85513904Y-34707523D01*
X85504380Y-34726571D01*
X85504380Y-34745619D01*
X85513904Y-34774190D01*
X85628190Y-34888476D01*
X85504380Y-34888476D01*
X86449285Y-132462840D02*
X86461190Y-132450935D01*
X86473095Y-132415221D01*
X86473095Y-132391411D01*
X86461190Y-132355697D01*
X86437380Y-132331887D01*
X86413571Y-132319982D01*
X86365952Y-132308078D01*
X86330238Y-132308078D01*
X86282619Y-132319982D01*
X86258809Y-132331887D01*
X86235000Y-132355697D01*
X86223095Y-132391411D01*
X86223095Y-132415221D01*
X86235000Y-132450935D01*
X86246904Y-132462840D01*
X86223095Y-132546173D02*
X86223095Y-132700935D01*
X86318333Y-132617602D01*
X86318333Y-132653316D01*
X86330238Y-132677125D01*
X86342142Y-132689030D01*
X86365952Y-132700935D01*
X86425476Y-132700935D01*
X86449285Y-132689030D01*
X86461190Y-132677125D01*
X86473095Y-132653316D01*
X86473095Y-132581887D01*
X86461190Y-132558078D01*
X86449285Y-132546173D01*
X86473095Y-132939030D02*
X86473095Y-132796173D01*
X86473095Y-132867602D02*
X86223095Y-132867602D01*
X86258809Y-132843792D01*
X86282619Y-132819982D01*
X86294523Y-132796173D01*
X86306428Y-133153316D02*
X86473095Y-133153316D01*
X86211190Y-133093792D02*
X86389761Y-133034268D01*
X86389761Y-133189030D01*
D13*
X83791428Y-19805714D02*
X83791428Y-19672380D01*
X84000952Y-19672380D02*
X83600952Y-19672380D01*
X83600952Y-19862857D01*
X83600952Y-20205714D02*
X83600952Y-20015238D01*
X83791428Y-19996190D01*
X83772380Y-20015238D01*
X83753333Y-20053333D01*
X83753333Y-20148571D01*
X83772380Y-20186666D01*
X83791428Y-20205714D01*
X83829523Y-20224761D01*
X83924761Y-20224761D01*
X83962857Y-20205714D01*
X83981904Y-20186666D01*
X84000952Y-20148571D01*
X84000952Y-20053333D01*
X83981904Y-20015238D01*
X83962857Y-19996190D01*
X83600952Y-20472380D02*
X83600952Y-20510476D01*
X83620000Y-20548571D01*
X83639047Y-20567619D01*
X83677142Y-20586666D01*
X83753333Y-20605714D01*
X83848571Y-20605714D01*
X83924761Y-20586666D01*
X83962857Y-20567619D01*
X83981904Y-20548571D01*
X84000952Y-20510476D01*
X84000952Y-20472380D01*
X83981904Y-20434285D01*
X83962857Y-20415238D01*
X83924761Y-20396190D01*
X83848571Y-20377142D01*
X83753333Y-20377142D01*
X83677142Y-20396190D01*
X83639047Y-20415238D01*
X83620000Y-20434285D01*
X83600952Y-20472380D01*
X84000952Y-20986666D02*
X84000952Y-20758095D01*
X84000952Y-20872380D02*
X83600952Y-20872380D01*
X83658095Y-20834285D01*
X83696190Y-20796190D01*
X83715238Y-20758095D01*
D12*
X86449285Y-117443712D02*
X86461190Y-117431807D01*
X86473095Y-117396093D01*
X86473095Y-117372283D01*
X86461190Y-117336569D01*
X86437380Y-117312759D01*
X86413571Y-117300854D01*
X86365952Y-117288950D01*
X86330238Y-117288950D01*
X86282619Y-117300854D01*
X86258809Y-117312759D01*
X86235000Y-117336569D01*
X86223095Y-117372283D01*
X86223095Y-117396093D01*
X86235000Y-117431807D01*
X86246904Y-117443712D01*
X86223095Y-117527045D02*
X86223095Y-117681807D01*
X86318333Y-117598474D01*
X86318333Y-117634188D01*
X86330238Y-117657997D01*
X86342142Y-117669902D01*
X86365952Y-117681807D01*
X86425476Y-117681807D01*
X86449285Y-117669902D01*
X86461190Y-117657997D01*
X86473095Y-117634188D01*
X86473095Y-117562759D01*
X86461190Y-117538950D01*
X86449285Y-117527045D01*
X86473095Y-117919902D02*
X86473095Y-117777045D01*
X86473095Y-117848474D02*
X86223095Y-117848474D01*
X86258809Y-117824664D01*
X86282619Y-117800854D01*
X86294523Y-117777045D01*
X86223095Y-118074664D02*
X86223095Y-118098474D01*
X86235000Y-118122283D01*
X86246904Y-118134188D01*
X86270714Y-118146093D01*
X86318333Y-118157997D01*
X86377857Y-118157997D01*
X86425476Y-118146093D01*
X86449285Y-118134188D01*
X86461190Y-118122283D01*
X86473095Y-118098474D01*
X86473095Y-118074664D01*
X86461190Y-118050854D01*
X86449285Y-118038950D01*
X86425476Y-118027045D01*
X86377857Y-118015140D01*
X86318333Y-118015140D01*
X86270714Y-118027045D01*
X86246904Y-118038950D01*
X86235000Y-118050854D01*
X86223095Y-118074664D01*
D13*
X90812857Y-73596190D02*
X90812857Y-73953333D01*
X90836666Y-74024761D01*
X90884285Y-74072380D01*
X90955714Y-74096190D01*
X91003333Y-74096190D01*
X90598571Y-73643809D02*
X90574761Y-73620000D01*
X90527142Y-73596190D01*
X90408095Y-73596190D01*
X90360476Y-73620000D01*
X90336666Y-73643809D01*
X90312857Y-73691428D01*
X90312857Y-73739047D01*
X90336666Y-73810476D01*
X90622380Y-74096190D01*
X90312857Y-74096190D01*
X89836666Y-74096190D02*
X90122380Y-74096190D01*
X89979523Y-74096190D02*
X89979523Y-73596190D01*
X90027142Y-73667619D01*
X90074761Y-73715238D01*
X90122380Y-73739047D01*
X89598571Y-74096190D02*
X89503333Y-74096190D01*
X89455714Y-74072380D01*
X89431904Y-74048571D01*
X89384285Y-73977142D01*
X89360476Y-73881904D01*
X89360476Y-73691428D01*
X89384285Y-73643809D01*
X89408095Y-73620000D01*
X89455714Y-73596190D01*
X89550952Y-73596190D01*
X89598571Y-73620000D01*
X89622380Y-73643809D01*
X89646190Y-73691428D01*
X89646190Y-73810476D01*
X89622380Y-73858095D01*
X89598571Y-73881904D01*
X89550952Y-73905714D01*
X89455714Y-73905714D01*
X89408095Y-73881904D01*
X89384285Y-73858095D01*
X89360476Y-73810476D01*
D15*
X82502717Y-70541567D02*
G75*
G03*
X82502717Y-70541567I-100000J0D01*
G01*
D16*
X85565211Y-70096038D02*
X85764022Y-69897227D01*
X84843962Y-69374789D02*
X85042773Y-69175978D01*
X86870000Y-143866368D02*
X86870000Y-144147528D01*
X85850000Y-143866368D02*
X85850000Y-144147528D01*
X83880000Y-176470000D02*
X82550000Y-176470000D01*
X83880000Y-179130000D02*
X81220000Y-179130000D01*
X83880000Y-177800000D02*
X83880000Y-176470000D01*
X83880000Y-179070000D02*
X83880000Y-179130000D01*
X81220000Y-179070000D02*
X81220000Y-179130000D01*
X83880000Y-179070000D02*
X81220000Y-179070000D01*
X85850000Y-177659406D02*
X85850000Y-177940566D01*
X86870000Y-177659406D02*
X86870000Y-177940566D01*
X88840000Y-176530000D02*
X88840000Y-176590000D01*
X91500000Y-173930000D02*
X90170000Y-173930000D01*
X91500000Y-175260000D02*
X91500000Y-173930000D01*
X91500000Y-176530000D02*
X88840000Y-176530000D01*
X91500000Y-176530000D02*
X91500000Y-176590000D01*
X91500000Y-176590000D02*
X88840000Y-176590000D01*
X86870000Y-125092458D02*
X86870000Y-125373618D01*
X85850000Y-125092458D02*
X85850000Y-125373618D01*
X83880000Y-153670000D02*
X81220000Y-153670000D01*
X83880000Y-153730000D02*
X81220000Y-153730000D01*
X81220000Y-153670000D02*
X81220000Y-153730000D01*
X83880000Y-151070000D02*
X82550000Y-151070000D01*
X83880000Y-153670000D02*
X83880000Y-153730000D01*
X83880000Y-152400000D02*
X83880000Y-151070000D01*
X88840000Y-168910000D02*
X88840000Y-168970000D01*
X91500000Y-166310000D02*
X90170000Y-166310000D01*
X91500000Y-168910000D02*
X91500000Y-168970000D01*
X91500000Y-168970000D02*
X88840000Y-168970000D01*
X91500000Y-168910000D02*
X88840000Y-168910000D01*
X91500000Y-167640000D02*
X91500000Y-166310000D01*
X86219420Y-30355000D02*
X86500580Y-30355000D01*
X86219420Y-29335000D02*
X86500580Y-29335000D01*
X83880000Y-120590000D02*
X82550000Y-120590000D01*
X83880000Y-123250000D02*
X81220000Y-123250000D01*
X81220000Y-123190000D02*
X81220000Y-123250000D01*
X83880000Y-123190000D02*
X83880000Y-123250000D01*
X83880000Y-123190000D02*
X81220000Y-123190000D01*
X83880000Y-121920000D02*
X83880000Y-120590000D01*
D17*
X89650000Y-19855000D02*
X89650000Y-22055000D01*
X88150000Y-19855000D02*
X88150000Y-22055000D01*
D15*
X89000000Y-18455000D02*
G75*
G03*
X89000000Y-18455000I-100000J0D01*
G01*
D16*
X83880000Y-27940000D02*
X83880000Y-26610000D01*
X81220000Y-29210000D02*
X81220000Y-29270000D01*
X83880000Y-29210000D02*
X83880000Y-29270000D01*
X83880000Y-29270000D02*
X81220000Y-29270000D01*
X83880000Y-26610000D02*
X82550000Y-26610000D01*
X83880000Y-29210000D02*
X81220000Y-29210000D01*
X81220000Y-107950000D02*
X81220000Y-108010000D01*
X83880000Y-105350000D02*
X82550000Y-105350000D01*
X83880000Y-108010000D02*
X81220000Y-108010000D01*
X83880000Y-107950000D02*
X83880000Y-108010000D01*
X83880000Y-107950000D02*
X81220000Y-107950000D01*
X83880000Y-106680000D02*
X83880000Y-105350000D01*
X83880000Y-36770000D02*
X82550000Y-36770000D01*
X83880000Y-38100000D02*
X83880000Y-36770000D01*
X83880000Y-39370000D02*
X81220000Y-39370000D01*
X83880000Y-39370000D02*
X83880000Y-39430000D01*
X81220000Y-39370000D02*
X81220000Y-39430000D01*
X83880000Y-39430000D02*
X81220000Y-39430000D01*
X83880000Y-31750000D02*
X83880000Y-31810000D01*
X83880000Y-30480000D02*
X83880000Y-29150000D01*
X83880000Y-31750000D02*
X81220000Y-31750000D01*
X83880000Y-29150000D02*
X82550000Y-29150000D01*
X83880000Y-31810000D02*
X81220000Y-31810000D01*
X81220000Y-31750000D02*
X81220000Y-31810000D01*
X91500000Y-27940000D02*
X91500000Y-26610000D01*
X91500000Y-29210000D02*
X88840000Y-29210000D01*
X91500000Y-29270000D02*
X88840000Y-29270000D01*
X91500000Y-29210000D02*
X91500000Y-29270000D01*
X91500000Y-26610000D02*
X90170000Y-26610000D01*
X88840000Y-29210000D02*
X88840000Y-29270000D01*
X85850000Y-91299420D02*
X85850000Y-91580580D01*
X86870000Y-91299420D02*
X86870000Y-91580580D01*
X91500000Y-31750000D02*
X91500000Y-31810000D01*
X91500000Y-29150000D02*
X90170000Y-29150000D01*
X91500000Y-31810000D02*
X88840000Y-31810000D01*
X91500000Y-31750000D02*
X88840000Y-31750000D01*
X91500000Y-30480000D02*
X91500000Y-29150000D01*
X88840000Y-31750000D02*
X88840000Y-31810000D01*
X86870000Y-102563766D02*
X86870000Y-102844926D01*
X85850000Y-102563766D02*
X85850000Y-102844926D01*
X91500000Y-36830000D02*
X88840000Y-36830000D01*
X91500000Y-36830000D02*
X91500000Y-36890000D01*
X91500000Y-35560000D02*
X91500000Y-34230000D01*
X88840000Y-36830000D02*
X88840000Y-36890000D01*
X91500000Y-34230000D02*
X90170000Y-34230000D01*
X91500000Y-36890000D02*
X88840000Y-36890000D01*
X83880000Y-138430000D02*
X83880000Y-138490000D01*
X83880000Y-135830000D02*
X82550000Y-135830000D01*
X83880000Y-137160000D02*
X83880000Y-135830000D01*
X83880000Y-138490000D02*
X81220000Y-138490000D01*
X81220000Y-138430000D02*
X81220000Y-138490000D01*
X83880000Y-138430000D02*
X81220000Y-138430000D01*
X91500000Y-176470000D02*
X90170000Y-176470000D01*
X91500000Y-179070000D02*
X91500000Y-179130000D01*
X91500000Y-179130000D02*
X88840000Y-179130000D01*
X91500000Y-177800000D02*
X91500000Y-176470000D01*
X91500000Y-179070000D02*
X88840000Y-179070000D01*
X88840000Y-179070000D02*
X88840000Y-179130000D01*
X86642842Y-71173669D02*
X86841653Y-70974858D01*
X85921593Y-70452420D02*
X86120404Y-70253609D01*
X86870000Y-155130714D02*
X86870000Y-155411874D01*
X85850000Y-155130714D02*
X85850000Y-155411874D01*
D17*
X87110000Y-21420000D02*
X87110000Y-19220000D01*
X85610000Y-21420000D02*
X85610000Y-19220000D01*
D15*
X86460000Y-22820000D02*
G75*
G03*
X86460000Y-22820000I-100000J0D01*
G01*
D16*
X81220000Y-77470000D02*
X81220000Y-77530000D01*
X83880000Y-74870000D02*
X82550000Y-74870000D01*
X83880000Y-77530000D02*
X81220000Y-77530000D01*
X83880000Y-77470000D02*
X81220000Y-77470000D01*
X83880000Y-76200000D02*
X83880000Y-74870000D01*
X83880000Y-77470000D02*
X83880000Y-77530000D01*
X85850000Y-162640278D02*
X85850000Y-162921438D01*
X86870000Y-162640278D02*
X86870000Y-162921438D01*
X86870000Y-170149842D02*
X86870000Y-170431002D01*
X85850000Y-170149842D02*
X85850000Y-170431002D01*
X91500000Y-138430000D02*
X88840000Y-138430000D01*
X91500000Y-138430000D02*
X91500000Y-138490000D01*
X91500000Y-135830000D02*
X90170000Y-135830000D01*
X88840000Y-138430000D02*
X88840000Y-138490000D01*
X91500000Y-138490000D02*
X88840000Y-138490000D01*
X91500000Y-137160000D02*
X91500000Y-135830000D01*
X85850000Y-151375932D02*
X85850000Y-151657092D01*
X86870000Y-151375932D02*
X86870000Y-151657092D01*
X91500000Y-152400000D02*
X91500000Y-151070000D01*
X88840000Y-153670000D02*
X88840000Y-153730000D01*
X91500000Y-153670000D02*
X91500000Y-153730000D01*
X91500000Y-153730000D02*
X88840000Y-153730000D01*
X91500000Y-151070000D02*
X90170000Y-151070000D01*
X91500000Y-153670000D02*
X88840000Y-153670000D01*
X81220000Y-176530000D02*
X81220000Y-176590000D01*
X83880000Y-175260000D02*
X83880000Y-173930000D01*
X83880000Y-176590000D02*
X81220000Y-176590000D01*
X83880000Y-173930000D02*
X82550000Y-173930000D01*
X83880000Y-176530000D02*
X83880000Y-176590000D01*
X83880000Y-176530000D02*
X81220000Y-176530000D01*
X83880000Y-34350000D02*
X81220000Y-34350000D01*
X83880000Y-31690000D02*
X82550000Y-31690000D01*
X81220000Y-34290000D02*
X81220000Y-34350000D01*
X83880000Y-34290000D02*
X83880000Y-34350000D01*
X83880000Y-34290000D02*
X81220000Y-34290000D01*
X83880000Y-33020000D02*
X83880000Y-31690000D01*
X83880000Y-62230000D02*
X81220000Y-62230000D01*
X81220000Y-62230000D02*
X81220000Y-62290000D01*
X83880000Y-62230000D02*
X83880000Y-62290000D01*
X83880000Y-60960000D02*
X83880000Y-59630000D01*
X83880000Y-62290000D02*
X81220000Y-62290000D01*
X83880000Y-59630000D02*
X82550000Y-59630000D01*
X86870000Y-106318548D02*
X86870000Y-106599708D01*
X85850000Y-106318548D02*
X85850000Y-106599708D01*
X91500000Y-38100000D02*
X91500000Y-36770000D01*
X88840000Y-39370000D02*
X88840000Y-39430000D01*
X91500000Y-39370000D02*
X91500000Y-39430000D01*
X91500000Y-39430000D02*
X88840000Y-39430000D01*
X91500000Y-36770000D02*
X90170000Y-36770000D01*
X91500000Y-39370000D02*
X88840000Y-39370000D01*
X86500580Y-33145000D02*
X86219420Y-33145000D01*
X86500580Y-34165000D02*
X86219420Y-34165000D01*
X85850000Y-140111586D02*
X85850000Y-140392746D01*
X86870000Y-140111586D02*
X86870000Y-140392746D01*
D17*
X85540000Y-32375000D02*
X85540000Y-31125000D01*
X87180000Y-32375000D02*
X87180000Y-31125000D01*
D15*
X86860000Y-33225000D02*
G75*
G03*
X86860000Y-33225000I-100000J0D01*
G01*
D16*
X83880000Y-36830000D02*
X83880000Y-36890000D01*
X83880000Y-36830000D02*
X81220000Y-36830000D01*
X81220000Y-36830000D02*
X81220000Y-36890000D01*
X83880000Y-34230000D02*
X82550000Y-34230000D01*
X83880000Y-35560000D02*
X83880000Y-34230000D01*
X83880000Y-36890000D02*
X81220000Y-36890000D01*
X85850000Y-136356804D02*
X85850000Y-136637964D01*
X86870000Y-136356804D02*
X86870000Y-136637964D01*
X85850000Y-158885496D02*
X85850000Y-159166656D01*
X86870000Y-158885496D02*
X86870000Y-159166656D01*
X86870000Y-128847240D02*
X86870000Y-129128400D01*
X85850000Y-128847240D02*
X85850000Y-129128400D01*
X86870000Y-98808984D02*
X86870000Y-99090144D01*
X85850000Y-98808984D02*
X85850000Y-99090144D01*
X87901323Y-67759926D02*
X87702512Y-67958737D01*
X87180074Y-67038677D02*
X86981263Y-67237488D01*
X85850000Y-95054202D02*
X85850000Y-95335362D01*
X86870000Y-95054202D02*
X86870000Y-95335362D01*
X91500000Y-59630000D02*
X90170000Y-59630000D01*
X91500000Y-62290000D02*
X88840000Y-62290000D01*
X91500000Y-62230000D02*
X91500000Y-62290000D01*
X91500000Y-62230000D02*
X88840000Y-62230000D01*
X91500000Y-60960000D02*
X91500000Y-59630000D01*
X88840000Y-62230000D02*
X88840000Y-62290000D01*
X86870000Y-147621150D02*
X86870000Y-147902310D01*
X85850000Y-147621150D02*
X85850000Y-147902310D01*
X86870000Y-166395060D02*
X86870000Y-166676220D01*
X85850000Y-166395060D02*
X85850000Y-166676220D01*
D15*
X86360000Y-28490000D02*
X86360000Y-27390000D01*
D16*
X86855000Y-113828112D02*
X86855000Y-114109272D01*
X85835000Y-113828112D02*
X85835000Y-114109272D01*
X85850000Y-121337676D02*
X85850000Y-121618836D01*
X86870000Y-121337676D02*
X86870000Y-121618836D01*
X91500000Y-107950000D02*
X91500000Y-108010000D01*
X91500000Y-107950000D02*
X88840000Y-107950000D01*
X91500000Y-108010000D02*
X88840000Y-108010000D01*
X91500000Y-106680000D02*
X91500000Y-105350000D01*
X91500000Y-105350000D02*
X90170000Y-105350000D01*
X88840000Y-107950000D02*
X88840000Y-108010000D01*
X83769541Y-68291652D02*
X83968352Y-68092841D01*
X84490790Y-69012901D02*
X84689601Y-68814090D01*
X91500000Y-47050000D02*
X88840000Y-47050000D01*
X91500000Y-46990000D02*
X88840000Y-46990000D01*
X88840000Y-46990000D02*
X88840000Y-47050000D01*
X91500000Y-46990000D02*
X91500000Y-47050000D01*
X91500000Y-44390000D02*
X90170000Y-44390000D01*
X91500000Y-45720000D02*
X91500000Y-44390000D01*
X88840000Y-123190000D02*
X88840000Y-123250000D01*
X91500000Y-120590000D02*
X90170000Y-120590000D01*
X91500000Y-121920000D02*
X91500000Y-120590000D01*
X91500000Y-123190000D02*
X91500000Y-123250000D01*
X91500000Y-123190000D02*
X88840000Y-123190000D01*
X91500000Y-123250000D02*
X88840000Y-123250000D01*
X91500000Y-91440000D02*
X91500000Y-90110000D01*
X91500000Y-92710000D02*
X91500000Y-92770000D01*
X91500000Y-90110000D02*
X90170000Y-90110000D01*
X91500000Y-92710000D02*
X88840000Y-92710000D01*
X91500000Y-92770000D02*
X88840000Y-92770000D01*
X88840000Y-92710000D02*
X88840000Y-92770000D01*
X86855000Y-110073330D02*
X86855000Y-110354490D01*
X85835000Y-110073330D02*
X85835000Y-110354490D01*
X91500000Y-31690000D02*
X90170000Y-31690000D01*
X91500000Y-34350000D02*
X88840000Y-34350000D01*
X91500000Y-33020000D02*
X91500000Y-31690000D01*
X88840000Y-34290000D02*
X88840000Y-34350000D01*
X91500000Y-34290000D02*
X91500000Y-34350000D01*
X91500000Y-34290000D02*
X88840000Y-34290000D01*
X86102443Y-65961046D02*
X85903632Y-66159857D01*
X86823692Y-66682295D02*
X86624881Y-66881106D01*
X88257705Y-68116308D02*
X88058894Y-68315119D01*
X88978954Y-68837557D02*
X88780143Y-69036368D01*
X83880000Y-167640000D02*
X83880000Y-166310000D01*
X83880000Y-166310000D02*
X82550000Y-166310000D01*
X83880000Y-168910000D02*
X81220000Y-168910000D01*
X81220000Y-168910000D02*
X81220000Y-168970000D01*
X83880000Y-168970000D02*
X81220000Y-168970000D01*
X83880000Y-168910000D02*
X83880000Y-168970000D01*
X83880000Y-92710000D02*
X81220000Y-92710000D01*
X83880000Y-92770000D02*
X81220000Y-92770000D01*
X81220000Y-92710000D02*
X81220000Y-92770000D01*
X83880000Y-91440000D02*
X83880000Y-90110000D01*
X83880000Y-90110000D02*
X82550000Y-90110000D01*
X83880000Y-92710000D02*
X83880000Y-92770000D01*
X86870000Y-173904624D02*
X86870000Y-174185784D01*
X85850000Y-173904624D02*
X85850000Y-174185784D01*
X83880000Y-46990000D02*
X81220000Y-46990000D01*
X83880000Y-46990000D02*
X83880000Y-47050000D01*
X83880000Y-47050000D02*
X81220000Y-47050000D01*
X81220000Y-46990000D02*
X81220000Y-47050000D01*
X83880000Y-44390000D02*
X82550000Y-44390000D01*
X83880000Y-45720000D02*
X83880000Y-44390000D01*
X85850000Y-132602022D02*
X85850000Y-132883182D01*
X86870000Y-132602022D02*
X86870000Y-132883182D01*
X84530000Y-20578578D02*
X84530000Y-20061422D01*
X83110000Y-20578578D02*
X83110000Y-20061422D01*
X86870000Y-117582894D02*
X86870000Y-117864054D01*
X85850000Y-117582894D02*
X85850000Y-117864054D01*
X91500000Y-77530000D02*
X88840000Y-77530000D01*
X91500000Y-76200000D02*
X91500000Y-74870000D01*
X91500000Y-74870000D02*
X90170000Y-74870000D01*
X88840000Y-77470000D02*
X88840000Y-77530000D01*
X91500000Y-77470000D02*
X88840000Y-77470000D01*
X91500000Y-77470000D02*
X91500000Y-77530000D01*
M02*
