G04 #@! TF.GenerationSoftware,KiCad,Pcbnew,(6.0.6)*
G04 #@! TF.CreationDate,2023-03-09T20:25:47-07:00*
G04 #@! TF.ProjectId,RP2040-Breadstick,52503230-3430-42d4-9272-656164737469,0.1*
G04 #@! TF.SameCoordinates,Original*
G04 #@! TF.FileFunction,Legend,Top*
G04 #@! TF.FilePolarity,Positive*
%FSLAX46Y46*%
G04 Gerber Fmt 4.6, Leading zero omitted, Abs format (unit mm)*
G04 Created by KiCad (PCBNEW (6.0.6)) date 2023-03-09 20:25:47*
%MOMM*%
%LPD*%
G01*
G04 APERTURE LIST*
%ADD10C,0.150000*%
%ADD11C,0.202000*%
%ADD12C,0.329000*%
%ADD13C,0.300000*%
%ADD14C,0.212500*%
%ADD15C,0.100000*%
%ADD16C,0.050000*%
%ADD17C,0.000003*%
%ADD18C,0.254000*%
%ADD19C,0.120000*%
%ADD20C,0.127000*%
%ADD21C,0.200000*%
%ADD22C,0.010000*%
%ADD23C,0.140000*%
G04 APERTURE END LIST*
D10*
X88265000Y-83820000D02*
X90297000Y-83820000D01*
G36*
X90805000Y-83820000D02*
G01*
X90297000Y-84074000D01*
X90297000Y-83566000D01*
X90805000Y-83820000D01*
G37*
X90805000Y-83820000D02*
X90297000Y-84074000D01*
X90297000Y-83566000D01*
X90805000Y-83820000D01*
G36*
X84582000Y-83820000D02*
G01*
X84074000Y-84074000D01*
X84074000Y-83566000D01*
X84582000Y-83820000D01*
G37*
X84582000Y-83820000D02*
X84074000Y-84074000D01*
X84074000Y-83566000D01*
X84582000Y-83820000D01*
X88265000Y-81026000D02*
X88265000Y-83820000D01*
D11*
X84361000Y-75200000D02*
G75*
G03*
X84361000Y-75200000I-101000J0D01*
G01*
D10*
G36*
X82296000Y-81026000D02*
G01*
X81788000Y-81026000D01*
X82042000Y-80518000D01*
X82296000Y-81026000D01*
G37*
X82296000Y-81026000D02*
X81788000Y-81026000D01*
X82042000Y-80518000D01*
X82296000Y-81026000D01*
X82042000Y-83820000D02*
X84074000Y-83820000D01*
D12*
X82206500Y-83820000D02*
G75*
G03*
X82206500Y-83820000I-164500J0D01*
G01*
D10*
X82042000Y-81026000D02*
X82042000Y-83820000D01*
G36*
X88519000Y-81026000D02*
G01*
X88011000Y-81026000D01*
X88265000Y-80518000D01*
X88519000Y-81026000D01*
G37*
X88519000Y-81026000D02*
X88011000Y-81026000D01*
X88265000Y-80518000D01*
X88519000Y-81026000D01*
D11*
X85699000Y-87503000D02*
G75*
G03*
X85699000Y-87503000I-101000J0D01*
G01*
D12*
X88429500Y-83820000D02*
G75*
G03*
X88429500Y-83820000I-164500J0D01*
G01*
D13*
X89217619Y-47059523D02*
X89277142Y-47000000D01*
X89396190Y-46940476D01*
X89693809Y-46940476D01*
X89812857Y-47000000D01*
X89872380Y-47059523D01*
X89931904Y-47178571D01*
X89931904Y-47297619D01*
X89872380Y-47476190D01*
X89158095Y-48190476D01*
X89931904Y-48190476D01*
X90527142Y-48190476D02*
X90765238Y-48190476D01*
X90884285Y-48130952D01*
X90943809Y-48071428D01*
X91062857Y-47892857D01*
X91122380Y-47654761D01*
X91122380Y-47178571D01*
X91062857Y-47059523D01*
X91003333Y-47000000D01*
X90884285Y-46940476D01*
X90646190Y-46940476D01*
X90527142Y-47000000D01*
X90467619Y-47059523D01*
X90408095Y-47178571D01*
X90408095Y-47476190D01*
X90467619Y-47595238D01*
X90527142Y-47654761D01*
X90646190Y-47714285D01*
X90884285Y-47714285D01*
X91003333Y-47654761D01*
X91062857Y-47595238D01*
X91122380Y-47476190D01*
X86121904Y-161542934D02*
X85407619Y-161542934D01*
X85764761Y-161542934D02*
X85764761Y-160292934D01*
X85645714Y-160471505D01*
X85526666Y-160590553D01*
X85407619Y-160650077D01*
X86717142Y-161542934D02*
X86955238Y-161542934D01*
X87074285Y-161483410D01*
X87133809Y-161423886D01*
X87252857Y-161245315D01*
X87312380Y-161007219D01*
X87312380Y-160531029D01*
X87252857Y-160411981D01*
X87193333Y-160352458D01*
X87074285Y-160292934D01*
X86836190Y-160292934D01*
X86717142Y-160352458D01*
X86657619Y-160411981D01*
X86598095Y-160531029D01*
X86598095Y-160828648D01*
X86657619Y-160947696D01*
X86717142Y-161007219D01*
X86836190Y-161066743D01*
X87074285Y-161066743D01*
X87193333Y-161007219D01*
X87252857Y-160947696D01*
X87312380Y-160828648D01*
X86121904Y-135259460D02*
X85407619Y-135259460D01*
X85764761Y-135259460D02*
X85764761Y-134009460D01*
X85645714Y-134188031D01*
X85526666Y-134307079D01*
X85407619Y-134366603D01*
X86598095Y-134128507D02*
X86657619Y-134068984D01*
X86776666Y-134009460D01*
X87074285Y-134009460D01*
X87193333Y-134068984D01*
X87252857Y-134128507D01*
X87312380Y-134247555D01*
X87312380Y-134366603D01*
X87252857Y-134545174D01*
X86538571Y-135259460D01*
X87312380Y-135259460D01*
X88582619Y-172730000D02*
X88463571Y-172670476D01*
X88285000Y-172670476D01*
X88106428Y-172730000D01*
X87987380Y-172849047D01*
X87927857Y-172968095D01*
X87868333Y-173206190D01*
X87868333Y-173384761D01*
X87927857Y-173622857D01*
X87987380Y-173741904D01*
X88106428Y-173860952D01*
X88285000Y-173920476D01*
X88404047Y-173920476D01*
X88582619Y-173860952D01*
X88642142Y-173801428D01*
X88642142Y-173384761D01*
X88404047Y-173384761D01*
X89177857Y-173920476D02*
X89177857Y-172670476D01*
X89892142Y-173920476D01*
X89892142Y-172670476D01*
X90487380Y-173920476D02*
X90487380Y-172670476D01*
X90785000Y-172670476D01*
X90963571Y-172730000D01*
X91082619Y-172849047D01*
X91142142Y-172968095D01*
X91201666Y-173206190D01*
X91201666Y-173384761D01*
X91142142Y-173622857D01*
X91082619Y-173741904D01*
X90963571Y-173860952D01*
X90785000Y-173920476D01*
X90487380Y-173920476D01*
X86300476Y-88952076D02*
X86419523Y-88952076D01*
X86538571Y-89011600D01*
X86598095Y-89071123D01*
X86657619Y-89190171D01*
X86717142Y-89428266D01*
X86717142Y-89725885D01*
X86657619Y-89963980D01*
X86598095Y-90083028D01*
X86538571Y-90142552D01*
X86419523Y-90202076D01*
X86300476Y-90202076D01*
X86181428Y-90142552D01*
X86121904Y-90083028D01*
X86062380Y-89963980D01*
X86002857Y-89725885D01*
X86002857Y-89428266D01*
X86062380Y-89190171D01*
X86121904Y-89071123D01*
X86181428Y-89011600D01*
X86300476Y-88952076D01*
X89217619Y-92779523D02*
X89277142Y-92720000D01*
X89396190Y-92660476D01*
X89693809Y-92660476D01*
X89812857Y-92720000D01*
X89872380Y-92779523D01*
X89931904Y-92898571D01*
X89931904Y-93017619D01*
X89872380Y-93196190D01*
X89158095Y-93910476D01*
X89931904Y-93910476D01*
X91003333Y-92660476D02*
X90765238Y-92660476D01*
X90646190Y-92720000D01*
X90586666Y-92779523D01*
X90467619Y-92958095D01*
X90408095Y-93196190D01*
X90408095Y-93672380D01*
X90467619Y-93791428D01*
X90527142Y-93850952D01*
X90646190Y-93910476D01*
X90884285Y-93910476D01*
X91003333Y-93850952D01*
X91062857Y-93791428D01*
X91122380Y-93672380D01*
X91122380Y-93374761D01*
X91062857Y-93255714D01*
X91003333Y-93196190D01*
X90884285Y-93136666D01*
X90646190Y-93136666D01*
X90527142Y-93196190D01*
X90467619Y-93255714D01*
X90408095Y-93374761D01*
X84812380Y-34875476D02*
X85586190Y-34875476D01*
X85169523Y-35351666D01*
X85348095Y-35351666D01*
X85467142Y-35411190D01*
X85526666Y-35470714D01*
X85586190Y-35589761D01*
X85586190Y-35887380D01*
X85526666Y-36006428D01*
X85467142Y-36065952D01*
X85348095Y-36125476D01*
X84990952Y-36125476D01*
X84871904Y-36065952D01*
X84812380Y-36006428D01*
X85943333Y-34875476D02*
X86360000Y-36125476D01*
X86776666Y-34875476D01*
X87074285Y-34875476D02*
X87848095Y-34875476D01*
X87431428Y-35351666D01*
X87610000Y-35351666D01*
X87729047Y-35411190D01*
X87788571Y-35470714D01*
X87848095Y-35589761D01*
X87848095Y-35887380D01*
X87788571Y-36006428D01*
X87729047Y-36065952D01*
X87610000Y-36125476D01*
X87252857Y-36125476D01*
X87133809Y-36065952D01*
X87074285Y-36006428D01*
X89217619Y-153739523D02*
X89277142Y-153680000D01*
X89396190Y-153620476D01*
X89693809Y-153620476D01*
X89812857Y-153680000D01*
X89872380Y-153739523D01*
X89931904Y-153858571D01*
X89931904Y-153977619D01*
X89872380Y-154156190D01*
X89158095Y-154870476D01*
X89931904Y-154870476D01*
X90408095Y-153739523D02*
X90467619Y-153680000D01*
X90586666Y-153620476D01*
X90884285Y-153620476D01*
X91003333Y-153680000D01*
X91062857Y-153739523D01*
X91122380Y-153858571D01*
X91122380Y-153977619D01*
X91062857Y-154156190D01*
X90348571Y-154870476D01*
X91122380Y-154870476D01*
X86121904Y-157788152D02*
X85407619Y-157788152D01*
X85764761Y-157788152D02*
X85764761Y-156538152D01*
X85645714Y-156716723D01*
X85526666Y-156835771D01*
X85407619Y-156895295D01*
X86836190Y-157073866D02*
X86717142Y-157014342D01*
X86657619Y-156954818D01*
X86598095Y-156835771D01*
X86598095Y-156776247D01*
X86657619Y-156657199D01*
X86717142Y-156597676D01*
X86836190Y-156538152D01*
X87074285Y-156538152D01*
X87193333Y-156597676D01*
X87252857Y-156657199D01*
X87312380Y-156776247D01*
X87312380Y-156835771D01*
X87252857Y-156954818D01*
X87193333Y-157014342D01*
X87074285Y-157073866D01*
X86836190Y-157073866D01*
X86717142Y-157133390D01*
X86657619Y-157192914D01*
X86598095Y-157311961D01*
X86598095Y-157550056D01*
X86657619Y-157669104D01*
X86717142Y-157728628D01*
X86836190Y-157788152D01*
X87074285Y-157788152D01*
X87193333Y-157728628D01*
X87252857Y-157669104D01*
X87312380Y-157550056D01*
X87312380Y-157311961D01*
X87252857Y-157192914D01*
X87193333Y-157133390D01*
X87074285Y-157073866D01*
X89217619Y-123259523D02*
X89277142Y-123200000D01*
X89396190Y-123140476D01*
X89693809Y-123140476D01*
X89812857Y-123200000D01*
X89872380Y-123259523D01*
X89931904Y-123378571D01*
X89931904Y-123497619D01*
X89872380Y-123676190D01*
X89158095Y-124390476D01*
X89931904Y-124390476D01*
X91003333Y-123557142D02*
X91003333Y-124390476D01*
X90705714Y-123080952D02*
X90408095Y-123973809D01*
X91181904Y-123973809D01*
X84663571Y-54520714D02*
X84842142Y-54580238D01*
X84901666Y-54639761D01*
X84961190Y-54758809D01*
X84961190Y-54937380D01*
X84901666Y-55056428D01*
X84842142Y-55115952D01*
X84723095Y-55175476D01*
X84246904Y-55175476D01*
X84246904Y-53925476D01*
X84663571Y-53925476D01*
X84782619Y-53985000D01*
X84842142Y-54044523D01*
X84901666Y-54163571D01*
X84901666Y-54282619D01*
X84842142Y-54401666D01*
X84782619Y-54461190D01*
X84663571Y-54520714D01*
X84246904Y-54520714D01*
X85735000Y-53925476D02*
X85973095Y-53925476D01*
X86092142Y-53985000D01*
X86211190Y-54104047D01*
X86270714Y-54342142D01*
X86270714Y-54758809D01*
X86211190Y-54996904D01*
X86092142Y-55115952D01*
X85973095Y-55175476D01*
X85735000Y-55175476D01*
X85615952Y-55115952D01*
X85496904Y-54996904D01*
X85437380Y-54758809D01*
X85437380Y-54342142D01*
X85496904Y-54104047D01*
X85615952Y-53985000D01*
X85735000Y-53925476D01*
X87044523Y-53925476D02*
X87282619Y-53925476D01*
X87401666Y-53985000D01*
X87520714Y-54104047D01*
X87580238Y-54342142D01*
X87580238Y-54758809D01*
X87520714Y-54996904D01*
X87401666Y-55115952D01*
X87282619Y-55175476D01*
X87044523Y-55175476D01*
X86925476Y-55115952D01*
X86806428Y-54996904D01*
X86746904Y-54758809D01*
X86746904Y-54342142D01*
X86806428Y-54104047D01*
X86925476Y-53985000D01*
X87044523Y-53925476D01*
X87937380Y-53925476D02*
X88651666Y-53925476D01*
X88294523Y-55175476D02*
X88294523Y-53925476D01*
X85943333Y-115235550D02*
X86776666Y-115235550D01*
X86240952Y-116485550D01*
X85407619Y-164166763D02*
X85467142Y-164107240D01*
X85586190Y-164047716D01*
X85883809Y-164047716D01*
X86002857Y-164107240D01*
X86062380Y-164166763D01*
X86121904Y-164285811D01*
X86121904Y-164404859D01*
X86062380Y-164583430D01*
X85348095Y-165297716D01*
X86121904Y-165297716D01*
X86895714Y-164047716D02*
X87014761Y-164047716D01*
X87133809Y-164107240D01*
X87193333Y-164166763D01*
X87252857Y-164285811D01*
X87312380Y-164523906D01*
X87312380Y-164821525D01*
X87252857Y-165059620D01*
X87193333Y-165178668D01*
X87133809Y-165238192D01*
X87014761Y-165297716D01*
X86895714Y-165297716D01*
X86776666Y-165238192D01*
X86717142Y-165178668D01*
X86657619Y-165059620D01*
X86598095Y-164821525D01*
X86598095Y-164523906D01*
X86657619Y-164285811D01*
X86717142Y-164166763D01*
X86776666Y-164107240D01*
X86895714Y-164047716D01*
X85407619Y-175431123D02*
X85467142Y-175371600D01*
X85586190Y-175312076D01*
X85883809Y-175312076D01*
X86002857Y-175371600D01*
X86062380Y-175431123D01*
X86121904Y-175550171D01*
X86121904Y-175669219D01*
X86062380Y-175847790D01*
X85348095Y-176562076D01*
X86121904Y-176562076D01*
X86538571Y-175312076D02*
X87312380Y-175312076D01*
X86895714Y-175788266D01*
X87074285Y-175788266D01*
X87193333Y-175847790D01*
X87252857Y-175907314D01*
X87312380Y-176026361D01*
X87312380Y-176323980D01*
X87252857Y-176443028D01*
X87193333Y-176502552D01*
X87074285Y-176562076D01*
X86717142Y-176562076D01*
X86598095Y-176502552D01*
X86538571Y-176443028D01*
X86002857Y-96580687D02*
X86062380Y-96521164D01*
X86181428Y-96461640D01*
X86479047Y-96461640D01*
X86598095Y-96521164D01*
X86657619Y-96580687D01*
X86717142Y-96699735D01*
X86717142Y-96818783D01*
X86657619Y-96997354D01*
X85943333Y-97711640D01*
X86717142Y-97711640D01*
D14*
X84044666Y-82465523D02*
X84611333Y-83315523D01*
X84611333Y-82465523D02*
X84044666Y-83315523D01*
D13*
X86240952Y-119526046D02*
X86121904Y-119466522D01*
X86062380Y-119406998D01*
X86002857Y-119287951D01*
X86002857Y-119228427D01*
X86062380Y-119109379D01*
X86121904Y-119049856D01*
X86240952Y-118990332D01*
X86479047Y-118990332D01*
X86598095Y-119049856D01*
X86657619Y-119109379D01*
X86717142Y-119228427D01*
X86717142Y-119287951D01*
X86657619Y-119406998D01*
X86598095Y-119466522D01*
X86479047Y-119526046D01*
X86240952Y-119526046D01*
X86121904Y-119585570D01*
X86062380Y-119645094D01*
X86002857Y-119764141D01*
X86002857Y-120002236D01*
X86062380Y-120121284D01*
X86121904Y-120180808D01*
X86240952Y-120240332D01*
X86479047Y-120240332D01*
X86598095Y-120180808D01*
X86657619Y-120121284D01*
X86717142Y-120002236D01*
X86717142Y-119764141D01*
X86657619Y-119645094D01*
X86598095Y-119585570D01*
X86479047Y-119526046D01*
X81637380Y-85298333D02*
X82232619Y-85298333D01*
X81518333Y-85655476D02*
X81935000Y-84405476D01*
X82351666Y-85655476D01*
X83482619Y-85536428D02*
X83423095Y-85595952D01*
X83244523Y-85655476D01*
X83125476Y-85655476D01*
X82946904Y-85595952D01*
X82827857Y-85476904D01*
X82768333Y-85357857D01*
X82708809Y-85119761D01*
X82708809Y-84941190D01*
X82768333Y-84703095D01*
X82827857Y-84584047D01*
X82946904Y-84465000D01*
X83125476Y-84405476D01*
X83244523Y-84405476D01*
X83423095Y-84465000D01*
X83482619Y-84524523D01*
X84732619Y-85536428D02*
X84673095Y-85595952D01*
X84494523Y-85655476D01*
X84375476Y-85655476D01*
X84196904Y-85595952D01*
X84077857Y-85476904D01*
X84018333Y-85357857D01*
X83958809Y-85119761D01*
X83958809Y-84941190D01*
X84018333Y-84703095D01*
X84077857Y-84584047D01*
X84196904Y-84465000D01*
X84375476Y-84405476D01*
X84494523Y-84405476D01*
X84673095Y-84465000D01*
X84732619Y-84524523D01*
X86717142Y-93956858D02*
X86002857Y-93956858D01*
X86360000Y-93956858D02*
X86360000Y-92706858D01*
X86240952Y-92885429D01*
X86121904Y-93004477D01*
X86002857Y-93064001D01*
X89217619Y-138499523D02*
X89277142Y-138440000D01*
X89396190Y-138380476D01*
X89693809Y-138380476D01*
X89812857Y-138440000D01*
X89872380Y-138499523D01*
X89931904Y-138618571D01*
X89931904Y-138737619D01*
X89872380Y-138916190D01*
X89158095Y-139630476D01*
X89931904Y-139630476D01*
X90348571Y-138380476D02*
X91122380Y-138380476D01*
X90705714Y-138856666D01*
X90884285Y-138856666D01*
X91003333Y-138916190D01*
X91062857Y-138975714D01*
X91122380Y-139094761D01*
X91122380Y-139392380D01*
X91062857Y-139511428D01*
X91003333Y-139570952D01*
X90884285Y-139630476D01*
X90527142Y-139630476D01*
X90408095Y-139570952D01*
X90348571Y-139511428D01*
X85943333Y-100216422D02*
X86717142Y-100216422D01*
X86300476Y-100692612D01*
X86479047Y-100692612D01*
X86598095Y-100752136D01*
X86657619Y-100811660D01*
X86717142Y-100930707D01*
X86717142Y-101228326D01*
X86657619Y-101347374D01*
X86598095Y-101406898D01*
X86479047Y-101466422D01*
X86121904Y-101466422D01*
X86002857Y-101406898D01*
X85943333Y-101347374D01*
X82440952Y-180151428D02*
X82381428Y-180210952D01*
X82202857Y-180270476D01*
X82083809Y-180270476D01*
X81905238Y-180210952D01*
X81786190Y-180091904D01*
X81726666Y-179972857D01*
X81667142Y-179734761D01*
X81667142Y-179556190D01*
X81726666Y-179318095D01*
X81786190Y-179199047D01*
X81905238Y-179080000D01*
X82083809Y-179020476D01*
X82202857Y-179020476D01*
X82381428Y-179080000D01*
X82440952Y-179139523D01*
X83571904Y-180270476D02*
X82976666Y-180270476D01*
X82976666Y-179020476D01*
X83988571Y-180270476D02*
X83988571Y-179020476D01*
X84702857Y-180270476D02*
X84167142Y-179556190D01*
X84702857Y-179020476D02*
X83988571Y-179734761D01*
X86598095Y-104387870D02*
X86598095Y-105221204D01*
X86300476Y-103911680D02*
X86002857Y-104804537D01*
X86776666Y-104804537D01*
X89217619Y-108019523D02*
X89277142Y-107960000D01*
X89396190Y-107900476D01*
X89693809Y-107900476D01*
X89812857Y-107960000D01*
X89872380Y-108019523D01*
X89931904Y-108138571D01*
X89931904Y-108257619D01*
X89872380Y-108436190D01*
X89158095Y-109150476D01*
X89931904Y-109150476D01*
X91062857Y-107900476D02*
X90467619Y-107900476D01*
X90408095Y-108495714D01*
X90467619Y-108436190D01*
X90586666Y-108376666D01*
X90884285Y-108376666D01*
X91003333Y-108436190D01*
X91062857Y-108495714D01*
X91122380Y-108614761D01*
X91122380Y-108912380D01*
X91062857Y-109031428D01*
X91003333Y-109090952D01*
X90884285Y-109150476D01*
X90586666Y-109150476D01*
X90467619Y-109090952D01*
X90408095Y-109031428D01*
D14*
X89290095Y-81410523D02*
X89006761Y-81005761D01*
X88804380Y-81410523D02*
X88804380Y-80560523D01*
X89128190Y-80560523D01*
X89209142Y-80601000D01*
X89249619Y-80641476D01*
X89290095Y-80722428D01*
X89290095Y-80843857D01*
X89249619Y-80924809D01*
X89209142Y-80965285D01*
X89128190Y-81005761D01*
X88804380Y-81005761D01*
D13*
X88790952Y-85655476D02*
X88374285Y-85060238D01*
X88076666Y-85655476D02*
X88076666Y-84405476D01*
X88552857Y-84405476D01*
X88671904Y-84465000D01*
X88731428Y-84524523D01*
X88790952Y-84643571D01*
X88790952Y-84822142D01*
X88731428Y-84941190D01*
X88671904Y-85000714D01*
X88552857Y-85060238D01*
X88076666Y-85060238D01*
X89564761Y-84405476D02*
X89802857Y-84405476D01*
X89921904Y-84465000D01*
X90040952Y-84584047D01*
X90100476Y-84822142D01*
X90100476Y-85238809D01*
X90040952Y-85476904D01*
X89921904Y-85595952D01*
X89802857Y-85655476D01*
X89564761Y-85655476D01*
X89445714Y-85595952D01*
X89326666Y-85476904D01*
X89267142Y-85238809D01*
X89267142Y-84822142D01*
X89326666Y-84584047D01*
X89445714Y-84465000D01*
X89564761Y-84405476D01*
X90457619Y-84405476D02*
X91171904Y-84405476D01*
X90814761Y-85655476D02*
X90814761Y-84405476D01*
X82133333Y-153620476D02*
X82966666Y-153620476D01*
X82430952Y-154870476D01*
D14*
X82520666Y-82465523D02*
X83087333Y-82465523D01*
X82520666Y-83315523D01*
X83087333Y-83315523D01*
D13*
X86598095Y-111480768D02*
X86360000Y-111480768D01*
X86240952Y-111540292D01*
X86181428Y-111599815D01*
X86062380Y-111778387D01*
X86002857Y-112016482D01*
X86002857Y-112492672D01*
X86062380Y-112611720D01*
X86121904Y-112671244D01*
X86240952Y-112730768D01*
X86479047Y-112730768D01*
X86598095Y-112671244D01*
X86657619Y-112611720D01*
X86717142Y-112492672D01*
X86717142Y-112195053D01*
X86657619Y-112076006D01*
X86598095Y-112016482D01*
X86479047Y-111956958D01*
X86240952Y-111956958D01*
X86121904Y-112016482D01*
X86062380Y-112076006D01*
X86002857Y-112195053D01*
D14*
X89027000Y-82910761D02*
X89027000Y-83315523D01*
X88743666Y-82465523D02*
X89027000Y-82910761D01*
X89310333Y-82465523D01*
D13*
X89217619Y-77539523D02*
X89277142Y-77480000D01*
X89396190Y-77420476D01*
X89693809Y-77420476D01*
X89812857Y-77480000D01*
X89872380Y-77539523D01*
X89931904Y-77658571D01*
X89931904Y-77777619D01*
X89872380Y-77956190D01*
X89158095Y-78670476D01*
X89931904Y-78670476D01*
X90348571Y-77420476D02*
X91181904Y-77420476D01*
X90646190Y-78670476D01*
X89217619Y-168979523D02*
X89277142Y-168920000D01*
X89396190Y-168860476D01*
X89693809Y-168860476D01*
X89812857Y-168920000D01*
X89872380Y-168979523D01*
X89931904Y-169098571D01*
X89931904Y-169217619D01*
X89872380Y-169396190D01*
X89158095Y-170110476D01*
X89931904Y-170110476D01*
X91122380Y-170110476D02*
X90408095Y-170110476D01*
X90765238Y-170110476D02*
X90765238Y-168860476D01*
X90646190Y-169039047D01*
X90527142Y-169158095D01*
X90408095Y-169217619D01*
X86121904Y-150278588D02*
X85407619Y-150278588D01*
X85764761Y-150278588D02*
X85764761Y-149028588D01*
X85645714Y-149207159D01*
X85526666Y-149326207D01*
X85407619Y-149385731D01*
X87193333Y-149028588D02*
X86955238Y-149028588D01*
X86836190Y-149088112D01*
X86776666Y-149147635D01*
X86657619Y-149326207D01*
X86598095Y-149564302D01*
X86598095Y-150040492D01*
X86657619Y-150159540D01*
X86717142Y-150219064D01*
X86836190Y-150278588D01*
X87074285Y-150278588D01*
X87193333Y-150219064D01*
X87252857Y-150159540D01*
X87312380Y-150040492D01*
X87312380Y-149742873D01*
X87252857Y-149623826D01*
X87193333Y-149564302D01*
X87074285Y-149504778D01*
X86836190Y-149504778D01*
X86717142Y-149564302D01*
X86657619Y-149623826D01*
X86598095Y-149742873D01*
X86121904Y-139014242D02*
X85407619Y-139014242D01*
X85764761Y-139014242D02*
X85764761Y-137764242D01*
X85645714Y-137942813D01*
X85526666Y-138061861D01*
X85407619Y-138121385D01*
X86538571Y-137764242D02*
X87312380Y-137764242D01*
X86895714Y-138240432D01*
X87074285Y-138240432D01*
X87193333Y-138299956D01*
X87252857Y-138359480D01*
X87312380Y-138478527D01*
X87312380Y-138776146D01*
X87252857Y-138895194D01*
X87193333Y-138954718D01*
X87074285Y-139014242D01*
X86717142Y-139014242D01*
X86598095Y-138954718D01*
X86538571Y-138895194D01*
X86121904Y-123995114D02*
X86360000Y-123995114D01*
X86479047Y-123935590D01*
X86538571Y-123876066D01*
X86657619Y-123697495D01*
X86717142Y-123459399D01*
X86717142Y-122983209D01*
X86657619Y-122864161D01*
X86598095Y-122804638D01*
X86479047Y-122745114D01*
X86240952Y-122745114D01*
X86121904Y-122804638D01*
X86062380Y-122864161D01*
X86002857Y-122983209D01*
X86002857Y-123280828D01*
X86062380Y-123399876D01*
X86121904Y-123459399D01*
X86240952Y-123518923D01*
X86479047Y-123518923D01*
X86598095Y-123459399D01*
X86657619Y-123399876D01*
X86717142Y-123280828D01*
X86121904Y-131504678D02*
X85407619Y-131504678D01*
X85764761Y-131504678D02*
X85764761Y-130254678D01*
X85645714Y-130433249D01*
X85526666Y-130552297D01*
X85407619Y-130611821D01*
X87312380Y-131504678D02*
X86598095Y-131504678D01*
X86955238Y-131504678D02*
X86955238Y-130254678D01*
X86836190Y-130433249D01*
X86717142Y-130552297D01*
X86598095Y-130611821D01*
X86657619Y-107725986D02*
X86062380Y-107725986D01*
X86002857Y-108321224D01*
X86062380Y-108261700D01*
X86181428Y-108202176D01*
X86479047Y-108202176D01*
X86598095Y-108261700D01*
X86657619Y-108321224D01*
X86717142Y-108440271D01*
X86717142Y-108737890D01*
X86657619Y-108856938D01*
X86598095Y-108916462D01*
X86479047Y-108975986D01*
X86181428Y-108975986D01*
X86062380Y-108916462D01*
X86002857Y-108856938D01*
X86121904Y-146523806D02*
X85407619Y-146523806D01*
X85764761Y-146523806D02*
X85764761Y-145273806D01*
X85645714Y-145452377D01*
X85526666Y-145571425D01*
X85407619Y-145630949D01*
X87252857Y-145273806D02*
X86657619Y-145273806D01*
X86598095Y-145869044D01*
X86657619Y-145809520D01*
X86776666Y-145749996D01*
X87074285Y-145749996D01*
X87193333Y-145809520D01*
X87252857Y-145869044D01*
X87312380Y-145988091D01*
X87312380Y-146285710D01*
X87252857Y-146404758D01*
X87193333Y-146464282D01*
X87074285Y-146523806D01*
X86776666Y-146523806D01*
X86657619Y-146464282D01*
X86598095Y-146404758D01*
X86121904Y-142769024D02*
X85407619Y-142769024D01*
X85764761Y-142769024D02*
X85764761Y-141519024D01*
X85645714Y-141697595D01*
X85526666Y-141816643D01*
X85407619Y-141876167D01*
X87193333Y-141935690D02*
X87193333Y-142769024D01*
X86895714Y-141459500D02*
X86598095Y-142352357D01*
X87371904Y-142352357D01*
X86121904Y-29795476D02*
X85526666Y-29795476D01*
X85467142Y-30390714D01*
X85526666Y-30331190D01*
X85645714Y-30271666D01*
X85943333Y-30271666D01*
X86062380Y-30331190D01*
X86121904Y-30390714D01*
X86181428Y-30509761D01*
X86181428Y-30807380D01*
X86121904Y-30926428D01*
X86062380Y-30985952D01*
X85943333Y-31045476D01*
X85645714Y-31045476D01*
X85526666Y-30985952D01*
X85467142Y-30926428D01*
X86538571Y-29795476D02*
X86955238Y-31045476D01*
X87371904Y-29795476D01*
X89277142Y-44023333D02*
X89872380Y-44023333D01*
X89158095Y-44380476D02*
X89574761Y-43130476D01*
X89991428Y-44380476D01*
X90289047Y-43130476D02*
X91062857Y-43130476D01*
X90646190Y-43606666D01*
X90824761Y-43606666D01*
X90943809Y-43666190D01*
X91003333Y-43725714D01*
X91062857Y-43844761D01*
X91062857Y-44142380D01*
X91003333Y-44261428D01*
X90943809Y-44320952D01*
X90824761Y-44380476D01*
X90467619Y-44380476D01*
X90348571Y-44320952D01*
X90289047Y-44261428D01*
X85407619Y-32395000D02*
X85288571Y-32335476D01*
X85110000Y-32335476D01*
X84931428Y-32395000D01*
X84812380Y-32514047D01*
X84752857Y-32633095D01*
X84693333Y-32871190D01*
X84693333Y-33049761D01*
X84752857Y-33287857D01*
X84812380Y-33406904D01*
X84931428Y-33525952D01*
X85110000Y-33585476D01*
X85229047Y-33585476D01*
X85407619Y-33525952D01*
X85467142Y-33466428D01*
X85467142Y-33049761D01*
X85229047Y-33049761D01*
X86002857Y-33585476D02*
X86002857Y-32335476D01*
X86717142Y-33585476D01*
X86717142Y-32335476D01*
X87312380Y-33585476D02*
X87312380Y-32335476D01*
X87610000Y-32335476D01*
X87788571Y-32395000D01*
X87907619Y-32514047D01*
X87967142Y-32633095D01*
X88026666Y-32871190D01*
X88026666Y-33049761D01*
X87967142Y-33287857D01*
X87907619Y-33406904D01*
X87788571Y-33525952D01*
X87610000Y-33585476D01*
X87312380Y-33585476D01*
X85407619Y-171676327D02*
X85467142Y-171616804D01*
X85586190Y-171557280D01*
X85883809Y-171557280D01*
X86002857Y-171616804D01*
X86062380Y-171676327D01*
X86121904Y-171795375D01*
X86121904Y-171914423D01*
X86062380Y-172092994D01*
X85348095Y-172807280D01*
X86121904Y-172807280D01*
X86598095Y-171676327D02*
X86657619Y-171616804D01*
X86776666Y-171557280D01*
X87074285Y-171557280D01*
X87193333Y-171616804D01*
X87252857Y-171676327D01*
X87312380Y-171795375D01*
X87312380Y-171914423D01*
X87252857Y-172092994D01*
X86538571Y-172807280D01*
X87312380Y-172807280D01*
X82907142Y-63430476D02*
X82192857Y-63430476D01*
X82550000Y-63430476D02*
X82550000Y-62180476D01*
X82430952Y-62359047D01*
X82311904Y-62478095D01*
X82192857Y-62537619D01*
X82133333Y-92660476D02*
X82907142Y-92660476D01*
X82490476Y-93136666D01*
X82669047Y-93136666D01*
X82788095Y-93196190D01*
X82847619Y-93255714D01*
X82907142Y-93374761D01*
X82907142Y-93672380D01*
X82847619Y-93791428D01*
X82788095Y-93850952D01*
X82669047Y-93910476D01*
X82311904Y-93910476D01*
X82192857Y-93850952D01*
X82133333Y-93791428D01*
X82847619Y-123140476D02*
X82252380Y-123140476D01*
X82192857Y-123735714D01*
X82252380Y-123676190D01*
X82371428Y-123616666D01*
X82669047Y-123616666D01*
X82788095Y-123676190D01*
X82847619Y-123735714D01*
X82907142Y-123854761D01*
X82907142Y-124152380D01*
X82847619Y-124271428D01*
X82788095Y-124330952D01*
X82669047Y-124390476D01*
X82371428Y-124390476D01*
X82252380Y-124330952D01*
X82192857Y-124271428D01*
X85407619Y-167921545D02*
X85467142Y-167862022D01*
X85586190Y-167802498D01*
X85883809Y-167802498D01*
X86002857Y-167862022D01*
X86062380Y-167921545D01*
X86121904Y-168040593D01*
X86121904Y-168159641D01*
X86062380Y-168338212D01*
X85348095Y-169052498D01*
X86121904Y-169052498D01*
X87312380Y-169052498D02*
X86598095Y-169052498D01*
X86955238Y-169052498D02*
X86955238Y-167802498D01*
X86836190Y-167981069D01*
X86717142Y-168100117D01*
X86598095Y-168159641D01*
X86121904Y-127749896D02*
X85407619Y-127749896D01*
X85764761Y-127749896D02*
X85764761Y-126499896D01*
X85645714Y-126678467D01*
X85526666Y-126797515D01*
X85407619Y-126857039D01*
X86895714Y-126499896D02*
X87014761Y-126499896D01*
X87133809Y-126559420D01*
X87193333Y-126618943D01*
X87252857Y-126737991D01*
X87312380Y-126976086D01*
X87312380Y-127273705D01*
X87252857Y-127511800D01*
X87193333Y-127630848D01*
X87133809Y-127690372D01*
X87014761Y-127749896D01*
X86895714Y-127749896D01*
X86776666Y-127690372D01*
X86717142Y-127630848D01*
X86657619Y-127511800D01*
X86598095Y-127273705D01*
X86598095Y-126976086D01*
X86657619Y-126737991D01*
X86717142Y-126618943D01*
X86776666Y-126559420D01*
X86895714Y-126499896D01*
X81597619Y-168979523D02*
X81657142Y-168920000D01*
X81776190Y-168860476D01*
X82073809Y-168860476D01*
X82192857Y-168920000D01*
X82252380Y-168979523D01*
X82311904Y-169098571D01*
X82311904Y-169217619D01*
X82252380Y-169396190D01*
X81538095Y-170110476D01*
X82311904Y-170110476D01*
X83085714Y-168860476D02*
X83204761Y-168860476D01*
X83323809Y-168920000D01*
X83383333Y-168979523D01*
X83442857Y-169098571D01*
X83502380Y-169336666D01*
X83502380Y-169634285D01*
X83442857Y-169872380D01*
X83383333Y-169991428D01*
X83323809Y-170050952D01*
X83204761Y-170110476D01*
X83085714Y-170110476D01*
X82966666Y-170050952D01*
X82907142Y-169991428D01*
X82847619Y-169872380D01*
X82788095Y-169634285D01*
X82788095Y-169336666D01*
X82847619Y-169098571D01*
X82907142Y-168979523D01*
X82966666Y-168920000D01*
X83085714Y-168860476D01*
X89277142Y-89743333D02*
X89872380Y-89743333D01*
X89158095Y-90100476D02*
X89574761Y-88850476D01*
X89991428Y-90100476D01*
X90646190Y-88850476D02*
X90765238Y-88850476D01*
X90884285Y-88910000D01*
X90943809Y-88969523D01*
X91003333Y-89088571D01*
X91062857Y-89326666D01*
X91062857Y-89624285D01*
X91003333Y-89862380D01*
X90943809Y-89981428D01*
X90884285Y-90040952D01*
X90765238Y-90100476D01*
X90646190Y-90100476D01*
X90527142Y-90040952D01*
X90467619Y-89981428D01*
X90408095Y-89862380D01*
X90348571Y-89624285D01*
X90348571Y-89326666D01*
X90408095Y-89088571D01*
X90467619Y-88969523D01*
X90527142Y-88910000D01*
X90646190Y-88850476D01*
X82788095Y-108317142D02*
X82788095Y-109150476D01*
X82490476Y-107840952D02*
X82192857Y-108733809D01*
X82966666Y-108733809D01*
X89217619Y-62299523D02*
X89277142Y-62240000D01*
X89396190Y-62180476D01*
X89693809Y-62180476D01*
X89812857Y-62240000D01*
X89872380Y-62299523D01*
X89931904Y-62418571D01*
X89931904Y-62537619D01*
X89872380Y-62716190D01*
X89158095Y-63430476D01*
X89931904Y-63430476D01*
X90646190Y-62716190D02*
X90527142Y-62656666D01*
X90467619Y-62597142D01*
X90408095Y-62478095D01*
X90408095Y-62418571D01*
X90467619Y-62299523D01*
X90527142Y-62240000D01*
X90646190Y-62180476D01*
X90884285Y-62180476D01*
X91003333Y-62240000D01*
X91062857Y-62299523D01*
X91122380Y-62418571D01*
X91122380Y-62478095D01*
X91062857Y-62597142D01*
X91003333Y-62656666D01*
X90884285Y-62716190D01*
X90646190Y-62716190D01*
X90527142Y-62775714D01*
X90467619Y-62835238D01*
X90408095Y-62954285D01*
X90408095Y-63192380D01*
X90467619Y-63311428D01*
X90527142Y-63370952D01*
X90646190Y-63430476D01*
X90884285Y-63430476D01*
X91003333Y-63370952D01*
X91062857Y-63311428D01*
X91122380Y-63192380D01*
X91122380Y-62954285D01*
X91062857Y-62835238D01*
X91003333Y-62775714D01*
X90884285Y-62716190D01*
X82192857Y-77539523D02*
X82252380Y-77480000D01*
X82371428Y-77420476D01*
X82669047Y-77420476D01*
X82788095Y-77480000D01*
X82847619Y-77539523D01*
X82907142Y-77658571D01*
X82907142Y-77777619D01*
X82847619Y-77956190D01*
X82133333Y-78670476D01*
X82907142Y-78670476D01*
D14*
X90328380Y-83315523D02*
X90328380Y-82465523D01*
X90652190Y-82465523D01*
X90733142Y-82506000D01*
X90773619Y-82546476D01*
X90814095Y-82627428D01*
X90814095Y-82748857D01*
X90773619Y-82829809D01*
X90733142Y-82870285D01*
X90652190Y-82910761D01*
X90328380Y-82910761D01*
D13*
X84990952Y-27255476D02*
X85407619Y-28505476D01*
X85824285Y-27255476D01*
X86240952Y-28505476D02*
X86240952Y-27255476D01*
X86836190Y-28505476D02*
X86836190Y-27255476D01*
X87550476Y-28505476D01*
X87550476Y-27255476D01*
X89277142Y-74503333D02*
X89872380Y-74503333D01*
X89158095Y-74860476D02*
X89574761Y-73610476D01*
X89991428Y-74860476D01*
X91062857Y-74860476D02*
X90348571Y-74860476D01*
X90705714Y-74860476D02*
X90705714Y-73610476D01*
X90586666Y-73789047D01*
X90467619Y-73908095D01*
X90348571Y-73967619D01*
D14*
X82677000Y-81005761D02*
X82677000Y-81410523D01*
X82393666Y-80560523D02*
X82677000Y-81005761D01*
X82960333Y-80560523D01*
D13*
X87838571Y-180210952D02*
X88017142Y-180270476D01*
X88314761Y-180270476D01*
X88433809Y-180210952D01*
X88493333Y-180151428D01*
X88552857Y-180032380D01*
X88552857Y-179913333D01*
X88493333Y-179794285D01*
X88433809Y-179734761D01*
X88314761Y-179675238D01*
X88076666Y-179615714D01*
X87957619Y-179556190D01*
X87898095Y-179496666D01*
X87838571Y-179377619D01*
X87838571Y-179258571D01*
X87898095Y-179139523D01*
X87957619Y-179080000D01*
X88076666Y-179020476D01*
X88374285Y-179020476D01*
X88552857Y-179080000D01*
X88969523Y-179020476D02*
X89267142Y-180270476D01*
X89505238Y-179377619D01*
X89743333Y-180270476D01*
X90040952Y-179020476D01*
X90517142Y-180270476D02*
X90517142Y-179020476D01*
X90814761Y-179020476D01*
X90993333Y-179080000D01*
X91112380Y-179199047D01*
X91171904Y-179318095D01*
X91231428Y-179556190D01*
X91231428Y-179734761D01*
X91171904Y-179972857D01*
X91112380Y-180091904D01*
X90993333Y-180210952D01*
X90814761Y-180270476D01*
X90517142Y-180270476D01*
X83532619Y-37062500D02*
X84782619Y-37062500D01*
X84544523Y-38665476D02*
X84127857Y-38070238D01*
X83830238Y-38665476D02*
X83830238Y-37415476D01*
X84306428Y-37415476D01*
X84425476Y-37475000D01*
X84485000Y-37534523D01*
X84544523Y-37653571D01*
X84544523Y-37832142D01*
X84485000Y-37951190D01*
X84425476Y-38010714D01*
X84306428Y-38070238D01*
X83830238Y-38070238D01*
X84782619Y-37062500D02*
X85913571Y-37062500D01*
X85080238Y-38010714D02*
X85496904Y-38010714D01*
X85675476Y-38665476D02*
X85080238Y-38665476D01*
X85080238Y-37415476D01*
X85675476Y-37415476D01*
X85913571Y-37062500D02*
X87104047Y-37062500D01*
X86151666Y-38605952D02*
X86330238Y-38665476D01*
X86627857Y-38665476D01*
X86746904Y-38605952D01*
X86806428Y-38546428D01*
X86865952Y-38427380D01*
X86865952Y-38308333D01*
X86806428Y-38189285D01*
X86746904Y-38129761D01*
X86627857Y-38070238D01*
X86389761Y-38010714D01*
X86270714Y-37951190D01*
X86211190Y-37891666D01*
X86151666Y-37772619D01*
X86151666Y-37653571D01*
X86211190Y-37534523D01*
X86270714Y-37475000D01*
X86389761Y-37415476D01*
X86687380Y-37415476D01*
X86865952Y-37475000D01*
X87104047Y-37062500D02*
X88235000Y-37062500D01*
X87401666Y-38010714D02*
X87818333Y-38010714D01*
X87996904Y-38665476D02*
X87401666Y-38665476D01*
X87401666Y-37415476D01*
X87996904Y-37415476D01*
X88235000Y-37062500D02*
X89187380Y-37062500D01*
X88354047Y-37415476D02*
X89068333Y-37415476D01*
X88711190Y-38665476D02*
X88711190Y-37415476D01*
X82232619Y-172730000D02*
X82113571Y-172670476D01*
X81935000Y-172670476D01*
X81756428Y-172730000D01*
X81637380Y-172849047D01*
X81577857Y-172968095D01*
X81518333Y-173206190D01*
X81518333Y-173384761D01*
X81577857Y-173622857D01*
X81637380Y-173741904D01*
X81756428Y-173860952D01*
X81935000Y-173920476D01*
X82054047Y-173920476D01*
X82232619Y-173860952D01*
X82292142Y-173801428D01*
X82292142Y-173384761D01*
X82054047Y-173384761D01*
X82827857Y-173920476D02*
X82827857Y-172670476D01*
X83542142Y-173920476D01*
X83542142Y-172670476D01*
X84137380Y-173920476D02*
X84137380Y-172670476D01*
X84435000Y-172670476D01*
X84613571Y-172730000D01*
X84732619Y-172849047D01*
X84792142Y-172968095D01*
X84851666Y-173206190D01*
X84851666Y-173384761D01*
X84792142Y-173622857D01*
X84732619Y-173741904D01*
X84613571Y-173860952D01*
X84435000Y-173920476D01*
X84137380Y-173920476D01*
X89277142Y-59263333D02*
X89872380Y-59263333D01*
X89158095Y-59620476D02*
X89574761Y-58370476D01*
X89991428Y-59620476D01*
X90348571Y-58489523D02*
X90408095Y-58430000D01*
X90527142Y-58370476D01*
X90824761Y-58370476D01*
X90943809Y-58430000D01*
X91003333Y-58489523D01*
X91062857Y-58608571D01*
X91062857Y-58727619D01*
X91003333Y-58906190D01*
X90289047Y-59620476D01*
X91062857Y-59620476D01*
X86121904Y-154033370D02*
X85407619Y-154033370D01*
X85764761Y-154033370D02*
X85764761Y-152783370D01*
X85645714Y-152961941D01*
X85526666Y-153080989D01*
X85407619Y-153140513D01*
X86538571Y-152783370D02*
X87371904Y-152783370D01*
X86836190Y-154033370D01*
X82490476Y-46940476D02*
X82609523Y-46940476D01*
X82728571Y-47000000D01*
X82788095Y-47059523D01*
X82847619Y-47178571D01*
X82907142Y-47416666D01*
X82907142Y-47714285D01*
X82847619Y-47952380D01*
X82788095Y-48071428D01*
X82728571Y-48130952D01*
X82609523Y-48190476D01*
X82490476Y-48190476D01*
X82371428Y-48130952D01*
X82311904Y-48071428D01*
X82252380Y-47952380D01*
X82192857Y-47714285D01*
X82192857Y-47416666D01*
X82252380Y-47178571D01*
X82311904Y-47059523D01*
X82371428Y-47000000D01*
X82490476Y-46940476D01*
X82788095Y-138380476D02*
X82550000Y-138380476D01*
X82430952Y-138440000D01*
X82371428Y-138499523D01*
X82252380Y-138678095D01*
X82192857Y-138916190D01*
X82192857Y-139392380D01*
X82252380Y-139511428D01*
X82311904Y-139570952D01*
X82430952Y-139630476D01*
X82669047Y-139630476D01*
X82788095Y-139570952D01*
X82847619Y-139511428D01*
X82907142Y-139392380D01*
X82907142Y-139094761D01*
X82847619Y-138975714D01*
X82788095Y-138916190D01*
X82669047Y-138856666D01*
X82430952Y-138856666D01*
X82311904Y-138916190D01*
X82252380Y-138975714D01*
X82192857Y-139094761D01*
D15*
X85364685Y-132960992D02*
X85126590Y-132960992D01*
X85126590Y-132460992D01*
X85531352Y-132699087D02*
X85698019Y-132699087D01*
X85769447Y-132960992D02*
X85531352Y-132960992D01*
X85531352Y-132460992D01*
X85769447Y-132460992D01*
X85983733Y-132960992D02*
X85983733Y-132460992D01*
X86102780Y-132460992D01*
X86174209Y-132484802D01*
X86221828Y-132532421D01*
X86245638Y-132580040D01*
X86269447Y-132675278D01*
X86269447Y-132746706D01*
X86245638Y-132841944D01*
X86221828Y-132889563D01*
X86174209Y-132937182D01*
X86102780Y-132960992D01*
X85983733Y-132960992D01*
X86436114Y-132460992D02*
X86745638Y-132460992D01*
X86578971Y-132651468D01*
X86650400Y-132651468D01*
X86698019Y-132675278D01*
X86721828Y-132699087D01*
X86745638Y-132746706D01*
X86745638Y-132865754D01*
X86721828Y-132913373D01*
X86698019Y-132937182D01*
X86650400Y-132960992D01*
X86507542Y-132960992D01*
X86459923Y-132937182D01*
X86436114Y-132913373D01*
X87221828Y-132960992D02*
X86936114Y-132960992D01*
X87078971Y-132960992D02*
X87078971Y-132460992D01*
X87031352Y-132532421D01*
X86983733Y-132580040D01*
X86936114Y-132603849D01*
X87412304Y-132508611D02*
X87436114Y-132484802D01*
X87483733Y-132460992D01*
X87602780Y-132460992D01*
X87650400Y-132484802D01*
X87674209Y-132508611D01*
X87698019Y-132556230D01*
X87698019Y-132603849D01*
X87674209Y-132675278D01*
X87388495Y-132960992D01*
X87698019Y-132960992D01*
D16*
X86831476Y-74518809D02*
X86736238Y-74585476D01*
X86831476Y-74633095D02*
X86631476Y-74633095D01*
X86631476Y-74556904D01*
X86641000Y-74537857D01*
X86650523Y-74528333D01*
X86669571Y-74518809D01*
X86698142Y-74518809D01*
X86717190Y-74528333D01*
X86726714Y-74537857D01*
X86736238Y-74556904D01*
X86736238Y-74633095D01*
X86650523Y-74442619D02*
X86641000Y-74433095D01*
X86631476Y-74414047D01*
X86631476Y-74366428D01*
X86641000Y-74347380D01*
X86650523Y-74337857D01*
X86669571Y-74328333D01*
X86688619Y-74328333D01*
X86717190Y-74337857D01*
X86831476Y-74452142D01*
X86831476Y-74328333D01*
X86831476Y-74137857D02*
X86831476Y-74252142D01*
X86831476Y-74195000D02*
X86631476Y-74195000D01*
X86660047Y-74214047D01*
X86679095Y-74233095D01*
X86688619Y-74252142D01*
X86631476Y-74014047D02*
X86631476Y-73995000D01*
X86641000Y-73975952D01*
X86650523Y-73966428D01*
X86669571Y-73956904D01*
X86707666Y-73947380D01*
X86755285Y-73947380D01*
X86793380Y-73956904D01*
X86812428Y-73966428D01*
X86821952Y-73975952D01*
X86831476Y-73995000D01*
X86831476Y-74014047D01*
X86821952Y-74033095D01*
X86812428Y-74042619D01*
X86793380Y-74052142D01*
X86755285Y-74061666D01*
X86707666Y-74061666D01*
X86669571Y-74052142D01*
X86650523Y-74042619D01*
X86641000Y-74033095D01*
X86631476Y-74014047D01*
D17*
X85320661Y-47245977D02*
X85320407Y-47245977D01*
X85320565Y-47245953D02*
X85320661Y-47245880D01*
X85320492Y-47245880D02*
X85320589Y-47245977D01*
X85320661Y-47245771D02*
X85320492Y-47245771D01*
X85320407Y-47245771D02*
X85320420Y-47245784D01*
X85320432Y-47245771D01*
X85320420Y-47245759D01*
X85320407Y-47245771D01*
X85320432Y-47245771D01*
X85320661Y-47245651D02*
X85320407Y-47245651D01*
X85320504Y-47245651D02*
X85320492Y-47245626D01*
X85320492Y-47245578D01*
X85320504Y-47245554D01*
X85320516Y-47245542D01*
X85320540Y-47245530D01*
X85320613Y-47245530D01*
X85320637Y-47245542D01*
X85320649Y-47245554D01*
X85320661Y-47245578D01*
X85320661Y-47245626D01*
X85320649Y-47245651D01*
X85320492Y-47245312D02*
X85320661Y-47245312D01*
X85320492Y-47245421D02*
X85320625Y-47245421D01*
X85320649Y-47245409D01*
X85320661Y-47245384D01*
X85320661Y-47245348D01*
X85320649Y-47245324D01*
X85320637Y-47245312D01*
X85320492Y-47245215D02*
X85320492Y-47245082D01*
X85320661Y-47245215D01*
X85320661Y-47245082D01*
X85320492Y-47245009D02*
X85320492Y-47244876D01*
X85320661Y-47245009D01*
X85320661Y-47244876D01*
X85320661Y-47244671D02*
X85320528Y-47244671D01*
X85320504Y-47244683D01*
X85320492Y-47244707D01*
X85320492Y-47244755D01*
X85320504Y-47244780D01*
X85320649Y-47244671D02*
X85320661Y-47244695D01*
X85320661Y-47244755D01*
X85320649Y-47244780D01*
X85320625Y-47244792D01*
X85320601Y-47244792D01*
X85320577Y-47244780D01*
X85320565Y-47244755D01*
X85320565Y-47244695D01*
X85320553Y-47244671D01*
X85320661Y-47244550D02*
X85320492Y-47244550D01*
X85320540Y-47244550D02*
X85320516Y-47244538D01*
X85320504Y-47244526D01*
X85320492Y-47244501D01*
X85320492Y-47244477D01*
X85320661Y-47244284D02*
X85320407Y-47244284D01*
X85320649Y-47244284D02*
X85320661Y-47244308D01*
X85320661Y-47244356D01*
X85320649Y-47244381D01*
X85320637Y-47244393D01*
X85320613Y-47244405D01*
X85320540Y-47244405D01*
X85320516Y-47244393D01*
X85320504Y-47244381D01*
X85320492Y-47244356D01*
X85320492Y-47244308D01*
X85320504Y-47244284D01*
X85320565Y-47244163D02*
X85320565Y-47243969D01*
X85320407Y-47243739D02*
X85320407Y-47243788D01*
X85320420Y-47243812D01*
X85320432Y-47243824D01*
X85320468Y-47243848D01*
X85320516Y-47243860D01*
X85320613Y-47243860D01*
X85320637Y-47243848D01*
X85320649Y-47243836D01*
X85320661Y-47243812D01*
X85320661Y-47243764D01*
X85320649Y-47243739D01*
X85320637Y-47243727D01*
X85320613Y-47243715D01*
X85320553Y-47243715D01*
X85320528Y-47243727D01*
X85320516Y-47243739D01*
X85320504Y-47243764D01*
X85320504Y-47243812D01*
X85320516Y-47243836D01*
X85320528Y-47243848D01*
X85320553Y-47243860D01*
X85320407Y-47243631D02*
X85320407Y-47243473D01*
X85320504Y-47243558D01*
X85320504Y-47243522D01*
X85320516Y-47243498D01*
X85320528Y-47243485D01*
X85320553Y-47243473D01*
X85320613Y-47243473D01*
X85320637Y-47243485D01*
X85320649Y-47243498D01*
X85320661Y-47243522D01*
X85320661Y-47243594D01*
X85320649Y-47243619D01*
X85320637Y-47243631D01*
X85320528Y-47243280D02*
X85320528Y-47243365D01*
X85320661Y-47243365D02*
X85320407Y-47243365D01*
X85320407Y-47243244D01*
X85320661Y-47243147D02*
X85320407Y-47243147D01*
X85320407Y-47243086D01*
X85320420Y-47243050D01*
X85320444Y-47243026D01*
X85320468Y-47243014D01*
X85320516Y-47243002D01*
X85320553Y-47243002D01*
X85320601Y-47243014D01*
X85320625Y-47243026D01*
X85320649Y-47243050D01*
X85320661Y-47243086D01*
X85320661Y-47243147D01*
X85320661Y-47242881D02*
X85320661Y-47242832D01*
X85320649Y-47242808D01*
X85320637Y-47242796D01*
X85320601Y-47242772D01*
X85320553Y-47242760D01*
X85320456Y-47242760D01*
X85320432Y-47242772D01*
X85320420Y-47242784D01*
X85320407Y-47242808D01*
X85320407Y-47242857D01*
X85320420Y-47242881D01*
X85320432Y-47242893D01*
X85320456Y-47242905D01*
X85320516Y-47242905D01*
X85320540Y-47242893D01*
X85320553Y-47242881D01*
X85320565Y-47242857D01*
X85320565Y-47242808D01*
X85320553Y-47242784D01*
X85320540Y-47242772D01*
X85320516Y-47242760D01*
X85320407Y-47242542D02*
X85320407Y-47242590D01*
X85320420Y-47242615D01*
X85320432Y-47242627D01*
X85320468Y-47242651D01*
X85320516Y-47242663D01*
X85320613Y-47242663D01*
X85320637Y-47242651D01*
X85320649Y-47242639D01*
X85320661Y-47242615D01*
X85320661Y-47242566D01*
X85320649Y-47242542D01*
X85320637Y-47242530D01*
X85320613Y-47242518D01*
X85320553Y-47242518D01*
X85320528Y-47242530D01*
X85320516Y-47242542D01*
X85320504Y-47242566D01*
X85320504Y-47242615D01*
X85320516Y-47242639D01*
X85320528Y-47242651D01*
X85320553Y-47242663D01*
X85320661Y-47242409D02*
X85320407Y-47242409D01*
X85320407Y-47242349D01*
X85320420Y-47242312D01*
X85320444Y-47242288D01*
X85320468Y-47242276D01*
X85320516Y-47242264D01*
X85320553Y-47242264D01*
X85320601Y-47242276D01*
X85320625Y-47242288D01*
X85320649Y-47242312D01*
X85320661Y-47242349D01*
X85320661Y-47242409D01*
X85320661Y-47242155D02*
X85320407Y-47242155D01*
X85320407Y-47242095D01*
X85320420Y-47242058D01*
X85320444Y-47242034D01*
X85320468Y-47242022D01*
X85320516Y-47242010D01*
X85320553Y-47242010D01*
X85320601Y-47242022D01*
X85320625Y-47242034D01*
X85320649Y-47242058D01*
X85320661Y-47242095D01*
X85320661Y-47242155D01*
X86219326Y-47244223D02*
X86219313Y-47244247D01*
X86219313Y-47244284D01*
X86219326Y-47244320D01*
X86219350Y-47244344D01*
X86219374Y-47244356D01*
X86219422Y-47244368D01*
X86219459Y-47244368D01*
X86219507Y-47244356D01*
X86219531Y-47244344D01*
X86219555Y-47244320D01*
X86219567Y-47244284D01*
X86219567Y-47244260D01*
X86219555Y-47244223D01*
X86219543Y-47244211D01*
X86219459Y-47244211D01*
X86219459Y-47244260D01*
X86219313Y-47244066D02*
X86219374Y-47244066D01*
X86219350Y-47244127D02*
X86219374Y-47244066D01*
X86219350Y-47244006D01*
X86219422Y-47244102D02*
X86219374Y-47244066D01*
X86219422Y-47244030D01*
X86219313Y-47243873D02*
X86219374Y-47243873D01*
X86219350Y-47243933D02*
X86219374Y-47243873D01*
X86219350Y-47243812D01*
X86219422Y-47243909D02*
X86219374Y-47243873D01*
X86219422Y-47243836D01*
X86219313Y-47243679D02*
X86219374Y-47243679D01*
X86219350Y-47243739D02*
X86219374Y-47243679D01*
X86219350Y-47243619D01*
X86219422Y-47243715D02*
X86219374Y-47243679D01*
X86219422Y-47243643D01*
D15*
X85364685Y-170508812D02*
X85126590Y-170508812D01*
X85126590Y-170008812D01*
X85531352Y-170246907D02*
X85698019Y-170246907D01*
X85769447Y-170508812D02*
X85531352Y-170508812D01*
X85531352Y-170008812D01*
X85769447Y-170008812D01*
X85983733Y-170508812D02*
X85983733Y-170008812D01*
X86102780Y-170008812D01*
X86174209Y-170032622D01*
X86221828Y-170080241D01*
X86245638Y-170127860D01*
X86269447Y-170223098D01*
X86269447Y-170294526D01*
X86245638Y-170389764D01*
X86221828Y-170437383D01*
X86174209Y-170485002D01*
X86102780Y-170508812D01*
X85983733Y-170508812D01*
X86436114Y-170008812D02*
X86745638Y-170008812D01*
X86578971Y-170199288D01*
X86650400Y-170199288D01*
X86698019Y-170223098D01*
X86721828Y-170246907D01*
X86745638Y-170294526D01*
X86745638Y-170413574D01*
X86721828Y-170461193D01*
X86698019Y-170485002D01*
X86650400Y-170508812D01*
X86507542Y-170508812D01*
X86459923Y-170485002D01*
X86436114Y-170461193D01*
X86936114Y-170056431D02*
X86959923Y-170032622D01*
X87007542Y-170008812D01*
X87126590Y-170008812D01*
X87174209Y-170032622D01*
X87198019Y-170056431D01*
X87221828Y-170104050D01*
X87221828Y-170151669D01*
X87198019Y-170223098D01*
X86912304Y-170508812D01*
X87221828Y-170508812D01*
X87412304Y-170056431D02*
X87436114Y-170032622D01*
X87483733Y-170008812D01*
X87602780Y-170008812D01*
X87650400Y-170032622D01*
X87674209Y-170056431D01*
X87698019Y-170104050D01*
X87698019Y-170151669D01*
X87674209Y-170223098D01*
X87388495Y-170508812D01*
X87698019Y-170508812D01*
D16*
X85374190Y-179516076D02*
X85307523Y-179420838D01*
X85259904Y-179516076D02*
X85259904Y-179316076D01*
X85336095Y-179316076D01*
X85355142Y-179325600D01*
X85364666Y-179335123D01*
X85374190Y-179354171D01*
X85374190Y-179382742D01*
X85364666Y-179401790D01*
X85355142Y-179411314D01*
X85336095Y-179420838D01*
X85259904Y-179420838D01*
X85440857Y-179316076D02*
X85564666Y-179316076D01*
X85498000Y-179392266D01*
X85526571Y-179392266D01*
X85545619Y-179401790D01*
X85555142Y-179411314D01*
X85564666Y-179430361D01*
X85564666Y-179477980D01*
X85555142Y-179497028D01*
X85545619Y-179506552D01*
X85526571Y-179516076D01*
X85469428Y-179516076D01*
X85450380Y-179506552D01*
X85440857Y-179497028D01*
X85688476Y-179316076D02*
X85707523Y-179316076D01*
X85726571Y-179325600D01*
X85736095Y-179335123D01*
X85745619Y-179354171D01*
X85755142Y-179392266D01*
X85755142Y-179439885D01*
X85745619Y-179477980D01*
X85736095Y-179497028D01*
X85726571Y-179506552D01*
X85707523Y-179516076D01*
X85688476Y-179516076D01*
X85669428Y-179506552D01*
X85659904Y-179497028D01*
X85650380Y-179477980D01*
X85640857Y-179439885D01*
X85640857Y-179392266D01*
X85650380Y-179354171D01*
X85659904Y-179335123D01*
X85669428Y-179325600D01*
X85688476Y-179316076D01*
X85926571Y-179382742D02*
X85926571Y-179516076D01*
X85878952Y-179306552D02*
X85831333Y-179449409D01*
X85955142Y-179449409D01*
D15*
X85364685Y-166754030D02*
X85126590Y-166754030D01*
X85126590Y-166254030D01*
X85531352Y-166492125D02*
X85698019Y-166492125D01*
X85769447Y-166754030D02*
X85531352Y-166754030D01*
X85531352Y-166254030D01*
X85769447Y-166254030D01*
X85983733Y-166754030D02*
X85983733Y-166254030D01*
X86102780Y-166254030D01*
X86174209Y-166277840D01*
X86221828Y-166325459D01*
X86245638Y-166373078D01*
X86269447Y-166468316D01*
X86269447Y-166539744D01*
X86245638Y-166634982D01*
X86221828Y-166682601D01*
X86174209Y-166730220D01*
X86102780Y-166754030D01*
X85983733Y-166754030D01*
X86436114Y-166254030D02*
X86745638Y-166254030D01*
X86578971Y-166444506D01*
X86650400Y-166444506D01*
X86698019Y-166468316D01*
X86721828Y-166492125D01*
X86745638Y-166539744D01*
X86745638Y-166658792D01*
X86721828Y-166706411D01*
X86698019Y-166730220D01*
X86650400Y-166754030D01*
X86507542Y-166754030D01*
X86459923Y-166730220D01*
X86436114Y-166706411D01*
X86936114Y-166301649D02*
X86959923Y-166277840D01*
X87007542Y-166254030D01*
X87126590Y-166254030D01*
X87174209Y-166277840D01*
X87198019Y-166301649D01*
X87221828Y-166349268D01*
X87221828Y-166396887D01*
X87198019Y-166468316D01*
X86912304Y-166754030D01*
X87221828Y-166754030D01*
X87698019Y-166754030D02*
X87412304Y-166754030D01*
X87555161Y-166754030D02*
X87555161Y-166254030D01*
X87507542Y-166325459D01*
X87459923Y-166373078D01*
X87412304Y-166396887D01*
D17*
X84050661Y-45975971D02*
X84050407Y-45975971D01*
X84050565Y-45975947D02*
X84050661Y-45975874D01*
X84050492Y-45975874D02*
X84050589Y-45975971D01*
X84050661Y-45975765D02*
X84050492Y-45975765D01*
X84050407Y-45975765D02*
X84050420Y-45975778D01*
X84050432Y-45975765D01*
X84050420Y-45975753D01*
X84050407Y-45975765D01*
X84050432Y-45975765D01*
X84050661Y-45975644D02*
X84050407Y-45975644D01*
X84050504Y-45975644D02*
X84050492Y-45975620D01*
X84050492Y-45975572D01*
X84050504Y-45975548D01*
X84050516Y-45975536D01*
X84050540Y-45975524D01*
X84050613Y-45975524D01*
X84050637Y-45975536D01*
X84050649Y-45975548D01*
X84050661Y-45975572D01*
X84050661Y-45975620D01*
X84050649Y-45975644D01*
X84050492Y-45975306D02*
X84050661Y-45975306D01*
X84050492Y-45975415D02*
X84050625Y-45975415D01*
X84050649Y-45975403D01*
X84050661Y-45975378D01*
X84050661Y-45975342D01*
X84050649Y-45975318D01*
X84050637Y-45975306D01*
X84050492Y-45975209D02*
X84050492Y-45975076D01*
X84050661Y-45975209D01*
X84050661Y-45975076D01*
X84050492Y-45975003D02*
X84050492Y-45974870D01*
X84050661Y-45975003D01*
X84050661Y-45974870D01*
X84050661Y-45974665D02*
X84050528Y-45974665D01*
X84050504Y-45974677D01*
X84050492Y-45974701D01*
X84050492Y-45974749D01*
X84050504Y-45974774D01*
X84050649Y-45974665D02*
X84050661Y-45974689D01*
X84050661Y-45974749D01*
X84050649Y-45974774D01*
X84050625Y-45974786D01*
X84050601Y-45974786D01*
X84050577Y-45974774D01*
X84050565Y-45974749D01*
X84050565Y-45974689D01*
X84050553Y-45974665D01*
X84050661Y-45974544D02*
X84050492Y-45974544D01*
X84050540Y-45974544D02*
X84050516Y-45974532D01*
X84050504Y-45974520D01*
X84050492Y-45974495D01*
X84050492Y-45974471D01*
X84050661Y-45974278D02*
X84050407Y-45974278D01*
X84050649Y-45974278D02*
X84050661Y-45974302D01*
X84050661Y-45974350D01*
X84050649Y-45974374D01*
X84050637Y-45974387D01*
X84050613Y-45974399D01*
X84050540Y-45974399D01*
X84050516Y-45974387D01*
X84050504Y-45974374D01*
X84050492Y-45974350D01*
X84050492Y-45974302D01*
X84050504Y-45974278D01*
X84050565Y-45974157D02*
X84050565Y-45973963D01*
X84050407Y-45973733D02*
X84050407Y-45973782D01*
X84050420Y-45973806D01*
X84050432Y-45973818D01*
X84050468Y-45973842D01*
X84050516Y-45973854D01*
X84050613Y-45973854D01*
X84050637Y-45973842D01*
X84050649Y-45973830D01*
X84050661Y-45973806D01*
X84050661Y-45973758D01*
X84050649Y-45973733D01*
X84050637Y-45973721D01*
X84050613Y-45973709D01*
X84050553Y-45973709D01*
X84050528Y-45973721D01*
X84050516Y-45973733D01*
X84050504Y-45973758D01*
X84050504Y-45973806D01*
X84050516Y-45973830D01*
X84050528Y-45973842D01*
X84050553Y-45973854D01*
X84050407Y-45973625D02*
X84050407Y-45973467D01*
X84050504Y-45973552D01*
X84050504Y-45973516D01*
X84050516Y-45973492D01*
X84050528Y-45973479D01*
X84050553Y-45973467D01*
X84050613Y-45973467D01*
X84050637Y-45973479D01*
X84050649Y-45973492D01*
X84050661Y-45973516D01*
X84050661Y-45973588D01*
X84050649Y-45973612D01*
X84050637Y-45973625D01*
X84050528Y-45973274D02*
X84050528Y-45973358D01*
X84050661Y-45973358D02*
X84050407Y-45973358D01*
X84050407Y-45973238D01*
X84050661Y-45973141D02*
X84050407Y-45973141D01*
X84050407Y-45973080D01*
X84050420Y-45973044D01*
X84050444Y-45973020D01*
X84050468Y-45973008D01*
X84050516Y-45972996D01*
X84050553Y-45972996D01*
X84050601Y-45973008D01*
X84050625Y-45973020D01*
X84050649Y-45973044D01*
X84050661Y-45973080D01*
X84050661Y-45973141D01*
X84050661Y-45972875D02*
X84050661Y-45972826D01*
X84050649Y-45972802D01*
X84050637Y-45972790D01*
X84050601Y-45972766D01*
X84050553Y-45972754D01*
X84050456Y-45972754D01*
X84050432Y-45972766D01*
X84050420Y-45972778D01*
X84050407Y-45972802D01*
X84050407Y-45972850D01*
X84050420Y-45972875D01*
X84050432Y-45972887D01*
X84050456Y-45972899D01*
X84050516Y-45972899D01*
X84050540Y-45972887D01*
X84050553Y-45972875D01*
X84050565Y-45972850D01*
X84050565Y-45972802D01*
X84050553Y-45972778D01*
X84050540Y-45972766D01*
X84050516Y-45972754D01*
X84050407Y-45972536D02*
X84050407Y-45972584D01*
X84050420Y-45972609D01*
X84050432Y-45972621D01*
X84050468Y-45972645D01*
X84050516Y-45972657D01*
X84050613Y-45972657D01*
X84050637Y-45972645D01*
X84050649Y-45972633D01*
X84050661Y-45972609D01*
X84050661Y-45972560D01*
X84050649Y-45972536D01*
X84050637Y-45972524D01*
X84050613Y-45972512D01*
X84050553Y-45972512D01*
X84050528Y-45972524D01*
X84050516Y-45972536D01*
X84050504Y-45972560D01*
X84050504Y-45972609D01*
X84050516Y-45972633D01*
X84050528Y-45972645D01*
X84050553Y-45972657D01*
X84050637Y-45972258D02*
X84050649Y-45972270D01*
X84050661Y-45972306D01*
X84050661Y-45972330D01*
X84050649Y-45972367D01*
X84050625Y-45972391D01*
X84050601Y-45972403D01*
X84050553Y-45972415D01*
X84050516Y-45972415D01*
X84050468Y-45972403D01*
X84050444Y-45972391D01*
X84050420Y-45972367D01*
X84050407Y-45972330D01*
X84050407Y-45972306D01*
X84050420Y-45972270D01*
X84050432Y-45972258D01*
X84050407Y-45972173D02*
X84050407Y-45972004D01*
X84050661Y-45972113D01*
X84949326Y-45974223D02*
X84949313Y-45974247D01*
X84949313Y-45974284D01*
X84949326Y-45974320D01*
X84949350Y-45974344D01*
X84949374Y-45974356D01*
X84949422Y-45974368D01*
X84949459Y-45974368D01*
X84949507Y-45974356D01*
X84949531Y-45974344D01*
X84949555Y-45974320D01*
X84949567Y-45974284D01*
X84949567Y-45974260D01*
X84949555Y-45974223D01*
X84949543Y-45974211D01*
X84949459Y-45974211D01*
X84949459Y-45974260D01*
X84949313Y-45974066D02*
X84949374Y-45974066D01*
X84949350Y-45974127D02*
X84949374Y-45974066D01*
X84949350Y-45974006D01*
X84949422Y-45974102D02*
X84949374Y-45974066D01*
X84949422Y-45974030D01*
X84949313Y-45973873D02*
X84949374Y-45973873D01*
X84949350Y-45973933D02*
X84949374Y-45973873D01*
X84949350Y-45973812D01*
X84949422Y-45973909D02*
X84949374Y-45973873D01*
X84949422Y-45973836D01*
X84949313Y-45973679D02*
X84949374Y-45973679D01*
X84949350Y-45973739D02*
X84949374Y-45973679D01*
X84949350Y-45973619D01*
X84949422Y-45973715D02*
X84949374Y-45973679D01*
X84949422Y-45973643D01*
D15*
X85364685Y-155489684D02*
X85126590Y-155489684D01*
X85126590Y-154989684D01*
X85531352Y-155227779D02*
X85698019Y-155227779D01*
X85769447Y-155489684D02*
X85531352Y-155489684D01*
X85531352Y-154989684D01*
X85769447Y-154989684D01*
X85983733Y-155489684D02*
X85983733Y-154989684D01*
X86102780Y-154989684D01*
X86174209Y-155013494D01*
X86221828Y-155061113D01*
X86245638Y-155108732D01*
X86269447Y-155203970D01*
X86269447Y-155275398D01*
X86245638Y-155370636D01*
X86221828Y-155418255D01*
X86174209Y-155465874D01*
X86102780Y-155489684D01*
X85983733Y-155489684D01*
X86436114Y-154989684D02*
X86745638Y-154989684D01*
X86578971Y-155180160D01*
X86650400Y-155180160D01*
X86698019Y-155203970D01*
X86721828Y-155227779D01*
X86745638Y-155275398D01*
X86745638Y-155394446D01*
X86721828Y-155442065D01*
X86698019Y-155465874D01*
X86650400Y-155489684D01*
X86507542Y-155489684D01*
X86459923Y-155465874D01*
X86436114Y-155442065D01*
X87221828Y-155489684D02*
X86936114Y-155489684D01*
X87078971Y-155489684D02*
X87078971Y-154989684D01*
X87031352Y-155061113D01*
X86983733Y-155108732D01*
X86936114Y-155132541D01*
X87507542Y-155203970D02*
X87459923Y-155180160D01*
X87436114Y-155156351D01*
X87412304Y-155108732D01*
X87412304Y-155084922D01*
X87436114Y-155037303D01*
X87459923Y-155013494D01*
X87507542Y-154989684D01*
X87602780Y-154989684D01*
X87650400Y-155013494D01*
X87674209Y-155037303D01*
X87698019Y-155084922D01*
X87698019Y-155108732D01*
X87674209Y-155156351D01*
X87650400Y-155180160D01*
X87602780Y-155203970D01*
X87507542Y-155203970D01*
X87459923Y-155227779D01*
X87436114Y-155251589D01*
X87412304Y-155299208D01*
X87412304Y-155394446D01*
X87436114Y-155442065D01*
X87459923Y-155465874D01*
X87507542Y-155489684D01*
X87602780Y-155489684D01*
X87650400Y-155465874D01*
X87674209Y-155442065D01*
X87698019Y-155394446D01*
X87698019Y-155299208D01*
X87674209Y-155251589D01*
X87650400Y-155227779D01*
X87602780Y-155203970D01*
D16*
X84672476Y-26004809D02*
X84577238Y-26071476D01*
X84672476Y-26119095D02*
X84472476Y-26119095D01*
X84472476Y-26042904D01*
X84482000Y-26023857D01*
X84491523Y-26014333D01*
X84510571Y-26004809D01*
X84539142Y-26004809D01*
X84558190Y-26014333D01*
X84567714Y-26023857D01*
X84577238Y-26042904D01*
X84577238Y-26119095D01*
X84491523Y-25928619D02*
X84482000Y-25919095D01*
X84472476Y-25900047D01*
X84472476Y-25852428D01*
X84482000Y-25833380D01*
X84491523Y-25823857D01*
X84510571Y-25814333D01*
X84529619Y-25814333D01*
X84558190Y-25823857D01*
X84672476Y-25938142D01*
X84672476Y-25814333D01*
X84472476Y-25690523D02*
X84472476Y-25671476D01*
X84482000Y-25652428D01*
X84491523Y-25642904D01*
X84510571Y-25633380D01*
X84548666Y-25623857D01*
X84596285Y-25623857D01*
X84634380Y-25633380D01*
X84653428Y-25642904D01*
X84662952Y-25652428D01*
X84672476Y-25671476D01*
X84672476Y-25690523D01*
X84662952Y-25709571D01*
X84653428Y-25719095D01*
X84634380Y-25728619D01*
X84596285Y-25738142D01*
X84548666Y-25738142D01*
X84510571Y-25728619D01*
X84491523Y-25719095D01*
X84482000Y-25709571D01*
X84472476Y-25690523D01*
X84472476Y-25452428D02*
X84472476Y-25490523D01*
X84482000Y-25509571D01*
X84491523Y-25519095D01*
X84520095Y-25538142D01*
X84558190Y-25547666D01*
X84634380Y-25547666D01*
X84653428Y-25538142D01*
X84662952Y-25528619D01*
X84672476Y-25509571D01*
X84672476Y-25471476D01*
X84662952Y-25452428D01*
X84653428Y-25442904D01*
X84634380Y-25433380D01*
X84586761Y-25433380D01*
X84567714Y-25442904D01*
X84558190Y-25452428D01*
X84548666Y-25471476D01*
X84548666Y-25509571D01*
X84558190Y-25528619D01*
X84567714Y-25538142D01*
X84586761Y-25547666D01*
D15*
X85364685Y-95413172D02*
X85126590Y-95413172D01*
X85126590Y-94913172D01*
X85531352Y-95151267D02*
X85698019Y-95151267D01*
X85769447Y-95413172D02*
X85531352Y-95413172D01*
X85531352Y-94913172D01*
X85769447Y-94913172D01*
X85983733Y-95413172D02*
X85983733Y-94913172D01*
X86102780Y-94913172D01*
X86174209Y-94936982D01*
X86221828Y-94984601D01*
X86245638Y-95032220D01*
X86269447Y-95127458D01*
X86269447Y-95198886D01*
X86245638Y-95294124D01*
X86221828Y-95341743D01*
X86174209Y-95389362D01*
X86102780Y-95413172D01*
X85983733Y-95413172D01*
X86436114Y-94913172D02*
X86745638Y-94913172D01*
X86578971Y-95103648D01*
X86650400Y-95103648D01*
X86698019Y-95127458D01*
X86721828Y-95151267D01*
X86745638Y-95198886D01*
X86745638Y-95317934D01*
X86721828Y-95365553D01*
X86698019Y-95389362D01*
X86650400Y-95413172D01*
X86507542Y-95413172D01*
X86459923Y-95389362D01*
X86436114Y-95365553D01*
X87055161Y-94913172D02*
X87102780Y-94913172D01*
X87150400Y-94936982D01*
X87174209Y-94960791D01*
X87198019Y-95008410D01*
X87221828Y-95103648D01*
X87221828Y-95222696D01*
X87198019Y-95317934D01*
X87174209Y-95365553D01*
X87150400Y-95389362D01*
X87102780Y-95413172D01*
X87055161Y-95413172D01*
X87007542Y-95389362D01*
X86983733Y-95365553D01*
X86959923Y-95317934D01*
X86936114Y-95222696D01*
X86936114Y-95103648D01*
X86959923Y-95008410D01*
X86983733Y-94960791D01*
X87007542Y-94936982D01*
X87055161Y-94913172D01*
X87412304Y-94960791D02*
X87436114Y-94936982D01*
X87483733Y-94913172D01*
X87602780Y-94913172D01*
X87650400Y-94936982D01*
X87674209Y-94960791D01*
X87698019Y-95008410D01*
X87698019Y-95056029D01*
X87674209Y-95127458D01*
X87388495Y-95413172D01*
X87698019Y-95413172D01*
X85364685Y-151734902D02*
X85126590Y-151734902D01*
X85126590Y-151234902D01*
X85531352Y-151472997D02*
X85698019Y-151472997D01*
X85769447Y-151734902D02*
X85531352Y-151734902D01*
X85531352Y-151234902D01*
X85769447Y-151234902D01*
X85983733Y-151734902D02*
X85983733Y-151234902D01*
X86102780Y-151234902D01*
X86174209Y-151258712D01*
X86221828Y-151306331D01*
X86245638Y-151353950D01*
X86269447Y-151449188D01*
X86269447Y-151520616D01*
X86245638Y-151615854D01*
X86221828Y-151663473D01*
X86174209Y-151711092D01*
X86102780Y-151734902D01*
X85983733Y-151734902D01*
X86436114Y-151234902D02*
X86745638Y-151234902D01*
X86578971Y-151425378D01*
X86650400Y-151425378D01*
X86698019Y-151449188D01*
X86721828Y-151472997D01*
X86745638Y-151520616D01*
X86745638Y-151639664D01*
X86721828Y-151687283D01*
X86698019Y-151711092D01*
X86650400Y-151734902D01*
X86507542Y-151734902D01*
X86459923Y-151711092D01*
X86436114Y-151687283D01*
X87221828Y-151734902D02*
X86936114Y-151734902D01*
X87078971Y-151734902D02*
X87078971Y-151234902D01*
X87031352Y-151306331D01*
X86983733Y-151353950D01*
X86936114Y-151377759D01*
X87388495Y-151234902D02*
X87721828Y-151234902D01*
X87507542Y-151734902D01*
D16*
X83808876Y-63469809D02*
X83713638Y-63536476D01*
X83808876Y-63584095D02*
X83608876Y-63584095D01*
X83608876Y-63507904D01*
X83618400Y-63488857D01*
X83627923Y-63479333D01*
X83646971Y-63469809D01*
X83675542Y-63469809D01*
X83694590Y-63479333D01*
X83704114Y-63488857D01*
X83713638Y-63507904D01*
X83713638Y-63584095D01*
X83627923Y-63393619D02*
X83618400Y-63384095D01*
X83608876Y-63365047D01*
X83608876Y-63317428D01*
X83618400Y-63298380D01*
X83627923Y-63288857D01*
X83646971Y-63279333D01*
X83666019Y-63279333D01*
X83694590Y-63288857D01*
X83808876Y-63403142D01*
X83808876Y-63279333D01*
X83608876Y-63155523D02*
X83608876Y-63136476D01*
X83618400Y-63117428D01*
X83627923Y-63107904D01*
X83646971Y-63098380D01*
X83685066Y-63088857D01*
X83732685Y-63088857D01*
X83770780Y-63098380D01*
X83789828Y-63107904D01*
X83799352Y-63117428D01*
X83808876Y-63136476D01*
X83808876Y-63155523D01*
X83799352Y-63174571D01*
X83789828Y-63184095D01*
X83770780Y-63193619D01*
X83732685Y-63203142D01*
X83685066Y-63203142D01*
X83646971Y-63193619D01*
X83627923Y-63184095D01*
X83618400Y-63174571D01*
X83608876Y-63155523D01*
X83675542Y-62917428D02*
X83808876Y-62917428D01*
X83599352Y-62965047D02*
X83742209Y-63012666D01*
X83742209Y-62888857D01*
X86898190Y-179516076D02*
X86831523Y-179420838D01*
X86783904Y-179516076D02*
X86783904Y-179316076D01*
X86860095Y-179316076D01*
X86879142Y-179325600D01*
X86888666Y-179335123D01*
X86898190Y-179354171D01*
X86898190Y-179382742D01*
X86888666Y-179401790D01*
X86879142Y-179411314D01*
X86860095Y-179420838D01*
X86783904Y-179420838D01*
X86964857Y-179316076D02*
X87088666Y-179316076D01*
X87022000Y-179392266D01*
X87050571Y-179392266D01*
X87069619Y-179401790D01*
X87079142Y-179411314D01*
X87088666Y-179430361D01*
X87088666Y-179477980D01*
X87079142Y-179497028D01*
X87069619Y-179506552D01*
X87050571Y-179516076D01*
X86993428Y-179516076D01*
X86974380Y-179506552D01*
X86964857Y-179497028D01*
X87212476Y-179316076D02*
X87231523Y-179316076D01*
X87250571Y-179325600D01*
X87260095Y-179335123D01*
X87269619Y-179354171D01*
X87279142Y-179392266D01*
X87279142Y-179439885D01*
X87269619Y-179477980D01*
X87260095Y-179497028D01*
X87250571Y-179506552D01*
X87231523Y-179516076D01*
X87212476Y-179516076D01*
X87193428Y-179506552D01*
X87183904Y-179497028D01*
X87174380Y-179477980D01*
X87164857Y-179439885D01*
X87164857Y-179392266D01*
X87174380Y-179354171D01*
X87183904Y-179335123D01*
X87193428Y-179325600D01*
X87212476Y-179316076D01*
X87460095Y-179316076D02*
X87364857Y-179316076D01*
X87355333Y-179411314D01*
X87364857Y-179401790D01*
X87383904Y-179392266D01*
X87431523Y-179392266D01*
X87450571Y-179401790D01*
X87460095Y-179411314D01*
X87469619Y-179430361D01*
X87469619Y-179477980D01*
X87460095Y-179497028D01*
X87450571Y-179506552D01*
X87431523Y-179516076D01*
X87383904Y-179516076D01*
X87364857Y-179506552D01*
X87355333Y-179497028D01*
D15*
X85364685Y-147980120D02*
X85126590Y-147980120D01*
X85126590Y-147480120D01*
X85531352Y-147718215D02*
X85698019Y-147718215D01*
X85769447Y-147980120D02*
X85531352Y-147980120D01*
X85531352Y-147480120D01*
X85769447Y-147480120D01*
X85983733Y-147980120D02*
X85983733Y-147480120D01*
X86102780Y-147480120D01*
X86174209Y-147503930D01*
X86221828Y-147551549D01*
X86245638Y-147599168D01*
X86269447Y-147694406D01*
X86269447Y-147765834D01*
X86245638Y-147861072D01*
X86221828Y-147908691D01*
X86174209Y-147956310D01*
X86102780Y-147980120D01*
X85983733Y-147980120D01*
X86436114Y-147480120D02*
X86745638Y-147480120D01*
X86578971Y-147670596D01*
X86650400Y-147670596D01*
X86698019Y-147694406D01*
X86721828Y-147718215D01*
X86745638Y-147765834D01*
X86745638Y-147884882D01*
X86721828Y-147932501D01*
X86698019Y-147956310D01*
X86650400Y-147980120D01*
X86507542Y-147980120D01*
X86459923Y-147956310D01*
X86436114Y-147932501D01*
X87221828Y-147980120D02*
X86936114Y-147980120D01*
X87078971Y-147980120D02*
X87078971Y-147480120D01*
X87031352Y-147551549D01*
X86983733Y-147599168D01*
X86936114Y-147622977D01*
X87650400Y-147480120D02*
X87555161Y-147480120D01*
X87507542Y-147503930D01*
X87483733Y-147527739D01*
X87436114Y-147599168D01*
X87412304Y-147694406D01*
X87412304Y-147884882D01*
X87436114Y-147932501D01*
X87459923Y-147956310D01*
X87507542Y-147980120D01*
X87602780Y-147980120D01*
X87650400Y-147956310D01*
X87674209Y-147932501D01*
X87698019Y-147884882D01*
X87698019Y-147765834D01*
X87674209Y-147718215D01*
X87650400Y-147694406D01*
X87602780Y-147670596D01*
X87507542Y-147670596D01*
X87459923Y-147694406D01*
X87436114Y-147718215D01*
X87412304Y-147765834D01*
X85364685Y-121696646D02*
X85126590Y-121696646D01*
X85126590Y-121196646D01*
X85531352Y-121434741D02*
X85698019Y-121434741D01*
X85769447Y-121696646D02*
X85531352Y-121696646D01*
X85531352Y-121196646D01*
X85769447Y-121196646D01*
X85983733Y-121696646D02*
X85983733Y-121196646D01*
X86102780Y-121196646D01*
X86174209Y-121220456D01*
X86221828Y-121268075D01*
X86245638Y-121315694D01*
X86269447Y-121410932D01*
X86269447Y-121482360D01*
X86245638Y-121577598D01*
X86221828Y-121625217D01*
X86174209Y-121672836D01*
X86102780Y-121696646D01*
X85983733Y-121696646D01*
X86436114Y-121196646D02*
X86745638Y-121196646D01*
X86578971Y-121387122D01*
X86650400Y-121387122D01*
X86698019Y-121410932D01*
X86721828Y-121434741D01*
X86745638Y-121482360D01*
X86745638Y-121601408D01*
X86721828Y-121649027D01*
X86698019Y-121672836D01*
X86650400Y-121696646D01*
X86507542Y-121696646D01*
X86459923Y-121672836D01*
X86436114Y-121649027D01*
X87055161Y-121196646D02*
X87102780Y-121196646D01*
X87150400Y-121220456D01*
X87174209Y-121244265D01*
X87198019Y-121291884D01*
X87221828Y-121387122D01*
X87221828Y-121506170D01*
X87198019Y-121601408D01*
X87174209Y-121649027D01*
X87150400Y-121672836D01*
X87102780Y-121696646D01*
X87055161Y-121696646D01*
X87007542Y-121672836D01*
X86983733Y-121649027D01*
X86959923Y-121601408D01*
X86936114Y-121506170D01*
X86936114Y-121387122D01*
X86959923Y-121291884D01*
X86983733Y-121244265D01*
X87007542Y-121220456D01*
X87055161Y-121196646D01*
X87459923Y-121696646D02*
X87555161Y-121696646D01*
X87602780Y-121672836D01*
X87626590Y-121649027D01*
X87674209Y-121577598D01*
X87698019Y-121482360D01*
X87698019Y-121291884D01*
X87674209Y-121244265D01*
X87650400Y-121220456D01*
X87602780Y-121196646D01*
X87507542Y-121196646D01*
X87459923Y-121220456D01*
X87436114Y-121244265D01*
X87412304Y-121291884D01*
X87412304Y-121410932D01*
X87436114Y-121458551D01*
X87459923Y-121482360D01*
X87507542Y-121506170D01*
X87602780Y-121506170D01*
X87650400Y-121482360D01*
X87674209Y-121458551D01*
X87698019Y-121410932D01*
X85364685Y-159244466D02*
X85126590Y-159244466D01*
X85126590Y-158744466D01*
X85531352Y-158982561D02*
X85698019Y-158982561D01*
X85769447Y-159244466D02*
X85531352Y-159244466D01*
X85531352Y-158744466D01*
X85769447Y-158744466D01*
X85983733Y-159244466D02*
X85983733Y-158744466D01*
X86102780Y-158744466D01*
X86174209Y-158768276D01*
X86221828Y-158815895D01*
X86245638Y-158863514D01*
X86269447Y-158958752D01*
X86269447Y-159030180D01*
X86245638Y-159125418D01*
X86221828Y-159173037D01*
X86174209Y-159220656D01*
X86102780Y-159244466D01*
X85983733Y-159244466D01*
X86436114Y-158744466D02*
X86745638Y-158744466D01*
X86578971Y-158934942D01*
X86650400Y-158934942D01*
X86698019Y-158958752D01*
X86721828Y-158982561D01*
X86745638Y-159030180D01*
X86745638Y-159149228D01*
X86721828Y-159196847D01*
X86698019Y-159220656D01*
X86650400Y-159244466D01*
X86507542Y-159244466D01*
X86459923Y-159220656D01*
X86436114Y-159196847D01*
X87221828Y-159244466D02*
X86936114Y-159244466D01*
X87078971Y-159244466D02*
X87078971Y-158744466D01*
X87031352Y-158815895D01*
X86983733Y-158863514D01*
X86936114Y-158887323D01*
X87459923Y-159244466D02*
X87555161Y-159244466D01*
X87602780Y-159220656D01*
X87626590Y-159196847D01*
X87674209Y-159125418D01*
X87698019Y-159030180D01*
X87698019Y-158839704D01*
X87674209Y-158792085D01*
X87650400Y-158768276D01*
X87602780Y-158744466D01*
X87507542Y-158744466D01*
X87459923Y-158768276D01*
X87436114Y-158792085D01*
X87412304Y-158839704D01*
X87412304Y-158958752D01*
X87436114Y-159006371D01*
X87459923Y-159030180D01*
X87507542Y-159053990D01*
X87602780Y-159053990D01*
X87650400Y-159030180D01*
X87674209Y-159006371D01*
X87698019Y-158958752D01*
D16*
X90362076Y-65197009D02*
X90266838Y-65263676D01*
X90362076Y-65311295D02*
X90162076Y-65311295D01*
X90162076Y-65235104D01*
X90171600Y-65216057D01*
X90181123Y-65206533D01*
X90200171Y-65197009D01*
X90228742Y-65197009D01*
X90247790Y-65206533D01*
X90257314Y-65216057D01*
X90266838Y-65235104D01*
X90266838Y-65311295D01*
X90181123Y-65120819D02*
X90171600Y-65111295D01*
X90162076Y-65092247D01*
X90162076Y-65044628D01*
X90171600Y-65025580D01*
X90181123Y-65016057D01*
X90200171Y-65006533D01*
X90219219Y-65006533D01*
X90247790Y-65016057D01*
X90362076Y-65130342D01*
X90362076Y-65006533D01*
X90162076Y-64882723D02*
X90162076Y-64863676D01*
X90171600Y-64844628D01*
X90181123Y-64835104D01*
X90200171Y-64825580D01*
X90238266Y-64816057D01*
X90285885Y-64816057D01*
X90323980Y-64825580D01*
X90343028Y-64835104D01*
X90352552Y-64844628D01*
X90362076Y-64863676D01*
X90362076Y-64882723D01*
X90352552Y-64901771D01*
X90343028Y-64911295D01*
X90323980Y-64920819D01*
X90285885Y-64930342D01*
X90238266Y-64930342D01*
X90200171Y-64920819D01*
X90181123Y-64911295D01*
X90171600Y-64901771D01*
X90162076Y-64882723D01*
X90162076Y-64749390D02*
X90162076Y-64625580D01*
X90238266Y-64692247D01*
X90238266Y-64663676D01*
X90247790Y-64644628D01*
X90257314Y-64635104D01*
X90276361Y-64625580D01*
X90323980Y-64625580D01*
X90343028Y-64635104D01*
X90352552Y-64644628D01*
X90362076Y-64663676D01*
X90362076Y-64720819D01*
X90352552Y-64739866D01*
X90343028Y-64749390D01*
D15*
X85364685Y-99167954D02*
X85126590Y-99167954D01*
X85126590Y-98667954D01*
X85531352Y-98906049D02*
X85698019Y-98906049D01*
X85769447Y-99167954D02*
X85531352Y-99167954D01*
X85531352Y-98667954D01*
X85769447Y-98667954D01*
X85983733Y-99167954D02*
X85983733Y-98667954D01*
X86102780Y-98667954D01*
X86174209Y-98691764D01*
X86221828Y-98739383D01*
X86245638Y-98787002D01*
X86269447Y-98882240D01*
X86269447Y-98953668D01*
X86245638Y-99048906D01*
X86221828Y-99096525D01*
X86174209Y-99144144D01*
X86102780Y-99167954D01*
X85983733Y-99167954D01*
X86436114Y-98667954D02*
X86745638Y-98667954D01*
X86578971Y-98858430D01*
X86650400Y-98858430D01*
X86698019Y-98882240D01*
X86721828Y-98906049D01*
X86745638Y-98953668D01*
X86745638Y-99072716D01*
X86721828Y-99120335D01*
X86698019Y-99144144D01*
X86650400Y-99167954D01*
X86507542Y-99167954D01*
X86459923Y-99144144D01*
X86436114Y-99120335D01*
X87055161Y-98667954D02*
X87102780Y-98667954D01*
X87150400Y-98691764D01*
X87174209Y-98715573D01*
X87198019Y-98763192D01*
X87221828Y-98858430D01*
X87221828Y-98977478D01*
X87198019Y-99072716D01*
X87174209Y-99120335D01*
X87150400Y-99144144D01*
X87102780Y-99167954D01*
X87055161Y-99167954D01*
X87007542Y-99144144D01*
X86983733Y-99120335D01*
X86959923Y-99072716D01*
X86936114Y-98977478D01*
X86936114Y-98858430D01*
X86959923Y-98763192D01*
X86983733Y-98715573D01*
X87007542Y-98691764D01*
X87055161Y-98667954D01*
X87388495Y-98667954D02*
X87698019Y-98667954D01*
X87531352Y-98858430D01*
X87602780Y-98858430D01*
X87650400Y-98882240D01*
X87674209Y-98906049D01*
X87698019Y-98953668D01*
X87698019Y-99072716D01*
X87674209Y-99120335D01*
X87650400Y-99144144D01*
X87602780Y-99167954D01*
X87459923Y-99167954D01*
X87412304Y-99144144D01*
X87388495Y-99120335D01*
X85364685Y-162999248D02*
X85126590Y-162999248D01*
X85126590Y-162499248D01*
X85531352Y-162737343D02*
X85698019Y-162737343D01*
X85769447Y-162999248D02*
X85531352Y-162999248D01*
X85531352Y-162499248D01*
X85769447Y-162499248D01*
X85983733Y-162999248D02*
X85983733Y-162499248D01*
X86102780Y-162499248D01*
X86174209Y-162523058D01*
X86221828Y-162570677D01*
X86245638Y-162618296D01*
X86269447Y-162713534D01*
X86269447Y-162784962D01*
X86245638Y-162880200D01*
X86221828Y-162927819D01*
X86174209Y-162975438D01*
X86102780Y-162999248D01*
X85983733Y-162999248D01*
X86436114Y-162499248D02*
X86745638Y-162499248D01*
X86578971Y-162689724D01*
X86650400Y-162689724D01*
X86698019Y-162713534D01*
X86721828Y-162737343D01*
X86745638Y-162784962D01*
X86745638Y-162904010D01*
X86721828Y-162951629D01*
X86698019Y-162975438D01*
X86650400Y-162999248D01*
X86507542Y-162999248D01*
X86459923Y-162975438D01*
X86436114Y-162951629D01*
X86936114Y-162546867D02*
X86959923Y-162523058D01*
X87007542Y-162499248D01*
X87126590Y-162499248D01*
X87174209Y-162523058D01*
X87198019Y-162546867D01*
X87221828Y-162594486D01*
X87221828Y-162642105D01*
X87198019Y-162713534D01*
X86912304Y-162999248D01*
X87221828Y-162999248D01*
X87531352Y-162499248D02*
X87578971Y-162499248D01*
X87626590Y-162523058D01*
X87650400Y-162546867D01*
X87674209Y-162594486D01*
X87698019Y-162689724D01*
X87698019Y-162808772D01*
X87674209Y-162904010D01*
X87650400Y-162951629D01*
X87626590Y-162975438D01*
X87578971Y-162999248D01*
X87531352Y-162999248D01*
X87483733Y-162975438D01*
X87459923Y-162951629D01*
X87436114Y-162904010D01*
X87412304Y-162808772D01*
X87412304Y-162689724D01*
X87436114Y-162594486D01*
X87459923Y-162546867D01*
X87483733Y-162523058D01*
X87531352Y-162499248D01*
D10*
D15*
X85364685Y-129206210D02*
X85126590Y-129206210D01*
X85126590Y-128706210D01*
X85531352Y-128944305D02*
X85698019Y-128944305D01*
X85769447Y-129206210D02*
X85531352Y-129206210D01*
X85531352Y-128706210D01*
X85769447Y-128706210D01*
X85983733Y-129206210D02*
X85983733Y-128706210D01*
X86102780Y-128706210D01*
X86174209Y-128730020D01*
X86221828Y-128777639D01*
X86245638Y-128825258D01*
X86269447Y-128920496D01*
X86269447Y-128991924D01*
X86245638Y-129087162D01*
X86221828Y-129134781D01*
X86174209Y-129182400D01*
X86102780Y-129206210D01*
X85983733Y-129206210D01*
X86436114Y-128706210D02*
X86745638Y-128706210D01*
X86578971Y-128896686D01*
X86650400Y-128896686D01*
X86698019Y-128920496D01*
X86721828Y-128944305D01*
X86745638Y-128991924D01*
X86745638Y-129110972D01*
X86721828Y-129158591D01*
X86698019Y-129182400D01*
X86650400Y-129206210D01*
X86507542Y-129206210D01*
X86459923Y-129182400D01*
X86436114Y-129158591D01*
X87221828Y-129206210D02*
X86936114Y-129206210D01*
X87078971Y-129206210D02*
X87078971Y-128706210D01*
X87031352Y-128777639D01*
X86983733Y-128825258D01*
X86936114Y-128849067D01*
X87698019Y-129206210D02*
X87412304Y-129206210D01*
X87555161Y-129206210D02*
X87555161Y-128706210D01*
X87507542Y-128777639D01*
X87459923Y-128825258D01*
X87412304Y-128849067D01*
D16*
X83365179Y-72823226D02*
X83344976Y-72937710D01*
X83445991Y-72904039D02*
X83304570Y-73045460D01*
X83250695Y-72991585D01*
X83243961Y-72971382D01*
X83243961Y-72957913D01*
X83250695Y-72937710D01*
X83270898Y-72917507D01*
X83291101Y-72910773D01*
X83304570Y-72910773D01*
X83324773Y-72917507D01*
X83378648Y-72971382D01*
X83183352Y-72897304D02*
X83169883Y-72897304D01*
X83149680Y-72890570D01*
X83116008Y-72856898D01*
X83109274Y-72836695D01*
X83109274Y-72823226D01*
X83116008Y-72803023D01*
X83129477Y-72789555D01*
X83156414Y-72776086D01*
X83318039Y-72776086D01*
X83230492Y-72688539D01*
X83001524Y-72742414D02*
X82988055Y-72728946D01*
X82981321Y-72708742D01*
X82981321Y-72695274D01*
X82988055Y-72675071D01*
X83008258Y-72641399D01*
X83041930Y-72607727D01*
X83075602Y-72587524D01*
X83095805Y-72580790D01*
X83109274Y-72580790D01*
X83129477Y-72587524D01*
X83142946Y-72600993D01*
X83149680Y-72621196D01*
X83149680Y-72634665D01*
X83142946Y-72654868D01*
X83122742Y-72688539D01*
X83089071Y-72722211D01*
X83055399Y-72742414D01*
X83035196Y-72749149D01*
X83021727Y-72749149D01*
X83001524Y-72742414D01*
X82961118Y-72419165D02*
X83041930Y-72499978D01*
X83001524Y-72459571D02*
X82860103Y-72600993D01*
X82893775Y-72594258D01*
X82920712Y-72594258D01*
X82940915Y-72600993D01*
D15*
X85364685Y-174263594D02*
X85126590Y-174263594D01*
X85126590Y-173763594D01*
X85531352Y-174001689D02*
X85698019Y-174001689D01*
X85769447Y-174263594D02*
X85531352Y-174263594D01*
X85531352Y-173763594D01*
X85769447Y-173763594D01*
X85983733Y-174263594D02*
X85983733Y-173763594D01*
X86102780Y-173763594D01*
X86174209Y-173787404D01*
X86221828Y-173835023D01*
X86245638Y-173882642D01*
X86269447Y-173977880D01*
X86269447Y-174049308D01*
X86245638Y-174144546D01*
X86221828Y-174192165D01*
X86174209Y-174239784D01*
X86102780Y-174263594D01*
X85983733Y-174263594D01*
X86436114Y-173763594D02*
X86745638Y-173763594D01*
X86578971Y-173954070D01*
X86650400Y-173954070D01*
X86698019Y-173977880D01*
X86721828Y-174001689D01*
X86745638Y-174049308D01*
X86745638Y-174168356D01*
X86721828Y-174215975D01*
X86698019Y-174239784D01*
X86650400Y-174263594D01*
X86507542Y-174263594D01*
X86459923Y-174239784D01*
X86436114Y-174215975D01*
X86936114Y-173811213D02*
X86959923Y-173787404D01*
X87007542Y-173763594D01*
X87126590Y-173763594D01*
X87174209Y-173787404D01*
X87198019Y-173811213D01*
X87221828Y-173858832D01*
X87221828Y-173906451D01*
X87198019Y-173977880D01*
X86912304Y-174263594D01*
X87221828Y-174263594D01*
X87388495Y-173763594D02*
X87698019Y-173763594D01*
X87531352Y-173954070D01*
X87602780Y-173954070D01*
X87650400Y-173977880D01*
X87674209Y-174001689D01*
X87698019Y-174049308D01*
X87698019Y-174168356D01*
X87674209Y-174215975D01*
X87650400Y-174239784D01*
X87602780Y-174263594D01*
X87459923Y-174263594D01*
X87412304Y-174239784D01*
X87388495Y-174215975D01*
X85364696Y-110432294D02*
X85126601Y-110432294D01*
X85126601Y-109932294D01*
X85531363Y-110170389D02*
X85698030Y-110170389D01*
X85769458Y-110432294D02*
X85531363Y-110432294D01*
X85531363Y-109932294D01*
X85769458Y-109932294D01*
X85983744Y-110432294D02*
X85983744Y-109932294D01*
X86102791Y-109932294D01*
X86174220Y-109956104D01*
X86221839Y-110003723D01*
X86245649Y-110051342D01*
X86269458Y-110146580D01*
X86269458Y-110218008D01*
X86245649Y-110313246D01*
X86221839Y-110360865D01*
X86174220Y-110408484D01*
X86102791Y-110432294D01*
X85983744Y-110432294D01*
X86436125Y-109932294D02*
X86745649Y-109932294D01*
X86578982Y-110122770D01*
X86650411Y-110122770D01*
X86698030Y-110146580D01*
X86721839Y-110170389D01*
X86745649Y-110218008D01*
X86745649Y-110337056D01*
X86721839Y-110384675D01*
X86698030Y-110408484D01*
X86650411Y-110432294D01*
X86507553Y-110432294D01*
X86459934Y-110408484D01*
X86436125Y-110384675D01*
X87055172Y-109932294D02*
X87102791Y-109932294D01*
X87150411Y-109956104D01*
X87174220Y-109979913D01*
X87198030Y-110027532D01*
X87221839Y-110122770D01*
X87221839Y-110241818D01*
X87198030Y-110337056D01*
X87174220Y-110384675D01*
X87150411Y-110408484D01*
X87102791Y-110432294D01*
X87055172Y-110432294D01*
X87007553Y-110408484D01*
X86983744Y-110384675D01*
X86959934Y-110337056D01*
X86936125Y-110241818D01*
X86936125Y-110122770D01*
X86959934Y-110027532D01*
X86983744Y-109979913D01*
X87007553Y-109956104D01*
X87055172Y-109932294D01*
X87650411Y-109932294D02*
X87555172Y-109932294D01*
X87507553Y-109956104D01*
X87483744Y-109979913D01*
X87436125Y-110051342D01*
X87412315Y-110146580D01*
X87412315Y-110337056D01*
X87436125Y-110384675D01*
X87459934Y-110408484D01*
X87507553Y-110432294D01*
X87602791Y-110432294D01*
X87650411Y-110408484D01*
X87674220Y-110384675D01*
X87698030Y-110337056D01*
X87698030Y-110218008D01*
X87674220Y-110170389D01*
X87650411Y-110146580D01*
X87602791Y-110122770D01*
X87507553Y-110122770D01*
X87459934Y-110146580D01*
X87436125Y-110170389D01*
X87412315Y-110218008D01*
X85364685Y-178018376D02*
X85126590Y-178018376D01*
X85126590Y-177518376D01*
X85531352Y-177756471D02*
X85698019Y-177756471D01*
X85769447Y-178018376D02*
X85531352Y-178018376D01*
X85531352Y-177518376D01*
X85769447Y-177518376D01*
X85983733Y-178018376D02*
X85983733Y-177518376D01*
X86102780Y-177518376D01*
X86174209Y-177542186D01*
X86221828Y-177589805D01*
X86245638Y-177637424D01*
X86269447Y-177732662D01*
X86269447Y-177804090D01*
X86245638Y-177899328D01*
X86221828Y-177946947D01*
X86174209Y-177994566D01*
X86102780Y-178018376D01*
X85983733Y-178018376D01*
X86436114Y-177518376D02*
X86745638Y-177518376D01*
X86578971Y-177708852D01*
X86650400Y-177708852D01*
X86698019Y-177732662D01*
X86721828Y-177756471D01*
X86745638Y-177804090D01*
X86745638Y-177923138D01*
X86721828Y-177970757D01*
X86698019Y-177994566D01*
X86650400Y-178018376D01*
X86507542Y-178018376D01*
X86459923Y-177994566D01*
X86436114Y-177970757D01*
X86936114Y-177565995D02*
X86959923Y-177542186D01*
X87007542Y-177518376D01*
X87126590Y-177518376D01*
X87174209Y-177542186D01*
X87198019Y-177565995D01*
X87221828Y-177613614D01*
X87221828Y-177661233D01*
X87198019Y-177732662D01*
X86912304Y-178018376D01*
X87221828Y-178018376D01*
X87650400Y-177685043D02*
X87650400Y-178018376D01*
X87531352Y-177494566D02*
X87412304Y-177851709D01*
X87721828Y-177851709D01*
X85364685Y-140470556D02*
X85126590Y-140470556D01*
X85126590Y-139970556D01*
X85531352Y-140208651D02*
X85698019Y-140208651D01*
X85769447Y-140470556D02*
X85531352Y-140470556D01*
X85531352Y-139970556D01*
X85769447Y-139970556D01*
X85983733Y-140470556D02*
X85983733Y-139970556D01*
X86102780Y-139970556D01*
X86174209Y-139994366D01*
X86221828Y-140041985D01*
X86245638Y-140089604D01*
X86269447Y-140184842D01*
X86269447Y-140256270D01*
X86245638Y-140351508D01*
X86221828Y-140399127D01*
X86174209Y-140446746D01*
X86102780Y-140470556D01*
X85983733Y-140470556D01*
X86436114Y-139970556D02*
X86745638Y-139970556D01*
X86578971Y-140161032D01*
X86650400Y-140161032D01*
X86698019Y-140184842D01*
X86721828Y-140208651D01*
X86745638Y-140256270D01*
X86745638Y-140375318D01*
X86721828Y-140422937D01*
X86698019Y-140446746D01*
X86650400Y-140470556D01*
X86507542Y-140470556D01*
X86459923Y-140446746D01*
X86436114Y-140422937D01*
X87221828Y-140470556D02*
X86936114Y-140470556D01*
X87078971Y-140470556D02*
X87078971Y-139970556D01*
X87031352Y-140041985D01*
X86983733Y-140089604D01*
X86936114Y-140113413D01*
X87650400Y-140137223D02*
X87650400Y-140470556D01*
X87531352Y-139946746D02*
X87412304Y-140303889D01*
X87721828Y-140303889D01*
X85364696Y-106677514D02*
X85126601Y-106677514D01*
X85126601Y-106177514D01*
X85531363Y-106415609D02*
X85698030Y-106415609D01*
X85769458Y-106677514D02*
X85531363Y-106677514D01*
X85531363Y-106177514D01*
X85769458Y-106177514D01*
X85983744Y-106677514D02*
X85983744Y-106177514D01*
X86102791Y-106177514D01*
X86174220Y-106201324D01*
X86221839Y-106248943D01*
X86245649Y-106296562D01*
X86269458Y-106391800D01*
X86269458Y-106463228D01*
X86245649Y-106558466D01*
X86221839Y-106606085D01*
X86174220Y-106653704D01*
X86102791Y-106677514D01*
X85983744Y-106677514D01*
X86436125Y-106177514D02*
X86745649Y-106177514D01*
X86578982Y-106367990D01*
X86650411Y-106367990D01*
X86698030Y-106391800D01*
X86721839Y-106415609D01*
X86745649Y-106463228D01*
X86745649Y-106582276D01*
X86721839Y-106629895D01*
X86698030Y-106653704D01*
X86650411Y-106677514D01*
X86507553Y-106677514D01*
X86459934Y-106653704D01*
X86436125Y-106629895D01*
X87055172Y-106177514D02*
X87102791Y-106177514D01*
X87150411Y-106201324D01*
X87174220Y-106225133D01*
X87198030Y-106272752D01*
X87221839Y-106367990D01*
X87221839Y-106487038D01*
X87198030Y-106582276D01*
X87174220Y-106629895D01*
X87150411Y-106653704D01*
X87102791Y-106677514D01*
X87055172Y-106677514D01*
X87007553Y-106653704D01*
X86983744Y-106629895D01*
X86959934Y-106582276D01*
X86936125Y-106487038D01*
X86936125Y-106367990D01*
X86959934Y-106272752D01*
X86983744Y-106225133D01*
X87007553Y-106201324D01*
X87055172Y-106177514D01*
X87674220Y-106177514D02*
X87436125Y-106177514D01*
X87412315Y-106415609D01*
X87436125Y-106391800D01*
X87483744Y-106367990D01*
X87602791Y-106367990D01*
X87650411Y-106391800D01*
X87674220Y-106415609D01*
X87698030Y-106463228D01*
X87698030Y-106582276D01*
X87674220Y-106629895D01*
X87650411Y-106653704D01*
X87602791Y-106677514D01*
X87483744Y-106677514D01*
X87436125Y-106653704D01*
X87412315Y-106629895D01*
X85364685Y-144225338D02*
X85126590Y-144225338D01*
X85126590Y-143725338D01*
X85531352Y-143963433D02*
X85698019Y-143963433D01*
X85769447Y-144225338D02*
X85531352Y-144225338D01*
X85531352Y-143725338D01*
X85769447Y-143725338D01*
X85983733Y-144225338D02*
X85983733Y-143725338D01*
X86102780Y-143725338D01*
X86174209Y-143749148D01*
X86221828Y-143796767D01*
X86245638Y-143844386D01*
X86269447Y-143939624D01*
X86269447Y-144011052D01*
X86245638Y-144106290D01*
X86221828Y-144153909D01*
X86174209Y-144201528D01*
X86102780Y-144225338D01*
X85983733Y-144225338D01*
X86436114Y-143725338D02*
X86745638Y-143725338D01*
X86578971Y-143915814D01*
X86650400Y-143915814D01*
X86698019Y-143939624D01*
X86721828Y-143963433D01*
X86745638Y-144011052D01*
X86745638Y-144130100D01*
X86721828Y-144177719D01*
X86698019Y-144201528D01*
X86650400Y-144225338D01*
X86507542Y-144225338D01*
X86459923Y-144201528D01*
X86436114Y-144177719D01*
X87221828Y-144225338D02*
X86936114Y-144225338D01*
X87078971Y-144225338D02*
X87078971Y-143725338D01*
X87031352Y-143796767D01*
X86983733Y-143844386D01*
X86936114Y-143868195D01*
X87674209Y-143725338D02*
X87436114Y-143725338D01*
X87412304Y-143963433D01*
X87436114Y-143939624D01*
X87483733Y-143915814D01*
X87602780Y-143915814D01*
X87650400Y-143939624D01*
X87674209Y-143963433D01*
X87698019Y-144011052D01*
X87698019Y-144130100D01*
X87674209Y-144177719D01*
X87650400Y-144201528D01*
X87602780Y-144225338D01*
X87483733Y-144225338D01*
X87436114Y-144201528D01*
X87412304Y-144177719D01*
X85364685Y-136715774D02*
X85126590Y-136715774D01*
X85126590Y-136215774D01*
X85531352Y-136453869D02*
X85698019Y-136453869D01*
X85769447Y-136715774D02*
X85531352Y-136715774D01*
X85531352Y-136215774D01*
X85769447Y-136215774D01*
X85983733Y-136715774D02*
X85983733Y-136215774D01*
X86102780Y-136215774D01*
X86174209Y-136239584D01*
X86221828Y-136287203D01*
X86245638Y-136334822D01*
X86269447Y-136430060D01*
X86269447Y-136501488D01*
X86245638Y-136596726D01*
X86221828Y-136644345D01*
X86174209Y-136691964D01*
X86102780Y-136715774D01*
X85983733Y-136715774D01*
X86436114Y-136215774D02*
X86745638Y-136215774D01*
X86578971Y-136406250D01*
X86650400Y-136406250D01*
X86698019Y-136430060D01*
X86721828Y-136453869D01*
X86745638Y-136501488D01*
X86745638Y-136620536D01*
X86721828Y-136668155D01*
X86698019Y-136691964D01*
X86650400Y-136715774D01*
X86507542Y-136715774D01*
X86459923Y-136691964D01*
X86436114Y-136668155D01*
X87221828Y-136715774D02*
X86936114Y-136715774D01*
X87078971Y-136715774D02*
X87078971Y-136215774D01*
X87031352Y-136287203D01*
X86983733Y-136334822D01*
X86936114Y-136358631D01*
X87388495Y-136215774D02*
X87698019Y-136215774D01*
X87531352Y-136406250D01*
X87602780Y-136406250D01*
X87650400Y-136430060D01*
X87674209Y-136453869D01*
X87698019Y-136501488D01*
X87698019Y-136620536D01*
X87674209Y-136668155D01*
X87650400Y-136691964D01*
X87602780Y-136715774D01*
X87459923Y-136715774D01*
X87412304Y-136691964D01*
X87388495Y-136668155D01*
D17*
X87628971Y-44451953D02*
X87628717Y-44451953D01*
X87628875Y-44451929D02*
X87628971Y-44451856D01*
X87628802Y-44451856D02*
X87628899Y-44451953D01*
X87628971Y-44451747D02*
X87628802Y-44451747D01*
X87628717Y-44451747D02*
X87628730Y-44451759D01*
X87628742Y-44451747D01*
X87628730Y-44451735D01*
X87628717Y-44451747D01*
X87628742Y-44451747D01*
X87628971Y-44451626D02*
X87628717Y-44451626D01*
X87628814Y-44451626D02*
X87628802Y-44451602D01*
X87628802Y-44451554D01*
X87628814Y-44451530D01*
X87628826Y-44451517D01*
X87628850Y-44451505D01*
X87628923Y-44451505D01*
X87628947Y-44451517D01*
X87628959Y-44451530D01*
X87628971Y-44451554D01*
X87628971Y-44451602D01*
X87628959Y-44451626D01*
X87628802Y-44451288D02*
X87628971Y-44451288D01*
X87628802Y-44451397D02*
X87628935Y-44451397D01*
X87628959Y-44451384D01*
X87628971Y-44451360D01*
X87628971Y-44451324D01*
X87628959Y-44451300D01*
X87628947Y-44451288D01*
X87628802Y-44451191D02*
X87628802Y-44451058D01*
X87628971Y-44451191D01*
X87628971Y-44451058D01*
X87628802Y-44450985D02*
X87628802Y-44450852D01*
X87628971Y-44450985D01*
X87628971Y-44450852D01*
X87628971Y-44450647D02*
X87628838Y-44450647D01*
X87628814Y-44450659D01*
X87628802Y-44450683D01*
X87628802Y-44450731D01*
X87628814Y-44450755D01*
X87628959Y-44450647D02*
X87628971Y-44450671D01*
X87628971Y-44450731D01*
X87628959Y-44450755D01*
X87628935Y-44450768D01*
X87628911Y-44450768D01*
X87628887Y-44450755D01*
X87628875Y-44450731D01*
X87628875Y-44450671D01*
X87628863Y-44450647D01*
X87628971Y-44450526D02*
X87628802Y-44450526D01*
X87628850Y-44450526D02*
X87628826Y-44450514D01*
X87628814Y-44450501D01*
X87628802Y-44450477D01*
X87628802Y-44450453D01*
X87628971Y-44450260D02*
X87628717Y-44450260D01*
X87628959Y-44450260D02*
X87628971Y-44450284D01*
X87628971Y-44450332D01*
X87628959Y-44450356D01*
X87628947Y-44450368D01*
X87628923Y-44450381D01*
X87628850Y-44450381D01*
X87628826Y-44450368D01*
X87628814Y-44450356D01*
X87628802Y-44450332D01*
X87628802Y-44450284D01*
X87628814Y-44450260D01*
X87628875Y-44450139D02*
X87628875Y-44449945D01*
X87628717Y-44449715D02*
X87628717Y-44449764D01*
X87628730Y-44449788D01*
X87628742Y-44449800D01*
X87628778Y-44449824D01*
X87628826Y-44449836D01*
X87628923Y-44449836D01*
X87628947Y-44449824D01*
X87628959Y-44449812D01*
X87628971Y-44449788D01*
X87628971Y-44449739D01*
X87628959Y-44449715D01*
X87628947Y-44449703D01*
X87628923Y-44449691D01*
X87628863Y-44449691D01*
X87628838Y-44449703D01*
X87628826Y-44449715D01*
X87628814Y-44449739D01*
X87628814Y-44449788D01*
X87628826Y-44449812D01*
X87628838Y-44449824D01*
X87628863Y-44449836D01*
X87628717Y-44449606D02*
X87628717Y-44449449D01*
X87628814Y-44449534D01*
X87628814Y-44449498D01*
X87628826Y-44449473D01*
X87628838Y-44449461D01*
X87628863Y-44449449D01*
X87628923Y-44449449D01*
X87628947Y-44449461D01*
X87628959Y-44449473D01*
X87628971Y-44449498D01*
X87628971Y-44449570D01*
X87628959Y-44449594D01*
X87628947Y-44449606D01*
X87628838Y-44449256D02*
X87628838Y-44449340D01*
X87628971Y-44449340D02*
X87628717Y-44449340D01*
X87628717Y-44449219D01*
X87628971Y-44449123D02*
X87628717Y-44449123D01*
X87628717Y-44449062D01*
X87628730Y-44449026D01*
X87628754Y-44449002D01*
X87628778Y-44448990D01*
X87628826Y-44448977D01*
X87628863Y-44448977D01*
X87628911Y-44448990D01*
X87628935Y-44449002D01*
X87628959Y-44449026D01*
X87628971Y-44449062D01*
X87628971Y-44449123D01*
X87628971Y-44448857D02*
X87628971Y-44448808D01*
X87628959Y-44448784D01*
X87628947Y-44448772D01*
X87628911Y-44448748D01*
X87628863Y-44448736D01*
X87628766Y-44448736D01*
X87628742Y-44448748D01*
X87628730Y-44448760D01*
X87628717Y-44448784D01*
X87628717Y-44448832D01*
X87628730Y-44448857D01*
X87628742Y-44448869D01*
X87628766Y-44448881D01*
X87628826Y-44448881D01*
X87628850Y-44448869D01*
X87628863Y-44448857D01*
X87628875Y-44448832D01*
X87628875Y-44448784D01*
X87628863Y-44448760D01*
X87628850Y-44448748D01*
X87628826Y-44448736D01*
X87628717Y-44448518D02*
X87628717Y-44448566D01*
X87628730Y-44448590D01*
X87628742Y-44448603D01*
X87628778Y-44448627D01*
X87628826Y-44448639D01*
X87628923Y-44448639D01*
X87628947Y-44448627D01*
X87628959Y-44448615D01*
X87628971Y-44448590D01*
X87628971Y-44448542D01*
X87628959Y-44448518D01*
X87628947Y-44448506D01*
X87628923Y-44448494D01*
X87628863Y-44448494D01*
X87628838Y-44448506D01*
X87628826Y-44448518D01*
X87628814Y-44448542D01*
X87628814Y-44448590D01*
X87628826Y-44448615D01*
X87628838Y-44448627D01*
X87628863Y-44448639D01*
X87628838Y-44448300D02*
X87628838Y-44448385D01*
X87628971Y-44448385D02*
X87628717Y-44448385D01*
X87628717Y-44448264D01*
X87628971Y-44448155D02*
X87628971Y-44448107D01*
X87628959Y-44448082D01*
X87628947Y-44448070D01*
X87628911Y-44448046D01*
X87628863Y-44448034D01*
X87628766Y-44448034D01*
X87628742Y-44448046D01*
X87628730Y-44448058D01*
X87628717Y-44448082D01*
X87628717Y-44448131D01*
X87628730Y-44448155D01*
X87628742Y-44448167D01*
X87628766Y-44448179D01*
X87628826Y-44448179D01*
X87628850Y-44448167D01*
X87628863Y-44448155D01*
X87628875Y-44448131D01*
X87628875Y-44448082D01*
X87628863Y-44448058D01*
X87628850Y-44448046D01*
X87628826Y-44448034D01*
X88647016Y-44450223D02*
X88647003Y-44450247D01*
X88647003Y-44450284D01*
X88647016Y-44450320D01*
X88647040Y-44450344D01*
X88647064Y-44450356D01*
X88647112Y-44450368D01*
X88647149Y-44450368D01*
X88647197Y-44450356D01*
X88647221Y-44450344D01*
X88647245Y-44450320D01*
X88647257Y-44450284D01*
X88647257Y-44450260D01*
X88647245Y-44450223D01*
X88647233Y-44450211D01*
X88647149Y-44450211D01*
X88647149Y-44450260D01*
X88647003Y-44450066D02*
X88647064Y-44450066D01*
X88647040Y-44450127D02*
X88647064Y-44450066D01*
X88647040Y-44450006D01*
X88647112Y-44450102D02*
X88647064Y-44450066D01*
X88647112Y-44450030D01*
X88647003Y-44449873D02*
X88647064Y-44449873D01*
X88647040Y-44449933D02*
X88647064Y-44449873D01*
X88647040Y-44449812D01*
X88647112Y-44449909D02*
X88647064Y-44449873D01*
X88647112Y-44449836D01*
X88647003Y-44449679D02*
X88647064Y-44449679D01*
X88647040Y-44449739D02*
X88647064Y-44449679D01*
X88647040Y-44449619D01*
X88647112Y-44449715D02*
X88647064Y-44449679D01*
X88647112Y-44449643D01*
D15*
X85364685Y-125451428D02*
X85126590Y-125451428D01*
X85126590Y-124951428D01*
X85531352Y-125189523D02*
X85698019Y-125189523D01*
X85769447Y-125451428D02*
X85531352Y-125451428D01*
X85531352Y-124951428D01*
X85769447Y-124951428D01*
X85983733Y-125451428D02*
X85983733Y-124951428D01*
X86102780Y-124951428D01*
X86174209Y-124975238D01*
X86221828Y-125022857D01*
X86245638Y-125070476D01*
X86269447Y-125165714D01*
X86269447Y-125237142D01*
X86245638Y-125332380D01*
X86221828Y-125379999D01*
X86174209Y-125427618D01*
X86102780Y-125451428D01*
X85983733Y-125451428D01*
X86436114Y-124951428D02*
X86745638Y-124951428D01*
X86578971Y-125141904D01*
X86650400Y-125141904D01*
X86698019Y-125165714D01*
X86721828Y-125189523D01*
X86745638Y-125237142D01*
X86745638Y-125356190D01*
X86721828Y-125403809D01*
X86698019Y-125427618D01*
X86650400Y-125451428D01*
X86507542Y-125451428D01*
X86459923Y-125427618D01*
X86436114Y-125403809D01*
X87221828Y-125451428D02*
X86936114Y-125451428D01*
X87078971Y-125451428D02*
X87078971Y-124951428D01*
X87031352Y-125022857D01*
X86983733Y-125070476D01*
X86936114Y-125094285D01*
X87531352Y-124951428D02*
X87578971Y-124951428D01*
X87626590Y-124975238D01*
X87650400Y-124999047D01*
X87674209Y-125046666D01*
X87698019Y-125141904D01*
X87698019Y-125260952D01*
X87674209Y-125356190D01*
X87650400Y-125403809D01*
X87626590Y-125427618D01*
X87578971Y-125451428D01*
X87531352Y-125451428D01*
X87483733Y-125427618D01*
X87459923Y-125403809D01*
X87436114Y-125356190D01*
X87412304Y-125260952D01*
X87412304Y-125141904D01*
X87436114Y-125046666D01*
X87459923Y-124999047D01*
X87483733Y-124975238D01*
X87531352Y-124951428D01*
X85364685Y-91658390D02*
X85126590Y-91658390D01*
X85126590Y-91158390D01*
X85531352Y-91396485D02*
X85698019Y-91396485D01*
X85769447Y-91658390D02*
X85531352Y-91658390D01*
X85531352Y-91158390D01*
X85769447Y-91158390D01*
X85983733Y-91658390D02*
X85983733Y-91158390D01*
X86102780Y-91158390D01*
X86174209Y-91182200D01*
X86221828Y-91229819D01*
X86245638Y-91277438D01*
X86269447Y-91372676D01*
X86269447Y-91444104D01*
X86245638Y-91539342D01*
X86221828Y-91586961D01*
X86174209Y-91634580D01*
X86102780Y-91658390D01*
X85983733Y-91658390D01*
X86436114Y-91158390D02*
X86745638Y-91158390D01*
X86578971Y-91348866D01*
X86650400Y-91348866D01*
X86698019Y-91372676D01*
X86721828Y-91396485D01*
X86745638Y-91444104D01*
X86745638Y-91563152D01*
X86721828Y-91610771D01*
X86698019Y-91634580D01*
X86650400Y-91658390D01*
X86507542Y-91658390D01*
X86459923Y-91634580D01*
X86436114Y-91610771D01*
X87055161Y-91158390D02*
X87102780Y-91158390D01*
X87150400Y-91182200D01*
X87174209Y-91206009D01*
X87198019Y-91253628D01*
X87221828Y-91348866D01*
X87221828Y-91467914D01*
X87198019Y-91563152D01*
X87174209Y-91610771D01*
X87150400Y-91634580D01*
X87102780Y-91658390D01*
X87055161Y-91658390D01*
X87007542Y-91634580D01*
X86983733Y-91610771D01*
X86959923Y-91563152D01*
X86936114Y-91467914D01*
X86936114Y-91348866D01*
X86959923Y-91253628D01*
X86983733Y-91206009D01*
X87007542Y-91182200D01*
X87055161Y-91158390D01*
X87698019Y-91658390D02*
X87412304Y-91658390D01*
X87555161Y-91658390D02*
X87555161Y-91158390D01*
X87507542Y-91229819D01*
X87459923Y-91277438D01*
X87412304Y-91301247D01*
D18*
X86934523Y-87539285D02*
X85664523Y-87539285D01*
X86813571Y-86208809D02*
X86874047Y-86269285D01*
X86934523Y-86450714D01*
X86934523Y-86571666D01*
X86874047Y-86753095D01*
X86753095Y-86874047D01*
X86632142Y-86934523D01*
X86390238Y-86995000D01*
X86208809Y-86995000D01*
X85966904Y-86934523D01*
X85845952Y-86874047D01*
X85725000Y-86753095D01*
X85664523Y-86571666D01*
X85664523Y-86450714D01*
X85725000Y-86269285D01*
X85785476Y-86208809D01*
X85664523Y-85785476D02*
X85664523Y-84999285D01*
X86148333Y-85422619D01*
X86148333Y-85241190D01*
X86208809Y-85120238D01*
X86269285Y-85059761D01*
X86390238Y-84999285D01*
X86692619Y-84999285D01*
X86813571Y-85059761D01*
X86874047Y-85120238D01*
X86934523Y-85241190D01*
X86934523Y-85604047D01*
X86874047Y-85725000D01*
X86813571Y-85785476D01*
X85664523Y-84213095D02*
X85664523Y-84092142D01*
X85725000Y-83971190D01*
X85785476Y-83910714D01*
X85906428Y-83850238D01*
X86148333Y-83789761D01*
X86450714Y-83789761D01*
X86692619Y-83850238D01*
X86813571Y-83910714D01*
X86874047Y-83971190D01*
X86934523Y-84092142D01*
X86934523Y-84213095D01*
X86874047Y-84334047D01*
X86813571Y-84394523D01*
X86692619Y-84455000D01*
X86450714Y-84515476D01*
X86148333Y-84515476D01*
X85906428Y-84455000D01*
X85785476Y-84394523D01*
X85725000Y-84334047D01*
X85664523Y-84213095D01*
X86934523Y-82580238D02*
X86934523Y-83305952D01*
X86934523Y-82943095D02*
X85664523Y-82943095D01*
X85845952Y-83064047D01*
X85966904Y-83185000D01*
X86027380Y-83305952D01*
X86874047Y-94887142D02*
X86934523Y-94705714D01*
X86934523Y-94403333D01*
X86874047Y-94282380D01*
X86813571Y-94221904D01*
X86692619Y-94161428D01*
X86571666Y-94161428D01*
X86450714Y-94221904D01*
X86390238Y-94282380D01*
X86329761Y-94403333D01*
X86269285Y-94645238D01*
X86208809Y-94766190D01*
X86148333Y-94826666D01*
X86027380Y-94887142D01*
X85906428Y-94887142D01*
X85785476Y-94826666D01*
X85725000Y-94766190D01*
X85664523Y-94645238D01*
X85664523Y-94342857D01*
X85725000Y-94161428D01*
X85664523Y-93375238D02*
X85664523Y-93133333D01*
X85725000Y-93012380D01*
X85845952Y-92891428D01*
X86087857Y-92830952D01*
X86511190Y-92830952D01*
X86753095Y-92891428D01*
X86874047Y-93012380D01*
X86934523Y-93133333D01*
X86934523Y-93375238D01*
X86874047Y-93496190D01*
X86753095Y-93617142D01*
X86511190Y-93677619D01*
X86087857Y-93677619D01*
X85845952Y-93617142D01*
X85725000Y-93496190D01*
X85664523Y-93375238D01*
X86934523Y-92286666D02*
X85664523Y-92286666D01*
X85664523Y-91802857D01*
X85725000Y-91681904D01*
X85785476Y-91621428D01*
X85906428Y-91560952D01*
X86087857Y-91560952D01*
X86208809Y-91621428D01*
X86269285Y-91681904D01*
X86329761Y-91802857D01*
X86329761Y-92286666D01*
X85664523Y-90411904D02*
X85664523Y-91016666D01*
X86269285Y-91077142D01*
X86208809Y-91016666D01*
X86148333Y-90895714D01*
X86148333Y-90593333D01*
X86208809Y-90472380D01*
X86269285Y-90411904D01*
X86390238Y-90351428D01*
X86692619Y-90351428D01*
X86813571Y-90411904D01*
X86874047Y-90472380D01*
X86934523Y-90593333D01*
X86934523Y-90895714D01*
X86874047Y-91016666D01*
X86813571Y-91077142D01*
X85664523Y-89565238D02*
X85664523Y-89444285D01*
X85725000Y-89323333D01*
X85785476Y-89262857D01*
X85906428Y-89202380D01*
X86148333Y-89141904D01*
X86450714Y-89141904D01*
X86692619Y-89202380D01*
X86813571Y-89262857D01*
X86874047Y-89323333D01*
X86934523Y-89444285D01*
X86934523Y-89565238D01*
X86874047Y-89686190D01*
X86813571Y-89746666D01*
X86692619Y-89807142D01*
X86450714Y-89867619D01*
X86148333Y-89867619D01*
X85906428Y-89807142D01*
X85785476Y-89746666D01*
X85725000Y-89686190D01*
X85664523Y-89565238D01*
X86934523Y-88597619D02*
X85664523Y-88597619D01*
X85664523Y-88113809D01*
X85725000Y-87992857D01*
X85785476Y-87932380D01*
X85906428Y-87871904D01*
X86087857Y-87871904D01*
X86208809Y-87932380D01*
X86269285Y-87992857D01*
X86329761Y-88113809D01*
X86329761Y-88597619D01*
X85664523Y-87448571D02*
X85664523Y-86662380D01*
X86148333Y-87085714D01*
X86148333Y-86904285D01*
X86208809Y-86783333D01*
X86269285Y-86722857D01*
X86390238Y-86662380D01*
X86692619Y-86662380D01*
X86813571Y-86722857D01*
X86874047Y-86783333D01*
X86934523Y-86904285D01*
X86934523Y-87267142D01*
X86874047Y-87388095D01*
X86813571Y-87448571D01*
X86934523Y-85452857D02*
X86934523Y-86178571D01*
X86934523Y-85815714D02*
X85664523Y-85815714D01*
X85845952Y-85936666D01*
X85966904Y-86057619D01*
X86027380Y-86178571D01*
X85664523Y-84666666D02*
X85664523Y-84545714D01*
X85725000Y-84424761D01*
X85785476Y-84364285D01*
X85906428Y-84303809D01*
X86148333Y-84243333D01*
X86450714Y-84243333D01*
X86692619Y-84303809D01*
X86813571Y-84364285D01*
X86874047Y-84424761D01*
X86934523Y-84545714D01*
X86934523Y-84666666D01*
X86874047Y-84787619D01*
X86813571Y-84848095D01*
X86692619Y-84908571D01*
X86450714Y-84969047D01*
X86148333Y-84969047D01*
X85906428Y-84908571D01*
X85785476Y-84848095D01*
X85725000Y-84787619D01*
X85664523Y-84666666D01*
X85664523Y-83820000D02*
X86934523Y-82973333D01*
X85664523Y-82973333D02*
X86934523Y-83820000D01*
X86934523Y-81824285D02*
X86934523Y-82550000D01*
X86934523Y-82187142D02*
X85664523Y-82187142D01*
X85845952Y-82308095D01*
X85966904Y-82429047D01*
X86027380Y-82550000D01*
X85664523Y-81038095D02*
X85664523Y-80917142D01*
X85725000Y-80796190D01*
X85785476Y-80735714D01*
X85906428Y-80675238D01*
X86148333Y-80614761D01*
X86450714Y-80614761D01*
X86692619Y-80675238D01*
X86813571Y-80735714D01*
X86874047Y-80796190D01*
X86934523Y-80917142D01*
X86934523Y-81038095D01*
X86874047Y-81159047D01*
X86813571Y-81219523D01*
X86692619Y-81280000D01*
X86450714Y-81340476D01*
X86148333Y-81340476D01*
X85906428Y-81280000D01*
X85785476Y-81219523D01*
X85725000Y-81159047D01*
X85664523Y-81038095D01*
X85664523Y-79828571D02*
X85664523Y-79707619D01*
X85725000Y-79586666D01*
X85785476Y-79526190D01*
X85906428Y-79465714D01*
X86148333Y-79405238D01*
X86450714Y-79405238D01*
X86692619Y-79465714D01*
X86813571Y-79526190D01*
X86874047Y-79586666D01*
X86934523Y-79707619D01*
X86934523Y-79828571D01*
X86874047Y-79949523D01*
X86813571Y-80009999D01*
X86692619Y-80070476D01*
X86450714Y-80130952D01*
X86148333Y-80130952D01*
X85906428Y-80070476D01*
X85785476Y-80009999D01*
X85725000Y-79949523D01*
X85664523Y-79828571D01*
X86450714Y-78860952D02*
X86450714Y-77893333D01*
X86208809Y-77107142D02*
X86148333Y-77228095D01*
X86087857Y-77288571D01*
X85966904Y-77349047D01*
X85906428Y-77349047D01*
X85785476Y-77288571D01*
X85725000Y-77228095D01*
X85664523Y-77107142D01*
X85664523Y-76865238D01*
X85725000Y-76744285D01*
X85785476Y-76683809D01*
X85906428Y-76623333D01*
X85966904Y-76623333D01*
X86087857Y-76683809D01*
X86148333Y-76744285D01*
X86208809Y-76865238D01*
X86208809Y-77107142D01*
X86269285Y-77228095D01*
X86329761Y-77288571D01*
X86450714Y-77349047D01*
X86692619Y-77349047D01*
X86813571Y-77288571D01*
X86874047Y-77228095D01*
X86934523Y-77107142D01*
X86934523Y-76865238D01*
X86874047Y-76744285D01*
X86813571Y-76683809D01*
X86692619Y-76623333D01*
X86450714Y-76623333D01*
X86329761Y-76683809D01*
X86269285Y-76744285D01*
X86208809Y-76865238D01*
X86934523Y-76079047D02*
X85664523Y-76079047D01*
X86934523Y-75353333D01*
X85664523Y-75353333D01*
D15*
X85364685Y-117941864D02*
X85126590Y-117941864D01*
X85126590Y-117441864D01*
X85531352Y-117679959D02*
X85698019Y-117679959D01*
X85769447Y-117941864D02*
X85531352Y-117941864D01*
X85531352Y-117441864D01*
X85769447Y-117441864D01*
X85983733Y-117941864D02*
X85983733Y-117441864D01*
X86102780Y-117441864D01*
X86174209Y-117465674D01*
X86221828Y-117513293D01*
X86245638Y-117560912D01*
X86269447Y-117656150D01*
X86269447Y-117727578D01*
X86245638Y-117822816D01*
X86221828Y-117870435D01*
X86174209Y-117918054D01*
X86102780Y-117941864D01*
X85983733Y-117941864D01*
X86436114Y-117441864D02*
X86745638Y-117441864D01*
X86578971Y-117632340D01*
X86650400Y-117632340D01*
X86698019Y-117656150D01*
X86721828Y-117679959D01*
X86745638Y-117727578D01*
X86745638Y-117846626D01*
X86721828Y-117894245D01*
X86698019Y-117918054D01*
X86650400Y-117941864D01*
X86507542Y-117941864D01*
X86459923Y-117918054D01*
X86436114Y-117894245D01*
X87055161Y-117441864D02*
X87102780Y-117441864D01*
X87150400Y-117465674D01*
X87174209Y-117489483D01*
X87198019Y-117537102D01*
X87221828Y-117632340D01*
X87221828Y-117751388D01*
X87198019Y-117846626D01*
X87174209Y-117894245D01*
X87150400Y-117918054D01*
X87102780Y-117941864D01*
X87055161Y-117941864D01*
X87007542Y-117918054D01*
X86983733Y-117894245D01*
X86959923Y-117846626D01*
X86936114Y-117751388D01*
X86936114Y-117632340D01*
X86959923Y-117537102D01*
X86983733Y-117489483D01*
X87007542Y-117465674D01*
X87055161Y-117441864D01*
X87507542Y-117656150D02*
X87459923Y-117632340D01*
X87436114Y-117608531D01*
X87412304Y-117560912D01*
X87412304Y-117537102D01*
X87436114Y-117489483D01*
X87459923Y-117465674D01*
X87507542Y-117441864D01*
X87602780Y-117441864D01*
X87650400Y-117465674D01*
X87674209Y-117489483D01*
X87698019Y-117537102D01*
X87698019Y-117560912D01*
X87674209Y-117608531D01*
X87650400Y-117632340D01*
X87602780Y-117656150D01*
X87507542Y-117656150D01*
X87459923Y-117679959D01*
X87436114Y-117703769D01*
X87412304Y-117751388D01*
X87412304Y-117846626D01*
X87436114Y-117894245D01*
X87459923Y-117918054D01*
X87507542Y-117941864D01*
X87602780Y-117941864D01*
X87650400Y-117918054D01*
X87674209Y-117894245D01*
X87698019Y-117846626D01*
X87698019Y-117751388D01*
X87674209Y-117703769D01*
X87650400Y-117679959D01*
X87602780Y-117656150D01*
D16*
X86069476Y-74518809D02*
X85974238Y-74585476D01*
X86069476Y-74633095D02*
X85869476Y-74633095D01*
X85869476Y-74556904D01*
X85879000Y-74537857D01*
X85888523Y-74528333D01*
X85907571Y-74518809D01*
X85936142Y-74518809D01*
X85955190Y-74528333D01*
X85964714Y-74537857D01*
X85974238Y-74556904D01*
X85974238Y-74633095D01*
X85888523Y-74442619D02*
X85879000Y-74433095D01*
X85869476Y-74414047D01*
X85869476Y-74366428D01*
X85879000Y-74347380D01*
X85888523Y-74337857D01*
X85907571Y-74328333D01*
X85926619Y-74328333D01*
X85955190Y-74337857D01*
X86069476Y-74452142D01*
X86069476Y-74328333D01*
X85869476Y-74204523D02*
X85869476Y-74185476D01*
X85879000Y-74166428D01*
X85888523Y-74156904D01*
X85907571Y-74147380D01*
X85945666Y-74137857D01*
X85993285Y-74137857D01*
X86031380Y-74147380D01*
X86050428Y-74156904D01*
X86059952Y-74166428D01*
X86069476Y-74185476D01*
X86069476Y-74204523D01*
X86059952Y-74223571D01*
X86050428Y-74233095D01*
X86031380Y-74242619D01*
X85993285Y-74252142D01*
X85945666Y-74252142D01*
X85907571Y-74242619D01*
X85888523Y-74233095D01*
X85879000Y-74223571D01*
X85869476Y-74204523D01*
X86069476Y-74042619D02*
X86069476Y-74004523D01*
X86059952Y-73985476D01*
X86050428Y-73975952D01*
X86021857Y-73956904D01*
X85983761Y-73947380D01*
X85907571Y-73947380D01*
X85888523Y-73956904D01*
X85879000Y-73966428D01*
X85869476Y-73985476D01*
X85869476Y-74023571D01*
X85879000Y-74042619D01*
X85888523Y-74052142D01*
X85907571Y-74061666D01*
X85955190Y-74061666D01*
X85974238Y-74052142D01*
X85983761Y-74042619D01*
X85993285Y-74023571D01*
X85993285Y-73985476D01*
X85983761Y-73966428D01*
X85974238Y-73956904D01*
X85955190Y-73947380D01*
D15*
X85364685Y-102922736D02*
X85126590Y-102922736D01*
X85126590Y-102422736D01*
X85531352Y-102660831D02*
X85698019Y-102660831D01*
X85769447Y-102922736D02*
X85531352Y-102922736D01*
X85531352Y-102422736D01*
X85769447Y-102422736D01*
X85983733Y-102922736D02*
X85983733Y-102422736D01*
X86102780Y-102422736D01*
X86174209Y-102446546D01*
X86221828Y-102494165D01*
X86245638Y-102541784D01*
X86269447Y-102637022D01*
X86269447Y-102708450D01*
X86245638Y-102803688D01*
X86221828Y-102851307D01*
X86174209Y-102898926D01*
X86102780Y-102922736D01*
X85983733Y-102922736D01*
X86436114Y-102422736D02*
X86745638Y-102422736D01*
X86578971Y-102613212D01*
X86650400Y-102613212D01*
X86698019Y-102637022D01*
X86721828Y-102660831D01*
X86745638Y-102708450D01*
X86745638Y-102827498D01*
X86721828Y-102875117D01*
X86698019Y-102898926D01*
X86650400Y-102922736D01*
X86507542Y-102922736D01*
X86459923Y-102898926D01*
X86436114Y-102875117D01*
X87055161Y-102422736D02*
X87102780Y-102422736D01*
X87150400Y-102446546D01*
X87174209Y-102470355D01*
X87198019Y-102517974D01*
X87221828Y-102613212D01*
X87221828Y-102732260D01*
X87198019Y-102827498D01*
X87174209Y-102875117D01*
X87150400Y-102898926D01*
X87102780Y-102922736D01*
X87055161Y-102922736D01*
X87007542Y-102898926D01*
X86983733Y-102875117D01*
X86959923Y-102827498D01*
X86936114Y-102732260D01*
X86936114Y-102613212D01*
X86959923Y-102517974D01*
X86983733Y-102470355D01*
X87007542Y-102446546D01*
X87055161Y-102422736D01*
X87650400Y-102589403D02*
X87650400Y-102922736D01*
X87531352Y-102398926D02*
X87412304Y-102756069D01*
X87721828Y-102756069D01*
D16*
X88228476Y-26004809D02*
X88133238Y-26071476D01*
X88228476Y-26119095D02*
X88028476Y-26119095D01*
X88028476Y-26042904D01*
X88038000Y-26023857D01*
X88047523Y-26014333D01*
X88066571Y-26004809D01*
X88095142Y-26004809D01*
X88114190Y-26014333D01*
X88123714Y-26023857D01*
X88133238Y-26042904D01*
X88133238Y-26119095D01*
X88047523Y-25928619D02*
X88038000Y-25919095D01*
X88028476Y-25900047D01*
X88028476Y-25852428D01*
X88038000Y-25833380D01*
X88047523Y-25823857D01*
X88066571Y-25814333D01*
X88085619Y-25814333D01*
X88114190Y-25823857D01*
X88228476Y-25938142D01*
X88228476Y-25814333D01*
X88028476Y-25690523D02*
X88028476Y-25671476D01*
X88038000Y-25652428D01*
X88047523Y-25642904D01*
X88066571Y-25633380D01*
X88104666Y-25623857D01*
X88152285Y-25623857D01*
X88190380Y-25633380D01*
X88209428Y-25642904D01*
X88218952Y-25652428D01*
X88228476Y-25671476D01*
X88228476Y-25690523D01*
X88218952Y-25709571D01*
X88209428Y-25719095D01*
X88190380Y-25728619D01*
X88152285Y-25738142D01*
X88104666Y-25738142D01*
X88066571Y-25728619D01*
X88047523Y-25719095D01*
X88038000Y-25709571D01*
X88028476Y-25690523D01*
X88028476Y-25557190D02*
X88028476Y-25423857D01*
X88228476Y-25509571D01*
X84931233Y-63721280D02*
X84911030Y-63835764D01*
X85012045Y-63802093D02*
X84870624Y-63943514D01*
X84816749Y-63889639D01*
X84810015Y-63869436D01*
X84810015Y-63855967D01*
X84816749Y-63835764D01*
X84836952Y-63815561D01*
X84857155Y-63808827D01*
X84870624Y-63808827D01*
X84890827Y-63815561D01*
X84944702Y-63869436D01*
X84749406Y-63795358D02*
X84735937Y-63795358D01*
X84715734Y-63788624D01*
X84682062Y-63754952D01*
X84675328Y-63734749D01*
X84675328Y-63721280D01*
X84682062Y-63701077D01*
X84695531Y-63687609D01*
X84722468Y-63674140D01*
X84884093Y-63674140D01*
X84796546Y-63586593D01*
X84567578Y-63640468D02*
X84554109Y-63627000D01*
X84547375Y-63606796D01*
X84547375Y-63593328D01*
X84554109Y-63573125D01*
X84574312Y-63539453D01*
X84607984Y-63505781D01*
X84641656Y-63485578D01*
X84661859Y-63478844D01*
X84675328Y-63478844D01*
X84695531Y-63485578D01*
X84709000Y-63499047D01*
X84715734Y-63519250D01*
X84715734Y-63532719D01*
X84709000Y-63552922D01*
X84688796Y-63586593D01*
X84655125Y-63620265D01*
X84621453Y-63640468D01*
X84601250Y-63647203D01*
X84587781Y-63647203D01*
X84567578Y-63640468D01*
X84392485Y-63465375D02*
X84459829Y-63532719D01*
X84533906Y-63472109D01*
X84520438Y-63472109D01*
X84500235Y-63465375D01*
X84466563Y-63431703D01*
X84459829Y-63411500D01*
X84459829Y-63398032D01*
X84466563Y-63377829D01*
X84500235Y-63344157D01*
X84520438Y-63337422D01*
X84533906Y-63337422D01*
X84554109Y-63344157D01*
X84587781Y-63377829D01*
X84594516Y-63398032D01*
X84594516Y-63411500D01*
X90971676Y-65197009D02*
X90876438Y-65263676D01*
X90971676Y-65311295D02*
X90771676Y-65311295D01*
X90771676Y-65235104D01*
X90781200Y-65216057D01*
X90790723Y-65206533D01*
X90809771Y-65197009D01*
X90838342Y-65197009D01*
X90857390Y-65206533D01*
X90866914Y-65216057D01*
X90876438Y-65235104D01*
X90876438Y-65311295D01*
X90790723Y-65120819D02*
X90781200Y-65111295D01*
X90771676Y-65092247D01*
X90771676Y-65044628D01*
X90781200Y-65025580D01*
X90790723Y-65016057D01*
X90809771Y-65006533D01*
X90828819Y-65006533D01*
X90857390Y-65016057D01*
X90971676Y-65130342D01*
X90971676Y-65006533D01*
X90771676Y-64882723D02*
X90771676Y-64863676D01*
X90781200Y-64844628D01*
X90790723Y-64835104D01*
X90809771Y-64825580D01*
X90847866Y-64816057D01*
X90895485Y-64816057D01*
X90933580Y-64825580D01*
X90952628Y-64835104D01*
X90962152Y-64844628D01*
X90971676Y-64863676D01*
X90971676Y-64882723D01*
X90962152Y-64901771D01*
X90952628Y-64911295D01*
X90933580Y-64920819D01*
X90895485Y-64930342D01*
X90847866Y-64930342D01*
X90809771Y-64920819D01*
X90790723Y-64911295D01*
X90781200Y-64901771D01*
X90771676Y-64882723D01*
X90790723Y-64739866D02*
X90781200Y-64730342D01*
X90771676Y-64711295D01*
X90771676Y-64663676D01*
X90781200Y-64644628D01*
X90790723Y-64635104D01*
X90809771Y-64625580D01*
X90828819Y-64625580D01*
X90857390Y-64635104D01*
X90971676Y-64749390D01*
X90971676Y-64625580D01*
D15*
X85364685Y-114187082D02*
X85126590Y-114187082D01*
X85126590Y-113687082D01*
X85531352Y-113925177D02*
X85698019Y-113925177D01*
X85769447Y-114187082D02*
X85531352Y-114187082D01*
X85531352Y-113687082D01*
X85769447Y-113687082D01*
X85983733Y-114187082D02*
X85983733Y-113687082D01*
X86102780Y-113687082D01*
X86174209Y-113710892D01*
X86221828Y-113758511D01*
X86245638Y-113806130D01*
X86269447Y-113901368D01*
X86269447Y-113972796D01*
X86245638Y-114068034D01*
X86221828Y-114115653D01*
X86174209Y-114163272D01*
X86102780Y-114187082D01*
X85983733Y-114187082D01*
X86436114Y-113687082D02*
X86745638Y-113687082D01*
X86578971Y-113877558D01*
X86650400Y-113877558D01*
X86698019Y-113901368D01*
X86721828Y-113925177D01*
X86745638Y-113972796D01*
X86745638Y-114091844D01*
X86721828Y-114139463D01*
X86698019Y-114163272D01*
X86650400Y-114187082D01*
X86507542Y-114187082D01*
X86459923Y-114163272D01*
X86436114Y-114139463D01*
X87055161Y-113687082D02*
X87102780Y-113687082D01*
X87150400Y-113710892D01*
X87174209Y-113734701D01*
X87198019Y-113782320D01*
X87221828Y-113877558D01*
X87221828Y-113996606D01*
X87198019Y-114091844D01*
X87174209Y-114139463D01*
X87150400Y-114163272D01*
X87102780Y-114187082D01*
X87055161Y-114187082D01*
X87007542Y-114163272D01*
X86983733Y-114139463D01*
X86959923Y-114091844D01*
X86936114Y-113996606D01*
X86936114Y-113877558D01*
X86959923Y-113782320D01*
X86983733Y-113734701D01*
X87007542Y-113710892D01*
X87055161Y-113687082D01*
X87388495Y-113687082D02*
X87721828Y-113687082D01*
X87507542Y-114187082D01*
D19*
X87467200Y-133852402D02*
G75*
G03*
X87467200Y-133852402I0J0D01*
G01*
D20*
X83810000Y-62105000D02*
X83810000Y-56005000D01*
X88910000Y-62105000D02*
X88910000Y-56005000D01*
D21*
X83970800Y-62407800D02*
G75*
G03*
X83970800Y-62407800I-100000J0D01*
G01*
G36*
X86107185Y-47677705D02*
G01*
X86164335Y-47724060D01*
X86202435Y-47808515D01*
X86212913Y-47866618D01*
X86216405Y-47936785D01*
X86211960Y-48008540D01*
X86198625Y-48068865D01*
X86166875Y-48156495D01*
X86036065Y-48132365D01*
X86069085Y-48037750D01*
X86084325Y-47935515D01*
X86076070Y-47847885D01*
X86042415Y-47817405D01*
X86014475Y-47826930D01*
X85994790Y-47853600D01*
X85978915Y-47892970D01*
X85963675Y-47939325D01*
X85940180Y-48009175D01*
X85906525Y-48073945D01*
X85855090Y-48122205D01*
X85776985Y-48141255D01*
X85705230Y-48126650D01*
X85645540Y-48080930D01*
X85604900Y-48001555D01*
X85593946Y-47948533D01*
X85590295Y-47885985D01*
X85592517Y-47829629D01*
X85599185Y-47777400D01*
X85624585Y-47690405D01*
X85756665Y-47714535D01*
X85735710Y-47781845D01*
X85721105Y-47884715D01*
X85735710Y-47965360D01*
X85766825Y-47986315D01*
X85791590Y-47976790D01*
X85811275Y-47951390D01*
X85828420Y-47914560D01*
X85844295Y-47869475D01*
X85869695Y-47798355D01*
X85904620Y-47731680D01*
X85957960Y-47682785D01*
X86037335Y-47663735D01*
X86107185Y-47677705D01*
G37*
G36*
X86208150Y-46452790D02*
G01*
X86216405Y-46530895D01*
X86211960Y-46586934D01*
X86198625Y-46633130D01*
X86147190Y-46699170D01*
X86065275Y-46734095D01*
X86013523Y-46741715D01*
X85954785Y-46744255D01*
X85735075Y-46744255D01*
X85735075Y-46909355D01*
X85605535Y-46909355D01*
X85605535Y-46588045D01*
X85975105Y-46588045D01*
X86054480Y-46568360D01*
X86080515Y-46502955D01*
X86074800Y-46450885D01*
X86051305Y-46382305D01*
X86177035Y-46361985D01*
X86208150Y-46452790D01*
G37*
G36*
X86201800Y-43908980D02*
G01*
X86214659Y-43969781D01*
X86218945Y-44039155D01*
X86207092Y-44141319D01*
X86171532Y-44225986D01*
X86112265Y-44293155D01*
X86053289Y-44331493D01*
X85983043Y-44358877D01*
X85901524Y-44375308D01*
X85808735Y-44380785D01*
X85716342Y-44374117D01*
X85634745Y-44354115D01*
X85564419Y-44322206D01*
X85505840Y-44279820D01*
X85459485Y-44227750D01*
X85425830Y-44166790D01*
X85405351Y-44098369D01*
X85398525Y-44023915D01*
X85405510Y-43948350D01*
X85421385Y-43889295D01*
X85440435Y-43846750D01*
X85455675Y-43820715D01*
X85580135Y-43861355D01*
X85547750Y-43931840D01*
X85534415Y-44026455D01*
X85547750Y-44098210D01*
X85592200Y-44160440D01*
X85675385Y-44204890D01*
X85733805Y-44217749D01*
X85804925Y-44222035D01*
X85887687Y-44216884D01*
X85956478Y-44201433D01*
X86011300Y-44175680D01*
X86065116Y-44114561D01*
X86083055Y-44023915D01*
X86069085Y-43922950D01*
X86041145Y-43858815D01*
X86164335Y-43819445D01*
X86201800Y-43908980D01*
G37*
G36*
X85764285Y-50210085D02*
G01*
X85756665Y-50246280D01*
X85749680Y-50288825D01*
X85745235Y-50330735D01*
X85743965Y-50365025D01*
X85747140Y-50429795D01*
X85759205Y-50494565D01*
X86202435Y-50494565D01*
X86202435Y-50652045D01*
X85644905Y-50652045D01*
X85624267Y-50589021D01*
X85608075Y-50524410D01*
X85597597Y-50453449D01*
X85594105Y-50371375D01*
X85595375Y-50335180D01*
X85599820Y-50285015D01*
X85607440Y-50231040D01*
X85619505Y-50182145D01*
X85764285Y-50210085D01*
G37*
G36*
X86202435Y-45245655D02*
G01*
X86130680Y-45285660D01*
X86051940Y-45338365D01*
X85978280Y-45394880D01*
X85920495Y-45447585D01*
X86202435Y-45447585D01*
X86202435Y-45605065D01*
X85347725Y-45605065D01*
X85321055Y-45447585D01*
X85841755Y-45447585D01*
X85785240Y-45401230D01*
X85723645Y-45355510D01*
X85662050Y-45312965D01*
X85605535Y-45277405D01*
X85605535Y-45089445D01*
X85669035Y-45141515D01*
X85738885Y-45201840D01*
X85807465Y-45264070D01*
X85868425Y-45320585D01*
X85941450Y-45252005D01*
X85984789Y-45215492D01*
X86029715Y-45179615D01*
X86075435Y-45145484D01*
X86121155Y-45114210D01*
X86202435Y-45066585D01*
X86202435Y-45245655D01*
G37*
G36*
X85770635Y-50066575D02*
G01*
X85715866Y-50038635D01*
X85670940Y-50003075D01*
X85635856Y-49960848D01*
X85610615Y-49912905D01*
X85595375Y-49861470D01*
X85590295Y-49808765D01*
X85590567Y-49806225D01*
X85721105Y-49806225D01*
X85731265Y-49858930D01*
X85759205Y-49895760D01*
X85799845Y-49918620D01*
X85846835Y-49929415D01*
X85846835Y-49690655D01*
X85800480Y-49697005D01*
X85760475Y-49717325D01*
X85731900Y-49752885D01*
X85721105Y-49806225D01*
X85590567Y-49806225D01*
X85598973Y-49727767D01*
X85625008Y-49660881D01*
X85668400Y-49608105D01*
X85728443Y-49570005D01*
X85804431Y-49547145D01*
X85896365Y-49539525D01*
X85928115Y-49540160D01*
X85954785Y-49542065D01*
X85954785Y-49929415D01*
X86007014Y-49917350D01*
X86046860Y-49881155D01*
X86072101Y-49825910D01*
X86080515Y-49756695D01*
X86070355Y-49667160D01*
X86050035Y-49595405D01*
X86183385Y-49573815D01*
X86206880Y-49660175D01*
X86216405Y-49763045D01*
X86211484Y-49835276D01*
X86196720Y-49899570D01*
X86172273Y-49955450D01*
X86138300Y-50002440D01*
X86094961Y-50040064D01*
X86042415Y-50067845D01*
X85980503Y-50084990D01*
X85909065Y-50090705D01*
X85835088Y-50084673D01*
X85770635Y-50066575D01*
G37*
G36*
X85506475Y-46623605D02*
G01*
X85533145Y-46693455D01*
X85506475Y-46762670D01*
X85434085Y-46791245D01*
X85360425Y-46762670D01*
X85333755Y-46693455D01*
X85360425Y-46623605D01*
X85434085Y-46594395D01*
X85506475Y-46623605D01*
G37*
G36*
X86187195Y-44652565D02*
G01*
X86216405Y-44731305D01*
X86208785Y-44774485D01*
X86186560Y-44810680D01*
X86151000Y-44836080D01*
X86102105Y-44845605D01*
X86054480Y-44836080D01*
X86019555Y-44810680D01*
X85997965Y-44774485D01*
X85990345Y-44731305D01*
X86019555Y-44652565D01*
X86102105Y-44618275D01*
X86187195Y-44652565D01*
G37*
G36*
X86202435Y-43606085D02*
G01*
X86202435Y-43768645D01*
X86111122Y-43746242D01*
X86023111Y-43723738D01*
X85938402Y-43701132D01*
X85856995Y-43678424D01*
X85778890Y-43655615D01*
X85684553Y-43627278D01*
X85592676Y-43599417D01*
X85503260Y-43572033D01*
X85416305Y-43545125D01*
X85416305Y-43463845D01*
X85568705Y-43463845D01*
X85653160Y-43487340D01*
X85731900Y-43507660D01*
X85810005Y-43525440D01*
X85891285Y-43541315D01*
X85891285Y-43387645D01*
X85810005Y-43402885D01*
X85731900Y-43420030D01*
X85653160Y-43440350D01*
X85568705Y-43463845D01*
X85416305Y-43463845D01*
X85416305Y-43374945D01*
X85503975Y-43347045D01*
X85594264Y-43319224D01*
X85687172Y-43291482D01*
X85782700Y-43263820D01*
X85861465Y-43241849D01*
X85942822Y-43220132D01*
X86026769Y-43198669D01*
X86113306Y-43177460D01*
X86202435Y-43156505D01*
X86202435Y-43324145D01*
X86020825Y-43360975D01*
X86020825Y-43570525D01*
X86202435Y-43606085D01*
G37*
G36*
X86083690Y-50828575D02*
G01*
X86159890Y-50893980D01*
X86184338Y-50939065D01*
X86200530Y-50991770D01*
X86209579Y-51050349D01*
X86212595Y-51113055D01*
X86211166Y-51166078D01*
X86206880Y-51221005D01*
X86199736Y-51276568D01*
X86189735Y-51331495D01*
X85426465Y-51331495D01*
X85413130Y-51233705D01*
X85407415Y-51128295D01*
X85408793Y-51104165D01*
X85543305Y-51104165D01*
X85544575Y-51140995D01*
X85548385Y-51175285D01*
X85728725Y-51175285D01*
X85858265Y-51175285D01*
X86071625Y-51175285D01*
X86075435Y-51139090D01*
X86076705Y-51100355D01*
X86072260Y-51048285D01*
X86055750Y-51003200D01*
X86021460Y-50970815D01*
X85964945Y-50958115D01*
X85883030Y-50994310D01*
X85858265Y-51091465D01*
X85858265Y-51175285D01*
X85728725Y-51175285D01*
X85728725Y-51114325D01*
X85702690Y-51024155D01*
X85630935Y-50993675D01*
X85585850Y-51002565D01*
X85559180Y-51026695D01*
X85546480Y-51062255D01*
X85543305Y-51104165D01*
X85408793Y-51104165D01*
X85412019Y-51047650D01*
X85425830Y-50983515D01*
X85474090Y-50895885D01*
X85540765Y-50852705D01*
X85614425Y-50841275D01*
X85667130Y-50848101D01*
X85713485Y-50868580D01*
X85782065Y-50941605D01*
X85816355Y-50874454D01*
X85860805Y-50833020D01*
X85911605Y-50811589D01*
X85964945Y-50804445D01*
X86030191Y-50810478D01*
X86083690Y-50828575D01*
G37*
G36*
X85844295Y-49084865D02*
G01*
X85825245Y-49084865D01*
X85750950Y-49112805D01*
X85728566Y-49150905D01*
X85721105Y-49209325D01*
X85727455Y-49295050D01*
X85742695Y-49361725D01*
X85616965Y-49383315D01*
X85598550Y-49300765D01*
X85592359Y-49246473D01*
X85590295Y-49190275D01*
X85594581Y-49122806D01*
X85607440Y-49067720D01*
X85655700Y-48989615D01*
X85731900Y-48947705D01*
X85832865Y-48935005D01*
X86188465Y-48935005D01*
X86206245Y-49036605D01*
X86213865Y-49108043D01*
X86216405Y-49187735D01*
X86206245Y-49291240D01*
X86172590Y-49370615D01*
X86111630Y-49421415D01*
X86019555Y-49439195D01*
X85931925Y-49418875D01*
X85874775Y-49364265D01*
X85843660Y-49285525D01*
X85834135Y-49192815D01*
X85835538Y-49161065D01*
X85943355Y-49161065D01*
X85946530Y-49208055D01*
X85957325Y-49248060D01*
X85978915Y-49275365D01*
X86015745Y-49285525D01*
X86073530Y-49255045D01*
X86090675Y-49176305D01*
X86090040Y-49126775D01*
X86086865Y-49084865D01*
X85949705Y-49084865D01*
X85945260Y-49121695D01*
X85943355Y-49161065D01*
X85835538Y-49161065D01*
X85836675Y-49135348D01*
X85844295Y-49084865D01*
G37*
G36*
X86208785Y-47083980D02*
G01*
X86216405Y-47181135D01*
X86207515Y-47277655D01*
X86173225Y-47348775D01*
X86101470Y-47393225D01*
X86047971Y-47404655D01*
X85980185Y-47408465D01*
X85735075Y-47408465D01*
X85735075Y-47544355D01*
X85605535Y-47544355D01*
X85605535Y-47408465D01*
X85455675Y-47408465D01*
X85430275Y-47252255D01*
X85605535Y-47252255D01*
X85605535Y-47002065D01*
X85735075Y-47002065D01*
X85735075Y-47252255D01*
X85976375Y-47252255D01*
X86029715Y-47245905D01*
X86061465Y-47228125D01*
X86076705Y-47200185D01*
X86080515Y-47163355D01*
X86079245Y-47123350D01*
X86074800Y-47087790D01*
X86065275Y-47052230D01*
X86048765Y-47012225D01*
X86183385Y-46990635D01*
X86208785Y-47083980D01*
G37*
G36*
X86208150Y-45808265D02*
G01*
X86214341Y-45859382D01*
X86216405Y-45918755D01*
X86210373Y-46003686D01*
X86192275Y-46075600D01*
X86163700Y-46135131D01*
X86126235Y-46182915D01*
X86080515Y-46219269D01*
X86027175Y-46244510D01*
X85967803Y-46259274D01*
X85903985Y-46264195D01*
X85841120Y-46259115D01*
X85782065Y-46243875D01*
X85728566Y-46218157D01*
X85682370Y-46181645D01*
X85644270Y-46134179D01*
X85615060Y-46075600D01*
X85596486Y-46005274D01*
X85590295Y-45922565D01*
X85597915Y-45826045D01*
X85623315Y-45738415D01*
X85749045Y-45772705D01*
X85733170Y-45829220D01*
X85726185Y-45908595D01*
X85739520Y-46001940D01*
X85776350Y-46062265D01*
X85832865Y-46095285D01*
X85903985Y-46105445D01*
X85977645Y-46093856D01*
X86033525Y-46059090D01*
X86068768Y-45996384D01*
X86080515Y-45900975D01*
X86075435Y-45824140D01*
X86058925Y-45751115D01*
X86187195Y-45728255D01*
X86208150Y-45808265D01*
G37*
G36*
X86197355Y-48361918D02*
G01*
X86207515Y-48419385D01*
X86214183Y-48480980D01*
X86216405Y-48541305D01*
X86207233Y-48626889D01*
X86179716Y-48697374D01*
X86133855Y-48752760D01*
X86072048Y-48792624D01*
X85996695Y-48816542D01*
X85907795Y-48824515D01*
X85817272Y-48817812D01*
X85740437Y-48797704D01*
X85677290Y-48764190D01*
X85630371Y-48717553D01*
X85602219Y-48658074D01*
X85592835Y-48585755D01*
X85595829Y-48559085D01*
X85727455Y-48559085D01*
X85738567Y-48607345D01*
X85771905Y-48640365D01*
X85826198Y-48659415D01*
X85900175Y-48665765D01*
X85972883Y-48658304D01*
X86030985Y-48635920D01*
X86069085Y-48597026D01*
X86081785Y-48540035D01*
X86080515Y-48504475D01*
X86076705Y-48470185D01*
X85751585Y-48470185D01*
X85734440Y-48510825D01*
X85727455Y-48559085D01*
X85595829Y-48559085D01*
X85599820Y-48523525D01*
X85619505Y-48470185D01*
X85347725Y-48470185D01*
X85321055Y-48313975D01*
X86184655Y-48313975D01*
X86197355Y-48361918D01*
G37*
D19*
X81318100Y-55524400D02*
X81318100Y-58775600D01*
X83781900Y-58775600D02*
X83781900Y-55524400D01*
X87467200Y-171400222D02*
G75*
G03*
X87467200Y-171400222I0J0D01*
G01*
X87467200Y-167645440D02*
G75*
G03*
X87467200Y-167645440I0J0D01*
G01*
G36*
X84583820Y-47853600D02*
G01*
X84608585Y-47903765D01*
X84583820Y-47955835D01*
X84524765Y-47974885D01*
X84465075Y-47955835D01*
X84439675Y-47903765D01*
X84465075Y-47853600D01*
X84524765Y-47833915D01*
X84583820Y-47853600D01*
G37*
G36*
X84236475Y-42176065D02*
G01*
X84263145Y-42245915D01*
X84236475Y-42315130D01*
X84164085Y-42343705D01*
X84090425Y-42315130D01*
X84063755Y-42245915D01*
X84090425Y-42176065D01*
X84164085Y-42146855D01*
X84236475Y-42176065D01*
G37*
G36*
X84938785Y-42636440D02*
G01*
X84946405Y-42733595D01*
X84937515Y-42830115D01*
X84903225Y-42901235D01*
X84831470Y-42945685D01*
X84777971Y-42957115D01*
X84710185Y-42960925D01*
X84465075Y-42960925D01*
X84465075Y-43096815D01*
X84335535Y-43096815D01*
X84335535Y-42960925D01*
X84185675Y-42960925D01*
X84160275Y-42804715D01*
X84335535Y-42804715D01*
X84335535Y-42554525D01*
X84465075Y-42554525D01*
X84465075Y-42804715D01*
X84706375Y-42804715D01*
X84759715Y-42798365D01*
X84791465Y-42780585D01*
X84806705Y-42752645D01*
X84810515Y-42715815D01*
X84809245Y-42675810D01*
X84804800Y-42640250D01*
X84795275Y-42604690D01*
X84778765Y-42564685D01*
X84913385Y-42543095D01*
X84938785Y-42636440D01*
G37*
G36*
X84813690Y-46381035D02*
G01*
X84889890Y-46446440D01*
X84914338Y-46491525D01*
X84930530Y-46544230D01*
X84939579Y-46602809D01*
X84942595Y-46665515D01*
X84941166Y-46718538D01*
X84936880Y-46773465D01*
X84929736Y-46829028D01*
X84919735Y-46883955D01*
X84156465Y-46883955D01*
X84143130Y-46786165D01*
X84137415Y-46680755D01*
X84138793Y-46656625D01*
X84273305Y-46656625D01*
X84274575Y-46693455D01*
X84278385Y-46727745D01*
X84458725Y-46727745D01*
X84588265Y-46727745D01*
X84801625Y-46727745D01*
X84805435Y-46691550D01*
X84806705Y-46652815D01*
X84802260Y-46600745D01*
X84785750Y-46555660D01*
X84751460Y-46523275D01*
X84694945Y-46510575D01*
X84613030Y-46546770D01*
X84588265Y-46643925D01*
X84588265Y-46727745D01*
X84458725Y-46727745D01*
X84458725Y-46666785D01*
X84432690Y-46576615D01*
X84360935Y-46546135D01*
X84315850Y-46555025D01*
X84289180Y-46579155D01*
X84276480Y-46614715D01*
X84273305Y-46656625D01*
X84138793Y-46656625D01*
X84142019Y-46600110D01*
X84155830Y-46535975D01*
X84204090Y-46448345D01*
X84270765Y-46405165D01*
X84344425Y-46393735D01*
X84397130Y-46400561D01*
X84443485Y-46421040D01*
X84512065Y-46494065D01*
X84546355Y-46426914D01*
X84590805Y-46385480D01*
X84641605Y-46364049D01*
X84694945Y-46356905D01*
X84760191Y-46362938D01*
X84813690Y-46381035D01*
G37*
G36*
X84164791Y-50308157D02*
G01*
X84199010Y-50245645D01*
X84248752Y-50199784D01*
X84315850Y-50172267D01*
X84400305Y-50163095D01*
X84485607Y-50172338D01*
X84553552Y-50200066D01*
X84604140Y-50246280D01*
X84639065Y-50309427D01*
X84660020Y-50387956D01*
X84667005Y-50481865D01*
X84667005Y-50537745D01*
X84932435Y-50537745D01*
X84932435Y-50693955D01*
X84156465Y-50693955D01*
X84147575Y-50642520D01*
X84141860Y-50584735D01*
X84138685Y-50527585D01*
X84137415Y-50478055D01*
X84138732Y-50460275D01*
X84273305Y-50460275D01*
X84273940Y-50499010D01*
X84277115Y-50537745D01*
X84531115Y-50537745D01*
X84531115Y-50474245D01*
X84523654Y-50408523D01*
X84501270Y-50361215D01*
X84460789Y-50332640D01*
X84399035Y-50323115D01*
X84340456Y-50332481D01*
X84301880Y-50360580D01*
X84280449Y-50404236D01*
X84273305Y-50460275D01*
X84138732Y-50460275D01*
X84144259Y-50385627D01*
X84164791Y-50308157D01*
G37*
G36*
X84683515Y-47444025D02*
G01*
X84529845Y-47444025D01*
X84529845Y-47096045D01*
X84683515Y-47096045D01*
X84683515Y-47444025D01*
G37*
G36*
X84932435Y-40798115D02*
G01*
X84860680Y-40838120D01*
X84781940Y-40890825D01*
X84708280Y-40947340D01*
X84650495Y-41000045D01*
X84932435Y-41000045D01*
X84932435Y-41157525D01*
X84077725Y-41157525D01*
X84051055Y-41000045D01*
X84571755Y-41000045D01*
X84515240Y-40953690D01*
X84453645Y-40907970D01*
X84392050Y-40865425D01*
X84335535Y-40829865D01*
X84335535Y-40641905D01*
X84399035Y-40693975D01*
X84468885Y-40754300D01*
X84537465Y-40816530D01*
X84598425Y-40873045D01*
X84671450Y-40804465D01*
X84714789Y-40767952D01*
X84759715Y-40732075D01*
X84805435Y-40697944D01*
X84851155Y-40666670D01*
X84932435Y-40619045D01*
X84932435Y-40798115D01*
G37*
G36*
X84719075Y-47649448D02*
G01*
X84789878Y-47671276D01*
X84847345Y-47701835D01*
X84903789Y-47755457D01*
X84937656Y-47823191D01*
X84948945Y-47905035D01*
X84937656Y-47986879D01*
X84903789Y-48054613D01*
X84847345Y-48108235D01*
X84789878Y-48138794D01*
X84719075Y-48160623D01*
X84634938Y-48173719D01*
X84537465Y-48178085D01*
X84441104Y-48173640D01*
X84357760Y-48160305D01*
X84287434Y-48138080D01*
X84230125Y-48106965D01*
X84173681Y-48052919D01*
X84139814Y-47985609D01*
X84128525Y-47905035D01*
X84261875Y-47905035D01*
X84279496Y-47961233D01*
X84332360Y-48002825D01*
X84386476Y-48021875D01*
X84454844Y-48033305D01*
X84537465Y-48037115D01*
X84620791Y-48033305D01*
X84689583Y-48021875D01*
X84743840Y-48002825D01*
X84796704Y-47961233D01*
X84814325Y-47905035D01*
X84796704Y-47848044D01*
X84743840Y-47806610D01*
X84689583Y-47787913D01*
X84620791Y-47776694D01*
X84537465Y-47772955D01*
X84454844Y-47776694D01*
X84386476Y-47787913D01*
X84332360Y-47806610D01*
X84279496Y-47848044D01*
X84261875Y-47905035D01*
X84128525Y-47905035D01*
X84139743Y-47823191D01*
X84173398Y-47755457D01*
X84229490Y-47701835D01*
X84286600Y-47671276D01*
X84356966Y-47649448D01*
X84440588Y-47636351D01*
X84537465Y-47631985D01*
X84634938Y-47636351D01*
X84719075Y-47649448D01*
G37*
G36*
X84719075Y-48919448D02*
G01*
X84789878Y-48941276D01*
X84847345Y-48971835D01*
X84903789Y-49025457D01*
X84937656Y-49093191D01*
X84948945Y-49175035D01*
X84937656Y-49256879D01*
X84903789Y-49324613D01*
X84847345Y-49378235D01*
X84789878Y-49408794D01*
X84719075Y-49430623D01*
X84634938Y-49443719D01*
X84537465Y-49448085D01*
X84441104Y-49443640D01*
X84357760Y-49430305D01*
X84287434Y-49408080D01*
X84230125Y-49376965D01*
X84173681Y-49322919D01*
X84139814Y-49255609D01*
X84128525Y-49175035D01*
X84261875Y-49175035D01*
X84279496Y-49231233D01*
X84332360Y-49272825D01*
X84386476Y-49291875D01*
X84454844Y-49303305D01*
X84537465Y-49307115D01*
X84620791Y-49303305D01*
X84689583Y-49291875D01*
X84743840Y-49272825D01*
X84796704Y-49231233D01*
X84814325Y-49175035D01*
X84796704Y-49118044D01*
X84743840Y-49076610D01*
X84689583Y-49057913D01*
X84620791Y-49046694D01*
X84537465Y-49042955D01*
X84454844Y-49046694D01*
X84386476Y-49057913D01*
X84332360Y-49076610D01*
X84279496Y-49118044D01*
X84261875Y-49175035D01*
X84128525Y-49175035D01*
X84139743Y-49093191D01*
X84173398Y-49025457D01*
X84229490Y-48971835D01*
X84286600Y-48941276D01*
X84356966Y-48919448D01*
X84440588Y-48906351D01*
X84537465Y-48901985D01*
X84634938Y-48906351D01*
X84719075Y-48919448D01*
G37*
G36*
X84574295Y-44637325D02*
G01*
X84555245Y-44637325D01*
X84480950Y-44665265D01*
X84458566Y-44703365D01*
X84451105Y-44761785D01*
X84457455Y-44847510D01*
X84472695Y-44914185D01*
X84346965Y-44935775D01*
X84328550Y-44853225D01*
X84322359Y-44798932D01*
X84320295Y-44742735D01*
X84324581Y-44675266D01*
X84337440Y-44620180D01*
X84385700Y-44542075D01*
X84461900Y-44500165D01*
X84562865Y-44487465D01*
X84918465Y-44487465D01*
X84936245Y-44589065D01*
X84943865Y-44660502D01*
X84946405Y-44740195D01*
X84936245Y-44843700D01*
X84902590Y-44923075D01*
X84841630Y-44973875D01*
X84749555Y-44991655D01*
X84661925Y-44971335D01*
X84604775Y-44916725D01*
X84573660Y-44837985D01*
X84564135Y-44745275D01*
X84565538Y-44713525D01*
X84673355Y-44713525D01*
X84676530Y-44760515D01*
X84687325Y-44800520D01*
X84708915Y-44827825D01*
X84745745Y-44837985D01*
X84803530Y-44807505D01*
X84820675Y-44728765D01*
X84820040Y-44679235D01*
X84816865Y-44637325D01*
X84679705Y-44637325D01*
X84675260Y-44674155D01*
X84673355Y-44713525D01*
X84565538Y-44713525D01*
X84566675Y-44687807D01*
X84574295Y-44637325D01*
G37*
G36*
X84152655Y-51003835D02*
G01*
X84172022Y-50953035D01*
X84199645Y-50909855D01*
X84280290Y-50849530D01*
X84333471Y-50833814D01*
X84395225Y-50828575D01*
X84460630Y-50835560D01*
X84519685Y-50856515D01*
X84568898Y-50893663D01*
X84604775Y-50949225D01*
X84677800Y-50903505D01*
X84761620Y-50856515D01*
X84849250Y-50812700D01*
X84932435Y-50776505D01*
X84932435Y-50940335D01*
X84857664Y-50971926D01*
X84785750Y-51008280D01*
X84714789Y-51048444D01*
X84642875Y-51091465D01*
X84642875Y-51172745D01*
X84932435Y-51172745D01*
X84932435Y-51328955D01*
X84157735Y-51328955D01*
X84148210Y-51278790D01*
X84141860Y-51223545D01*
X84138685Y-51170205D01*
X84137415Y-51125755D01*
X84273305Y-51125755D01*
X84273940Y-51147345D01*
X84277115Y-51172745D01*
X84513335Y-51172745D01*
X84513335Y-51138455D01*
X84505556Y-51069558D01*
X84482220Y-51022885D01*
X84393955Y-50987325D01*
X84339980Y-50996850D01*
X84302515Y-51025425D01*
X84280607Y-51069558D01*
X84273305Y-51125755D01*
X84137415Y-51125755D01*
X84141225Y-51061620D01*
X84152655Y-51003835D01*
G37*
G36*
X84494285Y-45762545D02*
G01*
X84486665Y-45798740D01*
X84479680Y-45841285D01*
X84475235Y-45883195D01*
X84473965Y-45917485D01*
X84477140Y-45982255D01*
X84489205Y-46047025D01*
X84932435Y-46047025D01*
X84932435Y-46204505D01*
X84374905Y-46204505D01*
X84354267Y-46141481D01*
X84338075Y-46076870D01*
X84327597Y-46005909D01*
X84324105Y-45923835D01*
X84325375Y-45887640D01*
X84329820Y-45837475D01*
X84337440Y-45783500D01*
X84349505Y-45734605D01*
X84494285Y-45762545D01*
G37*
G36*
X84747015Y-48339375D02*
G01*
X84932435Y-48339375D01*
X84932435Y-48495585D01*
X84747015Y-48495585D01*
X84747015Y-48823245D01*
X84632715Y-48823245D01*
X84579851Y-48795623D01*
X84520320Y-48761015D01*
X84456661Y-48721010D01*
X84391415Y-48677195D01*
X84325851Y-48630205D01*
X84261240Y-48580675D01*
X84200439Y-48529875D01*
X84163899Y-48495585D01*
X84341885Y-48495585D01*
X84404115Y-48542575D01*
X84473330Y-48590200D01*
X84546355Y-48635285D01*
X84618745Y-48673385D01*
X84618745Y-48495585D01*
X84341885Y-48495585D01*
X84163899Y-48495585D01*
X84146305Y-48479075D01*
X84146305Y-48339375D01*
X84618745Y-48339375D01*
X84618745Y-48254285D01*
X84747015Y-48254285D01*
X84747015Y-48339375D01*
G37*
G36*
X84938150Y-41360725D02*
G01*
X84944341Y-41411842D01*
X84946405Y-41471215D01*
X84940373Y-41556146D01*
X84922275Y-41628060D01*
X84893700Y-41687591D01*
X84856235Y-41735375D01*
X84810515Y-41771729D01*
X84757175Y-41796970D01*
X84697803Y-41811734D01*
X84633985Y-41816655D01*
X84571120Y-41811575D01*
X84512065Y-41796335D01*
X84458566Y-41770617D01*
X84412370Y-41734105D01*
X84374270Y-41686639D01*
X84345060Y-41628060D01*
X84326486Y-41557734D01*
X84320295Y-41475025D01*
X84327915Y-41378505D01*
X84353315Y-41290875D01*
X84479045Y-41325165D01*
X84463170Y-41381680D01*
X84456185Y-41461055D01*
X84469520Y-41554400D01*
X84506350Y-41614725D01*
X84562865Y-41647745D01*
X84633985Y-41657905D01*
X84707645Y-41646316D01*
X84763525Y-41611550D01*
X84798768Y-41548844D01*
X84810515Y-41453435D01*
X84805435Y-41376600D01*
X84788925Y-41303575D01*
X84917195Y-41280715D01*
X84938150Y-41360725D01*
G37*
G36*
X84500635Y-45619035D02*
G01*
X84445866Y-45591095D01*
X84400940Y-45555535D01*
X84365856Y-45513307D01*
X84340615Y-45465365D01*
X84325375Y-45413930D01*
X84320295Y-45361225D01*
X84320567Y-45358685D01*
X84451105Y-45358685D01*
X84461265Y-45411390D01*
X84489205Y-45448220D01*
X84529845Y-45471080D01*
X84576835Y-45481875D01*
X84576835Y-45243115D01*
X84530480Y-45249465D01*
X84490475Y-45269785D01*
X84461900Y-45305345D01*
X84451105Y-45358685D01*
X84320567Y-45358685D01*
X84328973Y-45280227D01*
X84355008Y-45213341D01*
X84398400Y-45160565D01*
X84458443Y-45122465D01*
X84534431Y-45099605D01*
X84626365Y-45091985D01*
X84658115Y-45092620D01*
X84684785Y-45094525D01*
X84684785Y-45481875D01*
X84737014Y-45469810D01*
X84776860Y-45433615D01*
X84802101Y-45378370D01*
X84810515Y-45309155D01*
X84800355Y-45219620D01*
X84780035Y-45147865D01*
X84913385Y-45126275D01*
X84936880Y-45212635D01*
X84946405Y-45315505D01*
X84941484Y-45387736D01*
X84926720Y-45452030D01*
X84902273Y-45507910D01*
X84868300Y-45554900D01*
X84824961Y-45592524D01*
X84772415Y-45620305D01*
X84710503Y-45637450D01*
X84639065Y-45643165D01*
X84565088Y-45637132D01*
X84500635Y-45619035D01*
G37*
G36*
X84583820Y-49123600D02*
G01*
X84608585Y-49173765D01*
X84583820Y-49225835D01*
X84524765Y-49244885D01*
X84465075Y-49225835D01*
X84439675Y-49173765D01*
X84465075Y-49123600D01*
X84524765Y-49103915D01*
X84583820Y-49123600D01*
G37*
G36*
X84927355Y-43914377D02*
G01*
X84937515Y-43971845D01*
X84944183Y-44033440D01*
X84946405Y-44093765D01*
X84937233Y-44179349D01*
X84909716Y-44249834D01*
X84863855Y-44305220D01*
X84802048Y-44345084D01*
X84726695Y-44369002D01*
X84637795Y-44376975D01*
X84547272Y-44370272D01*
X84470437Y-44350164D01*
X84407290Y-44316650D01*
X84360371Y-44270013D01*
X84332219Y-44210534D01*
X84322835Y-44138215D01*
X84325829Y-44111545D01*
X84457455Y-44111545D01*
X84468567Y-44159805D01*
X84501905Y-44192825D01*
X84556198Y-44211875D01*
X84630175Y-44218225D01*
X84702883Y-44210764D01*
X84760985Y-44188380D01*
X84799085Y-44149486D01*
X84811785Y-44092495D01*
X84810515Y-44056935D01*
X84806705Y-44022645D01*
X84481585Y-44022645D01*
X84464440Y-44063285D01*
X84457455Y-44111545D01*
X84325829Y-44111545D01*
X84329820Y-44075985D01*
X84349505Y-44022645D01*
X84077725Y-44022645D01*
X84051055Y-43866435D01*
X84914655Y-43866435D01*
X84927355Y-43914377D01*
G37*
G36*
X84938150Y-42005250D02*
G01*
X84946405Y-42083355D01*
X84941960Y-42139394D01*
X84928625Y-42185590D01*
X84877190Y-42251630D01*
X84795275Y-42286555D01*
X84743523Y-42294175D01*
X84684785Y-42296715D01*
X84465075Y-42296715D01*
X84465075Y-42461815D01*
X84335535Y-42461815D01*
X84335535Y-42140505D01*
X84705105Y-42140505D01*
X84784480Y-42120820D01*
X84810515Y-42055415D01*
X84804800Y-42003345D01*
X84781305Y-41934765D01*
X84907035Y-41914445D01*
X84938150Y-42005250D01*
G37*
G36*
X84932435Y-50053875D02*
G01*
X84900685Y-50057050D01*
X84874015Y-50056415D01*
X84813055Y-50050541D01*
X84757175Y-50032920D01*
X84705899Y-50006250D01*
X84658750Y-49973230D01*
X84615253Y-49935765D01*
X84574930Y-49895760D01*
X84536989Y-49855755D01*
X84500635Y-49818290D01*
X84432055Y-49758600D01*
X84364745Y-49735105D01*
X84290450Y-49764315D01*
X84264415Y-49837975D01*
X84282195Y-49915445D01*
X84341885Y-49995455D01*
X84232665Y-50072925D01*
X84186310Y-50018156D01*
X84153925Y-49955450D01*
X84134875Y-49888934D01*
X84128525Y-49822735D01*
X84142495Y-49730025D01*
X84184405Y-49651285D01*
X84254890Y-49596675D01*
X84353315Y-49576355D01*
X84431420Y-49591595D01*
X84504445Y-49632235D01*
X84573025Y-49689385D01*
X84636525Y-49754155D01*
X84672720Y-49792255D01*
X84715900Y-49832895D01*
X84760985Y-49865280D01*
X84802895Y-49878615D01*
X84802895Y-49540795D01*
X84932435Y-49540795D01*
X84932435Y-50053875D01*
G37*
G36*
X84837185Y-43230165D02*
G01*
X84894335Y-43276520D01*
X84932435Y-43360975D01*
X84942913Y-43419077D01*
X84946405Y-43489245D01*
X84941960Y-43561000D01*
X84928625Y-43621325D01*
X84896875Y-43708955D01*
X84766065Y-43684825D01*
X84799085Y-43590210D01*
X84814325Y-43487975D01*
X84806070Y-43400345D01*
X84772415Y-43369865D01*
X84744475Y-43379390D01*
X84724790Y-43406060D01*
X84708915Y-43445430D01*
X84693675Y-43491785D01*
X84670180Y-43561635D01*
X84636525Y-43626405D01*
X84585090Y-43674665D01*
X84506985Y-43693715D01*
X84435230Y-43679110D01*
X84375540Y-43633390D01*
X84334900Y-43554015D01*
X84323946Y-43500992D01*
X84320295Y-43438445D01*
X84322517Y-43382089D01*
X84329185Y-43329860D01*
X84354585Y-43242865D01*
X84486665Y-43266995D01*
X84465710Y-43334305D01*
X84451105Y-43437175D01*
X84465710Y-43517820D01*
X84496825Y-43538775D01*
X84521590Y-43529250D01*
X84541275Y-43503850D01*
X84558420Y-43467020D01*
X84574295Y-43421935D01*
X84599695Y-43350815D01*
X84634620Y-43284140D01*
X84687960Y-43235245D01*
X84767335Y-43216195D01*
X84837185Y-43230165D01*
G37*
X87467200Y-156381094D02*
G75*
G03*
X87467200Y-156381094I0J0D01*
G01*
X83781900Y-43535600D02*
X83781900Y-40284400D01*
X81318100Y-40284400D02*
X81318100Y-43535600D01*
X87467200Y-96304582D02*
G75*
G03*
X87467200Y-96304582I0J0D01*
G01*
X87467200Y-152626312D02*
G75*
G03*
X87467200Y-152626312I0J0D01*
G01*
D20*
X87910000Y-74900000D02*
X87510000Y-74900000D01*
X85210000Y-74900000D02*
X84810000Y-74900000D01*
X84810000Y-77500000D02*
X85210000Y-77500000D01*
X87910000Y-77500000D02*
X87510000Y-77500000D01*
D15*
X84310000Y-75200000D02*
G75*
G03*
X84310000Y-75200000I-50000J0D01*
G01*
D19*
X87467200Y-148871530D02*
G75*
G03*
X87467200Y-148871530I0J0D01*
G01*
X87467200Y-122588056D02*
G75*
G03*
X87467200Y-122588056I0J0D01*
G01*
X87467200Y-160135876D02*
G75*
G03*
X87467200Y-160135876I0J0D01*
G01*
X87467200Y-100059364D02*
G75*
G03*
X87467200Y-100059364I0J0D01*
G01*
X87467200Y-163890658D02*
G75*
G03*
X87467200Y-163890658I0J0D01*
G01*
G36*
X90147140Y-50304700D02*
G01*
X90309700Y-50355500D01*
X90462100Y-50434240D01*
X90838020Y-50126900D01*
X91097100Y-50385980D01*
X90789760Y-50761900D01*
X90868500Y-50914300D01*
X90347800Y-51130200D01*
X90291920Y-51031140D01*
X90215720Y-50949860D01*
X90121740Y-50888900D01*
X90015060Y-50850800D01*
X89905840Y-50840640D01*
X89796620Y-50855880D01*
X89692480Y-50899060D01*
X89601040Y-50962560D01*
X89527380Y-51048920D01*
X89476580Y-51147980D01*
X89451180Y-51257200D01*
X89453720Y-51368960D01*
X89481660Y-51475640D01*
X89532460Y-51574700D01*
X89608660Y-51658520D01*
X89700100Y-51722020D01*
X89806780Y-51762660D01*
X89916000Y-51775360D01*
X90025220Y-51762660D01*
X90126820Y-51724560D01*
X90218260Y-51663600D01*
X90294460Y-51582320D01*
X90347800Y-51485800D01*
X90868500Y-51701700D01*
X90789760Y-51854100D01*
X91097100Y-52230020D01*
X90838020Y-52489100D01*
X90462100Y-52181760D01*
X90309700Y-52260500D01*
X90147140Y-52311300D01*
X90096340Y-52796440D01*
X89735660Y-52796440D01*
X89684860Y-52311300D01*
X89522300Y-52260500D01*
X89369900Y-52181760D01*
X88993980Y-52489100D01*
X88734900Y-52230020D01*
X89042240Y-51854100D01*
X88963500Y-51701700D01*
X88912700Y-51539140D01*
X88427560Y-51488340D01*
X88427560Y-51127660D01*
X88912700Y-51076860D01*
X88963500Y-50914300D01*
X89042240Y-50761900D01*
X88734900Y-50385980D01*
X88993980Y-50126900D01*
X89369900Y-50434240D01*
X89522300Y-50355500D01*
X89684860Y-50304700D01*
X89735660Y-49819560D01*
X90096340Y-49819560D01*
X90147140Y-50304700D01*
G37*
D22*
X90147140Y-50304700D02*
X90309700Y-50355500D01*
X90462100Y-50434240D01*
X90838020Y-50126900D01*
X91097100Y-50385980D01*
X90789760Y-50761900D01*
X90868500Y-50914300D01*
X90347800Y-51130200D01*
X90291920Y-51031140D01*
X90215720Y-50949860D01*
X90121740Y-50888900D01*
X90015060Y-50850800D01*
X89905840Y-50840640D01*
X89796620Y-50855880D01*
X89692480Y-50899060D01*
X89601040Y-50962560D01*
X89527380Y-51048920D01*
X89476580Y-51147980D01*
X89451180Y-51257200D01*
X89453720Y-51368960D01*
X89481660Y-51475640D01*
X89532460Y-51574700D01*
X89608660Y-51658520D01*
X89700100Y-51722020D01*
X89806780Y-51762660D01*
X89916000Y-51775360D01*
X90025220Y-51762660D01*
X90126820Y-51724560D01*
X90218260Y-51663600D01*
X90294460Y-51582320D01*
X90347800Y-51485800D01*
X90868500Y-51701700D01*
X90789760Y-51854100D01*
X91097100Y-52230020D01*
X90838020Y-52489100D01*
X90462100Y-52181760D01*
X90309700Y-52260500D01*
X90147140Y-52311300D01*
X90096340Y-52796440D01*
X89735660Y-52796440D01*
X89684860Y-52311300D01*
X89522300Y-52260500D01*
X89369900Y-52181760D01*
X88993980Y-52489100D01*
X88734900Y-52230020D01*
X89042240Y-51854100D01*
X88963500Y-51701700D01*
X88912700Y-51539140D01*
X88427560Y-51488340D01*
X88427560Y-51127660D01*
X88912700Y-51076860D01*
X88963500Y-50914300D01*
X89042240Y-50761900D01*
X88734900Y-50385980D01*
X88993980Y-50126900D01*
X89369900Y-50434240D01*
X89522300Y-50355500D01*
X89684860Y-50304700D01*
X89735660Y-49819560D01*
X90096340Y-49819560D01*
X90147140Y-50304700D01*
D19*
X87467200Y-130097620D02*
G75*
G03*
X87467200Y-130097620I0J0D01*
G01*
X87467200Y-175155004D02*
G75*
G03*
X87467200Y-175155004I0J0D01*
G01*
X87467211Y-111323704D02*
G75*
G03*
X87467211Y-111323704I0J0D01*
G01*
X87467200Y-178909786D02*
G75*
G03*
X87467200Y-178909786I0J0D01*
G01*
X87467200Y-141361966D02*
G75*
G03*
X87467200Y-141361966I0J0D01*
G01*
X87467211Y-107568924D02*
G75*
G03*
X87467211Y-107568924I0J0D01*
G01*
D20*
X87824000Y-25256400D02*
X87824000Y-26356400D01*
X84896000Y-26356400D02*
X84896000Y-25256400D01*
D23*
X87630000Y-24706400D02*
G75*
G03*
X87630000Y-24706400I-70000J0D01*
G01*
D19*
X87467200Y-145116748D02*
G75*
G03*
X87467200Y-145116748I0J0D01*
G01*
X87467200Y-137607184D02*
G75*
G03*
X87467200Y-137607184I0J0D01*
G01*
G36*
X88084660Y-41549320D02*
G01*
X88109425Y-41599485D01*
X88084660Y-41651555D01*
X88025605Y-41670605D01*
X87965915Y-41651555D01*
X87940515Y-41599485D01*
X87965915Y-41549320D01*
X88025605Y-41529635D01*
X88084660Y-41549320D01*
G37*
G36*
X88262460Y-47054135D02*
G01*
X88316276Y-47078583D01*
X88362155Y-47111285D01*
X88399303Y-47151766D01*
X88426925Y-47199550D01*
X88444070Y-47254001D01*
X88449785Y-47314485D01*
X88444070Y-47374969D01*
X88426925Y-47429420D01*
X88399303Y-47477363D01*
X88362155Y-47518320D01*
X88316276Y-47551499D01*
X88262460Y-47576105D01*
X88201341Y-47591345D01*
X88133555Y-47596425D01*
X88066721Y-47591186D01*
X88005920Y-47575470D01*
X87952262Y-47550388D01*
X87906860Y-47517050D01*
X87870347Y-47475934D01*
X87843360Y-47427515D01*
X87826691Y-47373223D01*
X87821135Y-47314485D01*
X87957025Y-47314485D01*
X87969249Y-47367984D01*
X88005920Y-47406560D01*
X88062594Y-47429896D01*
X88134825Y-47437675D01*
X88207215Y-47430531D01*
X88264365Y-47409100D01*
X88301513Y-47371794D01*
X88313895Y-47317025D01*
X88301513Y-47263526D01*
X88264365Y-47224950D01*
X88207215Y-47201614D01*
X88134825Y-47193835D01*
X88062594Y-47200979D01*
X88005920Y-47222410D01*
X87969249Y-47259716D01*
X87957025Y-47314485D01*
X87821135Y-47314485D01*
X87826691Y-47254954D01*
X87843360Y-47200820D01*
X87870347Y-47152878D01*
X87906860Y-47111920D01*
X87952262Y-47078741D01*
X88005920Y-47054135D01*
X88066721Y-47038895D01*
X88133555Y-47033815D01*
X88201341Y-47038895D01*
X88262460Y-47054135D01*
G37*
G36*
X87665631Y-48448877D02*
G01*
X87699850Y-48386365D01*
X87749592Y-48340504D01*
X87816690Y-48312987D01*
X87901145Y-48303815D01*
X87986447Y-48313058D01*
X88054392Y-48340786D01*
X88104980Y-48387000D01*
X88139905Y-48450147D01*
X88160860Y-48528676D01*
X88167845Y-48622585D01*
X88167845Y-48678465D01*
X88433275Y-48678465D01*
X88433275Y-48834675D01*
X87657305Y-48834675D01*
X87648415Y-48783240D01*
X87642700Y-48725455D01*
X87639525Y-48668305D01*
X87638255Y-48618775D01*
X87639572Y-48600995D01*
X87774145Y-48600995D01*
X87774780Y-48639730D01*
X87777955Y-48678465D01*
X88031955Y-48678465D01*
X88031955Y-48614965D01*
X88024494Y-48549243D01*
X88002110Y-48501935D01*
X87961629Y-48473360D01*
X87899875Y-48463835D01*
X87841296Y-48473201D01*
X87802720Y-48501300D01*
X87781289Y-48544956D01*
X87774145Y-48600995D01*
X87639572Y-48600995D01*
X87645099Y-48526347D01*
X87665631Y-48448877D01*
G37*
G36*
X87919401Y-44517469D02*
G01*
X88000840Y-44540170D01*
X88080532Y-44562871D01*
X88158320Y-44586525D01*
X88234361Y-44611449D01*
X88308815Y-44637960D01*
X88381523Y-44666376D01*
X88452325Y-44697015D01*
X88539955Y-44744640D01*
X88600280Y-44796710D01*
X88635205Y-44860210D01*
X88646635Y-44942125D01*
X88640285Y-45013880D01*
X88623775Y-45067855D01*
X88492965Y-45038645D01*
X88508840Y-44993560D01*
X88513285Y-44951015D01*
X88482805Y-44877355D01*
X88410415Y-44832905D01*
X88332310Y-44870158D01*
X88247008Y-44907412D01*
X88154510Y-44944665D01*
X88080572Y-44971970D01*
X88002904Y-44998005D01*
X87921505Y-45022770D01*
X87836375Y-45046265D01*
X87836375Y-44883705D01*
X87936705Y-44857670D01*
X87990045Y-44842589D01*
X88043385Y-44826555D01*
X88096249Y-44809569D01*
X88148160Y-44791630D01*
X88244045Y-44754165D01*
X88148160Y-44727495D01*
X88096407Y-44713843D01*
X88044020Y-44700825D01*
X87991156Y-44688284D01*
X87937975Y-44676060D01*
X87836375Y-44653835D01*
X87836375Y-44493815D01*
X87919401Y-44517469D01*
G37*
G36*
X88418035Y-40885745D02*
G01*
X88447245Y-40964485D01*
X88439625Y-41007665D01*
X88417400Y-41043860D01*
X88381840Y-41069260D01*
X88332945Y-41078785D01*
X88285320Y-41069260D01*
X88250395Y-41043860D01*
X88228805Y-41007665D01*
X88221185Y-40964485D01*
X88250395Y-40885745D01*
X88332945Y-40851455D01*
X88418035Y-40885745D01*
G37*
G36*
X88001475Y-43759755D02*
G01*
X87946706Y-43731815D01*
X87901780Y-43696255D01*
X87866696Y-43654027D01*
X87841455Y-43606085D01*
X87826215Y-43554650D01*
X87821135Y-43501945D01*
X87821407Y-43499405D01*
X87951945Y-43499405D01*
X87962105Y-43552110D01*
X87990045Y-43588940D01*
X88030685Y-43611800D01*
X88077675Y-43622595D01*
X88077675Y-43383835D01*
X88031320Y-43390185D01*
X87991315Y-43410505D01*
X87962740Y-43446065D01*
X87951945Y-43499405D01*
X87821407Y-43499405D01*
X87829813Y-43420947D01*
X87855848Y-43354061D01*
X87899240Y-43301285D01*
X87959283Y-43263185D01*
X88035271Y-43240325D01*
X88127205Y-43232705D01*
X88158955Y-43233340D01*
X88185625Y-43235245D01*
X88185625Y-43622595D01*
X88237854Y-43610530D01*
X88277700Y-43574335D01*
X88302941Y-43519090D01*
X88311355Y-43449875D01*
X88301195Y-43360340D01*
X88280875Y-43288585D01*
X88414225Y-43266995D01*
X88437720Y-43353355D01*
X88447245Y-43456225D01*
X88442324Y-43528456D01*
X88427560Y-43592750D01*
X88403113Y-43648630D01*
X88369140Y-43695620D01*
X88325801Y-43733244D01*
X88273255Y-43761025D01*
X88211343Y-43778170D01*
X88139905Y-43783885D01*
X88065927Y-43777852D01*
X88001475Y-43759755D01*
G37*
G36*
X88433275Y-40542845D02*
G01*
X88303735Y-40542845D01*
X88303735Y-40377745D01*
X87864315Y-40377745D01*
X87909400Y-40459025D01*
X87940515Y-40536495D01*
X87810975Y-40587295D01*
X87781765Y-40521255D01*
X87742395Y-40450135D01*
X87696675Y-40382825D01*
X87647145Y-40328215D01*
X87647145Y-40221535D01*
X88303735Y-40221535D01*
X88303735Y-40065325D01*
X88433275Y-40065325D01*
X88433275Y-40542845D01*
G37*
G36*
X87727790Y-41950481D02*
G01*
X87817325Y-41970960D01*
X87913686Y-41994772D01*
X88014810Y-42021760D01*
X88084237Y-42041445D01*
X88154510Y-42062400D01*
X88225630Y-42084625D01*
X88296397Y-42107767D01*
X88365612Y-42131474D01*
X88433275Y-42155745D01*
X88433275Y-42317035D01*
X88339930Y-42348467D01*
X88235155Y-42381805D01*
X88161566Y-42404242D01*
X88088117Y-42425832D01*
X88014810Y-42446575D01*
X87942914Y-42466189D01*
X87873699Y-42484393D01*
X87807165Y-42501185D01*
X87718265Y-42522140D01*
X87647145Y-42536745D01*
X87647145Y-42371645D01*
X87713026Y-42362120D01*
X87788750Y-42348785D01*
X87870665Y-42332751D01*
X87955120Y-42315130D01*
X88040210Y-42296080D01*
X88124030Y-42275760D01*
X88202929Y-42254964D01*
X88273255Y-42234485D01*
X88203881Y-42214165D01*
X88125300Y-42193845D01*
X88041480Y-42174160D01*
X87956390Y-42155745D01*
X87871776Y-42138600D01*
X87789385Y-42122725D01*
X87713185Y-42108755D01*
X87647145Y-42097325D01*
X87647145Y-41933495D01*
X87727790Y-41950481D01*
G37*
G36*
X88261190Y-43877865D02*
G01*
X88314848Y-43896597D01*
X88360250Y-43922315D01*
X88424385Y-43995975D01*
X88441530Y-44043917D01*
X88447245Y-44098845D01*
X88439943Y-44159487D01*
X88418035Y-44222035D01*
X88642825Y-44222035D01*
X88642825Y-44378245D01*
X87855425Y-44378245D01*
X87842725Y-44330144D01*
X87832565Y-44272200D01*
X87825897Y-44209811D01*
X87823721Y-44149645D01*
X87957025Y-44149645D01*
X87958930Y-44187745D01*
X87962105Y-44222035D01*
X88289765Y-44222035D01*
X88306275Y-44181395D01*
X88312625Y-44130595D01*
X88301354Y-44082017D01*
X88267540Y-44048045D01*
X88213089Y-44028042D01*
X88139905Y-44021375D01*
X88067039Y-44029312D01*
X88008460Y-44053125D01*
X87969884Y-44093130D01*
X87957025Y-44149645D01*
X87823721Y-44149645D01*
X87823675Y-44148375D01*
X87832988Y-44063285D01*
X87860928Y-43992588D01*
X87907495Y-43936285D01*
X87970007Y-43895363D01*
X88045784Y-43870809D01*
X88134825Y-43862625D01*
X88200706Y-43866435D01*
X88261190Y-43877865D01*
G37*
G36*
X88439625Y-46492160D02*
G01*
X88447245Y-46589315D01*
X88438355Y-46685835D01*
X88404065Y-46756955D01*
X88332310Y-46801405D01*
X88278811Y-46812835D01*
X88211025Y-46816645D01*
X87965915Y-46816645D01*
X87965915Y-46952535D01*
X87836375Y-46952535D01*
X87836375Y-46816645D01*
X87686515Y-46816645D01*
X87661115Y-46660435D01*
X87836375Y-46660435D01*
X87836375Y-46410245D01*
X87965915Y-46410245D01*
X87965915Y-46660435D01*
X88207215Y-46660435D01*
X88260555Y-46654085D01*
X88292305Y-46636305D01*
X88307545Y-46608365D01*
X88311355Y-46571535D01*
X88310085Y-46531530D01*
X88305640Y-46495970D01*
X88296115Y-46460410D01*
X88279605Y-46420405D01*
X88414225Y-46398815D01*
X88439625Y-46492160D01*
G37*
G36*
X88262460Y-45784135D02*
G01*
X88316276Y-45808583D01*
X88362155Y-45841285D01*
X88399303Y-45881766D01*
X88426925Y-45929550D01*
X88444070Y-45984001D01*
X88449785Y-46044485D01*
X88444070Y-46104969D01*
X88426925Y-46159420D01*
X88399303Y-46207363D01*
X88362155Y-46248320D01*
X88316276Y-46281499D01*
X88262460Y-46306105D01*
X88201341Y-46321345D01*
X88133555Y-46326425D01*
X88066721Y-46321186D01*
X88005920Y-46305470D01*
X87952262Y-46280388D01*
X87906860Y-46247050D01*
X87870347Y-46205934D01*
X87843360Y-46157515D01*
X87826691Y-46103223D01*
X87821135Y-46044485D01*
X87957025Y-46044485D01*
X87969249Y-46097984D01*
X88005920Y-46136560D01*
X88062594Y-46159896D01*
X88134825Y-46167675D01*
X88207215Y-46160531D01*
X88264365Y-46139100D01*
X88301513Y-46101794D01*
X88313895Y-46047025D01*
X88301513Y-45993526D01*
X88264365Y-45954950D01*
X88207215Y-45931614D01*
X88134825Y-45923835D01*
X88062594Y-45930979D01*
X88005920Y-45952410D01*
X87969249Y-45989716D01*
X87957025Y-46044485D01*
X87821135Y-46044485D01*
X87826691Y-45984954D01*
X87843360Y-45930820D01*
X87870347Y-45882878D01*
X87906860Y-45841920D01*
X87952262Y-45808741D01*
X88005920Y-45784135D01*
X88066721Y-45768895D01*
X88133555Y-45763815D01*
X88201341Y-45768895D01*
X88262460Y-45784135D01*
G37*
G36*
X87995125Y-47713265D02*
G01*
X87987505Y-47749460D01*
X87980520Y-47792005D01*
X87976075Y-47833915D01*
X87974805Y-47868205D01*
X87977980Y-47932975D01*
X87990045Y-47997745D01*
X88433275Y-47997745D01*
X88433275Y-48155225D01*
X87875745Y-48155225D01*
X87855107Y-48092201D01*
X87838915Y-48027590D01*
X87828437Y-47956629D01*
X87824945Y-47874555D01*
X87826215Y-47838360D01*
X87830660Y-47788195D01*
X87838280Y-47734220D01*
X87850345Y-47685325D01*
X87995125Y-47713265D01*
G37*
G36*
X88219915Y-41345167D02*
G01*
X88290718Y-41366996D01*
X88348185Y-41397555D01*
X88404629Y-41451177D01*
X88438496Y-41518911D01*
X88449785Y-41600755D01*
X88438496Y-41682599D01*
X88404629Y-41750333D01*
X88348185Y-41803955D01*
X88290718Y-41834514D01*
X88219915Y-41856342D01*
X88135777Y-41869439D01*
X88038305Y-41873805D01*
X87941944Y-41869360D01*
X87858600Y-41856025D01*
X87788274Y-41833800D01*
X87730965Y-41802685D01*
X87674521Y-41748639D01*
X87640654Y-41681329D01*
X87629365Y-41600755D01*
X87762715Y-41600755D01*
X87780336Y-41656952D01*
X87833200Y-41698545D01*
X87887316Y-41717595D01*
X87955684Y-41729025D01*
X88038305Y-41732835D01*
X88121631Y-41729025D01*
X88190423Y-41717595D01*
X88244680Y-41698545D01*
X88297544Y-41656952D01*
X88315165Y-41600755D01*
X88297544Y-41543764D01*
X88244680Y-41502330D01*
X88190423Y-41483633D01*
X88121631Y-41472414D01*
X88038305Y-41468675D01*
X87955684Y-41472414D01*
X87887316Y-41483633D01*
X87833200Y-41502330D01*
X87780336Y-41543764D01*
X87762715Y-41600755D01*
X87629365Y-41600755D01*
X87640583Y-41518911D01*
X87674238Y-41451177D01*
X87730330Y-41397555D01*
X87787440Y-41366996D01*
X87857806Y-41345167D01*
X87941428Y-41332071D01*
X88038305Y-41327705D01*
X88135777Y-41332071D01*
X88219915Y-41345167D01*
G37*
G36*
X88439625Y-45222160D02*
G01*
X88447245Y-45319315D01*
X88438355Y-45415835D01*
X88404065Y-45486955D01*
X88332310Y-45531405D01*
X88278811Y-45542835D01*
X88211025Y-45546645D01*
X87965915Y-45546645D01*
X87965915Y-45682535D01*
X87836375Y-45682535D01*
X87836375Y-45546645D01*
X87686515Y-45546645D01*
X87661115Y-45390435D01*
X87836375Y-45390435D01*
X87836375Y-45140245D01*
X87965915Y-45140245D01*
X87965915Y-45390435D01*
X88207215Y-45390435D01*
X88260555Y-45384085D01*
X88292305Y-45366305D01*
X88307545Y-45338365D01*
X88311355Y-45301535D01*
X88310085Y-45261530D01*
X88305640Y-45225970D01*
X88296115Y-45190410D01*
X88279605Y-45150405D01*
X88414225Y-45128815D01*
X88439625Y-45222160D01*
G37*
X87467200Y-126342838D02*
G75*
G03*
X87467200Y-126342838I0J0D01*
G01*
X87467200Y-92549800D02*
G75*
G03*
X87467200Y-92549800I0J0D01*
G01*
D21*
X85110000Y-87090000D02*
X85110000Y-86240000D01*
D20*
X86360000Y-73529747D02*
X86020589Y-73190336D01*
X86360000Y-63630253D02*
X86020589Y-63969664D01*
X81410253Y-68580000D02*
X81749664Y-68240589D01*
X91309747Y-68580000D02*
X90970336Y-68240589D01*
X86360000Y-73529747D02*
X86699411Y-73190336D01*
X81410253Y-68580000D02*
X81749664Y-68919411D01*
X91309747Y-68580000D02*
X90970336Y-68919411D01*
X86360000Y-63630253D02*
X86699411Y-63969664D01*
D21*
X86064868Y-63586978D02*
G75*
G03*
X86064868Y-63586978I-99999J0D01*
G01*
D19*
X87467200Y-118833274D02*
G75*
G03*
X87467200Y-118833274I0J0D01*
G01*
X87467200Y-103814146D02*
G75*
G03*
X87467200Y-103814146I0J0D01*
G01*
X81762600Y-16814800D02*
X81762600Y-17658407D01*
X90957400Y-17658407D02*
X90957400Y-16814800D01*
X81762600Y-20437991D02*
X81762600Y-21861608D01*
X90957400Y-16814800D02*
X81762600Y-16814800D01*
X90957400Y-21861608D02*
X90957400Y-20437991D01*
X87467200Y-115078492D02*
G75*
G03*
X87467200Y-115078492I0J0D01*
G01*
M02*
