G04 #@! TF.GenerationSoftware,KiCad,Pcbnew,(6.0.6)*
G04 #@! TF.CreationDate,2023-02-28T19:52:47-07:00*
G04 #@! TF.ProjectId,RP2040-Breadstick,52503230-3430-42d4-9272-656164737469,0.1*
G04 #@! TF.SameCoordinates,Original*
G04 #@! TF.FileFunction,AssemblyDrawing,Top*
%FSLAX46Y46*%
G04 Gerber Fmt 4.6, Leading zero omitted, Abs format (unit mm)*
G04 Created by KiCad (PCBNEW (6.0.6)) date 2023-02-28 19:52:47*
%MOMM*%
%LPD*%
G01*
G04 APERTURE LIST*
%ADD10C,0.150000*%
%ADD11C,0.100000*%
%ADD12C,0.127000*%
%ADD13C,0.200000*%
%ADD14C,0.120000*%
%ADD15C,0.140000*%
G04 APERTURE END LIST*
D10*
X92100001Y-23075580D02*
X92100001Y-23313676D01*
X91861905Y-23218438D02*
X92100001Y-23313676D01*
X92338096Y-23218438D01*
X91957143Y-23504152D02*
X92100001Y-23313676D01*
X92242858Y-23504152D01*
X82002380Y-41910000D02*
X82240476Y-41910000D01*
X82145238Y-42148095D02*
X82240476Y-41910000D01*
X82145238Y-41671904D01*
X82430952Y-42052857D02*
X82240476Y-41910000D01*
X82430952Y-41767142D01*
D11*
X81889600Y-23698200D02*
X90830400Y-23698200D01*
X86360000Y-23698200D02*
X86360000Y-23698200D01*
X90830400Y-16941800D02*
X81889600Y-16941800D01*
X86360000Y-23698200D02*
X86360000Y-23698200D01*
X86360000Y-23698200D02*
X86360000Y-23698200D01*
X90830400Y-23698200D02*
X90830400Y-16941800D01*
X86360000Y-23698200D02*
X86360000Y-23698200D01*
X81889600Y-16941800D02*
X81889600Y-23698200D01*
D12*
X83810000Y-56005000D02*
X88910000Y-56005000D01*
X83810000Y-62105000D02*
X88910000Y-62105000D01*
X83810000Y-62105000D02*
X83810000Y-56005000D01*
X88910000Y-62105000D02*
X88910000Y-56005000D01*
D13*
X84555000Y-63140000D02*
G75*
G03*
X84555000Y-63140000I-100000J0D01*
G01*
D11*
X83654900Y-58648600D02*
X83654900Y-55651400D01*
X81445100Y-58648600D02*
X83654900Y-58648600D01*
X81445100Y-55651400D02*
X81445100Y-58648600D01*
X83654900Y-55651400D02*
X81445100Y-55651400D01*
X83654900Y-56845200D02*
G75*
G03*
X83654900Y-57454800I0J-304800D01*
G01*
X82626200Y-55753000D02*
G75*
G03*
X82626200Y-55753000I-76200J0D01*
G01*
D14*
X81250000Y-53125000D02*
X83850000Y-53125000D01*
X81250000Y-54825000D02*
X81250000Y-53125000D01*
X83850000Y-54825000D02*
X81250000Y-54825000D01*
X83850000Y-53125000D02*
X83850000Y-54825000D01*
D11*
X83654900Y-43408600D02*
X83654900Y-40411400D01*
X81445100Y-40411400D02*
X81445100Y-43408600D01*
X83654900Y-40411400D02*
X81445100Y-40411400D01*
X81445100Y-43408600D02*
X83654900Y-43408600D01*
X81445100Y-42214800D02*
G75*
G03*
X81445100Y-41605200I0J304800D01*
G01*
X82626200Y-43307000D02*
G75*
G03*
X82626200Y-43307000I-76200J0D01*
G01*
D12*
X87910000Y-74900000D02*
X87910000Y-77500000D01*
X87910000Y-77500000D02*
X84810000Y-77500000D01*
X84810000Y-74900000D02*
X87910000Y-74900000D01*
X84810000Y-77500000D02*
X84810000Y-74900000D01*
D11*
X84310000Y-75200000D02*
G75*
G03*
X84310000Y-75200000I-50000J0D01*
G01*
D14*
X88168000Y-79336000D02*
X85568000Y-79336000D01*
X85568000Y-79336000D02*
X85568000Y-77636000D01*
X85568000Y-77636000D02*
X88168000Y-77636000D01*
X88168000Y-77636000D02*
X88168000Y-79336000D01*
D12*
X85060000Y-25256400D02*
X87660000Y-25256400D01*
X85060000Y-26356400D02*
X85060000Y-25256400D01*
X87660000Y-26356400D02*
X85060000Y-26356400D01*
X87660000Y-25256400D02*
X87660000Y-26356400D01*
D15*
X87630000Y-24706400D02*
G75*
G03*
X87630000Y-24706400I-70000J0D01*
G01*
D11*
X85360000Y-86240000D02*
X85360000Y-83940000D01*
X87360000Y-83940000D02*
X87360000Y-86240000D01*
X85860000Y-86240000D02*
X85360000Y-85740000D01*
X87360000Y-86240000D02*
X85360000Y-86240000D01*
X85360000Y-83940000D02*
X87360000Y-83940000D01*
D12*
X86360000Y-73529747D02*
X81410253Y-68580000D01*
X81410253Y-68580000D02*
X86360000Y-63630253D01*
X86360000Y-73529747D02*
X91309747Y-68580000D01*
X91309747Y-68580000D02*
X86360000Y-63630253D01*
D13*
X85134174Y-63577220D02*
G75*
G03*
X85134174Y-63577220I-99999J0D01*
G01*
M02*
