G04 #@! TF.GenerationSoftware,KiCad,Pcbnew,(6.0.6)*
G04 #@! TF.CreationDate,2023-02-28T19:52:47-07:00*
G04 #@! TF.ProjectId,RP2040-Breadstick,52503230-3430-42d4-9272-656164737469,0.1*
G04 #@! TF.SameCoordinates,Original*
G04 #@! TF.FileFunction,AssemblyDrawing,Bot*
%FSLAX46Y46*%
G04 Gerber Fmt 4.6, Leading zero omitted, Abs format (unit mm)*
G04 Created by KiCad (PCBNEW (6.0.6)) date 2023-02-28 19:52:47*
%MOMM*%
%LPD*%
G01*
G04 APERTURE LIST*
%ADD10C,0.127000*%
%ADD11C,0.200000*%
%ADD12C,0.100000*%
%ADD13C,0.120000*%
%ADD14C,0.010000*%
G04 APERTURE END LIST*
D10*
X84877590Y-72592177D02*
X83463377Y-74006390D01*
X83109823Y-70824410D02*
X84877590Y-72592177D01*
X81695610Y-72238623D02*
X83109823Y-70824410D01*
X83463377Y-74006390D02*
X81695610Y-72238623D01*
D11*
X82502717Y-70541567D02*
G75*
G03*
X82502717Y-70541567I-100000J0D01*
G01*
D12*
X85021149Y-70484536D02*
X86152520Y-69353165D01*
X86152520Y-69353165D02*
X85586835Y-68787480D01*
X84455464Y-69918851D02*
X85021149Y-70484536D01*
X85586835Y-68787480D02*
X84455464Y-69918851D01*
X86760000Y-143206948D02*
X85960000Y-143206948D01*
X86760000Y-144806948D02*
X86760000Y-143206948D01*
X85960000Y-143206948D02*
X85960000Y-144806948D01*
X85960000Y-144806948D02*
X86760000Y-144806948D01*
X83820000Y-179070000D02*
X83820000Y-177165000D01*
X81280000Y-176530000D02*
X81280000Y-179070000D01*
X83820000Y-177165000D02*
X83185000Y-176530000D01*
X83185000Y-176530000D02*
X81280000Y-176530000D01*
X81280000Y-179070000D02*
X83820000Y-179070000D01*
X86760000Y-178599986D02*
X86760000Y-176999986D01*
X86760000Y-176999986D02*
X85960000Y-176999986D01*
X85960000Y-176999986D02*
X85960000Y-178599986D01*
X85960000Y-178599986D02*
X86760000Y-178599986D01*
X88900000Y-173990000D02*
X88900000Y-176530000D01*
X91440000Y-174625000D02*
X90805000Y-173990000D01*
X88900000Y-176530000D02*
X91440000Y-176530000D01*
X91440000Y-176530000D02*
X91440000Y-174625000D01*
X90805000Y-173990000D02*
X88900000Y-173990000D01*
X86760000Y-124433038D02*
X85960000Y-124433038D01*
X86760000Y-126033038D02*
X86760000Y-124433038D01*
X85960000Y-126033038D02*
X86760000Y-126033038D01*
X85960000Y-124433038D02*
X85960000Y-126033038D01*
X81280000Y-153670000D02*
X83820000Y-153670000D01*
X81280000Y-151130000D02*
X81280000Y-153670000D01*
X83820000Y-153670000D02*
X83820000Y-151765000D01*
X83185000Y-151130000D02*
X81280000Y-151130000D01*
X83820000Y-151765000D02*
X83185000Y-151130000D01*
X88900000Y-166370000D02*
X88900000Y-168910000D01*
X90805000Y-166370000D02*
X88900000Y-166370000D01*
X91440000Y-167005000D02*
X90805000Y-166370000D01*
X91440000Y-168910000D02*
X91440000Y-167005000D01*
X88900000Y-168910000D02*
X91440000Y-168910000D01*
X85560000Y-29445000D02*
X85560000Y-30245000D01*
X87160000Y-29445000D02*
X85560000Y-29445000D01*
X87160000Y-30245000D02*
X87160000Y-29445000D01*
X85560000Y-30245000D02*
X87160000Y-30245000D01*
X83820000Y-121285000D02*
X83185000Y-120650000D01*
X81280000Y-123190000D02*
X83820000Y-123190000D01*
X83820000Y-123190000D02*
X83820000Y-121285000D01*
X83185000Y-120650000D02*
X81280000Y-120650000D01*
X81280000Y-120650000D02*
X81280000Y-123190000D01*
D10*
X88250000Y-19855000D02*
X88250000Y-22055000D01*
X88250000Y-22055000D02*
X89550000Y-22055000D01*
X89550000Y-22055000D02*
X89550000Y-19855000D01*
X89550000Y-19855000D02*
X88250000Y-19855000D01*
D11*
X89000000Y-18455000D02*
G75*
G03*
X89000000Y-18455000I-100000J0D01*
G01*
D12*
X83820000Y-27305000D02*
X83185000Y-26670000D01*
X81280000Y-29210000D02*
X83820000Y-29210000D01*
X83185000Y-26670000D02*
X81280000Y-26670000D01*
X83820000Y-29210000D02*
X83820000Y-27305000D01*
X81280000Y-26670000D02*
X81280000Y-29210000D01*
X81280000Y-105410000D02*
X81280000Y-107950000D01*
X83820000Y-106045000D02*
X83185000Y-105410000D01*
X83820000Y-107950000D02*
X83820000Y-106045000D01*
X81280000Y-107950000D02*
X83820000Y-107950000D01*
X83185000Y-105410000D02*
X81280000Y-105410000D01*
X81280000Y-36830000D02*
X81280000Y-39370000D01*
X83820000Y-39370000D02*
X83820000Y-37465000D01*
X81280000Y-39370000D02*
X83820000Y-39370000D01*
X83185000Y-36830000D02*
X81280000Y-36830000D01*
X83820000Y-37465000D02*
X83185000Y-36830000D01*
X83820000Y-29845000D02*
X83185000Y-29210000D01*
X81280000Y-29210000D02*
X81280000Y-31750000D01*
X81280000Y-31750000D02*
X83820000Y-31750000D01*
X83820000Y-31750000D02*
X83820000Y-29845000D01*
X83185000Y-29210000D02*
X81280000Y-29210000D01*
X88900000Y-26670000D02*
X88900000Y-29210000D01*
X88900000Y-29210000D02*
X91440000Y-29210000D01*
X90805000Y-26670000D02*
X88900000Y-26670000D01*
X91440000Y-29210000D02*
X91440000Y-27305000D01*
X91440000Y-27305000D02*
X90805000Y-26670000D01*
X85960000Y-90640000D02*
X85960000Y-92240000D01*
X85960000Y-92240000D02*
X86760000Y-92240000D01*
X86760000Y-90640000D02*
X85960000Y-90640000D01*
X86760000Y-92240000D02*
X86760000Y-90640000D01*
X88900000Y-29210000D02*
X88900000Y-31750000D01*
X91440000Y-31750000D02*
X91440000Y-29845000D01*
X88900000Y-31750000D02*
X91440000Y-31750000D01*
X90805000Y-29210000D02*
X88900000Y-29210000D01*
X91440000Y-29845000D02*
X90805000Y-29210000D01*
X86760000Y-103504346D02*
X86760000Y-101904346D01*
X85960000Y-103504346D02*
X86760000Y-103504346D01*
X85960000Y-101904346D02*
X85960000Y-103504346D01*
X86760000Y-101904346D02*
X85960000Y-101904346D01*
X91440000Y-36830000D02*
X91440000Y-34925000D01*
X90805000Y-34290000D02*
X88900000Y-34290000D01*
X88900000Y-34290000D02*
X88900000Y-36830000D01*
X91440000Y-34925000D02*
X90805000Y-34290000D01*
X88900000Y-36830000D02*
X91440000Y-36830000D01*
X81280000Y-135890000D02*
X81280000Y-138430000D01*
X83820000Y-136525000D02*
X83185000Y-135890000D01*
X83820000Y-138430000D02*
X83820000Y-136525000D01*
X83185000Y-135890000D02*
X81280000Y-135890000D01*
X81280000Y-138430000D02*
X83820000Y-138430000D01*
X88900000Y-176530000D02*
X88900000Y-179070000D01*
X91440000Y-177165000D02*
X90805000Y-176530000D01*
X88900000Y-179070000D02*
X91440000Y-179070000D01*
X91440000Y-179070000D02*
X91440000Y-177165000D01*
X90805000Y-176530000D02*
X88900000Y-176530000D01*
X86664466Y-69865111D02*
X85533095Y-70996482D01*
X87230151Y-70430796D02*
X86664466Y-69865111D01*
X86098780Y-71562167D02*
X87230151Y-70430796D01*
X85533095Y-70996482D02*
X86098780Y-71562167D01*
X85960000Y-154471294D02*
X85960000Y-156071294D01*
X85960000Y-156071294D02*
X86760000Y-156071294D01*
X86760000Y-154471294D02*
X85960000Y-154471294D01*
X86760000Y-156071294D02*
X86760000Y-154471294D01*
D10*
X87010000Y-21420000D02*
X87010000Y-19220000D01*
X87010000Y-19220000D02*
X85710000Y-19220000D01*
X85710000Y-21420000D02*
X87010000Y-21420000D01*
X85710000Y-19220000D02*
X85710000Y-21420000D01*
D11*
X86460000Y-22820000D02*
G75*
G03*
X86460000Y-22820000I-100000J0D01*
G01*
D12*
X83820000Y-75565000D02*
X83185000Y-74930000D01*
X81280000Y-74930000D02*
X81280000Y-77470000D01*
X83185000Y-74930000D02*
X81280000Y-74930000D01*
X81280000Y-77470000D02*
X83820000Y-77470000D01*
X83820000Y-77470000D02*
X83820000Y-75565000D01*
X86760000Y-163580858D02*
X86760000Y-161980858D01*
X85960000Y-161980858D02*
X85960000Y-163580858D01*
X86760000Y-161980858D02*
X85960000Y-161980858D01*
X85960000Y-163580858D02*
X86760000Y-163580858D01*
X86760000Y-169490422D02*
X85960000Y-169490422D01*
X85960000Y-169490422D02*
X85960000Y-171090422D01*
X86760000Y-171090422D02*
X86760000Y-169490422D01*
X85960000Y-171090422D02*
X86760000Y-171090422D01*
X90805000Y-135890000D02*
X88900000Y-135890000D01*
X88900000Y-138430000D02*
X91440000Y-138430000D01*
X91440000Y-136525000D02*
X90805000Y-135890000D01*
X88900000Y-135890000D02*
X88900000Y-138430000D01*
X91440000Y-138430000D02*
X91440000Y-136525000D01*
X85960000Y-150716512D02*
X85960000Y-152316512D01*
X86760000Y-152316512D02*
X86760000Y-150716512D01*
X85960000Y-152316512D02*
X86760000Y-152316512D01*
X86760000Y-150716512D02*
X85960000Y-150716512D01*
X88900000Y-153670000D02*
X91440000Y-153670000D01*
X88900000Y-151130000D02*
X88900000Y-153670000D01*
X91440000Y-153670000D02*
X91440000Y-151765000D01*
X90805000Y-151130000D02*
X88900000Y-151130000D01*
X91440000Y-151765000D02*
X90805000Y-151130000D01*
X83820000Y-174625000D02*
X83185000Y-173990000D01*
X83820000Y-176530000D02*
X83820000Y-174625000D01*
X81280000Y-176530000D02*
X83820000Y-176530000D01*
X83185000Y-173990000D02*
X81280000Y-173990000D01*
X81280000Y-173990000D02*
X81280000Y-176530000D01*
D13*
X88168000Y-37250000D02*
X85568000Y-37250000D01*
X85568000Y-37250000D02*
X85568000Y-38950000D01*
X88168000Y-38950000D02*
X88168000Y-37250000D01*
X85568000Y-38950000D02*
X88168000Y-38950000D01*
D12*
X81280000Y-34290000D02*
X83820000Y-34290000D01*
X81280000Y-31750000D02*
X81280000Y-34290000D01*
X83185000Y-31750000D02*
X81280000Y-31750000D01*
X83820000Y-32385000D02*
X83185000Y-31750000D01*
X83820000Y-34290000D02*
X83820000Y-32385000D01*
X81280000Y-62230000D02*
X83820000Y-62230000D01*
X83820000Y-62230000D02*
X83820000Y-60325000D01*
X83185000Y-59690000D02*
X81280000Y-59690000D01*
X81280000Y-59690000D02*
X81280000Y-62230000D01*
X83820000Y-60325000D02*
X83185000Y-59690000D01*
X86760000Y-105659128D02*
X85960000Y-105659128D01*
X86760000Y-107259128D02*
X86760000Y-105659128D01*
X85960000Y-107259128D02*
X86760000Y-107259128D01*
X85960000Y-105659128D02*
X85960000Y-107259128D01*
X91440000Y-39370000D02*
X91440000Y-37465000D01*
X88900000Y-36830000D02*
X88900000Y-39370000D01*
X90805000Y-36830000D02*
X88900000Y-36830000D01*
X91440000Y-37465000D02*
X90805000Y-36830000D01*
X88900000Y-39370000D02*
X91440000Y-39370000D01*
X87160000Y-33255000D02*
X85560000Y-33255000D01*
X87160000Y-34055000D02*
X87160000Y-33255000D01*
X85560000Y-33255000D02*
X85560000Y-34055000D01*
X85560000Y-34055000D02*
X87160000Y-34055000D01*
X85960000Y-141052166D02*
X86760000Y-141052166D01*
X85960000Y-139452166D02*
X85960000Y-141052166D01*
X86760000Y-139452166D02*
X85960000Y-139452166D01*
X86760000Y-141052166D02*
X86760000Y-139452166D01*
D10*
X86985000Y-32375000D02*
X86985000Y-31125000D01*
X86985000Y-31125000D02*
X85735000Y-31125000D01*
X86985000Y-32375000D02*
X85735000Y-32375000D01*
X85735000Y-32375000D02*
X85735000Y-31125000D01*
D11*
X86860000Y-33225000D02*
G75*
G03*
X86860000Y-33225000I-100000J0D01*
G01*
D12*
X83820000Y-36830000D02*
X83820000Y-34925000D01*
X81280000Y-34290000D02*
X81280000Y-36830000D01*
X83820000Y-34925000D02*
X83185000Y-34290000D01*
X81280000Y-36830000D02*
X83820000Y-36830000D01*
X83185000Y-34290000D02*
X81280000Y-34290000D01*
X85960000Y-137297384D02*
X86760000Y-137297384D01*
X86760000Y-137297384D02*
X86760000Y-135697384D01*
X86760000Y-135697384D02*
X85960000Y-135697384D01*
X85960000Y-135697384D02*
X85960000Y-137297384D01*
X86760000Y-158226076D02*
X85960000Y-158226076D01*
X86760000Y-159826076D02*
X86760000Y-158226076D01*
X85960000Y-158226076D02*
X85960000Y-159826076D01*
X85960000Y-159826076D02*
X86760000Y-159826076D01*
X86760000Y-129787820D02*
X86760000Y-128187820D01*
X86760000Y-128187820D02*
X85960000Y-128187820D01*
X85960000Y-129787820D02*
X86760000Y-129787820D01*
X85960000Y-128187820D02*
X85960000Y-129787820D01*
X85960000Y-98149564D02*
X85960000Y-99749564D01*
X86760000Y-98149564D02*
X85960000Y-98149564D01*
X85960000Y-99749564D02*
X86760000Y-99749564D01*
X86760000Y-99749564D02*
X86760000Y-98149564D01*
X87158450Y-68347235D02*
X88289821Y-67215864D01*
X88289821Y-67215864D02*
X87724136Y-66650179D01*
X86592765Y-67781550D02*
X87158450Y-68347235D01*
X87724136Y-66650179D02*
X86592765Y-67781550D01*
X86760000Y-95994782D02*
X86760000Y-94394782D01*
X86760000Y-94394782D02*
X85960000Y-94394782D01*
X85960000Y-95994782D02*
X86760000Y-95994782D01*
X85960000Y-94394782D02*
X85960000Y-95994782D01*
X91440000Y-60325000D02*
X90805000Y-59690000D01*
X91440000Y-62230000D02*
X91440000Y-60325000D01*
X88900000Y-59690000D02*
X88900000Y-62230000D01*
X88900000Y-62230000D02*
X91440000Y-62230000D01*
X90805000Y-59690000D02*
X88900000Y-59690000D01*
X86760000Y-146961730D02*
X85960000Y-146961730D01*
X85960000Y-148561730D02*
X86760000Y-148561730D01*
X86760000Y-148561730D02*
X86760000Y-146961730D01*
X85960000Y-146961730D02*
X85960000Y-148561730D01*
X86760000Y-165735640D02*
X85960000Y-165735640D01*
X85960000Y-165735640D02*
X85960000Y-167335640D01*
X85960000Y-167335640D02*
X86760000Y-167335640D01*
X86760000Y-167335640D02*
X86760000Y-165735640D01*
D10*
X87360000Y-27290000D02*
X85360000Y-27290000D01*
X85360000Y-27290000D02*
X85360000Y-28590000D01*
X85360000Y-28590000D02*
X87360000Y-28590000D01*
X87360000Y-28590000D02*
X87360000Y-27290000D01*
G36*
X85860000Y-28590000D02*
G01*
X85360000Y-28590000D01*
X85360000Y-27290000D01*
X85860000Y-27290000D01*
X85860000Y-28590000D01*
G37*
D14*
X85860000Y-28590000D02*
X85360000Y-28590000D01*
X85360000Y-27290000D01*
X85860000Y-27290000D01*
X85860000Y-28590000D01*
G36*
X87360000Y-28590000D02*
G01*
X86860000Y-28590000D01*
X86860000Y-27290000D01*
X87360000Y-27290000D01*
X87360000Y-28590000D01*
G37*
X87360000Y-28590000D02*
X86860000Y-28590000D01*
X86860000Y-27290000D01*
X87360000Y-27290000D01*
X87360000Y-28590000D01*
D12*
X86745000Y-113168692D02*
X85945000Y-113168692D01*
X85945000Y-113168692D02*
X85945000Y-114768692D01*
X85945000Y-114768692D02*
X86745000Y-114768692D01*
X86745000Y-114768692D02*
X86745000Y-113168692D01*
X86760000Y-120678256D02*
X85960000Y-120678256D01*
X85960000Y-120678256D02*
X85960000Y-122278256D01*
X85960000Y-122278256D02*
X86760000Y-122278256D01*
X86760000Y-122278256D02*
X86760000Y-120678256D01*
X90805000Y-105410000D02*
X88900000Y-105410000D01*
X88900000Y-105410000D02*
X88900000Y-107950000D01*
X91440000Y-107950000D02*
X91440000Y-106045000D01*
X88900000Y-107950000D02*
X91440000Y-107950000D01*
X91440000Y-106045000D02*
X90805000Y-105410000D01*
X83381043Y-68835714D02*
X83946728Y-69401399D01*
X83946728Y-69401399D02*
X85078099Y-68270028D01*
X85078099Y-68270028D02*
X84512414Y-67704343D01*
X84512414Y-67704343D02*
X83381043Y-68835714D01*
X88900000Y-44450000D02*
X88900000Y-46990000D01*
X88900000Y-46990000D02*
X91440000Y-46990000D01*
X91440000Y-45085000D02*
X90805000Y-44450000D01*
X90805000Y-44450000D02*
X88900000Y-44450000D01*
X91440000Y-46990000D02*
X91440000Y-45085000D01*
X88900000Y-120650000D02*
X88900000Y-123190000D01*
X88900000Y-123190000D02*
X91440000Y-123190000D01*
X90805000Y-120650000D02*
X88900000Y-120650000D01*
X91440000Y-123190000D02*
X91440000Y-121285000D01*
X91440000Y-121285000D02*
X90805000Y-120650000D01*
X88900000Y-92710000D02*
X91440000Y-92710000D01*
X91440000Y-90805000D02*
X90805000Y-90170000D01*
X90805000Y-90170000D02*
X88900000Y-90170000D01*
X88900000Y-90170000D02*
X88900000Y-92710000D01*
X91440000Y-92710000D02*
X91440000Y-90805000D01*
X86745000Y-111013910D02*
X86745000Y-109413910D01*
X85945000Y-111013910D02*
X86745000Y-111013910D01*
X85945000Y-109413910D02*
X85945000Y-111013910D01*
X86745000Y-109413910D02*
X85945000Y-109413910D01*
X91440000Y-34290000D02*
X91440000Y-32385000D01*
X88900000Y-34290000D02*
X91440000Y-34290000D01*
X88900000Y-31750000D02*
X88900000Y-34290000D01*
X91440000Y-32385000D02*
X90805000Y-31750000D01*
X90805000Y-31750000D02*
X88900000Y-31750000D01*
X87212190Y-66138233D02*
X86646505Y-65572548D01*
X86646505Y-65572548D02*
X85515134Y-66703919D01*
X86080819Y-67269604D02*
X87212190Y-66138233D01*
X85515134Y-66703919D02*
X86080819Y-67269604D01*
X87670396Y-68859181D02*
X88236081Y-69424866D01*
X88801767Y-67727810D02*
X87670396Y-68859181D01*
X89367452Y-68293495D02*
X88801767Y-67727810D01*
X88236081Y-69424866D02*
X89367452Y-68293495D01*
X83185000Y-166370000D02*
X81280000Y-166370000D01*
X81280000Y-166370000D02*
X81280000Y-168910000D01*
X83820000Y-168910000D02*
X83820000Y-167005000D01*
X83820000Y-167005000D02*
X83185000Y-166370000D01*
X81280000Y-168910000D02*
X83820000Y-168910000D01*
X83820000Y-90805000D02*
X83185000Y-90170000D01*
X83820000Y-92710000D02*
X83820000Y-90805000D01*
X81280000Y-90170000D02*
X81280000Y-92710000D01*
X83185000Y-90170000D02*
X81280000Y-90170000D01*
X81280000Y-92710000D02*
X83820000Y-92710000D01*
X86760000Y-174845204D02*
X86760000Y-173245204D01*
X85960000Y-173245204D02*
X85960000Y-174845204D01*
X85960000Y-174845204D02*
X86760000Y-174845204D01*
X86760000Y-173245204D02*
X85960000Y-173245204D01*
X83185000Y-44450000D02*
X81280000Y-44450000D01*
X83820000Y-45085000D02*
X83185000Y-44450000D01*
X81280000Y-46990000D02*
X83820000Y-46990000D01*
X81280000Y-44450000D02*
X81280000Y-46990000D01*
X83820000Y-46990000D02*
X83820000Y-45085000D01*
X85960000Y-131942602D02*
X85960000Y-133542602D01*
X86760000Y-133542602D02*
X86760000Y-131942602D01*
X85960000Y-133542602D02*
X86760000Y-133542602D01*
X86760000Y-131942602D02*
X85960000Y-131942602D01*
X84420000Y-21320000D02*
X84420000Y-19320000D01*
X84420000Y-19320000D02*
X83220000Y-19320000D01*
X83220000Y-19320000D02*
X83220000Y-21320000D01*
X83220000Y-21320000D02*
X84420000Y-21320000D01*
X85960000Y-116923474D02*
X85960000Y-118523474D01*
X86760000Y-116923474D02*
X85960000Y-116923474D01*
X86760000Y-118523474D02*
X86760000Y-116923474D01*
X85960000Y-118523474D02*
X86760000Y-118523474D01*
X91440000Y-77470000D02*
X91440000Y-75565000D01*
X90805000Y-74930000D02*
X88900000Y-74930000D01*
X88900000Y-74930000D02*
X88900000Y-77470000D01*
X91440000Y-75565000D02*
X90805000Y-74930000D01*
X88900000Y-77470000D02*
X91440000Y-77470000D01*
M02*
