G04 #@! TF.GenerationSoftware,KiCad,Pcbnew,(6.0.6)*
G04 #@! TF.CreationDate,2023-02-28T19:52:46-07:00*
G04 #@! TF.ProjectId,RP2040-Breadstick,52503230-3430-42d4-9272-656164737469,0.1*
G04 #@! TF.SameCoordinates,Original*
G04 #@! TF.FileFunction,Copper,L8,Bot*
G04 #@! TF.FilePolarity,Positive*
%FSLAX46Y46*%
G04 Gerber Fmt 4.6, Leading zero omitted, Abs format (unit mm)*
G04 Created by KiCad (PCBNEW (6.0.6)) date 2023-02-28 19:52:46*
%MOMM*%
%LPD*%
G01*
G04 APERTURE LIST*
G04 Aperture macros list*
%AMRoundRect*
0 Rectangle with rounded corners*
0 $1 Rounding radius*
0 $2 $3 $4 $5 $6 $7 $8 $9 X,Y pos of 4 corners*
0 Add a 4 corners polygon primitive as box body*
4,1,4,$2,$3,$4,$5,$6,$7,$8,$9,$2,$3,0*
0 Add four circle primitives for the rounded corners*
1,1,$1+$1,$2,$3*
1,1,$1+$1,$4,$5*
1,1,$1+$1,$6,$7*
1,1,$1+$1,$8,$9*
0 Add four rect primitives between the rounded corners*
20,1,$1+$1,$2,$3,$4,$5,0*
20,1,$1+$1,$4,$5,$6,$7,0*
20,1,$1+$1,$6,$7,$8,$9,0*
20,1,$1+$1,$8,$9,$2,$3,0*%
%AMRotRect*
0 Rectangle, with rotation*
0 The origin of the aperture is its center*
0 $1 length*
0 $2 width*
0 $3 Rotation angle, in degrees counterclockwise*
0 Add horizontal line*
21,1,$1,$2,0,0,$3*%
G04 Aperture macros list end*
G04 #@! TA.AperFunction,ComponentPad*
%ADD10O,1.000000X2.200000*%
G04 #@! TD*
G04 #@! TA.AperFunction,ComponentPad*
%ADD11O,1.000000X1.800000*%
G04 #@! TD*
G04 #@! TA.AperFunction,SMDPad,CuDef*
%ADD12RotRect,1.200000X1.000000X315.000000*%
G04 #@! TD*
G04 #@! TA.AperFunction,SMDPad,CuDef*
%ADD13RoundRect,0.225000X0.017678X-0.335876X0.335876X-0.017678X-0.017678X0.335876X-0.335876X0.017678X0*%
G04 #@! TD*
G04 #@! TA.AperFunction,SMDPad,CuDef*
%ADD14RoundRect,0.225000X-0.250000X0.225000X-0.250000X-0.225000X0.250000X-0.225000X0.250000X0.225000X0*%
G04 #@! TD*
G04 #@! TA.AperFunction,ComponentPad*
%ADD15R,1.700000X1.700000*%
G04 #@! TD*
G04 #@! TA.AperFunction,SMDPad,CuDef*
%ADD16R,0.250000X0.350000*%
G04 #@! TD*
G04 #@! TA.AperFunction,SMDPad,CuDef*
%ADD17RoundRect,0.225000X-0.225000X-0.250000X0.225000X-0.250000X0.225000X0.250000X-0.225000X0.250000X0*%
G04 #@! TD*
G04 #@! TA.AperFunction,SMDPad,CuDef*
%ADD18R,1.100000X2.000000*%
G04 #@! TD*
G04 #@! TA.AperFunction,SMDPad,CuDef*
%ADD19R,0.800000X0.800000*%
G04 #@! TD*
G04 #@! TA.AperFunction,SMDPad,CuDef*
%ADD20RotRect,0.350000X0.250000X135.000000*%
G04 #@! TD*
G04 #@! TA.AperFunction,SMDPad,CuDef*
%ADD21R,0.600000X0.700000*%
G04 #@! TD*
G04 #@! TA.AperFunction,SMDPad,CuDef*
%ADD22RoundRect,0.225000X0.225000X0.250000X-0.225000X0.250000X-0.225000X-0.250000X0.225000X-0.250000X0*%
G04 #@! TD*
G04 #@! TA.AperFunction,SMDPad,CuDef*
%ADD23RoundRect,0.006000X0.094000X-0.319000X0.094000X0.319000X-0.094000X0.319000X-0.094000X-0.319000X0*%
G04 #@! TD*
G04 #@! TA.AperFunction,SMDPad,CuDef*
%ADD24R,0.940000X0.300000*%
G04 #@! TD*
G04 #@! TA.AperFunction,SMDPad,CuDef*
%ADD25RotRect,0.350000X0.250000X315.000000*%
G04 #@! TD*
G04 #@! TA.AperFunction,SMDPad,CuDef*
%ADD26RoundRect,0.225000X-0.017678X0.335876X-0.335876X0.017678X0.017678X-0.335876X0.335876X-0.017678X0*%
G04 #@! TD*
G04 #@! TA.AperFunction,SMDPad,CuDef*
%ADD27R,1.150000X1.450000*%
G04 #@! TD*
G04 #@! TA.AperFunction,SMDPad,CuDef*
%ADD28RoundRect,0.243750X0.456250X-0.243750X0.456250X0.243750X-0.456250X0.243750X-0.456250X-0.243750X0*%
G04 #@! TD*
G04 #@! TA.AperFunction,ViaPad*
%ADD29C,0.500000*%
G04 #@! TD*
G04 #@! TA.AperFunction,Conductor*
%ADD30C,0.127000*%
G04 #@! TD*
G04 #@! TA.AperFunction,Conductor*
%ADD31C,0.500000*%
G04 #@! TD*
G04 #@! TA.AperFunction,Conductor*
%ADD32C,0.203200*%
G04 #@! TD*
G04 #@! TA.AperFunction,Conductor*
%ADD33C,0.150000*%
G04 #@! TD*
G04 APERTURE END LIST*
D10*
X90680000Y-19048199D03*
X82040000Y-19048199D03*
D11*
X90680000Y-23048200D03*
X82040000Y-23048200D03*
D12*
X83145179Y-71354740D03*
X84347260Y-72556821D03*
X83428021Y-73476060D03*
X82225940Y-72273979D03*
D13*
X84755984Y-70184016D03*
X85852000Y-69088000D03*
D14*
X86360000Y-143231948D03*
X86360000Y-144781948D03*
D15*
X82550000Y-177800000D03*
D14*
X86360000Y-177024986D03*
X86360000Y-178574986D03*
D16*
X87524000Y-26035000D03*
X86974000Y-26035000D03*
D15*
X90170000Y-175260000D03*
D14*
X86360000Y-124458038D03*
X86360000Y-126008038D03*
D15*
X82550000Y-152400000D03*
X90170000Y-167640000D03*
D17*
X85585000Y-29845000D03*
X87135000Y-29845000D03*
D15*
X82550000Y-121920000D03*
D18*
X88900000Y-20005000D03*
D19*
X88900000Y-21905000D03*
D15*
X82550000Y-27940000D03*
X82550000Y-106680000D03*
X82550000Y-38100000D03*
X82550000Y-30480000D03*
D20*
X82160254Y-70849346D03*
X81771346Y-71238254D03*
D15*
X90170000Y-27940000D03*
D16*
X85365000Y-37719000D03*
X84815000Y-37719000D03*
D14*
X86360000Y-90665000D03*
X86360000Y-92215000D03*
D15*
X90170000Y-30480000D03*
D14*
X86360000Y-101929346D03*
X86360000Y-103479346D03*
D15*
X90170000Y-35560000D03*
X82550000Y-137160000D03*
X90170000Y-177800000D03*
D13*
X85833615Y-71261647D03*
X86929631Y-70165631D03*
D14*
X86360000Y-154496294D03*
X86360000Y-156046294D03*
D18*
X86360000Y-21270000D03*
D19*
X86360000Y-19370000D03*
D15*
X82550000Y-76200000D03*
D14*
X86360000Y-162005858D03*
X86360000Y-163555858D03*
X86360000Y-169515422D03*
X86360000Y-171065422D03*
D15*
X90170000Y-137160000D03*
D14*
X86360000Y-150741512D03*
X86360000Y-152291512D03*
D15*
X90170000Y-152400000D03*
X82550000Y-175260000D03*
D21*
X87368000Y-38100000D03*
X86368000Y-38100000D03*
D15*
X82550000Y-33020000D03*
X82550000Y-60960000D03*
D14*
X86360000Y-105684128D03*
X86360000Y-107234128D03*
D15*
X90170000Y-38100000D03*
D22*
X87135000Y-33655000D03*
X85585000Y-33655000D03*
D14*
X86360000Y-139477166D03*
X86360000Y-141027166D03*
D23*
X86760000Y-32375000D03*
X86360000Y-32375000D03*
X85960000Y-32375000D03*
X85960000Y-31125000D03*
X86360000Y-31125000D03*
X86760000Y-31125000D03*
D24*
X86360000Y-31750000D03*
D15*
X82550000Y-35560000D03*
D25*
X84844746Y-73778254D03*
X85233654Y-73389346D03*
D14*
X86360000Y-135722384D03*
X86360000Y-137272384D03*
X86360000Y-158251076D03*
X86360000Y-159801076D03*
X86360000Y-128212820D03*
X86360000Y-129762820D03*
X86360000Y-98174564D03*
X86360000Y-99724564D03*
D26*
X87989301Y-66950699D03*
X86893285Y-68046715D03*
D14*
X86360000Y-94419782D03*
X86360000Y-95969782D03*
D15*
X90170000Y-60960000D03*
D14*
X86360000Y-146986730D03*
X86360000Y-148536730D03*
X86360000Y-165760640D03*
X86360000Y-167310640D03*
D27*
X85460000Y-27940000D03*
X87260000Y-27940000D03*
D14*
X86345000Y-113193692D03*
X86345000Y-114743692D03*
X86360000Y-120703256D03*
X86360000Y-122253256D03*
D15*
X90170000Y-106680000D03*
D13*
X83681563Y-69100879D03*
X84777579Y-68004863D03*
D15*
X90170000Y-45720000D03*
X90170000Y-121920000D03*
X90170000Y-91440000D03*
D14*
X86345000Y-109438910D03*
X86345000Y-110988910D03*
D15*
X90170000Y-33020000D03*
D26*
X86911670Y-65873068D03*
X85815654Y-66969084D03*
X89066932Y-68028330D03*
X87970916Y-69124346D03*
D15*
X82550000Y-167640000D03*
D16*
X85365000Y-38481000D03*
X84815000Y-38481000D03*
D15*
X82550000Y-91440000D03*
D14*
X86360000Y-173270204D03*
X86360000Y-174820204D03*
D15*
X82550000Y-45720000D03*
D16*
X85577000Y-34798000D03*
X86127000Y-34798000D03*
D14*
X86360000Y-131967602D03*
X86360000Y-133517602D03*
D28*
X83820000Y-21257500D03*
X83820000Y-19382500D03*
D14*
X86360000Y-116948474D03*
X86360000Y-118498474D03*
D15*
X90170000Y-76200000D03*
D29*
X82956400Y-71348600D03*
X86360000Y-149148800D03*
X85480000Y-67680000D03*
X86360000Y-104089200D03*
X86360000Y-134162800D03*
X87122000Y-60198000D03*
X86360000Y-92811600D03*
X87122000Y-57912000D03*
X86360000Y-167944800D03*
X86370000Y-68570000D03*
X86360000Y-164185600D03*
X85979000Y-36576000D03*
X86368000Y-78482000D03*
X86360000Y-145389600D03*
X86360000Y-115366800D03*
X86360000Y-152908000D03*
X86360000Y-141630400D03*
X82289650Y-24707850D03*
X86360000Y-111607600D03*
X86360000Y-160426400D03*
X82550000Y-44373800D03*
X86360000Y-119126000D03*
X86360000Y-126644400D03*
X86360000Y-179171600D03*
X86360000Y-171704000D03*
X86360000Y-122885200D03*
X86360000Y-100330000D03*
X86360000Y-175463200D03*
X87290000Y-69470000D03*
X86360000Y-85090000D03*
X88842850Y-26790650D03*
X86360000Y-96621600D03*
X82042000Y-53086000D03*
X86360000Y-107848400D03*
X83760000Y-72510000D03*
X86360000Y-137922000D03*
X81788000Y-25603200D03*
X86360000Y-130403600D03*
X86360000Y-156667200D03*
X90322400Y-24663400D03*
X90551000Y-25654000D03*
X82600800Y-72136000D03*
X88442800Y-67005200D03*
X84740000Y-70160000D03*
X83730000Y-73260000D03*
X88011000Y-31242000D03*
X84890000Y-29680000D03*
X86360000Y-127609600D03*
X86360000Y-165150800D03*
X88011000Y-32258000D03*
X84836000Y-31242000D03*
X86360000Y-131368800D03*
X85585000Y-29035000D03*
X86360000Y-142646400D03*
X86360000Y-150114000D03*
X86360000Y-108813600D03*
X84836000Y-32258000D03*
X86360000Y-135128000D03*
X86360000Y-112572800D03*
X86360000Y-93827600D03*
X86360000Y-146405600D03*
X86360000Y-101346000D03*
X86360000Y-123850400D03*
X86360000Y-161391600D03*
X86360000Y-138887200D03*
X86360000Y-168910000D03*
X86360000Y-176428400D03*
X86360000Y-105105200D03*
X86360000Y-85826600D03*
X86360000Y-116332000D03*
X86360000Y-157632400D03*
X86360000Y-90068400D03*
X86360000Y-120091200D03*
X86360000Y-172669200D03*
X86360000Y-153873200D03*
X86360000Y-97586800D03*
X87020400Y-65887600D03*
X86360000Y-75996800D03*
X86360000Y-84353400D03*
X83058000Y-53086000D03*
X89103200Y-68326000D03*
X83667600Y-69113400D03*
X86360000Y-79375000D03*
X87077342Y-71309331D03*
X86430000Y-73700000D03*
X89585800Y-65405000D03*
X83362800Y-25273000D03*
X83921600Y-25730200D03*
X83870800Y-24765000D03*
X82829400Y-25730200D03*
X85801200Y-65455800D03*
X82290000Y-64990000D03*
X82804000Y-65862200D03*
X83413600Y-65455800D03*
X84836000Y-66548000D03*
X85369400Y-66040000D03*
X89052400Y-69418200D03*
X90830400Y-70205600D03*
X89585800Y-68884800D03*
X90226400Y-64223824D03*
X86760000Y-50050000D03*
X87460000Y-50050000D03*
X90926400Y-64223824D03*
X81870000Y-74676000D03*
X86360000Y-80873600D03*
X86370911Y-80137000D03*
X82270600Y-74041000D03*
X84836000Y-53848000D03*
X89484200Y-64617600D03*
X89001600Y-64058800D03*
X84836000Y-52984400D03*
X84836000Y-52070000D03*
X88493600Y-63525400D03*
X86360000Y-72136000D03*
X82300000Y-63960000D03*
X90100000Y-71050000D03*
X88580000Y-70030000D03*
X89040000Y-72650000D03*
X89480000Y-73450000D03*
X87880000Y-70750000D03*
X88070000Y-72820000D03*
X82550000Y-39446200D03*
D30*
X82956400Y-71348600D02*
X82457146Y-70849346D01*
X82457146Y-70849346D02*
X82160254Y-70849346D01*
D31*
X88773000Y-32715200D02*
X88773000Y-30657800D01*
D30*
X86360000Y-104089200D02*
X86360000Y-103479346D01*
D31*
X85585000Y-33655000D02*
X85572600Y-33655000D01*
D30*
X86360000Y-164185600D02*
X86360000Y-163555858D01*
X86360000Y-145389600D02*
X86360000Y-144781948D01*
X86360000Y-31750000D02*
X86030000Y-31750000D01*
X86368000Y-36965000D02*
X85979000Y-36576000D01*
X86360000Y-114758692D02*
X86345000Y-114743692D01*
D31*
X87960200Y-29845000D02*
X87135000Y-29845000D01*
D30*
X86360000Y-100330000D02*
X86360000Y-99724564D01*
X86360000Y-167944800D02*
X86360000Y-167310640D01*
X81771346Y-71238254D02*
X81771346Y-71458946D01*
D31*
X84937600Y-33020000D02*
X82550000Y-33020000D01*
D30*
X86360000Y-92811600D02*
X86360000Y-92215000D01*
X85960000Y-31820000D02*
X85960000Y-32375000D01*
X87524000Y-27676000D02*
X87260000Y-27940000D01*
X86360000Y-175463200D02*
X86360000Y-174820204D01*
D31*
X87260000Y-29720000D02*
X87135000Y-29845000D01*
D30*
X86360000Y-119126000D02*
X86360000Y-118498474D01*
X86360000Y-96621600D02*
X86360000Y-95969782D01*
X86030000Y-31750000D02*
X85960000Y-31820000D01*
D32*
X85960000Y-33280000D02*
X85585000Y-33655000D01*
D30*
X86368000Y-38100000D02*
X86368000Y-36965000D01*
X86360000Y-134162800D02*
X86360000Y-133517602D01*
D31*
X89077800Y-33020000D02*
X88773000Y-32715200D01*
X88773000Y-30657800D02*
X87960200Y-29845000D01*
D30*
X85200346Y-73389346D02*
X84367821Y-72556821D01*
X86360000Y-107848400D02*
X86360000Y-107234128D01*
D32*
X85960000Y-32375000D02*
X85960000Y-33280000D01*
D31*
X85572600Y-33655000D02*
X84937600Y-33020000D01*
D30*
X85233654Y-73389346D02*
X85200346Y-73389346D01*
X86360000Y-115366800D02*
X86360000Y-114758692D01*
X85577000Y-34798000D02*
X85577000Y-33663000D01*
X86360000Y-111607600D02*
X86360000Y-111003910D01*
X85577000Y-33663000D02*
X85585000Y-33655000D01*
X86360000Y-111003910D02*
X86345000Y-110988910D01*
X86360000Y-171704000D02*
X86360000Y-171065422D01*
X86360000Y-122885200D02*
X86360000Y-122253256D01*
X87524000Y-26035000D02*
X87524000Y-27676000D01*
D31*
X87260000Y-27940000D02*
X87260000Y-29720000D01*
D30*
X86360000Y-141630400D02*
X86360000Y-141027166D01*
X86360000Y-156667200D02*
X86360000Y-156046294D01*
X81771346Y-71458946D02*
X82245200Y-71932800D01*
X86360000Y-130403600D02*
X86360000Y-129762820D01*
X86360000Y-152908000D02*
X86360000Y-152291512D01*
D31*
X90170000Y-33020000D02*
X89077800Y-33020000D01*
D30*
X86360000Y-149148800D02*
X86360000Y-148536730D01*
X86360000Y-179171600D02*
X86360000Y-178574986D01*
X86360000Y-126644400D02*
X86360000Y-126008038D01*
X86360000Y-137922000D02*
X86360000Y-137272384D01*
X86360000Y-160426400D02*
X86360000Y-159801076D01*
X84367821Y-72556821D02*
X84347260Y-72556821D01*
X88442800Y-67577200D02*
X88442800Y-67005200D01*
X85860000Y-70160000D02*
X88442800Y-67577200D01*
X84740000Y-70160000D02*
X85860000Y-70160000D01*
X84844746Y-73778254D02*
X83730215Y-73778254D01*
X83730215Y-73778254D02*
X83428021Y-73476060D01*
D31*
X83947000Y-30251400D02*
X83947000Y-27127200D01*
X82550000Y-30480000D02*
X83718400Y-30480000D01*
X85113100Y-19382500D02*
X86347500Y-19382500D01*
X85113100Y-25961100D02*
X85113100Y-19382500D01*
X83947000Y-27127200D02*
X85113100Y-25961100D01*
X83820000Y-19382500D02*
X85113100Y-19382500D01*
X83718400Y-30480000D02*
X83947000Y-30251400D01*
X86347500Y-19382500D02*
X86360000Y-19370000D01*
D30*
X86360000Y-157632400D02*
X86360000Y-158251076D01*
X86360000Y-108813600D02*
X86360000Y-109423910D01*
X86360000Y-97586800D02*
X86360000Y-98174564D01*
X86360000Y-131368800D02*
X86360000Y-131967602D01*
D31*
X86360000Y-21270000D02*
X87315000Y-21270000D01*
D30*
X86360000Y-176428400D02*
X86360000Y-177024986D01*
X86360000Y-116332000D02*
X86360000Y-116948474D01*
X86360000Y-113178692D02*
X86345000Y-113193692D01*
X86360000Y-153873200D02*
X86360000Y-154496294D01*
X86360000Y-123850400D02*
X86360000Y-124458038D01*
D31*
X87315000Y-21270000D02*
X87630000Y-20955000D01*
D30*
X86360000Y-112572800D02*
X86360000Y-113178692D01*
X86360000Y-127609600D02*
X86360000Y-128212820D01*
D31*
X85585000Y-28065000D02*
X85460000Y-27940000D01*
D30*
X86360000Y-90068400D02*
X86360000Y-90665000D01*
X86360000Y-101346000D02*
X86360000Y-101929346D01*
X86360000Y-168910000D02*
X86360000Y-169515422D01*
X86360000Y-165150800D02*
X86360000Y-165760640D01*
X86360000Y-135128000D02*
X86360000Y-135722384D01*
D31*
X87630000Y-20955000D02*
X87630000Y-20193000D01*
D30*
X86360000Y-109423910D02*
X86345000Y-109438910D01*
X86974000Y-26035000D02*
X86487000Y-26035000D01*
D31*
X85585000Y-29035000D02*
X85585000Y-28065000D01*
D30*
X86360000Y-172669200D02*
X86360000Y-173270204D01*
X86360000Y-120091200D02*
X86360000Y-120703256D01*
X86360000Y-150114000D02*
X86360000Y-150741512D01*
X86360000Y-138887200D02*
X86360000Y-139477166D01*
X86360000Y-105105200D02*
X86360000Y-105684128D01*
D31*
X86360000Y-26289000D02*
X86360000Y-25908000D01*
X87818000Y-20005000D02*
X88900000Y-20005000D01*
D30*
X86487000Y-26035000D02*
X86360000Y-25908000D01*
D31*
X85585000Y-29845000D02*
X85585000Y-29035000D01*
D30*
X86360000Y-146405600D02*
X86360000Y-146986730D01*
D31*
X85460000Y-27940000D02*
X85460000Y-27189000D01*
X85460000Y-27189000D02*
X86360000Y-26289000D01*
X87630000Y-20193000D02*
X87818000Y-20005000D01*
D30*
X86360000Y-93827600D02*
X86360000Y-94419782D01*
D31*
X86360000Y-25908000D02*
X86360000Y-21270000D01*
D30*
X86360000Y-161391600D02*
X86360000Y-162005858D01*
X86360000Y-142646400D02*
X86360000Y-143231948D01*
D32*
X86360000Y-32867600D02*
X86506000Y-33013600D01*
D30*
X83680121Y-69100879D02*
X83667600Y-69113400D01*
D32*
X86360000Y-32375000D02*
X86360000Y-32867600D01*
D31*
X87020400Y-35560000D02*
X90170000Y-35560000D01*
D30*
X87077342Y-71309331D02*
X85881299Y-71309331D01*
D33*
X87135000Y-33388600D02*
X86760000Y-33013600D01*
D32*
X86506000Y-33013600D02*
X86760000Y-33013600D01*
D30*
X85365000Y-35581000D02*
X85344000Y-35560000D01*
D31*
X82550000Y-35560000D02*
X85344000Y-35560000D01*
D30*
X89103200Y-68064598D02*
X89066932Y-68028330D01*
D32*
X86760000Y-32375000D02*
X86760000Y-33013600D01*
D30*
X85881299Y-71309331D02*
X85833615Y-71261647D01*
X86127000Y-34798000D02*
X87122000Y-34798000D01*
D31*
X86233000Y-35560000D02*
X87020400Y-35560000D01*
D33*
X87135000Y-33655000D02*
X87135000Y-33388600D01*
D30*
X89103200Y-68326000D02*
X89103200Y-68064598D01*
X83681563Y-69100879D02*
X83680121Y-69100879D01*
D31*
X85344000Y-35560000D02*
X86233000Y-35560000D01*
X87147400Y-35433000D02*
X87147400Y-33667400D01*
X87020400Y-35560000D02*
X87147400Y-35433000D01*
D30*
X85365000Y-37719000D02*
X85365000Y-35581000D01*
D31*
X83947000Y-24688800D02*
X83870800Y-24765000D01*
X83947000Y-23342600D02*
X83947000Y-24688800D01*
X83820000Y-23215600D02*
X83947000Y-23342600D01*
X83820000Y-21257500D02*
X83820000Y-23215600D01*
D30*
X84251800Y-63906400D02*
X84251800Y-57810400D01*
X84074000Y-57632600D02*
X84074000Y-47244000D01*
X85801200Y-65455800D02*
X84251800Y-63906400D01*
X84074000Y-47244000D02*
X82550000Y-45720000D01*
X84251800Y-57810400D02*
X84074000Y-57632600D01*
D32*
X86951250Y-50241250D02*
X86951250Y-51245758D01*
X86951250Y-51245758D02*
X87851250Y-52145758D01*
X90417650Y-64032574D02*
X90226400Y-64223824D01*
X87851250Y-61865758D02*
X89274242Y-63288750D01*
X89274242Y-63288750D02*
X89964242Y-63288750D01*
X90417650Y-63742158D02*
X90417650Y-64032574D01*
X86760000Y-50050000D02*
X86951250Y-50241250D01*
X89964242Y-63288750D02*
X90417650Y-63742158D01*
X87851250Y-52145758D02*
X87851250Y-61865758D01*
X87268750Y-51114242D02*
X88168750Y-52014242D01*
X88168750Y-61734242D02*
X89405758Y-62971250D01*
X90735150Y-64032574D02*
X90926400Y-64223824D01*
X90095758Y-62971250D02*
X90735150Y-63610642D01*
X90735150Y-63610642D02*
X90735150Y-64032574D01*
X87268750Y-50241250D02*
X87268750Y-51114242D01*
X89405758Y-62971250D02*
X90095758Y-62971250D01*
X88168750Y-52014242D02*
X88168750Y-61734242D01*
X87460000Y-50050000D02*
X87268750Y-50241250D01*
D31*
X90170000Y-26314400D02*
X90170000Y-27940000D01*
X88900000Y-25044400D02*
X90170000Y-26314400D01*
X88900000Y-21905000D02*
X88900000Y-25044400D01*
D30*
X83840000Y-75380000D02*
X83840000Y-79230000D01*
X82174000Y-74980000D02*
X83440000Y-74980000D01*
X83440000Y-74980000D02*
X83840000Y-75380000D01*
X81870000Y-74676000D02*
X82174000Y-74980000D01*
X83840000Y-79230000D02*
X85483600Y-80873600D01*
X85483600Y-80873600D02*
X86360000Y-80873600D01*
X85877000Y-80137000D02*
X86370911Y-80137000D01*
X82779600Y-74550000D02*
X83740000Y-74550000D01*
X84520000Y-78780000D02*
X85877000Y-80137000D01*
X82270600Y-74041000D02*
X82779600Y-74550000D01*
X83740000Y-74550000D02*
X84520000Y-75330000D01*
X84520000Y-75330000D02*
X84520000Y-78780000D01*
X88798400Y-65303400D02*
X87807800Y-65303400D01*
X89484200Y-64617600D02*
X88798400Y-65303400D01*
X87807800Y-65303400D02*
X84836000Y-62331600D01*
X84836000Y-62331600D02*
X84836000Y-53848000D01*
X88341200Y-64719200D02*
X88087200Y-64719200D01*
X85699600Y-62331600D02*
X85699600Y-54000400D01*
X89001600Y-64058800D02*
X88341200Y-64719200D01*
X85699600Y-54000400D02*
X84836000Y-53136800D01*
X88087200Y-64719200D02*
X85699600Y-62331600D01*
X84836000Y-53136800D02*
X84836000Y-52984400D01*
X85039200Y-52070000D02*
X84836000Y-52070000D01*
X88493600Y-63525400D02*
X88061800Y-63525400D01*
X88061800Y-63525400D02*
X86410800Y-61874400D01*
X86410800Y-61874400D02*
X86410800Y-53441600D01*
X86410800Y-53441600D02*
X85039200Y-52070000D01*
X87368000Y-38100000D02*
X90170000Y-38100000D01*
X84794000Y-38100000D02*
X84815000Y-38121000D01*
X84815000Y-38481000D02*
X84815000Y-38121000D01*
X84815000Y-38121000D02*
X84815000Y-37719000D01*
X82550000Y-38100000D02*
X84794000Y-38100000D01*
X85365000Y-38481000D02*
X85365000Y-39069600D01*
X85365000Y-39069600D02*
X84988400Y-39446200D01*
X84988400Y-39446200D02*
X82550000Y-39446200D01*
G04 #@! TA.AperFunction,Conductor*
G36*
X84193921Y-23743602D02*
G01*
X84240414Y-23797258D01*
X84251800Y-23849600D01*
X84251800Y-24839810D01*
X84231798Y-24907931D01*
X84214895Y-24928905D01*
X84175600Y-24968200D01*
X84175600Y-25858200D01*
X84155598Y-25926321D01*
X84101942Y-25972814D01*
X84049600Y-25984200D01*
X82701400Y-25984200D01*
X82633279Y-25964198D01*
X82586786Y-25910542D01*
X82575400Y-25858200D01*
X82575400Y-25313328D01*
X82595402Y-25245207D01*
X82629305Y-25209992D01*
X83159899Y-24839810D01*
X83667600Y-24485600D01*
X83667600Y-23849600D01*
X83687602Y-23781479D01*
X83741258Y-23734986D01*
X83793600Y-23723600D01*
X84125800Y-23723600D01*
X84193921Y-23743602D01*
G37*
G04 #@! TD.AperFunction*
G04 #@! TA.AperFunction,Conductor*
G36*
X85772544Y-66604622D02*
G01*
X85813951Y-66630071D01*
X86689272Y-67437691D01*
X87270595Y-67974052D01*
X87307097Y-68034947D01*
X87304883Y-68105909D01*
X87274248Y-68155752D01*
X85935752Y-69494248D01*
X85873440Y-69528274D01*
X85802625Y-69523209D01*
X85754052Y-69490595D01*
X84522451Y-68155752D01*
X84410072Y-68033952D01*
X84378580Y-67970325D01*
X84386488Y-67899770D01*
X84413583Y-67859417D01*
X85639417Y-66633583D01*
X85701729Y-66599557D01*
X85772544Y-66604622D01*
G37*
G04 #@! TD.AperFunction*
G04 #@! TA.AperFunction,Conductor*
G36*
X86048121Y-29357002D02*
G01*
X86094614Y-29410658D01*
X86106000Y-29463000D01*
X86106000Y-30734000D01*
X88083539Y-30734000D01*
X88151660Y-30754002D01*
X88172634Y-30770905D01*
X88231595Y-30829866D01*
X88265621Y-30892178D01*
X88268500Y-30918961D01*
X88268500Y-32386000D01*
X88248498Y-32454121D01*
X88194842Y-32500614D01*
X88142500Y-32512000D01*
X87248000Y-32512000D01*
X87179879Y-32491998D01*
X87133386Y-32438342D01*
X87122000Y-32386000D01*
X87122000Y-31242000D01*
X85598000Y-31242000D01*
X85598000Y-32386000D01*
X85577998Y-32454121D01*
X85524342Y-32500614D01*
X85472000Y-32512000D01*
X84914437Y-32512000D01*
X84914280Y-32511994D01*
X84914192Y-32512000D01*
X84909756Y-32512000D01*
X84906474Y-32511756D01*
X84906197Y-32511695D01*
X84905101Y-32511654D01*
X84902934Y-32511493D01*
X84902972Y-32510982D01*
X84900558Y-32510449D01*
X84900558Y-32512000D01*
X84454000Y-32512000D01*
X84385879Y-32491998D01*
X84339386Y-32438342D01*
X84328000Y-32386000D01*
X84328000Y-30629858D01*
X84348002Y-30561737D01*
X84359560Y-30546449D01*
X84367060Y-30537957D01*
X84373001Y-30531230D01*
X84376814Y-30523108D01*
X84378654Y-30520307D01*
X84387063Y-30506312D01*
X84388685Y-30503349D01*
X84394070Y-30496164D01*
X84397224Y-30487752D01*
X84410546Y-30452218D01*
X84414471Y-30442902D01*
X84434417Y-30400418D01*
X84435799Y-30391544D01*
X84436785Y-30388317D01*
X84440920Y-30372554D01*
X84441644Y-30369260D01*
X84444798Y-30360848D01*
X84448276Y-30314050D01*
X84449426Y-30304026D01*
X84451500Y-30290703D01*
X84451500Y-30275338D01*
X84451846Y-30266001D01*
X84454842Y-30225682D01*
X84455507Y-30216734D01*
X84453634Y-30207959D01*
X84453041Y-30199263D01*
X84451500Y-30184663D01*
X84451500Y-29463000D01*
X84471502Y-29394879D01*
X84525158Y-29348386D01*
X84577500Y-29337000D01*
X85980000Y-29337000D01*
X86048121Y-29357002D01*
G37*
G04 #@! TD.AperFunction*
G04 #@! TA.AperFunction,Conductor*
G36*
X87929587Y-68644299D02*
G01*
X87973952Y-68672567D01*
X88439508Y-69130911D01*
X88474019Y-69192956D01*
X88469507Y-69263809D01*
X88440206Y-69309794D01*
X87218859Y-70531141D01*
X87156547Y-70565167D01*
X87085732Y-70560102D01*
X87040906Y-70531378D01*
X86577728Y-70070656D01*
X86543537Y-70008434D01*
X86548414Y-69937605D01*
X86577491Y-69892229D01*
X87796460Y-68673260D01*
X87858772Y-68639234D01*
X87929587Y-68644299D01*
G37*
G04 #@! TD.AperFunction*
M02*
