M48
METRIC,TZ
T1C0.450
T2C2.000
%
G90
G05
T1
X64659Y-26000
X64659Y-189830
X65238Y-26000
X65238Y-189830
X65818Y-26000
X65818Y-189830
X66397Y-26000
X66397Y-189830
X66976Y-26000
X66976Y-189830
X67556Y-26000
X67556Y-189830
X68135Y-26000
X68135Y-189830
X68715Y-26000
X68715Y-189830
X69294Y-26000
X69294Y-189830
X69873Y-26000
X69873Y-189830
X70453Y-26000
X70453Y-189830
X71032Y-26000
X71032Y-189830
X71612Y-26000
X71612Y-189830
X72191Y-26000
X72191Y-189830
X72770Y-26000
X72770Y-189830
X73350Y-26000
X73350Y-189830
X73929Y-26000
X73929Y-189830
X74508Y-26000
X74508Y-189830
X75088Y-26000
X75088Y-189830
X75667Y-26000
X75667Y-189830
X76247Y-26000
X76247Y-189830
X76826Y-26000
X76826Y-189830
X77405Y-26000
X77405Y-189830
X77985Y-26000
X77985Y-189830
X78564Y-26000
X78564Y-189830
X79144Y-26000
X79144Y-189830
X79723Y-26000
X79723Y-189830
X80302Y-26000
X80302Y-189830
X80882Y-26000
X80882Y-189830
X81461Y-26000
X81461Y-189830
X84070Y-106315
X84070Y-106955
X84070Y-107595
X84070Y-108235
X84070Y-108875
X84070Y-109515
X87500Y-26050
X87500Y-189780
X88140Y-26050
X88140Y-189780
X88780Y-26050
X88780Y-189780
X89420Y-26050
X89420Y-189780
X90060Y-26050
X90060Y-189780
X90700Y-26050
X90700Y-189780
X94130Y-106315
X94130Y-106955
X94130Y-107595
X94130Y-108235
X94130Y-108875
X94130Y-109515
X96739Y-26000
X96739Y-189830
X97318Y-26000
X97318Y-189830
X97898Y-26000
X97898Y-189830
X98477Y-26000
X98477Y-189830
X99056Y-26000
X99056Y-189830
X99636Y-26000
X99636Y-189830
X100215Y-26000
X100215Y-189830
X100795Y-26000
X100795Y-189830
X101374Y-26000
X101374Y-189830
X101953Y-26000
X101953Y-189830
X102533Y-26000
X102533Y-189830
X103112Y-26000
X103112Y-189830
X103692Y-26000
X103692Y-189830
X104271Y-26000
X104271Y-189830
X104850Y-26000
X104850Y-189830
X105430Y-26000
X105430Y-189830
X106009Y-26000
X106009Y-189830
X106588Y-26000
X106588Y-189830
X107168Y-26000
X107168Y-189830
X107747Y-26000
X107747Y-189830
X108327Y-26000
X108327Y-189830
X108906Y-26000
X108906Y-189830
X109485Y-26000
X109485Y-189830
X110065Y-26000
X110065Y-189830
X110644Y-26000
X110644Y-189830
X111224Y-26000
X111224Y-189830
X111803Y-26000
X111803Y-189830
X112382Y-26000
X112382Y-189830
X112962Y-26000
X112962Y-189830
X113541Y-26000
X113541Y-189830
T2
X66600Y-22000
X66600Y-193830
X111600Y-22000
X111600Y-193830
T0
M30
