G04 #@! TF.GenerationSoftware,KiCad,Pcbnew,(6.0.6)*
G04 #@! TF.CreationDate,2023-03-02T22:16:17-07:00*
G04 #@! TF.ProjectId,RP2040-Breadstick,52503230-3430-42d4-9272-656164737469,0.1*
G04 #@! TF.SameCoordinates,Original*
G04 #@! TF.FileFunction,Paste,Bot*
G04 #@! TF.FilePolarity,Positive*
%FSLAX46Y46*%
G04 Gerber Fmt 4.6, Leading zero omitted, Abs format (unit mm)*
G04 Created by KiCad (PCBNEW (6.0.6)) date 2023-03-02 22:16:17*
%MOMM*%
%LPD*%
G01*
G04 APERTURE LIST*
G04 Aperture macros list*
%AMRoundRect*
0 Rectangle with rounded corners*
0 $1 Rounding radius*
0 $2 $3 $4 $5 $6 $7 $8 $9 X,Y pos of 4 corners*
0 Add a 4 corners polygon primitive as box body*
4,1,4,$2,$3,$4,$5,$6,$7,$8,$9,$2,$3,0*
0 Add four circle primitives for the rounded corners*
1,1,$1+$1,$2,$3*
1,1,$1+$1,$4,$5*
1,1,$1+$1,$6,$7*
1,1,$1+$1,$8,$9*
0 Add four rect primitives between the rounded corners*
20,1,$1+$1,$2,$3,$4,$5,0*
20,1,$1+$1,$4,$5,$6,$7,0*
20,1,$1+$1,$6,$7,$8,$9,0*
20,1,$1+$1,$8,$9,$2,$3,0*%
%AMRotRect*
0 Rectangle, with rotation*
0 The origin of the aperture is its center*
0 $1 length*
0 $2 width*
0 $3 Rotation angle, in degrees counterclockwise*
0 Add horizontal line*
21,1,$1,$2,0,0,$3*%
G04 Aperture macros list end*
%ADD10C,0.010000*%
%ADD11RoundRect,0.225000X0.017678X-0.335876X0.335876X-0.017678X-0.017678X0.335876X-0.335876X0.017678X0*%
%ADD12R,0.600000X0.700000*%
%ADD13R,0.250000X0.350000*%
%ADD14RoundRect,0.225000X-0.250000X0.225000X-0.250000X-0.225000X0.250000X-0.225000X0.250000X0.225000X0*%
%ADD15RotRect,0.350000X0.250000X135.000000*%
%ADD16RoundRect,0.225000X-0.017678X0.335876X-0.335876X0.017678X0.017678X-0.335876X0.335876X-0.017678X0*%
%ADD17RoundRect,0.006000X0.094000X-0.319000X0.094000X0.319000X-0.094000X0.319000X-0.094000X-0.319000X0*%
%ADD18RoundRect,0.225000X0.225000X0.250000X-0.225000X0.250000X-0.225000X-0.250000X0.225000X-0.250000X0*%
%ADD19RoundRect,0.225000X-0.225000X-0.250000X0.225000X-0.250000X0.225000X0.250000X-0.225000X0.250000X0*%
%ADD20R,1.100000X2.000000*%
%ADD21R,0.800000X0.800000*%
%ADD22RotRect,0.350000X0.250000X315.000000*%
%ADD23RoundRect,0.243750X0.456250X-0.243750X0.456250X0.243750X-0.456250X0.243750X-0.456250X-0.243750X0*%
%ADD24RotRect,1.200000X1.000000X315.000000*%
%ADD25R,1.150000X1.450000*%
G04 APERTURE END LIST*
G36*
X89492000Y-41312000D02*
G01*
X88708000Y-41312000D01*
X88708000Y-41168000D01*
X89492000Y-41168000D01*
X89492000Y-41312000D01*
G37*
D10*
X89492000Y-41312000D02*
X88708000Y-41312000D01*
X88708000Y-41168000D01*
X89492000Y-41168000D01*
X89492000Y-41312000D01*
D11*
X86421563Y-78590879D03*
X87517579Y-77494863D03*
D12*
X90108000Y-47590000D03*
X89108000Y-47590000D03*
D13*
X88317000Y-44288000D03*
X88867000Y-44288000D03*
D14*
X89100000Y-115174128D03*
X89100000Y-116724128D03*
X89100000Y-179005422D03*
X89100000Y-180555422D03*
D11*
X87495984Y-79674016D03*
X88592000Y-78578000D03*
D14*
X89100000Y-148967166D03*
X89100000Y-150517166D03*
D15*
X84900254Y-80339346D03*
X84511346Y-80728254D03*
D14*
X89100000Y-186514986D03*
X89100000Y-188064986D03*
D16*
X91806932Y-77518330D03*
X90710916Y-78614346D03*
D14*
X89100000Y-126438474D03*
X89100000Y-127988474D03*
X89100000Y-167741076D03*
X89100000Y-169291076D03*
D16*
X90729301Y-76440699D03*
X89633285Y-77536715D03*
D17*
X89500000Y-41865000D03*
X89100000Y-41865000D03*
X88700000Y-41865000D03*
X88700000Y-40615000D03*
X89100000Y-40615000D03*
X89500000Y-40615000D03*
D14*
X89100000Y-103909782D03*
X89100000Y-105459782D03*
D13*
X88105000Y-47971000D03*
X87555000Y-47971000D03*
D18*
X89875000Y-43145000D03*
X88325000Y-43145000D03*
D14*
X89100000Y-145212384D03*
X89100000Y-146762384D03*
D19*
X88325000Y-39335000D03*
X89875000Y-39335000D03*
D14*
X89100000Y-171495858D03*
X89100000Y-173045858D03*
D20*
X89100000Y-30760000D03*
D21*
X89100000Y-28860000D03*
D13*
X90264000Y-35525000D03*
X89714000Y-35525000D03*
X88105000Y-47209000D03*
X87555000Y-47209000D03*
D14*
X89085000Y-122683692D03*
X89085000Y-124233692D03*
X89100000Y-137702820D03*
X89100000Y-139252820D03*
D11*
X88573615Y-80751647D03*
X89669631Y-79655631D03*
D14*
X89100000Y-160231512D03*
X89100000Y-161781512D03*
X89100000Y-141457602D03*
X89100000Y-143007602D03*
D22*
X87584746Y-83268254D03*
X87973654Y-82879346D03*
D14*
X89100000Y-163986294D03*
X89100000Y-165536294D03*
X89100000Y-156476730D03*
X89100000Y-158026730D03*
X89100000Y-130193256D03*
X89100000Y-131743256D03*
D23*
X86560000Y-30747500D03*
X86560000Y-28872500D03*
D14*
X89100000Y-152721948D03*
X89100000Y-154271948D03*
X89085000Y-118928910D03*
X89085000Y-120478910D03*
X89100000Y-107664564D03*
X89100000Y-109214564D03*
X89100000Y-100155000D03*
X89100000Y-101705000D03*
X89100000Y-175250640D03*
X89100000Y-176800640D03*
D24*
X85885179Y-80844740D03*
X87087260Y-82046821D03*
X86168021Y-82966060D03*
X84965940Y-81763979D03*
D14*
X89100000Y-182760204D03*
X89100000Y-184310204D03*
D20*
X91640000Y-29495000D03*
D21*
X91640000Y-31395000D03*
D25*
X88200000Y-37430000D03*
X90000000Y-37430000D03*
D16*
X89651670Y-75363068D03*
X88555654Y-76459084D03*
D14*
X89100000Y-111419346D03*
X89100000Y-112969346D03*
X89100000Y-133948038D03*
X89100000Y-135498038D03*
M02*
