G04 #@! TF.GenerationSoftware,KiCad,Pcbnew,(6.0.6)*
G04 #@! TF.CreationDate,2023-03-02T22:16:17-07:00*
G04 #@! TF.ProjectId,RP2040-Breadstick,52503230-3430-42d4-9272-656164737469,0.1*
G04 #@! TF.SameCoordinates,Original*
G04 #@! TF.FileFunction,AssemblyDrawing,Top*
%FSLAX46Y46*%
G04 Gerber Fmt 4.6, Leading zero omitted, Abs format (unit mm)*
G04 Created by KiCad (PCBNEW (6.0.6)) date 2023-03-02 22:16:17*
%MOMM*%
%LPD*%
G01*
G04 APERTURE LIST*
%ADD10C,0.150000*%
%ADD11C,0.127000*%
%ADD12C,0.100000*%
%ADD13C,0.140000*%
%ADD14C,0.120000*%
%ADD15C,0.200000*%
G04 APERTURE END LIST*
D10*
X94840001Y-32565580D02*
X94840001Y-32803676D01*
X94601905Y-32708438D02*
X94840001Y-32803676D01*
X95078096Y-32708438D01*
X94697143Y-32994152D02*
X94840001Y-32803676D01*
X94982858Y-32994152D01*
X84742380Y-51400000D02*
X84980476Y-51400000D01*
X84885238Y-51638095D02*
X84980476Y-51400000D01*
X84885238Y-51161904D01*
X85170952Y-51542857D02*
X84980476Y-51400000D01*
X85170952Y-51257142D01*
D11*
X90650000Y-84390000D02*
X90650000Y-86990000D01*
X90650000Y-86990000D02*
X87550000Y-86990000D01*
X87550000Y-84390000D02*
X90650000Y-84390000D01*
X87550000Y-86990000D02*
X87550000Y-84390000D01*
D12*
X87050000Y-84690000D02*
G75*
G03*
X87050000Y-84690000I-50000J0D01*
G01*
X89100000Y-33188200D02*
X89100000Y-33188200D01*
X93570400Y-26431800D02*
X84629600Y-26431800D01*
X89100000Y-33188200D02*
X89100000Y-33188200D01*
X89100000Y-33188200D02*
X89100000Y-33188200D01*
X84629600Y-26431800D02*
X84629600Y-33188200D01*
X84629600Y-33188200D02*
X93570400Y-33188200D01*
X89100000Y-33188200D02*
X89100000Y-33188200D01*
X93570400Y-33188200D02*
X93570400Y-26431800D01*
D11*
X90400000Y-35846400D02*
X87800000Y-35846400D01*
X87800000Y-35846400D02*
X87800000Y-34746400D01*
X90400000Y-34746400D02*
X90400000Y-35846400D01*
X87800000Y-34746400D02*
X90400000Y-34746400D01*
D13*
X90370000Y-34196400D02*
G75*
G03*
X90370000Y-34196400I-70000J0D01*
G01*
D14*
X88308000Y-87126000D02*
X90908000Y-87126000D01*
X90908000Y-88826000D02*
X88308000Y-88826000D01*
X88308000Y-88826000D02*
X88308000Y-87126000D01*
X90908000Y-87126000D02*
X90908000Y-88826000D01*
D12*
X84185100Y-52898600D02*
X86394900Y-52898600D01*
X84185100Y-49901400D02*
X84185100Y-52898600D01*
X86394900Y-52898600D02*
X86394900Y-49901400D01*
X86394900Y-49901400D02*
X84185100Y-49901400D01*
X84185100Y-51704800D02*
G75*
G03*
X84185100Y-51095200I0J304800D01*
G01*
X85366200Y-52797000D02*
G75*
G03*
X85366200Y-52797000I-76200J0D01*
G01*
D11*
X91650000Y-71595000D02*
X91650000Y-65495000D01*
X86550000Y-71595000D02*
X86550000Y-65495000D01*
X86550000Y-65495000D02*
X91650000Y-65495000D01*
X86550000Y-71595000D02*
X91650000Y-71595000D01*
D15*
X87295000Y-72630000D02*
G75*
G03*
X87295000Y-72630000I-100000J0D01*
G01*
D11*
X84150253Y-78070000D02*
X89100000Y-73120253D01*
X89100000Y-83019747D02*
X84150253Y-78070000D01*
X94049747Y-78070000D02*
X89100000Y-73120253D01*
X89100000Y-83019747D02*
X94049747Y-78070000D01*
D15*
X87874174Y-73067220D02*
G75*
G03*
X87874174Y-73067220I-99999J0D01*
G01*
D12*
X88100000Y-93430000D02*
X90100000Y-93430000D01*
X88600000Y-95730000D02*
X88100000Y-95230000D01*
X88100000Y-95730000D02*
X88100000Y-93430000D01*
X90100000Y-95730000D02*
X88100000Y-95730000D01*
X90100000Y-93430000D02*
X90100000Y-95730000D01*
X86394900Y-68138600D02*
X86394900Y-65141400D01*
X84185100Y-68138600D02*
X86394900Y-68138600D01*
X86394900Y-65141400D02*
X84185100Y-65141400D01*
X84185100Y-65141400D02*
X84185100Y-68138600D01*
X86394900Y-66335200D02*
G75*
G03*
X86394900Y-66944800I0J-304800D01*
G01*
X85366200Y-65243000D02*
G75*
G03*
X85366200Y-65243000I-76200J0D01*
G01*
D14*
X83990000Y-62615000D02*
X86590000Y-62615000D01*
X86590000Y-62615000D02*
X86590000Y-64315000D01*
X86590000Y-64315000D02*
X83990000Y-64315000D01*
X83990000Y-64315000D02*
X83990000Y-62615000D01*
M02*
