G04 #@! TF.GenerationSoftware,KiCad,Pcbnew,(6.0.6)*
G04 #@! TF.CreationDate,2023-03-02T22:16:17-07:00*
G04 #@! TF.ProjectId,RP2040-Breadstick,52503230-3430-42d4-9272-656164737469,0.1*
G04 #@! TF.SameCoordinates,Original*
G04 #@! TF.FileFunction,Copper,L6,Inr*
G04 #@! TF.FilePolarity,Positive*
%FSLAX46Y46*%
G04 Gerber Fmt 4.6, Leading zero omitted, Abs format (unit mm)*
G04 Created by KiCad (PCBNEW (6.0.6)) date 2023-03-02 22:16:17*
%MOMM*%
%LPD*%
G01*
G04 APERTURE LIST*
G04 #@! TA.AperFunction,ComponentPad*
%ADD10R,1.700000X1.700000*%
G04 #@! TD*
G04 #@! TA.AperFunction,ComponentPad*
%ADD11O,1.000000X2.200000*%
G04 #@! TD*
G04 #@! TA.AperFunction,ComponentPad*
%ADD12O,1.000000X1.800000*%
G04 #@! TD*
G04 #@! TA.AperFunction,ViaPad*
%ADD13C,0.500000*%
G04 #@! TD*
G04 APERTURE END LIST*
D10*
X85290000Y-45050000D03*
X92910000Y-45050000D03*
X92910000Y-177130000D03*
X92910000Y-39970000D03*
X85290000Y-85690000D03*
X85290000Y-146650000D03*
X92910000Y-100930000D03*
X85290000Y-161890000D03*
X85290000Y-100930000D03*
X85290000Y-131410000D03*
X92910000Y-70450000D03*
X85290000Y-42510000D03*
X92910000Y-55210000D03*
X85290000Y-47590000D03*
X92910000Y-146650000D03*
X92910000Y-47590000D03*
X85290000Y-39970000D03*
X85290000Y-70450000D03*
X92910000Y-131410000D03*
X92910000Y-85690000D03*
X85290000Y-184750000D03*
X85290000Y-187290000D03*
X92910000Y-184750000D03*
X92910000Y-161890000D03*
X92910000Y-116170000D03*
X85290000Y-55210000D03*
X85290000Y-37430000D03*
X92910000Y-37430000D03*
X92910000Y-187290000D03*
X85290000Y-116170000D03*
X92910000Y-42510000D03*
X85290000Y-177130000D03*
D11*
X93420000Y-28538199D03*
X84780000Y-28538199D03*
D12*
X93420000Y-32538200D03*
X84780000Y-32538200D03*
D13*
X89100000Y-107076800D03*
X89100000Y-163363200D03*
X89100000Y-182159200D03*
X89100000Y-129581200D03*
X89100000Y-99558400D03*
X89100000Y-167122400D03*
X89100000Y-125822000D03*
X89100000Y-95316600D03*
X89100000Y-114595200D03*
X89100000Y-185918400D03*
X89100000Y-178400000D03*
X89100000Y-148377200D03*
X89100000Y-170881600D03*
X89100000Y-133340400D03*
X89100000Y-110836000D03*
X89100000Y-155895600D03*
X89100000Y-103317600D03*
X89100000Y-122062800D03*
X89100000Y-144618000D03*
X87576000Y-41748000D03*
X89100000Y-118303600D03*
X89100000Y-159604000D03*
X89100000Y-152136400D03*
X88325000Y-38525000D03*
X89100000Y-140858800D03*
X87576000Y-40732000D03*
X90751000Y-41748000D03*
X89100000Y-174640800D03*
X89100000Y-137099600D03*
X87630000Y-39170000D03*
X90751000Y-40732000D03*
X85569400Y-35220200D03*
X86610800Y-34255000D03*
X86661600Y-35220200D03*
X86102800Y-34763000D03*
X85290000Y-48936200D03*
X86470000Y-82750000D03*
X85696400Y-80838600D03*
X85010600Y-83531000D03*
X89110911Y-89627000D03*
X89100000Y-90363600D03*
X84610000Y-84166000D03*
X85340800Y-81626000D03*
X93291000Y-35144000D03*
X93062400Y-34153400D03*
X89100000Y-166157200D03*
X89100000Y-139893600D03*
X84528000Y-35093200D03*
X89100000Y-147412000D03*
X86500000Y-82000000D03*
X89100000Y-117338400D03*
X84782000Y-62576000D03*
X89100000Y-106111600D03*
X91582850Y-36280650D03*
X89100000Y-94580000D03*
X90030000Y-78960000D03*
X89100000Y-184953200D03*
X89100000Y-109820000D03*
X89100000Y-132375200D03*
X89100000Y-181194000D03*
X89100000Y-188661600D03*
X89100000Y-136134400D03*
X89100000Y-128616000D03*
X85290000Y-53863800D03*
X89100000Y-169916400D03*
X89100000Y-121097600D03*
X85029650Y-34197850D03*
X89100000Y-151120400D03*
X89100000Y-162398000D03*
X89100000Y-124856800D03*
X89100000Y-154879600D03*
X89108000Y-87972000D03*
X88719000Y-46066000D03*
X89100000Y-173675600D03*
X89110000Y-78060000D03*
X89100000Y-177434800D03*
X89862000Y-67402000D03*
X89100000Y-102301600D03*
X89862000Y-69688000D03*
X89100000Y-143652800D03*
X89100000Y-113579200D03*
X88220000Y-77170000D03*
X89100000Y-158638800D03*
X92325800Y-74895000D03*
X89170000Y-83190000D03*
X89817342Y-80799331D03*
X89100000Y-88865000D03*
X86407600Y-78603400D03*
X91843200Y-77816000D03*
X85798000Y-62576000D03*
X89100000Y-93843400D03*
X89100000Y-85486800D03*
X89760400Y-75377600D03*
X89100000Y-81626000D03*
X93666400Y-73713824D03*
X90200000Y-59540000D03*
X89500000Y-59540000D03*
X92966400Y-73713824D03*
X92224200Y-74107600D03*
X87576000Y-63338000D03*
X91233600Y-73015400D03*
X87576000Y-61560000D03*
X87576000Y-62474400D03*
X91741600Y-73548800D03*
X88109400Y-75530000D03*
X87576000Y-76038000D03*
X86153600Y-74945800D03*
X85544000Y-75352200D03*
X85030000Y-74480000D03*
X92840000Y-80540000D03*
X91320000Y-79520000D03*
X90620000Y-80240000D03*
X92220000Y-82940000D03*
X91780000Y-82140000D03*
X90810000Y-82310000D03*
X85040000Y-73450000D03*
X88541200Y-74945800D03*
X92325800Y-78374800D03*
X93570400Y-79695600D03*
X91792400Y-78908200D03*
X87480000Y-79650000D03*
X91182800Y-76495200D03*
G04 #@! TA.AperFunction,Conductor*
G36*
X86992942Y-26120502D02*
G01*
X87039435Y-26174158D01*
X87045970Y-26191876D01*
X87059016Y-26237525D01*
X87059018Y-26237529D01*
X87061484Y-26246158D01*
X87134165Y-26361350D01*
X87140894Y-26367293D01*
X87140895Y-26367294D01*
X87220627Y-26437711D01*
X87236255Y-26451513D01*
X87244378Y-26455327D01*
X87244380Y-26455328D01*
X87303607Y-26483135D01*
X87359548Y-26509399D01*
X87368412Y-26510779D01*
X87368415Y-26510780D01*
X87431897Y-26520664D01*
X87462956Y-26525500D01*
X87534145Y-26525500D01*
X87573589Y-26519851D01*
X87625943Y-26512354D01*
X87625946Y-26512353D01*
X87634829Y-26511081D01*
X87646917Y-26505585D01*
X87750653Y-26458420D01*
X87750657Y-26458418D01*
X87758820Y-26454706D01*
X87759168Y-26455472D01*
X87820161Y-26437711D01*
X87875005Y-26454175D01*
X87876255Y-26451513D01*
X87999548Y-26509399D01*
X88008412Y-26510779D01*
X88008415Y-26510780D01*
X88071897Y-26520664D01*
X88102956Y-26525500D01*
X88174145Y-26525500D01*
X88213589Y-26519851D01*
X88265943Y-26512354D01*
X88265946Y-26512353D01*
X88274829Y-26511081D01*
X88286917Y-26505585D01*
X88390653Y-26458420D01*
X88390657Y-26458418D01*
X88398820Y-26454706D01*
X88399168Y-26455472D01*
X88460161Y-26437711D01*
X88515005Y-26454175D01*
X88516255Y-26451513D01*
X88639548Y-26509399D01*
X88648412Y-26510779D01*
X88648415Y-26510780D01*
X88711897Y-26520664D01*
X88742956Y-26525500D01*
X88814145Y-26525500D01*
X88853589Y-26519851D01*
X88905943Y-26512354D01*
X88905946Y-26512353D01*
X88914829Y-26511081D01*
X88926917Y-26505585D01*
X89030653Y-26458420D01*
X89030657Y-26458418D01*
X89038820Y-26454706D01*
X89039168Y-26455472D01*
X89100161Y-26437711D01*
X89155005Y-26454175D01*
X89156255Y-26451513D01*
X89279548Y-26509399D01*
X89288412Y-26510779D01*
X89288415Y-26510780D01*
X89351897Y-26520664D01*
X89382956Y-26525500D01*
X89454145Y-26525500D01*
X89493589Y-26519851D01*
X89545943Y-26512354D01*
X89545946Y-26512353D01*
X89554829Y-26511081D01*
X89566917Y-26505585D01*
X89670653Y-26458420D01*
X89670657Y-26458418D01*
X89678820Y-26454706D01*
X89679168Y-26455472D01*
X89740161Y-26437711D01*
X89795005Y-26454175D01*
X89796255Y-26451513D01*
X89919548Y-26509399D01*
X89928412Y-26510779D01*
X89928415Y-26510780D01*
X89991897Y-26520664D01*
X90022956Y-26525500D01*
X90094145Y-26525500D01*
X90133589Y-26519851D01*
X90185943Y-26512354D01*
X90185946Y-26512353D01*
X90194829Y-26511081D01*
X90206917Y-26505585D01*
X90310653Y-26458420D01*
X90310657Y-26458418D01*
X90318820Y-26454706D01*
X90319168Y-26455472D01*
X90380161Y-26437711D01*
X90435005Y-26454175D01*
X90436255Y-26451513D01*
X90559548Y-26509399D01*
X90568412Y-26510779D01*
X90568415Y-26510780D01*
X90631897Y-26520664D01*
X90662956Y-26525500D01*
X90734145Y-26525500D01*
X90773589Y-26519851D01*
X90825943Y-26512354D01*
X90825946Y-26512353D01*
X90834829Y-26511081D01*
X90958820Y-26454706D01*
X91062004Y-26365796D01*
X91136087Y-26251501D01*
X91154361Y-26190397D01*
X91193043Y-26130864D01*
X91257771Y-26101694D01*
X91275078Y-26100500D01*
X93953500Y-26100500D01*
X94021621Y-26120502D01*
X94068114Y-26174158D01*
X94079500Y-26226500D01*
X94079500Y-27440061D01*
X94059498Y-27508182D01*
X94005842Y-27554675D01*
X93935568Y-27564779D01*
X93870988Y-27535285D01*
X93853540Y-27516768D01*
X93853309Y-27516467D01*
X93853305Y-27516463D01*
X93848282Y-27509917D01*
X93722841Y-27413663D01*
X93576762Y-27353155D01*
X93420000Y-27332517D01*
X93263238Y-27353155D01*
X93117159Y-27413663D01*
X92991718Y-27509917D01*
X92986695Y-27516463D01*
X92963941Y-27546117D01*
X92895464Y-27635358D01*
X92834956Y-27781437D01*
X92819500Y-27898838D01*
X92819500Y-29177560D01*
X92834956Y-29294961D01*
X92895464Y-29441040D01*
X92900491Y-29447591D01*
X92972253Y-29541113D01*
X92991718Y-29566481D01*
X93117159Y-29662735D01*
X93263238Y-29723243D01*
X93420000Y-29743881D01*
X93428188Y-29742803D01*
X93568574Y-29724321D01*
X93576762Y-29723243D01*
X93722841Y-29662735D01*
X93848282Y-29566481D01*
X93853305Y-29559935D01*
X93853309Y-29559931D01*
X93853540Y-29559630D01*
X93853799Y-29559441D01*
X93859150Y-29554090D01*
X93859985Y-29554925D01*
X93910879Y-29517764D01*
X93981750Y-29513545D01*
X94043652Y-29548311D01*
X94076931Y-29611025D01*
X94079500Y-29636337D01*
X94079500Y-31640062D01*
X94059498Y-31708183D01*
X94005842Y-31754676D01*
X93935568Y-31764780D01*
X93870988Y-31735286D01*
X93853540Y-31716769D01*
X93853309Y-31716468D01*
X93853305Y-31716464D01*
X93848282Y-31709918D01*
X93722841Y-31613664D01*
X93576762Y-31553156D01*
X93420000Y-31532518D01*
X93263238Y-31553156D01*
X93117159Y-31613664D01*
X92991718Y-31709918D01*
X92986695Y-31716464D01*
X92963941Y-31746118D01*
X92895464Y-31835359D01*
X92834956Y-31981438D01*
X92819500Y-32098839D01*
X92819500Y-32977561D01*
X92834956Y-33094962D01*
X92895464Y-33241041D01*
X92900491Y-33247592D01*
X92972253Y-33341114D01*
X92991718Y-33366482D01*
X93117159Y-33462736D01*
X93263238Y-33523244D01*
X93420000Y-33543882D01*
X93428188Y-33542804D01*
X93568574Y-33524322D01*
X93576762Y-33523244D01*
X93722841Y-33462736D01*
X93848282Y-33366482D01*
X93853305Y-33359936D01*
X93853309Y-33359932D01*
X93853540Y-33359631D01*
X93853799Y-33359442D01*
X93859150Y-33354091D01*
X93859985Y-33354926D01*
X93910879Y-33317765D01*
X93981750Y-33313546D01*
X94043652Y-33348312D01*
X94076931Y-33411026D01*
X94079500Y-33436338D01*
X94079500Y-36461903D01*
X94059498Y-36530024D01*
X94005842Y-36576517D01*
X93935568Y-36586621D01*
X93870988Y-36557127D01*
X93848733Y-36531902D01*
X93839351Y-36517860D01*
X93839349Y-36517858D01*
X93832457Y-36507543D01*
X93799213Y-36485331D01*
X93769899Y-36479500D01*
X93416222Y-36479500D01*
X92074000Y-36479501D01*
X92005879Y-36459499D01*
X91959386Y-36405843D01*
X91949551Y-36333789D01*
X91956417Y-36290441D01*
X91957968Y-36280650D01*
X91939608Y-36164732D01*
X91935107Y-36155898D01*
X91935106Y-36155895D01*
X91913621Y-36113729D01*
X91886327Y-36060161D01*
X91803339Y-35977173D01*
X91749771Y-35949879D01*
X91707605Y-35928394D01*
X91707602Y-35928393D01*
X91698768Y-35923892D01*
X91582850Y-35905532D01*
X91466932Y-35923892D01*
X91458098Y-35928393D01*
X91458095Y-35928394D01*
X91415929Y-35949879D01*
X91362361Y-35977173D01*
X91279373Y-36060161D01*
X91252079Y-36113729D01*
X91230594Y-36155895D01*
X91230593Y-36155898D01*
X91226092Y-36164732D01*
X91207732Y-36280650D01*
X91226092Y-36396568D01*
X91230593Y-36405402D01*
X91230594Y-36405405D01*
X91252079Y-36447571D01*
X91279373Y-36501139D01*
X91362361Y-36584127D01*
X91415929Y-36611421D01*
X91458095Y-36632906D01*
X91458098Y-36632907D01*
X91466932Y-36637408D01*
X91582850Y-36655768D01*
X91698768Y-36637408D01*
X91707602Y-36632907D01*
X91707605Y-36632906D01*
X91776298Y-36597905D01*
X91846075Y-36584801D01*
X91911859Y-36611502D01*
X91952765Y-36669529D01*
X91959500Y-36710172D01*
X91959501Y-38289898D01*
X91960709Y-38295971D01*
X91962911Y-38307042D01*
X91965331Y-38319213D01*
X91987543Y-38352457D01*
X92020787Y-38374669D01*
X92050101Y-38380500D01*
X92909583Y-38380500D01*
X93769898Y-38380499D01*
X93783810Y-38377732D01*
X93787045Y-38377089D01*
X93799213Y-38374669D01*
X93832457Y-38352457D01*
X93839349Y-38342142D01*
X93839351Y-38342140D01*
X93848733Y-38328098D01*
X93903209Y-38282569D01*
X93973652Y-38273719D01*
X94037697Y-38304359D01*
X94075010Y-38364759D01*
X94079500Y-38398097D01*
X94079500Y-39001903D01*
X94059498Y-39070024D01*
X94005842Y-39116517D01*
X93935568Y-39126621D01*
X93870988Y-39097127D01*
X93848733Y-39071902D01*
X93839351Y-39057860D01*
X93839349Y-39057858D01*
X93832457Y-39047543D01*
X93799213Y-39025331D01*
X93769899Y-39019500D01*
X92910417Y-39019500D01*
X92050102Y-39019501D01*
X92036190Y-39022268D01*
X92032961Y-39022910D01*
X92020787Y-39025331D01*
X91987543Y-39047543D01*
X91965331Y-39080787D01*
X91959500Y-39110101D01*
X91959501Y-40829898D01*
X91960709Y-40835971D01*
X91962911Y-40847042D01*
X91965331Y-40859213D01*
X91987543Y-40892457D01*
X92020787Y-40914669D01*
X92050101Y-40920500D01*
X92909583Y-40920500D01*
X93769898Y-40920499D01*
X93783810Y-40917732D01*
X93787045Y-40917089D01*
X93799213Y-40914669D01*
X93832457Y-40892457D01*
X93839349Y-40882142D01*
X93839351Y-40882140D01*
X93848733Y-40868098D01*
X93903209Y-40822569D01*
X93973652Y-40813719D01*
X94037697Y-40844359D01*
X94075010Y-40904759D01*
X94079500Y-40938097D01*
X94079500Y-41541903D01*
X94059498Y-41610024D01*
X94005842Y-41656517D01*
X93935568Y-41666621D01*
X93870988Y-41637127D01*
X93848733Y-41611902D01*
X93839351Y-41597860D01*
X93839349Y-41597858D01*
X93832457Y-41587543D01*
X93799213Y-41565331D01*
X93769899Y-41559500D01*
X92910417Y-41559500D01*
X92050102Y-41559501D01*
X92036190Y-41562268D01*
X92032961Y-41562910D01*
X92020787Y-41565331D01*
X91987543Y-41587543D01*
X91965331Y-41620787D01*
X91959500Y-41650101D01*
X91959501Y-43369898D01*
X91960709Y-43375971D01*
X91962911Y-43387042D01*
X91965331Y-43399213D01*
X91987543Y-43432457D01*
X92020787Y-43454669D01*
X92050101Y-43460500D01*
X92909583Y-43460500D01*
X93769898Y-43460499D01*
X93783810Y-43457732D01*
X93787045Y-43457089D01*
X93799213Y-43454669D01*
X93832457Y-43432457D01*
X93839349Y-43422142D01*
X93839351Y-43422140D01*
X93848733Y-43408098D01*
X93903209Y-43362569D01*
X93973652Y-43353719D01*
X94037697Y-43384359D01*
X94075010Y-43444759D01*
X94079500Y-43478097D01*
X94079500Y-44081903D01*
X94059498Y-44150024D01*
X94005842Y-44196517D01*
X93935568Y-44206621D01*
X93870988Y-44177127D01*
X93848733Y-44151902D01*
X93839351Y-44137860D01*
X93839349Y-44137858D01*
X93832457Y-44127543D01*
X93799213Y-44105331D01*
X93769899Y-44099500D01*
X92910417Y-44099500D01*
X92050102Y-44099501D01*
X92036190Y-44102268D01*
X92032961Y-44102910D01*
X92020787Y-44105331D01*
X91987543Y-44127543D01*
X91965331Y-44160787D01*
X91959500Y-44190101D01*
X91959501Y-45909898D01*
X91960709Y-45915971D01*
X91962911Y-45927042D01*
X91965331Y-45939213D01*
X91987543Y-45972457D01*
X92020787Y-45994669D01*
X92050101Y-46000500D01*
X92909583Y-46000500D01*
X93769898Y-46000499D01*
X93783810Y-45997732D01*
X93787045Y-45997089D01*
X93799213Y-45994669D01*
X93832457Y-45972457D01*
X93839349Y-45962142D01*
X93839351Y-45962140D01*
X93848733Y-45948098D01*
X93903209Y-45902569D01*
X93973652Y-45893719D01*
X94037697Y-45924359D01*
X94075010Y-45984759D01*
X94079500Y-46018097D01*
X94079500Y-46621903D01*
X94059498Y-46690024D01*
X94005842Y-46736517D01*
X93935568Y-46746621D01*
X93870988Y-46717127D01*
X93848733Y-46691902D01*
X93839351Y-46677860D01*
X93839349Y-46677858D01*
X93832457Y-46667543D01*
X93799213Y-46645331D01*
X93769899Y-46639500D01*
X92910417Y-46639500D01*
X92050102Y-46639501D01*
X92036190Y-46642268D01*
X92032961Y-46642910D01*
X92020787Y-46645331D01*
X91987543Y-46667543D01*
X91965331Y-46700787D01*
X91959500Y-46730101D01*
X91959501Y-48449898D01*
X91960709Y-48455971D01*
X91962911Y-48467042D01*
X91965331Y-48479213D01*
X91987543Y-48512457D01*
X92020787Y-48534669D01*
X92050101Y-48540500D01*
X92909583Y-48540500D01*
X93769898Y-48540499D01*
X93783810Y-48537732D01*
X93787045Y-48537089D01*
X93799213Y-48534669D01*
X93832457Y-48512457D01*
X93839349Y-48502142D01*
X93839351Y-48502140D01*
X93848733Y-48488098D01*
X93903209Y-48442569D01*
X93973652Y-48433719D01*
X94037697Y-48464359D01*
X94075010Y-48524759D01*
X94079500Y-48558097D01*
X94079500Y-54241903D01*
X94059498Y-54310024D01*
X94005842Y-54356517D01*
X93935568Y-54366621D01*
X93870988Y-54337127D01*
X93848733Y-54311902D01*
X93839351Y-54297860D01*
X93839349Y-54297858D01*
X93832457Y-54287543D01*
X93799213Y-54265331D01*
X93769899Y-54259500D01*
X92910417Y-54259500D01*
X92050102Y-54259501D01*
X92036190Y-54262268D01*
X92032961Y-54262910D01*
X92020787Y-54265331D01*
X91987543Y-54287543D01*
X91965331Y-54320787D01*
X91959500Y-54350101D01*
X91959501Y-56069898D01*
X91960709Y-56075971D01*
X91962911Y-56087042D01*
X91965331Y-56099213D01*
X91987543Y-56132457D01*
X92020787Y-56154669D01*
X92050101Y-56160500D01*
X92909583Y-56160500D01*
X93769898Y-56160499D01*
X93783810Y-56157732D01*
X93787045Y-56157089D01*
X93799213Y-56154669D01*
X93832457Y-56132457D01*
X93839349Y-56122142D01*
X93839351Y-56122140D01*
X93848733Y-56108098D01*
X93903209Y-56062569D01*
X93973652Y-56053719D01*
X94037697Y-56084359D01*
X94075010Y-56144759D01*
X94079500Y-56178097D01*
X94079500Y-69481903D01*
X94059498Y-69550024D01*
X94005842Y-69596517D01*
X93935568Y-69606621D01*
X93870988Y-69577127D01*
X93848733Y-69551902D01*
X93839351Y-69537860D01*
X93839349Y-69537858D01*
X93832457Y-69527543D01*
X93799213Y-69505331D01*
X93769899Y-69499500D01*
X92910417Y-69499500D01*
X92050102Y-69499501D01*
X92036190Y-69502268D01*
X92032961Y-69502910D01*
X92020787Y-69505331D01*
X91987543Y-69527543D01*
X91965331Y-69560787D01*
X91959500Y-69590101D01*
X91959501Y-71309898D01*
X91960709Y-71315971D01*
X91962911Y-71327042D01*
X91965331Y-71339213D01*
X91987543Y-71372457D01*
X92020787Y-71394669D01*
X92050101Y-71400500D01*
X92909583Y-71400500D01*
X93769898Y-71400499D01*
X93783810Y-71397732D01*
X93787045Y-71397089D01*
X93799213Y-71394669D01*
X93832457Y-71372457D01*
X93839349Y-71362142D01*
X93839351Y-71362140D01*
X93848733Y-71348098D01*
X93903209Y-71302569D01*
X93973652Y-71293719D01*
X94037697Y-71324359D01*
X94075010Y-71384759D01*
X94079500Y-71418097D01*
X94079500Y-73304916D01*
X94059498Y-73373037D01*
X94005842Y-73419530D01*
X93935568Y-73429634D01*
X93887088Y-73409957D01*
X93886889Y-73410347D01*
X93834603Y-73383706D01*
X93791155Y-73361568D01*
X93791152Y-73361567D01*
X93782318Y-73357066D01*
X93666400Y-73338706D01*
X93550482Y-73357066D01*
X93541648Y-73361567D01*
X93541645Y-73361568D01*
X93499479Y-73383053D01*
X93445911Y-73410347D01*
X93405495Y-73450763D01*
X93343183Y-73484789D01*
X93272368Y-73479724D01*
X93227305Y-73450763D01*
X93186889Y-73410347D01*
X93133321Y-73383053D01*
X93091155Y-73361568D01*
X93091152Y-73361567D01*
X93082318Y-73357066D01*
X92966400Y-73338706D01*
X92850482Y-73357066D01*
X92841648Y-73361567D01*
X92841645Y-73361568D01*
X92799479Y-73383053D01*
X92745911Y-73410347D01*
X92662923Y-73493335D01*
X92644706Y-73529089D01*
X92614144Y-73589069D01*
X92614143Y-73589072D01*
X92609642Y-73597906D01*
X92597035Y-73677506D01*
X92594231Y-73695207D01*
X92563818Y-73759360D01*
X92503550Y-73796887D01*
X92432561Y-73795873D01*
X92412586Y-73787766D01*
X92340118Y-73750842D01*
X92224200Y-73732482D01*
X92224441Y-73730960D01*
X92166786Y-73714031D01*
X92120293Y-73660375D01*
X92110458Y-73588321D01*
X92114007Y-73565918D01*
X92116718Y-73548800D01*
X92098358Y-73432882D01*
X92093857Y-73424048D01*
X92093856Y-73424045D01*
X92058938Y-73355515D01*
X92045077Y-73328311D01*
X91962089Y-73245323D01*
X91908521Y-73218029D01*
X91866355Y-73196544D01*
X91866352Y-73196543D01*
X91857518Y-73192042D01*
X91741600Y-73173682D01*
X91731808Y-73175233D01*
X91730930Y-73175233D01*
X91662809Y-73155231D01*
X91616316Y-73101575D01*
X91607245Y-73035111D01*
X91607167Y-73035111D01*
X91607167Y-73034539D01*
X91606482Y-73029520D01*
X91607167Y-73025196D01*
X91607167Y-73025192D01*
X91608718Y-73015400D01*
X91590358Y-72899482D01*
X91585857Y-72890648D01*
X91585856Y-72890645D01*
X91564371Y-72848479D01*
X91537077Y-72794911D01*
X91454089Y-72711923D01*
X91400521Y-72684629D01*
X91358355Y-72663144D01*
X91358352Y-72663143D01*
X91349518Y-72658642D01*
X91233600Y-72640282D01*
X91117682Y-72658642D01*
X91108848Y-72663143D01*
X91108845Y-72663144D01*
X91066679Y-72684629D01*
X91013111Y-72711923D01*
X90930123Y-72794911D01*
X90902829Y-72848479D01*
X90881344Y-72890645D01*
X90881343Y-72890648D01*
X90876842Y-72899482D01*
X90858482Y-73015400D01*
X90876842Y-73131318D01*
X90881343Y-73140152D01*
X90881344Y-73140155D01*
X90902829Y-73182321D01*
X90930123Y-73235889D01*
X91013111Y-73318877D01*
X91052028Y-73338706D01*
X91108845Y-73367656D01*
X91108848Y-73367657D01*
X91117682Y-73372158D01*
X91223808Y-73388967D01*
X91233600Y-73390518D01*
X91243392Y-73388967D01*
X91244270Y-73388967D01*
X91312391Y-73408969D01*
X91358884Y-73462625D01*
X91367955Y-73529089D01*
X91368033Y-73529089D01*
X91368033Y-73529661D01*
X91368718Y-73534680D01*
X91368033Y-73539004D01*
X91368033Y-73539008D01*
X91366482Y-73548800D01*
X91384842Y-73664718D01*
X91389343Y-73673552D01*
X91389344Y-73673555D01*
X91409862Y-73713824D01*
X91438123Y-73769289D01*
X91521111Y-73852277D01*
X91574679Y-73879571D01*
X91616845Y-73901056D01*
X91616848Y-73901057D01*
X91625682Y-73905558D01*
X91741600Y-73923918D01*
X91741359Y-73925440D01*
X91799014Y-73942369D01*
X91845507Y-73996025D01*
X91855342Y-74068078D01*
X91849082Y-74107600D01*
X91867442Y-74223518D01*
X91871943Y-74232352D01*
X91871944Y-74232355D01*
X91882206Y-74252494D01*
X91920723Y-74328089D01*
X92003711Y-74411077D01*
X92036034Y-74427546D01*
X92087649Y-74476295D01*
X92104715Y-74545210D01*
X92081814Y-74612411D01*
X92067926Y-74628908D01*
X92022323Y-74674511D01*
X92000015Y-74718294D01*
X91973544Y-74770245D01*
X91973543Y-74770248D01*
X91969042Y-74779082D01*
X91950682Y-74895000D01*
X91969042Y-75010918D01*
X91973543Y-75019752D01*
X91973544Y-75019755D01*
X91988304Y-75048723D01*
X92022323Y-75115489D01*
X92105311Y-75198477D01*
X92151515Y-75222019D01*
X92201045Y-75247256D01*
X92201048Y-75247257D01*
X92209882Y-75251758D01*
X92325800Y-75270118D01*
X92441718Y-75251758D01*
X92450552Y-75247257D01*
X92450555Y-75247256D01*
X92500085Y-75222019D01*
X92546289Y-75198477D01*
X92629277Y-75115489D01*
X92663296Y-75048723D01*
X92678056Y-75019755D01*
X92678057Y-75019752D01*
X92682558Y-75010918D01*
X92700918Y-74895000D01*
X92682558Y-74779082D01*
X92678057Y-74770248D01*
X92678056Y-74770245D01*
X92651585Y-74718294D01*
X92629277Y-74674511D01*
X92546289Y-74591523D01*
X92513966Y-74575054D01*
X92462351Y-74526305D01*
X92445285Y-74457390D01*
X92468186Y-74390189D01*
X92482074Y-74373692D01*
X92527677Y-74328089D01*
X92566194Y-74252494D01*
X92576456Y-74232355D01*
X92576457Y-74232352D01*
X92580958Y-74223518D01*
X92596369Y-74126216D01*
X92626782Y-74062064D01*
X92687050Y-74024537D01*
X92758039Y-74025551D01*
X92778014Y-74033658D01*
X92850482Y-74070582D01*
X92966400Y-74088942D01*
X93082318Y-74070582D01*
X93091152Y-74066081D01*
X93091155Y-74066080D01*
X93154780Y-74033661D01*
X93186889Y-74017301D01*
X93227305Y-73976885D01*
X93289617Y-73942859D01*
X93360432Y-73947924D01*
X93405495Y-73976885D01*
X93445911Y-74017301D01*
X93478020Y-74033661D01*
X93541645Y-74066080D01*
X93541648Y-74066081D01*
X93550482Y-74070582D01*
X93666400Y-74088942D01*
X93782318Y-74070582D01*
X93791152Y-74066081D01*
X93791155Y-74066080D01*
X93854780Y-74033661D01*
X93881408Y-74020094D01*
X93881410Y-74020093D01*
X93886889Y-74017301D01*
X93887250Y-74018009D01*
X93946307Y-73996937D01*
X94015459Y-74013018D01*
X94064939Y-74063932D01*
X94079500Y-74122732D01*
X94079500Y-79376544D01*
X94059498Y-79444665D01*
X94005842Y-79491158D01*
X93935568Y-79501262D01*
X93870988Y-79471768D01*
X93864405Y-79465639D01*
X93790889Y-79392123D01*
X93715165Y-79353540D01*
X93695155Y-79343344D01*
X93695152Y-79343343D01*
X93686318Y-79338842D01*
X93570400Y-79320482D01*
X93454482Y-79338842D01*
X93445648Y-79343343D01*
X93445645Y-79343344D01*
X93425635Y-79353540D01*
X93349911Y-79392123D01*
X93266923Y-79475111D01*
X93244051Y-79520000D01*
X93218144Y-79570845D01*
X93218143Y-79570848D01*
X93213642Y-79579682D01*
X93195282Y-79695600D01*
X93213642Y-79811518D01*
X93218143Y-79820352D01*
X93218144Y-79820355D01*
X93219735Y-79823477D01*
X93266923Y-79916089D01*
X93349911Y-79999077D01*
X93397976Y-80023567D01*
X93445645Y-80047856D01*
X93445648Y-80047857D01*
X93454482Y-80052358D01*
X93570400Y-80070718D01*
X93686318Y-80052358D01*
X93695152Y-80047857D01*
X93695155Y-80047856D01*
X93742824Y-80023567D01*
X93790889Y-79999077D01*
X93864405Y-79925561D01*
X93926717Y-79891535D01*
X93997532Y-79896600D01*
X94054368Y-79939147D01*
X94079179Y-80005667D01*
X94079500Y-80014656D01*
X94079500Y-84721903D01*
X94059498Y-84790024D01*
X94005842Y-84836517D01*
X93935568Y-84846621D01*
X93870988Y-84817127D01*
X93848733Y-84791902D01*
X93839351Y-84777860D01*
X93839349Y-84777858D01*
X93832457Y-84767543D01*
X93799213Y-84745331D01*
X93769899Y-84739500D01*
X92910417Y-84739500D01*
X92050102Y-84739501D01*
X92036190Y-84742268D01*
X92032961Y-84742910D01*
X92020787Y-84745331D01*
X91987543Y-84767543D01*
X91965331Y-84800787D01*
X91959500Y-84830101D01*
X91959501Y-86549898D01*
X91960709Y-86555971D01*
X91962911Y-86567042D01*
X91965331Y-86579213D01*
X91987543Y-86612457D01*
X92020787Y-86634669D01*
X92050101Y-86640500D01*
X92909583Y-86640500D01*
X93769898Y-86640499D01*
X93783810Y-86637732D01*
X93787045Y-86637089D01*
X93799213Y-86634669D01*
X93832457Y-86612457D01*
X93839349Y-86602142D01*
X93839351Y-86602140D01*
X93848733Y-86588098D01*
X93903209Y-86542569D01*
X93973652Y-86533719D01*
X94037697Y-86564359D01*
X94075010Y-86624759D01*
X94079500Y-86658097D01*
X94079500Y-99961903D01*
X94059498Y-100030024D01*
X94005842Y-100076517D01*
X93935568Y-100086621D01*
X93870988Y-100057127D01*
X93848733Y-100031902D01*
X93839351Y-100017860D01*
X93839349Y-100017858D01*
X93832457Y-100007543D01*
X93799213Y-99985331D01*
X93769899Y-99979500D01*
X92910417Y-99979500D01*
X92050102Y-99979501D01*
X92036190Y-99982268D01*
X92032961Y-99982910D01*
X92020787Y-99985331D01*
X91987543Y-100007543D01*
X91965331Y-100040787D01*
X91959500Y-100070101D01*
X91959501Y-101789898D01*
X91960709Y-101795971D01*
X91962911Y-101807042D01*
X91965331Y-101819213D01*
X91987543Y-101852457D01*
X92020787Y-101874669D01*
X92050101Y-101880500D01*
X92909583Y-101880500D01*
X93769898Y-101880499D01*
X93783810Y-101877732D01*
X93787045Y-101877089D01*
X93799213Y-101874669D01*
X93832457Y-101852457D01*
X93839349Y-101842142D01*
X93839351Y-101842140D01*
X93848733Y-101828098D01*
X93903209Y-101782569D01*
X93973652Y-101773719D01*
X94037697Y-101804359D01*
X94075010Y-101864759D01*
X94079500Y-101898097D01*
X94079500Y-105736154D01*
X94059498Y-105804275D01*
X94005842Y-105850768D01*
X93998758Y-105853405D01*
X93995171Y-105853919D01*
X93987002Y-105857633D01*
X93986999Y-105857634D01*
X93928804Y-105884094D01*
X93871180Y-105910294D01*
X93767996Y-105999204D01*
X93763112Y-106006739D01*
X93701491Y-106101808D01*
X93693913Y-106113499D01*
X93654887Y-106243994D01*
X93654055Y-106380196D01*
X93656522Y-106388828D01*
X93662019Y-106408060D01*
X93691484Y-106511158D01*
X93696274Y-106518749D01*
X93696275Y-106518752D01*
X93727165Y-106567710D01*
X93746599Y-106635995D01*
X93726335Y-106703477D01*
X93698796Y-106745965D01*
X93693913Y-106753499D01*
X93654887Y-106883994D01*
X93654055Y-107020196D01*
X93691484Y-107151158D01*
X93696274Y-107158749D01*
X93696275Y-107158752D01*
X93727165Y-107207710D01*
X93746599Y-107275995D01*
X93726335Y-107343477D01*
X93698796Y-107385965D01*
X93693913Y-107393499D01*
X93654887Y-107523994D01*
X93654055Y-107660196D01*
X93691484Y-107791158D01*
X93696274Y-107798749D01*
X93696275Y-107798752D01*
X93727165Y-107847710D01*
X93746599Y-107915995D01*
X93726335Y-107983477D01*
X93698796Y-108025965D01*
X93693913Y-108033499D01*
X93654887Y-108163994D01*
X93654055Y-108300196D01*
X93691484Y-108431158D01*
X93696274Y-108438749D01*
X93696275Y-108438752D01*
X93727165Y-108487710D01*
X93746599Y-108555995D01*
X93726335Y-108623477D01*
X93698796Y-108665965D01*
X93693913Y-108673499D01*
X93654887Y-108803994D01*
X93654055Y-108940196D01*
X93691484Y-109071158D01*
X93696274Y-109078749D01*
X93696275Y-109078752D01*
X93727165Y-109127710D01*
X93746599Y-109195995D01*
X93726335Y-109263477D01*
X93698796Y-109305965D01*
X93693913Y-109313499D01*
X93654887Y-109443994D01*
X93654055Y-109580196D01*
X93691484Y-109711158D01*
X93764165Y-109826350D01*
X93866255Y-109916513D01*
X93874378Y-109920327D01*
X93874380Y-109920328D01*
X93907586Y-109935918D01*
X93989548Y-109974399D01*
X93992751Y-109974898D01*
X94049637Y-110012357D01*
X94078409Y-110077262D01*
X94079500Y-110093805D01*
X94079500Y-115201903D01*
X94059498Y-115270024D01*
X94005842Y-115316517D01*
X93935568Y-115326621D01*
X93870988Y-115297127D01*
X93848733Y-115271902D01*
X93839351Y-115257860D01*
X93839349Y-115257858D01*
X93832457Y-115247543D01*
X93799213Y-115225331D01*
X93769899Y-115219500D01*
X92910417Y-115219500D01*
X92050102Y-115219501D01*
X92036190Y-115222268D01*
X92032961Y-115222910D01*
X92020787Y-115225331D01*
X91987543Y-115247543D01*
X91965331Y-115280787D01*
X91959500Y-115310101D01*
X91959501Y-117029898D01*
X91960709Y-117035971D01*
X91962911Y-117047042D01*
X91965331Y-117059213D01*
X91987543Y-117092457D01*
X92020787Y-117114669D01*
X92050101Y-117120500D01*
X92909583Y-117120500D01*
X93769898Y-117120499D01*
X93783810Y-117117732D01*
X93787045Y-117117089D01*
X93799213Y-117114669D01*
X93832457Y-117092457D01*
X93839349Y-117082142D01*
X93839351Y-117082140D01*
X93848733Y-117068098D01*
X93903209Y-117022569D01*
X93973652Y-117013719D01*
X94037697Y-117044359D01*
X94075010Y-117104759D01*
X94079500Y-117138097D01*
X94079500Y-130441903D01*
X94059498Y-130510024D01*
X94005842Y-130556517D01*
X93935568Y-130566621D01*
X93870988Y-130537127D01*
X93848733Y-130511902D01*
X93839351Y-130497860D01*
X93839349Y-130497858D01*
X93832457Y-130487543D01*
X93799213Y-130465331D01*
X93769899Y-130459500D01*
X92910417Y-130459500D01*
X92050102Y-130459501D01*
X92036190Y-130462268D01*
X92032961Y-130462910D01*
X92020787Y-130465331D01*
X91987543Y-130487543D01*
X91965331Y-130520787D01*
X91959500Y-130550101D01*
X91959501Y-132269898D01*
X91960709Y-132275971D01*
X91962911Y-132287042D01*
X91965331Y-132299213D01*
X91987543Y-132332457D01*
X92020787Y-132354669D01*
X92050101Y-132360500D01*
X92909583Y-132360500D01*
X93769898Y-132360499D01*
X93783810Y-132357732D01*
X93787045Y-132357089D01*
X93799213Y-132354669D01*
X93832457Y-132332457D01*
X93839349Y-132322142D01*
X93839351Y-132322140D01*
X93848733Y-132308098D01*
X93903209Y-132262569D01*
X93973652Y-132253719D01*
X94037697Y-132284359D01*
X94075010Y-132344759D01*
X94079500Y-132378097D01*
X94079500Y-145681903D01*
X94059498Y-145750024D01*
X94005842Y-145796517D01*
X93935568Y-145806621D01*
X93870988Y-145777127D01*
X93848733Y-145751902D01*
X93839351Y-145737860D01*
X93839349Y-145737858D01*
X93832457Y-145727543D01*
X93799213Y-145705331D01*
X93769899Y-145699500D01*
X92910417Y-145699500D01*
X92050102Y-145699501D01*
X92036190Y-145702268D01*
X92032961Y-145702910D01*
X92020787Y-145705331D01*
X91987543Y-145727543D01*
X91965331Y-145760787D01*
X91959500Y-145790101D01*
X91959501Y-147509898D01*
X91960709Y-147515971D01*
X91962911Y-147527042D01*
X91965331Y-147539213D01*
X91987543Y-147572457D01*
X92020787Y-147594669D01*
X92050101Y-147600500D01*
X92909583Y-147600500D01*
X93769898Y-147600499D01*
X93783810Y-147597732D01*
X93787045Y-147597089D01*
X93799213Y-147594669D01*
X93832457Y-147572457D01*
X93839349Y-147562142D01*
X93839351Y-147562140D01*
X93848733Y-147548098D01*
X93903209Y-147502569D01*
X93973652Y-147493719D01*
X94037697Y-147524359D01*
X94075010Y-147584759D01*
X94079500Y-147618097D01*
X94079500Y-160921903D01*
X94059498Y-160990024D01*
X94005842Y-161036517D01*
X93935568Y-161046621D01*
X93870988Y-161017127D01*
X93848733Y-160991902D01*
X93839351Y-160977860D01*
X93839349Y-160977858D01*
X93832457Y-160967543D01*
X93799213Y-160945331D01*
X93769899Y-160939500D01*
X92910417Y-160939500D01*
X92050102Y-160939501D01*
X92036190Y-160942268D01*
X92032961Y-160942910D01*
X92020787Y-160945331D01*
X91987543Y-160967543D01*
X91965331Y-161000787D01*
X91959500Y-161030101D01*
X91959501Y-162749898D01*
X91960709Y-162755971D01*
X91962911Y-162767042D01*
X91965331Y-162779213D01*
X91987543Y-162812457D01*
X92020787Y-162834669D01*
X92050101Y-162840500D01*
X92909583Y-162840500D01*
X93769898Y-162840499D01*
X93783810Y-162837732D01*
X93787045Y-162837089D01*
X93799213Y-162834669D01*
X93832457Y-162812457D01*
X93839349Y-162802142D01*
X93839351Y-162802140D01*
X93848733Y-162788098D01*
X93903209Y-162742569D01*
X93973652Y-162733719D01*
X94037697Y-162764359D01*
X94075010Y-162824759D01*
X94079500Y-162858097D01*
X94079500Y-176161903D01*
X94059498Y-176230024D01*
X94005842Y-176276517D01*
X93935568Y-176286621D01*
X93870988Y-176257127D01*
X93848733Y-176231902D01*
X93839351Y-176217860D01*
X93839349Y-176217858D01*
X93832457Y-176207543D01*
X93799213Y-176185331D01*
X93769899Y-176179500D01*
X92910417Y-176179500D01*
X92050102Y-176179501D01*
X92036190Y-176182268D01*
X92032961Y-176182910D01*
X92020787Y-176185331D01*
X91987543Y-176207543D01*
X91965331Y-176240787D01*
X91959500Y-176270101D01*
X91959501Y-177989898D01*
X91960709Y-177995971D01*
X91962911Y-178007042D01*
X91965331Y-178019213D01*
X91987543Y-178052457D01*
X92020787Y-178074669D01*
X92050101Y-178080500D01*
X92909583Y-178080500D01*
X93769898Y-178080499D01*
X93783810Y-178077732D01*
X93787045Y-178077089D01*
X93799213Y-178074669D01*
X93832457Y-178052457D01*
X93839349Y-178042142D01*
X93839351Y-178042140D01*
X93848733Y-178028098D01*
X93903209Y-177982569D01*
X93973652Y-177973719D01*
X94037697Y-178004359D01*
X94075010Y-178064759D01*
X94079500Y-178098097D01*
X94079500Y-183781903D01*
X94059498Y-183850024D01*
X94005842Y-183896517D01*
X93935568Y-183906621D01*
X93870988Y-183877127D01*
X93848733Y-183851902D01*
X93839351Y-183837860D01*
X93839349Y-183837858D01*
X93832457Y-183827543D01*
X93799213Y-183805331D01*
X93769899Y-183799500D01*
X92910417Y-183799500D01*
X92050102Y-183799501D01*
X92036190Y-183802268D01*
X92032961Y-183802910D01*
X92020787Y-183805331D01*
X91987543Y-183827543D01*
X91965331Y-183860787D01*
X91959500Y-183890101D01*
X91959501Y-185609898D01*
X91960709Y-185615971D01*
X91962911Y-185627042D01*
X91965331Y-185639213D01*
X91987543Y-185672457D01*
X92020787Y-185694669D01*
X92050101Y-185700500D01*
X92909583Y-185700500D01*
X93769898Y-185700499D01*
X93783810Y-185697732D01*
X93787045Y-185697089D01*
X93799213Y-185694669D01*
X93832457Y-185672457D01*
X93839349Y-185662142D01*
X93839351Y-185662140D01*
X93848733Y-185648098D01*
X93903209Y-185602569D01*
X93973652Y-185593719D01*
X94037697Y-185624359D01*
X94075010Y-185684759D01*
X94079500Y-185718097D01*
X94079500Y-186321903D01*
X94059498Y-186390024D01*
X94005842Y-186436517D01*
X93935568Y-186446621D01*
X93870988Y-186417127D01*
X93848733Y-186391902D01*
X93839351Y-186377860D01*
X93839349Y-186377858D01*
X93832457Y-186367543D01*
X93799213Y-186345331D01*
X93769899Y-186339500D01*
X92910417Y-186339500D01*
X92050102Y-186339501D01*
X92036190Y-186342268D01*
X92032961Y-186342910D01*
X92020787Y-186345331D01*
X91987543Y-186367543D01*
X91965331Y-186400787D01*
X91959500Y-186430101D01*
X91959501Y-188149898D01*
X91960709Y-188155971D01*
X91962911Y-188167042D01*
X91965331Y-188179213D01*
X91987543Y-188212457D01*
X92020787Y-188234669D01*
X92050101Y-188240500D01*
X92909583Y-188240500D01*
X93769898Y-188240499D01*
X93783810Y-188237732D01*
X93787045Y-188237089D01*
X93799213Y-188234669D01*
X93832457Y-188212457D01*
X93839349Y-188202142D01*
X93839351Y-188202140D01*
X93848733Y-188188098D01*
X93903209Y-188142569D01*
X93973652Y-188133719D01*
X94037697Y-188164359D01*
X94075010Y-188224759D01*
X94079500Y-188258097D01*
X94079500Y-189603500D01*
X94059498Y-189671621D01*
X94005842Y-189718114D01*
X93953500Y-189729500D01*
X91275179Y-189729500D01*
X91207058Y-189709498D01*
X91160565Y-189655842D01*
X91154030Y-189638124D01*
X91140984Y-189592475D01*
X91140982Y-189592471D01*
X91138516Y-189583842D01*
X91065835Y-189468650D01*
X91019909Y-189428089D01*
X90970473Y-189384429D01*
X90963745Y-189378487D01*
X90955622Y-189374673D01*
X90955620Y-189374672D01*
X90896393Y-189346865D01*
X90840452Y-189320601D01*
X90831588Y-189319221D01*
X90831585Y-189319220D01*
X90768103Y-189309336D01*
X90737044Y-189304500D01*
X90665855Y-189304500D01*
X90626411Y-189310149D01*
X90574057Y-189317646D01*
X90574054Y-189317647D01*
X90565171Y-189318919D01*
X90557003Y-189322633D01*
X90557002Y-189322633D01*
X90449347Y-189371580D01*
X90449343Y-189371582D01*
X90441180Y-189375294D01*
X90440832Y-189374528D01*
X90379839Y-189392289D01*
X90324995Y-189375825D01*
X90323745Y-189378487D01*
X90200452Y-189320601D01*
X90191588Y-189319221D01*
X90191585Y-189319220D01*
X90128103Y-189309336D01*
X90097044Y-189304500D01*
X90025855Y-189304500D01*
X89986411Y-189310149D01*
X89934057Y-189317646D01*
X89934054Y-189317647D01*
X89925171Y-189318919D01*
X89917003Y-189322633D01*
X89917002Y-189322633D01*
X89809347Y-189371580D01*
X89809343Y-189371582D01*
X89801180Y-189375294D01*
X89800832Y-189374528D01*
X89739839Y-189392289D01*
X89684995Y-189375825D01*
X89683745Y-189378487D01*
X89560452Y-189320601D01*
X89551588Y-189319221D01*
X89551585Y-189319220D01*
X89488103Y-189309336D01*
X89457044Y-189304500D01*
X89385855Y-189304500D01*
X89346411Y-189310149D01*
X89294057Y-189317646D01*
X89294054Y-189317647D01*
X89285171Y-189318919D01*
X89277003Y-189322633D01*
X89277002Y-189322633D01*
X89169347Y-189371580D01*
X89169343Y-189371582D01*
X89161180Y-189375294D01*
X89160832Y-189374528D01*
X89099839Y-189392289D01*
X89044995Y-189375825D01*
X89043745Y-189378487D01*
X88920452Y-189320601D01*
X88911588Y-189319221D01*
X88911585Y-189319220D01*
X88848103Y-189309336D01*
X88817044Y-189304500D01*
X88745855Y-189304500D01*
X88706411Y-189310149D01*
X88654057Y-189317646D01*
X88654054Y-189317647D01*
X88645171Y-189318919D01*
X88637003Y-189322633D01*
X88637002Y-189322633D01*
X88529347Y-189371580D01*
X88529343Y-189371582D01*
X88521180Y-189375294D01*
X88520832Y-189374528D01*
X88459839Y-189392289D01*
X88404995Y-189375825D01*
X88403745Y-189378487D01*
X88280452Y-189320601D01*
X88271588Y-189319221D01*
X88271585Y-189319220D01*
X88208103Y-189309336D01*
X88177044Y-189304500D01*
X88105855Y-189304500D01*
X88066411Y-189310149D01*
X88014057Y-189317646D01*
X88014054Y-189317647D01*
X88005171Y-189318919D01*
X87997003Y-189322633D01*
X87997002Y-189322633D01*
X87889347Y-189371580D01*
X87889343Y-189371582D01*
X87881180Y-189375294D01*
X87880832Y-189374528D01*
X87819839Y-189392289D01*
X87764995Y-189375825D01*
X87763745Y-189378487D01*
X87640452Y-189320601D01*
X87631588Y-189319221D01*
X87631585Y-189319220D01*
X87568103Y-189309336D01*
X87537044Y-189304500D01*
X87465855Y-189304500D01*
X87426411Y-189310149D01*
X87374057Y-189317646D01*
X87374054Y-189317647D01*
X87365171Y-189318919D01*
X87241180Y-189375294D01*
X87137996Y-189464204D01*
X87063913Y-189578499D01*
X87061342Y-189587096D01*
X87045639Y-189639603D01*
X87006957Y-189699136D01*
X86942229Y-189728306D01*
X86924922Y-189729500D01*
X84246500Y-189729500D01*
X84178379Y-189709498D01*
X84131886Y-189655842D01*
X84120500Y-189603500D01*
X84120500Y-188661600D01*
X88724882Y-188661600D01*
X88743242Y-188777518D01*
X88747743Y-188786352D01*
X88747744Y-188786355D01*
X88769229Y-188828521D01*
X88796523Y-188882089D01*
X88879511Y-188965077D01*
X88933079Y-188992371D01*
X88975245Y-189013856D01*
X88975248Y-189013857D01*
X88984082Y-189018358D01*
X89100000Y-189036718D01*
X89215918Y-189018358D01*
X89224752Y-189013857D01*
X89224755Y-189013856D01*
X89266921Y-188992371D01*
X89320489Y-188965077D01*
X89403477Y-188882089D01*
X89430771Y-188828521D01*
X89452256Y-188786355D01*
X89452257Y-188786352D01*
X89456758Y-188777518D01*
X89475118Y-188661600D01*
X89456758Y-188545682D01*
X89452257Y-188536848D01*
X89452256Y-188536845D01*
X89430771Y-188494679D01*
X89403477Y-188441111D01*
X89320489Y-188358123D01*
X89266921Y-188330829D01*
X89224755Y-188309344D01*
X89224752Y-188309343D01*
X89215918Y-188304842D01*
X89100000Y-188286482D01*
X88984082Y-188304842D01*
X88975248Y-188309343D01*
X88975245Y-188309344D01*
X88933079Y-188330829D01*
X88879511Y-188358123D01*
X88796523Y-188441111D01*
X88769229Y-188494679D01*
X88747744Y-188536845D01*
X88747743Y-188536848D01*
X88743242Y-188545682D01*
X88724882Y-188661600D01*
X84120500Y-188661600D01*
X84120500Y-188258097D01*
X84140502Y-188189976D01*
X84194158Y-188143483D01*
X84264432Y-188133379D01*
X84329012Y-188162873D01*
X84351267Y-188188098D01*
X84360649Y-188202140D01*
X84360651Y-188202142D01*
X84367543Y-188212457D01*
X84400787Y-188234669D01*
X84430101Y-188240500D01*
X85289583Y-188240500D01*
X86149898Y-188240499D01*
X86163810Y-188237732D01*
X86167045Y-188237089D01*
X86179213Y-188234669D01*
X86212457Y-188212457D01*
X86234669Y-188179213D01*
X86240500Y-188149899D01*
X86240499Y-186430102D01*
X86237623Y-186415641D01*
X86237089Y-186412955D01*
X86234669Y-186400787D01*
X86212457Y-186367543D01*
X86179213Y-186345331D01*
X86149899Y-186339500D01*
X85290417Y-186339500D01*
X84430102Y-186339501D01*
X84416190Y-186342268D01*
X84412961Y-186342910D01*
X84400787Y-186345331D01*
X84367543Y-186367543D01*
X84360651Y-186377858D01*
X84360649Y-186377860D01*
X84351267Y-186391902D01*
X84296791Y-186437431D01*
X84226348Y-186446281D01*
X84162303Y-186415641D01*
X84124990Y-186355241D01*
X84120500Y-186321903D01*
X84120500Y-185718097D01*
X84140502Y-185649976D01*
X84194158Y-185603483D01*
X84264432Y-185593379D01*
X84329012Y-185622873D01*
X84351267Y-185648098D01*
X84360649Y-185662140D01*
X84360651Y-185662142D01*
X84367543Y-185672457D01*
X84400787Y-185694669D01*
X84430101Y-185700500D01*
X85289583Y-185700500D01*
X86149898Y-185700499D01*
X86163810Y-185697732D01*
X86167045Y-185697089D01*
X86179213Y-185694669D01*
X86212457Y-185672457D01*
X86234669Y-185639213D01*
X86240500Y-185609899D01*
X86240500Y-184953200D01*
X88724882Y-184953200D01*
X88743242Y-185069118D01*
X88747743Y-185077952D01*
X88747744Y-185077955D01*
X88769229Y-185120121D01*
X88796523Y-185173689D01*
X88879511Y-185256677D01*
X88933079Y-185283971D01*
X88975245Y-185305456D01*
X88975248Y-185305457D01*
X88984082Y-185309958D01*
X89100000Y-185328318D01*
X89215918Y-185309958D01*
X89224752Y-185305457D01*
X89224755Y-185305456D01*
X89266921Y-185283971D01*
X89320489Y-185256677D01*
X89403477Y-185173689D01*
X89430771Y-185120121D01*
X89452256Y-185077955D01*
X89452257Y-185077952D01*
X89456758Y-185069118D01*
X89475118Y-184953200D01*
X89456758Y-184837282D01*
X89452257Y-184828448D01*
X89452256Y-184828445D01*
X89430771Y-184786279D01*
X89403477Y-184732711D01*
X89320489Y-184649723D01*
X89266921Y-184622429D01*
X89224755Y-184600944D01*
X89224752Y-184600943D01*
X89215918Y-184596442D01*
X89100000Y-184578082D01*
X88984082Y-184596442D01*
X88975248Y-184600943D01*
X88975245Y-184600944D01*
X88933079Y-184622429D01*
X88879511Y-184649723D01*
X88796523Y-184732711D01*
X88769229Y-184786279D01*
X88747744Y-184828445D01*
X88747743Y-184828448D01*
X88743242Y-184837282D01*
X88724882Y-184953200D01*
X86240500Y-184953200D01*
X86240499Y-183890102D01*
X86237623Y-183875641D01*
X86237089Y-183872955D01*
X86234669Y-183860787D01*
X86212457Y-183827543D01*
X86179213Y-183805331D01*
X86149899Y-183799500D01*
X85290417Y-183799500D01*
X84430102Y-183799501D01*
X84416190Y-183802268D01*
X84412961Y-183802910D01*
X84400787Y-183805331D01*
X84367543Y-183827543D01*
X84360651Y-183837858D01*
X84360649Y-183837860D01*
X84351267Y-183851902D01*
X84296791Y-183897431D01*
X84226348Y-183906281D01*
X84162303Y-183875641D01*
X84124990Y-183815241D01*
X84120500Y-183781903D01*
X84120500Y-181194000D01*
X88724882Y-181194000D01*
X88743242Y-181309918D01*
X88747743Y-181318752D01*
X88747744Y-181318755D01*
X88769229Y-181360921D01*
X88796523Y-181414489D01*
X88879511Y-181497477D01*
X88933079Y-181524771D01*
X88975245Y-181546256D01*
X88975248Y-181546257D01*
X88984082Y-181550758D01*
X89100000Y-181569118D01*
X89215918Y-181550758D01*
X89224752Y-181546257D01*
X89224755Y-181546256D01*
X89266921Y-181524771D01*
X89320489Y-181497477D01*
X89403477Y-181414489D01*
X89430771Y-181360921D01*
X89452256Y-181318755D01*
X89452257Y-181318752D01*
X89456758Y-181309918D01*
X89475118Y-181194000D01*
X89456758Y-181078082D01*
X89452257Y-181069248D01*
X89452256Y-181069245D01*
X89430771Y-181027079D01*
X89403477Y-180973511D01*
X89320489Y-180890523D01*
X89266921Y-180863229D01*
X89224755Y-180841744D01*
X89224752Y-180841743D01*
X89215918Y-180837242D01*
X89100000Y-180818882D01*
X88984082Y-180837242D01*
X88975248Y-180841743D01*
X88975245Y-180841744D01*
X88933079Y-180863229D01*
X88879511Y-180890523D01*
X88796523Y-180973511D01*
X88769229Y-181027079D01*
X88747744Y-181069245D01*
X88747743Y-181069248D01*
X88743242Y-181078082D01*
X88724882Y-181194000D01*
X84120500Y-181194000D01*
X84120500Y-178098097D01*
X84140502Y-178029976D01*
X84194158Y-177983483D01*
X84264432Y-177973379D01*
X84329012Y-178002873D01*
X84351267Y-178028098D01*
X84360649Y-178042140D01*
X84360651Y-178042142D01*
X84367543Y-178052457D01*
X84400787Y-178074669D01*
X84430101Y-178080500D01*
X85289583Y-178080500D01*
X86149898Y-178080499D01*
X86163810Y-178077732D01*
X86167045Y-178077089D01*
X86179213Y-178074669D01*
X86212457Y-178052457D01*
X86234669Y-178019213D01*
X86240500Y-177989899D01*
X86240500Y-177434800D01*
X88724882Y-177434800D01*
X88743242Y-177550718D01*
X88747743Y-177559552D01*
X88747744Y-177559555D01*
X88769229Y-177601721D01*
X88796523Y-177655289D01*
X88879511Y-177738277D01*
X88933079Y-177765571D01*
X88975245Y-177787056D01*
X88975248Y-177787057D01*
X88984082Y-177791558D01*
X89100000Y-177809918D01*
X89215918Y-177791558D01*
X89224752Y-177787057D01*
X89224755Y-177787056D01*
X89266921Y-177765571D01*
X89320489Y-177738277D01*
X89403477Y-177655289D01*
X89430771Y-177601721D01*
X89452256Y-177559555D01*
X89452257Y-177559552D01*
X89456758Y-177550718D01*
X89475118Y-177434800D01*
X89456758Y-177318882D01*
X89452257Y-177310048D01*
X89452256Y-177310045D01*
X89430771Y-177267879D01*
X89403477Y-177214311D01*
X89320489Y-177131323D01*
X89266921Y-177104029D01*
X89224755Y-177082544D01*
X89224752Y-177082543D01*
X89215918Y-177078042D01*
X89100000Y-177059682D01*
X88984082Y-177078042D01*
X88975248Y-177082543D01*
X88975245Y-177082544D01*
X88933079Y-177104029D01*
X88879511Y-177131323D01*
X88796523Y-177214311D01*
X88769229Y-177267879D01*
X88747744Y-177310045D01*
X88747743Y-177310048D01*
X88743242Y-177318882D01*
X88724882Y-177434800D01*
X86240500Y-177434800D01*
X86240499Y-176270102D01*
X86237623Y-176255641D01*
X86237089Y-176252955D01*
X86234669Y-176240787D01*
X86212457Y-176207543D01*
X86179213Y-176185331D01*
X86149899Y-176179500D01*
X85290417Y-176179500D01*
X84430102Y-176179501D01*
X84416190Y-176182268D01*
X84412961Y-176182910D01*
X84400787Y-176185331D01*
X84367543Y-176207543D01*
X84360651Y-176217858D01*
X84360649Y-176217860D01*
X84351267Y-176231902D01*
X84296791Y-176277431D01*
X84226348Y-176286281D01*
X84162303Y-176255641D01*
X84124990Y-176195241D01*
X84120500Y-176161903D01*
X84120500Y-173675600D01*
X88724882Y-173675600D01*
X88743242Y-173791518D01*
X88747743Y-173800352D01*
X88747744Y-173800355D01*
X88769229Y-173842521D01*
X88796523Y-173896089D01*
X88879511Y-173979077D01*
X88933079Y-174006371D01*
X88975245Y-174027856D01*
X88975248Y-174027857D01*
X88984082Y-174032358D01*
X89100000Y-174050718D01*
X89215918Y-174032358D01*
X89224752Y-174027857D01*
X89224755Y-174027856D01*
X89266921Y-174006371D01*
X89320489Y-173979077D01*
X89403477Y-173896089D01*
X89430771Y-173842521D01*
X89452256Y-173800355D01*
X89452257Y-173800352D01*
X89456758Y-173791518D01*
X89475118Y-173675600D01*
X89456758Y-173559682D01*
X89452257Y-173550848D01*
X89452256Y-173550845D01*
X89430771Y-173508679D01*
X89403477Y-173455111D01*
X89320489Y-173372123D01*
X89266921Y-173344829D01*
X89224755Y-173323344D01*
X89224752Y-173323343D01*
X89215918Y-173318842D01*
X89100000Y-173300482D01*
X88984082Y-173318842D01*
X88975248Y-173323343D01*
X88975245Y-173323344D01*
X88933079Y-173344829D01*
X88879511Y-173372123D01*
X88796523Y-173455111D01*
X88769229Y-173508679D01*
X88747744Y-173550845D01*
X88747743Y-173550848D01*
X88743242Y-173559682D01*
X88724882Y-173675600D01*
X84120500Y-173675600D01*
X84120500Y-169916400D01*
X88724882Y-169916400D01*
X88743242Y-170032318D01*
X88747743Y-170041152D01*
X88747744Y-170041155D01*
X88769229Y-170083321D01*
X88796523Y-170136889D01*
X88879511Y-170219877D01*
X88933079Y-170247171D01*
X88975245Y-170268656D01*
X88975248Y-170268657D01*
X88984082Y-170273158D01*
X89100000Y-170291518D01*
X89215918Y-170273158D01*
X89224752Y-170268657D01*
X89224755Y-170268656D01*
X89266921Y-170247171D01*
X89320489Y-170219877D01*
X89403477Y-170136889D01*
X89430771Y-170083321D01*
X89452256Y-170041155D01*
X89452257Y-170041152D01*
X89456758Y-170032318D01*
X89475118Y-169916400D01*
X89456758Y-169800482D01*
X89452257Y-169791648D01*
X89452256Y-169791645D01*
X89430771Y-169749479D01*
X89403477Y-169695911D01*
X89320489Y-169612923D01*
X89266921Y-169585629D01*
X89224755Y-169564144D01*
X89224752Y-169564143D01*
X89215918Y-169559642D01*
X89100000Y-169541282D01*
X88984082Y-169559642D01*
X88975248Y-169564143D01*
X88975245Y-169564144D01*
X88933079Y-169585629D01*
X88879511Y-169612923D01*
X88796523Y-169695911D01*
X88769229Y-169749479D01*
X88747744Y-169791645D01*
X88747743Y-169791648D01*
X88743242Y-169800482D01*
X88724882Y-169916400D01*
X84120500Y-169916400D01*
X84120500Y-166157200D01*
X88724882Y-166157200D01*
X88743242Y-166273118D01*
X88747743Y-166281952D01*
X88747744Y-166281955D01*
X88769229Y-166324121D01*
X88796523Y-166377689D01*
X88879511Y-166460677D01*
X88933079Y-166487971D01*
X88975245Y-166509456D01*
X88975248Y-166509457D01*
X88984082Y-166513958D01*
X89100000Y-166532318D01*
X89215918Y-166513958D01*
X89224752Y-166509457D01*
X89224755Y-166509456D01*
X89266921Y-166487971D01*
X89320489Y-166460677D01*
X89403477Y-166377689D01*
X89430771Y-166324121D01*
X89452256Y-166281955D01*
X89452257Y-166281952D01*
X89456758Y-166273118D01*
X89475118Y-166157200D01*
X89456758Y-166041282D01*
X89452257Y-166032448D01*
X89452256Y-166032445D01*
X89430771Y-165990279D01*
X89403477Y-165936711D01*
X89320489Y-165853723D01*
X89266921Y-165826429D01*
X89224755Y-165804944D01*
X89224752Y-165804943D01*
X89215918Y-165800442D01*
X89100000Y-165782082D01*
X88984082Y-165800442D01*
X88975248Y-165804943D01*
X88975245Y-165804944D01*
X88933079Y-165826429D01*
X88879511Y-165853723D01*
X88796523Y-165936711D01*
X88769229Y-165990279D01*
X88747744Y-166032445D01*
X88747743Y-166032448D01*
X88743242Y-166041282D01*
X88724882Y-166157200D01*
X84120500Y-166157200D01*
X84120500Y-162858097D01*
X84140502Y-162789976D01*
X84194158Y-162743483D01*
X84264432Y-162733379D01*
X84329012Y-162762873D01*
X84351267Y-162788098D01*
X84360649Y-162802140D01*
X84360651Y-162802142D01*
X84367543Y-162812457D01*
X84400787Y-162834669D01*
X84430101Y-162840500D01*
X85289583Y-162840500D01*
X86149898Y-162840499D01*
X86163810Y-162837732D01*
X86167045Y-162837089D01*
X86179213Y-162834669D01*
X86212457Y-162812457D01*
X86234669Y-162779213D01*
X86240500Y-162749899D01*
X86240500Y-162398000D01*
X88724882Y-162398000D01*
X88743242Y-162513918D01*
X88747743Y-162522752D01*
X88747744Y-162522755D01*
X88769229Y-162564921D01*
X88796523Y-162618489D01*
X88879511Y-162701477D01*
X88933079Y-162728771D01*
X88975245Y-162750256D01*
X88975248Y-162750257D01*
X88984082Y-162754758D01*
X89100000Y-162773118D01*
X89215918Y-162754758D01*
X89224752Y-162750257D01*
X89224755Y-162750256D01*
X89266921Y-162728771D01*
X89320489Y-162701477D01*
X89403477Y-162618489D01*
X89430771Y-162564921D01*
X89452256Y-162522755D01*
X89452257Y-162522752D01*
X89456758Y-162513918D01*
X89475118Y-162398000D01*
X89456758Y-162282082D01*
X89452257Y-162273248D01*
X89452256Y-162273245D01*
X89430771Y-162231079D01*
X89403477Y-162177511D01*
X89320489Y-162094523D01*
X89266921Y-162067229D01*
X89224755Y-162045744D01*
X89224752Y-162045743D01*
X89215918Y-162041242D01*
X89100000Y-162022882D01*
X88984082Y-162041242D01*
X88975248Y-162045743D01*
X88975245Y-162045744D01*
X88933079Y-162067229D01*
X88879511Y-162094523D01*
X88796523Y-162177511D01*
X88769229Y-162231079D01*
X88747744Y-162273245D01*
X88747743Y-162273248D01*
X88743242Y-162282082D01*
X88724882Y-162398000D01*
X86240500Y-162398000D01*
X86240499Y-161030102D01*
X86237623Y-161015641D01*
X86237089Y-161012955D01*
X86234669Y-161000787D01*
X86212457Y-160967543D01*
X86179213Y-160945331D01*
X86149899Y-160939500D01*
X85290417Y-160939500D01*
X84430102Y-160939501D01*
X84416190Y-160942268D01*
X84412961Y-160942910D01*
X84400787Y-160945331D01*
X84367543Y-160967543D01*
X84360651Y-160977858D01*
X84360649Y-160977860D01*
X84351267Y-160991902D01*
X84296791Y-161037431D01*
X84226348Y-161046281D01*
X84162303Y-161015641D01*
X84124990Y-160955241D01*
X84120500Y-160921903D01*
X84120500Y-158638800D01*
X88724882Y-158638800D01*
X88743242Y-158754718D01*
X88747743Y-158763552D01*
X88747744Y-158763555D01*
X88769229Y-158805721D01*
X88796523Y-158859289D01*
X88879511Y-158942277D01*
X88933079Y-158969571D01*
X88975245Y-158991056D01*
X88975248Y-158991057D01*
X88984082Y-158995558D01*
X89100000Y-159013918D01*
X89215918Y-158995558D01*
X89224752Y-158991057D01*
X89224755Y-158991056D01*
X89266921Y-158969571D01*
X89320489Y-158942277D01*
X89403477Y-158859289D01*
X89430771Y-158805721D01*
X89452256Y-158763555D01*
X89452257Y-158763552D01*
X89456758Y-158754718D01*
X89475118Y-158638800D01*
X89456758Y-158522882D01*
X89452257Y-158514048D01*
X89452256Y-158514045D01*
X89430771Y-158471879D01*
X89403477Y-158418311D01*
X89320489Y-158335323D01*
X89266921Y-158308029D01*
X89224755Y-158286544D01*
X89224752Y-158286543D01*
X89215918Y-158282042D01*
X89100000Y-158263682D01*
X88984082Y-158282042D01*
X88975248Y-158286543D01*
X88975245Y-158286544D01*
X88933079Y-158308029D01*
X88879511Y-158335323D01*
X88796523Y-158418311D01*
X88769229Y-158471879D01*
X88747744Y-158514045D01*
X88747743Y-158514048D01*
X88743242Y-158522882D01*
X88724882Y-158638800D01*
X84120500Y-158638800D01*
X84120500Y-154879600D01*
X88724882Y-154879600D01*
X88743242Y-154995518D01*
X88747743Y-155004352D01*
X88747744Y-155004355D01*
X88769229Y-155046521D01*
X88796523Y-155100089D01*
X88879511Y-155183077D01*
X88933079Y-155210371D01*
X88975245Y-155231856D01*
X88975248Y-155231857D01*
X88984082Y-155236358D01*
X89100000Y-155254718D01*
X89215918Y-155236358D01*
X89224752Y-155231857D01*
X89224755Y-155231856D01*
X89266921Y-155210371D01*
X89320489Y-155183077D01*
X89403477Y-155100089D01*
X89430771Y-155046521D01*
X89452256Y-155004355D01*
X89452257Y-155004352D01*
X89456758Y-154995518D01*
X89475118Y-154879600D01*
X89456758Y-154763682D01*
X89452257Y-154754848D01*
X89452256Y-154754845D01*
X89430771Y-154712679D01*
X89403477Y-154659111D01*
X89320489Y-154576123D01*
X89266921Y-154548829D01*
X89224755Y-154527344D01*
X89224752Y-154527343D01*
X89215918Y-154522842D01*
X89100000Y-154504482D01*
X88984082Y-154522842D01*
X88975248Y-154527343D01*
X88975245Y-154527344D01*
X88933079Y-154548829D01*
X88879511Y-154576123D01*
X88796523Y-154659111D01*
X88769229Y-154712679D01*
X88747744Y-154754845D01*
X88747743Y-154754848D01*
X88743242Y-154763682D01*
X88724882Y-154879600D01*
X84120500Y-154879600D01*
X84120500Y-151120400D01*
X88724882Y-151120400D01*
X88743242Y-151236318D01*
X88747743Y-151245152D01*
X88747744Y-151245155D01*
X88769229Y-151287321D01*
X88796523Y-151340889D01*
X88879511Y-151423877D01*
X88933079Y-151451171D01*
X88975245Y-151472656D01*
X88975248Y-151472657D01*
X88984082Y-151477158D01*
X89100000Y-151495518D01*
X89215918Y-151477158D01*
X89224752Y-151472657D01*
X89224755Y-151472656D01*
X89266921Y-151451171D01*
X89320489Y-151423877D01*
X89403477Y-151340889D01*
X89430771Y-151287321D01*
X89452256Y-151245155D01*
X89452257Y-151245152D01*
X89456758Y-151236318D01*
X89475118Y-151120400D01*
X89456758Y-151004482D01*
X89452257Y-150995648D01*
X89452256Y-150995645D01*
X89430771Y-150953479D01*
X89403477Y-150899911D01*
X89320489Y-150816923D01*
X89266921Y-150789629D01*
X89224755Y-150768144D01*
X89224752Y-150768143D01*
X89215918Y-150763642D01*
X89100000Y-150745282D01*
X88984082Y-150763642D01*
X88975248Y-150768143D01*
X88975245Y-150768144D01*
X88933079Y-150789629D01*
X88879511Y-150816923D01*
X88796523Y-150899911D01*
X88769229Y-150953479D01*
X88747744Y-150995645D01*
X88747743Y-150995648D01*
X88743242Y-151004482D01*
X88724882Y-151120400D01*
X84120500Y-151120400D01*
X84120500Y-147618097D01*
X84140502Y-147549976D01*
X84194158Y-147503483D01*
X84264432Y-147493379D01*
X84329012Y-147522873D01*
X84351267Y-147548098D01*
X84360649Y-147562140D01*
X84360651Y-147562142D01*
X84367543Y-147572457D01*
X84400787Y-147594669D01*
X84430101Y-147600500D01*
X85289583Y-147600500D01*
X86149898Y-147600499D01*
X86163810Y-147597732D01*
X86167045Y-147597089D01*
X86179213Y-147594669D01*
X86212457Y-147572457D01*
X86234669Y-147539213D01*
X86240500Y-147509899D01*
X86240500Y-147412000D01*
X88724882Y-147412000D01*
X88743242Y-147527918D01*
X88747743Y-147536752D01*
X88747744Y-147536755D01*
X88769229Y-147578921D01*
X88796523Y-147632489D01*
X88879511Y-147715477D01*
X88933079Y-147742771D01*
X88975245Y-147764256D01*
X88975248Y-147764257D01*
X88984082Y-147768758D01*
X89100000Y-147787118D01*
X89215918Y-147768758D01*
X89224752Y-147764257D01*
X89224755Y-147764256D01*
X89266921Y-147742771D01*
X89320489Y-147715477D01*
X89403477Y-147632489D01*
X89430771Y-147578921D01*
X89452256Y-147536755D01*
X89452257Y-147536752D01*
X89456758Y-147527918D01*
X89475118Y-147412000D01*
X89456758Y-147296082D01*
X89452257Y-147287248D01*
X89452256Y-147287245D01*
X89430771Y-147245079D01*
X89403477Y-147191511D01*
X89320489Y-147108523D01*
X89266921Y-147081229D01*
X89224755Y-147059744D01*
X89224752Y-147059743D01*
X89215918Y-147055242D01*
X89100000Y-147036882D01*
X88984082Y-147055242D01*
X88975248Y-147059743D01*
X88975245Y-147059744D01*
X88933079Y-147081229D01*
X88879511Y-147108523D01*
X88796523Y-147191511D01*
X88769229Y-147245079D01*
X88747744Y-147287245D01*
X88747743Y-147287248D01*
X88743242Y-147296082D01*
X88724882Y-147412000D01*
X86240500Y-147412000D01*
X86240499Y-145790102D01*
X86237623Y-145775641D01*
X86237089Y-145772955D01*
X86234669Y-145760787D01*
X86212457Y-145727543D01*
X86179213Y-145705331D01*
X86149899Y-145699500D01*
X85290417Y-145699500D01*
X84430102Y-145699501D01*
X84416190Y-145702268D01*
X84412961Y-145702910D01*
X84400787Y-145705331D01*
X84367543Y-145727543D01*
X84360651Y-145737858D01*
X84360649Y-145737860D01*
X84351267Y-145751902D01*
X84296791Y-145797431D01*
X84226348Y-145806281D01*
X84162303Y-145775641D01*
X84124990Y-145715241D01*
X84120500Y-145681903D01*
X84120500Y-143652800D01*
X88724882Y-143652800D01*
X88743242Y-143768718D01*
X88747743Y-143777552D01*
X88747744Y-143777555D01*
X88769229Y-143819721D01*
X88796523Y-143873289D01*
X88879511Y-143956277D01*
X88933079Y-143983571D01*
X88975245Y-144005056D01*
X88975248Y-144005057D01*
X88984082Y-144009558D01*
X89100000Y-144027918D01*
X89215918Y-144009558D01*
X89224752Y-144005057D01*
X89224755Y-144005056D01*
X89266921Y-143983571D01*
X89320489Y-143956277D01*
X89403477Y-143873289D01*
X89430771Y-143819721D01*
X89452256Y-143777555D01*
X89452257Y-143777552D01*
X89456758Y-143768718D01*
X89475118Y-143652800D01*
X89456758Y-143536882D01*
X89452257Y-143528048D01*
X89452256Y-143528045D01*
X89430771Y-143485879D01*
X89403477Y-143432311D01*
X89320489Y-143349323D01*
X89266921Y-143322029D01*
X89224755Y-143300544D01*
X89224752Y-143300543D01*
X89215918Y-143296042D01*
X89100000Y-143277682D01*
X88984082Y-143296042D01*
X88975248Y-143300543D01*
X88975245Y-143300544D01*
X88933079Y-143322029D01*
X88879511Y-143349323D01*
X88796523Y-143432311D01*
X88769229Y-143485879D01*
X88747744Y-143528045D01*
X88747743Y-143528048D01*
X88743242Y-143536882D01*
X88724882Y-143652800D01*
X84120500Y-143652800D01*
X84120500Y-139893600D01*
X88724882Y-139893600D01*
X88743242Y-140009518D01*
X88747743Y-140018352D01*
X88747744Y-140018355D01*
X88769229Y-140060521D01*
X88796523Y-140114089D01*
X88879511Y-140197077D01*
X88933079Y-140224371D01*
X88975245Y-140245856D01*
X88975248Y-140245857D01*
X88984082Y-140250358D01*
X89100000Y-140268718D01*
X89215918Y-140250358D01*
X89224752Y-140245857D01*
X89224755Y-140245856D01*
X89266921Y-140224371D01*
X89320489Y-140197077D01*
X89403477Y-140114089D01*
X89430771Y-140060521D01*
X89452256Y-140018355D01*
X89452257Y-140018352D01*
X89456758Y-140009518D01*
X89475118Y-139893600D01*
X89456758Y-139777682D01*
X89452257Y-139768848D01*
X89452256Y-139768845D01*
X89430771Y-139726679D01*
X89403477Y-139673111D01*
X89320489Y-139590123D01*
X89266921Y-139562829D01*
X89224755Y-139541344D01*
X89224752Y-139541343D01*
X89215918Y-139536842D01*
X89100000Y-139518482D01*
X88984082Y-139536842D01*
X88975248Y-139541343D01*
X88975245Y-139541344D01*
X88933079Y-139562829D01*
X88879511Y-139590123D01*
X88796523Y-139673111D01*
X88769229Y-139726679D01*
X88747744Y-139768845D01*
X88747743Y-139768848D01*
X88743242Y-139777682D01*
X88724882Y-139893600D01*
X84120500Y-139893600D01*
X84120500Y-136134400D01*
X88724882Y-136134400D01*
X88743242Y-136250318D01*
X88747743Y-136259152D01*
X88747744Y-136259155D01*
X88769229Y-136301321D01*
X88796523Y-136354889D01*
X88879511Y-136437877D01*
X88933079Y-136465171D01*
X88975245Y-136486656D01*
X88975248Y-136486657D01*
X88984082Y-136491158D01*
X89100000Y-136509518D01*
X89215918Y-136491158D01*
X89224752Y-136486657D01*
X89224755Y-136486656D01*
X89266921Y-136465171D01*
X89320489Y-136437877D01*
X89403477Y-136354889D01*
X89430771Y-136301321D01*
X89452256Y-136259155D01*
X89452257Y-136259152D01*
X89456758Y-136250318D01*
X89475118Y-136134400D01*
X89456758Y-136018482D01*
X89452257Y-136009648D01*
X89452256Y-136009645D01*
X89430771Y-135967479D01*
X89403477Y-135913911D01*
X89320489Y-135830923D01*
X89266921Y-135803629D01*
X89224755Y-135782144D01*
X89224752Y-135782143D01*
X89215918Y-135777642D01*
X89100000Y-135759282D01*
X88984082Y-135777642D01*
X88975248Y-135782143D01*
X88975245Y-135782144D01*
X88933079Y-135803629D01*
X88879511Y-135830923D01*
X88796523Y-135913911D01*
X88769229Y-135967479D01*
X88747744Y-136009645D01*
X88747743Y-136009648D01*
X88743242Y-136018482D01*
X88724882Y-136134400D01*
X84120500Y-136134400D01*
X84120500Y-132378097D01*
X84121351Y-132375200D01*
X88724882Y-132375200D01*
X88743242Y-132491118D01*
X88747743Y-132499952D01*
X88747744Y-132499955D01*
X88769229Y-132542121D01*
X88796523Y-132595689D01*
X88879511Y-132678677D01*
X88933079Y-132705971D01*
X88975245Y-132727456D01*
X88975248Y-132727457D01*
X88984082Y-132731958D01*
X89100000Y-132750318D01*
X89215918Y-132731958D01*
X89224752Y-132727457D01*
X89224755Y-132727456D01*
X89266921Y-132705971D01*
X89320489Y-132678677D01*
X89403477Y-132595689D01*
X89430771Y-132542121D01*
X89452256Y-132499955D01*
X89452257Y-132499952D01*
X89456758Y-132491118D01*
X89475118Y-132375200D01*
X89456758Y-132259282D01*
X89452257Y-132250448D01*
X89452256Y-132250445D01*
X89430771Y-132208279D01*
X89403477Y-132154711D01*
X89320489Y-132071723D01*
X89266921Y-132044429D01*
X89224755Y-132022944D01*
X89224752Y-132022943D01*
X89215918Y-132018442D01*
X89100000Y-132000082D01*
X88984082Y-132018442D01*
X88975248Y-132022943D01*
X88975245Y-132022944D01*
X88933079Y-132044429D01*
X88879511Y-132071723D01*
X88796523Y-132154711D01*
X88769229Y-132208279D01*
X88747744Y-132250445D01*
X88747743Y-132250448D01*
X88743242Y-132259282D01*
X88724882Y-132375200D01*
X84121351Y-132375200D01*
X84140502Y-132309976D01*
X84194158Y-132263483D01*
X84264432Y-132253379D01*
X84329012Y-132282873D01*
X84351267Y-132308098D01*
X84360649Y-132322140D01*
X84360651Y-132322142D01*
X84367543Y-132332457D01*
X84400787Y-132354669D01*
X84430101Y-132360500D01*
X85289583Y-132360500D01*
X86149898Y-132360499D01*
X86163810Y-132357732D01*
X86167045Y-132357089D01*
X86179213Y-132354669D01*
X86212457Y-132332457D01*
X86234669Y-132299213D01*
X86240500Y-132269899D01*
X86240499Y-130550102D01*
X86237623Y-130535641D01*
X86237089Y-130532955D01*
X86234669Y-130520787D01*
X86212457Y-130487543D01*
X86179213Y-130465331D01*
X86149899Y-130459500D01*
X85290417Y-130459500D01*
X84430102Y-130459501D01*
X84416190Y-130462268D01*
X84412961Y-130462910D01*
X84400787Y-130465331D01*
X84367543Y-130487543D01*
X84360651Y-130497858D01*
X84360649Y-130497860D01*
X84351267Y-130511902D01*
X84296791Y-130557431D01*
X84226348Y-130566281D01*
X84162303Y-130535641D01*
X84124990Y-130475241D01*
X84120500Y-130441903D01*
X84120500Y-128616000D01*
X88724882Y-128616000D01*
X88743242Y-128731918D01*
X88747743Y-128740752D01*
X88747744Y-128740755D01*
X88769229Y-128782921D01*
X88796523Y-128836489D01*
X88879511Y-128919477D01*
X88933079Y-128946771D01*
X88975245Y-128968256D01*
X88975248Y-128968257D01*
X88984082Y-128972758D01*
X89100000Y-128991118D01*
X89215918Y-128972758D01*
X89224752Y-128968257D01*
X89224755Y-128968256D01*
X89266921Y-128946771D01*
X89320489Y-128919477D01*
X89403477Y-128836489D01*
X89430771Y-128782921D01*
X89452256Y-128740755D01*
X89452257Y-128740752D01*
X89456758Y-128731918D01*
X89475118Y-128616000D01*
X89456758Y-128500082D01*
X89452257Y-128491248D01*
X89452256Y-128491245D01*
X89430771Y-128449079D01*
X89403477Y-128395511D01*
X89320489Y-128312523D01*
X89266921Y-128285229D01*
X89224755Y-128263744D01*
X89224752Y-128263743D01*
X89215918Y-128259242D01*
X89100000Y-128240882D01*
X88984082Y-128259242D01*
X88975248Y-128263743D01*
X88975245Y-128263744D01*
X88933079Y-128285229D01*
X88879511Y-128312523D01*
X88796523Y-128395511D01*
X88769229Y-128449079D01*
X88747744Y-128491245D01*
X88747743Y-128491248D01*
X88743242Y-128500082D01*
X88724882Y-128616000D01*
X84120500Y-128616000D01*
X84120500Y-124856800D01*
X88724882Y-124856800D01*
X88743242Y-124972718D01*
X88747743Y-124981552D01*
X88747744Y-124981555D01*
X88769229Y-125023721D01*
X88796523Y-125077289D01*
X88879511Y-125160277D01*
X88933079Y-125187571D01*
X88975245Y-125209056D01*
X88975248Y-125209057D01*
X88984082Y-125213558D01*
X89100000Y-125231918D01*
X89215918Y-125213558D01*
X89224752Y-125209057D01*
X89224755Y-125209056D01*
X89266921Y-125187571D01*
X89320489Y-125160277D01*
X89403477Y-125077289D01*
X89430771Y-125023721D01*
X89452256Y-124981555D01*
X89452257Y-124981552D01*
X89456758Y-124972718D01*
X89475118Y-124856800D01*
X89456758Y-124740882D01*
X89452257Y-124732048D01*
X89452256Y-124732045D01*
X89430771Y-124689879D01*
X89403477Y-124636311D01*
X89320489Y-124553323D01*
X89266921Y-124526029D01*
X89224755Y-124504544D01*
X89224752Y-124504543D01*
X89215918Y-124500042D01*
X89100000Y-124481682D01*
X88984082Y-124500042D01*
X88975248Y-124504543D01*
X88975245Y-124504544D01*
X88933079Y-124526029D01*
X88879511Y-124553323D01*
X88796523Y-124636311D01*
X88769229Y-124689879D01*
X88747744Y-124732045D01*
X88747743Y-124732048D01*
X88743242Y-124740882D01*
X88724882Y-124856800D01*
X84120500Y-124856800D01*
X84120500Y-121097600D01*
X88724882Y-121097600D01*
X88743242Y-121213518D01*
X88747743Y-121222352D01*
X88747744Y-121222355D01*
X88769229Y-121264521D01*
X88796523Y-121318089D01*
X88879511Y-121401077D01*
X88933079Y-121428371D01*
X88975245Y-121449856D01*
X88975248Y-121449857D01*
X88984082Y-121454358D01*
X89100000Y-121472718D01*
X89215918Y-121454358D01*
X89224752Y-121449857D01*
X89224755Y-121449856D01*
X89266921Y-121428371D01*
X89320489Y-121401077D01*
X89403477Y-121318089D01*
X89430771Y-121264521D01*
X89452256Y-121222355D01*
X89452257Y-121222352D01*
X89456758Y-121213518D01*
X89475118Y-121097600D01*
X89456758Y-120981682D01*
X89452257Y-120972848D01*
X89452256Y-120972845D01*
X89430771Y-120930679D01*
X89403477Y-120877111D01*
X89320489Y-120794123D01*
X89266921Y-120766829D01*
X89224755Y-120745344D01*
X89224752Y-120745343D01*
X89215918Y-120740842D01*
X89100000Y-120722482D01*
X88984082Y-120740842D01*
X88975248Y-120745343D01*
X88975245Y-120745344D01*
X88933079Y-120766829D01*
X88879511Y-120794123D01*
X88796523Y-120877111D01*
X88769229Y-120930679D01*
X88747744Y-120972845D01*
X88747743Y-120972848D01*
X88743242Y-120981682D01*
X88724882Y-121097600D01*
X84120500Y-121097600D01*
X84120500Y-117338400D01*
X88724882Y-117338400D01*
X88743242Y-117454318D01*
X88747743Y-117463152D01*
X88747744Y-117463155D01*
X88769229Y-117505321D01*
X88796523Y-117558889D01*
X88879511Y-117641877D01*
X88933079Y-117669171D01*
X88975245Y-117690656D01*
X88975248Y-117690657D01*
X88984082Y-117695158D01*
X89100000Y-117713518D01*
X89215918Y-117695158D01*
X89224752Y-117690657D01*
X89224755Y-117690656D01*
X89266921Y-117669171D01*
X89320489Y-117641877D01*
X89403477Y-117558889D01*
X89430771Y-117505321D01*
X89452256Y-117463155D01*
X89452257Y-117463152D01*
X89456758Y-117454318D01*
X89475118Y-117338400D01*
X89456758Y-117222482D01*
X89452257Y-117213648D01*
X89452256Y-117213645D01*
X89413762Y-117138097D01*
X89403477Y-117117911D01*
X89320489Y-117034923D01*
X89266921Y-117007629D01*
X89224755Y-116986144D01*
X89224752Y-116986143D01*
X89215918Y-116981642D01*
X89100000Y-116963282D01*
X88984082Y-116981642D01*
X88975248Y-116986143D01*
X88975245Y-116986144D01*
X88933079Y-117007629D01*
X88879511Y-117034923D01*
X88796523Y-117117911D01*
X88786238Y-117138097D01*
X88747744Y-117213645D01*
X88747743Y-117213648D01*
X88743242Y-117222482D01*
X88724882Y-117338400D01*
X84120500Y-117338400D01*
X84120500Y-117138097D01*
X84140502Y-117069976D01*
X84194158Y-117023483D01*
X84264432Y-117013379D01*
X84329012Y-117042873D01*
X84351267Y-117068098D01*
X84360649Y-117082140D01*
X84360651Y-117082142D01*
X84367543Y-117092457D01*
X84400787Y-117114669D01*
X84430101Y-117120500D01*
X85289583Y-117120500D01*
X86149898Y-117120499D01*
X86163810Y-117117732D01*
X86167045Y-117117089D01*
X86179213Y-117114669D01*
X86212457Y-117092457D01*
X86234669Y-117059213D01*
X86240500Y-117029899D01*
X86240499Y-115310102D01*
X86237623Y-115295641D01*
X86237089Y-115292955D01*
X86234669Y-115280787D01*
X86212457Y-115247543D01*
X86179213Y-115225331D01*
X86149899Y-115219500D01*
X85290417Y-115219500D01*
X84430102Y-115219501D01*
X84416190Y-115222268D01*
X84412961Y-115222910D01*
X84400787Y-115225331D01*
X84367543Y-115247543D01*
X84360651Y-115257858D01*
X84360649Y-115257860D01*
X84351267Y-115271902D01*
X84296791Y-115317431D01*
X84226348Y-115326281D01*
X84162303Y-115295641D01*
X84124990Y-115235241D01*
X84120500Y-115201903D01*
X84120500Y-113579200D01*
X88724882Y-113579200D01*
X88743242Y-113695118D01*
X88747743Y-113703952D01*
X88747744Y-113703955D01*
X88769229Y-113746121D01*
X88796523Y-113799689D01*
X88879511Y-113882677D01*
X88933079Y-113909971D01*
X88975245Y-113931456D01*
X88975248Y-113931457D01*
X88984082Y-113935958D01*
X89100000Y-113954318D01*
X89215918Y-113935958D01*
X89224752Y-113931457D01*
X89224755Y-113931456D01*
X89266921Y-113909971D01*
X89320489Y-113882677D01*
X89403477Y-113799689D01*
X89430771Y-113746121D01*
X89452256Y-113703955D01*
X89452257Y-113703952D01*
X89456758Y-113695118D01*
X89475118Y-113579200D01*
X89456758Y-113463282D01*
X89452257Y-113454448D01*
X89452256Y-113454445D01*
X89430771Y-113412279D01*
X89403477Y-113358711D01*
X89320489Y-113275723D01*
X89266921Y-113248429D01*
X89224755Y-113226944D01*
X89224752Y-113226943D01*
X89215918Y-113222442D01*
X89100000Y-113204082D01*
X88984082Y-113222442D01*
X88975248Y-113226943D01*
X88975245Y-113226944D01*
X88933079Y-113248429D01*
X88879511Y-113275723D01*
X88796523Y-113358711D01*
X88769229Y-113412279D01*
X88747744Y-113454445D01*
X88747743Y-113454448D01*
X88743242Y-113463282D01*
X88724882Y-113579200D01*
X84120500Y-113579200D01*
X84120500Y-110093846D01*
X84140502Y-110025725D01*
X84194158Y-109979232D01*
X84201242Y-109976595D01*
X84204829Y-109976081D01*
X84212998Y-109972367D01*
X84213001Y-109972366D01*
X84293163Y-109935918D01*
X84328820Y-109919706D01*
X84432004Y-109830796D01*
X84439002Y-109820000D01*
X88724882Y-109820000D01*
X88743242Y-109935918D01*
X88747743Y-109944752D01*
X88747744Y-109944755D01*
X88762294Y-109973311D01*
X88796523Y-110040489D01*
X88879511Y-110123477D01*
X88933079Y-110150771D01*
X88975245Y-110172256D01*
X88975248Y-110172257D01*
X88984082Y-110176758D01*
X89100000Y-110195118D01*
X89215918Y-110176758D01*
X89224752Y-110172257D01*
X89224755Y-110172256D01*
X89266921Y-110150771D01*
X89320489Y-110123477D01*
X89403477Y-110040489D01*
X89437706Y-109973311D01*
X89452256Y-109944755D01*
X89452257Y-109944752D01*
X89456758Y-109935918D01*
X89475118Y-109820000D01*
X89456758Y-109704082D01*
X89452257Y-109695248D01*
X89452256Y-109695245D01*
X89430771Y-109653079D01*
X89403477Y-109599511D01*
X89320489Y-109516523D01*
X89266921Y-109489229D01*
X89224755Y-109467744D01*
X89224752Y-109467743D01*
X89215918Y-109463242D01*
X89100000Y-109444882D01*
X88984082Y-109463242D01*
X88975248Y-109467743D01*
X88975245Y-109467744D01*
X88933079Y-109489229D01*
X88879511Y-109516523D01*
X88796523Y-109599511D01*
X88769229Y-109653079D01*
X88747744Y-109695245D01*
X88747743Y-109695248D01*
X88743242Y-109704082D01*
X88724882Y-109820000D01*
X84439002Y-109820000D01*
X84506087Y-109716501D01*
X84545113Y-109586006D01*
X84545945Y-109449804D01*
X84508516Y-109318842D01*
X84503725Y-109311248D01*
X84472835Y-109262290D01*
X84453401Y-109194005D01*
X84473665Y-109126523D01*
X84501204Y-109084035D01*
X84501205Y-109084033D01*
X84506087Y-109076501D01*
X84545113Y-108946006D01*
X84545945Y-108809804D01*
X84508516Y-108678842D01*
X84503725Y-108671248D01*
X84472835Y-108622290D01*
X84453401Y-108554005D01*
X84473665Y-108486523D01*
X84501204Y-108444035D01*
X84501205Y-108444033D01*
X84506087Y-108436501D01*
X84545113Y-108306006D01*
X84545945Y-108169804D01*
X84508516Y-108038842D01*
X84503725Y-108031248D01*
X84472835Y-107982290D01*
X84453401Y-107914005D01*
X84473665Y-107846523D01*
X84501204Y-107804035D01*
X84501205Y-107804033D01*
X84506087Y-107796501D01*
X84545113Y-107666006D01*
X84545945Y-107529804D01*
X84508516Y-107398842D01*
X84503725Y-107391248D01*
X84472835Y-107342290D01*
X84453401Y-107274005D01*
X84473665Y-107206523D01*
X84501204Y-107164035D01*
X84501205Y-107164033D01*
X84506087Y-107156501D01*
X84545113Y-107026006D01*
X84545945Y-106889804D01*
X84508516Y-106758842D01*
X84500509Y-106746151D01*
X84472835Y-106702290D01*
X84453401Y-106634005D01*
X84473665Y-106566523D01*
X84501204Y-106524035D01*
X84501205Y-106524033D01*
X84506087Y-106516501D01*
X84545113Y-106386006D01*
X84545400Y-106339106D01*
X84545890Y-106258779D01*
X84545945Y-106249804D01*
X84508516Y-106118842D01*
X84503947Y-106111600D01*
X88724882Y-106111600D01*
X88743242Y-106227518D01*
X88747743Y-106236352D01*
X88747744Y-106236355D01*
X88759170Y-106258779D01*
X88796523Y-106332089D01*
X88879511Y-106415077D01*
X88933079Y-106442371D01*
X88975245Y-106463856D01*
X88975248Y-106463857D01*
X88984082Y-106468358D01*
X89100000Y-106486718D01*
X89215918Y-106468358D01*
X89224752Y-106463857D01*
X89224755Y-106463856D01*
X89266921Y-106442371D01*
X89320489Y-106415077D01*
X89403477Y-106332089D01*
X89440830Y-106258779D01*
X89452256Y-106236355D01*
X89452257Y-106236352D01*
X89456758Y-106227518D01*
X89475118Y-106111600D01*
X89456758Y-105995682D01*
X89452257Y-105986848D01*
X89452256Y-105986845D01*
X89430771Y-105944679D01*
X89403477Y-105891111D01*
X89320489Y-105808123D01*
X89266921Y-105780829D01*
X89224755Y-105759344D01*
X89224752Y-105759343D01*
X89215918Y-105754842D01*
X89100000Y-105736482D01*
X88984082Y-105754842D01*
X88975248Y-105759343D01*
X88975245Y-105759344D01*
X88933079Y-105780829D01*
X88879511Y-105808123D01*
X88796523Y-105891111D01*
X88769229Y-105944679D01*
X88747744Y-105986845D01*
X88747743Y-105986848D01*
X88743242Y-105995682D01*
X88724882Y-106111600D01*
X84503947Y-106111600D01*
X84435835Y-106003650D01*
X84333745Y-105913487D01*
X84325622Y-105909673D01*
X84325620Y-105909672D01*
X84222045Y-105861044D01*
X84210452Y-105855601D01*
X84207249Y-105855102D01*
X84150363Y-105817643D01*
X84121591Y-105752738D01*
X84120500Y-105736195D01*
X84120500Y-102301600D01*
X88724882Y-102301600D01*
X88743242Y-102417518D01*
X88747743Y-102426352D01*
X88747744Y-102426355D01*
X88769229Y-102468521D01*
X88796523Y-102522089D01*
X88879511Y-102605077D01*
X88933079Y-102632371D01*
X88975245Y-102653856D01*
X88975248Y-102653857D01*
X88984082Y-102658358D01*
X89100000Y-102676718D01*
X89215918Y-102658358D01*
X89224752Y-102653857D01*
X89224755Y-102653856D01*
X89266921Y-102632371D01*
X89320489Y-102605077D01*
X89403477Y-102522089D01*
X89430771Y-102468521D01*
X89452256Y-102426355D01*
X89452257Y-102426352D01*
X89456758Y-102417518D01*
X89475118Y-102301600D01*
X89456758Y-102185682D01*
X89452257Y-102176848D01*
X89452256Y-102176845D01*
X89430771Y-102134679D01*
X89403477Y-102081111D01*
X89320489Y-101998123D01*
X89266921Y-101970829D01*
X89224755Y-101949344D01*
X89224752Y-101949343D01*
X89215918Y-101944842D01*
X89100000Y-101926482D01*
X88984082Y-101944842D01*
X88975248Y-101949343D01*
X88975245Y-101949344D01*
X88933079Y-101970829D01*
X88879511Y-101998123D01*
X88796523Y-102081111D01*
X88769229Y-102134679D01*
X88747744Y-102176845D01*
X88747743Y-102176848D01*
X88743242Y-102185682D01*
X88724882Y-102301600D01*
X84120500Y-102301600D01*
X84120500Y-101898097D01*
X84140502Y-101829976D01*
X84194158Y-101783483D01*
X84264432Y-101773379D01*
X84329012Y-101802873D01*
X84351267Y-101828098D01*
X84360649Y-101842140D01*
X84360651Y-101842142D01*
X84367543Y-101852457D01*
X84400787Y-101874669D01*
X84430101Y-101880500D01*
X85289583Y-101880500D01*
X86149898Y-101880499D01*
X86163810Y-101877732D01*
X86167045Y-101877089D01*
X86179213Y-101874669D01*
X86212457Y-101852457D01*
X86234669Y-101819213D01*
X86240500Y-101789899D01*
X86240499Y-100070102D01*
X86237623Y-100055641D01*
X86237089Y-100052955D01*
X86234669Y-100040787D01*
X86212457Y-100007543D01*
X86179213Y-99985331D01*
X86149899Y-99979500D01*
X85290417Y-99979500D01*
X84430102Y-99979501D01*
X84416190Y-99982268D01*
X84412961Y-99982910D01*
X84400787Y-99985331D01*
X84367543Y-100007543D01*
X84360651Y-100017858D01*
X84360649Y-100017860D01*
X84351267Y-100031902D01*
X84296791Y-100077431D01*
X84226348Y-100086281D01*
X84162303Y-100055641D01*
X84124990Y-99995241D01*
X84120500Y-99961903D01*
X84120500Y-94580000D01*
X88724882Y-94580000D01*
X88743242Y-94695918D01*
X88747743Y-94704752D01*
X88747744Y-94704755D01*
X88769229Y-94746921D01*
X88796523Y-94800489D01*
X88879511Y-94883477D01*
X88933079Y-94910771D01*
X88975245Y-94932256D01*
X88975248Y-94932257D01*
X88984082Y-94936758D01*
X89100000Y-94955118D01*
X89215918Y-94936758D01*
X89224752Y-94932257D01*
X89224755Y-94932256D01*
X89266921Y-94910771D01*
X89320489Y-94883477D01*
X89403477Y-94800489D01*
X89430771Y-94746921D01*
X89452256Y-94704755D01*
X89452257Y-94704752D01*
X89456758Y-94695918D01*
X89475118Y-94580000D01*
X89456758Y-94464082D01*
X89452257Y-94455248D01*
X89452256Y-94455245D01*
X89430771Y-94413079D01*
X89403477Y-94359511D01*
X89344761Y-94300795D01*
X89310735Y-94238483D01*
X89315800Y-94167668D01*
X89344761Y-94122605D01*
X89403477Y-94063889D01*
X89430771Y-94010321D01*
X89452256Y-93968155D01*
X89452257Y-93968152D01*
X89456758Y-93959318D01*
X89475118Y-93843400D01*
X89456758Y-93727482D01*
X89452257Y-93718648D01*
X89452256Y-93718645D01*
X89430771Y-93676479D01*
X89403477Y-93622911D01*
X89320489Y-93539923D01*
X89266921Y-93512629D01*
X89224755Y-93491144D01*
X89224752Y-93491143D01*
X89215918Y-93486642D01*
X89100000Y-93468282D01*
X88984082Y-93486642D01*
X88975248Y-93491143D01*
X88975245Y-93491144D01*
X88933079Y-93512629D01*
X88879511Y-93539923D01*
X88796523Y-93622911D01*
X88769229Y-93676479D01*
X88747744Y-93718645D01*
X88747743Y-93718648D01*
X88743242Y-93727482D01*
X88724882Y-93843400D01*
X88743242Y-93959318D01*
X88747743Y-93968152D01*
X88747744Y-93968155D01*
X88769229Y-94010321D01*
X88796523Y-94063889D01*
X88855239Y-94122605D01*
X88889265Y-94184917D01*
X88884200Y-94255732D01*
X88855239Y-94300795D01*
X88796523Y-94359511D01*
X88769229Y-94413079D01*
X88747744Y-94455245D01*
X88747743Y-94455248D01*
X88743242Y-94464082D01*
X88724882Y-94580000D01*
X84120500Y-94580000D01*
X84120500Y-90363600D01*
X88724882Y-90363600D01*
X88743242Y-90479518D01*
X88747743Y-90488352D01*
X88747744Y-90488355D01*
X88769229Y-90530521D01*
X88796523Y-90584089D01*
X88879511Y-90667077D01*
X88933079Y-90694371D01*
X88975245Y-90715856D01*
X88975248Y-90715857D01*
X88984082Y-90720358D01*
X89100000Y-90738718D01*
X89215918Y-90720358D01*
X89224752Y-90715857D01*
X89224755Y-90715856D01*
X89266921Y-90694371D01*
X89320489Y-90667077D01*
X89403477Y-90584089D01*
X89430771Y-90530521D01*
X89452256Y-90488355D01*
X89452257Y-90488352D01*
X89456758Y-90479518D01*
X89475118Y-90363600D01*
X89456758Y-90247682D01*
X89452257Y-90238848D01*
X89452256Y-90238845D01*
X89430771Y-90196679D01*
X89403477Y-90143111D01*
X89350217Y-90089851D01*
X89316191Y-90027539D01*
X89321256Y-89956724D01*
X89350216Y-89911661D01*
X89414388Y-89847489D01*
X89441682Y-89793921D01*
X89463167Y-89751755D01*
X89463168Y-89751752D01*
X89467669Y-89742918D01*
X89486029Y-89627000D01*
X89467669Y-89511082D01*
X89463168Y-89502248D01*
X89463167Y-89502245D01*
X89441682Y-89460079D01*
X89414388Y-89406511D01*
X89337517Y-89329640D01*
X89303491Y-89267328D01*
X89308556Y-89196513D01*
X89337516Y-89151450D01*
X89403477Y-89085489D01*
X89430771Y-89031921D01*
X89452256Y-88989755D01*
X89452257Y-88989752D01*
X89456758Y-88980918D01*
X89475118Y-88865000D01*
X89456758Y-88749082D01*
X89452257Y-88740248D01*
X89452256Y-88740245D01*
X89430771Y-88698079D01*
X89403477Y-88644511D01*
X89320489Y-88561523D01*
X89264126Y-88532805D01*
X89212510Y-88484057D01*
X89195444Y-88415143D01*
X89218344Y-88347941D01*
X89264126Y-88308271D01*
X89319649Y-88279981D01*
X89328489Y-88275477D01*
X89411477Y-88192489D01*
X89438771Y-88138921D01*
X89460256Y-88096755D01*
X89460257Y-88096752D01*
X89464758Y-88087918D01*
X89483118Y-87972000D01*
X89464758Y-87856082D01*
X89460257Y-87847248D01*
X89460256Y-87847245D01*
X89438771Y-87805079D01*
X89411477Y-87751511D01*
X89328489Y-87668523D01*
X89274921Y-87641229D01*
X89232755Y-87619744D01*
X89232752Y-87619743D01*
X89223918Y-87615242D01*
X89108000Y-87596882D01*
X88992082Y-87615242D01*
X88983248Y-87619743D01*
X88983245Y-87619744D01*
X88941079Y-87641229D01*
X88887511Y-87668523D01*
X88804523Y-87751511D01*
X88777229Y-87805079D01*
X88755744Y-87847245D01*
X88755743Y-87847248D01*
X88751242Y-87856082D01*
X88732882Y-87972000D01*
X88751242Y-88087918D01*
X88755743Y-88096752D01*
X88755744Y-88096755D01*
X88777229Y-88138921D01*
X88804523Y-88192489D01*
X88887511Y-88275477D01*
X88943874Y-88304195D01*
X88995490Y-88352943D01*
X89012556Y-88421857D01*
X88989656Y-88489059D01*
X88943875Y-88528728D01*
X88879511Y-88561523D01*
X88796523Y-88644511D01*
X88769229Y-88698079D01*
X88747744Y-88740245D01*
X88747743Y-88740248D01*
X88743242Y-88749082D01*
X88724882Y-88865000D01*
X88743242Y-88980918D01*
X88747743Y-88989752D01*
X88747744Y-88989755D01*
X88769229Y-89031921D01*
X88796523Y-89085489D01*
X88873395Y-89162361D01*
X88907421Y-89224673D01*
X88902356Y-89295488D01*
X88873399Y-89340546D01*
X88807434Y-89406511D01*
X88780140Y-89460079D01*
X88758655Y-89502245D01*
X88758654Y-89502248D01*
X88754153Y-89511082D01*
X88735793Y-89627000D01*
X88754153Y-89742918D01*
X88758654Y-89751752D01*
X88758655Y-89751755D01*
X88780140Y-89793921D01*
X88807434Y-89847489D01*
X88860695Y-89900750D01*
X88894721Y-89963062D01*
X88889656Y-90033877D01*
X88860699Y-90078935D01*
X88796523Y-90143111D01*
X88769229Y-90196679D01*
X88747744Y-90238845D01*
X88747743Y-90238848D01*
X88743242Y-90247682D01*
X88724882Y-90363600D01*
X84120500Y-90363600D01*
X84120500Y-86658097D01*
X84140502Y-86589976D01*
X84194158Y-86543483D01*
X84264432Y-86533379D01*
X84329012Y-86562873D01*
X84351267Y-86588098D01*
X84360649Y-86602140D01*
X84360651Y-86602142D01*
X84367543Y-86612457D01*
X84400787Y-86634669D01*
X84430101Y-86640500D01*
X85289583Y-86640500D01*
X86149898Y-86640499D01*
X86163810Y-86637732D01*
X86167045Y-86637089D01*
X86179213Y-86634669D01*
X86212457Y-86612457D01*
X86234669Y-86579213D01*
X86240500Y-86549899D01*
X86240499Y-85486800D01*
X88724882Y-85486800D01*
X88743242Y-85602718D01*
X88747743Y-85611552D01*
X88747744Y-85611555D01*
X88769229Y-85653721D01*
X88796523Y-85707289D01*
X88879511Y-85790277D01*
X88933079Y-85817571D01*
X88975245Y-85839056D01*
X88975248Y-85839057D01*
X88984082Y-85843558D01*
X89100000Y-85861918D01*
X89215918Y-85843558D01*
X89224752Y-85839057D01*
X89224755Y-85839056D01*
X89266921Y-85817571D01*
X89320489Y-85790277D01*
X89403477Y-85707289D01*
X89430771Y-85653721D01*
X89452256Y-85611555D01*
X89452257Y-85611552D01*
X89456758Y-85602718D01*
X89475118Y-85486800D01*
X89456758Y-85370882D01*
X89452257Y-85362048D01*
X89452256Y-85362045D01*
X89430771Y-85319879D01*
X89403477Y-85266311D01*
X89320489Y-85183323D01*
X89266921Y-85156029D01*
X89224755Y-85134544D01*
X89224752Y-85134543D01*
X89215918Y-85130042D01*
X89100000Y-85111682D01*
X88984082Y-85130042D01*
X88975248Y-85134543D01*
X88975245Y-85134544D01*
X88933079Y-85156029D01*
X88879511Y-85183323D01*
X88796523Y-85266311D01*
X88769229Y-85319879D01*
X88747744Y-85362045D01*
X88747743Y-85362048D01*
X88743242Y-85370882D01*
X88724882Y-85486800D01*
X86240499Y-85486800D01*
X86240499Y-84830102D01*
X86237623Y-84815641D01*
X86237089Y-84812955D01*
X86234669Y-84800787D01*
X86212457Y-84767543D01*
X86179213Y-84745331D01*
X86149899Y-84739500D01*
X86123394Y-84739500D01*
X84825363Y-84739501D01*
X84757243Y-84719499D01*
X84710750Y-84665843D01*
X84700646Y-84595569D01*
X84730139Y-84530989D01*
X84768160Y-84501235D01*
X84830489Y-84469477D01*
X84913477Y-84386489D01*
X84940771Y-84332921D01*
X84962256Y-84290755D01*
X84962257Y-84290752D01*
X84966758Y-84281918D01*
X84985118Y-84166000D01*
X84966758Y-84050082D01*
X84968155Y-84049861D01*
X84966427Y-83989352D01*
X85003089Y-83928554D01*
X85068575Y-83896935D01*
X85126518Y-83887758D01*
X85135352Y-83883257D01*
X85135355Y-83883256D01*
X85184885Y-83858019D01*
X85231089Y-83834477D01*
X85314077Y-83751489D01*
X85341371Y-83697921D01*
X85362856Y-83655755D01*
X85362857Y-83655752D01*
X85367358Y-83646918D01*
X85385718Y-83531000D01*
X85367358Y-83415082D01*
X85362857Y-83406248D01*
X85362856Y-83406245D01*
X85341371Y-83364079D01*
X85314077Y-83310511D01*
X85231089Y-83227523D01*
X85176663Y-83199792D01*
X85157446Y-83190000D01*
X88794882Y-83190000D01*
X88813242Y-83305918D01*
X88817743Y-83314752D01*
X88817744Y-83314755D01*
X88839229Y-83356921D01*
X88866523Y-83410489D01*
X88949511Y-83493477D01*
X89003079Y-83520771D01*
X89045245Y-83542256D01*
X89045248Y-83542257D01*
X89054082Y-83546758D01*
X89170000Y-83565118D01*
X89285918Y-83546758D01*
X89294752Y-83542257D01*
X89294755Y-83542256D01*
X89336921Y-83520771D01*
X89390489Y-83493477D01*
X89473477Y-83410489D01*
X89500771Y-83356921D01*
X89522256Y-83314755D01*
X89522257Y-83314752D01*
X89526758Y-83305918D01*
X89545118Y-83190000D01*
X89526758Y-83074082D01*
X89522257Y-83065248D01*
X89522256Y-83065245D01*
X89500771Y-83023079D01*
X89473477Y-82969511D01*
X89390489Y-82886523D01*
X89330827Y-82856124D01*
X89294755Y-82837744D01*
X89294752Y-82837743D01*
X89285918Y-82833242D01*
X89170000Y-82814882D01*
X89054082Y-82833242D01*
X89045248Y-82837743D01*
X89045245Y-82837744D01*
X89009173Y-82856124D01*
X88949511Y-82886523D01*
X88866523Y-82969511D01*
X88839229Y-83023079D01*
X88817744Y-83065245D01*
X88817743Y-83065248D01*
X88813242Y-83074082D01*
X88794882Y-83190000D01*
X85157446Y-83190000D01*
X85135355Y-83178744D01*
X85135352Y-83178743D01*
X85126518Y-83174242D01*
X85010600Y-83155882D01*
X84894682Y-83174242D01*
X84885848Y-83178743D01*
X84885845Y-83178744D01*
X84844537Y-83199792D01*
X84790111Y-83227523D01*
X84707123Y-83310511D01*
X84679829Y-83364079D01*
X84658344Y-83406245D01*
X84658343Y-83406248D01*
X84653842Y-83415082D01*
X84635482Y-83531000D01*
X84637033Y-83540792D01*
X84653842Y-83646918D01*
X84652445Y-83647139D01*
X84654173Y-83707648D01*
X84617511Y-83768446D01*
X84552025Y-83800065D01*
X84494082Y-83809242D01*
X84485248Y-83813743D01*
X84485245Y-83813744D01*
X84444555Y-83834477D01*
X84389511Y-83862523D01*
X84335595Y-83916439D01*
X84273283Y-83950465D01*
X84202468Y-83945400D01*
X84145632Y-83902853D01*
X84120821Y-83836333D01*
X84120500Y-83827344D01*
X84120500Y-82750000D01*
X86094882Y-82750000D01*
X86113242Y-82865918D01*
X86117743Y-82874752D01*
X86117744Y-82874755D01*
X86127316Y-82893540D01*
X86166523Y-82970489D01*
X86249511Y-83053477D01*
X86289951Y-83074082D01*
X86345245Y-83102256D01*
X86345248Y-83102257D01*
X86354082Y-83106758D01*
X86470000Y-83125118D01*
X86585918Y-83106758D01*
X86594752Y-83102257D01*
X86594755Y-83102256D01*
X86650049Y-83074082D01*
X86690489Y-83053477D01*
X86773477Y-82970489D01*
X86812684Y-82893540D01*
X86822256Y-82874755D01*
X86822257Y-82874752D01*
X86826758Y-82865918D01*
X86845118Y-82750000D01*
X86826758Y-82634082D01*
X86822257Y-82625248D01*
X86822256Y-82625245D01*
X86800064Y-82581691D01*
X86773477Y-82529511D01*
X86723061Y-82479095D01*
X86689035Y-82416783D01*
X86694100Y-82345968D01*
X86717216Y-82310000D01*
X90434882Y-82310000D01*
X90453242Y-82425918D01*
X90457743Y-82434752D01*
X90457744Y-82434755D01*
X90465051Y-82449095D01*
X90506523Y-82530489D01*
X90589511Y-82613477D01*
X90629951Y-82634082D01*
X90685245Y-82662256D01*
X90685248Y-82662257D01*
X90694082Y-82666758D01*
X90810000Y-82685118D01*
X90925918Y-82666758D01*
X90934752Y-82662257D01*
X90934755Y-82662256D01*
X90990049Y-82634082D01*
X91030489Y-82613477D01*
X91113477Y-82530489D01*
X91154949Y-82449095D01*
X91162256Y-82434755D01*
X91162257Y-82434752D01*
X91166758Y-82425918D01*
X91185118Y-82310000D01*
X91184450Y-82305781D01*
X91203569Y-82240666D01*
X91204816Y-82239586D01*
X91197921Y-82236437D01*
X91180667Y-82210414D01*
X91385184Y-82210414D01*
X91392079Y-82213563D01*
X91420940Y-82257091D01*
X91423242Y-82255918D01*
X91476523Y-82360489D01*
X91559511Y-82443477D01*
X91613079Y-82470771D01*
X91655245Y-82492256D01*
X91655248Y-82492257D01*
X91664082Y-82496758D01*
X91780000Y-82515118D01*
X91803808Y-82511347D01*
X91874218Y-82520446D01*
X91928533Y-82566168D01*
X91949506Y-82633996D01*
X91930479Y-82702395D01*
X91925455Y-82709857D01*
X91923536Y-82712498D01*
X91916523Y-82719511D01*
X91912021Y-82728346D01*
X91912020Y-82728348D01*
X91867744Y-82815245D01*
X91867743Y-82815248D01*
X91863242Y-82824082D01*
X91844882Y-82940000D01*
X91863242Y-83055918D01*
X91867743Y-83064752D01*
X91867744Y-83064755D01*
X91877487Y-83083876D01*
X91916523Y-83160489D01*
X91999511Y-83243477D01*
X92053079Y-83270771D01*
X92095245Y-83292256D01*
X92095248Y-83292257D01*
X92104082Y-83296758D01*
X92220000Y-83315118D01*
X92335918Y-83296758D01*
X92344752Y-83292257D01*
X92344755Y-83292256D01*
X92386921Y-83270771D01*
X92440489Y-83243477D01*
X92523477Y-83160489D01*
X92562513Y-83083876D01*
X92572256Y-83064755D01*
X92572257Y-83064752D01*
X92576758Y-83055918D01*
X92595118Y-82940000D01*
X92576758Y-82824082D01*
X92572257Y-82815248D01*
X92572256Y-82815245D01*
X92544001Y-82759792D01*
X92523477Y-82719511D01*
X92440489Y-82636523D01*
X92386921Y-82609229D01*
X92344755Y-82587744D01*
X92344752Y-82587743D01*
X92335918Y-82583242D01*
X92220000Y-82564882D01*
X92196192Y-82568653D01*
X92125782Y-82559554D01*
X92071467Y-82513832D01*
X92050494Y-82446004D01*
X92069521Y-82377605D01*
X92074545Y-82370143D01*
X92076464Y-82367502D01*
X92083477Y-82360489D01*
X92104213Y-82319792D01*
X92132256Y-82264755D01*
X92132257Y-82264752D01*
X92136758Y-82255918D01*
X92155118Y-82140000D01*
X92136758Y-82024082D01*
X92132257Y-82015248D01*
X92132256Y-82015245D01*
X92102957Y-81957744D01*
X92083477Y-81919511D01*
X92000489Y-81836523D01*
X91946921Y-81809229D01*
X91904755Y-81787744D01*
X91904752Y-81787743D01*
X91895918Y-81783242D01*
X91780000Y-81764882D01*
X91664082Y-81783242D01*
X91655248Y-81787743D01*
X91655245Y-81787744D01*
X91613079Y-81809229D01*
X91559511Y-81836523D01*
X91476523Y-81919511D01*
X91457043Y-81957744D01*
X91427744Y-82015245D01*
X91427743Y-82015248D01*
X91423242Y-82024082D01*
X91404882Y-82140000D01*
X91405550Y-82144219D01*
X91386431Y-82209334D01*
X91385184Y-82210414D01*
X91180667Y-82210414D01*
X91169060Y-82192909D01*
X91166758Y-82194082D01*
X91113477Y-82089511D01*
X91030489Y-82006523D01*
X90975011Y-81978256D01*
X90934755Y-81957744D01*
X90934752Y-81957743D01*
X90925918Y-81953242D01*
X90810000Y-81934882D01*
X90694082Y-81953242D01*
X90685248Y-81957743D01*
X90685245Y-81957744D01*
X90644989Y-81978256D01*
X90589511Y-82006523D01*
X90506523Y-82089511D01*
X90485787Y-82130208D01*
X90457744Y-82185245D01*
X90457743Y-82185248D01*
X90453242Y-82194082D01*
X90434882Y-82310000D01*
X86717216Y-82310000D01*
X86723061Y-82300905D01*
X86803477Y-82220489D01*
X86844488Y-82140000D01*
X86852256Y-82124755D01*
X86852257Y-82124752D01*
X86856758Y-82115918D01*
X86875118Y-82000000D01*
X86856758Y-81884082D01*
X86852257Y-81875248D01*
X86852256Y-81875245D01*
X86830231Y-81832019D01*
X86803477Y-81779511D01*
X86720489Y-81696523D01*
X86666921Y-81669229D01*
X86624755Y-81647744D01*
X86624752Y-81647743D01*
X86615918Y-81643242D01*
X86507059Y-81626000D01*
X88724882Y-81626000D01*
X88743242Y-81741918D01*
X88747743Y-81750752D01*
X88747744Y-81750755D01*
X88758821Y-81772494D01*
X88796523Y-81846489D01*
X88879511Y-81929477D01*
X88923109Y-81951691D01*
X88975245Y-81978256D01*
X88975248Y-81978257D01*
X88984082Y-81982758D01*
X89100000Y-82001118D01*
X89215918Y-81982758D01*
X89224752Y-81978257D01*
X89224755Y-81978256D01*
X89276891Y-81951691D01*
X89320489Y-81929477D01*
X89403477Y-81846489D01*
X89441179Y-81772494D01*
X89452256Y-81750755D01*
X89452257Y-81750752D01*
X89456758Y-81741918D01*
X89475118Y-81626000D01*
X89456758Y-81510082D01*
X89452257Y-81501248D01*
X89452256Y-81501245D01*
X89430771Y-81459079D01*
X89403477Y-81405511D01*
X89320489Y-81322523D01*
X89266921Y-81295229D01*
X89224755Y-81273744D01*
X89224752Y-81273743D01*
X89215918Y-81269242D01*
X89100000Y-81250882D01*
X88984082Y-81269242D01*
X88975248Y-81273743D01*
X88975245Y-81273744D01*
X88933079Y-81295229D01*
X88879511Y-81322523D01*
X88796523Y-81405511D01*
X88769229Y-81459079D01*
X88747744Y-81501245D01*
X88747743Y-81501248D01*
X88743242Y-81510082D01*
X88724882Y-81626000D01*
X86507059Y-81626000D01*
X86500000Y-81624882D01*
X86384082Y-81643242D01*
X86375248Y-81647743D01*
X86375245Y-81647744D01*
X86333079Y-81669229D01*
X86279511Y-81696523D01*
X86196523Y-81779511D01*
X86169769Y-81832019D01*
X86147744Y-81875245D01*
X86147743Y-81875248D01*
X86143242Y-81884082D01*
X86124882Y-82000000D01*
X86143242Y-82115918D01*
X86147743Y-82124752D01*
X86147744Y-82124755D01*
X86155512Y-82140000D01*
X86196523Y-82220489D01*
X86246939Y-82270905D01*
X86280965Y-82333217D01*
X86275900Y-82404032D01*
X86246939Y-82449095D01*
X86166523Y-82529511D01*
X86139936Y-82581691D01*
X86117744Y-82625245D01*
X86117743Y-82625248D01*
X86113242Y-82634082D01*
X86094882Y-82750000D01*
X84120500Y-82750000D01*
X84120500Y-81626000D01*
X84965682Y-81626000D01*
X84984042Y-81741918D01*
X84988543Y-81750752D01*
X84988544Y-81750755D01*
X84999621Y-81772494D01*
X85037323Y-81846489D01*
X85120311Y-81929477D01*
X85163909Y-81951691D01*
X85216045Y-81978256D01*
X85216048Y-81978257D01*
X85224882Y-81982758D01*
X85340800Y-82001118D01*
X85456718Y-81982758D01*
X85465552Y-81978257D01*
X85465555Y-81978256D01*
X85517691Y-81951691D01*
X85561289Y-81929477D01*
X85644277Y-81846489D01*
X85681979Y-81772494D01*
X85693056Y-81750755D01*
X85693057Y-81750752D01*
X85697558Y-81741918D01*
X85715918Y-81626000D01*
X85697558Y-81510082D01*
X85693057Y-81501248D01*
X85693056Y-81501245D01*
X85648780Y-81414349D01*
X85644277Y-81405511D01*
X85642456Y-81403690D01*
X85619968Y-81340662D01*
X85636049Y-81271511D01*
X85686964Y-81222031D01*
X85726051Y-81209022D01*
X85812318Y-81195358D01*
X85821152Y-81190857D01*
X85821155Y-81190856D01*
X85863321Y-81169371D01*
X85916889Y-81142077D01*
X85999877Y-81059089D01*
X86027171Y-81005521D01*
X86048656Y-80963355D01*
X86048657Y-80963352D01*
X86053158Y-80954518D01*
X86071518Y-80838600D01*
X86065298Y-80799331D01*
X89442224Y-80799331D01*
X89460584Y-80915249D01*
X89465085Y-80924083D01*
X89465086Y-80924086D01*
X89475602Y-80944724D01*
X89513865Y-81019820D01*
X89596853Y-81102808D01*
X89650421Y-81130102D01*
X89692587Y-81151587D01*
X89692590Y-81151588D01*
X89701424Y-81156089D01*
X89817342Y-81174449D01*
X89933260Y-81156089D01*
X89942094Y-81151588D01*
X89942097Y-81151587D01*
X89984263Y-81130102D01*
X90037831Y-81102808D01*
X90120819Y-81019820D01*
X90159082Y-80944724D01*
X90169598Y-80924086D01*
X90169599Y-80924083D01*
X90174100Y-80915249D01*
X90192460Y-80799331D01*
X90174100Y-80683413D01*
X90155725Y-80647349D01*
X90142621Y-80577574D01*
X90145198Y-80571225D01*
X90139062Y-80571488D01*
X90080255Y-80538278D01*
X90037831Y-80495854D01*
X89974297Y-80463482D01*
X89942097Y-80447075D01*
X89942094Y-80447074D01*
X89933260Y-80442573D01*
X89817342Y-80424213D01*
X89701424Y-80442573D01*
X89692590Y-80447074D01*
X89692587Y-80447075D01*
X89660387Y-80463482D01*
X89596853Y-80495854D01*
X89513865Y-80578842D01*
X89497432Y-80611094D01*
X89465086Y-80674576D01*
X89465085Y-80674579D01*
X89460584Y-80683413D01*
X89442224Y-80799331D01*
X86065298Y-80799331D01*
X86053158Y-80722682D01*
X86048657Y-80713848D01*
X86048656Y-80713845D01*
X86014150Y-80646124D01*
X85999877Y-80618111D01*
X85916889Y-80535123D01*
X85853590Y-80502871D01*
X85821155Y-80486344D01*
X85821152Y-80486343D01*
X85812318Y-80481842D01*
X85696400Y-80463482D01*
X85580482Y-80481842D01*
X85571648Y-80486343D01*
X85571645Y-80486344D01*
X85539210Y-80502871D01*
X85475911Y-80535123D01*
X85392923Y-80618111D01*
X85378650Y-80646124D01*
X85344144Y-80713845D01*
X85344143Y-80713848D01*
X85339642Y-80722682D01*
X85321282Y-80838600D01*
X85339642Y-80954518D01*
X85344143Y-80963352D01*
X85344144Y-80963355D01*
X85368410Y-81010979D01*
X85392923Y-81059089D01*
X85394744Y-81060910D01*
X85417232Y-81123938D01*
X85401151Y-81193089D01*
X85350236Y-81242569D01*
X85311149Y-81255578D01*
X85224882Y-81269242D01*
X85216048Y-81273743D01*
X85216045Y-81273744D01*
X85173879Y-81295229D01*
X85120311Y-81322523D01*
X85037323Y-81405511D01*
X85010029Y-81459079D01*
X84988544Y-81501245D01*
X84988543Y-81501248D01*
X84984042Y-81510082D01*
X84965682Y-81626000D01*
X84120500Y-81626000D01*
X84120500Y-80240000D01*
X90244882Y-80240000D01*
X90263242Y-80355918D01*
X90281617Y-80391982D01*
X90294721Y-80461757D01*
X90292144Y-80468106D01*
X90298280Y-80467843D01*
X90357087Y-80501053D01*
X90399511Y-80543477D01*
X90453079Y-80570771D01*
X90495245Y-80592256D01*
X90495248Y-80592257D01*
X90504082Y-80596758D01*
X90620000Y-80615118D01*
X90735918Y-80596758D01*
X90744752Y-80592257D01*
X90744755Y-80592256D01*
X90786921Y-80570771D01*
X90840489Y-80543477D01*
X90843966Y-80540000D01*
X92464882Y-80540000D01*
X92483242Y-80655918D01*
X92487743Y-80664752D01*
X92487744Y-80664755D01*
X92492750Y-80674579D01*
X92536523Y-80760489D01*
X92619511Y-80843477D01*
X92673079Y-80870771D01*
X92715245Y-80892256D01*
X92715248Y-80892257D01*
X92724082Y-80896758D01*
X92840000Y-80915118D01*
X92955918Y-80896758D01*
X92964752Y-80892257D01*
X92964755Y-80892256D01*
X93006921Y-80870771D01*
X93060489Y-80843477D01*
X93143477Y-80760489D01*
X93187250Y-80674579D01*
X93192256Y-80664755D01*
X93192257Y-80664752D01*
X93196758Y-80655918D01*
X93215118Y-80540000D01*
X93196758Y-80424082D01*
X93192257Y-80415248D01*
X93192256Y-80415245D01*
X93162027Y-80355918D01*
X93143477Y-80319511D01*
X93060489Y-80236523D01*
X93006921Y-80209229D01*
X92964755Y-80187744D01*
X92964752Y-80187743D01*
X92955918Y-80183242D01*
X92840000Y-80164882D01*
X92724082Y-80183242D01*
X92715248Y-80187743D01*
X92715245Y-80187744D01*
X92673079Y-80209229D01*
X92619511Y-80236523D01*
X92536523Y-80319511D01*
X92517973Y-80355918D01*
X92487744Y-80415245D01*
X92487743Y-80415248D01*
X92483242Y-80424082D01*
X92464882Y-80540000D01*
X90843966Y-80540000D01*
X90923477Y-80460489D01*
X90958384Y-80391980D01*
X90972256Y-80364755D01*
X90972257Y-80364752D01*
X90976758Y-80355918D01*
X90995118Y-80240000D01*
X90976758Y-80124082D01*
X90972257Y-80115248D01*
X90972256Y-80115245D01*
X90937919Y-80047856D01*
X90923477Y-80019511D01*
X90840489Y-79936523D01*
X90783033Y-79907248D01*
X90744755Y-79887744D01*
X90744752Y-79887743D01*
X90735918Y-79883242D01*
X90620000Y-79864882D01*
X90504082Y-79883242D01*
X90495248Y-79887743D01*
X90495245Y-79887744D01*
X90456967Y-79907248D01*
X90399511Y-79936523D01*
X90316523Y-80019511D01*
X90302081Y-80047856D01*
X90267744Y-80115245D01*
X90267743Y-80115248D01*
X90263242Y-80124082D01*
X90244882Y-80240000D01*
X84120500Y-80240000D01*
X84120500Y-79650000D01*
X87104882Y-79650000D01*
X87123242Y-79765918D01*
X87127743Y-79774752D01*
X87127744Y-79774755D01*
X87141486Y-79801724D01*
X87176523Y-79870489D01*
X87259511Y-79953477D01*
X87313079Y-79980771D01*
X87355245Y-80002256D01*
X87355248Y-80002257D01*
X87364082Y-80006758D01*
X87480000Y-80025118D01*
X87595918Y-80006758D01*
X87604752Y-80002257D01*
X87604755Y-80002256D01*
X87646921Y-79980771D01*
X87700489Y-79953477D01*
X87783477Y-79870489D01*
X87818514Y-79801724D01*
X87832256Y-79774755D01*
X87832257Y-79774752D01*
X87836758Y-79765918D01*
X87855118Y-79650000D01*
X87836758Y-79534082D01*
X87832257Y-79525248D01*
X87832256Y-79525245D01*
X87829584Y-79520000D01*
X90944882Y-79520000D01*
X90963242Y-79635918D01*
X90967743Y-79644752D01*
X90967744Y-79644755D01*
X90970417Y-79650000D01*
X91016523Y-79740489D01*
X91099511Y-79823477D01*
X91153079Y-79850771D01*
X91195245Y-79872256D01*
X91195248Y-79872257D01*
X91204082Y-79876758D01*
X91320000Y-79895118D01*
X91435918Y-79876758D01*
X91444752Y-79872257D01*
X91444755Y-79872256D01*
X91486921Y-79850771D01*
X91540489Y-79823477D01*
X91623477Y-79740489D01*
X91669583Y-79650000D01*
X91672256Y-79644755D01*
X91672257Y-79644752D01*
X91676758Y-79635918D01*
X91695118Y-79520000D01*
X91690550Y-79491158D01*
X91680464Y-79427478D01*
X91689564Y-79357067D01*
X91735286Y-79302753D01*
X91792736Y-79285437D01*
X91792400Y-79283318D01*
X91908318Y-79264958D01*
X91917152Y-79260457D01*
X91917155Y-79260456D01*
X91959321Y-79238971D01*
X92012889Y-79211677D01*
X92095877Y-79128689D01*
X92127755Y-79066124D01*
X92144656Y-79032955D01*
X92144657Y-79032952D01*
X92149158Y-79024118D01*
X92167518Y-78908200D01*
X92165967Y-78898408D01*
X92165967Y-78898404D01*
X92164861Y-78891422D01*
X92173959Y-78821011D01*
X92219680Y-78766696D01*
X92287508Y-78745722D01*
X92309022Y-78747261D01*
X92316004Y-78748367D01*
X92316008Y-78748367D01*
X92325800Y-78749918D01*
X92441718Y-78731558D01*
X92450552Y-78727057D01*
X92450555Y-78727056D01*
X92492721Y-78705571D01*
X92546289Y-78678277D01*
X92629277Y-78595289D01*
X92659619Y-78535739D01*
X92678056Y-78499555D01*
X92678057Y-78499552D01*
X92682558Y-78490718D01*
X92700918Y-78374800D01*
X92682558Y-78258882D01*
X92678057Y-78250048D01*
X92678056Y-78250045D01*
X92648031Y-78191118D01*
X92629277Y-78154311D01*
X92546289Y-78071323D01*
X92477923Y-78036489D01*
X92450555Y-78022544D01*
X92450552Y-78022543D01*
X92441718Y-78018042D01*
X92325800Y-77999682D01*
X92326041Y-77998160D01*
X92268386Y-77981231D01*
X92221893Y-77927575D01*
X92212058Y-77855521D01*
X92215706Y-77832494D01*
X92218318Y-77816000D01*
X92199958Y-77700082D01*
X92195457Y-77691248D01*
X92195456Y-77691245D01*
X92173971Y-77649079D01*
X92146677Y-77595511D01*
X92063689Y-77512523D01*
X91995896Y-77477981D01*
X91967955Y-77463744D01*
X91967952Y-77463743D01*
X91959118Y-77459242D01*
X91843200Y-77440882D01*
X91727282Y-77459242D01*
X91718448Y-77463743D01*
X91718445Y-77463744D01*
X91690504Y-77477981D01*
X91622711Y-77512523D01*
X91539723Y-77595511D01*
X91512429Y-77649079D01*
X91490944Y-77691245D01*
X91490943Y-77691248D01*
X91486442Y-77700082D01*
X91468082Y-77816000D01*
X91486442Y-77931918D01*
X91490943Y-77940752D01*
X91490944Y-77940755D01*
X91497630Y-77953876D01*
X91539723Y-78036489D01*
X91622711Y-78119477D01*
X91676279Y-78146771D01*
X91718445Y-78168256D01*
X91718448Y-78168257D01*
X91727282Y-78172758D01*
X91843200Y-78191118D01*
X91842959Y-78192640D01*
X91900614Y-78209569D01*
X91947107Y-78263225D01*
X91956942Y-78335278D01*
X91950682Y-78374800D01*
X91952233Y-78384592D01*
X91952233Y-78384596D01*
X91953339Y-78391578D01*
X91944241Y-78461989D01*
X91898520Y-78516304D01*
X91830692Y-78537278D01*
X91809178Y-78535739D01*
X91802196Y-78534633D01*
X91802192Y-78534633D01*
X91792400Y-78533082D01*
X91676482Y-78551442D01*
X91667648Y-78555943D01*
X91667645Y-78555944D01*
X91625479Y-78577429D01*
X91571911Y-78604723D01*
X91488923Y-78687711D01*
X91477809Y-78709524D01*
X91440144Y-78783445D01*
X91440143Y-78783448D01*
X91435642Y-78792282D01*
X91417282Y-78908200D01*
X91418833Y-78917992D01*
X91418833Y-78917993D01*
X91431936Y-79000722D01*
X91422836Y-79071133D01*
X91377114Y-79125447D01*
X91319664Y-79142763D01*
X91320000Y-79144882D01*
X91204082Y-79163242D01*
X91195248Y-79167743D01*
X91195245Y-79167744D01*
X91170232Y-79180489D01*
X91099511Y-79216523D01*
X91016523Y-79299511D01*
X90989229Y-79353079D01*
X90967744Y-79395245D01*
X90967743Y-79395248D01*
X90963242Y-79404082D01*
X90944882Y-79520000D01*
X87829584Y-79520000D01*
X87791198Y-79444665D01*
X87783477Y-79429511D01*
X87700489Y-79346523D01*
X87642071Y-79316758D01*
X87604755Y-79297744D01*
X87604752Y-79297743D01*
X87595918Y-79293242D01*
X87480000Y-79274882D01*
X87364082Y-79293242D01*
X87355248Y-79297743D01*
X87355245Y-79297744D01*
X87317929Y-79316758D01*
X87259511Y-79346523D01*
X87176523Y-79429511D01*
X87168802Y-79444665D01*
X87127744Y-79525245D01*
X87127743Y-79525248D01*
X87123242Y-79534082D01*
X87104882Y-79650000D01*
X84120500Y-79650000D01*
X84120500Y-78603400D01*
X86032482Y-78603400D01*
X86050842Y-78719318D01*
X86055343Y-78728152D01*
X86055344Y-78728155D01*
X86065635Y-78748352D01*
X86104123Y-78823889D01*
X86187111Y-78906877D01*
X86240679Y-78934171D01*
X86282845Y-78955656D01*
X86282848Y-78955657D01*
X86291682Y-78960158D01*
X86407600Y-78978518D01*
X86523518Y-78960158D01*
X86523828Y-78960000D01*
X89654882Y-78960000D01*
X89673242Y-79075918D01*
X89677743Y-79084752D01*
X89677744Y-79084755D01*
X89695625Y-79119848D01*
X89726523Y-79180489D01*
X89809511Y-79263477D01*
X89863079Y-79290771D01*
X89905245Y-79312256D01*
X89905248Y-79312257D01*
X89914082Y-79316758D01*
X90030000Y-79335118D01*
X90145918Y-79316758D01*
X90154752Y-79312257D01*
X90154755Y-79312256D01*
X90196921Y-79290771D01*
X90250489Y-79263477D01*
X90333477Y-79180489D01*
X90364375Y-79119848D01*
X90382256Y-79084755D01*
X90382257Y-79084752D01*
X90386758Y-79075918D01*
X90405118Y-78960000D01*
X90386758Y-78844082D01*
X90382257Y-78835248D01*
X90382256Y-78835245D01*
X90347328Y-78766696D01*
X90333477Y-78739511D01*
X90250489Y-78656523D01*
X90196921Y-78629229D01*
X90154755Y-78607744D01*
X90154752Y-78607743D01*
X90145918Y-78603242D01*
X90030000Y-78584882D01*
X89914082Y-78603242D01*
X89905248Y-78607743D01*
X89905245Y-78607744D01*
X89863079Y-78629229D01*
X89809511Y-78656523D01*
X89726523Y-78739511D01*
X89712672Y-78766696D01*
X89677744Y-78835245D01*
X89677743Y-78835248D01*
X89673242Y-78844082D01*
X89654882Y-78960000D01*
X86523828Y-78960000D01*
X86532352Y-78955657D01*
X86532355Y-78955656D01*
X86574521Y-78934171D01*
X86628089Y-78906877D01*
X86711077Y-78823889D01*
X86749565Y-78748352D01*
X86759856Y-78728155D01*
X86759857Y-78728152D01*
X86764358Y-78719318D01*
X86782718Y-78603400D01*
X86764358Y-78487482D01*
X86759857Y-78478648D01*
X86759856Y-78478645D01*
X86738371Y-78436479D01*
X86711077Y-78382911D01*
X86628089Y-78299923D01*
X86566763Y-78268676D01*
X86532355Y-78251144D01*
X86532352Y-78251143D01*
X86523518Y-78246642D01*
X86407600Y-78228282D01*
X86291682Y-78246642D01*
X86282848Y-78251143D01*
X86282845Y-78251144D01*
X86248437Y-78268676D01*
X86187111Y-78299923D01*
X86104123Y-78382911D01*
X86076829Y-78436479D01*
X86055344Y-78478645D01*
X86055343Y-78478648D01*
X86050842Y-78487482D01*
X86032482Y-78603400D01*
X84120500Y-78603400D01*
X84120500Y-78060000D01*
X88734882Y-78060000D01*
X88753242Y-78175918D01*
X88757743Y-78184752D01*
X88757744Y-78184755D01*
X88761762Y-78192640D01*
X88806523Y-78280489D01*
X88889511Y-78363477D01*
X88927653Y-78382911D01*
X88985245Y-78412256D01*
X88985248Y-78412257D01*
X88994082Y-78416758D01*
X89110000Y-78435118D01*
X89225918Y-78416758D01*
X89234752Y-78412257D01*
X89234755Y-78412256D01*
X89292347Y-78382911D01*
X89330489Y-78363477D01*
X89413477Y-78280489D01*
X89458238Y-78192640D01*
X89462256Y-78184755D01*
X89462257Y-78184752D01*
X89466758Y-78175918D01*
X89485118Y-78060000D01*
X89466758Y-77944082D01*
X89462257Y-77935248D01*
X89462256Y-77935245D01*
X89421634Y-77855521D01*
X89413477Y-77839511D01*
X89330489Y-77756523D01*
X89276921Y-77729229D01*
X89234755Y-77707744D01*
X89234752Y-77707743D01*
X89225918Y-77703242D01*
X89110000Y-77684882D01*
X88994082Y-77703242D01*
X88985248Y-77707743D01*
X88985245Y-77707744D01*
X88943079Y-77729229D01*
X88889511Y-77756523D01*
X88806523Y-77839511D01*
X88798366Y-77855521D01*
X88757744Y-77935245D01*
X88757743Y-77935248D01*
X88753242Y-77944082D01*
X88734882Y-78060000D01*
X84120500Y-78060000D01*
X84120500Y-77170000D01*
X87844882Y-77170000D01*
X87863242Y-77285918D01*
X87867743Y-77294752D01*
X87867744Y-77294755D01*
X87889229Y-77336921D01*
X87916523Y-77390489D01*
X87999511Y-77473477D01*
X88053079Y-77500771D01*
X88095245Y-77522256D01*
X88095248Y-77522257D01*
X88104082Y-77526758D01*
X88220000Y-77545118D01*
X88335918Y-77526758D01*
X88344752Y-77522257D01*
X88344755Y-77522256D01*
X88386921Y-77500771D01*
X88440489Y-77473477D01*
X88523477Y-77390489D01*
X88550771Y-77336921D01*
X88572256Y-77294755D01*
X88572257Y-77294752D01*
X88576758Y-77285918D01*
X88595118Y-77170000D01*
X88576758Y-77054082D01*
X88572257Y-77045248D01*
X88572256Y-77045245D01*
X88550771Y-77003079D01*
X88523477Y-76949511D01*
X88440489Y-76866523D01*
X88386921Y-76839229D01*
X88344755Y-76817744D01*
X88344752Y-76817743D01*
X88335918Y-76813242D01*
X88220000Y-76794882D01*
X88104082Y-76813242D01*
X88095248Y-76817743D01*
X88095245Y-76817744D01*
X88053079Y-76839229D01*
X87999511Y-76866523D01*
X87916523Y-76949511D01*
X87889229Y-77003079D01*
X87867744Y-77045245D01*
X87867743Y-77045248D01*
X87863242Y-77054082D01*
X87844882Y-77170000D01*
X84120500Y-77170000D01*
X84120500Y-76495200D01*
X90807682Y-76495200D01*
X90826042Y-76611118D01*
X90830543Y-76619952D01*
X90830544Y-76619955D01*
X90852029Y-76662121D01*
X90879323Y-76715689D01*
X90962311Y-76798677D01*
X90990897Y-76813242D01*
X91058045Y-76847456D01*
X91058048Y-76847457D01*
X91066882Y-76851958D01*
X91182800Y-76870318D01*
X91298718Y-76851958D01*
X91307552Y-76847457D01*
X91307555Y-76847456D01*
X91374703Y-76813242D01*
X91403289Y-76798677D01*
X91486277Y-76715689D01*
X91513571Y-76662121D01*
X91535056Y-76619955D01*
X91535057Y-76619952D01*
X91539558Y-76611118D01*
X91557918Y-76495200D01*
X91539558Y-76379282D01*
X91535057Y-76370448D01*
X91535056Y-76370445D01*
X91513571Y-76328279D01*
X91486277Y-76274711D01*
X91403289Y-76191723D01*
X91349721Y-76164429D01*
X91307555Y-76142944D01*
X91307552Y-76142943D01*
X91298718Y-76138442D01*
X91182800Y-76120082D01*
X91066882Y-76138442D01*
X91058048Y-76142943D01*
X91058045Y-76142944D01*
X91015879Y-76164429D01*
X90962311Y-76191723D01*
X90879323Y-76274711D01*
X90852029Y-76328279D01*
X90830544Y-76370445D01*
X90830543Y-76370448D01*
X90826042Y-76379282D01*
X90807682Y-76495200D01*
X84120500Y-76495200D01*
X84120500Y-76038000D01*
X87200882Y-76038000D01*
X87219242Y-76153918D01*
X87223743Y-76162752D01*
X87223744Y-76162755D01*
X87238504Y-76191723D01*
X87272523Y-76258489D01*
X87355511Y-76341477D01*
X87409079Y-76368771D01*
X87451245Y-76390256D01*
X87451248Y-76390257D01*
X87460082Y-76394758D01*
X87576000Y-76413118D01*
X87691918Y-76394758D01*
X87700752Y-76390257D01*
X87700755Y-76390256D01*
X87742921Y-76368771D01*
X87796489Y-76341477D01*
X87879477Y-76258489D01*
X87913496Y-76191723D01*
X87928256Y-76162755D01*
X87928257Y-76162752D01*
X87932758Y-76153918D01*
X87951118Y-76038000D01*
X87949567Y-76028208D01*
X87949567Y-76027330D01*
X87969569Y-75959209D01*
X88023225Y-75912716D01*
X88089689Y-75903645D01*
X88089689Y-75903567D01*
X88090261Y-75903567D01*
X88095280Y-75902882D01*
X88099604Y-75903567D01*
X88099608Y-75903567D01*
X88109400Y-75905118D01*
X88225318Y-75886758D01*
X88234152Y-75882257D01*
X88234155Y-75882256D01*
X88276321Y-75860771D01*
X88329889Y-75833477D01*
X88412877Y-75750489D01*
X88451819Y-75674060D01*
X88461656Y-75654755D01*
X88461657Y-75654752D01*
X88466158Y-75645918D01*
X88484518Y-75530000D01*
X88478740Y-75493518D01*
X88473311Y-75459242D01*
X88482411Y-75388831D01*
X88491865Y-75377600D01*
X89385282Y-75377600D01*
X89403642Y-75493518D01*
X89408143Y-75502352D01*
X89408144Y-75502355D01*
X89427667Y-75540670D01*
X89456923Y-75598089D01*
X89539911Y-75681077D01*
X89593479Y-75708371D01*
X89635645Y-75729856D01*
X89635648Y-75729857D01*
X89644482Y-75734358D01*
X89760400Y-75752718D01*
X89876318Y-75734358D01*
X89885152Y-75729857D01*
X89885155Y-75729856D01*
X89927321Y-75708371D01*
X89980889Y-75681077D01*
X90063877Y-75598089D01*
X90093133Y-75540670D01*
X90112656Y-75502355D01*
X90112657Y-75502352D01*
X90117158Y-75493518D01*
X90135518Y-75377600D01*
X90117158Y-75261682D01*
X90112657Y-75252848D01*
X90112656Y-75252845D01*
X90081378Y-75191460D01*
X90063877Y-75157111D01*
X89980889Y-75074123D01*
X89927321Y-75046829D01*
X89885155Y-75025344D01*
X89885152Y-75025343D01*
X89876318Y-75020842D01*
X89760400Y-75002482D01*
X89644482Y-75020842D01*
X89635648Y-75025343D01*
X89635645Y-75025344D01*
X89593479Y-75046829D01*
X89539911Y-75074123D01*
X89456923Y-75157111D01*
X89439422Y-75191460D01*
X89408144Y-75252845D01*
X89408143Y-75252848D01*
X89403642Y-75261682D01*
X89385282Y-75377600D01*
X88491865Y-75377600D01*
X88528133Y-75334517D01*
X88578048Y-75315082D01*
X88640658Y-75305165D01*
X88657118Y-75302558D01*
X88665952Y-75298057D01*
X88665955Y-75298056D01*
X88708121Y-75276571D01*
X88761689Y-75249277D01*
X88844677Y-75166289D01*
X88885092Y-75086969D01*
X88893456Y-75070555D01*
X88893457Y-75070552D01*
X88897958Y-75061718D01*
X88916318Y-74945800D01*
X88897958Y-74829882D01*
X88893457Y-74821048D01*
X88893456Y-74821045D01*
X88867572Y-74770245D01*
X88844677Y-74725311D01*
X88761689Y-74642323D01*
X88687957Y-74604755D01*
X88665955Y-74593544D01*
X88665952Y-74593543D01*
X88657118Y-74589042D01*
X88541200Y-74570682D01*
X88425282Y-74589042D01*
X88416448Y-74593543D01*
X88416445Y-74593544D01*
X88394443Y-74604755D01*
X88320711Y-74642323D01*
X88237723Y-74725311D01*
X88214828Y-74770245D01*
X88188944Y-74821045D01*
X88188943Y-74821048D01*
X88184442Y-74829882D01*
X88166082Y-74945800D01*
X88167633Y-74955592D01*
X88167633Y-74955593D01*
X88177289Y-75016558D01*
X88168189Y-75086969D01*
X88122467Y-75141283D01*
X88072552Y-75160718D01*
X88020657Y-75168938D01*
X87993482Y-75173242D01*
X87984648Y-75177743D01*
X87984645Y-75177744D01*
X87954015Y-75193351D01*
X87888911Y-75226523D01*
X87805923Y-75309511D01*
X87787459Y-75345749D01*
X87757144Y-75405245D01*
X87757143Y-75405248D01*
X87752642Y-75414082D01*
X87734282Y-75530000D01*
X87735833Y-75539792D01*
X87735833Y-75540670D01*
X87715831Y-75608791D01*
X87662175Y-75655284D01*
X87595711Y-75664355D01*
X87595711Y-75664433D01*
X87595139Y-75664433D01*
X87590120Y-75665118D01*
X87585796Y-75664433D01*
X87585792Y-75664433D01*
X87576000Y-75662882D01*
X87460082Y-75681242D01*
X87451248Y-75685743D01*
X87451245Y-75685744D01*
X87414521Y-75704456D01*
X87355511Y-75734523D01*
X87272523Y-75817511D01*
X87245229Y-75871079D01*
X87223744Y-75913245D01*
X87223743Y-75913248D01*
X87219242Y-75922082D01*
X87200882Y-76038000D01*
X84120500Y-76038000D01*
X84120500Y-75352200D01*
X85168882Y-75352200D01*
X85187242Y-75468118D01*
X85191743Y-75476952D01*
X85191744Y-75476955D01*
X85204686Y-75502355D01*
X85240523Y-75572689D01*
X85323511Y-75655677D01*
X85370642Y-75679691D01*
X85419245Y-75704456D01*
X85419248Y-75704457D01*
X85428082Y-75708958D01*
X85544000Y-75727318D01*
X85659918Y-75708958D01*
X85668752Y-75704457D01*
X85668755Y-75704456D01*
X85717358Y-75679691D01*
X85764489Y-75655677D01*
X85847477Y-75572689D01*
X85883314Y-75502355D01*
X85896256Y-75476955D01*
X85896257Y-75476952D01*
X85900758Y-75468118D01*
X85905834Y-75436067D01*
X85909979Y-75409902D01*
X85940392Y-75345749D01*
X86000661Y-75308223D01*
X86054139Y-75305165D01*
X86143807Y-75319367D01*
X86143808Y-75319367D01*
X86153600Y-75320918D01*
X86269518Y-75302558D01*
X86278352Y-75298057D01*
X86278355Y-75298056D01*
X86320521Y-75276571D01*
X86374089Y-75249277D01*
X86457077Y-75166289D01*
X86497492Y-75086969D01*
X86505856Y-75070555D01*
X86505857Y-75070552D01*
X86510358Y-75061718D01*
X86528718Y-74945800D01*
X86510358Y-74829882D01*
X86505857Y-74821048D01*
X86505856Y-74821045D01*
X86479972Y-74770245D01*
X86457077Y-74725311D01*
X86374089Y-74642323D01*
X86300357Y-74604755D01*
X86278355Y-74593544D01*
X86278352Y-74593543D01*
X86269518Y-74589042D01*
X86153600Y-74570682D01*
X86037682Y-74589042D01*
X86028848Y-74593543D01*
X86028845Y-74593544D01*
X86006843Y-74604755D01*
X85933111Y-74642323D01*
X85850123Y-74725311D01*
X85827228Y-74770245D01*
X85801344Y-74821045D01*
X85801343Y-74821048D01*
X85796842Y-74829882D01*
X85795291Y-74839676D01*
X85787621Y-74888098D01*
X85757208Y-74952251D01*
X85696939Y-74989777D01*
X85643461Y-74992835D01*
X85553793Y-74978633D01*
X85553792Y-74978633D01*
X85544000Y-74977082D01*
X85428082Y-74995442D01*
X85419248Y-74999943D01*
X85419245Y-74999944D01*
X85378231Y-75020842D01*
X85323511Y-75048723D01*
X85240523Y-75131711D01*
X85219362Y-75173242D01*
X85191744Y-75227445D01*
X85191743Y-75227448D01*
X85187242Y-75236282D01*
X85168882Y-75352200D01*
X84120500Y-75352200D01*
X84120500Y-74480000D01*
X84654882Y-74480000D01*
X84673242Y-74595918D01*
X84677743Y-74604752D01*
X84677744Y-74604755D01*
X84690051Y-74628908D01*
X84726523Y-74700489D01*
X84809511Y-74783477D01*
X84863079Y-74810771D01*
X84905245Y-74832256D01*
X84905248Y-74832257D01*
X84914082Y-74836758D01*
X85030000Y-74855118D01*
X85145918Y-74836758D01*
X85154752Y-74832257D01*
X85154755Y-74832256D01*
X85196921Y-74810771D01*
X85250489Y-74783477D01*
X85333477Y-74700489D01*
X85369949Y-74628908D01*
X85382256Y-74604755D01*
X85382257Y-74604752D01*
X85386758Y-74595918D01*
X85405118Y-74480000D01*
X85386758Y-74364082D01*
X85382257Y-74355248D01*
X85382256Y-74355245D01*
X85360771Y-74313079D01*
X85333477Y-74259511D01*
X85250489Y-74176523D01*
X85196921Y-74149229D01*
X85154755Y-74127744D01*
X85154752Y-74127743D01*
X85145918Y-74123242D01*
X85030000Y-74104882D01*
X84914082Y-74123242D01*
X84905248Y-74127743D01*
X84905245Y-74127744D01*
X84863079Y-74149229D01*
X84809511Y-74176523D01*
X84726523Y-74259511D01*
X84699229Y-74313079D01*
X84677744Y-74355245D01*
X84677743Y-74355248D01*
X84673242Y-74364082D01*
X84654882Y-74480000D01*
X84120500Y-74480000D01*
X84120500Y-73450000D01*
X84664882Y-73450000D01*
X84683242Y-73565918D01*
X84687743Y-73574752D01*
X84687744Y-73574755D01*
X84704531Y-73607700D01*
X84736523Y-73670489D01*
X84819511Y-73753477D01*
X84864316Y-73776306D01*
X84915245Y-73802256D01*
X84915248Y-73802257D01*
X84924082Y-73806758D01*
X85040000Y-73825118D01*
X85155918Y-73806758D01*
X85164752Y-73802257D01*
X85164755Y-73802256D01*
X85215684Y-73776306D01*
X85260489Y-73753477D01*
X85343477Y-73670489D01*
X85375469Y-73607700D01*
X85392256Y-73574755D01*
X85392257Y-73574752D01*
X85396758Y-73565918D01*
X85415118Y-73450000D01*
X85396758Y-73334082D01*
X85392257Y-73325248D01*
X85392256Y-73325245D01*
X85370771Y-73283079D01*
X85343477Y-73229511D01*
X85260489Y-73146523D01*
X85206921Y-73119229D01*
X85164755Y-73097744D01*
X85164752Y-73097743D01*
X85155918Y-73093242D01*
X85040000Y-73074882D01*
X84924082Y-73093242D01*
X84915248Y-73097743D01*
X84915245Y-73097744D01*
X84873079Y-73119229D01*
X84819511Y-73146523D01*
X84736523Y-73229511D01*
X84709229Y-73283079D01*
X84687744Y-73325245D01*
X84687743Y-73325248D01*
X84683242Y-73334082D01*
X84664882Y-73450000D01*
X84120500Y-73450000D01*
X84120500Y-71418097D01*
X84140502Y-71349976D01*
X84194158Y-71303483D01*
X84264432Y-71293379D01*
X84329012Y-71322873D01*
X84351267Y-71348098D01*
X84360649Y-71362140D01*
X84360651Y-71362142D01*
X84367543Y-71372457D01*
X84400787Y-71394669D01*
X84430101Y-71400500D01*
X85289583Y-71400500D01*
X86149898Y-71400499D01*
X86163810Y-71397732D01*
X86167045Y-71397089D01*
X86179213Y-71394669D01*
X86212457Y-71372457D01*
X86234669Y-71339213D01*
X86240500Y-71309899D01*
X86240499Y-69688000D01*
X89486882Y-69688000D01*
X89505242Y-69803918D01*
X89509743Y-69812752D01*
X89509744Y-69812755D01*
X89531229Y-69854921D01*
X89558523Y-69908489D01*
X89641511Y-69991477D01*
X89695079Y-70018771D01*
X89737245Y-70040256D01*
X89737248Y-70040257D01*
X89746082Y-70044758D01*
X89862000Y-70063118D01*
X89977918Y-70044758D01*
X89986752Y-70040257D01*
X89986755Y-70040256D01*
X90028921Y-70018771D01*
X90082489Y-69991477D01*
X90165477Y-69908489D01*
X90192771Y-69854921D01*
X90214256Y-69812755D01*
X90214257Y-69812752D01*
X90218758Y-69803918D01*
X90237118Y-69688000D01*
X90218758Y-69572082D01*
X90214257Y-69563248D01*
X90214256Y-69563245D01*
X90182391Y-69500707D01*
X90165477Y-69467511D01*
X90082489Y-69384523D01*
X90028921Y-69357229D01*
X89986755Y-69335744D01*
X89986752Y-69335743D01*
X89977918Y-69331242D01*
X89862000Y-69312882D01*
X89746082Y-69331242D01*
X89737248Y-69335743D01*
X89737245Y-69335744D01*
X89695079Y-69357229D01*
X89641511Y-69384523D01*
X89558523Y-69467511D01*
X89541609Y-69500707D01*
X89509744Y-69563245D01*
X89509743Y-69563248D01*
X89505242Y-69572082D01*
X89486882Y-69688000D01*
X86240499Y-69688000D01*
X86240499Y-69590102D01*
X86237623Y-69575641D01*
X86237089Y-69572955D01*
X86234669Y-69560787D01*
X86212457Y-69527543D01*
X86179213Y-69505331D01*
X86149899Y-69499500D01*
X85290417Y-69499500D01*
X84430102Y-69499501D01*
X84416190Y-69502268D01*
X84412961Y-69502910D01*
X84400787Y-69505331D01*
X84367543Y-69527543D01*
X84360651Y-69537858D01*
X84360649Y-69537860D01*
X84351267Y-69551902D01*
X84296791Y-69597431D01*
X84226348Y-69606281D01*
X84162303Y-69575641D01*
X84124990Y-69515241D01*
X84120500Y-69481903D01*
X84120500Y-67402000D01*
X89486882Y-67402000D01*
X89505242Y-67517918D01*
X89509743Y-67526752D01*
X89509744Y-67526755D01*
X89531229Y-67568921D01*
X89558523Y-67622489D01*
X89641511Y-67705477D01*
X89695079Y-67732771D01*
X89737245Y-67754256D01*
X89737248Y-67754257D01*
X89746082Y-67758758D01*
X89862000Y-67777118D01*
X89977918Y-67758758D01*
X89986752Y-67754257D01*
X89986755Y-67754256D01*
X90028921Y-67732771D01*
X90082489Y-67705477D01*
X90165477Y-67622489D01*
X90192771Y-67568921D01*
X90214256Y-67526755D01*
X90214257Y-67526752D01*
X90218758Y-67517918D01*
X90237118Y-67402000D01*
X90218758Y-67286082D01*
X90214257Y-67277248D01*
X90214256Y-67277245D01*
X90192771Y-67235079D01*
X90165477Y-67181511D01*
X90082489Y-67098523D01*
X90028921Y-67071229D01*
X89986755Y-67049744D01*
X89986752Y-67049743D01*
X89977918Y-67045242D01*
X89862000Y-67026882D01*
X89746082Y-67045242D01*
X89737248Y-67049743D01*
X89737245Y-67049744D01*
X89695079Y-67071229D01*
X89641511Y-67098523D01*
X89558523Y-67181511D01*
X89531229Y-67235079D01*
X89509744Y-67277245D01*
X89509743Y-67277248D01*
X89505242Y-67286082D01*
X89486882Y-67402000D01*
X84120500Y-67402000D01*
X84120500Y-63338000D01*
X87200882Y-63338000D01*
X87219242Y-63453918D01*
X87223743Y-63462752D01*
X87223744Y-63462755D01*
X87245229Y-63504921D01*
X87272523Y-63558489D01*
X87355511Y-63641477D01*
X87409079Y-63668771D01*
X87451245Y-63690256D01*
X87451248Y-63690257D01*
X87460082Y-63694758D01*
X87576000Y-63713118D01*
X87691918Y-63694758D01*
X87700752Y-63690257D01*
X87700755Y-63690256D01*
X87742921Y-63668771D01*
X87796489Y-63641477D01*
X87879477Y-63558489D01*
X87906771Y-63504921D01*
X87928256Y-63462755D01*
X87928257Y-63462752D01*
X87932758Y-63453918D01*
X87951118Y-63338000D01*
X87932758Y-63222082D01*
X87928257Y-63213248D01*
X87928256Y-63213245D01*
X87906771Y-63171079D01*
X87879477Y-63117511D01*
X87796489Y-63034523D01*
X87764977Y-63018467D01*
X87713361Y-62969719D01*
X87696295Y-62900804D01*
X87719195Y-62833603D01*
X87764977Y-62793933D01*
X87765331Y-62793752D01*
X87796489Y-62777877D01*
X87879477Y-62694889D01*
X87906771Y-62641321D01*
X87928256Y-62599155D01*
X87928257Y-62599152D01*
X87932758Y-62590318D01*
X87951118Y-62474400D01*
X87932758Y-62358482D01*
X87928257Y-62349648D01*
X87928256Y-62349645D01*
X87886665Y-62268019D01*
X87879477Y-62253911D01*
X87796489Y-62170923D01*
X87715126Y-62129467D01*
X87663510Y-62080719D01*
X87646444Y-62011804D01*
X87669344Y-61944603D01*
X87715126Y-61904933D01*
X87796489Y-61863477D01*
X87879477Y-61780489D01*
X87906771Y-61726921D01*
X87928256Y-61684755D01*
X87928257Y-61684752D01*
X87932758Y-61675918D01*
X87951118Y-61560000D01*
X87932758Y-61444082D01*
X87928257Y-61435248D01*
X87928256Y-61435245D01*
X87906771Y-61393079D01*
X87879477Y-61339511D01*
X87796489Y-61256523D01*
X87742921Y-61229229D01*
X87700755Y-61207744D01*
X87700752Y-61207743D01*
X87691918Y-61203242D01*
X87576000Y-61184882D01*
X87460082Y-61203242D01*
X87451248Y-61207743D01*
X87451245Y-61207744D01*
X87409079Y-61229229D01*
X87355511Y-61256523D01*
X87272523Y-61339511D01*
X87245229Y-61393079D01*
X87223744Y-61435245D01*
X87223743Y-61435248D01*
X87219242Y-61444082D01*
X87200882Y-61560000D01*
X87219242Y-61675918D01*
X87223743Y-61684752D01*
X87223744Y-61684755D01*
X87245229Y-61726921D01*
X87272523Y-61780489D01*
X87355511Y-61863477D01*
X87436874Y-61904933D01*
X87488490Y-61953681D01*
X87505556Y-62022596D01*
X87482656Y-62089797D01*
X87436874Y-62129467D01*
X87355511Y-62170923D01*
X87272523Y-62253911D01*
X87265335Y-62268019D01*
X87223744Y-62349645D01*
X87223743Y-62349648D01*
X87219242Y-62358482D01*
X87200882Y-62474400D01*
X87219242Y-62590318D01*
X87223743Y-62599152D01*
X87223744Y-62599155D01*
X87245229Y-62641321D01*
X87272523Y-62694889D01*
X87355511Y-62777877D01*
X87386669Y-62793752D01*
X87387023Y-62793933D01*
X87438639Y-62842681D01*
X87455705Y-62911596D01*
X87432805Y-62978797D01*
X87387023Y-63018467D01*
X87355511Y-63034523D01*
X87272523Y-63117511D01*
X87245229Y-63171079D01*
X87223744Y-63213245D01*
X87223743Y-63213248D01*
X87219242Y-63222082D01*
X87200882Y-63338000D01*
X84120500Y-63338000D01*
X84120500Y-62576000D01*
X84406882Y-62576000D01*
X84425242Y-62691918D01*
X84429743Y-62700752D01*
X84429744Y-62700755D01*
X84451229Y-62742921D01*
X84478523Y-62796489D01*
X84561511Y-62879477D01*
X84603368Y-62900804D01*
X84657245Y-62928256D01*
X84657248Y-62928257D01*
X84666082Y-62932758D01*
X84782000Y-62951118D01*
X84897918Y-62932758D01*
X84906752Y-62928257D01*
X84906755Y-62928256D01*
X84960632Y-62900804D01*
X85002489Y-62879477D01*
X85085477Y-62796489D01*
X85112771Y-62742921D01*
X85134256Y-62700755D01*
X85134257Y-62700752D01*
X85138758Y-62691918D01*
X85157118Y-62576000D01*
X85422882Y-62576000D01*
X85441242Y-62691918D01*
X85445743Y-62700752D01*
X85445744Y-62700755D01*
X85467229Y-62742921D01*
X85494523Y-62796489D01*
X85577511Y-62879477D01*
X85619368Y-62900804D01*
X85673245Y-62928256D01*
X85673248Y-62928257D01*
X85682082Y-62932758D01*
X85798000Y-62951118D01*
X85913918Y-62932758D01*
X85922752Y-62928257D01*
X85922755Y-62928256D01*
X85976632Y-62900804D01*
X86018489Y-62879477D01*
X86101477Y-62796489D01*
X86128771Y-62742921D01*
X86150256Y-62700755D01*
X86150257Y-62700752D01*
X86154758Y-62691918D01*
X86173118Y-62576000D01*
X86154758Y-62460082D01*
X86150257Y-62451248D01*
X86150256Y-62451245D01*
X86128771Y-62409079D01*
X86101477Y-62355511D01*
X86018489Y-62272523D01*
X85964921Y-62245229D01*
X85922755Y-62223744D01*
X85922752Y-62223743D01*
X85913918Y-62219242D01*
X85798000Y-62200882D01*
X85682082Y-62219242D01*
X85673248Y-62223743D01*
X85673245Y-62223744D01*
X85631079Y-62245229D01*
X85577511Y-62272523D01*
X85494523Y-62355511D01*
X85467229Y-62409079D01*
X85445744Y-62451245D01*
X85445743Y-62451248D01*
X85441242Y-62460082D01*
X85422882Y-62576000D01*
X85157118Y-62576000D01*
X85138758Y-62460082D01*
X85134257Y-62451248D01*
X85134256Y-62451245D01*
X85112771Y-62409079D01*
X85085477Y-62355511D01*
X85002489Y-62272523D01*
X84948921Y-62245229D01*
X84906755Y-62223744D01*
X84906752Y-62223743D01*
X84897918Y-62219242D01*
X84782000Y-62200882D01*
X84666082Y-62219242D01*
X84657248Y-62223743D01*
X84657245Y-62223744D01*
X84615079Y-62245229D01*
X84561511Y-62272523D01*
X84478523Y-62355511D01*
X84451229Y-62409079D01*
X84429744Y-62451245D01*
X84429743Y-62451248D01*
X84425242Y-62460082D01*
X84406882Y-62576000D01*
X84120500Y-62576000D01*
X84120500Y-59540000D01*
X89124882Y-59540000D01*
X89143242Y-59655918D01*
X89147743Y-59664752D01*
X89147744Y-59664755D01*
X89169229Y-59706921D01*
X89196523Y-59760489D01*
X89279511Y-59843477D01*
X89333079Y-59870771D01*
X89375245Y-59892256D01*
X89375248Y-59892257D01*
X89384082Y-59896758D01*
X89500000Y-59915118D01*
X89615918Y-59896758D01*
X89624752Y-59892257D01*
X89624755Y-59892256D01*
X89666921Y-59870771D01*
X89720489Y-59843477D01*
X89760905Y-59803061D01*
X89823217Y-59769035D01*
X89894032Y-59774100D01*
X89939095Y-59803061D01*
X89979511Y-59843477D01*
X90033079Y-59870771D01*
X90075245Y-59892256D01*
X90075248Y-59892257D01*
X90084082Y-59896758D01*
X90200000Y-59915118D01*
X90315918Y-59896758D01*
X90324752Y-59892257D01*
X90324755Y-59892256D01*
X90366921Y-59870771D01*
X90420489Y-59843477D01*
X90503477Y-59760489D01*
X90530771Y-59706921D01*
X90552256Y-59664755D01*
X90552257Y-59664752D01*
X90556758Y-59655918D01*
X90575118Y-59540000D01*
X90556758Y-59424082D01*
X90552257Y-59415248D01*
X90552256Y-59415245D01*
X90530771Y-59373079D01*
X90503477Y-59319511D01*
X90420489Y-59236523D01*
X90366921Y-59209229D01*
X90324755Y-59187744D01*
X90324752Y-59187743D01*
X90315918Y-59183242D01*
X90200000Y-59164882D01*
X90084082Y-59183242D01*
X90075248Y-59187743D01*
X90075245Y-59187744D01*
X90033079Y-59209229D01*
X89979511Y-59236523D01*
X89939095Y-59276939D01*
X89876783Y-59310965D01*
X89805968Y-59305900D01*
X89760905Y-59276939D01*
X89720489Y-59236523D01*
X89666921Y-59209229D01*
X89624755Y-59187744D01*
X89624752Y-59187743D01*
X89615918Y-59183242D01*
X89500000Y-59164882D01*
X89384082Y-59183242D01*
X89375248Y-59187743D01*
X89375245Y-59187744D01*
X89333079Y-59209229D01*
X89279511Y-59236523D01*
X89196523Y-59319511D01*
X89169229Y-59373079D01*
X89147744Y-59415245D01*
X89147743Y-59415248D01*
X89143242Y-59424082D01*
X89124882Y-59540000D01*
X84120500Y-59540000D01*
X84120500Y-56178097D01*
X84140502Y-56109976D01*
X84194158Y-56063483D01*
X84264432Y-56053379D01*
X84329012Y-56082873D01*
X84351267Y-56108098D01*
X84360649Y-56122140D01*
X84360651Y-56122142D01*
X84367543Y-56132457D01*
X84400787Y-56154669D01*
X84430101Y-56160500D01*
X85289583Y-56160500D01*
X86149898Y-56160499D01*
X86163810Y-56157732D01*
X86167045Y-56157089D01*
X86179213Y-56154669D01*
X86212457Y-56132457D01*
X86234669Y-56099213D01*
X86240500Y-56069899D01*
X86240499Y-54350102D01*
X86237623Y-54335641D01*
X86237089Y-54332955D01*
X86234669Y-54320787D01*
X86212457Y-54287543D01*
X86179213Y-54265331D01*
X86149899Y-54259500D01*
X85709815Y-54259500D01*
X85641694Y-54239498D01*
X85595201Y-54185842D01*
X85585097Y-54115568D01*
X85597546Y-54076303D01*
X85646758Y-53979718D01*
X85665118Y-53863800D01*
X85646758Y-53747882D01*
X85642257Y-53739048D01*
X85642256Y-53739045D01*
X85620771Y-53696879D01*
X85593477Y-53643311D01*
X85510489Y-53560323D01*
X85456921Y-53533029D01*
X85414755Y-53511544D01*
X85414752Y-53511543D01*
X85405918Y-53507042D01*
X85290000Y-53488682D01*
X85174082Y-53507042D01*
X85165248Y-53511543D01*
X85165245Y-53511544D01*
X85123079Y-53533029D01*
X85069511Y-53560323D01*
X84986523Y-53643311D01*
X84959229Y-53696879D01*
X84937744Y-53739045D01*
X84937743Y-53739048D01*
X84933242Y-53747882D01*
X84914882Y-53863800D01*
X84933242Y-53979718D01*
X84937743Y-53988552D01*
X84937744Y-53988555D01*
X84982452Y-54076299D01*
X84995556Y-54146075D01*
X84968856Y-54211860D01*
X84910828Y-54252766D01*
X84870187Y-54259501D01*
X84430102Y-54259501D01*
X84416190Y-54262268D01*
X84412961Y-54262910D01*
X84400787Y-54265331D01*
X84367543Y-54287543D01*
X84360651Y-54297858D01*
X84360649Y-54297860D01*
X84351267Y-54311902D01*
X84296791Y-54357431D01*
X84226348Y-54366281D01*
X84162303Y-54335641D01*
X84124990Y-54275241D01*
X84120500Y-54241903D01*
X84120500Y-48558097D01*
X84140502Y-48489976D01*
X84194158Y-48443483D01*
X84264432Y-48433379D01*
X84329012Y-48462873D01*
X84351267Y-48488098D01*
X84360649Y-48502140D01*
X84360651Y-48502142D01*
X84367543Y-48512457D01*
X84400787Y-48534669D01*
X84430101Y-48540500D01*
X84870185Y-48540500D01*
X84938306Y-48560502D01*
X84984799Y-48614158D01*
X84994903Y-48684432D01*
X84982454Y-48723697D01*
X84933242Y-48820282D01*
X84914882Y-48936200D01*
X84933242Y-49052118D01*
X84937743Y-49060952D01*
X84937744Y-49060955D01*
X84959229Y-49103121D01*
X84986523Y-49156689D01*
X85069511Y-49239677D01*
X85123079Y-49266971D01*
X85165245Y-49288456D01*
X85165248Y-49288457D01*
X85174082Y-49292958D01*
X85290000Y-49311318D01*
X85405918Y-49292958D01*
X85414752Y-49288457D01*
X85414755Y-49288456D01*
X85456921Y-49266971D01*
X85510489Y-49239677D01*
X85593477Y-49156689D01*
X85620771Y-49103121D01*
X85642256Y-49060955D01*
X85642257Y-49060952D01*
X85646758Y-49052118D01*
X85665118Y-48936200D01*
X85646758Y-48820282D01*
X85642257Y-48811448D01*
X85642256Y-48811445D01*
X85597548Y-48723701D01*
X85584444Y-48653925D01*
X85611144Y-48588140D01*
X85669172Y-48547234D01*
X85709813Y-48540499D01*
X86149898Y-48540499D01*
X86163810Y-48537732D01*
X86167045Y-48537089D01*
X86179213Y-48534669D01*
X86212457Y-48512457D01*
X86234669Y-48479213D01*
X86240500Y-48449899D01*
X86240499Y-46730102D01*
X86237623Y-46715641D01*
X86237089Y-46712955D01*
X86234669Y-46700787D01*
X86212457Y-46667543D01*
X86179213Y-46645331D01*
X86149899Y-46639500D01*
X85290417Y-46639500D01*
X84430102Y-46639501D01*
X84416190Y-46642268D01*
X84412961Y-46642910D01*
X84400787Y-46645331D01*
X84367543Y-46667543D01*
X84360651Y-46677858D01*
X84360649Y-46677860D01*
X84351267Y-46691902D01*
X84296791Y-46737431D01*
X84226348Y-46746281D01*
X84162303Y-46715641D01*
X84124990Y-46655241D01*
X84120500Y-46621903D01*
X84120500Y-46066000D01*
X88343882Y-46066000D01*
X88362242Y-46181918D01*
X88366743Y-46190752D01*
X88366744Y-46190755D01*
X88388229Y-46232921D01*
X88415523Y-46286489D01*
X88498511Y-46369477D01*
X88552079Y-46396771D01*
X88594245Y-46418256D01*
X88594248Y-46418257D01*
X88603082Y-46422758D01*
X88719000Y-46441118D01*
X88834918Y-46422758D01*
X88843752Y-46418257D01*
X88843755Y-46418256D01*
X88885921Y-46396771D01*
X88939489Y-46369477D01*
X89022477Y-46286489D01*
X89049771Y-46232921D01*
X89071256Y-46190755D01*
X89071257Y-46190752D01*
X89075758Y-46181918D01*
X89094118Y-46066000D01*
X89075758Y-45950082D01*
X89071257Y-45941248D01*
X89071256Y-45941245D01*
X89046867Y-45893379D01*
X89022477Y-45845511D01*
X88939489Y-45762523D01*
X88885921Y-45735229D01*
X88843755Y-45713744D01*
X88843752Y-45713743D01*
X88834918Y-45709242D01*
X88719000Y-45690882D01*
X88603082Y-45709242D01*
X88594248Y-45713743D01*
X88594245Y-45713744D01*
X88552079Y-45735229D01*
X88498511Y-45762523D01*
X88415523Y-45845511D01*
X88391133Y-45893379D01*
X88366744Y-45941245D01*
X88366743Y-45941248D01*
X88362242Y-45950082D01*
X88343882Y-46066000D01*
X84120500Y-46066000D01*
X84120500Y-46018097D01*
X84140502Y-45949976D01*
X84194158Y-45903483D01*
X84264432Y-45893379D01*
X84329012Y-45922873D01*
X84351267Y-45948098D01*
X84360649Y-45962140D01*
X84360651Y-45962142D01*
X84367543Y-45972457D01*
X84400787Y-45994669D01*
X84430101Y-46000500D01*
X85289583Y-46000500D01*
X86149898Y-46000499D01*
X86163810Y-45997732D01*
X86167045Y-45997089D01*
X86179213Y-45994669D01*
X86212457Y-45972457D01*
X86234669Y-45939213D01*
X86240500Y-45909899D01*
X86240499Y-44190102D01*
X86237623Y-44175641D01*
X86237089Y-44172955D01*
X86234669Y-44160787D01*
X86212457Y-44127543D01*
X86179213Y-44105331D01*
X86149899Y-44099500D01*
X85290417Y-44099500D01*
X84430102Y-44099501D01*
X84416190Y-44102268D01*
X84412961Y-44102910D01*
X84400787Y-44105331D01*
X84367543Y-44127543D01*
X84360651Y-44137858D01*
X84360649Y-44137860D01*
X84351267Y-44151902D01*
X84296791Y-44197431D01*
X84226348Y-44206281D01*
X84162303Y-44175641D01*
X84124990Y-44115241D01*
X84120500Y-44081903D01*
X84120500Y-43478097D01*
X84140502Y-43409976D01*
X84194158Y-43363483D01*
X84264432Y-43353379D01*
X84329012Y-43382873D01*
X84351267Y-43408098D01*
X84360649Y-43422140D01*
X84360651Y-43422142D01*
X84367543Y-43432457D01*
X84400787Y-43454669D01*
X84430101Y-43460500D01*
X85289583Y-43460500D01*
X86149898Y-43460499D01*
X86163810Y-43457732D01*
X86167045Y-43457089D01*
X86179213Y-43454669D01*
X86212457Y-43432457D01*
X86234669Y-43399213D01*
X86240500Y-43369899D01*
X86240499Y-41650102D01*
X86237623Y-41635641D01*
X86237089Y-41632955D01*
X86234669Y-41620787D01*
X86212457Y-41587543D01*
X86179213Y-41565331D01*
X86149899Y-41559500D01*
X85290417Y-41559500D01*
X84430102Y-41559501D01*
X84416190Y-41562268D01*
X84412961Y-41562910D01*
X84400787Y-41565331D01*
X84367543Y-41587543D01*
X84360651Y-41597858D01*
X84360649Y-41597860D01*
X84351267Y-41611902D01*
X84296791Y-41657431D01*
X84226348Y-41666281D01*
X84162303Y-41635641D01*
X84124990Y-41575241D01*
X84120500Y-41541903D01*
X84120500Y-40938097D01*
X84140502Y-40869976D01*
X84194158Y-40823483D01*
X84264432Y-40813379D01*
X84329012Y-40842873D01*
X84351267Y-40868098D01*
X84360649Y-40882140D01*
X84360651Y-40882142D01*
X84367543Y-40892457D01*
X84400787Y-40914669D01*
X84430101Y-40920500D01*
X85289583Y-40920500D01*
X86149898Y-40920499D01*
X86163810Y-40917732D01*
X86167045Y-40917089D01*
X86179213Y-40914669D01*
X86212457Y-40892457D01*
X86234669Y-40859213D01*
X86240500Y-40829899D01*
X86240499Y-39110102D01*
X86237623Y-39095641D01*
X86237089Y-39092955D01*
X86234669Y-39080787D01*
X86212457Y-39047543D01*
X86179213Y-39025331D01*
X86149899Y-39019500D01*
X85290417Y-39019500D01*
X84430102Y-39019501D01*
X84416190Y-39022268D01*
X84412961Y-39022910D01*
X84400787Y-39025331D01*
X84367543Y-39047543D01*
X84360651Y-39057858D01*
X84360649Y-39057860D01*
X84351267Y-39071902D01*
X84296791Y-39117431D01*
X84226348Y-39126281D01*
X84162303Y-39095641D01*
X84124990Y-39035241D01*
X84120500Y-39001903D01*
X84120500Y-38398097D01*
X84140502Y-38329976D01*
X84194158Y-38283483D01*
X84264432Y-38273379D01*
X84329012Y-38302873D01*
X84351267Y-38328098D01*
X84360649Y-38342140D01*
X84360651Y-38342142D01*
X84367543Y-38352457D01*
X84400787Y-38374669D01*
X84430101Y-38380500D01*
X85289583Y-38380500D01*
X86149898Y-38380499D01*
X86163810Y-38377732D01*
X86167045Y-38377089D01*
X86179213Y-38374669D01*
X86212457Y-38352457D01*
X86234669Y-38319213D01*
X86240500Y-38289899D01*
X86240499Y-36570102D01*
X86234669Y-36540787D01*
X86212457Y-36507543D01*
X86179213Y-36485331D01*
X86149899Y-36479500D01*
X85290417Y-36479500D01*
X84430102Y-36479501D01*
X84416190Y-36482268D01*
X84412961Y-36482910D01*
X84400787Y-36485331D01*
X84367543Y-36507543D01*
X84360651Y-36517858D01*
X84360649Y-36517860D01*
X84351267Y-36531902D01*
X84296791Y-36577431D01*
X84226348Y-36586281D01*
X84162303Y-36555641D01*
X84124990Y-36495241D01*
X84120500Y-36461903D01*
X84120500Y-35506177D01*
X84140502Y-35438056D01*
X84194158Y-35391563D01*
X84264432Y-35381459D01*
X84306554Y-35398554D01*
X84307511Y-35396677D01*
X84403245Y-35445456D01*
X84403248Y-35445457D01*
X84412082Y-35449958D01*
X84528000Y-35468318D01*
X84643918Y-35449958D01*
X84652752Y-35445457D01*
X84652755Y-35445456D01*
X84694921Y-35423971D01*
X84748489Y-35396677D01*
X84831477Y-35313689D01*
X84868962Y-35240120D01*
X84879112Y-35220200D01*
X85194282Y-35220200D01*
X85212642Y-35336118D01*
X85217143Y-35344952D01*
X85217144Y-35344955D01*
X85230673Y-35371506D01*
X85265923Y-35440689D01*
X85348911Y-35523677D01*
X85402479Y-35550971D01*
X85444645Y-35572456D01*
X85444648Y-35572457D01*
X85453482Y-35576958D01*
X85569400Y-35595318D01*
X85685318Y-35576958D01*
X85694152Y-35572457D01*
X85694155Y-35572456D01*
X85736321Y-35550971D01*
X85789889Y-35523677D01*
X85872877Y-35440689D01*
X85908127Y-35371506D01*
X85921656Y-35344955D01*
X85921657Y-35344952D01*
X85926158Y-35336118D01*
X85941363Y-35240120D01*
X85971776Y-35175967D01*
X86032044Y-35138440D01*
X86085520Y-35135382D01*
X86093003Y-35136567D01*
X86093008Y-35136567D01*
X86102800Y-35138118D01*
X86112592Y-35136567D01*
X86144855Y-35131457D01*
X86215266Y-35140556D01*
X86269580Y-35186278D01*
X86289015Y-35236194D01*
X86299505Y-35302425D01*
X86304842Y-35336118D01*
X86309343Y-35344952D01*
X86309344Y-35344955D01*
X86322873Y-35371506D01*
X86358123Y-35440689D01*
X86441111Y-35523677D01*
X86494679Y-35550971D01*
X86536845Y-35572456D01*
X86536848Y-35572457D01*
X86545682Y-35576958D01*
X86661600Y-35595318D01*
X86777518Y-35576958D01*
X86786352Y-35572457D01*
X86786355Y-35572456D01*
X86828521Y-35550971D01*
X86882089Y-35523677D01*
X86965077Y-35440689D01*
X87000327Y-35371506D01*
X87013856Y-35344955D01*
X87013857Y-35344952D01*
X87018358Y-35336118D01*
X87036718Y-35220200D01*
X87024649Y-35144000D01*
X92915882Y-35144000D01*
X92934242Y-35259918D01*
X92938743Y-35268752D01*
X92938744Y-35268755D01*
X92957135Y-35304848D01*
X92987523Y-35364489D01*
X93070511Y-35447477D01*
X93124079Y-35474771D01*
X93166245Y-35496256D01*
X93166248Y-35496257D01*
X93175082Y-35500758D01*
X93291000Y-35519118D01*
X93406918Y-35500758D01*
X93415752Y-35496257D01*
X93415755Y-35496256D01*
X93457921Y-35474771D01*
X93511489Y-35447477D01*
X93594477Y-35364489D01*
X93624865Y-35304848D01*
X93643256Y-35268755D01*
X93643257Y-35268752D01*
X93647758Y-35259918D01*
X93666118Y-35144000D01*
X93647758Y-35028082D01*
X93643257Y-35019248D01*
X93643256Y-35019245D01*
X93617372Y-34968445D01*
X93594477Y-34923511D01*
X93511489Y-34840523D01*
X93446153Y-34807233D01*
X93415755Y-34791744D01*
X93415752Y-34791743D01*
X93406918Y-34787242D01*
X93291000Y-34768882D01*
X93175082Y-34787242D01*
X93166248Y-34791743D01*
X93166245Y-34791744D01*
X93135847Y-34807233D01*
X93070511Y-34840523D01*
X92987523Y-34923511D01*
X92964628Y-34968445D01*
X92938744Y-35019245D01*
X92938743Y-35019248D01*
X92934242Y-35028082D01*
X92915882Y-35144000D01*
X87024649Y-35144000D01*
X87018358Y-35104282D01*
X87013857Y-35095448D01*
X87013856Y-35095445D01*
X86984523Y-35037876D01*
X86965077Y-34999711D01*
X86882089Y-34916723D01*
X86828521Y-34889429D01*
X86786355Y-34867944D01*
X86786352Y-34867943D01*
X86777518Y-34863442D01*
X86737601Y-34857120D01*
X86673449Y-34826708D01*
X86635922Y-34766440D01*
X86636935Y-34695451D01*
X86676167Y-34636278D01*
X86717768Y-34613176D01*
X86726718Y-34611758D01*
X86831289Y-34558477D01*
X86914277Y-34475489D01*
X86950350Y-34404691D01*
X86963056Y-34379755D01*
X86963057Y-34379752D01*
X86967558Y-34370918D01*
X86985918Y-34255000D01*
X86969826Y-34153400D01*
X92687282Y-34153400D01*
X92705642Y-34269318D01*
X92710143Y-34278152D01*
X92710144Y-34278155D01*
X92723300Y-34303974D01*
X92758923Y-34373889D01*
X92841911Y-34456877D01*
X92878440Y-34475489D01*
X92937645Y-34505656D01*
X92937648Y-34505657D01*
X92946482Y-34510158D01*
X93062400Y-34528518D01*
X93178318Y-34510158D01*
X93187152Y-34505657D01*
X93187155Y-34505656D01*
X93246360Y-34475489D01*
X93282889Y-34456877D01*
X93365877Y-34373889D01*
X93401500Y-34303974D01*
X93414656Y-34278155D01*
X93414657Y-34278152D01*
X93419158Y-34269318D01*
X93437518Y-34153400D01*
X93419158Y-34037482D01*
X93414657Y-34028648D01*
X93414656Y-34028645D01*
X93373065Y-33947019D01*
X93365877Y-33932911D01*
X93282889Y-33849923D01*
X93229321Y-33822629D01*
X93187155Y-33801144D01*
X93187152Y-33801143D01*
X93178318Y-33796642D01*
X93062400Y-33778282D01*
X92946482Y-33796642D01*
X92937648Y-33801143D01*
X92937645Y-33801144D01*
X92895479Y-33822629D01*
X92841911Y-33849923D01*
X92758923Y-33932911D01*
X92751735Y-33947019D01*
X92710144Y-34028645D01*
X92710143Y-34028648D01*
X92705642Y-34037482D01*
X92687282Y-34153400D01*
X86969826Y-34153400D01*
X86967558Y-34139082D01*
X86963057Y-34130248D01*
X86963056Y-34130245D01*
X86933936Y-34073095D01*
X86914277Y-34034511D01*
X86831289Y-33951523D01*
X86777721Y-33924229D01*
X86735555Y-33902744D01*
X86735552Y-33902743D01*
X86726718Y-33898242D01*
X86610800Y-33879882D01*
X86494882Y-33898242D01*
X86486048Y-33902743D01*
X86486045Y-33902744D01*
X86443879Y-33924229D01*
X86390311Y-33951523D01*
X86307323Y-34034511D01*
X86287664Y-34073095D01*
X86258544Y-34130245D01*
X86258543Y-34130248D01*
X86254042Y-34139082D01*
X86235682Y-34255000D01*
X86237093Y-34263909D01*
X86217231Y-34331554D01*
X86163575Y-34378047D01*
X86111806Y-34389308D01*
X86102800Y-34387882D01*
X85986882Y-34406242D01*
X85978048Y-34410743D01*
X85978045Y-34410744D01*
X85949368Y-34425356D01*
X85882311Y-34459523D01*
X85799323Y-34542511D01*
X85784595Y-34571417D01*
X85750544Y-34638245D01*
X85750543Y-34638248D01*
X85746042Y-34647082D01*
X85744491Y-34656876D01*
X85730837Y-34743080D01*
X85700424Y-34807233D01*
X85640156Y-34844760D01*
X85586680Y-34847818D01*
X85579197Y-34846633D01*
X85579192Y-34846633D01*
X85569400Y-34845082D01*
X85453482Y-34863442D01*
X85444648Y-34867943D01*
X85444645Y-34867944D01*
X85402479Y-34889429D01*
X85348911Y-34916723D01*
X85265923Y-34999711D01*
X85246477Y-35037876D01*
X85217144Y-35095445D01*
X85217143Y-35095448D01*
X85212642Y-35104282D01*
X85194282Y-35220200D01*
X84879112Y-35220200D01*
X84880256Y-35217955D01*
X84880257Y-35217952D01*
X84884758Y-35209118D01*
X84903118Y-35093200D01*
X84884758Y-34977282D01*
X84880257Y-34968448D01*
X84880256Y-34968445D01*
X84845281Y-34899804D01*
X84831477Y-34872711D01*
X84748489Y-34789723D01*
X84694921Y-34762429D01*
X84652755Y-34740944D01*
X84652752Y-34740943D01*
X84643918Y-34736442D01*
X84528000Y-34718082D01*
X84412082Y-34736442D01*
X84403248Y-34740943D01*
X84403245Y-34740944D01*
X84307511Y-34789723D01*
X84306258Y-34787264D01*
X84253685Y-34806018D01*
X84184534Y-34789933D01*
X84135057Y-34739015D01*
X84120500Y-34680223D01*
X84120500Y-34197850D01*
X84654532Y-34197850D01*
X84672892Y-34313768D01*
X84677393Y-34322602D01*
X84677394Y-34322605D01*
X84681954Y-34331554D01*
X84726173Y-34418339D01*
X84809161Y-34501327D01*
X84859483Y-34526967D01*
X84904895Y-34550106D01*
X84904898Y-34550107D01*
X84913732Y-34554608D01*
X85029650Y-34572968D01*
X85145568Y-34554608D01*
X85154402Y-34550107D01*
X85154405Y-34550106D01*
X85199817Y-34526967D01*
X85250139Y-34501327D01*
X85333127Y-34418339D01*
X85377346Y-34331554D01*
X85381906Y-34322605D01*
X85381907Y-34322602D01*
X85386408Y-34313768D01*
X85404768Y-34197850D01*
X85386408Y-34081932D01*
X85381907Y-34073098D01*
X85381906Y-34073095D01*
X85358671Y-34027494D01*
X85333127Y-33977361D01*
X85250139Y-33894373D01*
X85176672Y-33856940D01*
X85154405Y-33845594D01*
X85154402Y-33845593D01*
X85145568Y-33841092D01*
X85029650Y-33822732D01*
X84913732Y-33841092D01*
X84904898Y-33845593D01*
X84904895Y-33845594D01*
X84882628Y-33856940D01*
X84809161Y-33894373D01*
X84726173Y-33977361D01*
X84700629Y-34027494D01*
X84677394Y-34073095D01*
X84677393Y-34073098D01*
X84672892Y-34081932D01*
X84654532Y-34197850D01*
X84120500Y-34197850D01*
X84120500Y-33436338D01*
X84140502Y-33368217D01*
X84194158Y-33321724D01*
X84264432Y-33311620D01*
X84329012Y-33341114D01*
X84346460Y-33359631D01*
X84346691Y-33359932D01*
X84346695Y-33359936D01*
X84351718Y-33366482D01*
X84477159Y-33462736D01*
X84623238Y-33523244D01*
X84780000Y-33543882D01*
X84788188Y-33542804D01*
X84928574Y-33524322D01*
X84936762Y-33523244D01*
X85082841Y-33462736D01*
X85208282Y-33366482D01*
X85227748Y-33341114D01*
X85299509Y-33247592D01*
X85304536Y-33241041D01*
X85365044Y-33094962D01*
X85380500Y-32977561D01*
X85380500Y-32098839D01*
X85365044Y-31981438D01*
X85304536Y-31835359D01*
X85236059Y-31746118D01*
X85213305Y-31716464D01*
X85208282Y-31709918D01*
X85082841Y-31613664D01*
X84936762Y-31553156D01*
X84780000Y-31532518D01*
X84623238Y-31553156D01*
X84477159Y-31613664D01*
X84351718Y-31709918D01*
X84346695Y-31716464D01*
X84346691Y-31716468D01*
X84346460Y-31716769D01*
X84346201Y-31716958D01*
X84340850Y-31722309D01*
X84340015Y-31721474D01*
X84289121Y-31758635D01*
X84218250Y-31762854D01*
X84156348Y-31728088D01*
X84123069Y-31665374D01*
X84120500Y-31640062D01*
X84120500Y-29636337D01*
X84140502Y-29568216D01*
X84194158Y-29521723D01*
X84264432Y-29511619D01*
X84329012Y-29541113D01*
X84346460Y-29559630D01*
X84346691Y-29559931D01*
X84346695Y-29559935D01*
X84351718Y-29566481D01*
X84477159Y-29662735D01*
X84623238Y-29723243D01*
X84780000Y-29743881D01*
X84788188Y-29742803D01*
X84928574Y-29724321D01*
X84936762Y-29723243D01*
X85082841Y-29662735D01*
X85208282Y-29566481D01*
X85227748Y-29541113D01*
X85299509Y-29447591D01*
X85304536Y-29441040D01*
X85365044Y-29294961D01*
X85380500Y-29177560D01*
X85380500Y-27898838D01*
X85365044Y-27781437D01*
X85304536Y-27635358D01*
X85236059Y-27546117D01*
X85213305Y-27516463D01*
X85208282Y-27509917D01*
X85082841Y-27413663D01*
X84936762Y-27353155D01*
X84780000Y-27332517D01*
X84623238Y-27353155D01*
X84477159Y-27413663D01*
X84351718Y-27509917D01*
X84346695Y-27516463D01*
X84346691Y-27516467D01*
X84346460Y-27516768D01*
X84346201Y-27516957D01*
X84340850Y-27522308D01*
X84340015Y-27521473D01*
X84289121Y-27558634D01*
X84218250Y-27562853D01*
X84156348Y-27528087D01*
X84123069Y-27465373D01*
X84120500Y-27440061D01*
X84120500Y-26226500D01*
X84140502Y-26158379D01*
X84194158Y-26111886D01*
X84246500Y-26100500D01*
X86924821Y-26100500D01*
X86992942Y-26120502D01*
G37*
G04 #@! TD.AperFunction*
M02*
