G04 #@! TF.GenerationSoftware,KiCad,Pcbnew,(6.0.6)*
G04 #@! TF.CreationDate,2023-03-02T22:16:17-07:00*
G04 #@! TF.ProjectId,RP2040-Breadstick,52503230-3430-42d4-9272-656164737469,0.1*
G04 #@! TF.SameCoordinates,Original*
G04 #@! TF.FileFunction,Copper,L2,Inr*
G04 #@! TF.FilePolarity,Positive*
%FSLAX46Y46*%
G04 Gerber Fmt 4.6, Leading zero omitted, Abs format (unit mm)*
G04 Created by KiCad (PCBNEW (6.0.6)) date 2023-03-02 22:16:17*
%MOMM*%
%LPD*%
G01*
G04 APERTURE LIST*
G04 #@! TA.AperFunction,ComponentPad*
%ADD10R,1.700000X1.700000*%
G04 #@! TD*
G04 #@! TA.AperFunction,ComponentPad*
%ADD11O,1.000000X2.200000*%
G04 #@! TD*
G04 #@! TA.AperFunction,ComponentPad*
%ADD12O,1.000000X1.800000*%
G04 #@! TD*
G04 #@! TA.AperFunction,ViaPad*
%ADD13C,0.500000*%
G04 #@! TD*
G04 APERTURE END LIST*
D10*
X85290000Y-45050000D03*
X92910000Y-45050000D03*
X92910000Y-177130000D03*
X92910000Y-39970000D03*
X85290000Y-85690000D03*
X85290000Y-146650000D03*
X92910000Y-100930000D03*
X85290000Y-161890000D03*
X85290000Y-100930000D03*
X85290000Y-131410000D03*
X92910000Y-70450000D03*
X85290000Y-42510000D03*
X92910000Y-55210000D03*
X85290000Y-47590000D03*
X92910000Y-146650000D03*
X92910000Y-47590000D03*
X85290000Y-39970000D03*
X85290000Y-70450000D03*
X92910000Y-131410000D03*
X92910000Y-85690000D03*
X85290000Y-184750000D03*
X85290000Y-187290000D03*
X92910000Y-184750000D03*
X92910000Y-161890000D03*
X92910000Y-116170000D03*
X85290000Y-55210000D03*
X85290000Y-37430000D03*
X92910000Y-37430000D03*
X92910000Y-187290000D03*
X85290000Y-116170000D03*
X92910000Y-42510000D03*
X85290000Y-177130000D03*
D11*
X93420000Y-28538199D03*
X84780000Y-28538199D03*
D12*
X93420000Y-32538200D03*
X84780000Y-32538200D03*
D13*
X89100000Y-107076800D03*
X89100000Y-163363200D03*
X89100000Y-182159200D03*
X89100000Y-129581200D03*
X89100000Y-99558400D03*
X89100000Y-167122400D03*
X89100000Y-125822000D03*
X89100000Y-95316600D03*
X89100000Y-114595200D03*
X89100000Y-185918400D03*
X89100000Y-178400000D03*
X89100000Y-148377200D03*
X89100000Y-170881600D03*
X89100000Y-133340400D03*
X89100000Y-110836000D03*
X89100000Y-155895600D03*
X89100000Y-103317600D03*
X89100000Y-122062800D03*
X89100000Y-144618000D03*
X87576000Y-41748000D03*
X89100000Y-118303600D03*
X89100000Y-159604000D03*
X89100000Y-152136400D03*
X88325000Y-38525000D03*
X89100000Y-140858800D03*
X87576000Y-40732000D03*
X90751000Y-41748000D03*
X89100000Y-174640800D03*
X89100000Y-137099600D03*
X87630000Y-39170000D03*
X90751000Y-40732000D03*
X85569400Y-35220200D03*
X86610800Y-34255000D03*
X86661600Y-35220200D03*
X86102800Y-34763000D03*
X85290000Y-48936200D03*
X86470000Y-82750000D03*
X85696400Y-80838600D03*
X85010600Y-83531000D03*
X89110911Y-89627000D03*
X89100000Y-90363600D03*
X84610000Y-84166000D03*
X85340800Y-81626000D03*
X93291000Y-35144000D03*
X93062400Y-34153400D03*
X89100000Y-166157200D03*
X89100000Y-139893600D03*
X84528000Y-35093200D03*
X89100000Y-147412000D03*
X86500000Y-82000000D03*
X89100000Y-117338400D03*
X84782000Y-62576000D03*
X89100000Y-106111600D03*
X91582850Y-36280650D03*
X89100000Y-94580000D03*
X90030000Y-78960000D03*
X89100000Y-184953200D03*
X89100000Y-109820000D03*
X89100000Y-132375200D03*
X89100000Y-181194000D03*
X89100000Y-188661600D03*
X89100000Y-136134400D03*
X89100000Y-128616000D03*
X85290000Y-53863800D03*
X89100000Y-169916400D03*
X89100000Y-121097600D03*
X85029650Y-34197850D03*
X89100000Y-151120400D03*
X89100000Y-162398000D03*
X89100000Y-124856800D03*
X89100000Y-154879600D03*
X89108000Y-87972000D03*
X88719000Y-46066000D03*
X89100000Y-173675600D03*
X89110000Y-78060000D03*
X89100000Y-177434800D03*
X89862000Y-67402000D03*
X89100000Y-102301600D03*
X89862000Y-69688000D03*
X89100000Y-143652800D03*
X89100000Y-113579200D03*
X88220000Y-77170000D03*
X89100000Y-158638800D03*
X92325800Y-74895000D03*
X89170000Y-83190000D03*
X89817342Y-80799331D03*
X89100000Y-88865000D03*
X86407600Y-78603400D03*
X91843200Y-77816000D03*
X85798000Y-62576000D03*
X89100000Y-93843400D03*
X89100000Y-85486800D03*
X89760400Y-75377600D03*
X89100000Y-81626000D03*
X93666400Y-73713824D03*
X90200000Y-59540000D03*
X89500000Y-59540000D03*
X92966400Y-73713824D03*
X92224200Y-74107600D03*
X87576000Y-63338000D03*
X91233600Y-73015400D03*
X87576000Y-61560000D03*
X87576000Y-62474400D03*
X91741600Y-73548800D03*
X88109400Y-75530000D03*
X87576000Y-76038000D03*
X86153600Y-74945800D03*
X85544000Y-75352200D03*
X85030000Y-74480000D03*
X92840000Y-80540000D03*
X91320000Y-79520000D03*
X90620000Y-80240000D03*
X92220000Y-82940000D03*
X91780000Y-82140000D03*
X90810000Y-82310000D03*
X85040000Y-73450000D03*
X88541200Y-74945800D03*
X92325800Y-78374800D03*
X93570400Y-79695600D03*
X91792400Y-78908200D03*
X87480000Y-79650000D03*
X91182800Y-76495200D03*
G04 #@! TA.AperFunction,Conductor*
G36*
X87000658Y-26147502D02*
G01*
X87047151Y-26201158D01*
X87053685Y-26218871D01*
X87061484Y-26246158D01*
X87134165Y-26361350D01*
X87140894Y-26367293D01*
X87140895Y-26367294D01*
X87220627Y-26437711D01*
X87236255Y-26451513D01*
X87244378Y-26455327D01*
X87244380Y-26455328D01*
X87303607Y-26483135D01*
X87359548Y-26509399D01*
X87368412Y-26510779D01*
X87368415Y-26510780D01*
X87431897Y-26520664D01*
X87462956Y-26525500D01*
X87534145Y-26525500D01*
X87573589Y-26519851D01*
X87625943Y-26512354D01*
X87625946Y-26512353D01*
X87634829Y-26511081D01*
X87646917Y-26505585D01*
X87750653Y-26458420D01*
X87750657Y-26458418D01*
X87758820Y-26454706D01*
X87759168Y-26455472D01*
X87820161Y-26437711D01*
X87875005Y-26454175D01*
X87876255Y-26451513D01*
X87999548Y-26509399D01*
X88008412Y-26510779D01*
X88008415Y-26510780D01*
X88071897Y-26520664D01*
X88102956Y-26525500D01*
X88174145Y-26525500D01*
X88213589Y-26519851D01*
X88265943Y-26512354D01*
X88265946Y-26512353D01*
X88274829Y-26511081D01*
X88286917Y-26505585D01*
X88390653Y-26458420D01*
X88390657Y-26458418D01*
X88398820Y-26454706D01*
X88399168Y-26455472D01*
X88460161Y-26437711D01*
X88515005Y-26454175D01*
X88516255Y-26451513D01*
X88639548Y-26509399D01*
X88648412Y-26510779D01*
X88648415Y-26510780D01*
X88711897Y-26520664D01*
X88742956Y-26525500D01*
X88814145Y-26525500D01*
X88853589Y-26519851D01*
X88905943Y-26512354D01*
X88905946Y-26512353D01*
X88914829Y-26511081D01*
X88926917Y-26505585D01*
X89030653Y-26458420D01*
X89030657Y-26458418D01*
X89038820Y-26454706D01*
X89039168Y-26455472D01*
X89100161Y-26437711D01*
X89155005Y-26454175D01*
X89156255Y-26451513D01*
X89279548Y-26509399D01*
X89288412Y-26510779D01*
X89288415Y-26510780D01*
X89351897Y-26520664D01*
X89382956Y-26525500D01*
X89454145Y-26525500D01*
X89493589Y-26519851D01*
X89545943Y-26512354D01*
X89545946Y-26512353D01*
X89554829Y-26511081D01*
X89566917Y-26505585D01*
X89670653Y-26458420D01*
X89670657Y-26458418D01*
X89678820Y-26454706D01*
X89679168Y-26455472D01*
X89740161Y-26437711D01*
X89795005Y-26454175D01*
X89796255Y-26451513D01*
X89919548Y-26509399D01*
X89928412Y-26510779D01*
X89928415Y-26510780D01*
X89991897Y-26520664D01*
X90022956Y-26525500D01*
X90094145Y-26525500D01*
X90133589Y-26519851D01*
X90185943Y-26512354D01*
X90185946Y-26512353D01*
X90194829Y-26511081D01*
X90206917Y-26505585D01*
X90310653Y-26458420D01*
X90310657Y-26458418D01*
X90318820Y-26454706D01*
X90319168Y-26455472D01*
X90380161Y-26437711D01*
X90435005Y-26454175D01*
X90436255Y-26451513D01*
X90559548Y-26509399D01*
X90568412Y-26510779D01*
X90568415Y-26510780D01*
X90631897Y-26520664D01*
X90662956Y-26525500D01*
X90734145Y-26525500D01*
X90773589Y-26519851D01*
X90825943Y-26512354D01*
X90825946Y-26512353D01*
X90834829Y-26511081D01*
X90958820Y-26454706D01*
X91062004Y-26365796D01*
X91136087Y-26251501D01*
X91140266Y-26237529D01*
X91146286Y-26217398D01*
X91184968Y-26157864D01*
X91249695Y-26128694D01*
X91267003Y-26127500D01*
X93926500Y-26127500D01*
X93994621Y-26147502D01*
X94041114Y-26201158D01*
X94052500Y-26253500D01*
X94052500Y-27379294D01*
X94032498Y-27447415D01*
X93978842Y-27493908D01*
X93908568Y-27504012D01*
X93846186Y-27476380D01*
X93758903Y-27404173D01*
X93615449Y-27336668D01*
X93607666Y-27335183D01*
X93607665Y-27335183D01*
X93467500Y-27308445D01*
X93467498Y-27308445D01*
X93459714Y-27306960D01*
X93380599Y-27311937D01*
X93309395Y-27316417D01*
X93309393Y-27316417D01*
X93301484Y-27316915D01*
X93293948Y-27319364D01*
X93293946Y-27319364D01*
X93158242Y-27363457D01*
X93158239Y-27363458D01*
X93150700Y-27365908D01*
X93016838Y-27450859D01*
X92908307Y-27566432D01*
X92831928Y-27705365D01*
X92792500Y-27858927D01*
X92792500Y-29177675D01*
X92807384Y-29295492D01*
X92865747Y-29442902D01*
X92958937Y-29571166D01*
X92965045Y-29576219D01*
X93074988Y-29667172D01*
X93074992Y-29667175D01*
X93081097Y-29672225D01*
X93224551Y-29739730D01*
X93232334Y-29741215D01*
X93232335Y-29741215D01*
X93372500Y-29767953D01*
X93372502Y-29767953D01*
X93380286Y-29769438D01*
X93459401Y-29764460D01*
X93530605Y-29759981D01*
X93530607Y-29759981D01*
X93538516Y-29759483D01*
X93546052Y-29757034D01*
X93546054Y-29757034D01*
X93681758Y-29712941D01*
X93681761Y-29712940D01*
X93689300Y-29710490D01*
X93823162Y-29625539D01*
X93834652Y-29613304D01*
X93895865Y-29577340D01*
X93966805Y-29580179D01*
X94024948Y-29620921D01*
X94051835Y-29686629D01*
X94052500Y-29699559D01*
X94052500Y-31579295D01*
X94032498Y-31647416D01*
X93978842Y-31693909D01*
X93908568Y-31704013D01*
X93846186Y-31676381D01*
X93758903Y-31604174D01*
X93615449Y-31536669D01*
X93607666Y-31535184D01*
X93607665Y-31535184D01*
X93467500Y-31508446D01*
X93467498Y-31508446D01*
X93459714Y-31506961D01*
X93380599Y-31511938D01*
X93309395Y-31516418D01*
X93309393Y-31516418D01*
X93301484Y-31516916D01*
X93293948Y-31519365D01*
X93293946Y-31519365D01*
X93158242Y-31563458D01*
X93158239Y-31563459D01*
X93150700Y-31565909D01*
X93016838Y-31650860D01*
X92908307Y-31766433D01*
X92831928Y-31905366D01*
X92792500Y-32058928D01*
X92792500Y-32977676D01*
X92807384Y-33095493D01*
X92865747Y-33242903D01*
X92958937Y-33371167D01*
X92965045Y-33376220D01*
X93074988Y-33467173D01*
X93074992Y-33467176D01*
X93081097Y-33472226D01*
X93224551Y-33539731D01*
X93232334Y-33541216D01*
X93232335Y-33541216D01*
X93372500Y-33567954D01*
X93372502Y-33567954D01*
X93380286Y-33569439D01*
X93459401Y-33564461D01*
X93530605Y-33559982D01*
X93530607Y-33559982D01*
X93538516Y-33559484D01*
X93546052Y-33557035D01*
X93546054Y-33557035D01*
X93681758Y-33512942D01*
X93681761Y-33512941D01*
X93689300Y-33510491D01*
X93823162Y-33425540D01*
X93834652Y-33413305D01*
X93895865Y-33377341D01*
X93966805Y-33380180D01*
X94024948Y-33420922D01*
X94051835Y-33486630D01*
X94052500Y-33499560D01*
X94052500Y-36387889D01*
X94032498Y-36456010D01*
X93978842Y-36502503D01*
X93908568Y-36512607D01*
X93852609Y-36487050D01*
X93851922Y-36488078D01*
X93845579Y-36483839D01*
X93845576Y-36483837D01*
X93809748Y-36459898D01*
X93797578Y-36457477D01*
X93778623Y-36453706D01*
X93778618Y-36453706D01*
X93772558Y-36452500D01*
X92047442Y-36452500D01*
X92041382Y-36453706D01*
X92041377Y-36453706D01*
X92022422Y-36457477D01*
X92010252Y-36459898D01*
X91968078Y-36488078D01*
X91961185Y-36498394D01*
X91956140Y-36505945D01*
X91939898Y-36530252D01*
X91932500Y-36567442D01*
X91932500Y-38292558D01*
X91939898Y-38329748D01*
X91946791Y-38340065D01*
X91946792Y-38340066D01*
X91958439Y-38357497D01*
X91968078Y-38371922D01*
X92010252Y-38400102D01*
X92022422Y-38402523D01*
X92041377Y-38406294D01*
X92041382Y-38406294D01*
X92047442Y-38407500D01*
X93772558Y-38407500D01*
X93778618Y-38406294D01*
X93778623Y-38406294D01*
X93797578Y-38402523D01*
X93809748Y-38400102D01*
X93844492Y-38376887D01*
X93851922Y-38371922D01*
X93853472Y-38374242D01*
X93899717Y-38348990D01*
X93970532Y-38354055D01*
X94027368Y-38396602D01*
X94052179Y-38463122D01*
X94052500Y-38472111D01*
X94052500Y-38927889D01*
X94032498Y-38996010D01*
X93978842Y-39042503D01*
X93908568Y-39052607D01*
X93852609Y-39027050D01*
X93851922Y-39028078D01*
X93845579Y-39023839D01*
X93845576Y-39023837D01*
X93809748Y-38999898D01*
X93797578Y-38997477D01*
X93778623Y-38993706D01*
X93778618Y-38993706D01*
X93772558Y-38992500D01*
X92047442Y-38992500D01*
X92041382Y-38993706D01*
X92041377Y-38993706D01*
X92022422Y-38997477D01*
X92010252Y-38999898D01*
X91968078Y-39028078D01*
X91961185Y-39038394D01*
X91956140Y-39045945D01*
X91939898Y-39070252D01*
X91932500Y-39107442D01*
X91932500Y-40832558D01*
X91939898Y-40869748D01*
X91968078Y-40911922D01*
X91978394Y-40918815D01*
X91978395Y-40918816D01*
X91996623Y-40930996D01*
X92042150Y-40985473D01*
X92050997Y-41055916D01*
X92020355Y-41119960D01*
X91955762Y-41158344D01*
X91942392Y-41161523D01*
X91821946Y-41206676D01*
X91806351Y-41215214D01*
X91704276Y-41291715D01*
X91691715Y-41304276D01*
X91615214Y-41406351D01*
X91606676Y-41421946D01*
X91561522Y-41542394D01*
X91557895Y-41557649D01*
X91552369Y-41608514D01*
X91552000Y-41615328D01*
X91552000Y-42237885D01*
X91556475Y-42253124D01*
X91557865Y-42254329D01*
X91565548Y-42256000D01*
X93038000Y-42256000D01*
X93106121Y-42276002D01*
X93152614Y-42329658D01*
X93164000Y-42382000D01*
X93164000Y-42638000D01*
X93143998Y-42706121D01*
X93090342Y-42752614D01*
X93038000Y-42764000D01*
X91570116Y-42764000D01*
X91554877Y-42768475D01*
X91553672Y-42769865D01*
X91552001Y-42777548D01*
X91552001Y-43404669D01*
X91552371Y-43411490D01*
X91557895Y-43462352D01*
X91561521Y-43477604D01*
X91606676Y-43598054D01*
X91615214Y-43613649D01*
X91691715Y-43715724D01*
X91704276Y-43728285D01*
X91806351Y-43804786D01*
X91821946Y-43813324D01*
X91942399Y-43858480D01*
X91955768Y-43861659D01*
X92017414Y-43896877D01*
X92050233Y-43959832D01*
X92043806Y-44030538D01*
X91996623Y-44089005D01*
X91968078Y-44108078D01*
X91939898Y-44150252D01*
X91932500Y-44187442D01*
X91932500Y-45912558D01*
X91939898Y-45949748D01*
X91946791Y-45960065D01*
X91946792Y-45960066D01*
X91958439Y-45977497D01*
X91968078Y-45991922D01*
X92010252Y-46020102D01*
X92022422Y-46022523D01*
X92041377Y-46026294D01*
X92041382Y-46026294D01*
X92047442Y-46027500D01*
X93772558Y-46027500D01*
X93778618Y-46026294D01*
X93778623Y-46026294D01*
X93797578Y-46022523D01*
X93809748Y-46020102D01*
X93844492Y-45996887D01*
X93851922Y-45991922D01*
X93853472Y-45994242D01*
X93899717Y-45968990D01*
X93970532Y-45974055D01*
X94027368Y-46016602D01*
X94052179Y-46083122D01*
X94052500Y-46092111D01*
X94052500Y-46547889D01*
X94032498Y-46616010D01*
X93978842Y-46662503D01*
X93908568Y-46672607D01*
X93852609Y-46647050D01*
X93851922Y-46648078D01*
X93845579Y-46643839D01*
X93845576Y-46643837D01*
X93809748Y-46619898D01*
X93797578Y-46617477D01*
X93778623Y-46613706D01*
X93778618Y-46613706D01*
X93772558Y-46612500D01*
X92047442Y-46612500D01*
X92041382Y-46613706D01*
X92041377Y-46613706D01*
X92022422Y-46617477D01*
X92010252Y-46619898D01*
X91968078Y-46648078D01*
X91961185Y-46658394D01*
X91956140Y-46665945D01*
X91939898Y-46690252D01*
X91932500Y-46727442D01*
X91932500Y-48452558D01*
X91939898Y-48489748D01*
X91946791Y-48500065D01*
X91946792Y-48500066D01*
X91958439Y-48517497D01*
X91968078Y-48531922D01*
X92010252Y-48560102D01*
X92022422Y-48562523D01*
X92041377Y-48566294D01*
X92041382Y-48566294D01*
X92047442Y-48567500D01*
X93772558Y-48567500D01*
X93778618Y-48566294D01*
X93778623Y-48566294D01*
X93797578Y-48562523D01*
X93809748Y-48560102D01*
X93844492Y-48536887D01*
X93851922Y-48531922D01*
X93853472Y-48534242D01*
X93899717Y-48508990D01*
X93970532Y-48514055D01*
X94027368Y-48556602D01*
X94052179Y-48623122D01*
X94052500Y-48632111D01*
X94052500Y-54167889D01*
X94032498Y-54236010D01*
X93978842Y-54282503D01*
X93908568Y-54292607D01*
X93852609Y-54267050D01*
X93851922Y-54268078D01*
X93845579Y-54263839D01*
X93845576Y-54263837D01*
X93809748Y-54239898D01*
X93797578Y-54237477D01*
X93778623Y-54233706D01*
X93778618Y-54233706D01*
X93772558Y-54232500D01*
X92047442Y-54232500D01*
X92041382Y-54233706D01*
X92041377Y-54233706D01*
X92022422Y-54237477D01*
X92010252Y-54239898D01*
X91968078Y-54268078D01*
X91961185Y-54278394D01*
X91956140Y-54285945D01*
X91939898Y-54310252D01*
X91932500Y-54347442D01*
X91932500Y-56072558D01*
X91939898Y-56109748D01*
X91946791Y-56120065D01*
X91946792Y-56120066D01*
X91958439Y-56137497D01*
X91968078Y-56151922D01*
X92010252Y-56180102D01*
X92022422Y-56182523D01*
X92041377Y-56186294D01*
X92041382Y-56186294D01*
X92047442Y-56187500D01*
X93772558Y-56187500D01*
X93778618Y-56186294D01*
X93778623Y-56186294D01*
X93797578Y-56182523D01*
X93809748Y-56180102D01*
X93844492Y-56156887D01*
X93851922Y-56151922D01*
X93853472Y-56154242D01*
X93899717Y-56128990D01*
X93970532Y-56134055D01*
X94027368Y-56176602D01*
X94052179Y-56243122D01*
X94052500Y-56252111D01*
X94052500Y-69407889D01*
X94032498Y-69476010D01*
X93978842Y-69522503D01*
X93908568Y-69532607D01*
X93852609Y-69507050D01*
X93851922Y-69508078D01*
X93845579Y-69503839D01*
X93845576Y-69503837D01*
X93809748Y-69479898D01*
X93797578Y-69477477D01*
X93778623Y-69473706D01*
X93778618Y-69473706D01*
X93772558Y-69472500D01*
X92047442Y-69472500D01*
X92041382Y-69473706D01*
X92041377Y-69473706D01*
X92022422Y-69477477D01*
X92010252Y-69479898D01*
X91968078Y-69508078D01*
X91961185Y-69518394D01*
X91956140Y-69525945D01*
X91939898Y-69550252D01*
X91932500Y-69587442D01*
X91932500Y-71312558D01*
X91939898Y-71349748D01*
X91946791Y-71360065D01*
X91946792Y-71360066D01*
X91958439Y-71377497D01*
X91968078Y-71391922D01*
X92010252Y-71420102D01*
X92022422Y-71422523D01*
X92041377Y-71426294D01*
X92041382Y-71426294D01*
X92047442Y-71427500D01*
X93772558Y-71427500D01*
X93778618Y-71426294D01*
X93778623Y-71426294D01*
X93797578Y-71422523D01*
X93809748Y-71420102D01*
X93844492Y-71396887D01*
X93851922Y-71391922D01*
X93853472Y-71394242D01*
X93899717Y-71368990D01*
X93970532Y-71374055D01*
X94027368Y-71416602D01*
X94052179Y-71483122D01*
X94052500Y-71492111D01*
X94052500Y-73281260D01*
X94032498Y-73349381D01*
X93978842Y-73395874D01*
X93908568Y-73405978D01*
X93869296Y-73393526D01*
X93793344Y-73354826D01*
X93793343Y-73354826D01*
X93784508Y-73350324D01*
X93666400Y-73331618D01*
X93548292Y-73350324D01*
X93501043Y-73374399D01*
X93450578Y-73400112D01*
X93450577Y-73400113D01*
X93441745Y-73404613D01*
X93405495Y-73440863D01*
X93343183Y-73474889D01*
X93272368Y-73469824D01*
X93227305Y-73440863D01*
X93191055Y-73404613D01*
X93182223Y-73400113D01*
X93182222Y-73400112D01*
X93131757Y-73374399D01*
X93084508Y-73350324D01*
X92966400Y-73331618D01*
X92848292Y-73350324D01*
X92801043Y-73374399D01*
X92750578Y-73400112D01*
X92750577Y-73400113D01*
X92741745Y-73404613D01*
X92657189Y-73489169D01*
X92602900Y-73595716D01*
X92589288Y-73681666D01*
X92588824Y-73684593D01*
X92558412Y-73748746D01*
X92498144Y-73786273D01*
X92427155Y-73785260D01*
X92407172Y-73777150D01*
X92351142Y-73748601D01*
X92351141Y-73748601D01*
X92342308Y-73744100D01*
X92224200Y-73725394D01*
X92224806Y-73721568D01*
X92174997Y-73706943D01*
X92128504Y-73653287D01*
X92118669Y-73581235D01*
X92122255Y-73558593D01*
X92123806Y-73548800D01*
X92105100Y-73430692D01*
X92066444Y-73354826D01*
X92055312Y-73332978D01*
X92055311Y-73332977D01*
X92050811Y-73324145D01*
X91966255Y-73239589D01*
X91957423Y-73235089D01*
X91957422Y-73235088D01*
X91912981Y-73212444D01*
X91859708Y-73185300D01*
X91741600Y-73166594D01*
X91736571Y-73167390D01*
X91671020Y-73148143D01*
X91624527Y-73094487D01*
X91616422Y-73035110D01*
X91614255Y-73035110D01*
X91614255Y-73025193D01*
X91615806Y-73015400D01*
X91597100Y-72897292D01*
X91542811Y-72790745D01*
X91458255Y-72706189D01*
X91449423Y-72701689D01*
X91449422Y-72701688D01*
X91404981Y-72679044D01*
X91351708Y-72651900D01*
X91233600Y-72633194D01*
X91115492Y-72651900D01*
X91062219Y-72679044D01*
X91017778Y-72701688D01*
X91017777Y-72701689D01*
X91008945Y-72706189D01*
X90924389Y-72790745D01*
X90870100Y-72897292D01*
X90851394Y-73015400D01*
X90870100Y-73133508D01*
X90924389Y-73240055D01*
X91008945Y-73324611D01*
X91017777Y-73329111D01*
X91017778Y-73329112D01*
X91042454Y-73341685D01*
X91115492Y-73378900D01*
X91125285Y-73380451D01*
X91223807Y-73396055D01*
X91233600Y-73397606D01*
X91238629Y-73396810D01*
X91304180Y-73416057D01*
X91350673Y-73469713D01*
X91358778Y-73529090D01*
X91360945Y-73529090D01*
X91360945Y-73539007D01*
X91359394Y-73548800D01*
X91378100Y-73666908D01*
X91382601Y-73675741D01*
X91427425Y-73763712D01*
X91432389Y-73773455D01*
X91516945Y-73858011D01*
X91525777Y-73862511D01*
X91525778Y-73862512D01*
X91565880Y-73882945D01*
X91623492Y-73912300D01*
X91633285Y-73913851D01*
X91741600Y-73931006D01*
X91740994Y-73934832D01*
X91790803Y-73949457D01*
X91837296Y-74003113D01*
X91847131Y-74075165D01*
X91841994Y-74107600D01*
X91860700Y-74225708D01*
X91914989Y-74332255D01*
X91999545Y-74416811D01*
X92024270Y-74429409D01*
X92075885Y-74478155D01*
X92092952Y-74547070D01*
X92070053Y-74614272D01*
X92056163Y-74630771D01*
X92016589Y-74670345D01*
X92012089Y-74679177D01*
X92012088Y-74679178D01*
X91999107Y-74704655D01*
X91962300Y-74776892D01*
X91943594Y-74895000D01*
X91962300Y-75013108D01*
X92016589Y-75119655D01*
X92101145Y-75204211D01*
X92109977Y-75208711D01*
X92109978Y-75208712D01*
X92154418Y-75231355D01*
X92207692Y-75258500D01*
X92217485Y-75260051D01*
X92275788Y-75269285D01*
X92325800Y-75277206D01*
X92375813Y-75269285D01*
X92434115Y-75260051D01*
X92443908Y-75258500D01*
X92497182Y-75231355D01*
X92541622Y-75208712D01*
X92541623Y-75208711D01*
X92550455Y-75204211D01*
X92635011Y-75119655D01*
X92689300Y-75013108D01*
X92708006Y-74895000D01*
X92689300Y-74776892D01*
X92652493Y-74704655D01*
X92639512Y-74679178D01*
X92639511Y-74679177D01*
X92635011Y-74670345D01*
X92550455Y-74585789D01*
X92525730Y-74573191D01*
X92474115Y-74524445D01*
X92457048Y-74455530D01*
X92479947Y-74388328D01*
X92493837Y-74371829D01*
X92533411Y-74332255D01*
X92587700Y-74225708D01*
X92601777Y-74136830D01*
X92632188Y-74072678D01*
X92692456Y-74035151D01*
X92763445Y-74036164D01*
X92783428Y-74044274D01*
X92839456Y-74072822D01*
X92848292Y-74077324D01*
X92966400Y-74096030D01*
X93084508Y-74077324D01*
X93149372Y-74044274D01*
X93182222Y-74027536D01*
X93182223Y-74027535D01*
X93191055Y-74023035D01*
X93227305Y-73986785D01*
X93289617Y-73952759D01*
X93360432Y-73957824D01*
X93405495Y-73986785D01*
X93441745Y-74023035D01*
X93450577Y-74027535D01*
X93450578Y-74027536D01*
X93483428Y-74044274D01*
X93548292Y-74077324D01*
X93666400Y-74096030D01*
X93784508Y-74077324D01*
X93793627Y-74072678D01*
X93869296Y-74034122D01*
X93939073Y-74021017D01*
X94004858Y-74047717D01*
X94045765Y-74105744D01*
X94052500Y-74146388D01*
X94052500Y-79339644D01*
X94032498Y-79407765D01*
X93978842Y-79454258D01*
X93908568Y-79464362D01*
X93843988Y-79434868D01*
X93837405Y-79428739D01*
X93795055Y-79386389D01*
X93786223Y-79381889D01*
X93786222Y-79381888D01*
X93741781Y-79359244D01*
X93688508Y-79332100D01*
X93570400Y-79313394D01*
X93452292Y-79332100D01*
X93399019Y-79359244D01*
X93354578Y-79381888D01*
X93354577Y-79381889D01*
X93345745Y-79386389D01*
X93261189Y-79470945D01*
X93206900Y-79577492D01*
X93188194Y-79695600D01*
X93206900Y-79813708D01*
X93261189Y-79920255D01*
X93345745Y-80004811D01*
X93354577Y-80009311D01*
X93354578Y-80009312D01*
X93383754Y-80024178D01*
X93452292Y-80059100D01*
X93570400Y-80077806D01*
X93688508Y-80059100D01*
X93757046Y-80024178D01*
X93786222Y-80009312D01*
X93786223Y-80009311D01*
X93795055Y-80004811D01*
X93837405Y-79962461D01*
X93899717Y-79928435D01*
X93970532Y-79933500D01*
X94027368Y-79976047D01*
X94052179Y-80042567D01*
X94052500Y-80051556D01*
X94052500Y-84647889D01*
X94032498Y-84716010D01*
X93978842Y-84762503D01*
X93908568Y-84772607D01*
X93852609Y-84747050D01*
X93851922Y-84748078D01*
X93845579Y-84743839D01*
X93845576Y-84743837D01*
X93809748Y-84719898D01*
X93797578Y-84717477D01*
X93778623Y-84713706D01*
X93778618Y-84713706D01*
X93772558Y-84712500D01*
X92047442Y-84712500D01*
X92041382Y-84713706D01*
X92041377Y-84713706D01*
X92022422Y-84717477D01*
X92010252Y-84719898D01*
X91968078Y-84748078D01*
X91939898Y-84790252D01*
X91932500Y-84827442D01*
X91932500Y-86552558D01*
X91939898Y-86589748D01*
X91946791Y-86600065D01*
X91946792Y-86600066D01*
X91958439Y-86617497D01*
X91968078Y-86631922D01*
X92010252Y-86660102D01*
X92022422Y-86662523D01*
X92041377Y-86666294D01*
X92041382Y-86666294D01*
X92047442Y-86667500D01*
X93772558Y-86667500D01*
X93778618Y-86666294D01*
X93778623Y-86666294D01*
X93797578Y-86662523D01*
X93809748Y-86660102D01*
X93844492Y-86636887D01*
X93851922Y-86631922D01*
X93853472Y-86634242D01*
X93899717Y-86608990D01*
X93970532Y-86614055D01*
X94027368Y-86656602D01*
X94052179Y-86723122D01*
X94052500Y-86732111D01*
X94052500Y-99887889D01*
X94032498Y-99956010D01*
X93978842Y-100002503D01*
X93908568Y-100012607D01*
X93852609Y-99987050D01*
X93851922Y-99988078D01*
X93845579Y-99983839D01*
X93845576Y-99983837D01*
X93809748Y-99959898D01*
X93797578Y-99957477D01*
X93778623Y-99953706D01*
X93778618Y-99953706D01*
X93772558Y-99952500D01*
X92047442Y-99952500D01*
X92041382Y-99953706D01*
X92041377Y-99953706D01*
X92022422Y-99957477D01*
X92010252Y-99959898D01*
X91968078Y-99988078D01*
X91961185Y-99998394D01*
X91956140Y-100005945D01*
X91939898Y-100030252D01*
X91932500Y-100067442D01*
X91932500Y-101792558D01*
X91939898Y-101829748D01*
X91946791Y-101840065D01*
X91946792Y-101840066D01*
X91958439Y-101857497D01*
X91968078Y-101871922D01*
X92010252Y-101900102D01*
X92022422Y-101902523D01*
X92041377Y-101906294D01*
X92041382Y-101906294D01*
X92047442Y-101907500D01*
X93772558Y-101907500D01*
X93778618Y-101906294D01*
X93778623Y-101906294D01*
X93797578Y-101902523D01*
X93809748Y-101900102D01*
X93844492Y-101876887D01*
X93851922Y-101871922D01*
X93853472Y-101874242D01*
X93899717Y-101848990D01*
X93970532Y-101854055D01*
X94027368Y-101896602D01*
X94052179Y-101963122D01*
X94052500Y-101972111D01*
X94052500Y-105746729D01*
X94032498Y-105814850D01*
X93978651Y-105861430D01*
X93871180Y-105910294D01*
X93767996Y-105999204D01*
X93693913Y-106113499D01*
X93654887Y-106243994D01*
X93654055Y-106380196D01*
X93691484Y-106511158D01*
X93696274Y-106518749D01*
X93696275Y-106518752D01*
X93727165Y-106567710D01*
X93746599Y-106635995D01*
X93726335Y-106703477D01*
X93705454Y-106735693D01*
X93693913Y-106753499D01*
X93691342Y-106762096D01*
X93691341Y-106762098D01*
X93668335Y-106839027D01*
X93654887Y-106883994D01*
X93654055Y-107020196D01*
X93656522Y-107028828D01*
X93667434Y-107067007D01*
X93691484Y-107151158D01*
X93696274Y-107158749D01*
X93696275Y-107158752D01*
X93727165Y-107207710D01*
X93746599Y-107275995D01*
X93726335Y-107343477D01*
X93698796Y-107385965D01*
X93693913Y-107393499D01*
X93691342Y-107402096D01*
X93691341Y-107402098D01*
X93679453Y-107441851D01*
X93654887Y-107523994D01*
X93654055Y-107660196D01*
X93691484Y-107791158D01*
X93696274Y-107798749D01*
X93696275Y-107798752D01*
X93727165Y-107847710D01*
X93746599Y-107915995D01*
X93726335Y-107983477D01*
X93698796Y-108025965D01*
X93693913Y-108033499D01*
X93654887Y-108163994D01*
X93654055Y-108300196D01*
X93691484Y-108431158D01*
X93696274Y-108438749D01*
X93696275Y-108438752D01*
X93727165Y-108487710D01*
X93746599Y-108555995D01*
X93726335Y-108623477D01*
X93698796Y-108665965D01*
X93693913Y-108673499D01*
X93654887Y-108803994D01*
X93654055Y-108940196D01*
X93691484Y-109071158D01*
X93696274Y-109078749D01*
X93696275Y-109078752D01*
X93727165Y-109127710D01*
X93746599Y-109195995D01*
X93726335Y-109263477D01*
X93698796Y-109305965D01*
X93693913Y-109313499D01*
X93654887Y-109443994D01*
X93654055Y-109580196D01*
X93691484Y-109711158D01*
X93764165Y-109826350D01*
X93866255Y-109916513D01*
X93874378Y-109920327D01*
X93874380Y-109920328D01*
X93980049Y-109969939D01*
X94033211Y-110016995D01*
X94052500Y-110083994D01*
X94052500Y-115127889D01*
X94032498Y-115196010D01*
X93978842Y-115242503D01*
X93908568Y-115252607D01*
X93852609Y-115227050D01*
X93851922Y-115228078D01*
X93845579Y-115223839D01*
X93845576Y-115223837D01*
X93809748Y-115199898D01*
X93797578Y-115197477D01*
X93778623Y-115193706D01*
X93778618Y-115193706D01*
X93772558Y-115192500D01*
X92047442Y-115192500D01*
X92041382Y-115193706D01*
X92041377Y-115193706D01*
X92022422Y-115197477D01*
X92010252Y-115199898D01*
X91968078Y-115228078D01*
X91961185Y-115238394D01*
X91956140Y-115245945D01*
X91939898Y-115270252D01*
X91932500Y-115307442D01*
X91932500Y-117032558D01*
X91939898Y-117069748D01*
X91946791Y-117080065D01*
X91946792Y-117080066D01*
X91958439Y-117097497D01*
X91968078Y-117111922D01*
X92010252Y-117140102D01*
X92022422Y-117142523D01*
X92041377Y-117146294D01*
X92041382Y-117146294D01*
X92047442Y-117147500D01*
X93772558Y-117147500D01*
X93778618Y-117146294D01*
X93778623Y-117146294D01*
X93797578Y-117142523D01*
X93809748Y-117140102D01*
X93844492Y-117116887D01*
X93851922Y-117111922D01*
X93853472Y-117114242D01*
X93899717Y-117088990D01*
X93970532Y-117094055D01*
X94027368Y-117136602D01*
X94052179Y-117203122D01*
X94052500Y-117212111D01*
X94052500Y-130367889D01*
X94032498Y-130436010D01*
X93978842Y-130482503D01*
X93908568Y-130492607D01*
X93852609Y-130467050D01*
X93851922Y-130468078D01*
X93845579Y-130463839D01*
X93845576Y-130463837D01*
X93809748Y-130439898D01*
X93797578Y-130437477D01*
X93778623Y-130433706D01*
X93778618Y-130433706D01*
X93772558Y-130432500D01*
X92047442Y-130432500D01*
X92041382Y-130433706D01*
X92041377Y-130433706D01*
X92022422Y-130437477D01*
X92010252Y-130439898D01*
X91968078Y-130468078D01*
X91961185Y-130478394D01*
X91956140Y-130485945D01*
X91939898Y-130510252D01*
X91932500Y-130547442D01*
X91932500Y-132272558D01*
X91939898Y-132309748D01*
X91946791Y-132320065D01*
X91946792Y-132320066D01*
X91958439Y-132337497D01*
X91968078Y-132351922D01*
X92010252Y-132380102D01*
X92022422Y-132382523D01*
X92041377Y-132386294D01*
X92041382Y-132386294D01*
X92047442Y-132387500D01*
X93772558Y-132387500D01*
X93778618Y-132386294D01*
X93778623Y-132386294D01*
X93797578Y-132382523D01*
X93809748Y-132380102D01*
X93844492Y-132356887D01*
X93851922Y-132351922D01*
X93853472Y-132354242D01*
X93899717Y-132328990D01*
X93970532Y-132334055D01*
X94027368Y-132376602D01*
X94052179Y-132443122D01*
X94052500Y-132452111D01*
X94052500Y-145607889D01*
X94032498Y-145676010D01*
X93978842Y-145722503D01*
X93908568Y-145732607D01*
X93852609Y-145707050D01*
X93851922Y-145708078D01*
X93845579Y-145703839D01*
X93845576Y-145703837D01*
X93809748Y-145679898D01*
X93797578Y-145677477D01*
X93778623Y-145673706D01*
X93778618Y-145673706D01*
X93772558Y-145672500D01*
X92047442Y-145672500D01*
X92041382Y-145673706D01*
X92041377Y-145673706D01*
X92022422Y-145677477D01*
X92010252Y-145679898D01*
X91968078Y-145708078D01*
X91961185Y-145718394D01*
X91956140Y-145725945D01*
X91939898Y-145750252D01*
X91932500Y-145787442D01*
X91932500Y-147512558D01*
X91939898Y-147549748D01*
X91946791Y-147560065D01*
X91946792Y-147560066D01*
X91958439Y-147577497D01*
X91968078Y-147591922D01*
X92010252Y-147620102D01*
X92022422Y-147622523D01*
X92041377Y-147626294D01*
X92041382Y-147626294D01*
X92047442Y-147627500D01*
X93772558Y-147627500D01*
X93778618Y-147626294D01*
X93778623Y-147626294D01*
X93797578Y-147622523D01*
X93809748Y-147620102D01*
X93844492Y-147596887D01*
X93851922Y-147591922D01*
X93853472Y-147594242D01*
X93899717Y-147568990D01*
X93970532Y-147574055D01*
X94027368Y-147616602D01*
X94052179Y-147683122D01*
X94052500Y-147692111D01*
X94052500Y-160847889D01*
X94032498Y-160916010D01*
X93978842Y-160962503D01*
X93908568Y-160972607D01*
X93852609Y-160947050D01*
X93851922Y-160948078D01*
X93845579Y-160943839D01*
X93845576Y-160943837D01*
X93809748Y-160919898D01*
X93797578Y-160917477D01*
X93778623Y-160913706D01*
X93778618Y-160913706D01*
X93772558Y-160912500D01*
X92047442Y-160912500D01*
X92041382Y-160913706D01*
X92041377Y-160913706D01*
X92022422Y-160917477D01*
X92010252Y-160919898D01*
X91968078Y-160948078D01*
X91961185Y-160958394D01*
X91956140Y-160965945D01*
X91939898Y-160990252D01*
X91932500Y-161027442D01*
X91932500Y-162752558D01*
X91939898Y-162789748D01*
X91946791Y-162800065D01*
X91946792Y-162800066D01*
X91958439Y-162817497D01*
X91968078Y-162831922D01*
X92010252Y-162860102D01*
X92022422Y-162862523D01*
X92041377Y-162866294D01*
X92041382Y-162866294D01*
X92047442Y-162867500D01*
X93772558Y-162867500D01*
X93778618Y-162866294D01*
X93778623Y-162866294D01*
X93797578Y-162862523D01*
X93809748Y-162860102D01*
X93844492Y-162836887D01*
X93851922Y-162831922D01*
X93853472Y-162834242D01*
X93899717Y-162808990D01*
X93970532Y-162814055D01*
X94027368Y-162856602D01*
X94052179Y-162923122D01*
X94052500Y-162932111D01*
X94052500Y-176087889D01*
X94032498Y-176156010D01*
X93978842Y-176202503D01*
X93908568Y-176212607D01*
X93852609Y-176187050D01*
X93851922Y-176188078D01*
X93845579Y-176183839D01*
X93845576Y-176183837D01*
X93809748Y-176159898D01*
X93797578Y-176157477D01*
X93778623Y-176153706D01*
X93778618Y-176153706D01*
X93772558Y-176152500D01*
X92047442Y-176152500D01*
X92041382Y-176153706D01*
X92041377Y-176153706D01*
X92022422Y-176157477D01*
X92010252Y-176159898D01*
X91968078Y-176188078D01*
X91961185Y-176198394D01*
X91956140Y-176205945D01*
X91939898Y-176230252D01*
X91932500Y-176267442D01*
X91932500Y-177992558D01*
X91939898Y-178029748D01*
X91946791Y-178040065D01*
X91946792Y-178040066D01*
X91958439Y-178057497D01*
X91968078Y-178071922D01*
X92010252Y-178100102D01*
X92022422Y-178102523D01*
X92041377Y-178106294D01*
X92041382Y-178106294D01*
X92047442Y-178107500D01*
X93772558Y-178107500D01*
X93778618Y-178106294D01*
X93778623Y-178106294D01*
X93797578Y-178102523D01*
X93809748Y-178100102D01*
X93844492Y-178076887D01*
X93851922Y-178071922D01*
X93853472Y-178074242D01*
X93899717Y-178048990D01*
X93970532Y-178054055D01*
X94027368Y-178096602D01*
X94052179Y-178163122D01*
X94052500Y-178172111D01*
X94052500Y-183285288D01*
X94032498Y-183353409D01*
X93978842Y-183399902D01*
X93908568Y-183410006D01*
X93882272Y-183403271D01*
X93877605Y-183401521D01*
X93862351Y-183397895D01*
X93811486Y-183392369D01*
X93804672Y-183392000D01*
X93182115Y-183392000D01*
X93166876Y-183396475D01*
X93165671Y-183397865D01*
X93164000Y-183405548D01*
X93164000Y-184878000D01*
X93143998Y-184946121D01*
X93090342Y-184992614D01*
X93038000Y-185004000D01*
X91570116Y-185004000D01*
X91554877Y-185008475D01*
X91553672Y-185009865D01*
X91552001Y-185017548D01*
X91552001Y-185644669D01*
X91552371Y-185651490D01*
X91557895Y-185702352D01*
X91561521Y-185717604D01*
X91606676Y-185838054D01*
X91615214Y-185853649D01*
X91691715Y-185955724D01*
X91704276Y-185968285D01*
X91806351Y-186044786D01*
X91821946Y-186053324D01*
X91942399Y-186098480D01*
X91955768Y-186101659D01*
X92017414Y-186136877D01*
X92050233Y-186199832D01*
X92043806Y-186270538D01*
X91996623Y-186329005D01*
X91968078Y-186348078D01*
X91939898Y-186390252D01*
X91932500Y-186427442D01*
X91932500Y-188152558D01*
X91939898Y-188189748D01*
X91946791Y-188200065D01*
X91946792Y-188200066D01*
X91958439Y-188217497D01*
X91968078Y-188231922D01*
X92010252Y-188260102D01*
X92022422Y-188262523D01*
X92041377Y-188266294D01*
X92041382Y-188266294D01*
X92047442Y-188267500D01*
X93772558Y-188267500D01*
X93778618Y-188266294D01*
X93778623Y-188266294D01*
X93797578Y-188262523D01*
X93809748Y-188260102D01*
X93844492Y-188236887D01*
X93851922Y-188231922D01*
X93853472Y-188234242D01*
X93899717Y-188208990D01*
X93970532Y-188214055D01*
X94027368Y-188256602D01*
X94052179Y-188323122D01*
X94052500Y-188332111D01*
X94052500Y-189576500D01*
X94032498Y-189644621D01*
X93978842Y-189691114D01*
X93926500Y-189702500D01*
X91267463Y-189702500D01*
X91199342Y-189682498D01*
X91152849Y-189628842D01*
X91146314Y-189611127D01*
X91140982Y-189592471D01*
X91138516Y-189583842D01*
X91065835Y-189468650D01*
X91019909Y-189428089D01*
X90970473Y-189384429D01*
X90963745Y-189378487D01*
X90955622Y-189374673D01*
X90955620Y-189374672D01*
X90896393Y-189346865D01*
X90840452Y-189320601D01*
X90831588Y-189319221D01*
X90831585Y-189319220D01*
X90768103Y-189309336D01*
X90737044Y-189304500D01*
X90665855Y-189304500D01*
X90626411Y-189310149D01*
X90574057Y-189317646D01*
X90574054Y-189317647D01*
X90565171Y-189318919D01*
X90557003Y-189322633D01*
X90557002Y-189322633D01*
X90449347Y-189371580D01*
X90449343Y-189371582D01*
X90441180Y-189375294D01*
X90440832Y-189374528D01*
X90379839Y-189392289D01*
X90324995Y-189375825D01*
X90323745Y-189378487D01*
X90200452Y-189320601D01*
X90191588Y-189319221D01*
X90191585Y-189319220D01*
X90128103Y-189309336D01*
X90097044Y-189304500D01*
X90025855Y-189304500D01*
X89986411Y-189310149D01*
X89934057Y-189317646D01*
X89934054Y-189317647D01*
X89925171Y-189318919D01*
X89917003Y-189322633D01*
X89917002Y-189322633D01*
X89809347Y-189371580D01*
X89809343Y-189371582D01*
X89801180Y-189375294D01*
X89800832Y-189374528D01*
X89739839Y-189392289D01*
X89684995Y-189375825D01*
X89683745Y-189378487D01*
X89560452Y-189320601D01*
X89551588Y-189319221D01*
X89551585Y-189319220D01*
X89488103Y-189309336D01*
X89457044Y-189304500D01*
X89385855Y-189304500D01*
X89346411Y-189310149D01*
X89294057Y-189317646D01*
X89294054Y-189317647D01*
X89285171Y-189318919D01*
X89277003Y-189322633D01*
X89277002Y-189322633D01*
X89169347Y-189371580D01*
X89169343Y-189371582D01*
X89161180Y-189375294D01*
X89160832Y-189374528D01*
X89099839Y-189392289D01*
X89044995Y-189375825D01*
X89043745Y-189378487D01*
X88920452Y-189320601D01*
X88911588Y-189319221D01*
X88911585Y-189319220D01*
X88848103Y-189309336D01*
X88817044Y-189304500D01*
X88745855Y-189304500D01*
X88706411Y-189310149D01*
X88654057Y-189317646D01*
X88654054Y-189317647D01*
X88645171Y-189318919D01*
X88637003Y-189322633D01*
X88637002Y-189322633D01*
X88529347Y-189371580D01*
X88529343Y-189371582D01*
X88521180Y-189375294D01*
X88520832Y-189374528D01*
X88459839Y-189392289D01*
X88404995Y-189375825D01*
X88403745Y-189378487D01*
X88280452Y-189320601D01*
X88271588Y-189319221D01*
X88271585Y-189319220D01*
X88208103Y-189309336D01*
X88177044Y-189304500D01*
X88105855Y-189304500D01*
X88066411Y-189310149D01*
X88014057Y-189317646D01*
X88014054Y-189317647D01*
X88005171Y-189318919D01*
X87997003Y-189322633D01*
X87997002Y-189322633D01*
X87889347Y-189371580D01*
X87889343Y-189371582D01*
X87881180Y-189375294D01*
X87880832Y-189374528D01*
X87819839Y-189392289D01*
X87764995Y-189375825D01*
X87763745Y-189378487D01*
X87640452Y-189320601D01*
X87631588Y-189319221D01*
X87631585Y-189319220D01*
X87568103Y-189309336D01*
X87537044Y-189304500D01*
X87465855Y-189304500D01*
X87426411Y-189310149D01*
X87374057Y-189317646D01*
X87374054Y-189317647D01*
X87365171Y-189318919D01*
X87241180Y-189375294D01*
X87137996Y-189464204D01*
X87063913Y-189578499D01*
X87061342Y-189587096D01*
X87061341Y-189587098D01*
X87053714Y-189612602D01*
X87015032Y-189672136D01*
X86950305Y-189701306D01*
X86932997Y-189702500D01*
X84273500Y-189702500D01*
X84205379Y-189682498D01*
X84158886Y-189628842D01*
X84147500Y-189576500D01*
X84147500Y-188332111D01*
X84167502Y-188263990D01*
X84221158Y-188217497D01*
X84291432Y-188207393D01*
X84347391Y-188232950D01*
X84348078Y-188231922D01*
X84354421Y-188236161D01*
X84354424Y-188236163D01*
X84390252Y-188260102D01*
X84402422Y-188262523D01*
X84421377Y-188266294D01*
X84421382Y-188266294D01*
X84427442Y-188267500D01*
X86152558Y-188267500D01*
X86158618Y-188266294D01*
X86158623Y-188266294D01*
X86177578Y-188262523D01*
X86189748Y-188260102D01*
X86231922Y-188231922D01*
X86241561Y-188217497D01*
X86253208Y-188200066D01*
X86253209Y-188200065D01*
X86260102Y-188189748D01*
X86267500Y-188152558D01*
X86267500Y-186427442D01*
X86260102Y-186390252D01*
X86231922Y-186348078D01*
X86221606Y-186341185D01*
X86221605Y-186341184D01*
X86203377Y-186329004D01*
X86157850Y-186274527D01*
X86149003Y-186204084D01*
X86179645Y-186140040D01*
X86244238Y-186101656D01*
X86257608Y-186098477D01*
X86378054Y-186053324D01*
X86393649Y-186044786D01*
X86495724Y-185968285D01*
X86508285Y-185955724D01*
X86536258Y-185918400D01*
X88717794Y-185918400D01*
X88736500Y-186036508D01*
X88790789Y-186143055D01*
X88875345Y-186227611D01*
X88884177Y-186232111D01*
X88884178Y-186232112D01*
X88928619Y-186254756D01*
X88981892Y-186281900D01*
X89100000Y-186300606D01*
X89218108Y-186281900D01*
X89271381Y-186254756D01*
X89315822Y-186232112D01*
X89315823Y-186232111D01*
X89324655Y-186227611D01*
X89409211Y-186143055D01*
X89463500Y-186036508D01*
X89482206Y-185918400D01*
X89463500Y-185800292D01*
X89409211Y-185693745D01*
X89324655Y-185609189D01*
X89315823Y-185604689D01*
X89315822Y-185604688D01*
X89271382Y-185582045D01*
X89218108Y-185554900D01*
X89100000Y-185536194D01*
X88981892Y-185554900D01*
X88928618Y-185582045D01*
X88884178Y-185604688D01*
X88884177Y-185604689D01*
X88875345Y-185609189D01*
X88790789Y-185693745D01*
X88736500Y-185800292D01*
X88717794Y-185918400D01*
X86536258Y-185918400D01*
X86584786Y-185853649D01*
X86593324Y-185838054D01*
X86638478Y-185717606D01*
X86642105Y-185702351D01*
X86647631Y-185651486D01*
X86648000Y-185644672D01*
X86648000Y-185022115D01*
X86643525Y-185006876D01*
X86642135Y-185005671D01*
X86634452Y-185004000D01*
X85162000Y-185004000D01*
X85093879Y-184983998D01*
X85047386Y-184930342D01*
X85036000Y-184878000D01*
X85036000Y-184477885D01*
X85544000Y-184477885D01*
X85548475Y-184493124D01*
X85549865Y-184494329D01*
X85557548Y-184496000D01*
X86629884Y-184496000D01*
X86645123Y-184491525D01*
X86646328Y-184490135D01*
X86647999Y-184482452D01*
X86647999Y-184477885D01*
X91552000Y-184477885D01*
X91556475Y-184493124D01*
X91557865Y-184494329D01*
X91565548Y-184496000D01*
X92637885Y-184496000D01*
X92653124Y-184491525D01*
X92654329Y-184490135D01*
X92656000Y-184482452D01*
X92656000Y-183410116D01*
X92651525Y-183394877D01*
X92650135Y-183393672D01*
X92642452Y-183392001D01*
X92015331Y-183392001D01*
X92008510Y-183392371D01*
X91957648Y-183397895D01*
X91942396Y-183401521D01*
X91821946Y-183446676D01*
X91806351Y-183455214D01*
X91704276Y-183531715D01*
X91691715Y-183544276D01*
X91615214Y-183646351D01*
X91606676Y-183661946D01*
X91561522Y-183782394D01*
X91557895Y-183797649D01*
X91552369Y-183848514D01*
X91552000Y-183855328D01*
X91552000Y-184477885D01*
X86647999Y-184477885D01*
X86647999Y-183855331D01*
X86647629Y-183848510D01*
X86642105Y-183797648D01*
X86638479Y-183782396D01*
X86593324Y-183661946D01*
X86584786Y-183646351D01*
X86508285Y-183544276D01*
X86495724Y-183531715D01*
X86393649Y-183455214D01*
X86378054Y-183446676D01*
X86257606Y-183401522D01*
X86242351Y-183397895D01*
X86191486Y-183392369D01*
X86184672Y-183392000D01*
X85562115Y-183392000D01*
X85546876Y-183396475D01*
X85545671Y-183397865D01*
X85544000Y-183405548D01*
X85544000Y-184477885D01*
X85036000Y-184477885D01*
X85036000Y-183410116D01*
X85031525Y-183394877D01*
X85030135Y-183393672D01*
X85022452Y-183392001D01*
X84395331Y-183392001D01*
X84388510Y-183392371D01*
X84337648Y-183397895D01*
X84322397Y-183401521D01*
X84317728Y-183403271D01*
X84246920Y-183408453D01*
X84184552Y-183374531D01*
X84150424Y-183312275D01*
X84147500Y-183285288D01*
X84147500Y-182159200D01*
X88717794Y-182159200D01*
X88736500Y-182277308D01*
X88790789Y-182383855D01*
X88875345Y-182468411D01*
X88884177Y-182472911D01*
X88884178Y-182472912D01*
X88928618Y-182495555D01*
X88981892Y-182522700D01*
X89100000Y-182541406D01*
X89218108Y-182522700D01*
X89271382Y-182495555D01*
X89315822Y-182472912D01*
X89315823Y-182472911D01*
X89324655Y-182468411D01*
X89409211Y-182383855D01*
X89463500Y-182277308D01*
X89482206Y-182159200D01*
X89463500Y-182041092D01*
X89409211Y-181934545D01*
X89324655Y-181849989D01*
X89315823Y-181845489D01*
X89315822Y-181845488D01*
X89271381Y-181822844D01*
X89218108Y-181795700D01*
X89100000Y-181776994D01*
X88981892Y-181795700D01*
X88928619Y-181822844D01*
X88884178Y-181845488D01*
X88884177Y-181845489D01*
X88875345Y-181849989D01*
X88790789Y-181934545D01*
X88736500Y-182041092D01*
X88717794Y-182159200D01*
X84147500Y-182159200D01*
X84147500Y-178400000D01*
X88717794Y-178400000D01*
X88736500Y-178518108D01*
X88790789Y-178624655D01*
X88875345Y-178709211D01*
X88884177Y-178713711D01*
X88884178Y-178713712D01*
X88928619Y-178736356D01*
X88981892Y-178763500D01*
X89100000Y-178782206D01*
X89218108Y-178763500D01*
X89271381Y-178736356D01*
X89315822Y-178713712D01*
X89315823Y-178713711D01*
X89324655Y-178709211D01*
X89409211Y-178624655D01*
X89463500Y-178518108D01*
X89482206Y-178400000D01*
X89463500Y-178281892D01*
X89409211Y-178175345D01*
X89324655Y-178090789D01*
X89315823Y-178086289D01*
X89315822Y-178086288D01*
X89252561Y-178054055D01*
X89218108Y-178036500D01*
X89100000Y-178017794D01*
X88981892Y-178036500D01*
X88947439Y-178054055D01*
X88884178Y-178086288D01*
X88884177Y-178086289D01*
X88875345Y-178090789D01*
X88790789Y-178175345D01*
X88736500Y-178281892D01*
X88717794Y-178400000D01*
X84147500Y-178400000D01*
X84147500Y-178172111D01*
X84167502Y-178103990D01*
X84221158Y-178057497D01*
X84291432Y-178047393D01*
X84347391Y-178072950D01*
X84348078Y-178071922D01*
X84354421Y-178076161D01*
X84354424Y-178076163D01*
X84390252Y-178100102D01*
X84402422Y-178102523D01*
X84421377Y-178106294D01*
X84421382Y-178106294D01*
X84427442Y-178107500D01*
X86152558Y-178107500D01*
X86158618Y-178106294D01*
X86158623Y-178106294D01*
X86177578Y-178102523D01*
X86189748Y-178100102D01*
X86231922Y-178071922D01*
X86241561Y-178057497D01*
X86253208Y-178040066D01*
X86253209Y-178040065D01*
X86260102Y-178029748D01*
X86267500Y-177992558D01*
X86267500Y-176267442D01*
X86260102Y-176230252D01*
X86243861Y-176205945D01*
X86238815Y-176198394D01*
X86231922Y-176188078D01*
X86189748Y-176159898D01*
X86177578Y-176157477D01*
X86158623Y-176153706D01*
X86158618Y-176153706D01*
X86152558Y-176152500D01*
X84427442Y-176152500D01*
X84421382Y-176153706D01*
X84421377Y-176153706D01*
X84402422Y-176157477D01*
X84390252Y-176159898D01*
X84379935Y-176166791D01*
X84379934Y-176166792D01*
X84354422Y-176183839D01*
X84348078Y-176188078D01*
X84346528Y-176185758D01*
X84300283Y-176211010D01*
X84229468Y-176205945D01*
X84172632Y-176163398D01*
X84147821Y-176096878D01*
X84147500Y-176087889D01*
X84147500Y-174640800D01*
X88717794Y-174640800D01*
X88736500Y-174758908D01*
X88790789Y-174865455D01*
X88875345Y-174950011D01*
X88884177Y-174954511D01*
X88884178Y-174954512D01*
X88928619Y-174977156D01*
X88981892Y-175004300D01*
X89100000Y-175023006D01*
X89218108Y-175004300D01*
X89271381Y-174977156D01*
X89315822Y-174954512D01*
X89315823Y-174954511D01*
X89324655Y-174950011D01*
X89409211Y-174865455D01*
X89463500Y-174758908D01*
X89482206Y-174640800D01*
X89463500Y-174522692D01*
X89409211Y-174416145D01*
X89324655Y-174331589D01*
X89315823Y-174327089D01*
X89315822Y-174327088D01*
X89271382Y-174304445D01*
X89218108Y-174277300D01*
X89100000Y-174258594D01*
X88981892Y-174277300D01*
X88928618Y-174304445D01*
X88884178Y-174327088D01*
X88884177Y-174327089D01*
X88875345Y-174331589D01*
X88790789Y-174416145D01*
X88736500Y-174522692D01*
X88717794Y-174640800D01*
X84147500Y-174640800D01*
X84147500Y-170881600D01*
X88717794Y-170881600D01*
X88736500Y-170999708D01*
X88790789Y-171106255D01*
X88875345Y-171190811D01*
X88884177Y-171195311D01*
X88884178Y-171195312D01*
X88928619Y-171217956D01*
X88981892Y-171245100D01*
X89100000Y-171263806D01*
X89218108Y-171245100D01*
X89271381Y-171217956D01*
X89315822Y-171195312D01*
X89315823Y-171195311D01*
X89324655Y-171190811D01*
X89409211Y-171106255D01*
X89463500Y-170999708D01*
X89482206Y-170881600D01*
X89463500Y-170763492D01*
X89409211Y-170656945D01*
X89324655Y-170572389D01*
X89315823Y-170567889D01*
X89315822Y-170567888D01*
X89271382Y-170545245D01*
X89218108Y-170518100D01*
X89100000Y-170499394D01*
X88981892Y-170518100D01*
X88928618Y-170545245D01*
X88884178Y-170567888D01*
X88884177Y-170567889D01*
X88875345Y-170572389D01*
X88790789Y-170656945D01*
X88736500Y-170763492D01*
X88717794Y-170881600D01*
X84147500Y-170881600D01*
X84147500Y-167122400D01*
X88717794Y-167122400D01*
X88736500Y-167240508D01*
X88790789Y-167347055D01*
X88875345Y-167431611D01*
X88884177Y-167436111D01*
X88884178Y-167436112D01*
X88928619Y-167458756D01*
X88981892Y-167485900D01*
X89100000Y-167504606D01*
X89218108Y-167485900D01*
X89271381Y-167458756D01*
X89315822Y-167436112D01*
X89315823Y-167436111D01*
X89324655Y-167431611D01*
X89409211Y-167347055D01*
X89463500Y-167240508D01*
X89482206Y-167122400D01*
X89463500Y-167004292D01*
X89409211Y-166897745D01*
X89324655Y-166813189D01*
X89315823Y-166808689D01*
X89315822Y-166808688D01*
X89271382Y-166786045D01*
X89218108Y-166758900D01*
X89100000Y-166740194D01*
X88981892Y-166758900D01*
X88928618Y-166786045D01*
X88884178Y-166808688D01*
X88884177Y-166808689D01*
X88875345Y-166813189D01*
X88790789Y-166897745D01*
X88736500Y-167004292D01*
X88717794Y-167122400D01*
X84147500Y-167122400D01*
X84147500Y-163363200D01*
X88717794Y-163363200D01*
X88736500Y-163481308D01*
X88790789Y-163587855D01*
X88875345Y-163672411D01*
X88884177Y-163676911D01*
X88884178Y-163676912D01*
X88928618Y-163699555D01*
X88981892Y-163726700D01*
X89100000Y-163745406D01*
X89218108Y-163726700D01*
X89271382Y-163699555D01*
X89315822Y-163676912D01*
X89315823Y-163676911D01*
X89324655Y-163672411D01*
X89409211Y-163587855D01*
X89463500Y-163481308D01*
X89482206Y-163363200D01*
X89463500Y-163245092D01*
X89409211Y-163138545D01*
X89324655Y-163053989D01*
X89315823Y-163049489D01*
X89315822Y-163049488D01*
X89271382Y-163026845D01*
X89218108Y-162999700D01*
X89100000Y-162980994D01*
X88981892Y-162999700D01*
X88928618Y-163026845D01*
X88884178Y-163049488D01*
X88884177Y-163049489D01*
X88875345Y-163053989D01*
X88790789Y-163138545D01*
X88736500Y-163245092D01*
X88717794Y-163363200D01*
X84147500Y-163363200D01*
X84147500Y-162932111D01*
X84167502Y-162863990D01*
X84221158Y-162817497D01*
X84291432Y-162807393D01*
X84347391Y-162832950D01*
X84348078Y-162831922D01*
X84354421Y-162836161D01*
X84354424Y-162836163D01*
X84390252Y-162860102D01*
X84402422Y-162862523D01*
X84421377Y-162866294D01*
X84421382Y-162866294D01*
X84427442Y-162867500D01*
X86152558Y-162867500D01*
X86158618Y-162866294D01*
X86158623Y-162866294D01*
X86177578Y-162862523D01*
X86189748Y-162860102D01*
X86231922Y-162831922D01*
X86241561Y-162817497D01*
X86253208Y-162800066D01*
X86253209Y-162800065D01*
X86260102Y-162789748D01*
X86267500Y-162752558D01*
X86267500Y-161027442D01*
X86260102Y-160990252D01*
X86243861Y-160965945D01*
X86238815Y-160958394D01*
X86231922Y-160948078D01*
X86189748Y-160919898D01*
X86177578Y-160917477D01*
X86158623Y-160913706D01*
X86158618Y-160913706D01*
X86152558Y-160912500D01*
X84427442Y-160912500D01*
X84421382Y-160913706D01*
X84421377Y-160913706D01*
X84402422Y-160917477D01*
X84390252Y-160919898D01*
X84379935Y-160926791D01*
X84379934Y-160926792D01*
X84354422Y-160943839D01*
X84348078Y-160948078D01*
X84346528Y-160945758D01*
X84300283Y-160971010D01*
X84229468Y-160965945D01*
X84172632Y-160923398D01*
X84147821Y-160856878D01*
X84147500Y-160847889D01*
X84147500Y-159604000D01*
X88717794Y-159604000D01*
X88736500Y-159722108D01*
X88790789Y-159828655D01*
X88875345Y-159913211D01*
X88884177Y-159917711D01*
X88884178Y-159917712D01*
X88928619Y-159940356D01*
X88981892Y-159967500D01*
X89100000Y-159986206D01*
X89218108Y-159967500D01*
X89271381Y-159940356D01*
X89315822Y-159917712D01*
X89315823Y-159917711D01*
X89324655Y-159913211D01*
X89409211Y-159828655D01*
X89463500Y-159722108D01*
X89482206Y-159604000D01*
X89463500Y-159485892D01*
X89409211Y-159379345D01*
X89324655Y-159294789D01*
X89315823Y-159290289D01*
X89315822Y-159290288D01*
X89271382Y-159267645D01*
X89218108Y-159240500D01*
X89100000Y-159221794D01*
X88981892Y-159240500D01*
X88928618Y-159267645D01*
X88884178Y-159290288D01*
X88884177Y-159290289D01*
X88875345Y-159294789D01*
X88790789Y-159379345D01*
X88736500Y-159485892D01*
X88717794Y-159604000D01*
X84147500Y-159604000D01*
X84147500Y-155895600D01*
X88717794Y-155895600D01*
X88736500Y-156013708D01*
X88790789Y-156120255D01*
X88875345Y-156204811D01*
X88884177Y-156209311D01*
X88884178Y-156209312D01*
X88928619Y-156231956D01*
X88981892Y-156259100D01*
X89100000Y-156277806D01*
X89218108Y-156259100D01*
X89271381Y-156231956D01*
X89315822Y-156209312D01*
X89315823Y-156209311D01*
X89324655Y-156204811D01*
X89409211Y-156120255D01*
X89463500Y-156013708D01*
X89482206Y-155895600D01*
X89463500Y-155777492D01*
X89409211Y-155670945D01*
X89324655Y-155586389D01*
X89315823Y-155581889D01*
X89315822Y-155581888D01*
X89271382Y-155559245D01*
X89218108Y-155532100D01*
X89100000Y-155513394D01*
X88981892Y-155532100D01*
X88928618Y-155559245D01*
X88884178Y-155581888D01*
X88884177Y-155581889D01*
X88875345Y-155586389D01*
X88790789Y-155670945D01*
X88736500Y-155777492D01*
X88717794Y-155895600D01*
X84147500Y-155895600D01*
X84147500Y-152136400D01*
X88717794Y-152136400D01*
X88736500Y-152254508D01*
X88790789Y-152361055D01*
X88875345Y-152445611D01*
X88884177Y-152450111D01*
X88884178Y-152450112D01*
X88928618Y-152472755D01*
X88981892Y-152499900D01*
X89100000Y-152518606D01*
X89218108Y-152499900D01*
X89271382Y-152472755D01*
X89315822Y-152450112D01*
X89315823Y-152450111D01*
X89324655Y-152445611D01*
X89409211Y-152361055D01*
X89463500Y-152254508D01*
X89482206Y-152136400D01*
X89463500Y-152018292D01*
X89409211Y-151911745D01*
X89324655Y-151827189D01*
X89315823Y-151822689D01*
X89315822Y-151822688D01*
X89271381Y-151800044D01*
X89218108Y-151772900D01*
X89100000Y-151754194D01*
X88981892Y-151772900D01*
X88928619Y-151800044D01*
X88884178Y-151822688D01*
X88884177Y-151822689D01*
X88875345Y-151827189D01*
X88790789Y-151911745D01*
X88736500Y-152018292D01*
X88717794Y-152136400D01*
X84147500Y-152136400D01*
X84147500Y-148377200D01*
X88717794Y-148377200D01*
X88736500Y-148495308D01*
X88790789Y-148601855D01*
X88875345Y-148686411D01*
X88884177Y-148690911D01*
X88884178Y-148690912D01*
X88928618Y-148713555D01*
X88981892Y-148740700D01*
X89100000Y-148759406D01*
X89218108Y-148740700D01*
X89271382Y-148713555D01*
X89315822Y-148690912D01*
X89315823Y-148690911D01*
X89324655Y-148686411D01*
X89409211Y-148601855D01*
X89463500Y-148495308D01*
X89482206Y-148377200D01*
X89463500Y-148259092D01*
X89409211Y-148152545D01*
X89324655Y-148067989D01*
X89315823Y-148063489D01*
X89315822Y-148063488D01*
X89271382Y-148040845D01*
X89218108Y-148013700D01*
X89100000Y-147994994D01*
X88981892Y-148013700D01*
X88928618Y-148040845D01*
X88884178Y-148063488D01*
X88884177Y-148063489D01*
X88875345Y-148067989D01*
X88790789Y-148152545D01*
X88736500Y-148259092D01*
X88717794Y-148377200D01*
X84147500Y-148377200D01*
X84147500Y-147692111D01*
X84167502Y-147623990D01*
X84221158Y-147577497D01*
X84291432Y-147567393D01*
X84347391Y-147592950D01*
X84348078Y-147591922D01*
X84354421Y-147596161D01*
X84354424Y-147596163D01*
X84390252Y-147620102D01*
X84402422Y-147622523D01*
X84421377Y-147626294D01*
X84421382Y-147626294D01*
X84427442Y-147627500D01*
X86152558Y-147627500D01*
X86158618Y-147626294D01*
X86158623Y-147626294D01*
X86177578Y-147622523D01*
X86189748Y-147620102D01*
X86231922Y-147591922D01*
X86241561Y-147577497D01*
X86253208Y-147560066D01*
X86253209Y-147560065D01*
X86260102Y-147549748D01*
X86267500Y-147512558D01*
X86267500Y-145787442D01*
X86260102Y-145750252D01*
X86243861Y-145725945D01*
X86238815Y-145718394D01*
X86231922Y-145708078D01*
X86189748Y-145679898D01*
X86177578Y-145677477D01*
X86158623Y-145673706D01*
X86158618Y-145673706D01*
X86152558Y-145672500D01*
X84427442Y-145672500D01*
X84421382Y-145673706D01*
X84421377Y-145673706D01*
X84402422Y-145677477D01*
X84390252Y-145679898D01*
X84379935Y-145686791D01*
X84379934Y-145686792D01*
X84354422Y-145703839D01*
X84348078Y-145708078D01*
X84346528Y-145705758D01*
X84300283Y-145731010D01*
X84229468Y-145725945D01*
X84172632Y-145683398D01*
X84147821Y-145616878D01*
X84147500Y-145607889D01*
X84147500Y-144618000D01*
X88717794Y-144618000D01*
X88736500Y-144736108D01*
X88790789Y-144842655D01*
X88875345Y-144927211D01*
X88884177Y-144931711D01*
X88884178Y-144931712D01*
X88928619Y-144954356D01*
X88981892Y-144981500D01*
X89100000Y-145000206D01*
X89218108Y-144981500D01*
X89271381Y-144954356D01*
X89315822Y-144931712D01*
X89315823Y-144931711D01*
X89324655Y-144927211D01*
X89409211Y-144842655D01*
X89463500Y-144736108D01*
X89482206Y-144618000D01*
X89463500Y-144499892D01*
X89409211Y-144393345D01*
X89324655Y-144308789D01*
X89315823Y-144304289D01*
X89315822Y-144304288D01*
X89271382Y-144281645D01*
X89218108Y-144254500D01*
X89100000Y-144235794D01*
X88981892Y-144254500D01*
X88928618Y-144281645D01*
X88884178Y-144304288D01*
X88884177Y-144304289D01*
X88875345Y-144308789D01*
X88790789Y-144393345D01*
X88736500Y-144499892D01*
X88717794Y-144618000D01*
X84147500Y-144618000D01*
X84147500Y-140858800D01*
X88717794Y-140858800D01*
X88736500Y-140976908D01*
X88790789Y-141083455D01*
X88875345Y-141168011D01*
X88884177Y-141172511D01*
X88884178Y-141172512D01*
X88928618Y-141195155D01*
X88981892Y-141222300D01*
X89100000Y-141241006D01*
X89218108Y-141222300D01*
X89271382Y-141195155D01*
X89315822Y-141172512D01*
X89315823Y-141172511D01*
X89324655Y-141168011D01*
X89409211Y-141083455D01*
X89463500Y-140976908D01*
X89482206Y-140858800D01*
X89463500Y-140740692D01*
X89409211Y-140634145D01*
X89324655Y-140549589D01*
X89315823Y-140545089D01*
X89315822Y-140545088D01*
X89271381Y-140522444D01*
X89218108Y-140495300D01*
X89100000Y-140476594D01*
X88981892Y-140495300D01*
X88928619Y-140522444D01*
X88884178Y-140545088D01*
X88884177Y-140545089D01*
X88875345Y-140549589D01*
X88790789Y-140634145D01*
X88736500Y-140740692D01*
X88717794Y-140858800D01*
X84147500Y-140858800D01*
X84147500Y-137099600D01*
X88717794Y-137099600D01*
X88736500Y-137217708D01*
X88790789Y-137324255D01*
X88875345Y-137408811D01*
X88884177Y-137413311D01*
X88884178Y-137413312D01*
X88928619Y-137435956D01*
X88981892Y-137463100D01*
X89100000Y-137481806D01*
X89218108Y-137463100D01*
X89271381Y-137435956D01*
X89315822Y-137413312D01*
X89315823Y-137413311D01*
X89324655Y-137408811D01*
X89409211Y-137324255D01*
X89463500Y-137217708D01*
X89482206Y-137099600D01*
X89463500Y-136981492D01*
X89409211Y-136874945D01*
X89324655Y-136790389D01*
X89315823Y-136785889D01*
X89315822Y-136785888D01*
X89271382Y-136763245D01*
X89218108Y-136736100D01*
X89100000Y-136717394D01*
X88981892Y-136736100D01*
X88928618Y-136763245D01*
X88884178Y-136785888D01*
X88884177Y-136785889D01*
X88875345Y-136790389D01*
X88790789Y-136874945D01*
X88736500Y-136981492D01*
X88717794Y-137099600D01*
X84147500Y-137099600D01*
X84147500Y-133340400D01*
X88717794Y-133340400D01*
X88736500Y-133458508D01*
X88790789Y-133565055D01*
X88875345Y-133649611D01*
X88884177Y-133654111D01*
X88884178Y-133654112D01*
X88928619Y-133676756D01*
X88981892Y-133703900D01*
X89100000Y-133722606D01*
X89218108Y-133703900D01*
X89271381Y-133676756D01*
X89315822Y-133654112D01*
X89315823Y-133654111D01*
X89324655Y-133649611D01*
X89409211Y-133565055D01*
X89463500Y-133458508D01*
X89482206Y-133340400D01*
X89463500Y-133222292D01*
X89409211Y-133115745D01*
X89324655Y-133031189D01*
X89315823Y-133026689D01*
X89315822Y-133026688D01*
X89271381Y-133004044D01*
X89218108Y-132976900D01*
X89100000Y-132958194D01*
X88981892Y-132976900D01*
X88928619Y-133004044D01*
X88884178Y-133026688D01*
X88884177Y-133026689D01*
X88875345Y-133031189D01*
X88790789Y-133115745D01*
X88736500Y-133222292D01*
X88717794Y-133340400D01*
X84147500Y-133340400D01*
X84147500Y-132452111D01*
X84167502Y-132383990D01*
X84221158Y-132337497D01*
X84291432Y-132327393D01*
X84347391Y-132352950D01*
X84348078Y-132351922D01*
X84354421Y-132356161D01*
X84354424Y-132356163D01*
X84390252Y-132380102D01*
X84402422Y-132382523D01*
X84421377Y-132386294D01*
X84421382Y-132386294D01*
X84427442Y-132387500D01*
X86152558Y-132387500D01*
X86158618Y-132386294D01*
X86158623Y-132386294D01*
X86177578Y-132382523D01*
X86189748Y-132380102D01*
X86231922Y-132351922D01*
X86241561Y-132337497D01*
X86253208Y-132320066D01*
X86253209Y-132320065D01*
X86260102Y-132309748D01*
X86267500Y-132272558D01*
X86267500Y-130547442D01*
X86260102Y-130510252D01*
X86243861Y-130485945D01*
X86238815Y-130478394D01*
X86231922Y-130468078D01*
X86189748Y-130439898D01*
X86177578Y-130437477D01*
X86158623Y-130433706D01*
X86158618Y-130433706D01*
X86152558Y-130432500D01*
X84427442Y-130432500D01*
X84421382Y-130433706D01*
X84421377Y-130433706D01*
X84402422Y-130437477D01*
X84390252Y-130439898D01*
X84379935Y-130446791D01*
X84379934Y-130446792D01*
X84354422Y-130463839D01*
X84348078Y-130468078D01*
X84346528Y-130465758D01*
X84300283Y-130491010D01*
X84229468Y-130485945D01*
X84172632Y-130443398D01*
X84147821Y-130376878D01*
X84147500Y-130367889D01*
X84147500Y-129581200D01*
X88717794Y-129581200D01*
X88736500Y-129699308D01*
X88790789Y-129805855D01*
X88875345Y-129890411D01*
X88884177Y-129894911D01*
X88884178Y-129894912D01*
X88928619Y-129917556D01*
X88981892Y-129944700D01*
X89100000Y-129963406D01*
X89218108Y-129944700D01*
X89271381Y-129917556D01*
X89315822Y-129894912D01*
X89315823Y-129894911D01*
X89324655Y-129890411D01*
X89409211Y-129805855D01*
X89463500Y-129699308D01*
X89482206Y-129581200D01*
X89463500Y-129463092D01*
X89409211Y-129356545D01*
X89324655Y-129271989D01*
X89315823Y-129267489D01*
X89315822Y-129267488D01*
X89271382Y-129244845D01*
X89218108Y-129217700D01*
X89100000Y-129198994D01*
X88981892Y-129217700D01*
X88928618Y-129244845D01*
X88884178Y-129267488D01*
X88884177Y-129267489D01*
X88875345Y-129271989D01*
X88790789Y-129356545D01*
X88736500Y-129463092D01*
X88717794Y-129581200D01*
X84147500Y-129581200D01*
X84147500Y-125822000D01*
X88717794Y-125822000D01*
X88736500Y-125940108D01*
X88790789Y-126046655D01*
X88875345Y-126131211D01*
X88884177Y-126135711D01*
X88884178Y-126135712D01*
X88928618Y-126158355D01*
X88981892Y-126185500D01*
X89100000Y-126204206D01*
X89218108Y-126185500D01*
X89271382Y-126158355D01*
X89315822Y-126135712D01*
X89315823Y-126135711D01*
X89324655Y-126131211D01*
X89409211Y-126046655D01*
X89463500Y-125940108D01*
X89482206Y-125822000D01*
X89463500Y-125703892D01*
X89409211Y-125597345D01*
X89324655Y-125512789D01*
X89315823Y-125508289D01*
X89315822Y-125508288D01*
X89271382Y-125485645D01*
X89218108Y-125458500D01*
X89100000Y-125439794D01*
X88981892Y-125458500D01*
X88928618Y-125485645D01*
X88884178Y-125508288D01*
X88884177Y-125508289D01*
X88875345Y-125512789D01*
X88790789Y-125597345D01*
X88736500Y-125703892D01*
X88717794Y-125822000D01*
X84147500Y-125822000D01*
X84147500Y-122062800D01*
X88717794Y-122062800D01*
X88736500Y-122180908D01*
X88790789Y-122287455D01*
X88875345Y-122372011D01*
X88884177Y-122376511D01*
X88884178Y-122376512D01*
X88928618Y-122399155D01*
X88981892Y-122426300D01*
X89100000Y-122445006D01*
X89218108Y-122426300D01*
X89271382Y-122399155D01*
X89315822Y-122376512D01*
X89315823Y-122376511D01*
X89324655Y-122372011D01*
X89409211Y-122287455D01*
X89463500Y-122180908D01*
X89482206Y-122062800D01*
X89463500Y-121944692D01*
X89409211Y-121838145D01*
X89324655Y-121753589D01*
X89315823Y-121749089D01*
X89315822Y-121749088D01*
X89271382Y-121726445D01*
X89218108Y-121699300D01*
X89100000Y-121680594D01*
X88981892Y-121699300D01*
X88928618Y-121726445D01*
X88884178Y-121749088D01*
X88884177Y-121749089D01*
X88875345Y-121753589D01*
X88790789Y-121838145D01*
X88736500Y-121944692D01*
X88717794Y-122062800D01*
X84147500Y-122062800D01*
X84147500Y-118303600D01*
X88717794Y-118303600D01*
X88736500Y-118421708D01*
X88790789Y-118528255D01*
X88875345Y-118612811D01*
X88884177Y-118617311D01*
X88884178Y-118617312D01*
X88928618Y-118639955D01*
X88981892Y-118667100D01*
X89100000Y-118685806D01*
X89218108Y-118667100D01*
X89271381Y-118639956D01*
X89315822Y-118617312D01*
X89315823Y-118617311D01*
X89324655Y-118612811D01*
X89409211Y-118528255D01*
X89463500Y-118421708D01*
X89482206Y-118303600D01*
X89463500Y-118185492D01*
X89409211Y-118078945D01*
X89324655Y-117994389D01*
X89315823Y-117989889D01*
X89315822Y-117989888D01*
X89271381Y-117967244D01*
X89218108Y-117940100D01*
X89100000Y-117921394D01*
X88981892Y-117940100D01*
X88928619Y-117967244D01*
X88884178Y-117989888D01*
X88884177Y-117989889D01*
X88875345Y-117994389D01*
X88790789Y-118078945D01*
X88736500Y-118185492D01*
X88717794Y-118303600D01*
X84147500Y-118303600D01*
X84147500Y-117212111D01*
X84167502Y-117143990D01*
X84221158Y-117097497D01*
X84291432Y-117087393D01*
X84347391Y-117112950D01*
X84348078Y-117111922D01*
X84354421Y-117116161D01*
X84354424Y-117116163D01*
X84390252Y-117140102D01*
X84402422Y-117142523D01*
X84421377Y-117146294D01*
X84421382Y-117146294D01*
X84427442Y-117147500D01*
X86152558Y-117147500D01*
X86158618Y-117146294D01*
X86158623Y-117146294D01*
X86177578Y-117142523D01*
X86189748Y-117140102D01*
X86231922Y-117111922D01*
X86241561Y-117097497D01*
X86253208Y-117080066D01*
X86253209Y-117080065D01*
X86260102Y-117069748D01*
X86267500Y-117032558D01*
X86267500Y-115307442D01*
X86260102Y-115270252D01*
X86243861Y-115245945D01*
X86238815Y-115238394D01*
X86231922Y-115228078D01*
X86189748Y-115199898D01*
X86177578Y-115197477D01*
X86158623Y-115193706D01*
X86158618Y-115193706D01*
X86152558Y-115192500D01*
X84427442Y-115192500D01*
X84421382Y-115193706D01*
X84421377Y-115193706D01*
X84402422Y-115197477D01*
X84390252Y-115199898D01*
X84379935Y-115206791D01*
X84379934Y-115206792D01*
X84354422Y-115223839D01*
X84348078Y-115228078D01*
X84346528Y-115225758D01*
X84300283Y-115251010D01*
X84229468Y-115245945D01*
X84172632Y-115203398D01*
X84147821Y-115136878D01*
X84147500Y-115127889D01*
X84147500Y-114595200D01*
X88717794Y-114595200D01*
X88736500Y-114713308D01*
X88790789Y-114819855D01*
X88875345Y-114904411D01*
X88884177Y-114908911D01*
X88884178Y-114908912D01*
X88928619Y-114931556D01*
X88981892Y-114958700D01*
X89100000Y-114977406D01*
X89218108Y-114958700D01*
X89271381Y-114931556D01*
X89315822Y-114908912D01*
X89315823Y-114908911D01*
X89324655Y-114904411D01*
X89409211Y-114819855D01*
X89463500Y-114713308D01*
X89482206Y-114595200D01*
X89463500Y-114477092D01*
X89409211Y-114370545D01*
X89324655Y-114285989D01*
X89315823Y-114281489D01*
X89315822Y-114281488D01*
X89271382Y-114258845D01*
X89218108Y-114231700D01*
X89100000Y-114212994D01*
X88981892Y-114231700D01*
X88928619Y-114258844D01*
X88884178Y-114281488D01*
X88884177Y-114281489D01*
X88875345Y-114285989D01*
X88790789Y-114370545D01*
X88736500Y-114477092D01*
X88717794Y-114595200D01*
X84147500Y-114595200D01*
X84147500Y-110836000D01*
X88717794Y-110836000D01*
X88736500Y-110954108D01*
X88790789Y-111060655D01*
X88875345Y-111145211D01*
X88884177Y-111149711D01*
X88884178Y-111149712D01*
X88928618Y-111172355D01*
X88981892Y-111199500D01*
X89100000Y-111218206D01*
X89218108Y-111199500D01*
X89271381Y-111172356D01*
X89315822Y-111149712D01*
X89315823Y-111149711D01*
X89324655Y-111145211D01*
X89409211Y-111060655D01*
X89463500Y-110954108D01*
X89482206Y-110836000D01*
X89463500Y-110717892D01*
X89409211Y-110611345D01*
X89324655Y-110526789D01*
X89315823Y-110522289D01*
X89315822Y-110522288D01*
X89271382Y-110499645D01*
X89218108Y-110472500D01*
X89100000Y-110453794D01*
X88981892Y-110472500D01*
X88928619Y-110499644D01*
X88884178Y-110522288D01*
X88884177Y-110522289D01*
X88875345Y-110526789D01*
X88790789Y-110611345D01*
X88736500Y-110717892D01*
X88717794Y-110836000D01*
X84147500Y-110836000D01*
X84147500Y-110083271D01*
X84167502Y-110015150D01*
X84221349Y-109968570D01*
X84247499Y-109956680D01*
X84328820Y-109919706D01*
X84432004Y-109830796D01*
X84506087Y-109716501D01*
X84545113Y-109586006D01*
X84545945Y-109449804D01*
X84508516Y-109318842D01*
X84503725Y-109311248D01*
X84472835Y-109262290D01*
X84453401Y-109194005D01*
X84473665Y-109126523D01*
X84501204Y-109084035D01*
X84501205Y-109084033D01*
X84506087Y-109076501D01*
X84510635Y-109061296D01*
X84542540Y-108954609D01*
X84545113Y-108946006D01*
X84545945Y-108809804D01*
X84508516Y-108678842D01*
X84503725Y-108671248D01*
X84472835Y-108622290D01*
X84453401Y-108554005D01*
X84473665Y-108486523D01*
X84501204Y-108444035D01*
X84501205Y-108444033D01*
X84506087Y-108436501D01*
X84545113Y-108306006D01*
X84545945Y-108169804D01*
X84508516Y-108038842D01*
X84503725Y-108031248D01*
X84472835Y-107982290D01*
X84453401Y-107914005D01*
X84473665Y-107846523D01*
X84501204Y-107804035D01*
X84501205Y-107804033D01*
X84506087Y-107796501D01*
X84545113Y-107666006D01*
X84545945Y-107529804D01*
X84520365Y-107440300D01*
X84510983Y-107407473D01*
X84510982Y-107407471D01*
X84508516Y-107398842D01*
X84503725Y-107391248D01*
X84472835Y-107342290D01*
X84453401Y-107274005D01*
X84473665Y-107206523D01*
X84501204Y-107164035D01*
X84501205Y-107164033D01*
X84506087Y-107156501D01*
X84529923Y-107076800D01*
X88717794Y-107076800D01*
X88736500Y-107194908D01*
X88790789Y-107301455D01*
X88875345Y-107386011D01*
X88884177Y-107390511D01*
X88884178Y-107390512D01*
X88900527Y-107398842D01*
X88981892Y-107440300D01*
X89100000Y-107459006D01*
X89218108Y-107440300D01*
X89299473Y-107398842D01*
X89315822Y-107390512D01*
X89315823Y-107390511D01*
X89324655Y-107386011D01*
X89409211Y-107301455D01*
X89463500Y-107194908D01*
X89482206Y-107076800D01*
X89463500Y-106958692D01*
X89436356Y-106905419D01*
X89413712Y-106860978D01*
X89413711Y-106860977D01*
X89409211Y-106852145D01*
X89324655Y-106767589D01*
X89315823Y-106763089D01*
X89315822Y-106763088D01*
X89262056Y-106735693D01*
X89218108Y-106713300D01*
X89100000Y-106694594D01*
X88981892Y-106713300D01*
X88937944Y-106735693D01*
X88884178Y-106763088D01*
X88884177Y-106763089D01*
X88875345Y-106767589D01*
X88790789Y-106852145D01*
X88786289Y-106860977D01*
X88786288Y-106860978D01*
X88763645Y-106905418D01*
X88736500Y-106958692D01*
X88717794Y-107076800D01*
X84529923Y-107076800D01*
X84542540Y-107034609D01*
X84545113Y-107026006D01*
X84545945Y-106889804D01*
X84508516Y-106758842D01*
X84503725Y-106751248D01*
X84472835Y-106702290D01*
X84453401Y-106634005D01*
X84473665Y-106566523D01*
X84501204Y-106524035D01*
X84501205Y-106524033D01*
X84506087Y-106516501D01*
X84545113Y-106386006D01*
X84545945Y-106249804D01*
X84508516Y-106118842D01*
X84435835Y-106003650D01*
X84333745Y-105913487D01*
X84325622Y-105909673D01*
X84325620Y-105909672D01*
X84219951Y-105860061D01*
X84166789Y-105813005D01*
X84147500Y-105746006D01*
X84147500Y-103317600D01*
X88717794Y-103317600D01*
X88736500Y-103435708D01*
X88790789Y-103542255D01*
X88875345Y-103626811D01*
X88884177Y-103631311D01*
X88884178Y-103631312D01*
X88928619Y-103653956D01*
X88981892Y-103681100D01*
X89100000Y-103699806D01*
X89218108Y-103681100D01*
X89271381Y-103653956D01*
X89315822Y-103631312D01*
X89315823Y-103631311D01*
X89324655Y-103626811D01*
X89409211Y-103542255D01*
X89463500Y-103435708D01*
X89482206Y-103317600D01*
X89463500Y-103199492D01*
X89409211Y-103092945D01*
X89324655Y-103008389D01*
X89315823Y-103003889D01*
X89315822Y-103003888D01*
X89271381Y-102981244D01*
X89218108Y-102954100D01*
X89100000Y-102935394D01*
X88981892Y-102954100D01*
X88928619Y-102981244D01*
X88884178Y-103003888D01*
X88884177Y-103003889D01*
X88875345Y-103008389D01*
X88790789Y-103092945D01*
X88736500Y-103199492D01*
X88717794Y-103317600D01*
X84147500Y-103317600D01*
X84147500Y-101972111D01*
X84167502Y-101903990D01*
X84221158Y-101857497D01*
X84291432Y-101847393D01*
X84347391Y-101872950D01*
X84348078Y-101871922D01*
X84354421Y-101876161D01*
X84354424Y-101876163D01*
X84390252Y-101900102D01*
X84402422Y-101902523D01*
X84421377Y-101906294D01*
X84421382Y-101906294D01*
X84427442Y-101907500D01*
X86152558Y-101907500D01*
X86158618Y-101906294D01*
X86158623Y-101906294D01*
X86177578Y-101902523D01*
X86189748Y-101900102D01*
X86231922Y-101871922D01*
X86241561Y-101857497D01*
X86253208Y-101840066D01*
X86253209Y-101840065D01*
X86260102Y-101829748D01*
X86267500Y-101792558D01*
X86267500Y-100067442D01*
X86260102Y-100030252D01*
X86243861Y-100005945D01*
X86238815Y-99998394D01*
X86231922Y-99988078D01*
X86189748Y-99959898D01*
X86177578Y-99957477D01*
X86158623Y-99953706D01*
X86158618Y-99953706D01*
X86152558Y-99952500D01*
X84427442Y-99952500D01*
X84421382Y-99953706D01*
X84421377Y-99953706D01*
X84402422Y-99957477D01*
X84390252Y-99959898D01*
X84379935Y-99966791D01*
X84379934Y-99966792D01*
X84354422Y-99983839D01*
X84348078Y-99988078D01*
X84346528Y-99985758D01*
X84300283Y-100011010D01*
X84229468Y-100005945D01*
X84172632Y-99963398D01*
X84147821Y-99896878D01*
X84147500Y-99887889D01*
X84147500Y-99558400D01*
X88717794Y-99558400D01*
X88736500Y-99676508D01*
X88790789Y-99783055D01*
X88875345Y-99867611D01*
X88884177Y-99872111D01*
X88884178Y-99872112D01*
X88915142Y-99887889D01*
X88981892Y-99921900D01*
X89100000Y-99940606D01*
X89218108Y-99921900D01*
X89284858Y-99887889D01*
X89315822Y-99872112D01*
X89315823Y-99872111D01*
X89324655Y-99867611D01*
X89409211Y-99783055D01*
X89463500Y-99676508D01*
X89482206Y-99558400D01*
X89463500Y-99440292D01*
X89409211Y-99333745D01*
X89324655Y-99249189D01*
X89315823Y-99244689D01*
X89315822Y-99244688D01*
X89271382Y-99222045D01*
X89218108Y-99194900D01*
X89100000Y-99176194D01*
X88981892Y-99194900D01*
X88928619Y-99222044D01*
X88884178Y-99244688D01*
X88884177Y-99244689D01*
X88875345Y-99249189D01*
X88790789Y-99333745D01*
X88736500Y-99440292D01*
X88717794Y-99558400D01*
X84147500Y-99558400D01*
X84147500Y-95316600D01*
X88717794Y-95316600D01*
X88736500Y-95434708D01*
X88790789Y-95541255D01*
X88875345Y-95625811D01*
X88884177Y-95630311D01*
X88884178Y-95630312D01*
X88928618Y-95652955D01*
X88981892Y-95680100D01*
X89100000Y-95698806D01*
X89218108Y-95680100D01*
X89271382Y-95652955D01*
X89315822Y-95630312D01*
X89315823Y-95630311D01*
X89324655Y-95625811D01*
X89409211Y-95541255D01*
X89463500Y-95434708D01*
X89482206Y-95316600D01*
X89463500Y-95198492D01*
X89409211Y-95091945D01*
X89324655Y-95007389D01*
X89315823Y-95002889D01*
X89315822Y-95002888D01*
X89271381Y-94980244D01*
X89218108Y-94953100D01*
X89100000Y-94934394D01*
X88981892Y-94953100D01*
X88928619Y-94980244D01*
X88884178Y-95002888D01*
X88884177Y-95002889D01*
X88875345Y-95007389D01*
X88790789Y-95091945D01*
X88736500Y-95198492D01*
X88717794Y-95316600D01*
X84147500Y-95316600D01*
X84147500Y-93843400D01*
X88717794Y-93843400D01*
X88736500Y-93961508D01*
X88790789Y-94068055D01*
X88875345Y-94152611D01*
X88884177Y-94157111D01*
X88884178Y-94157112D01*
X88928618Y-94179755D01*
X88981892Y-94206900D01*
X89100000Y-94225606D01*
X89218108Y-94206900D01*
X89271381Y-94179756D01*
X89315822Y-94157112D01*
X89315823Y-94157111D01*
X89324655Y-94152611D01*
X89409211Y-94068055D01*
X89463500Y-93961508D01*
X89482206Y-93843400D01*
X89463500Y-93725292D01*
X89409211Y-93618745D01*
X89324655Y-93534189D01*
X89315823Y-93529689D01*
X89315822Y-93529688D01*
X89271382Y-93507045D01*
X89218108Y-93479900D01*
X89100000Y-93461194D01*
X88981892Y-93479900D01*
X88928619Y-93507044D01*
X88884178Y-93529688D01*
X88884177Y-93529689D01*
X88875345Y-93534189D01*
X88790789Y-93618745D01*
X88736500Y-93725292D01*
X88717794Y-93843400D01*
X84147500Y-93843400D01*
X84147500Y-90363600D01*
X88717794Y-90363600D01*
X88736500Y-90481708D01*
X88790789Y-90588255D01*
X88875345Y-90672811D01*
X88884177Y-90677311D01*
X88884178Y-90677312D01*
X88928618Y-90699955D01*
X88981892Y-90727100D01*
X89100000Y-90745806D01*
X89218108Y-90727100D01*
X89271382Y-90699955D01*
X89315822Y-90677312D01*
X89315823Y-90677311D01*
X89324655Y-90672811D01*
X89409211Y-90588255D01*
X89463500Y-90481708D01*
X89482206Y-90363600D01*
X89463500Y-90245492D01*
X89409211Y-90138945D01*
X89360117Y-90089851D01*
X89326091Y-90027539D01*
X89331156Y-89956724D01*
X89360116Y-89911661D01*
X89420122Y-89851655D01*
X89474411Y-89745108D01*
X89493117Y-89627000D01*
X89474411Y-89508892D01*
X89420122Y-89402345D01*
X89347417Y-89329640D01*
X89313391Y-89267328D01*
X89318456Y-89196513D01*
X89347416Y-89151450D01*
X89409211Y-89089655D01*
X89463500Y-88983108D01*
X89482206Y-88865000D01*
X89463500Y-88746892D01*
X89409211Y-88640345D01*
X89324655Y-88555789D01*
X89315823Y-88551289D01*
X89315822Y-88551288D01*
X89271381Y-88528644D01*
X89218108Y-88501500D01*
X89100000Y-88482794D01*
X88981892Y-88501500D01*
X88928619Y-88528644D01*
X88884178Y-88551288D01*
X88884177Y-88551289D01*
X88875345Y-88555789D01*
X88790789Y-88640345D01*
X88736500Y-88746892D01*
X88717794Y-88865000D01*
X88736500Y-88983108D01*
X88790789Y-89089655D01*
X88863495Y-89162361D01*
X88897521Y-89224673D01*
X88892456Y-89295488D01*
X88863499Y-89340546D01*
X88801700Y-89402345D01*
X88747411Y-89508892D01*
X88728705Y-89627000D01*
X88747411Y-89745108D01*
X88801700Y-89851655D01*
X88850795Y-89900750D01*
X88884821Y-89963062D01*
X88879756Y-90033877D01*
X88850799Y-90078935D01*
X88790789Y-90138945D01*
X88736500Y-90245492D01*
X88717794Y-90363600D01*
X84147500Y-90363600D01*
X84147500Y-86732111D01*
X84167502Y-86663990D01*
X84221158Y-86617497D01*
X84291432Y-86607393D01*
X84347391Y-86632950D01*
X84348078Y-86631922D01*
X84354421Y-86636161D01*
X84354424Y-86636163D01*
X84390252Y-86660102D01*
X84402422Y-86662523D01*
X84421377Y-86666294D01*
X84421382Y-86666294D01*
X84427442Y-86667500D01*
X86152558Y-86667500D01*
X86158618Y-86666294D01*
X86158623Y-86666294D01*
X86177578Y-86662523D01*
X86189748Y-86660102D01*
X86231922Y-86631922D01*
X86241561Y-86617497D01*
X86253208Y-86600066D01*
X86253209Y-86600065D01*
X86260102Y-86589748D01*
X86267500Y-86552558D01*
X86267500Y-85486800D01*
X88717794Y-85486800D01*
X88736500Y-85604908D01*
X88790789Y-85711455D01*
X88875345Y-85796011D01*
X88884177Y-85800511D01*
X88884178Y-85800512D01*
X88928618Y-85823155D01*
X88981892Y-85850300D01*
X89100000Y-85869006D01*
X89218108Y-85850300D01*
X89271382Y-85823155D01*
X89315822Y-85800512D01*
X89315823Y-85800511D01*
X89324655Y-85796011D01*
X89409211Y-85711455D01*
X89463500Y-85604908D01*
X89482206Y-85486800D01*
X89463500Y-85368692D01*
X89409211Y-85262145D01*
X89324655Y-85177589D01*
X89315823Y-85173089D01*
X89315822Y-85173088D01*
X89271382Y-85150445D01*
X89218108Y-85123300D01*
X89100000Y-85104594D01*
X88981892Y-85123300D01*
X88928618Y-85150445D01*
X88884178Y-85173088D01*
X88884177Y-85173089D01*
X88875345Y-85177589D01*
X88790789Y-85262145D01*
X88736500Y-85368692D01*
X88717794Y-85486800D01*
X86267500Y-85486800D01*
X86267500Y-84827442D01*
X86260102Y-84790252D01*
X86231922Y-84748078D01*
X86189748Y-84719898D01*
X86177578Y-84717477D01*
X86158623Y-84713706D01*
X86158618Y-84713706D01*
X86152558Y-84712500D01*
X84893204Y-84712500D01*
X84825083Y-84692498D01*
X84778590Y-84638842D01*
X84768486Y-84568568D01*
X84797980Y-84503988D01*
X84819141Y-84484565D01*
X84825818Y-84479714D01*
X84834655Y-84475211D01*
X84919211Y-84390655D01*
X84973500Y-84284108D01*
X84992206Y-84166000D01*
X84973500Y-84047892D01*
X84977199Y-84047306D01*
X84975707Y-83994964D01*
X85012374Y-83934168D01*
X85077856Y-83902554D01*
X85118915Y-83896051D01*
X85128708Y-83894500D01*
X85184734Y-83865953D01*
X85226422Y-83844712D01*
X85226423Y-83844711D01*
X85235255Y-83840211D01*
X85319811Y-83755655D01*
X85374100Y-83649108D01*
X85392806Y-83531000D01*
X85374100Y-83412892D01*
X85327893Y-83322206D01*
X85324312Y-83315178D01*
X85324311Y-83315177D01*
X85319811Y-83306345D01*
X85235255Y-83221789D01*
X85226423Y-83217289D01*
X85226422Y-83217288D01*
X85172866Y-83190000D01*
X88787794Y-83190000D01*
X88806500Y-83308108D01*
X88860789Y-83414655D01*
X88945345Y-83499211D01*
X88954177Y-83503711D01*
X88954178Y-83503712D01*
X88988514Y-83521207D01*
X89051892Y-83553500D01*
X89170000Y-83572206D01*
X89288108Y-83553500D01*
X89351486Y-83521207D01*
X89385822Y-83503712D01*
X89385823Y-83503711D01*
X89394655Y-83499211D01*
X89479211Y-83414655D01*
X89533500Y-83308108D01*
X89552206Y-83190000D01*
X89533500Y-83071892D01*
X89479211Y-82965345D01*
X89394655Y-82880789D01*
X89385823Y-82876289D01*
X89385822Y-82876288D01*
X89341381Y-82853644D01*
X89288108Y-82826500D01*
X89170000Y-82807794D01*
X89051892Y-82826500D01*
X88998619Y-82853644D01*
X88954178Y-82876288D01*
X88954177Y-82876289D01*
X88945345Y-82880789D01*
X88860789Y-82965345D01*
X88806500Y-83071892D01*
X88787794Y-83190000D01*
X85172866Y-83190000D01*
X85128708Y-83167500D01*
X85010600Y-83148794D01*
X84892492Y-83167500D01*
X84848334Y-83190000D01*
X84794778Y-83217288D01*
X84794777Y-83217289D01*
X84785945Y-83221789D01*
X84701389Y-83306345D01*
X84696889Y-83315177D01*
X84696888Y-83315178D01*
X84693307Y-83322206D01*
X84647100Y-83412892D01*
X84628394Y-83531000D01*
X84629945Y-83540793D01*
X84647100Y-83649108D01*
X84643401Y-83649694D01*
X84644893Y-83702036D01*
X84608226Y-83762832D01*
X84542744Y-83794446D01*
X84491892Y-83802500D01*
X84450858Y-83823408D01*
X84394178Y-83852288D01*
X84394177Y-83852289D01*
X84385345Y-83856789D01*
X84362595Y-83879539D01*
X84300283Y-83913565D01*
X84229468Y-83908500D01*
X84172632Y-83865953D01*
X84147821Y-83799433D01*
X84147500Y-83790444D01*
X84147500Y-82750000D01*
X86087794Y-82750000D01*
X86106500Y-82868108D01*
X86160789Y-82974655D01*
X86245345Y-83059211D01*
X86254177Y-83063711D01*
X86254178Y-83063712D01*
X86289452Y-83081685D01*
X86351892Y-83113500D01*
X86470000Y-83132206D01*
X86588108Y-83113500D01*
X86650548Y-83081685D01*
X86685822Y-83063712D01*
X86685823Y-83063711D01*
X86694655Y-83059211D01*
X86779211Y-82974655D01*
X86833500Y-82868108D01*
X86852206Y-82750000D01*
X86833500Y-82631892D01*
X86779211Y-82525345D01*
X86694655Y-82440789D01*
X86685823Y-82436289D01*
X86685822Y-82436288D01*
X86641382Y-82413645D01*
X86588108Y-82386500D01*
X86529054Y-82377147D01*
X86479793Y-82369345D01*
X86470000Y-82367794D01*
X86460207Y-82369345D01*
X86410946Y-82377147D01*
X86351892Y-82386500D01*
X86298618Y-82413645D01*
X86254178Y-82436288D01*
X86254177Y-82436289D01*
X86245345Y-82440789D01*
X86160789Y-82525345D01*
X86106500Y-82631892D01*
X86087794Y-82750000D01*
X84147500Y-82750000D01*
X84147500Y-82310000D01*
X90427794Y-82310000D01*
X90446500Y-82428108D01*
X90456534Y-82447800D01*
X90493656Y-82520655D01*
X90500789Y-82534655D01*
X90585345Y-82619211D01*
X90594177Y-82623711D01*
X90594178Y-82623712D01*
X90629452Y-82641685D01*
X90691892Y-82673500D01*
X90810000Y-82692206D01*
X90928108Y-82673500D01*
X90990548Y-82641685D01*
X91025822Y-82623712D01*
X91025823Y-82623711D01*
X91034655Y-82619211D01*
X91119211Y-82534655D01*
X91126345Y-82520655D01*
X91163466Y-82447800D01*
X91173500Y-82428108D01*
X91191000Y-82317614D01*
X91221412Y-82253461D01*
X91253808Y-82233288D01*
X91237331Y-82233053D01*
X91212684Y-82216712D01*
X91336192Y-82216712D01*
X91352669Y-82216947D01*
X91411842Y-82256179D01*
X91427715Y-82280120D01*
X91466287Y-82355820D01*
X91470789Y-82364655D01*
X91555345Y-82449211D01*
X91564177Y-82453711D01*
X91564178Y-82453712D01*
X91608619Y-82476356D01*
X91661892Y-82503500D01*
X91671685Y-82505051D01*
X91770207Y-82520655D01*
X91780000Y-82522206D01*
X91789793Y-82520655D01*
X91799710Y-82520655D01*
X91799710Y-82522427D01*
X91858502Y-82530026D01*
X91912815Y-82575749D01*
X91933786Y-82643577D01*
X91914988Y-82711146D01*
X91910789Y-82715345D01*
X91856500Y-82821892D01*
X91837794Y-82940000D01*
X91856500Y-83058108D01*
X91868513Y-83081685D01*
X91903498Y-83150345D01*
X91910789Y-83164655D01*
X91995345Y-83249211D01*
X92004177Y-83253711D01*
X92004178Y-83253712D01*
X92048618Y-83276355D01*
X92101892Y-83303500D01*
X92220000Y-83322206D01*
X92338108Y-83303500D01*
X92391382Y-83276355D01*
X92435822Y-83253712D01*
X92435823Y-83253711D01*
X92444655Y-83249211D01*
X92529211Y-83164655D01*
X92536503Y-83150345D01*
X92571487Y-83081685D01*
X92583500Y-83058108D01*
X92602206Y-82940000D01*
X92583500Y-82821892D01*
X92541879Y-82740207D01*
X92533712Y-82724178D01*
X92533711Y-82724177D01*
X92529211Y-82715345D01*
X92444655Y-82630789D01*
X92435823Y-82626289D01*
X92435822Y-82626288D01*
X92391381Y-82603644D01*
X92338108Y-82576500D01*
X92220000Y-82557794D01*
X92210207Y-82559345D01*
X92200290Y-82559345D01*
X92200290Y-82557573D01*
X92141498Y-82549974D01*
X92087185Y-82504251D01*
X92066214Y-82436423D01*
X92085012Y-82368854D01*
X92089211Y-82364655D01*
X92143500Y-82258108D01*
X92162206Y-82140000D01*
X92143500Y-82021892D01*
X92107379Y-81951001D01*
X92093712Y-81924178D01*
X92093711Y-81924177D01*
X92089211Y-81915345D01*
X92004655Y-81830789D01*
X91995823Y-81826289D01*
X91995822Y-81826288D01*
X91951382Y-81803645D01*
X91898108Y-81776500D01*
X91780000Y-81757794D01*
X91661892Y-81776500D01*
X91608618Y-81803645D01*
X91564178Y-81826288D01*
X91564177Y-81826289D01*
X91555345Y-81830789D01*
X91470789Y-81915345D01*
X91466289Y-81924177D01*
X91466288Y-81924178D01*
X91452621Y-81951001D01*
X91416500Y-82021892D01*
X91414949Y-82031685D01*
X91399000Y-82132386D01*
X91368588Y-82196539D01*
X91336192Y-82216712D01*
X91212684Y-82216712D01*
X91178158Y-82193821D01*
X91162285Y-82169880D01*
X91123713Y-82094180D01*
X91123712Y-82094178D01*
X91119211Y-82085345D01*
X91034655Y-82000789D01*
X91025823Y-81996289D01*
X91025822Y-81996288D01*
X90981381Y-81973644D01*
X90928108Y-81946500D01*
X90810000Y-81927794D01*
X90691892Y-81946500D01*
X90638619Y-81973644D01*
X90594178Y-81996288D01*
X90594177Y-81996289D01*
X90585345Y-82000789D01*
X90500789Y-82085345D01*
X90446500Y-82191892D01*
X90427794Y-82310000D01*
X84147500Y-82310000D01*
X84147500Y-81626000D01*
X88717794Y-81626000D01*
X88736500Y-81744108D01*
X88753005Y-81776500D01*
X88780667Y-81830789D01*
X88790789Y-81850655D01*
X88875345Y-81935211D01*
X88884177Y-81939711D01*
X88884178Y-81939712D01*
X88906334Y-81951001D01*
X88981892Y-81989500D01*
X89100000Y-82008206D01*
X89218108Y-81989500D01*
X89293666Y-81951001D01*
X89315822Y-81939712D01*
X89315823Y-81939711D01*
X89324655Y-81935211D01*
X89409211Y-81850655D01*
X89419334Y-81830789D01*
X89446995Y-81776500D01*
X89463500Y-81744108D01*
X89482206Y-81626000D01*
X89463500Y-81507892D01*
X89409211Y-81401345D01*
X89324655Y-81316789D01*
X89315823Y-81312289D01*
X89315822Y-81312288D01*
X89271382Y-81289645D01*
X89218108Y-81262500D01*
X89100000Y-81243794D01*
X88981892Y-81262500D01*
X88928618Y-81289645D01*
X88884178Y-81312288D01*
X88884177Y-81312289D01*
X88875345Y-81316789D01*
X88790789Y-81401345D01*
X88736500Y-81507892D01*
X88717794Y-81626000D01*
X84147500Y-81626000D01*
X84147500Y-80838600D01*
X85314194Y-80838600D01*
X85332900Y-80956708D01*
X85337401Y-80965541D01*
X85370753Y-81030997D01*
X85387189Y-81063255D01*
X85471745Y-81147811D01*
X85480577Y-81152311D01*
X85480578Y-81152312D01*
X85492389Y-81158330D01*
X85578292Y-81202100D01*
X85696400Y-81220806D01*
X85814508Y-81202100D01*
X85900411Y-81158330D01*
X85912222Y-81152312D01*
X85912223Y-81152311D01*
X85921055Y-81147811D01*
X86005611Y-81063255D01*
X86022048Y-81030997D01*
X86055399Y-80965541D01*
X86059900Y-80956708D01*
X86078606Y-80838600D01*
X86072387Y-80799331D01*
X89435136Y-80799331D01*
X89453842Y-80917439D01*
X89508131Y-81023986D01*
X89592687Y-81108542D01*
X89601519Y-81113042D01*
X89601520Y-81113043D01*
X89645960Y-81135686D01*
X89699234Y-81162831D01*
X89817342Y-81181537D01*
X89935450Y-81162831D01*
X89988724Y-81135686D01*
X90033164Y-81113043D01*
X90033165Y-81113042D01*
X90041997Y-81108542D01*
X90126553Y-81023986D01*
X90180842Y-80917439D01*
X90199548Y-80799331D01*
X90180842Y-80681223D01*
X90176341Y-80672389D01*
X90173827Y-80664652D01*
X90171800Y-80593684D01*
X90208462Y-80532886D01*
X90272175Y-80501561D01*
X90342708Y-80509655D01*
X90382755Y-80536621D01*
X90395345Y-80549211D01*
X90404177Y-80553711D01*
X90404178Y-80553712D01*
X90445322Y-80574676D01*
X90501892Y-80603500D01*
X90620000Y-80622206D01*
X90738108Y-80603500D01*
X90794678Y-80574676D01*
X90835822Y-80553712D01*
X90835823Y-80553711D01*
X90844655Y-80549211D01*
X90853866Y-80540000D01*
X92457794Y-80540000D01*
X92476500Y-80658108D01*
X92530789Y-80764655D01*
X92615345Y-80849211D01*
X92624177Y-80853711D01*
X92624178Y-80853712D01*
X92668618Y-80876355D01*
X92721892Y-80903500D01*
X92840000Y-80922206D01*
X92958108Y-80903500D01*
X93011382Y-80876355D01*
X93055822Y-80853712D01*
X93055823Y-80853711D01*
X93064655Y-80849211D01*
X93149211Y-80764655D01*
X93203500Y-80658108D01*
X93222206Y-80540000D01*
X93203500Y-80421892D01*
X93149211Y-80315345D01*
X93064655Y-80230789D01*
X93055823Y-80226289D01*
X93055822Y-80226288D01*
X93011381Y-80203644D01*
X92958108Y-80176500D01*
X92840000Y-80157794D01*
X92721892Y-80176500D01*
X92668619Y-80203644D01*
X92624178Y-80226288D01*
X92624177Y-80226289D01*
X92615345Y-80230789D01*
X92530789Y-80315345D01*
X92476500Y-80421892D01*
X92457794Y-80540000D01*
X90853866Y-80540000D01*
X90929211Y-80464655D01*
X90941605Y-80440332D01*
X90956356Y-80411381D01*
X90983500Y-80358108D01*
X91002206Y-80240000D01*
X90983500Y-80121892D01*
X90947662Y-80051556D01*
X90933714Y-80024182D01*
X90933713Y-80024181D01*
X90929211Y-80015345D01*
X90922196Y-80008330D01*
X90917627Y-80002042D01*
X90900541Y-79954159D01*
X90848684Y-79934818D01*
X90844655Y-79930789D01*
X90738108Y-79876500D01*
X90620000Y-79857794D01*
X90501892Y-79876500D01*
X90488154Y-79883500D01*
X90404178Y-79926288D01*
X90404177Y-79926289D01*
X90395345Y-79930789D01*
X90310789Y-80015345D01*
X90306289Y-80024177D01*
X90306288Y-80024178D01*
X90292338Y-80051556D01*
X90256500Y-80121892D01*
X90237794Y-80240000D01*
X90256500Y-80358108D01*
X90261001Y-80366941D01*
X90263515Y-80374679D01*
X90265542Y-80445647D01*
X90228880Y-80506445D01*
X90165167Y-80537770D01*
X90094634Y-80529676D01*
X90054587Y-80502710D01*
X90041997Y-80490120D01*
X90033165Y-80485620D01*
X90033164Y-80485619D01*
X89974684Y-80455822D01*
X89935450Y-80435831D01*
X89817342Y-80417125D01*
X89699234Y-80435831D01*
X89660000Y-80455822D01*
X89601520Y-80485619D01*
X89601519Y-80485620D01*
X89592687Y-80490120D01*
X89508131Y-80574676D01*
X89503631Y-80583508D01*
X89503630Y-80583509D01*
X89488122Y-80613945D01*
X89453842Y-80681223D01*
X89435136Y-80799331D01*
X86072387Y-80799331D01*
X86059900Y-80720492D01*
X86005611Y-80613945D01*
X85921055Y-80529389D01*
X85912223Y-80524889D01*
X85912222Y-80524888D01*
X85835152Y-80485619D01*
X85814508Y-80475100D01*
X85696400Y-80456394D01*
X85578292Y-80475100D01*
X85557648Y-80485619D01*
X85480578Y-80524888D01*
X85480577Y-80524889D01*
X85471745Y-80529389D01*
X85387189Y-80613945D01*
X85332900Y-80720492D01*
X85314194Y-80838600D01*
X84147500Y-80838600D01*
X84147500Y-79650000D01*
X87097794Y-79650000D01*
X87116500Y-79768108D01*
X87170789Y-79874655D01*
X87255345Y-79959211D01*
X87264177Y-79963711D01*
X87264178Y-79963712D01*
X87288387Y-79976047D01*
X87361892Y-80013500D01*
X87480000Y-80032206D01*
X87598108Y-80013500D01*
X87671613Y-79976047D01*
X87695822Y-79963712D01*
X87695823Y-79963711D01*
X87704655Y-79959211D01*
X87789211Y-79874655D01*
X87843500Y-79768108D01*
X87862206Y-79650000D01*
X87843500Y-79531892D01*
X87837441Y-79520000D01*
X90937794Y-79520000D01*
X90956500Y-79638108D01*
X91010789Y-79744655D01*
X91017804Y-79751670D01*
X91022373Y-79757958D01*
X91039459Y-79805841D01*
X91091316Y-79825182D01*
X91095345Y-79829211D01*
X91201892Y-79883500D01*
X91320000Y-79902206D01*
X91438108Y-79883500D01*
X91491381Y-79856356D01*
X91535822Y-79833712D01*
X91535823Y-79833711D01*
X91544655Y-79829211D01*
X91629211Y-79744655D01*
X91683500Y-79638108D01*
X91702206Y-79520000D01*
X91688650Y-79434408D01*
X91697750Y-79363997D01*
X91743472Y-79309683D01*
X91793387Y-79290250D01*
X91871002Y-79277957D01*
X91900716Y-79273251D01*
X91900717Y-79273251D01*
X91910508Y-79271700D01*
X91963782Y-79244555D01*
X92008222Y-79221912D01*
X92008223Y-79221911D01*
X92017055Y-79217411D01*
X92101611Y-79132855D01*
X92155900Y-79026308D01*
X92174606Y-78908200D01*
X92173055Y-78898407D01*
X92173055Y-78888490D01*
X92174749Y-78888490D01*
X92182381Y-78829432D01*
X92228103Y-78775117D01*
X92295931Y-78754144D01*
X92314268Y-78755455D01*
X92316007Y-78755455D01*
X92325800Y-78757006D01*
X92343871Y-78754144D01*
X92434115Y-78739851D01*
X92443908Y-78738300D01*
X92497182Y-78711155D01*
X92541622Y-78688512D01*
X92541623Y-78688511D01*
X92550455Y-78684011D01*
X92635011Y-78599455D01*
X92689300Y-78492908D01*
X92708006Y-78374800D01*
X92689300Y-78256692D01*
X92635011Y-78150145D01*
X92550455Y-78065589D01*
X92541623Y-78061089D01*
X92541622Y-78061088D01*
X92484184Y-78031822D01*
X92443908Y-78011300D01*
X92325800Y-77992594D01*
X92326406Y-77988768D01*
X92276597Y-77974143D01*
X92230104Y-77920487D01*
X92220269Y-77848435D01*
X92223855Y-77825793D01*
X92225406Y-77816000D01*
X92206700Y-77697892D01*
X92152411Y-77591345D01*
X92067855Y-77506789D01*
X92059023Y-77502289D01*
X92059022Y-77502288D01*
X92014582Y-77479645D01*
X91961308Y-77452500D01*
X91843200Y-77433794D01*
X91725092Y-77452500D01*
X91671818Y-77479645D01*
X91627378Y-77502288D01*
X91627377Y-77502289D01*
X91618545Y-77506789D01*
X91533989Y-77591345D01*
X91479700Y-77697892D01*
X91460994Y-77816000D01*
X91479700Y-77934108D01*
X91533989Y-78040655D01*
X91618545Y-78125211D01*
X91627377Y-78129711D01*
X91627378Y-78129712D01*
X91653720Y-78143134D01*
X91725092Y-78179500D01*
X91734885Y-78181051D01*
X91843200Y-78198206D01*
X91842594Y-78202032D01*
X91892403Y-78216657D01*
X91938896Y-78270313D01*
X91948731Y-78342365D01*
X91943594Y-78374800D01*
X91945145Y-78384593D01*
X91945145Y-78394510D01*
X91943451Y-78394510D01*
X91935819Y-78453568D01*
X91890097Y-78507883D01*
X91822269Y-78528856D01*
X91803932Y-78527545D01*
X91802193Y-78527545D01*
X91792400Y-78525994D01*
X91782607Y-78527545D01*
X91733346Y-78535347D01*
X91674292Y-78544700D01*
X91621019Y-78571844D01*
X91576578Y-78594488D01*
X91576577Y-78594489D01*
X91567745Y-78598989D01*
X91483189Y-78683545D01*
X91478689Y-78692377D01*
X91478688Y-78692378D01*
X91463846Y-78721508D01*
X91428900Y-78790092D01*
X91410194Y-78908200D01*
X91411745Y-78917993D01*
X91423750Y-78993792D01*
X91414650Y-79064203D01*
X91368928Y-79118517D01*
X91319013Y-79137950D01*
X91241398Y-79150243D01*
X91211684Y-79154949D01*
X91211683Y-79154949D01*
X91201892Y-79156500D01*
X91148618Y-79183645D01*
X91104178Y-79206288D01*
X91104177Y-79206289D01*
X91095345Y-79210789D01*
X91010789Y-79295345D01*
X90956500Y-79401892D01*
X90937794Y-79520000D01*
X87837441Y-79520000D01*
X87803943Y-79454258D01*
X87793712Y-79434178D01*
X87793711Y-79434177D01*
X87789211Y-79425345D01*
X87704655Y-79340789D01*
X87695823Y-79336289D01*
X87695822Y-79336288D01*
X87643607Y-79309683D01*
X87598108Y-79286500D01*
X87480000Y-79267794D01*
X87361892Y-79286500D01*
X87316393Y-79309683D01*
X87264178Y-79336288D01*
X87264177Y-79336289D01*
X87255345Y-79340789D01*
X87170789Y-79425345D01*
X87166289Y-79434177D01*
X87166288Y-79434178D01*
X87156057Y-79454258D01*
X87116500Y-79531892D01*
X87097794Y-79650000D01*
X84147500Y-79650000D01*
X84147500Y-78603400D01*
X86025394Y-78603400D01*
X86044100Y-78721508D01*
X86060729Y-78754144D01*
X86084036Y-78799885D01*
X86098389Y-78828055D01*
X86182945Y-78912611D01*
X86191777Y-78917111D01*
X86191778Y-78917112D01*
X86236219Y-78939756D01*
X86289492Y-78966900D01*
X86407600Y-78985606D01*
X86525708Y-78966900D01*
X86578981Y-78939756D01*
X86623422Y-78917112D01*
X86623423Y-78917111D01*
X86632255Y-78912611D01*
X86716811Y-78828055D01*
X86731165Y-78799885D01*
X86754471Y-78754144D01*
X86771100Y-78721508D01*
X86789806Y-78603400D01*
X86771100Y-78485292D01*
X86716811Y-78378745D01*
X86632255Y-78294189D01*
X86623423Y-78289689D01*
X86623422Y-78289688D01*
X86541328Y-78247859D01*
X86525708Y-78239900D01*
X86407600Y-78221194D01*
X86289492Y-78239900D01*
X86273872Y-78247859D01*
X86191778Y-78289688D01*
X86191777Y-78289689D01*
X86182945Y-78294189D01*
X86098389Y-78378745D01*
X86044100Y-78485292D01*
X86025394Y-78603400D01*
X84147500Y-78603400D01*
X84147500Y-76495200D01*
X90800594Y-76495200D01*
X90819300Y-76613308D01*
X90873589Y-76719855D01*
X90958145Y-76804411D01*
X90966977Y-76808911D01*
X90966978Y-76808912D01*
X91011418Y-76831555D01*
X91064692Y-76858700D01*
X91182800Y-76877406D01*
X91300908Y-76858700D01*
X91354182Y-76831555D01*
X91398622Y-76808912D01*
X91398623Y-76808911D01*
X91407455Y-76804411D01*
X91492011Y-76719855D01*
X91546300Y-76613308D01*
X91565006Y-76495200D01*
X91546300Y-76377092D01*
X91492011Y-76270545D01*
X91407455Y-76185989D01*
X91398623Y-76181489D01*
X91398622Y-76181488D01*
X91329591Y-76146315D01*
X91300908Y-76131700D01*
X91182800Y-76112994D01*
X91064692Y-76131700D01*
X91036009Y-76146315D01*
X90966978Y-76181488D01*
X90966977Y-76181489D01*
X90958145Y-76185989D01*
X90873589Y-76270545D01*
X90819300Y-76377092D01*
X90800594Y-76495200D01*
X84147500Y-76495200D01*
X84147500Y-76038000D01*
X87193794Y-76038000D01*
X87212500Y-76156108D01*
X87266789Y-76262655D01*
X87351345Y-76347211D01*
X87360177Y-76351711D01*
X87360178Y-76351712D01*
X87404619Y-76374356D01*
X87457892Y-76401500D01*
X87576000Y-76420206D01*
X87694108Y-76401500D01*
X87747381Y-76374356D01*
X87791822Y-76351712D01*
X87791823Y-76351711D01*
X87800655Y-76347211D01*
X87885211Y-76262655D01*
X87939500Y-76156108D01*
X87958206Y-76038000D01*
X87957410Y-76032971D01*
X87976657Y-75967420D01*
X88030313Y-75920927D01*
X88089690Y-75912822D01*
X88089690Y-75910655D01*
X88099607Y-75910655D01*
X88109400Y-75912206D01*
X88227508Y-75893500D01*
X88280781Y-75866356D01*
X88325222Y-75843712D01*
X88325223Y-75843711D01*
X88334055Y-75839211D01*
X88418611Y-75754655D01*
X88424728Y-75742651D01*
X88463828Y-75665912D01*
X88472900Y-75648108D01*
X88491606Y-75530000D01*
X88481321Y-75465060D01*
X88490421Y-75394649D01*
X88504773Y-75377600D01*
X89378194Y-75377600D01*
X89396900Y-75495708D01*
X89451189Y-75602255D01*
X89535745Y-75686811D01*
X89544577Y-75691311D01*
X89544578Y-75691312D01*
X89583609Y-75711199D01*
X89642292Y-75741100D01*
X89760400Y-75759806D01*
X89878508Y-75741100D01*
X89937191Y-75711199D01*
X89976222Y-75691312D01*
X89976223Y-75691311D01*
X89985055Y-75686811D01*
X90069611Y-75602255D01*
X90123900Y-75495708D01*
X90142606Y-75377600D01*
X90123900Y-75259492D01*
X90078533Y-75170455D01*
X90074112Y-75161778D01*
X90074111Y-75161777D01*
X90069611Y-75152945D01*
X89985055Y-75068389D01*
X89976223Y-75063889D01*
X89976222Y-75063888D01*
X89926372Y-75038488D01*
X89878508Y-75014100D01*
X89819454Y-75004747D01*
X89770193Y-74996945D01*
X89760400Y-74995394D01*
X89750607Y-74996945D01*
X89701346Y-75004747D01*
X89642292Y-75014100D01*
X89594428Y-75038488D01*
X89544578Y-75063888D01*
X89544577Y-75063889D01*
X89535745Y-75068389D01*
X89451189Y-75152945D01*
X89446689Y-75161777D01*
X89446688Y-75161778D01*
X89442267Y-75170455D01*
X89396900Y-75259492D01*
X89378194Y-75377600D01*
X88504773Y-75377600D01*
X88536143Y-75340335D01*
X88586060Y-75320901D01*
X88634842Y-75313175D01*
X88659308Y-75309300D01*
X88755964Y-75260051D01*
X88757022Y-75259512D01*
X88757023Y-75259511D01*
X88765855Y-75255011D01*
X88850411Y-75170455D01*
X88858338Y-75154899D01*
X88900199Y-75072741D01*
X88904700Y-75063908D01*
X88917710Y-74981766D01*
X88921855Y-74955593D01*
X88923406Y-74945800D01*
X88904700Y-74827692D01*
X88850411Y-74721145D01*
X88765855Y-74636589D01*
X88757023Y-74632089D01*
X88757022Y-74632088D01*
X88707668Y-74606941D01*
X88659308Y-74582300D01*
X88541200Y-74563594D01*
X88423092Y-74582300D01*
X88374732Y-74606941D01*
X88325378Y-74632088D01*
X88325377Y-74632089D01*
X88316545Y-74636589D01*
X88231989Y-74721145D01*
X88177700Y-74827692D01*
X88158994Y-74945800D01*
X88160545Y-74955593D01*
X88169279Y-75010740D01*
X88160179Y-75081151D01*
X88114457Y-75135465D01*
X88064540Y-75154899D01*
X87991292Y-75166500D01*
X87938018Y-75193645D01*
X87893578Y-75216288D01*
X87893577Y-75216289D01*
X87884745Y-75220789D01*
X87800189Y-75305345D01*
X87795689Y-75314177D01*
X87795688Y-75314178D01*
X87781305Y-75342407D01*
X87745900Y-75411892D01*
X87727194Y-75530000D01*
X87727990Y-75535029D01*
X87708743Y-75600580D01*
X87655087Y-75647073D01*
X87595710Y-75655178D01*
X87595710Y-75657345D01*
X87585793Y-75657345D01*
X87576000Y-75655794D01*
X87457892Y-75674500D01*
X87433731Y-75686811D01*
X87360178Y-75724288D01*
X87360177Y-75724289D01*
X87351345Y-75728789D01*
X87266789Y-75813345D01*
X87212500Y-75919892D01*
X87193794Y-76038000D01*
X84147500Y-76038000D01*
X84147500Y-75352200D01*
X85161794Y-75352200D01*
X85180500Y-75470308D01*
X85234789Y-75576855D01*
X85319345Y-75661411D01*
X85328177Y-75665911D01*
X85328178Y-75665912D01*
X85341989Y-75672949D01*
X85425892Y-75715700D01*
X85544000Y-75734406D01*
X85662108Y-75715700D01*
X85746011Y-75672949D01*
X85759822Y-75665912D01*
X85759823Y-75665911D01*
X85768655Y-75661411D01*
X85853211Y-75576855D01*
X85907500Y-75470308D01*
X85915798Y-75417913D01*
X85946210Y-75353761D01*
X86006478Y-75316234D01*
X86059957Y-75313175D01*
X86143807Y-75326455D01*
X86153600Y-75328006D01*
X86271708Y-75309300D01*
X86368364Y-75260051D01*
X86369422Y-75259512D01*
X86369423Y-75259511D01*
X86378255Y-75255011D01*
X86462811Y-75170455D01*
X86470738Y-75154899D01*
X86512599Y-75072741D01*
X86517100Y-75063908D01*
X86530110Y-74981766D01*
X86534255Y-74955593D01*
X86535806Y-74945800D01*
X86517100Y-74827692D01*
X86462811Y-74721145D01*
X86378255Y-74636589D01*
X86369423Y-74632089D01*
X86369422Y-74632088D01*
X86320068Y-74606941D01*
X86271708Y-74582300D01*
X86153600Y-74563594D01*
X86035492Y-74582300D01*
X85987132Y-74606941D01*
X85937778Y-74632088D01*
X85937777Y-74632089D01*
X85928945Y-74636589D01*
X85844389Y-74721145D01*
X85790100Y-74827692D01*
X85788549Y-74837483D01*
X85788549Y-74837484D01*
X85781802Y-74880086D01*
X85751390Y-74944239D01*
X85691122Y-74981766D01*
X85637643Y-74984825D01*
X85553793Y-74971545D01*
X85544000Y-74969994D01*
X85425892Y-74988700D01*
X85397209Y-75003315D01*
X85328178Y-75038488D01*
X85328177Y-75038489D01*
X85319345Y-75042989D01*
X85234789Y-75127545D01*
X85230289Y-75136377D01*
X85230288Y-75136378D01*
X85212925Y-75170455D01*
X85180500Y-75234092D01*
X85178949Y-75243885D01*
X85165872Y-75326455D01*
X85161794Y-75352200D01*
X84147500Y-75352200D01*
X84147500Y-74480000D01*
X84647794Y-74480000D01*
X84666500Y-74598108D01*
X84671001Y-74606941D01*
X84707808Y-74679178D01*
X84720789Y-74704655D01*
X84805345Y-74789211D01*
X84814177Y-74793711D01*
X84814178Y-74793712D01*
X84858619Y-74816356D01*
X84911892Y-74843500D01*
X85030000Y-74862206D01*
X85148108Y-74843500D01*
X85201381Y-74816356D01*
X85245822Y-74793712D01*
X85245823Y-74793711D01*
X85254655Y-74789211D01*
X85339211Y-74704655D01*
X85352193Y-74679178D01*
X85388999Y-74606941D01*
X85393500Y-74598108D01*
X85412206Y-74480000D01*
X85393500Y-74361892D01*
X85339211Y-74255345D01*
X85254655Y-74170789D01*
X85245823Y-74166289D01*
X85245822Y-74166288D01*
X85188009Y-74136831D01*
X85148108Y-74116500D01*
X85030000Y-74097794D01*
X84911892Y-74116500D01*
X84871991Y-74136831D01*
X84814178Y-74166288D01*
X84814177Y-74166289D01*
X84805345Y-74170789D01*
X84720789Y-74255345D01*
X84666500Y-74361892D01*
X84647794Y-74480000D01*
X84147500Y-74480000D01*
X84147500Y-73450000D01*
X84657794Y-73450000D01*
X84676500Y-73568108D01*
X84730789Y-73674655D01*
X84815345Y-73759211D01*
X84824177Y-73763711D01*
X84824178Y-73763712D01*
X84840152Y-73771851D01*
X84921892Y-73813500D01*
X85040000Y-73832206D01*
X85158108Y-73813500D01*
X85239848Y-73771851D01*
X85255822Y-73763712D01*
X85255823Y-73763711D01*
X85264655Y-73759211D01*
X85349211Y-73674655D01*
X85403500Y-73568108D01*
X85422206Y-73450000D01*
X85413634Y-73395874D01*
X85405051Y-73341685D01*
X85403500Y-73331892D01*
X85356469Y-73239589D01*
X85353712Y-73234178D01*
X85353711Y-73234177D01*
X85349211Y-73225345D01*
X85264655Y-73140789D01*
X85255823Y-73136289D01*
X85255822Y-73136288D01*
X85173783Y-73094487D01*
X85158108Y-73086500D01*
X85040000Y-73067794D01*
X84921892Y-73086500D01*
X84906217Y-73094487D01*
X84824178Y-73136288D01*
X84824177Y-73136289D01*
X84815345Y-73140789D01*
X84730789Y-73225345D01*
X84726289Y-73234177D01*
X84726288Y-73234178D01*
X84723531Y-73239589D01*
X84676500Y-73331892D01*
X84674949Y-73341685D01*
X84666367Y-73395874D01*
X84657794Y-73450000D01*
X84147500Y-73450000D01*
X84147500Y-71492111D01*
X84167502Y-71423990D01*
X84221158Y-71377497D01*
X84291432Y-71367393D01*
X84347391Y-71392950D01*
X84348078Y-71391922D01*
X84354421Y-71396161D01*
X84354424Y-71396163D01*
X84390252Y-71420102D01*
X84402422Y-71422523D01*
X84421377Y-71426294D01*
X84421382Y-71426294D01*
X84427442Y-71427500D01*
X86152558Y-71427500D01*
X86158618Y-71426294D01*
X86158623Y-71426294D01*
X86177578Y-71422523D01*
X86189748Y-71420102D01*
X86231922Y-71391922D01*
X86241561Y-71377497D01*
X86253208Y-71360066D01*
X86253209Y-71360065D01*
X86260102Y-71349748D01*
X86267500Y-71312558D01*
X86267500Y-69587442D01*
X86260102Y-69550252D01*
X86243861Y-69525945D01*
X86238815Y-69518394D01*
X86231922Y-69508078D01*
X86189748Y-69479898D01*
X86177578Y-69477477D01*
X86158623Y-69473706D01*
X86158618Y-69473706D01*
X86152558Y-69472500D01*
X84427442Y-69472500D01*
X84421382Y-69473706D01*
X84421377Y-69473706D01*
X84402422Y-69477477D01*
X84390252Y-69479898D01*
X84379935Y-69486791D01*
X84379934Y-69486792D01*
X84354422Y-69503839D01*
X84348078Y-69508078D01*
X84346528Y-69505758D01*
X84300283Y-69531010D01*
X84229468Y-69525945D01*
X84172632Y-69483398D01*
X84147821Y-69416878D01*
X84147500Y-69407889D01*
X84147500Y-63338000D01*
X87193794Y-63338000D01*
X87212500Y-63456108D01*
X87266789Y-63562655D01*
X87351345Y-63647211D01*
X87360177Y-63651711D01*
X87360178Y-63651712D01*
X87404619Y-63674356D01*
X87457892Y-63701500D01*
X87576000Y-63720206D01*
X87694108Y-63701500D01*
X87747381Y-63674356D01*
X87791822Y-63651712D01*
X87791823Y-63651711D01*
X87800655Y-63647211D01*
X87885211Y-63562655D01*
X87939500Y-63456108D01*
X87958206Y-63338000D01*
X87939500Y-63219892D01*
X87885211Y-63113345D01*
X87800655Y-63028789D01*
X87780397Y-63018467D01*
X87728782Y-62969719D01*
X87711716Y-62900804D01*
X87734617Y-62833602D01*
X87780397Y-62793933D01*
X87791823Y-62788111D01*
X87800655Y-62783611D01*
X87885211Y-62699055D01*
X87892722Y-62684315D01*
X87934999Y-62601341D01*
X87939500Y-62592508D01*
X87958206Y-62474400D01*
X87939500Y-62356292D01*
X87897468Y-62273800D01*
X87889712Y-62258578D01*
X87889711Y-62258577D01*
X87885211Y-62249745D01*
X87800655Y-62165189D01*
X87730547Y-62129467D01*
X87678932Y-62080718D01*
X87661866Y-62011804D01*
X87684767Y-61944602D01*
X87730547Y-61904933D01*
X87800655Y-61869211D01*
X87885211Y-61784655D01*
X87939500Y-61678108D01*
X87958206Y-61560000D01*
X87939500Y-61441892D01*
X87885211Y-61335345D01*
X87800655Y-61250789D01*
X87791823Y-61246289D01*
X87791822Y-61246288D01*
X87747382Y-61223645D01*
X87694108Y-61196500D01*
X87576000Y-61177794D01*
X87457892Y-61196500D01*
X87404618Y-61223645D01*
X87360178Y-61246288D01*
X87360177Y-61246289D01*
X87351345Y-61250789D01*
X87266789Y-61335345D01*
X87212500Y-61441892D01*
X87193794Y-61560000D01*
X87212500Y-61678108D01*
X87266789Y-61784655D01*
X87351345Y-61869211D01*
X87421453Y-61904933D01*
X87473068Y-61953682D01*
X87490134Y-62022596D01*
X87467233Y-62089798D01*
X87421454Y-62129467D01*
X87351345Y-62165189D01*
X87266789Y-62249745D01*
X87262289Y-62258577D01*
X87262288Y-62258578D01*
X87254532Y-62273800D01*
X87212500Y-62356292D01*
X87193794Y-62474400D01*
X87212500Y-62592508D01*
X87217001Y-62601341D01*
X87259279Y-62684315D01*
X87266789Y-62699055D01*
X87351345Y-62783611D01*
X87360177Y-62788111D01*
X87371603Y-62793933D01*
X87423218Y-62842681D01*
X87440284Y-62911596D01*
X87417383Y-62978798D01*
X87371603Y-63018467D01*
X87351345Y-63028789D01*
X87266789Y-63113345D01*
X87212500Y-63219892D01*
X87193794Y-63338000D01*
X84147500Y-63338000D01*
X84147500Y-62576000D01*
X85415794Y-62576000D01*
X85434500Y-62694108D01*
X85439001Y-62702941D01*
X85480105Y-62783611D01*
X85488789Y-62800655D01*
X85573345Y-62885211D01*
X85582177Y-62889711D01*
X85582178Y-62889712D01*
X85625128Y-62911596D01*
X85679892Y-62939500D01*
X85798000Y-62958206D01*
X85916108Y-62939500D01*
X85970872Y-62911596D01*
X86013822Y-62889712D01*
X86013823Y-62889711D01*
X86022655Y-62885211D01*
X86107211Y-62800655D01*
X86115896Y-62783611D01*
X86156999Y-62702941D01*
X86161500Y-62694108D01*
X86180206Y-62576000D01*
X86161500Y-62457892D01*
X86134355Y-62404618D01*
X86111712Y-62360178D01*
X86111711Y-62360177D01*
X86107211Y-62351345D01*
X86022655Y-62266789D01*
X86013823Y-62262289D01*
X86013822Y-62262288D01*
X85969382Y-62239645D01*
X85916108Y-62212500D01*
X85798000Y-62193794D01*
X85679892Y-62212500D01*
X85626618Y-62239645D01*
X85582178Y-62262288D01*
X85582177Y-62262289D01*
X85573345Y-62266789D01*
X85488789Y-62351345D01*
X85484289Y-62360177D01*
X85484288Y-62360178D01*
X85461645Y-62404618D01*
X85434500Y-62457892D01*
X85415794Y-62576000D01*
X84147500Y-62576000D01*
X84147500Y-59540000D01*
X89117794Y-59540000D01*
X89136500Y-59658108D01*
X89190789Y-59764655D01*
X89275345Y-59849211D01*
X89284177Y-59853711D01*
X89284178Y-59853712D01*
X89328619Y-59876356D01*
X89381892Y-59903500D01*
X89500000Y-59922206D01*
X89618108Y-59903500D01*
X89671381Y-59876356D01*
X89715822Y-59853712D01*
X89715823Y-59853711D01*
X89724655Y-59849211D01*
X89760905Y-59812961D01*
X89823217Y-59778935D01*
X89894032Y-59784000D01*
X89939095Y-59812961D01*
X89975345Y-59849211D01*
X89984177Y-59853711D01*
X89984178Y-59853712D01*
X90028619Y-59876356D01*
X90081892Y-59903500D01*
X90200000Y-59922206D01*
X90318108Y-59903500D01*
X90371381Y-59876356D01*
X90415822Y-59853712D01*
X90415823Y-59853711D01*
X90424655Y-59849211D01*
X90509211Y-59764655D01*
X90563500Y-59658108D01*
X90582206Y-59540000D01*
X90563500Y-59421892D01*
X90509211Y-59315345D01*
X90424655Y-59230789D01*
X90415823Y-59226289D01*
X90415822Y-59226288D01*
X90371382Y-59203645D01*
X90318108Y-59176500D01*
X90200000Y-59157794D01*
X90081892Y-59176500D01*
X90028618Y-59203645D01*
X89984178Y-59226288D01*
X89984177Y-59226289D01*
X89975345Y-59230789D01*
X89939095Y-59267039D01*
X89876783Y-59301065D01*
X89805968Y-59296000D01*
X89760905Y-59267039D01*
X89724655Y-59230789D01*
X89715823Y-59226289D01*
X89715822Y-59226288D01*
X89671382Y-59203645D01*
X89618108Y-59176500D01*
X89500000Y-59157794D01*
X89381892Y-59176500D01*
X89328618Y-59203645D01*
X89284178Y-59226288D01*
X89284177Y-59226289D01*
X89275345Y-59230789D01*
X89190789Y-59315345D01*
X89136500Y-59421892D01*
X89117794Y-59540000D01*
X84147500Y-59540000D01*
X84147500Y-56252111D01*
X84167502Y-56183990D01*
X84221158Y-56137497D01*
X84291432Y-56127393D01*
X84347391Y-56152950D01*
X84348078Y-56151922D01*
X84354421Y-56156161D01*
X84354424Y-56156163D01*
X84390252Y-56180102D01*
X84402422Y-56182523D01*
X84421377Y-56186294D01*
X84421382Y-56186294D01*
X84427442Y-56187500D01*
X86152558Y-56187500D01*
X86158618Y-56186294D01*
X86158623Y-56186294D01*
X86177578Y-56182523D01*
X86189748Y-56180102D01*
X86231922Y-56151922D01*
X86241561Y-56137497D01*
X86253208Y-56120066D01*
X86253209Y-56120065D01*
X86260102Y-56109748D01*
X86267500Y-56072558D01*
X86267500Y-54347442D01*
X86260102Y-54310252D01*
X86243861Y-54285945D01*
X86238815Y-54278394D01*
X86231922Y-54268078D01*
X86189748Y-54239898D01*
X86177578Y-54237477D01*
X86158623Y-54233706D01*
X86158618Y-54233706D01*
X86152558Y-54232500D01*
X84427442Y-54232500D01*
X84421382Y-54233706D01*
X84421377Y-54233706D01*
X84402422Y-54237477D01*
X84390252Y-54239898D01*
X84379935Y-54246791D01*
X84379934Y-54246792D01*
X84354422Y-54263839D01*
X84348078Y-54268078D01*
X84346528Y-54265758D01*
X84300283Y-54291010D01*
X84229468Y-54285945D01*
X84172632Y-54243398D01*
X84147821Y-54176878D01*
X84147500Y-54167889D01*
X84147500Y-48632111D01*
X84167502Y-48563990D01*
X84221158Y-48517497D01*
X84291432Y-48507393D01*
X84347391Y-48532950D01*
X84348078Y-48531922D01*
X84354421Y-48536161D01*
X84354424Y-48536163D01*
X84390252Y-48560102D01*
X84402422Y-48562523D01*
X84421377Y-48566294D01*
X84421382Y-48566294D01*
X84427442Y-48567500D01*
X84848570Y-48567500D01*
X84916691Y-48587502D01*
X84963184Y-48641158D01*
X84973288Y-48711432D01*
X84960836Y-48750704D01*
X84926500Y-48818092D01*
X84907794Y-48936200D01*
X84926500Y-49054308D01*
X84980789Y-49160855D01*
X85065345Y-49245411D01*
X85074177Y-49249911D01*
X85074178Y-49249912D01*
X85118618Y-49272555D01*
X85171892Y-49299700D01*
X85290000Y-49318406D01*
X85408108Y-49299700D01*
X85461382Y-49272555D01*
X85505822Y-49249912D01*
X85505823Y-49249911D01*
X85514655Y-49245411D01*
X85599211Y-49160855D01*
X85653500Y-49054308D01*
X85672206Y-48936200D01*
X85653500Y-48818092D01*
X85619164Y-48750704D01*
X85606059Y-48680927D01*
X85632759Y-48615142D01*
X85690786Y-48574235D01*
X85731430Y-48567500D01*
X86152558Y-48567500D01*
X86158618Y-48566294D01*
X86158623Y-48566294D01*
X86177578Y-48562523D01*
X86189748Y-48560102D01*
X86231922Y-48531922D01*
X86241561Y-48517497D01*
X86253208Y-48500066D01*
X86253209Y-48500065D01*
X86260102Y-48489748D01*
X86267500Y-48452558D01*
X86267500Y-46727442D01*
X86260102Y-46690252D01*
X86243861Y-46665945D01*
X86238815Y-46658394D01*
X86231922Y-46648078D01*
X86189748Y-46619898D01*
X86177578Y-46617477D01*
X86158623Y-46613706D01*
X86158618Y-46613706D01*
X86152558Y-46612500D01*
X84427442Y-46612500D01*
X84421382Y-46613706D01*
X84421377Y-46613706D01*
X84402422Y-46617477D01*
X84390252Y-46619898D01*
X84379935Y-46626791D01*
X84379934Y-46626792D01*
X84354422Y-46643839D01*
X84348078Y-46648078D01*
X84346528Y-46645758D01*
X84300283Y-46671010D01*
X84229468Y-46665945D01*
X84172632Y-46623398D01*
X84147821Y-46556878D01*
X84147500Y-46547889D01*
X84147500Y-46092111D01*
X84167502Y-46023990D01*
X84221158Y-45977497D01*
X84291432Y-45967393D01*
X84347391Y-45992950D01*
X84348078Y-45991922D01*
X84354421Y-45996161D01*
X84354424Y-45996163D01*
X84390252Y-46020102D01*
X84402422Y-46022523D01*
X84421377Y-46026294D01*
X84421382Y-46026294D01*
X84427442Y-46027500D01*
X86152558Y-46027500D01*
X86158618Y-46026294D01*
X86158623Y-46026294D01*
X86177578Y-46022523D01*
X86189748Y-46020102D01*
X86231922Y-45991922D01*
X86241561Y-45977497D01*
X86253208Y-45960066D01*
X86253209Y-45960065D01*
X86260102Y-45949748D01*
X86267500Y-45912558D01*
X86267500Y-44187442D01*
X86260102Y-44150252D01*
X86231922Y-44108078D01*
X86221606Y-44101185D01*
X86221605Y-44101184D01*
X86203377Y-44089004D01*
X86157850Y-44034527D01*
X86149003Y-43964084D01*
X86179645Y-43900040D01*
X86244238Y-43861656D01*
X86257608Y-43858477D01*
X86378054Y-43813324D01*
X86393649Y-43804786D01*
X86495724Y-43728285D01*
X86508285Y-43715724D01*
X86584786Y-43613649D01*
X86593324Y-43598054D01*
X86638478Y-43477606D01*
X86642105Y-43462351D01*
X86647631Y-43411486D01*
X86648000Y-43404672D01*
X86648000Y-42782115D01*
X86643525Y-42766876D01*
X86642135Y-42765671D01*
X86634452Y-42764000D01*
X85162000Y-42764000D01*
X85093879Y-42743998D01*
X85047386Y-42690342D01*
X85036000Y-42638000D01*
X85036000Y-42382000D01*
X85056002Y-42313879D01*
X85109658Y-42267386D01*
X85162000Y-42256000D01*
X86629884Y-42256000D01*
X86645123Y-42251525D01*
X86646328Y-42250135D01*
X86647999Y-42242452D01*
X86647999Y-41748000D01*
X87193794Y-41748000D01*
X87212500Y-41866108D01*
X87266789Y-41972655D01*
X87351345Y-42057211D01*
X87360177Y-42061711D01*
X87360178Y-42061712D01*
X87404619Y-42084356D01*
X87457892Y-42111500D01*
X87576000Y-42130206D01*
X87694108Y-42111500D01*
X87747382Y-42084355D01*
X87791822Y-42061712D01*
X87791823Y-42061711D01*
X87800655Y-42057211D01*
X87885211Y-41972655D01*
X87939500Y-41866108D01*
X87958206Y-41748000D01*
X90368794Y-41748000D01*
X90387500Y-41866108D01*
X90441789Y-41972655D01*
X90526345Y-42057211D01*
X90535177Y-42061711D01*
X90535178Y-42061712D01*
X90579619Y-42084356D01*
X90632892Y-42111500D01*
X90751000Y-42130206D01*
X90869108Y-42111500D01*
X90922382Y-42084355D01*
X90966822Y-42061712D01*
X90966823Y-42061711D01*
X90975655Y-42057211D01*
X91060211Y-41972655D01*
X91114500Y-41866108D01*
X91133206Y-41748000D01*
X91114500Y-41629892D01*
X91077690Y-41557649D01*
X91064712Y-41532178D01*
X91064711Y-41532177D01*
X91060211Y-41523345D01*
X90975655Y-41438789D01*
X90966823Y-41434289D01*
X90966822Y-41434288D01*
X90922381Y-41411644D01*
X90869108Y-41384500D01*
X90751000Y-41365794D01*
X90632892Y-41384500D01*
X90579619Y-41411644D01*
X90535178Y-41434288D01*
X90535177Y-41434289D01*
X90526345Y-41438789D01*
X90441789Y-41523345D01*
X90437289Y-41532177D01*
X90437288Y-41532178D01*
X90424310Y-41557649D01*
X90387500Y-41629892D01*
X90368794Y-41748000D01*
X87958206Y-41748000D01*
X87939500Y-41629892D01*
X87902690Y-41557649D01*
X87889712Y-41532178D01*
X87889711Y-41532177D01*
X87885211Y-41523345D01*
X87800655Y-41438789D01*
X87791823Y-41434289D01*
X87791822Y-41434288D01*
X87747381Y-41411644D01*
X87694108Y-41384500D01*
X87576000Y-41365794D01*
X87457892Y-41384500D01*
X87404619Y-41411644D01*
X87360178Y-41434288D01*
X87360177Y-41434289D01*
X87351345Y-41438789D01*
X87266789Y-41523345D01*
X87262289Y-41532177D01*
X87262288Y-41532178D01*
X87249310Y-41557649D01*
X87212500Y-41629892D01*
X87193794Y-41748000D01*
X86647999Y-41748000D01*
X86647999Y-41615331D01*
X86647629Y-41608510D01*
X86642105Y-41557648D01*
X86638479Y-41542396D01*
X86593324Y-41421946D01*
X86584786Y-41406351D01*
X86508285Y-41304276D01*
X86495724Y-41291715D01*
X86393649Y-41215214D01*
X86378054Y-41206676D01*
X86257601Y-41161520D01*
X86244232Y-41158341D01*
X86182586Y-41123123D01*
X86149767Y-41060168D01*
X86156194Y-40989462D01*
X86203377Y-40930995D01*
X86231922Y-40911922D01*
X86260102Y-40869748D01*
X86267500Y-40832558D01*
X86267500Y-40732000D01*
X87193794Y-40732000D01*
X87212500Y-40850108D01*
X87217001Y-40858941D01*
X87258355Y-40940102D01*
X87266789Y-40956655D01*
X87351345Y-41041211D01*
X87360177Y-41045711D01*
X87360178Y-41045712D01*
X87380205Y-41055916D01*
X87457892Y-41095500D01*
X87576000Y-41114206D01*
X87694108Y-41095500D01*
X87771795Y-41055916D01*
X87791822Y-41045712D01*
X87791823Y-41045711D01*
X87800655Y-41041211D01*
X87885211Y-40956655D01*
X87893646Y-40940102D01*
X87934999Y-40858941D01*
X87939500Y-40850108D01*
X87958206Y-40732000D01*
X90368794Y-40732000D01*
X90387500Y-40850108D01*
X90392001Y-40858941D01*
X90433355Y-40940102D01*
X90441789Y-40956655D01*
X90526345Y-41041211D01*
X90535177Y-41045711D01*
X90535178Y-41045712D01*
X90555205Y-41055916D01*
X90632892Y-41095500D01*
X90751000Y-41114206D01*
X90869108Y-41095500D01*
X90946795Y-41055916D01*
X90966822Y-41045712D01*
X90966823Y-41045711D01*
X90975655Y-41041211D01*
X91060211Y-40956655D01*
X91068646Y-40940102D01*
X91109999Y-40858941D01*
X91114500Y-40850108D01*
X91133206Y-40732000D01*
X91114500Y-40613892D01*
X91060211Y-40507345D01*
X90975655Y-40422789D01*
X90966823Y-40418289D01*
X90966822Y-40418288D01*
X90922382Y-40395645D01*
X90869108Y-40368500D01*
X90751000Y-40349794D01*
X90632892Y-40368500D01*
X90579618Y-40395645D01*
X90535178Y-40418288D01*
X90535177Y-40418289D01*
X90526345Y-40422789D01*
X90441789Y-40507345D01*
X90387500Y-40613892D01*
X90368794Y-40732000D01*
X87958206Y-40732000D01*
X87939500Y-40613892D01*
X87885211Y-40507345D01*
X87800655Y-40422789D01*
X87791823Y-40418289D01*
X87791822Y-40418288D01*
X87747382Y-40395645D01*
X87694108Y-40368500D01*
X87576000Y-40349794D01*
X87457892Y-40368500D01*
X87404618Y-40395645D01*
X87360178Y-40418288D01*
X87360177Y-40418289D01*
X87351345Y-40422789D01*
X87266789Y-40507345D01*
X87212500Y-40613892D01*
X87193794Y-40732000D01*
X86267500Y-40732000D01*
X86267500Y-39170000D01*
X87247794Y-39170000D01*
X87266500Y-39288108D01*
X87320789Y-39394655D01*
X87405345Y-39479211D01*
X87414177Y-39483711D01*
X87414178Y-39483712D01*
X87458618Y-39506355D01*
X87511892Y-39533500D01*
X87630000Y-39552206D01*
X87748108Y-39533500D01*
X87801381Y-39506356D01*
X87845822Y-39483712D01*
X87845823Y-39483711D01*
X87854655Y-39479211D01*
X87939211Y-39394655D01*
X87993500Y-39288108D01*
X88012206Y-39170000D01*
X87993500Y-39051892D01*
X87988716Y-39042503D01*
X87982282Y-39029875D01*
X87969177Y-38960098D01*
X87995876Y-38894313D01*
X88053904Y-38853406D01*
X88124835Y-38850365D01*
X88151751Y-38860404D01*
X88206892Y-38888500D01*
X88325000Y-38907206D01*
X88443108Y-38888500D01*
X88511983Y-38853406D01*
X88540822Y-38838712D01*
X88540823Y-38838711D01*
X88549655Y-38834211D01*
X88634211Y-38749655D01*
X88688500Y-38643108D01*
X88707206Y-38525000D01*
X88688500Y-38406892D01*
X88634211Y-38300345D01*
X88549655Y-38215789D01*
X88540823Y-38211289D01*
X88540822Y-38211288D01*
X88496381Y-38188644D01*
X88443108Y-38161500D01*
X88325000Y-38142794D01*
X88206892Y-38161500D01*
X88153619Y-38188644D01*
X88109178Y-38211288D01*
X88109177Y-38211289D01*
X88100345Y-38215789D01*
X88015789Y-38300345D01*
X87961500Y-38406892D01*
X87942794Y-38525000D01*
X87961500Y-38643108D01*
X87966001Y-38651941D01*
X87966002Y-38651944D01*
X87972718Y-38665125D01*
X87985823Y-38734902D01*
X87959124Y-38800687D01*
X87901096Y-38841594D01*
X87830165Y-38844635D01*
X87803249Y-38834596D01*
X87796958Y-38831390D01*
X87748108Y-38806500D01*
X87630000Y-38787794D01*
X87511892Y-38806500D01*
X87458618Y-38833645D01*
X87414178Y-38856288D01*
X87414177Y-38856289D01*
X87405345Y-38860789D01*
X87320789Y-38945345D01*
X87266500Y-39051892D01*
X87247794Y-39170000D01*
X86267500Y-39170000D01*
X86267500Y-39107442D01*
X86260102Y-39070252D01*
X86243861Y-39045945D01*
X86238815Y-39038394D01*
X86231922Y-39028078D01*
X86189748Y-38999898D01*
X86177578Y-38997477D01*
X86158623Y-38993706D01*
X86158618Y-38993706D01*
X86152558Y-38992500D01*
X84427442Y-38992500D01*
X84421382Y-38993706D01*
X84421377Y-38993706D01*
X84402422Y-38997477D01*
X84390252Y-38999898D01*
X84379935Y-39006791D01*
X84379934Y-39006792D01*
X84354422Y-39023839D01*
X84348078Y-39028078D01*
X84346528Y-39025758D01*
X84300283Y-39051010D01*
X84229468Y-39045945D01*
X84172632Y-39003398D01*
X84147821Y-38936878D01*
X84147500Y-38927889D01*
X84147500Y-38472111D01*
X84167502Y-38403990D01*
X84221158Y-38357497D01*
X84291432Y-38347393D01*
X84347391Y-38372950D01*
X84348078Y-38371922D01*
X84354421Y-38376161D01*
X84354424Y-38376163D01*
X84390252Y-38400102D01*
X84402422Y-38402523D01*
X84421377Y-38406294D01*
X84421382Y-38406294D01*
X84427442Y-38407500D01*
X86152558Y-38407500D01*
X86158618Y-38406294D01*
X86158623Y-38406294D01*
X86177578Y-38402523D01*
X86189748Y-38400102D01*
X86231922Y-38371922D01*
X86241561Y-38357497D01*
X86253208Y-38340066D01*
X86253209Y-38340065D01*
X86260102Y-38329748D01*
X86267500Y-38292558D01*
X86267500Y-36567442D01*
X86260102Y-36530252D01*
X86243861Y-36505945D01*
X86238815Y-36498394D01*
X86231922Y-36488078D01*
X86189748Y-36459898D01*
X86177578Y-36457477D01*
X86158623Y-36453706D01*
X86158618Y-36453706D01*
X86152558Y-36452500D01*
X84427442Y-36452500D01*
X84421382Y-36453706D01*
X84421377Y-36453706D01*
X84402422Y-36457477D01*
X84390252Y-36459898D01*
X84379935Y-36466791D01*
X84379934Y-36466792D01*
X84354422Y-36483839D01*
X84348078Y-36488078D01*
X84346528Y-36485758D01*
X84300283Y-36511010D01*
X84229468Y-36505945D01*
X84172632Y-36463398D01*
X84147821Y-36396878D01*
X84147500Y-36387889D01*
X84147500Y-35220200D01*
X85187194Y-35220200D01*
X85205900Y-35338308D01*
X85260189Y-35444855D01*
X85344745Y-35529411D01*
X85353577Y-35533911D01*
X85353578Y-35533912D01*
X85398019Y-35556556D01*
X85451292Y-35583700D01*
X85569400Y-35602406D01*
X85687508Y-35583700D01*
X85740781Y-35556556D01*
X85785222Y-35533912D01*
X85785223Y-35533911D01*
X85794055Y-35529411D01*
X85878611Y-35444855D01*
X85932900Y-35338308D01*
X85947183Y-35248129D01*
X85977594Y-35183977D01*
X86037862Y-35146450D01*
X86083090Y-35143863D01*
X86083090Y-35143655D01*
X86086727Y-35143655D01*
X86091341Y-35143391D01*
X86102800Y-35145206D01*
X86112593Y-35143655D01*
X86112594Y-35143655D01*
X86139038Y-35139467D01*
X86209449Y-35148567D01*
X86263762Y-35194290D01*
X86283196Y-35244206D01*
X86293927Y-35311963D01*
X86298100Y-35338308D01*
X86352389Y-35444855D01*
X86436945Y-35529411D01*
X86445777Y-35533911D01*
X86445778Y-35533912D01*
X86490219Y-35556556D01*
X86543492Y-35583700D01*
X86661600Y-35602406D01*
X86779708Y-35583700D01*
X86832981Y-35556556D01*
X86877422Y-35533912D01*
X86877423Y-35533911D01*
X86886255Y-35529411D01*
X86970811Y-35444855D01*
X87025100Y-35338308D01*
X87043806Y-35220200D01*
X87025100Y-35102092D01*
X86970811Y-34995545D01*
X86886255Y-34910989D01*
X86877423Y-34906489D01*
X86877422Y-34906488D01*
X86827611Y-34881108D01*
X86779708Y-34856700D01*
X86769913Y-34855149D01*
X86769911Y-34855148D01*
X86767331Y-34854739D01*
X86764451Y-34853374D01*
X86760482Y-34852084D01*
X86760649Y-34851571D01*
X86703179Y-34824325D01*
X86665653Y-34764056D01*
X86666669Y-34693067D01*
X86705903Y-34633896D01*
X86729842Y-34618024D01*
X86835455Y-34564211D01*
X86920011Y-34479655D01*
X86974300Y-34373108D01*
X86993006Y-34255000D01*
X86974300Y-34136892D01*
X86920011Y-34030345D01*
X86835455Y-33945789D01*
X86826623Y-33941289D01*
X86826622Y-33941288D01*
X86782182Y-33918645D01*
X86728908Y-33891500D01*
X86610800Y-33872794D01*
X86492692Y-33891500D01*
X86439419Y-33918644D01*
X86394978Y-33941288D01*
X86394977Y-33941289D01*
X86386145Y-33945789D01*
X86301589Y-34030345D01*
X86247300Y-34136892D01*
X86228594Y-34255000D01*
X86229276Y-34259305D01*
X86210143Y-34324466D01*
X86156487Y-34370959D01*
X86107704Y-34381571D01*
X86102800Y-34380794D01*
X85984692Y-34399500D01*
X85931418Y-34426645D01*
X85886978Y-34449288D01*
X85886977Y-34449289D01*
X85878145Y-34453789D01*
X85793589Y-34538345D01*
X85789089Y-34547177D01*
X85789088Y-34547178D01*
X85766718Y-34591082D01*
X85739300Y-34644892D01*
X85737749Y-34654683D01*
X85737749Y-34654684D01*
X85725018Y-34735070D01*
X85694606Y-34799223D01*
X85634338Y-34836750D01*
X85589110Y-34839337D01*
X85589110Y-34839545D01*
X85585473Y-34839545D01*
X85580859Y-34839809D01*
X85569400Y-34837994D01*
X85451292Y-34856700D01*
X85403389Y-34881108D01*
X85353578Y-34906488D01*
X85353577Y-34906489D01*
X85344745Y-34910989D01*
X85260189Y-34995545D01*
X85205900Y-35102092D01*
X85187194Y-35220200D01*
X84147500Y-35220200D01*
X84147500Y-33497105D01*
X84167502Y-33428984D01*
X84221158Y-33382491D01*
X84291432Y-33372387D01*
X84353814Y-33400019D01*
X84441097Y-33472226D01*
X84584551Y-33539731D01*
X84592334Y-33541216D01*
X84592335Y-33541216D01*
X84732500Y-33567954D01*
X84732502Y-33567954D01*
X84740286Y-33569439D01*
X84819401Y-33564461D01*
X84890605Y-33559982D01*
X84890607Y-33559982D01*
X84898516Y-33559484D01*
X84906052Y-33557035D01*
X84906054Y-33557035D01*
X85041758Y-33512942D01*
X85041761Y-33512941D01*
X85049300Y-33510491D01*
X85183162Y-33425540D01*
X85291693Y-33309967D01*
X85368072Y-33171034D01*
X85407500Y-33017472D01*
X85407500Y-32098724D01*
X85392616Y-31980907D01*
X85334253Y-31833497D01*
X85241063Y-31705233D01*
X85190127Y-31663095D01*
X85125012Y-31609227D01*
X85125008Y-31609224D01*
X85118903Y-31604174D01*
X84975449Y-31536669D01*
X84967666Y-31535184D01*
X84967665Y-31535184D01*
X84827500Y-31508446D01*
X84827498Y-31508446D01*
X84819714Y-31506961D01*
X84740599Y-31511938D01*
X84669395Y-31516418D01*
X84669393Y-31516418D01*
X84661484Y-31516916D01*
X84653948Y-31519365D01*
X84653946Y-31519365D01*
X84518242Y-31563458D01*
X84518239Y-31563459D01*
X84510700Y-31565909D01*
X84376838Y-31650860D01*
X84371410Y-31656640D01*
X84371409Y-31656641D01*
X84365348Y-31663095D01*
X84304135Y-31699059D01*
X84233195Y-31696220D01*
X84175052Y-31655478D01*
X84148165Y-31589770D01*
X84147500Y-31576840D01*
X84147500Y-29697104D01*
X84167502Y-29628983D01*
X84221158Y-29582490D01*
X84291432Y-29572386D01*
X84353814Y-29600018D01*
X84441097Y-29672225D01*
X84584551Y-29739730D01*
X84592334Y-29741215D01*
X84592335Y-29741215D01*
X84732500Y-29767953D01*
X84732502Y-29767953D01*
X84740286Y-29769438D01*
X84819401Y-29764460D01*
X84890605Y-29759981D01*
X84890607Y-29759981D01*
X84898516Y-29759483D01*
X84906052Y-29757034D01*
X84906054Y-29757034D01*
X85041758Y-29712941D01*
X85041761Y-29712940D01*
X85049300Y-29710490D01*
X85183162Y-29625539D01*
X85291693Y-29509966D01*
X85368072Y-29371033D01*
X85407500Y-29217471D01*
X85407500Y-27898723D01*
X85392616Y-27780906D01*
X85334253Y-27633496D01*
X85241063Y-27505232D01*
X85190127Y-27463094D01*
X85125012Y-27409226D01*
X85125008Y-27409223D01*
X85118903Y-27404173D01*
X84975449Y-27336668D01*
X84967666Y-27335183D01*
X84967665Y-27335183D01*
X84827500Y-27308445D01*
X84827498Y-27308445D01*
X84819714Y-27306960D01*
X84740599Y-27311937D01*
X84669395Y-27316417D01*
X84669393Y-27316417D01*
X84661484Y-27316915D01*
X84653948Y-27319364D01*
X84653946Y-27319364D01*
X84518242Y-27363457D01*
X84518239Y-27363458D01*
X84510700Y-27365908D01*
X84376838Y-27450859D01*
X84371410Y-27456639D01*
X84371409Y-27456640D01*
X84365348Y-27463094D01*
X84304135Y-27499058D01*
X84233195Y-27496219D01*
X84175052Y-27455477D01*
X84148165Y-27389769D01*
X84147500Y-27376839D01*
X84147500Y-26253500D01*
X84167502Y-26185379D01*
X84221158Y-26138886D01*
X84273500Y-26127500D01*
X86932537Y-26127500D01*
X87000658Y-26147502D01*
G37*
G04 #@! TD.AperFunction*
M02*
