M48
METRIC,TZ
T1C0.200
T2C0.600
T3C1.000
%
G90
G05
T1
X84528Y-35093
X84610Y-84166
X84782Y-62576
X85011Y-83531
X85030Y-34198
X85030Y-74480
X85040Y-73450
X85290Y-48936
X85290Y-53864
X85341Y-81626
X85544Y-75352
X85569Y-35220
X85696Y-80839
X85798Y-62576
X86103Y-34763
X86154Y-74946
X86408Y-78603
X86470Y-82750
X86500Y-82000
X86611Y-34255
X86662Y-35220
X87480Y-79650
X87576Y-40732
X87576Y-41748
X87576Y-61560
X87576Y-62474
X87576Y-63338
X87576Y-76038
X87630Y-39170
X88109Y-75530
X88220Y-77170
X88325Y-38525
X88541Y-74946
X88719Y-46066
X89100Y-81626
X89100Y-85487
X89100Y-88865
X89100Y-90364
X89100Y-93843
X89100Y-94580
X89100Y-95317
X89100Y-99558
X89100Y-102302
X89100Y-103318
X89100Y-106112
X89100Y-107077
X89100Y-109820
X89100Y-110836
X89100Y-113579
X89100Y-114595
X89100Y-117338
X89100Y-118304
X89100Y-121098
X89100Y-122063
X89100Y-124857
X89100Y-125822
X89100Y-128616
X89100Y-129581
X89100Y-132375
X89100Y-133340
X89100Y-136134
X89100Y-137100
X89100Y-139894
X89100Y-140859
X89100Y-143653
X89100Y-144618
X89100Y-147412
X89100Y-148377
X89100Y-151120
X89100Y-152136
X89100Y-154880
X89100Y-155896
X89100Y-158639
X89100Y-159604
X89100Y-162398
X89100Y-163363
X89100Y-166157
X89100Y-167122
X89100Y-169916
X89100Y-170882
X89100Y-173676
X89100Y-174641
X89100Y-177435
X89100Y-178400
X89100Y-181194
X89100Y-182159
X89100Y-184953
X89100Y-185918
X89100Y-188662
X89108Y-87972
X89110Y-78060
X89111Y-89627
X89170Y-83190
X89500Y-59540
X89760Y-75378
X89817Y-80799
X89862Y-67402
X89862Y-69688
X90030Y-78960
X90200Y-59540
X90620Y-80240
X90751Y-40732
X90751Y-41748
X90810Y-82310
X91183Y-76495
X91234Y-73015
X91320Y-79520
X91583Y-36281
X91742Y-73549
X91780Y-82140
X91792Y-78908
X91843Y-77816
X92220Y-82940
X92224Y-74108
X92326Y-74895
X92326Y-78375
X92840Y-80540
X92966Y-73714
X93062Y-34153
X93291Y-35144
X93570Y-79696
X93666Y-73714
T3
X85290Y-37430
X85290Y-39970
X85290Y-42510
X85290Y-45050
X85290Y-47590
X85290Y-55210
X85290Y-70450
X85290Y-85690
X85290Y-100930
X85290Y-116170
X85290Y-131410
X85290Y-146650
X85290Y-161890
X85290Y-177130
X85290Y-184750
X85290Y-187290
X92910Y-37430
X92910Y-39970
X92910Y-42510
X92910Y-45050
X92910Y-47590
X92910Y-55210
X92910Y-70450
X92910Y-85690
X92910Y-100930
X92910Y-116170
X92910Y-131410
X92910Y-146650
X92910Y-161890
X92910Y-177130
X92910Y-184750
X92910Y-187290
T2
X84780Y-29138G85X84780Y-27938
G05
X84780Y-32938G85X84780Y-32138
G05
X93420Y-29138G85X93420Y-27938
G05
X93420Y-32938G85X93420Y-32138
G05
T0
M30
