G04 #@! TF.GenerationSoftware,KiCad,Pcbnew,(6.0.6)*
G04 #@! TF.CreationDate,2023-03-09T17:58:36-07:00*
G04 #@! TF.ProjectId,RP2040-Breadstick,52503230-3430-42d4-9272-656164737469,0.1*
G04 #@! TF.SameCoordinates,Original*
G04 #@! TF.FileFunction,AssemblyDrawing,Top*
%FSLAX46Y46*%
G04 Gerber Fmt 4.6, Leading zero omitted, Abs format (unit mm)*
G04 Created by KiCad (PCBNEW (6.0.6)) date 2023-03-09 17:58:36*
%MOMM*%
%LPD*%
G01*
G04 APERTURE LIST*
%ADD10C,0.050000*%
%ADD11C,0.150000*%
%ADD12C,0.100000*%
%ADD13C,0.120000*%
%ADD14C,0.127000*%
%ADD15C,0.200000*%
%ADD16C,0.140000*%
G04 APERTURE END LIST*
D10*
X85571828Y-132915754D02*
X85381352Y-132915754D01*
X85381352Y-132515754D01*
X85705161Y-132706230D02*
X85838495Y-132706230D01*
X85895638Y-132915754D02*
X85705161Y-132915754D01*
X85705161Y-132515754D01*
X85895638Y-132515754D01*
X86067066Y-132915754D02*
X86067066Y-132515754D01*
X86162304Y-132515754D01*
X86219447Y-132534802D01*
X86257542Y-132572897D01*
X86276590Y-132610992D01*
X86295638Y-132687182D01*
X86295638Y-132744325D01*
X86276590Y-132820516D01*
X86257542Y-132858611D01*
X86219447Y-132896706D01*
X86162304Y-132915754D01*
X86067066Y-132915754D01*
X86428971Y-132515754D02*
X86676590Y-132515754D01*
X86543257Y-132668135D01*
X86600400Y-132668135D01*
X86638495Y-132687182D01*
X86657542Y-132706230D01*
X86676590Y-132744325D01*
X86676590Y-132839563D01*
X86657542Y-132877659D01*
X86638495Y-132896706D01*
X86600400Y-132915754D01*
X86486114Y-132915754D01*
X86448019Y-132896706D01*
X86428971Y-132877659D01*
X87057542Y-132915754D02*
X86828971Y-132915754D01*
X86943257Y-132915754D02*
X86943257Y-132515754D01*
X86905161Y-132572897D01*
X86867066Y-132610992D01*
X86828971Y-132630040D01*
X87209923Y-132553849D02*
X87228971Y-132534802D01*
X87267066Y-132515754D01*
X87362304Y-132515754D01*
X87400400Y-132534802D01*
X87419447Y-132553849D01*
X87438495Y-132591944D01*
X87438495Y-132630040D01*
X87419447Y-132687182D01*
X87190876Y-132915754D01*
X87438495Y-132915754D01*
X85571828Y-170463574D02*
X85381352Y-170463574D01*
X85381352Y-170063574D01*
X85705161Y-170254050D02*
X85838495Y-170254050D01*
X85895638Y-170463574D02*
X85705161Y-170463574D01*
X85705161Y-170063574D01*
X85895638Y-170063574D01*
X86067066Y-170463574D02*
X86067066Y-170063574D01*
X86162304Y-170063574D01*
X86219447Y-170082622D01*
X86257542Y-170120717D01*
X86276590Y-170158812D01*
X86295638Y-170235002D01*
X86295638Y-170292145D01*
X86276590Y-170368336D01*
X86257542Y-170406431D01*
X86219447Y-170444526D01*
X86162304Y-170463574D01*
X86067066Y-170463574D01*
X86428971Y-170063574D02*
X86676590Y-170063574D01*
X86543257Y-170215955D01*
X86600400Y-170215955D01*
X86638495Y-170235002D01*
X86657542Y-170254050D01*
X86676590Y-170292145D01*
X86676590Y-170387383D01*
X86657542Y-170425479D01*
X86638495Y-170444526D01*
X86600400Y-170463574D01*
X86486114Y-170463574D01*
X86448019Y-170444526D01*
X86428971Y-170425479D01*
X86828971Y-170101669D02*
X86848019Y-170082622D01*
X86886114Y-170063574D01*
X86981352Y-170063574D01*
X87019447Y-170082622D01*
X87038495Y-170101669D01*
X87057542Y-170139764D01*
X87057542Y-170177860D01*
X87038495Y-170235002D01*
X86809923Y-170463574D01*
X87057542Y-170463574D01*
X87209923Y-170101669D02*
X87228971Y-170082622D01*
X87267066Y-170063574D01*
X87362304Y-170063574D01*
X87400400Y-170082622D01*
X87419447Y-170101669D01*
X87438495Y-170139764D01*
X87438495Y-170177860D01*
X87419447Y-170235002D01*
X87190876Y-170463574D01*
X87438495Y-170463574D01*
X85571828Y-166708792D02*
X85381352Y-166708792D01*
X85381352Y-166308792D01*
X85705161Y-166499268D02*
X85838495Y-166499268D01*
X85895638Y-166708792D02*
X85705161Y-166708792D01*
X85705161Y-166308792D01*
X85895638Y-166308792D01*
X86067066Y-166708792D02*
X86067066Y-166308792D01*
X86162304Y-166308792D01*
X86219447Y-166327840D01*
X86257542Y-166365935D01*
X86276590Y-166404030D01*
X86295638Y-166480220D01*
X86295638Y-166537363D01*
X86276590Y-166613554D01*
X86257542Y-166651649D01*
X86219447Y-166689744D01*
X86162304Y-166708792D01*
X86067066Y-166708792D01*
X86428971Y-166308792D02*
X86676590Y-166308792D01*
X86543257Y-166461173D01*
X86600400Y-166461173D01*
X86638495Y-166480220D01*
X86657542Y-166499268D01*
X86676590Y-166537363D01*
X86676590Y-166632601D01*
X86657542Y-166670697D01*
X86638495Y-166689744D01*
X86600400Y-166708792D01*
X86486114Y-166708792D01*
X86448019Y-166689744D01*
X86428971Y-166670697D01*
X86828971Y-166346887D02*
X86848019Y-166327840D01*
X86886114Y-166308792D01*
X86981352Y-166308792D01*
X87019447Y-166327840D01*
X87038495Y-166346887D01*
X87057542Y-166384982D01*
X87057542Y-166423078D01*
X87038495Y-166480220D01*
X86809923Y-166708792D01*
X87057542Y-166708792D01*
X87438495Y-166708792D02*
X87209923Y-166708792D01*
X87324209Y-166708792D02*
X87324209Y-166308792D01*
X87286114Y-166365935D01*
X87248019Y-166404030D01*
X87209923Y-166423078D01*
X85571828Y-155444446D02*
X85381352Y-155444446D01*
X85381352Y-155044446D01*
X85705161Y-155234922D02*
X85838495Y-155234922D01*
X85895638Y-155444446D02*
X85705161Y-155444446D01*
X85705161Y-155044446D01*
X85895638Y-155044446D01*
X86067066Y-155444446D02*
X86067066Y-155044446D01*
X86162304Y-155044446D01*
X86219447Y-155063494D01*
X86257542Y-155101589D01*
X86276590Y-155139684D01*
X86295638Y-155215874D01*
X86295638Y-155273017D01*
X86276590Y-155349208D01*
X86257542Y-155387303D01*
X86219447Y-155425398D01*
X86162304Y-155444446D01*
X86067066Y-155444446D01*
X86428971Y-155044446D02*
X86676590Y-155044446D01*
X86543257Y-155196827D01*
X86600400Y-155196827D01*
X86638495Y-155215874D01*
X86657542Y-155234922D01*
X86676590Y-155273017D01*
X86676590Y-155368255D01*
X86657542Y-155406351D01*
X86638495Y-155425398D01*
X86600400Y-155444446D01*
X86486114Y-155444446D01*
X86448019Y-155425398D01*
X86428971Y-155406351D01*
X87057542Y-155444446D02*
X86828971Y-155444446D01*
X86943257Y-155444446D02*
X86943257Y-155044446D01*
X86905161Y-155101589D01*
X86867066Y-155139684D01*
X86828971Y-155158732D01*
X87286114Y-155215874D02*
X87248019Y-155196827D01*
X87228971Y-155177779D01*
X87209923Y-155139684D01*
X87209923Y-155120636D01*
X87228971Y-155082541D01*
X87248019Y-155063494D01*
X87286114Y-155044446D01*
X87362304Y-155044446D01*
X87400400Y-155063494D01*
X87419447Y-155082541D01*
X87438495Y-155120636D01*
X87438495Y-155139684D01*
X87419447Y-155177779D01*
X87400400Y-155196827D01*
X87362304Y-155215874D01*
X87286114Y-155215874D01*
X87248019Y-155234922D01*
X87228971Y-155253970D01*
X87209923Y-155292065D01*
X87209923Y-155368255D01*
X87228971Y-155406351D01*
X87248019Y-155425398D01*
X87286114Y-155444446D01*
X87362304Y-155444446D01*
X87400400Y-155425398D01*
X87419447Y-155406351D01*
X87438495Y-155368255D01*
X87438495Y-155292065D01*
X87419447Y-155253970D01*
X87400400Y-155234922D01*
X87362304Y-155215874D01*
X85571828Y-95367934D02*
X85381352Y-95367934D01*
X85381352Y-94967934D01*
X85705161Y-95158410D02*
X85838495Y-95158410D01*
X85895638Y-95367934D02*
X85705161Y-95367934D01*
X85705161Y-94967934D01*
X85895638Y-94967934D01*
X86067066Y-95367934D02*
X86067066Y-94967934D01*
X86162304Y-94967934D01*
X86219447Y-94986982D01*
X86257542Y-95025077D01*
X86276590Y-95063172D01*
X86295638Y-95139362D01*
X86295638Y-95196505D01*
X86276590Y-95272696D01*
X86257542Y-95310791D01*
X86219447Y-95348886D01*
X86162304Y-95367934D01*
X86067066Y-95367934D01*
X86428971Y-94967934D02*
X86676590Y-94967934D01*
X86543257Y-95120315D01*
X86600400Y-95120315D01*
X86638495Y-95139362D01*
X86657542Y-95158410D01*
X86676590Y-95196505D01*
X86676590Y-95291743D01*
X86657542Y-95329839D01*
X86638495Y-95348886D01*
X86600400Y-95367934D01*
X86486114Y-95367934D01*
X86448019Y-95348886D01*
X86428971Y-95329839D01*
X86924209Y-94967934D02*
X86962304Y-94967934D01*
X87000400Y-94986982D01*
X87019447Y-95006029D01*
X87038495Y-95044124D01*
X87057542Y-95120315D01*
X87057542Y-95215553D01*
X87038495Y-95291743D01*
X87019447Y-95329839D01*
X87000400Y-95348886D01*
X86962304Y-95367934D01*
X86924209Y-95367934D01*
X86886114Y-95348886D01*
X86867066Y-95329839D01*
X86848019Y-95291743D01*
X86828971Y-95215553D01*
X86828971Y-95120315D01*
X86848019Y-95044124D01*
X86867066Y-95006029D01*
X86886114Y-94986982D01*
X86924209Y-94967934D01*
X87209923Y-95006029D02*
X87228971Y-94986982D01*
X87267066Y-94967934D01*
X87362304Y-94967934D01*
X87400400Y-94986982D01*
X87419447Y-95006029D01*
X87438495Y-95044124D01*
X87438495Y-95082220D01*
X87419447Y-95139362D01*
X87190876Y-95367934D01*
X87438495Y-95367934D01*
X85571828Y-151689664D02*
X85381352Y-151689664D01*
X85381352Y-151289664D01*
X85705161Y-151480140D02*
X85838495Y-151480140D01*
X85895638Y-151689664D02*
X85705161Y-151689664D01*
X85705161Y-151289664D01*
X85895638Y-151289664D01*
X86067066Y-151689664D02*
X86067066Y-151289664D01*
X86162304Y-151289664D01*
X86219447Y-151308712D01*
X86257542Y-151346807D01*
X86276590Y-151384902D01*
X86295638Y-151461092D01*
X86295638Y-151518235D01*
X86276590Y-151594426D01*
X86257542Y-151632521D01*
X86219447Y-151670616D01*
X86162304Y-151689664D01*
X86067066Y-151689664D01*
X86428971Y-151289664D02*
X86676590Y-151289664D01*
X86543257Y-151442045D01*
X86600400Y-151442045D01*
X86638495Y-151461092D01*
X86657542Y-151480140D01*
X86676590Y-151518235D01*
X86676590Y-151613473D01*
X86657542Y-151651569D01*
X86638495Y-151670616D01*
X86600400Y-151689664D01*
X86486114Y-151689664D01*
X86448019Y-151670616D01*
X86428971Y-151651569D01*
X87057542Y-151689664D02*
X86828971Y-151689664D01*
X86943257Y-151689664D02*
X86943257Y-151289664D01*
X86905161Y-151346807D01*
X86867066Y-151384902D01*
X86828971Y-151403950D01*
X87190876Y-151289664D02*
X87457542Y-151289664D01*
X87286114Y-151689664D01*
X85571828Y-147934882D02*
X85381352Y-147934882D01*
X85381352Y-147534882D01*
X85705161Y-147725358D02*
X85838495Y-147725358D01*
X85895638Y-147934882D02*
X85705161Y-147934882D01*
X85705161Y-147534882D01*
X85895638Y-147534882D01*
X86067066Y-147934882D02*
X86067066Y-147534882D01*
X86162304Y-147534882D01*
X86219447Y-147553930D01*
X86257542Y-147592025D01*
X86276590Y-147630120D01*
X86295638Y-147706310D01*
X86295638Y-147763453D01*
X86276590Y-147839644D01*
X86257542Y-147877739D01*
X86219447Y-147915834D01*
X86162304Y-147934882D01*
X86067066Y-147934882D01*
X86428971Y-147534882D02*
X86676590Y-147534882D01*
X86543257Y-147687263D01*
X86600400Y-147687263D01*
X86638495Y-147706310D01*
X86657542Y-147725358D01*
X86676590Y-147763453D01*
X86676590Y-147858691D01*
X86657542Y-147896787D01*
X86638495Y-147915834D01*
X86600400Y-147934882D01*
X86486114Y-147934882D01*
X86448019Y-147915834D01*
X86428971Y-147896787D01*
X87057542Y-147934882D02*
X86828971Y-147934882D01*
X86943257Y-147934882D02*
X86943257Y-147534882D01*
X86905161Y-147592025D01*
X86867066Y-147630120D01*
X86828971Y-147649168D01*
X87400400Y-147534882D02*
X87324209Y-147534882D01*
X87286114Y-147553930D01*
X87267066Y-147572977D01*
X87228971Y-147630120D01*
X87209923Y-147706310D01*
X87209923Y-147858691D01*
X87228971Y-147896787D01*
X87248019Y-147915834D01*
X87286114Y-147934882D01*
X87362304Y-147934882D01*
X87400400Y-147915834D01*
X87419447Y-147896787D01*
X87438495Y-147858691D01*
X87438495Y-147763453D01*
X87419447Y-147725358D01*
X87400400Y-147706310D01*
X87362304Y-147687263D01*
X87286114Y-147687263D01*
X87248019Y-147706310D01*
X87228971Y-147725358D01*
X87209923Y-147763453D01*
X85571828Y-121651408D02*
X85381352Y-121651408D01*
X85381352Y-121251408D01*
X85705161Y-121441884D02*
X85838495Y-121441884D01*
X85895638Y-121651408D02*
X85705161Y-121651408D01*
X85705161Y-121251408D01*
X85895638Y-121251408D01*
X86067066Y-121651408D02*
X86067066Y-121251408D01*
X86162304Y-121251408D01*
X86219447Y-121270456D01*
X86257542Y-121308551D01*
X86276590Y-121346646D01*
X86295638Y-121422836D01*
X86295638Y-121479979D01*
X86276590Y-121556170D01*
X86257542Y-121594265D01*
X86219447Y-121632360D01*
X86162304Y-121651408D01*
X86067066Y-121651408D01*
X86428971Y-121251408D02*
X86676590Y-121251408D01*
X86543257Y-121403789D01*
X86600400Y-121403789D01*
X86638495Y-121422836D01*
X86657542Y-121441884D01*
X86676590Y-121479979D01*
X86676590Y-121575217D01*
X86657542Y-121613313D01*
X86638495Y-121632360D01*
X86600400Y-121651408D01*
X86486114Y-121651408D01*
X86448019Y-121632360D01*
X86428971Y-121613313D01*
X86924209Y-121251408D02*
X86962304Y-121251408D01*
X87000400Y-121270456D01*
X87019447Y-121289503D01*
X87038495Y-121327598D01*
X87057542Y-121403789D01*
X87057542Y-121499027D01*
X87038495Y-121575217D01*
X87019447Y-121613313D01*
X87000400Y-121632360D01*
X86962304Y-121651408D01*
X86924209Y-121651408D01*
X86886114Y-121632360D01*
X86867066Y-121613313D01*
X86848019Y-121575217D01*
X86828971Y-121499027D01*
X86828971Y-121403789D01*
X86848019Y-121327598D01*
X86867066Y-121289503D01*
X86886114Y-121270456D01*
X86924209Y-121251408D01*
X87248019Y-121651408D02*
X87324209Y-121651408D01*
X87362304Y-121632360D01*
X87381352Y-121613313D01*
X87419447Y-121556170D01*
X87438495Y-121479979D01*
X87438495Y-121327598D01*
X87419447Y-121289503D01*
X87400400Y-121270456D01*
X87362304Y-121251408D01*
X87286114Y-121251408D01*
X87248019Y-121270456D01*
X87228971Y-121289503D01*
X87209923Y-121327598D01*
X87209923Y-121422836D01*
X87228971Y-121460932D01*
X87248019Y-121479979D01*
X87286114Y-121499027D01*
X87362304Y-121499027D01*
X87400400Y-121479979D01*
X87419447Y-121460932D01*
X87438495Y-121422836D01*
X85571828Y-159199228D02*
X85381352Y-159199228D01*
X85381352Y-158799228D01*
X85705161Y-158989704D02*
X85838495Y-158989704D01*
X85895638Y-159199228D02*
X85705161Y-159199228D01*
X85705161Y-158799228D01*
X85895638Y-158799228D01*
X86067066Y-159199228D02*
X86067066Y-158799228D01*
X86162304Y-158799228D01*
X86219447Y-158818276D01*
X86257542Y-158856371D01*
X86276590Y-158894466D01*
X86295638Y-158970656D01*
X86295638Y-159027799D01*
X86276590Y-159103990D01*
X86257542Y-159142085D01*
X86219447Y-159180180D01*
X86162304Y-159199228D01*
X86067066Y-159199228D01*
X86428971Y-158799228D02*
X86676590Y-158799228D01*
X86543257Y-158951609D01*
X86600400Y-158951609D01*
X86638495Y-158970656D01*
X86657542Y-158989704D01*
X86676590Y-159027799D01*
X86676590Y-159123037D01*
X86657542Y-159161133D01*
X86638495Y-159180180D01*
X86600400Y-159199228D01*
X86486114Y-159199228D01*
X86448019Y-159180180D01*
X86428971Y-159161133D01*
X87057542Y-159199228D02*
X86828971Y-159199228D01*
X86943257Y-159199228D02*
X86943257Y-158799228D01*
X86905161Y-158856371D01*
X86867066Y-158894466D01*
X86828971Y-158913514D01*
X87248019Y-159199228D02*
X87324209Y-159199228D01*
X87362304Y-159180180D01*
X87381352Y-159161133D01*
X87419447Y-159103990D01*
X87438495Y-159027799D01*
X87438495Y-158875418D01*
X87419447Y-158837323D01*
X87400400Y-158818276D01*
X87362304Y-158799228D01*
X87286114Y-158799228D01*
X87248019Y-158818276D01*
X87228971Y-158837323D01*
X87209923Y-158875418D01*
X87209923Y-158970656D01*
X87228971Y-159008752D01*
X87248019Y-159027799D01*
X87286114Y-159046847D01*
X87362304Y-159046847D01*
X87400400Y-159027799D01*
X87419447Y-159008752D01*
X87438495Y-158970656D01*
X85571828Y-99122716D02*
X85381352Y-99122716D01*
X85381352Y-98722716D01*
X85705161Y-98913192D02*
X85838495Y-98913192D01*
X85895638Y-99122716D02*
X85705161Y-99122716D01*
X85705161Y-98722716D01*
X85895638Y-98722716D01*
X86067066Y-99122716D02*
X86067066Y-98722716D01*
X86162304Y-98722716D01*
X86219447Y-98741764D01*
X86257542Y-98779859D01*
X86276590Y-98817954D01*
X86295638Y-98894144D01*
X86295638Y-98951287D01*
X86276590Y-99027478D01*
X86257542Y-99065573D01*
X86219447Y-99103668D01*
X86162304Y-99122716D01*
X86067066Y-99122716D01*
X86428971Y-98722716D02*
X86676590Y-98722716D01*
X86543257Y-98875097D01*
X86600400Y-98875097D01*
X86638495Y-98894144D01*
X86657542Y-98913192D01*
X86676590Y-98951287D01*
X86676590Y-99046525D01*
X86657542Y-99084621D01*
X86638495Y-99103668D01*
X86600400Y-99122716D01*
X86486114Y-99122716D01*
X86448019Y-99103668D01*
X86428971Y-99084621D01*
X86924209Y-98722716D02*
X86962304Y-98722716D01*
X87000400Y-98741764D01*
X87019447Y-98760811D01*
X87038495Y-98798906D01*
X87057542Y-98875097D01*
X87057542Y-98970335D01*
X87038495Y-99046525D01*
X87019447Y-99084621D01*
X87000400Y-99103668D01*
X86962304Y-99122716D01*
X86924209Y-99122716D01*
X86886114Y-99103668D01*
X86867066Y-99084621D01*
X86848019Y-99046525D01*
X86828971Y-98970335D01*
X86828971Y-98875097D01*
X86848019Y-98798906D01*
X86867066Y-98760811D01*
X86886114Y-98741764D01*
X86924209Y-98722716D01*
X87190876Y-98722716D02*
X87438495Y-98722716D01*
X87305161Y-98875097D01*
X87362304Y-98875097D01*
X87400400Y-98894144D01*
X87419447Y-98913192D01*
X87438495Y-98951287D01*
X87438495Y-99046525D01*
X87419447Y-99084621D01*
X87400400Y-99103668D01*
X87362304Y-99122716D01*
X87248019Y-99122716D01*
X87209923Y-99103668D01*
X87190876Y-99084621D01*
X85571828Y-162954010D02*
X85381352Y-162954010D01*
X85381352Y-162554010D01*
X85705161Y-162744486D02*
X85838495Y-162744486D01*
X85895638Y-162954010D02*
X85705161Y-162954010D01*
X85705161Y-162554010D01*
X85895638Y-162554010D01*
X86067066Y-162954010D02*
X86067066Y-162554010D01*
X86162304Y-162554010D01*
X86219447Y-162573058D01*
X86257542Y-162611153D01*
X86276590Y-162649248D01*
X86295638Y-162725438D01*
X86295638Y-162782581D01*
X86276590Y-162858772D01*
X86257542Y-162896867D01*
X86219447Y-162934962D01*
X86162304Y-162954010D01*
X86067066Y-162954010D01*
X86428971Y-162554010D02*
X86676590Y-162554010D01*
X86543257Y-162706391D01*
X86600400Y-162706391D01*
X86638495Y-162725438D01*
X86657542Y-162744486D01*
X86676590Y-162782581D01*
X86676590Y-162877819D01*
X86657542Y-162915915D01*
X86638495Y-162934962D01*
X86600400Y-162954010D01*
X86486114Y-162954010D01*
X86448019Y-162934962D01*
X86428971Y-162915915D01*
X86828971Y-162592105D02*
X86848019Y-162573058D01*
X86886114Y-162554010D01*
X86981352Y-162554010D01*
X87019447Y-162573058D01*
X87038495Y-162592105D01*
X87057542Y-162630200D01*
X87057542Y-162668296D01*
X87038495Y-162725438D01*
X86809923Y-162954010D01*
X87057542Y-162954010D01*
X87305161Y-162554010D02*
X87343257Y-162554010D01*
X87381352Y-162573058D01*
X87400400Y-162592105D01*
X87419447Y-162630200D01*
X87438495Y-162706391D01*
X87438495Y-162801629D01*
X87419447Y-162877819D01*
X87400400Y-162915915D01*
X87381352Y-162934962D01*
X87343257Y-162954010D01*
X87305161Y-162954010D01*
X87267066Y-162934962D01*
X87248019Y-162915915D01*
X87228971Y-162877819D01*
X87209923Y-162801629D01*
X87209923Y-162706391D01*
X87228971Y-162630200D01*
X87248019Y-162592105D01*
X87267066Y-162573058D01*
X87305161Y-162554010D01*
X85571828Y-129160972D02*
X85381352Y-129160972D01*
X85381352Y-128760972D01*
X85705161Y-128951448D02*
X85838495Y-128951448D01*
X85895638Y-129160972D02*
X85705161Y-129160972D01*
X85705161Y-128760972D01*
X85895638Y-128760972D01*
X86067066Y-129160972D02*
X86067066Y-128760972D01*
X86162304Y-128760972D01*
X86219447Y-128780020D01*
X86257542Y-128818115D01*
X86276590Y-128856210D01*
X86295638Y-128932400D01*
X86295638Y-128989543D01*
X86276590Y-129065734D01*
X86257542Y-129103829D01*
X86219447Y-129141924D01*
X86162304Y-129160972D01*
X86067066Y-129160972D01*
X86428971Y-128760972D02*
X86676590Y-128760972D01*
X86543257Y-128913353D01*
X86600400Y-128913353D01*
X86638495Y-128932400D01*
X86657542Y-128951448D01*
X86676590Y-128989543D01*
X86676590Y-129084781D01*
X86657542Y-129122877D01*
X86638495Y-129141924D01*
X86600400Y-129160972D01*
X86486114Y-129160972D01*
X86448019Y-129141924D01*
X86428971Y-129122877D01*
X87057542Y-129160972D02*
X86828971Y-129160972D01*
X86943257Y-129160972D02*
X86943257Y-128760972D01*
X86905161Y-128818115D01*
X86867066Y-128856210D01*
X86828971Y-128875258D01*
X87438495Y-129160972D02*
X87209923Y-129160972D01*
X87324209Y-129160972D02*
X87324209Y-128760972D01*
X87286114Y-128818115D01*
X87248019Y-128856210D01*
X87209923Y-128875258D01*
X85571828Y-174218356D02*
X85381352Y-174218356D01*
X85381352Y-173818356D01*
X85705161Y-174008832D02*
X85838495Y-174008832D01*
X85895638Y-174218356D02*
X85705161Y-174218356D01*
X85705161Y-173818356D01*
X85895638Y-173818356D01*
X86067066Y-174218356D02*
X86067066Y-173818356D01*
X86162304Y-173818356D01*
X86219447Y-173837404D01*
X86257542Y-173875499D01*
X86276590Y-173913594D01*
X86295638Y-173989784D01*
X86295638Y-174046927D01*
X86276590Y-174123118D01*
X86257542Y-174161213D01*
X86219447Y-174199308D01*
X86162304Y-174218356D01*
X86067066Y-174218356D01*
X86428971Y-173818356D02*
X86676590Y-173818356D01*
X86543257Y-173970737D01*
X86600400Y-173970737D01*
X86638495Y-173989784D01*
X86657542Y-174008832D01*
X86676590Y-174046927D01*
X86676590Y-174142165D01*
X86657542Y-174180261D01*
X86638495Y-174199308D01*
X86600400Y-174218356D01*
X86486114Y-174218356D01*
X86448019Y-174199308D01*
X86428971Y-174180261D01*
X86828971Y-173856451D02*
X86848019Y-173837404D01*
X86886114Y-173818356D01*
X86981352Y-173818356D01*
X87019447Y-173837404D01*
X87038495Y-173856451D01*
X87057542Y-173894546D01*
X87057542Y-173932642D01*
X87038495Y-173989784D01*
X86809923Y-174218356D01*
X87057542Y-174218356D01*
X87190876Y-173818356D02*
X87438495Y-173818356D01*
X87305161Y-173970737D01*
X87362304Y-173970737D01*
X87400400Y-173989784D01*
X87419447Y-174008832D01*
X87438495Y-174046927D01*
X87438495Y-174142165D01*
X87419447Y-174180261D01*
X87400400Y-174199308D01*
X87362304Y-174218356D01*
X87248019Y-174218356D01*
X87209923Y-174199308D01*
X87190876Y-174180261D01*
X85571839Y-110387056D02*
X85381363Y-110387056D01*
X85381363Y-109987056D01*
X85705172Y-110177532D02*
X85838506Y-110177532D01*
X85895649Y-110387056D02*
X85705172Y-110387056D01*
X85705172Y-109987056D01*
X85895649Y-109987056D01*
X86067077Y-110387056D02*
X86067077Y-109987056D01*
X86162315Y-109987056D01*
X86219458Y-110006104D01*
X86257553Y-110044199D01*
X86276601Y-110082294D01*
X86295649Y-110158484D01*
X86295649Y-110215627D01*
X86276601Y-110291818D01*
X86257553Y-110329913D01*
X86219458Y-110368008D01*
X86162315Y-110387056D01*
X86067077Y-110387056D01*
X86428982Y-109987056D02*
X86676601Y-109987056D01*
X86543268Y-110139437D01*
X86600411Y-110139437D01*
X86638506Y-110158484D01*
X86657553Y-110177532D01*
X86676601Y-110215627D01*
X86676601Y-110310865D01*
X86657553Y-110348961D01*
X86638506Y-110368008D01*
X86600411Y-110387056D01*
X86486125Y-110387056D01*
X86448030Y-110368008D01*
X86428982Y-110348961D01*
X86924220Y-109987056D02*
X86962315Y-109987056D01*
X87000411Y-110006104D01*
X87019458Y-110025151D01*
X87038506Y-110063246D01*
X87057553Y-110139437D01*
X87057553Y-110234675D01*
X87038506Y-110310865D01*
X87019458Y-110348961D01*
X87000411Y-110368008D01*
X86962315Y-110387056D01*
X86924220Y-110387056D01*
X86886125Y-110368008D01*
X86867077Y-110348961D01*
X86848030Y-110310865D01*
X86828982Y-110234675D01*
X86828982Y-110139437D01*
X86848030Y-110063246D01*
X86867077Y-110025151D01*
X86886125Y-110006104D01*
X86924220Y-109987056D01*
X87400411Y-109987056D02*
X87324220Y-109987056D01*
X87286125Y-110006104D01*
X87267077Y-110025151D01*
X87228982Y-110082294D01*
X87209934Y-110158484D01*
X87209934Y-110310865D01*
X87228982Y-110348961D01*
X87248030Y-110368008D01*
X87286125Y-110387056D01*
X87362315Y-110387056D01*
X87400411Y-110368008D01*
X87419458Y-110348961D01*
X87438506Y-110310865D01*
X87438506Y-110215627D01*
X87419458Y-110177532D01*
X87400411Y-110158484D01*
X87362315Y-110139437D01*
X87286125Y-110139437D01*
X87248030Y-110158484D01*
X87228982Y-110177532D01*
X87209934Y-110215627D01*
X85571828Y-177973138D02*
X85381352Y-177973138D01*
X85381352Y-177573138D01*
X85705161Y-177763614D02*
X85838495Y-177763614D01*
X85895638Y-177973138D02*
X85705161Y-177973138D01*
X85705161Y-177573138D01*
X85895638Y-177573138D01*
X86067066Y-177973138D02*
X86067066Y-177573138D01*
X86162304Y-177573138D01*
X86219447Y-177592186D01*
X86257542Y-177630281D01*
X86276590Y-177668376D01*
X86295638Y-177744566D01*
X86295638Y-177801709D01*
X86276590Y-177877900D01*
X86257542Y-177915995D01*
X86219447Y-177954090D01*
X86162304Y-177973138D01*
X86067066Y-177973138D01*
X86428971Y-177573138D02*
X86676590Y-177573138D01*
X86543257Y-177725519D01*
X86600400Y-177725519D01*
X86638495Y-177744566D01*
X86657542Y-177763614D01*
X86676590Y-177801709D01*
X86676590Y-177896947D01*
X86657542Y-177935043D01*
X86638495Y-177954090D01*
X86600400Y-177973138D01*
X86486114Y-177973138D01*
X86448019Y-177954090D01*
X86428971Y-177935043D01*
X86828971Y-177611233D02*
X86848019Y-177592186D01*
X86886114Y-177573138D01*
X86981352Y-177573138D01*
X87019447Y-177592186D01*
X87038495Y-177611233D01*
X87057542Y-177649328D01*
X87057542Y-177687424D01*
X87038495Y-177744566D01*
X86809923Y-177973138D01*
X87057542Y-177973138D01*
X87400400Y-177706471D02*
X87400400Y-177973138D01*
X87305161Y-177554090D02*
X87209923Y-177839805D01*
X87457542Y-177839805D01*
X85571828Y-140425318D02*
X85381352Y-140425318D01*
X85381352Y-140025318D01*
X85705161Y-140215794D02*
X85838495Y-140215794D01*
X85895638Y-140425318D02*
X85705161Y-140425318D01*
X85705161Y-140025318D01*
X85895638Y-140025318D01*
X86067066Y-140425318D02*
X86067066Y-140025318D01*
X86162304Y-140025318D01*
X86219447Y-140044366D01*
X86257542Y-140082461D01*
X86276590Y-140120556D01*
X86295638Y-140196746D01*
X86295638Y-140253889D01*
X86276590Y-140330080D01*
X86257542Y-140368175D01*
X86219447Y-140406270D01*
X86162304Y-140425318D01*
X86067066Y-140425318D01*
X86428971Y-140025318D02*
X86676590Y-140025318D01*
X86543257Y-140177699D01*
X86600400Y-140177699D01*
X86638495Y-140196746D01*
X86657542Y-140215794D01*
X86676590Y-140253889D01*
X86676590Y-140349127D01*
X86657542Y-140387223D01*
X86638495Y-140406270D01*
X86600400Y-140425318D01*
X86486114Y-140425318D01*
X86448019Y-140406270D01*
X86428971Y-140387223D01*
X87057542Y-140425318D02*
X86828971Y-140425318D01*
X86943257Y-140425318D02*
X86943257Y-140025318D01*
X86905161Y-140082461D01*
X86867066Y-140120556D01*
X86828971Y-140139604D01*
X87400400Y-140158651D02*
X87400400Y-140425318D01*
X87305161Y-140006270D02*
X87209923Y-140291985D01*
X87457542Y-140291985D01*
X85571839Y-106632276D02*
X85381363Y-106632276D01*
X85381363Y-106232276D01*
X85705172Y-106422752D02*
X85838506Y-106422752D01*
X85895649Y-106632276D02*
X85705172Y-106632276D01*
X85705172Y-106232276D01*
X85895649Y-106232276D01*
X86067077Y-106632276D02*
X86067077Y-106232276D01*
X86162315Y-106232276D01*
X86219458Y-106251324D01*
X86257553Y-106289419D01*
X86276601Y-106327514D01*
X86295649Y-106403704D01*
X86295649Y-106460847D01*
X86276601Y-106537038D01*
X86257553Y-106575133D01*
X86219458Y-106613228D01*
X86162315Y-106632276D01*
X86067077Y-106632276D01*
X86428982Y-106232276D02*
X86676601Y-106232276D01*
X86543268Y-106384657D01*
X86600411Y-106384657D01*
X86638506Y-106403704D01*
X86657553Y-106422752D01*
X86676601Y-106460847D01*
X86676601Y-106556085D01*
X86657553Y-106594181D01*
X86638506Y-106613228D01*
X86600411Y-106632276D01*
X86486125Y-106632276D01*
X86448030Y-106613228D01*
X86428982Y-106594181D01*
X86924220Y-106232276D02*
X86962315Y-106232276D01*
X87000411Y-106251324D01*
X87019458Y-106270371D01*
X87038506Y-106308466D01*
X87057553Y-106384657D01*
X87057553Y-106479895D01*
X87038506Y-106556085D01*
X87019458Y-106594181D01*
X87000411Y-106613228D01*
X86962315Y-106632276D01*
X86924220Y-106632276D01*
X86886125Y-106613228D01*
X86867077Y-106594181D01*
X86848030Y-106556085D01*
X86828982Y-106479895D01*
X86828982Y-106384657D01*
X86848030Y-106308466D01*
X86867077Y-106270371D01*
X86886125Y-106251324D01*
X86924220Y-106232276D01*
X87419458Y-106232276D02*
X87228982Y-106232276D01*
X87209934Y-106422752D01*
X87228982Y-106403704D01*
X87267077Y-106384657D01*
X87362315Y-106384657D01*
X87400411Y-106403704D01*
X87419458Y-106422752D01*
X87438506Y-106460847D01*
X87438506Y-106556085D01*
X87419458Y-106594181D01*
X87400411Y-106613228D01*
X87362315Y-106632276D01*
X87267077Y-106632276D01*
X87228982Y-106613228D01*
X87209934Y-106594181D01*
X85571828Y-144180100D02*
X85381352Y-144180100D01*
X85381352Y-143780100D01*
X85705161Y-143970576D02*
X85838495Y-143970576D01*
X85895638Y-144180100D02*
X85705161Y-144180100D01*
X85705161Y-143780100D01*
X85895638Y-143780100D01*
X86067066Y-144180100D02*
X86067066Y-143780100D01*
X86162304Y-143780100D01*
X86219447Y-143799148D01*
X86257542Y-143837243D01*
X86276590Y-143875338D01*
X86295638Y-143951528D01*
X86295638Y-144008671D01*
X86276590Y-144084862D01*
X86257542Y-144122957D01*
X86219447Y-144161052D01*
X86162304Y-144180100D01*
X86067066Y-144180100D01*
X86428971Y-143780100D02*
X86676590Y-143780100D01*
X86543257Y-143932481D01*
X86600400Y-143932481D01*
X86638495Y-143951528D01*
X86657542Y-143970576D01*
X86676590Y-144008671D01*
X86676590Y-144103909D01*
X86657542Y-144142005D01*
X86638495Y-144161052D01*
X86600400Y-144180100D01*
X86486114Y-144180100D01*
X86448019Y-144161052D01*
X86428971Y-144142005D01*
X87057542Y-144180100D02*
X86828971Y-144180100D01*
X86943257Y-144180100D02*
X86943257Y-143780100D01*
X86905161Y-143837243D01*
X86867066Y-143875338D01*
X86828971Y-143894386D01*
X87419447Y-143780100D02*
X87228971Y-143780100D01*
X87209923Y-143970576D01*
X87228971Y-143951528D01*
X87267066Y-143932481D01*
X87362304Y-143932481D01*
X87400400Y-143951528D01*
X87419447Y-143970576D01*
X87438495Y-144008671D01*
X87438495Y-144103909D01*
X87419447Y-144142005D01*
X87400400Y-144161052D01*
X87362304Y-144180100D01*
X87267066Y-144180100D01*
X87228971Y-144161052D01*
X87209923Y-144142005D01*
X85571828Y-136670536D02*
X85381352Y-136670536D01*
X85381352Y-136270536D01*
X85705161Y-136461012D02*
X85838495Y-136461012D01*
X85895638Y-136670536D02*
X85705161Y-136670536D01*
X85705161Y-136270536D01*
X85895638Y-136270536D01*
X86067066Y-136670536D02*
X86067066Y-136270536D01*
X86162304Y-136270536D01*
X86219447Y-136289584D01*
X86257542Y-136327679D01*
X86276590Y-136365774D01*
X86295638Y-136441964D01*
X86295638Y-136499107D01*
X86276590Y-136575298D01*
X86257542Y-136613393D01*
X86219447Y-136651488D01*
X86162304Y-136670536D01*
X86067066Y-136670536D01*
X86428971Y-136270536D02*
X86676590Y-136270536D01*
X86543257Y-136422917D01*
X86600400Y-136422917D01*
X86638495Y-136441964D01*
X86657542Y-136461012D01*
X86676590Y-136499107D01*
X86676590Y-136594345D01*
X86657542Y-136632441D01*
X86638495Y-136651488D01*
X86600400Y-136670536D01*
X86486114Y-136670536D01*
X86448019Y-136651488D01*
X86428971Y-136632441D01*
X87057542Y-136670536D02*
X86828971Y-136670536D01*
X86943257Y-136670536D02*
X86943257Y-136270536D01*
X86905161Y-136327679D01*
X86867066Y-136365774D01*
X86828971Y-136384822D01*
X87190876Y-136270536D02*
X87438495Y-136270536D01*
X87305161Y-136422917D01*
X87362304Y-136422917D01*
X87400400Y-136441964D01*
X87419447Y-136461012D01*
X87438495Y-136499107D01*
X87438495Y-136594345D01*
X87419447Y-136632441D01*
X87400400Y-136651488D01*
X87362304Y-136670536D01*
X87248019Y-136670536D01*
X87209923Y-136651488D01*
X87190876Y-136632441D01*
X85571828Y-125406190D02*
X85381352Y-125406190D01*
X85381352Y-125006190D01*
X85705161Y-125196666D02*
X85838495Y-125196666D01*
X85895638Y-125406190D02*
X85705161Y-125406190D01*
X85705161Y-125006190D01*
X85895638Y-125006190D01*
X86067066Y-125406190D02*
X86067066Y-125006190D01*
X86162304Y-125006190D01*
X86219447Y-125025238D01*
X86257542Y-125063333D01*
X86276590Y-125101428D01*
X86295638Y-125177618D01*
X86295638Y-125234761D01*
X86276590Y-125310952D01*
X86257542Y-125349047D01*
X86219447Y-125387142D01*
X86162304Y-125406190D01*
X86067066Y-125406190D01*
X86428971Y-125006190D02*
X86676590Y-125006190D01*
X86543257Y-125158571D01*
X86600400Y-125158571D01*
X86638495Y-125177618D01*
X86657542Y-125196666D01*
X86676590Y-125234761D01*
X86676590Y-125329999D01*
X86657542Y-125368095D01*
X86638495Y-125387142D01*
X86600400Y-125406190D01*
X86486114Y-125406190D01*
X86448019Y-125387142D01*
X86428971Y-125368095D01*
X87057542Y-125406190D02*
X86828971Y-125406190D01*
X86943257Y-125406190D02*
X86943257Y-125006190D01*
X86905161Y-125063333D01*
X86867066Y-125101428D01*
X86828971Y-125120476D01*
X87305161Y-125006190D02*
X87343257Y-125006190D01*
X87381352Y-125025238D01*
X87400400Y-125044285D01*
X87419447Y-125082380D01*
X87438495Y-125158571D01*
X87438495Y-125253809D01*
X87419447Y-125329999D01*
X87400400Y-125368095D01*
X87381352Y-125387142D01*
X87343257Y-125406190D01*
X87305161Y-125406190D01*
X87267066Y-125387142D01*
X87248019Y-125368095D01*
X87228971Y-125329999D01*
X87209923Y-125253809D01*
X87209923Y-125158571D01*
X87228971Y-125082380D01*
X87248019Y-125044285D01*
X87267066Y-125025238D01*
X87305161Y-125006190D01*
X85571828Y-91613152D02*
X85381352Y-91613152D01*
X85381352Y-91213152D01*
X85705161Y-91403628D02*
X85838495Y-91403628D01*
X85895638Y-91613152D02*
X85705161Y-91613152D01*
X85705161Y-91213152D01*
X85895638Y-91213152D01*
X86067066Y-91613152D02*
X86067066Y-91213152D01*
X86162304Y-91213152D01*
X86219447Y-91232200D01*
X86257542Y-91270295D01*
X86276590Y-91308390D01*
X86295638Y-91384580D01*
X86295638Y-91441723D01*
X86276590Y-91517914D01*
X86257542Y-91556009D01*
X86219447Y-91594104D01*
X86162304Y-91613152D01*
X86067066Y-91613152D01*
X86428971Y-91213152D02*
X86676590Y-91213152D01*
X86543257Y-91365533D01*
X86600400Y-91365533D01*
X86638495Y-91384580D01*
X86657542Y-91403628D01*
X86676590Y-91441723D01*
X86676590Y-91536961D01*
X86657542Y-91575057D01*
X86638495Y-91594104D01*
X86600400Y-91613152D01*
X86486114Y-91613152D01*
X86448019Y-91594104D01*
X86428971Y-91575057D01*
X86924209Y-91213152D02*
X86962304Y-91213152D01*
X87000400Y-91232200D01*
X87019447Y-91251247D01*
X87038495Y-91289342D01*
X87057542Y-91365533D01*
X87057542Y-91460771D01*
X87038495Y-91536961D01*
X87019447Y-91575057D01*
X87000400Y-91594104D01*
X86962304Y-91613152D01*
X86924209Y-91613152D01*
X86886114Y-91594104D01*
X86867066Y-91575057D01*
X86848019Y-91536961D01*
X86828971Y-91460771D01*
X86828971Y-91365533D01*
X86848019Y-91289342D01*
X86867066Y-91251247D01*
X86886114Y-91232200D01*
X86924209Y-91213152D01*
X87438495Y-91613152D02*
X87209923Y-91613152D01*
X87324209Y-91613152D02*
X87324209Y-91213152D01*
X87286114Y-91270295D01*
X87248019Y-91308390D01*
X87209923Y-91327438D01*
X85571828Y-117896626D02*
X85381352Y-117896626D01*
X85381352Y-117496626D01*
X85705161Y-117687102D02*
X85838495Y-117687102D01*
X85895638Y-117896626D02*
X85705161Y-117896626D01*
X85705161Y-117496626D01*
X85895638Y-117496626D01*
X86067066Y-117896626D02*
X86067066Y-117496626D01*
X86162304Y-117496626D01*
X86219447Y-117515674D01*
X86257542Y-117553769D01*
X86276590Y-117591864D01*
X86295638Y-117668054D01*
X86295638Y-117725197D01*
X86276590Y-117801388D01*
X86257542Y-117839483D01*
X86219447Y-117877578D01*
X86162304Y-117896626D01*
X86067066Y-117896626D01*
X86428971Y-117496626D02*
X86676590Y-117496626D01*
X86543257Y-117649007D01*
X86600400Y-117649007D01*
X86638495Y-117668054D01*
X86657542Y-117687102D01*
X86676590Y-117725197D01*
X86676590Y-117820435D01*
X86657542Y-117858531D01*
X86638495Y-117877578D01*
X86600400Y-117896626D01*
X86486114Y-117896626D01*
X86448019Y-117877578D01*
X86428971Y-117858531D01*
X86924209Y-117496626D02*
X86962304Y-117496626D01*
X87000400Y-117515674D01*
X87019447Y-117534721D01*
X87038495Y-117572816D01*
X87057542Y-117649007D01*
X87057542Y-117744245D01*
X87038495Y-117820435D01*
X87019447Y-117858531D01*
X87000400Y-117877578D01*
X86962304Y-117896626D01*
X86924209Y-117896626D01*
X86886114Y-117877578D01*
X86867066Y-117858531D01*
X86848019Y-117820435D01*
X86828971Y-117744245D01*
X86828971Y-117649007D01*
X86848019Y-117572816D01*
X86867066Y-117534721D01*
X86886114Y-117515674D01*
X86924209Y-117496626D01*
X87286114Y-117668054D02*
X87248019Y-117649007D01*
X87228971Y-117629959D01*
X87209923Y-117591864D01*
X87209923Y-117572816D01*
X87228971Y-117534721D01*
X87248019Y-117515674D01*
X87286114Y-117496626D01*
X87362304Y-117496626D01*
X87400400Y-117515674D01*
X87419447Y-117534721D01*
X87438495Y-117572816D01*
X87438495Y-117591864D01*
X87419447Y-117629959D01*
X87400400Y-117649007D01*
X87362304Y-117668054D01*
X87286114Y-117668054D01*
X87248019Y-117687102D01*
X87228971Y-117706150D01*
X87209923Y-117744245D01*
X87209923Y-117820435D01*
X87228971Y-117858531D01*
X87248019Y-117877578D01*
X87286114Y-117896626D01*
X87362304Y-117896626D01*
X87400400Y-117877578D01*
X87419447Y-117858531D01*
X87438495Y-117820435D01*
X87438495Y-117744245D01*
X87419447Y-117706150D01*
X87400400Y-117687102D01*
X87362304Y-117668054D01*
X85571828Y-102877498D02*
X85381352Y-102877498D01*
X85381352Y-102477498D01*
X85705161Y-102667974D02*
X85838495Y-102667974D01*
X85895638Y-102877498D02*
X85705161Y-102877498D01*
X85705161Y-102477498D01*
X85895638Y-102477498D01*
X86067066Y-102877498D02*
X86067066Y-102477498D01*
X86162304Y-102477498D01*
X86219447Y-102496546D01*
X86257542Y-102534641D01*
X86276590Y-102572736D01*
X86295638Y-102648926D01*
X86295638Y-102706069D01*
X86276590Y-102782260D01*
X86257542Y-102820355D01*
X86219447Y-102858450D01*
X86162304Y-102877498D01*
X86067066Y-102877498D01*
X86428971Y-102477498D02*
X86676590Y-102477498D01*
X86543257Y-102629879D01*
X86600400Y-102629879D01*
X86638495Y-102648926D01*
X86657542Y-102667974D01*
X86676590Y-102706069D01*
X86676590Y-102801307D01*
X86657542Y-102839403D01*
X86638495Y-102858450D01*
X86600400Y-102877498D01*
X86486114Y-102877498D01*
X86448019Y-102858450D01*
X86428971Y-102839403D01*
X86924209Y-102477498D02*
X86962304Y-102477498D01*
X87000400Y-102496546D01*
X87019447Y-102515593D01*
X87038495Y-102553688D01*
X87057542Y-102629879D01*
X87057542Y-102725117D01*
X87038495Y-102801307D01*
X87019447Y-102839403D01*
X87000400Y-102858450D01*
X86962304Y-102877498D01*
X86924209Y-102877498D01*
X86886114Y-102858450D01*
X86867066Y-102839403D01*
X86848019Y-102801307D01*
X86828971Y-102725117D01*
X86828971Y-102629879D01*
X86848019Y-102553688D01*
X86867066Y-102515593D01*
X86886114Y-102496546D01*
X86924209Y-102477498D01*
X87400400Y-102610831D02*
X87400400Y-102877498D01*
X87305161Y-102458450D02*
X87209923Y-102744165D01*
X87457542Y-102744165D01*
X85571828Y-114141844D02*
X85381352Y-114141844D01*
X85381352Y-113741844D01*
X85705161Y-113932320D02*
X85838495Y-113932320D01*
X85895638Y-114141844D02*
X85705161Y-114141844D01*
X85705161Y-113741844D01*
X85895638Y-113741844D01*
X86067066Y-114141844D02*
X86067066Y-113741844D01*
X86162304Y-113741844D01*
X86219447Y-113760892D01*
X86257542Y-113798987D01*
X86276590Y-113837082D01*
X86295638Y-113913272D01*
X86295638Y-113970415D01*
X86276590Y-114046606D01*
X86257542Y-114084701D01*
X86219447Y-114122796D01*
X86162304Y-114141844D01*
X86067066Y-114141844D01*
X86428971Y-113741844D02*
X86676590Y-113741844D01*
X86543257Y-113894225D01*
X86600400Y-113894225D01*
X86638495Y-113913272D01*
X86657542Y-113932320D01*
X86676590Y-113970415D01*
X86676590Y-114065653D01*
X86657542Y-114103749D01*
X86638495Y-114122796D01*
X86600400Y-114141844D01*
X86486114Y-114141844D01*
X86448019Y-114122796D01*
X86428971Y-114103749D01*
X86924209Y-113741844D02*
X86962304Y-113741844D01*
X87000400Y-113760892D01*
X87019447Y-113779939D01*
X87038495Y-113818034D01*
X87057542Y-113894225D01*
X87057542Y-113989463D01*
X87038495Y-114065653D01*
X87019447Y-114103749D01*
X87000400Y-114122796D01*
X86962304Y-114141844D01*
X86924209Y-114141844D01*
X86886114Y-114122796D01*
X86867066Y-114103749D01*
X86848019Y-114065653D01*
X86828971Y-113989463D01*
X86828971Y-113894225D01*
X86848019Y-113818034D01*
X86867066Y-113779939D01*
X86886114Y-113760892D01*
X86924209Y-113741844D01*
X87190876Y-113741844D02*
X87457542Y-113741844D01*
X87286114Y-114141844D01*
X86831476Y-74518809D02*
X86736238Y-74585476D01*
X86831476Y-74633095D02*
X86631476Y-74633095D01*
X86631476Y-74556904D01*
X86641000Y-74537857D01*
X86650523Y-74528333D01*
X86669571Y-74518809D01*
X86698142Y-74518809D01*
X86717190Y-74528333D01*
X86726714Y-74537857D01*
X86736238Y-74556904D01*
X86736238Y-74633095D01*
X86650523Y-74442619D02*
X86641000Y-74433095D01*
X86631476Y-74414047D01*
X86631476Y-74366428D01*
X86641000Y-74347380D01*
X86650523Y-74337857D01*
X86669571Y-74328333D01*
X86688619Y-74328333D01*
X86717190Y-74337857D01*
X86831476Y-74452142D01*
X86831476Y-74328333D01*
X86831476Y-74137857D02*
X86831476Y-74252142D01*
X86831476Y-74195000D02*
X86631476Y-74195000D01*
X86660047Y-74214047D01*
X86679095Y-74233095D01*
X86688619Y-74252142D01*
X86631476Y-74014047D02*
X86631476Y-73995000D01*
X86641000Y-73975952D01*
X86650523Y-73966428D01*
X86669571Y-73956904D01*
X86707666Y-73947380D01*
X86755285Y-73947380D01*
X86793380Y-73956904D01*
X86812428Y-73966428D01*
X86821952Y-73975952D01*
X86831476Y-73995000D01*
X86831476Y-74014047D01*
X86821952Y-74033095D01*
X86812428Y-74042619D01*
X86793380Y-74052142D01*
X86755285Y-74061666D01*
X86707666Y-74061666D01*
X86669571Y-74052142D01*
X86650523Y-74042619D01*
X86641000Y-74033095D01*
X86631476Y-74014047D01*
D11*
X85812380Y-60769285D02*
X86621904Y-60769285D01*
X86717142Y-60721666D01*
X86764761Y-60674047D01*
X86812380Y-60578809D01*
X86812380Y-60388333D01*
X86764761Y-60293095D01*
X86717142Y-60245476D01*
X86621904Y-60197857D01*
X85812380Y-60197857D01*
X85907619Y-59769285D02*
X85860000Y-59721666D01*
X85812380Y-59626428D01*
X85812380Y-59388333D01*
X85860000Y-59293095D01*
X85907619Y-59245476D01*
X86002857Y-59197857D01*
X86098095Y-59197857D01*
X86240952Y-59245476D01*
X86812380Y-59816904D01*
X86812380Y-59197857D01*
X85812380Y-58578809D02*
X85812380Y-58483571D01*
X85860000Y-58388333D01*
X85907619Y-58340714D01*
X86002857Y-58293095D01*
X86193333Y-58245476D01*
X86431428Y-58245476D01*
X86621904Y-58293095D01*
X86717142Y-58340714D01*
X86764761Y-58388333D01*
X86812380Y-58483571D01*
X86812380Y-58578809D01*
X86764761Y-58674047D01*
X86717142Y-58721666D01*
X86621904Y-58769285D01*
X86431428Y-58816904D01*
X86193333Y-58816904D01*
X86002857Y-58769285D01*
X85907619Y-58721666D01*
X85860000Y-58674047D01*
X85812380Y-58578809D01*
X85812380Y-57912142D02*
X85812380Y-57293095D01*
X86193333Y-57626428D01*
X86193333Y-57483571D01*
X86240952Y-57388333D01*
X86288571Y-57340714D01*
X86383809Y-57293095D01*
X86621904Y-57293095D01*
X86717142Y-57340714D01*
X86764761Y-57388333D01*
X86812380Y-57483571D01*
X86812380Y-57769285D01*
X86764761Y-57864523D01*
X86717142Y-57912142D01*
D12*
X82752380Y-58292857D02*
X82776190Y-58221428D01*
X82776190Y-58102380D01*
X82752380Y-58054761D01*
X82728571Y-58030952D01*
X82680952Y-58007142D01*
X82633333Y-58007142D01*
X82585714Y-58030952D01*
X82561904Y-58054761D01*
X82538095Y-58102380D01*
X82514285Y-58197619D01*
X82490476Y-58245238D01*
X82466666Y-58269047D01*
X82419047Y-58292857D01*
X82371428Y-58292857D01*
X82323809Y-58269047D01*
X82300000Y-58245238D01*
X82276190Y-58197619D01*
X82276190Y-58078571D01*
X82300000Y-58007142D01*
X82276190Y-57840476D02*
X82776190Y-57721428D01*
X82419047Y-57626190D01*
X82776190Y-57530952D01*
X82276190Y-57411904D01*
X82323809Y-57245238D02*
X82300000Y-57221428D01*
X82276190Y-57173809D01*
X82276190Y-57054761D01*
X82300000Y-57007142D01*
X82323809Y-56983333D01*
X82371428Y-56959523D01*
X82419047Y-56959523D01*
X82490476Y-56983333D01*
X82776190Y-57269047D01*
X82776190Y-56959523D01*
X82276190Y-56650000D02*
X82276190Y-56602380D01*
X82300000Y-56554761D01*
X82323809Y-56530952D01*
X82371428Y-56507142D01*
X82466666Y-56483333D01*
X82585714Y-56483333D01*
X82680952Y-56507142D01*
X82728571Y-56530952D01*
X82752380Y-56554761D01*
X82776190Y-56602380D01*
X82776190Y-56650000D01*
X82752380Y-56697619D01*
X82728571Y-56721428D01*
X82680952Y-56745238D01*
X82585714Y-56769047D01*
X82466666Y-56769047D01*
X82371428Y-56745238D01*
X82323809Y-56721428D01*
X82300000Y-56697619D01*
X82276190Y-56650000D01*
X82776190Y-56007142D02*
X82776190Y-56292857D01*
X82776190Y-56150000D02*
X82276190Y-56150000D01*
X82347619Y-56197619D01*
X82395238Y-56245238D01*
X82419047Y-56292857D01*
D10*
X85374190Y-179516076D02*
X85307523Y-179420838D01*
X85259904Y-179516076D02*
X85259904Y-179316076D01*
X85336095Y-179316076D01*
X85355142Y-179325600D01*
X85364666Y-179335123D01*
X85374190Y-179354171D01*
X85374190Y-179382742D01*
X85364666Y-179401790D01*
X85355142Y-179411314D01*
X85336095Y-179420838D01*
X85259904Y-179420838D01*
X85440857Y-179316076D02*
X85564666Y-179316076D01*
X85498000Y-179392266D01*
X85526571Y-179392266D01*
X85545619Y-179401790D01*
X85555142Y-179411314D01*
X85564666Y-179430361D01*
X85564666Y-179477980D01*
X85555142Y-179497028D01*
X85545619Y-179506552D01*
X85526571Y-179516076D01*
X85469428Y-179516076D01*
X85450380Y-179506552D01*
X85440857Y-179497028D01*
X85688476Y-179316076D02*
X85707523Y-179316076D01*
X85726571Y-179325600D01*
X85736095Y-179335123D01*
X85745619Y-179354171D01*
X85755142Y-179392266D01*
X85755142Y-179439885D01*
X85745619Y-179477980D01*
X85736095Y-179497028D01*
X85726571Y-179506552D01*
X85707523Y-179516076D01*
X85688476Y-179516076D01*
X85669428Y-179506552D01*
X85659904Y-179497028D01*
X85650380Y-179477980D01*
X85640857Y-179439885D01*
X85640857Y-179392266D01*
X85650380Y-179354171D01*
X85659904Y-179335123D01*
X85669428Y-179325600D01*
X85688476Y-179316076D01*
X85926571Y-179382742D02*
X85926571Y-179516076D01*
X85878952Y-179306552D02*
X85831333Y-179449409D01*
X85955142Y-179449409D01*
D12*
X81990476Y-54153571D02*
X81966666Y-54177380D01*
X81895238Y-54201190D01*
X81847619Y-54201190D01*
X81776190Y-54177380D01*
X81728571Y-54129761D01*
X81704761Y-54082142D01*
X81680952Y-53986904D01*
X81680952Y-53915476D01*
X81704761Y-53820238D01*
X81728571Y-53772619D01*
X81776190Y-53725000D01*
X81847619Y-53701190D01*
X81895238Y-53701190D01*
X81966666Y-53725000D01*
X81990476Y-53748809D01*
X82180952Y-53748809D02*
X82204761Y-53725000D01*
X82252380Y-53701190D01*
X82371428Y-53701190D01*
X82419047Y-53725000D01*
X82442857Y-53748809D01*
X82466666Y-53796428D01*
X82466666Y-53844047D01*
X82442857Y-53915476D01*
X82157142Y-54201190D01*
X82466666Y-54201190D01*
X82942857Y-54201190D02*
X82657142Y-54201190D01*
X82800000Y-54201190D02*
X82800000Y-53701190D01*
X82752380Y-53772619D01*
X82704761Y-53820238D01*
X82657142Y-53844047D01*
X83371428Y-53701190D02*
X83276190Y-53701190D01*
X83228571Y-53725000D01*
X83204761Y-53748809D01*
X83157142Y-53820238D01*
X83133333Y-53915476D01*
X83133333Y-54105952D01*
X83157142Y-54153571D01*
X83180952Y-54177380D01*
X83228571Y-54201190D01*
X83323809Y-54201190D01*
X83371428Y-54177380D01*
X83395238Y-54153571D01*
X83419047Y-54105952D01*
X83419047Y-53986904D01*
X83395238Y-53939285D01*
X83371428Y-53915476D01*
X83323809Y-53891666D01*
X83228571Y-53891666D01*
X83180952Y-53915476D01*
X83157142Y-53939285D01*
X83133333Y-53986904D01*
X82752380Y-43052857D02*
X82776190Y-42981428D01*
X82776190Y-42862380D01*
X82752380Y-42814761D01*
X82728571Y-42790952D01*
X82680952Y-42767142D01*
X82633333Y-42767142D01*
X82585714Y-42790952D01*
X82561904Y-42814761D01*
X82538095Y-42862380D01*
X82514285Y-42957619D01*
X82490476Y-43005238D01*
X82466666Y-43029047D01*
X82419047Y-43052857D01*
X82371428Y-43052857D01*
X82323809Y-43029047D01*
X82300000Y-43005238D01*
X82276190Y-42957619D01*
X82276190Y-42838571D01*
X82300000Y-42767142D01*
X82276190Y-42600476D02*
X82776190Y-42481428D01*
X82419047Y-42386190D01*
X82776190Y-42290952D01*
X82276190Y-42171904D01*
X82323809Y-42005238D02*
X82300000Y-41981428D01*
X82276190Y-41933809D01*
X82276190Y-41814761D01*
X82300000Y-41767142D01*
X82323809Y-41743333D01*
X82371428Y-41719523D01*
X82419047Y-41719523D01*
X82490476Y-41743333D01*
X82776190Y-42029047D01*
X82776190Y-41719523D01*
X82276190Y-41410000D02*
X82276190Y-41362380D01*
X82300000Y-41314761D01*
X82323809Y-41290952D01*
X82371428Y-41267142D01*
X82466666Y-41243333D01*
X82585714Y-41243333D01*
X82680952Y-41267142D01*
X82728571Y-41290952D01*
X82752380Y-41314761D01*
X82776190Y-41362380D01*
X82776190Y-41410000D01*
X82752380Y-41457619D01*
X82728571Y-41481428D01*
X82680952Y-41505238D01*
X82585714Y-41529047D01*
X82466666Y-41529047D01*
X82371428Y-41505238D01*
X82323809Y-41481428D01*
X82300000Y-41457619D01*
X82276190Y-41410000D01*
X82323809Y-41052857D02*
X82300000Y-41029047D01*
X82276190Y-40981428D01*
X82276190Y-40862380D01*
X82300000Y-40814761D01*
X82323809Y-40790952D01*
X82371428Y-40767142D01*
X82419047Y-40767142D01*
X82490476Y-40790952D01*
X82776190Y-41076666D01*
X82776190Y-40767142D01*
D10*
X84672476Y-26004809D02*
X84577238Y-26071476D01*
X84672476Y-26119095D02*
X84472476Y-26119095D01*
X84472476Y-26042904D01*
X84482000Y-26023857D01*
X84491523Y-26014333D01*
X84510571Y-26004809D01*
X84539142Y-26004809D01*
X84558190Y-26014333D01*
X84567714Y-26023857D01*
X84577238Y-26042904D01*
X84577238Y-26119095D01*
X84491523Y-25928619D02*
X84482000Y-25919095D01*
X84472476Y-25900047D01*
X84472476Y-25852428D01*
X84482000Y-25833380D01*
X84491523Y-25823857D01*
X84510571Y-25814333D01*
X84529619Y-25814333D01*
X84558190Y-25823857D01*
X84672476Y-25938142D01*
X84672476Y-25814333D01*
X84472476Y-25690523D02*
X84472476Y-25671476D01*
X84482000Y-25652428D01*
X84491523Y-25642904D01*
X84510571Y-25633380D01*
X84548666Y-25623857D01*
X84596285Y-25623857D01*
X84634380Y-25633380D01*
X84653428Y-25642904D01*
X84662952Y-25652428D01*
X84672476Y-25671476D01*
X84672476Y-25690523D01*
X84662952Y-25709571D01*
X84653428Y-25719095D01*
X84634380Y-25728619D01*
X84596285Y-25738142D01*
X84548666Y-25738142D01*
X84510571Y-25728619D01*
X84491523Y-25719095D01*
X84482000Y-25709571D01*
X84472476Y-25690523D01*
X84472476Y-25452428D02*
X84472476Y-25490523D01*
X84482000Y-25509571D01*
X84491523Y-25519095D01*
X84520095Y-25538142D01*
X84558190Y-25547666D01*
X84634380Y-25547666D01*
X84653428Y-25538142D01*
X84662952Y-25528619D01*
X84672476Y-25509571D01*
X84672476Y-25471476D01*
X84662952Y-25452428D01*
X84653428Y-25442904D01*
X84634380Y-25433380D01*
X84586761Y-25433380D01*
X84567714Y-25442904D01*
X84558190Y-25452428D01*
X84548666Y-25471476D01*
X84548666Y-25509571D01*
X84558190Y-25528619D01*
X84567714Y-25538142D01*
X84586761Y-25547666D01*
D12*
X85502857Y-75926190D02*
X85502857Y-76330952D01*
X85526666Y-76378571D01*
X85550476Y-76402380D01*
X85598095Y-76426190D01*
X85693333Y-76426190D01*
X85740952Y-76402380D01*
X85764761Y-76378571D01*
X85788571Y-76330952D01*
X85788571Y-75926190D01*
X86240952Y-76092857D02*
X86240952Y-76426190D01*
X86121904Y-75902380D02*
X86002857Y-76259523D01*
X86312380Y-76259523D01*
X86598095Y-75926190D02*
X86645714Y-75926190D01*
X86693333Y-75950000D01*
X86717142Y-75973809D01*
X86740952Y-76021428D01*
X86764761Y-76116666D01*
X86764761Y-76235714D01*
X86740952Y-76330952D01*
X86717142Y-76378571D01*
X86693333Y-76402380D01*
X86645714Y-76426190D01*
X86598095Y-76426190D01*
X86550476Y-76402380D01*
X86526666Y-76378571D01*
X86502857Y-76330952D01*
X86479047Y-76235714D01*
X86479047Y-76116666D01*
X86502857Y-76021428D01*
X86526666Y-75973809D01*
X86550476Y-75950000D01*
X86598095Y-75926190D01*
X87240952Y-76426190D02*
X86955238Y-76426190D01*
X87098095Y-76426190D02*
X87098095Y-75926190D01*
X87050476Y-75997619D01*
X87002857Y-76045238D01*
X86955238Y-76069047D01*
D10*
X83808876Y-63469809D02*
X83713638Y-63536476D01*
X83808876Y-63584095D02*
X83608876Y-63584095D01*
X83608876Y-63507904D01*
X83618400Y-63488857D01*
X83627923Y-63479333D01*
X83646971Y-63469809D01*
X83675542Y-63469809D01*
X83694590Y-63479333D01*
X83704114Y-63488857D01*
X83713638Y-63507904D01*
X83713638Y-63584095D01*
X83627923Y-63393619D02*
X83618400Y-63384095D01*
X83608876Y-63365047D01*
X83608876Y-63317428D01*
X83618400Y-63298380D01*
X83627923Y-63288857D01*
X83646971Y-63279333D01*
X83666019Y-63279333D01*
X83694590Y-63288857D01*
X83808876Y-63403142D01*
X83808876Y-63279333D01*
X83608876Y-63155523D02*
X83608876Y-63136476D01*
X83618400Y-63117428D01*
X83627923Y-63107904D01*
X83646971Y-63098380D01*
X83685066Y-63088857D01*
X83732685Y-63088857D01*
X83770780Y-63098380D01*
X83789828Y-63107904D01*
X83799352Y-63117428D01*
X83808876Y-63136476D01*
X83808876Y-63155523D01*
X83799352Y-63174571D01*
X83789828Y-63184095D01*
X83770780Y-63193619D01*
X83732685Y-63203142D01*
X83685066Y-63203142D01*
X83646971Y-63193619D01*
X83627923Y-63184095D01*
X83618400Y-63174571D01*
X83608876Y-63155523D01*
X83675542Y-62917428D02*
X83808876Y-62917428D01*
X83599352Y-62965047D02*
X83742209Y-63012666D01*
X83742209Y-62888857D01*
X86898190Y-179516076D02*
X86831523Y-179420838D01*
X86783904Y-179516076D02*
X86783904Y-179316076D01*
X86860095Y-179316076D01*
X86879142Y-179325600D01*
X86888666Y-179335123D01*
X86898190Y-179354171D01*
X86898190Y-179382742D01*
X86888666Y-179401790D01*
X86879142Y-179411314D01*
X86860095Y-179420838D01*
X86783904Y-179420838D01*
X86964857Y-179316076D02*
X87088666Y-179316076D01*
X87022000Y-179392266D01*
X87050571Y-179392266D01*
X87069619Y-179401790D01*
X87079142Y-179411314D01*
X87088666Y-179430361D01*
X87088666Y-179477980D01*
X87079142Y-179497028D01*
X87069619Y-179506552D01*
X87050571Y-179516076D01*
X86993428Y-179516076D01*
X86974380Y-179506552D01*
X86964857Y-179497028D01*
X87212476Y-179316076D02*
X87231523Y-179316076D01*
X87250571Y-179325600D01*
X87260095Y-179335123D01*
X87269619Y-179354171D01*
X87279142Y-179392266D01*
X87279142Y-179439885D01*
X87269619Y-179477980D01*
X87260095Y-179497028D01*
X87250571Y-179506552D01*
X87231523Y-179516076D01*
X87212476Y-179516076D01*
X87193428Y-179506552D01*
X87183904Y-179497028D01*
X87174380Y-179477980D01*
X87164857Y-179439885D01*
X87164857Y-179392266D01*
X87174380Y-179354171D01*
X87183904Y-179335123D01*
X87193428Y-179325600D01*
X87212476Y-179316076D01*
X87460095Y-179316076D02*
X87364857Y-179316076D01*
X87355333Y-179411314D01*
X87364857Y-179401790D01*
X87383904Y-179392266D01*
X87431523Y-179392266D01*
X87450571Y-179401790D01*
X87460095Y-179411314D01*
X87469619Y-179430361D01*
X87469619Y-179477980D01*
X87460095Y-179497028D01*
X87450571Y-179506552D01*
X87431523Y-179516076D01*
X87383904Y-179516076D01*
X87364857Y-179506552D01*
X87355333Y-179497028D01*
D12*
X86308476Y-78664571D02*
X86284666Y-78688380D01*
X86213238Y-78712190D01*
X86165619Y-78712190D01*
X86094190Y-78688380D01*
X86046571Y-78640761D01*
X86022761Y-78593142D01*
X85998952Y-78497904D01*
X85998952Y-78426476D01*
X86022761Y-78331238D01*
X86046571Y-78283619D01*
X86094190Y-78236000D01*
X86165619Y-78212190D01*
X86213238Y-78212190D01*
X86284666Y-78236000D01*
X86308476Y-78259809D01*
X86737047Y-78378857D02*
X86737047Y-78712190D01*
X86618000Y-78188380D02*
X86498952Y-78545523D01*
X86808476Y-78545523D01*
X87094190Y-78212190D02*
X87141809Y-78212190D01*
X87189428Y-78236000D01*
X87213238Y-78259809D01*
X87237047Y-78307428D01*
X87260857Y-78402666D01*
X87260857Y-78521714D01*
X87237047Y-78616952D01*
X87213238Y-78664571D01*
X87189428Y-78688380D01*
X87141809Y-78712190D01*
X87094190Y-78712190D01*
X87046571Y-78688380D01*
X87022761Y-78664571D01*
X86998952Y-78616952D01*
X86975142Y-78521714D01*
X86975142Y-78402666D01*
X86998952Y-78307428D01*
X87022761Y-78259809D01*
X87046571Y-78236000D01*
X87094190Y-78212190D01*
X87737047Y-78712190D02*
X87451333Y-78712190D01*
X87594190Y-78712190D02*
X87594190Y-78212190D01*
X87546571Y-78283619D01*
X87498952Y-78331238D01*
X87451333Y-78355047D01*
D10*
X90362076Y-65197009D02*
X90266838Y-65263676D01*
X90362076Y-65311295D02*
X90162076Y-65311295D01*
X90162076Y-65235104D01*
X90171600Y-65216057D01*
X90181123Y-65206533D01*
X90200171Y-65197009D01*
X90228742Y-65197009D01*
X90247790Y-65206533D01*
X90257314Y-65216057D01*
X90266838Y-65235104D01*
X90266838Y-65311295D01*
X90181123Y-65120819D02*
X90171600Y-65111295D01*
X90162076Y-65092247D01*
X90162076Y-65044628D01*
X90171600Y-65025580D01*
X90181123Y-65016057D01*
X90200171Y-65006533D01*
X90219219Y-65006533D01*
X90247790Y-65016057D01*
X90362076Y-65130342D01*
X90362076Y-65006533D01*
X90162076Y-64882723D02*
X90162076Y-64863676D01*
X90171600Y-64844628D01*
X90181123Y-64835104D01*
X90200171Y-64825580D01*
X90238266Y-64816057D01*
X90285885Y-64816057D01*
X90323980Y-64825580D01*
X90343028Y-64835104D01*
X90352552Y-64844628D01*
X90362076Y-64863676D01*
X90362076Y-64882723D01*
X90352552Y-64901771D01*
X90343028Y-64911295D01*
X90323980Y-64920819D01*
X90285885Y-64930342D01*
X90238266Y-64930342D01*
X90200171Y-64920819D01*
X90181123Y-64911295D01*
X90171600Y-64901771D01*
X90162076Y-64882723D01*
X90162076Y-64749390D02*
X90162076Y-64625580D01*
X90238266Y-64692247D01*
X90238266Y-64663676D01*
X90247790Y-64644628D01*
X90257314Y-64635104D01*
X90276361Y-64625580D01*
X90323980Y-64625580D01*
X90343028Y-64635104D01*
X90352552Y-64644628D01*
X90362076Y-64663676D01*
X90362076Y-64720819D01*
X90352552Y-64739866D01*
X90343028Y-64749390D01*
X83365179Y-72823226D02*
X83344976Y-72937710D01*
X83445991Y-72904039D02*
X83304570Y-73045460D01*
X83250695Y-72991585D01*
X83243961Y-72971382D01*
X83243961Y-72957913D01*
X83250695Y-72937710D01*
X83270898Y-72917507D01*
X83291101Y-72910773D01*
X83304570Y-72910773D01*
X83324773Y-72917507D01*
X83378648Y-72971382D01*
X83183352Y-72897304D02*
X83169883Y-72897304D01*
X83149680Y-72890570D01*
X83116008Y-72856898D01*
X83109274Y-72836695D01*
X83109274Y-72823226D01*
X83116008Y-72803023D01*
X83129477Y-72789555D01*
X83156414Y-72776086D01*
X83318039Y-72776086D01*
X83230492Y-72688539D01*
X83001524Y-72742414D02*
X82988055Y-72728946D01*
X82981321Y-72708742D01*
X82981321Y-72695274D01*
X82988055Y-72675071D01*
X83008258Y-72641399D01*
X83041930Y-72607727D01*
X83075602Y-72587524D01*
X83095805Y-72580790D01*
X83109274Y-72580790D01*
X83129477Y-72587524D01*
X83142946Y-72600993D01*
X83149680Y-72621196D01*
X83149680Y-72634665D01*
X83142946Y-72654868D01*
X83122742Y-72688539D01*
X83089071Y-72722211D01*
X83055399Y-72742414D01*
X83035196Y-72749149D01*
X83021727Y-72749149D01*
X83001524Y-72742414D01*
X82961118Y-72419165D02*
X83041930Y-72499978D01*
X83001524Y-72459571D02*
X82860103Y-72600993D01*
X82893775Y-72594258D01*
X82920712Y-72594258D01*
X82940915Y-72600993D01*
D12*
X85502857Y-25532590D02*
X85502857Y-25937352D01*
X85526666Y-25984971D01*
X85550476Y-26008780D01*
X85598095Y-26032590D01*
X85693333Y-26032590D01*
X85740952Y-26008780D01*
X85764761Y-25984971D01*
X85788571Y-25937352D01*
X85788571Y-25532590D01*
X86002857Y-25580209D02*
X86026666Y-25556400D01*
X86074285Y-25532590D01*
X86193333Y-25532590D01*
X86240952Y-25556400D01*
X86264761Y-25580209D01*
X86288571Y-25627828D01*
X86288571Y-25675447D01*
X86264761Y-25746876D01*
X85979047Y-26032590D01*
X86288571Y-26032590D01*
X86598095Y-25532590D02*
X86645714Y-25532590D01*
X86693333Y-25556400D01*
X86717142Y-25580209D01*
X86740952Y-25627828D01*
X86764761Y-25723066D01*
X86764761Y-25842114D01*
X86740952Y-25937352D01*
X86717142Y-25984971D01*
X86693333Y-26008780D01*
X86645714Y-26032590D01*
X86598095Y-26032590D01*
X86550476Y-26008780D01*
X86526666Y-25984971D01*
X86502857Y-25937352D01*
X86479047Y-25842114D01*
X86479047Y-25723066D01*
X86502857Y-25627828D01*
X86526666Y-25580209D01*
X86550476Y-25556400D01*
X86598095Y-25532590D01*
X86955238Y-25580209D02*
X86979047Y-25556400D01*
X87026666Y-25532590D01*
X87145714Y-25532590D01*
X87193333Y-25556400D01*
X87217142Y-25580209D01*
X87240952Y-25627828D01*
X87240952Y-25675447D01*
X87217142Y-25746876D01*
X86931428Y-26032590D01*
X87240952Y-26032590D01*
X86586190Y-86054285D02*
X86086190Y-86054285D01*
X86538571Y-85530476D02*
X86562380Y-85554285D01*
X86586190Y-85625714D01*
X86586190Y-85673333D01*
X86562380Y-85744761D01*
X86514761Y-85792380D01*
X86467142Y-85816190D01*
X86371904Y-85840000D01*
X86300476Y-85840000D01*
X86205238Y-85816190D01*
X86157619Y-85792380D01*
X86110000Y-85744761D01*
X86086190Y-85673333D01*
X86086190Y-85625714D01*
X86110000Y-85554285D01*
X86133809Y-85530476D01*
X86086190Y-85363809D02*
X86086190Y-85054285D01*
X86276666Y-85220952D01*
X86276666Y-85149523D01*
X86300476Y-85101904D01*
X86324285Y-85078095D01*
X86371904Y-85054285D01*
X86490952Y-85054285D01*
X86538571Y-85078095D01*
X86562380Y-85101904D01*
X86586190Y-85149523D01*
X86586190Y-85292380D01*
X86562380Y-85340000D01*
X86538571Y-85363809D01*
X86086190Y-84744761D02*
X86086190Y-84697142D01*
X86110000Y-84649523D01*
X86133809Y-84625714D01*
X86181428Y-84601904D01*
X86276666Y-84578095D01*
X86395714Y-84578095D01*
X86490952Y-84601904D01*
X86538571Y-84625714D01*
X86562380Y-84649523D01*
X86586190Y-84697142D01*
X86586190Y-84744761D01*
X86562380Y-84792380D01*
X86538571Y-84816190D01*
X86490952Y-84840000D01*
X86395714Y-84863809D01*
X86276666Y-84863809D01*
X86181428Y-84840000D01*
X86133809Y-84816190D01*
X86110000Y-84792380D01*
X86086190Y-84744761D01*
X86586190Y-84101904D02*
X86586190Y-84387619D01*
X86586190Y-84244761D02*
X86086190Y-84244761D01*
X86157619Y-84292380D01*
X86205238Y-84340000D01*
X86229047Y-84387619D01*
D11*
X87184957Y-70179408D02*
X87757377Y-69606988D01*
X87791049Y-69505973D01*
X87791049Y-69438629D01*
X87757377Y-69337614D01*
X87622690Y-69202927D01*
X87521675Y-69169255D01*
X87454331Y-69169255D01*
X87353316Y-69202927D01*
X86780896Y-69775347D01*
X86545194Y-69404957D02*
X86477851Y-69404957D01*
X86376835Y-69371286D01*
X86208477Y-69202927D01*
X86174805Y-69101912D01*
X86174805Y-69034568D01*
X86208477Y-68933553D01*
X86275820Y-68866209D01*
X86410507Y-68798866D01*
X87218629Y-68798866D01*
X86780896Y-68361133D01*
X85636057Y-68630507D02*
X85568713Y-68563164D01*
X85535042Y-68462148D01*
X85535042Y-68394805D01*
X85568713Y-68293790D01*
X85669729Y-68125431D01*
X85838087Y-67957072D01*
X86006446Y-67856057D01*
X86107461Y-67822385D01*
X86174805Y-67822385D01*
X86275820Y-67856057D01*
X86343164Y-67923400D01*
X86376835Y-68024416D01*
X86376835Y-68091759D01*
X86343164Y-68192774D01*
X86242148Y-68361133D01*
X86073790Y-68529492D01*
X85905431Y-68630507D01*
X85804416Y-68664179D01*
X85737072Y-68664179D01*
X85636057Y-68630507D01*
X85434026Y-67014263D02*
X85838087Y-67418324D01*
X85636057Y-67216294D02*
X84928950Y-67923400D01*
X85097309Y-67889729D01*
X85231996Y-67889729D01*
X85333011Y-67923400D01*
D10*
X86069476Y-74518809D02*
X85974238Y-74585476D01*
X86069476Y-74633095D02*
X85869476Y-74633095D01*
X85869476Y-74556904D01*
X85879000Y-74537857D01*
X85888523Y-74528333D01*
X85907571Y-74518809D01*
X85936142Y-74518809D01*
X85955190Y-74528333D01*
X85964714Y-74537857D01*
X85974238Y-74556904D01*
X85974238Y-74633095D01*
X85888523Y-74442619D02*
X85879000Y-74433095D01*
X85869476Y-74414047D01*
X85869476Y-74366428D01*
X85879000Y-74347380D01*
X85888523Y-74337857D01*
X85907571Y-74328333D01*
X85926619Y-74328333D01*
X85955190Y-74337857D01*
X86069476Y-74452142D01*
X86069476Y-74328333D01*
X85869476Y-74204523D02*
X85869476Y-74185476D01*
X85879000Y-74166428D01*
X85888523Y-74156904D01*
X85907571Y-74147380D01*
X85945666Y-74137857D01*
X85993285Y-74137857D01*
X86031380Y-74147380D01*
X86050428Y-74156904D01*
X86059952Y-74166428D01*
X86069476Y-74185476D01*
X86069476Y-74204523D01*
X86059952Y-74223571D01*
X86050428Y-74233095D01*
X86031380Y-74242619D01*
X85993285Y-74252142D01*
X85945666Y-74252142D01*
X85907571Y-74242619D01*
X85888523Y-74233095D01*
X85879000Y-74223571D01*
X85869476Y-74204523D01*
X86069476Y-74042619D02*
X86069476Y-74004523D01*
X86059952Y-73985476D01*
X86050428Y-73975952D01*
X86021857Y-73956904D01*
X85983761Y-73947380D01*
X85907571Y-73947380D01*
X85888523Y-73956904D01*
X85879000Y-73966428D01*
X85869476Y-73985476D01*
X85869476Y-74023571D01*
X85879000Y-74042619D01*
X85888523Y-74052142D01*
X85907571Y-74061666D01*
X85955190Y-74061666D01*
X85974238Y-74052142D01*
X85983761Y-74042619D01*
X85993285Y-74023571D01*
X85993285Y-73985476D01*
X85983761Y-73966428D01*
X85974238Y-73956904D01*
X85955190Y-73947380D01*
X88228476Y-26004809D02*
X88133238Y-26071476D01*
X88228476Y-26119095D02*
X88028476Y-26119095D01*
X88028476Y-26042904D01*
X88038000Y-26023857D01*
X88047523Y-26014333D01*
X88066571Y-26004809D01*
X88095142Y-26004809D01*
X88114190Y-26014333D01*
X88123714Y-26023857D01*
X88133238Y-26042904D01*
X88133238Y-26119095D01*
X88047523Y-25928619D02*
X88038000Y-25919095D01*
X88028476Y-25900047D01*
X88028476Y-25852428D01*
X88038000Y-25833380D01*
X88047523Y-25823857D01*
X88066571Y-25814333D01*
X88085619Y-25814333D01*
X88114190Y-25823857D01*
X88228476Y-25938142D01*
X88228476Y-25814333D01*
X88028476Y-25690523D02*
X88028476Y-25671476D01*
X88038000Y-25652428D01*
X88047523Y-25642904D01*
X88066571Y-25633380D01*
X88104666Y-25623857D01*
X88152285Y-25623857D01*
X88190380Y-25633380D01*
X88209428Y-25642904D01*
X88218952Y-25652428D01*
X88228476Y-25671476D01*
X88228476Y-25690523D01*
X88218952Y-25709571D01*
X88209428Y-25719095D01*
X88190380Y-25728619D01*
X88152285Y-25738142D01*
X88104666Y-25738142D01*
X88066571Y-25728619D01*
X88047523Y-25719095D01*
X88038000Y-25709571D01*
X88028476Y-25690523D01*
X88028476Y-25557190D02*
X88028476Y-25423857D01*
X88228476Y-25509571D01*
D11*
X85074285Y-19772380D02*
X85074285Y-20486666D01*
X85026666Y-20629523D01*
X84931428Y-20724761D01*
X84788571Y-20772380D01*
X84693333Y-20772380D01*
X85502857Y-19867619D02*
X85550476Y-19820000D01*
X85645714Y-19772380D01*
X85883809Y-19772380D01*
X85979047Y-19820000D01*
X86026666Y-19867619D01*
X86074285Y-19962857D01*
X86074285Y-20058095D01*
X86026666Y-20200952D01*
X85455238Y-20772380D01*
X86074285Y-20772380D01*
X86455238Y-19867619D02*
X86502857Y-19820000D01*
X86598095Y-19772380D01*
X86836190Y-19772380D01*
X86931428Y-19820000D01*
X86979047Y-19867619D01*
X87026666Y-19962857D01*
X87026666Y-20058095D01*
X86979047Y-20200952D01*
X86407619Y-20772380D01*
X87026666Y-20772380D01*
X87979047Y-20772380D02*
X87407619Y-20772380D01*
X87693333Y-20772380D02*
X87693333Y-19772380D01*
X87598095Y-19915238D01*
X87502857Y-20010476D01*
X87407619Y-20058095D01*
D10*
X84931233Y-63721280D02*
X84911030Y-63835764D01*
X85012045Y-63802093D02*
X84870624Y-63943514D01*
X84816749Y-63889639D01*
X84810015Y-63869436D01*
X84810015Y-63855967D01*
X84816749Y-63835764D01*
X84836952Y-63815561D01*
X84857155Y-63808827D01*
X84870624Y-63808827D01*
X84890827Y-63815561D01*
X84944702Y-63869436D01*
X84749406Y-63795358D02*
X84735937Y-63795358D01*
X84715734Y-63788624D01*
X84682062Y-63754952D01*
X84675328Y-63734749D01*
X84675328Y-63721280D01*
X84682062Y-63701077D01*
X84695531Y-63687609D01*
X84722468Y-63674140D01*
X84884093Y-63674140D01*
X84796546Y-63586593D01*
X84567578Y-63640468D02*
X84554109Y-63627000D01*
X84547375Y-63606796D01*
X84547375Y-63593328D01*
X84554109Y-63573125D01*
X84574312Y-63539453D01*
X84607984Y-63505781D01*
X84641656Y-63485578D01*
X84661859Y-63478844D01*
X84675328Y-63478844D01*
X84695531Y-63485578D01*
X84709000Y-63499047D01*
X84715734Y-63519250D01*
X84715734Y-63532719D01*
X84709000Y-63552922D01*
X84688796Y-63586593D01*
X84655125Y-63620265D01*
X84621453Y-63640468D01*
X84601250Y-63647203D01*
X84587781Y-63647203D01*
X84567578Y-63640468D01*
X84392485Y-63465375D02*
X84459829Y-63532719D01*
X84533906Y-63472109D01*
X84520438Y-63472109D01*
X84500235Y-63465375D01*
X84466563Y-63431703D01*
X84459829Y-63411500D01*
X84459829Y-63398032D01*
X84466563Y-63377829D01*
X84500235Y-63344157D01*
X84520438Y-63337422D01*
X84533906Y-63337422D01*
X84554109Y-63344157D01*
X84587781Y-63377829D01*
X84594516Y-63398032D01*
X84594516Y-63411500D01*
X90971676Y-65197009D02*
X90876438Y-65263676D01*
X90971676Y-65311295D02*
X90771676Y-65311295D01*
X90771676Y-65235104D01*
X90781200Y-65216057D01*
X90790723Y-65206533D01*
X90809771Y-65197009D01*
X90838342Y-65197009D01*
X90857390Y-65206533D01*
X90866914Y-65216057D01*
X90876438Y-65235104D01*
X90876438Y-65311295D01*
X90790723Y-65120819D02*
X90781200Y-65111295D01*
X90771676Y-65092247D01*
X90771676Y-65044628D01*
X90781200Y-65025580D01*
X90790723Y-65016057D01*
X90809771Y-65006533D01*
X90828819Y-65006533D01*
X90857390Y-65016057D01*
X90971676Y-65130342D01*
X90971676Y-65006533D01*
X90771676Y-64882723D02*
X90771676Y-64863676D01*
X90781200Y-64844628D01*
X90790723Y-64835104D01*
X90809771Y-64825580D01*
X90847866Y-64816057D01*
X90895485Y-64816057D01*
X90933580Y-64825580D01*
X90952628Y-64835104D01*
X90962152Y-64844628D01*
X90971676Y-64863676D01*
X90971676Y-64882723D01*
X90962152Y-64901771D01*
X90952628Y-64911295D01*
X90933580Y-64920819D01*
X90895485Y-64930342D01*
X90847866Y-64930342D01*
X90809771Y-64920819D01*
X90790723Y-64911295D01*
X90781200Y-64901771D01*
X90771676Y-64882723D01*
X90790723Y-64739866D02*
X90781200Y-64730342D01*
X90771676Y-64711295D01*
X90771676Y-64663676D01*
X90781200Y-64644628D01*
X90790723Y-64635104D01*
X90809771Y-64625580D01*
X90828819Y-64625580D01*
X90857390Y-64635104D01*
X90971676Y-64749390D01*
X90971676Y-64625580D01*
X87560000Y-133947602D02*
X85160000Y-133947602D01*
X85160000Y-133947602D02*
X85160000Y-131537602D01*
X85160000Y-131537602D02*
X87560000Y-131537602D01*
X87560000Y-131537602D02*
X87560000Y-133947602D01*
D13*
X87517200Y-133852402D02*
G75*
G03*
X87517200Y-133852402I-50000J0D01*
G01*
D10*
X87560000Y-171495422D02*
X85160000Y-171495422D01*
X85160000Y-171495422D02*
X85160000Y-169085422D01*
X85160000Y-169085422D02*
X87560000Y-169085422D01*
X87560000Y-169085422D02*
X87560000Y-171495422D01*
D13*
X87517200Y-171400222D02*
G75*
G03*
X87517200Y-171400222I-50000J0D01*
G01*
D10*
X87560000Y-167740640D02*
X85160000Y-167740640D01*
X85160000Y-167740640D02*
X85160000Y-165330640D01*
X85160000Y-165330640D02*
X87560000Y-165330640D01*
X87560000Y-165330640D02*
X87560000Y-167740640D01*
D13*
X87517200Y-167645440D02*
G75*
G03*
X87517200Y-167645440I-50000J0D01*
G01*
D10*
X87560000Y-156476294D02*
X85160000Y-156476294D01*
X85160000Y-156476294D02*
X85160000Y-154066294D01*
X85160000Y-154066294D02*
X87560000Y-154066294D01*
X87560000Y-154066294D02*
X87560000Y-156476294D01*
D13*
X87517200Y-156381094D02*
G75*
G03*
X87517200Y-156381094I-50000J0D01*
G01*
D10*
X87560000Y-96399782D02*
X85160000Y-96399782D01*
X85160000Y-96399782D02*
X85160000Y-93989782D01*
X85160000Y-93989782D02*
X87560000Y-93989782D01*
X87560000Y-93989782D02*
X87560000Y-96399782D01*
D13*
X87517200Y-96304582D02*
G75*
G03*
X87517200Y-96304582I-50000J0D01*
G01*
D10*
X87560000Y-152721512D02*
X85160000Y-152721512D01*
X85160000Y-152721512D02*
X85160000Y-150311512D01*
X85160000Y-150311512D02*
X87560000Y-150311512D01*
X87560000Y-150311512D02*
X87560000Y-152721512D01*
D13*
X87517200Y-152626312D02*
G75*
G03*
X87517200Y-152626312I-50000J0D01*
G01*
D10*
X87560000Y-148966730D02*
X85160000Y-148966730D01*
X85160000Y-148966730D02*
X85160000Y-146556730D01*
X85160000Y-146556730D02*
X87560000Y-146556730D01*
X87560000Y-146556730D02*
X87560000Y-148966730D01*
D13*
X87517200Y-148871530D02*
G75*
G03*
X87517200Y-148871530I-50000J0D01*
G01*
D10*
X87560000Y-122683256D02*
X85160000Y-122683256D01*
X85160000Y-122683256D02*
X85160000Y-120273256D01*
X85160000Y-120273256D02*
X87560000Y-120273256D01*
X87560000Y-120273256D02*
X87560000Y-122683256D01*
D13*
X87517200Y-122588056D02*
G75*
G03*
X87517200Y-122588056I-50000J0D01*
G01*
D10*
X87560000Y-160231076D02*
X85160000Y-160231076D01*
X85160000Y-160231076D02*
X85160000Y-157821076D01*
X85160000Y-157821076D02*
X87560000Y-157821076D01*
X87560000Y-157821076D02*
X87560000Y-160231076D01*
D13*
X87517200Y-160135876D02*
G75*
G03*
X87517200Y-160135876I-50000J0D01*
G01*
D10*
X87560000Y-100154564D02*
X85160000Y-100154564D01*
X85160000Y-100154564D02*
X85160000Y-97744564D01*
X85160000Y-97744564D02*
X87560000Y-97744564D01*
X87560000Y-97744564D02*
X87560000Y-100154564D01*
D13*
X87517200Y-100059364D02*
G75*
G03*
X87517200Y-100059364I-50000J0D01*
G01*
D10*
X87560000Y-163985858D02*
X85160000Y-163985858D01*
X85160000Y-163985858D02*
X85160000Y-161575858D01*
X85160000Y-161575858D02*
X87560000Y-161575858D01*
X87560000Y-161575858D02*
X87560000Y-163985858D01*
D13*
X87517200Y-163890658D02*
G75*
G03*
X87517200Y-163890658I-50000J0D01*
G01*
D10*
X87560000Y-130192820D02*
X85160000Y-130192820D01*
X85160000Y-130192820D02*
X85160000Y-127782820D01*
X85160000Y-127782820D02*
X87560000Y-127782820D01*
X87560000Y-127782820D02*
X87560000Y-130192820D01*
D13*
X87517200Y-130097620D02*
G75*
G03*
X87517200Y-130097620I-50000J0D01*
G01*
D10*
X87560000Y-175250204D02*
X85160000Y-175250204D01*
X85160000Y-175250204D02*
X85160000Y-172840204D01*
X85160000Y-172840204D02*
X87560000Y-172840204D01*
X87560000Y-172840204D02*
X87560000Y-175250204D01*
D13*
X87517200Y-175155004D02*
G75*
G03*
X87517200Y-175155004I-50000J0D01*
G01*
D10*
X87560011Y-111418904D02*
X85160011Y-111418904D01*
X85160011Y-111418904D02*
X85160011Y-109008904D01*
X85160011Y-109008904D02*
X87560011Y-109008904D01*
X87560011Y-109008904D02*
X87560011Y-111418904D01*
D13*
X87517211Y-111323704D02*
G75*
G03*
X87517211Y-111323704I-50000J0D01*
G01*
D10*
X87560000Y-179004986D02*
X85160000Y-179004986D01*
X85160000Y-179004986D02*
X85160000Y-176594986D01*
X85160000Y-176594986D02*
X87560000Y-176594986D01*
X87560000Y-176594986D02*
X87560000Y-179004986D01*
D13*
X87517200Y-178909786D02*
G75*
G03*
X87517200Y-178909786I-50000J0D01*
G01*
D10*
X87560000Y-141457166D02*
X85160000Y-141457166D01*
X85160000Y-141457166D02*
X85160000Y-139047166D01*
X85160000Y-139047166D02*
X87560000Y-139047166D01*
X87560000Y-139047166D02*
X87560000Y-141457166D01*
D13*
X87517200Y-141361966D02*
G75*
G03*
X87517200Y-141361966I-50000J0D01*
G01*
D10*
X87560011Y-107664124D02*
X85160011Y-107664124D01*
X85160011Y-107664124D02*
X85160011Y-105254124D01*
X85160011Y-105254124D02*
X87560011Y-105254124D01*
X87560011Y-105254124D02*
X87560011Y-107664124D01*
D13*
X87517211Y-107568924D02*
G75*
G03*
X87517211Y-107568924I-50000J0D01*
G01*
D10*
X87560000Y-145211948D02*
X85160000Y-145211948D01*
X85160000Y-145211948D02*
X85160000Y-142801948D01*
X85160000Y-142801948D02*
X87560000Y-142801948D01*
X87560000Y-142801948D02*
X87560000Y-145211948D01*
D13*
X87517200Y-145116748D02*
G75*
G03*
X87517200Y-145116748I-50000J0D01*
G01*
D10*
X87560000Y-137702384D02*
X85160000Y-137702384D01*
X85160000Y-137702384D02*
X85160000Y-135292384D01*
X85160000Y-135292384D02*
X87560000Y-135292384D01*
X87560000Y-135292384D02*
X87560000Y-137702384D01*
D13*
X87517200Y-137607184D02*
G75*
G03*
X87517200Y-137607184I-50000J0D01*
G01*
D10*
X87560000Y-126438038D02*
X85160000Y-126438038D01*
X85160000Y-126438038D02*
X85160000Y-124028038D01*
X85160000Y-124028038D02*
X87560000Y-124028038D01*
X87560000Y-124028038D02*
X87560000Y-126438038D01*
D13*
X87517200Y-126342838D02*
G75*
G03*
X87517200Y-126342838I-50000J0D01*
G01*
D10*
X87560000Y-92645000D02*
X85160000Y-92645000D01*
X85160000Y-92645000D02*
X85160000Y-90235000D01*
X85160000Y-90235000D02*
X87560000Y-90235000D01*
X87560000Y-90235000D02*
X87560000Y-92645000D01*
D13*
X87517200Y-92549800D02*
G75*
G03*
X87517200Y-92549800I-50000J0D01*
G01*
D10*
X87560000Y-118928474D02*
X85160000Y-118928474D01*
X85160000Y-118928474D02*
X85160000Y-116518474D01*
X85160000Y-116518474D02*
X87560000Y-116518474D01*
X87560000Y-116518474D02*
X87560000Y-118928474D01*
D13*
X87517200Y-118833274D02*
G75*
G03*
X87517200Y-118833274I-50000J0D01*
G01*
D10*
X87560000Y-103909346D02*
X85160000Y-103909346D01*
X85160000Y-103909346D02*
X85160000Y-101499346D01*
X85160000Y-101499346D02*
X87560000Y-101499346D01*
X87560000Y-101499346D02*
X87560000Y-103909346D01*
D13*
X87517200Y-103814146D02*
G75*
G03*
X87517200Y-103814146I-50000J0D01*
G01*
D10*
X87560000Y-115173692D02*
X85160000Y-115173692D01*
X85160000Y-115173692D02*
X85160000Y-112763692D01*
X85160000Y-112763692D02*
X87560000Y-112763692D01*
X87560000Y-112763692D02*
X87560000Y-115173692D01*
D13*
X87517200Y-115078492D02*
G75*
G03*
X87517200Y-115078492I-50000J0D01*
G01*
D10*
X86944200Y-74701400D02*
X86537800Y-74701400D01*
X86537800Y-74701400D02*
X86537800Y-73888600D01*
X86537800Y-73888600D02*
X86944200Y-73888600D01*
X86944200Y-73888600D02*
X86944200Y-74701400D01*
D14*
X83810000Y-62105000D02*
X83810000Y-56005000D01*
X88910000Y-62105000D02*
X88910000Y-56005000D01*
X83810000Y-56005000D02*
X88910000Y-56005000D01*
X83810000Y-62105000D02*
X88910000Y-62105000D01*
D15*
X83970800Y-62407800D02*
G75*
G03*
X83970800Y-62407800I-100000J0D01*
G01*
D12*
X83654900Y-55651400D02*
X81445100Y-55651400D01*
X81445100Y-55651400D02*
X81445100Y-58648600D01*
X81445100Y-58648600D02*
X83654900Y-58648600D01*
X83654900Y-58648600D02*
X83654900Y-55651400D01*
X83654900Y-56845200D02*
G75*
G03*
X83654900Y-57454800I0J-304800D01*
G01*
X82626200Y-55753000D02*
G75*
G03*
X82626200Y-55753000I-76200J0D01*
G01*
D10*
X85191600Y-179628800D02*
X86004400Y-179628800D01*
X86004400Y-179628800D02*
X86004400Y-179222400D01*
X86004400Y-179222400D02*
X85191600Y-179222400D01*
X85191600Y-179222400D02*
X85191600Y-179628800D01*
D13*
X81250000Y-54825000D02*
X81250000Y-53125000D01*
X83850000Y-53125000D02*
X83850000Y-54825000D01*
X83850000Y-54825000D02*
X81250000Y-54825000D01*
X81250000Y-53125000D02*
X83850000Y-53125000D01*
D12*
X83654900Y-40411400D02*
X81445100Y-40411400D01*
X81445100Y-40411400D02*
X81445100Y-43408600D01*
X83654900Y-43408600D02*
X83654900Y-40411400D01*
X81445100Y-43408600D02*
X83654900Y-43408600D01*
X81445100Y-42214800D02*
G75*
G03*
X81445100Y-41605200I0J304800D01*
G01*
X82626200Y-43307000D02*
G75*
G03*
X82626200Y-43307000I-76200J0D01*
G01*
D10*
X84378800Y-25374600D02*
X84785200Y-25374600D01*
X84785200Y-25374600D02*
X84785200Y-26187400D01*
X84785200Y-26187400D02*
X84378800Y-26187400D01*
X84378800Y-26187400D02*
X84378800Y-25374600D01*
D14*
X84810000Y-77500000D02*
X84810000Y-74900000D01*
X87910000Y-74900000D02*
X87910000Y-77500000D01*
X84810000Y-74900000D02*
X87910000Y-74900000D01*
X87910000Y-77500000D02*
X84810000Y-77500000D01*
D12*
X84310000Y-75200000D02*
G75*
G03*
X84310000Y-75200000I-50000J0D01*
G01*
D10*
X83515200Y-62839600D02*
X83921600Y-62839600D01*
X83921600Y-62839600D02*
X83921600Y-63652400D01*
X83921600Y-63652400D02*
X83515200Y-63652400D01*
X83515200Y-63652400D02*
X83515200Y-62839600D01*
X87528400Y-179222400D02*
X86715600Y-179222400D01*
X86715600Y-179222400D02*
X86715600Y-179628800D01*
X86715600Y-179628800D02*
X87528400Y-179628800D01*
X87528400Y-179628800D02*
X87528400Y-179222400D01*
D13*
X88168000Y-79336000D02*
X85568000Y-79336000D01*
X88168000Y-77636000D02*
X88168000Y-79336000D01*
X85568000Y-77636000D02*
X88168000Y-77636000D01*
X85568000Y-79336000D02*
X85568000Y-77636000D01*
D10*
X90474800Y-65379600D02*
X90068400Y-65379600D01*
X90068400Y-65379600D02*
X90068400Y-64566800D01*
X90068400Y-64566800D02*
X90474800Y-64566800D01*
X90474800Y-64566800D02*
X90474800Y-65379600D01*
X83573998Y-72872630D02*
X83286630Y-73159998D01*
X83286630Y-73159998D02*
X82711894Y-72585262D01*
X82711894Y-72585262D02*
X82999262Y-72297894D01*
X82999262Y-72297894D02*
X83573998Y-72872630D01*
D14*
X85060000Y-26356400D02*
X85060000Y-25256400D01*
X87660000Y-25256400D02*
X87660000Y-26356400D01*
X87660000Y-26356400D02*
X85060000Y-26356400D01*
X85060000Y-25256400D02*
X87660000Y-25256400D01*
D16*
X87630000Y-24706400D02*
G75*
G03*
X87630000Y-24706400I-70000J0D01*
G01*
D12*
X87360000Y-86240000D02*
X85360000Y-86240000D01*
X87360000Y-83940000D02*
X87360000Y-86240000D01*
X85360000Y-86240000D02*
X85360000Y-83940000D01*
X85360000Y-83940000D02*
X87360000Y-83940000D01*
X85860000Y-86240000D02*
X85360000Y-85740000D01*
D14*
X86360000Y-73529747D02*
X91309747Y-68580000D01*
X91309747Y-68580000D02*
X86360000Y-63630253D01*
X81410253Y-68580000D02*
X86360000Y-63630253D01*
X86360000Y-73529747D02*
X81410253Y-68580000D01*
D15*
X86064868Y-63586978D02*
G75*
G03*
X86064868Y-63586978I-99999J0D01*
G01*
D10*
X86182200Y-74701400D02*
X85775800Y-74701400D01*
X85775800Y-74701400D02*
X85775800Y-73888600D01*
X85775800Y-73888600D02*
X86182200Y-73888600D01*
X86182200Y-73888600D02*
X86182200Y-74701400D01*
X87934800Y-25374600D02*
X88341200Y-25374600D01*
X88341200Y-25374600D02*
X88341200Y-26187400D01*
X88341200Y-26187400D02*
X87934800Y-26187400D01*
X87934800Y-26187400D02*
X87934800Y-25374600D01*
D12*
X81889600Y-16941800D02*
X81889600Y-23698200D01*
X86360000Y-23698200D02*
X86360000Y-23698200D01*
X86360000Y-23698200D02*
X86360000Y-23698200D01*
X90830400Y-23698200D02*
X90830400Y-16941800D01*
X90830400Y-16941800D02*
X81889600Y-16941800D01*
X81889600Y-23698200D02*
X90830400Y-23698200D01*
X86360000Y-23698200D02*
X86360000Y-23698200D01*
X86360000Y-23698200D02*
X86360000Y-23698200D01*
D10*
X85140052Y-63770684D02*
X84852684Y-64058052D01*
X84852684Y-64058052D02*
X84277948Y-63483316D01*
X84277948Y-63483316D02*
X84565316Y-63195948D01*
X84565316Y-63195948D02*
X85140052Y-63770684D01*
X91084400Y-65379600D02*
X90678000Y-65379600D01*
X90678000Y-65379600D02*
X90678000Y-64566800D01*
X90678000Y-64566800D02*
X91084400Y-64566800D01*
X91084400Y-64566800D02*
X91084400Y-65379600D01*
M02*
