G04 #@! TF.GenerationSoftware,KiCad,Pcbnew,(6.0.6)*
G04 #@! TF.CreationDate,2023-03-09T15:26:11-07:00*
G04 #@! TF.ProjectId,RP2040-Breadstick,52503230-3430-42d4-9272-656164737469,0.1*
G04 #@! TF.SameCoordinates,Original*
G04 #@! TF.FileFunction,Legend,Bot*
G04 #@! TF.FilePolarity,Positive*
%FSLAX46Y46*%
G04 Gerber Fmt 4.6, Leading zero omitted, Abs format (unit mm)*
G04 Created by KiCad (PCBNEW (6.0.6)) date 2023-03-09 15:26:11*
%MOMM*%
%LPD*%
G01*
G04 APERTURE LIST*
%ADD10C,0.209164*%
%ADD11C,0.200000*%
%ADD12C,0.127000*%
%ADD13C,0.120000*%
G04 APERTURE END LIST*
D10*
X87444582Y-32710000D02*
G75*
G03*
X87444582Y-32710000I-104582J0D01*
G01*
D11*
X82502717Y-70541567D02*
G75*
G03*
X82502717Y-70541567I-100000J0D01*
G01*
D12*
X89650000Y-19855000D02*
X89650000Y-22055000D01*
X88150000Y-19855000D02*
X88150000Y-22055000D01*
D11*
X89000000Y-18455000D02*
G75*
G03*
X89000000Y-18455000I-100000J0D01*
G01*
D12*
X85610000Y-21420000D02*
X85610000Y-19220000D01*
X87110000Y-21420000D02*
X87110000Y-19220000D01*
D11*
X86460000Y-22820000D02*
G75*
G03*
X86460000Y-22820000I-100000J0D01*
G01*
D13*
X84530000Y-20578578D02*
X84530000Y-20061422D01*
X83110000Y-20578578D02*
X83110000Y-20061422D01*
D12*
X85540000Y-32375000D02*
X85540000Y-31125000D01*
X87180000Y-32375000D02*
X87180000Y-31125000D01*
D11*
X86860000Y-33225000D02*
G75*
G03*
X86860000Y-33225000I-100000J0D01*
G01*
X86360000Y-28490000D02*
X86360000Y-27390000D01*
D13*
X84843962Y-69374789D02*
X85042773Y-69175978D01*
X85565211Y-70096038D02*
X85764022Y-69897227D01*
X86870000Y-143866368D02*
X86870000Y-144147528D01*
X85850000Y-143866368D02*
X85850000Y-144147528D01*
X86870000Y-177659406D02*
X86870000Y-177940566D01*
X85850000Y-177659406D02*
X85850000Y-177940566D01*
X86870000Y-125092458D02*
X86870000Y-125373618D01*
X85850000Y-125092458D02*
X85850000Y-125373618D01*
X86219420Y-29335000D02*
X86500580Y-29335000D01*
X86219420Y-30355000D02*
X86500580Y-30355000D01*
X86870000Y-91299420D02*
X86870000Y-91580580D01*
X85850000Y-91299420D02*
X85850000Y-91580580D01*
X86870000Y-102563766D02*
X86870000Y-102844926D01*
X85850000Y-102563766D02*
X85850000Y-102844926D01*
X85921593Y-70452420D02*
X86120404Y-70253609D01*
X86642842Y-71173669D02*
X86841653Y-70974858D01*
X86870000Y-155130714D02*
X86870000Y-155411874D01*
X85850000Y-155130714D02*
X85850000Y-155411874D01*
X86870000Y-162640278D02*
X86870000Y-162921438D01*
X85850000Y-162640278D02*
X85850000Y-162921438D01*
X86870000Y-170149842D02*
X86870000Y-170431002D01*
X85850000Y-170149842D02*
X85850000Y-170431002D01*
X86870000Y-151375932D02*
X86870000Y-151657092D01*
X85850000Y-151375932D02*
X85850000Y-151657092D01*
X86870000Y-106318548D02*
X86870000Y-106599708D01*
X85850000Y-106318548D02*
X85850000Y-106599708D01*
X86500580Y-34165000D02*
X86219420Y-34165000D01*
X86500580Y-33145000D02*
X86219420Y-33145000D01*
X86870000Y-140111586D02*
X86870000Y-140392746D01*
X85850000Y-140111586D02*
X85850000Y-140392746D01*
X86870000Y-136356804D02*
X86870000Y-136637964D01*
X85850000Y-136356804D02*
X85850000Y-136637964D01*
X86870000Y-158885496D02*
X86870000Y-159166656D01*
X85850000Y-158885496D02*
X85850000Y-159166656D01*
X86870000Y-128847240D02*
X86870000Y-129128400D01*
X85850000Y-128847240D02*
X85850000Y-129128400D01*
X86870000Y-98808984D02*
X86870000Y-99090144D01*
X85850000Y-98808984D02*
X85850000Y-99090144D01*
X87901323Y-67759926D02*
X87702512Y-67958737D01*
X87180074Y-67038677D02*
X86981263Y-67237488D01*
X86870000Y-95054202D02*
X86870000Y-95335362D01*
X85850000Y-95054202D02*
X85850000Y-95335362D01*
X86870000Y-147621150D02*
X86870000Y-147902310D01*
X85850000Y-147621150D02*
X85850000Y-147902310D01*
X86870000Y-166395060D02*
X86870000Y-166676220D01*
X85850000Y-166395060D02*
X85850000Y-166676220D01*
X86855000Y-113828112D02*
X86855000Y-114109272D01*
X85835000Y-113828112D02*
X85835000Y-114109272D01*
X86870000Y-121337676D02*
X86870000Y-121618836D01*
X85850000Y-121337676D02*
X85850000Y-121618836D01*
X83769541Y-68291652D02*
X83968352Y-68092841D01*
X84490790Y-69012901D02*
X84689601Y-68814090D01*
X86855000Y-110073330D02*
X86855000Y-110354490D01*
X85835000Y-110073330D02*
X85835000Y-110354490D01*
X86823692Y-66682295D02*
X86624881Y-66881106D01*
X86102443Y-65961046D02*
X85903632Y-66159857D01*
X88978954Y-68837557D02*
X88780143Y-69036368D01*
X88257705Y-68116308D02*
X88058894Y-68315119D01*
X86870000Y-173904624D02*
X86870000Y-174185784D01*
X85850000Y-173904624D02*
X85850000Y-174185784D01*
X86870000Y-132602022D02*
X86870000Y-132883182D01*
X85850000Y-132602022D02*
X85850000Y-132883182D01*
X86870000Y-117582894D02*
X86870000Y-117864054D01*
X85850000Y-117582894D02*
X85850000Y-117864054D01*
X81220000Y-179070000D02*
X81220000Y-179130000D01*
X83880000Y-179130000D02*
X81220000Y-179130000D01*
X83880000Y-179070000D02*
X83880000Y-179130000D01*
X83880000Y-179070000D02*
X81220000Y-179070000D01*
X83880000Y-177800000D02*
X83880000Y-176470000D01*
X83880000Y-176470000D02*
X82550000Y-176470000D01*
X88840000Y-176530000D02*
X88840000Y-176590000D01*
X91500000Y-176590000D02*
X88840000Y-176590000D01*
X91500000Y-176530000D02*
X91500000Y-176590000D01*
X91500000Y-176530000D02*
X88840000Y-176530000D01*
X91500000Y-175260000D02*
X91500000Y-173930000D01*
X91500000Y-173930000D02*
X90170000Y-173930000D01*
X81220000Y-153670000D02*
X81220000Y-153730000D01*
X83880000Y-153730000D02*
X81220000Y-153730000D01*
X83880000Y-153670000D02*
X83880000Y-153730000D01*
X83880000Y-153670000D02*
X81220000Y-153670000D01*
X83880000Y-152400000D02*
X83880000Y-151070000D01*
X83880000Y-151070000D02*
X82550000Y-151070000D01*
X88840000Y-168910000D02*
X88840000Y-168970000D01*
X91500000Y-168970000D02*
X88840000Y-168970000D01*
X91500000Y-168910000D02*
X91500000Y-168970000D01*
X91500000Y-168910000D02*
X88840000Y-168910000D01*
X91500000Y-167640000D02*
X91500000Y-166310000D01*
X91500000Y-166310000D02*
X90170000Y-166310000D01*
X81220000Y-123190000D02*
X81220000Y-123250000D01*
X83880000Y-123250000D02*
X81220000Y-123250000D01*
X83880000Y-123190000D02*
X83880000Y-123250000D01*
X83880000Y-123190000D02*
X81220000Y-123190000D01*
X83880000Y-121920000D02*
X83880000Y-120590000D01*
X83880000Y-120590000D02*
X82550000Y-120590000D01*
X81220000Y-29210000D02*
X81220000Y-29270000D01*
X83880000Y-29270000D02*
X81220000Y-29270000D01*
X83880000Y-29210000D02*
X83880000Y-29270000D01*
X83880000Y-29210000D02*
X81220000Y-29210000D01*
X83880000Y-27940000D02*
X83880000Y-26610000D01*
X83880000Y-26610000D02*
X82550000Y-26610000D01*
X81220000Y-107950000D02*
X81220000Y-108010000D01*
X83880000Y-108010000D02*
X81220000Y-108010000D01*
X83880000Y-107950000D02*
X83880000Y-108010000D01*
X83880000Y-107950000D02*
X81220000Y-107950000D01*
X83880000Y-106680000D02*
X83880000Y-105350000D01*
X83880000Y-105350000D02*
X82550000Y-105350000D01*
X81220000Y-39370000D02*
X81220000Y-39430000D01*
X83880000Y-39430000D02*
X81220000Y-39430000D01*
X83880000Y-39370000D02*
X83880000Y-39430000D01*
X83880000Y-39370000D02*
X81220000Y-39370000D01*
X83880000Y-38100000D02*
X83880000Y-36770000D01*
X83880000Y-36770000D02*
X82550000Y-36770000D01*
X81220000Y-31750000D02*
X81220000Y-31810000D01*
X83880000Y-31810000D02*
X81220000Y-31810000D01*
X83880000Y-31750000D02*
X83880000Y-31810000D01*
X83880000Y-31750000D02*
X81220000Y-31750000D01*
X83880000Y-30480000D02*
X83880000Y-29150000D01*
X83880000Y-29150000D02*
X82550000Y-29150000D01*
X88840000Y-29210000D02*
X88840000Y-29270000D01*
X91500000Y-29270000D02*
X88840000Y-29270000D01*
X91500000Y-29210000D02*
X91500000Y-29270000D01*
X91500000Y-29210000D02*
X88840000Y-29210000D01*
X91500000Y-27940000D02*
X91500000Y-26610000D01*
X91500000Y-26610000D02*
X90170000Y-26610000D01*
X88840000Y-31750000D02*
X88840000Y-31810000D01*
X91500000Y-31810000D02*
X88840000Y-31810000D01*
X91500000Y-31750000D02*
X91500000Y-31810000D01*
X91500000Y-31750000D02*
X88840000Y-31750000D01*
X91500000Y-30480000D02*
X91500000Y-29150000D01*
X91500000Y-29150000D02*
X90170000Y-29150000D01*
X88840000Y-36830000D02*
X88840000Y-36890000D01*
X91500000Y-36890000D02*
X88840000Y-36890000D01*
X91500000Y-36830000D02*
X91500000Y-36890000D01*
X91500000Y-36830000D02*
X88840000Y-36830000D01*
X91500000Y-35560000D02*
X91500000Y-34230000D01*
X91500000Y-34230000D02*
X90170000Y-34230000D01*
X81220000Y-138430000D02*
X81220000Y-138490000D01*
X83880000Y-138490000D02*
X81220000Y-138490000D01*
X83880000Y-138430000D02*
X83880000Y-138490000D01*
X83880000Y-138430000D02*
X81220000Y-138430000D01*
X83880000Y-137160000D02*
X83880000Y-135830000D01*
X83880000Y-135830000D02*
X82550000Y-135830000D01*
X88840000Y-179070000D02*
X88840000Y-179130000D01*
X91500000Y-179130000D02*
X88840000Y-179130000D01*
X91500000Y-179070000D02*
X91500000Y-179130000D01*
X91500000Y-179070000D02*
X88840000Y-179070000D01*
X91500000Y-177800000D02*
X91500000Y-176470000D01*
X91500000Y-176470000D02*
X90170000Y-176470000D01*
X81220000Y-77470000D02*
X81220000Y-77530000D01*
X83880000Y-77530000D02*
X81220000Y-77530000D01*
X83880000Y-77470000D02*
X83880000Y-77530000D01*
X83880000Y-77470000D02*
X81220000Y-77470000D01*
X83880000Y-76200000D02*
X83880000Y-74870000D01*
X83880000Y-74870000D02*
X82550000Y-74870000D01*
X88840000Y-138430000D02*
X88840000Y-138490000D01*
X91500000Y-138490000D02*
X88840000Y-138490000D01*
X91500000Y-138430000D02*
X91500000Y-138490000D01*
X91500000Y-138430000D02*
X88840000Y-138430000D01*
X91500000Y-137160000D02*
X91500000Y-135830000D01*
X91500000Y-135830000D02*
X90170000Y-135830000D01*
X88840000Y-153670000D02*
X88840000Y-153730000D01*
X91500000Y-153730000D02*
X88840000Y-153730000D01*
X91500000Y-153670000D02*
X91500000Y-153730000D01*
X91500000Y-153670000D02*
X88840000Y-153670000D01*
X91500000Y-152400000D02*
X91500000Y-151070000D01*
X91500000Y-151070000D02*
X90170000Y-151070000D01*
X81220000Y-176530000D02*
X81220000Y-176590000D01*
X83880000Y-176590000D02*
X81220000Y-176590000D01*
X83880000Y-176530000D02*
X83880000Y-176590000D01*
X83880000Y-176530000D02*
X81220000Y-176530000D01*
X83880000Y-175260000D02*
X83880000Y-173930000D01*
X83880000Y-173930000D02*
X82550000Y-173930000D01*
X81220000Y-34290000D02*
X81220000Y-34350000D01*
X83880000Y-34350000D02*
X81220000Y-34350000D01*
X83880000Y-34290000D02*
X83880000Y-34350000D01*
X83880000Y-34290000D02*
X81220000Y-34290000D01*
X83880000Y-33020000D02*
X83880000Y-31690000D01*
X83880000Y-31690000D02*
X82550000Y-31690000D01*
X81220000Y-62230000D02*
X81220000Y-62290000D01*
X83880000Y-62290000D02*
X81220000Y-62290000D01*
X83880000Y-62230000D02*
X83880000Y-62290000D01*
X83880000Y-62230000D02*
X81220000Y-62230000D01*
X83880000Y-60960000D02*
X83880000Y-59630000D01*
X83880000Y-59630000D02*
X82550000Y-59630000D01*
X88840000Y-39370000D02*
X88840000Y-39430000D01*
X91500000Y-39430000D02*
X88840000Y-39430000D01*
X91500000Y-39370000D02*
X91500000Y-39430000D01*
X91500000Y-39370000D02*
X88840000Y-39370000D01*
X91500000Y-38100000D02*
X91500000Y-36770000D01*
X91500000Y-36770000D02*
X90170000Y-36770000D01*
X81220000Y-36830000D02*
X81220000Y-36890000D01*
X83880000Y-36890000D02*
X81220000Y-36890000D01*
X83880000Y-36830000D02*
X83880000Y-36890000D01*
X83880000Y-36830000D02*
X81220000Y-36830000D01*
X83880000Y-35560000D02*
X83880000Y-34230000D01*
X83880000Y-34230000D02*
X82550000Y-34230000D01*
X88840000Y-62230000D02*
X88840000Y-62290000D01*
X91500000Y-62290000D02*
X88840000Y-62290000D01*
X91500000Y-62230000D02*
X91500000Y-62290000D01*
X91500000Y-62230000D02*
X88840000Y-62230000D01*
X91500000Y-60960000D02*
X91500000Y-59630000D01*
X91500000Y-59630000D02*
X90170000Y-59630000D01*
X88840000Y-107950000D02*
X88840000Y-108010000D01*
X91500000Y-108010000D02*
X88840000Y-108010000D01*
X91500000Y-107950000D02*
X91500000Y-108010000D01*
X91500000Y-107950000D02*
X88840000Y-107950000D01*
X91500000Y-106680000D02*
X91500000Y-105350000D01*
X91500000Y-105350000D02*
X90170000Y-105350000D01*
X88840000Y-46990000D02*
X88840000Y-47050000D01*
X91500000Y-47050000D02*
X88840000Y-47050000D01*
X91500000Y-46990000D02*
X91500000Y-47050000D01*
X91500000Y-46990000D02*
X88840000Y-46990000D01*
X91500000Y-45720000D02*
X91500000Y-44390000D01*
X91500000Y-44390000D02*
X90170000Y-44390000D01*
X88840000Y-123190000D02*
X88840000Y-123250000D01*
X91500000Y-123250000D02*
X88840000Y-123250000D01*
X91500000Y-123190000D02*
X91500000Y-123250000D01*
X91500000Y-123190000D02*
X88840000Y-123190000D01*
X91500000Y-121920000D02*
X91500000Y-120590000D01*
X91500000Y-120590000D02*
X90170000Y-120590000D01*
X88840000Y-92710000D02*
X88840000Y-92770000D01*
X91500000Y-92770000D02*
X88840000Y-92770000D01*
X91500000Y-92710000D02*
X91500000Y-92770000D01*
X91500000Y-92710000D02*
X88840000Y-92710000D01*
X91500000Y-91440000D02*
X91500000Y-90110000D01*
X91500000Y-90110000D02*
X90170000Y-90110000D01*
X88840000Y-34290000D02*
X88840000Y-34350000D01*
X91500000Y-34350000D02*
X88840000Y-34350000D01*
X91500000Y-34290000D02*
X91500000Y-34350000D01*
X91500000Y-34290000D02*
X88840000Y-34290000D01*
X91500000Y-33020000D02*
X91500000Y-31690000D01*
X91500000Y-31690000D02*
X90170000Y-31690000D01*
X81220000Y-168910000D02*
X81220000Y-168970000D01*
X83880000Y-168970000D02*
X81220000Y-168970000D01*
X83880000Y-168910000D02*
X83880000Y-168970000D01*
X83880000Y-168910000D02*
X81220000Y-168910000D01*
X83880000Y-167640000D02*
X83880000Y-166310000D01*
X83880000Y-166310000D02*
X82550000Y-166310000D01*
X81220000Y-92710000D02*
X81220000Y-92770000D01*
X83880000Y-92770000D02*
X81220000Y-92770000D01*
X83880000Y-92710000D02*
X83880000Y-92770000D01*
X83880000Y-92710000D02*
X81220000Y-92710000D01*
X83880000Y-91440000D02*
X83880000Y-90110000D01*
X83880000Y-90110000D02*
X82550000Y-90110000D01*
X81220000Y-46990000D02*
X81220000Y-47050000D01*
X83880000Y-47050000D02*
X81220000Y-47050000D01*
X83880000Y-46990000D02*
X83880000Y-47050000D01*
X83880000Y-46990000D02*
X81220000Y-46990000D01*
X83880000Y-45720000D02*
X83880000Y-44390000D01*
X83880000Y-44390000D02*
X82550000Y-44390000D01*
X88840000Y-77470000D02*
X88840000Y-77530000D01*
X91500000Y-77530000D02*
X88840000Y-77530000D01*
X91500000Y-77470000D02*
X91500000Y-77530000D01*
X91500000Y-77470000D02*
X88840000Y-77470000D01*
X91500000Y-76200000D02*
X91500000Y-74870000D01*
X91500000Y-74870000D02*
X90170000Y-74870000D01*
M02*
