G04 #@! TF.GenerationSoftware,KiCad,Pcbnew,(6.0.6)*
G04 #@! TF.CreationDate,2023-03-09T12:55:27-07:00*
G04 #@! TF.ProjectId,RP2040-Breadstick,52503230-3430-42d4-9272-656164737469,0.1*
G04 #@! TF.SameCoordinates,Original*
G04 #@! TF.FileFunction,AssemblyDrawing,Top*
%FSLAX46Y46*%
G04 Gerber Fmt 4.6, Leading zero omitted, Abs format (unit mm)*
G04 Created by KiCad (PCBNEW (6.0.6)) date 2023-03-09 12:55:27*
%MOMM*%
%LPD*%
G01*
G04 APERTURE LIST*
%ADD10C,0.150000*%
%ADD11C,0.120000*%
%ADD12C,0.254000*%
%ADD13C,0.050000*%
%ADD14C,0.127000*%
%ADD15C,0.200000*%
%ADD16C,0.100000*%
%ADD17C,0.140000*%
G04 APERTURE END LIST*
D10*
X83669523Y-92404761D02*
X83812380Y-92452380D01*
X84050476Y-92452380D01*
X84145714Y-92404761D01*
X84193333Y-92357142D01*
X84240952Y-92261904D01*
X84240952Y-92166666D01*
X84193333Y-92071428D01*
X84145714Y-92023809D01*
X84050476Y-91976190D01*
X83860000Y-91928571D01*
X83764761Y-91880952D01*
X83717142Y-91833333D01*
X83669523Y-91738095D01*
X83669523Y-91642857D01*
X83717142Y-91547619D01*
X83764761Y-91500000D01*
X83860000Y-91452380D01*
X84098095Y-91452380D01*
X84240952Y-91500000D01*
X84669523Y-92452380D02*
X84669523Y-91452380D01*
X85240952Y-92452380D02*
X84812380Y-91880952D01*
X85240952Y-91452380D02*
X84669523Y-92023809D01*
X85717142Y-92452380D02*
X85907619Y-92452380D01*
X86002857Y-92404761D01*
X86050476Y-92357142D01*
X86145714Y-92214285D01*
X86193333Y-92023809D01*
X86193333Y-91642857D01*
X86145714Y-91547619D01*
X86098095Y-91500000D01*
X86002857Y-91452380D01*
X85812380Y-91452380D01*
X85717142Y-91500000D01*
X85669523Y-91547619D01*
X85621904Y-91642857D01*
X85621904Y-91880952D01*
X85669523Y-91976190D01*
X85717142Y-92023809D01*
X85812380Y-92071428D01*
X86002857Y-92071428D01*
X86098095Y-92023809D01*
X86145714Y-91976190D01*
X86193333Y-91880952D01*
X86764761Y-91880952D02*
X86669523Y-91833333D01*
X86621904Y-91785714D01*
X86574285Y-91690476D01*
X86574285Y-91642857D01*
X86621904Y-91547619D01*
X86669523Y-91500000D01*
X86764761Y-91452380D01*
X86955238Y-91452380D01*
X87050476Y-91500000D01*
X87098095Y-91547619D01*
X87145714Y-91642857D01*
X87145714Y-91690476D01*
X87098095Y-91785714D01*
X87050476Y-91833333D01*
X86955238Y-91880952D01*
X86764761Y-91880952D01*
X86669523Y-91928571D01*
X86621904Y-91976190D01*
X86574285Y-92071428D01*
X86574285Y-92261904D01*
X86621904Y-92357142D01*
X86669523Y-92404761D01*
X86764761Y-92452380D01*
X86955238Y-92452380D01*
X87050476Y-92404761D01*
X87098095Y-92357142D01*
X87145714Y-92261904D01*
X87145714Y-92071428D01*
X87098095Y-91976190D01*
X87050476Y-91928571D01*
X86955238Y-91880952D01*
X87526666Y-91547619D02*
X87574285Y-91500000D01*
X87669523Y-91452380D01*
X87907619Y-91452380D01*
X88002857Y-91500000D01*
X88050476Y-91547619D01*
X88098095Y-91642857D01*
X88098095Y-91738095D01*
X88050476Y-91880952D01*
X87479047Y-92452380D01*
X88098095Y-92452380D01*
X88479047Y-91547619D02*
X88526666Y-91500000D01*
X88621904Y-91452380D01*
X88860000Y-91452380D01*
X88955238Y-91500000D01*
X89002857Y-91547619D01*
X89050476Y-91642857D01*
X89050476Y-91738095D01*
X89002857Y-91880952D01*
X88431428Y-92452380D01*
X89050476Y-92452380D01*
X84288571Y-90687380D02*
X83812380Y-90687380D01*
X83812380Y-89687380D01*
X84621904Y-90163571D02*
X84955238Y-90163571D01*
X85098095Y-90687380D02*
X84621904Y-90687380D01*
X84621904Y-89687380D01*
X85098095Y-89687380D01*
X85526666Y-90687380D02*
X85526666Y-89687380D01*
X85764761Y-89687380D01*
X85907619Y-89735000D01*
X86002857Y-89830238D01*
X86050476Y-89925476D01*
X86098095Y-90115952D01*
X86098095Y-90258809D01*
X86050476Y-90449285D01*
X86002857Y-90544523D01*
X85907619Y-90639761D01*
X85764761Y-90687380D01*
X85526666Y-90687380D01*
X86431428Y-89687380D02*
X87050476Y-89687380D01*
X86717142Y-90068333D01*
X86860000Y-90068333D01*
X86955238Y-90115952D01*
X87002857Y-90163571D01*
X87050476Y-90258809D01*
X87050476Y-90496904D01*
X87002857Y-90592142D01*
X86955238Y-90639761D01*
X86860000Y-90687380D01*
X86574285Y-90687380D01*
X86479047Y-90639761D01*
X86431428Y-90592142D01*
X87669523Y-89687380D02*
X87764761Y-89687380D01*
X87860000Y-89735000D01*
X87907619Y-89782619D01*
X87955238Y-89877857D01*
X88002857Y-90068333D01*
X88002857Y-90306428D01*
X87955238Y-90496904D01*
X87907619Y-90592142D01*
X87860000Y-90639761D01*
X87764761Y-90687380D01*
X87669523Y-90687380D01*
X87574285Y-90639761D01*
X87526666Y-90592142D01*
X87479047Y-90496904D01*
X87431428Y-90306428D01*
X87431428Y-90068333D01*
X87479047Y-89877857D01*
X87526666Y-89782619D01*
X87574285Y-89735000D01*
X87669523Y-89687380D01*
X88955238Y-90687380D02*
X88383809Y-90687380D01*
X88669523Y-90687380D02*
X88669523Y-89687380D01*
X88574285Y-89830238D01*
X88479047Y-89925476D01*
X88383809Y-89973095D01*
X83415523Y-133806761D02*
X83558380Y-133854380D01*
X83796476Y-133854380D01*
X83891714Y-133806761D01*
X83939333Y-133759142D01*
X83986952Y-133663904D01*
X83986952Y-133568666D01*
X83939333Y-133473428D01*
X83891714Y-133425809D01*
X83796476Y-133378190D01*
X83606000Y-133330571D01*
X83510761Y-133282952D01*
X83463142Y-133235333D01*
X83415523Y-133140095D01*
X83415523Y-133044857D01*
X83463142Y-132949619D01*
X83510761Y-132902000D01*
X83606000Y-132854380D01*
X83844095Y-132854380D01*
X83986952Y-132902000D01*
X84415523Y-133854380D02*
X84415523Y-132854380D01*
X84986952Y-133854380D02*
X84558380Y-133282952D01*
X84986952Y-132854380D02*
X84415523Y-133425809D01*
X85463142Y-133854380D02*
X85653619Y-133854380D01*
X85748857Y-133806761D01*
X85796476Y-133759142D01*
X85891714Y-133616285D01*
X85939333Y-133425809D01*
X85939333Y-133044857D01*
X85891714Y-132949619D01*
X85844095Y-132902000D01*
X85748857Y-132854380D01*
X85558380Y-132854380D01*
X85463142Y-132902000D01*
X85415523Y-132949619D01*
X85367904Y-133044857D01*
X85367904Y-133282952D01*
X85415523Y-133378190D01*
X85463142Y-133425809D01*
X85558380Y-133473428D01*
X85748857Y-133473428D01*
X85844095Y-133425809D01*
X85891714Y-133378190D01*
X85939333Y-133282952D01*
X86510761Y-133282952D02*
X86415523Y-133235333D01*
X86367904Y-133187714D01*
X86320285Y-133092476D01*
X86320285Y-133044857D01*
X86367904Y-132949619D01*
X86415523Y-132902000D01*
X86510761Y-132854380D01*
X86701238Y-132854380D01*
X86796476Y-132902000D01*
X86844095Y-132949619D01*
X86891714Y-133044857D01*
X86891714Y-133092476D01*
X86844095Y-133187714D01*
X86796476Y-133235333D01*
X86701238Y-133282952D01*
X86510761Y-133282952D01*
X86415523Y-133330571D01*
X86367904Y-133378190D01*
X86320285Y-133473428D01*
X86320285Y-133663904D01*
X86367904Y-133759142D01*
X86415523Y-133806761D01*
X86510761Y-133854380D01*
X86701238Y-133854380D01*
X86796476Y-133806761D01*
X86844095Y-133759142D01*
X86891714Y-133663904D01*
X86891714Y-133473428D01*
X86844095Y-133378190D01*
X86796476Y-133330571D01*
X86701238Y-133282952D01*
X87272666Y-132949619D02*
X87320285Y-132902000D01*
X87415523Y-132854380D01*
X87653619Y-132854380D01*
X87748857Y-132902000D01*
X87796476Y-132949619D01*
X87844095Y-133044857D01*
X87844095Y-133140095D01*
X87796476Y-133282952D01*
X87225047Y-133854380D01*
X87844095Y-133854380D01*
X88225047Y-132949619D02*
X88272666Y-132902000D01*
X88367904Y-132854380D01*
X88606000Y-132854380D01*
X88701238Y-132902000D01*
X88748857Y-132949619D01*
X88796476Y-133044857D01*
X88796476Y-133140095D01*
X88748857Y-133282952D01*
X88177428Y-133854380D01*
X88796476Y-133854380D01*
X84288571Y-132089380D02*
X83812380Y-132089380D01*
X83812380Y-131089380D01*
X84621904Y-131565571D02*
X84955238Y-131565571D01*
X85098095Y-132089380D02*
X84621904Y-132089380D01*
X84621904Y-131089380D01*
X85098095Y-131089380D01*
X85526666Y-132089380D02*
X85526666Y-131089380D01*
X85764761Y-131089380D01*
X85907619Y-131137000D01*
X86002857Y-131232238D01*
X86050476Y-131327476D01*
X86098095Y-131517952D01*
X86098095Y-131660809D01*
X86050476Y-131851285D01*
X86002857Y-131946523D01*
X85907619Y-132041761D01*
X85764761Y-132089380D01*
X85526666Y-132089380D01*
X86431428Y-131089380D02*
X87050476Y-131089380D01*
X86717142Y-131470333D01*
X86860000Y-131470333D01*
X86955238Y-131517952D01*
X87002857Y-131565571D01*
X87050476Y-131660809D01*
X87050476Y-131898904D01*
X87002857Y-131994142D01*
X86955238Y-132041761D01*
X86860000Y-132089380D01*
X86574285Y-132089380D01*
X86479047Y-132041761D01*
X86431428Y-131994142D01*
X88002857Y-132089380D02*
X87431428Y-132089380D01*
X87717142Y-132089380D02*
X87717142Y-131089380D01*
X87621904Y-131232238D01*
X87526666Y-131327476D01*
X87431428Y-131375095D01*
X88383809Y-131184619D02*
X88431428Y-131137000D01*
X88526666Y-131089380D01*
X88764761Y-131089380D01*
X88860000Y-131137000D01*
X88907619Y-131184619D01*
X88955238Y-131279857D01*
X88955238Y-131375095D01*
X88907619Y-131517952D01*
X88336190Y-132089380D01*
X88955238Y-132089380D01*
X83415523Y-171398761D02*
X83558380Y-171446380D01*
X83796476Y-171446380D01*
X83891714Y-171398761D01*
X83939333Y-171351142D01*
X83986952Y-171255904D01*
X83986952Y-171160666D01*
X83939333Y-171065428D01*
X83891714Y-171017809D01*
X83796476Y-170970190D01*
X83606000Y-170922571D01*
X83510761Y-170874952D01*
X83463142Y-170827333D01*
X83415523Y-170732095D01*
X83415523Y-170636857D01*
X83463142Y-170541619D01*
X83510761Y-170494000D01*
X83606000Y-170446380D01*
X83844095Y-170446380D01*
X83986952Y-170494000D01*
X84415523Y-171446380D02*
X84415523Y-170446380D01*
X84986952Y-171446380D02*
X84558380Y-170874952D01*
X84986952Y-170446380D02*
X84415523Y-171017809D01*
X85463142Y-171446380D02*
X85653619Y-171446380D01*
X85748857Y-171398761D01*
X85796476Y-171351142D01*
X85891714Y-171208285D01*
X85939333Y-171017809D01*
X85939333Y-170636857D01*
X85891714Y-170541619D01*
X85844095Y-170494000D01*
X85748857Y-170446380D01*
X85558380Y-170446380D01*
X85463142Y-170494000D01*
X85415523Y-170541619D01*
X85367904Y-170636857D01*
X85367904Y-170874952D01*
X85415523Y-170970190D01*
X85463142Y-171017809D01*
X85558380Y-171065428D01*
X85748857Y-171065428D01*
X85844095Y-171017809D01*
X85891714Y-170970190D01*
X85939333Y-170874952D01*
X86510761Y-170874952D02*
X86415523Y-170827333D01*
X86367904Y-170779714D01*
X86320285Y-170684476D01*
X86320285Y-170636857D01*
X86367904Y-170541619D01*
X86415523Y-170494000D01*
X86510761Y-170446380D01*
X86701238Y-170446380D01*
X86796476Y-170494000D01*
X86844095Y-170541619D01*
X86891714Y-170636857D01*
X86891714Y-170684476D01*
X86844095Y-170779714D01*
X86796476Y-170827333D01*
X86701238Y-170874952D01*
X86510761Y-170874952D01*
X86415523Y-170922571D01*
X86367904Y-170970190D01*
X86320285Y-171065428D01*
X86320285Y-171255904D01*
X86367904Y-171351142D01*
X86415523Y-171398761D01*
X86510761Y-171446380D01*
X86701238Y-171446380D01*
X86796476Y-171398761D01*
X86844095Y-171351142D01*
X86891714Y-171255904D01*
X86891714Y-171065428D01*
X86844095Y-170970190D01*
X86796476Y-170922571D01*
X86701238Y-170874952D01*
X87272666Y-170541619D02*
X87320285Y-170494000D01*
X87415523Y-170446380D01*
X87653619Y-170446380D01*
X87748857Y-170494000D01*
X87796476Y-170541619D01*
X87844095Y-170636857D01*
X87844095Y-170732095D01*
X87796476Y-170874952D01*
X87225047Y-171446380D01*
X87844095Y-171446380D01*
X88225047Y-170541619D02*
X88272666Y-170494000D01*
X88367904Y-170446380D01*
X88606000Y-170446380D01*
X88701238Y-170494000D01*
X88748857Y-170541619D01*
X88796476Y-170636857D01*
X88796476Y-170732095D01*
X88748857Y-170874952D01*
X88177428Y-171446380D01*
X88796476Y-171446380D01*
X84288571Y-169681380D02*
X83812380Y-169681380D01*
X83812380Y-168681380D01*
X84621904Y-169157571D02*
X84955238Y-169157571D01*
X85098095Y-169681380D02*
X84621904Y-169681380D01*
X84621904Y-168681380D01*
X85098095Y-168681380D01*
X85526666Y-169681380D02*
X85526666Y-168681380D01*
X85764761Y-168681380D01*
X85907619Y-168729000D01*
X86002857Y-168824238D01*
X86050476Y-168919476D01*
X86098095Y-169109952D01*
X86098095Y-169252809D01*
X86050476Y-169443285D01*
X86002857Y-169538523D01*
X85907619Y-169633761D01*
X85764761Y-169681380D01*
X85526666Y-169681380D01*
X86431428Y-168681380D02*
X87050476Y-168681380D01*
X86717142Y-169062333D01*
X86860000Y-169062333D01*
X86955238Y-169109952D01*
X87002857Y-169157571D01*
X87050476Y-169252809D01*
X87050476Y-169490904D01*
X87002857Y-169586142D01*
X86955238Y-169633761D01*
X86860000Y-169681380D01*
X86574285Y-169681380D01*
X86479047Y-169633761D01*
X86431428Y-169586142D01*
X87431428Y-168776619D02*
X87479047Y-168729000D01*
X87574285Y-168681380D01*
X87812380Y-168681380D01*
X87907619Y-168729000D01*
X87955238Y-168776619D01*
X88002857Y-168871857D01*
X88002857Y-168967095D01*
X87955238Y-169109952D01*
X87383809Y-169681380D01*
X88002857Y-169681380D01*
X88383809Y-168776619D02*
X88431428Y-168729000D01*
X88526666Y-168681380D01*
X88764761Y-168681380D01*
X88860000Y-168729000D01*
X88907619Y-168776619D01*
X88955238Y-168871857D01*
X88955238Y-168967095D01*
X88907619Y-169109952D01*
X88336190Y-169681380D01*
X88955238Y-169681380D01*
X83415523Y-167588761D02*
X83558380Y-167636380D01*
X83796476Y-167636380D01*
X83891714Y-167588761D01*
X83939333Y-167541142D01*
X83986952Y-167445904D01*
X83986952Y-167350666D01*
X83939333Y-167255428D01*
X83891714Y-167207809D01*
X83796476Y-167160190D01*
X83606000Y-167112571D01*
X83510761Y-167064952D01*
X83463142Y-167017333D01*
X83415523Y-166922095D01*
X83415523Y-166826857D01*
X83463142Y-166731619D01*
X83510761Y-166684000D01*
X83606000Y-166636380D01*
X83844095Y-166636380D01*
X83986952Y-166684000D01*
X84415523Y-167636380D02*
X84415523Y-166636380D01*
X84986952Y-167636380D02*
X84558380Y-167064952D01*
X84986952Y-166636380D02*
X84415523Y-167207809D01*
X85463142Y-167636380D02*
X85653619Y-167636380D01*
X85748857Y-167588761D01*
X85796476Y-167541142D01*
X85891714Y-167398285D01*
X85939333Y-167207809D01*
X85939333Y-166826857D01*
X85891714Y-166731619D01*
X85844095Y-166684000D01*
X85748857Y-166636380D01*
X85558380Y-166636380D01*
X85463142Y-166684000D01*
X85415523Y-166731619D01*
X85367904Y-166826857D01*
X85367904Y-167064952D01*
X85415523Y-167160190D01*
X85463142Y-167207809D01*
X85558380Y-167255428D01*
X85748857Y-167255428D01*
X85844095Y-167207809D01*
X85891714Y-167160190D01*
X85939333Y-167064952D01*
X86510761Y-167064952D02*
X86415523Y-167017333D01*
X86367904Y-166969714D01*
X86320285Y-166874476D01*
X86320285Y-166826857D01*
X86367904Y-166731619D01*
X86415523Y-166684000D01*
X86510761Y-166636380D01*
X86701238Y-166636380D01*
X86796476Y-166684000D01*
X86844095Y-166731619D01*
X86891714Y-166826857D01*
X86891714Y-166874476D01*
X86844095Y-166969714D01*
X86796476Y-167017333D01*
X86701238Y-167064952D01*
X86510761Y-167064952D01*
X86415523Y-167112571D01*
X86367904Y-167160190D01*
X86320285Y-167255428D01*
X86320285Y-167445904D01*
X86367904Y-167541142D01*
X86415523Y-167588761D01*
X86510761Y-167636380D01*
X86701238Y-167636380D01*
X86796476Y-167588761D01*
X86844095Y-167541142D01*
X86891714Y-167445904D01*
X86891714Y-167255428D01*
X86844095Y-167160190D01*
X86796476Y-167112571D01*
X86701238Y-167064952D01*
X87272666Y-166731619D02*
X87320285Y-166684000D01*
X87415523Y-166636380D01*
X87653619Y-166636380D01*
X87748857Y-166684000D01*
X87796476Y-166731619D01*
X87844095Y-166826857D01*
X87844095Y-166922095D01*
X87796476Y-167064952D01*
X87225047Y-167636380D01*
X87844095Y-167636380D01*
X88225047Y-166731619D02*
X88272666Y-166684000D01*
X88367904Y-166636380D01*
X88606000Y-166636380D01*
X88701238Y-166684000D01*
X88748857Y-166731619D01*
X88796476Y-166826857D01*
X88796476Y-166922095D01*
X88748857Y-167064952D01*
X88177428Y-167636380D01*
X88796476Y-167636380D01*
X84288571Y-165871380D02*
X83812380Y-165871380D01*
X83812380Y-164871380D01*
X84621904Y-165347571D02*
X84955238Y-165347571D01*
X85098095Y-165871380D02*
X84621904Y-165871380D01*
X84621904Y-164871380D01*
X85098095Y-164871380D01*
X85526666Y-165871380D02*
X85526666Y-164871380D01*
X85764761Y-164871380D01*
X85907619Y-164919000D01*
X86002857Y-165014238D01*
X86050476Y-165109476D01*
X86098095Y-165299952D01*
X86098095Y-165442809D01*
X86050476Y-165633285D01*
X86002857Y-165728523D01*
X85907619Y-165823761D01*
X85764761Y-165871380D01*
X85526666Y-165871380D01*
X86431428Y-164871380D02*
X87050476Y-164871380D01*
X86717142Y-165252333D01*
X86860000Y-165252333D01*
X86955238Y-165299952D01*
X87002857Y-165347571D01*
X87050476Y-165442809D01*
X87050476Y-165680904D01*
X87002857Y-165776142D01*
X86955238Y-165823761D01*
X86860000Y-165871380D01*
X86574285Y-165871380D01*
X86479047Y-165823761D01*
X86431428Y-165776142D01*
X87431428Y-164966619D02*
X87479047Y-164919000D01*
X87574285Y-164871380D01*
X87812380Y-164871380D01*
X87907619Y-164919000D01*
X87955238Y-164966619D01*
X88002857Y-165061857D01*
X88002857Y-165157095D01*
X87955238Y-165299952D01*
X87383809Y-165871380D01*
X88002857Y-165871380D01*
X88955238Y-165871380D02*
X88383809Y-165871380D01*
X88669523Y-165871380D02*
X88669523Y-164871380D01*
X88574285Y-165014238D01*
X88479047Y-165109476D01*
X88383809Y-165157095D01*
X83669523Y-156412761D02*
X83812380Y-156460380D01*
X84050476Y-156460380D01*
X84145714Y-156412761D01*
X84193333Y-156365142D01*
X84240952Y-156269904D01*
X84240952Y-156174666D01*
X84193333Y-156079428D01*
X84145714Y-156031809D01*
X84050476Y-155984190D01*
X83860000Y-155936571D01*
X83764761Y-155888952D01*
X83717142Y-155841333D01*
X83669523Y-155746095D01*
X83669523Y-155650857D01*
X83717142Y-155555619D01*
X83764761Y-155508000D01*
X83860000Y-155460380D01*
X84098095Y-155460380D01*
X84240952Y-155508000D01*
X84669523Y-156460380D02*
X84669523Y-155460380D01*
X85240952Y-156460380D02*
X84812380Y-155888952D01*
X85240952Y-155460380D02*
X84669523Y-156031809D01*
X85717142Y-156460380D02*
X85907619Y-156460380D01*
X86002857Y-156412761D01*
X86050476Y-156365142D01*
X86145714Y-156222285D01*
X86193333Y-156031809D01*
X86193333Y-155650857D01*
X86145714Y-155555619D01*
X86098095Y-155508000D01*
X86002857Y-155460380D01*
X85812380Y-155460380D01*
X85717142Y-155508000D01*
X85669523Y-155555619D01*
X85621904Y-155650857D01*
X85621904Y-155888952D01*
X85669523Y-155984190D01*
X85717142Y-156031809D01*
X85812380Y-156079428D01*
X86002857Y-156079428D01*
X86098095Y-156031809D01*
X86145714Y-155984190D01*
X86193333Y-155888952D01*
X86764761Y-155888952D02*
X86669523Y-155841333D01*
X86621904Y-155793714D01*
X86574285Y-155698476D01*
X86574285Y-155650857D01*
X86621904Y-155555619D01*
X86669523Y-155508000D01*
X86764761Y-155460380D01*
X86955238Y-155460380D01*
X87050476Y-155508000D01*
X87098095Y-155555619D01*
X87145714Y-155650857D01*
X87145714Y-155698476D01*
X87098095Y-155793714D01*
X87050476Y-155841333D01*
X86955238Y-155888952D01*
X86764761Y-155888952D01*
X86669523Y-155936571D01*
X86621904Y-155984190D01*
X86574285Y-156079428D01*
X86574285Y-156269904D01*
X86621904Y-156365142D01*
X86669523Y-156412761D01*
X86764761Y-156460380D01*
X86955238Y-156460380D01*
X87050476Y-156412761D01*
X87098095Y-156365142D01*
X87145714Y-156269904D01*
X87145714Y-156079428D01*
X87098095Y-155984190D01*
X87050476Y-155936571D01*
X86955238Y-155888952D01*
X87526666Y-155555619D02*
X87574285Y-155508000D01*
X87669523Y-155460380D01*
X87907619Y-155460380D01*
X88002857Y-155508000D01*
X88050476Y-155555619D01*
X88098095Y-155650857D01*
X88098095Y-155746095D01*
X88050476Y-155888952D01*
X87479047Y-156460380D01*
X88098095Y-156460380D01*
X88479047Y-155555619D02*
X88526666Y-155508000D01*
X88621904Y-155460380D01*
X88860000Y-155460380D01*
X88955238Y-155508000D01*
X89002857Y-155555619D01*
X89050476Y-155650857D01*
X89050476Y-155746095D01*
X89002857Y-155888952D01*
X88431428Y-156460380D01*
X89050476Y-156460380D01*
X84288571Y-154695380D02*
X83812380Y-154695380D01*
X83812380Y-153695380D01*
X84621904Y-154171571D02*
X84955238Y-154171571D01*
X85098095Y-154695380D02*
X84621904Y-154695380D01*
X84621904Y-153695380D01*
X85098095Y-153695380D01*
X85526666Y-154695380D02*
X85526666Y-153695380D01*
X85764761Y-153695380D01*
X85907619Y-153743000D01*
X86002857Y-153838238D01*
X86050476Y-153933476D01*
X86098095Y-154123952D01*
X86098095Y-154266809D01*
X86050476Y-154457285D01*
X86002857Y-154552523D01*
X85907619Y-154647761D01*
X85764761Y-154695380D01*
X85526666Y-154695380D01*
X86431428Y-153695380D02*
X87050476Y-153695380D01*
X86717142Y-154076333D01*
X86860000Y-154076333D01*
X86955238Y-154123952D01*
X87002857Y-154171571D01*
X87050476Y-154266809D01*
X87050476Y-154504904D01*
X87002857Y-154600142D01*
X86955238Y-154647761D01*
X86860000Y-154695380D01*
X86574285Y-154695380D01*
X86479047Y-154647761D01*
X86431428Y-154600142D01*
X88002857Y-154695380D02*
X87431428Y-154695380D01*
X87717142Y-154695380D02*
X87717142Y-153695380D01*
X87621904Y-153838238D01*
X87526666Y-153933476D01*
X87431428Y-153981095D01*
X88574285Y-154123952D02*
X88479047Y-154076333D01*
X88431428Y-154028714D01*
X88383809Y-153933476D01*
X88383809Y-153885857D01*
X88431428Y-153790619D01*
X88479047Y-153743000D01*
X88574285Y-153695380D01*
X88764761Y-153695380D01*
X88860000Y-153743000D01*
X88907619Y-153790619D01*
X88955238Y-153885857D01*
X88955238Y-153933476D01*
X88907619Y-154028714D01*
X88860000Y-154076333D01*
X88764761Y-154123952D01*
X88574285Y-154123952D01*
X88479047Y-154171571D01*
X88431428Y-154219190D01*
X88383809Y-154314428D01*
X88383809Y-154504904D01*
X88431428Y-154600142D01*
X88479047Y-154647761D01*
X88574285Y-154695380D01*
X88764761Y-154695380D01*
X88860000Y-154647761D01*
X88907619Y-154600142D01*
X88955238Y-154504904D01*
X88955238Y-154314428D01*
X88907619Y-154219190D01*
X88860000Y-154171571D01*
X88764761Y-154123952D01*
X83669523Y-96214761D02*
X83812380Y-96262380D01*
X84050476Y-96262380D01*
X84145714Y-96214761D01*
X84193333Y-96167142D01*
X84240952Y-96071904D01*
X84240952Y-95976666D01*
X84193333Y-95881428D01*
X84145714Y-95833809D01*
X84050476Y-95786190D01*
X83860000Y-95738571D01*
X83764761Y-95690952D01*
X83717142Y-95643333D01*
X83669523Y-95548095D01*
X83669523Y-95452857D01*
X83717142Y-95357619D01*
X83764761Y-95310000D01*
X83860000Y-95262380D01*
X84098095Y-95262380D01*
X84240952Y-95310000D01*
X84669523Y-96262380D02*
X84669523Y-95262380D01*
X85240952Y-96262380D02*
X84812380Y-95690952D01*
X85240952Y-95262380D02*
X84669523Y-95833809D01*
X85717142Y-96262380D02*
X85907619Y-96262380D01*
X86002857Y-96214761D01*
X86050476Y-96167142D01*
X86145714Y-96024285D01*
X86193333Y-95833809D01*
X86193333Y-95452857D01*
X86145714Y-95357619D01*
X86098095Y-95310000D01*
X86002857Y-95262380D01*
X85812380Y-95262380D01*
X85717142Y-95310000D01*
X85669523Y-95357619D01*
X85621904Y-95452857D01*
X85621904Y-95690952D01*
X85669523Y-95786190D01*
X85717142Y-95833809D01*
X85812380Y-95881428D01*
X86002857Y-95881428D01*
X86098095Y-95833809D01*
X86145714Y-95786190D01*
X86193333Y-95690952D01*
X86764761Y-95690952D02*
X86669523Y-95643333D01*
X86621904Y-95595714D01*
X86574285Y-95500476D01*
X86574285Y-95452857D01*
X86621904Y-95357619D01*
X86669523Y-95310000D01*
X86764761Y-95262380D01*
X86955238Y-95262380D01*
X87050476Y-95310000D01*
X87098095Y-95357619D01*
X87145714Y-95452857D01*
X87145714Y-95500476D01*
X87098095Y-95595714D01*
X87050476Y-95643333D01*
X86955238Y-95690952D01*
X86764761Y-95690952D01*
X86669523Y-95738571D01*
X86621904Y-95786190D01*
X86574285Y-95881428D01*
X86574285Y-96071904D01*
X86621904Y-96167142D01*
X86669523Y-96214761D01*
X86764761Y-96262380D01*
X86955238Y-96262380D01*
X87050476Y-96214761D01*
X87098095Y-96167142D01*
X87145714Y-96071904D01*
X87145714Y-95881428D01*
X87098095Y-95786190D01*
X87050476Y-95738571D01*
X86955238Y-95690952D01*
X87526666Y-95357619D02*
X87574285Y-95310000D01*
X87669523Y-95262380D01*
X87907619Y-95262380D01*
X88002857Y-95310000D01*
X88050476Y-95357619D01*
X88098095Y-95452857D01*
X88098095Y-95548095D01*
X88050476Y-95690952D01*
X87479047Y-96262380D01*
X88098095Y-96262380D01*
X88479047Y-95357619D02*
X88526666Y-95310000D01*
X88621904Y-95262380D01*
X88860000Y-95262380D01*
X88955238Y-95310000D01*
X89002857Y-95357619D01*
X89050476Y-95452857D01*
X89050476Y-95548095D01*
X89002857Y-95690952D01*
X88431428Y-96262380D01*
X89050476Y-96262380D01*
X84288571Y-94497380D02*
X83812380Y-94497380D01*
X83812380Y-93497380D01*
X84621904Y-93973571D02*
X84955238Y-93973571D01*
X85098095Y-94497380D02*
X84621904Y-94497380D01*
X84621904Y-93497380D01*
X85098095Y-93497380D01*
X85526666Y-94497380D02*
X85526666Y-93497380D01*
X85764761Y-93497380D01*
X85907619Y-93545000D01*
X86002857Y-93640238D01*
X86050476Y-93735476D01*
X86098095Y-93925952D01*
X86098095Y-94068809D01*
X86050476Y-94259285D01*
X86002857Y-94354523D01*
X85907619Y-94449761D01*
X85764761Y-94497380D01*
X85526666Y-94497380D01*
X86431428Y-93497380D02*
X87050476Y-93497380D01*
X86717142Y-93878333D01*
X86860000Y-93878333D01*
X86955238Y-93925952D01*
X87002857Y-93973571D01*
X87050476Y-94068809D01*
X87050476Y-94306904D01*
X87002857Y-94402142D01*
X86955238Y-94449761D01*
X86860000Y-94497380D01*
X86574285Y-94497380D01*
X86479047Y-94449761D01*
X86431428Y-94402142D01*
X87669523Y-93497380D02*
X87764761Y-93497380D01*
X87860000Y-93545000D01*
X87907619Y-93592619D01*
X87955238Y-93687857D01*
X88002857Y-93878333D01*
X88002857Y-94116428D01*
X87955238Y-94306904D01*
X87907619Y-94402142D01*
X87860000Y-94449761D01*
X87764761Y-94497380D01*
X87669523Y-94497380D01*
X87574285Y-94449761D01*
X87526666Y-94402142D01*
X87479047Y-94306904D01*
X87431428Y-94116428D01*
X87431428Y-93878333D01*
X87479047Y-93687857D01*
X87526666Y-93592619D01*
X87574285Y-93545000D01*
X87669523Y-93497380D01*
X88383809Y-93592619D02*
X88431428Y-93545000D01*
X88526666Y-93497380D01*
X88764761Y-93497380D01*
X88860000Y-93545000D01*
X88907619Y-93592619D01*
X88955238Y-93687857D01*
X88955238Y-93783095D01*
X88907619Y-93925952D01*
X88336190Y-94497380D01*
X88955238Y-94497380D01*
X83669523Y-152602761D02*
X83812380Y-152650380D01*
X84050476Y-152650380D01*
X84145714Y-152602761D01*
X84193333Y-152555142D01*
X84240952Y-152459904D01*
X84240952Y-152364666D01*
X84193333Y-152269428D01*
X84145714Y-152221809D01*
X84050476Y-152174190D01*
X83860000Y-152126571D01*
X83764761Y-152078952D01*
X83717142Y-152031333D01*
X83669523Y-151936095D01*
X83669523Y-151840857D01*
X83717142Y-151745619D01*
X83764761Y-151698000D01*
X83860000Y-151650380D01*
X84098095Y-151650380D01*
X84240952Y-151698000D01*
X84669523Y-152650380D02*
X84669523Y-151650380D01*
X85240952Y-152650380D02*
X84812380Y-152078952D01*
X85240952Y-151650380D02*
X84669523Y-152221809D01*
X85717142Y-152650380D02*
X85907619Y-152650380D01*
X86002857Y-152602761D01*
X86050476Y-152555142D01*
X86145714Y-152412285D01*
X86193333Y-152221809D01*
X86193333Y-151840857D01*
X86145714Y-151745619D01*
X86098095Y-151698000D01*
X86002857Y-151650380D01*
X85812380Y-151650380D01*
X85717142Y-151698000D01*
X85669523Y-151745619D01*
X85621904Y-151840857D01*
X85621904Y-152078952D01*
X85669523Y-152174190D01*
X85717142Y-152221809D01*
X85812380Y-152269428D01*
X86002857Y-152269428D01*
X86098095Y-152221809D01*
X86145714Y-152174190D01*
X86193333Y-152078952D01*
X86764761Y-152078952D02*
X86669523Y-152031333D01*
X86621904Y-151983714D01*
X86574285Y-151888476D01*
X86574285Y-151840857D01*
X86621904Y-151745619D01*
X86669523Y-151698000D01*
X86764761Y-151650380D01*
X86955238Y-151650380D01*
X87050476Y-151698000D01*
X87098095Y-151745619D01*
X87145714Y-151840857D01*
X87145714Y-151888476D01*
X87098095Y-151983714D01*
X87050476Y-152031333D01*
X86955238Y-152078952D01*
X86764761Y-152078952D01*
X86669523Y-152126571D01*
X86621904Y-152174190D01*
X86574285Y-152269428D01*
X86574285Y-152459904D01*
X86621904Y-152555142D01*
X86669523Y-152602761D01*
X86764761Y-152650380D01*
X86955238Y-152650380D01*
X87050476Y-152602761D01*
X87098095Y-152555142D01*
X87145714Y-152459904D01*
X87145714Y-152269428D01*
X87098095Y-152174190D01*
X87050476Y-152126571D01*
X86955238Y-152078952D01*
X87526666Y-151745619D02*
X87574285Y-151698000D01*
X87669523Y-151650380D01*
X87907619Y-151650380D01*
X88002857Y-151698000D01*
X88050476Y-151745619D01*
X88098095Y-151840857D01*
X88098095Y-151936095D01*
X88050476Y-152078952D01*
X87479047Y-152650380D01*
X88098095Y-152650380D01*
X88479047Y-151745619D02*
X88526666Y-151698000D01*
X88621904Y-151650380D01*
X88860000Y-151650380D01*
X88955238Y-151698000D01*
X89002857Y-151745619D01*
X89050476Y-151840857D01*
X89050476Y-151936095D01*
X89002857Y-152078952D01*
X88431428Y-152650380D01*
X89050476Y-152650380D01*
X84288571Y-150885380D02*
X83812380Y-150885380D01*
X83812380Y-149885380D01*
X84621904Y-150361571D02*
X84955238Y-150361571D01*
X85098095Y-150885380D02*
X84621904Y-150885380D01*
X84621904Y-149885380D01*
X85098095Y-149885380D01*
X85526666Y-150885380D02*
X85526666Y-149885380D01*
X85764761Y-149885380D01*
X85907619Y-149933000D01*
X86002857Y-150028238D01*
X86050476Y-150123476D01*
X86098095Y-150313952D01*
X86098095Y-150456809D01*
X86050476Y-150647285D01*
X86002857Y-150742523D01*
X85907619Y-150837761D01*
X85764761Y-150885380D01*
X85526666Y-150885380D01*
X86431428Y-149885380D02*
X87050476Y-149885380D01*
X86717142Y-150266333D01*
X86860000Y-150266333D01*
X86955238Y-150313952D01*
X87002857Y-150361571D01*
X87050476Y-150456809D01*
X87050476Y-150694904D01*
X87002857Y-150790142D01*
X86955238Y-150837761D01*
X86860000Y-150885380D01*
X86574285Y-150885380D01*
X86479047Y-150837761D01*
X86431428Y-150790142D01*
X88002857Y-150885380D02*
X87431428Y-150885380D01*
X87717142Y-150885380D02*
X87717142Y-149885380D01*
X87621904Y-150028238D01*
X87526666Y-150123476D01*
X87431428Y-150171095D01*
X88336190Y-149885380D02*
X89002857Y-149885380D01*
X88574285Y-150885380D01*
X83669523Y-148792761D02*
X83812380Y-148840380D01*
X84050476Y-148840380D01*
X84145714Y-148792761D01*
X84193333Y-148745142D01*
X84240952Y-148649904D01*
X84240952Y-148554666D01*
X84193333Y-148459428D01*
X84145714Y-148411809D01*
X84050476Y-148364190D01*
X83860000Y-148316571D01*
X83764761Y-148268952D01*
X83717142Y-148221333D01*
X83669523Y-148126095D01*
X83669523Y-148030857D01*
X83717142Y-147935619D01*
X83764761Y-147888000D01*
X83860000Y-147840380D01*
X84098095Y-147840380D01*
X84240952Y-147888000D01*
X84669523Y-148840380D02*
X84669523Y-147840380D01*
X85240952Y-148840380D02*
X84812380Y-148268952D01*
X85240952Y-147840380D02*
X84669523Y-148411809D01*
X85717142Y-148840380D02*
X85907619Y-148840380D01*
X86002857Y-148792761D01*
X86050476Y-148745142D01*
X86145714Y-148602285D01*
X86193333Y-148411809D01*
X86193333Y-148030857D01*
X86145714Y-147935619D01*
X86098095Y-147888000D01*
X86002857Y-147840380D01*
X85812380Y-147840380D01*
X85717142Y-147888000D01*
X85669523Y-147935619D01*
X85621904Y-148030857D01*
X85621904Y-148268952D01*
X85669523Y-148364190D01*
X85717142Y-148411809D01*
X85812380Y-148459428D01*
X86002857Y-148459428D01*
X86098095Y-148411809D01*
X86145714Y-148364190D01*
X86193333Y-148268952D01*
X86764761Y-148268952D02*
X86669523Y-148221333D01*
X86621904Y-148173714D01*
X86574285Y-148078476D01*
X86574285Y-148030857D01*
X86621904Y-147935619D01*
X86669523Y-147888000D01*
X86764761Y-147840380D01*
X86955238Y-147840380D01*
X87050476Y-147888000D01*
X87098095Y-147935619D01*
X87145714Y-148030857D01*
X87145714Y-148078476D01*
X87098095Y-148173714D01*
X87050476Y-148221333D01*
X86955238Y-148268952D01*
X86764761Y-148268952D01*
X86669523Y-148316571D01*
X86621904Y-148364190D01*
X86574285Y-148459428D01*
X86574285Y-148649904D01*
X86621904Y-148745142D01*
X86669523Y-148792761D01*
X86764761Y-148840380D01*
X86955238Y-148840380D01*
X87050476Y-148792761D01*
X87098095Y-148745142D01*
X87145714Y-148649904D01*
X87145714Y-148459428D01*
X87098095Y-148364190D01*
X87050476Y-148316571D01*
X86955238Y-148268952D01*
X87526666Y-147935619D02*
X87574285Y-147888000D01*
X87669523Y-147840380D01*
X87907619Y-147840380D01*
X88002857Y-147888000D01*
X88050476Y-147935619D01*
X88098095Y-148030857D01*
X88098095Y-148126095D01*
X88050476Y-148268952D01*
X87479047Y-148840380D01*
X88098095Y-148840380D01*
X88479047Y-147935619D02*
X88526666Y-147888000D01*
X88621904Y-147840380D01*
X88860000Y-147840380D01*
X88955238Y-147888000D01*
X89002857Y-147935619D01*
X89050476Y-148030857D01*
X89050476Y-148126095D01*
X89002857Y-148268952D01*
X88431428Y-148840380D01*
X89050476Y-148840380D01*
X84288571Y-147075380D02*
X83812380Y-147075380D01*
X83812380Y-146075380D01*
X84621904Y-146551571D02*
X84955238Y-146551571D01*
X85098095Y-147075380D02*
X84621904Y-147075380D01*
X84621904Y-146075380D01*
X85098095Y-146075380D01*
X85526666Y-147075380D02*
X85526666Y-146075380D01*
X85764761Y-146075380D01*
X85907619Y-146123000D01*
X86002857Y-146218238D01*
X86050476Y-146313476D01*
X86098095Y-146503952D01*
X86098095Y-146646809D01*
X86050476Y-146837285D01*
X86002857Y-146932523D01*
X85907619Y-147027761D01*
X85764761Y-147075380D01*
X85526666Y-147075380D01*
X86431428Y-146075380D02*
X87050476Y-146075380D01*
X86717142Y-146456333D01*
X86860000Y-146456333D01*
X86955238Y-146503952D01*
X87002857Y-146551571D01*
X87050476Y-146646809D01*
X87050476Y-146884904D01*
X87002857Y-146980142D01*
X86955238Y-147027761D01*
X86860000Y-147075380D01*
X86574285Y-147075380D01*
X86479047Y-147027761D01*
X86431428Y-146980142D01*
X88002857Y-147075380D02*
X87431428Y-147075380D01*
X87717142Y-147075380D02*
X87717142Y-146075380D01*
X87621904Y-146218238D01*
X87526666Y-146313476D01*
X87431428Y-146361095D01*
X88860000Y-146075380D02*
X88669523Y-146075380D01*
X88574285Y-146123000D01*
X88526666Y-146170619D01*
X88431428Y-146313476D01*
X88383809Y-146503952D01*
X88383809Y-146884904D01*
X88431428Y-146980142D01*
X88479047Y-147027761D01*
X88574285Y-147075380D01*
X88764761Y-147075380D01*
X88860000Y-147027761D01*
X88907619Y-146980142D01*
X88955238Y-146884904D01*
X88955238Y-146646809D01*
X88907619Y-146551571D01*
X88860000Y-146503952D01*
X88764761Y-146456333D01*
X88574285Y-146456333D01*
X88479047Y-146503952D01*
X88431428Y-146551571D01*
X88383809Y-146646809D01*
X83669523Y-122630761D02*
X83812380Y-122678380D01*
X84050476Y-122678380D01*
X84145714Y-122630761D01*
X84193333Y-122583142D01*
X84240952Y-122487904D01*
X84240952Y-122392666D01*
X84193333Y-122297428D01*
X84145714Y-122249809D01*
X84050476Y-122202190D01*
X83860000Y-122154571D01*
X83764761Y-122106952D01*
X83717142Y-122059333D01*
X83669523Y-121964095D01*
X83669523Y-121868857D01*
X83717142Y-121773619D01*
X83764761Y-121726000D01*
X83860000Y-121678380D01*
X84098095Y-121678380D01*
X84240952Y-121726000D01*
X84669523Y-122678380D02*
X84669523Y-121678380D01*
X85240952Y-122678380D02*
X84812380Y-122106952D01*
X85240952Y-121678380D02*
X84669523Y-122249809D01*
X85717142Y-122678380D02*
X85907619Y-122678380D01*
X86002857Y-122630761D01*
X86050476Y-122583142D01*
X86145714Y-122440285D01*
X86193333Y-122249809D01*
X86193333Y-121868857D01*
X86145714Y-121773619D01*
X86098095Y-121726000D01*
X86002857Y-121678380D01*
X85812380Y-121678380D01*
X85717142Y-121726000D01*
X85669523Y-121773619D01*
X85621904Y-121868857D01*
X85621904Y-122106952D01*
X85669523Y-122202190D01*
X85717142Y-122249809D01*
X85812380Y-122297428D01*
X86002857Y-122297428D01*
X86098095Y-122249809D01*
X86145714Y-122202190D01*
X86193333Y-122106952D01*
X86764761Y-122106952D02*
X86669523Y-122059333D01*
X86621904Y-122011714D01*
X86574285Y-121916476D01*
X86574285Y-121868857D01*
X86621904Y-121773619D01*
X86669523Y-121726000D01*
X86764761Y-121678380D01*
X86955238Y-121678380D01*
X87050476Y-121726000D01*
X87098095Y-121773619D01*
X87145714Y-121868857D01*
X87145714Y-121916476D01*
X87098095Y-122011714D01*
X87050476Y-122059333D01*
X86955238Y-122106952D01*
X86764761Y-122106952D01*
X86669523Y-122154571D01*
X86621904Y-122202190D01*
X86574285Y-122297428D01*
X86574285Y-122487904D01*
X86621904Y-122583142D01*
X86669523Y-122630761D01*
X86764761Y-122678380D01*
X86955238Y-122678380D01*
X87050476Y-122630761D01*
X87098095Y-122583142D01*
X87145714Y-122487904D01*
X87145714Y-122297428D01*
X87098095Y-122202190D01*
X87050476Y-122154571D01*
X86955238Y-122106952D01*
X87526666Y-121773619D02*
X87574285Y-121726000D01*
X87669523Y-121678380D01*
X87907619Y-121678380D01*
X88002857Y-121726000D01*
X88050476Y-121773619D01*
X88098095Y-121868857D01*
X88098095Y-121964095D01*
X88050476Y-122106952D01*
X87479047Y-122678380D01*
X88098095Y-122678380D01*
X88479047Y-121773619D02*
X88526666Y-121726000D01*
X88621904Y-121678380D01*
X88860000Y-121678380D01*
X88955238Y-121726000D01*
X89002857Y-121773619D01*
X89050476Y-121868857D01*
X89050476Y-121964095D01*
X89002857Y-122106952D01*
X88431428Y-122678380D01*
X89050476Y-122678380D01*
X84288571Y-120913380D02*
X83812380Y-120913380D01*
X83812380Y-119913380D01*
X84621904Y-120389571D02*
X84955238Y-120389571D01*
X85098095Y-120913380D02*
X84621904Y-120913380D01*
X84621904Y-119913380D01*
X85098095Y-119913380D01*
X85526666Y-120913380D02*
X85526666Y-119913380D01*
X85764761Y-119913380D01*
X85907619Y-119961000D01*
X86002857Y-120056238D01*
X86050476Y-120151476D01*
X86098095Y-120341952D01*
X86098095Y-120484809D01*
X86050476Y-120675285D01*
X86002857Y-120770523D01*
X85907619Y-120865761D01*
X85764761Y-120913380D01*
X85526666Y-120913380D01*
X86431428Y-119913380D02*
X87050476Y-119913380D01*
X86717142Y-120294333D01*
X86860000Y-120294333D01*
X86955238Y-120341952D01*
X87002857Y-120389571D01*
X87050476Y-120484809D01*
X87050476Y-120722904D01*
X87002857Y-120818142D01*
X86955238Y-120865761D01*
X86860000Y-120913380D01*
X86574285Y-120913380D01*
X86479047Y-120865761D01*
X86431428Y-120818142D01*
X87669523Y-119913380D02*
X87764761Y-119913380D01*
X87860000Y-119961000D01*
X87907619Y-120008619D01*
X87955238Y-120103857D01*
X88002857Y-120294333D01*
X88002857Y-120532428D01*
X87955238Y-120722904D01*
X87907619Y-120818142D01*
X87860000Y-120865761D01*
X87764761Y-120913380D01*
X87669523Y-120913380D01*
X87574285Y-120865761D01*
X87526666Y-120818142D01*
X87479047Y-120722904D01*
X87431428Y-120532428D01*
X87431428Y-120294333D01*
X87479047Y-120103857D01*
X87526666Y-120008619D01*
X87574285Y-119961000D01*
X87669523Y-119913380D01*
X88479047Y-120913380D02*
X88669523Y-120913380D01*
X88764761Y-120865761D01*
X88812380Y-120818142D01*
X88907619Y-120675285D01*
X88955238Y-120484809D01*
X88955238Y-120103857D01*
X88907619Y-120008619D01*
X88860000Y-119961000D01*
X88764761Y-119913380D01*
X88574285Y-119913380D01*
X88479047Y-119961000D01*
X88431428Y-120008619D01*
X88383809Y-120103857D01*
X88383809Y-120341952D01*
X88431428Y-120437190D01*
X88479047Y-120484809D01*
X88574285Y-120532428D01*
X88764761Y-120532428D01*
X88860000Y-120484809D01*
X88907619Y-120437190D01*
X88955238Y-120341952D01*
X83669523Y-160222761D02*
X83812380Y-160270380D01*
X84050476Y-160270380D01*
X84145714Y-160222761D01*
X84193333Y-160175142D01*
X84240952Y-160079904D01*
X84240952Y-159984666D01*
X84193333Y-159889428D01*
X84145714Y-159841809D01*
X84050476Y-159794190D01*
X83860000Y-159746571D01*
X83764761Y-159698952D01*
X83717142Y-159651333D01*
X83669523Y-159556095D01*
X83669523Y-159460857D01*
X83717142Y-159365619D01*
X83764761Y-159318000D01*
X83860000Y-159270380D01*
X84098095Y-159270380D01*
X84240952Y-159318000D01*
X84669523Y-160270380D02*
X84669523Y-159270380D01*
X85240952Y-160270380D02*
X84812380Y-159698952D01*
X85240952Y-159270380D02*
X84669523Y-159841809D01*
X85717142Y-160270380D02*
X85907619Y-160270380D01*
X86002857Y-160222761D01*
X86050476Y-160175142D01*
X86145714Y-160032285D01*
X86193333Y-159841809D01*
X86193333Y-159460857D01*
X86145714Y-159365619D01*
X86098095Y-159318000D01*
X86002857Y-159270380D01*
X85812380Y-159270380D01*
X85717142Y-159318000D01*
X85669523Y-159365619D01*
X85621904Y-159460857D01*
X85621904Y-159698952D01*
X85669523Y-159794190D01*
X85717142Y-159841809D01*
X85812380Y-159889428D01*
X86002857Y-159889428D01*
X86098095Y-159841809D01*
X86145714Y-159794190D01*
X86193333Y-159698952D01*
X86764761Y-159698952D02*
X86669523Y-159651333D01*
X86621904Y-159603714D01*
X86574285Y-159508476D01*
X86574285Y-159460857D01*
X86621904Y-159365619D01*
X86669523Y-159318000D01*
X86764761Y-159270380D01*
X86955238Y-159270380D01*
X87050476Y-159318000D01*
X87098095Y-159365619D01*
X87145714Y-159460857D01*
X87145714Y-159508476D01*
X87098095Y-159603714D01*
X87050476Y-159651333D01*
X86955238Y-159698952D01*
X86764761Y-159698952D01*
X86669523Y-159746571D01*
X86621904Y-159794190D01*
X86574285Y-159889428D01*
X86574285Y-160079904D01*
X86621904Y-160175142D01*
X86669523Y-160222761D01*
X86764761Y-160270380D01*
X86955238Y-160270380D01*
X87050476Y-160222761D01*
X87098095Y-160175142D01*
X87145714Y-160079904D01*
X87145714Y-159889428D01*
X87098095Y-159794190D01*
X87050476Y-159746571D01*
X86955238Y-159698952D01*
X87526666Y-159365619D02*
X87574285Y-159318000D01*
X87669523Y-159270380D01*
X87907619Y-159270380D01*
X88002857Y-159318000D01*
X88050476Y-159365619D01*
X88098095Y-159460857D01*
X88098095Y-159556095D01*
X88050476Y-159698952D01*
X87479047Y-160270380D01*
X88098095Y-160270380D01*
X88479047Y-159365619D02*
X88526666Y-159318000D01*
X88621904Y-159270380D01*
X88860000Y-159270380D01*
X88955238Y-159318000D01*
X89002857Y-159365619D01*
X89050476Y-159460857D01*
X89050476Y-159556095D01*
X89002857Y-159698952D01*
X88431428Y-160270380D01*
X89050476Y-160270380D01*
X84288571Y-158505380D02*
X83812380Y-158505380D01*
X83812380Y-157505380D01*
X84621904Y-157981571D02*
X84955238Y-157981571D01*
X85098095Y-158505380D02*
X84621904Y-158505380D01*
X84621904Y-157505380D01*
X85098095Y-157505380D01*
X85526666Y-158505380D02*
X85526666Y-157505380D01*
X85764761Y-157505380D01*
X85907619Y-157553000D01*
X86002857Y-157648238D01*
X86050476Y-157743476D01*
X86098095Y-157933952D01*
X86098095Y-158076809D01*
X86050476Y-158267285D01*
X86002857Y-158362523D01*
X85907619Y-158457761D01*
X85764761Y-158505380D01*
X85526666Y-158505380D01*
X86431428Y-157505380D02*
X87050476Y-157505380D01*
X86717142Y-157886333D01*
X86860000Y-157886333D01*
X86955238Y-157933952D01*
X87002857Y-157981571D01*
X87050476Y-158076809D01*
X87050476Y-158314904D01*
X87002857Y-158410142D01*
X86955238Y-158457761D01*
X86860000Y-158505380D01*
X86574285Y-158505380D01*
X86479047Y-158457761D01*
X86431428Y-158410142D01*
X88002857Y-158505380D02*
X87431428Y-158505380D01*
X87717142Y-158505380D02*
X87717142Y-157505380D01*
X87621904Y-157648238D01*
X87526666Y-157743476D01*
X87431428Y-157791095D01*
X88479047Y-158505380D02*
X88669523Y-158505380D01*
X88764761Y-158457761D01*
X88812380Y-158410142D01*
X88907619Y-158267285D01*
X88955238Y-158076809D01*
X88955238Y-157695857D01*
X88907619Y-157600619D01*
X88860000Y-157553000D01*
X88764761Y-157505380D01*
X88574285Y-157505380D01*
X88479047Y-157553000D01*
X88431428Y-157600619D01*
X88383809Y-157695857D01*
X88383809Y-157933952D01*
X88431428Y-158029190D01*
X88479047Y-158076809D01*
X88574285Y-158124428D01*
X88764761Y-158124428D01*
X88860000Y-158076809D01*
X88907619Y-158029190D01*
X88955238Y-157933952D01*
X83669523Y-100024761D02*
X83812380Y-100072380D01*
X84050476Y-100072380D01*
X84145714Y-100024761D01*
X84193333Y-99977142D01*
X84240952Y-99881904D01*
X84240952Y-99786666D01*
X84193333Y-99691428D01*
X84145714Y-99643809D01*
X84050476Y-99596190D01*
X83860000Y-99548571D01*
X83764761Y-99500952D01*
X83717142Y-99453333D01*
X83669523Y-99358095D01*
X83669523Y-99262857D01*
X83717142Y-99167619D01*
X83764761Y-99120000D01*
X83860000Y-99072380D01*
X84098095Y-99072380D01*
X84240952Y-99120000D01*
X84669523Y-100072380D02*
X84669523Y-99072380D01*
X85240952Y-100072380D02*
X84812380Y-99500952D01*
X85240952Y-99072380D02*
X84669523Y-99643809D01*
X85717142Y-100072380D02*
X85907619Y-100072380D01*
X86002857Y-100024761D01*
X86050476Y-99977142D01*
X86145714Y-99834285D01*
X86193333Y-99643809D01*
X86193333Y-99262857D01*
X86145714Y-99167619D01*
X86098095Y-99120000D01*
X86002857Y-99072380D01*
X85812380Y-99072380D01*
X85717142Y-99120000D01*
X85669523Y-99167619D01*
X85621904Y-99262857D01*
X85621904Y-99500952D01*
X85669523Y-99596190D01*
X85717142Y-99643809D01*
X85812380Y-99691428D01*
X86002857Y-99691428D01*
X86098095Y-99643809D01*
X86145714Y-99596190D01*
X86193333Y-99500952D01*
X86764761Y-99500952D02*
X86669523Y-99453333D01*
X86621904Y-99405714D01*
X86574285Y-99310476D01*
X86574285Y-99262857D01*
X86621904Y-99167619D01*
X86669523Y-99120000D01*
X86764761Y-99072380D01*
X86955238Y-99072380D01*
X87050476Y-99120000D01*
X87098095Y-99167619D01*
X87145714Y-99262857D01*
X87145714Y-99310476D01*
X87098095Y-99405714D01*
X87050476Y-99453333D01*
X86955238Y-99500952D01*
X86764761Y-99500952D01*
X86669523Y-99548571D01*
X86621904Y-99596190D01*
X86574285Y-99691428D01*
X86574285Y-99881904D01*
X86621904Y-99977142D01*
X86669523Y-100024761D01*
X86764761Y-100072380D01*
X86955238Y-100072380D01*
X87050476Y-100024761D01*
X87098095Y-99977142D01*
X87145714Y-99881904D01*
X87145714Y-99691428D01*
X87098095Y-99596190D01*
X87050476Y-99548571D01*
X86955238Y-99500952D01*
X87526666Y-99167619D02*
X87574285Y-99120000D01*
X87669523Y-99072380D01*
X87907619Y-99072380D01*
X88002857Y-99120000D01*
X88050476Y-99167619D01*
X88098095Y-99262857D01*
X88098095Y-99358095D01*
X88050476Y-99500952D01*
X87479047Y-100072380D01*
X88098095Y-100072380D01*
X88479047Y-99167619D02*
X88526666Y-99120000D01*
X88621904Y-99072380D01*
X88860000Y-99072380D01*
X88955238Y-99120000D01*
X89002857Y-99167619D01*
X89050476Y-99262857D01*
X89050476Y-99358095D01*
X89002857Y-99500952D01*
X88431428Y-100072380D01*
X89050476Y-100072380D01*
X84288571Y-98307380D02*
X83812380Y-98307380D01*
X83812380Y-97307380D01*
X84621904Y-97783571D02*
X84955238Y-97783571D01*
X85098095Y-98307380D02*
X84621904Y-98307380D01*
X84621904Y-97307380D01*
X85098095Y-97307380D01*
X85526666Y-98307380D02*
X85526666Y-97307380D01*
X85764761Y-97307380D01*
X85907619Y-97355000D01*
X86002857Y-97450238D01*
X86050476Y-97545476D01*
X86098095Y-97735952D01*
X86098095Y-97878809D01*
X86050476Y-98069285D01*
X86002857Y-98164523D01*
X85907619Y-98259761D01*
X85764761Y-98307380D01*
X85526666Y-98307380D01*
X86431428Y-97307380D02*
X87050476Y-97307380D01*
X86717142Y-97688333D01*
X86860000Y-97688333D01*
X86955238Y-97735952D01*
X87002857Y-97783571D01*
X87050476Y-97878809D01*
X87050476Y-98116904D01*
X87002857Y-98212142D01*
X86955238Y-98259761D01*
X86860000Y-98307380D01*
X86574285Y-98307380D01*
X86479047Y-98259761D01*
X86431428Y-98212142D01*
X87669523Y-97307380D02*
X87764761Y-97307380D01*
X87860000Y-97355000D01*
X87907619Y-97402619D01*
X87955238Y-97497857D01*
X88002857Y-97688333D01*
X88002857Y-97926428D01*
X87955238Y-98116904D01*
X87907619Y-98212142D01*
X87860000Y-98259761D01*
X87764761Y-98307380D01*
X87669523Y-98307380D01*
X87574285Y-98259761D01*
X87526666Y-98212142D01*
X87479047Y-98116904D01*
X87431428Y-97926428D01*
X87431428Y-97688333D01*
X87479047Y-97497857D01*
X87526666Y-97402619D01*
X87574285Y-97355000D01*
X87669523Y-97307380D01*
X88336190Y-97307380D02*
X88955238Y-97307380D01*
X88621904Y-97688333D01*
X88764761Y-97688333D01*
X88860000Y-97735952D01*
X88907619Y-97783571D01*
X88955238Y-97878809D01*
X88955238Y-98116904D01*
X88907619Y-98212142D01*
X88860000Y-98259761D01*
X88764761Y-98307380D01*
X88479047Y-98307380D01*
X88383809Y-98259761D01*
X88336190Y-98212142D01*
X83669523Y-163778761D02*
X83812380Y-163826380D01*
X84050476Y-163826380D01*
X84145714Y-163778761D01*
X84193333Y-163731142D01*
X84240952Y-163635904D01*
X84240952Y-163540666D01*
X84193333Y-163445428D01*
X84145714Y-163397809D01*
X84050476Y-163350190D01*
X83860000Y-163302571D01*
X83764761Y-163254952D01*
X83717142Y-163207333D01*
X83669523Y-163112095D01*
X83669523Y-163016857D01*
X83717142Y-162921619D01*
X83764761Y-162874000D01*
X83860000Y-162826380D01*
X84098095Y-162826380D01*
X84240952Y-162874000D01*
X84669523Y-163826380D02*
X84669523Y-162826380D01*
X85240952Y-163826380D02*
X84812380Y-163254952D01*
X85240952Y-162826380D02*
X84669523Y-163397809D01*
X85717142Y-163826380D02*
X85907619Y-163826380D01*
X86002857Y-163778761D01*
X86050476Y-163731142D01*
X86145714Y-163588285D01*
X86193333Y-163397809D01*
X86193333Y-163016857D01*
X86145714Y-162921619D01*
X86098095Y-162874000D01*
X86002857Y-162826380D01*
X85812380Y-162826380D01*
X85717142Y-162874000D01*
X85669523Y-162921619D01*
X85621904Y-163016857D01*
X85621904Y-163254952D01*
X85669523Y-163350190D01*
X85717142Y-163397809D01*
X85812380Y-163445428D01*
X86002857Y-163445428D01*
X86098095Y-163397809D01*
X86145714Y-163350190D01*
X86193333Y-163254952D01*
X86764761Y-163254952D02*
X86669523Y-163207333D01*
X86621904Y-163159714D01*
X86574285Y-163064476D01*
X86574285Y-163016857D01*
X86621904Y-162921619D01*
X86669523Y-162874000D01*
X86764761Y-162826380D01*
X86955238Y-162826380D01*
X87050476Y-162874000D01*
X87098095Y-162921619D01*
X87145714Y-163016857D01*
X87145714Y-163064476D01*
X87098095Y-163159714D01*
X87050476Y-163207333D01*
X86955238Y-163254952D01*
X86764761Y-163254952D01*
X86669523Y-163302571D01*
X86621904Y-163350190D01*
X86574285Y-163445428D01*
X86574285Y-163635904D01*
X86621904Y-163731142D01*
X86669523Y-163778761D01*
X86764761Y-163826380D01*
X86955238Y-163826380D01*
X87050476Y-163778761D01*
X87098095Y-163731142D01*
X87145714Y-163635904D01*
X87145714Y-163445428D01*
X87098095Y-163350190D01*
X87050476Y-163302571D01*
X86955238Y-163254952D01*
X87526666Y-162921619D02*
X87574285Y-162874000D01*
X87669523Y-162826380D01*
X87907619Y-162826380D01*
X88002857Y-162874000D01*
X88050476Y-162921619D01*
X88098095Y-163016857D01*
X88098095Y-163112095D01*
X88050476Y-163254952D01*
X87479047Y-163826380D01*
X88098095Y-163826380D01*
X88479047Y-162921619D02*
X88526666Y-162874000D01*
X88621904Y-162826380D01*
X88860000Y-162826380D01*
X88955238Y-162874000D01*
X89002857Y-162921619D01*
X89050476Y-163016857D01*
X89050476Y-163112095D01*
X89002857Y-163254952D01*
X88431428Y-163826380D01*
X89050476Y-163826380D01*
X84288571Y-162061380D02*
X83812380Y-162061380D01*
X83812380Y-161061380D01*
X84621904Y-161537571D02*
X84955238Y-161537571D01*
X85098095Y-162061380D02*
X84621904Y-162061380D01*
X84621904Y-161061380D01*
X85098095Y-161061380D01*
X85526666Y-162061380D02*
X85526666Y-161061380D01*
X85764761Y-161061380D01*
X85907619Y-161109000D01*
X86002857Y-161204238D01*
X86050476Y-161299476D01*
X86098095Y-161489952D01*
X86098095Y-161632809D01*
X86050476Y-161823285D01*
X86002857Y-161918523D01*
X85907619Y-162013761D01*
X85764761Y-162061380D01*
X85526666Y-162061380D01*
X86431428Y-161061380D02*
X87050476Y-161061380D01*
X86717142Y-161442333D01*
X86860000Y-161442333D01*
X86955238Y-161489952D01*
X87002857Y-161537571D01*
X87050476Y-161632809D01*
X87050476Y-161870904D01*
X87002857Y-161966142D01*
X86955238Y-162013761D01*
X86860000Y-162061380D01*
X86574285Y-162061380D01*
X86479047Y-162013761D01*
X86431428Y-161966142D01*
X87431428Y-161156619D02*
X87479047Y-161109000D01*
X87574285Y-161061380D01*
X87812380Y-161061380D01*
X87907619Y-161109000D01*
X87955238Y-161156619D01*
X88002857Y-161251857D01*
X88002857Y-161347095D01*
X87955238Y-161489952D01*
X87383809Y-162061380D01*
X88002857Y-162061380D01*
X88621904Y-161061380D02*
X88717142Y-161061380D01*
X88812380Y-161109000D01*
X88860000Y-161156619D01*
X88907619Y-161251857D01*
X88955238Y-161442333D01*
X88955238Y-161680428D01*
X88907619Y-161870904D01*
X88860000Y-161966142D01*
X88812380Y-162013761D01*
X88717142Y-162061380D01*
X88621904Y-162061380D01*
X88526666Y-162013761D01*
X88479047Y-161966142D01*
X88431428Y-161870904D01*
X88383809Y-161680428D01*
X88383809Y-161442333D01*
X88431428Y-161251857D01*
X88479047Y-161156619D01*
X88526666Y-161109000D01*
X88621904Y-161061380D01*
X83415523Y-129996761D02*
X83558380Y-130044380D01*
X83796476Y-130044380D01*
X83891714Y-129996761D01*
X83939333Y-129949142D01*
X83986952Y-129853904D01*
X83986952Y-129758666D01*
X83939333Y-129663428D01*
X83891714Y-129615809D01*
X83796476Y-129568190D01*
X83606000Y-129520571D01*
X83510761Y-129472952D01*
X83463142Y-129425333D01*
X83415523Y-129330095D01*
X83415523Y-129234857D01*
X83463142Y-129139619D01*
X83510761Y-129092000D01*
X83606000Y-129044380D01*
X83844095Y-129044380D01*
X83986952Y-129092000D01*
X84415523Y-130044380D02*
X84415523Y-129044380D01*
X84986952Y-130044380D02*
X84558380Y-129472952D01*
X84986952Y-129044380D02*
X84415523Y-129615809D01*
X85463142Y-130044380D02*
X85653619Y-130044380D01*
X85748857Y-129996761D01*
X85796476Y-129949142D01*
X85891714Y-129806285D01*
X85939333Y-129615809D01*
X85939333Y-129234857D01*
X85891714Y-129139619D01*
X85844095Y-129092000D01*
X85748857Y-129044380D01*
X85558380Y-129044380D01*
X85463142Y-129092000D01*
X85415523Y-129139619D01*
X85367904Y-129234857D01*
X85367904Y-129472952D01*
X85415523Y-129568190D01*
X85463142Y-129615809D01*
X85558380Y-129663428D01*
X85748857Y-129663428D01*
X85844095Y-129615809D01*
X85891714Y-129568190D01*
X85939333Y-129472952D01*
X86510761Y-129472952D02*
X86415523Y-129425333D01*
X86367904Y-129377714D01*
X86320285Y-129282476D01*
X86320285Y-129234857D01*
X86367904Y-129139619D01*
X86415523Y-129092000D01*
X86510761Y-129044380D01*
X86701238Y-129044380D01*
X86796476Y-129092000D01*
X86844095Y-129139619D01*
X86891714Y-129234857D01*
X86891714Y-129282476D01*
X86844095Y-129377714D01*
X86796476Y-129425333D01*
X86701238Y-129472952D01*
X86510761Y-129472952D01*
X86415523Y-129520571D01*
X86367904Y-129568190D01*
X86320285Y-129663428D01*
X86320285Y-129853904D01*
X86367904Y-129949142D01*
X86415523Y-129996761D01*
X86510761Y-130044380D01*
X86701238Y-130044380D01*
X86796476Y-129996761D01*
X86844095Y-129949142D01*
X86891714Y-129853904D01*
X86891714Y-129663428D01*
X86844095Y-129568190D01*
X86796476Y-129520571D01*
X86701238Y-129472952D01*
X87272666Y-129139619D02*
X87320285Y-129092000D01*
X87415523Y-129044380D01*
X87653619Y-129044380D01*
X87748857Y-129092000D01*
X87796476Y-129139619D01*
X87844095Y-129234857D01*
X87844095Y-129330095D01*
X87796476Y-129472952D01*
X87225047Y-130044380D01*
X87844095Y-130044380D01*
X88225047Y-129139619D02*
X88272666Y-129092000D01*
X88367904Y-129044380D01*
X88606000Y-129044380D01*
X88701238Y-129092000D01*
X88748857Y-129139619D01*
X88796476Y-129234857D01*
X88796476Y-129330095D01*
X88748857Y-129472952D01*
X88177428Y-130044380D01*
X88796476Y-130044380D01*
X84288571Y-128279380D02*
X83812380Y-128279380D01*
X83812380Y-127279380D01*
X84621904Y-127755571D02*
X84955238Y-127755571D01*
X85098095Y-128279380D02*
X84621904Y-128279380D01*
X84621904Y-127279380D01*
X85098095Y-127279380D01*
X85526666Y-128279380D02*
X85526666Y-127279380D01*
X85764761Y-127279380D01*
X85907619Y-127327000D01*
X86002857Y-127422238D01*
X86050476Y-127517476D01*
X86098095Y-127707952D01*
X86098095Y-127850809D01*
X86050476Y-128041285D01*
X86002857Y-128136523D01*
X85907619Y-128231761D01*
X85764761Y-128279380D01*
X85526666Y-128279380D01*
X86431428Y-127279380D02*
X87050476Y-127279380D01*
X86717142Y-127660333D01*
X86860000Y-127660333D01*
X86955238Y-127707952D01*
X87002857Y-127755571D01*
X87050476Y-127850809D01*
X87050476Y-128088904D01*
X87002857Y-128184142D01*
X86955238Y-128231761D01*
X86860000Y-128279380D01*
X86574285Y-128279380D01*
X86479047Y-128231761D01*
X86431428Y-128184142D01*
X88002857Y-128279380D02*
X87431428Y-128279380D01*
X87717142Y-128279380D02*
X87717142Y-127279380D01*
X87621904Y-127422238D01*
X87526666Y-127517476D01*
X87431428Y-127565095D01*
X88955238Y-128279380D02*
X88383809Y-128279380D01*
X88669523Y-128279380D02*
X88669523Y-127279380D01*
X88574285Y-127422238D01*
X88479047Y-127517476D01*
X88383809Y-127565095D01*
X83415523Y-175208761D02*
X83558380Y-175256380D01*
X83796476Y-175256380D01*
X83891714Y-175208761D01*
X83939333Y-175161142D01*
X83986952Y-175065904D01*
X83986952Y-174970666D01*
X83939333Y-174875428D01*
X83891714Y-174827809D01*
X83796476Y-174780190D01*
X83606000Y-174732571D01*
X83510761Y-174684952D01*
X83463142Y-174637333D01*
X83415523Y-174542095D01*
X83415523Y-174446857D01*
X83463142Y-174351619D01*
X83510761Y-174304000D01*
X83606000Y-174256380D01*
X83844095Y-174256380D01*
X83986952Y-174304000D01*
X84415523Y-175256380D02*
X84415523Y-174256380D01*
X84986952Y-175256380D02*
X84558380Y-174684952D01*
X84986952Y-174256380D02*
X84415523Y-174827809D01*
X85463142Y-175256380D02*
X85653619Y-175256380D01*
X85748857Y-175208761D01*
X85796476Y-175161142D01*
X85891714Y-175018285D01*
X85939333Y-174827809D01*
X85939333Y-174446857D01*
X85891714Y-174351619D01*
X85844095Y-174304000D01*
X85748857Y-174256380D01*
X85558380Y-174256380D01*
X85463142Y-174304000D01*
X85415523Y-174351619D01*
X85367904Y-174446857D01*
X85367904Y-174684952D01*
X85415523Y-174780190D01*
X85463142Y-174827809D01*
X85558380Y-174875428D01*
X85748857Y-174875428D01*
X85844095Y-174827809D01*
X85891714Y-174780190D01*
X85939333Y-174684952D01*
X86510761Y-174684952D02*
X86415523Y-174637333D01*
X86367904Y-174589714D01*
X86320285Y-174494476D01*
X86320285Y-174446857D01*
X86367904Y-174351619D01*
X86415523Y-174304000D01*
X86510761Y-174256380D01*
X86701238Y-174256380D01*
X86796476Y-174304000D01*
X86844095Y-174351619D01*
X86891714Y-174446857D01*
X86891714Y-174494476D01*
X86844095Y-174589714D01*
X86796476Y-174637333D01*
X86701238Y-174684952D01*
X86510761Y-174684952D01*
X86415523Y-174732571D01*
X86367904Y-174780190D01*
X86320285Y-174875428D01*
X86320285Y-175065904D01*
X86367904Y-175161142D01*
X86415523Y-175208761D01*
X86510761Y-175256380D01*
X86701238Y-175256380D01*
X86796476Y-175208761D01*
X86844095Y-175161142D01*
X86891714Y-175065904D01*
X86891714Y-174875428D01*
X86844095Y-174780190D01*
X86796476Y-174732571D01*
X86701238Y-174684952D01*
X87272666Y-174351619D02*
X87320285Y-174304000D01*
X87415523Y-174256380D01*
X87653619Y-174256380D01*
X87748857Y-174304000D01*
X87796476Y-174351619D01*
X87844095Y-174446857D01*
X87844095Y-174542095D01*
X87796476Y-174684952D01*
X87225047Y-175256380D01*
X87844095Y-175256380D01*
X88225047Y-174351619D02*
X88272666Y-174304000D01*
X88367904Y-174256380D01*
X88606000Y-174256380D01*
X88701238Y-174304000D01*
X88748857Y-174351619D01*
X88796476Y-174446857D01*
X88796476Y-174542095D01*
X88748857Y-174684952D01*
X88177428Y-175256380D01*
X88796476Y-175256380D01*
X84288571Y-173491380D02*
X83812380Y-173491380D01*
X83812380Y-172491380D01*
X84621904Y-172967571D02*
X84955238Y-172967571D01*
X85098095Y-173491380D02*
X84621904Y-173491380D01*
X84621904Y-172491380D01*
X85098095Y-172491380D01*
X85526666Y-173491380D02*
X85526666Y-172491380D01*
X85764761Y-172491380D01*
X85907619Y-172539000D01*
X86002857Y-172634238D01*
X86050476Y-172729476D01*
X86098095Y-172919952D01*
X86098095Y-173062809D01*
X86050476Y-173253285D01*
X86002857Y-173348523D01*
X85907619Y-173443761D01*
X85764761Y-173491380D01*
X85526666Y-173491380D01*
X86431428Y-172491380D02*
X87050476Y-172491380D01*
X86717142Y-172872333D01*
X86860000Y-172872333D01*
X86955238Y-172919952D01*
X87002857Y-172967571D01*
X87050476Y-173062809D01*
X87050476Y-173300904D01*
X87002857Y-173396142D01*
X86955238Y-173443761D01*
X86860000Y-173491380D01*
X86574285Y-173491380D01*
X86479047Y-173443761D01*
X86431428Y-173396142D01*
X87431428Y-172586619D02*
X87479047Y-172539000D01*
X87574285Y-172491380D01*
X87812380Y-172491380D01*
X87907619Y-172539000D01*
X87955238Y-172586619D01*
X88002857Y-172681857D01*
X88002857Y-172777095D01*
X87955238Y-172919952D01*
X87383809Y-173491380D01*
X88002857Y-173491380D01*
X88336190Y-172491380D02*
X88955238Y-172491380D01*
X88621904Y-172872333D01*
X88764761Y-172872333D01*
X88860000Y-172919952D01*
X88907619Y-172967571D01*
X88955238Y-173062809D01*
X88955238Y-173300904D01*
X88907619Y-173396142D01*
X88860000Y-173443761D01*
X88764761Y-173491380D01*
X88479047Y-173491380D01*
X88383809Y-173443761D01*
X88336190Y-173396142D01*
X83669523Y-111200761D02*
X83812380Y-111248380D01*
X84050476Y-111248380D01*
X84145714Y-111200761D01*
X84193333Y-111153142D01*
X84240952Y-111057904D01*
X84240952Y-110962666D01*
X84193333Y-110867428D01*
X84145714Y-110819809D01*
X84050476Y-110772190D01*
X83860000Y-110724571D01*
X83764761Y-110676952D01*
X83717142Y-110629333D01*
X83669523Y-110534095D01*
X83669523Y-110438857D01*
X83717142Y-110343619D01*
X83764761Y-110296000D01*
X83860000Y-110248380D01*
X84098095Y-110248380D01*
X84240952Y-110296000D01*
X84669523Y-111248380D02*
X84669523Y-110248380D01*
X85240952Y-111248380D02*
X84812380Y-110676952D01*
X85240952Y-110248380D02*
X84669523Y-110819809D01*
X85717142Y-111248380D02*
X85907619Y-111248380D01*
X86002857Y-111200761D01*
X86050476Y-111153142D01*
X86145714Y-111010285D01*
X86193333Y-110819809D01*
X86193333Y-110438857D01*
X86145714Y-110343619D01*
X86098095Y-110296000D01*
X86002857Y-110248380D01*
X85812380Y-110248380D01*
X85717142Y-110296000D01*
X85669523Y-110343619D01*
X85621904Y-110438857D01*
X85621904Y-110676952D01*
X85669523Y-110772190D01*
X85717142Y-110819809D01*
X85812380Y-110867428D01*
X86002857Y-110867428D01*
X86098095Y-110819809D01*
X86145714Y-110772190D01*
X86193333Y-110676952D01*
X86764761Y-110676952D02*
X86669523Y-110629333D01*
X86621904Y-110581714D01*
X86574285Y-110486476D01*
X86574285Y-110438857D01*
X86621904Y-110343619D01*
X86669523Y-110296000D01*
X86764761Y-110248380D01*
X86955238Y-110248380D01*
X87050476Y-110296000D01*
X87098095Y-110343619D01*
X87145714Y-110438857D01*
X87145714Y-110486476D01*
X87098095Y-110581714D01*
X87050476Y-110629333D01*
X86955238Y-110676952D01*
X86764761Y-110676952D01*
X86669523Y-110724571D01*
X86621904Y-110772190D01*
X86574285Y-110867428D01*
X86574285Y-111057904D01*
X86621904Y-111153142D01*
X86669523Y-111200761D01*
X86764761Y-111248380D01*
X86955238Y-111248380D01*
X87050476Y-111200761D01*
X87098095Y-111153142D01*
X87145714Y-111057904D01*
X87145714Y-110867428D01*
X87098095Y-110772190D01*
X87050476Y-110724571D01*
X86955238Y-110676952D01*
X87526666Y-110343619D02*
X87574285Y-110296000D01*
X87669523Y-110248380D01*
X87907619Y-110248380D01*
X88002857Y-110296000D01*
X88050476Y-110343619D01*
X88098095Y-110438857D01*
X88098095Y-110534095D01*
X88050476Y-110676952D01*
X87479047Y-111248380D01*
X88098095Y-111248380D01*
X88479047Y-110343619D02*
X88526666Y-110296000D01*
X88621904Y-110248380D01*
X88860000Y-110248380D01*
X88955238Y-110296000D01*
X89002857Y-110343619D01*
X89050476Y-110438857D01*
X89050476Y-110534095D01*
X89002857Y-110676952D01*
X88431428Y-111248380D01*
X89050476Y-111248380D01*
X84288571Y-109483380D02*
X83812380Y-109483380D01*
X83812380Y-108483380D01*
X84621904Y-108959571D02*
X84955238Y-108959571D01*
X85098095Y-109483380D02*
X84621904Y-109483380D01*
X84621904Y-108483380D01*
X85098095Y-108483380D01*
X85526666Y-109483380D02*
X85526666Y-108483380D01*
X85764761Y-108483380D01*
X85907619Y-108531000D01*
X86002857Y-108626238D01*
X86050476Y-108721476D01*
X86098095Y-108911952D01*
X86098095Y-109054809D01*
X86050476Y-109245285D01*
X86002857Y-109340523D01*
X85907619Y-109435761D01*
X85764761Y-109483380D01*
X85526666Y-109483380D01*
X86431428Y-108483380D02*
X87050476Y-108483380D01*
X86717142Y-108864333D01*
X86860000Y-108864333D01*
X86955238Y-108911952D01*
X87002857Y-108959571D01*
X87050476Y-109054809D01*
X87050476Y-109292904D01*
X87002857Y-109388142D01*
X86955238Y-109435761D01*
X86860000Y-109483380D01*
X86574285Y-109483380D01*
X86479047Y-109435761D01*
X86431428Y-109388142D01*
X87669523Y-108483380D02*
X87764761Y-108483380D01*
X87860000Y-108531000D01*
X87907619Y-108578619D01*
X87955238Y-108673857D01*
X88002857Y-108864333D01*
X88002857Y-109102428D01*
X87955238Y-109292904D01*
X87907619Y-109388142D01*
X87860000Y-109435761D01*
X87764761Y-109483380D01*
X87669523Y-109483380D01*
X87574285Y-109435761D01*
X87526666Y-109388142D01*
X87479047Y-109292904D01*
X87431428Y-109102428D01*
X87431428Y-108864333D01*
X87479047Y-108673857D01*
X87526666Y-108578619D01*
X87574285Y-108531000D01*
X87669523Y-108483380D01*
X88860000Y-108483380D02*
X88669523Y-108483380D01*
X88574285Y-108531000D01*
X88526666Y-108578619D01*
X88431428Y-108721476D01*
X88383809Y-108911952D01*
X88383809Y-109292904D01*
X88431428Y-109388142D01*
X88479047Y-109435761D01*
X88574285Y-109483380D01*
X88764761Y-109483380D01*
X88860000Y-109435761D01*
X88907619Y-109388142D01*
X88955238Y-109292904D01*
X88955238Y-109054809D01*
X88907619Y-108959571D01*
X88860000Y-108911952D01*
X88764761Y-108864333D01*
X88574285Y-108864333D01*
X88479047Y-108911952D01*
X88431428Y-108959571D01*
X88383809Y-109054809D01*
X83415523Y-179018761D02*
X83558380Y-179066380D01*
X83796476Y-179066380D01*
X83891714Y-179018761D01*
X83939333Y-178971142D01*
X83986952Y-178875904D01*
X83986952Y-178780666D01*
X83939333Y-178685428D01*
X83891714Y-178637809D01*
X83796476Y-178590190D01*
X83606000Y-178542571D01*
X83510761Y-178494952D01*
X83463142Y-178447333D01*
X83415523Y-178352095D01*
X83415523Y-178256857D01*
X83463142Y-178161619D01*
X83510761Y-178114000D01*
X83606000Y-178066380D01*
X83844095Y-178066380D01*
X83986952Y-178114000D01*
X84415523Y-179066380D02*
X84415523Y-178066380D01*
X84986952Y-179066380D02*
X84558380Y-178494952D01*
X84986952Y-178066380D02*
X84415523Y-178637809D01*
X85463142Y-179066380D02*
X85653619Y-179066380D01*
X85748857Y-179018761D01*
X85796476Y-178971142D01*
X85891714Y-178828285D01*
X85939333Y-178637809D01*
X85939333Y-178256857D01*
X85891714Y-178161619D01*
X85844095Y-178114000D01*
X85748857Y-178066380D01*
X85558380Y-178066380D01*
X85463142Y-178114000D01*
X85415523Y-178161619D01*
X85367904Y-178256857D01*
X85367904Y-178494952D01*
X85415523Y-178590190D01*
X85463142Y-178637809D01*
X85558380Y-178685428D01*
X85748857Y-178685428D01*
X85844095Y-178637809D01*
X85891714Y-178590190D01*
X85939333Y-178494952D01*
X86510761Y-178494952D02*
X86415523Y-178447333D01*
X86367904Y-178399714D01*
X86320285Y-178304476D01*
X86320285Y-178256857D01*
X86367904Y-178161619D01*
X86415523Y-178114000D01*
X86510761Y-178066380D01*
X86701238Y-178066380D01*
X86796476Y-178114000D01*
X86844095Y-178161619D01*
X86891714Y-178256857D01*
X86891714Y-178304476D01*
X86844095Y-178399714D01*
X86796476Y-178447333D01*
X86701238Y-178494952D01*
X86510761Y-178494952D01*
X86415523Y-178542571D01*
X86367904Y-178590190D01*
X86320285Y-178685428D01*
X86320285Y-178875904D01*
X86367904Y-178971142D01*
X86415523Y-179018761D01*
X86510761Y-179066380D01*
X86701238Y-179066380D01*
X86796476Y-179018761D01*
X86844095Y-178971142D01*
X86891714Y-178875904D01*
X86891714Y-178685428D01*
X86844095Y-178590190D01*
X86796476Y-178542571D01*
X86701238Y-178494952D01*
X87272666Y-178161619D02*
X87320285Y-178114000D01*
X87415523Y-178066380D01*
X87653619Y-178066380D01*
X87748857Y-178114000D01*
X87796476Y-178161619D01*
X87844095Y-178256857D01*
X87844095Y-178352095D01*
X87796476Y-178494952D01*
X87225047Y-179066380D01*
X87844095Y-179066380D01*
X88225047Y-178161619D02*
X88272666Y-178114000D01*
X88367904Y-178066380D01*
X88606000Y-178066380D01*
X88701238Y-178114000D01*
X88748857Y-178161619D01*
X88796476Y-178256857D01*
X88796476Y-178352095D01*
X88748857Y-178494952D01*
X88177428Y-179066380D01*
X88796476Y-179066380D01*
X84288571Y-177301380D02*
X83812380Y-177301380D01*
X83812380Y-176301380D01*
X84621904Y-176777571D02*
X84955238Y-176777571D01*
X85098095Y-177301380D02*
X84621904Y-177301380D01*
X84621904Y-176301380D01*
X85098095Y-176301380D01*
X85526666Y-177301380D02*
X85526666Y-176301380D01*
X85764761Y-176301380D01*
X85907619Y-176349000D01*
X86002857Y-176444238D01*
X86050476Y-176539476D01*
X86098095Y-176729952D01*
X86098095Y-176872809D01*
X86050476Y-177063285D01*
X86002857Y-177158523D01*
X85907619Y-177253761D01*
X85764761Y-177301380D01*
X85526666Y-177301380D01*
X86431428Y-176301380D02*
X87050476Y-176301380D01*
X86717142Y-176682333D01*
X86860000Y-176682333D01*
X86955238Y-176729952D01*
X87002857Y-176777571D01*
X87050476Y-176872809D01*
X87050476Y-177110904D01*
X87002857Y-177206142D01*
X86955238Y-177253761D01*
X86860000Y-177301380D01*
X86574285Y-177301380D01*
X86479047Y-177253761D01*
X86431428Y-177206142D01*
X87431428Y-176396619D02*
X87479047Y-176349000D01*
X87574285Y-176301380D01*
X87812380Y-176301380D01*
X87907619Y-176349000D01*
X87955238Y-176396619D01*
X88002857Y-176491857D01*
X88002857Y-176587095D01*
X87955238Y-176729952D01*
X87383809Y-177301380D01*
X88002857Y-177301380D01*
X88860000Y-176634714D02*
X88860000Y-177301380D01*
X88621904Y-176253761D02*
X88383809Y-176968047D01*
X89002857Y-176968047D01*
X83669523Y-141426761D02*
X83812380Y-141474380D01*
X84050476Y-141474380D01*
X84145714Y-141426761D01*
X84193333Y-141379142D01*
X84240952Y-141283904D01*
X84240952Y-141188666D01*
X84193333Y-141093428D01*
X84145714Y-141045809D01*
X84050476Y-140998190D01*
X83860000Y-140950571D01*
X83764761Y-140902952D01*
X83717142Y-140855333D01*
X83669523Y-140760095D01*
X83669523Y-140664857D01*
X83717142Y-140569619D01*
X83764761Y-140522000D01*
X83860000Y-140474380D01*
X84098095Y-140474380D01*
X84240952Y-140522000D01*
X84669523Y-141474380D02*
X84669523Y-140474380D01*
X85240952Y-141474380D02*
X84812380Y-140902952D01*
X85240952Y-140474380D02*
X84669523Y-141045809D01*
X85717142Y-141474380D02*
X85907619Y-141474380D01*
X86002857Y-141426761D01*
X86050476Y-141379142D01*
X86145714Y-141236285D01*
X86193333Y-141045809D01*
X86193333Y-140664857D01*
X86145714Y-140569619D01*
X86098095Y-140522000D01*
X86002857Y-140474380D01*
X85812380Y-140474380D01*
X85717142Y-140522000D01*
X85669523Y-140569619D01*
X85621904Y-140664857D01*
X85621904Y-140902952D01*
X85669523Y-140998190D01*
X85717142Y-141045809D01*
X85812380Y-141093428D01*
X86002857Y-141093428D01*
X86098095Y-141045809D01*
X86145714Y-140998190D01*
X86193333Y-140902952D01*
X86764761Y-140902952D02*
X86669523Y-140855333D01*
X86621904Y-140807714D01*
X86574285Y-140712476D01*
X86574285Y-140664857D01*
X86621904Y-140569619D01*
X86669523Y-140522000D01*
X86764761Y-140474380D01*
X86955238Y-140474380D01*
X87050476Y-140522000D01*
X87098095Y-140569619D01*
X87145714Y-140664857D01*
X87145714Y-140712476D01*
X87098095Y-140807714D01*
X87050476Y-140855333D01*
X86955238Y-140902952D01*
X86764761Y-140902952D01*
X86669523Y-140950571D01*
X86621904Y-140998190D01*
X86574285Y-141093428D01*
X86574285Y-141283904D01*
X86621904Y-141379142D01*
X86669523Y-141426761D01*
X86764761Y-141474380D01*
X86955238Y-141474380D01*
X87050476Y-141426761D01*
X87098095Y-141379142D01*
X87145714Y-141283904D01*
X87145714Y-141093428D01*
X87098095Y-140998190D01*
X87050476Y-140950571D01*
X86955238Y-140902952D01*
X87526666Y-140569619D02*
X87574285Y-140522000D01*
X87669523Y-140474380D01*
X87907619Y-140474380D01*
X88002857Y-140522000D01*
X88050476Y-140569619D01*
X88098095Y-140664857D01*
X88098095Y-140760095D01*
X88050476Y-140902952D01*
X87479047Y-141474380D01*
X88098095Y-141474380D01*
X88479047Y-140569619D02*
X88526666Y-140522000D01*
X88621904Y-140474380D01*
X88860000Y-140474380D01*
X88955238Y-140522000D01*
X89002857Y-140569619D01*
X89050476Y-140664857D01*
X89050476Y-140760095D01*
X89002857Y-140902952D01*
X88431428Y-141474380D01*
X89050476Y-141474380D01*
X84288571Y-139709380D02*
X83812380Y-139709380D01*
X83812380Y-138709380D01*
X84621904Y-139185571D02*
X84955238Y-139185571D01*
X85098095Y-139709380D02*
X84621904Y-139709380D01*
X84621904Y-138709380D01*
X85098095Y-138709380D01*
X85526666Y-139709380D02*
X85526666Y-138709380D01*
X85764761Y-138709380D01*
X85907619Y-138757000D01*
X86002857Y-138852238D01*
X86050476Y-138947476D01*
X86098095Y-139137952D01*
X86098095Y-139280809D01*
X86050476Y-139471285D01*
X86002857Y-139566523D01*
X85907619Y-139661761D01*
X85764761Y-139709380D01*
X85526666Y-139709380D01*
X86431428Y-138709380D02*
X87050476Y-138709380D01*
X86717142Y-139090333D01*
X86860000Y-139090333D01*
X86955238Y-139137952D01*
X87002857Y-139185571D01*
X87050476Y-139280809D01*
X87050476Y-139518904D01*
X87002857Y-139614142D01*
X86955238Y-139661761D01*
X86860000Y-139709380D01*
X86574285Y-139709380D01*
X86479047Y-139661761D01*
X86431428Y-139614142D01*
X88002857Y-139709380D02*
X87431428Y-139709380D01*
X87717142Y-139709380D02*
X87717142Y-138709380D01*
X87621904Y-138852238D01*
X87526666Y-138947476D01*
X87431428Y-138995095D01*
X88860000Y-139042714D02*
X88860000Y-139709380D01*
X88621904Y-138661761D02*
X88383809Y-139376047D01*
X89002857Y-139376047D01*
X83669523Y-107390761D02*
X83812380Y-107438380D01*
X84050476Y-107438380D01*
X84145714Y-107390761D01*
X84193333Y-107343142D01*
X84240952Y-107247904D01*
X84240952Y-107152666D01*
X84193333Y-107057428D01*
X84145714Y-107009809D01*
X84050476Y-106962190D01*
X83860000Y-106914571D01*
X83764761Y-106866952D01*
X83717142Y-106819333D01*
X83669523Y-106724095D01*
X83669523Y-106628857D01*
X83717142Y-106533619D01*
X83764761Y-106486000D01*
X83860000Y-106438380D01*
X84098095Y-106438380D01*
X84240952Y-106486000D01*
X84669523Y-107438380D02*
X84669523Y-106438380D01*
X85240952Y-107438380D02*
X84812380Y-106866952D01*
X85240952Y-106438380D02*
X84669523Y-107009809D01*
X85717142Y-107438380D02*
X85907619Y-107438380D01*
X86002857Y-107390761D01*
X86050476Y-107343142D01*
X86145714Y-107200285D01*
X86193333Y-107009809D01*
X86193333Y-106628857D01*
X86145714Y-106533619D01*
X86098095Y-106486000D01*
X86002857Y-106438380D01*
X85812380Y-106438380D01*
X85717142Y-106486000D01*
X85669523Y-106533619D01*
X85621904Y-106628857D01*
X85621904Y-106866952D01*
X85669523Y-106962190D01*
X85717142Y-107009809D01*
X85812380Y-107057428D01*
X86002857Y-107057428D01*
X86098095Y-107009809D01*
X86145714Y-106962190D01*
X86193333Y-106866952D01*
X86764761Y-106866952D02*
X86669523Y-106819333D01*
X86621904Y-106771714D01*
X86574285Y-106676476D01*
X86574285Y-106628857D01*
X86621904Y-106533619D01*
X86669523Y-106486000D01*
X86764761Y-106438380D01*
X86955238Y-106438380D01*
X87050476Y-106486000D01*
X87098095Y-106533619D01*
X87145714Y-106628857D01*
X87145714Y-106676476D01*
X87098095Y-106771714D01*
X87050476Y-106819333D01*
X86955238Y-106866952D01*
X86764761Y-106866952D01*
X86669523Y-106914571D01*
X86621904Y-106962190D01*
X86574285Y-107057428D01*
X86574285Y-107247904D01*
X86621904Y-107343142D01*
X86669523Y-107390761D01*
X86764761Y-107438380D01*
X86955238Y-107438380D01*
X87050476Y-107390761D01*
X87098095Y-107343142D01*
X87145714Y-107247904D01*
X87145714Y-107057428D01*
X87098095Y-106962190D01*
X87050476Y-106914571D01*
X86955238Y-106866952D01*
X87526666Y-106533619D02*
X87574285Y-106486000D01*
X87669523Y-106438380D01*
X87907619Y-106438380D01*
X88002857Y-106486000D01*
X88050476Y-106533619D01*
X88098095Y-106628857D01*
X88098095Y-106724095D01*
X88050476Y-106866952D01*
X87479047Y-107438380D01*
X88098095Y-107438380D01*
X88479047Y-106533619D02*
X88526666Y-106486000D01*
X88621904Y-106438380D01*
X88860000Y-106438380D01*
X88955238Y-106486000D01*
X89002857Y-106533619D01*
X89050476Y-106628857D01*
X89050476Y-106724095D01*
X89002857Y-106866952D01*
X88431428Y-107438380D01*
X89050476Y-107438380D01*
X84288571Y-105673380D02*
X83812380Y-105673380D01*
X83812380Y-104673380D01*
X84621904Y-105149571D02*
X84955238Y-105149571D01*
X85098095Y-105673380D02*
X84621904Y-105673380D01*
X84621904Y-104673380D01*
X85098095Y-104673380D01*
X85526666Y-105673380D02*
X85526666Y-104673380D01*
X85764761Y-104673380D01*
X85907619Y-104721000D01*
X86002857Y-104816238D01*
X86050476Y-104911476D01*
X86098095Y-105101952D01*
X86098095Y-105244809D01*
X86050476Y-105435285D01*
X86002857Y-105530523D01*
X85907619Y-105625761D01*
X85764761Y-105673380D01*
X85526666Y-105673380D01*
X86431428Y-104673380D02*
X87050476Y-104673380D01*
X86717142Y-105054333D01*
X86860000Y-105054333D01*
X86955238Y-105101952D01*
X87002857Y-105149571D01*
X87050476Y-105244809D01*
X87050476Y-105482904D01*
X87002857Y-105578142D01*
X86955238Y-105625761D01*
X86860000Y-105673380D01*
X86574285Y-105673380D01*
X86479047Y-105625761D01*
X86431428Y-105578142D01*
X87669523Y-104673380D02*
X87764761Y-104673380D01*
X87860000Y-104721000D01*
X87907619Y-104768619D01*
X87955238Y-104863857D01*
X88002857Y-105054333D01*
X88002857Y-105292428D01*
X87955238Y-105482904D01*
X87907619Y-105578142D01*
X87860000Y-105625761D01*
X87764761Y-105673380D01*
X87669523Y-105673380D01*
X87574285Y-105625761D01*
X87526666Y-105578142D01*
X87479047Y-105482904D01*
X87431428Y-105292428D01*
X87431428Y-105054333D01*
X87479047Y-104863857D01*
X87526666Y-104768619D01*
X87574285Y-104721000D01*
X87669523Y-104673380D01*
X88907619Y-104673380D02*
X88431428Y-104673380D01*
X88383809Y-105149571D01*
X88431428Y-105101952D01*
X88526666Y-105054333D01*
X88764761Y-105054333D01*
X88860000Y-105101952D01*
X88907619Y-105149571D01*
X88955238Y-105244809D01*
X88955238Y-105482904D01*
X88907619Y-105578142D01*
X88860000Y-105625761D01*
X88764761Y-105673380D01*
X88526666Y-105673380D01*
X88431428Y-105625761D01*
X88383809Y-105578142D01*
X83669523Y-144982761D02*
X83812380Y-145030380D01*
X84050476Y-145030380D01*
X84145714Y-144982761D01*
X84193333Y-144935142D01*
X84240952Y-144839904D01*
X84240952Y-144744666D01*
X84193333Y-144649428D01*
X84145714Y-144601809D01*
X84050476Y-144554190D01*
X83860000Y-144506571D01*
X83764761Y-144458952D01*
X83717142Y-144411333D01*
X83669523Y-144316095D01*
X83669523Y-144220857D01*
X83717142Y-144125619D01*
X83764761Y-144078000D01*
X83860000Y-144030380D01*
X84098095Y-144030380D01*
X84240952Y-144078000D01*
X84669523Y-145030380D02*
X84669523Y-144030380D01*
X85240952Y-145030380D02*
X84812380Y-144458952D01*
X85240952Y-144030380D02*
X84669523Y-144601809D01*
X85717142Y-145030380D02*
X85907619Y-145030380D01*
X86002857Y-144982761D01*
X86050476Y-144935142D01*
X86145714Y-144792285D01*
X86193333Y-144601809D01*
X86193333Y-144220857D01*
X86145714Y-144125619D01*
X86098095Y-144078000D01*
X86002857Y-144030380D01*
X85812380Y-144030380D01*
X85717142Y-144078000D01*
X85669523Y-144125619D01*
X85621904Y-144220857D01*
X85621904Y-144458952D01*
X85669523Y-144554190D01*
X85717142Y-144601809D01*
X85812380Y-144649428D01*
X86002857Y-144649428D01*
X86098095Y-144601809D01*
X86145714Y-144554190D01*
X86193333Y-144458952D01*
X86764761Y-144458952D02*
X86669523Y-144411333D01*
X86621904Y-144363714D01*
X86574285Y-144268476D01*
X86574285Y-144220857D01*
X86621904Y-144125619D01*
X86669523Y-144078000D01*
X86764761Y-144030380D01*
X86955238Y-144030380D01*
X87050476Y-144078000D01*
X87098095Y-144125619D01*
X87145714Y-144220857D01*
X87145714Y-144268476D01*
X87098095Y-144363714D01*
X87050476Y-144411333D01*
X86955238Y-144458952D01*
X86764761Y-144458952D01*
X86669523Y-144506571D01*
X86621904Y-144554190D01*
X86574285Y-144649428D01*
X86574285Y-144839904D01*
X86621904Y-144935142D01*
X86669523Y-144982761D01*
X86764761Y-145030380D01*
X86955238Y-145030380D01*
X87050476Y-144982761D01*
X87098095Y-144935142D01*
X87145714Y-144839904D01*
X87145714Y-144649428D01*
X87098095Y-144554190D01*
X87050476Y-144506571D01*
X86955238Y-144458952D01*
X87526666Y-144125619D02*
X87574285Y-144078000D01*
X87669523Y-144030380D01*
X87907619Y-144030380D01*
X88002857Y-144078000D01*
X88050476Y-144125619D01*
X88098095Y-144220857D01*
X88098095Y-144316095D01*
X88050476Y-144458952D01*
X87479047Y-145030380D01*
X88098095Y-145030380D01*
X88479047Y-144125619D02*
X88526666Y-144078000D01*
X88621904Y-144030380D01*
X88860000Y-144030380D01*
X88955238Y-144078000D01*
X89002857Y-144125619D01*
X89050476Y-144220857D01*
X89050476Y-144316095D01*
X89002857Y-144458952D01*
X88431428Y-145030380D01*
X89050476Y-145030380D01*
X84288571Y-143265380D02*
X83812380Y-143265380D01*
X83812380Y-142265380D01*
X84621904Y-142741571D02*
X84955238Y-142741571D01*
X85098095Y-143265380D02*
X84621904Y-143265380D01*
X84621904Y-142265380D01*
X85098095Y-142265380D01*
X85526666Y-143265380D02*
X85526666Y-142265380D01*
X85764761Y-142265380D01*
X85907619Y-142313000D01*
X86002857Y-142408238D01*
X86050476Y-142503476D01*
X86098095Y-142693952D01*
X86098095Y-142836809D01*
X86050476Y-143027285D01*
X86002857Y-143122523D01*
X85907619Y-143217761D01*
X85764761Y-143265380D01*
X85526666Y-143265380D01*
X86431428Y-142265380D02*
X87050476Y-142265380D01*
X86717142Y-142646333D01*
X86860000Y-142646333D01*
X86955238Y-142693952D01*
X87002857Y-142741571D01*
X87050476Y-142836809D01*
X87050476Y-143074904D01*
X87002857Y-143170142D01*
X86955238Y-143217761D01*
X86860000Y-143265380D01*
X86574285Y-143265380D01*
X86479047Y-143217761D01*
X86431428Y-143170142D01*
X88002857Y-143265380D02*
X87431428Y-143265380D01*
X87717142Y-143265380D02*
X87717142Y-142265380D01*
X87621904Y-142408238D01*
X87526666Y-142503476D01*
X87431428Y-142551095D01*
X88907619Y-142265380D02*
X88431428Y-142265380D01*
X88383809Y-142741571D01*
X88431428Y-142693952D01*
X88526666Y-142646333D01*
X88764761Y-142646333D01*
X88860000Y-142693952D01*
X88907619Y-142741571D01*
X88955238Y-142836809D01*
X88955238Y-143074904D01*
X88907619Y-143170142D01*
X88860000Y-143217761D01*
X88764761Y-143265380D01*
X88526666Y-143265380D01*
X88431428Y-143217761D01*
X88383809Y-143170142D01*
X83669523Y-137616761D02*
X83812380Y-137664380D01*
X84050476Y-137664380D01*
X84145714Y-137616761D01*
X84193333Y-137569142D01*
X84240952Y-137473904D01*
X84240952Y-137378666D01*
X84193333Y-137283428D01*
X84145714Y-137235809D01*
X84050476Y-137188190D01*
X83860000Y-137140571D01*
X83764761Y-137092952D01*
X83717142Y-137045333D01*
X83669523Y-136950095D01*
X83669523Y-136854857D01*
X83717142Y-136759619D01*
X83764761Y-136712000D01*
X83860000Y-136664380D01*
X84098095Y-136664380D01*
X84240952Y-136712000D01*
X84669523Y-137664380D02*
X84669523Y-136664380D01*
X85240952Y-137664380D02*
X84812380Y-137092952D01*
X85240952Y-136664380D02*
X84669523Y-137235809D01*
X85717142Y-137664380D02*
X85907619Y-137664380D01*
X86002857Y-137616761D01*
X86050476Y-137569142D01*
X86145714Y-137426285D01*
X86193333Y-137235809D01*
X86193333Y-136854857D01*
X86145714Y-136759619D01*
X86098095Y-136712000D01*
X86002857Y-136664380D01*
X85812380Y-136664380D01*
X85717142Y-136712000D01*
X85669523Y-136759619D01*
X85621904Y-136854857D01*
X85621904Y-137092952D01*
X85669523Y-137188190D01*
X85717142Y-137235809D01*
X85812380Y-137283428D01*
X86002857Y-137283428D01*
X86098095Y-137235809D01*
X86145714Y-137188190D01*
X86193333Y-137092952D01*
X86764761Y-137092952D02*
X86669523Y-137045333D01*
X86621904Y-136997714D01*
X86574285Y-136902476D01*
X86574285Y-136854857D01*
X86621904Y-136759619D01*
X86669523Y-136712000D01*
X86764761Y-136664380D01*
X86955238Y-136664380D01*
X87050476Y-136712000D01*
X87098095Y-136759619D01*
X87145714Y-136854857D01*
X87145714Y-136902476D01*
X87098095Y-136997714D01*
X87050476Y-137045333D01*
X86955238Y-137092952D01*
X86764761Y-137092952D01*
X86669523Y-137140571D01*
X86621904Y-137188190D01*
X86574285Y-137283428D01*
X86574285Y-137473904D01*
X86621904Y-137569142D01*
X86669523Y-137616761D01*
X86764761Y-137664380D01*
X86955238Y-137664380D01*
X87050476Y-137616761D01*
X87098095Y-137569142D01*
X87145714Y-137473904D01*
X87145714Y-137283428D01*
X87098095Y-137188190D01*
X87050476Y-137140571D01*
X86955238Y-137092952D01*
X87526666Y-136759619D02*
X87574285Y-136712000D01*
X87669523Y-136664380D01*
X87907619Y-136664380D01*
X88002857Y-136712000D01*
X88050476Y-136759619D01*
X88098095Y-136854857D01*
X88098095Y-136950095D01*
X88050476Y-137092952D01*
X87479047Y-137664380D01*
X88098095Y-137664380D01*
X88479047Y-136759619D02*
X88526666Y-136712000D01*
X88621904Y-136664380D01*
X88860000Y-136664380D01*
X88955238Y-136712000D01*
X89002857Y-136759619D01*
X89050476Y-136854857D01*
X89050476Y-136950095D01*
X89002857Y-137092952D01*
X88431428Y-137664380D01*
X89050476Y-137664380D01*
X84288571Y-135899380D02*
X83812380Y-135899380D01*
X83812380Y-134899380D01*
X84621904Y-135375571D02*
X84955238Y-135375571D01*
X85098095Y-135899380D02*
X84621904Y-135899380D01*
X84621904Y-134899380D01*
X85098095Y-134899380D01*
X85526666Y-135899380D02*
X85526666Y-134899380D01*
X85764761Y-134899380D01*
X85907619Y-134947000D01*
X86002857Y-135042238D01*
X86050476Y-135137476D01*
X86098095Y-135327952D01*
X86098095Y-135470809D01*
X86050476Y-135661285D01*
X86002857Y-135756523D01*
X85907619Y-135851761D01*
X85764761Y-135899380D01*
X85526666Y-135899380D01*
X86431428Y-134899380D02*
X87050476Y-134899380D01*
X86717142Y-135280333D01*
X86860000Y-135280333D01*
X86955238Y-135327952D01*
X87002857Y-135375571D01*
X87050476Y-135470809D01*
X87050476Y-135708904D01*
X87002857Y-135804142D01*
X86955238Y-135851761D01*
X86860000Y-135899380D01*
X86574285Y-135899380D01*
X86479047Y-135851761D01*
X86431428Y-135804142D01*
X88002857Y-135899380D02*
X87431428Y-135899380D01*
X87717142Y-135899380D02*
X87717142Y-134899380D01*
X87621904Y-135042238D01*
X87526666Y-135137476D01*
X87431428Y-135185095D01*
X88336190Y-134899380D02*
X88955238Y-134899380D01*
X88621904Y-135280333D01*
X88764761Y-135280333D01*
X88860000Y-135327952D01*
X88907619Y-135375571D01*
X88955238Y-135470809D01*
X88955238Y-135708904D01*
X88907619Y-135804142D01*
X88860000Y-135851761D01*
X88764761Y-135899380D01*
X88479047Y-135899380D01*
X88383809Y-135851761D01*
X88336190Y-135804142D01*
X83669523Y-126186761D02*
X83812380Y-126234380D01*
X84050476Y-126234380D01*
X84145714Y-126186761D01*
X84193333Y-126139142D01*
X84240952Y-126043904D01*
X84240952Y-125948666D01*
X84193333Y-125853428D01*
X84145714Y-125805809D01*
X84050476Y-125758190D01*
X83860000Y-125710571D01*
X83764761Y-125662952D01*
X83717142Y-125615333D01*
X83669523Y-125520095D01*
X83669523Y-125424857D01*
X83717142Y-125329619D01*
X83764761Y-125282000D01*
X83860000Y-125234380D01*
X84098095Y-125234380D01*
X84240952Y-125282000D01*
X84669523Y-126234380D02*
X84669523Y-125234380D01*
X85240952Y-126234380D02*
X84812380Y-125662952D01*
X85240952Y-125234380D02*
X84669523Y-125805809D01*
X85717142Y-126234380D02*
X85907619Y-126234380D01*
X86002857Y-126186761D01*
X86050476Y-126139142D01*
X86145714Y-125996285D01*
X86193333Y-125805809D01*
X86193333Y-125424857D01*
X86145714Y-125329619D01*
X86098095Y-125282000D01*
X86002857Y-125234380D01*
X85812380Y-125234380D01*
X85717142Y-125282000D01*
X85669523Y-125329619D01*
X85621904Y-125424857D01*
X85621904Y-125662952D01*
X85669523Y-125758190D01*
X85717142Y-125805809D01*
X85812380Y-125853428D01*
X86002857Y-125853428D01*
X86098095Y-125805809D01*
X86145714Y-125758190D01*
X86193333Y-125662952D01*
X86764761Y-125662952D02*
X86669523Y-125615333D01*
X86621904Y-125567714D01*
X86574285Y-125472476D01*
X86574285Y-125424857D01*
X86621904Y-125329619D01*
X86669523Y-125282000D01*
X86764761Y-125234380D01*
X86955238Y-125234380D01*
X87050476Y-125282000D01*
X87098095Y-125329619D01*
X87145714Y-125424857D01*
X87145714Y-125472476D01*
X87098095Y-125567714D01*
X87050476Y-125615333D01*
X86955238Y-125662952D01*
X86764761Y-125662952D01*
X86669523Y-125710571D01*
X86621904Y-125758190D01*
X86574285Y-125853428D01*
X86574285Y-126043904D01*
X86621904Y-126139142D01*
X86669523Y-126186761D01*
X86764761Y-126234380D01*
X86955238Y-126234380D01*
X87050476Y-126186761D01*
X87098095Y-126139142D01*
X87145714Y-126043904D01*
X87145714Y-125853428D01*
X87098095Y-125758190D01*
X87050476Y-125710571D01*
X86955238Y-125662952D01*
X87526666Y-125329619D02*
X87574285Y-125282000D01*
X87669523Y-125234380D01*
X87907619Y-125234380D01*
X88002857Y-125282000D01*
X88050476Y-125329619D01*
X88098095Y-125424857D01*
X88098095Y-125520095D01*
X88050476Y-125662952D01*
X87479047Y-126234380D01*
X88098095Y-126234380D01*
X88479047Y-125329619D02*
X88526666Y-125282000D01*
X88621904Y-125234380D01*
X88860000Y-125234380D01*
X88955238Y-125282000D01*
X89002857Y-125329619D01*
X89050476Y-125424857D01*
X89050476Y-125520095D01*
X89002857Y-125662952D01*
X88431428Y-126234380D01*
X89050476Y-126234380D01*
X84288571Y-124469380D02*
X83812380Y-124469380D01*
X83812380Y-123469380D01*
X84621904Y-123945571D02*
X84955238Y-123945571D01*
X85098095Y-124469380D02*
X84621904Y-124469380D01*
X84621904Y-123469380D01*
X85098095Y-123469380D01*
X85526666Y-124469380D02*
X85526666Y-123469380D01*
X85764761Y-123469380D01*
X85907619Y-123517000D01*
X86002857Y-123612238D01*
X86050476Y-123707476D01*
X86098095Y-123897952D01*
X86098095Y-124040809D01*
X86050476Y-124231285D01*
X86002857Y-124326523D01*
X85907619Y-124421761D01*
X85764761Y-124469380D01*
X85526666Y-124469380D01*
X86431428Y-123469380D02*
X87050476Y-123469380D01*
X86717142Y-123850333D01*
X86860000Y-123850333D01*
X86955238Y-123897952D01*
X87002857Y-123945571D01*
X87050476Y-124040809D01*
X87050476Y-124278904D01*
X87002857Y-124374142D01*
X86955238Y-124421761D01*
X86860000Y-124469380D01*
X86574285Y-124469380D01*
X86479047Y-124421761D01*
X86431428Y-124374142D01*
X88002857Y-124469380D02*
X87431428Y-124469380D01*
X87717142Y-124469380D02*
X87717142Y-123469380D01*
X87621904Y-123612238D01*
X87526666Y-123707476D01*
X87431428Y-123755095D01*
X88621904Y-123469380D02*
X88717142Y-123469380D01*
X88812380Y-123517000D01*
X88860000Y-123564619D01*
X88907619Y-123659857D01*
X88955238Y-123850333D01*
X88955238Y-124088428D01*
X88907619Y-124278904D01*
X88860000Y-124374142D01*
X88812380Y-124421761D01*
X88717142Y-124469380D01*
X88621904Y-124469380D01*
X88526666Y-124421761D01*
X88479047Y-124374142D01*
X88431428Y-124278904D01*
X88383809Y-124088428D01*
X88383809Y-123850333D01*
X88431428Y-123659857D01*
X88479047Y-123564619D01*
X88526666Y-123517000D01*
X88621904Y-123469380D01*
X83669523Y-118820761D02*
X83812380Y-118868380D01*
X84050476Y-118868380D01*
X84145714Y-118820761D01*
X84193333Y-118773142D01*
X84240952Y-118677904D01*
X84240952Y-118582666D01*
X84193333Y-118487428D01*
X84145714Y-118439809D01*
X84050476Y-118392190D01*
X83860000Y-118344571D01*
X83764761Y-118296952D01*
X83717142Y-118249333D01*
X83669523Y-118154095D01*
X83669523Y-118058857D01*
X83717142Y-117963619D01*
X83764761Y-117916000D01*
X83860000Y-117868380D01*
X84098095Y-117868380D01*
X84240952Y-117916000D01*
X84669523Y-118868380D02*
X84669523Y-117868380D01*
X85240952Y-118868380D02*
X84812380Y-118296952D01*
X85240952Y-117868380D02*
X84669523Y-118439809D01*
X85717142Y-118868380D02*
X85907619Y-118868380D01*
X86002857Y-118820761D01*
X86050476Y-118773142D01*
X86145714Y-118630285D01*
X86193333Y-118439809D01*
X86193333Y-118058857D01*
X86145714Y-117963619D01*
X86098095Y-117916000D01*
X86002857Y-117868380D01*
X85812380Y-117868380D01*
X85717142Y-117916000D01*
X85669523Y-117963619D01*
X85621904Y-118058857D01*
X85621904Y-118296952D01*
X85669523Y-118392190D01*
X85717142Y-118439809D01*
X85812380Y-118487428D01*
X86002857Y-118487428D01*
X86098095Y-118439809D01*
X86145714Y-118392190D01*
X86193333Y-118296952D01*
X86764761Y-118296952D02*
X86669523Y-118249333D01*
X86621904Y-118201714D01*
X86574285Y-118106476D01*
X86574285Y-118058857D01*
X86621904Y-117963619D01*
X86669523Y-117916000D01*
X86764761Y-117868380D01*
X86955238Y-117868380D01*
X87050476Y-117916000D01*
X87098095Y-117963619D01*
X87145714Y-118058857D01*
X87145714Y-118106476D01*
X87098095Y-118201714D01*
X87050476Y-118249333D01*
X86955238Y-118296952D01*
X86764761Y-118296952D01*
X86669523Y-118344571D01*
X86621904Y-118392190D01*
X86574285Y-118487428D01*
X86574285Y-118677904D01*
X86621904Y-118773142D01*
X86669523Y-118820761D01*
X86764761Y-118868380D01*
X86955238Y-118868380D01*
X87050476Y-118820761D01*
X87098095Y-118773142D01*
X87145714Y-118677904D01*
X87145714Y-118487428D01*
X87098095Y-118392190D01*
X87050476Y-118344571D01*
X86955238Y-118296952D01*
X87526666Y-117963619D02*
X87574285Y-117916000D01*
X87669523Y-117868380D01*
X87907619Y-117868380D01*
X88002857Y-117916000D01*
X88050476Y-117963619D01*
X88098095Y-118058857D01*
X88098095Y-118154095D01*
X88050476Y-118296952D01*
X87479047Y-118868380D01*
X88098095Y-118868380D01*
X88479047Y-117963619D02*
X88526666Y-117916000D01*
X88621904Y-117868380D01*
X88860000Y-117868380D01*
X88955238Y-117916000D01*
X89002857Y-117963619D01*
X89050476Y-118058857D01*
X89050476Y-118154095D01*
X89002857Y-118296952D01*
X88431428Y-118868380D01*
X89050476Y-118868380D01*
X84288571Y-117103380D02*
X83812380Y-117103380D01*
X83812380Y-116103380D01*
X84621904Y-116579571D02*
X84955238Y-116579571D01*
X85098095Y-117103380D02*
X84621904Y-117103380D01*
X84621904Y-116103380D01*
X85098095Y-116103380D01*
X85526666Y-117103380D02*
X85526666Y-116103380D01*
X85764761Y-116103380D01*
X85907619Y-116151000D01*
X86002857Y-116246238D01*
X86050476Y-116341476D01*
X86098095Y-116531952D01*
X86098095Y-116674809D01*
X86050476Y-116865285D01*
X86002857Y-116960523D01*
X85907619Y-117055761D01*
X85764761Y-117103380D01*
X85526666Y-117103380D01*
X86431428Y-116103380D02*
X87050476Y-116103380D01*
X86717142Y-116484333D01*
X86860000Y-116484333D01*
X86955238Y-116531952D01*
X87002857Y-116579571D01*
X87050476Y-116674809D01*
X87050476Y-116912904D01*
X87002857Y-117008142D01*
X86955238Y-117055761D01*
X86860000Y-117103380D01*
X86574285Y-117103380D01*
X86479047Y-117055761D01*
X86431428Y-117008142D01*
X87669523Y-116103380D02*
X87764761Y-116103380D01*
X87860000Y-116151000D01*
X87907619Y-116198619D01*
X87955238Y-116293857D01*
X88002857Y-116484333D01*
X88002857Y-116722428D01*
X87955238Y-116912904D01*
X87907619Y-117008142D01*
X87860000Y-117055761D01*
X87764761Y-117103380D01*
X87669523Y-117103380D01*
X87574285Y-117055761D01*
X87526666Y-117008142D01*
X87479047Y-116912904D01*
X87431428Y-116722428D01*
X87431428Y-116484333D01*
X87479047Y-116293857D01*
X87526666Y-116198619D01*
X87574285Y-116151000D01*
X87669523Y-116103380D01*
X88574285Y-116531952D02*
X88479047Y-116484333D01*
X88431428Y-116436714D01*
X88383809Y-116341476D01*
X88383809Y-116293857D01*
X88431428Y-116198619D01*
X88479047Y-116151000D01*
X88574285Y-116103380D01*
X88764761Y-116103380D01*
X88860000Y-116151000D01*
X88907619Y-116198619D01*
X88955238Y-116293857D01*
X88955238Y-116341476D01*
X88907619Y-116436714D01*
X88860000Y-116484333D01*
X88764761Y-116531952D01*
X88574285Y-116531952D01*
X88479047Y-116579571D01*
X88431428Y-116627190D01*
X88383809Y-116722428D01*
X88383809Y-116912904D01*
X88431428Y-117008142D01*
X88479047Y-117055761D01*
X88574285Y-117103380D01*
X88764761Y-117103380D01*
X88860000Y-117055761D01*
X88907619Y-117008142D01*
X88955238Y-116912904D01*
X88955238Y-116722428D01*
X88907619Y-116627190D01*
X88860000Y-116579571D01*
X88764761Y-116531952D01*
X83669523Y-103834761D02*
X83812380Y-103882380D01*
X84050476Y-103882380D01*
X84145714Y-103834761D01*
X84193333Y-103787142D01*
X84240952Y-103691904D01*
X84240952Y-103596666D01*
X84193333Y-103501428D01*
X84145714Y-103453809D01*
X84050476Y-103406190D01*
X83860000Y-103358571D01*
X83764761Y-103310952D01*
X83717142Y-103263333D01*
X83669523Y-103168095D01*
X83669523Y-103072857D01*
X83717142Y-102977619D01*
X83764761Y-102930000D01*
X83860000Y-102882380D01*
X84098095Y-102882380D01*
X84240952Y-102930000D01*
X84669523Y-103882380D02*
X84669523Y-102882380D01*
X85240952Y-103882380D02*
X84812380Y-103310952D01*
X85240952Y-102882380D02*
X84669523Y-103453809D01*
X85717142Y-103882380D02*
X85907619Y-103882380D01*
X86002857Y-103834761D01*
X86050476Y-103787142D01*
X86145714Y-103644285D01*
X86193333Y-103453809D01*
X86193333Y-103072857D01*
X86145714Y-102977619D01*
X86098095Y-102930000D01*
X86002857Y-102882380D01*
X85812380Y-102882380D01*
X85717142Y-102930000D01*
X85669523Y-102977619D01*
X85621904Y-103072857D01*
X85621904Y-103310952D01*
X85669523Y-103406190D01*
X85717142Y-103453809D01*
X85812380Y-103501428D01*
X86002857Y-103501428D01*
X86098095Y-103453809D01*
X86145714Y-103406190D01*
X86193333Y-103310952D01*
X86764761Y-103310952D02*
X86669523Y-103263333D01*
X86621904Y-103215714D01*
X86574285Y-103120476D01*
X86574285Y-103072857D01*
X86621904Y-102977619D01*
X86669523Y-102930000D01*
X86764761Y-102882380D01*
X86955238Y-102882380D01*
X87050476Y-102930000D01*
X87098095Y-102977619D01*
X87145714Y-103072857D01*
X87145714Y-103120476D01*
X87098095Y-103215714D01*
X87050476Y-103263333D01*
X86955238Y-103310952D01*
X86764761Y-103310952D01*
X86669523Y-103358571D01*
X86621904Y-103406190D01*
X86574285Y-103501428D01*
X86574285Y-103691904D01*
X86621904Y-103787142D01*
X86669523Y-103834761D01*
X86764761Y-103882380D01*
X86955238Y-103882380D01*
X87050476Y-103834761D01*
X87098095Y-103787142D01*
X87145714Y-103691904D01*
X87145714Y-103501428D01*
X87098095Y-103406190D01*
X87050476Y-103358571D01*
X86955238Y-103310952D01*
X87526666Y-102977619D02*
X87574285Y-102930000D01*
X87669523Y-102882380D01*
X87907619Y-102882380D01*
X88002857Y-102930000D01*
X88050476Y-102977619D01*
X88098095Y-103072857D01*
X88098095Y-103168095D01*
X88050476Y-103310952D01*
X87479047Y-103882380D01*
X88098095Y-103882380D01*
X88479047Y-102977619D02*
X88526666Y-102930000D01*
X88621904Y-102882380D01*
X88860000Y-102882380D01*
X88955238Y-102930000D01*
X89002857Y-102977619D01*
X89050476Y-103072857D01*
X89050476Y-103168095D01*
X89002857Y-103310952D01*
X88431428Y-103882380D01*
X89050476Y-103882380D01*
X84288571Y-102117380D02*
X83812380Y-102117380D01*
X83812380Y-101117380D01*
X84621904Y-101593571D02*
X84955238Y-101593571D01*
X85098095Y-102117380D02*
X84621904Y-102117380D01*
X84621904Y-101117380D01*
X85098095Y-101117380D01*
X85526666Y-102117380D02*
X85526666Y-101117380D01*
X85764761Y-101117380D01*
X85907619Y-101165000D01*
X86002857Y-101260238D01*
X86050476Y-101355476D01*
X86098095Y-101545952D01*
X86098095Y-101688809D01*
X86050476Y-101879285D01*
X86002857Y-101974523D01*
X85907619Y-102069761D01*
X85764761Y-102117380D01*
X85526666Y-102117380D01*
X86431428Y-101117380D02*
X87050476Y-101117380D01*
X86717142Y-101498333D01*
X86860000Y-101498333D01*
X86955238Y-101545952D01*
X87002857Y-101593571D01*
X87050476Y-101688809D01*
X87050476Y-101926904D01*
X87002857Y-102022142D01*
X86955238Y-102069761D01*
X86860000Y-102117380D01*
X86574285Y-102117380D01*
X86479047Y-102069761D01*
X86431428Y-102022142D01*
X87669523Y-101117380D02*
X87764761Y-101117380D01*
X87860000Y-101165000D01*
X87907619Y-101212619D01*
X87955238Y-101307857D01*
X88002857Y-101498333D01*
X88002857Y-101736428D01*
X87955238Y-101926904D01*
X87907619Y-102022142D01*
X87860000Y-102069761D01*
X87764761Y-102117380D01*
X87669523Y-102117380D01*
X87574285Y-102069761D01*
X87526666Y-102022142D01*
X87479047Y-101926904D01*
X87431428Y-101736428D01*
X87431428Y-101498333D01*
X87479047Y-101307857D01*
X87526666Y-101212619D01*
X87574285Y-101165000D01*
X87669523Y-101117380D01*
X88860000Y-101450714D02*
X88860000Y-102117380D01*
X88621904Y-101069761D02*
X88383809Y-101784047D01*
X89002857Y-101784047D01*
X83669523Y-115010761D02*
X83812380Y-115058380D01*
X84050476Y-115058380D01*
X84145714Y-115010761D01*
X84193333Y-114963142D01*
X84240952Y-114867904D01*
X84240952Y-114772666D01*
X84193333Y-114677428D01*
X84145714Y-114629809D01*
X84050476Y-114582190D01*
X83860000Y-114534571D01*
X83764761Y-114486952D01*
X83717142Y-114439333D01*
X83669523Y-114344095D01*
X83669523Y-114248857D01*
X83717142Y-114153619D01*
X83764761Y-114106000D01*
X83860000Y-114058380D01*
X84098095Y-114058380D01*
X84240952Y-114106000D01*
X84669523Y-115058380D02*
X84669523Y-114058380D01*
X85240952Y-115058380D02*
X84812380Y-114486952D01*
X85240952Y-114058380D02*
X84669523Y-114629809D01*
X85717142Y-115058380D02*
X85907619Y-115058380D01*
X86002857Y-115010761D01*
X86050476Y-114963142D01*
X86145714Y-114820285D01*
X86193333Y-114629809D01*
X86193333Y-114248857D01*
X86145714Y-114153619D01*
X86098095Y-114106000D01*
X86002857Y-114058380D01*
X85812380Y-114058380D01*
X85717142Y-114106000D01*
X85669523Y-114153619D01*
X85621904Y-114248857D01*
X85621904Y-114486952D01*
X85669523Y-114582190D01*
X85717142Y-114629809D01*
X85812380Y-114677428D01*
X86002857Y-114677428D01*
X86098095Y-114629809D01*
X86145714Y-114582190D01*
X86193333Y-114486952D01*
X86764761Y-114486952D02*
X86669523Y-114439333D01*
X86621904Y-114391714D01*
X86574285Y-114296476D01*
X86574285Y-114248857D01*
X86621904Y-114153619D01*
X86669523Y-114106000D01*
X86764761Y-114058380D01*
X86955238Y-114058380D01*
X87050476Y-114106000D01*
X87098095Y-114153619D01*
X87145714Y-114248857D01*
X87145714Y-114296476D01*
X87098095Y-114391714D01*
X87050476Y-114439333D01*
X86955238Y-114486952D01*
X86764761Y-114486952D01*
X86669523Y-114534571D01*
X86621904Y-114582190D01*
X86574285Y-114677428D01*
X86574285Y-114867904D01*
X86621904Y-114963142D01*
X86669523Y-115010761D01*
X86764761Y-115058380D01*
X86955238Y-115058380D01*
X87050476Y-115010761D01*
X87098095Y-114963142D01*
X87145714Y-114867904D01*
X87145714Y-114677428D01*
X87098095Y-114582190D01*
X87050476Y-114534571D01*
X86955238Y-114486952D01*
X87526666Y-114153619D02*
X87574285Y-114106000D01*
X87669523Y-114058380D01*
X87907619Y-114058380D01*
X88002857Y-114106000D01*
X88050476Y-114153619D01*
X88098095Y-114248857D01*
X88098095Y-114344095D01*
X88050476Y-114486952D01*
X87479047Y-115058380D01*
X88098095Y-115058380D01*
X88479047Y-114153619D02*
X88526666Y-114106000D01*
X88621904Y-114058380D01*
X88860000Y-114058380D01*
X88955238Y-114106000D01*
X89002857Y-114153619D01*
X89050476Y-114248857D01*
X89050476Y-114344095D01*
X89002857Y-114486952D01*
X88431428Y-115058380D01*
X89050476Y-115058380D01*
X84288571Y-113293380D02*
X83812380Y-113293380D01*
X83812380Y-112293380D01*
X84621904Y-112769571D02*
X84955238Y-112769571D01*
X85098095Y-113293380D02*
X84621904Y-113293380D01*
X84621904Y-112293380D01*
X85098095Y-112293380D01*
X85526666Y-113293380D02*
X85526666Y-112293380D01*
X85764761Y-112293380D01*
X85907619Y-112341000D01*
X86002857Y-112436238D01*
X86050476Y-112531476D01*
X86098095Y-112721952D01*
X86098095Y-112864809D01*
X86050476Y-113055285D01*
X86002857Y-113150523D01*
X85907619Y-113245761D01*
X85764761Y-113293380D01*
X85526666Y-113293380D01*
X86431428Y-112293380D02*
X87050476Y-112293380D01*
X86717142Y-112674333D01*
X86860000Y-112674333D01*
X86955238Y-112721952D01*
X87002857Y-112769571D01*
X87050476Y-112864809D01*
X87050476Y-113102904D01*
X87002857Y-113198142D01*
X86955238Y-113245761D01*
X86860000Y-113293380D01*
X86574285Y-113293380D01*
X86479047Y-113245761D01*
X86431428Y-113198142D01*
X87669523Y-112293380D02*
X87764761Y-112293380D01*
X87860000Y-112341000D01*
X87907619Y-112388619D01*
X87955238Y-112483857D01*
X88002857Y-112674333D01*
X88002857Y-112912428D01*
X87955238Y-113102904D01*
X87907619Y-113198142D01*
X87860000Y-113245761D01*
X87764761Y-113293380D01*
X87669523Y-113293380D01*
X87574285Y-113245761D01*
X87526666Y-113198142D01*
X87479047Y-113102904D01*
X87431428Y-112912428D01*
X87431428Y-112674333D01*
X87479047Y-112483857D01*
X87526666Y-112388619D01*
X87574285Y-112341000D01*
X87669523Y-112293380D01*
X88336190Y-112293380D02*
X89002857Y-112293380D01*
X88574285Y-113293380D01*
X96575619Y-68931404D02*
X96575619Y-68359976D01*
X96575619Y-68645690D02*
X97575619Y-68645690D01*
X97432761Y-68550452D01*
X97337523Y-68455214D01*
X97289904Y-68359976D01*
X96575619Y-69359976D02*
X97575619Y-69359976D01*
X96956571Y-69455214D02*
X96575619Y-69740928D01*
X97242285Y-69740928D02*
X96861333Y-69359976D01*
X97575619Y-71121880D02*
X97575619Y-71217119D01*
X97528000Y-71312357D01*
X97480380Y-71359976D01*
X97385142Y-71407595D01*
X97194666Y-71455214D01*
X96956571Y-71455214D01*
X96766095Y-71407595D01*
X96670857Y-71359976D01*
X96623238Y-71312357D01*
X96575619Y-71217119D01*
X96575619Y-71121880D01*
X96623238Y-71026642D01*
X96670857Y-70979023D01*
X96766095Y-70931404D01*
X96956571Y-70883785D01*
X97194666Y-70883785D01*
X97385142Y-70931404D01*
X97480380Y-70979023D01*
X97528000Y-71026642D01*
X97575619Y-71121880D01*
X97480380Y-71836166D02*
X97528000Y-71883785D01*
X97575619Y-71979023D01*
X97575619Y-72217119D01*
X97528000Y-72312357D01*
X97480380Y-72359976D01*
X97385142Y-72407595D01*
X97289904Y-72407595D01*
X97147047Y-72359976D01*
X96575619Y-71788547D01*
X96575619Y-72407595D01*
X97575619Y-73026642D02*
X97575619Y-73121880D01*
X97528000Y-73217119D01*
X97480380Y-73264738D01*
X97385142Y-73312357D01*
X97194666Y-73359976D01*
X96956571Y-73359976D01*
X96766095Y-73312357D01*
X96670857Y-73264738D01*
X96623238Y-73217119D01*
X96575619Y-73121880D01*
X96575619Y-73026642D01*
X96623238Y-72931404D01*
X96670857Y-72883785D01*
X96766095Y-72836166D01*
X96956571Y-72788547D01*
X97194666Y-72788547D01*
X97385142Y-72836166D01*
X97480380Y-72883785D01*
X97528000Y-72931404D01*
X97575619Y-73026642D01*
X96575619Y-74312357D02*
X96575619Y-73740928D01*
X96575619Y-74026642D02*
X97575619Y-74026642D01*
X97432761Y-73931404D01*
X97337523Y-73836166D01*
X97289904Y-73740928D01*
X95051619Y-68979023D02*
X95527809Y-68645690D01*
X95051619Y-68407595D02*
X96051619Y-68407595D01*
X96051619Y-68788547D01*
X96004000Y-68883785D01*
X95956380Y-68931404D01*
X95861142Y-68979023D01*
X95718285Y-68979023D01*
X95623047Y-68931404D01*
X95575428Y-68883785D01*
X95527809Y-68788547D01*
X95527809Y-68407595D01*
X95956380Y-69359976D02*
X96004000Y-69407595D01*
X96051619Y-69502833D01*
X96051619Y-69740928D01*
X96004000Y-69836166D01*
X95956380Y-69883785D01*
X95861142Y-69931404D01*
X95765904Y-69931404D01*
X95623047Y-69883785D01*
X95051619Y-69312357D01*
X95051619Y-69931404D01*
X95051619Y-70883785D02*
X95051619Y-70312357D01*
X95051619Y-70598071D02*
X96051619Y-70598071D01*
X95908761Y-70502833D01*
X95813523Y-70407595D01*
X95765904Y-70312357D01*
X96051619Y-71502833D02*
X96051619Y-71598071D01*
X96004000Y-71693309D01*
X95956380Y-71740928D01*
X95861142Y-71788547D01*
X95670666Y-71836166D01*
X95432571Y-71836166D01*
X95242095Y-71788547D01*
X95146857Y-71740928D01*
X95099238Y-71693309D01*
X95051619Y-71598071D01*
X95051619Y-71502833D01*
X95099238Y-71407595D01*
X95146857Y-71359976D01*
X95242095Y-71312357D01*
X95432571Y-71264738D01*
X95670666Y-71264738D01*
X95861142Y-71312357D01*
X95956380Y-71359976D01*
X96004000Y-71407595D01*
X96051619Y-71502833D01*
X91885333Y-57110380D02*
X92123428Y-58110380D01*
X92313904Y-57396095D01*
X92504380Y-58110380D01*
X92742476Y-57110380D01*
X93075809Y-57205619D02*
X93123428Y-57158000D01*
X93218666Y-57110380D01*
X93456761Y-57110380D01*
X93552000Y-57158000D01*
X93599619Y-57205619D01*
X93647238Y-57300857D01*
X93647238Y-57396095D01*
X93599619Y-57538952D01*
X93028190Y-58110380D01*
X93647238Y-58110380D01*
X94552000Y-57110380D02*
X94075809Y-57110380D01*
X94028190Y-57586571D01*
X94075809Y-57538952D01*
X94171047Y-57491333D01*
X94409142Y-57491333D01*
X94504380Y-57538952D01*
X94552000Y-57586571D01*
X94599619Y-57681809D01*
X94599619Y-57919904D01*
X94552000Y-58015142D01*
X94504380Y-58062761D01*
X94409142Y-58110380D01*
X94171047Y-58110380D01*
X94075809Y-58062761D01*
X94028190Y-58015142D01*
X95694857Y-58205619D02*
X95599619Y-58158000D01*
X95504380Y-58062761D01*
X95361523Y-57919904D01*
X95266285Y-57872285D01*
X95171047Y-57872285D01*
X95218666Y-58110380D02*
X95123428Y-58062761D01*
X95028190Y-57967523D01*
X94980571Y-57777047D01*
X94980571Y-57443714D01*
X95028190Y-57253238D01*
X95123428Y-57158000D01*
X95218666Y-57110380D01*
X95409142Y-57110380D01*
X95504380Y-57158000D01*
X95599619Y-57253238D01*
X95647238Y-57443714D01*
X95647238Y-57777047D01*
X95599619Y-57967523D01*
X95504380Y-58062761D01*
X95409142Y-58110380D01*
X95218666Y-58110380D01*
X96599619Y-58110380D02*
X96028190Y-58110380D01*
X96313904Y-58110380D02*
X96313904Y-57110380D01*
X96218666Y-57253238D01*
X96123428Y-57348476D01*
X96028190Y-57396095D01*
X96980571Y-57205619D02*
X97028190Y-57158000D01*
X97123428Y-57110380D01*
X97361523Y-57110380D01*
X97456761Y-57158000D01*
X97504380Y-57205619D01*
X97552000Y-57300857D01*
X97552000Y-57396095D01*
X97504380Y-57538952D01*
X96932952Y-58110380D01*
X97552000Y-58110380D01*
X98123428Y-57538952D02*
X98028190Y-57491333D01*
X97980571Y-57443714D01*
X97932952Y-57348476D01*
X97932952Y-57300857D01*
X97980571Y-57205619D01*
X98028190Y-57158000D01*
X98123428Y-57110380D01*
X98313904Y-57110380D01*
X98409142Y-57158000D01*
X98456761Y-57205619D01*
X98504380Y-57300857D01*
X98504380Y-57348476D01*
X98456761Y-57443714D01*
X98409142Y-57491333D01*
X98313904Y-57538952D01*
X98123428Y-57538952D01*
X98028190Y-57586571D01*
X97980571Y-57634190D01*
X97932952Y-57729428D01*
X97932952Y-57919904D01*
X97980571Y-58015142D01*
X98028190Y-58062761D01*
X98123428Y-58110380D01*
X98313904Y-58110380D01*
X98409142Y-58062761D01*
X98456761Y-58015142D01*
X98504380Y-57919904D01*
X98504380Y-57729428D01*
X98456761Y-57634190D01*
X98409142Y-57586571D01*
X98313904Y-57538952D01*
X99218666Y-57110380D02*
X99218666Y-57824666D01*
X99171047Y-57967523D01*
X99075809Y-58062761D01*
X98932952Y-58110380D01*
X98837714Y-58110380D01*
X99552000Y-57110380D02*
X99885333Y-58110380D01*
X100218666Y-57110380D01*
X100552000Y-58110380D02*
X100552000Y-57110380D01*
X100932952Y-57110380D01*
X101028190Y-57158000D01*
X101075809Y-57205619D01*
X101123428Y-57300857D01*
X101123428Y-57443714D01*
X101075809Y-57538952D01*
X101028190Y-57586571D01*
X100932952Y-57634190D01*
X100552000Y-57634190D01*
X101552000Y-58110380D02*
X101552000Y-57110380D01*
X102694857Y-58205619D02*
X102599619Y-58158000D01*
X102504380Y-58062761D01*
X102361523Y-57919904D01*
X102266285Y-57872285D01*
X102171047Y-57872285D01*
X102218666Y-58110380D02*
X102123428Y-58062761D01*
X102028190Y-57967523D01*
X101980571Y-57777047D01*
X101980571Y-57443714D01*
X102028190Y-57253238D01*
X102123428Y-57158000D01*
X102218666Y-57110380D01*
X102409142Y-57110380D01*
X102504380Y-57158000D01*
X102599619Y-57253238D01*
X102647238Y-57443714D01*
X102647238Y-57777047D01*
X102599619Y-57967523D01*
X102504380Y-58062761D01*
X102409142Y-58110380D01*
X102218666Y-58110380D01*
X103694857Y-57110380D02*
X104266285Y-57110380D01*
X103980571Y-58110380D02*
X103980571Y-57110380D01*
X105171047Y-58110380D02*
X104837714Y-57634190D01*
X104599619Y-58110380D02*
X104599619Y-57110380D01*
X104980571Y-57110380D01*
X105075809Y-57158000D01*
X105123428Y-57205619D01*
X105171047Y-57300857D01*
X105171047Y-57443714D01*
X105123428Y-57538952D01*
X105075809Y-57586571D01*
X104980571Y-57634190D01*
X104599619Y-57634190D01*
X79091404Y-183586380D02*
X78519976Y-183586380D01*
X78805690Y-183586380D02*
X78805690Y-182586380D01*
X78710452Y-182729238D01*
X78615214Y-182824476D01*
X78519976Y-182872095D01*
X79710452Y-182586380D02*
X79805690Y-182586380D01*
X79900928Y-182634000D01*
X79948547Y-182681619D01*
X79996166Y-182776857D01*
X80043785Y-182967333D01*
X80043785Y-183205428D01*
X79996166Y-183395904D01*
X79948547Y-183491142D01*
X79900928Y-183538761D01*
X79805690Y-183586380D01*
X79710452Y-183586380D01*
X79615214Y-183538761D01*
X79567595Y-183491142D01*
X79519976Y-183395904D01*
X79472357Y-183205428D01*
X79472357Y-182967333D01*
X79519976Y-182776857D01*
X79567595Y-182681619D01*
X79615214Y-182634000D01*
X79710452Y-182586380D01*
X80472357Y-183586380D02*
X80472357Y-182586380D01*
X80567595Y-183205428D02*
X80853309Y-183586380D01*
X80853309Y-182919714D02*
X80472357Y-183300666D01*
X82234261Y-182586380D02*
X82329500Y-182586380D01*
X82424738Y-182634000D01*
X82472357Y-182681619D01*
X82519976Y-182776857D01*
X82567595Y-182967333D01*
X82567595Y-183205428D01*
X82519976Y-183395904D01*
X82472357Y-183491142D01*
X82424738Y-183538761D01*
X82329500Y-183586380D01*
X82234261Y-183586380D01*
X82139023Y-183538761D01*
X82091404Y-183491142D01*
X82043785Y-183395904D01*
X81996166Y-183205428D01*
X81996166Y-182967333D01*
X82043785Y-182776857D01*
X82091404Y-182681619D01*
X82139023Y-182634000D01*
X82234261Y-182586380D01*
X82948547Y-182681619D02*
X82996166Y-182634000D01*
X83091404Y-182586380D01*
X83329500Y-182586380D01*
X83424738Y-182634000D01*
X83472357Y-182681619D01*
X83519976Y-182776857D01*
X83519976Y-182872095D01*
X83472357Y-183014952D01*
X82900928Y-183586380D01*
X83519976Y-183586380D01*
X84139023Y-182586380D02*
X84234261Y-182586380D01*
X84329500Y-182634000D01*
X84377119Y-182681619D01*
X84424738Y-182776857D01*
X84472357Y-182967333D01*
X84472357Y-183205428D01*
X84424738Y-183395904D01*
X84377119Y-183491142D01*
X84329500Y-183538761D01*
X84234261Y-183586380D01*
X84139023Y-183586380D01*
X84043785Y-183538761D01*
X83996166Y-183491142D01*
X83948547Y-183395904D01*
X83900928Y-183205428D01*
X83900928Y-182967333D01*
X83948547Y-182776857D01*
X83996166Y-182681619D01*
X84043785Y-182634000D01*
X84139023Y-182586380D01*
X85424738Y-183586380D02*
X84853309Y-183586380D01*
X85139023Y-183586380D02*
X85139023Y-182586380D01*
X85043785Y-182729238D01*
X84948547Y-182824476D01*
X84853309Y-182872095D01*
X82441023Y-181808380D02*
X82107690Y-181332190D01*
X81869595Y-181808380D02*
X81869595Y-180808380D01*
X82250547Y-180808380D01*
X82345785Y-180856000D01*
X82393404Y-180903619D01*
X82441023Y-180998857D01*
X82441023Y-181141714D01*
X82393404Y-181236952D01*
X82345785Y-181284571D01*
X82250547Y-181332190D01*
X81869595Y-181332190D01*
X82774357Y-180808380D02*
X83393404Y-180808380D01*
X83060071Y-181189333D01*
X83202928Y-181189333D01*
X83298166Y-181236952D01*
X83345785Y-181284571D01*
X83393404Y-181379809D01*
X83393404Y-181617904D01*
X83345785Y-181713142D01*
X83298166Y-181760761D01*
X83202928Y-181808380D01*
X82917214Y-181808380D01*
X82821976Y-181760761D01*
X82774357Y-181713142D01*
X84012452Y-180808380D02*
X84107690Y-180808380D01*
X84202928Y-180856000D01*
X84250547Y-180903619D01*
X84298166Y-180998857D01*
X84345785Y-181189333D01*
X84345785Y-181427428D01*
X84298166Y-181617904D01*
X84250547Y-181713142D01*
X84202928Y-181760761D01*
X84107690Y-181808380D01*
X84012452Y-181808380D01*
X83917214Y-181760761D01*
X83869595Y-181713142D01*
X83821976Y-181617904D01*
X83774357Y-181427428D01*
X83774357Y-181189333D01*
X83821976Y-180998857D01*
X83869595Y-180903619D01*
X83917214Y-180856000D01*
X84012452Y-180808380D01*
X85202928Y-181141714D02*
X85202928Y-181808380D01*
X84964833Y-180760761D02*
X84726738Y-181475047D01*
X85345785Y-181475047D01*
X70541142Y-54046380D02*
X69969714Y-54046380D01*
X70255428Y-54046380D02*
X70255428Y-53046380D01*
X70160190Y-53189238D01*
X70064952Y-53284476D01*
X69969714Y-53332095D01*
X71398285Y-53379714D02*
X71398285Y-54046380D01*
X70969714Y-53379714D02*
X70969714Y-53903523D01*
X71017333Y-53998761D01*
X71112571Y-54046380D01*
X71255428Y-54046380D01*
X71350666Y-53998761D01*
X71398285Y-53951142D01*
X72207809Y-53522571D02*
X71874476Y-53522571D01*
X71874476Y-54046380D02*
X71874476Y-53046380D01*
X72350666Y-53046380D01*
X73684000Y-53046380D02*
X73779238Y-53046380D01*
X73874476Y-53094000D01*
X73922095Y-53141619D01*
X73969714Y-53236857D01*
X74017333Y-53427333D01*
X74017333Y-53665428D01*
X73969714Y-53855904D01*
X73922095Y-53951142D01*
X73874476Y-53998761D01*
X73779238Y-54046380D01*
X73684000Y-54046380D01*
X73588761Y-53998761D01*
X73541142Y-53951142D01*
X73493523Y-53855904D01*
X73445904Y-53665428D01*
X73445904Y-53427333D01*
X73493523Y-53236857D01*
X73541142Y-53141619D01*
X73588761Y-53094000D01*
X73684000Y-53046380D01*
X74874476Y-53379714D02*
X74874476Y-54046380D01*
X74636380Y-52998761D02*
X74398285Y-53713047D01*
X75017333Y-53713047D01*
X75588761Y-53046380D02*
X75684000Y-53046380D01*
X75779238Y-53094000D01*
X75826857Y-53141619D01*
X75874476Y-53236857D01*
X75922095Y-53427333D01*
X75922095Y-53665428D01*
X75874476Y-53855904D01*
X75826857Y-53951142D01*
X75779238Y-53998761D01*
X75684000Y-54046380D01*
X75588761Y-54046380D01*
X75493523Y-53998761D01*
X75445904Y-53951142D01*
X75398285Y-53855904D01*
X75350666Y-53665428D01*
X75350666Y-53427333D01*
X75398285Y-53236857D01*
X75445904Y-53141619D01*
X75493523Y-53094000D01*
X75588761Y-53046380D01*
X76303047Y-53141619D02*
X76350666Y-53094000D01*
X76445904Y-53046380D01*
X76684000Y-53046380D01*
X76779238Y-53094000D01*
X76826857Y-53141619D01*
X76874476Y-53236857D01*
X76874476Y-53332095D01*
X76826857Y-53474952D01*
X76255428Y-54046380D01*
X76874476Y-54046380D01*
X78588761Y-54046380D02*
X78017333Y-54046380D01*
X78303047Y-54046380D02*
X78303047Y-53046380D01*
X78207809Y-53189238D01*
X78112571Y-53284476D01*
X78017333Y-53332095D01*
X79207809Y-53046380D02*
X79303047Y-53046380D01*
X79398285Y-53094000D01*
X79445904Y-53141619D01*
X79493523Y-53236857D01*
X79541142Y-53427333D01*
X79541142Y-53665428D01*
X79493523Y-53855904D01*
X79445904Y-53951142D01*
X79398285Y-53998761D01*
X79303047Y-54046380D01*
X79207809Y-54046380D01*
X79112571Y-53998761D01*
X79064952Y-53951142D01*
X79017333Y-53855904D01*
X78969714Y-53665428D01*
X78969714Y-53427333D01*
X79017333Y-53236857D01*
X79064952Y-53141619D01*
X79112571Y-53094000D01*
X79207809Y-53046380D01*
X79826857Y-53046380D02*
X80160190Y-54046380D01*
X80493523Y-53046380D01*
X82002380Y-41910000D02*
X82240476Y-41910000D01*
X82145238Y-42148095D02*
X82240476Y-41910000D01*
X82145238Y-41671904D01*
X82430952Y-42052857D02*
X82240476Y-41910000D01*
X82430952Y-41767142D01*
X73709785Y-25868380D02*
X73233595Y-25868380D01*
X73185976Y-26344571D01*
X73233595Y-26296952D01*
X73328833Y-26249333D01*
X73566928Y-26249333D01*
X73662166Y-26296952D01*
X73709785Y-26344571D01*
X73757404Y-26439809D01*
X73757404Y-26677904D01*
X73709785Y-26773142D01*
X73662166Y-26820761D01*
X73566928Y-26868380D01*
X73328833Y-26868380D01*
X73233595Y-26820761D01*
X73185976Y-26773142D01*
X74185976Y-26868380D02*
X74185976Y-25868380D01*
X74281214Y-26487428D02*
X74566928Y-26868380D01*
X74566928Y-26201714D02*
X74185976Y-26582666D01*
X75519309Y-26868380D02*
X74947880Y-26868380D01*
X75233595Y-26868380D02*
X75233595Y-25868380D01*
X75138357Y-26011238D01*
X75043119Y-26106476D01*
X74947880Y-26154095D01*
X76900261Y-25868380D02*
X76995500Y-25868380D01*
X77090738Y-25916000D01*
X77138357Y-25963619D01*
X77185976Y-26058857D01*
X77233595Y-26249333D01*
X77233595Y-26487428D01*
X77185976Y-26677904D01*
X77138357Y-26773142D01*
X77090738Y-26820761D01*
X76995500Y-26868380D01*
X76900261Y-26868380D01*
X76805023Y-26820761D01*
X76757404Y-26773142D01*
X76709785Y-26677904D01*
X76662166Y-26487428D01*
X76662166Y-26249333D01*
X76709785Y-26058857D01*
X76757404Y-25963619D01*
X76805023Y-25916000D01*
X76900261Y-25868380D01*
X77614547Y-25963619D02*
X77662166Y-25916000D01*
X77757404Y-25868380D01*
X77995500Y-25868380D01*
X78090738Y-25916000D01*
X78138357Y-25963619D01*
X78185976Y-26058857D01*
X78185976Y-26154095D01*
X78138357Y-26296952D01*
X77566928Y-26868380D01*
X78185976Y-26868380D01*
X78805023Y-25868380D02*
X78900261Y-25868380D01*
X78995500Y-25916000D01*
X79043119Y-25963619D01*
X79090738Y-26058857D01*
X79138357Y-26249333D01*
X79138357Y-26487428D01*
X79090738Y-26677904D01*
X79043119Y-26773142D01*
X78995500Y-26820761D01*
X78900261Y-26868380D01*
X78805023Y-26868380D01*
X78709785Y-26820761D01*
X78662166Y-26773142D01*
X78614547Y-26677904D01*
X78566928Y-26487428D01*
X78566928Y-26249333D01*
X78614547Y-26058857D01*
X78662166Y-25963619D01*
X78709785Y-25916000D01*
X78805023Y-25868380D01*
X80090738Y-26868380D02*
X79519309Y-26868380D01*
X79805023Y-26868380D02*
X79805023Y-25868380D01*
X79709785Y-26011238D01*
X79614547Y-26106476D01*
X79519309Y-26154095D01*
X73805023Y-25598380D02*
X73471690Y-25122190D01*
X73233595Y-25598380D02*
X73233595Y-24598380D01*
X73614547Y-24598380D01*
X73709785Y-24646000D01*
X73757404Y-24693619D01*
X73805023Y-24788857D01*
X73805023Y-24931714D01*
X73757404Y-25026952D01*
X73709785Y-25074571D01*
X73614547Y-25122190D01*
X73233595Y-25122190D01*
X74185976Y-24693619D02*
X74233595Y-24646000D01*
X74328833Y-24598380D01*
X74566928Y-24598380D01*
X74662166Y-24646000D01*
X74709785Y-24693619D01*
X74757404Y-24788857D01*
X74757404Y-24884095D01*
X74709785Y-25026952D01*
X74138357Y-25598380D01*
X74757404Y-25598380D01*
X75376452Y-24598380D02*
X75471690Y-24598380D01*
X75566928Y-24646000D01*
X75614547Y-24693619D01*
X75662166Y-24788857D01*
X75709785Y-24979333D01*
X75709785Y-25217428D01*
X75662166Y-25407904D01*
X75614547Y-25503142D01*
X75566928Y-25550761D01*
X75471690Y-25598380D01*
X75376452Y-25598380D01*
X75281214Y-25550761D01*
X75233595Y-25503142D01*
X75185976Y-25407904D01*
X75138357Y-25217428D01*
X75138357Y-24979333D01*
X75185976Y-24788857D01*
X75233595Y-24693619D01*
X75281214Y-24646000D01*
X75376452Y-24598380D01*
X76566928Y-24598380D02*
X76376452Y-24598380D01*
X76281214Y-24646000D01*
X76233595Y-24693619D01*
X76138357Y-24836476D01*
X76090738Y-25026952D01*
X76090738Y-25407904D01*
X76138357Y-25503142D01*
X76185976Y-25550761D01*
X76281214Y-25598380D01*
X76471690Y-25598380D01*
X76566928Y-25550761D01*
X76614547Y-25503142D01*
X76662166Y-25407904D01*
X76662166Y-25169809D01*
X76614547Y-25074571D01*
X76566928Y-25026952D01*
X76471690Y-24979333D01*
X76281214Y-24979333D01*
X76185976Y-25026952D01*
X76138357Y-25074571D01*
X76090738Y-25169809D01*
D11*
X92993428Y-76163142D02*
X92764857Y-76163142D01*
X92764857Y-75683142D01*
X93130571Y-76140285D02*
X93199142Y-76163142D01*
X93313428Y-76163142D01*
X93359142Y-76140285D01*
X93382000Y-76117428D01*
X93404857Y-76071714D01*
X93404857Y-76026000D01*
X93382000Y-75980285D01*
X93359142Y-75957428D01*
X93313428Y-75934571D01*
X93222000Y-75911714D01*
X93176285Y-75888857D01*
X93153428Y-75866000D01*
X93130571Y-75820285D01*
X93130571Y-75774571D01*
X93153428Y-75728857D01*
X93176285Y-75706000D01*
X93222000Y-75683142D01*
X93336285Y-75683142D01*
X93404857Y-75706000D01*
X93610571Y-76163142D02*
X93610571Y-75683142D01*
X93770571Y-76026000D01*
X93930571Y-75683142D01*
X93930571Y-76163142D01*
X94364857Y-75683142D02*
X94273428Y-75683142D01*
X94227714Y-75706000D01*
X94204857Y-75728857D01*
X94159142Y-75797428D01*
X94136285Y-75888857D01*
X94136285Y-76071714D01*
X94159142Y-76117428D01*
X94182000Y-76140285D01*
X94227714Y-76163142D01*
X94319142Y-76163142D01*
X94364857Y-76140285D01*
X94387714Y-76117428D01*
X94410571Y-76071714D01*
X94410571Y-75957428D01*
X94387714Y-75911714D01*
X94364857Y-75888857D01*
X94319142Y-75866000D01*
X94227714Y-75866000D01*
X94182000Y-75888857D01*
X94159142Y-75911714D01*
X94136285Y-75957428D01*
X94616285Y-76163142D02*
X94616285Y-75683142D01*
X94730571Y-75683142D01*
X94799142Y-75706000D01*
X94844857Y-75751714D01*
X94867714Y-75797428D01*
X94890571Y-75888857D01*
X94890571Y-75957428D01*
X94867714Y-76048857D01*
X94844857Y-76094571D01*
X94799142Y-76140285D01*
X94730571Y-76163142D01*
X94616285Y-76163142D01*
X95073428Y-76140285D02*
X95142000Y-76163142D01*
X95256285Y-76163142D01*
X95302000Y-76140285D01*
X95324857Y-76117428D01*
X95347714Y-76071714D01*
X95347714Y-76026000D01*
X95324857Y-75980285D01*
X95302000Y-75957428D01*
X95256285Y-75934571D01*
X95164857Y-75911714D01*
X95119142Y-75888857D01*
X95096285Y-75866000D01*
X95073428Y-75820285D01*
X95073428Y-75774571D01*
X95096285Y-75728857D01*
X95119142Y-75706000D01*
X95164857Y-75683142D01*
X95279142Y-75683142D01*
X95347714Y-75706000D01*
X95553428Y-76163142D02*
X95553428Y-75683142D01*
X95713428Y-76026000D01*
X95873428Y-75683142D01*
X95873428Y-76163142D01*
X96033428Y-75683142D02*
X96307714Y-75683142D01*
X96170571Y-76163142D02*
X96170571Y-75683142D01*
X96742000Y-76163142D02*
X96582000Y-75934571D01*
X96467714Y-76163142D02*
X96467714Y-75683142D01*
X96650571Y-75683142D01*
X96696285Y-75706000D01*
X96719142Y-75728857D01*
X96742000Y-75774571D01*
X96742000Y-75843142D01*
X96719142Y-75888857D01*
X96696285Y-75911714D01*
X96650571Y-75934571D01*
X96467714Y-75934571D01*
D10*
X72445619Y-55723404D02*
X72445619Y-55151976D01*
X72445619Y-55437690D02*
X73445619Y-55437690D01*
X73302761Y-55342452D01*
X73207523Y-55247214D01*
X73159904Y-55151976D01*
X72445619Y-56151976D02*
X73445619Y-56151976D01*
X72826571Y-56247214D02*
X72445619Y-56532928D01*
X73112285Y-56532928D02*
X72731333Y-56151976D01*
X73445619Y-57913880D02*
X73445619Y-58009119D01*
X73398000Y-58104357D01*
X73350380Y-58151976D01*
X73255142Y-58199595D01*
X73064666Y-58247214D01*
X72826571Y-58247214D01*
X72636095Y-58199595D01*
X72540857Y-58151976D01*
X72493238Y-58104357D01*
X72445619Y-58009119D01*
X72445619Y-57913880D01*
X72493238Y-57818642D01*
X72540857Y-57771023D01*
X72636095Y-57723404D01*
X72826571Y-57675785D01*
X73064666Y-57675785D01*
X73255142Y-57723404D01*
X73350380Y-57771023D01*
X73398000Y-57818642D01*
X73445619Y-57913880D01*
X73350380Y-58628166D02*
X73398000Y-58675785D01*
X73445619Y-58771023D01*
X73445619Y-59009119D01*
X73398000Y-59104357D01*
X73350380Y-59151976D01*
X73255142Y-59199595D01*
X73159904Y-59199595D01*
X73017047Y-59151976D01*
X72445619Y-58580547D01*
X72445619Y-59199595D01*
X73445619Y-59818642D02*
X73445619Y-59913880D01*
X73398000Y-60009119D01*
X73350380Y-60056738D01*
X73255142Y-60104357D01*
X73064666Y-60151976D01*
X72826571Y-60151976D01*
X72636095Y-60104357D01*
X72540857Y-60056738D01*
X72493238Y-60009119D01*
X72445619Y-59913880D01*
X72445619Y-59818642D01*
X72493238Y-59723404D01*
X72540857Y-59675785D01*
X72636095Y-59628166D01*
X72826571Y-59580547D01*
X73064666Y-59580547D01*
X73255142Y-59628166D01*
X73350380Y-59675785D01*
X73398000Y-59723404D01*
X73445619Y-59818642D01*
X72445619Y-61104357D02*
X72445619Y-60532928D01*
X72445619Y-60818642D02*
X73445619Y-60818642D01*
X73302761Y-60723404D01*
X73207523Y-60628166D01*
X73159904Y-60532928D01*
X74223619Y-57295023D02*
X74699809Y-56961690D01*
X74223619Y-56723595D02*
X75223619Y-56723595D01*
X75223619Y-57104547D01*
X75176000Y-57199785D01*
X75128380Y-57247404D01*
X75033142Y-57295023D01*
X74890285Y-57295023D01*
X74795047Y-57247404D01*
X74747428Y-57199785D01*
X74699809Y-57104547D01*
X74699809Y-56723595D01*
X75128380Y-57675976D02*
X75176000Y-57723595D01*
X75223619Y-57818833D01*
X75223619Y-58056928D01*
X75176000Y-58152166D01*
X75128380Y-58199785D01*
X75033142Y-58247404D01*
X74937904Y-58247404D01*
X74795047Y-58199785D01*
X74223619Y-57628357D01*
X74223619Y-58247404D01*
X75223619Y-58866452D02*
X75223619Y-58961690D01*
X75176000Y-59056928D01*
X75128380Y-59104547D01*
X75033142Y-59152166D01*
X74842666Y-59199785D01*
X74604571Y-59199785D01*
X74414095Y-59152166D01*
X74318857Y-59104547D01*
X74271238Y-59056928D01*
X74223619Y-58961690D01*
X74223619Y-58866452D01*
X74271238Y-58771214D01*
X74318857Y-58723595D01*
X74414095Y-58675976D01*
X74604571Y-58628357D01*
X74842666Y-58628357D01*
X75033142Y-58675976D01*
X75128380Y-58723595D01*
X75176000Y-58771214D01*
X75223619Y-58866452D01*
X74890285Y-60056928D02*
X74223619Y-60056928D01*
X75271238Y-59818833D02*
X74556952Y-59580738D01*
X74556952Y-60199785D01*
X88997404Y-183586380D02*
X88425976Y-183586380D01*
X88711690Y-183586380D02*
X88711690Y-182586380D01*
X88616452Y-182729238D01*
X88521214Y-182824476D01*
X88425976Y-182872095D01*
X89616452Y-182586380D02*
X89711690Y-182586380D01*
X89806928Y-182634000D01*
X89854547Y-182681619D01*
X89902166Y-182776857D01*
X89949785Y-182967333D01*
X89949785Y-183205428D01*
X89902166Y-183395904D01*
X89854547Y-183491142D01*
X89806928Y-183538761D01*
X89711690Y-183586380D01*
X89616452Y-183586380D01*
X89521214Y-183538761D01*
X89473595Y-183491142D01*
X89425976Y-183395904D01*
X89378357Y-183205428D01*
X89378357Y-182967333D01*
X89425976Y-182776857D01*
X89473595Y-182681619D01*
X89521214Y-182634000D01*
X89616452Y-182586380D01*
X90378357Y-183586380D02*
X90378357Y-182586380D01*
X90473595Y-183205428D02*
X90759309Y-183586380D01*
X90759309Y-182919714D02*
X90378357Y-183300666D01*
X92140261Y-182586380D02*
X92235500Y-182586380D01*
X92330738Y-182634000D01*
X92378357Y-182681619D01*
X92425976Y-182776857D01*
X92473595Y-182967333D01*
X92473595Y-183205428D01*
X92425976Y-183395904D01*
X92378357Y-183491142D01*
X92330738Y-183538761D01*
X92235500Y-183586380D01*
X92140261Y-183586380D01*
X92045023Y-183538761D01*
X91997404Y-183491142D01*
X91949785Y-183395904D01*
X91902166Y-183205428D01*
X91902166Y-182967333D01*
X91949785Y-182776857D01*
X91997404Y-182681619D01*
X92045023Y-182634000D01*
X92140261Y-182586380D01*
X92854547Y-182681619D02*
X92902166Y-182634000D01*
X92997404Y-182586380D01*
X93235500Y-182586380D01*
X93330738Y-182634000D01*
X93378357Y-182681619D01*
X93425976Y-182776857D01*
X93425976Y-182872095D01*
X93378357Y-183014952D01*
X92806928Y-183586380D01*
X93425976Y-183586380D01*
X94045023Y-182586380D02*
X94140261Y-182586380D01*
X94235500Y-182634000D01*
X94283119Y-182681619D01*
X94330738Y-182776857D01*
X94378357Y-182967333D01*
X94378357Y-183205428D01*
X94330738Y-183395904D01*
X94283119Y-183491142D01*
X94235500Y-183538761D01*
X94140261Y-183586380D01*
X94045023Y-183586380D01*
X93949785Y-183538761D01*
X93902166Y-183491142D01*
X93854547Y-183395904D01*
X93806928Y-183205428D01*
X93806928Y-182967333D01*
X93854547Y-182776857D01*
X93902166Y-182681619D01*
X93949785Y-182634000D01*
X94045023Y-182586380D01*
X95330738Y-183586380D02*
X94759309Y-183586380D01*
X95045023Y-183586380D02*
X95045023Y-182586380D01*
X94949785Y-182729238D01*
X94854547Y-182824476D01*
X94759309Y-182872095D01*
X88849023Y-181918380D02*
X88515690Y-181442190D01*
X88277595Y-181918380D02*
X88277595Y-180918380D01*
X88658547Y-180918380D01*
X88753785Y-180966000D01*
X88801404Y-181013619D01*
X88849023Y-181108857D01*
X88849023Y-181251714D01*
X88801404Y-181346952D01*
X88753785Y-181394571D01*
X88658547Y-181442190D01*
X88277595Y-181442190D01*
X89182357Y-180918380D02*
X89801404Y-180918380D01*
X89468071Y-181299333D01*
X89610928Y-181299333D01*
X89706166Y-181346952D01*
X89753785Y-181394571D01*
X89801404Y-181489809D01*
X89801404Y-181727904D01*
X89753785Y-181823142D01*
X89706166Y-181870761D01*
X89610928Y-181918380D01*
X89325214Y-181918380D01*
X89229976Y-181870761D01*
X89182357Y-181823142D01*
X90420452Y-180918380D02*
X90515690Y-180918380D01*
X90610928Y-180966000D01*
X90658547Y-181013619D01*
X90706166Y-181108857D01*
X90753785Y-181299333D01*
X90753785Y-181537428D01*
X90706166Y-181727904D01*
X90658547Y-181823142D01*
X90610928Y-181870761D01*
X90515690Y-181918380D01*
X90420452Y-181918380D01*
X90325214Y-181870761D01*
X90277595Y-181823142D01*
X90229976Y-181727904D01*
X90182357Y-181537428D01*
X90182357Y-181299333D01*
X90229976Y-181108857D01*
X90277595Y-181013619D01*
X90325214Y-180966000D01*
X90420452Y-180918380D01*
X91658547Y-180918380D02*
X91182357Y-180918380D01*
X91134738Y-181394571D01*
X91182357Y-181346952D01*
X91277595Y-181299333D01*
X91515690Y-181299333D01*
X91610928Y-181346952D01*
X91658547Y-181394571D01*
X91706166Y-181489809D01*
X91706166Y-181727904D01*
X91658547Y-181823142D01*
X91610928Y-181870761D01*
X91515690Y-181918380D01*
X91277595Y-181918380D01*
X91182357Y-181870761D01*
X91134738Y-181823142D01*
X93401142Y-78684380D02*
X92829714Y-78684380D01*
X93115428Y-78684380D02*
X93115428Y-77684380D01*
X93020190Y-77827238D01*
X92924952Y-77922476D01*
X92829714Y-77970095D01*
X94258285Y-78017714D02*
X94258285Y-78684380D01*
X93829714Y-78017714D02*
X93829714Y-78541523D01*
X93877333Y-78636761D01*
X93972571Y-78684380D01*
X94115428Y-78684380D01*
X94210666Y-78636761D01*
X94258285Y-78589142D01*
X95067809Y-78160571D02*
X94734476Y-78160571D01*
X94734476Y-78684380D02*
X94734476Y-77684380D01*
X95210666Y-77684380D01*
X96544000Y-77684380D02*
X96639238Y-77684380D01*
X96734476Y-77732000D01*
X96782095Y-77779619D01*
X96829714Y-77874857D01*
X96877333Y-78065333D01*
X96877333Y-78303428D01*
X96829714Y-78493904D01*
X96782095Y-78589142D01*
X96734476Y-78636761D01*
X96639238Y-78684380D01*
X96544000Y-78684380D01*
X96448761Y-78636761D01*
X96401142Y-78589142D01*
X96353523Y-78493904D01*
X96305904Y-78303428D01*
X96305904Y-78065333D01*
X96353523Y-77874857D01*
X96401142Y-77779619D01*
X96448761Y-77732000D01*
X96544000Y-77684380D01*
X97734476Y-78017714D02*
X97734476Y-78684380D01*
X97496380Y-77636761D02*
X97258285Y-78351047D01*
X97877333Y-78351047D01*
X98448761Y-77684380D02*
X98544000Y-77684380D01*
X98639238Y-77732000D01*
X98686857Y-77779619D01*
X98734476Y-77874857D01*
X98782095Y-78065333D01*
X98782095Y-78303428D01*
X98734476Y-78493904D01*
X98686857Y-78589142D01*
X98639238Y-78636761D01*
X98544000Y-78684380D01*
X98448761Y-78684380D01*
X98353523Y-78636761D01*
X98305904Y-78589142D01*
X98258285Y-78493904D01*
X98210666Y-78303428D01*
X98210666Y-78065333D01*
X98258285Y-77874857D01*
X98305904Y-77779619D01*
X98353523Y-77732000D01*
X98448761Y-77684380D01*
X99163047Y-77779619D02*
X99210666Y-77732000D01*
X99305904Y-77684380D01*
X99544000Y-77684380D01*
X99639238Y-77732000D01*
X99686857Y-77779619D01*
X99734476Y-77874857D01*
X99734476Y-77970095D01*
X99686857Y-78112952D01*
X99115428Y-78684380D01*
X99734476Y-78684380D01*
X101448761Y-78684380D02*
X100877333Y-78684380D01*
X101163047Y-78684380D02*
X101163047Y-77684380D01*
X101067809Y-77827238D01*
X100972571Y-77922476D01*
X100877333Y-77970095D01*
X102067809Y-77684380D02*
X102163047Y-77684380D01*
X102258285Y-77732000D01*
X102305904Y-77779619D01*
X102353523Y-77874857D01*
X102401142Y-78065333D01*
X102401142Y-78303428D01*
X102353523Y-78493904D01*
X102305904Y-78589142D01*
X102258285Y-78636761D01*
X102163047Y-78684380D01*
X102067809Y-78684380D01*
X101972571Y-78636761D01*
X101924952Y-78589142D01*
X101877333Y-78493904D01*
X101829714Y-78303428D01*
X101829714Y-78065333D01*
X101877333Y-77874857D01*
X101924952Y-77779619D01*
X101972571Y-77732000D01*
X102067809Y-77684380D01*
X102686857Y-77684380D02*
X103020190Y-78684380D01*
X103353523Y-77684380D01*
X93162380Y-58961976D02*
X93210000Y-59009595D01*
X93257619Y-59104833D01*
X93257619Y-59342928D01*
X93210000Y-59438166D01*
X93162380Y-59485785D01*
X93067142Y-59533404D01*
X92971904Y-59533404D01*
X92829047Y-59485785D01*
X92257619Y-58914357D01*
X92257619Y-59533404D01*
X93257619Y-59866738D02*
X93257619Y-60533404D01*
X92257619Y-60104833D01*
X92257619Y-60866738D02*
X92257619Y-61104833D01*
X92448095Y-61104833D01*
X92495714Y-61009595D01*
X92590952Y-60914357D01*
X92733809Y-60866738D01*
X92971904Y-60866738D01*
X93114761Y-60914357D01*
X93210000Y-61009595D01*
X93257619Y-61152452D01*
X93257619Y-61342928D01*
X93210000Y-61485785D01*
X93114761Y-61581023D01*
X92971904Y-61628642D01*
X92733809Y-61628642D01*
X92590952Y-61581023D01*
X92495714Y-61485785D01*
X92448095Y-61390547D01*
X92257619Y-61390547D01*
X92257619Y-61628642D01*
X93257619Y-63009595D02*
X93257619Y-63104833D01*
X93210000Y-63200071D01*
X93162380Y-63247690D01*
X93067142Y-63295309D01*
X92876666Y-63342928D01*
X92638571Y-63342928D01*
X92448095Y-63295309D01*
X92352857Y-63247690D01*
X92305238Y-63200071D01*
X92257619Y-63104833D01*
X92257619Y-63009595D01*
X92305238Y-62914357D01*
X92352857Y-62866738D01*
X92448095Y-62819119D01*
X92638571Y-62771500D01*
X92876666Y-62771500D01*
X93067142Y-62819119D01*
X93162380Y-62866738D01*
X93210000Y-62914357D01*
X93257619Y-63009595D01*
X93162380Y-63723880D02*
X93210000Y-63771500D01*
X93257619Y-63866738D01*
X93257619Y-64104833D01*
X93210000Y-64200071D01*
X93162380Y-64247690D01*
X93067142Y-64295309D01*
X92971904Y-64295309D01*
X92829047Y-64247690D01*
X92257619Y-63676261D01*
X92257619Y-64295309D01*
X93257619Y-64914357D02*
X93257619Y-65009595D01*
X93210000Y-65104833D01*
X93162380Y-65152452D01*
X93067142Y-65200071D01*
X92876666Y-65247690D01*
X92638571Y-65247690D01*
X92448095Y-65200071D01*
X92352857Y-65152452D01*
X92305238Y-65104833D01*
X92257619Y-65009595D01*
X92257619Y-64914357D01*
X92305238Y-64819119D01*
X92352857Y-64771500D01*
X92448095Y-64723880D01*
X92638571Y-64676261D01*
X92876666Y-64676261D01*
X93067142Y-64723880D01*
X93162380Y-64771500D01*
X93210000Y-64819119D01*
X93257619Y-64914357D01*
X92257619Y-66200071D02*
X92257619Y-65628642D01*
X92257619Y-65914357D02*
X93257619Y-65914357D01*
X93114761Y-65819119D01*
X93019523Y-65723880D01*
X92971904Y-65628642D01*
X93527619Y-59581023D02*
X94003809Y-59247690D01*
X93527619Y-59009595D02*
X94527619Y-59009595D01*
X94527619Y-59390547D01*
X94480000Y-59485785D01*
X94432380Y-59533404D01*
X94337142Y-59581023D01*
X94194285Y-59581023D01*
X94099047Y-59533404D01*
X94051428Y-59485785D01*
X94003809Y-59390547D01*
X94003809Y-59009595D01*
X94432380Y-59961976D02*
X94480000Y-60009595D01*
X94527619Y-60104833D01*
X94527619Y-60342928D01*
X94480000Y-60438166D01*
X94432380Y-60485785D01*
X94337142Y-60533404D01*
X94241904Y-60533404D01*
X94099047Y-60485785D01*
X93527619Y-59914357D01*
X93527619Y-60533404D01*
X94527619Y-61152452D02*
X94527619Y-61247690D01*
X94480000Y-61342928D01*
X94432380Y-61390547D01*
X94337142Y-61438166D01*
X94146666Y-61485785D01*
X93908571Y-61485785D01*
X93718095Y-61438166D01*
X93622857Y-61390547D01*
X93575238Y-61342928D01*
X93527619Y-61247690D01*
X93527619Y-61152452D01*
X93575238Y-61057214D01*
X93622857Y-61009595D01*
X93718095Y-60961976D01*
X93908571Y-60914357D01*
X94146666Y-60914357D01*
X94337142Y-60961976D01*
X94432380Y-61009595D01*
X94480000Y-61057214D01*
X94527619Y-61152452D01*
X94527619Y-61819119D02*
X94527619Y-62438166D01*
X94146666Y-62104833D01*
X94146666Y-62247690D01*
X94099047Y-62342928D01*
X94051428Y-62390547D01*
X93956190Y-62438166D01*
X93718095Y-62438166D01*
X93622857Y-62390547D01*
X93575238Y-62342928D01*
X93527619Y-62247690D01*
X93527619Y-61961976D01*
X93575238Y-61866738D01*
X93622857Y-61819119D01*
X75725809Y-72555572D02*
X75321748Y-72151511D01*
X75523778Y-72353542D02*
X76230885Y-71646435D01*
X76062526Y-71680107D01*
X75927839Y-71680107D01*
X75826824Y-71646435D01*
X76028855Y-72858618D02*
X76735961Y-72151511D01*
X76365572Y-72656587D02*
X76298229Y-73127992D01*
X76769633Y-72656587D02*
X76230885Y-72656587D01*
X77981816Y-73397366D02*
X78049160Y-73464709D01*
X78082831Y-73565725D01*
X78082831Y-73633068D01*
X78049160Y-73734083D01*
X77948144Y-73902442D01*
X77779786Y-74070801D01*
X77611427Y-74171816D01*
X77510412Y-74205488D01*
X77443068Y-74205488D01*
X77342053Y-74171816D01*
X77274709Y-74104473D01*
X77241038Y-74003457D01*
X77241038Y-73936114D01*
X77274709Y-73835099D01*
X77375725Y-73666740D01*
X77544083Y-73498381D01*
X77712442Y-73397366D01*
X77813457Y-73363694D01*
X77880801Y-73363694D01*
X77981816Y-73397366D01*
X78419549Y-73969786D02*
X78486892Y-73969786D01*
X78587908Y-74003457D01*
X78756266Y-74171816D01*
X78789938Y-74272831D01*
X78789938Y-74340175D01*
X78756266Y-74441190D01*
X78688923Y-74508534D01*
X78554236Y-74575877D01*
X77746114Y-74575877D01*
X78183847Y-75013610D01*
X79328686Y-74744236D02*
X79396030Y-74811579D01*
X79429701Y-74912595D01*
X79429701Y-74979938D01*
X79396030Y-75080953D01*
X79295014Y-75249312D01*
X79126656Y-75417671D01*
X78958297Y-75518686D01*
X78857282Y-75552358D01*
X78789938Y-75552358D01*
X78688923Y-75518686D01*
X78621579Y-75451343D01*
X78587908Y-75350327D01*
X78587908Y-75282984D01*
X78621579Y-75181969D01*
X78722595Y-75013610D01*
X78890953Y-74845251D01*
X79059312Y-74744236D01*
X79160327Y-74710564D01*
X79227671Y-74710564D01*
X79328686Y-74744236D01*
X79530717Y-76360480D02*
X79126656Y-75956419D01*
X79328686Y-76158449D02*
X80035793Y-75451343D01*
X79867434Y-75485014D01*
X79732747Y-75485014D01*
X79631732Y-75451343D01*
X77791481Y-72589244D02*
X77892496Y-72016824D01*
X77387420Y-72185183D02*
X78094526Y-71478076D01*
X78363900Y-71747450D01*
X78397572Y-71848465D01*
X78397572Y-71915809D01*
X78363900Y-72016824D01*
X78262885Y-72117839D01*
X78161870Y-72151511D01*
X78094526Y-72151511D01*
X77993511Y-72117839D01*
X77724137Y-71848465D01*
X78700618Y-72218855D02*
X78767961Y-72218855D01*
X78868977Y-72252526D01*
X79037335Y-72420885D01*
X79071007Y-72521900D01*
X79071007Y-72589244D01*
X79037335Y-72690259D01*
X78969992Y-72757603D01*
X78835305Y-72824946D01*
X78027183Y-72824946D01*
X78464916Y-73262679D01*
X79609755Y-72993305D02*
X79677099Y-73060648D01*
X79710770Y-73161664D01*
X79710770Y-73229007D01*
X79677099Y-73330022D01*
X79576083Y-73498381D01*
X79407725Y-73666740D01*
X79239366Y-73767755D01*
X79138351Y-73801427D01*
X79071007Y-73801427D01*
X78969992Y-73767755D01*
X78902648Y-73700412D01*
X78868977Y-73599396D01*
X78868977Y-73532053D01*
X78902648Y-73431038D01*
X79003664Y-73262679D01*
X79172022Y-73094320D01*
X79340381Y-72993305D01*
X79441396Y-72959633D01*
X79508740Y-72959633D01*
X79609755Y-72993305D01*
X79811786Y-74609549D02*
X79407725Y-74205488D01*
X79609755Y-74407518D02*
X80316862Y-73700412D01*
X80148503Y-73734083D01*
X80013816Y-73734083D01*
X79912801Y-73700412D01*
X67318761Y-23074380D02*
X67890190Y-23074380D01*
X67604476Y-24074380D02*
X67604476Y-23074380D01*
X68223523Y-24074380D02*
X68223523Y-23074380D01*
X68604476Y-23074380D01*
X68699714Y-23122000D01*
X68747333Y-23169619D01*
X68794952Y-23264857D01*
X68794952Y-23407714D01*
X68747333Y-23502952D01*
X68699714Y-23550571D01*
X68604476Y-23598190D01*
X68223523Y-23598190D01*
X69223523Y-24074380D02*
X69223523Y-23074380D01*
X69461619Y-23074380D01*
X69604476Y-23122000D01*
X69699714Y-23217238D01*
X69747333Y-23312476D01*
X69794952Y-23502952D01*
X69794952Y-23645809D01*
X69747333Y-23836285D01*
X69699714Y-23931523D01*
X69604476Y-24026761D01*
X69461619Y-24074380D01*
X69223523Y-24074380D01*
X70652095Y-23407714D02*
X70652095Y-24074380D01*
X70414000Y-23026761D02*
X70175904Y-23741047D01*
X70794952Y-23741047D01*
X71175904Y-23550571D02*
X71509238Y-23550571D01*
X71652095Y-24074380D02*
X71175904Y-24074380D01*
X71175904Y-23074380D01*
X71652095Y-23074380D01*
X72271142Y-23074380D02*
X72366380Y-23074380D01*
X72461619Y-23122000D01*
X72509238Y-23169619D01*
X72556857Y-23264857D01*
X72604476Y-23455333D01*
X72604476Y-23693428D01*
X72556857Y-23883904D01*
X72509238Y-23979142D01*
X72461619Y-24026761D01*
X72366380Y-24074380D01*
X72271142Y-24074380D01*
X72175904Y-24026761D01*
X72128285Y-23979142D01*
X72080666Y-23883904D01*
X72033047Y-23693428D01*
X72033047Y-23455333D01*
X72080666Y-23264857D01*
X72128285Y-23169619D01*
X72175904Y-23122000D01*
X72271142Y-23074380D01*
X73509238Y-23074380D02*
X73033047Y-23074380D01*
X72985428Y-23550571D01*
X73033047Y-23502952D01*
X73128285Y-23455333D01*
X73366380Y-23455333D01*
X73461619Y-23502952D01*
X73509238Y-23550571D01*
X73556857Y-23645809D01*
X73556857Y-23883904D01*
X73509238Y-23979142D01*
X73461619Y-24026761D01*
X73366380Y-24074380D01*
X73128285Y-24074380D01*
X73033047Y-24026761D01*
X72985428Y-23979142D01*
X73985428Y-23074380D02*
X73985428Y-23883904D01*
X74033047Y-23979142D01*
X74080666Y-24026761D01*
X74175904Y-24074380D01*
X74366380Y-24074380D01*
X74461619Y-24026761D01*
X74509238Y-23979142D01*
X74556857Y-23883904D01*
X74556857Y-23074380D01*
X75223523Y-23074380D02*
X75318761Y-23074380D01*
X75414000Y-23122000D01*
X75461619Y-23169619D01*
X75509238Y-23264857D01*
X75556857Y-23455333D01*
X75556857Y-23693428D01*
X75509238Y-23883904D01*
X75461619Y-23979142D01*
X75414000Y-24026761D01*
X75318761Y-24074380D01*
X75223523Y-24074380D01*
X75128285Y-24026761D01*
X75080666Y-23979142D01*
X75033047Y-23883904D01*
X74985428Y-23693428D01*
X74985428Y-23455333D01*
X75033047Y-23264857D01*
X75080666Y-23169619D01*
X75128285Y-23122000D01*
X75223523Y-23074380D01*
X76414000Y-23074380D02*
X76223523Y-23074380D01*
X76128285Y-23122000D01*
X76080666Y-23169619D01*
X75985428Y-23312476D01*
X75937809Y-23502952D01*
X75937809Y-23883904D01*
X75985428Y-23979142D01*
X76033047Y-24026761D01*
X76128285Y-24074380D01*
X76318761Y-24074380D01*
X76414000Y-24026761D01*
X76461619Y-23979142D01*
X76509238Y-23883904D01*
X76509238Y-23645809D01*
X76461619Y-23550571D01*
X76414000Y-23502952D01*
X76318761Y-23455333D01*
X76128285Y-23455333D01*
X76033047Y-23502952D01*
X75985428Y-23550571D01*
X75937809Y-23645809D01*
X76937809Y-24074380D02*
X76937809Y-23074380D01*
X77175904Y-23074380D01*
X77318761Y-23122000D01*
X77414000Y-23217238D01*
X77461619Y-23312476D01*
X77509238Y-23502952D01*
X77509238Y-23645809D01*
X77461619Y-23836285D01*
X77414000Y-23931523D01*
X77318761Y-24026761D01*
X77175904Y-24074380D01*
X76937809Y-24074380D01*
X78604476Y-24169619D02*
X78509238Y-24122000D01*
X78414000Y-24026761D01*
X78271142Y-23883904D01*
X78175904Y-23836285D01*
X78080666Y-23836285D01*
X78128285Y-24074380D02*
X78033047Y-24026761D01*
X77937809Y-23931523D01*
X77890190Y-23741047D01*
X77890190Y-23407714D01*
X77937809Y-23217238D01*
X78033047Y-23122000D01*
X78128285Y-23074380D01*
X78318761Y-23074380D01*
X78414000Y-23122000D01*
X78509238Y-23217238D01*
X78556857Y-23407714D01*
X78556857Y-23741047D01*
X78509238Y-23931523D01*
X78414000Y-24026761D01*
X78318761Y-24074380D01*
X78128285Y-24074380D01*
X78937809Y-23788666D02*
X79414000Y-23788666D01*
X78842571Y-24074380D02*
X79175904Y-23074380D01*
X79509238Y-24074380D01*
X80414000Y-24074380D02*
X80080666Y-23598190D01*
X79842571Y-24074380D02*
X79842571Y-23074380D01*
X80223523Y-23074380D01*
X80318761Y-23122000D01*
X80366380Y-23169619D01*
X80414000Y-23264857D01*
X80414000Y-23407714D01*
X80366380Y-23502952D01*
X80318761Y-23550571D01*
X80223523Y-23598190D01*
X79842571Y-23598190D01*
D12*
X75782714Y-85664523D02*
X75782714Y-84394523D01*
X77113190Y-85543571D02*
X77052714Y-85604047D01*
X76871285Y-85664523D01*
X76750333Y-85664523D01*
X76568904Y-85604047D01*
X76447952Y-85483095D01*
X76387476Y-85362142D01*
X76327000Y-85120238D01*
X76327000Y-84938809D01*
X76387476Y-84696904D01*
X76447952Y-84575952D01*
X76568904Y-84455000D01*
X76750333Y-84394523D01*
X76871285Y-84394523D01*
X77052714Y-84455000D01*
X77113190Y-84515476D01*
X77536523Y-84394523D02*
X78322714Y-84394523D01*
X77899380Y-84878333D01*
X78080809Y-84878333D01*
X78201761Y-84938809D01*
X78262238Y-84999285D01*
X78322714Y-85120238D01*
X78322714Y-85422619D01*
X78262238Y-85543571D01*
X78201761Y-85604047D01*
X78080809Y-85664523D01*
X77717952Y-85664523D01*
X77597000Y-85604047D01*
X77536523Y-85543571D01*
X79108904Y-84394523D02*
X79229857Y-84394523D01*
X79350809Y-84455000D01*
X79411285Y-84515476D01*
X79471761Y-84636428D01*
X79532238Y-84878333D01*
X79532238Y-85180714D01*
X79471761Y-85422619D01*
X79411285Y-85543571D01*
X79350809Y-85604047D01*
X79229857Y-85664523D01*
X79108904Y-85664523D01*
X78987952Y-85604047D01*
X78927476Y-85543571D01*
X78867000Y-85422619D01*
X78806523Y-85180714D01*
X78806523Y-84878333D01*
X78867000Y-84636428D01*
X78927476Y-84515476D01*
X78987952Y-84455000D01*
X79108904Y-84394523D01*
X80741761Y-85664523D02*
X80016047Y-85664523D01*
X80378904Y-85664523D02*
X80378904Y-84394523D01*
X80257952Y-84575952D01*
X80137000Y-84696904D01*
X80016047Y-84757380D01*
D10*
X75882760Y-70048380D02*
X75549427Y-69572190D01*
X75311332Y-70048380D02*
X75311332Y-69048380D01*
X75692284Y-69048380D01*
X75787522Y-69096000D01*
X75835141Y-69143619D01*
X75882760Y-69238857D01*
X75882760Y-69381714D01*
X75835141Y-69476952D01*
X75787522Y-69524571D01*
X75692284Y-69572190D01*
X75311332Y-69572190D01*
X76311332Y-70048380D02*
X76311332Y-69048380D01*
X76692284Y-69048380D01*
X76787522Y-69096000D01*
X76835141Y-69143619D01*
X76882760Y-69238857D01*
X76882760Y-69381714D01*
X76835141Y-69476952D01*
X76787522Y-69524571D01*
X76692284Y-69572190D01*
X76311332Y-69572190D01*
X77263713Y-69143619D02*
X77311332Y-69096000D01*
X77406570Y-69048380D01*
X77644665Y-69048380D01*
X77739903Y-69096000D01*
X77787522Y-69143619D01*
X77835141Y-69238857D01*
X77835141Y-69334095D01*
X77787522Y-69476952D01*
X77216094Y-70048380D01*
X77835141Y-70048380D01*
X78454189Y-69048380D02*
X78549427Y-69048380D01*
X78644665Y-69096000D01*
X78692284Y-69143619D01*
X78739903Y-69238857D01*
X78787522Y-69429333D01*
X78787522Y-69667428D01*
X78739903Y-69857904D01*
X78692284Y-69953142D01*
X78644665Y-70000761D01*
X78549427Y-70048380D01*
X78454189Y-70048380D01*
X78358951Y-70000761D01*
X78311332Y-69953142D01*
X78263713Y-69857904D01*
X78216094Y-69667428D01*
X78216094Y-69429333D01*
X78263713Y-69238857D01*
X78311332Y-69143619D01*
X78358951Y-69096000D01*
X78454189Y-69048380D01*
X79644665Y-69381714D02*
X79644665Y-70048380D01*
X79406570Y-69000761D02*
X79168475Y-69715047D01*
X79787522Y-69715047D01*
X80358951Y-69048380D02*
X80454189Y-69048380D01*
X80549427Y-69096000D01*
X80597046Y-69143619D01*
X80644665Y-69238857D01*
X80692284Y-69429333D01*
X80692284Y-69667428D01*
X80644665Y-69857904D01*
X80597046Y-69953142D01*
X80549427Y-70000761D01*
X80454189Y-70048380D01*
X80358951Y-70048380D01*
X80263713Y-70000761D01*
X80216094Y-69953142D01*
X80168475Y-69857904D01*
X80120856Y-69667428D01*
X80120856Y-69429333D01*
X80168475Y-69238857D01*
X80216094Y-69143619D01*
X80263713Y-69096000D01*
X80358951Y-69048380D01*
X92511619Y-68931404D02*
X92511619Y-68359976D01*
X92511619Y-68645690D02*
X93511619Y-68645690D01*
X93368761Y-68550452D01*
X93273523Y-68455214D01*
X93225904Y-68359976D01*
X92511619Y-69359976D02*
X93511619Y-69359976D01*
X92892571Y-69455214D02*
X92511619Y-69740928D01*
X93178285Y-69740928D02*
X92797333Y-69359976D01*
X93511619Y-71121880D02*
X93511619Y-71217119D01*
X93464000Y-71312357D01*
X93416380Y-71359976D01*
X93321142Y-71407595D01*
X93130666Y-71455214D01*
X92892571Y-71455214D01*
X92702095Y-71407595D01*
X92606857Y-71359976D01*
X92559238Y-71312357D01*
X92511619Y-71217119D01*
X92511619Y-71121880D01*
X92559238Y-71026642D01*
X92606857Y-70979023D01*
X92702095Y-70931404D01*
X92892571Y-70883785D01*
X93130666Y-70883785D01*
X93321142Y-70931404D01*
X93416380Y-70979023D01*
X93464000Y-71026642D01*
X93511619Y-71121880D01*
X93416380Y-71836166D02*
X93464000Y-71883785D01*
X93511619Y-71979023D01*
X93511619Y-72217119D01*
X93464000Y-72312357D01*
X93416380Y-72359976D01*
X93321142Y-72407595D01*
X93225904Y-72407595D01*
X93083047Y-72359976D01*
X92511619Y-71788547D01*
X92511619Y-72407595D01*
X93511619Y-73026642D02*
X93511619Y-73121880D01*
X93464000Y-73217119D01*
X93416380Y-73264738D01*
X93321142Y-73312357D01*
X93130666Y-73359976D01*
X92892571Y-73359976D01*
X92702095Y-73312357D01*
X92606857Y-73264738D01*
X92559238Y-73217119D01*
X92511619Y-73121880D01*
X92511619Y-73026642D01*
X92559238Y-72931404D01*
X92606857Y-72883785D01*
X92702095Y-72836166D01*
X92892571Y-72788547D01*
X93130666Y-72788547D01*
X93321142Y-72836166D01*
X93416380Y-72883785D01*
X93464000Y-72931404D01*
X93511619Y-73026642D01*
X92511619Y-74312357D02*
X92511619Y-73740928D01*
X92511619Y-74026642D02*
X93511619Y-74026642D01*
X93368761Y-73931404D01*
X93273523Y-73836166D01*
X93225904Y-73740928D01*
X93781619Y-68979023D02*
X94257809Y-68645690D01*
X93781619Y-68407595D02*
X94781619Y-68407595D01*
X94781619Y-68788547D01*
X94734000Y-68883785D01*
X94686380Y-68931404D01*
X94591142Y-68979023D01*
X94448285Y-68979023D01*
X94353047Y-68931404D01*
X94305428Y-68883785D01*
X94257809Y-68788547D01*
X94257809Y-68407595D01*
X94686380Y-69359976D02*
X94734000Y-69407595D01*
X94781619Y-69502833D01*
X94781619Y-69740928D01*
X94734000Y-69836166D01*
X94686380Y-69883785D01*
X94591142Y-69931404D01*
X94495904Y-69931404D01*
X94353047Y-69883785D01*
X93781619Y-69312357D01*
X93781619Y-69931404D01*
X94781619Y-70550452D02*
X94781619Y-70645690D01*
X94734000Y-70740928D01*
X94686380Y-70788547D01*
X94591142Y-70836166D01*
X94400666Y-70883785D01*
X94162571Y-70883785D01*
X93972095Y-70836166D01*
X93876857Y-70788547D01*
X93829238Y-70740928D01*
X93781619Y-70645690D01*
X93781619Y-70550452D01*
X93829238Y-70455214D01*
X93876857Y-70407595D01*
X93972095Y-70359976D01*
X94162571Y-70312357D01*
X94400666Y-70312357D01*
X94591142Y-70359976D01*
X94686380Y-70407595D01*
X94734000Y-70455214D01*
X94781619Y-70550452D01*
X93781619Y-71359976D02*
X93781619Y-71550452D01*
X93829238Y-71645690D01*
X93876857Y-71693309D01*
X94019714Y-71788547D01*
X94210190Y-71836166D01*
X94591142Y-71836166D01*
X94686380Y-71788547D01*
X94734000Y-71740928D01*
X94781619Y-71645690D01*
X94781619Y-71455214D01*
X94734000Y-71359976D01*
X94686380Y-71312357D01*
X94591142Y-71264738D01*
X94353047Y-71264738D01*
X94257809Y-71312357D01*
X94210190Y-71359976D01*
X94162571Y-71455214D01*
X94162571Y-71645690D01*
X94210190Y-71740928D01*
X94257809Y-71788547D01*
X94353047Y-71836166D01*
X93267785Y-25868380D02*
X92791595Y-25868380D01*
X92743976Y-26344571D01*
X92791595Y-26296952D01*
X92886833Y-26249333D01*
X93124928Y-26249333D01*
X93220166Y-26296952D01*
X93267785Y-26344571D01*
X93315404Y-26439809D01*
X93315404Y-26677904D01*
X93267785Y-26773142D01*
X93220166Y-26820761D01*
X93124928Y-26868380D01*
X92886833Y-26868380D01*
X92791595Y-26820761D01*
X92743976Y-26773142D01*
X93743976Y-26868380D02*
X93743976Y-25868380D01*
X93839214Y-26487428D02*
X94124928Y-26868380D01*
X94124928Y-26201714D02*
X93743976Y-26582666D01*
X95077309Y-26868380D02*
X94505880Y-26868380D01*
X94791595Y-26868380D02*
X94791595Y-25868380D01*
X94696357Y-26011238D01*
X94601119Y-26106476D01*
X94505880Y-26154095D01*
X96458261Y-25868380D02*
X96553500Y-25868380D01*
X96648738Y-25916000D01*
X96696357Y-25963619D01*
X96743976Y-26058857D01*
X96791595Y-26249333D01*
X96791595Y-26487428D01*
X96743976Y-26677904D01*
X96696357Y-26773142D01*
X96648738Y-26820761D01*
X96553500Y-26868380D01*
X96458261Y-26868380D01*
X96363023Y-26820761D01*
X96315404Y-26773142D01*
X96267785Y-26677904D01*
X96220166Y-26487428D01*
X96220166Y-26249333D01*
X96267785Y-26058857D01*
X96315404Y-25963619D01*
X96363023Y-25916000D01*
X96458261Y-25868380D01*
X97172547Y-25963619D02*
X97220166Y-25916000D01*
X97315404Y-25868380D01*
X97553500Y-25868380D01*
X97648738Y-25916000D01*
X97696357Y-25963619D01*
X97743976Y-26058857D01*
X97743976Y-26154095D01*
X97696357Y-26296952D01*
X97124928Y-26868380D01*
X97743976Y-26868380D01*
X98363023Y-25868380D02*
X98458261Y-25868380D01*
X98553500Y-25916000D01*
X98601119Y-25963619D01*
X98648738Y-26058857D01*
X98696357Y-26249333D01*
X98696357Y-26487428D01*
X98648738Y-26677904D01*
X98601119Y-26773142D01*
X98553500Y-26820761D01*
X98458261Y-26868380D01*
X98363023Y-26868380D01*
X98267785Y-26820761D01*
X98220166Y-26773142D01*
X98172547Y-26677904D01*
X98124928Y-26487428D01*
X98124928Y-26249333D01*
X98172547Y-26058857D01*
X98220166Y-25963619D01*
X98267785Y-25916000D01*
X98363023Y-25868380D01*
X99648738Y-26868380D02*
X99077309Y-26868380D01*
X99363023Y-26868380D02*
X99363023Y-25868380D01*
X99267785Y-26011238D01*
X99172547Y-26106476D01*
X99077309Y-26154095D01*
X93363023Y-25598380D02*
X93029690Y-25122190D01*
X92791595Y-25598380D02*
X92791595Y-24598380D01*
X93172547Y-24598380D01*
X93267785Y-24646000D01*
X93315404Y-24693619D01*
X93363023Y-24788857D01*
X93363023Y-24931714D01*
X93315404Y-25026952D01*
X93267785Y-25074571D01*
X93172547Y-25122190D01*
X92791595Y-25122190D01*
X93743976Y-24693619D02*
X93791595Y-24646000D01*
X93886833Y-24598380D01*
X94124928Y-24598380D01*
X94220166Y-24646000D01*
X94267785Y-24693619D01*
X94315404Y-24788857D01*
X94315404Y-24884095D01*
X94267785Y-25026952D01*
X93696357Y-25598380D01*
X94315404Y-25598380D01*
X94934452Y-24598380D02*
X95029690Y-24598380D01*
X95124928Y-24646000D01*
X95172547Y-24693619D01*
X95220166Y-24788857D01*
X95267785Y-24979333D01*
X95267785Y-25217428D01*
X95220166Y-25407904D01*
X95172547Y-25503142D01*
X95124928Y-25550761D01*
X95029690Y-25598380D01*
X94934452Y-25598380D01*
X94839214Y-25550761D01*
X94791595Y-25503142D01*
X94743976Y-25407904D01*
X94696357Y-25217428D01*
X94696357Y-24979333D01*
X94743976Y-24788857D01*
X94791595Y-24693619D01*
X94839214Y-24646000D01*
X94934452Y-24598380D01*
X95601119Y-24598380D02*
X96267785Y-24598380D01*
X95839214Y-25598380D01*
X92100001Y-23075580D02*
X92100001Y-23313676D01*
X91861905Y-23218438D02*
X92100001Y-23313676D01*
X92338096Y-23218438D01*
X91957143Y-23504152D02*
X92100001Y-23313676D01*
X92242858Y-23504152D01*
X72931809Y-62903572D02*
X72527748Y-62499511D01*
X72729778Y-62701542D02*
X73436885Y-61994435D01*
X73268526Y-62028107D01*
X73133839Y-62028107D01*
X73032824Y-61994435D01*
X74076648Y-62634198D02*
X74143992Y-62701542D01*
X74177664Y-62802557D01*
X74177664Y-62869900D01*
X74143992Y-62970916D01*
X74042977Y-63139274D01*
X73874618Y-63307633D01*
X73706259Y-63408648D01*
X73605244Y-63442320D01*
X73537900Y-63442320D01*
X73436885Y-63408648D01*
X73369542Y-63341305D01*
X73335870Y-63240290D01*
X73335870Y-63172946D01*
X73369542Y-63071931D01*
X73470557Y-62903572D01*
X73638916Y-62735213D01*
X73807274Y-62634198D01*
X73908290Y-62600526D01*
X73975633Y-62600526D01*
X74076648Y-62634198D01*
X73908290Y-63880053D02*
X74615396Y-63172946D01*
X74245007Y-63678022D02*
X74177664Y-64149427D01*
X74649068Y-63678022D02*
X74110320Y-63678022D01*
X75861251Y-64418801D02*
X75928595Y-64486144D01*
X75962266Y-64587160D01*
X75962266Y-64654503D01*
X75928595Y-64755518D01*
X75827579Y-64923877D01*
X75659221Y-65092236D01*
X75490862Y-65193251D01*
X75389847Y-65226923D01*
X75322503Y-65226923D01*
X75221488Y-65193251D01*
X75154144Y-65125908D01*
X75120473Y-65024892D01*
X75120473Y-64957549D01*
X75154144Y-64856534D01*
X75255160Y-64688175D01*
X75423518Y-64519816D01*
X75591877Y-64418801D01*
X75692892Y-64385129D01*
X75760236Y-64385129D01*
X75861251Y-64418801D01*
X76298984Y-64991221D02*
X76366327Y-64991221D01*
X76467343Y-65024892D01*
X76635701Y-65193251D01*
X76669373Y-65294266D01*
X76669373Y-65361610D01*
X76635701Y-65462625D01*
X76568358Y-65529969D01*
X76433671Y-65597312D01*
X75625549Y-65597312D01*
X76063282Y-66035045D01*
X77208121Y-65765671D02*
X77275465Y-65833014D01*
X77309136Y-65934030D01*
X77309136Y-66001373D01*
X77275465Y-66102388D01*
X77174449Y-66270747D01*
X77006091Y-66439106D01*
X76837732Y-66540121D01*
X76736717Y-66573793D01*
X76669373Y-66573793D01*
X76568358Y-66540121D01*
X76501014Y-66472778D01*
X76467343Y-66371762D01*
X76467343Y-66304419D01*
X76501014Y-66203404D01*
X76602030Y-66035045D01*
X76770388Y-65866686D01*
X76938747Y-65765671D01*
X77039762Y-65731999D01*
X77107106Y-65731999D01*
X77208121Y-65765671D01*
X77410152Y-67381915D02*
X77006091Y-66977854D01*
X77208121Y-67179885D02*
X77915228Y-66472778D01*
X77746869Y-66506449D01*
X77612182Y-66506449D01*
X77511167Y-66472778D01*
X74743481Y-62683244D02*
X74844496Y-62110824D01*
X74339420Y-62279183D02*
X75046526Y-61572076D01*
X75315900Y-61841450D01*
X75349572Y-61942465D01*
X75349572Y-62009809D01*
X75315900Y-62110824D01*
X75214885Y-62211839D01*
X75113870Y-62245511D01*
X75046526Y-62245511D01*
X74945511Y-62211839D01*
X74676137Y-61942465D01*
X75652618Y-62312855D02*
X75719961Y-62312855D01*
X75820977Y-62346526D01*
X75989335Y-62514885D01*
X76023007Y-62615900D01*
X76023007Y-62683244D01*
X75989335Y-62784259D01*
X75921992Y-62851603D01*
X75787305Y-62918946D01*
X74979183Y-62918946D01*
X75416916Y-63356679D01*
X76561755Y-63087305D02*
X76629099Y-63154648D01*
X76662770Y-63255664D01*
X76662770Y-63323007D01*
X76629099Y-63424022D01*
X76528083Y-63592381D01*
X76359725Y-63760740D01*
X76191366Y-63861755D01*
X76090351Y-63895427D01*
X76023007Y-63895427D01*
X75921992Y-63861755D01*
X75854648Y-63794412D01*
X75820977Y-63693396D01*
X75820977Y-63626053D01*
X75854648Y-63525038D01*
X75955664Y-63356679D01*
X76124022Y-63188320D01*
X76292381Y-63087305D01*
X76393396Y-63053633D01*
X76460740Y-63053633D01*
X76561755Y-63087305D01*
X77437221Y-63962770D02*
X77100503Y-63626053D01*
X76730114Y-63929099D01*
X76797457Y-63929099D01*
X76898473Y-63962770D01*
X77066831Y-64131129D01*
X77100503Y-64232144D01*
X77100503Y-64299488D01*
X77066831Y-64400503D01*
X76898473Y-64568862D01*
X76797457Y-64602534D01*
X76730114Y-64602534D01*
X76629099Y-64568862D01*
X76460740Y-64400503D01*
X76427068Y-64299488D01*
X76427068Y-64232144D01*
X96972380Y-58961976D02*
X97020000Y-59009595D01*
X97067619Y-59104833D01*
X97067619Y-59342928D01*
X97020000Y-59438166D01*
X96972380Y-59485785D01*
X96877142Y-59533404D01*
X96781904Y-59533404D01*
X96639047Y-59485785D01*
X96067619Y-58914357D01*
X96067619Y-59533404D01*
X97067619Y-59866738D02*
X97067619Y-60533404D01*
X96067619Y-60104833D01*
X96067619Y-60866738D02*
X96067619Y-61104833D01*
X96258095Y-61104833D01*
X96305714Y-61009595D01*
X96400952Y-60914357D01*
X96543809Y-60866738D01*
X96781904Y-60866738D01*
X96924761Y-60914357D01*
X97020000Y-61009595D01*
X97067619Y-61152452D01*
X97067619Y-61342928D01*
X97020000Y-61485785D01*
X96924761Y-61581023D01*
X96781904Y-61628642D01*
X96543809Y-61628642D01*
X96400952Y-61581023D01*
X96305714Y-61485785D01*
X96258095Y-61390547D01*
X96067619Y-61390547D01*
X96067619Y-61628642D01*
X97067619Y-63009595D02*
X97067619Y-63104833D01*
X97020000Y-63200071D01*
X96972380Y-63247690D01*
X96877142Y-63295309D01*
X96686666Y-63342928D01*
X96448571Y-63342928D01*
X96258095Y-63295309D01*
X96162857Y-63247690D01*
X96115238Y-63200071D01*
X96067619Y-63104833D01*
X96067619Y-63009595D01*
X96115238Y-62914357D01*
X96162857Y-62866738D01*
X96258095Y-62819119D01*
X96448571Y-62771500D01*
X96686666Y-62771500D01*
X96877142Y-62819119D01*
X96972380Y-62866738D01*
X97020000Y-62914357D01*
X97067619Y-63009595D01*
X96972380Y-63723880D02*
X97020000Y-63771500D01*
X97067619Y-63866738D01*
X97067619Y-64104833D01*
X97020000Y-64200071D01*
X96972380Y-64247690D01*
X96877142Y-64295309D01*
X96781904Y-64295309D01*
X96639047Y-64247690D01*
X96067619Y-63676261D01*
X96067619Y-64295309D01*
X97067619Y-64914357D02*
X97067619Y-65009595D01*
X97020000Y-65104833D01*
X96972380Y-65152452D01*
X96877142Y-65200071D01*
X96686666Y-65247690D01*
X96448571Y-65247690D01*
X96258095Y-65200071D01*
X96162857Y-65152452D01*
X96115238Y-65104833D01*
X96067619Y-65009595D01*
X96067619Y-64914357D01*
X96115238Y-64819119D01*
X96162857Y-64771500D01*
X96258095Y-64723880D01*
X96448571Y-64676261D01*
X96686666Y-64676261D01*
X96877142Y-64723880D01*
X96972380Y-64771500D01*
X97020000Y-64819119D01*
X97067619Y-64914357D01*
X96067619Y-66200071D02*
X96067619Y-65628642D01*
X96067619Y-65914357D02*
X97067619Y-65914357D01*
X96924761Y-65819119D01*
X96829523Y-65723880D01*
X96781904Y-65628642D01*
X94797619Y-59581023D02*
X95273809Y-59247690D01*
X94797619Y-59009595D02*
X95797619Y-59009595D01*
X95797619Y-59390547D01*
X95750000Y-59485785D01*
X95702380Y-59533404D01*
X95607142Y-59581023D01*
X95464285Y-59581023D01*
X95369047Y-59533404D01*
X95321428Y-59485785D01*
X95273809Y-59390547D01*
X95273809Y-59009595D01*
X95702380Y-59961976D02*
X95750000Y-60009595D01*
X95797619Y-60104833D01*
X95797619Y-60342928D01*
X95750000Y-60438166D01*
X95702380Y-60485785D01*
X95607142Y-60533404D01*
X95511904Y-60533404D01*
X95369047Y-60485785D01*
X94797619Y-59914357D01*
X94797619Y-60533404D01*
X95797619Y-61152452D02*
X95797619Y-61247690D01*
X95750000Y-61342928D01*
X95702380Y-61390547D01*
X95607142Y-61438166D01*
X95416666Y-61485785D01*
X95178571Y-61485785D01*
X94988095Y-61438166D01*
X94892857Y-61390547D01*
X94845238Y-61342928D01*
X94797619Y-61247690D01*
X94797619Y-61152452D01*
X94845238Y-61057214D01*
X94892857Y-61009595D01*
X94988095Y-60961976D01*
X95178571Y-60914357D01*
X95416666Y-60914357D01*
X95607142Y-60961976D01*
X95702380Y-61009595D01*
X95750000Y-61057214D01*
X95797619Y-61152452D01*
X95702380Y-61866738D02*
X95750000Y-61914357D01*
X95797619Y-62009595D01*
X95797619Y-62247690D01*
X95750000Y-62342928D01*
X95702380Y-62390547D01*
X95607142Y-62438166D01*
X95511904Y-62438166D01*
X95369047Y-62390547D01*
X94797619Y-61819119D01*
X94797619Y-62438166D01*
D13*
X87560000Y-92645000D02*
X85160000Y-92645000D01*
X85160000Y-92645000D02*
X85160000Y-90235000D01*
X85160000Y-90235000D02*
X87560000Y-90235000D01*
X87560000Y-90235000D02*
X87560000Y-92645000D01*
X87560000Y-133947602D02*
X85160000Y-133947602D01*
X85160000Y-133947602D02*
X85160000Y-131537602D01*
X85160000Y-131537602D02*
X87560000Y-131537602D01*
X87560000Y-131537602D02*
X87560000Y-133947602D01*
X87560000Y-171495422D02*
X85160000Y-171495422D01*
X85160000Y-171495422D02*
X85160000Y-169085422D01*
X85160000Y-169085422D02*
X87560000Y-169085422D01*
X87560000Y-169085422D02*
X87560000Y-171495422D01*
X87560000Y-167740640D02*
X85160000Y-167740640D01*
X85160000Y-167740640D02*
X85160000Y-165330640D01*
X85160000Y-165330640D02*
X87560000Y-165330640D01*
X87560000Y-165330640D02*
X87560000Y-167740640D01*
X87560000Y-156476294D02*
X85160000Y-156476294D01*
X85160000Y-156476294D02*
X85160000Y-154066294D01*
X85160000Y-154066294D02*
X87560000Y-154066294D01*
X87560000Y-154066294D02*
X87560000Y-156476294D01*
X87560000Y-96399782D02*
X85160000Y-96399782D01*
X85160000Y-96399782D02*
X85160000Y-93989782D01*
X85160000Y-93989782D02*
X87560000Y-93989782D01*
X87560000Y-93989782D02*
X87560000Y-96399782D01*
X87560000Y-152721512D02*
X85160000Y-152721512D01*
X85160000Y-152721512D02*
X85160000Y-150311512D01*
X85160000Y-150311512D02*
X87560000Y-150311512D01*
X87560000Y-150311512D02*
X87560000Y-152721512D01*
X87560000Y-148966730D02*
X85160000Y-148966730D01*
X85160000Y-148966730D02*
X85160000Y-146556730D01*
X85160000Y-146556730D02*
X87560000Y-146556730D01*
X87560000Y-146556730D02*
X87560000Y-148966730D01*
X87560000Y-122683256D02*
X85160000Y-122683256D01*
X85160000Y-122683256D02*
X85160000Y-120273256D01*
X85160000Y-120273256D02*
X87560000Y-120273256D01*
X87560000Y-120273256D02*
X87560000Y-122683256D01*
X87560000Y-160231076D02*
X85160000Y-160231076D01*
X85160000Y-160231076D02*
X85160000Y-157821076D01*
X85160000Y-157821076D02*
X87560000Y-157821076D01*
X87560000Y-157821076D02*
X87560000Y-160231076D01*
X87560000Y-100154564D02*
X85160000Y-100154564D01*
X85160000Y-100154564D02*
X85160000Y-97744564D01*
X85160000Y-97744564D02*
X87560000Y-97744564D01*
X87560000Y-97744564D02*
X87560000Y-100154564D01*
X87560000Y-163985858D02*
X85160000Y-163985858D01*
X85160000Y-163985858D02*
X85160000Y-161575858D01*
X85160000Y-161575858D02*
X87560000Y-161575858D01*
X87560000Y-161575858D02*
X87560000Y-163985858D01*
X87560000Y-130192820D02*
X85160000Y-130192820D01*
X85160000Y-130192820D02*
X85160000Y-127782820D01*
X85160000Y-127782820D02*
X87560000Y-127782820D01*
X87560000Y-127782820D02*
X87560000Y-130192820D01*
X87560000Y-175250204D02*
X85160000Y-175250204D01*
X85160000Y-175250204D02*
X85160000Y-172840204D01*
X85160000Y-172840204D02*
X87560000Y-172840204D01*
X87560000Y-172840204D02*
X87560000Y-175250204D01*
X87560011Y-111418904D02*
X85160011Y-111418904D01*
X85160011Y-111418904D02*
X85160011Y-109008904D01*
X85160011Y-109008904D02*
X87560011Y-109008904D01*
X87560011Y-109008904D02*
X87560011Y-111418904D01*
X87560000Y-179004986D02*
X85160000Y-179004986D01*
X85160000Y-179004986D02*
X85160000Y-176594986D01*
X85160000Y-176594986D02*
X87560000Y-176594986D01*
X87560000Y-176594986D02*
X87560000Y-179004986D01*
X87560000Y-141457166D02*
X85160000Y-141457166D01*
X85160000Y-141457166D02*
X85160000Y-139047166D01*
X85160000Y-139047166D02*
X87560000Y-139047166D01*
X87560000Y-139047166D02*
X87560000Y-141457166D01*
X87560011Y-107664124D02*
X85160011Y-107664124D01*
X85160011Y-107664124D02*
X85160011Y-105254124D01*
X85160011Y-105254124D02*
X87560011Y-105254124D01*
X87560011Y-105254124D02*
X87560011Y-107664124D01*
X87560000Y-145211948D02*
X85160000Y-145211948D01*
X85160000Y-145211948D02*
X85160000Y-142801948D01*
X85160000Y-142801948D02*
X87560000Y-142801948D01*
X87560000Y-142801948D02*
X87560000Y-145211948D01*
X87560000Y-137702384D02*
X85160000Y-137702384D01*
X85160000Y-137702384D02*
X85160000Y-135292384D01*
X85160000Y-135292384D02*
X87560000Y-135292384D01*
X87560000Y-135292384D02*
X87560000Y-137702384D01*
X87560000Y-126438038D02*
X85160000Y-126438038D01*
X85160000Y-126438038D02*
X85160000Y-124028038D01*
X85160000Y-124028038D02*
X87560000Y-124028038D01*
X87560000Y-124028038D02*
X87560000Y-126438038D01*
X87560000Y-118928474D02*
X85160000Y-118928474D01*
X85160000Y-118928474D02*
X85160000Y-116518474D01*
X85160000Y-116518474D02*
X87560000Y-116518474D01*
X87560000Y-116518474D02*
X87560000Y-118928474D01*
X87560000Y-103909346D02*
X85160000Y-103909346D01*
X85160000Y-103909346D02*
X85160000Y-101499346D01*
X85160000Y-101499346D02*
X87560000Y-101499346D01*
X87560000Y-101499346D02*
X87560000Y-103909346D01*
X87560000Y-115173692D02*
X85160000Y-115173692D01*
X85160000Y-115173692D02*
X85160000Y-112763692D01*
X85160000Y-112763692D02*
X87560000Y-112763692D01*
X87560000Y-112763692D02*
X87560000Y-115173692D01*
D14*
X83810000Y-56005000D02*
X88910000Y-56005000D01*
X83810000Y-62105000D02*
X88910000Y-62105000D01*
X83810000Y-62105000D02*
X83810000Y-56005000D01*
X88910000Y-62105000D02*
X88910000Y-56005000D01*
D15*
X84555000Y-63140000D02*
G75*
G03*
X84555000Y-63140000I-100000J0D01*
G01*
D16*
X83654900Y-58648600D02*
X83654900Y-55651400D01*
X81445100Y-58648600D02*
X83654900Y-58648600D01*
X81445100Y-55651400D02*
X81445100Y-58648600D01*
X83654900Y-55651400D02*
X81445100Y-55651400D01*
X83654900Y-56845200D02*
G75*
G03*
X83654900Y-57454800I0J-304800D01*
G01*
X82626200Y-55753000D02*
G75*
G03*
X82626200Y-55753000I-76200J0D01*
G01*
D11*
X81250000Y-53125000D02*
X83850000Y-53125000D01*
X81250000Y-54825000D02*
X81250000Y-53125000D01*
X83850000Y-54825000D02*
X81250000Y-54825000D01*
X83850000Y-53125000D02*
X83850000Y-54825000D01*
D16*
X83654900Y-43408600D02*
X83654900Y-40411400D01*
X81445100Y-40411400D02*
X81445100Y-43408600D01*
X83654900Y-40411400D02*
X81445100Y-40411400D01*
X81445100Y-43408600D02*
X83654900Y-43408600D01*
X81445100Y-42214800D02*
G75*
G03*
X81445100Y-41605200I0J304800D01*
G01*
X82626200Y-43307000D02*
G75*
G03*
X82626200Y-43307000I-76200J0D01*
G01*
D14*
X87910000Y-74900000D02*
X87910000Y-77500000D01*
X87910000Y-77500000D02*
X84810000Y-77500000D01*
X84810000Y-74900000D02*
X87910000Y-74900000D01*
X84810000Y-77500000D02*
X84810000Y-74900000D01*
D16*
X84310000Y-75200000D02*
G75*
G03*
X84310000Y-75200000I-50000J0D01*
G01*
D11*
X88168000Y-79336000D02*
X85568000Y-79336000D01*
X85568000Y-79336000D02*
X85568000Y-77636000D01*
X85568000Y-77636000D02*
X88168000Y-77636000D01*
X88168000Y-77636000D02*
X88168000Y-79336000D01*
D14*
X85060000Y-25256400D02*
X87660000Y-25256400D01*
X85060000Y-26356400D02*
X85060000Y-25256400D01*
X87660000Y-26356400D02*
X85060000Y-26356400D01*
X87660000Y-25256400D02*
X87660000Y-26356400D01*
D17*
X87630000Y-24706400D02*
G75*
G03*
X87630000Y-24706400I-70000J0D01*
G01*
D16*
X85360000Y-86240000D02*
X85360000Y-83940000D01*
X87360000Y-83940000D02*
X87360000Y-86240000D01*
X85860000Y-86240000D02*
X85360000Y-85740000D01*
X87360000Y-86240000D02*
X85360000Y-86240000D01*
X85360000Y-83940000D02*
X87360000Y-83940000D01*
D14*
X86360000Y-73529747D02*
X81410253Y-68580000D01*
X81410253Y-68580000D02*
X86360000Y-63630253D01*
X86360000Y-73529747D02*
X91309747Y-68580000D01*
X91309747Y-68580000D02*
X86360000Y-63630253D01*
D15*
X85134174Y-63577220D02*
G75*
G03*
X85134174Y-63577220I-99999J0D01*
G01*
D16*
X86360000Y-23698200D02*
X86360000Y-23698200D01*
X86360000Y-23698200D02*
X86360000Y-23698200D01*
X90830400Y-23698200D02*
X90830400Y-16941800D01*
X86360000Y-23698200D02*
X86360000Y-23698200D01*
X81889600Y-23698200D02*
X90830400Y-23698200D01*
X90830400Y-16941800D02*
X81889600Y-16941800D01*
X86360000Y-23698200D02*
X86360000Y-23698200D01*
X81889600Y-16941800D02*
X81889600Y-23698200D01*
M02*
