M48
METRIC,TZ
T1C0.200
T2C0.600
T3C1.000
%
G90
G05
T1
X81788Y-25603
X81870Y-74676
X82042Y-53086
X82271Y-74041
X82290Y-24708
X82290Y-64990
X82300Y-63960
X82550Y-39446
X82550Y-44374
X82601Y-72136
X82804Y-65862
X82829Y-25730
X82956Y-71349
X83058Y-53086
X83363Y-25273
X83414Y-65456
X83668Y-69113
X83730Y-73260
X83760Y-72510
X83871Y-24765
X83922Y-25730
X84740Y-70160
X84836Y-31242
X84836Y-32258
X84836Y-52070
X84836Y-52984
X84836Y-53848
X84836Y-66548
X84890Y-29680
X85369Y-66040
X85480Y-67680
X85585Y-29035
X85801Y-65456
X85979Y-36576
X86360Y-72136
X86360Y-75997
X86360Y-79375
X86360Y-80874
X86360Y-84353
X86360Y-85090
X86360Y-85827
X86360Y-90068
X86360Y-92812
X86360Y-93828
X86360Y-96622
X86360Y-97587
X86360Y-100330
X86360Y-101346
X86360Y-104089
X86360Y-105105
X86360Y-107848
X86360Y-108814
X86360Y-111608
X86360Y-112573
X86360Y-115367
X86360Y-116332
X86360Y-119126
X86360Y-120091
X86360Y-122885
X86360Y-123850
X86360Y-126644
X86360Y-127610
X86360Y-130404
X86360Y-131369
X86360Y-134163
X86360Y-135128
X86360Y-137922
X86360Y-138887
X86360Y-141630
X86360Y-142646
X86360Y-145390
X86360Y-146406
X86360Y-149149
X86360Y-150114
X86360Y-152908
X86360Y-153873
X86360Y-156667
X86360Y-157632
X86360Y-160426
X86360Y-161392
X86360Y-164186
X86360Y-165151
X86360Y-167945
X86360Y-168910
X86360Y-171704
X86360Y-172669
X86360Y-175463
X86360Y-176428
X86360Y-179172
X86368Y-78482
X86370Y-68570
X86371Y-80137
X86430Y-73700
X86760Y-50050
X87020Y-65888
X87077Y-71309
X87122Y-57912
X87122Y-60198
X87290Y-69470
X87460Y-50050
X87880Y-70750
X88011Y-31242
X88011Y-32258
X88070Y-72820
X88443Y-67005
X88494Y-63525
X88580Y-70030
X88843Y-26791
X89002Y-64059
X89040Y-72650
X89052Y-69418
X89103Y-68326
X89480Y-73450
X89484Y-64618
X89586Y-65405
X89586Y-68885
X90100Y-71050
X90226Y-64224
X90322Y-24663
X90551Y-25654
X90830Y-70206
X90926Y-64224
T3
X82550Y-27940
X82550Y-30480
X82550Y-33020
X82550Y-35560
X82550Y-38100
X82550Y-45720
X82550Y-60960
X82550Y-76200
X82550Y-91440
X82550Y-106680
X82550Y-121920
X82550Y-137160
X82550Y-152400
X82550Y-167640
X82550Y-175260
X82550Y-177800
X90170Y-27940
X90170Y-30480
X90170Y-33020
X90170Y-35560
X90170Y-38100
X90170Y-45720
X90170Y-60960
X90170Y-76200
X90170Y-91440
X90170Y-106680
X90170Y-121920
X90170Y-137160
X90170Y-152400
X90170Y-167640
X90170Y-175260
X90170Y-177800
T2
X82040Y-19648G85X82040Y-18448
G05
X82040Y-23448G85X82040Y-22648
G05
X90680Y-19648G85X90680Y-18448
G05
X90680Y-23448G85X90680Y-22648
G05
T0
M30
