G04 #@! TF.GenerationSoftware,KiCad,Pcbnew,(6.0.6)*
G04 #@! TF.CreationDate,2023-03-09T12:55:27-07:00*
G04 #@! TF.ProjectId,RP2040-Breadstick,52503230-3430-42d4-9272-656164737469,0.1*
G04 #@! TF.SameCoordinates,Original*
G04 #@! TF.FileFunction,Legend,Top*
G04 #@! TF.FilePolarity,Positive*
%FSLAX46Y46*%
G04 Gerber Fmt 4.6, Leading zero omitted, Abs format (unit mm)*
G04 Created by KiCad (PCBNEW (6.0.6)) date 2023-03-09 12:55:27*
%MOMM*%
%LPD*%
G01*
G04 APERTURE LIST*
%ADD10C,0.150000*%
%ADD11C,0.202000*%
%ADD12C,0.329000*%
%ADD13C,0.300000*%
%ADD14C,0.212500*%
%ADD15C,0.127000*%
%ADD16C,0.010000*%
%ADD17C,0.140000*%
%ADD18C,0.120000*%
G04 APERTURE END LIST*
D10*
X88265000Y-83820000D02*
X90297000Y-83820000D01*
G36*
X90805000Y-83820000D02*
G01*
X90297000Y-84074000D01*
X90297000Y-83566000D01*
X90805000Y-83820000D01*
G37*
X90805000Y-83820000D02*
X90297000Y-84074000D01*
X90297000Y-83566000D01*
X90805000Y-83820000D01*
G36*
X84582000Y-83820000D02*
G01*
X84074000Y-84074000D01*
X84074000Y-83566000D01*
X84582000Y-83820000D01*
G37*
X84582000Y-83820000D02*
X84074000Y-84074000D01*
X84074000Y-83566000D01*
X84582000Y-83820000D01*
D11*
X85902200Y-63703200D02*
G75*
G03*
X85902200Y-63703200I-101000J0D01*
G01*
D10*
X88265000Y-81026000D02*
X88265000Y-83820000D01*
D11*
X84361000Y-75438000D02*
G75*
G03*
X84361000Y-75438000I-101000J0D01*
G01*
D10*
G36*
X82296000Y-81026000D02*
G01*
X81788000Y-81026000D01*
X82042000Y-80518000D01*
X82296000Y-81026000D01*
G37*
X82296000Y-81026000D02*
X81788000Y-81026000D01*
X82042000Y-80518000D01*
X82296000Y-81026000D01*
X82042000Y-83820000D02*
X84074000Y-83820000D01*
D12*
X82206500Y-83820000D02*
G75*
G03*
X82206500Y-83820000I-164500J0D01*
G01*
D10*
X82042000Y-81026000D02*
X82042000Y-83820000D01*
G36*
X88519000Y-81026000D02*
G01*
X88011000Y-81026000D01*
X88265000Y-80518000D01*
X88519000Y-81026000D01*
G37*
X88519000Y-81026000D02*
X88011000Y-81026000D01*
X88265000Y-80518000D01*
X88519000Y-81026000D01*
D11*
X85699000Y-87503000D02*
G75*
G03*
X85699000Y-87503000I-101000J0D01*
G01*
X84581400Y-62738000D02*
G75*
G03*
X84581400Y-62738000I-101000J0D01*
G01*
D12*
X88429500Y-83820000D02*
G75*
G03*
X88429500Y-83820000I-164500J0D01*
G01*
D13*
X89217619Y-47059523D02*
X89277142Y-47000000D01*
X89396190Y-46940476D01*
X89693809Y-46940476D01*
X89812857Y-47000000D01*
X89872380Y-47059523D01*
X89931904Y-47178571D01*
X89931904Y-47297619D01*
X89872380Y-47476190D01*
X89158095Y-48190476D01*
X89931904Y-48190476D01*
X90527142Y-48190476D02*
X90765238Y-48190476D01*
X90884285Y-48130952D01*
X90943809Y-48071428D01*
X91062857Y-47892857D01*
X91122380Y-47654761D01*
X91122380Y-47178571D01*
X91062857Y-47059523D01*
X91003333Y-47000000D01*
X90884285Y-46940476D01*
X90646190Y-46940476D01*
X90527142Y-47000000D01*
X90467619Y-47059523D01*
X90408095Y-47178571D01*
X90408095Y-47476190D01*
X90467619Y-47595238D01*
X90527142Y-47654761D01*
X90646190Y-47714285D01*
X90884285Y-47714285D01*
X91003333Y-47654761D01*
X91062857Y-47595238D01*
X91122380Y-47476190D01*
X86121904Y-161542934D02*
X85407619Y-161542934D01*
X85764761Y-161542934D02*
X85764761Y-160292934D01*
X85645714Y-160471505D01*
X85526666Y-160590553D01*
X85407619Y-160650077D01*
X86717142Y-161542934D02*
X86955238Y-161542934D01*
X87074285Y-161483410D01*
X87133809Y-161423886D01*
X87252857Y-161245315D01*
X87312380Y-161007219D01*
X87312380Y-160531029D01*
X87252857Y-160411981D01*
X87193333Y-160352458D01*
X87074285Y-160292934D01*
X86836190Y-160292934D01*
X86717142Y-160352458D01*
X86657619Y-160411981D01*
X86598095Y-160531029D01*
X86598095Y-160828648D01*
X86657619Y-160947696D01*
X86717142Y-161007219D01*
X86836190Y-161066743D01*
X87074285Y-161066743D01*
X87193333Y-161007219D01*
X87252857Y-160947696D01*
X87312380Y-160828648D01*
X86121904Y-135259460D02*
X85407619Y-135259460D01*
X85764761Y-135259460D02*
X85764761Y-134009460D01*
X85645714Y-134188031D01*
X85526666Y-134307079D01*
X85407619Y-134366603D01*
X86598095Y-134128507D02*
X86657619Y-134068984D01*
X86776666Y-134009460D01*
X87074285Y-134009460D01*
X87193333Y-134068984D01*
X87252857Y-134128507D01*
X87312380Y-134247555D01*
X87312380Y-134366603D01*
X87252857Y-134545174D01*
X86538571Y-135259460D01*
X87312380Y-135259460D01*
X88582619Y-172730000D02*
X88463571Y-172670476D01*
X88285000Y-172670476D01*
X88106428Y-172730000D01*
X87987380Y-172849047D01*
X87927857Y-172968095D01*
X87868333Y-173206190D01*
X87868333Y-173384761D01*
X87927857Y-173622857D01*
X87987380Y-173741904D01*
X88106428Y-173860952D01*
X88285000Y-173920476D01*
X88404047Y-173920476D01*
X88582619Y-173860952D01*
X88642142Y-173801428D01*
X88642142Y-173384761D01*
X88404047Y-173384761D01*
X89177857Y-173920476D02*
X89177857Y-172670476D01*
X89892142Y-173920476D01*
X89892142Y-172670476D01*
X90487380Y-173920476D02*
X90487380Y-172670476D01*
X90785000Y-172670476D01*
X90963571Y-172730000D01*
X91082619Y-172849047D01*
X91142142Y-172968095D01*
X91201666Y-173206190D01*
X91201666Y-173384761D01*
X91142142Y-173622857D01*
X91082619Y-173741904D01*
X90963571Y-173860952D01*
X90785000Y-173920476D01*
X90487380Y-173920476D01*
X86300476Y-88952076D02*
X86419523Y-88952076D01*
X86538571Y-89011600D01*
X86598095Y-89071123D01*
X86657619Y-89190171D01*
X86717142Y-89428266D01*
X86717142Y-89725885D01*
X86657619Y-89963980D01*
X86598095Y-90083028D01*
X86538571Y-90142552D01*
X86419523Y-90202076D01*
X86300476Y-90202076D01*
X86181428Y-90142552D01*
X86121904Y-90083028D01*
X86062380Y-89963980D01*
X86002857Y-89725885D01*
X86002857Y-89428266D01*
X86062380Y-89190171D01*
X86121904Y-89071123D01*
X86181428Y-89011600D01*
X86300476Y-88952076D01*
X89217619Y-92779523D02*
X89277142Y-92720000D01*
X89396190Y-92660476D01*
X89693809Y-92660476D01*
X89812857Y-92720000D01*
X89872380Y-92779523D01*
X89931904Y-92898571D01*
X89931904Y-93017619D01*
X89872380Y-93196190D01*
X89158095Y-93910476D01*
X89931904Y-93910476D01*
X91003333Y-92660476D02*
X90765238Y-92660476D01*
X90646190Y-92720000D01*
X90586666Y-92779523D01*
X90467619Y-92958095D01*
X90408095Y-93196190D01*
X90408095Y-93672380D01*
X90467619Y-93791428D01*
X90527142Y-93850952D01*
X90646190Y-93910476D01*
X90884285Y-93910476D01*
X91003333Y-93850952D01*
X91062857Y-93791428D01*
X91122380Y-93672380D01*
X91122380Y-93374761D01*
X91062857Y-93255714D01*
X91003333Y-93196190D01*
X90884285Y-93136666D01*
X90646190Y-93136666D01*
X90527142Y-93196190D01*
X90467619Y-93255714D01*
X90408095Y-93374761D01*
X84812380Y-34875476D02*
X85586190Y-34875476D01*
X85169523Y-35351666D01*
X85348095Y-35351666D01*
X85467142Y-35411190D01*
X85526666Y-35470714D01*
X85586190Y-35589761D01*
X85586190Y-35887380D01*
X85526666Y-36006428D01*
X85467142Y-36065952D01*
X85348095Y-36125476D01*
X84990952Y-36125476D01*
X84871904Y-36065952D01*
X84812380Y-36006428D01*
X85943333Y-34875476D02*
X86360000Y-36125476D01*
X86776666Y-34875476D01*
X87074285Y-34875476D02*
X87848095Y-34875476D01*
X87431428Y-35351666D01*
X87610000Y-35351666D01*
X87729047Y-35411190D01*
X87788571Y-35470714D01*
X87848095Y-35589761D01*
X87848095Y-35887380D01*
X87788571Y-36006428D01*
X87729047Y-36065952D01*
X87610000Y-36125476D01*
X87252857Y-36125476D01*
X87133809Y-36065952D01*
X87074285Y-36006428D01*
X89217619Y-153739523D02*
X89277142Y-153680000D01*
X89396190Y-153620476D01*
X89693809Y-153620476D01*
X89812857Y-153680000D01*
X89872380Y-153739523D01*
X89931904Y-153858571D01*
X89931904Y-153977619D01*
X89872380Y-154156190D01*
X89158095Y-154870476D01*
X89931904Y-154870476D01*
X90408095Y-153739523D02*
X90467619Y-153680000D01*
X90586666Y-153620476D01*
X90884285Y-153620476D01*
X91003333Y-153680000D01*
X91062857Y-153739523D01*
X91122380Y-153858571D01*
X91122380Y-153977619D01*
X91062857Y-154156190D01*
X90348571Y-154870476D01*
X91122380Y-154870476D01*
X86121904Y-157788152D02*
X85407619Y-157788152D01*
X85764761Y-157788152D02*
X85764761Y-156538152D01*
X85645714Y-156716723D01*
X85526666Y-156835771D01*
X85407619Y-156895295D01*
X86836190Y-157073866D02*
X86717142Y-157014342D01*
X86657619Y-156954818D01*
X86598095Y-156835771D01*
X86598095Y-156776247D01*
X86657619Y-156657199D01*
X86717142Y-156597676D01*
X86836190Y-156538152D01*
X87074285Y-156538152D01*
X87193333Y-156597676D01*
X87252857Y-156657199D01*
X87312380Y-156776247D01*
X87312380Y-156835771D01*
X87252857Y-156954818D01*
X87193333Y-157014342D01*
X87074285Y-157073866D01*
X86836190Y-157073866D01*
X86717142Y-157133390D01*
X86657619Y-157192914D01*
X86598095Y-157311961D01*
X86598095Y-157550056D01*
X86657619Y-157669104D01*
X86717142Y-157728628D01*
X86836190Y-157788152D01*
X87074285Y-157788152D01*
X87193333Y-157728628D01*
X87252857Y-157669104D01*
X87312380Y-157550056D01*
X87312380Y-157311961D01*
X87252857Y-157192914D01*
X87193333Y-157133390D01*
X87074285Y-157073866D01*
X89217619Y-123259523D02*
X89277142Y-123200000D01*
X89396190Y-123140476D01*
X89693809Y-123140476D01*
X89812857Y-123200000D01*
X89872380Y-123259523D01*
X89931904Y-123378571D01*
X89931904Y-123497619D01*
X89872380Y-123676190D01*
X89158095Y-124390476D01*
X89931904Y-124390476D01*
X91003333Y-123557142D02*
X91003333Y-124390476D01*
X90705714Y-123080952D02*
X90408095Y-123973809D01*
X91181904Y-123973809D01*
X84663571Y-54520714D02*
X84842142Y-54580238D01*
X84901666Y-54639761D01*
X84961190Y-54758809D01*
X84961190Y-54937380D01*
X84901666Y-55056428D01*
X84842142Y-55115952D01*
X84723095Y-55175476D01*
X84246904Y-55175476D01*
X84246904Y-53925476D01*
X84663571Y-53925476D01*
X84782619Y-53985000D01*
X84842142Y-54044523D01*
X84901666Y-54163571D01*
X84901666Y-54282619D01*
X84842142Y-54401666D01*
X84782619Y-54461190D01*
X84663571Y-54520714D01*
X84246904Y-54520714D01*
X85735000Y-53925476D02*
X85973095Y-53925476D01*
X86092142Y-53985000D01*
X86211190Y-54104047D01*
X86270714Y-54342142D01*
X86270714Y-54758809D01*
X86211190Y-54996904D01*
X86092142Y-55115952D01*
X85973095Y-55175476D01*
X85735000Y-55175476D01*
X85615952Y-55115952D01*
X85496904Y-54996904D01*
X85437380Y-54758809D01*
X85437380Y-54342142D01*
X85496904Y-54104047D01*
X85615952Y-53985000D01*
X85735000Y-53925476D01*
X87044523Y-53925476D02*
X87282619Y-53925476D01*
X87401666Y-53985000D01*
X87520714Y-54104047D01*
X87580238Y-54342142D01*
X87580238Y-54758809D01*
X87520714Y-54996904D01*
X87401666Y-55115952D01*
X87282619Y-55175476D01*
X87044523Y-55175476D01*
X86925476Y-55115952D01*
X86806428Y-54996904D01*
X86746904Y-54758809D01*
X86746904Y-54342142D01*
X86806428Y-54104047D01*
X86925476Y-53985000D01*
X87044523Y-53925476D01*
X87937380Y-53925476D02*
X88651666Y-53925476D01*
X88294523Y-55175476D02*
X88294523Y-53925476D01*
X85943333Y-115235550D02*
X86776666Y-115235550D01*
X86240952Y-116485550D01*
X85407619Y-164166763D02*
X85467142Y-164107240D01*
X85586190Y-164047716D01*
X85883809Y-164047716D01*
X86002857Y-164107240D01*
X86062380Y-164166763D01*
X86121904Y-164285811D01*
X86121904Y-164404859D01*
X86062380Y-164583430D01*
X85348095Y-165297716D01*
X86121904Y-165297716D01*
X86895714Y-164047716D02*
X87014761Y-164047716D01*
X87133809Y-164107240D01*
X87193333Y-164166763D01*
X87252857Y-164285811D01*
X87312380Y-164523906D01*
X87312380Y-164821525D01*
X87252857Y-165059620D01*
X87193333Y-165178668D01*
X87133809Y-165238192D01*
X87014761Y-165297716D01*
X86895714Y-165297716D01*
X86776666Y-165238192D01*
X86717142Y-165178668D01*
X86657619Y-165059620D01*
X86598095Y-164821525D01*
X86598095Y-164523906D01*
X86657619Y-164285811D01*
X86717142Y-164166763D01*
X86776666Y-164107240D01*
X86895714Y-164047716D01*
X85407619Y-175431123D02*
X85467142Y-175371600D01*
X85586190Y-175312076D01*
X85883809Y-175312076D01*
X86002857Y-175371600D01*
X86062380Y-175431123D01*
X86121904Y-175550171D01*
X86121904Y-175669219D01*
X86062380Y-175847790D01*
X85348095Y-176562076D01*
X86121904Y-176562076D01*
X86538571Y-175312076D02*
X87312380Y-175312076D01*
X86895714Y-175788266D01*
X87074285Y-175788266D01*
X87193333Y-175847790D01*
X87252857Y-175907314D01*
X87312380Y-176026361D01*
X87312380Y-176323980D01*
X87252857Y-176443028D01*
X87193333Y-176502552D01*
X87074285Y-176562076D01*
X86717142Y-176562076D01*
X86598095Y-176502552D01*
X86538571Y-176443028D01*
X86002857Y-96580687D02*
X86062380Y-96521164D01*
X86181428Y-96461640D01*
X86479047Y-96461640D01*
X86598095Y-96521164D01*
X86657619Y-96580687D01*
X86717142Y-96699735D01*
X86717142Y-96818783D01*
X86657619Y-96997354D01*
X85943333Y-97711640D01*
X86717142Y-97711640D01*
D14*
X84044666Y-82465523D02*
X84611333Y-83315523D01*
X84611333Y-82465523D02*
X84044666Y-83315523D01*
D13*
X86240952Y-119526046D02*
X86121904Y-119466522D01*
X86062380Y-119406998D01*
X86002857Y-119287951D01*
X86002857Y-119228427D01*
X86062380Y-119109379D01*
X86121904Y-119049856D01*
X86240952Y-118990332D01*
X86479047Y-118990332D01*
X86598095Y-119049856D01*
X86657619Y-119109379D01*
X86717142Y-119228427D01*
X86717142Y-119287951D01*
X86657619Y-119406998D01*
X86598095Y-119466522D01*
X86479047Y-119526046D01*
X86240952Y-119526046D01*
X86121904Y-119585570D01*
X86062380Y-119645094D01*
X86002857Y-119764141D01*
X86002857Y-120002236D01*
X86062380Y-120121284D01*
X86121904Y-120180808D01*
X86240952Y-120240332D01*
X86479047Y-120240332D01*
X86598095Y-120180808D01*
X86657619Y-120121284D01*
X86717142Y-120002236D01*
X86717142Y-119764141D01*
X86657619Y-119645094D01*
X86598095Y-119585570D01*
X86479047Y-119526046D01*
X81637380Y-85298333D02*
X82232619Y-85298333D01*
X81518333Y-85655476D02*
X81935000Y-84405476D01*
X82351666Y-85655476D01*
X83482619Y-85536428D02*
X83423095Y-85595952D01*
X83244523Y-85655476D01*
X83125476Y-85655476D01*
X82946904Y-85595952D01*
X82827857Y-85476904D01*
X82768333Y-85357857D01*
X82708809Y-85119761D01*
X82708809Y-84941190D01*
X82768333Y-84703095D01*
X82827857Y-84584047D01*
X82946904Y-84465000D01*
X83125476Y-84405476D01*
X83244523Y-84405476D01*
X83423095Y-84465000D01*
X83482619Y-84524523D01*
X84732619Y-85536428D02*
X84673095Y-85595952D01*
X84494523Y-85655476D01*
X84375476Y-85655476D01*
X84196904Y-85595952D01*
X84077857Y-85476904D01*
X84018333Y-85357857D01*
X83958809Y-85119761D01*
X83958809Y-84941190D01*
X84018333Y-84703095D01*
X84077857Y-84584047D01*
X84196904Y-84465000D01*
X84375476Y-84405476D01*
X84494523Y-84405476D01*
X84673095Y-84465000D01*
X84732619Y-84524523D01*
X86717142Y-93956858D02*
X86002857Y-93956858D01*
X86360000Y-93956858D02*
X86360000Y-92706858D01*
X86240952Y-92885429D01*
X86121904Y-93004477D01*
X86002857Y-93064001D01*
X89217619Y-138499523D02*
X89277142Y-138440000D01*
X89396190Y-138380476D01*
X89693809Y-138380476D01*
X89812857Y-138440000D01*
X89872380Y-138499523D01*
X89931904Y-138618571D01*
X89931904Y-138737619D01*
X89872380Y-138916190D01*
X89158095Y-139630476D01*
X89931904Y-139630476D01*
X90348571Y-138380476D02*
X91122380Y-138380476D01*
X90705714Y-138856666D01*
X90884285Y-138856666D01*
X91003333Y-138916190D01*
X91062857Y-138975714D01*
X91122380Y-139094761D01*
X91122380Y-139392380D01*
X91062857Y-139511428D01*
X91003333Y-139570952D01*
X90884285Y-139630476D01*
X90527142Y-139630476D01*
X90408095Y-139570952D01*
X90348571Y-139511428D01*
X85943333Y-100216422D02*
X86717142Y-100216422D01*
X86300476Y-100692612D01*
X86479047Y-100692612D01*
X86598095Y-100752136D01*
X86657619Y-100811660D01*
X86717142Y-100930707D01*
X86717142Y-101228326D01*
X86657619Y-101347374D01*
X86598095Y-101406898D01*
X86479047Y-101466422D01*
X86121904Y-101466422D01*
X86002857Y-101406898D01*
X85943333Y-101347374D01*
X82440952Y-180151428D02*
X82381428Y-180210952D01*
X82202857Y-180270476D01*
X82083809Y-180270476D01*
X81905238Y-180210952D01*
X81786190Y-180091904D01*
X81726666Y-179972857D01*
X81667142Y-179734761D01*
X81667142Y-179556190D01*
X81726666Y-179318095D01*
X81786190Y-179199047D01*
X81905238Y-179080000D01*
X82083809Y-179020476D01*
X82202857Y-179020476D01*
X82381428Y-179080000D01*
X82440952Y-179139523D01*
X83571904Y-180270476D02*
X82976666Y-180270476D01*
X82976666Y-179020476D01*
X83988571Y-180270476D02*
X83988571Y-179020476D01*
X84702857Y-180270476D02*
X84167142Y-179556190D01*
X84702857Y-179020476D02*
X83988571Y-179734761D01*
X86598095Y-104387870D02*
X86598095Y-105221204D01*
X86300476Y-103911680D02*
X86002857Y-104804537D01*
X86776666Y-104804537D01*
X89217619Y-108019523D02*
X89277142Y-107960000D01*
X89396190Y-107900476D01*
X89693809Y-107900476D01*
X89812857Y-107960000D01*
X89872380Y-108019523D01*
X89931904Y-108138571D01*
X89931904Y-108257619D01*
X89872380Y-108436190D01*
X89158095Y-109150476D01*
X89931904Y-109150476D01*
X91062857Y-107900476D02*
X90467619Y-107900476D01*
X90408095Y-108495714D01*
X90467619Y-108436190D01*
X90586666Y-108376666D01*
X90884285Y-108376666D01*
X91003333Y-108436190D01*
X91062857Y-108495714D01*
X91122380Y-108614761D01*
X91122380Y-108912380D01*
X91062857Y-109031428D01*
X91003333Y-109090952D01*
X90884285Y-109150476D01*
X90586666Y-109150476D01*
X90467619Y-109090952D01*
X90408095Y-109031428D01*
D14*
X89290095Y-81410523D02*
X89006761Y-81005761D01*
X88804380Y-81410523D02*
X88804380Y-80560523D01*
X89128190Y-80560523D01*
X89209142Y-80601000D01*
X89249619Y-80641476D01*
X89290095Y-80722428D01*
X89290095Y-80843857D01*
X89249619Y-80924809D01*
X89209142Y-80965285D01*
X89128190Y-81005761D01*
X88804380Y-81005761D01*
D13*
X88790952Y-85655476D02*
X88374285Y-85060238D01*
X88076666Y-85655476D02*
X88076666Y-84405476D01*
X88552857Y-84405476D01*
X88671904Y-84465000D01*
X88731428Y-84524523D01*
X88790952Y-84643571D01*
X88790952Y-84822142D01*
X88731428Y-84941190D01*
X88671904Y-85000714D01*
X88552857Y-85060238D01*
X88076666Y-85060238D01*
X89564761Y-84405476D02*
X89802857Y-84405476D01*
X89921904Y-84465000D01*
X90040952Y-84584047D01*
X90100476Y-84822142D01*
X90100476Y-85238809D01*
X90040952Y-85476904D01*
X89921904Y-85595952D01*
X89802857Y-85655476D01*
X89564761Y-85655476D01*
X89445714Y-85595952D01*
X89326666Y-85476904D01*
X89267142Y-85238809D01*
X89267142Y-84822142D01*
X89326666Y-84584047D01*
X89445714Y-84465000D01*
X89564761Y-84405476D01*
X90457619Y-84405476D02*
X91171904Y-84405476D01*
X90814761Y-85655476D02*
X90814761Y-84405476D01*
X82133333Y-153620476D02*
X82966666Y-153620476D01*
X82430952Y-154870476D01*
D14*
X82520666Y-82465523D02*
X83087333Y-82465523D01*
X82520666Y-83315523D01*
X83087333Y-83315523D01*
D13*
X86598095Y-111480768D02*
X86360000Y-111480768D01*
X86240952Y-111540292D01*
X86181428Y-111599815D01*
X86062380Y-111778387D01*
X86002857Y-112016482D01*
X86002857Y-112492672D01*
X86062380Y-112611720D01*
X86121904Y-112671244D01*
X86240952Y-112730768D01*
X86479047Y-112730768D01*
X86598095Y-112671244D01*
X86657619Y-112611720D01*
X86717142Y-112492672D01*
X86717142Y-112195053D01*
X86657619Y-112076006D01*
X86598095Y-112016482D01*
X86479047Y-111956958D01*
X86240952Y-111956958D01*
X86121904Y-112016482D01*
X86062380Y-112076006D01*
X86002857Y-112195053D01*
D14*
X89027000Y-82910761D02*
X89027000Y-83315523D01*
X88743666Y-82465523D02*
X89027000Y-82910761D01*
X89310333Y-82465523D01*
D13*
X89217619Y-77539523D02*
X89277142Y-77480000D01*
X89396190Y-77420476D01*
X89693809Y-77420476D01*
X89812857Y-77480000D01*
X89872380Y-77539523D01*
X89931904Y-77658571D01*
X89931904Y-77777619D01*
X89872380Y-77956190D01*
X89158095Y-78670476D01*
X89931904Y-78670476D01*
X90348571Y-77420476D02*
X91181904Y-77420476D01*
X90646190Y-78670476D01*
X89217619Y-168979523D02*
X89277142Y-168920000D01*
X89396190Y-168860476D01*
X89693809Y-168860476D01*
X89812857Y-168920000D01*
X89872380Y-168979523D01*
X89931904Y-169098571D01*
X89931904Y-169217619D01*
X89872380Y-169396190D01*
X89158095Y-170110476D01*
X89931904Y-170110476D01*
X91122380Y-170110476D02*
X90408095Y-170110476D01*
X90765238Y-170110476D02*
X90765238Y-168860476D01*
X90646190Y-169039047D01*
X90527142Y-169158095D01*
X90408095Y-169217619D01*
X86121904Y-150278588D02*
X85407619Y-150278588D01*
X85764761Y-150278588D02*
X85764761Y-149028588D01*
X85645714Y-149207159D01*
X85526666Y-149326207D01*
X85407619Y-149385731D01*
X87193333Y-149028588D02*
X86955238Y-149028588D01*
X86836190Y-149088112D01*
X86776666Y-149147635D01*
X86657619Y-149326207D01*
X86598095Y-149564302D01*
X86598095Y-150040492D01*
X86657619Y-150159540D01*
X86717142Y-150219064D01*
X86836190Y-150278588D01*
X87074285Y-150278588D01*
X87193333Y-150219064D01*
X87252857Y-150159540D01*
X87312380Y-150040492D01*
X87312380Y-149742873D01*
X87252857Y-149623826D01*
X87193333Y-149564302D01*
X87074285Y-149504778D01*
X86836190Y-149504778D01*
X86717142Y-149564302D01*
X86657619Y-149623826D01*
X86598095Y-149742873D01*
X86121904Y-139014242D02*
X85407619Y-139014242D01*
X85764761Y-139014242D02*
X85764761Y-137764242D01*
X85645714Y-137942813D01*
X85526666Y-138061861D01*
X85407619Y-138121385D01*
X86538571Y-137764242D02*
X87312380Y-137764242D01*
X86895714Y-138240432D01*
X87074285Y-138240432D01*
X87193333Y-138299956D01*
X87252857Y-138359480D01*
X87312380Y-138478527D01*
X87312380Y-138776146D01*
X87252857Y-138895194D01*
X87193333Y-138954718D01*
X87074285Y-139014242D01*
X86717142Y-139014242D01*
X86598095Y-138954718D01*
X86538571Y-138895194D01*
X86121904Y-123995114D02*
X86360000Y-123995114D01*
X86479047Y-123935590D01*
X86538571Y-123876066D01*
X86657619Y-123697495D01*
X86717142Y-123459399D01*
X86717142Y-122983209D01*
X86657619Y-122864161D01*
X86598095Y-122804638D01*
X86479047Y-122745114D01*
X86240952Y-122745114D01*
X86121904Y-122804638D01*
X86062380Y-122864161D01*
X86002857Y-122983209D01*
X86002857Y-123280828D01*
X86062380Y-123399876D01*
X86121904Y-123459399D01*
X86240952Y-123518923D01*
X86479047Y-123518923D01*
X86598095Y-123459399D01*
X86657619Y-123399876D01*
X86717142Y-123280828D01*
X86121904Y-131504678D02*
X85407619Y-131504678D01*
X85764761Y-131504678D02*
X85764761Y-130254678D01*
X85645714Y-130433249D01*
X85526666Y-130552297D01*
X85407619Y-130611821D01*
X87312380Y-131504678D02*
X86598095Y-131504678D01*
X86955238Y-131504678D02*
X86955238Y-130254678D01*
X86836190Y-130433249D01*
X86717142Y-130552297D01*
X86598095Y-130611821D01*
X86657619Y-107725986D02*
X86062380Y-107725986D01*
X86002857Y-108321224D01*
X86062380Y-108261700D01*
X86181428Y-108202176D01*
X86479047Y-108202176D01*
X86598095Y-108261700D01*
X86657619Y-108321224D01*
X86717142Y-108440271D01*
X86717142Y-108737890D01*
X86657619Y-108856938D01*
X86598095Y-108916462D01*
X86479047Y-108975986D01*
X86181428Y-108975986D01*
X86062380Y-108916462D01*
X86002857Y-108856938D01*
X86121904Y-146523806D02*
X85407619Y-146523806D01*
X85764761Y-146523806D02*
X85764761Y-145273806D01*
X85645714Y-145452377D01*
X85526666Y-145571425D01*
X85407619Y-145630949D01*
X87252857Y-145273806D02*
X86657619Y-145273806D01*
X86598095Y-145869044D01*
X86657619Y-145809520D01*
X86776666Y-145749996D01*
X87074285Y-145749996D01*
X87193333Y-145809520D01*
X87252857Y-145869044D01*
X87312380Y-145988091D01*
X87312380Y-146285710D01*
X87252857Y-146404758D01*
X87193333Y-146464282D01*
X87074285Y-146523806D01*
X86776666Y-146523806D01*
X86657619Y-146464282D01*
X86598095Y-146404758D01*
X86121904Y-142769024D02*
X85407619Y-142769024D01*
X85764761Y-142769024D02*
X85764761Y-141519024D01*
X85645714Y-141697595D01*
X85526666Y-141816643D01*
X85407619Y-141876167D01*
X87193333Y-141935690D02*
X87193333Y-142769024D01*
X86895714Y-141459500D02*
X86598095Y-142352357D01*
X87371904Y-142352357D01*
X86121904Y-29795476D02*
X85526666Y-29795476D01*
X85467142Y-30390714D01*
X85526666Y-30331190D01*
X85645714Y-30271666D01*
X85943333Y-30271666D01*
X86062380Y-30331190D01*
X86121904Y-30390714D01*
X86181428Y-30509761D01*
X86181428Y-30807380D01*
X86121904Y-30926428D01*
X86062380Y-30985952D01*
X85943333Y-31045476D01*
X85645714Y-31045476D01*
X85526666Y-30985952D01*
X85467142Y-30926428D01*
X86538571Y-29795476D02*
X86955238Y-31045476D01*
X87371904Y-29795476D01*
X89277142Y-44023333D02*
X89872380Y-44023333D01*
X89158095Y-44380476D02*
X89574761Y-43130476D01*
X89991428Y-44380476D01*
X90289047Y-43130476D02*
X91062857Y-43130476D01*
X90646190Y-43606666D01*
X90824761Y-43606666D01*
X90943809Y-43666190D01*
X91003333Y-43725714D01*
X91062857Y-43844761D01*
X91062857Y-44142380D01*
X91003333Y-44261428D01*
X90943809Y-44320952D01*
X90824761Y-44380476D01*
X90467619Y-44380476D01*
X90348571Y-44320952D01*
X90289047Y-44261428D01*
X85407619Y-32395000D02*
X85288571Y-32335476D01*
X85110000Y-32335476D01*
X84931428Y-32395000D01*
X84812380Y-32514047D01*
X84752857Y-32633095D01*
X84693333Y-32871190D01*
X84693333Y-33049761D01*
X84752857Y-33287857D01*
X84812380Y-33406904D01*
X84931428Y-33525952D01*
X85110000Y-33585476D01*
X85229047Y-33585476D01*
X85407619Y-33525952D01*
X85467142Y-33466428D01*
X85467142Y-33049761D01*
X85229047Y-33049761D01*
X86002857Y-33585476D02*
X86002857Y-32335476D01*
X86717142Y-33585476D01*
X86717142Y-32335476D01*
X87312380Y-33585476D02*
X87312380Y-32335476D01*
X87610000Y-32335476D01*
X87788571Y-32395000D01*
X87907619Y-32514047D01*
X87967142Y-32633095D01*
X88026666Y-32871190D01*
X88026666Y-33049761D01*
X87967142Y-33287857D01*
X87907619Y-33406904D01*
X87788571Y-33525952D01*
X87610000Y-33585476D01*
X87312380Y-33585476D01*
X85407619Y-171676327D02*
X85467142Y-171616804D01*
X85586190Y-171557280D01*
X85883809Y-171557280D01*
X86002857Y-171616804D01*
X86062380Y-171676327D01*
X86121904Y-171795375D01*
X86121904Y-171914423D01*
X86062380Y-172092994D01*
X85348095Y-172807280D01*
X86121904Y-172807280D01*
X86598095Y-171676327D02*
X86657619Y-171616804D01*
X86776666Y-171557280D01*
X87074285Y-171557280D01*
X87193333Y-171616804D01*
X87252857Y-171676327D01*
X87312380Y-171795375D01*
X87312380Y-171914423D01*
X87252857Y-172092994D01*
X86538571Y-172807280D01*
X87312380Y-172807280D01*
X82907142Y-63430476D02*
X82192857Y-63430476D01*
X82550000Y-63430476D02*
X82550000Y-62180476D01*
X82430952Y-62359047D01*
X82311904Y-62478095D01*
X82192857Y-62537619D01*
X82133333Y-92660476D02*
X82907142Y-92660476D01*
X82490476Y-93136666D01*
X82669047Y-93136666D01*
X82788095Y-93196190D01*
X82847619Y-93255714D01*
X82907142Y-93374761D01*
X82907142Y-93672380D01*
X82847619Y-93791428D01*
X82788095Y-93850952D01*
X82669047Y-93910476D01*
X82311904Y-93910476D01*
X82192857Y-93850952D01*
X82133333Y-93791428D01*
X82847619Y-123140476D02*
X82252380Y-123140476D01*
X82192857Y-123735714D01*
X82252380Y-123676190D01*
X82371428Y-123616666D01*
X82669047Y-123616666D01*
X82788095Y-123676190D01*
X82847619Y-123735714D01*
X82907142Y-123854761D01*
X82907142Y-124152380D01*
X82847619Y-124271428D01*
X82788095Y-124330952D01*
X82669047Y-124390476D01*
X82371428Y-124390476D01*
X82252380Y-124330952D01*
X82192857Y-124271428D01*
X85407619Y-167921545D02*
X85467142Y-167862022D01*
X85586190Y-167802498D01*
X85883809Y-167802498D01*
X86002857Y-167862022D01*
X86062380Y-167921545D01*
X86121904Y-168040593D01*
X86121904Y-168159641D01*
X86062380Y-168338212D01*
X85348095Y-169052498D01*
X86121904Y-169052498D01*
X87312380Y-169052498D02*
X86598095Y-169052498D01*
X86955238Y-169052498D02*
X86955238Y-167802498D01*
X86836190Y-167981069D01*
X86717142Y-168100117D01*
X86598095Y-168159641D01*
X86121904Y-127749896D02*
X85407619Y-127749896D01*
X85764761Y-127749896D02*
X85764761Y-126499896D01*
X85645714Y-126678467D01*
X85526666Y-126797515D01*
X85407619Y-126857039D01*
X86895714Y-126499896D02*
X87014761Y-126499896D01*
X87133809Y-126559420D01*
X87193333Y-126618943D01*
X87252857Y-126737991D01*
X87312380Y-126976086D01*
X87312380Y-127273705D01*
X87252857Y-127511800D01*
X87193333Y-127630848D01*
X87133809Y-127690372D01*
X87014761Y-127749896D01*
X86895714Y-127749896D01*
X86776666Y-127690372D01*
X86717142Y-127630848D01*
X86657619Y-127511800D01*
X86598095Y-127273705D01*
X86598095Y-126976086D01*
X86657619Y-126737991D01*
X86717142Y-126618943D01*
X86776666Y-126559420D01*
X86895714Y-126499896D01*
X81597619Y-168979523D02*
X81657142Y-168920000D01*
X81776190Y-168860476D01*
X82073809Y-168860476D01*
X82192857Y-168920000D01*
X82252380Y-168979523D01*
X82311904Y-169098571D01*
X82311904Y-169217619D01*
X82252380Y-169396190D01*
X81538095Y-170110476D01*
X82311904Y-170110476D01*
X83085714Y-168860476D02*
X83204761Y-168860476D01*
X83323809Y-168920000D01*
X83383333Y-168979523D01*
X83442857Y-169098571D01*
X83502380Y-169336666D01*
X83502380Y-169634285D01*
X83442857Y-169872380D01*
X83383333Y-169991428D01*
X83323809Y-170050952D01*
X83204761Y-170110476D01*
X83085714Y-170110476D01*
X82966666Y-170050952D01*
X82907142Y-169991428D01*
X82847619Y-169872380D01*
X82788095Y-169634285D01*
X82788095Y-169336666D01*
X82847619Y-169098571D01*
X82907142Y-168979523D01*
X82966666Y-168920000D01*
X83085714Y-168860476D01*
X89277142Y-89743333D02*
X89872380Y-89743333D01*
X89158095Y-90100476D02*
X89574761Y-88850476D01*
X89991428Y-90100476D01*
X90646190Y-88850476D02*
X90765238Y-88850476D01*
X90884285Y-88910000D01*
X90943809Y-88969523D01*
X91003333Y-89088571D01*
X91062857Y-89326666D01*
X91062857Y-89624285D01*
X91003333Y-89862380D01*
X90943809Y-89981428D01*
X90884285Y-90040952D01*
X90765238Y-90100476D01*
X90646190Y-90100476D01*
X90527142Y-90040952D01*
X90467619Y-89981428D01*
X90408095Y-89862380D01*
X90348571Y-89624285D01*
X90348571Y-89326666D01*
X90408095Y-89088571D01*
X90467619Y-88969523D01*
X90527142Y-88910000D01*
X90646190Y-88850476D01*
X82788095Y-108317142D02*
X82788095Y-109150476D01*
X82490476Y-107840952D02*
X82192857Y-108733809D01*
X82966666Y-108733809D01*
X89217619Y-62299523D02*
X89277142Y-62240000D01*
X89396190Y-62180476D01*
X89693809Y-62180476D01*
X89812857Y-62240000D01*
X89872380Y-62299523D01*
X89931904Y-62418571D01*
X89931904Y-62537619D01*
X89872380Y-62716190D01*
X89158095Y-63430476D01*
X89931904Y-63430476D01*
X90646190Y-62716190D02*
X90527142Y-62656666D01*
X90467619Y-62597142D01*
X90408095Y-62478095D01*
X90408095Y-62418571D01*
X90467619Y-62299523D01*
X90527142Y-62240000D01*
X90646190Y-62180476D01*
X90884285Y-62180476D01*
X91003333Y-62240000D01*
X91062857Y-62299523D01*
X91122380Y-62418571D01*
X91122380Y-62478095D01*
X91062857Y-62597142D01*
X91003333Y-62656666D01*
X90884285Y-62716190D01*
X90646190Y-62716190D01*
X90527142Y-62775714D01*
X90467619Y-62835238D01*
X90408095Y-62954285D01*
X90408095Y-63192380D01*
X90467619Y-63311428D01*
X90527142Y-63370952D01*
X90646190Y-63430476D01*
X90884285Y-63430476D01*
X91003333Y-63370952D01*
X91062857Y-63311428D01*
X91122380Y-63192380D01*
X91122380Y-62954285D01*
X91062857Y-62835238D01*
X91003333Y-62775714D01*
X90884285Y-62716190D01*
X82192857Y-77539523D02*
X82252380Y-77480000D01*
X82371428Y-77420476D01*
X82669047Y-77420476D01*
X82788095Y-77480000D01*
X82847619Y-77539523D01*
X82907142Y-77658571D01*
X82907142Y-77777619D01*
X82847619Y-77956190D01*
X82133333Y-78670476D01*
X82907142Y-78670476D01*
D14*
X90328380Y-83315523D02*
X90328380Y-82465523D01*
X90652190Y-82465523D01*
X90733142Y-82506000D01*
X90773619Y-82546476D01*
X90814095Y-82627428D01*
X90814095Y-82748857D01*
X90773619Y-82829809D01*
X90733142Y-82870285D01*
X90652190Y-82910761D01*
X90328380Y-82910761D01*
D13*
X84990952Y-27255476D02*
X85407619Y-28505476D01*
X85824285Y-27255476D01*
X86240952Y-28505476D02*
X86240952Y-27255476D01*
X86836190Y-28505476D02*
X86836190Y-27255476D01*
X87550476Y-28505476D01*
X87550476Y-27255476D01*
X89277142Y-74503333D02*
X89872380Y-74503333D01*
X89158095Y-74860476D02*
X89574761Y-73610476D01*
X89991428Y-74860476D01*
X91062857Y-74860476D02*
X90348571Y-74860476D01*
X90705714Y-74860476D02*
X90705714Y-73610476D01*
X90586666Y-73789047D01*
X90467619Y-73908095D01*
X90348571Y-73967619D01*
D14*
X82677000Y-81005761D02*
X82677000Y-81410523D01*
X82393666Y-80560523D02*
X82677000Y-81005761D01*
X82960333Y-80560523D01*
D13*
X87838571Y-180210952D02*
X88017142Y-180270476D01*
X88314761Y-180270476D01*
X88433809Y-180210952D01*
X88493333Y-180151428D01*
X88552857Y-180032380D01*
X88552857Y-179913333D01*
X88493333Y-179794285D01*
X88433809Y-179734761D01*
X88314761Y-179675238D01*
X88076666Y-179615714D01*
X87957619Y-179556190D01*
X87898095Y-179496666D01*
X87838571Y-179377619D01*
X87838571Y-179258571D01*
X87898095Y-179139523D01*
X87957619Y-179080000D01*
X88076666Y-179020476D01*
X88374285Y-179020476D01*
X88552857Y-179080000D01*
X88969523Y-179020476D02*
X89267142Y-180270476D01*
X89505238Y-179377619D01*
X89743333Y-180270476D01*
X90040952Y-179020476D01*
X90517142Y-180270476D02*
X90517142Y-179020476D01*
X90814761Y-179020476D01*
X90993333Y-179080000D01*
X91112380Y-179199047D01*
X91171904Y-179318095D01*
X91231428Y-179556190D01*
X91231428Y-179734761D01*
X91171904Y-179972857D01*
X91112380Y-180091904D01*
X90993333Y-180210952D01*
X90814761Y-180270476D01*
X90517142Y-180270476D01*
X83532619Y-37062500D02*
X84782619Y-37062500D01*
X84544523Y-38665476D02*
X84127857Y-38070238D01*
X83830238Y-38665476D02*
X83830238Y-37415476D01*
X84306428Y-37415476D01*
X84425476Y-37475000D01*
X84485000Y-37534523D01*
X84544523Y-37653571D01*
X84544523Y-37832142D01*
X84485000Y-37951190D01*
X84425476Y-38010714D01*
X84306428Y-38070238D01*
X83830238Y-38070238D01*
X84782619Y-37062500D02*
X85913571Y-37062500D01*
X85080238Y-38010714D02*
X85496904Y-38010714D01*
X85675476Y-38665476D02*
X85080238Y-38665476D01*
X85080238Y-37415476D01*
X85675476Y-37415476D01*
X85913571Y-37062500D02*
X87104047Y-37062500D01*
X86151666Y-38605952D02*
X86330238Y-38665476D01*
X86627857Y-38665476D01*
X86746904Y-38605952D01*
X86806428Y-38546428D01*
X86865952Y-38427380D01*
X86865952Y-38308333D01*
X86806428Y-38189285D01*
X86746904Y-38129761D01*
X86627857Y-38070238D01*
X86389761Y-38010714D01*
X86270714Y-37951190D01*
X86211190Y-37891666D01*
X86151666Y-37772619D01*
X86151666Y-37653571D01*
X86211190Y-37534523D01*
X86270714Y-37475000D01*
X86389761Y-37415476D01*
X86687380Y-37415476D01*
X86865952Y-37475000D01*
X87104047Y-37062500D02*
X88235000Y-37062500D01*
X87401666Y-38010714D02*
X87818333Y-38010714D01*
X87996904Y-38665476D02*
X87401666Y-38665476D01*
X87401666Y-37415476D01*
X87996904Y-37415476D01*
X88235000Y-37062500D02*
X89187380Y-37062500D01*
X88354047Y-37415476D02*
X89068333Y-37415476D01*
X88711190Y-38665476D02*
X88711190Y-37415476D01*
X82232619Y-172730000D02*
X82113571Y-172670476D01*
X81935000Y-172670476D01*
X81756428Y-172730000D01*
X81637380Y-172849047D01*
X81577857Y-172968095D01*
X81518333Y-173206190D01*
X81518333Y-173384761D01*
X81577857Y-173622857D01*
X81637380Y-173741904D01*
X81756428Y-173860952D01*
X81935000Y-173920476D01*
X82054047Y-173920476D01*
X82232619Y-173860952D01*
X82292142Y-173801428D01*
X82292142Y-173384761D01*
X82054047Y-173384761D01*
X82827857Y-173920476D02*
X82827857Y-172670476D01*
X83542142Y-173920476D01*
X83542142Y-172670476D01*
X84137380Y-173920476D02*
X84137380Y-172670476D01*
X84435000Y-172670476D01*
X84613571Y-172730000D01*
X84732619Y-172849047D01*
X84792142Y-172968095D01*
X84851666Y-173206190D01*
X84851666Y-173384761D01*
X84792142Y-173622857D01*
X84732619Y-173741904D01*
X84613571Y-173860952D01*
X84435000Y-173920476D01*
X84137380Y-173920476D01*
X89277142Y-59263333D02*
X89872380Y-59263333D01*
X89158095Y-59620476D02*
X89574761Y-58370476D01*
X89991428Y-59620476D01*
X90348571Y-58489523D02*
X90408095Y-58430000D01*
X90527142Y-58370476D01*
X90824761Y-58370476D01*
X90943809Y-58430000D01*
X91003333Y-58489523D01*
X91062857Y-58608571D01*
X91062857Y-58727619D01*
X91003333Y-58906190D01*
X90289047Y-59620476D01*
X91062857Y-59620476D01*
X86121904Y-154033370D02*
X85407619Y-154033370D01*
X85764761Y-154033370D02*
X85764761Y-152783370D01*
X85645714Y-152961941D01*
X85526666Y-153080989D01*
X85407619Y-153140513D01*
X86538571Y-152783370D02*
X87371904Y-152783370D01*
X86836190Y-154033370D01*
X82490476Y-46940476D02*
X82609523Y-46940476D01*
X82728571Y-47000000D01*
X82788095Y-47059523D01*
X82847619Y-47178571D01*
X82907142Y-47416666D01*
X82907142Y-47714285D01*
X82847619Y-47952380D01*
X82788095Y-48071428D01*
X82728571Y-48130952D01*
X82609523Y-48190476D01*
X82490476Y-48190476D01*
X82371428Y-48130952D01*
X82311904Y-48071428D01*
X82252380Y-47952380D01*
X82192857Y-47714285D01*
X82192857Y-47416666D01*
X82252380Y-47178571D01*
X82311904Y-47059523D01*
X82371428Y-47000000D01*
X82490476Y-46940476D01*
X82788095Y-138380476D02*
X82550000Y-138380476D01*
X82430952Y-138440000D01*
X82371428Y-138499523D01*
X82252380Y-138678095D01*
X82192857Y-138916190D01*
X82192857Y-139392380D01*
X82252380Y-139511428D01*
X82311904Y-139570952D01*
X82430952Y-139630476D01*
X82669047Y-139630476D01*
X82788095Y-139570952D01*
X82847619Y-139511428D01*
X82907142Y-139392380D01*
X82907142Y-139094761D01*
X82847619Y-138975714D01*
X82788095Y-138916190D01*
X82669047Y-138856666D01*
X82430952Y-138856666D01*
X82311904Y-138916190D01*
X82252380Y-138975714D01*
X82192857Y-139094761D01*
D10*
X92100001Y-23075580D02*
X92100001Y-23313676D01*
X91861905Y-23218438D02*
X92100001Y-23313676D01*
X92338096Y-23218438D01*
X91957143Y-23504152D02*
X92100001Y-23313676D01*
X92242858Y-23504152D01*
G36*
X85935185Y-47677705D02*
G01*
X85992335Y-47724060D01*
X86030435Y-47808515D01*
X86040913Y-47866618D01*
X86044405Y-47936785D01*
X86039960Y-48008540D01*
X86026625Y-48068865D01*
X85994875Y-48156495D01*
X85864065Y-48132365D01*
X85897085Y-48037750D01*
X85912325Y-47935515D01*
X85904070Y-47847885D01*
X85870415Y-47817405D01*
X85842475Y-47826930D01*
X85822790Y-47853600D01*
X85806915Y-47892970D01*
X85791675Y-47939325D01*
X85768180Y-48009175D01*
X85734525Y-48073945D01*
X85683090Y-48122205D01*
X85604985Y-48141255D01*
X85533230Y-48126650D01*
X85473540Y-48080930D01*
X85432900Y-48001555D01*
X85421946Y-47948533D01*
X85418295Y-47885985D01*
X85420517Y-47829629D01*
X85427185Y-47777400D01*
X85452585Y-47690405D01*
X85584665Y-47714535D01*
X85563710Y-47781845D01*
X85549105Y-47884715D01*
X85563710Y-47965360D01*
X85594825Y-47986315D01*
X85619590Y-47976790D01*
X85639275Y-47951390D01*
X85656420Y-47914560D01*
X85672295Y-47869475D01*
X85697695Y-47798355D01*
X85732620Y-47731680D01*
X85785960Y-47682785D01*
X85865335Y-47663735D01*
X85935185Y-47677705D01*
G37*
G36*
X86036150Y-46452790D02*
G01*
X86044405Y-46530895D01*
X86039960Y-46586934D01*
X86026625Y-46633130D01*
X85975190Y-46699170D01*
X85893275Y-46734095D01*
X85841523Y-46741715D01*
X85782785Y-46744255D01*
X85563075Y-46744255D01*
X85563075Y-46909355D01*
X85433535Y-46909355D01*
X85433535Y-46588045D01*
X85803105Y-46588045D01*
X85882480Y-46568360D01*
X85908515Y-46502955D01*
X85902800Y-46450885D01*
X85879305Y-46382305D01*
X86005035Y-46361985D01*
X86036150Y-46452790D01*
G37*
G36*
X86029800Y-43908980D02*
G01*
X86042659Y-43969781D01*
X86046945Y-44039155D01*
X86035092Y-44141319D01*
X85999532Y-44225986D01*
X85940265Y-44293155D01*
X85881289Y-44331493D01*
X85811043Y-44358877D01*
X85729524Y-44375308D01*
X85636735Y-44380785D01*
X85544342Y-44374117D01*
X85462745Y-44354115D01*
X85392419Y-44322206D01*
X85333840Y-44279820D01*
X85287485Y-44227750D01*
X85253830Y-44166790D01*
X85233351Y-44098369D01*
X85226525Y-44023915D01*
X85233510Y-43948350D01*
X85249385Y-43889295D01*
X85268435Y-43846750D01*
X85283675Y-43820715D01*
X85408135Y-43861355D01*
X85375750Y-43931840D01*
X85362415Y-44026455D01*
X85375750Y-44098210D01*
X85420200Y-44160440D01*
X85503385Y-44204890D01*
X85561805Y-44217749D01*
X85632925Y-44222035D01*
X85715687Y-44216884D01*
X85784478Y-44201433D01*
X85839300Y-44175680D01*
X85893116Y-44114561D01*
X85911055Y-44023915D01*
X85897085Y-43922950D01*
X85869145Y-43858815D01*
X85992335Y-43819445D01*
X86029800Y-43908980D01*
G37*
G36*
X85592285Y-50210085D02*
G01*
X85584665Y-50246280D01*
X85577680Y-50288825D01*
X85573235Y-50330735D01*
X85571965Y-50365025D01*
X85575140Y-50429795D01*
X85587205Y-50494565D01*
X86030435Y-50494565D01*
X86030435Y-50652045D01*
X85472905Y-50652045D01*
X85452267Y-50589021D01*
X85436075Y-50524410D01*
X85425597Y-50453449D01*
X85422105Y-50371375D01*
X85423375Y-50335180D01*
X85427820Y-50285015D01*
X85435440Y-50231040D01*
X85447505Y-50182145D01*
X85592285Y-50210085D01*
G37*
G36*
X86030435Y-45245655D02*
G01*
X85958680Y-45285660D01*
X85879940Y-45338365D01*
X85806280Y-45394880D01*
X85748495Y-45447585D01*
X86030435Y-45447585D01*
X86030435Y-45605065D01*
X85175725Y-45605065D01*
X85149055Y-45447585D01*
X85669755Y-45447585D01*
X85613240Y-45401230D01*
X85551645Y-45355510D01*
X85490050Y-45312965D01*
X85433535Y-45277405D01*
X85433535Y-45089445D01*
X85497035Y-45141515D01*
X85566885Y-45201840D01*
X85635465Y-45264070D01*
X85696425Y-45320585D01*
X85769450Y-45252005D01*
X85812789Y-45215492D01*
X85857715Y-45179615D01*
X85903435Y-45145484D01*
X85949155Y-45114210D01*
X86030435Y-45066585D01*
X86030435Y-45245655D01*
G37*
G36*
X85598635Y-50066575D02*
G01*
X85543866Y-50038635D01*
X85498940Y-50003075D01*
X85463856Y-49960848D01*
X85438615Y-49912905D01*
X85423375Y-49861470D01*
X85418295Y-49808765D01*
X85418567Y-49806225D01*
X85549105Y-49806225D01*
X85559265Y-49858930D01*
X85587205Y-49895760D01*
X85627845Y-49918620D01*
X85674835Y-49929415D01*
X85674835Y-49690655D01*
X85628480Y-49697005D01*
X85588475Y-49717325D01*
X85559900Y-49752885D01*
X85549105Y-49806225D01*
X85418567Y-49806225D01*
X85426973Y-49727767D01*
X85453008Y-49660881D01*
X85496400Y-49608105D01*
X85556443Y-49570005D01*
X85632431Y-49547145D01*
X85724365Y-49539525D01*
X85756115Y-49540160D01*
X85782785Y-49542065D01*
X85782785Y-49929415D01*
X85835014Y-49917350D01*
X85874860Y-49881155D01*
X85900101Y-49825910D01*
X85908515Y-49756695D01*
X85898355Y-49667160D01*
X85878035Y-49595405D01*
X86011385Y-49573815D01*
X86034880Y-49660175D01*
X86044405Y-49763045D01*
X86039484Y-49835276D01*
X86024720Y-49899570D01*
X86000273Y-49955450D01*
X85966300Y-50002440D01*
X85922961Y-50040064D01*
X85870415Y-50067845D01*
X85808503Y-50084990D01*
X85737065Y-50090705D01*
X85663088Y-50084673D01*
X85598635Y-50066575D01*
G37*
G36*
X85334475Y-46623605D02*
G01*
X85361145Y-46693455D01*
X85334475Y-46762670D01*
X85262085Y-46791245D01*
X85188425Y-46762670D01*
X85161755Y-46693455D01*
X85188425Y-46623605D01*
X85262085Y-46594395D01*
X85334475Y-46623605D01*
G37*
G36*
X86015195Y-44652565D02*
G01*
X86044405Y-44731305D01*
X86036785Y-44774485D01*
X86014560Y-44810680D01*
X85979000Y-44836080D01*
X85930105Y-44845605D01*
X85882480Y-44836080D01*
X85847555Y-44810680D01*
X85825965Y-44774485D01*
X85818345Y-44731305D01*
X85847555Y-44652565D01*
X85930105Y-44618275D01*
X86015195Y-44652565D01*
G37*
G36*
X86030435Y-43606085D02*
G01*
X86030435Y-43768645D01*
X85939122Y-43746242D01*
X85851111Y-43723738D01*
X85766402Y-43701132D01*
X85684995Y-43678424D01*
X85606890Y-43655615D01*
X85512553Y-43627278D01*
X85420676Y-43599417D01*
X85331260Y-43572033D01*
X85244305Y-43545125D01*
X85244305Y-43463845D01*
X85396705Y-43463845D01*
X85481160Y-43487340D01*
X85559900Y-43507660D01*
X85638005Y-43525440D01*
X85719285Y-43541315D01*
X85719285Y-43387645D01*
X85638005Y-43402885D01*
X85559900Y-43420030D01*
X85481160Y-43440350D01*
X85396705Y-43463845D01*
X85244305Y-43463845D01*
X85244305Y-43374945D01*
X85331975Y-43347045D01*
X85422264Y-43319224D01*
X85515172Y-43291482D01*
X85610700Y-43263820D01*
X85689465Y-43241849D01*
X85770822Y-43220132D01*
X85854769Y-43198669D01*
X85941306Y-43177460D01*
X86030435Y-43156505D01*
X86030435Y-43324145D01*
X85848825Y-43360975D01*
X85848825Y-43570525D01*
X86030435Y-43606085D01*
G37*
G36*
X85911690Y-50828575D02*
G01*
X85987890Y-50893980D01*
X86012338Y-50939065D01*
X86028530Y-50991770D01*
X86037579Y-51050349D01*
X86040595Y-51113055D01*
X86039166Y-51166078D01*
X86034880Y-51221005D01*
X86027736Y-51276568D01*
X86017735Y-51331495D01*
X85254465Y-51331495D01*
X85241130Y-51233705D01*
X85235415Y-51128295D01*
X85236793Y-51104165D01*
X85371305Y-51104165D01*
X85372575Y-51140995D01*
X85376385Y-51175285D01*
X85556725Y-51175285D01*
X85686265Y-51175285D01*
X85899625Y-51175285D01*
X85903435Y-51139090D01*
X85904705Y-51100355D01*
X85900260Y-51048285D01*
X85883750Y-51003200D01*
X85849460Y-50970815D01*
X85792945Y-50958115D01*
X85711030Y-50994310D01*
X85686265Y-51091465D01*
X85686265Y-51175285D01*
X85556725Y-51175285D01*
X85556725Y-51114325D01*
X85530690Y-51024155D01*
X85458935Y-50993675D01*
X85413850Y-51002565D01*
X85387180Y-51026695D01*
X85374480Y-51062255D01*
X85371305Y-51104165D01*
X85236793Y-51104165D01*
X85240019Y-51047650D01*
X85253830Y-50983515D01*
X85302090Y-50895885D01*
X85368765Y-50852705D01*
X85442425Y-50841275D01*
X85495130Y-50848101D01*
X85541485Y-50868580D01*
X85610065Y-50941605D01*
X85644355Y-50874454D01*
X85688805Y-50833020D01*
X85739605Y-50811589D01*
X85792945Y-50804445D01*
X85858191Y-50810478D01*
X85911690Y-50828575D01*
G37*
G36*
X85672295Y-49084865D02*
G01*
X85653245Y-49084865D01*
X85578950Y-49112805D01*
X85556566Y-49150905D01*
X85549105Y-49209325D01*
X85555455Y-49295050D01*
X85570695Y-49361725D01*
X85444965Y-49383315D01*
X85426550Y-49300765D01*
X85420359Y-49246473D01*
X85418295Y-49190275D01*
X85422581Y-49122806D01*
X85435440Y-49067720D01*
X85483700Y-48989615D01*
X85559900Y-48947705D01*
X85660865Y-48935005D01*
X86016465Y-48935005D01*
X86034245Y-49036605D01*
X86041865Y-49108043D01*
X86044405Y-49187735D01*
X86034245Y-49291240D01*
X86000590Y-49370615D01*
X85939630Y-49421415D01*
X85847555Y-49439195D01*
X85759925Y-49418875D01*
X85702775Y-49364265D01*
X85671660Y-49285525D01*
X85662135Y-49192815D01*
X85663538Y-49161065D01*
X85771355Y-49161065D01*
X85774530Y-49208055D01*
X85785325Y-49248060D01*
X85806915Y-49275365D01*
X85843745Y-49285525D01*
X85901530Y-49255045D01*
X85918675Y-49176305D01*
X85918040Y-49126775D01*
X85914865Y-49084865D01*
X85777705Y-49084865D01*
X85773260Y-49121695D01*
X85771355Y-49161065D01*
X85663538Y-49161065D01*
X85664675Y-49135348D01*
X85672295Y-49084865D01*
G37*
G36*
X86036785Y-47083980D02*
G01*
X86044405Y-47181135D01*
X86035515Y-47277655D01*
X86001225Y-47348775D01*
X85929470Y-47393225D01*
X85875971Y-47404655D01*
X85808185Y-47408465D01*
X85563075Y-47408465D01*
X85563075Y-47544355D01*
X85433535Y-47544355D01*
X85433535Y-47408465D01*
X85283675Y-47408465D01*
X85258275Y-47252255D01*
X85433535Y-47252255D01*
X85433535Y-47002065D01*
X85563075Y-47002065D01*
X85563075Y-47252255D01*
X85804375Y-47252255D01*
X85857715Y-47245905D01*
X85889465Y-47228125D01*
X85904705Y-47200185D01*
X85908515Y-47163355D01*
X85907245Y-47123350D01*
X85902800Y-47087790D01*
X85893275Y-47052230D01*
X85876765Y-47012225D01*
X86011385Y-46990635D01*
X86036785Y-47083980D01*
G37*
G36*
X86036150Y-45808265D02*
G01*
X86042341Y-45859382D01*
X86044405Y-45918755D01*
X86038373Y-46003686D01*
X86020275Y-46075600D01*
X85991700Y-46135131D01*
X85954235Y-46182915D01*
X85908515Y-46219269D01*
X85855175Y-46244510D01*
X85795803Y-46259274D01*
X85731985Y-46264195D01*
X85669120Y-46259115D01*
X85610065Y-46243875D01*
X85556566Y-46218157D01*
X85510370Y-46181645D01*
X85472270Y-46134179D01*
X85443060Y-46075600D01*
X85424486Y-46005274D01*
X85418295Y-45922565D01*
X85425915Y-45826045D01*
X85451315Y-45738415D01*
X85577045Y-45772705D01*
X85561170Y-45829220D01*
X85554185Y-45908595D01*
X85567520Y-46001940D01*
X85604350Y-46062265D01*
X85660865Y-46095285D01*
X85731985Y-46105445D01*
X85805645Y-46093856D01*
X85861525Y-46059090D01*
X85896768Y-45996384D01*
X85908515Y-45900975D01*
X85903435Y-45824140D01*
X85886925Y-45751115D01*
X86015195Y-45728255D01*
X86036150Y-45808265D01*
G37*
G36*
X86025355Y-48361918D02*
G01*
X86035515Y-48419385D01*
X86042183Y-48480980D01*
X86044405Y-48541305D01*
X86035233Y-48626889D01*
X86007716Y-48697374D01*
X85961855Y-48752760D01*
X85900048Y-48792624D01*
X85824695Y-48816542D01*
X85735795Y-48824515D01*
X85645272Y-48817812D01*
X85568437Y-48797704D01*
X85505290Y-48764190D01*
X85458371Y-48717553D01*
X85430219Y-48658074D01*
X85420835Y-48585755D01*
X85423829Y-48559085D01*
X85555455Y-48559085D01*
X85566567Y-48607345D01*
X85599905Y-48640365D01*
X85654198Y-48659415D01*
X85728175Y-48665765D01*
X85800883Y-48658304D01*
X85858985Y-48635920D01*
X85897085Y-48597026D01*
X85909785Y-48540035D01*
X85908515Y-48504475D01*
X85904705Y-48470185D01*
X85579585Y-48470185D01*
X85562440Y-48510825D01*
X85555455Y-48559085D01*
X85423829Y-48559085D01*
X85427820Y-48523525D01*
X85447505Y-48470185D01*
X85175725Y-48470185D01*
X85149055Y-48313975D01*
X86012655Y-48313975D01*
X86025355Y-48361918D01*
G37*
G36*
X84411820Y-47853600D02*
G01*
X84436585Y-47903765D01*
X84411820Y-47955835D01*
X84352765Y-47974885D01*
X84293075Y-47955835D01*
X84267675Y-47903765D01*
X84293075Y-47853600D01*
X84352765Y-47833915D01*
X84411820Y-47853600D01*
G37*
G36*
X84064475Y-42176065D02*
G01*
X84091145Y-42245915D01*
X84064475Y-42315130D01*
X83992085Y-42343705D01*
X83918425Y-42315130D01*
X83891755Y-42245915D01*
X83918425Y-42176065D01*
X83992085Y-42146855D01*
X84064475Y-42176065D01*
G37*
G36*
X84766785Y-42636440D02*
G01*
X84774405Y-42733595D01*
X84765515Y-42830115D01*
X84731225Y-42901235D01*
X84659470Y-42945685D01*
X84605971Y-42957115D01*
X84538185Y-42960925D01*
X84293075Y-42960925D01*
X84293075Y-43096815D01*
X84163535Y-43096815D01*
X84163535Y-42960925D01*
X84013675Y-42960925D01*
X83988275Y-42804715D01*
X84163535Y-42804715D01*
X84163535Y-42554525D01*
X84293075Y-42554525D01*
X84293075Y-42804715D01*
X84534375Y-42804715D01*
X84587715Y-42798365D01*
X84619465Y-42780585D01*
X84634705Y-42752645D01*
X84638515Y-42715815D01*
X84637245Y-42675810D01*
X84632800Y-42640250D01*
X84623275Y-42604690D01*
X84606765Y-42564685D01*
X84741385Y-42543095D01*
X84766785Y-42636440D01*
G37*
G36*
X84641690Y-46381035D02*
G01*
X84717890Y-46446440D01*
X84742338Y-46491525D01*
X84758530Y-46544230D01*
X84767579Y-46602809D01*
X84770595Y-46665515D01*
X84769166Y-46718538D01*
X84764880Y-46773465D01*
X84757736Y-46829028D01*
X84747735Y-46883955D01*
X83984465Y-46883955D01*
X83971130Y-46786165D01*
X83965415Y-46680755D01*
X83966793Y-46656625D01*
X84101305Y-46656625D01*
X84102575Y-46693455D01*
X84106385Y-46727745D01*
X84286725Y-46727745D01*
X84416265Y-46727745D01*
X84629625Y-46727745D01*
X84633435Y-46691550D01*
X84634705Y-46652815D01*
X84630260Y-46600745D01*
X84613750Y-46555660D01*
X84579460Y-46523275D01*
X84522945Y-46510575D01*
X84441030Y-46546770D01*
X84416265Y-46643925D01*
X84416265Y-46727745D01*
X84286725Y-46727745D01*
X84286725Y-46666785D01*
X84260690Y-46576615D01*
X84188935Y-46546135D01*
X84143850Y-46555025D01*
X84117180Y-46579155D01*
X84104480Y-46614715D01*
X84101305Y-46656625D01*
X83966793Y-46656625D01*
X83970019Y-46600110D01*
X83983830Y-46535975D01*
X84032090Y-46448345D01*
X84098765Y-46405165D01*
X84172425Y-46393735D01*
X84225130Y-46400561D01*
X84271485Y-46421040D01*
X84340065Y-46494065D01*
X84374355Y-46426914D01*
X84418805Y-46385480D01*
X84469605Y-46364049D01*
X84522945Y-46356905D01*
X84588191Y-46362938D01*
X84641690Y-46381035D01*
G37*
G36*
X83992791Y-50308157D02*
G01*
X84027010Y-50245645D01*
X84076752Y-50199784D01*
X84143850Y-50172267D01*
X84228305Y-50163095D01*
X84313607Y-50172338D01*
X84381552Y-50200066D01*
X84432140Y-50246280D01*
X84467065Y-50309427D01*
X84488020Y-50387956D01*
X84495005Y-50481865D01*
X84495005Y-50537745D01*
X84760435Y-50537745D01*
X84760435Y-50693955D01*
X83984465Y-50693955D01*
X83975575Y-50642520D01*
X83969860Y-50584735D01*
X83966685Y-50527585D01*
X83965415Y-50478055D01*
X83966732Y-50460275D01*
X84101305Y-50460275D01*
X84101940Y-50499010D01*
X84105115Y-50537745D01*
X84359115Y-50537745D01*
X84359115Y-50474245D01*
X84351654Y-50408523D01*
X84329270Y-50361215D01*
X84288789Y-50332640D01*
X84227035Y-50323115D01*
X84168456Y-50332481D01*
X84129880Y-50360580D01*
X84108449Y-50404236D01*
X84101305Y-50460275D01*
X83966732Y-50460275D01*
X83972259Y-50385627D01*
X83992791Y-50308157D01*
G37*
G36*
X84511515Y-47444025D02*
G01*
X84357845Y-47444025D01*
X84357845Y-47096045D01*
X84511515Y-47096045D01*
X84511515Y-47444025D01*
G37*
G36*
X84760435Y-40798115D02*
G01*
X84688680Y-40838120D01*
X84609940Y-40890825D01*
X84536280Y-40947340D01*
X84478495Y-41000045D01*
X84760435Y-41000045D01*
X84760435Y-41157525D01*
X83905725Y-41157525D01*
X83879055Y-41000045D01*
X84399755Y-41000045D01*
X84343240Y-40953690D01*
X84281645Y-40907970D01*
X84220050Y-40865425D01*
X84163535Y-40829865D01*
X84163535Y-40641905D01*
X84227035Y-40693975D01*
X84296885Y-40754300D01*
X84365465Y-40816530D01*
X84426425Y-40873045D01*
X84499450Y-40804465D01*
X84542789Y-40767952D01*
X84587715Y-40732075D01*
X84633435Y-40697944D01*
X84679155Y-40666670D01*
X84760435Y-40619045D01*
X84760435Y-40798115D01*
G37*
G36*
X84547075Y-47649448D02*
G01*
X84617878Y-47671276D01*
X84675345Y-47701835D01*
X84731789Y-47755457D01*
X84765656Y-47823191D01*
X84776945Y-47905035D01*
X84765656Y-47986879D01*
X84731789Y-48054613D01*
X84675345Y-48108235D01*
X84617878Y-48138794D01*
X84547075Y-48160623D01*
X84462938Y-48173719D01*
X84365465Y-48178085D01*
X84269104Y-48173640D01*
X84185760Y-48160305D01*
X84115434Y-48138080D01*
X84058125Y-48106965D01*
X84001681Y-48052919D01*
X83967814Y-47985609D01*
X83956525Y-47905035D01*
X84089875Y-47905035D01*
X84107496Y-47961233D01*
X84160360Y-48002825D01*
X84214476Y-48021875D01*
X84282844Y-48033305D01*
X84365465Y-48037115D01*
X84448791Y-48033305D01*
X84517583Y-48021875D01*
X84571840Y-48002825D01*
X84624704Y-47961233D01*
X84642325Y-47905035D01*
X84624704Y-47848044D01*
X84571840Y-47806610D01*
X84517583Y-47787913D01*
X84448791Y-47776694D01*
X84365465Y-47772955D01*
X84282844Y-47776694D01*
X84214476Y-47787913D01*
X84160360Y-47806610D01*
X84107496Y-47848044D01*
X84089875Y-47905035D01*
X83956525Y-47905035D01*
X83967743Y-47823191D01*
X84001398Y-47755457D01*
X84057490Y-47701835D01*
X84114600Y-47671276D01*
X84184966Y-47649448D01*
X84268588Y-47636351D01*
X84365465Y-47631985D01*
X84462938Y-47636351D01*
X84547075Y-47649448D01*
G37*
G36*
X84547075Y-48919448D02*
G01*
X84617878Y-48941276D01*
X84675345Y-48971835D01*
X84731789Y-49025457D01*
X84765656Y-49093191D01*
X84776945Y-49175035D01*
X84765656Y-49256879D01*
X84731789Y-49324613D01*
X84675345Y-49378235D01*
X84617878Y-49408794D01*
X84547075Y-49430623D01*
X84462938Y-49443719D01*
X84365465Y-49448085D01*
X84269104Y-49443640D01*
X84185760Y-49430305D01*
X84115434Y-49408080D01*
X84058125Y-49376965D01*
X84001681Y-49322919D01*
X83967814Y-49255609D01*
X83956525Y-49175035D01*
X84089875Y-49175035D01*
X84107496Y-49231233D01*
X84160360Y-49272825D01*
X84214476Y-49291875D01*
X84282844Y-49303305D01*
X84365465Y-49307115D01*
X84448791Y-49303305D01*
X84517583Y-49291875D01*
X84571840Y-49272825D01*
X84624704Y-49231233D01*
X84642325Y-49175035D01*
X84624704Y-49118044D01*
X84571840Y-49076610D01*
X84517583Y-49057913D01*
X84448791Y-49046694D01*
X84365465Y-49042955D01*
X84282844Y-49046694D01*
X84214476Y-49057913D01*
X84160360Y-49076610D01*
X84107496Y-49118044D01*
X84089875Y-49175035D01*
X83956525Y-49175035D01*
X83967743Y-49093191D01*
X84001398Y-49025457D01*
X84057490Y-48971835D01*
X84114600Y-48941276D01*
X84184966Y-48919448D01*
X84268588Y-48906351D01*
X84365465Y-48901985D01*
X84462938Y-48906351D01*
X84547075Y-48919448D01*
G37*
G36*
X84402295Y-44637325D02*
G01*
X84383245Y-44637325D01*
X84308950Y-44665265D01*
X84286566Y-44703365D01*
X84279105Y-44761785D01*
X84285455Y-44847510D01*
X84300695Y-44914185D01*
X84174965Y-44935775D01*
X84156550Y-44853225D01*
X84150359Y-44798932D01*
X84148295Y-44742735D01*
X84152581Y-44675266D01*
X84165440Y-44620180D01*
X84213700Y-44542075D01*
X84289900Y-44500165D01*
X84390865Y-44487465D01*
X84746465Y-44487465D01*
X84764245Y-44589065D01*
X84771865Y-44660502D01*
X84774405Y-44740195D01*
X84764245Y-44843700D01*
X84730590Y-44923075D01*
X84669630Y-44973875D01*
X84577555Y-44991655D01*
X84489925Y-44971335D01*
X84432775Y-44916725D01*
X84401660Y-44837985D01*
X84392135Y-44745275D01*
X84393538Y-44713525D01*
X84501355Y-44713525D01*
X84504530Y-44760515D01*
X84515325Y-44800520D01*
X84536915Y-44827825D01*
X84573745Y-44837985D01*
X84631530Y-44807505D01*
X84648675Y-44728765D01*
X84648040Y-44679235D01*
X84644865Y-44637325D01*
X84507705Y-44637325D01*
X84503260Y-44674155D01*
X84501355Y-44713525D01*
X84393538Y-44713525D01*
X84394675Y-44687807D01*
X84402295Y-44637325D01*
G37*
G36*
X83980655Y-51003835D02*
G01*
X84000022Y-50953035D01*
X84027645Y-50909855D01*
X84108290Y-50849530D01*
X84161471Y-50833814D01*
X84223225Y-50828575D01*
X84288630Y-50835560D01*
X84347685Y-50856515D01*
X84396898Y-50893663D01*
X84432775Y-50949225D01*
X84505800Y-50903505D01*
X84589620Y-50856515D01*
X84677250Y-50812700D01*
X84760435Y-50776505D01*
X84760435Y-50940335D01*
X84685664Y-50971926D01*
X84613750Y-51008280D01*
X84542789Y-51048444D01*
X84470875Y-51091465D01*
X84470875Y-51172745D01*
X84760435Y-51172745D01*
X84760435Y-51328955D01*
X83985735Y-51328955D01*
X83976210Y-51278790D01*
X83969860Y-51223545D01*
X83966685Y-51170205D01*
X83965415Y-51125755D01*
X84101305Y-51125755D01*
X84101940Y-51147345D01*
X84105115Y-51172745D01*
X84341335Y-51172745D01*
X84341335Y-51138455D01*
X84333556Y-51069558D01*
X84310220Y-51022885D01*
X84221955Y-50987325D01*
X84167980Y-50996850D01*
X84130515Y-51025425D01*
X84108607Y-51069558D01*
X84101305Y-51125755D01*
X83965415Y-51125755D01*
X83969225Y-51061620D01*
X83980655Y-51003835D01*
G37*
G36*
X84322285Y-45762545D02*
G01*
X84314665Y-45798740D01*
X84307680Y-45841285D01*
X84303235Y-45883195D01*
X84301965Y-45917485D01*
X84305140Y-45982255D01*
X84317205Y-46047025D01*
X84760435Y-46047025D01*
X84760435Y-46204505D01*
X84202905Y-46204505D01*
X84182267Y-46141481D01*
X84166075Y-46076870D01*
X84155597Y-46005909D01*
X84152105Y-45923835D01*
X84153375Y-45887640D01*
X84157820Y-45837475D01*
X84165440Y-45783500D01*
X84177505Y-45734605D01*
X84322285Y-45762545D01*
G37*
G36*
X84575015Y-48339375D02*
G01*
X84760435Y-48339375D01*
X84760435Y-48495585D01*
X84575015Y-48495585D01*
X84575015Y-48823245D01*
X84460715Y-48823245D01*
X84407851Y-48795623D01*
X84348320Y-48761015D01*
X84284661Y-48721010D01*
X84219415Y-48677195D01*
X84153851Y-48630205D01*
X84089240Y-48580675D01*
X84028439Y-48529875D01*
X83991899Y-48495585D01*
X84169885Y-48495585D01*
X84232115Y-48542575D01*
X84301330Y-48590200D01*
X84374355Y-48635285D01*
X84446745Y-48673385D01*
X84446745Y-48495585D01*
X84169885Y-48495585D01*
X83991899Y-48495585D01*
X83974305Y-48479075D01*
X83974305Y-48339375D01*
X84446745Y-48339375D01*
X84446745Y-48254285D01*
X84575015Y-48254285D01*
X84575015Y-48339375D01*
G37*
G36*
X84766150Y-41360725D02*
G01*
X84772341Y-41411842D01*
X84774405Y-41471215D01*
X84768373Y-41556146D01*
X84750275Y-41628060D01*
X84721700Y-41687591D01*
X84684235Y-41735375D01*
X84638515Y-41771729D01*
X84585175Y-41796970D01*
X84525803Y-41811734D01*
X84461985Y-41816655D01*
X84399120Y-41811575D01*
X84340065Y-41796335D01*
X84286566Y-41770617D01*
X84240370Y-41734105D01*
X84202270Y-41686639D01*
X84173060Y-41628060D01*
X84154486Y-41557734D01*
X84148295Y-41475025D01*
X84155915Y-41378505D01*
X84181315Y-41290875D01*
X84307045Y-41325165D01*
X84291170Y-41381680D01*
X84284185Y-41461055D01*
X84297520Y-41554400D01*
X84334350Y-41614725D01*
X84390865Y-41647745D01*
X84461985Y-41657905D01*
X84535645Y-41646316D01*
X84591525Y-41611550D01*
X84626768Y-41548844D01*
X84638515Y-41453435D01*
X84633435Y-41376600D01*
X84616925Y-41303575D01*
X84745195Y-41280715D01*
X84766150Y-41360725D01*
G37*
G36*
X84328635Y-45619035D02*
G01*
X84273866Y-45591095D01*
X84228940Y-45555535D01*
X84193856Y-45513307D01*
X84168615Y-45465365D01*
X84153375Y-45413930D01*
X84148295Y-45361225D01*
X84148567Y-45358685D01*
X84279105Y-45358685D01*
X84289265Y-45411390D01*
X84317205Y-45448220D01*
X84357845Y-45471080D01*
X84404835Y-45481875D01*
X84404835Y-45243115D01*
X84358480Y-45249465D01*
X84318475Y-45269785D01*
X84289900Y-45305345D01*
X84279105Y-45358685D01*
X84148567Y-45358685D01*
X84156973Y-45280227D01*
X84183008Y-45213341D01*
X84226400Y-45160565D01*
X84286443Y-45122465D01*
X84362431Y-45099605D01*
X84454365Y-45091985D01*
X84486115Y-45092620D01*
X84512785Y-45094525D01*
X84512785Y-45481875D01*
X84565014Y-45469810D01*
X84604860Y-45433615D01*
X84630101Y-45378370D01*
X84638515Y-45309155D01*
X84628355Y-45219620D01*
X84608035Y-45147865D01*
X84741385Y-45126275D01*
X84764880Y-45212635D01*
X84774405Y-45315505D01*
X84769484Y-45387736D01*
X84754720Y-45452030D01*
X84730273Y-45507910D01*
X84696300Y-45554900D01*
X84652961Y-45592524D01*
X84600415Y-45620305D01*
X84538503Y-45637450D01*
X84467065Y-45643165D01*
X84393088Y-45637132D01*
X84328635Y-45619035D01*
G37*
G36*
X84411820Y-49123600D02*
G01*
X84436585Y-49173765D01*
X84411820Y-49225835D01*
X84352765Y-49244885D01*
X84293075Y-49225835D01*
X84267675Y-49173765D01*
X84293075Y-49123600D01*
X84352765Y-49103915D01*
X84411820Y-49123600D01*
G37*
G36*
X84755355Y-43914377D02*
G01*
X84765515Y-43971845D01*
X84772183Y-44033440D01*
X84774405Y-44093765D01*
X84765233Y-44179349D01*
X84737716Y-44249834D01*
X84691855Y-44305220D01*
X84630048Y-44345084D01*
X84554695Y-44369002D01*
X84465795Y-44376975D01*
X84375272Y-44370272D01*
X84298437Y-44350164D01*
X84235290Y-44316650D01*
X84188371Y-44270013D01*
X84160219Y-44210534D01*
X84150835Y-44138215D01*
X84153829Y-44111545D01*
X84285455Y-44111545D01*
X84296567Y-44159805D01*
X84329905Y-44192825D01*
X84384198Y-44211875D01*
X84458175Y-44218225D01*
X84530883Y-44210764D01*
X84588985Y-44188380D01*
X84627085Y-44149486D01*
X84639785Y-44092495D01*
X84638515Y-44056935D01*
X84634705Y-44022645D01*
X84309585Y-44022645D01*
X84292440Y-44063285D01*
X84285455Y-44111545D01*
X84153829Y-44111545D01*
X84157820Y-44075985D01*
X84177505Y-44022645D01*
X83905725Y-44022645D01*
X83879055Y-43866435D01*
X84742655Y-43866435D01*
X84755355Y-43914377D01*
G37*
G36*
X84766150Y-42005250D02*
G01*
X84774405Y-42083355D01*
X84769960Y-42139394D01*
X84756625Y-42185590D01*
X84705190Y-42251630D01*
X84623275Y-42286555D01*
X84571523Y-42294175D01*
X84512785Y-42296715D01*
X84293075Y-42296715D01*
X84293075Y-42461815D01*
X84163535Y-42461815D01*
X84163535Y-42140505D01*
X84533105Y-42140505D01*
X84612480Y-42120820D01*
X84638515Y-42055415D01*
X84632800Y-42003345D01*
X84609305Y-41934765D01*
X84735035Y-41914445D01*
X84766150Y-42005250D01*
G37*
G36*
X84760435Y-50053875D02*
G01*
X84728685Y-50057050D01*
X84702015Y-50056415D01*
X84641055Y-50050541D01*
X84585175Y-50032920D01*
X84533899Y-50006250D01*
X84486750Y-49973230D01*
X84443253Y-49935765D01*
X84402930Y-49895760D01*
X84364989Y-49855755D01*
X84328635Y-49818290D01*
X84260055Y-49758600D01*
X84192745Y-49735105D01*
X84118450Y-49764315D01*
X84092415Y-49837975D01*
X84110195Y-49915445D01*
X84169885Y-49995455D01*
X84060665Y-50072925D01*
X84014310Y-50018156D01*
X83981925Y-49955450D01*
X83962875Y-49888934D01*
X83956525Y-49822735D01*
X83970495Y-49730025D01*
X84012405Y-49651285D01*
X84082890Y-49596675D01*
X84181315Y-49576355D01*
X84259420Y-49591595D01*
X84332445Y-49632235D01*
X84401025Y-49689385D01*
X84464525Y-49754155D01*
X84500720Y-49792255D01*
X84543900Y-49832895D01*
X84588985Y-49865280D01*
X84630895Y-49878615D01*
X84630895Y-49540795D01*
X84760435Y-49540795D01*
X84760435Y-50053875D01*
G37*
G36*
X84665185Y-43230165D02*
G01*
X84722335Y-43276520D01*
X84760435Y-43360975D01*
X84770913Y-43419077D01*
X84774405Y-43489245D01*
X84769960Y-43561000D01*
X84756625Y-43621325D01*
X84724875Y-43708955D01*
X84594065Y-43684825D01*
X84627085Y-43590210D01*
X84642325Y-43487975D01*
X84634070Y-43400345D01*
X84600415Y-43369865D01*
X84572475Y-43379390D01*
X84552790Y-43406060D01*
X84536915Y-43445430D01*
X84521675Y-43491785D01*
X84498180Y-43561635D01*
X84464525Y-43626405D01*
X84413090Y-43674665D01*
X84334985Y-43693715D01*
X84263230Y-43679110D01*
X84203540Y-43633390D01*
X84162900Y-43554015D01*
X84151946Y-43500992D01*
X84148295Y-43438445D01*
X84150517Y-43382089D01*
X84157185Y-43329860D01*
X84182585Y-43242865D01*
X84314665Y-43266995D01*
X84293710Y-43334305D01*
X84279105Y-43437175D01*
X84293710Y-43517820D01*
X84324825Y-43538775D01*
X84349590Y-43529250D01*
X84369275Y-43503850D01*
X84386420Y-43467020D01*
X84402295Y-43421935D01*
X84427695Y-43350815D01*
X84462620Y-43284140D01*
X84515960Y-43235245D01*
X84595335Y-43216195D01*
X84665185Y-43230165D01*
G37*
D15*
X87910000Y-77500000D02*
X87510000Y-77500000D01*
X84810000Y-77500000D02*
X85210000Y-77500000D01*
X87910000Y-74900000D02*
X87510000Y-74900000D01*
X85210000Y-74900000D02*
X84810000Y-74900000D01*
G36*
X90147140Y-50304700D02*
G01*
X90309700Y-50355500D01*
X90462100Y-50434240D01*
X90838020Y-50126900D01*
X91097100Y-50385980D01*
X90789760Y-50761900D01*
X90868500Y-50914300D01*
X90347800Y-51130200D01*
X90291920Y-51031140D01*
X90215720Y-50949860D01*
X90121740Y-50888900D01*
X90015060Y-50850800D01*
X89905840Y-50840640D01*
X89796620Y-50855880D01*
X89692480Y-50899060D01*
X89601040Y-50962560D01*
X89527380Y-51048920D01*
X89476580Y-51147980D01*
X89451180Y-51257200D01*
X89453720Y-51368960D01*
X89481660Y-51475640D01*
X89532460Y-51574700D01*
X89608660Y-51658520D01*
X89700100Y-51722020D01*
X89806780Y-51762660D01*
X89916000Y-51775360D01*
X90025220Y-51762660D01*
X90126820Y-51724560D01*
X90218260Y-51663600D01*
X90294460Y-51582320D01*
X90347800Y-51485800D01*
X90868500Y-51701700D01*
X90789760Y-51854100D01*
X91097100Y-52230020D01*
X90838020Y-52489100D01*
X90462100Y-52181760D01*
X90309700Y-52260500D01*
X90147140Y-52311300D01*
X90096340Y-52796440D01*
X89735660Y-52796440D01*
X89684860Y-52311300D01*
X89522300Y-52260500D01*
X89369900Y-52181760D01*
X88993980Y-52489100D01*
X88734900Y-52230020D01*
X89042240Y-51854100D01*
X88963500Y-51701700D01*
X88912700Y-51539140D01*
X88427560Y-51488340D01*
X88427560Y-51127660D01*
X88912700Y-51076860D01*
X88963500Y-50914300D01*
X89042240Y-50761900D01*
X88734900Y-50385980D01*
X88993980Y-50126900D01*
X89369900Y-50434240D01*
X89522300Y-50355500D01*
X89684860Y-50304700D01*
X89735660Y-49819560D01*
X90096340Y-49819560D01*
X90147140Y-50304700D01*
G37*
D16*
X90147140Y-50304700D02*
X90309700Y-50355500D01*
X90462100Y-50434240D01*
X90838020Y-50126900D01*
X91097100Y-50385980D01*
X90789760Y-50761900D01*
X90868500Y-50914300D01*
X90347800Y-51130200D01*
X90291920Y-51031140D01*
X90215720Y-50949860D01*
X90121740Y-50888900D01*
X90015060Y-50850800D01*
X89905840Y-50840640D01*
X89796620Y-50855880D01*
X89692480Y-50899060D01*
X89601040Y-50962560D01*
X89527380Y-51048920D01*
X89476580Y-51147980D01*
X89451180Y-51257200D01*
X89453720Y-51368960D01*
X89481660Y-51475640D01*
X89532460Y-51574700D01*
X89608660Y-51658520D01*
X89700100Y-51722020D01*
X89806780Y-51762660D01*
X89916000Y-51775360D01*
X90025220Y-51762660D01*
X90126820Y-51724560D01*
X90218260Y-51663600D01*
X90294460Y-51582320D01*
X90347800Y-51485800D01*
X90868500Y-51701700D01*
X90789760Y-51854100D01*
X91097100Y-52230020D01*
X90838020Y-52489100D01*
X90462100Y-52181760D01*
X90309700Y-52260500D01*
X90147140Y-52311300D01*
X90096340Y-52796440D01*
X89735660Y-52796440D01*
X89684860Y-52311300D01*
X89522300Y-52260500D01*
X89369900Y-52181760D01*
X88993980Y-52489100D01*
X88734900Y-52230020D01*
X89042240Y-51854100D01*
X88963500Y-51701700D01*
X88912700Y-51539140D01*
X88427560Y-51488340D01*
X88427560Y-51127660D01*
X88912700Y-51076860D01*
X88963500Y-50914300D01*
X89042240Y-50761900D01*
X88734900Y-50385980D01*
X88993980Y-50126900D01*
X89369900Y-50434240D01*
X89522300Y-50355500D01*
X89684860Y-50304700D01*
X89735660Y-49819560D01*
X90096340Y-49819560D01*
X90147140Y-50304700D01*
D15*
X84896000Y-26356400D02*
X84896000Y-25256400D01*
X87824000Y-25256400D02*
X87824000Y-26356400D01*
D17*
X87630000Y-24706400D02*
G75*
G03*
X87630000Y-24706400I-70000J0D01*
G01*
G36*
X88084660Y-41549320D02*
G01*
X88109425Y-41599485D01*
X88084660Y-41651555D01*
X88025605Y-41670605D01*
X87965915Y-41651555D01*
X87940515Y-41599485D01*
X87965915Y-41549320D01*
X88025605Y-41529635D01*
X88084660Y-41549320D01*
G37*
G36*
X88262460Y-47054135D02*
G01*
X88316276Y-47078583D01*
X88362155Y-47111285D01*
X88399303Y-47151766D01*
X88426925Y-47199550D01*
X88444070Y-47254001D01*
X88449785Y-47314485D01*
X88444070Y-47374969D01*
X88426925Y-47429420D01*
X88399303Y-47477363D01*
X88362155Y-47518320D01*
X88316276Y-47551499D01*
X88262460Y-47576105D01*
X88201341Y-47591345D01*
X88133555Y-47596425D01*
X88066721Y-47591186D01*
X88005920Y-47575470D01*
X87952262Y-47550388D01*
X87906860Y-47517050D01*
X87870347Y-47475934D01*
X87843360Y-47427515D01*
X87826691Y-47373223D01*
X87821135Y-47314485D01*
X87957025Y-47314485D01*
X87969249Y-47367984D01*
X88005920Y-47406560D01*
X88062594Y-47429896D01*
X88134825Y-47437675D01*
X88207215Y-47430531D01*
X88264365Y-47409100D01*
X88301513Y-47371794D01*
X88313895Y-47317025D01*
X88301513Y-47263526D01*
X88264365Y-47224950D01*
X88207215Y-47201614D01*
X88134825Y-47193835D01*
X88062594Y-47200979D01*
X88005920Y-47222410D01*
X87969249Y-47259716D01*
X87957025Y-47314485D01*
X87821135Y-47314485D01*
X87826691Y-47254954D01*
X87843360Y-47200820D01*
X87870347Y-47152878D01*
X87906860Y-47111920D01*
X87952262Y-47078741D01*
X88005920Y-47054135D01*
X88066721Y-47038895D01*
X88133555Y-47033815D01*
X88201341Y-47038895D01*
X88262460Y-47054135D01*
G37*
G36*
X87665631Y-48448877D02*
G01*
X87699850Y-48386365D01*
X87749592Y-48340504D01*
X87816690Y-48312987D01*
X87901145Y-48303815D01*
X87986447Y-48313058D01*
X88054392Y-48340786D01*
X88104980Y-48387000D01*
X88139905Y-48450147D01*
X88160860Y-48528676D01*
X88167845Y-48622585D01*
X88167845Y-48678465D01*
X88433275Y-48678465D01*
X88433275Y-48834675D01*
X87657305Y-48834675D01*
X87648415Y-48783240D01*
X87642700Y-48725455D01*
X87639525Y-48668305D01*
X87638255Y-48618775D01*
X87639572Y-48600995D01*
X87774145Y-48600995D01*
X87774780Y-48639730D01*
X87777955Y-48678465D01*
X88031955Y-48678465D01*
X88031955Y-48614965D01*
X88024494Y-48549243D01*
X88002110Y-48501935D01*
X87961629Y-48473360D01*
X87899875Y-48463835D01*
X87841296Y-48473201D01*
X87802720Y-48501300D01*
X87781289Y-48544956D01*
X87774145Y-48600995D01*
X87639572Y-48600995D01*
X87645099Y-48526347D01*
X87665631Y-48448877D01*
G37*
G36*
X87919401Y-44517469D02*
G01*
X88000840Y-44540170D01*
X88080532Y-44562871D01*
X88158320Y-44586525D01*
X88234361Y-44611449D01*
X88308815Y-44637960D01*
X88381523Y-44666376D01*
X88452325Y-44697015D01*
X88539955Y-44744640D01*
X88600280Y-44796710D01*
X88635205Y-44860210D01*
X88646635Y-44942125D01*
X88640285Y-45013880D01*
X88623775Y-45067855D01*
X88492965Y-45038645D01*
X88508840Y-44993560D01*
X88513285Y-44951015D01*
X88482805Y-44877355D01*
X88410415Y-44832905D01*
X88332310Y-44870158D01*
X88247008Y-44907412D01*
X88154510Y-44944665D01*
X88080572Y-44971970D01*
X88002904Y-44998005D01*
X87921505Y-45022770D01*
X87836375Y-45046265D01*
X87836375Y-44883705D01*
X87936705Y-44857670D01*
X87990045Y-44842589D01*
X88043385Y-44826555D01*
X88096249Y-44809569D01*
X88148160Y-44791630D01*
X88244045Y-44754165D01*
X88148160Y-44727495D01*
X88096407Y-44713843D01*
X88044020Y-44700825D01*
X87991156Y-44688284D01*
X87937975Y-44676060D01*
X87836375Y-44653835D01*
X87836375Y-44493815D01*
X87919401Y-44517469D01*
G37*
G36*
X88418035Y-40885745D02*
G01*
X88447245Y-40964485D01*
X88439625Y-41007665D01*
X88417400Y-41043860D01*
X88381840Y-41069260D01*
X88332945Y-41078785D01*
X88285320Y-41069260D01*
X88250395Y-41043860D01*
X88228805Y-41007665D01*
X88221185Y-40964485D01*
X88250395Y-40885745D01*
X88332945Y-40851455D01*
X88418035Y-40885745D01*
G37*
G36*
X88001475Y-43759755D02*
G01*
X87946706Y-43731815D01*
X87901780Y-43696255D01*
X87866696Y-43654027D01*
X87841455Y-43606085D01*
X87826215Y-43554650D01*
X87821135Y-43501945D01*
X87821407Y-43499405D01*
X87951945Y-43499405D01*
X87962105Y-43552110D01*
X87990045Y-43588940D01*
X88030685Y-43611800D01*
X88077675Y-43622595D01*
X88077675Y-43383835D01*
X88031320Y-43390185D01*
X87991315Y-43410505D01*
X87962740Y-43446065D01*
X87951945Y-43499405D01*
X87821407Y-43499405D01*
X87829813Y-43420947D01*
X87855848Y-43354061D01*
X87899240Y-43301285D01*
X87959283Y-43263185D01*
X88035271Y-43240325D01*
X88127205Y-43232705D01*
X88158955Y-43233340D01*
X88185625Y-43235245D01*
X88185625Y-43622595D01*
X88237854Y-43610530D01*
X88277700Y-43574335D01*
X88302941Y-43519090D01*
X88311355Y-43449875D01*
X88301195Y-43360340D01*
X88280875Y-43288585D01*
X88414225Y-43266995D01*
X88437720Y-43353355D01*
X88447245Y-43456225D01*
X88442324Y-43528456D01*
X88427560Y-43592750D01*
X88403113Y-43648630D01*
X88369140Y-43695620D01*
X88325801Y-43733244D01*
X88273255Y-43761025D01*
X88211343Y-43778170D01*
X88139905Y-43783885D01*
X88065927Y-43777852D01*
X88001475Y-43759755D01*
G37*
G36*
X88433275Y-40542845D02*
G01*
X88303735Y-40542845D01*
X88303735Y-40377745D01*
X87864315Y-40377745D01*
X87909400Y-40459025D01*
X87940515Y-40536495D01*
X87810975Y-40587295D01*
X87781765Y-40521255D01*
X87742395Y-40450135D01*
X87696675Y-40382825D01*
X87647145Y-40328215D01*
X87647145Y-40221535D01*
X88303735Y-40221535D01*
X88303735Y-40065325D01*
X88433275Y-40065325D01*
X88433275Y-40542845D01*
G37*
G36*
X87727790Y-41950481D02*
G01*
X87817325Y-41970960D01*
X87913686Y-41994772D01*
X88014810Y-42021760D01*
X88084237Y-42041445D01*
X88154510Y-42062400D01*
X88225630Y-42084625D01*
X88296397Y-42107767D01*
X88365612Y-42131474D01*
X88433275Y-42155745D01*
X88433275Y-42317035D01*
X88339930Y-42348467D01*
X88235155Y-42381805D01*
X88161566Y-42404242D01*
X88088117Y-42425832D01*
X88014810Y-42446575D01*
X87942914Y-42466189D01*
X87873699Y-42484393D01*
X87807165Y-42501185D01*
X87718265Y-42522140D01*
X87647145Y-42536745D01*
X87647145Y-42371645D01*
X87713026Y-42362120D01*
X87788750Y-42348785D01*
X87870665Y-42332751D01*
X87955120Y-42315130D01*
X88040210Y-42296080D01*
X88124030Y-42275760D01*
X88202929Y-42254964D01*
X88273255Y-42234485D01*
X88203881Y-42214165D01*
X88125300Y-42193845D01*
X88041480Y-42174160D01*
X87956390Y-42155745D01*
X87871776Y-42138600D01*
X87789385Y-42122725D01*
X87713185Y-42108755D01*
X87647145Y-42097325D01*
X87647145Y-41933495D01*
X87727790Y-41950481D01*
G37*
G36*
X88261190Y-43877865D02*
G01*
X88314848Y-43896597D01*
X88360250Y-43922315D01*
X88424385Y-43995975D01*
X88441530Y-44043917D01*
X88447245Y-44098845D01*
X88439943Y-44159487D01*
X88418035Y-44222035D01*
X88642825Y-44222035D01*
X88642825Y-44378245D01*
X87855425Y-44378245D01*
X87842725Y-44330144D01*
X87832565Y-44272200D01*
X87825897Y-44209811D01*
X87823721Y-44149645D01*
X87957025Y-44149645D01*
X87958930Y-44187745D01*
X87962105Y-44222035D01*
X88289765Y-44222035D01*
X88306275Y-44181395D01*
X88312625Y-44130595D01*
X88301354Y-44082017D01*
X88267540Y-44048045D01*
X88213089Y-44028042D01*
X88139905Y-44021375D01*
X88067039Y-44029312D01*
X88008460Y-44053125D01*
X87969884Y-44093130D01*
X87957025Y-44149645D01*
X87823721Y-44149645D01*
X87823675Y-44148375D01*
X87832988Y-44063285D01*
X87860928Y-43992588D01*
X87907495Y-43936285D01*
X87970007Y-43895363D01*
X88045784Y-43870809D01*
X88134825Y-43862625D01*
X88200706Y-43866435D01*
X88261190Y-43877865D01*
G37*
G36*
X88439625Y-46492160D02*
G01*
X88447245Y-46589315D01*
X88438355Y-46685835D01*
X88404065Y-46756955D01*
X88332310Y-46801405D01*
X88278811Y-46812835D01*
X88211025Y-46816645D01*
X87965915Y-46816645D01*
X87965915Y-46952535D01*
X87836375Y-46952535D01*
X87836375Y-46816645D01*
X87686515Y-46816645D01*
X87661115Y-46660435D01*
X87836375Y-46660435D01*
X87836375Y-46410245D01*
X87965915Y-46410245D01*
X87965915Y-46660435D01*
X88207215Y-46660435D01*
X88260555Y-46654085D01*
X88292305Y-46636305D01*
X88307545Y-46608365D01*
X88311355Y-46571535D01*
X88310085Y-46531530D01*
X88305640Y-46495970D01*
X88296115Y-46460410D01*
X88279605Y-46420405D01*
X88414225Y-46398815D01*
X88439625Y-46492160D01*
G37*
G36*
X88262460Y-45784135D02*
G01*
X88316276Y-45808583D01*
X88362155Y-45841285D01*
X88399303Y-45881766D01*
X88426925Y-45929550D01*
X88444070Y-45984001D01*
X88449785Y-46044485D01*
X88444070Y-46104969D01*
X88426925Y-46159420D01*
X88399303Y-46207363D01*
X88362155Y-46248320D01*
X88316276Y-46281499D01*
X88262460Y-46306105D01*
X88201341Y-46321345D01*
X88133555Y-46326425D01*
X88066721Y-46321186D01*
X88005920Y-46305470D01*
X87952262Y-46280388D01*
X87906860Y-46247050D01*
X87870347Y-46205934D01*
X87843360Y-46157515D01*
X87826691Y-46103223D01*
X87821135Y-46044485D01*
X87957025Y-46044485D01*
X87969249Y-46097984D01*
X88005920Y-46136560D01*
X88062594Y-46159896D01*
X88134825Y-46167675D01*
X88207215Y-46160531D01*
X88264365Y-46139100D01*
X88301513Y-46101794D01*
X88313895Y-46047025D01*
X88301513Y-45993526D01*
X88264365Y-45954950D01*
X88207215Y-45931614D01*
X88134825Y-45923835D01*
X88062594Y-45930979D01*
X88005920Y-45952410D01*
X87969249Y-45989716D01*
X87957025Y-46044485D01*
X87821135Y-46044485D01*
X87826691Y-45984954D01*
X87843360Y-45930820D01*
X87870347Y-45882878D01*
X87906860Y-45841920D01*
X87952262Y-45808741D01*
X88005920Y-45784135D01*
X88066721Y-45768895D01*
X88133555Y-45763815D01*
X88201341Y-45768895D01*
X88262460Y-45784135D01*
G37*
G36*
X87995125Y-47713265D02*
G01*
X87987505Y-47749460D01*
X87980520Y-47792005D01*
X87976075Y-47833915D01*
X87974805Y-47868205D01*
X87977980Y-47932975D01*
X87990045Y-47997745D01*
X88433275Y-47997745D01*
X88433275Y-48155225D01*
X87875745Y-48155225D01*
X87855107Y-48092201D01*
X87838915Y-48027590D01*
X87828437Y-47956629D01*
X87824945Y-47874555D01*
X87826215Y-47838360D01*
X87830660Y-47788195D01*
X87838280Y-47734220D01*
X87850345Y-47685325D01*
X87995125Y-47713265D01*
G37*
G36*
X88219915Y-41345167D02*
G01*
X88290718Y-41366996D01*
X88348185Y-41397555D01*
X88404629Y-41451177D01*
X88438496Y-41518911D01*
X88449785Y-41600755D01*
X88438496Y-41682599D01*
X88404629Y-41750333D01*
X88348185Y-41803955D01*
X88290718Y-41834514D01*
X88219915Y-41856342D01*
X88135777Y-41869439D01*
X88038305Y-41873805D01*
X87941944Y-41869360D01*
X87858600Y-41856025D01*
X87788274Y-41833800D01*
X87730965Y-41802685D01*
X87674521Y-41748639D01*
X87640654Y-41681329D01*
X87629365Y-41600755D01*
X87762715Y-41600755D01*
X87780336Y-41656952D01*
X87833200Y-41698545D01*
X87887316Y-41717595D01*
X87955684Y-41729025D01*
X88038305Y-41732835D01*
X88121631Y-41729025D01*
X88190423Y-41717595D01*
X88244680Y-41698545D01*
X88297544Y-41656952D01*
X88315165Y-41600755D01*
X88297544Y-41543764D01*
X88244680Y-41502330D01*
X88190423Y-41483633D01*
X88121631Y-41472414D01*
X88038305Y-41468675D01*
X87955684Y-41472414D01*
X87887316Y-41483633D01*
X87833200Y-41502330D01*
X87780336Y-41543764D01*
X87762715Y-41600755D01*
X87629365Y-41600755D01*
X87640583Y-41518911D01*
X87674238Y-41451177D01*
X87730330Y-41397555D01*
X87787440Y-41366996D01*
X87857806Y-41345167D01*
X87941428Y-41332071D01*
X88038305Y-41327705D01*
X88135777Y-41332071D01*
X88219915Y-41345167D01*
G37*
G36*
X88439625Y-45222160D02*
G01*
X88447245Y-45319315D01*
X88438355Y-45415835D01*
X88404065Y-45486955D01*
X88332310Y-45531405D01*
X88278811Y-45542835D01*
X88211025Y-45546645D01*
X87965915Y-45546645D01*
X87965915Y-45682535D01*
X87836375Y-45682535D01*
X87836375Y-45546645D01*
X87686515Y-45546645D01*
X87661115Y-45390435D01*
X87836375Y-45390435D01*
X87836375Y-45140245D01*
X87965915Y-45140245D01*
X87965915Y-45390435D01*
X88207215Y-45390435D01*
X88260555Y-45384085D01*
X88292305Y-45366305D01*
X88307545Y-45338365D01*
X88311355Y-45301535D01*
X88310085Y-45261530D01*
X88305640Y-45225970D01*
X88296115Y-45190410D01*
X88279605Y-45150405D01*
X88414225Y-45128815D01*
X88439625Y-45222160D01*
G37*
D15*
X81410253Y-68580000D02*
X81749664Y-68919411D01*
X81410253Y-68580000D02*
X81749664Y-68240589D01*
X86360000Y-63630253D02*
X86020589Y-63969664D01*
X86360000Y-73529747D02*
X86020589Y-73190336D01*
X91309747Y-68580000D02*
X90970336Y-68919411D01*
X86360000Y-73529747D02*
X86699411Y-73190336D01*
X91309747Y-68580000D02*
X90970336Y-68240589D01*
X86360000Y-63630253D02*
X86699411Y-63969664D01*
D18*
X81762600Y-16814800D02*
X81762600Y-17658407D01*
X90957400Y-17658407D02*
X90957400Y-16814800D01*
X81762600Y-20437991D02*
X81762600Y-21861608D01*
X90957400Y-21861608D02*
X90957400Y-20437991D01*
X90957400Y-16814800D02*
X81762600Y-16814800D01*
M02*
