M48
; DRILL file {KiCad (6.0.6)} date Thu Mar  9 12:54:59 2023
; FORMAT={-:-/ absolute / metric / decimal}
; #@! TF.CreationDate,2023-03-09T12:54:59-07:00
; #@! TF.GenerationSoftware,Kicad,Pcbnew,(6.0.6)
; #@! TF.FileFunction,Plated,1,8,PTH
FMAT,2
METRIC
; #@! TA.AperFunction,Plated,PTH,ViaDrill
T1C0.200
; #@! TA.AperFunction,Plated,PTH,ComponentDrill
T2C0.600
; #@! TA.AperFunction,Plated,PTH,ComponentDrill
T3C1.000
%
G90
G05
T1
X81.788Y-25.603
X81.87Y-74.676
X82.042Y-53.086
X82.271Y-74.041
X82.29Y-24.708
X82.29Y-64.99
X82.3Y-63.96
X82.55Y-39.446
X82.55Y-44.374
X82.601Y-72.136
X82.804Y-65.862
X82.829Y-25.73
X82.956Y-71.349
X83.058Y-53.086
X83.363Y-25.273
X83.414Y-65.456
X83.668Y-69.113
X83.73Y-73.26
X83.76Y-72.51
X83.871Y-24.765
X83.922Y-25.73
X84.74Y-70.16
X84.836Y-31.242
X84.836Y-32.258
X84.836Y-52.07
X84.836Y-52.984
X84.836Y-53.848
X84.836Y-66.548
X84.89Y-29.68
X85.369Y-66.04
X85.48Y-67.68
X85.585Y-29.035
X85.801Y-65.456
X85.979Y-36.576
X86.36Y-72.136
X86.36Y-75.997
X86.36Y-79.375
X86.36Y-80.874
X86.36Y-84.353
X86.36Y-85.09
X86.36Y-85.827
X86.36Y-90.068
X86.36Y-92.812
X86.36Y-93.828
X86.36Y-96.622
X86.36Y-97.587
X86.36Y-100.33
X86.36Y-101.346
X86.36Y-104.089
X86.36Y-105.105
X86.36Y-107.848
X86.36Y-108.814
X86.36Y-111.608
X86.36Y-112.573
X86.36Y-115.367
X86.36Y-116.332
X86.36Y-119.126
X86.36Y-120.091
X86.36Y-122.885
X86.36Y-123.85
X86.36Y-126.644
X86.36Y-127.61
X86.36Y-130.404
X86.36Y-131.369
X86.36Y-134.163
X86.36Y-135.128
X86.36Y-137.922
X86.36Y-138.887
X86.36Y-141.63
X86.36Y-142.646
X86.36Y-145.39
X86.36Y-146.406
X86.36Y-149.149
X86.36Y-150.114
X86.36Y-152.908
X86.36Y-153.873
X86.36Y-156.667
X86.36Y-157.632
X86.36Y-160.426
X86.36Y-161.392
X86.36Y-164.186
X86.36Y-165.151
X86.36Y-167.945
X86.36Y-168.91
X86.36Y-171.704
X86.36Y-172.669
X86.36Y-175.463
X86.36Y-176.428
X86.36Y-179.172
X86.368Y-78.482
X86.37Y-68.57
X86.371Y-80.137
X86.43Y-73.7
X86.76Y-50.05
X87.02Y-65.888
X87.077Y-71.309
X87.122Y-57.912
X87.122Y-60.198
X87.29Y-69.47
X87.46Y-50.05
X87.88Y-70.75
X88.011Y-31.242
X88.011Y-32.258
X88.07Y-72.82
X88.443Y-67.005
X88.494Y-63.525
X88.58Y-70.03
X88.843Y-26.791
X89.002Y-64.059
X89.04Y-72.65
X89.052Y-69.418
X89.103Y-68.326
X89.48Y-73.45
X89.484Y-64.618
X89.586Y-65.405
X89.586Y-68.885
X90.1Y-71.05
X90.226Y-64.224
X90.322Y-24.663
X90.551Y-25.654
X90.83Y-70.206
X90.926Y-64.224
T3
X82.55Y-27.94
X82.55Y-30.48
X82.55Y-33.02
X82.55Y-35.56
X82.55Y-38.1
X82.55Y-45.72
X82.55Y-60.96
X82.55Y-76.2
X82.55Y-91.44
X82.55Y-106.68
X82.55Y-121.92
X82.55Y-137.16
X82.55Y-152.4
X82.55Y-167.64
X82.55Y-175.26
X82.55Y-177.8
X90.17Y-27.94
X90.17Y-30.48
X90.17Y-33.02
X90.17Y-35.56
X90.17Y-38.1
X90.17Y-45.72
X90.17Y-60.96
X90.17Y-76.2
X90.17Y-91.44
X90.17Y-106.68
X90.17Y-121.92
X90.17Y-137.16
X90.17Y-152.4
X90.17Y-167.64
X90.17Y-175.26
X90.17Y-177.8
T2
G00X82.04Y-19.648
M15
G01X82.04Y-18.448
M16
G05
G00X82.04Y-23.448
M15
G01X82.04Y-22.648
M16
G05
G00X90.68Y-19.648
M15
G01X90.68Y-18.448
M16
G05
G00X90.68Y-23.448
M15
G01X90.68Y-22.648
M16
G05
T0
M30
